<?xml version="1.0" standalone="no" ?><!DOCTYPE svg PUBLIC "-//W3C//DTD SVG 1.1//EN" "http://www.w3.org/Graphics/SVG/1.1/DTD/svg11.dtd"><svg width="102px" height="34px" viewBox="0 0 102 34" style="background-color: #ffffff00" xmlns="http://www.w3.org/2000/svg" xmlns:xlink="http://www.w3.org/1999/xlink" version="1.1" ><path stroke="none" fill="#000000" transform="matrix(0.05 0 0 0.05 -50 -89)" d="M 1057.82,2220.72 L 1046.74,2201.52 L 1311.67,2047.98 L 1311.67,2073.64 L 1057.82,2220.72 Z " /><path stroke="none" fill="#000000" transform="matrix(0.05 0 0 0.05 -50 -89)" d="M 1311.67,2073.64 L 1311.67,2047.98 L 1571.36,2198.99 L 1571.3,2224.66 L 1311.67,2073.64 Z " /><text x="0" y="0" stroke="none" fill="#000000" transform="matrix(0.05 0 0 0.05 38.273 17.3068)" font-style="normal" font-weight="bold" font-size="180px" font-family="Helvetica" >Br</text><path stroke="none" fill="#000000" transform="matrix(0.05 0 0 0.05 -50 -89)" d="M 1571.3,2224.66 L 1571.36,2198.99 L 1732.03,2105.38 L 1743.12,2124.59 L 1571.3,2224.66 Z " /><path stroke="none" fill="#000000" transform="matrix(0.05 0 0 0.05 -50 -89)" d="M 2790.64,2128.88 L 2144.52,2128.88 L 2144.52,2106.88 L 2790.64,2106.88 Z " /><path stroke="none" fill="#000000" transform="matrix(0.05 0 0 0.05 -50 -89)" d="M 2983.68,2117.88 C 2983.68,2117.88 2761.92,2174.32 2761.92,2174.32 C 2761.92,2174.32 2789.64,2142.57 2789.64,2117.88 C 2789.64,2092.75 2761.92,2060.44 2761.92,2060.44 C 2761.92,2060.44 2983.68,2117.88 2983.68,2117.88 C 2983.68,2117.88 2983.68,2117.88 2983.68,2117.88 " /><path stroke="#000000" stroke-width="1" fill="none" transform="matrix(0.05 0 0 0.05 -50 -89)" d="M 2983.68,2117.88 C 2983.68,2117.88 2761.92,2174.32 2761.92,2174.32 C 2761.92,2174.32 2789.64,2142.57 2789.64,2117.88 C 2789.64,2092.75 2761.92,2060.44 2761.92,2060.44 C 2761.92,2060.44 2983.68,2117.88 2983.68,2117.88 C 2983.68,2117.88 2983.68,2117.88 2983.68,2117.88 " /><text x="0" y="0" stroke="none" fill="#000000" transform="matrix(0.05 0 0 0.05 65.218 10.234)" font-style="normal" font-weight="bold" font-size="200px" font-family="Helvetica" >KCN</text><text x="0" y="0" stroke="none" fill="#000000" transform="matrix(0.05 0 0 0.05 61.888 30.88)" font-style="normal" font-weight="bold" font-size="200px" font-family="Helvetica" >DMSO</text></svg>