<?xml version="1.0" standalone="no" ?><!DOCTYPE svg PUBLIC "-//W3C//DTD SVG 1.1//EN" "http://www.w3.org/Graphics/SVG/1.1/DTD/svg11.dtd"><svg width="100px" height="37px" viewBox="0 0 100 37" style="background-color: #ffffff00" xmlns="http://www.w3.org/2000/svg" xmlns:xlink="http://www.w3.org/1999/xlink" version="1.1" ><path stroke="none" fill="#000000" transform="matrix(0.05 0 0 0.05 -197 -85)" d="M 4255.39,2060.32 L 4255.39,2048.04 L 4266.02,2041.9 L 4515.03,2185.64 L 4514.98,2211.31 L 4255.39,2060.32 Z " /><text x="0" y="0" stroke="none" fill="#000000" transform="matrix(0.05 0 0 0.05 38.459 20.6408)" font-style="normal" font-weight="bold" font-size="180px" font-family="Helvetica" >Cl</text><path stroke="none" fill="#000000" transform="matrix(0.05 0 0 0.05 -197 -85)" d="M 4514.98,2211.31 L 4515.03,2185.64 L 4687.58,2085.23 L 4698.67,2104.44 L 4514.98,2211.31 Z " /><path stroke="none" fill="#000000" transform="matrix(0.05 0 0 0.05 -197 -85)" d="M 5694.4,2075.6 L 5048.28,2075.6 L 5048.28,2053.6 L 5694.4,2053.6 Z " /><path stroke="none" fill="#000000" transform="matrix(0.05 0 0 0.05 -197 -85)" d="M 5887.44,2064.6 C 5887.44,2064.6 5665.68,2121.04 5665.68,2121.04 C 5665.68,2121.04 5693.4,2089.29 5693.4,2064.6 C 5693.4,2039.47 5665.68,2007.16 5665.68,2007.16 C 5665.68,2007.16 5887.44,2064.6 5887.44,2064.6 C 5887.44,2064.6 5887.44,2064.6 5887.44,2064.6 " /><path stroke="#000000" stroke-width="1" fill="none" transform="matrix(0.05 0 0 0.05 -197 -85)" d="M 5887.44,2064.6 C 5887.44,2064.6 5665.68,2121.04 5665.68,2121.04 C 5665.68,2121.04 5693.4,2089.29 5693.4,2064.6 C 5693.4,2039.47 5665.68,2007.16 5665.68,2007.16 C 5665.68,2007.16 5887.44,2064.6 5887.44,2064.6 C 5887.44,2064.6 5887.44,2064.6 5887.44,2064.6 " /><text x="0" y="0" stroke="none" fill="#000000" transform="matrix(0.05 0 0 0.05 62.74 11.57)" font-style="normal" font-weight="bold" font-size="200px" font-family="Helvetica" >NaSH</text><text x="0" y="0" stroke="none" fill="#000000" transform="matrix(0.05 0 0 0.05 60.076 32.216)" font-style="normal" font-weight="bold" font-size="200px" font-family="Helvetica" >CH</text><text x="0" y="0" stroke="none" fill="#000000" transform="matrix(0.05 0 0 0.05 74.5193 34.5158)" font-style="normal" font-weight="bold" font-size="150px" font-family="Helvetica" >3</text><text x="0" y="0" stroke="none" fill="#000000" transform="matrix(0.05 0 0 0.05 78.6905 32.216)" font-style="normal" font-weight="bold" font-size="200px" font-family="Helvetica" >CN</text><path stroke="none" fill="#000000" transform="matrix(0.05 0 0 0.05 -197 -85)" d="M 4244.76,2041.9 L 4255.39,2048.04 L 4255.39,2060.32 L 4001.54,2207.4 L 3990.46,2188.2 L 4244.76,2041.9 Z " /><path stroke="none" fill="#000000" transform="matrix(0.05 0 0 0.05 -197 -85)" d="M 4266.02,2041.9 L 4255.39,2048.04 L 4244.76,2041.9 L 4244.3,1748.52 L 4266.48,1748.52 L 4266.02,2041.9 Z " /></svg>