<?xml version="1.0" standalone="no" ?><!DOCTYPE svg PUBLIC "-//W3C//DTD SVG 1.1//EN" "http://www.w3.org/Graphics/SVG/1.1/DTD/svg11.dtd"><svg width="100px" height="30px" viewBox="0 0 100 30" style="background-color: #ffffff00" xmlns="http://www.w3.org/2000/svg" xmlns:xlink="http://www.w3.org/1999/xlink" version="1.1" ><path stroke="none" fill="#000000" transform="matrix(0.05 0 0 0.05 -341 -87)" d="M 7132.51,2100.28 L 7132.51,2074.62 L 7392.06,2225.56 L 7392.03,2251.22 L 7132.51,2100.28 Z " /><text x="0" y="0" stroke="none" fill="#000000" transform="matrix(0.05 0 0 0.05 40.3145 20.6387)" font-style="normal" font-weight="bold" font-size="180px" font-family="Helvetica" >I</text><path stroke="none" fill="#000000" transform="matrix(0.05 0 0 0.05 -341 -87)" d="M 7392.03,2251.22 L 7392.06,2225.56 L 7585.6,2113.13 L 7596.69,2132.33 L 7392.03,2251.22 Z " /><path stroke="none" fill="#000000" transform="matrix(0.05 0 0 0.05 -341 -87)" d="M 8571.52,2115.56 L 7925.4,2115.56 L 7925.4,2093.56 L 8571.52,2093.56 Z " /><path stroke="none" fill="#000000" transform="matrix(0.05 0 0 0.05 -341 -87)" d="M 8764.56,2104.56 C 8764.56,2104.56 8542.8,2161 8542.8,2161 C 8542.8,2161 8570.52,2129.25 8570.52,2104.56 C 8570.52,2079.43 8542.8,2047.12 8542.8,2047.12 C 8542.8,2047.12 8764.56,2104.56 8764.56,2104.56 C 8764.56,2104.56 8764.56,2104.56 8764.56,2104.56 " /><path stroke="#000000" stroke-width="1" fill="none" transform="matrix(0.05 0 0 0.05 -341 -87)" d="M 8764.56,2104.56 C 8764.56,2104.56 8542.8,2161 8542.8,2161 C 8542.8,2161 8570.52,2129.25 8570.52,2104.56 C 8570.52,2079.43 8542.8,2047.12 8542.8,2047.12 C 8542.8,2047.12 8764.56,2104.56 8764.56,2104.56 C 8764.56,2104.56 8764.56,2104.56 8764.56,2104.56 " /><path stroke="none" fill="#000000" transform="matrix(0.05 0 0 0.05 -341 -87)" d="M 7132.51,2074.62 L 7132.51,2100.28 L 6878.66,2247.36 L 6867.58,2228.16 L 7132.51,2074.62 Z " /><path stroke="none" fill="#000000" transform="matrix(0.05 0 0 0.05 -341 -87)" d="M 7126.97,2142.41 L 7138.06,2161.62 L 6906.38,2295.37 L 6895.3,2276.17 L 7126.97,2142.41 Z " /><text x="0" y="0" stroke="none" fill="#000000" transform="matrix(0.05 0 0 0.05 59.266 10.236)" font-style="normal" font-weight="bold" font-size="200px" font-family="Helvetica" >NaOH</text></svg>