<?xml version="1.0" standalone="no" ?><!DOCTYPE svg PUBLIC "-//W3C//DTD SVG 1.1//EN" "http://www.w3.org/Graphics/SVG/1.1/DTD/svg11.dtd"><svg width="102px" height="34px" viewBox="0 0 102 34" style="background-color: #ffffff00" xmlns="http://www.w3.org/2000/svg" xmlns:xlink="http://www.w3.org/1999/xlink" version="1.1" ><path stroke="none" fill="#000000" transform="matrix(0.05 0 0 0.05 -493 -84)" d="M 9928.94,2140.8 L 9917.86,2121.6 L 10182.8,1968.06 L 10182.8,1993.72 L 9928.94,2140.8 Z " /><path stroke="none" fill="#000000" transform="matrix(0.05 0 0 0.05 -493 -84)" d="M 10182.8,1993.72 L 10182.8,1968.06 L 10442.4,2119.04 L 10442.4,2144.71 L 10182.8,1993.72 Z " /><text x="0" y="0" stroke="none" fill="#000000" transform="matrix(0.05 0 0 0.05 38.829 18.3108)" font-style="normal" font-weight="bold" font-size="180px" font-family="Helvetica" >Cl</text><path stroke="none" fill="#000000" transform="matrix(0.05 0 0 0.05 -493 -84)" d="M 10442.4,2144.71 L 10442.4,2119.04 L 10615,2018.63 L 10626.1,2037.84 L 10442.4,2144.71 Z " /><path stroke="none" fill="#000000" transform="matrix(0.05 0 0 0.05 -493 -84)" d="M 11661.8,2048.96 L 11015.6,2048.96 L 11015.6,2026.96 L 11661.8,2026.96 Z " /><path stroke="none" fill="#000000" transform="matrix(0.05 0 0 0.05 -493 -84)" d="M 11854.8,2037.96 C 11854.8,2037.96 11633,2094.4 11633,2094.4 C 11633,2094.4 11660.8,2062.65 11660.8,2037.96 C 11660.8,2012.83 11633,1980.52 11633,1980.52 C 11633,1980.52 11854.8,2037.96 11854.8,2037.96 C 11854.8,2037.96 11854.8,2037.96 11854.8,2037.96 " /><path stroke="#000000" stroke-width="1" fill="none" transform="matrix(0.05 0 0 0.05 -493 -84)" d="M 11854.8,2037.96 C 11854.8,2037.96 11633,2094.4 11633,2094.4 C 11633,2094.4 11660.8,2062.65 11660.8,2037.96 C 11660.8,2012.83 11633,1980.52 11633,1980.52 C 11633,1980.52 11854.8,2037.96 11854.8,2037.96 C 11854.8,2037.96 11854.8,2037.96 11854.8,2037.96 " /><text x="0" y="0" stroke="none" fill="#000000" transform="matrix(0.05 0 0 0.05 70.436 9.90599)" font-style="normal" font-weight="bold" font-size="200px" font-family="Helvetica" >NaI</text><text x="0" y="0" stroke="none" fill="#000000" transform="matrix(0.05 0 0 0.05 60.446 31.218)" font-style="normal" font-weight="bold" font-size="200px" font-family="Helvetica" >acetone</text></svg>