<?xml version="1.0" standalone="no" ?><!DOCTYPE svg PUBLIC "-//W3C//DTD SVG 1.1//EN" "http://www.w3.org/Graphics/SVG/1.1/DTD/svg11.dtd"><svg width="119px" height="41px" viewBox="0 0 119 41" style="background-color: #ffffff00" xmlns="http://www.w3.org/2000/svg" xmlns:xlink="http://www.w3.org/1999/xlink" version="1.1" ><path stroke="none" fill="#000000" transform="matrix(0.05 0 0 0.05 -642 -79)" d="M 12881.2,1911.12 L 12892.3,1891.92 L 13146.4,2039.13 L 13146.1,2051.28 L 13135.5,2057.42 L 12881.2,1911.12 Z " /><text x="0" y="0" stroke="none" fill="#000000" transform="matrix(0.05 0 0 0.05 24.7765 19.3148)" font-style="normal" font-weight="bold" font-size="180px" font-family="Helvetica" >O</text><path stroke="none" fill="#000000" transform="matrix(0.05 0 0 0.05 -642 -79)" d="M 13156.8,2057.13 L 13146.1,2051.28 L 13146.4,2039.13 L 13315.7,1940.6 L 13326.8,1959.81 L 13156.8,2057.13 Z " /><path stroke="none" fill="#000000" transform="matrix(0.05 0 0 0.05 -642 -79)" d="M 13135.5,2057.42 L 13146.1,2051.28 L 13156.8,2057.13 L 13157.2,2350.8 L 13135.1,2350.8 L 13135.5,2057.42 Z " /><path stroke="#000000" stroke-width="18" fill="none" transform="matrix(0.05 0 0 0.05 -642 -79)" d="M 13337.6,1715.09 A 68.8704,68.8704 0 1 0 13475.4,1715.09A 68.8704,68.8704 0 1 0 13337.6,1715.09Z " /><path stroke="none" fill="#000000" transform="matrix(0.05 0 0 0.05 -642 -79)" d="M 13365.4,1706.09 L 13447.6,1706.09 L 13447.6,1724.09 L 13365.4,1724.09 Z " /><text x="0" y="0" stroke="none" fill="#000000" transform="matrix(0.05 0 0 0.05 37.32 18.902)" font-style="normal" font-weight="bold" font-size="200px" font-family="Helvetica" >Na</text><path stroke="#000000" stroke-width="18" fill="none" transform="matrix(0.05 0 0 0.05 -642 -79)" d="M 13817.6,1718.3 A 68.8704,68.8704 0 1 0 13955.4,1718.3A 68.8704,68.8704 0 1 0 13817.6,1718.3Z " /><path stroke="none" fill="#000000" transform="matrix(0.05 0 0 0.05 -642 -79)" d="M 13845.4,1709.3 L 13927.6,1709.3 L 13927.6,1727.3 L 13845.4,1727.3 Z " /><path stroke="none" fill="#000000" transform="matrix(0.05 0 0 0.05 -642 -79)" d="M 13895.5,1677.21 L 13895.5,1759.39 L 13877.5,1759.39 L 13877.5,1677.21 Z " /><path stroke="none" fill="#000000" transform="matrix(0.05 0 0 0.05 -642 -79)" d="M 14986.1,2048.96 L 14105.9,2048.96 L 14105.9,2026.96 L 14986.1,2026.96 Z " /><path stroke="none" fill="#000000" transform="matrix(0.05 0 0 0.05 -642 -79)" d="M 15179.2,2037.96 C 15179.2,2037.96 14957.4,2094.4 14957.4,2094.4 C 14957.4,2094.4 14985.1,2062.65 14985.1,2037.96 C 14985.1,2012.83 14957.4,1980.52 14957.4,1980.52 C 14957.4,1980.52 15179.2,2037.96 15179.2,2037.96 C 15179.2,2037.96 15179.2,2037.96 15179.2,2037.96 " /><path stroke="#000000" stroke-width="1" fill="none" transform="matrix(0.05 0 0 0.05 -642 -79)" d="M 15179.2,2037.96 C 15179.2,2037.96 14957.4,2094.4 14957.4,2094.4 C 14957.4,2094.4 14985.1,2062.65 14985.1,2037.96 C 14985.1,2012.83 14957.4,1980.52 14957.4,1980.52 C 14957.4,1980.52 15179.2,2037.96 15179.2,2037.96 C 15179.2,2037.96 15179.2,2037.96 15179.2,2037.96 " /><text x="0" y="0" stroke="none" fill="#000000" transform="matrix(0.05 0 0 0.05 93.625 9.99074)" font-style="normal" font-weight="bold" font-size="180px" font-family="Helvetica" >Br</text><path stroke="none" fill="#000000" transform="matrix(0.05 0 0 0.05 -642 -79)" d="M 14518.3,1878.34 L 14518.4,1852.67 L 14679.1,1759.06 L 14690.2,1778.27 L 14518.3,1878.34 Z " /><path stroke="none" fill="#000000" transform="matrix(0.05 0 0 0.05 -642 -79)" d="M 14518.4,1852.67 L 14518.3,1878.34 L 14253.2,1724.64 L 14264.3,1705.44 L 14518.4,1852.67 Z " /></svg>