<?xml version="1.0" standalone="no" ?><!DOCTYPE svg PUBLIC "-//W3C//DTD SVG 1.1//EN" "http://www.w3.org/Graphics/SVG/1.1/DTD/svg11.dtd"><svg width="102px" height="39px" viewBox="0 0 102 39" style="background-color: #ffffff00" xmlns="http://www.w3.org/2000/svg" xmlns:xlink="http://www.w3.org/1999/xlink" version="1.1" ><path stroke="none" fill="#000000" transform="matrix(0.05 0 0 0.05 -50 -142)" d="M 1057.82,3273 L 1046.74,3253.8 L 1311.67,3100.26 L 1311.67,3125.92 L 1057.82,3273 Z " /><path stroke="none" fill="#000000" transform="matrix(0.05 0 0 0.05 -50 -142)" d="M 1311.67,3125.92 L 1311.67,3100.26 L 1572.32,3251.73 L 1571.06,3263.4 L 1560.43,3269.54 L 1311.67,3125.92 Z " /><text x="0" y="0" stroke="none" fill="#000000" transform="matrix(0.05 0 0 0.05 38.273 16.9208)" font-style="normal" font-weight="bold" font-size="180px" font-family="Helvetica" >Br</text><path stroke="none" fill="#000000" transform="matrix(0.05 0 0 0.05 -50 -142)" d="M 1581.8,3268.15 L 1571.06,3263.4 L 1572.32,3251.73 L 1720.83,3138.27 L 1754.31,3196.26 L 1581.8,3268.15 Z " /><path stroke="none" fill="#000000" transform="matrix(0.05 0 0 0.05 -50 -142)" d="M 2790.64,3181.16 L 2144.52,3181.16 L 2144.52,3159.16 L 2790.64,3159.16 Z " /><path stroke="none" fill="#000000" transform="matrix(0.05 0 0 0.05 -50 -142)" d="M 2983.68,3170.16 C 2983.68,3170.16 2761.92,3226.6 2761.92,3226.6 C 2761.92,3226.6 2789.64,3194.85 2789.64,3170.16 C 2789.64,3145.03 2761.92,3112.72 2761.92,3112.72 C 2761.92,3112.72 2983.68,3170.16 2983.68,3170.16 C 2983.68,3170.16 2983.68,3170.16 2983.68,3170.16 " /><path stroke="#000000" stroke-width="1" fill="none" transform="matrix(0.05 0 0 0.05 -50 -142)" d="M 2983.68,3170.16 C 2983.68,3170.16 2761.92,3226.6 2761.92,3226.6 C 2761.92,3226.6 2789.64,3194.85 2789.64,3170.16 C 2789.64,3145.03 2761.92,3112.72 2761.92,3112.72 C 2761.92,3112.72 2983.68,3170.16 2983.68,3170.16 C 2983.68,3170.16 2983.68,3170.16 2983.68,3170.16 " /><text x="0" y="0" stroke="none" fill="#000000" transform="matrix(0.05 0 0 0.05 65.218 9.84799)" font-style="normal" font-weight="bold" font-size="200px" font-family="Helvetica" >NaN</text><text x="0" y="0" stroke="none" fill="#000000" transform="matrix(0.05 0 0 0.05 85.2229 12.1478)" font-style="normal" font-weight="bold" font-size="150px" font-family="Helvetica" >3</text><path stroke="none" fill="#000000" transform="matrix(0.05 0 0 0.05 -50 -142)" d="M 1560.43,3269.54 L 1571.06,3263.4 L 1581.8,3268.15 L 1582.15,3562.92 L 1559.98,3562.92 L 1560.43,3269.54 Z " /><text x="0" y="0" stroke="none" fill="#000000" transform="matrix(0.05 0 0 0.05 64.552 29.828)" font-style="normal" font-weight="bold" font-size="200px" font-family="Helvetica" >DMF</text></svg>