<?xml version="1.0" standalone="no" ?><!DOCTYPE svg PUBLIC "-//W3C//DTD SVG 1.1//EN" "http://www.w3.org/Graphics/SVG/1.1/DTD/svg11.dtd"><svg width="100px" height="41px" viewBox="0 0 100 41" style="background-color: #ffffff00" xmlns="http://www.w3.org/2000/svg" xmlns:xlink="http://www.w3.org/1999/xlink" version="1.1" ><path stroke="none" fill="#000000" transform="matrix(0.05 0 0 0.05 -197 -141)" d="M 4255.39,3152.56 L 4255.39,3126.9 L 4515.03,3277.88 L 4514.78,3290.04 L 4504.15,3296.18 L 4255.39,3152.56 Z " /><text x="0" y="0" stroke="none" fill="#000000" transform="matrix(0.05 0 0 0.05 38.459 19.2528)" font-style="normal" font-weight="bold" font-size="180px" font-family="Helvetica" >Cl</text><path stroke="none" fill="#000000" transform="matrix(0.05 0 0 0.05 -197 -141)" d="M 4525.44,3295.91 L 4514.78,3290.04 L 4515.03,3277.88 L 4687.58,3177.47 L 4698.67,3196.68 L 4525.44,3295.91 Z " /><path stroke="none" fill="#000000" transform="matrix(0.05 0 0 0.05 -197 -141)" d="M 5694.4,3167.84 L 5048.28,3167.84 L 5048.28,3145.84 L 5694.4,3145.84 Z " /><path stroke="none" fill="#000000" transform="matrix(0.05 0 0 0.05 -197 -141)" d="M 5887.44,3156.84 C 5887.44,3156.84 5665.68,3213.28 5665.68,3213.28 C 5665.68,3213.28 5693.4,3181.53 5693.4,3156.84 C 5693.4,3131.71 5665.68,3099.4 5665.68,3099.4 C 5665.68,3099.4 5887.44,3156.84 5887.44,3156.84 C 5887.44,3156.84 5887.44,3156.84 5887.44,3156.84 " /><path stroke="#000000" stroke-width="1" fill="none" transform="matrix(0.05 0 0 0.05 -197 -141)" d="M 5887.44,3156.84 C 5887.44,3156.84 5665.68,3213.28 5665.68,3213.28 C 5665.68,3213.28 5693.4,3181.53 5693.4,3156.84 C 5693.4,3131.71 5665.68,3099.4 5665.68,3099.4 C 5665.68,3099.4 5887.44,3156.84 5887.44,3156.84 C 5887.44,3156.84 5887.44,3156.84 5887.44,3156.84 " /><text x="0" y="0" stroke="none" fill="#000000" transform="matrix(0.05 0 0 0.05 63.0159 10.182)" font-style="normal" font-weight="bold" font-size="200px" font-family="Helvetica" >PPh</text><text x="0" y="0" stroke="none" fill="#000000" transform="matrix(0.05 0 0 0.05 82.4641 12.4818)" font-style="normal" font-weight="bold" font-size="150px" font-family="Helvetica" >3</text><text x="0" y="0" stroke="none" fill="#000000" transform="matrix(0.05 0 0 0.05 60.076 30.828)" font-style="normal" font-weight="bold" font-size="200px" font-family="Helvetica" >DMSO</text><path stroke="none" fill="#000000" transform="matrix(0.05 0 0 0.05 -197 -141)" d="M 4255.39,3126.9 L 4255.39,3152.56 L 4001.54,3299.64 L 3990.46,3280.44 L 4255.39,3126.9 Z " /><path stroke="none" fill="#000000" transform="matrix(0.05 0 0 0.05 -197 -141)" d="M 4504.15,3296.18 L 4514.78,3290.04 L 4525.44,3295.91 L 4525.87,3589.56 L 4503.7,3589.56 L 4504.15,3296.18 Z " /></svg>