<?xml version="1.0" standalone="no" ?><!DOCTYPE svg PUBLIC "-//W3C//DTD SVG 1.1//EN" "http://www.w3.org/Graphics/SVG/1.1/DTD/svg11.dtd"><svg width="86px" height="41px" viewBox="0 0 86 41" style="background-color: #ffffff00" xmlns="http://www.w3.org/2000/svg" xmlns:xlink="http://www.w3.org/1999/xlink" version="1.1" ><path stroke="none" fill="#000000" transform="matrix(0.05 0 0 0.05 -353 -142)" d="M 7100.33,3176.52 L 7111.42,3157.32 L 7365.43,3304.48 L 7365.26,3316.68 L 7354.63,3322.82 L 7100.33,3176.52 Z " /><text x="0" y="0" stroke="none" fill="#000000" transform="matrix(0.05 0 0 0.05 26.9825 19.5847)" font-style="normal" font-weight="bold" font-size="180px" font-family="Helvetica" >I</text><path stroke="none" fill="#000000" transform="matrix(0.05 0 0 0.05 -353 -142)" d="M 7375.91,3322.64 L 7365.26,3316.68 L 7365.43,3304.48 L 7558.21,3192.48 L 7569.3,3211.68 L 7375.91,3322.64 Z " /><path stroke="none" fill="#000000" transform="matrix(0.05 0 0 0.05 -353 -142)" d="M 8544.88,3194.48 L 7898.76,3194.48 L 7898.76,3172.48 L 8544.88,3172.48 Z " /><path stroke="none" fill="#000000" transform="matrix(0.05 0 0 0.05 -353 -142)" d="M 8737.92,3183.48 C 8737.92,3183.48 8516.16,3239.92 8516.16,3239.92 C 8516.16,3239.92 8543.88,3208.17 8543.88,3183.48 C 8543.88,3158.35 8516.16,3126.04 8516.16,3126.04 C 8516.16,3126.04 8737.92,3183.48 8737.92,3183.48 C 8737.92,3183.48 8737.92,3183.48 8737.92,3183.48 " /><path stroke="#000000" stroke-width="1" fill="none" transform="matrix(0.05 0 0 0.05 -353 -142)" d="M 8737.92,3183.48 C 8737.92,3183.48 8516.16,3239.92 8516.16,3239.92 C 8516.16,3239.92 8543.88,3208.17 8543.88,3183.48 C 8543.88,3158.35 8516.16,3126.04 8516.16,3126.04 C 8516.16,3126.04 8737.92,3183.48 8737.92,3183.48 C 8737.92,3183.48 8737.92,3183.48 8737.92,3183.48 " /><path stroke="none" fill="#000000" transform="matrix(0.05 0 0 0.05 -353 -142)" d="M 7354.63,3322.82 L 7365.26,3316.68 L 7375.91,3322.64 L 7376.35,3616.2 L 7354.17,3616.2 L 7354.63,3322.82 Z " /><text x="0" y="0" stroke="none" fill="#000000" transform="matrix(0.05 0 0 0.05 47.932 9.84799)" font-style="normal" font-weight="bold" font-size="200px" font-family="Helvetica" >KSEt</text><text x="0" y="0" stroke="none" fill="#000000" transform="matrix(0.05 0 0 0.05 43.936 29.828)" font-style="normal" font-weight="bold" font-size="200px" font-family="Helvetica" >acetone</text></svg>