<?xml version="1.0" standalone="no" ?><!DOCTYPE svg PUBLIC "-//W3C//DTD SVG 1.1//EN" "http://www.w3.org/Graphics/SVG/1.1/DTD/svg11.dtd"><svg width="109px" height="54px" viewBox="0 0 109 54" style="background-color: #ffffff00" xmlns="http://www.w3.org/2000/svg" xmlns:xlink="http://www.w3.org/1999/xlink" version="1.1" ><path stroke="none" fill="#000000" transform="matrix(0.05 0 0 0.05 -504 -135)" d="M 10131.9,3266.79 L 10154.2,3279.62 L 10154.2,3566.86 L 10131.9,3579.69 L 10131.9,3266.79 Z " /><path stroke="none" fill="#000000" transform="matrix(0.05 0 0 0.05 -504 -135)" d="M 10131.9,3579.69 L 10154.2,3566.86 L 10402.9,3710.48 L 10402.9,3736.13 L 10131.9,3579.69 Z " /><path stroke="none" fill="#000000" transform="matrix(0.05 0 0 0.05 -504 -135)" d="M 10402.9,3736.13 L 10402.9,3710.48 L 10651.7,3566.86 L 10673.9,3579.69 L 10402.9,3736.13 Z " /><path stroke="none" fill="#000000" transform="matrix(0.05 0 0 0.05 -504 -135)" d="M 10673.9,3579.69 L 10651.7,3566.86 L 10651.7,3279.62 L 10673.9,3266.79 L 10673.9,3579.69 Z " /><path stroke="none" fill="#000000" transform="matrix(0.05 0 0 0.05 -504 -135)" d="M 10673.9,3266.79 L 10651.7,3279.62 L 10402.9,3136 L 10402.9,3123.72 L 10413.3,3117.41 L 10673.9,3266.79 Z " /><path stroke="none" fill="#000000" transform="matrix(0.05 0 0 0.05 -504 -135)" d="M 10392.5,3117.41 L 10402.9,3123.72 L 10402.9,3136 L 10154.2,3279.62 L 10131.9,3266.79 L 10392.5,3117.41 Z " /><text x="0" y="0" stroke="none" fill="#000000" transform="matrix(0.05 0 0 0.05 12.6458 9.44876)" font-style="normal" font-weight="bold" font-size="180px" font-family="Helvetica" >OTs</text><path stroke="none" fill="#000000" transform="matrix(0.05 0 0 0.05 -504 -135)" d="M 10413.3,3117.41 L 10402.9,3123.72 L 10392.5,3117.41 L 10391.8,2924.69 L 10414,2924.69 L 10413.3,3117.41 Z " /><path stroke="none" fill="#000000" transform="matrix(0.05 0 0 0.05 -504 -135)" d="M 12021.4,3314.36 L 10962.4,3314.36 L 10962.4,3292.36 L 12021.4,3292.36 Z " /><path stroke="none" fill="#000000" transform="matrix(0.05 0 0 0.05 -504 -135)" d="M 12214.4,3303.36 C 12214.4,3303.36 11992.7,3359.8 11992.7,3359.8 C 11992.7,3359.8 12020.4,3328.05 12020.4,3303.36 C 12020.4,3278.23 11992.7,3245.92 11992.7,3245.92 C 11992.7,3245.92 12214.4,3303.36 12214.4,3303.36 C 12214.4,3303.36 12214.4,3303.36 12214.4,3303.36 " /><path stroke="#000000" stroke-width="1" fill="none" transform="matrix(0.05 0 0 0.05 -504 -135)" d="M 12214.4,3303.36 C 12214.4,3303.36 11992.7,3359.8 11992.7,3359.8 C 11992.7,3359.8 12020.4,3328.05 12020.4,3303.36 C 12020.4,3278.23 11992.7,3245.92 11992.7,3245.92 C 11992.7,3245.92 12214.4,3303.36 12214.4,3303.36 C 12214.4,3303.36 12214.4,3303.36 12214.4,3303.36 " /><text x="0" y="0" stroke="none" fill="#000000" transform="matrix(0.05 0 0 0.05 64.098 23.508)" font-style="normal" font-weight="bold" font-size="200px" font-family="Helvetica" >KBr</text><text x="0" y="0" stroke="none" fill="#000000" transform="matrix(0.05 0 0 0.05 59.436 41.49)" font-style="normal" font-weight="bold" font-size="200px" font-family="Helvetica" >DMSO</text><text x="0" y="0" stroke="none" fill="#000000" transform="matrix(0.05 0 0 0.05 48.114 51.48)" font-style="normal" font-weight="bold" font-size="200px" font-family="Helvetica" >18-crown-6</text></svg>