<?xml version="1.0" standalone="no" ?><!DOCTYPE svg PUBLIC "-//W3C//DTD SVG 1.1//EN" "http://www.w3.org/Graphics/SVG/1.1/DTD/svg11.dtd"><svg width="117px" height="45px" viewBox="0 0 117 45" style="background-color: #ffffff00" xmlns="http://www.w3.org/2000/svg" xmlns:xlink="http://www.w3.org/1999/xlink" version="1.1" ><text x="0" y="0" stroke="none" fill="#000000" transform="matrix(0.05 0 0 0.05 12.218 9.44067)" font-style="normal" font-weight="bold" font-size="180px" font-family="Helvetica" >O</text><path stroke="none" fill="#000000" transform="matrix(0.05 0 0 0.05 -646 -160)" d="M 13250.6,3424.58 L 13272.8,3424.66 L 13272.1,3639.7 L 13249.9,3639.62 L 13250.6,3424.58 Z " /><path stroke="none" fill="#000000" transform="matrix(0.05 0 0 0.05 -646 -160)" d="M 13195.2,3424.39 L 13217.4,3424.47 L 13216.6,3639.5 L 13194.5,3639.42 L 13195.2,3424.39 Z " /><text x="0" y="0" stroke="none" fill="#000000" transform="matrix(0.05 0 0 0.05 25.1088 31.95)" font-style="normal" font-weight="bold" font-size="180px" font-family="Helvetica" >O</text><path stroke="none" fill="#000000" transform="matrix(0.05 0 0 0.05 -646 -160)" d="M 13233.5,3635.71 L 13233.6,3610.04 L 13414.8,3716.34 L 13403.6,3735.51 L 13233.5,3635.71 Z " /><path stroke="none" fill="#000000" transform="matrix(0.05 0 0 0.05 -646 -160)" d="M 13233.6,3610.04 L 13233.5,3635.71 L 12978.9,3782.03 L 12967.9,3762.78 L 13233.6,3610.04 Z " /><path stroke="#000000" stroke-width="18" fill="none" transform="matrix(0.05 0 0 0.05 -646 -160)" d="M 13585.6,3682.41 A 68.8704,68.8704 0 1 0 13723.3,3682.41A 68.8704,68.8704 0 1 0 13585.6,3682.41Z " /><path stroke="none" fill="#000000" transform="matrix(0.05 0 0 0.05 -646 -160)" d="M 13613.4,3673.41 L 13695.5,3673.41 L 13695.5,3691.41 L 13613.4,3691.41 Z " /><text x="0" y="0" stroke="none" fill="#000000" transform="matrix(0.05 0 0 0.05 37.9819 42.464)" font-style="normal" font-weight="bold" font-size="200px" font-family="Helvetica" >K</text><path stroke="#000000" stroke-width="18" fill="none" transform="matrix(0.05 0 0 0.05 -646 -160)" d="M 13817.6,3809.54 A 68.8704,68.8704 0 1 0 13955.4,3809.54A 68.8704,68.8704 0 1 0 13817.6,3809.54Z " /><path stroke="none" fill="#000000" transform="matrix(0.05 0 0 0.05 -646 -160)" d="M 13845.4,3800.54 L 13927.6,3800.54 L 13927.6,3818.54 L 13845.4,3818.54 Z " /><path stroke="none" fill="#000000" transform="matrix(0.05 0 0 0.05 -646 -160)" d="M 13895.5,3768.45 L 13895.5,3850.63 L 13877.5,3850.63 L 13877.5,3768.45 Z " /><path stroke="none" fill="#000000" transform="matrix(0.05 0 0 0.05 -646 -160)" d="M 15026.1,3660.68 L 14145.8,3660.68 L 14145.8,3638.68 L 15026.1,3638.68 Z " /><path stroke="none" fill="#000000" transform="matrix(0.05 0 0 0.05 -646 -160)" d="M 15219.1,3649.68 C 15219.1,3649.68 14997.4,3706.12 14997.4,3706.12 C 14997.4,3706.12 15025.1,3674.37 15025.1,3649.68 C 15025.1,3624.55 14997.4,3592.24 14997.4,3592.24 C 14997.4,3592.24 15219.1,3649.68 15219.1,3649.68 C 15219.1,3649.68 15219.1,3649.68 15219.1,3649.68 " /><path stroke="#000000" stroke-width="1" fill="none" transform="matrix(0.05 0 0 0.05 -646 -160)" d="M 15219.1,3649.68 C 15219.1,3649.68 14997.4,3706.12 14997.4,3706.12 C 14997.4,3706.12 15025.1,3674.37 15025.1,3649.68 C 15025.1,3624.55 14997.4,3592.24 14997.4,3592.24 C 14997.4,3592.24 15219.1,3649.68 15219.1,3649.68 C 15219.1,3649.68 15219.1,3649.68 15219.1,3649.68 " /><text x="0" y="0" stroke="none" fill="#000000" transform="matrix(0.05 0 0 0.05 97.6185 12.9067)" font-style="normal" font-weight="bold" font-size="180px" font-family="Helvetica" >I</text><path stroke="none" fill="#000000" transform="matrix(0.05 0 0 0.05 -646 -160)" d="M 14638.1,3556.58 L 14638.1,3530.92 L 14831.7,3418.49 L 14842.8,3437.69 L 14638.1,3556.58 Z " /><path stroke="none" fill="#000000" transform="matrix(0.05 0 0 0.05 -646 -160)" d="M 14638.1,3530.92 L 14638.1,3556.58 L 14373,3402.96 L 14384.1,3383.76 L 14638.1,3530.92 Z " /><text x="0" y="0" stroke="none" fill="#000000" transform="matrix(0.05 0 0 0.05 75.944 35.804)" font-style="normal" font-weight="bold" font-size="200px" font-family="Helvetica" >DMF</text></svg>