<?xml version="1.0" standalone="no" ?><!DOCTYPE svg PUBLIC "-//W3C//DTD SVG 1.1//EN" "http://www.w3.org/Graphics/SVG/1.1/DTD/svg11.dtd"><svg width="101px" height="39px" viewBox="0 0 101 39" style="background-color: #ffffff00" xmlns="http://www.w3.org/2000/svg" xmlns:xlink="http://www.w3.org/1999/xlink" version="1.1" ><path stroke="none" fill="#000000" transform="matrix(0.05 0 0 0.05 -49 -208)" d="M 1031.18,4591.68 L 1020.1,4572.48 L 1285.03,4418.94 L 1285.03,4444.6 L 1031.18,4591.68 Z " /><path stroke="none" fill="#000000" transform="matrix(0.05 0 0 0.05 -49 -208)" d="M 1285.03,4444.6 L 1285.03,4418.94 L 1556.01,4575.39 L 1533.79,4588.22 L 1285.03,4444.6 Z " /><text x="0" y="0" stroke="none" fill="#000000" transform="matrix(0.05 0 0 0.05 37.6905 16.8548)" font-style="normal" font-weight="bold" font-size="180px" font-family="Helvetica" >OH</text><path stroke="none" fill="#000000" transform="matrix(0.05 0 0 0.05 -49 -208)" d="M 1596.14,4565.02 L 1585.05,4545.82 L 1602.59,4531.84 L 1617.02,4556.82 L 1596.14,4565.02 Z " /><path stroke="none" fill="#000000" transform="matrix(0.05 0 0 0.05 -49 -208)" d="M 1655.75,4541.61 L 1635.13,4505.9 L 1652.67,4491.93 L 1676.62,4533.41 L 1655.75,4541.61 Z " /><path stroke="none" fill="#000000" transform="matrix(0.05 0 0 0.05 -49 -208)" d="M 1715.35,4518.2 L 1685.21,4465.99 L 1702.75,4452.01 L 1736.23,4510 L 1715.35,4518.2 Z " /><path stroke="none" fill="#000000" transform="matrix(0.05 0 0 0.05 -49 -208)" d="M 2764,4499.84 L 2117.88,4499.84 L 2117.88,4477.84 L 2764,4477.84 Z " /><path stroke="none" fill="#000000" transform="matrix(0.05 0 0 0.05 -49 -208)" d="M 2957.04,4488.84 C 2957.04,4488.84 2735.28,4545.28 2735.28,4545.28 C 2735.28,4545.28 2763,4513.53 2763,4488.84 C 2763,4463.71 2735.28,4431.4 2735.28,4431.4 C 2735.28,4431.4 2957.04,4488.84 2957.04,4488.84 C 2957.04,4488.84 2957.04,4488.84 2957.04,4488.84 " /><path stroke="#000000" stroke-width="1" fill="none" transform="matrix(0.05 0 0 0.05 -49 -208)" d="M 2957.04,4488.84 C 2957.04,4488.84 2735.28,4545.28 2735.28,4545.28 C 2735.28,4545.28 2763,4513.53 2763,4488.84 C 2763,4463.71 2735.28,4431.4 2735.28,4431.4 C 2735.28,4431.4 2957.04,4488.84 2957.04,4488.84 C 2957.04,4488.84 2957.04,4488.84 2957.04,4488.84 " /><text x="0" y="0" stroke="none" fill="#000000" transform="matrix(0.05 0 0 0.05 65.1619 9.78198)" font-style="normal" font-weight="bold" font-size="200px" font-family="Helvetica" >PBr</text><text x="0" y="0" stroke="none" fill="#000000" transform="matrix(0.05 0 0 0.05 82.9451 12.0818)" font-style="normal" font-weight="bold" font-size="150px" font-family="Helvetica" >3</text><path stroke="none" fill="#000000" transform="matrix(0.05 0 0 0.05 -49 -208)" d="M 1533.79,4588.22 L 1556.01,4575.39 L 1555.51,4881.6 L 1533.34,4881.6 L 1533.79,4588.22 Z " /><text x="0" y="0" stroke="none" fill="#000000" transform="matrix(0.05 0 0 0.05 64.4958 29.762)" font-style="normal" font-weight="bold" font-size="200px" font-family="Helvetica" >Et</text><text x="0" y="0" stroke="none" fill="#000000" transform="matrix(0.05 0 0 0.05 74.4958 32.0618)" font-style="normal" font-weight="bold" font-size="150px" font-family="Helvetica" >2</text><text x="0" y="0" stroke="none" fill="#000000" transform="matrix(0.05 0 0 0.05 78.667 29.762)" font-style="normal" font-weight="bold" font-size="200px" font-family="Helvetica" >O</text></svg>