<?xml version="1.0" standalone="no" ?><!DOCTYPE svg PUBLIC "-//W3C//DTD SVG 1.1//EN" "http://www.w3.org/Graphics/SVG/1.1/DTD/svg11.dtd"><svg width="87px" height="41px" viewBox="0 0 87 41" style="background-color: #ffffff00" xmlns="http://www.w3.org/2000/svg" xmlns:xlink="http://www.w3.org/1999/xlink" version="1.1" ><path stroke="none" fill="#000000" transform="matrix(0.05 0 0 0.05 -205 -207)" d="M 4143.29,4468.56 L 4154.38,4449.36 L 4408.48,4596.57 L 4408.22,4608.72 L 4397.59,4614.86 L 4143.29,4468.56 Z " /><text x="0" y="0" stroke="none" fill="#000000" transform="matrix(0.05 0 0 0.05 24.8805 19.1867)" font-style="normal" font-weight="bold" font-size="180px" font-family="Helvetica" >OH</text><path stroke="none" fill="#000000" transform="matrix(0.05 0 0 0.05 -205 -207)" d="M 4418.88,4614.57 L 4408.22,4608.72 L 4408.48,4596.57 L 4577.74,4498.04 L 4588.83,4517.25 L 4418.88,4614.57 Z " /><path stroke="none" fill="#000000" transform="matrix(0.05 0 0 0.05 -205 -207)" d="M 5587.84,4486.52 L 4941.72,4486.52 L 4941.72,4464.52 L 5587.84,4464.52 Z " /><path stroke="none" fill="#000000" transform="matrix(0.05 0 0 0.05 -205 -207)" d="M 5780.88,4475.52 C 5780.88,4475.52 5559.12,4531.96 5559.12,4531.96 C 5559.12,4531.96 5586.84,4500.21 5586.84,4475.52 C 5586.84,4450.39 5559.12,4418.08 5559.12,4418.08 C 5559.12,4418.08 5780.88,4475.52 5780.88,4475.52 C 5780.88,4475.52 5780.88,4475.52 5780.88,4475.52 " /><path stroke="#000000" stroke-width="1" fill="none" transform="matrix(0.05 0 0 0.05 -205 -207)" d="M 5780.88,4475.52 C 5780.88,4475.52 5559.12,4531.96 5559.12,4531.96 C 5559.12,4531.96 5586.84,4500.21 5586.84,4475.52 C 5586.84,4450.39 5559.12,4418.08 5559.12,4418.08 C 5559.12,4418.08 5780.88,4475.52 5780.88,4475.52 C 5780.88,4475.52 5780.88,4475.52 5780.88,4475.52 " /><path stroke="none" fill="#000000" transform="matrix(0.05 0 0 0.05 -205 -207)" d="M 4397.59,4614.86 L 4408.22,4608.72 L 4418.88,4614.57 L 4419.31,4908.24 L 4397.13,4908.24 L 4397.59,4614.86 Z " /><text x="0" y="0" stroke="none" fill="#000000" transform="matrix(0.05 0 0 0.05 48.3558 9.44998)" font-style="normal" font-weight="bold" font-size="200px" font-family="Helvetica" >PCl</text><text x="0" y="0" stroke="none" fill="#000000" transform="matrix(0.05 0 0 0.05 65.0258 11.7498)" font-style="normal" font-weight="bold" font-size="150px" font-family="Helvetica" >3</text><text x="0" y="0" stroke="none" fill="#000000" transform="matrix(0.05 0 0 0.05 48.08 29.43)" font-style="normal" font-weight="bold" font-size="200px" font-family="Helvetica" >Et</text><text x="0" y="0" stroke="none" fill="#000000" transform="matrix(0.05 0 0 0.05 58.08 31.7298)" font-style="normal" font-weight="bold" font-size="150px" font-family="Helvetica" >2</text><text x="0" y="0" stroke="none" fill="#000000" transform="matrix(0.05 0 0 0.05 62.2511 29.43)" font-style="normal" font-weight="bold" font-size="200px" font-family="Helvetica" >O</text></svg>