<?xml version="1.0" standalone="no" ?><!DOCTYPE svg PUBLIC "-//W3C//DTD SVG 1.1//EN" "http://www.w3.org/Graphics/SVG/1.1/DTD/svg11.dtd"><svg width="108px" height="54px" viewBox="0 0 108 54" style="background-color: #ffffff00" xmlns="http://www.w3.org/2000/svg" xmlns:xlink="http://www.w3.org/1999/xlink" version="1.1" ><path stroke="none" fill="#000000" transform="matrix(0.05 0 0 0.05 -350 -199)" d="M 7055.02,4545.51 L 7077.24,4558.34 L 7077.24,4845.58 L 7055.02,4858.41 L 7055.02,4545.51 Z " /><path stroke="none" fill="#000000" transform="matrix(0.05 0 0 0.05 -350 -199)" d="M 7055.02,4858.41 L 7077.24,4845.58 L 7326,4989.2 L 7326,5014.85 L 7055.02,4858.41 Z " /><path stroke="none" fill="#000000" transform="matrix(0.05 0 0 0.05 -350 -199)" d="M 7326,5014.85 L 7326,4989.2 L 7574.76,4845.58 L 7596.97,4858.41 L 7326,5014.85 Z " /><path stroke="none" fill="#000000" transform="matrix(0.05 0 0 0.05 -350 -199)" d="M 7596.97,4858.41 L 7574.76,4845.58 L 7574.76,4558.34 L 7596.97,4545.51 L 7596.97,4858.41 Z " /><path stroke="none" fill="#000000" transform="matrix(0.05 0 0 0.05 -350 -199)" d="M 7596.97,4545.51 L 7574.76,4558.34 L 7326,4414.72 L 7326,4402.44 L 7336.38,4396.13 L 7596.97,4545.51 Z " /><path stroke="none" fill="#000000" transform="matrix(0.05 0 0 0.05 -350 -199)" d="M 7315.61,4396.13 L 7326,4402.44 L 7326,4414.72 L 7077.24,4558.34 L 7055.02,4545.51 L 7315.61,4396.13 Z " /><text x="0" y="0" stroke="none" fill="#000000" transform="matrix(0.05 0 0 0.05 12.7997 9.38475)" font-style="normal" font-weight="bold" font-size="180px" font-family="Helvetica" >OH</text><path stroke="none" fill="#000000" transform="matrix(0.05 0 0 0.05 -350 -199)" d="M 7336.38,4396.13 L 7326,4402.44 L 7315.61,4396.13 L 7314.91,4203.41 L 7337.09,4203.41 L 7336.38,4396.13 Z " /><path stroke="none" fill="#000000" transform="matrix(0.05 0 0 0.05 -350 -199)" d="M 8917.84,4633.04 L 7858.8,4633.04 L 7858.8,4611.04 L 8917.84,4611.04 Z " /><path stroke="none" fill="#000000" transform="matrix(0.05 0 0 0.05 -350 -199)" d="M 9110.88,4622.04 C 9110.88,4622.04 8889.12,4678.48 8889.12,4678.48 C 8889.12,4678.48 8916.84,4646.73 8916.84,4622.04 C 8916.84,4596.91 8889.12,4564.6 8889.12,4564.6 C 8889.12,4564.6 9110.88,4622.04 9110.88,4622.04 C 9110.88,4622.04 9110.88,4622.04 9110.88,4622.04 " /><path stroke="#000000" stroke-width="1" fill="none" transform="matrix(0.05 0 0 0.05 -350 -199)" d="M 9110.88,4622.04 C 9110.88,4622.04 8889.12,4678.48 8889.12,4678.48 C 8889.12,4678.48 8916.84,4646.73 8916.84,4622.04 C 8916.84,4596.91 8889.12,4564.6 8889.12,4564.6 C 8889.12,4564.6 9110.88,4622.04 9110.88,4622.04 C 9110.88,4622.04 9110.88,4622.04 9110.88,4622.04 " /><text x="0" y="0" stroke="none" fill="#000000" transform="matrix(0.05 0 0 0.05 59.1998 25.442)" font-style="normal" font-weight="bold" font-size="200px" font-family="Helvetica" >SOCl</text><text x="0" y="0" stroke="none" fill="#000000" transform="matrix(0.05 0 0 0.05 83.6481 27.7418)" font-style="normal" font-weight="bold" font-size="150px" font-family="Helvetica" >2</text><text x="0" y="0" stroke="none" fill="#000000" transform="matrix(0.05 0 0 0.05 62.1446 44.09)" font-style="normal" font-weight="bold" font-size="200px" font-family="Helvetica" >THF</text></svg>