<?xml version="1.0" standalone="no" ?><!DOCTYPE svg PUBLIC "-//W3C//DTD SVG 1.1//EN" "http://www.w3.org/Graphics/SVG/1.1/DTD/svg11.dtd"><svg width="130px" height="31px" viewBox="0 0 130 31" style="background-color: #ffffff00" xmlns="http://www.w3.org/2000/svg" xmlns:xlink="http://www.w3.org/1999/xlink" version="1.1" ><path stroke="none" fill="#000000" transform="matrix(0.05 0 0 0.05 -501 -209)" d="M 10363,4630.97 L 10363,4608.79 L 10662.5,4608.79 L 10662.5,4630.97 L 10363,4630.97 Z " /><path stroke="none" fill="#000000" transform="matrix(0.05 0 0 0.05 -501 -209)" d="M 10363,4686.41 L 10363,4664.23 L 10662.5,4664.23 L 10662.5,4686.41 L 10363,4686.41 Z " /><path stroke="none" fill="#000000" transform="matrix(0.05 0 0 0.05 -501 -209)" d="M 10363,4741.85 L 10363,4719.67 L 10662.5,4719.67 L 10662.5,4741.85 L 10363,4741.85 Z " /><path stroke="none" fill="#000000" transform="matrix(0.05 0 0 0.05 -501 -209)" d="M 10363,4664.23 L 10363,4686.41 L 10063.4,4686.41 L 10063.4,4664.23 L 10363,4664.23 Z " /><path stroke="none" fill="#000000" transform="matrix(0.05 0 0 0.05 -501 -209)" d="M 12375.4,4673 L 11495.2,4673 L 11495.2,4651 L 12375.4,4651 Z " /><path stroke="none" fill="#000000" transform="matrix(0.05 0 0 0.05 -501 -209)" d="M 12568.4,4662 C 12568.4,4662 12346.7,4718.44 12346.7,4718.44 C 12346.7,4718.44 12374.4,4686.69 12374.4,4662 C 12374.4,4636.87 12346.7,4604.56 12346.7,4604.56 C 12346.7,4604.56 12568.4,4662 12568.4,4662 C 12568.4,4662 12568.4,4662 12568.4,4662 " /><path stroke="#000000" stroke-width="1" fill="none" transform="matrix(0.05 0 0 0.05 -501 -209)" d="M 12568.4,4662 C 12568.4,4662 12346.7,4718.44 12346.7,4718.44 C 12346.7,4718.44 12374.4,4686.69 12374.4,4662 C 12374.4,4636.87 12346.7,4604.56 12346.7,4604.56 C 12346.7,4604.56 12568.4,4662 12568.4,4662 C 12568.4,4662 12568.4,4662 12568.4,4662 " /><text x="0" y="0" stroke="none" fill="#000000" transform="matrix(0.05 0 0 0.05 45.12 18.772)" font-style="normal" font-weight="bold" font-size="200px" font-family="Helvetica" >Na</text><path stroke="#000000" stroke-width="18" fill="none" transform="matrix(0.05 0 0 0.05 -501 -209)" d="M 10713.3,4674.82 A 68.8704,68.8704 0 1 0 10851,4674.82A 68.8704,68.8704 0 1 0 10713.3,4674.82Z " /><path stroke="none" fill="#000000" transform="matrix(0.05 0 0 0.05 -501 -209)" d="M 10741.1,4665.82 L 10823.2,4665.82 L 10823.2,4683.82 L 10741.1,4683.82 Z " /><path stroke="#000000" stroke-width="18" fill="none" transform="matrix(0.05 0 0 0.05 -501 -209)" d="M 11153.6,4315.7 A 68.8704,68.8704 0 1 0 11291.4,4315.7A 68.8704,68.8704 0 1 0 11153.6,4315.7Z " /><path stroke="none" fill="#000000" transform="matrix(0.05 0 0 0.05 -501 -209)" d="M 11181.4,4306.7 L 11263.6,4306.7 L 11263.6,4324.7 L 11181.4,4324.7 Z " /><path stroke="none" fill="#000000" transform="matrix(0.05 0 0 0.05 -501 -209)" d="M 11231.5,4274.62 L 11231.5,4356.79 L 11213.5,4356.79 L 11213.5,4274.62 Z " /><path stroke="none" fill="#000000" transform="matrix(0.05 0 0 0.05 -501 -209)" d="M 11593.9,4471.8 L 11582.9,4452.6 L 11847.8,4299.06 L 11847.8,4324.72 L 11593.9,4471.8 Z " /><path stroke="none" fill="#000000" transform="matrix(0.05 0 0 0.05 -501 -209)" d="M 11847.8,4324.72 L 11847.8,4299.06 L 12107.3,4450 L 12107.3,4475.67 L 11847.8,4324.72 Z " /><text x="0" y="0" stroke="none" fill="#000000" transform="matrix(0.05 0 0 0.05 116.079 9.86075)" font-style="normal" font-weight="bold" font-size="180px" font-family="Helvetica" >I</text><path stroke="none" fill="#000000" transform="matrix(0.05 0 0 0.05 -501 -209)" d="M 12107.3,4475.67 L 12107.3,4450 L 12300.1,4338 L 12311.2,4357.2 L 12107.3,4475.67 Z " /></svg>