<?xml version="1.0" standalone="no" ?><!DOCTYPE svg PUBLIC "-//W3C//DTD SVG 1.1//EN" "http://www.w3.org/Graphics/SVG/1.1/DTD/svg11.dtd"><svg width="101px" height="25px" viewBox="0 0 101 25" style="background-color: #ffffff00" xmlns="http://www.w3.org/2000/svg" xmlns:xlink="http://www.w3.org/1999/xlink" version="1.1" ><path stroke="none" fill="#000000" transform="matrix(0.05 0 0 0.05 -661 -223)" d="M 13272.3,4911.36 L 13261.2,4892.16 L 13526.1,4738.62 L 13526.1,4764.28 L 13272.3,4911.36 Z " /><path stroke="none" fill="#000000" transform="matrix(0.05 0 0 0.05 -661 -223)" d="M 13526.1,4764.28 L 13526.1,4738.62 L 13785.7,4889.6 L 13785.7,4915.27 L 13526.1,4764.28 Z " /><text x="0" y="0" stroke="none" fill="#000000" transform="matrix(0.05 0 0 0.05 37.995 17.8388)" font-style="normal" font-weight="bold" font-size="180px" font-family="Helvetica" >Cl</text><path stroke="none" fill="#000000" transform="matrix(0.05 0 0 0.05 -661 -223)" d="M 13785.7,4915.27 L 13785.7,4889.6 L 13958.3,4789.19 L 13969.4,4808.4 L 13785.7,4915.27 Z " /><path stroke="none" fill="#000000" transform="matrix(0.05 0 0 0.05 -661 -223)" d="M 15005.1,4819.52 L 14359,4819.52 L 14359,4797.52 L 15005.1,4797.52 Z " /><path stroke="none" fill="#000000" transform="matrix(0.05 0 0 0.05 -661 -223)" d="M 15198.1,4808.52 C 15198.1,4808.52 14976.4,4864.96 14976.4,4864.96 C 14976.4,4864.96 15004.1,4833.21 15004.1,4808.52 C 15004.1,4783.39 14976.4,4751.08 14976.4,4751.08 C 14976.4,4751.08 15198.1,4808.52 15198.1,4808.52 C 15198.1,4808.52 15198.1,4808.52 15198.1,4808.52 " /><path stroke="#000000" stroke-width="1" fill="none" transform="matrix(0.05 0 0 0.05 -661 -223)" d="M 15198.1,4808.52 C 15198.1,4808.52 14976.4,4864.96 14976.4,4864.96 C 14976.4,4864.96 15004.1,4833.21 15004.1,4808.52 C 15004.1,4783.39 14976.4,4751.08 14976.4,4751.08 C 14976.4,4751.08 15198.1,4808.52 15198.1,4808.52 C 15198.1,4808.52 15198.1,4808.52 15198.1,4808.52 " /><text x="0" y="0" stroke="none" fill="#000000" transform="matrix(0.05 0 0 0.05 66.938 9.43399)" font-style="normal" font-weight="bold" font-size="200px" font-family="Helvetica" >NH</text><text x="0" y="0" stroke="none" fill="#000000" transform="matrix(0.05 0 0 0.05 81.3813 11.7338)" font-style="normal" font-weight="bold" font-size="150px" font-family="Helvetica" >3</text></svg>