<?xml version="1.0" standalone="no" ?><!DOCTYPE svg PUBLIC "-//W3C//DTD SVG 1.1//EN" "http://www.w3.org/Graphics/SVG/1.1/DTD/svg11.dtd"><svg width="102px" height="38px" viewBox="0 0 102 38" style="background-color: #ffffff00" xmlns="http://www.w3.org/2000/svg" xmlns:xlink="http://www.w3.org/1999/xlink" version="1.1" ><path stroke="none" fill="#000000" transform="matrix(0.05 0 0 0.05 -51 -298)" d="M 1084.46,6389.88 L 1073.38,6370.68 L 1338.31,6217.14 L 1338.31,6242.8 L 1084.46,6389.88 Z " /><path stroke="none" fill="#000000" transform="matrix(0.05 0 0 0.05 -51 -298)" d="M 1338.31,6242.8 L 1338.31,6217.14 L 1598.96,6368.61 L 1597.7,6380.28 L 1587.07,6386.42 L 1338.31,6242.8 Z " /><text x="0" y="0" stroke="none" fill="#000000" transform="matrix(0.05 0 0 0.05 38.605 16.7648)" font-style="normal" font-weight="bold" font-size="180px" font-family="Helvetica" >Br</text><path stroke="none" fill="#000000" transform="matrix(0.05 0 0 0.05 -51 -298)" d="M 1608.44,6385.03 L 1597.7,6380.28 L 1598.96,6368.61 L 1747.47,6255.15 L 1780.95,6313.14 L 1608.44,6385.03 Z " /><path stroke="none" fill="#000000" transform="matrix(0.05 0 0 0.05 -51 -298)" d="M 2817.28,6298.04 L 2171.16,6298.04 L 2171.16,6276.04 L 2817.28,6276.04 Z " /><path stroke="none" fill="#000000" transform="matrix(0.05 0 0 0.05 -51 -298)" d="M 3010.32,6287.04 C 3010.32,6287.04 2788.56,6343.48 2788.56,6343.48 C 2788.56,6343.48 2816.28,6311.73 2816.28,6287.04 C 2816.28,6261.91 2788.56,6229.6 2788.56,6229.6 C 2788.56,6229.6 3010.32,6287.04 3010.32,6287.04 C 3010.32,6287.04 3010.32,6287.04 3010.32,6287.04 " /><path stroke="#000000" stroke-width="1" fill="none" transform="matrix(0.05 0 0 0.05 -51 -298)" d="M 3010.32,6287.04 C 3010.32,6287.04 2788.56,6343.48 2788.56,6343.48 C 2788.56,6343.48 2816.28,6311.73 2816.28,6287.04 C 2816.28,6261.91 2788.56,6229.6 2788.56,6229.6 C 2788.56,6229.6 3010.32,6287.04 3010.32,6287.04 C 3010.32,6287.04 3010.32,6287.04 3010.32,6287.04 " /><text x="0" y="0" stroke="none" fill="#000000" transform="matrix(0.05 0 0 0.05 65.55 9.69199)" font-style="normal" font-weight="bold" font-size="200px" font-family="Helvetica" >KOH</text><path stroke="none" fill="#000000" transform="matrix(0.05 0 0 0.05 -51 -298)" d="M 1587.07,6386.42 L 1597.7,6380.28 L 1608.44,6385.03 L 1608.79,6679.8 L 1586.61,6679.8 L 1587.07,6386.42 Z " /><text x="0" y="0" stroke="none" fill="#000000" transform="matrix(0.05 0 0 0.05 64.884 29.672)" font-style="normal" font-weight="bold" font-size="200px" font-family="Helvetica" >H</text><text x="0" y="0" stroke="none" fill="#000000" transform="matrix(0.05 0 0 0.05 72.1056 31.9718)" font-style="normal" font-weight="bold" font-size="150px" font-family="Helvetica" >2</text><text x="0" y="0" stroke="none" fill="#000000" transform="matrix(0.05 0 0 0.05 76.2768 29.672)" font-style="normal" font-weight="bold" font-size="200px" font-family="Helvetica" >O</text></svg>