<?xml version="1.0" standalone="no" ?><!DOCTYPE svg PUBLIC "-//W3C//DTD SVG 1.1//EN" "http://www.w3.org/Graphics/SVG/1.1/DTD/svg11.dtd"><svg width="104px" height="47px" viewBox="0 0 104 47" style="background-color: #ffffff00" xmlns="http://www.w3.org/2000/svg" xmlns:xlink="http://www.w3.org/1999/xlink" version="1.1" ><path stroke="none" fill="#000000" transform="matrix(0.05 0 0 0.05 -195 -294)" d="M 3940.7,6360.51 L 3962.94,6376.66 L 3962.94,6660.38 L 3940.7,6676.53 L 3940.7,6360.51 Z " /><path stroke="none" fill="#000000" transform="matrix(0.05 0 0 0.05 -195 -294)" d="M 4241.27,6774.19 L 4232.77,6748.05 L 4399.53,6518.52 L 4427.02,6518.52 L 4241.27,6774.19 Z " /><path stroke="none" fill="#000000" transform="matrix(0.05 0 0 0.05 -195 -294)" d="M 4427.02,6518.52 L 4399.53,6518.52 L 4232.77,6288.99 L 4236.79,6276.62 L 4248.47,6274.49 L 4427.02,6518.52 Z " /><path stroke="none" fill="#000000" transform="matrix(0.05 0 0 0.05 -195 -294)" d="M 4228.59,6268.03 L 4236.79,6276.62 L 4232.77,6288.99 L 3962.94,6376.66 L 3940.7,6360.51 L 4228.59,6268.03 Z " /><text x="0" y="0" stroke="none" fill="#000000" transform="matrix(0.05 0 0 0.05 17.959 8.85165)" font-style="normal" font-weight="bold" font-size="180px" font-family="Helvetica" >OTs</text><path stroke="none" fill="#000000" transform="matrix(0.05 0 0 0.05 -195 -294)" d="M 4248.47,6274.49 L 4236.79,6276.62 L 4228.59,6268.03 L 4287.23,6085.51 L 4308.32,6092.36 L 4248.47,6274.49 Z " /><path stroke="none" fill="#000000" transform="matrix(0.05 0 0 0.05 -195 -294)" d="M 5734.36,6457.88 L 4675.32,6457.88 L 4675.32,6435.88 L 5734.36,6435.88 Z " /><path stroke="none" fill="#000000" transform="matrix(0.05 0 0 0.05 -195 -294)" d="M 5927.4,6446.88 C 5927.4,6446.88 5705.64,6503.32 5705.64,6503.32 C 5705.64,6503.32 5733.36,6471.57 5733.36,6446.88 C 5733.36,6421.75 5705.64,6389.44 5705.64,6389.44 C 5705.64,6389.44 5927.4,6446.88 5927.4,6446.88 C 5927.4,6446.88 5927.4,6446.88 5927.4,6446.88 " /><path stroke="#000000" stroke-width="1" fill="none" transform="matrix(0.05 0 0 0.05 -195 -294)" d="M 5927.4,6446.88 C 5927.4,6446.88 5705.64,6503.32 5705.64,6503.32 C 5705.64,6503.32 5733.36,6471.57 5733.36,6446.88 C 5733.36,6421.75 5705.64,6389.44 5705.64,6389.44 C 5705.64,6389.44 5927.4,6446.88 5927.4,6446.88 C 5927.4,6446.88 5927.4,6446.88 5927.4,6446.88 " /><text x="0" y="0" stroke="none" fill="#000000" transform="matrix(0.05 0 0 0.05 52.752 21.018)" font-style="normal" font-weight="bold" font-size="200px" font-family="Helvetica" >NaOCH</text><text x="0" y="0" stroke="none" fill="#000000" transform="matrix(0.05 0 0 0.05 87.7568 23.3178)" font-style="normal" font-weight="bold" font-size="150px" font-family="Helvetica" >3</text><path stroke="none" fill="#000000" transform="matrix(0.05 0 0 0.05 -195 -294)" d="M 3940.7,6676.53 L 3962.94,6660.38 L 4232.77,6748.05 L 4241.27,6774.19 L 3940.7,6676.53 Z " /><text x="0" y="0" stroke="none" fill="#000000" transform="matrix(0.05 0 0 0.05 54.084 39.666)" font-style="normal" font-weight="bold" font-size="200px" font-family="Helvetica" >CH</text><text x="0" y="0" stroke="none" fill="#000000" transform="matrix(0.05 0 0 0.05 68.5273 41.9658)" font-style="normal" font-weight="bold" font-size="150px" font-family="Helvetica" >3</text><text x="0" y="0" stroke="none" fill="#000000" transform="matrix(0.05 0 0 0.05 72.6985 39.666)" font-style="normal" font-weight="bold" font-size="200px" font-family="Helvetica" >OH</text></svg>