<?xml version="1.0" standalone="no" ?><!DOCTYPE svg PUBLIC "-//W3C//DTD SVG 1.1//EN" "http://www.w3.org/Graphics/SVG/1.1/DTD/svg11.dtd"><svg width="84px" height="33px" viewBox="0 0 84 33" style="background-color: #ffffff00" xmlns="http://www.w3.org/2000/svg" xmlns:xlink="http://www.w3.org/1999/xlink" version="1.1" ><path stroke="none" fill="#000000" transform="matrix(0.05 0 0 0.05 -331 -296)" d="M 6660.77,6080.28 L 6671.85,6061.08 L 6925.86,6208.24 L 6925.7,6220.44 L 6915.07,6226.58 L 6660.77,6080.28 Z " /><text x="0" y="0" stroke="none" fill="#000000" transform="matrix(0.05 0 0 0.05 27.0045 10.7727)" font-style="normal" font-weight="bold" font-size="180px" font-family="Helvetica" >I</text><path stroke="none" fill="#000000" transform="matrix(0.05 0 0 0.05 -331 -296)" d="M 6936.35,6226.4 L 6925.7,6220.44 L 6925.86,6208.24 L 7119.4,6095.81 L 7130.48,6115.01 L 6936.35,6226.4 Z " /><path stroke="none" fill="#000000" transform="matrix(0.05 0 0 0.05 -331 -296)" d="M 8052.04,6258.08 L 7405.92,6258.08 L 7405.92,6236.08 L 8052.04,6236.08 Z " /><path stroke="none" fill="#000000" transform="matrix(0.05 0 0 0.05 -331 -296)" d="M 8245.08,6247.08 C 8245.08,6247.08 8023.32,6303.52 8023.32,6303.52 C 8023.32,6303.52 8051.04,6271.77 8051.04,6247.08 C 8051.04,6221.95 8023.32,6189.64 8023.32,6189.64 C 8023.32,6189.64 8245.08,6247.08 8245.08,6247.08 C 8245.08,6247.08 8245.08,6247.08 8245.08,6247.08 " /><path stroke="#000000" stroke-width="1" fill="none" transform="matrix(0.05 0 0 0.05 -331 -296)" d="M 8245.08,6247.08 C 8245.08,6247.08 8023.32,6303.52 8023.32,6303.52 C 8023.32,6303.52 8051.04,6271.77 8051.04,6247.08 C 8051.04,6221.95 8023.32,6189.64 8023.32,6189.64 C 8023.32,6189.64 8245.08,6247.08 8245.08,6247.08 C 8245.08,6247.08 8245.08,6247.08 8245.08,6247.08 " /><path stroke="none" fill="#000000" transform="matrix(0.05 0 0 0.05 -331 -296)" d="M 6915.07,6226.58 L 6925.7,6220.44 L 6936.35,6226.4 L 6936.79,6519.96 L 6914.61,6519.96 L 6915.07,6226.58 Z " /><text x="0" y="0" stroke="none" fill="#000000" transform="matrix(0.05 0 0 0.05 43.9579 9.69398)" font-style="normal" font-weight="bold" font-size="200px" font-family="Helvetica" >NaOH</text><text x="0" y="0" stroke="none" fill="#000000" transform="matrix(0.05 0 0 0.05 48.3441 28.342)" font-style="normal" font-weight="bold" font-size="200px" font-family="Helvetica" >H</text><text x="0" y="0" stroke="none" fill="#000000" transform="matrix(0.05 0 0 0.05 55.5658 30.6418)" font-style="normal" font-weight="bold" font-size="150px" font-family="Helvetica" >2</text><text x="0" y="0" stroke="none" fill="#000000" transform="matrix(0.05 0 0 0.05 59.7369 28.342)" font-style="normal" font-weight="bold" font-size="200px" font-family="Helvetica" >O</text></svg>