<?xml version="1.0" standalone="no" ?><!DOCTYPE svg PUBLIC "-//W3C//DTD SVG 1.1//EN" "http://www.w3.org/Graphics/SVG/1.1/DTD/svg11.dtd"><svg width="121px" height="57px" viewBox="0 0 121 57" style="background-color: #ffffff00" xmlns="http://www.w3.org/2000/svg" xmlns:xlink="http://www.w3.org/1999/xlink" version="1.1" ><path stroke="none" fill="#000000" transform="matrix(0.05 0 0 0.05 -433 -283)" d="M 10276,5789.92 L 10276,5764.26 L 10535.7,5915.24 L 10535.4,5927.4 L 10524.8,5933.54 L 10276,5789.92 Z " /><text x="0" y="0" stroke="none" fill="#000000" transform="matrix(0.05 0 0 0.05 103.491 9.12076)" font-style="normal" font-weight="bold" font-size="180px" font-family="Helvetica" >Cl</text><path stroke="none" fill="#000000" transform="matrix(0.05 0 0 0.05 -433 -283)" d="M 10546.1,5933.27 L 10535.4,5927.4 L 10535.7,5915.24 L 10707.8,5815.08 L 10718.9,5834.29 L 10546.1,5933.27 Z " /><path stroke="none" fill="#000000" transform="matrix(0.05 0 0 0.05 -433 -283)" d="M 10835.9,6324.68 L 9896.76,6324.68 L 9896.76,6302.68 L 10835.9,6302.68 Z " /><path stroke="none" fill="#000000" transform="matrix(0.05 0 0 0.05 -433 -283)" d="M 11029,6313.68 C 11029,6313.68 10807.2,6370.12 10807.2,6370.12 C 10807.2,6370.12 10834.9,6338.37 10834.9,6313.68 C 10834.9,6288.55 10807.2,6256.24 10807.2,6256.24 C 10807.2,6256.24 11029,6313.68 11029,6313.68 C 11029,6313.68 11029,6313.68 11029,6313.68 " /><path stroke="#000000" stroke-width="1" fill="none" transform="matrix(0.05 0 0 0.05 -433 -283)" d="M 11029,6313.68 C 11029,6313.68 10807.2,6370.12 10807.2,6370.12 C 10807.2,6370.12 10834.9,6338.37 10834.9,6313.68 C 10834.9,6288.55 10807.2,6256.24 10807.2,6256.24 C 10807.2,6256.24 11029,6313.68 11029,6313.68 C 11029,6313.68 11029,6313.68 11029,6313.68 " /><path stroke="none" fill="#000000" transform="matrix(0.05 0 0 0.05 -433 -283)" d="M 10276,5764.26 L 10276,5789.92 L 10022.2,5937 L 10011.1,5917.8 L 10276,5764.26 Z " /><path stroke="none" fill="#000000" transform="matrix(0.05 0 0 0.05 -433 -283)" d="M 10524.8,5933.54 L 10535.4,5927.4 L 10546.1,5933.27 L 10546.5,6226.92 L 10524.3,6226.92 L 10524.8,5933.54 Z " /><path stroke="none" fill="#000000" transform="matrix(0.05 0 0 0.05 -433 -283)" d="M 8712.05,6306.72 L 8723.14,6287.52 L 8977.24,6434.73 L 8976.98,6446.88 L 8966.35,6453.02 L 8712.05,6306.72 Z " /><text x="0" y="0" stroke="none" fill="#000000" transform="matrix(0.05 0 0 0.05 25.3185 35.0948)" font-style="normal" font-weight="bold" font-size="180px" font-family="Helvetica" >O</text><path stroke="none" fill="#000000" transform="matrix(0.05 0 0 0.05 -433 -283)" d="M 8987.64,6452.73 L 8976.98,6446.88 L 8977.24,6434.73 L 9146.5,6336.2 L 9157.59,6355.41 L 8987.64,6452.73 Z " /><path stroke="none" fill="#000000" transform="matrix(0.05 0 0 0.05 -433 -283)" d="M 8966.35,6453.02 L 8976.98,6446.88 L 8987.64,6452.73 L 8988.07,6746.4 L 8965.89,6746.4 L 8966.35,6453.02 Z " /><path stroke="#000000" stroke-width="18" fill="none" transform="matrix(0.05 0 0 0.05 -433 -283)" d="M 9168.47,6110.69 A 68.8704,68.8704 0 1 0 9306.21,6110.69A 68.8704,68.8704 0 1 0 9168.47,6110.69Z " /><path stroke="none" fill="#000000" transform="matrix(0.05 0 0 0.05 -433 -283)" d="M 9196.25,6101.69 L 9278.43,6101.69 L 9278.43,6119.69 L 9196.25,6119.69 Z " /><text x="0" y="0" stroke="none" fill="#000000" transform="matrix(0.05 0 0 0.05 37.862 34.682)" font-style="normal" font-weight="bold" font-size="200px" font-family="Helvetica" >Na</text><path stroke="#000000" stroke-width="18" fill="none" transform="matrix(0.05 0 0 0.05 -433 -283)" d="M 9648.46,6113.9 A 68.8704,68.8704 0 1 0 9786.2,6113.9A 68.8704,68.8704 0 1 0 9648.46,6113.9Z " /><path stroke="none" fill="#000000" transform="matrix(0.05 0 0 0.05 -433 -283)" d="M 9676.24,6104.9 L 9758.42,6104.9 L 9758.42,6122.9 L 9676.24,6122.9 Z " /><path stroke="none" fill="#000000" transform="matrix(0.05 0 0 0.05 -433 -283)" d="M 9726.33,6072.81 L 9726.33,6154.99 L 9708.33,6154.99 L 9708.33,6072.81 Z " /></svg>