<?xml version="1.0" standalone="no" ?><!DOCTYPE svg PUBLIC "-//W3C//DTD SVG 1.1//EN" "http://www.w3.org/Graphics/SVG/1.1/DTD/svg11.dtd"><svg width="115px" height="47px" viewBox="0 0 115 47" style="background-color: #ffffff00" xmlns="http://www.w3.org/2000/svg" xmlns:xlink="http://www.w3.org/1999/xlink" version="1.1" ><path stroke="none" fill="#000000" transform="matrix(0.05 0 0 0.05 -598 -297)" d="M 12281,6380.33 L 12281,6354.68 L 12540.4,6203.82 L 12540.4,6229.48 L 12281,6380.33 Z " /><path stroke="none" fill="#000000" transform="matrix(0.05 0 0 0.05 -598 -297)" d="M 12540.4,6229.48 L 12540.4,6203.82 L 12800.1,6354.83 L 12799.8,6366.96 L 12789.2,6373.1 L 12540.4,6229.48 Z " /><text x="0" y="0" stroke="none" fill="#000000" transform="matrix(0.05 0 0 0.05 51.711 17.0988)" font-style="normal" font-weight="bold" font-size="180px" font-family="Helvetica" >Br</text><path stroke="none" fill="#000000" transform="matrix(0.05 0 0 0.05 -598 -297)" d="M 12810.5,6372.77 L 12799.8,6366.96 L 12800.1,6354.83 L 12960.8,6261.22 L 12971.9,6280.43 L 12810.5,6372.77 Z " /><path stroke="none" fill="#000000" transform="matrix(0.05 0 0 0.05 -598 -297)" d="M 14019.4,6284.72 L 13373.3,6284.72 L 13373.3,6262.72 L 14019.4,6262.72 Z " /><path stroke="none" fill="#000000" transform="matrix(0.05 0 0 0.05 -598 -297)" d="M 14212.4,6273.72 C 14212.4,6273.72 13990.7,6330.16 13990.7,6330.16 C 13990.7,6330.16 14018.4,6298.41 14018.4,6273.72 C 14018.4,6248.59 13990.7,6216.28 13990.7,6216.28 C 13990.7,6216.28 14212.4,6273.72 14212.4,6273.72 C 14212.4,6273.72 14212.4,6273.72 14212.4,6273.72 " /><path stroke="#000000" stroke-width="1" fill="none" transform="matrix(0.05 0 0 0.05 -598 -297)" d="M 14212.4,6273.72 C 14212.4,6273.72 13990.7,6330.16 13990.7,6330.16 C 13990.7,6330.16 14018.4,6298.41 14018.4,6273.72 C 14018.4,6248.59 13990.7,6216.28 13990.7,6216.28 C 13990.7,6216.28 14212.4,6273.72 14212.4,6273.72 C 14212.4,6273.72 14212.4,6273.72 14212.4,6273.72 " /><text x="0" y="0" stroke="none" fill="#000000" transform="matrix(0.05 0 0 0.05 78.656 10.026)" font-style="normal" font-weight="bold" font-size="200px" font-family="Helvetica" >KOH</text><path stroke="none" fill="#000000" transform="matrix(0.05 0 0 0.05 -598 -297)" d="M 12789.2,6373.1 L 12799.8,6366.96 L 12810.5,6372.77 L 12810.5,6660.34 L 12788.2,6673.17 L 12789.2,6373.1 Z " /><text x="0" y="0" stroke="none" fill="#000000" transform="matrix(0.05 0 0 0.05 80.6539 29.34)" font-style="normal" font-weight="bold" font-size="200px" font-family="Helvetica" >H</text><text x="0" y="0" stroke="none" fill="#000000" transform="matrix(0.05 0 0 0.05 87.8756 31.6398)" font-style="normal" font-weight="bold" font-size="150px" font-family="Helvetica" >2</text><text x="0" y="0" stroke="none" fill="#000000" transform="matrix(0.05 0 0 0.05 92.0468 29.34)" font-style="normal" font-weight="bold" font-size="200px" font-family="Helvetica" >O</text><path stroke="none" fill="#000000" transform="matrix(0.05 0 0 0.05 -598 -297)" d="M 12281,6354.68 L 12281,6380.33 L 12016.1,6226.8 L 12027.2,6207.6 L 12281,6354.68 Z " /><path stroke="none" fill="#000000" transform="matrix(0.05 0 0 0.05 -598 -297)" d="M 12286.6,6293.34 L 12275.5,6312.55 L 12043.8,6178.79 L 12054.9,6159.59 L 12286.6,6293.34 Z " /><path stroke="none" fill="#000000" transform="matrix(0.05 0 0 0.05 -598 -297)" d="M 12788.2,6673.17 L 12810.5,6660.34 L 13064.8,6806.64 L 13053.7,6825.84 L 12788.2,6673.17 Z " /></svg>