<?xml version="1.0" standalone="no" ?><!DOCTYPE svg PUBLIC "-//W3C//DTD SVG 1.1//EN" "http://www.w3.org/Graphics/SVG/1.1/DTD/svg11.dtd"><svg width="101px" height="38px" viewBox="0 0 101 38" style="background-color: #ffffff00" xmlns="http://www.w3.org/2000/svg" xmlns:xlink="http://www.w3.org/1999/xlink" version="1.1" ><path stroke="none" fill="#000000" transform="matrix(0.05 0 0 0.05 -49 -364)" d="M 1031.18,7708.56 L 1020.1,7689.36 L 1285.03,7535.82 L 1285.03,7561.48 L 1031.18,7708.56 Z " /><path stroke="none" fill="#000000" transform="matrix(0.05 0 0 0.05 -49 -364)" d="M 1285.03,7561.48 L 1285.03,7535.82 L 1556.01,7692.27 L 1533.79,7705.1 L 1285.03,7561.48 Z " /><text x="0" y="0" stroke="none" fill="#000000" transform="matrix(0.05 0 0 0.05 39.9405 16.6987)" font-style="normal" font-weight="bold" font-size="180px" font-family="Helvetica" >I</text><path stroke="none" fill="#000000" transform="matrix(0.05 0 0 0.05 -49 -364)" d="M 1596.25,7681.84 L 1585.16,7662.63 L 1602.92,7649.04 L 1616.91,7673.26 L 1596.25,7681.84 Z " /><path stroke="none" fill="#000000" transform="matrix(0.05 0 0 0.05 -49 -364)" d="M 1665.68,7653.01 L 1644.84,7616.93 L 1662.6,7603.33 L 1686.33,7644.43 L 1665.68,7653.01 Z " /><path stroke="none" fill="#000000" transform="matrix(0.05 0 0 0.05 -49 -364)" d="M 1735.1,7624.18 L 1704.52,7571.22 L 1722.27,7557.62 L 1755.75,7615.61 L 1735.1,7624.18 Z " /><path stroke="none" fill="#000000" transform="matrix(0.05 0 0 0.05 -49 -364)" d="M 2764,7616.72 L 2117.88,7616.72 L 2117.88,7594.72 L 2764,7594.72 Z " /><path stroke="none" fill="#000000" transform="matrix(0.05 0 0 0.05 -49 -364)" d="M 2957.04,7605.72 C 2957.04,7605.72 2735.28,7662.16 2735.28,7662.16 C 2735.28,7662.16 2763,7630.41 2763,7605.72 C 2763,7580.59 2735.28,7548.28 2735.28,7548.28 C 2735.28,7548.28 2957.04,7605.72 2957.04,7605.72 C 2957.04,7605.72 2957.04,7605.72 2957.04,7605.72 " /><path stroke="#000000" stroke-width="1" fill="none" transform="matrix(0.05 0 0 0.05 -49 -364)" d="M 2957.04,7605.72 C 2957.04,7605.72 2735.28,7662.16 2735.28,7662.16 C 2735.28,7662.16 2763,7630.41 2763,7605.72 C 2763,7580.59 2735.28,7548.28 2735.28,7548.28 C 2735.28,7548.28 2957.04,7605.72 2957.04,7605.72 C 2957.04,7605.72 2957.04,7605.72 2957.04,7605.72 " /><text x="0" y="0" stroke="none" fill="#000000" transform="matrix(0.05 0 0 0.05 64.886 9.62598)" font-style="normal" font-weight="bold" font-size="200px" font-family="Helvetica" >NaOH</text><path stroke="none" fill="#000000" transform="matrix(0.05 0 0 0.05 -49 -364)" d="M 1533.79,7705.1 L 1556.01,7692.27 L 1555.51,7998.48 L 1533.33,7998.48 L 1533.79,7705.1 Z " /><text x="0" y="0" stroke="none" fill="#000000" transform="matrix(0.05 0 0 0.05 67.5499 30.272)" font-style="normal" font-weight="bold" font-size="200px" font-family="Helvetica" >H</text><text x="0" y="0" stroke="none" fill="#000000" transform="matrix(0.05 0 0 0.05 74.7716 32.5718)" font-style="normal" font-weight="bold" font-size="150px" font-family="Helvetica" >2</text><text x="0" y="0" stroke="none" fill="#000000" transform="matrix(0.05 0 0 0.05 78.9428 30.272)" font-style="normal" font-weight="bold" font-size="200px" font-family="Helvetica" >O</text></svg>