<?xml version="1.0" standalone="no" ?><!DOCTYPE svg PUBLIC "-//W3C//DTD SVG 1.1//EN" "http://www.w3.org/Graphics/SVG/1.1/DTD/svg11.dtd"><svg width="106px" height="54px" viewBox="0 0 106 54" style="background-color: #ffffff00" xmlns="http://www.w3.org/2000/svg" xmlns:xlink="http://www.w3.org/1999/xlink" version="1.1" ><path stroke="none" fill="#000000" transform="matrix(0.05 0 0 0.05 -190 -361)" d="M 3859.54,7785.07 L 3881.76,7797.9 L 3881.76,8083.62 L 3859.54,8096.45 L 3859.54,7785.07 Z " /><path stroke="none" fill="#000000" transform="matrix(0.05 0 0 0.05 -190 -361)" d="M 4398.86,8096.45 L 4376.64,8083.62 L 4376.64,7797.9 L 4398.86,7785.07 L 4398.86,8096.45 Z " /><path stroke="none" fill="#000000" transform="matrix(0.05 0 0 0.05 -190 -361)" d="M 4398.86,7785.07 L 4376.64,7797.9 L 4129.2,7655.04 L 4129.2,7642.76 L 4139.58,7636.45 L 4398.86,7785.07 Z " /><path stroke="none" fill="#000000" transform="matrix(0.05 0 0 0.05 -190 -361)" d="M 4118.82,7636.45 L 4129.2,7642.76 L 4129.2,7655.04 L 3881.76,7797.9 L 3859.54,7785.07 L 4118.82,7636.45 Z " /><text x="0" y="0" stroke="none" fill="#000000" transform="matrix(0.05 0 0 0.05 12.9597 9.47684)" font-style="normal" font-weight="bold" font-size="180px" font-family="Helvetica" >OTs</text><path stroke="none" fill="#000000" transform="matrix(0.05 0 0 0.05 -190 -361)" d="M 4139.58,7636.45 L 4129.2,7642.76 L 4118.82,7636.45 L 4118.11,7445.25 L 4140.29,7445.25 L 4139.58,7636.45 Z " /><path stroke="none" fill="#000000" transform="matrix(0.05 0 0 0.05 -190 -361)" d="M 5681.08,7776.56 L 4622.04,7776.56 L 4622.04,7754.56 L 5681.08,7754.56 Z " /><path stroke="none" fill="#000000" transform="matrix(0.05 0 0 0.05 -190 -361)" d="M 5874.12,7765.56 C 5874.12,7765.56 5652.36,7822 5652.36,7822 C 5652.36,7822 5680.08,7790.25 5680.08,7765.56 C 5680.08,7740.43 5652.36,7708.12 5652.36,7708.12 C 5652.36,7708.12 5874.12,7765.56 5874.12,7765.56 C 5874.12,7765.56 5874.12,7765.56 5874.12,7765.56 " /><path stroke="#000000" stroke-width="1" fill="none" transform="matrix(0.05 0 0 0.05 -190 -361)" d="M 5874.12,7765.56 C 5874.12,7765.56 5652.36,7822 5652.36,7822 C 5652.36,7822 5680.08,7790.25 5680.08,7765.56 C 5680.08,7740.43 5652.36,7708.12 5652.36,7708.12 C 5652.36,7708.12 5874.12,7765.56 5874.12,7765.56 C 5874.12,7765.56 5874.12,7765.56 5874.12,7765.56 " /><text x="0" y="0" stroke="none" fill="#000000" transform="matrix(0.05 0 0 0.05 55.088 19.952)" font-style="normal" font-weight="bold" font-size="200px" font-family="Helvetica" >NaOEt</text><text x="0" y="0" stroke="none" fill="#000000" transform="matrix(0.05 0 0 0.05 58.0278 39.932)" font-style="normal" font-weight="bold" font-size="200px" font-family="Helvetica" >EtOH</text><path stroke="none" fill="#000000" transform="matrix(0.05 0 0 0.05 -190 -361)" d="M 3859.54,8096.45 L 3881.76,8083.62 L 4129.2,8226.49 L 4129.2,8252.14 L 3859.54,8096.45 Z " /><path stroke="none" fill="#000000" transform="matrix(0.05 0 0 0.05 -190 -361)" d="M 4129.2,8252.14 L 4129.2,8226.49 L 4376.64,8083.62 L 4398.86,8096.45 L 4129.2,8252.14 Z " /></svg>