<?xml version="1.0" standalone="no" ?><!DOCTYPE svg PUBLIC "-//W3C//DTD SVG 1.1//EN" "http://www.w3.org/Graphics/SVG/1.1/DTD/svg11.dtd"><svg width="89px" height="35px" viewBox="0 0 89 35" style="background-color: #ffffff00" xmlns="http://www.w3.org/2000/svg" xmlns:xlink="http://www.w3.org/1999/xlink" version="1.1" ><path stroke="none" fill="#000000" transform="matrix(0.05 0 0 0.05 -323 -362)" d="M 6530.88,7883.82 L 6519.73,7864.65 L 6773.86,7717.49 L 6784.28,7723.75 L 6784.32,7736.03 L 6530.88,7883.82 Z " /><text x="0" y="0" stroke="none" fill="#000000" transform="matrix(0.05 0 0 0.05 12.9227 12.4505)" font-style="normal" font-weight="bold" font-size="180px" font-family="Helvetica" >Br</text><path stroke="none" fill="#000000" transform="matrix(0.05 0 0 0.05 -323 -362)" d="M 6794.67,7717.43 L 6784.28,7723.75 L 6773.86,7717.49 L 6772.62,7518.73 L 6794.8,7518.67 L 6794.67,7717.43 Z " /><path stroke="none" fill="#000000" transform="matrix(0.05 0 0 0.05 -323 -362)" d="M 7998.76,7576.76 L 7352.64,7576.76 L 7352.64,7554.76 L 7998.76,7554.76 Z " /><path stroke="none" fill="#000000" transform="matrix(0.05 0 0 0.05 -323 -362)" d="M 8191.8,7565.76 C 8191.8,7565.76 7970.04,7622.2 7970.04,7622.2 C 7970.04,7622.2 7997.76,7590.45 7997.76,7565.76 C 7997.76,7540.63 7970.04,7508.32 7970.04,7508.32 C 7970.04,7508.32 8191.8,7565.76 8191.8,7565.76 C 8191.8,7565.76 8191.8,7565.76 8191.8,7565.76 " /><path stroke="#000000" stroke-width="1" fill="none" transform="matrix(0.05 0 0 0.05 -323 -362)" d="M 8191.8,7565.76 C 8191.8,7565.76 7970.04,7622.2 7970.04,7622.2 C 7970.04,7622.2 7997.76,7590.45 7997.76,7565.76 C 7997.76,7540.63 7970.04,7508.32 7970.04,7508.32 C 7970.04,7508.32 8191.8,7565.76 8191.8,7565.76 C 8191.8,7565.76 8191.8,7565.76 8191.8,7565.76 " /><path stroke="none" fill="#000000" transform="matrix(0.05 0 0 0.05 -323 -362)" d="M 6784.32,7736.03 L 6784.28,7723.75 L 6794.67,7717.43 L 7049.6,7863.18 L 7038.57,7882.41 L 6784.32,7736.03 Z " /><text x="0" y="0" stroke="none" fill="#000000" transform="matrix(0.05 0 0 0.05 51.2919 9.62798)" font-style="normal" font-weight="bold" font-size="200px" font-family="Helvetica" >KOH</text><text x="0" y="0" stroke="none" fill="#000000" transform="matrix(0.05 0 0 0.05 53.6801 28.276)" font-style="normal" font-weight="bold" font-size="200px" font-family="Helvetica" >H</text><text x="0" y="0" stroke="none" fill="#000000" transform="matrix(0.05 0 0 0.05 60.9018 30.5758)" font-style="normal" font-weight="bold" font-size="150px" font-family="Helvetica" >2</text><text x="0" y="0" stroke="none" fill="#000000" transform="matrix(0.05 0 0 0.05 65.0729 28.276)" font-style="normal" font-weight="bold" font-size="200px" font-family="Helvetica" >O</text></svg>