<?xml version="1.0" standalone="no" ?><!DOCTYPE svg PUBLIC "-//W3C//DTD SVG 1.1//EN" "http://www.w3.org/Graphics/SVG/1.1/DTD/svg11.dtd"><svg width="134px" height="56px" viewBox="0 0 134 56" style="background-color: #ffffff00" xmlns="http://www.w3.org/2000/svg" xmlns:xlink="http://www.w3.org/1999/xlink" version="1.1" ><path stroke="none" fill="#000000" transform="matrix(0.05 0 0 0.05 -437 -346)" d="M 10523.6,7052.64 L 10534.7,7033.44 L 10788.7,7180.6 L 10788.5,7192.8 L 10777.9,7198.94 L 10523.6,7052.64 Z " /><text x="0" y="0" stroke="none" fill="#000000" transform="matrix(0.05 0 0 0.05 114.145 9.39075)" font-style="normal" font-weight="bold" font-size="180px" font-family="Helvetica" >I</text><path stroke="none" fill="#000000" transform="matrix(0.05 0 0 0.05 -437 -346)" d="M 10799.1,7198.76 L 10788.5,7192.8 L 10788.7,7180.6 L 10981.4,7068.6 L 10992.5,7087.8 L 10799.1,7198.76 Z " /><path stroke="none" fill="#000000" transform="matrix(0.05 0 0 0.05 -437 -346)" d="M 11168.9,7590.08 L 10229.8,7590.08 L 10229.8,7568.08 L 11168.9,7568.08 Z " /><path stroke="none" fill="#000000" transform="matrix(0.05 0 0 0.05 -437 -346)" d="M 11362,7579.08 C 11362,7579.08 11140.2,7635.52 11140.2,7635.52 C 11140.2,7635.52 11167.9,7603.77 11167.9,7579.08 C 11167.9,7553.95 11140.2,7521.64 11140.2,7521.64 C 11140.2,7521.64 11362,7579.08 11362,7579.08 C 11362,7579.08 11362,7579.08 11362,7579.08 " /><path stroke="#000000" stroke-width="1" fill="none" transform="matrix(0.05 0 0 0.05 -437 -346)" d="M 11362,7579.08 C 11362,7579.08 11140.2,7635.52 11140.2,7635.52 C 11140.2,7635.52 11167.9,7603.77 11167.9,7579.08 C 11167.9,7553.95 11140.2,7521.64 11140.2,7521.64 C 11140.2,7521.64 11362,7579.08 11362,7579.08 C 11362,7579.08 11362,7579.08 11362,7579.08 " /><path stroke="none" fill="#000000" transform="matrix(0.05 0 0 0.05 -437 -346)" d="M 10777.9,7198.94 L 10788.5,7192.8 L 10799.1,7198.76 L 10799.6,7492.32 L 10777.4,7492.32 L 10777.9,7198.94 Z " /><text x="0" y="0" stroke="none" fill="#000000" transform="matrix(0.05 0 0 0.05 35.9705 29.3707)" font-style="normal" font-weight="bold" font-size="180px" font-family="Helvetica" >O</text><path stroke="none" fill="#000000" transform="matrix(0.05 0 0 0.05 -437 -346)" d="M 9280.68,7598.25 L 9270.02,7592.4 L 9269.06,7580.78 L 9439.54,7481.72 L 9450.63,7500.93 L 9280.68,7598.25 Z " /><path stroke="none" fill="#000000" transform="matrix(0.05 0 0 0.05 -437 -346)" d="M 9259.5,7600.04 L 9270.02,7592.4 L 9280.68,7598.25 L 9281.74,7900.43 L 9259.5,7884.27 L 9259.5,7600.04 Z " /><path stroke="#000000" stroke-width="18" fill="none" transform="matrix(0.05 0 0 0.05 -437 -346)" d="M 9461.51,7256.21 A 68.8704,68.8704 0 1 0 9599.25,7256.21A 68.8704,68.8704 0 1 0 9461.51,7256.21Z " /><path stroke="none" fill="#000000" transform="matrix(0.05 0 0 0.05 -437 -346)" d="M 9489.29,7247.21 L 9571.47,7247.21 L 9571.47,7265.21 L 9489.29,7265.21 Z " /><text x="0" y="0" stroke="none" fill="#000000" transform="matrix(0.05 0 0 0.05 48.5139 28.958)" font-style="normal" font-weight="bold" font-size="200px" font-family="Helvetica" >Na</text><path stroke="#000000" stroke-width="18" fill="none" transform="matrix(0.05 0 0 0.05 -437 -346)" d="M 9941.5,7259.42 A 68.8704,68.8704 0 1 0 10079.2,7259.42A 68.8704,68.8704 0 1 0 9941.5,7259.42Z " /><path stroke="none" fill="#000000" transform="matrix(0.05 0 0 0.05 -437 -346)" d="M 9969.28,7250.42 L 10051.5,7250.42 L 10051.5,7268.42 L 9969.28,7268.42 Z " /><path stroke="none" fill="#000000" transform="matrix(0.05 0 0 0.05 -437 -346)" d="M 10019.4,7218.33 L 10019.4,7300.51 L 10001.4,7300.51 L 10001.4,7218.33 Z " /><path stroke="none" fill="#000000" transform="matrix(0.05 0 0 0.05 -437 -346)" d="M 9269.06,7580.78 L 9270.02,7592.4 L 9259.5,7600.04 L 8989.18,7512.21 L 8980.69,7486.07 L 9269.06,7580.78 Z " /><path stroke="none" fill="#000000" transform="matrix(0.05 0 0 0.05 -437 -346)" d="M 8980.69,7486.07 L 8989.18,7512.21 L 8822.11,7742.16 L 8794.62,7742.16 L 8980.69,7486.07 Z " /><path stroke="none" fill="#000000" transform="matrix(0.05 0 0 0.05 -437 -346)" d="M 8794.62,7742.16 L 8822.11,7742.16 L 8989.18,7972.11 L 8980.69,7998.25 L 8794.62,7742.16 Z " /><path stroke="none" fill="#000000" transform="matrix(0.05 0 0 0.05 -437 -346)" d="M 8980.69,7998.25 L 8989.18,7972.11 L 9259.5,7884.27 L 9281.74,7900.43 L 8980.69,7998.25 Z " /></svg>