<?xml version="1.0" standalone="no" ?><!DOCTYPE svg PUBLIC "-//W3C//DTD SVG 1.1//EN" "http://www.w3.org/Graphics/SVG/1.1/DTD/svg11.dtd"><svg width="85px" height="36px" viewBox="0 0 85 36" style="background-color: #ffffff00" xmlns="http://www.w3.org/2000/svg" xmlns:xlink="http://www.w3.org/1999/xlink" version="1.1" ><path stroke="none" fill="#000000" transform="matrix(0.05 0 0 0.05 -633 -364)" d="M 12711.4,7857.18 L 12700.2,7838.01 L 12954.3,7690.85 L 12964.8,7697.11 L 12964.8,7709.39 L 12711.4,7857.18 Z " /><text x="0" y="0" stroke="none" fill="#000000" transform="matrix(0.05 0 0 0.05 11.9467 9.11853)" font-style="normal" font-weight="bold" font-size="180px" font-family="Helvetica" >Br</text><path stroke="none" fill="#000000" transform="matrix(0.05 0 0 0.05 -633 -364)" d="M 12975.2,7690.79 L 12964.8,7697.11 L 12954.3,7690.85 L 12953.1,7492.09 L 12975.3,7492.03 L 12975.2,7690.79 Z " /><path stroke="none" fill="#000000" transform="matrix(0.05 0 0 0.05 -633 -364)" d="M 14126,7656.68 L 13479.8,7656.68 L 13479.8,7634.68 L 14126,7634.68 Z " /><path stroke="none" fill="#000000" transform="matrix(0.05 0 0 0.05 -633 -364)" d="M 14319,7645.68 C 14319,7645.68 14097.2,7702.12 14097.2,7702.12 C 14097.2,7702.12 14125,7670.37 14125,7645.68 C 14125,7620.55 14097.2,7588.24 14097.2,7588.24 C 14097.2,7588.24 14319,7645.68 14319,7645.68 C 14319,7645.68 14319,7645.68 14319,7645.68 " /><path stroke="#000000" stroke-width="1" fill="none" transform="matrix(0.05 0 0 0.05 -633 -364)" d="M 14319,7645.68 C 14319,7645.68 14097.2,7702.12 14097.2,7702.12 C 14097.2,7702.12 14125,7670.37 14125,7645.68 C 14125,7620.55 14097.2,7588.24 14097.2,7588.24 C 14097.2,7588.24 14319,7645.68 14319,7645.68 C 14319,7645.68 14319,7645.68 14319,7645.68 " /><path stroke="none" fill="#000000" transform="matrix(0.05 0 0 0.05 -633 -364)" d="M 12964.8,7709.39 L 12964.8,7697.11 L 12975.2,7690.79 L 13230.1,7836.54 L 13219,7855.77 L 12964.8,7709.39 Z " /><text x="0" y="0" stroke="none" fill="#000000" transform="matrix(0.05 0 0 0.05 40.9919 9.62596)" font-style="normal" font-weight="bold" font-size="200px" font-family="Helvetica" >NaOCH</text><text x="0" y="0" stroke="none" fill="#000000" transform="matrix(0.05 0 0 0.05 75.9968 11.9258)" font-style="normal" font-weight="bold" font-size="150px" font-family="Helvetica" >3</text><text x="0" y="0" stroke="none" fill="#000000" transform="matrix(0.05 0 0 0.05 42.99 30.938)" font-style="normal" font-weight="bold" font-size="200px" font-family="Helvetica" >CH</text><text x="0" y="0" stroke="none" fill="#000000" transform="matrix(0.05 0 0 0.05 57.4333 33.2378)" font-style="normal" font-weight="bold" font-size="150px" font-family="Helvetica" >3</text><text x="0" y="0" stroke="none" fill="#000000" transform="matrix(0.05 0 0 0.05 61.6045 30.938)" font-style="normal" font-weight="bold" font-size="200px" font-family="Helvetica" >OH</text></svg>