<?xml version="1.0" standalone="no" ?><!DOCTYPE svg PUBLIC "-//W3C//DTD SVG 1.1//EN" "http://www.w3.org/Graphics/SVG/1.1/DTD/svg11.dtd"><svg width="99px" height="39px" viewBox="0 0 99 39" style="background-color: #ffffff00" xmlns="http://www.w3.org/2000/svg" xmlns:xlink="http://www.w3.org/1999/xlink" version="1.1" ><path stroke="none" fill="#000000" transform="matrix(0.05 0 0 0.05 -42 -253)" d="M 900.33,5490.99 L 889.242,5471.79 L 1154.18,5318.26 L 1154.18,5343.91 L 900.33,5490.99 Z " /><path stroke="none" fill="#000000" transform="matrix(0.05 0 0 0.05 -42 -253)" d="M 1154.18,5343.91 L 1154.18,5318.26 L 1414.83,5469.72 L 1413.57,5481.39 L 1402.94,5487.53 L 1154.18,5343.91 Z " /><text x="0" y="0" stroke="none" fill="#000000" transform="matrix(0.05 0 0 0.05 38.3983 16.8203)" font-style="normal" font-weight="bold" font-size="180px" font-family="Helvetica" >Br</text><path stroke="none" fill="#000000" transform="matrix(0.05 0 0 0.05 -42 -253)" d="M 1424.31,5486.13 L 1413.57,5481.39 L 1414.83,5469.72 L 1562.59,5356.7 L 1596.07,5414.68 L 1424.31,5486.13 Z " /><path stroke="none" fill="#000000" transform="matrix(0.05 0 0 0.05 -42 -253)" d="M 2579.87,5479.07 L 1933.75,5479.07 L 1933.75,5457.07 L 2579.87,5457.07 Z " /><path stroke="none" fill="#000000" transform="matrix(0.05 0 0 0.05 -42 -253)" d="M 2772.91,5468.07 C 2772.91,5468.07 2551.15,5524.51 2551.15,5524.51 C 2551.15,5524.51 2578.87,5492.76 2578.87,5468.07 C 2578.87,5442.94 2551.15,5410.63 2551.15,5410.63 C 2551.15,5410.63 2772.91,5468.07 2772.91,5468.07 C 2772.91,5468.07 2772.91,5468.07 2772.91,5468.07 " /><path stroke="#000000" stroke-width="1" fill="none" transform="matrix(0.05 0 0 0.05 -42 -253)" d="M 2772.91,5468.07 C 2772.91,5468.07 2551.15,5524.51 2551.15,5524.51 C 2551.15,5524.51 2578.87,5492.76 2578.87,5468.07 C 2578.87,5442.94 2551.15,5410.63 2551.15,5410.63 C 2551.15,5410.63 2772.91,5468.07 2772.91,5468.07 C 2772.91,5468.07 2772.91,5468.07 2772.91,5468.07 " /><text x="0" y="0" stroke="none" fill="#000000" transform="matrix(0.05 0 0 0.05 60.0153 13.7436)" font-style="normal" font-weight="bold" font-size="200px" font-family="Helvetica" >KO</text><text x="0" y="0" stroke="none" fill="#000000" transform="matrix(0.05 0 0 0.05 75.0153 10.1449)" font-style="normal" font-weight="bold" font-size="150px" font-family="Helvetica" >t</text><text x="0" y="0" stroke="none" fill="#000000" transform="matrix(0.05 0 0 0.05 77.5129 13.7436)" font-style="normal" font-weight="bold" font-size="200px" font-family="Helvetica" >Bu</text><path stroke="none" fill="#000000" transform="matrix(0.05 0 0 0.05 -42 -253)" d="M 1402.94,5487.53 L 1413.57,5481.39 L 1424.31,5486.13 L 1424.66,5780.91 L 1402.48,5780.91 L 1402.94,5487.53 Z " /></svg>