<?xml version="1.0" standalone="no" ?><!DOCTYPE svg PUBLIC "-//W3C//DTD SVG 1.1//EN" "http://www.w3.org/Graphics/SVG/1.1/DTD/svg11.dtd"><svg width="105px" height="48px" viewBox="0 0 105 48" style="background-color: #ffffff00" xmlns="http://www.w3.org/2000/svg" xmlns:xlink="http://www.w3.org/1999/xlink" version="1.1" ><path stroke="none" fill="#000000" transform="matrix(0.05 0 0 0.05 -185 -469)" d="M 3756.57,9870.54 L 3778.81,9886.7 L 3778.81,10170.4 L 3756.57,10186.6 L 3756.57,9870.54 Z " /><path stroke="none" fill="#000000" transform="matrix(0.05 0 0 0.05 -185 -469)" d="M 4057.13,10284.2 L 4048.64,10258.1 L 4215.4,10028.6 L 4242.89,10028.6 L 4057.13,10284.2 Z " /><path stroke="none" fill="#000000" transform="matrix(0.05 0 0 0.05 -185 -469)" d="M 4242.89,10028.6 L 4215.4,10028.6 L 4048.64,9799.02 L 4052.66,9786.66 L 4064.34,9784.52 L 4242.89,10028.6 Z " /><path stroke="none" fill="#000000" transform="matrix(0.05 0 0 0.05 -185 -469)" d="M 4044.45,9778.06 L 4052.66,9786.66 L 4048.64,9799.02 L 3778.81,9886.7 L 3756.57,9870.54 L 4044.45,9778.06 Z " /><text x="0" y="0" stroke="none" fill="#000000" transform="matrix(0.05 0 0 0.05 18.7523 9.35324)" font-style="normal" font-weight="bold" font-size="180px" font-family="Helvetica" >OTs</text><path stroke="none" fill="#000000" transform="matrix(0.05 0 0 0.05 -185 -469)" d="M 4064.34,9784.52 L 4052.66,9786.66 L 4044.45,9778.06 L 4103.19,9595.25 L 4124.28,9602.1 L 4064.34,9784.52 Z " /><path stroke="none" fill="#000000" transform="matrix(0.05 0 0 0.05 -185 -469)" d="M 5550.23,9967.91 L 4491.19,9967.91 L 4491.19,9945.91 L 5550.23,9945.91 Z " /><path stroke="none" fill="#000000" transform="matrix(0.05 0 0 0.05 -185 -469)" d="M 5743.27,9956.91 C 5743.27,9956.91 5521.51,10013.4 5521.51,10013.4 C 5521.51,10013.4 5549.23,9981.6 5549.23,9956.91 C 5549.23,9931.78 5521.51,9899.47 5521.51,9899.47 C 5521.51,9899.47 5743.27,9956.91 5743.27,9956.91 C 5743.27,9956.91 5743.27,9956.91 5743.27,9956.91 " /><path stroke="#000000" stroke-width="1" fill="none" transform="matrix(0.05 0 0 0.05 -185 -469)" d="M 5743.27,9956.91 C 5743.27,9956.91 5521.51,10013.4 5521.51,10013.4 C 5521.51,10013.4 5549.23,9981.6 5549.23,9956.91 C 5549.23,9931.78 5521.51,9899.47 5521.51,9899.47 C 5521.51,9899.47 5743.27,9956.91 5743.27,9956.91 C 5743.27,9956.91 5743.27,9956.91 5743.27,9956.91 " /><text x="0" y="0" stroke="none" fill="#000000" transform="matrix(0.05 0 0 0.05 60.2053 22.1856)" font-style="normal" font-weight="bold" font-size="200px" font-family="Helvetica" >DBU</text><path stroke="none" fill="#000000" transform="matrix(0.05 0 0 0.05 -185 -469)" d="M 3756.57,10186.6 L 3778.81,10170.4 L 4048.64,10258.1 L 4057.13,10284.2 L 3756.57,10186.6 Z " /></svg>