<?xml version="1.0" standalone="no" ?><!DOCTYPE svg PUBLIC "-//W3C//DTD SVG 1.1//EN" "http://www.w3.org/Graphics/SVG/1.1/DTD/svg11.dtd"><svg width="85px" height="35px" viewBox="0 0 85 35" style="background-color: #ffffff00" xmlns="http://www.w3.org/2000/svg" xmlns:xlink="http://www.w3.org/1999/xlink" version="1.1" ><path stroke="none" fill="#000000" transform="matrix(0.05 0 0 0.05 -321 -471)" d="M 6476.63,9590.31 L 6487.72,9571.11 L 6741.73,9718.27 L 6741.57,9730.47 L 6721.91,9730.47 L 6476.63,9590.31 Z " /><text x="0" y="0" stroke="none" fill="#000000" transform="matrix(0.05 0 0 0.05 27.7978 11.2743)" font-style="normal" font-weight="bold" font-size="180px" font-family="Helvetica" >I</text><path stroke="none" fill="#000000" transform="matrix(0.05 0 0 0.05 -321 -471)" d="M 6752.22,9736.43 L 6741.57,9730.47 L 6741.73,9718.27 L 6934.51,9606.27 L 6945.6,9625.48 L 6752.22,9736.43 Z " /><path stroke="none" fill="#000000" transform="matrix(0.05 0 0 0.05 -321 -471)" d="M 7867.91,9768.11 L 7221.79,9768.11 L 7221.79,9746.11 L 7867.91,9746.11 Z " /><path stroke="none" fill="#000000" transform="matrix(0.05 0 0 0.05 -321 -471)" d="M 8060.95,9757.11 C 8060.95,9757.11 7839.19,9813.55 7839.19,9813.55 C 7839.19,9813.55 7866.91,9781.8 7866.91,9757.11 C 7866.91,9731.98 7839.19,9699.67 7839.19,9699.67 C 7839.19,9699.67 8060.95,9757.11 8060.95,9757.11 C 8060.95,9757.11 8060.95,9757.11 8060.95,9757.11 " /><path stroke="#000000" stroke-width="1" fill="none" transform="matrix(0.05 0 0 0.05 -321 -471)" d="M 8060.95,9757.11 C 8060.95,9757.11 7839.19,9813.55 7839.19,9813.55 C 7839.19,9813.55 7866.91,9781.8 7866.91,9757.11 C 7866.91,9731.98 7839.19,9699.67 7839.19,9699.67 C 7839.19,9699.67 8060.95,9757.11 8060.95,9757.11 C 8060.95,9757.11 8060.95,9757.11 8060.95,9757.11 " /><path stroke="none" fill="#000000" transform="matrix(0.05 0 0 0.05 -321 -471)" d="M 6731.74,9747.49 L 6741.57,9730.47 L 6752.22,9736.43 L 6752.66,10030 L 6730.48,10030 L 6731.74,9747.49 Z " /><text x="0" y="0" stroke="none" fill="#000000" transform="matrix(0.05 0 0 0.05 47.4153 10.1956)" font-style="normal" font-weight="bold" font-size="200px" font-family="Helvetica" >KOH</text><text x="0" y="0" stroke="none" fill="#000000" transform="matrix(0.05 0 0 0.05 49.1374 30.1756)" font-style="normal" font-weight="bold" font-size="200px" font-family="Helvetica" >H</text><text x="0" y="0" stroke="none" fill="#000000" transform="matrix(0.05 0 0 0.05 56.3591 32.4754)" font-style="normal" font-weight="bold" font-size="150px" font-family="Helvetica" >2</text><text x="0" y="0" stroke="none" fill="#000000" transform="matrix(0.05 0 0 0.05 60.5302 30.1756)" font-style="normal" font-weight="bold" font-size="200px" font-family="Helvetica" >O</text><path stroke="none" fill="#000000" transform="matrix(0.05 0 0 0.05 -321 -471)" d="M 6721.91,9730.47 L 6741.57,9730.47 L 6731.74,9747.49 L 6487.72,9889.83 L 6476.63,9870.63 L 6721.91,9730.47 Z " /></svg>