<?xml version="1.0" standalone="no" ?><!DOCTYPE svg PUBLIC "-//W3C//DTD SVG 1.1//EN" "http://www.w3.org/Graphics/SVG/1.1/DTD/svg11.dtd"><svg width="121px" height="56px" viewBox="0 0 121 56" style="background-color: #ffffff00" xmlns="http://www.w3.org/2000/svg" xmlns:xlink="http://www.w3.org/1999/xlink" version="1.1" ><path stroke="none" fill="#000000" transform="matrix(0.05 0 0 0.05 -424 -459)" d="M 10091.9,9299.95 L 10091.9,9274.3 L 10351.1,9425.01 L 10350.8,9437.17 L 10336.7,9440.95 L 10091.9,9299.95 Z " /><text x="0" y="0" stroke="none" fill="#000000" transform="matrix(0.05 0 0 0.05 103.239 8.62234)" font-style="normal" font-weight="bold" font-size="180px" font-family="Helvetica" >Cl</text><path stroke="none" fill="#000000" transform="matrix(0.05 0 0 0.05 -424 -459)" d="M 10364.8,9440.63 L 10350.8,9437.17 L 10351.1,9425.01 L 10522.7,9325.12 L 10533.8,9344.32 L 10364.8,9440.63 Z " /><path stroke="none" fill="#000000" transform="matrix(0.05 0 0 0.05 -424 -459)" d="M 10651.8,9834.71 L 9712.63,9834.71 L 9712.63,9812.71 L 10651.8,9812.71 Z " /><path stroke="none" fill="#000000" transform="matrix(0.05 0 0 0.05 -424 -459)" d="M 10844.8,9823.71 C 10844.8,9823.71 10623.1,9880.15 10623.1,9880.15 C 10623.1,9880.15 10650.8,9848.4 10650.8,9823.71 C 10650.8,9798.58 10623.1,9766.27 10623.1,9766.27 C 10623.1,9766.27 10844.8,9823.71 10844.8,9823.71 C 10844.8,9823.71 10844.8,9823.71 10844.8,9823.71 " /><path stroke="#000000" stroke-width="1" fill="none" transform="matrix(0.05 0 0 0.05 -424 -459)" d="M 10844.8,9823.71 C 10844.8,9823.71 10623.1,9880.15 10623.1,9880.15 C 10623.1,9880.15 10650.8,9848.4 10650.8,9823.71 C 10650.8,9798.58 10623.1,9766.27 10623.1,9766.27 C 10623.1,9766.27 10844.8,9823.71 10844.8,9823.71 C 10844.8,9823.71 10844.8,9823.71 10844.8,9823.71 " /><path stroke="none" fill="#000000" transform="matrix(0.05 0 0 0.05 -424 -459)" d="M 10091.9,9274.3 L 10091.9,9299.95 L 9838.5,9446.77 L 9827.41,9427.57 L 10091.9,9274.3 Z " /><path stroke="none" fill="#000000" transform="matrix(0.05 0 0 0.05 -424 -459)" d="M 10350.8,9456.82 L 10350.8,9437.17 L 10364.8,9440.63 L 10509.9,9690.57 L 10490.7,9701.66 L 10350.8,9456.82 Z " /><path stroke="none" fill="#000000" transform="matrix(0.05 0 0 0.05 -424 -459)" d="M 8527.91,9816.75 L 8539,9797.55 L 8793.11,9944.76 L 8792.85,9956.91 L 8773.19,9956.91 L 8527.91,9816.75 Z " /><text x="0" y="0" stroke="none" fill="#000000" transform="matrix(0.05 0 0 0.05 25.1118 34.5963)" font-style="normal" font-weight="bold" font-size="180px" font-family="Helvetica" >O</text><path stroke="none" fill="#000000" transform="matrix(0.05 0 0 0.05 -424 -459)" d="M 8803.5,9962.77 L 8792.85,9956.91 L 8793.11,9944.76 L 8962.37,9846.24 L 8973.46,9865.44 L 8803.5,9962.77 Z " /><path stroke="none" fill="#000000" transform="matrix(0.05 0 0 0.05 -424 -459)" d="M 8783.02,9973.93 L 8792.85,9956.91 L 8803.5,9962.77 L 8803.94,10256.4 L 8781.76,10256.4 L 8783.02,9973.93 Z " /><path stroke="#000000" stroke-width="18" fill="none" transform="matrix(0.05 0 0 0.05 -424 -459)" d="M 8984.34,9620.72 A 68.8704,68.8704 0 1 0 9122.08,9620.72A 68.8704,68.8704 0 1 0 8984.34,9620.72Z " /><path stroke="none" fill="#000000" transform="matrix(0.05 0 0 0.05 -424 -459)" d="M 9012.12,9611.72 L 9094.3,9611.72 L 9094.3,9629.72 L 9012.12,9629.72 Z " /><text x="0" y="0" stroke="none" fill="#000000" transform="matrix(0.05 0 0 0.05 37.6553 34.1836)" font-style="normal" font-weight="bold" font-size="200px" font-family="Helvetica" >Na</text><path stroke="#000000" stroke-width="18" fill="none" transform="matrix(0.05 0 0 0.05 -424 -459)" d="M 9464.32,9623.93 A 68.8704,68.8704 0 1 0 9602.06,9623.93A 68.8704,68.8704 0 1 0 9464.32,9623.93Z " /><path stroke="none" fill="#000000" transform="matrix(0.05 0 0 0.05 -424 -459)" d="M 9492.11,9614.93 L 9574.28,9614.93 L 9574.28,9632.93 L 9492.11,9632.93 Z " /><path stroke="none" fill="#000000" transform="matrix(0.05 0 0 0.05 -424 -459)" d="M 9542.19,9582.85 L 9542.19,9665.02 L 9524.19,9665.02 L 9524.19,9582.85 Z " /><path stroke="none" fill="#000000" transform="matrix(0.05 0 0 0.05 -424 -459)" d="M 10336.7,9440.95 L 10350.8,9437.17 L 10350.8,9456.82 L 10210.9,9701.66 L 10191.7,9690.57 L 10336.7,9440.95 Z " /><path stroke="none" fill="#000000" transform="matrix(0.05 0 0 0.05 -424 -459)" d="M 8773.19,9956.91 L 8792.85,9956.91 L 8783.02,9973.93 L 8539,10116.3 L 8527.91,10097.1 L 8773.19,9956.91 Z " /></svg>