<?xml version="1.0" standalone="no" ?><!DOCTYPE svg PUBLIC "-//W3C//DTD SVG 1.1//EN" "http://www.w3.org/Graphics/SVG/1.1/DTD/svg11.dtd"><svg width="105px" height="52px" viewBox="0 0 105 52" style="background-color: #ffffff00" xmlns="http://www.w3.org/2000/svg" xmlns:xlink="http://www.w3.org/1999/xlink" version="1.1" ><path stroke="none" fill="#000000" transform="matrix(0.05 0 0 0.05 -592 -459)" d="M 11880.5,9696.7 L 11902.7,9709.53 L 11902.7,9995.26 L 11880.5,10008.1 L 11880.5,9696.7 Z " /><path stroke="none" fill="#000000" transform="matrix(0.05 0 0 0.05 -592 -459)" d="M 12419.8,10008.1 L 12397.6,9995.26 L 12397.6,9709.53 L 12419.8,9696.7 L 12419.8,10008.1 Z " /><path stroke="none" fill="#000000" transform="matrix(0.05 0 0 0.05 -592 -459)" d="M 12419.8,9696.7 L 12397.6,9709.53 L 12150.2,9566.67 L 12150.2,9554.39 L 12163.9,9550.35 L 12419.8,9696.7 Z " /><path stroke="none" fill="#000000" transform="matrix(0.05 0 0 0.05 -592 -459)" d="M 12136.1,9550.62 L 12150.2,9554.39 L 12150.2,9566.67 L 11902.7,9709.53 L 11880.5,9696.7 L 12136.1,9550.62 Z " /><text x="0" y="0" stroke="none" fill="#000000" transform="matrix(0.05 0 0 0.05 19.7095 9.05464)" font-style="normal" font-weight="bold" font-size="180px" font-family="Helvetica" >Br</text><path stroke="none" fill="#000000" transform="matrix(0.05 0 0 0.05 -592 -459)" d="M 12163.9,9550.35 L 12150.2,9554.39 L 12150.6,9535.41 L 12233.7,9387.58 L 12252.9,9398.67 L 12163.9,9550.35 Z " /><path stroke="none" fill="#000000" transform="matrix(0.05 0 0 0.05 -592 -459)" d="M 13702.1,9688.19 L 12643,9688.19 L 12643,9666.19 L 13702.1,9666.19 Z " /><path stroke="none" fill="#000000" transform="matrix(0.05 0 0 0.05 -592 -459)" d="M 13895.1,9677.19 C 13895.1,9677.19 13673.3,9733.63 13673.3,9733.63 C 13673.3,9733.63 13701.1,9701.88 13701.1,9677.19 C 13701.1,9652.06 13673.3,9619.75 13673.3,9619.75 C 13673.3,9619.75 13895.1,9677.19 13895.1,9677.19 C 13895.1,9677.19 13895.1,9677.19 13895.1,9677.19 " /><path stroke="#000000" stroke-width="1" fill="none" transform="matrix(0.05 0 0 0.05 -592 -459)" d="M 13895.1,9677.19 C 13895.1,9677.19 13673.3,9733.63 13673.3,9733.63 C 13673.3,9733.63 13701.1,9701.88 13701.1,9677.19 C 13701.1,9652.06 13673.3,9619.75 13673.3,9619.75 C 13673.3,9619.75 13895.1,9677.19 13895.1,9677.19 C 13895.1,9677.19 13895.1,9677.19 13895.1,9677.19 " /><path stroke="none" fill="#000000" transform="matrix(0.05 0 0 0.05 -592 -459)" d="M 11880.5,10008.1 L 11902.7,9995.26 L 12150.2,10138.1 L 12150.2,10163.8 L 11880.5,10008.1 Z " /><path stroke="none" fill="#000000" transform="matrix(0.05 0 0 0.05 -592 -459)" d="M 12150.2,10163.8 L 12150.2,10138.1 L 12397.6,9995.26 L 12419.8,10008.1 L 12150.2,10163.8 Z " /><path stroke="none" fill="#000000" transform="matrix(0.05 0 0 0.05 -592 -459)" d="M 12150.6,9535.41 L 12150.2,9554.39 L 12136.1,9550.62 L 11991.6,9301.86 L 12010.8,9290.77 L 12150.6,9535.41 Z " /><text x="0" y="0" stroke="none" fill="#000000" transform="matrix(0.05 0 0 0.05 58.1333 16.2016)" font-style="normal" font-weight="bold" font-size="200px" font-family="Helvetica" >KOH</text></svg>