<?xml version="1.0" standalone="no" ?><!DOCTYPE svg PUBLIC "-//W3C//DTD SVG 1.1//EN" "http://www.w3.org/Graphics/SVG/1.1/DTD/svg11.dtd"><svg width="122px" height="65px" viewBox="0 0 122 65" style="background-color: #ffffff00" xmlns="http://www.w3.org/2000/svg" xmlns:xlink="http://www.w3.org/1999/xlink" version="1.1" ><path stroke="none" fill="#000000" transform="matrix(0.05 0 0 0.05 -39 -514)" d="M 2979.47,11126.8 L 1933.75,11126.8 L 1933.75,11104.8 L 2979.47,11104.8 Z " /><path stroke="none" fill="#000000" transform="matrix(0.05 0 0 0.05 -39 -514)" d="M 3172.51,11115.8 C 3172.51,11115.8 2950.75,11172.2 2950.75,11172.2 C 2950.75,11172.2 2978.47,11140.4 2978.47,11115.8 C 2978.47,11090.6 2950.75,11058.3 2950.75,11058.3 C 2950.75,11058.3 3172.51,11115.8 3172.51,11115.8 C 3172.51,11115.8 3172.51,11115.8 3172.51,11115.8 " /><path stroke="#000000" stroke-width="1" fill="none" transform="matrix(0.05 0 0 0.05 -39 -514)" d="M 3172.51,11115.8 C 3172.51,11115.8 2950.75,11172.2 2950.75,11172.2 C 2950.75,11172.2 2978.47,11140.4 2978.47,11115.8 C 2978.47,11090.6 2950.75,11058.3 2950.75,11058.3 C 2950.75,11058.3 3172.51,11115.8 3172.51,11115.8 C 3172.51,11115.8 3172.51,11115.8 3172.51,11115.8 " /><path stroke="none" fill="#000000" transform="matrix(0.05 0 0 0.05 -39 -514)" d="M 1987.79,10616 L 1998.88,10596.7 L 2252.99,10744 L 2252.73,10756.1 L 2233.07,10756.1 L 1987.79,10616 Z " /><text x="0" y="0" stroke="none" fill="#000000" transform="matrix(0.05 0 0 0.05 83.1058 19.5563)" font-style="normal" font-weight="bold" font-size="180px" font-family="Helvetica" >O</text><path stroke="none" fill="#000000" transform="matrix(0.05 0 0 0.05 -39 -514)" d="M 2263.38,10762 L 2252.73,10756.1 L 2252.99,10744 L 2422.25,10645.4 L 2433.34,10664.6 L 2263.38,10762 Z " /><path stroke="none" fill="#000000" transform="matrix(0.05 0 0 0.05 -39 -514)" d="M 2242.9,10773.1 L 2252.73,10756.1 L 2263.38,10762 L 2263.82,11055.6 L 2241.64,11055.6 L 2242.9,10773.1 Z " /><path stroke="#000000" stroke-width="18" fill="none" transform="matrix(0.05 0 0 0.05 -39 -514)" d="M 2444.22,10419.9 A 68.8704,68.8704 0 1 0 2581.96,10419.9A 68.8704,68.8704 0 1 0 2444.22,10419.9Z " /><path stroke="none" fill="#000000" transform="matrix(0.05 0 0 0.05 -39 -514)" d="M 2472,10410.9 L 2554.18,10410.9 L 2554.18,10428.9 L 2472,10428.9 Z " /><text x="0" y="0" stroke="none" fill="#000000" transform="matrix(0.05 0 0 0.05 96.3153 23.1396)" font-style="normal" font-weight="bold" font-size="200px" font-family="Helvetica" >K</text><path stroke="#000000" stroke-width="18" fill="none" transform="matrix(0.05 0 0 0.05 -39 -514)" d="M 2817.64,10489.7 A 68.8704,68.8704 0 1 0 2955.38,10489.7A 68.8704,68.8704 0 1 0 2817.64,10489.7Z " /><path stroke="none" fill="#000000" transform="matrix(0.05 0 0 0.05 -39 -514)" d="M 2845.43,10480.7 L 2927.6,10480.7 L 2927.6,10498.7 L 2845.43,10498.7 Z " /><path stroke="none" fill="#000000" transform="matrix(0.05 0 0 0.05 -39 -514)" d="M 2895.51,10448.6 L 2895.51,10530.8 L 2877.51,10530.8 L 2877.51,10448.6 Z " /><path stroke="none" fill="#000000" transform="matrix(0.05 0 0 0.05 -39 -514)" d="M 2233.07,10756.1 L 2252.73,10756.1 L 2242.9,10773.1 L 1998.88,10915.5 L 1987.79,10896.3 L 2233.07,10756.1 Z " /><path stroke="none" fill="#000000" transform="matrix(0.05 0 0 0.05 -39 -514)" d="M 823.612,11065.9 L 845.828,11078.7 L 845.828,11365.9 L 823.612,11378.8 L 823.612,11065.9 Z " /><path stroke="none" fill="#000000" transform="matrix(0.05 0 0 0.05 -39 -514)" d="M 823.612,11378.8 L 845.828,11365.9 L 1094.59,11509.6 L 1094.59,11535.2 L 823.612,11378.8 Z " /><path stroke="none" fill="#000000" transform="matrix(0.05 0 0 0.05 -39 -514)" d="M 1094.59,11535.2 L 1094.59,11509.6 L 1343.35,11365.9 L 1365.56,11378.8 L 1094.59,11535.2 Z " /><path stroke="none" fill="#000000" transform="matrix(0.05 0 0 0.05 -39 -514)" d="M 1365.56,11378.8 L 1343.35,11365.9 L 1343.35,11078.7 L 1353.98,11072.6 L 1364.63,11078.4 L 1365.56,11378.8 Z " /><path stroke="none" fill="#000000" transform="matrix(0.05 0 0 0.05 -39 -514)" d="M 1354.22,11060.4 L 1353.98,11072.6 L 1343.35,11078.7 L 1094.59,10935.1 L 1094.59,10909.4 L 1354.22,11060.4 Z " /><path stroke="none" fill="#000000" transform="matrix(0.05 0 0 0.05 -39 -514)" d="M 1094.59,10909.4 L 1094.59,10935.1 L 845.828,11078.7 L 823.612,11065.9 L 1094.59,10909.4 Z " /><text x="0" y="0" stroke="none" fill="#000000" transform="matrix(0.05 0 0 0.05 38.4188 35.3784)" font-style="normal" font-weight="bold" font-size="180px" font-family="Helvetica" >Cl</text><path stroke="none" fill="#000000" transform="matrix(0.05 0 0 0.05 -39 -514)" d="M 1364.63,11078.4 L 1353.98,11072.6 L 1354.22,11060.4 L 1526.34,10960.2 L 1537.43,10979.4 L 1364.63,11078.4 Z " /></svg>