<?xml version="1.0" standalone="no" ?><!DOCTYPE svg PUBLIC "-//W3C//DTD SVG 1.1//EN" "http://www.w3.org/Graphics/SVG/1.1/DTD/svg11.dtd"><svg width="106px" height="54px" viewBox="0 0 106 54" style="background-color: #ffffff00" xmlns="http://www.w3.org/2000/svg" xmlns:xlink="http://www.w3.org/1999/xlink" version="1.1" ><path stroke="none" fill="#000000" transform="matrix(0.05 0 0 0.05 -181 -537)" d="M 3675.4,11295.1 L 3697.62,11307.9 L 3697.62,11593.7 L 3675.4,11606.5 L 3675.4,11295.1 Z " /><path stroke="none" fill="#000000" transform="matrix(0.05 0 0 0.05 -181 -537)" d="M 4214.73,11606.5 L 4192.51,11593.7 L 4192.51,11307.9 L 4214.73,11295.1 L 4214.73,11606.5 Z " /><path stroke="none" fill="#000000" transform="matrix(0.05 0 0 0.05 -181 -537)" d="M 4214.73,11295.1 L 4192.51,11307.9 L 3945.07,11165.1 L 3945.07,11152.8 L 3955.45,11146.5 L 4214.73,11295.1 Z " /><path stroke="none" fill="#000000" transform="matrix(0.05 0 0 0.05 -181 -537)" d="M 3934.69,11146.5 L 3945.07,11152.8 L 3945.07,11165.1 L 3697.62,11307.9 L 3675.4,11295.1 L 3934.69,11146.5 Z " /><text x="0" y="0" stroke="none" fill="#000000" transform="matrix(0.05 0 0 0.05 12.7531 8.97842)" font-style="normal" font-weight="bold" font-size="180px" font-family="Helvetica" >OTs</text><path stroke="none" fill="#000000" transform="matrix(0.05 0 0 0.05 -181 -537)" d="M 3955.45,11146.5 L 3945.07,11152.8 L 3934.69,11146.5 L 3933.98,10955.3 L 3956.15,10955.3 L 3955.45,11146.5 Z " /><path stroke="none" fill="#000000" transform="matrix(0.05 0 0 0.05 -181 -537)" d="M 5496.95,11286.6 L 4437.91,11286.6 L 4437.91,11264.6 L 5496.95,11264.6 Z " /><path stroke="none" fill="#000000" transform="matrix(0.05 0 0 0.05 -181 -537)" d="M 5689.99,11275.6 C 5689.99,11275.6 5468.23,11332 5468.23,11332 C 5468.23,11332 5495.95,11300.3 5495.95,11275.6 C 5495.95,11250.5 5468.23,11218.2 5468.23,11218.2 C 5468.23,11218.2 5689.99,11275.6 5689.99,11275.6 C 5689.99,11275.6 5689.99,11275.6 5689.99,11275.6 " /><path stroke="#000000" stroke-width="1" fill="none" transform="matrix(0.05 0 0 0.05 -181 -537)" d="M 5689.99,11275.6 C 5689.99,11275.6 5468.23,11332 5468.23,11332 C 5468.23,11332 5495.95,11300.3 5495.95,11275.6 C 5495.95,11250.5 5468.23,11218.2 5468.23,11218.2 C 5468.23,11218.2 5689.99,11275.6 5689.99,11275.6 C 5689.99,11275.6 5689.99,11275.6 5689.99,11275.6 " /><path stroke="none" fill="#000000" transform="matrix(0.05 0 0 0.05 -181 -537)" d="M 3675.4,11606.5 L 3697.62,11593.7 L 3945.07,11736.5 L 3945.07,11762.2 L 3675.4,11606.5 Z " /><path stroke="none" fill="#000000" transform="matrix(0.05 0 0 0.05 -181 -537)" d="M 3945.07,11762.2 L 3945.07,11736.5 L 4192.51,11593.7 L 4214.73,11606.5 L 3945.07,11762.2 Z " /><text x="0" y="0" stroke="none" fill="#000000" transform="matrix(0.05 0 0 0.05 54.8813 20.1196)" font-style="normal" font-weight="bold" font-size="200px" font-family="Helvetica" >KO</text><text x="0" y="0" stroke="none" fill="#000000" transform="matrix(0.05 0 0 0.05 69.8813 16.5209)" font-style="normal" font-weight="bold" font-size="150px" font-family="Helvetica" >t</text><text x="0" y="0" stroke="none" fill="#000000" transform="matrix(0.05 0 0 0.05 72.3789 20.1196)" font-style="normal" font-weight="bold" font-size="200px" font-family="Helvetica" >Bu</text></svg>