<?xml version="1.0" standalone="no" ?><!DOCTYPE svg PUBLIC "-//W3C//DTD SVG 1.1//EN" "http://www.w3.org/Graphics/SVG/1.1/DTD/svg11.dtd"><svg width="95px" height="33px" viewBox="0 0 95 33" style="background-color: #ffffff00" xmlns="http://www.w3.org/2000/svg" xmlns:xlink="http://www.w3.org/1999/xlink" version="1.1" ><path stroke="none" fill="#000000" transform="matrix(0.05 0 0 0.05 -308 -537)" d="M 6474.41,11344.4 L 6474.34,11318.7 L 6722.92,11174.2 L 6733.35,11180.5 L 6733.38,11192.8 L 6474.41,11344.4 Z " /><text x="0" y="0" stroke="none" fill="#000000" transform="matrix(0.05 0 0 0.05 25.3761 10.2881)" font-style="normal" font-weight="bold" font-size="180px" font-family="Helvetica" >Br</text><path stroke="none" fill="#000000" transform="matrix(0.05 0 0 0.05 -308 -537)" d="M 6743.74,11174.2 L 6733.35,11180.5 L 6722.92,11174.2 L 6721.69,10975.5 L 6743.87,10975.4 L 6743.74,11174.2 Z " /><path stroke="none" fill="#000000" transform="matrix(0.05 0 0 0.05 -308 -537)" d="M 7814.63,11086.8 L 7168.51,11086.8 L 7168.51,11064.8 L 7814.63,11064.8 Z " /><path stroke="none" fill="#000000" transform="matrix(0.05 0 0 0.05 -308 -537)" d="M 8007.67,11075.8 C 8007.67,11075.8 7785.91,11132.2 7785.91,11132.2 C 7785.91,11132.2 7813.63,11100.5 7813.63,11075.8 C 7813.63,11050.7 7785.91,11018.4 7785.91,11018.4 C 7785.91,11018.4 8007.67,11075.8 8007.67,11075.8 C 8007.67,11075.8 8007.67,11075.8 8007.67,11075.8 " /><path stroke="#000000" stroke-width="1" fill="none" transform="matrix(0.05 0 0 0.05 -308 -537)" d="M 8007.67,11075.8 C 8007.67,11075.8 7785.91,11132.2 7785.91,11132.2 C 7785.91,11132.2 7813.63,11100.5 7813.63,11075.8 C 7813.63,11050.7 7785.91,11018.4 7785.91,11018.4 C 7785.91,11018.4 8007.67,11075.8 8007.67,11075.8 C 8007.67,11075.8 8007.67,11075.8 8007.67,11075.8 " /><path stroke="none" fill="#000000" transform="matrix(0.05 0 0 0.05 -308 -537)" d="M 6733.38,11192.8 L 6733.35,11180.5 L 6743.74,11174.2 L 6998.67,11319.9 L 6987.64,11339.2 L 6733.38,11192.8 Z " /><path stroke="none" fill="#000000" transform="matrix(0.05 0 0 0.05 -308 -537)" d="M 6474.34,11318.7 L 6474.41,11344.4 L 6209.05,11191.6 L 6220.08,11172.3 L 6474.34,11318.7 Z " /><text x="0" y="0" stroke="none" fill="#000000" transform="matrix(0.05 0 0 0.05 58.4173 9.46356)" font-style="normal" font-weight="bold" font-size="200px" font-family="Helvetica" >DBU</text></svg>