<?xml version="1.0" standalone="no" ?><!DOCTYPE svg PUBLIC "-//W3C//DTD SVG 1.1//EN" "http://www.w3.org/Graphics/SVG/1.1/DTD/svg11.dtd"><svg width="131px" height="62px" viewBox="0 0 131 62" style="background-color: #ffffff00" xmlns="http://www.w3.org/2000/svg" xmlns:xlink="http://www.w3.org/1999/xlink" version="1.1" ><path stroke="none" fill="#000000" transform="matrix(0.05 0 0 0.05 -430 -522)" d="M 10339.4,10562.7 L 10350.5,10543.5 L 10604.5,10690.6 L 10604.4,10702.8 L 10584.7,10702.8 L 10339.4,10562.7 Z " /><text x="0" y="0" stroke="none" fill="#000000" transform="matrix(0.05 0 0 0.05 111.938 8.89233)" font-style="normal" font-weight="bold" font-size="180px" font-family="Helvetica" >I</text><path stroke="none" fill="#000000" transform="matrix(0.05 0 0 0.05 -430 -522)" d="M 10615,10708.8 L 10604.4,10702.8 L 10604.5,10690.6 L 10797.3,10578.6 L 10808.4,10597.8 L 10615,10708.8 Z " /><path stroke="none" fill="#000000" transform="matrix(0.05 0 0 0.05 -430 -522)" d="M 10984.8,11100.1 L 10045.6,11100.1 L 10045.6,11078.1 L 10984.8,11078.1 Z " /><path stroke="none" fill="#000000" transform="matrix(0.05 0 0 0.05 -430 -522)" d="M 11177.8,11089.1 C 11177.8,11089.1 10956.1,11145.6 10956.1,11145.6 C 10956.1,11145.6 10983.8,11113.8 10983.8,11089.1 C 10983.8,11064 10956.1,11031.7 10956.1,11031.7 C 10956.1,11031.7 11177.8,11089.1 11177.8,11089.1 C 11177.8,11089.1 11177.8,11089.1 11177.8,11089.1 " /><path stroke="#000000" stroke-width="1" fill="none" transform="matrix(0.05 0 0 0.05 -430 -522)" d="M 11177.8,11089.1 C 11177.8,11089.1 10956.1,11145.6 10956.1,11145.6 C 10956.1,11145.6 10983.8,11113.8 10983.8,11089.1 C 10983.8,11064 10956.1,11031.7 10956.1,11031.7 C 10956.1,11031.7 11177.8,11089.1 11177.8,11089.1 C 11177.8,11089.1 11177.8,11089.1 11177.8,11089.1 " /><path stroke="none" fill="#000000" transform="matrix(0.05 0 0 0.05 -430 -522)" d="M 10594.5,10719.9 L 10604.4,10702.8 L 10615,10708.8 L 10615.5,11002.4 L 10593.3,11002.4 L 10594.5,10719.9 Z " /><text x="0" y="0" stroke="none" fill="#000000" transform="matrix(0.05 0 0 0.05 35.7618 34.8663)" font-style="normal" font-weight="bold" font-size="180px" font-family="Helvetica" >O</text><path stroke="none" fill="#000000" transform="matrix(0.05 0 0 0.05 -430 -522)" d="M 9136.5,11228.2 L 9125.85,11222.3 L 9124.89,11210.7 L 9295.37,11111.6 L 9306.46,11130.8 L 9136.5,11228.2 Z " /><path stroke="none" fill="#000000" transform="matrix(0.05 0 0 0.05 -430 -522)" d="M 9115.33,11230 L 9125.85,11222.3 L 9136.5,11228.2 L 9137.57,11530.3 L 9115.33,11514.2 L 9115.33,11230 Z " /><path stroke="#000000" stroke-width="18" fill="none" transform="matrix(0.05 0 0 0.05 -430 -522)" d="M 9317.34,10886.1 A 68.8704,68.8704 0 1 0 9455.08,10886.1A 68.8704,68.8704 0 1 0 9317.34,10886.1Z " /><path stroke="none" fill="#000000" transform="matrix(0.05 0 0 0.05 -430 -522)" d="M 9345.12,10877.1 L 9427.3,10877.1 L 9427.3,10895.1 L 9345.12,10895.1 Z " /><text x="0" y="0" stroke="none" fill="#000000" transform="matrix(0.05 0 0 0.05 48.3053 34.4536)" font-style="normal" font-weight="bold" font-size="200px" font-family="Helvetica" >Na</text><path stroke="#000000" stroke-width="18" fill="none" transform="matrix(0.05 0 0 0.05 -430 -522)" d="M 9797.32,10889.3 A 68.8704,68.8704 0 1 0 9935.06,10889.3A 68.8704,68.8704 0 1 0 9797.32,10889.3Z " /><path stroke="none" fill="#000000" transform="matrix(0.05 0 0 0.05 -430 -522)" d="M 9825.11,10880.3 L 9907.28,10880.3 L 9907.28,10898.3 L 9825.11,10898.3 Z " /><path stroke="none" fill="#000000" transform="matrix(0.05 0 0 0.05 -430 -522)" d="M 9875.19,10848.2 L 9875.19,10930.4 L 9857.19,10930.4 L 9857.19,10848.2 Z " /><path stroke="none" fill="#000000" transform="matrix(0.05 0 0 0.05 -430 -522)" d="M 9124.89,11210.7 L 9125.85,11222.3 L 9115.33,11230 L 8845.01,11142.1 L 8836.51,11116 L 9124.89,11210.7 Z " /><path stroke="none" fill="#000000" transform="matrix(0.05 0 0 0.05 -430 -522)" d="M 8836.51,11116 L 8845.01,11142.1 L 8677.94,11372.1 L 8650.45,11372.1 L 8836.51,11116 Z " /><path stroke="none" fill="#000000" transform="matrix(0.05 0 0 0.05 -430 -522)" d="M 8650.45,11372.1 L 8677.94,11372.1 L 8845.01,11602 L 8836.51,11628.2 L 8650.45,11372.1 Z " /><path stroke="none" fill="#000000" transform="matrix(0.05 0 0 0.05 -430 -522)" d="M 8836.51,11628.2 L 8845.01,11602 L 9115.33,11514.2 L 9137.57,11530.3 L 8836.51,11628.2 Z " /><path stroke="none" fill="#000000" transform="matrix(0.05 0 0 0.05 -430 -522)" d="M 10584.7,10702.8 L 10604.4,10702.8 L 10594.5,10719.9 L 10350.5,10862.2 L 10339.4,10843 L 10584.7,10702.8 Z " /></svg>