<?xml version="1.0" standalone="no" ?><!DOCTYPE svg PUBLIC "-//W3C//DTD SVG 1.1//EN" "http://www.w3.org/Graphics/SVG/1.1/DTD/svg11.dtd"><svg width="115px" height="48px" viewBox="0 0 115 48" style="background-color: #ffffff00" xmlns="http://www.w3.org/2000/svg" xmlns:xlink="http://www.w3.org/1999/xlink" version="1.1" ><path stroke="none" fill="#000000" transform="matrix(0.05 0 0 0.05 -582 -531)" d="M 11950.8,11288.7 L 11950.8,11263.1 L 12199.1,11119.7 L 12209.8,11125.8 L 12209.8,11138.1 L 11950.8,11288.7 Z " /><path stroke="none" fill="#000000" transform="matrix(0.05 0 0 0.05 -582 -531)" d="M 11956.4,11220.9 L 11945.3,11201.7 L 12148.8,11084.2 L 12159.9,11103.4 L 11956.4,11220.9 Z " /><path stroke="none" fill="#000000" transform="matrix(0.05 0 0 0.05 -582 -531)" d="M 12209.8,11138.1 L 12209.8,11125.8 L 12220.4,11119.7 L 12469,11263.2 L 12468.7,11275.3 L 12454.6,11279.1 L 12209.8,11138.1 Z " /><text x="0" y="0" stroke="none" fill="#000000" transform="matrix(0.05 0 0 0.05 51.1333 28.5303)" font-style="normal" font-weight="bold" font-size="180px" font-family="Helvetica" >Br</text><path stroke="none" fill="#000000" transform="matrix(0.05 0 0 0.05 -582 -531)" d="M 12482.6,11278.7 L 12468.7,11275.3 L 12469,11263.2 L 12629.2,11169.9 L 12640.3,11189.1 L 12482.6,11278.7 Z " /><path stroke="none" fill="#000000" transform="matrix(0.05 0 0 0.05 -582 -531)" d="M 13688.7,11193.4 L 13042.6,11193.4 L 13042.6,11171.4 L 13688.7,11171.4 Z " /><path stroke="none" fill="#000000" transform="matrix(0.05 0 0 0.05 -582 -531)" d="M 13881.8,11182.4 C 13881.8,11182.4 13660,11238.8 13660,11238.8 C 13660,11238.8 13687.7,11207 13687.7,11182.4 C 13687.7,11157.2 13660,11124.9 13660,11124.9 C 13660,11124.9 13881.8,11182.4 13881.8,11182.4 C 13881.8,11182.4 13881.8,11182.4 13881.8,11182.4 " /><path stroke="#000000" stroke-width="1" fill="none" transform="matrix(0.05 0 0 0.05 -582 -531)" d="M 13881.8,11182.4 C 13881.8,11182.4 13660,11238.8 13660,11238.8 C 13660,11238.8 13687.7,11207 13687.7,11182.4 C 13687.7,11157.2 13660,11124.9 13660,11124.9 C 13660,11124.9 13881.8,11182.4 13881.8,11182.4 C 13881.8,11182.4 13881.8,11182.4 13881.8,11182.4 " /><text x="0" y="0" stroke="none" fill="#000000" transform="matrix(0.05 0 0 0.05 74.519 22.3587)" font-style="normal" font-weight="bold" font-size="200px" font-family="Helvetica" >KO</text><text x="0" y="0" stroke="none" fill="#000000" transform="matrix(0.05 0 0 0.05 89.519 18.76)" font-style="normal" font-weight="bold" font-size="150px" font-family="Helvetica" >t</text><text x="0" y="0" stroke="none" fill="#000000" transform="matrix(0.05 0 0 0.05 92.0165 22.3587)" font-style="normal" font-weight="bold" font-size="200px" font-family="Helvetica" >Bu</text><path stroke="none" fill="#000000" transform="matrix(0.05 0 0 0.05 -582 -531)" d="M 12468.7,11295 L 12468.7,11275.3 L 12482.6,11278.7 L 12627.8,11528.7 L 12608.6,11539.8 L 12468.7,11295 Z " /><path stroke="none" fill="#000000" transform="matrix(0.05 0 0 0.05 -582 -531)" d="M 12454.6,11279.1 L 12468.7,11275.3 L 12468.7,11295 L 12328.8,11539.8 L 12309.6,11528.7 L 12454.6,11279.1 Z " /><path stroke="none" fill="#000000" transform="matrix(0.05 0 0 0.05 -582 -531)" d="M 12220.4,11119.7 L 12209.8,11125.8 L 12199.1,11119.7 L 12199.1,10833 L 12221.4,10820.1 L 12220.4,11119.7 Z " /><path stroke="none" fill="#000000" transform="matrix(0.05 0 0 0.05 -582 -531)" d="M 12221.4,10820.1 L 12199.1,10833 L 11950.8,10689.6 L 11950.8,10664 L 12221.4,10820.1 Z " /><path stroke="none" fill="#000000" transform="matrix(0.05 0 0 0.05 -582 -531)" d="M 12159.9,10849.2 L 12148.8,10868.4 L 11945.3,10751 L 11956.4,10731.7 L 12159.9,10849.2 Z " /><path stroke="none" fill="#000000" transform="matrix(0.05 0 0 0.05 -582 -531)" d="M 11950.8,10664 L 11950.8,10689.6 L 11702.5,10833 L 11680.3,10820.1 L 11950.8,10664 Z " /><path stroke="none" fill="#000000" transform="matrix(0.05 0 0 0.05 -582 -531)" d="M 11680.3,10820.1 L 11702.5,10833 L 11702.5,11119.7 L 11680.3,11132.5 L 11680.3,10820.1 Z " /><path stroke="none" fill="#000000" transform="matrix(0.05 0 0 0.05 -582 -531)" d="M 11736.2,10858.8 L 11758.4,10858.8 L 11758.4,11093.8 L 11736.2,11093.8 L 11736.2,10858.8 Z " /><path stroke="none" fill="#000000" transform="matrix(0.05 0 0 0.05 -582 -531)" d="M 11680.3,11132.5 L 11702.5,11119.7 L 11950.8,11263.1 L 11950.8,11288.7 L 11680.3,11132.5 Z " /></svg>