<?xml version="1.0" standalone="no" ?><!DOCTYPE svg PUBLIC "-//W3C//DTD SVG 1.1//EN" "http://www.w3.org/Graphics/SVG/1.1/DTD/svg11.dtd"><svg width="102px" height="39px" viewBox="0 0 102 39" style="background-color: #ffffff00" xmlns="http://www.w3.org/2000/svg" xmlns:xlink="http://www.w3.org/1999/xlink" version="1.1" ><path stroke="none" fill="#000000" transform="matrix(0.05 0 0 0.05 -44 -646)" d="M 935.254,13392.9 L 924.166,13373.7 L 1188.65,13220.4 L 1188.65,13246.1 L 935.254,13392.9 Z " /><path stroke="none" fill="#000000" transform="matrix(0.05 0 0 0.05 -44 -646)" d="M 1188.65,13246.1 L 1188.65,13220.4 L 1447.89,13371.2 L 1447.59,13383.3 L 1433.49,13387.1 L 1188.65,13246.1 Z " /><text x="0" y="0" stroke="none" fill="#000000" transform="matrix(0.05 0 0 0.05 38.077 18.929)" font-style="normal" font-weight="bold" font-size="180px" font-family="Helvetica" >Br</text><path stroke="none" fill="#000000" transform="matrix(0.05 0 0 0.05 -44 -646)" d="M 1461.51,13386.7 L 1447.59,13383.3 L 1447.89,13371.2 L 1608.11,13277.8 L 1619.2,13297 L 1461.51,13386.7 Z " /><path stroke="none" fill="#000000" transform="matrix(0.05 0 0 0.05 -44 -646)" d="M 2667.62,13301.3 L 2021.5,13301.3 L 2021.5,13279.3 L 2667.62,13279.3 Z " /><path stroke="none" fill="#000000" transform="matrix(0.05 0 0 0.05 -44 -646)" d="M 2860.66,13290.3 C 2860.66,13290.3 2638.9,13346.8 2638.9,13346.8 C 2638.9,13346.8 2666.62,13315 2666.62,13290.3 C 2666.62,13265.2 2638.9,13232.9 2638.9,13232.9 C 2638.9,13232.9 2860.66,13290.3 2860.66,13290.3 C 2860.66,13290.3 2860.66,13290.3 2860.66,13290.3 " /><path stroke="#000000" stroke-width="1" fill="none" transform="matrix(0.05 0 0 0.05 -44 -646)" d="M 2860.66,13290.3 C 2860.66,13290.3 2638.9,13346.8 2638.9,13346.8 C 2638.9,13346.8 2666.62,13315 2666.62,13290.3 C 2666.62,13265.2 2638.9,13232.9 2638.9,13232.9 C 2638.9,13232.9 2860.66,13290.3 2860.66,13290.3 C 2860.66,13290.3 2860.66,13290.3 2860.66,13290.3 " /><path stroke="none" fill="#000000" transform="matrix(0.05 0 0 0.05 -44 -646)" d="M 1447.59,13403 L 1447.59,13383.3 L 1461.51,13386.7 L 1606.7,13636.7 L 1587.49,13647.8 L 1447.59,13403 Z " /><text x="0" y="0" stroke="none" fill="#000000" transform="matrix(0.05 0 0 0.05 65.067 9.8582)" font-style="normal" font-weight="bold" font-size="200px" font-family="Helvetica" >H</text><text x="0" y="0" stroke="none" fill="#000000" transform="matrix(0.05 0 0 0.05 72.2886 12.158)" font-style="normal" font-weight="bold" font-size="150px" font-family="Helvetica" >2</text><text x="0" y="0" stroke="none" fill="#000000" transform="matrix(0.05 0 0 0.05 76.4598 9.8582)" font-style="normal" font-weight="bold" font-size="200px" font-family="Helvetica" >O</text><path stroke="none" fill="#000000" transform="matrix(0.05 0 0 0.05 -44 -646)" d="M 1433.49,13387.1 L 1447.59,13383.3 L 1447.59,13403 L 1307.7,13647.8 L 1288.49,13636.7 L 1433.49,13387.1 Z " /><text x="0" y="0" stroke="none" fill="#000000" transform="matrix(0.05 0 0 0.05 65.067 29.8382)" font-style="normal" font-weight="bold" font-size="200px" font-family="Helvetica" >heat</text></svg>