<?xml version="1.0" standalone="no" ?><!DOCTYPE svg PUBLIC "-//W3C//DTD SVG 1.1//EN" "http://www.w3.org/Graphics/SVG/1.1/DTD/svg11.dtd"><svg width="108px" height="61px" viewBox="0 0 108 61" style="background-color: #ffffff00" xmlns="http://www.w3.org/2000/svg" xmlns:xlink="http://www.w3.org/1999/xlink" version="1.1" ><path stroke="none" fill="#000000" transform="matrix(0.05 0 0 0.05 -179 -629)" d="M 3628.64,13280.4 L 3650.86,13293.2 L 3650.86,13580.5 L 3628.64,13593.3 L 3628.64,13280.4 Z " /><path stroke="none" fill="#000000" transform="matrix(0.05 0 0 0.05 -179 -629)" d="M 3628.64,13593.3 L 3650.86,13580.5 L 3899.62,13724.1 L 3899.62,13749.7 L 3628.64,13593.3 Z " /><path stroke="none" fill="#000000" transform="matrix(0.05 0 0 0.05 -179 -629)" d="M 3899.62,13749.7 L 3899.62,13724.1 L 4148.38,13580.5 L 4170.59,13593.3 L 3899.62,13749.7 Z " /><path stroke="none" fill="#000000" transform="matrix(0.05 0 0 0.05 -179 -629)" d="M 4170.59,13593.3 L 4148.38,13580.5 L 4148.38,13293.2 L 4170.59,13280.4 L 4170.59,13593.3 Z " /><path stroke="none" fill="#000000" transform="matrix(0.05 0 0 0.05 -179 -629)" d="M 4170.59,13280.4 L 4148.38,13293.2 L 3899.62,13149.6 L 3899.62,13137.3 L 3910.01,13131 L 4170.59,13280.4 Z " /><path stroke="none" fill="#000000" transform="matrix(0.05 0 0 0.05 -179 -629)" d="M 3889.23,13131 L 3899.62,13137.3 L 3899.62,13149.6 L 3650.86,13293.2 L 3628.64,13280.4 L 3889.23,13131 Z " /><text x="0" y="0" stroke="none" fill="#000000" transform="matrix(0.05 0 0 0.05 12.7312 16.129)" font-style="normal" font-weight="bold" font-size="180px" font-family="Helvetica" >Cl</text><path stroke="none" fill="#000000" transform="matrix(0.05 0 0 0.05 -179 -629)" d="M 3910.01,13131 L 3899.62,13137.3 L 3889.23,13131 L 3888.53,12938 L 3910.71,12938 L 3910.01,13131 Z " /><path stroke="none" fill="#000000" transform="matrix(0.05 0 0 0.05 -179 -629)" d="M 5491.46,13367.9 L 4432.42,13367.9 L 4432.42,13345.9 L 5491.46,13345.9 Z " /><path stroke="none" fill="#000000" transform="matrix(0.05 0 0 0.05 -179 -629)" d="M 5684.5,13356.9 C 5684.5,13356.9 5462.74,13413.4 5462.74,13413.4 C 5462.74,13413.4 5490.46,13381.6 5490.46,13356.9 C 5490.46,13331.8 5462.74,13299.5 5462.74,13299.5 C 5462.74,13299.5 5684.5,13356.9 5684.5,13356.9 C 5684.5,13356.9 5684.5,13356.9 5684.5,13356.9 " /><path stroke="#000000" stroke-width="1" fill="none" transform="matrix(0.05 0 0 0.05 -179 -629)" d="M 5684.5,13356.9 C 5684.5,13356.9 5462.74,13413.4 5462.74,13413.4 C 5462.74,13413.4 5490.46,13381.6 5490.46,13356.9 C 5490.46,13331.8 5462.74,13299.5 5462.74,13299.5 C 5462.74,13299.5 5684.5,13356.9 5684.5,13356.9 C 5684.5,13356.9 5684.5,13356.9 5684.5,13356.9 " /><path stroke="none" fill="#000000" transform="matrix(0.05 0 0 0.05 -179 -629)" d="M 4681.01,13158.7 L 4669.93,13139.5 L 4934.62,12986.1 L 4934.67,13011.7 L 4681.01,13158.7 Z " /><text x="0" y="0" stroke="none" fill="#000000" transform="matrix(0.05 0 0 0.05 77.1674 31.6924)" font-style="normal" font-weight="bold" font-size="180px" font-family="Helvetica" >OH</text><path stroke="none" fill="#000000" transform="matrix(0.05 0 0 0.05 -179 -629)" d="M 4934.67,13011.7 L 4934.62,12986.1 L 5115.77,13091.5 L 5104.68,13110.7 L 4934.67,13011.7 Z " /><text x="0" y="0" stroke="none" fill="#000000" transform="matrix(0.05 0 0 0.05 64.2204 9.26736)" font-style="normal" font-weight="bold" font-size="180px" font-family="Helvetica" >O</text><path stroke="none" fill="#000000" transform="matrix(0.05 0 0 0.05 -179 -629)" d="M 4917.78,13015.6 L 4895.6,13015.6 L 4895.6,12801.1 L 4917.78,12801.1 L 4917.78,13015.6 Z " /><path stroke="none" fill="#000000" transform="matrix(0.05 0 0 0.05 -179 -629)" d="M 4973.22,13015.6 L 4951.04,13015.6 L 4951.04,12801.1 L 4973.22,12801.1 L 4973.22,13015.6 Z " /><text x="0" y="0" stroke="none" fill="#000000" transform="matrix(0.05 0 0 0.05 60.603 48.8362)" font-style="normal" font-weight="bold" font-size="200px" font-family="Helvetica" >heat</text></svg>