<?xml version="1.0" standalone="no" ?><!DOCTYPE svg PUBLIC "-//W3C//DTD SVG 1.1//EN" "http://www.w3.org/Graphics/SVG/1.1/DTD/svg11.dtd"><svg width="109px" height="50px" viewBox="0 0 109 50" style="background-color: #ffffff00" xmlns="http://www.w3.org/2000/svg" xmlns:xlink="http://www.w3.org/1999/xlink" version="1.1" ><path stroke="none" fill="#000000" transform="matrix(0.05 0 0 0.05 -319 -635)" d="M 7669.95,12817.2 L 7681.04,12798 L 7935.14,12945.2 L 7934.88,12957.3 L 7924.25,12963.5 L 7669.95,12817.2 Z " /><text x="0" y="0" stroke="none" fill="#000000" transform="matrix(0.05 0 0 0.05 87.2135 8.61696)" font-style="normal" font-weight="bold" font-size="180px" font-family="Helvetica" >OH</text><path stroke="none" fill="#000000" transform="matrix(0.05 0 0 0.05 -319 -635)" d="M 7945.54,12963.2 L 7934.88,12957.3 L 7935.14,12945.2 L 8104.4,12846.6 L 8115.49,12865.9 L 7945.54,12963.2 Z " /><path stroke="none" fill="#000000" transform="matrix(0.05 0 0 0.05 -319 -635)" d="M 8315.3,13354.6 L 7376.14,13354.6 L 7376.14,13332.6 L 8315.3,13332.6 Z " /><path stroke="none" fill="#000000" transform="matrix(0.05 0 0 0.05 -319 -635)" d="M 8508.34,13343.6 C 8508.34,13343.6 8286.58,13400 8286.58,13400 C 8286.58,13400 8314.3,13368.3 8314.3,13343.6 C 8314.3,13318.5 8286.58,13286.2 8286.58,13286.2 C 8286.58,13286.2 8508.34,13343.6 8508.34,13343.6 C 8508.34,13343.6 8508.34,13343.6 8508.34,13343.6 " /><path stroke="#000000" stroke-width="1" fill="none" transform="matrix(0.05 0 0 0.05 -319 -635)" d="M 8508.34,13343.6 C 8508.34,13343.6 8286.58,13400 8286.58,13400 C 8286.58,13400 8314.3,13368.3 8314.3,13343.6 C 8314.3,13318.5 8286.58,13286.2 8286.58,13286.2 C 8286.58,13286.2 8508.34,13343.6 8508.34,13343.6 C 8508.34,13343.6 8508.34,13343.6 8508.34,13343.6 " /><path stroke="none" fill="#000000" transform="matrix(0.05 0 0 0.05 -319 -635)" d="M 7924.25,12963.5 L 7934.88,12957.3 L 7945.54,12963.2 L 7945.97,13256.8 L 7923.79,13256.8 L 7924.25,12963.5 Z " /><text x="0" y="0" stroke="none" fill="#000000" transform="matrix(0.05 0 0 0.05 37.5155 22.603)" font-style="normal" font-weight="bold" font-size="180px" font-family="Helvetica" >I</text><path stroke="none" fill="#000000" transform="matrix(0.05 0 0 0.05 -319 -635)" d="M 6906.57,13243 L 6895.92,13237 L 6894.86,13225.4 L 7089.62,13112.4 L 7100.7,13131.6 L 6906.57,13243 Z " /><path stroke="none" fill="#000000" transform="matrix(0.05 0 0 0.05 -319 -635)" d="M 6885.4,13244.7 L 6895.92,13237 L 6906.57,13243 L 6907.64,13545.1 L 6885.4,13528.9 L 6885.4,13244.7 Z " /><path stroke="none" fill="#000000" transform="matrix(0.05 0 0 0.05 -319 -635)" d="M 6894.86,13225.4 L 6895.92,13237 L 6885.4,13244.7 L 6615.08,13156.9 L 6606.59,13130.7 L 6894.86,13225.4 Z " /><path stroke="none" fill="#000000" transform="matrix(0.05 0 0 0.05 -319 -635)" d="M 6606.59,13130.7 L 6615.08,13156.9 L 6448.01,13386.8 L 6420.52,13386.8 L 6606.59,13130.7 Z " /><path stroke="none" fill="#000000" transform="matrix(0.05 0 0 0.05 -319 -635)" d="M 6420.52,13386.8 L 6448.01,13386.8 L 6615.08,13616.8 L 6606.59,13642.9 L 6420.52,13386.8 Z " /><path stroke="none" fill="#000000" transform="matrix(0.05 0 0 0.05 -319 -635)" d="M 6606.59,13642.9 L 6615.08,13616.8 L 6885.4,13528.9 L 6907.64,13545.1 L 6606.59,13642.9 Z " /><text x="0" y="0" stroke="none" fill="#000000" transform="matrix(0.05 0 0 0.05 64.459 44.8342)" font-style="normal" font-weight="bold" font-size="200px" font-family="Helvetica" >heat</text></svg>