<?xml version="1.0" standalone="no" ?><!DOCTYPE svg PUBLIC "-//W3C//DTD SVG 1.1//EN" "http://www.w3.org/Graphics/SVG/1.1/DTD/svg11.dtd"><svg width="109px" height="52px" viewBox="0 0 109 52" style="background-color: #ffffff00" xmlns="http://www.w3.org/2000/svg" xmlns:xlink="http://www.w3.org/1999/xlink" version="1.1" ><path stroke="none" fill="#000000" transform="matrix(0.05 0 0 0.05 -463 -633)" d="M 9316.73,13173.6 L 9338.95,13186.4 L 9338.95,13473.1 L 9316.73,13486 L 9316.73,13173.6 Z " /><path stroke="none" fill="#000000" transform="matrix(0.05 0 0 0.05 -463 -633)" d="M 9316.73,13486 L 9338.95,13473.1 L 9587.26,13616.5 L 9587.26,13642.1 L 9316.73,13486 Z " /><path stroke="none" fill="#000000" transform="matrix(0.05 0 0 0.05 -463 -633)" d="M 9587.26,13642.1 L 9587.26,13616.5 L 9835.57,13473.1 L 9857.79,13486 L 9587.26,13642.1 Z " /><path stroke="none" fill="#000000" transform="matrix(0.05 0 0 0.05 -463 -633)" d="M 9857.79,13486 L 9835.57,13473.1 L 9835.57,13186.4 L 9857.79,13173.6 L 9857.79,13486 Z " /><path stroke="none" fill="#000000" transform="matrix(0.05 0 0 0.05 -463 -633)" d="M 9857.79,13173.6 L 9835.57,13186.4 L 9587.26,13043 L 9587.26,13030.8 L 9601.03,13026.8 L 9857.79,13173.6 Z " /><path stroke="none" fill="#000000" transform="matrix(0.05 0 0 0.05 -463 -633)" d="M 9573.16,13027 L 9587.26,13030.8 L 9587.26,13043 L 9338.95,13186.4 L 9316.73,13173.6 L 9573.16,13027 Z " /><text x="0" y="0" stroke="none" fill="#000000" transform="matrix(0.05 0 0 0.05 20.3378 8.8299)" font-style="normal" font-weight="bold" font-size="180px" font-family="Helvetica" >OTs</text><path stroke="none" fill="#000000" transform="matrix(0.05 0 0 0.05 -463 -633)" d="M 9601.03,13026.8 L 9587.26,13030.8 L 9587.64,13011.7 L 9676.44,12854.1 L 9695.64,12865.2 L 9601.03,13026.8 Z " /><path stroke="none" fill="#000000" transform="matrix(0.05 0 0 0.05 -463 -633)" d="M 11205.7,13221.4 L 10146.7,13221.4 L 10146.7,13199.4 L 11205.7,13199.4 Z " /><path stroke="none" fill="#000000" transform="matrix(0.05 0 0 0.05 -463 -633)" d="M 11398.8,13210.4 C 11398.8,13210.4 11177,13266.8 11177,13266.8 C 11177,13266.8 11204.7,13235.1 11204.7,13210.4 C 11204.7,13185.3 11177,13153 11177,13153 C 11177,13153 11398.8,13210.4 11398.8,13210.4 C 11398.8,13210.4 11398.8,13210.4 11398.8,13210.4 " /><path stroke="#000000" stroke-width="1" fill="none" transform="matrix(0.05 0 0 0.05 -463 -633)" d="M 11398.8,13210.4 C 11398.8,13210.4 11177,13266.8 11177,13266.8 C 11177,13266.8 11204.7,13235.1 11204.7,13210.4 C 11204.7,13185.3 11177,13153 11177,13153 C 11177,13153 11398.8,13210.4 11398.8,13210.4 C 11398.8,13210.4 11398.8,13210.4 11398.8,13210.4 " /><path stroke="none" fill="#000000" transform="matrix(0.05 0 0 0.05 -463 -633)" d="M 9587.64,13011.7 L 9587.26,13030.8 L 9573.16,13027 L 9428.16,12777.4 L 9447.36,12766.3 L 9587.64,13011.7 Z " /><text x="0" y="0" stroke="none" fill="#000000" transform="matrix(0.05 0 0 0.05 61.651 20.8602)" font-style="normal" font-weight="bold" font-size="200px" font-family="Helvetica" >H</text><text x="0" y="0" stroke="none" fill="#000000" transform="matrix(0.05 0 0 0.05 68.8726 23.16)" font-style="normal" font-weight="bold" font-size="150px" font-family="Helvetica" >2</text><text x="0" y="0" stroke="none" fill="#000000" transform="matrix(0.05 0 0 0.05 73.0438 20.8602)" font-style="normal" font-weight="bold" font-size="200px" font-family="Helvetica" >O</text><text x="0" y="0" stroke="none" fill="#000000" transform="matrix(0.05 0 0 0.05 62.317 38.8422)" font-style="normal" font-weight="bold" font-size="200px" font-family="Helvetica" >heat</text></svg>