<?xml version="1.0" standalone="no" ?><!DOCTYPE svg PUBLIC "-//W3C//DTD SVG 1.1//EN" "http://www.w3.org/Graphics/SVG/1.1/DTD/svg11.dtd"><svg width="111px" height="56px" viewBox="0 0 111 56" style="background-color: #ffffff00" xmlns="http://www.w3.org/2000/svg" xmlns:xlink="http://www.w3.org/1999/xlink" version="1.1" ><path stroke="none" fill="#000000" transform="matrix(0.05 0 0 0.05 -617 -624)" d="M 12677.5,13261.4 L 12687.3,13244.4 L 12697.6,13254.7 L 12698.4,13542.4 L 12676.2,13542.4 L 12677.5,13261.4 Z " /><path stroke="none" fill="#000000" transform="matrix(0.05 0 0 0.05 -617 -624)" d="M 12673.5,13240.5 L 12687.3,13244.4 L 12677.5,13261.4 L 12434.8,13403 L 12423.7,13383.8 L 12673.5,13240.5 Z " /><path stroke="none" fill="#000000" transform="matrix(0.05 0 0 0.05 -617 -624)" d="M 12693.2,13233.8 L 12687.3,13244.4 L 12673.5,13240.5 L 12571.9,13066.7 L 12591.1,13055.7 L 12693.2,13233.8 Z " /><text x="0" y="0" stroke="none" fill="#000000" transform="matrix(0.05 0 0 0.05 1.66391 28.5563)" font-style="normal" font-weight="bold" font-size="180px" font-family="Helvetica" >Br</text><path stroke="none" fill="#000000" transform="matrix(0.05 0 0 0.05 -617 -624)" d="M 12979.2,13233.8 L 12985.3,13244.4 L 12979.2,13255.1 L 12697.6,13254.7 L 12687.3,13244.4 L 12693.2,13233.8 L 12979.2,13233.8 Z " /><path stroke="none" fill="#000000" transform="matrix(0.05 0 0 0.05 -617 -624)" d="M 14309.3,13221.4 L 13343.5,13221.4 L 13343.5,13199.4 L 14309.3,13199.4 Z " /><path stroke="none" fill="#000000" transform="matrix(0.05 0 0 0.05 -617 -624)" d="M 14502.3,13210.4 C 14502.3,13210.4 14280.6,13266.8 14280.6,13266.8 C 14280.6,13266.8 14308.3,13235.1 14308.3,13210.4 C 14308.3,13185.3 14280.6,13153 14280.6,13153 C 14280.6,13153 14502.3,13210.4 14502.3,13210.4 C 14502.3,13210.4 14502.3,13210.4 14502.3,13210.4 " /><path stroke="#000000" stroke-width="1" fill="none" transform="matrix(0.05 0 0 0.05 -617 -624)" d="M 14502.3,13210.4 C 14502.3,13210.4 14280.6,13266.8 14280.6,13266.8 C 14280.6,13266.8 14308.3,13235.1 14308.3,13210.4 C 14308.3,13185.3 14280.6,13153 14280.6,13153 C 14280.6,13153 14502.3,13210.4 14502.3,13210.4 C 14502.3,13210.4 14502.3,13210.4 14502.3,13210.4 " /><path stroke="none" fill="#000000" transform="matrix(0.05 0 0 0.05 -617 -624)" d="M 13143.9,13497 L 13124.7,13508 L 12979.2,13255.1 L 12985.3,13244.4 L 12997.6,13244.4 L 13143.9,13497 Z " /><text x="0" y="0" stroke="none" fill="#000000" transform="matrix(0.05 0 0 0.05 66.159 49.8402)" font-style="normal" font-weight="bold" font-size="200px" font-family="Helvetica" >heat</text><path stroke="none" fill="#000000" transform="matrix(0.05 0 0 0.05 -617 -624)" d="M 12997.6,13244.4 L 12985.3,13244.4 L 12979.2,13233.8 L 13124.7,12980.8 L 13143.9,12991.9 L 12997.6,13244.4 Z " /><path stroke="none" fill="#000000" transform="matrix(0.05 0 0 0.05 -617 -624)" d="M 13552.1,13052.1 L 13541,13032.9 L 13805.7,12879.5 L 13805.8,12905.2 L 13552.1,13052.1 Z " /><text x="0" y="0" stroke="none" fill="#000000" transform="matrix(0.05 0 0 0.05 82.7234 31.3643)" font-style="normal" font-weight="bold" font-size="180px" font-family="Helvetica" >OH</text><path stroke="none" fill="#000000" transform="matrix(0.05 0 0 0.05 -617 -624)" d="M 13805.8,12905.2 L 13805.7,12879.5 L 13986.9,12984.9 L 13975.8,13004.1 L 13805.8,12905.2 Z " /><text x="0" y="0" stroke="none" fill="#000000" transform="matrix(0.05 0 0 0.05 69.7764 8.93936)" font-style="normal" font-weight="bold" font-size="180px" font-family="Helvetica" >O</text><path stroke="none" fill="#000000" transform="matrix(0.05 0 0 0.05 -617 -624)" d="M 13788.9,12909 L 13766.7,12909 L 13766.7,12694.5 L 13788.9,12694.5 L 13788.9,12909 Z " /><path stroke="none" fill="#000000" transform="matrix(0.05 0 0 0.05 -617 -624)" d="M 13844.3,12909 L 13822.2,12909 L 13822.2,12694.5 L 13844.3,12694.5 L 13844.3,12909 Z " /></svg>