<?xml version="1.0" standalone="no" ?><!DOCTYPE svg PUBLIC "-//W3C//DTD SVG 1.1//EN" "http://www.w3.org/Graphics/SVG/1.1/DTD/svg11.dtd"><svg width="109px" height="48px" viewBox="0 0 109 48" style="background-color: #ffffff00" xmlns="http://www.w3.org/2000/svg" xmlns:xlink="http://www.w3.org/1999/xlink" version="1.1" ><path stroke="none" fill="#000000" transform="matrix(0.05 0 0 0.05 -34 -713)" d="M 1246.37,15004.8 L 1268.58,15017.7 L 1004.47,15169.6 L 993.379,15150.4 L 1246.37,15004.8 Z " /><path stroke="none" fill="#000000" transform="matrix(0.05 0 0 0.05 -34 -713)" d="M 998.923,14550.6 L 998.923,14576.2 L 746.391,14722.6 L 735.303,14703.4 L 998.923,14550.6 Z " /><path stroke="none" fill="#000000" transform="matrix(0.05 0 0 0.05 -34 -713)" d="M 1246.37,14719.1 L 1257,14713 L 1267.63,14719.1 L 1268.58,15017.7 L 1246.37,15004.8 L 1246.37,14719.1 Z " /><path stroke="none" fill="#000000" transform="matrix(0.05 0 0 0.05 -34 -713)" d="M 1247.73,14696.2 L 1257,14713 L 1246.37,14719.1 L 998.923,14576.2 L 998.923,14550.6 L 1247.73,14696.2 Z " /><path stroke="none" fill="#000000" transform="matrix(0.05 0 0 0.05 -34 -713)" d="M 2614.34,14620 L 1968.22,14620 L 1968.22,14598 L 2614.34,14598 Z " /><path stroke="none" fill="#000000" transform="matrix(0.05 0 0 0.05 -34 -713)" d="M 2807.38,14609 C 2807.38,14609 2585.62,14665.4 2585.62,14665.4 C 2585.62,14665.4 2613.34,14633.7 2613.34,14609 C 2613.34,14583.9 2585.62,14551.6 2585.62,14551.6 C 2585.62,14551.6 2807.38,14609 2807.38,14609 C 2807.38,14609 2807.38,14609 2807.38,14609 " /><path stroke="#000000" stroke-width="1" fill="none" transform="matrix(0.05 0 0 0.05 -34 -713)" d="M 2807.38,14609 C 2807.38,14609 2585.62,14665.4 2585.62,14665.4 C 2585.62,14665.4 2613.34,14633.7 2613.34,14609 C 2613.34,14583.9 2585.62,14551.6 2585.62,14551.6 C 2585.62,14551.6 2807.38,14609 2807.38,14609 C 2807.38,14609 2807.38,14609 2807.38,14609 " /><text x="0" y="0" stroke="none" fill="#000000" transform="matrix(0.05 0 0 0.05 70.0148 9.45819)" font-style="normal" font-weight="bold" font-size="200px" font-family="Helvetica" >EtOH</text><path stroke="none" fill="#000000" transform="matrix(0.05 0 0 0.05 -34 -713)" d="M 1266.26,14696.2 L 1257,14713 L 1247.73,14696.2 L 1245.91,14509.4 L 1268.09,14509.4 L 1266.26,14696.2 Z " /><text x="0" y="0" stroke="none" fill="#000000" transform="matrix(0.05 0 0 0.05 27.5997 10.9873)" font-style="normal" font-weight="bold" font-size="180px" font-family="Helvetica" >I</text><path stroke="none" fill="#000000" transform="matrix(0.05 0 0 0.05 -34 -713)" d="M 1515.07,14550.6 L 1515.07,14576.2 L 1267.63,14719.1 L 1257,14713 L 1266.26,14696.2 L 1515.07,14550.6 Z " /><path stroke="none" fill="#000000" transform="matrix(0.05 0 0 0.05 -34 -713)" d="M 1778.69,14703.4 L 1767.61,14722.6 L 1515.07,14576.2 L 1515.07,14550.6 L 1778.69,14703.4 Z " /><text x="0" y="0" stroke="none" fill="#000000" transform="matrix(0.05 0 0 0.05 73.735 28.1062)" font-style="normal" font-weight="bold" font-size="200px" font-family="Helvetica" >heat</text></svg>