<?xml version="1.0" standalone="no" ?><!DOCTYPE svg PUBLIC "-//W3C//DTD SVG 1.1//EN" "http://www.w3.org/Graphics/SVG/1.1/DTD/svg11.dtd"><svg width="95px" height="37px" viewBox="0 0 95 37" style="background-color: #ffffff00" xmlns="http://www.w3.org/2000/svg" xmlns:xlink="http://www.w3.org/1999/xlink" version="1.1" ><path stroke="none" fill="#000000" transform="matrix(0.05 0 0 0.05 -198 -721)" d="M 4296.96,14816.5 L 4307.28,14806.2 L 4317.62,14816.2 L 4318.37,15103.2 L 4296.19,15103.2 L 4296.96,14816.5 Z " /><path stroke="none" fill="#000000" transform="matrix(0.05 0 0 0.05 -198 -721)" d="M 4296.96,14795.9 L 4307.28,14806.2 L 4296.96,14816.5 L 4010.28,14817.3 L 4010.28,14795.1 L 4296.96,14795.9 Z " /><path stroke="none" fill="#000000" transform="matrix(0.05 0 0 0.05 -198 -721)" d="M 4317.62,14816.2 L 4307.28,14806.2 L 4317.62,14796.2 L 4522.19,14795.1 L 4522.19,14817.3 L 4317.62,14816.2 Z " /><text x="0" y="0" stroke="none" fill="#000000" transform="matrix(0.05 0 0 0.05 28.9642 22.5493)" font-style="normal" font-weight="bold" font-size="180px" font-family="Helvetica" >Br</text><path stroke="none" fill="#000000" transform="matrix(0.05 0 0 0.05 -198 -721)" d="M 4296.19,14509.2 L 4318.37,14509.2 L 4317.62,14796.2 L 4307.28,14806.2 L 4296.96,14795.9 L 4296.19,14509.2 Z " /><path stroke="none" fill="#000000" transform="matrix(0.05 0 0 0.05 -198 -721)" d="M 5624.66,14806.5 L 4978.54,14806.5 L 4978.54,14784.5 L 5624.66,14784.5 Z " /><path stroke="none" fill="#000000" transform="matrix(0.05 0 0 0.05 -198 -721)" d="M 5817.7,14795.5 C 5817.7,14795.5 5595.94,14851.9 5595.94,14851.9 C 5595.94,14851.9 5623.66,14820.2 5623.66,14795.5 C 5623.66,14770.4 5595.94,14738 5595.94,14738 C 5595.94,14738 5817.7,14795.5 5817.7,14795.5 C 5817.7,14795.5 5817.7,14795.5 5817.7,14795.5 " /><path stroke="#000000" stroke-width="1" fill="none" transform="matrix(0.05 0 0 0.05 -198 -721)" d="M 5817.7,14795.5 C 5817.7,14795.5 5595.94,14851.9 5595.94,14851.9 C 5595.94,14851.9 5623.66,14820.2 5623.66,14795.5 C 5623.66,14770.4 5595.94,14738 5595.94,14738 C 5595.94,14738 5817.7,14795.5 5817.7,14795.5 C 5817.7,14795.5 5817.7,14795.5 5817.7,14795.5 " /><text x="0" y="0" stroke="none" fill="#000000" transform="matrix(0.05 0 0 0.05 56.2549 10.1162)" font-style="normal" font-weight="bold" font-size="200px" font-family="Helvetica" >CH</text><text x="0" y="0" stroke="none" fill="#000000" transform="matrix(0.05 0 0 0.05 70.6983 12.416)" font-style="normal" font-weight="bold" font-size="150px" font-family="Helvetica" >3</text><text x="0" y="0" stroke="none" fill="#000000" transform="matrix(0.05 0 0 0.05 74.8694 10.1162)" font-style="normal" font-weight="bold" font-size="200px" font-family="Helvetica" >OH</text><text x="0" y="0" stroke="none" fill="#000000" transform="matrix(0.05 0 0 0.05 60.251 30.0962)" font-style="normal" font-weight="bold" font-size="200px" font-family="Helvetica" >heat</text></svg>