<?xml version="1.0" standalone="no" ?><!DOCTYPE svg PUBLIC "-//W3C//DTD SVG 1.1//EN" "http://www.w3.org/Graphics/SVG/1.1/DTD/svg11.dtd"><svg width="110px" height="42px" viewBox="0 0 110 42" style="background-color: #ffffff00" xmlns="http://www.w3.org/2000/svg" xmlns:xlink="http://www.w3.org/1999/xlink" version="1.1" ><path stroke="none" fill="#000000" transform="matrix(0.05 0 0 0.05 -320 -718)" d="M 7683.27,14508.8 L 7694.36,14489.6 L 7948.46,14636.8 L 7948.41,14662.5 L 7683.27,14508.8 Z " /><text x="0" y="0" stroke="none" fill="#000000" transform="matrix(0.05 0 0 0.05 86.8795 10.199)" font-style="normal" font-weight="bold" font-size="180px" font-family="Helvetica" >OH</text><path stroke="none" fill="#000000" transform="matrix(0.05 0 0 0.05 -320 -718)" d="M 7948.41,14662.5 L 7948.46,14636.8 L 8117.72,14538.3 L 8128.81,14557.5 L 7948.41,14662.5 Z " /><path stroke="none" fill="#000000" transform="matrix(0.05 0 0 0.05 -320 -718)" d="M 8355.26,14859.8 L 7416.1,14859.8 L 7416.1,14837.8 L 8355.26,14837.8 Z " /><path stroke="none" fill="#000000" transform="matrix(0.05 0 0 0.05 -320 -718)" d="M 8548.3,14848.8 C 8548.3,14848.8 8326.54,14905.2 8326.54,14905.2 C 8326.54,14905.2 8354.26,14873.5 8354.26,14848.8 C 8354.26,14823.6 8326.54,14791.3 8326.54,14791.3 C 8326.54,14791.3 8548.3,14848.8 8548.3,14848.8 C 8548.3,14848.8 8548.3,14848.8 8548.3,14848.8 " /><path stroke="#000000" stroke-width="1" fill="none" transform="matrix(0.05 0 0 0.05 -320 -718)" d="M 8548.3,14848.8 C 8548.3,14848.8 8326.54,14905.2 8326.54,14905.2 C 8326.54,14905.2 8354.26,14873.5 8354.26,14848.8 C 8354.26,14823.6 8326.54,14791.3 8326.54,14791.3 C 8326.54,14791.3 8548.3,14848.8 8548.3,14848.8 C 8548.3,14848.8 8548.3,14848.8 8548.3,14848.8 " /><text x="0" y="0" stroke="none" fill="#000000" transform="matrix(0.05 0 0 0.05 32.3659 9.37936)" font-style="normal" font-weight="bold" font-size="180px" font-family="Helvetica" >I</text><path stroke="none" fill="#000000" transform="matrix(0.05 0 0 0.05 -320 -718)" d="M 6937.5,14735.7 L 6922.56,14742.2 L 6918.03,14729.7 L 7016.44,14557.4 L 7035.64,14568.5 L 6937.5,14735.7 Z " /><path stroke="none" fill="#000000" transform="matrix(0.05 0 0 0.05 -320 -718)" d="M 6912.04,14749.8 L 6922.56,14742.2 L 6932.67,14755.4 L 6934.28,15050.2 L 6912.04,15034.1 L 6912.04,14749.8 Z " /><path stroke="none" fill="#000000" transform="matrix(0.05 0 0 0.05 -320 -718)" d="M 6918.03,14729.7 L 6922.56,14742.2 L 6912.04,14749.8 L 6641.72,14662 L 6633.23,14635.9 L 6918.03,14729.7 Z " /><path stroke="none" fill="#000000" transform="matrix(0.05 0 0 0.05 -320 -718)" d="M 6633.23,14635.9 L 6641.72,14662 L 6474.65,14892 L 6447.16,14892 L 6633.23,14635.9 Z " /><path stroke="none" fill="#000000" transform="matrix(0.05 0 0 0.05 -320 -718)" d="M 6447.16,14892 L 6474.65,14892 L 6641.72,15121.9 L 6633.23,15148.1 L 6447.16,14892 Z " /><path stroke="none" fill="#000000" transform="matrix(0.05 0 0 0.05 -320 -718)" d="M 6633.23,15148.1 L 6641.72,15121.9 L 6912.04,15034.1 L 6934.28,15050.2 L 6633.23,15148.1 Z " /><text x="0" y="0" stroke="none" fill="#000000" transform="matrix(0.05 0 0 0.05 65.457 37.0922)" font-style="normal" font-weight="bold" font-size="200px" font-family="Helvetica" >heat</text><path stroke="none" fill="#000000" transform="matrix(0.05 0 0 0.05 -320 -718)" d="M 6932.67,14755.4 L 6922.56,14742.2 L 6937.5,14735.7 L 7214.75,14809 L 7209.01,14830.4 L 6932.67,14755.4 Z " /></svg>