<?xml version="1.0" standalone="no" ?><!DOCTYPE svg PUBLIC "-//W3C//DTD SVG 1.1//EN" "http://www.w3.org/Graphics/SVG/1.1/DTD/svg11.dtd"><svg width="108px" height="43px" viewBox="0 0 108 43" style="background-color: #ffffff00" xmlns="http://www.w3.org/2000/svg" xmlns:xlink="http://www.w3.org/1999/xlink" version="1.1" ><path stroke="none" fill="#000000" transform="matrix(0.05 0 0 0.05 -462 -717)" d="M 9817.33,15157.6 L 9795.15,15157.6 L 9795.61,14864.7 L 9817.83,14851.9 L 9817.33,15157.6 Z " /><path stroke="none" fill="#000000" transform="matrix(0.05 0 0 0.05 -462 -717)" d="M 9817.83,14851.9 L 9795.61,14864.7 L 9547.3,14721.4 L 9547.3,14709.1 L 9561.02,14705 L 9817.83,14851.9 Z " /><path stroke="none" fill="#000000" transform="matrix(0.05 0 0 0.05 -462 -717)" d="M 9533.2,14705.3 L 9547.3,14709.1 L 9547.3,14721.4 L 9293.9,14868.2 L 9282.81,14849 L 9533.2,14705.3 Z " /><text x="0" y="0" stroke="none" fill="#000000" transform="matrix(0.05 0 0 0.05 19.5902 8.7459)" font-style="normal" font-weight="bold" font-size="180px" font-family="Helvetica" >Br</text><path stroke="none" fill="#000000" transform="matrix(0.05 0 0 0.05 -462 -717)" d="M 9561.02,14705 L 9547.3,14709.1 L 9547.75,14690.1 L 9631.31,14541.4 L 9650.51,14552.5 L 9561.02,14705 Z " /><path stroke="none" fill="#000000" transform="matrix(0.05 0 0 0.05 -462 -717)" d="M 11165.8,14899.7 L 10106.7,14899.7 L 10106.7,14877.7 L 11165.8,14877.7 Z " /><path stroke="none" fill="#000000" transform="matrix(0.05 0 0 0.05 -462 -717)" d="M 11358.8,14888.7 C 11358.8,14888.7 11137.1,14945.2 11137.1,14945.2 C 11137.1,14945.2 11164.8,14913.4 11164.8,14888.7 C 11164.8,14863.6 11137.1,14831.3 11137.1,14831.3 C 11137.1,14831.3 11358.8,14888.7 11358.8,14888.7 C 11358.8,14888.7 11358.8,14888.7 11358.8,14888.7 " /><path stroke="#000000" stroke-width="1" fill="none" transform="matrix(0.05 0 0 0.05 -462 -717)" d="M 11358.8,14888.7 C 11358.8,14888.7 11137.1,14945.2 11137.1,14945.2 C 11137.1,14945.2 11164.8,14913.4 11164.8,14888.7 C 11164.8,14863.6 11137.1,14831.3 11137.1,14831.3 C 11137.1,14831.3 11358.8,14888.7 11358.8,14888.7 C 11358.8,14888.7 11358.8,14888.7 11358.8,14888.7 " /><path stroke="none" fill="#000000" transform="matrix(0.05 0 0 0.05 -462 -717)" d="M 9547.75,14690.1 L 9547.3,14709.1 L 9533.2,14705.3 L 9388.2,14455.7 L 9407.4,14444.6 L 9547.75,14690.1 Z " /><text x="0" y="0" stroke="none" fill="#000000" transform="matrix(0.05 0 0 0.05 55.991 20.1102)" font-style="normal" font-weight="bold" font-size="200px" font-family="Helvetica" >CH</text><text x="0" y="0" stroke="none" fill="#000000" transform="matrix(0.05 0 0 0.05 70.4343 22.41)" font-style="normal" font-weight="bold" font-size="150px" font-family="Helvetica" >3</text><text x="0" y="0" stroke="none" fill="#000000" transform="matrix(0.05 0 0 0.05 74.6055 20.1102)" font-style="normal" font-weight="bold" font-size="200px" font-family="Helvetica" >OH</text><text x="0" y="0" stroke="none" fill="#000000" transform="matrix(0.05 0 0 0.05 59.987 40.0902)" font-style="normal" font-weight="bold" font-size="200px" font-family="Helvetica" >heat</text></svg>