<?xml version="1.0" standalone="no" ?><!DOCTYPE svg PUBLIC "-//W3C//DTD SVG 1.1//EN" "http://www.w3.org/Graphics/SVG/1.1/DTD/svg11.dtd"><svg width="109px" height="44px" viewBox="0 0 109 44" style="background-color: #ffffff00" xmlns="http://www.w3.org/2000/svg" xmlns:xlink="http://www.w3.org/1999/xlink" version="1.1" ><path stroke="none" fill="#000000" transform="matrix(0.05 0 0 0.05 -615 -711)" d="M 12894.2,15051 L 12872.1,15051 L 12872.5,14758.2 L 12894.7,14745.3 L 12894.2,15051 Z " /><path stroke="none" fill="#000000" transform="matrix(0.05 0 0 0.05 -615 -711)" d="M 12894.7,14745.3 L 12872.5,14758.2 L 12624.2,14614.8 L 12624.2,14602.5 L 12638,14598.5 L 12894.7,14745.3 Z " /><path stroke="none" fill="#000000" transform="matrix(0.05 0 0 0.05 -615 -711)" d="M 12610.1,14598.7 L 12624.2,14602.5 L 12624.2,14614.8 L 12370.8,14761.6 L 12359.7,14742.4 L 12610.1,14598.7 Z " /><text x="0" y="0" stroke="none" fill="#000000" transform="matrix(0.05 0 0 0.05 20.4362 9.41788)" font-style="normal" font-weight="bold" font-size="180px" font-family="Helvetica" >Cl</text><path stroke="none" fill="#000000" transform="matrix(0.05 0 0 0.05 -615 -711)" d="M 12638,14598.5 L 12624.2,14602.5 L 12624.6,14583.4 L 12714.5,14424 L 12733.7,14435.1 L 12638,14598.5 Z " /><path stroke="none" fill="#000000" transform="matrix(0.05 0 0 0.05 -615 -711)" d="M 14242.7,14793.2 L 13183.7,14793.2 L 13183.7,14771.2 L 14242.7,14771.2 Z " /><path stroke="none" fill="#000000" transform="matrix(0.05 0 0 0.05 -615 -711)" d="M 14435.7,14782.2 C 14435.7,14782.2 14214,14838.6 14214,14838.6 C 14214,14838.6 14241.7,14806.9 14241.7,14782.2 C 14241.7,14757 14214,14724.7 14214,14724.7 C 14214,14724.7 14435.7,14782.2 14435.7,14782.2 C 14435.7,14782.2 14435.7,14782.2 14435.7,14782.2 " /><path stroke="#000000" stroke-width="1" fill="none" transform="matrix(0.05 0 0 0.05 -615 -711)" d="M 14435.7,14782.2 C 14435.7,14782.2 14214,14838.6 14214,14838.6 C 14214,14838.6 14241.7,14806.9 14241.7,14782.2 C 14241.7,14757 14214,14724.7 14214,14724.7 C 14214,14724.7 14435.7,14782.2 14435.7,14782.2 C 14435.7,14782.2 14435.7,14782.2 14435.7,14782.2 " /><path stroke="none" fill="#000000" transform="matrix(0.05 0 0 0.05 -615 -711)" d="M 12624.6,14583.4 L 12624.2,14602.5 L 12610.1,14598.7 L 12465.1,14349.1 L 12484.3,14338 L 12624.6,14583.4 Z " /><text x="0" y="0" stroke="none" fill="#000000" transform="matrix(0.05 0 0 0.05 59.7768 22.1142)" font-style="normal" font-weight="bold" font-size="200px" font-family="Helvetica" >EtOH</text><text x="0" y="0" stroke="none" fill="#000000" transform="matrix(0.05 0 0 0.05 63.497 40.7622)" font-style="normal" font-weight="bold" font-size="200px" font-family="Helvetica" >heat</text></svg>