<?xml version="1.0" standalone="no" ?><!DOCTYPE svg PUBLIC "-//W3C//DTD SVG 1.1//EN" "http://www.w3.org/Graphics/SVG/1.1/DTD/svg11.dtd"><svg width="102px" height="46px" viewBox="0 0 102 46" style="background-color: #ffffff00" xmlns="http://www.w3.org/2000/svg" xmlns:xlink="http://www.w3.org/1999/xlink" version="1.1" ><path stroke="none" fill="#000000" transform="matrix(0.05 0 0 0.05 -45 -820)" d="M 962.76,16975.5 L 951.672,16956.3 L 1204.89,16810.6 L 1215.29,16816.9 L 1215.29,16829.2 L 962.76,16975.5 Z " /><path stroke="none" fill="#000000" transform="matrix(0.05 0 0 0.05 -45 -820)" d="M 1215.29,16829.2 L 1215.29,16816.9 L 1225.69,16810.6 L 1473.37,16953.6 L 1473.37,16965.9 L 1462.74,16972 L 1215.29,16829.2 Z " /><path stroke="none" fill="#000000" transform="matrix(0.05 0 0 0.05 -45 -820)" d="M 2694.26,16884.4 L 2048.14,16884.4 L 2048.14,16862.4 L 2694.26,16862.4 Z " /><path stroke="none" fill="#000000" transform="matrix(0.05 0 0 0.05 -45 -820)" d="M 2887.3,16873.4 C 2887.3,16873.4 2665.54,16929.8 2665.54,16929.8 C 2665.54,16929.8 2693.26,16898.1 2693.26,16873.4 C 2693.26,16848.3 2665.54,16816 2665.54,16816 C 2665.54,16816 2887.3,16873.4 2887.3,16873.4 C 2887.3,16873.4 2887.3,16873.4 2887.3,16873.4 " /><path stroke="#000000" stroke-width="1" fill="none" transform="matrix(0.05 0 0 0.05 -45 -820)" d="M 2887.3,16873.4 C 2887.3,16873.4 2665.54,16929.8 2665.54,16929.8 C 2665.54,16929.8 2693.26,16898.1 2693.26,16873.4 C 2693.26,16848.3 2665.54,16816 2665.54,16816 C 2665.54,16816 2887.3,16873.4 2887.3,16873.4 C 2887.3,16873.4 2887.3,16873.4 2887.3,16873.4 " /><path stroke="none" fill="#000000" transform="matrix(0.05 0 0 0.05 -45 -820)" d="M 1484,16972 L 1473.37,16965.9 L 1473.37,16953.6 L 1725.9,16807.3 L 1736.99,16826.5 L 1484,16972 Z " /><text x="0" y="0" stroke="none" fill="#000000" transform="matrix(0.05 0 0 0.05 65.3989 15.0122)" font-style="normal" font-weight="bold" font-size="200px" font-family="Helvetica" >H</text><text x="0" y="0" stroke="none" fill="#000000" transform="matrix(0.05 0 0 0.05 72.6206 17.312)" font-style="normal" font-weight="bold" font-size="150px" font-family="Helvetica" >2</text><text x="0" y="0" stroke="none" fill="#000000" transform="matrix(0.05 0 0 0.05 76.7918 15.0122)" font-style="normal" font-weight="bold" font-size="200px" font-family="Helvetica" >O</text><path stroke="none" fill="#000000" transform="matrix(0.05 0 0 0.05 -45 -820)" d="M 1462.74,16972 L 1473.37,16965.9 L 1484,16972 L 1484.45,17263.9 L 1462.28,17263.9 L 1462.74,16972 Z " /><text x="0" y="0" stroke="none" fill="#000000" transform="matrix(0.05 0 0 0.05 65.399 34.9922)" font-style="normal" font-weight="bold" font-size="200px" font-family="Helvetica" >heat</text><text x="0" y="0" stroke="none" fill="#000000" transform="matrix(0.05 0 0 0.05 12.5148 9.18297)" font-style="normal" font-weight="bold" font-size="180px" font-family="Helvetica" >Br</text><path stroke="none" fill="#000000" transform="matrix(0.05 0 0 0.05 -45 -820)" d="M 1225.69,16810.6 L 1215.29,16816.9 L 1204.89,16810.6 L 1204.2,16613.3 L 1226.38,16613.3 L 1225.69,16810.6 Z " /></svg>