<?xml version="1.0" standalone="no" ?><!DOCTYPE svg PUBLIC "-//W3C//DTD SVG 1.1//EN" "http://www.w3.org/Graphics/SVG/1.1/DTD/svg11.dtd"><svg width="120px" height="61px" viewBox="0 0 120 61" style="background-color: #ffffff00" xmlns="http://www.w3.org/2000/svg" xmlns:xlink="http://www.w3.org/1999/xlink" version="1.1" ><path stroke="none" fill="#000000" transform="matrix(0.05 0 0 0.05 -168 -808)" d="M 3656.23,16876.3 L 3666.87,16870.2 L 3677.5,16876.3 L 3677.5,17163.5 L 3655.28,17176.4 L 3656.23,16876.3 Z " /><path stroke="none" fill="#000000" transform="matrix(0.05 0 0 0.05 -168 -808)" d="M 3655.28,17176.4 L 3677.5,17163.5 L 3926.26,17307.2 L 3926.26,17332.8 L 3655.28,17176.4 Z " /><path stroke="none" fill="#000000" transform="matrix(0.05 0 0 0.05 -168 -808)" d="M 3926.26,17332.8 L 3926.26,17307.2 L 4175.02,17163.5 L 4197.23,17176.4 L 3926.26,17332.8 Z " /><path stroke="none" fill="#000000" transform="matrix(0.05 0 0 0.05 -168 -808)" d="M 4197.23,17176.4 L 4175.02,17163.5 L 4175.02,16876.3 L 4197.23,16863.5 L 4197.23,17176.4 Z " /><path stroke="none" fill="#000000" transform="matrix(0.05 0 0 0.05 -168 -808)" d="M 4197.23,16863.5 L 4175.02,16876.3 L 3926.26,16732.7 L 3926.26,16720.4 L 3936.65,16714.1 L 4197.23,16863.5 Z " /><path stroke="none" fill="#000000" transform="matrix(0.05 0 0 0.05 -168 -808)" d="M 3915.87,16714.1 L 3926.26,16720.4 L 3926.26,16732.7 L 3677.5,16876.3 L 3666.87,16870.2 L 3666.87,16857.9 L 3915.87,16714.1 Z " /><text x="0" y="0" stroke="none" fill="#000000" transform="matrix(0.05 0 0 0.05 25.0632 16.283)" font-style="normal" font-weight="bold" font-size="180px" font-family="Helvetica" >Cl</text><path stroke="none" fill="#000000" transform="matrix(0.05 0 0 0.05 -168 -808)" d="M 3936.65,16714.1 L 3926.26,16720.4 L 3915.87,16714.1 L 3915.17,16521.1 L 3937.35,16521.1 L 3936.65,16714.1 Z " /><path stroke="none" fill="#000000" transform="matrix(0.05 0 0 0.05 -168 -808)" d="M 5518.1,16951 L 4459.06,16951 L 4459.06,16929 L 5518.1,16929 Z " /><path stroke="none" fill="#000000" transform="matrix(0.05 0 0 0.05 -168 -808)" d="M 5711.14,16940 C 5711.14,16940 5489.38,16996.4 5489.38,16996.4 C 5489.38,16996.4 5517.1,16964.7 5517.1,16940 C 5517.1,16914.9 5489.38,16882.6 5489.38,16882.6 C 5489.38,16882.6 5711.14,16940 5711.14,16940 C 5711.14,16940 5711.14,16940 5711.14,16940 " /><path stroke="#000000" stroke-width="1" fill="none" transform="matrix(0.05 0 0 0.05 -168 -808)" d="M 5711.14,16940 C 5711.14,16940 5489.38,16996.4 5489.38,16996.4 C 5489.38,16996.4 5517.1,16964.7 5517.1,16940 C 5517.1,16914.9 5489.38,16882.6 5489.38,16882.6 C 5489.38,16882.6 5711.14,16940 5711.14,16940 C 5711.14,16940 5711.14,16940 5711.14,16940 " /><path stroke="none" fill="#000000" transform="matrix(0.05 0 0 0.05 -168 -808)" d="M 4707.65,16741.8 L 4696.57,16722.5 L 4961.26,16569.1 L 4961.31,16594.8 L 4707.65,16741.8 Z " /><text x="0" y="0" stroke="none" fill="#000000" transform="matrix(0.05 0 0 0.05 89.4994 31.8463)" font-style="normal" font-weight="bold" font-size="180px" font-family="Helvetica" >OH</text><path stroke="none" fill="#000000" transform="matrix(0.05 0 0 0.05 -168 -808)" d="M 4961.31,16594.8 L 4961.26,16569.1 L 5142.41,16674.6 L 5131.32,16693.8 L 4961.31,16594.8 Z " /><text x="0" y="0" stroke="none" fill="#000000" transform="matrix(0.05 0 0 0.05 76.5524 9.42136)" font-style="normal" font-weight="bold" font-size="180px" font-family="Helvetica" >O</text><path stroke="none" fill="#000000" transform="matrix(0.05 0 0 0.05 -168 -808)" d="M 4944.42,16598.7 L 4922.24,16598.7 L 4922.24,16384.1 L 4944.42,16384.1 L 4944.42,16598.7 Z " /><path stroke="none" fill="#000000" transform="matrix(0.05 0 0 0.05 -168 -808)" d="M 4999.86,16598.7 L 4977.68,16598.7 L 4977.68,16384.1 L 4999.86,16384.1 L 4999.86,16598.7 Z " /><text x="0" y="0" stroke="none" fill="#000000" transform="matrix(0.05 0 0 0.05 72.935 48.9902)" font-style="normal" font-weight="bold" font-size="200px" font-family="Helvetica" >heat</text><path stroke="none" fill="#000000" transform="matrix(0.05 0 0 0.05 -168 -808)" d="M 3666.87,16857.9 L 3666.87,16870.2 L 3656.23,16876.3 L 3401.93,16730 L 3413.02,16710.8 L 3666.87,16857.9 Z " /></svg>