<?xml version="1.0" standalone="no" ?><!DOCTYPE svg PUBLIC "-//W3C//DTD SVG 1.1//EN" "http://www.w3.org/Graphics/SVG/1.1/DTD/svg11.dtd"><svg width="109px" height="59px" viewBox="0 0 109 59" style="background-color: #ffffff00" xmlns="http://www.w3.org/2000/svg" xmlns:xlink="http://www.w3.org/1999/xlink" version="1.1" ><path stroke="none" fill="#000000" transform="matrix(0.05 0 0 0.05 -320 -814)" d="M 7696.59,16400.2 L 7707.68,16381 L 7961.78,16528.2 L 7961.52,16540.4 L 7950.89,16546.5 L 7696.59,16400.2 Z " /><text x="0" y="0" stroke="none" fill="#000000" transform="matrix(0.05 0 0 0.05 87.5455 8.77095)" font-style="normal" font-weight="bold" font-size="180px" font-family="Helvetica" >OH</text><path stroke="none" fill="#000000" transform="matrix(0.05 0 0 0.05 -320 -814)" d="M 7972.18,16546.3 L 7961.52,16540.4 L 7961.78,16528.2 L 8131.04,16429.7 L 8142.13,16448.9 L 7972.18,16546.3 Z " /><path stroke="none" fill="#000000" transform="matrix(0.05 0 0 0.05 -320 -814)" d="M 8341.94,16937.7 L 7402.78,16937.7 L 7402.78,16915.7 L 8341.94,16915.7 Z " /><path stroke="none" fill="#000000" transform="matrix(0.05 0 0 0.05 -320 -814)" d="M 8534.98,16926.7 C 8534.98,16926.7 8313.22,16983.1 8313.22,16983.1 C 8313.22,16983.1 8340.94,16951.4 8340.94,16926.7 C 8340.94,16901.6 8313.22,16869.2 8313.22,16869.2 C 8313.22,16869.2 8534.98,16926.7 8534.98,16926.7 C 8534.98,16926.7 8534.98,16926.7 8534.98,16926.7 " /><path stroke="#000000" stroke-width="1" fill="none" transform="matrix(0.05 0 0 0.05 -320 -814)" d="M 8534.98,16926.7 C 8534.98,16926.7 8313.22,16983.1 8313.22,16983.1 C 8313.22,16983.1 8340.94,16951.4 8340.94,16926.7 C 8340.94,16901.6 8313.22,16869.2 8313.22,16869.2 C 8313.22,16869.2 8534.98,16926.7 8534.98,16926.7 C 8534.98,16926.7 8534.98,16926.7 8534.98,16926.7 " /><path stroke="none" fill="#000000" transform="matrix(0.05 0 0 0.05 -320 -814)" d="M 7950.89,16546.5 L 7961.52,16540.4 L 7972.18,16546.3 L 7972.61,16839.9 L 7950.43,16839.9 L 7950.89,16546.5 Z " /><text x="0" y="0" stroke="none" fill="#000000" transform="matrix(0.05 0 0 0.05 37.8475 22.7569)" font-style="normal" font-weight="bold" font-size="180px" font-family="Helvetica" >I</text><path stroke="none" fill="#000000" transform="matrix(0.05 0 0 0.05 -320 -814)" d="M 6933.21,16826.1 L 6922.56,16820.1 L 6921.5,16808.5 L 7115.51,16695.9 L 7126.59,16715.1 L 6933.21,16826.1 Z " /><path stroke="none" fill="#000000" transform="matrix(0.05 0 0 0.05 -320 -814)" d="M 6912.04,16827.8 L 6922.56,16820.1 L 6933.21,16826.1 L 6933.05,17111.6 L 6922.56,17119.6 L 6912.04,17112 L 6912.04,16827.8 Z " /><path stroke="none" fill="#000000" transform="matrix(0.05 0 0 0.05 -320 -814)" d="M 6921.5,16808.5 L 6922.56,16820.1 L 6912.04,16827.8 L 6641.72,16739.9 L 6633.23,16713.8 L 6921.5,16808.5 Z " /><path stroke="none" fill="#000000" transform="matrix(0.05 0 0 0.05 -320 -814)" d="M 6633.23,16713.8 L 6641.72,16739.9 L 6474.65,16969.9 L 6447.16,16969.9 L 6633.23,16713.8 Z " /><path stroke="none" fill="#000000" transform="matrix(0.05 0 0 0.05 -320 -814)" d="M 6447.16,16969.9 L 6474.65,16969.9 L 6641.72,17199.8 L 6633.23,17226 L 6447.16,16969.9 Z " /><path stroke="none" fill="#000000" transform="matrix(0.05 0 0 0.05 -320 -814)" d="M 6633.23,17226 L 6641.72,17199.8 L 6912.04,17112 L 6922.56,17119.6 L 6915.43,17132.8 L 6633.23,17226 Z " /><text x="0" y="0" stroke="none" fill="#000000" transform="matrix(0.05 0 0 0.05 64.791 44.9882)" font-style="normal" font-weight="bold" font-size="200px" font-family="Helvetica" >heat</text><path stroke="none" fill="#000000" transform="matrix(0.05 0 0 0.05 -320 -814)" d="M 6915.43,17132.8 L 6922.56,17119.6 L 6936.46,17133.5 L 7010.79,17406.1 L 6989.37,17411.8 L 6915.43,17132.8 Z " /><path stroke="none" fill="#000000" transform="matrix(0.05 0 0 0.05 -320 -814)" d="M 6936.46,17133.5 L 6922.56,17119.6 L 6933.05,17111.6 L 7214.75,17186.5 L 7209.01,17207.9 L 6936.46,17133.5 Z " /></svg>