<?xml version="1.0" standalone="no" ?><!DOCTYPE svg PUBLIC "-//W3C//DTD SVG 1.1//EN" "http://www.w3.org/Graphics/SVG/1.1/DTD/svg11.dtd"><svg width="127px" height="46px" viewBox="0 0 127 46" style="background-color: #ffffff00" xmlns="http://www.w3.org/2000/svg" xmlns:xlink="http://www.w3.org/1999/xlink" version="1.1" ><path stroke="none" fill="#000000" transform="matrix(0.05 0 0 0.05 -463 -821)" d="M 9574.43,17149.6 L 9574.43,17124 L 9821.87,16981.1 L 9832.5,16987.3 L 9826.15,17002.6 L 9574.43,17149.6 Z " /><path stroke="none" fill="#000000" transform="matrix(0.05 0 0 0.05 -463 -821)" d="M 9842.61,16974.1 L 9832.5,16987.3 L 9821.87,16981.1 L 9821.87,16695.4 L 9832.5,16689.3 L 9843.16,16695.1 L 9842.61,16974.1 Z " /><path stroke="none" fill="#000000" transform="matrix(0.05 0 0 0.05 -463 -821)" d="M 9832.77,16677.1 L 9832.5,16689.3 L 9821.87,16695.4 L 9574.43,16552.5 L 9574.43,16526.9 L 9832.77,16677.1 Z " /><path stroke="none" fill="#000000" transform="matrix(0.05 0 0 0.05 -463 -821)" d="M 11552.1,16804.5 L 10493,16804.5 L 10493,16782.5 L 11552.1,16782.5 Z " /><path stroke="none" fill="#000000" transform="matrix(0.05 0 0 0.05 -463 -821)" d="M 11745.1,16793.5 C 11745.1,16793.5 11523.3,16849.9 11523.3,16849.9 C 11523.3,16849.9 11551.1,16818.2 11551.1,16793.5 C 11551.1,16768.4 11523.3,16736 11523.3,16736 C 11523.3,16736 11745.1,16793.5 11745.1,16793.5 C 11745.1,16793.5 11745.1,16793.5 11745.1,16793.5 " /><path stroke="#000000" stroke-width="1" fill="none" transform="matrix(0.05 0 0 0.05 -463 -821)" d="M 11745.1,16793.5 C 11745.1,16793.5 11523.3,16849.9 11523.3,16849.9 C 11523.3,16849.9 11551.1,16818.2 11551.1,16793.5 C 11551.1,16768.4 11523.3,16736 11523.3,16736 C 11523.3,16736 11745.1,16793.5 11745.1,16793.5 C 11745.1,16793.5 11745.1,16793.5 11745.1,16793.5 " /><text x="0" y="0" stroke="none" fill="#000000" transform="matrix(0.05 0 0 0.05 78.9669 12.0142)" font-style="normal" font-weight="bold" font-size="200px" font-family="Helvetica" >H</text><text x="0" y="0" stroke="none" fill="#000000" transform="matrix(0.05 0 0 0.05 86.1886 14.314)" font-style="normal" font-weight="bold" font-size="150px" font-family="Helvetica" >2</text><text x="0" y="0" stroke="none" fill="#000000" transform="matrix(0.05 0 0 0.05 90.3598 12.0142)" font-style="normal" font-weight="bold" font-size="200px" font-family="Helvetica" >O</text><text x="0" y="0" stroke="none" fill="#000000" transform="matrix(0.05 0 0 0.05 79.633 29.9962)" font-style="normal" font-weight="bold" font-size="200px" font-family="Helvetica" >heat</text><text x="0" y="0" stroke="none" fill="#000000" transform="matrix(0.05 0 0 0.05 38.0287 9.2513)" font-style="normal" font-weight="bold" font-size="180px" font-family="Helvetica" >OTs</text><path stroke="none" fill="#000000" transform="matrix(0.05 0 0 0.05 -463 -821)" d="M 9843.16,16695.1 L 9832.5,16689.3 L 9832.77,16677.1 L 10000.7,16579.3 L 10011.8,16598.5 L 9843.16,16695.1 Z " /><path stroke="none" fill="#000000" transform="matrix(0.05 0 0 0.05 -463 -821)" d="M 9304.77,16993.9 L 9326.98,16981.1 L 9574.43,17124 L 9574.43,17149.6 L 9304.77,16993.9 Z " /><path stroke="none" fill="#000000" transform="matrix(0.05 0 0 0.05 -463 -821)" d="M 9326.98,16981.1 L 9304.77,16993.9 L 9304.77,16682.6 L 9326.98,16695.4 L 9326.98,16981.1 Z " /><path stroke="none" fill="#000000" transform="matrix(0.05 0 0 0.05 -463 -821)" d="M 9326.98,16695.4 L 9304.77,16682.6 L 9574.43,16526.9 L 9574.43,16552.5 L 9326.98,16695.4 Z " /><path stroke="none" fill="#000000" transform="matrix(0.05 0 0 0.05 -463 -821)" d="M 9845.14,16994.5 L 9832.5,16987.3 L 9842.61,16974.1 L 10128.8,16895.5 L 10113.1,16922.8 L 9845.14,16994.5 Z " /><path stroke="none" fill="#000000" transform="matrix(0.05 0 0 0.05 -463 -821)" d="M 9901.16,17289.8 L 9916.93,17262.5 L 10184.8,17190.7 L 10212.1,17206.4 L 9901.16,17289.8 Z " /><path stroke="none" fill="#000000" transform="matrix(0.05 0 0 0.05 -463 -821)" d="M 10212.1,17206.4 L 10184.8,17190.7 L 10113.1,16922.8 L 10128.8,16895.5 L 10212.1,17206.4 Z " /><path stroke="none" fill="#000000" transform="matrix(0.05 0 0 0.05 -463 -821)" d="M 9916.93,17262.5 L 9901.16,17289.8 L 9826.15,17002.6 L 9832.5,16987.3 L 9845.14,16994.5 L 9916.93,17262.5 Z " /></svg>