<?xml version="1.0" standalone="no" ?><!DOCTYPE svg PUBLIC "-//W3C//DTD SVG 1.1//EN" "http://www.w3.org/Graphics/SVG/1.1/DTD/svg11.dtd"><svg width="89px" height="68px" viewBox="0 0 89 68" style="background-color: #ffffff00" xmlns="http://www.w3.org/2000/svg" xmlns:xlink="http://www.w3.org/1999/xlink" version="1.1" ><path stroke="none" fill="#000000" transform="matrix(0.05 0 0 0.05 -636 -800)" d="M 14256,16791.2 L 13609.9,16791.2 L 13609.9,16769.2 L 14256,16769.2 Z " /><path stroke="none" fill="#000000" transform="matrix(0.05 0 0 0.05 -636 -800)" d="M 14449.1,16780.2 C 14449.1,16780.2 14227.3,16836.6 14227.3,16836.6 C 14227.3,16836.6 14255,16804.9 14255,16780.2 C 14255,16755 14227.3,16722.7 14227.3,16722.7 C 14227.3,16722.7 14449.1,16780.2 14449.1,16780.2 C 14449.1,16780.2 14449.1,16780.2 14449.1,16780.2 " /><path stroke="#000000" stroke-width="1" fill="none" transform="matrix(0.05 0 0 0.05 -636 -800)" d="M 14449.1,16780.2 C 14449.1,16780.2 14227.3,16836.6 14227.3,16836.6 C 14227.3,16836.6 14255,16804.9 14255,16780.2 C 14255,16755 14227.3,16722.7 14227.3,16722.7 C 14227.3,16722.7 14449.1,16780.2 14449.1,16780.2 C 14449.1,16780.2 14449.1,16780.2 14449.1,16780.2 " /><text x="0" y="0" stroke="none" fill="#000000" transform="matrix(0.05 0 0 0.05 49.823 30.3502)" font-style="normal" font-weight="bold" font-size="200px" font-family="Helvetica" >CH</text><text x="0" y="0" stroke="none" fill="#000000" transform="matrix(0.05 0 0 0.05 64.2663 32.65)" font-style="normal" font-weight="bold" font-size="150px" font-family="Helvetica" >3</text><text x="0" y="0" stroke="none" fill="#000000" transform="matrix(0.05 0 0 0.05 68.4375 30.3502)" font-style="normal" font-weight="bold" font-size="200px" font-family="Helvetica" >OH</text><text x="0" y="0" stroke="none" fill="#000000" transform="matrix(0.05 0 0 0.05 53.819 50.3302)" font-style="normal" font-weight="bold" font-size="200px" font-family="Helvetica" >heat</text><path stroke="none" fill="#000000" transform="matrix(0.05 0 0 0.05 -636 -800)" d="M 13343.4,16974.1 L 13318.3,16985.3 L 13072.1,16843.1 L 13070.8,16830.2 L 13089.8,16829.8 L 13343.4,16974.1 Z " /><path stroke="none" fill="#000000" transform="matrix(0.05 0 0 0.05 -636 -800)" d="M 13059.6,16825.9 L 13070.8,16830.2 L 13072.1,16843.1 L 12860.9,17033.3 L 12834,17027.6 L 13059.6,16825.9 Z " /><path stroke="none" fill="#000000" transform="matrix(0.05 0 0 0.05 -636 -800)" d="M 12834,17027.6 L 12860.9,17033.3 L 12976.5,17293 L 12962.8,17316.8 L 12834,17027.6 Z " /><path stroke="none" fill="#000000" transform="matrix(0.05 0 0 0.05 -636 -800)" d="M 12962.8,17316.8 L 12976.5,17293 L 13259.2,17263.3 L 13277.6,17283.7 L 12962.8,17316.8 Z " /><path stroke="none" fill="#000000" transform="matrix(0.05 0 0 0.05 -636 -800)" d="M 13277.6,17283.7 L 13259.2,17263.3 L 13318.3,16985.3 L 13343.4,16974.1 L 13277.6,17283.7 Z " /><path stroke="none" fill="#000000" transform="matrix(0.05 0 0 0.05 -636 -800)" d="M 13079.2,16814.6 L 13070.8,16830.2 L 13059.6,16825.9 L 13029.4,16538.9 L 13039.5,16532.3 L 13050.7,16536.6 L 13079.2,16814.6 Z " /><path stroke="none" fill="#000000" transform="matrix(0.05 0 0 0.05 -636 -800)" d="M 13050.7,16536.6 L 13039.5,16532.3 L 13038.1,16519.4 L 13249.3,16329.2 L 13276.2,16334.9 L 13050.7,16536.6 Z " /><path stroke="none" fill="#000000" transform="matrix(0.05 0 0 0.05 -636 -800)" d="M 13276.2,16334.9 L 13249.3,16329.2 L 13133.7,16069.5 L 13147.5,16045.7 L 13276.2,16334.9 Z " /><path stroke="none" fill="#000000" transform="matrix(0.05 0 0 0.05 -636 -800)" d="M 13147.5,16045.7 L 13133.7,16069.5 L 12851.1,16099.3 L 12832.7,16078.8 L 13147.5,16045.7 Z " /><path stroke="none" fill="#000000" transform="matrix(0.05 0 0 0.05 -636 -800)" d="M 12832.7,16078.8 L 12851.1,16099.3 L 12792,16377.3 L 12766.9,16388.5 L 12832.7,16078.8 Z " /><path stroke="none" fill="#000000" transform="matrix(0.05 0 0 0.05 -636 -800)" d="M 12766.9,16388.5 L 12792,16377.3 L 13038.1,16519.4 L 13039.5,16532.3 L 13029.4,16538.9 L 12766.9,16388.5 Z " /><text x="0" y="0" stroke="none" fill="#000000" transform="matrix(0.05 0 0 0.05 27.2592 37.261)" font-style="normal" font-weight="bold" font-size="180px" font-family="Helvetica" >Br</text><path stroke="none" fill="#000000" transform="matrix(0.05 0 0 0.05 -636 -800)" d="M 13089.8,16829.8 L 13070.8,16830.2 L 13079.2,16814.6 L 13231.8,16724.5 L 13242.8,16743.7 L 13089.8,16829.8 Z " /></svg>