<?xml version="1.0" standalone="no" ?><!DOCTYPE svg PUBLIC "-//W3C//DTD SVG 1.1//EN" "http://www.w3.org/Graphics/SVG/1.1/DTD/svg11.dtd"><svg width="97px" height="53px" viewBox="0 0 97 53" style="background-color: #ffffff00" xmlns="http://www.w3.org/2000/svg" xmlns:xlink="http://www.w3.org/1999/xlink" version="1.1" ><path stroke="none" fill="#000000" transform="matrix(0.05 0 0 0.05 -47 -887)" d="M 1273.87,18586.4 L 1296.09,18599.2 L 1032.84,18750.7 L 1021.75,18731.4 L 1273.87,18586.4 Z " /><path stroke="none" fill="#000000" transform="matrix(0.05 0 0 0.05 -47 -887)" d="M 1274.19,18305.9 L 1284.5,18295.6 L 1295.13,18301.7 L 1296.09,18599.2 L 1273.87,18586.4 L 1274.19,18305.9 Z " /><path stroke="none" fill="#000000" transform="matrix(0.05 0 0 0.05 -47 -887)" d="M 1267.5,18285.7 L 1284.5,18295.6 L 1274.19,18305.9 L 987.504,18306.6 L 987.504,18284.5 L 1267.5,18285.7 Z " /><path stroke="none" fill="#000000" transform="matrix(0.05 0 0 0.05 -47 -887)" d="M 2640.98,18203.1 L 1994.86,18203.1 L 1994.86,18181.1 L 2640.98,18181.1 Z " /><path stroke="none" fill="#000000" transform="matrix(0.05 0 0 0.05 -47 -887)" d="M 2834.02,18192.1 C 2834.02,18192.1 2612.26,18248.5 2612.26,18248.5 C 2612.26,18248.5 2639.98,18216.8 2639.98,18192.1 C 2639.98,18167 2612.26,18134.6 2612.26,18134.6 C 2612.26,18134.6 2834.02,18192.1 2834.02,18192.1 C 2834.02,18192.1 2834.02,18192.1 2834.02,18192.1 " /><path stroke="#000000" stroke-width="1" fill="none" transform="matrix(0.05 0 0 0.05 -47 -887)" d="M 2834.02,18192.1 C 2834.02,18192.1 2612.26,18248.5 2612.26,18248.5 C 2612.26,18248.5 2639.98,18216.8 2639.98,18192.1 C 2639.98,18167 2612.26,18134.6 2612.26,18134.6 C 2612.26,18134.6 2834.02,18192.1 2834.02,18192.1 C 2834.02,18192.1 2834.02,18192.1 2834.02,18192.1 " /><text x="0" y="0" stroke="none" fill="#000000" transform="matrix(0.05 0 0 0.05 58.3468 14.6122)" font-style="normal" font-weight="bold" font-size="200px" font-family="Helvetica" >EtOH</text><path stroke="none" fill="#000000" transform="matrix(0.05 0 0 0.05 -47 -887)" d="M 1288.28,18281.5 L 1284.5,18295.6 L 1267.5,18285.7 L 1126.4,18043.9 L 1145.61,18032.8 L 1288.28,18281.5 Z " /><path stroke="none" fill="#000000" transform="matrix(0.05 0 0 0.05 -47 -887)" d="M 1531.31,18140.8 L 1541.71,18147.1 L 1541.71,18159.3 L 1295.13,18301.7 L 1284.5,18295.6 L 1288.28,18281.5 L 1531.31,18140.8 Z " /><path stroke="none" fill="#000000" transform="matrix(0.05 0 0 0.05 -47 -887)" d="M 1804.47,18285.9 L 1793.38,18305.2 L 1541.71,18159.3 L 1541.71,18147.1 L 1552.11,18140.8 L 1804.47,18285.9 Z " /><text x="0" y="0" stroke="none" fill="#000000" transform="matrix(0.05 0 0 0.05 62.067 33.2602)" font-style="normal" font-weight="bold" font-size="200px" font-family="Helvetica" >heat</text><text x="0" y="0" stroke="none" fill="#000000" transform="matrix(0.05 0 0 0.05 28.8354 8.74129)" font-style="normal" font-weight="bold" font-size="180px" font-family="Helvetica" >I</text><path stroke="none" fill="#000000" transform="matrix(0.05 0 0 0.05 -47 -887)" d="M 1552.11,18140.8 L 1541.71,18147.1 L 1531.31,18140.8 L 1530.63,17944.5 L 1552.8,17944.5 L 1552.11,18140.8 Z " /></svg>