<?xml version="1.0" standalone="no" ?><!DOCTYPE svg PUBLIC "-//W3C//DTD SVG 1.1//EN" "http://www.w3.org/Graphics/SVG/1.1/DTD/svg11.dtd"><svg width="88px" height="39px" viewBox="0 0 88 39" style="background-color: #ffffff00" xmlns="http://www.w3.org/2000/svg" xmlns:xlink="http://www.w3.org/1999/xlink" version="1.1" ><path stroke="none" fill="#000000" transform="matrix(0.05 0 0 0.05 -200 -894)" d="M 4296.65,18115.7 L 4307.28,18109.6 L 4317.91,18115.7 L 4317.93,18400.8 L 4307.28,18406.6 L 4296.65,18400.4 L 4296.65,18115.7 Z " /><path stroke="none" fill="#000000" transform="matrix(0.05 0 0 0.05 -200 -894)" d="M 4307.28,18097.3 L 4307.28,18109.6 L 4296.65,18115.7 L 4044.52,17970.7 L 4055.61,17951.5 L 4307.28,18097.3 Z " /><path stroke="none" fill="#000000" transform="matrix(0.05 0 0 0.05 -200 -894)" d="M 4558.94,17951.5 L 4570.03,17970.7 L 4317.91,18115.7 L 4307.28,18109.6 L 4307.28,18097.3 L 4558.94,17951.5 Z " /><path stroke="none" fill="#000000" transform="matrix(0.05 0 0 0.05 -200 -894)" d="M 5518.1,18256.4 L 4871.98,18256.4 L 4871.98,18234.4 L 5518.1,18234.4 Z " /><path stroke="none" fill="#000000" transform="matrix(0.05 0 0 0.05 -200 -894)" d="M 5711.14,18245.4 C 5711.14,18245.4 5489.38,18301.8 5489.38,18301.8 C 5489.38,18301.8 5517.1,18270.1 5517.1,18245.4 C 5517.1,18220.2 5489.38,18187.9 5489.38,18187.9 C 5489.38,18187.9 5711.14,18245.4 5711.14,18245.4 C 5711.14,18245.4 5711.14,18245.4 5711.14,18245.4 " /><path stroke="#000000" stroke-width="1" fill="none" transform="matrix(0.05 0 0 0.05 -200 -894)" d="M 5711.14,18245.4 C 5711.14,18245.4 5489.38,18301.8 5489.38,18301.8 C 5489.38,18301.8 5517.1,18270.1 5517.1,18245.4 C 5517.1,18220.2 5489.38,18187.9 5489.38,18187.9 C 5489.38,18187.9 5711.14,18245.4 5711.14,18245.4 C 5711.14,18245.4 5711.14,18245.4 5711.14,18245.4 " /><text x="0" y="0" stroke="none" fill="#000000" transform="matrix(0.05 0 0 0.05 48.9269 9.61017)" font-style="normal" font-weight="bold" font-size="200px" font-family="Helvetica" >CH</text><text x="0" y="0" stroke="none" fill="#000000" transform="matrix(0.05 0 0 0.05 63.3703 11.91)" font-style="normal" font-weight="bold" font-size="150px" font-family="Helvetica" >3</text><text x="0" y="0" stroke="none" fill="#000000" transform="matrix(0.05 0 0 0.05 67.5414 9.61017)" font-style="normal" font-weight="bold" font-size="200px" font-family="Helvetica" >OH</text><text x="0" y="0" stroke="none" fill="#000000" transform="matrix(0.05 0 0 0.05 52.923 29.5902)" font-style="normal" font-weight="bold" font-size="200px" font-family="Helvetica" >heat</text><path stroke="none" fill="#000000" transform="matrix(0.05 0 0 0.05 -200 -894)" d="M 4296.65,18400.4 L 4307.28,18406.6 L 4307.59,18418.7 L 4055.61,18564.7 L 4044.52,18545.5 L 4296.65,18400.4 Z " /><text x="0" y="0" stroke="none" fill="#000000" transform="matrix(0.05 0 0 0.05 24.9746 36.9923)" font-style="normal" font-weight="bold" font-size="180px" font-family="Helvetica" >Br</text><path stroke="none" fill="#000000" transform="matrix(0.05 0 0 0.05 -200 -894)" d="M 4307.59,18418.7 L 4307.28,18406.6 L 4317.93,18400.8 L 4476.91,18491.7 L 4465.82,18510.9 L 4307.59,18418.7 Z " /></svg>