<?xml version="1.0" standalone="no" ?><!DOCTYPE svg PUBLIC "-//W3C//DTD SVG 1.1//EN" "http://www.w3.org/Graphics/SVG/1.1/DTD/svg11.dtd"><svg width="110px" height="41px" viewBox="0 0 110 41" style="background-color: #ffffff00" xmlns="http://www.w3.org/2000/svg" xmlns:xlink="http://www.w3.org/1999/xlink" version="1.1" ><path stroke="none" fill="#000000" transform="matrix(0.05 0 0 0.05 -321 -898)" d="M 7709.91,18091.9 L 7720.99,18072.7 L 7975.1,18219.9 L 7975.05,18245.6 L 7709.91,18091.9 Z " /><text x="0" y="0" stroke="none" fill="#000000" transform="matrix(0.05 0 0 0.05 87.2115 9.35294)" font-style="normal" font-weight="bold" font-size="180px" font-family="Helvetica" >OH</text><path stroke="none" fill="#000000" transform="matrix(0.05 0 0 0.05 -321 -898)" d="M 7975.05,18245.6 L 7975.1,18219.9 L 8144.36,18121.4 L 8155.45,18140.6 L 7975.05,18245.6 Z " /><path stroke="none" fill="#000000" transform="matrix(0.05 0 0 0.05 -321 -898)" d="M 8381.9,18442.8 L 7442.74,18442.8 L 7442.74,18420.8 L 8381.9,18420.8 Z " /><path stroke="none" fill="#000000" transform="matrix(0.05 0 0 0.05 -321 -898)" d="M 8574.94,18431.8 C 8574.94,18431.8 8353.18,18488.3 8353.18,18488.3 C 8353.18,18488.3 8380.9,18456.5 8380.9,18431.8 C 8380.9,18406.7 8353.18,18374.4 8353.18,18374.4 C 8353.18,18374.4 8574.94,18431.8 8574.94,18431.8 C 8574.94,18431.8 8574.94,18431.8 8574.94,18431.8 " /><path stroke="#000000" stroke-width="1" fill="none" transform="matrix(0.05 0 0 0.05 -321 -898)" d="M 8574.94,18431.8 C 8574.94,18431.8 8353.18,18488.3 8353.18,18488.3 C 8353.18,18488.3 8380.9,18456.5 8380.9,18431.8 C 8380.9,18406.7 8353.18,18374.4 8353.18,18374.4 C 8353.18,18374.4 8574.94,18431.8 8574.94,18431.8 C 8574.94,18431.8 8574.94,18431.8 8574.94,18431.8 " /><text x="0" y="0" stroke="none" fill="#000000" transform="matrix(0.05 0 0 0.05 32.6979 8.53334)" font-style="normal" font-weight="bold" font-size="180px" font-family="Helvetica" >I</text><path stroke="none" fill="#000000" transform="matrix(0.05 0 0 0.05 -321 -898)" d="M 6964.13,18318.8 L 6949.2,18325.3 L 6944.67,18312.8 L 7042.83,18140.9 L 7062.03,18152 L 6964.13,18318.8 Z " /><path stroke="none" fill="#000000" transform="matrix(0.05 0 0 0.05 -321 -898)" d="M 6938.68,18332.9 L 6949.2,18325.3 L 6959.31,18338.5 L 6960.92,18633.3 L 6938.68,18617.2 L 6938.68,18332.9 Z " /><path stroke="none" fill="#000000" transform="matrix(0.05 0 0 0.05 -321 -898)" d="M 6944.67,18312.8 L 6949.2,18325.3 L 6938.68,18332.9 L 6668.36,18245.1 L 6659.87,18219 L 6944.67,18312.8 Z " /><path stroke="none" fill="#000000" transform="matrix(0.05 0 0 0.05 -321 -898)" d="M 6659.87,18219 L 6668.36,18245.1 L 6501.29,18475 L 6473.8,18475 L 6659.87,18219 Z " /><path stroke="none" fill="#000000" transform="matrix(0.05 0 0 0.05 -321 -898)" d="M 6473.8,18475 L 6501.29,18475 L 6668.36,18705 L 6659.87,18731.1 L 6473.8,18475 Z " /><path stroke="none" fill="#000000" transform="matrix(0.05 0 0 0.05 -321 -898)" d="M 6547.85,18481.6 L 6565.79,18468.5 L 6694.49,18645.7 L 6676.55,18658.7 L 6547.85,18481.6 Z " /><path stroke="none" fill="#000000" transform="matrix(0.05 0 0 0.05 -321 -898)" d="M 6659.87,18731.1 L 6668.36,18705 L 6938.68,18617.2 L 6960.92,18633.3 L 6659.87,18731.1 Z " /><text x="0" y="0" stroke="none" fill="#000000" transform="matrix(0.05 0 0 0.05 65.789 36.2462)" font-style="normal" font-weight="bold" font-size="200px" font-family="Helvetica" >heat</text><path stroke="none" fill="#000000" transform="matrix(0.05 0 0 0.05 -321 -898)" d="M 6959.31,18338.5 L 6949.2,18325.3 L 6964.13,18318.8 L 7241.39,18392.1 L 7235.65,18413.5 L 6959.31,18338.5 Z " /></svg>