<?xml version="1.0" standalone="no" ?><!DOCTYPE svg PUBLIC "-//W3C//DTD SVG 1.1//EN" "http://www.w3.org/Graphics/SVG/1.1/DTD/svg11.dtd"><svg width="114px" height="41px" viewBox="0 0 114 41" style="background-color: #ffffff00" xmlns="http://www.w3.org/2000/svg" xmlns:xlink="http://www.w3.org/1999/xlink" version="1.1" ><path stroke="none" fill="#000000" transform="matrix(0.05 0 0 0.05 -458 -899)" d="M 9737.41,18740.7 L 9715.23,18740.7 L 9715.69,18447.8 L 9726.32,18441.7 L 9736.98,18447.5 L 9737.41,18740.7 Z " /><path stroke="none" fill="#000000" transform="matrix(0.05 0 0 0.05 -458 -899)" d="M 9726.62,18429.5 L 9726.32,18441.7 L 9715.69,18447.8 L 9467.38,18304.4 L 9467.38,18292.2 L 9481.48,18288.4 L 9726.62,18429.5 Z " /><path stroke="none" fill="#000000" transform="matrix(0.05 0 0 0.05 -458 -899)" d="M 9453.28,18288.4 L 9467.38,18292.2 L 9467.38,18304.4 L 9213.98,18451.3 L 9202.89,18432.1 L 9453.28,18288.4 Z " /><path stroke="none" fill="#000000" transform="matrix(0.05 0 0 0.05 -458 -899)" d="M 9481.48,18288.4 L 9467.38,18292.2 L 9467.38,18272.5 L 9607.28,18027.7 L 9626.48,18038.8 L 9481.48,18288.4 Z " /><path stroke="none" fill="#000000" transform="matrix(0.05 0 0 0.05 -458 -899)" d="M 11192.4,18482.8 L 10133.4,18482.8 L 10133.4,18460.8 L 11192.4,18460.8 Z " /><path stroke="none" fill="#000000" transform="matrix(0.05 0 0 0.05 -458 -899)" d="M 11385.5,18471.8 C 11385.5,18471.8 11163.7,18528.2 11163.7,18528.2 C 11163.7,18528.2 11191.4,18496.5 11191.4,18471.8 C 11191.4,18446.7 11163.7,18414.4 11163.7,18414.4 C 11163.7,18414.4 11385.5,18471.8 11385.5,18471.8 C 11385.5,18471.8 11385.5,18471.8 11385.5,18471.8 " /><path stroke="#000000" stroke-width="1" fill="none" transform="matrix(0.05 0 0 0.05 -458 -899)" d="M 11385.5,18471.8 C 11385.5,18471.8 11163.7,18528.2 11163.7,18528.2 C 11163.7,18528.2 11191.4,18496.5 11191.4,18471.8 C 11191.4,18446.7 11163.7,18414.4 11163.7,18414.4 C 11163.7,18414.4 11385.5,18471.8 11385.5,18471.8 C 11385.5,18471.8 11385.5,18471.8 11385.5,18471.8 " /><path stroke="none" fill="#000000" transform="matrix(0.05 0 0 0.05 -458 -899)" d="M 9467.38,18272.5 L 9467.38,18292.2 L 9453.28,18288.4 L 9308.28,18038.8 L 9327.48,18027.7 L 9467.38,18272.5 Z " /><text x="0" y="0" stroke="none" fill="#000000" transform="matrix(0.05 0 0 0.05 61.3229 17.2642)" font-style="normal" font-weight="bold" font-size="200px" font-family="Helvetica" >CH</text><text x="0" y="0" stroke="none" fill="#000000" transform="matrix(0.05 0 0 0.05 75.7663 19.564)" font-style="normal" font-weight="bold" font-size="150px" font-family="Helvetica" >3</text><text x="0" y="0" stroke="none" fill="#000000" transform="matrix(0.05 0 0 0.05 79.9374 17.2642)" font-style="normal" font-weight="bold" font-size="200px" font-family="Helvetica" >OH</text><text x="0" y="0" stroke="none" fill="#000000" transform="matrix(0.05 0 0 0.05 65.319 37.2442)" font-style="normal" font-weight="bold" font-size="200px" font-family="Helvetica" >heat</text><text x="0" y="0" stroke="none" fill="#000000" transform="matrix(0.05 0 0 0.05 38.0359 18.834)" font-style="normal" font-weight="bold" font-size="180px" font-family="Helvetica" >Br</text><path stroke="none" fill="#000000" transform="matrix(0.05 0 0 0.05 -458 -899)" d="M 9736.98,18447.5 L 9726.32,18441.7 L 9726.62,18429.5 L 9887.29,18335.9 L 9898.38,18355.1 L 9736.98,18447.5 Z " /></svg>