<?xml version="1.0" standalone="no" ?><!DOCTYPE svg PUBLIC "-//W3C//DTD SVG 1.1//EN" "http://www.w3.org/Graphics/SVG/1.1/DTD/svg11.dtd"><svg width="107px" height="34px" viewBox="0 0 107 34" style="background-color: #ffffff00" xmlns="http://www.w3.org/2000/svg" xmlns:xlink="http://www.w3.org/1999/xlink" version="1.1" ><path stroke="none" fill="#000000" transform="matrix(0.05 0 0 0.05 -621 -896)" d="M 13249.9,18330.9 L 13239.5,18337.2 L 13229.1,18330.9 L 13228.4,18135.6 L 13250.6,18135.6 L 13249.9,18330.9 Z " /><text x="0" y="0" stroke="none" fill="#000000" transform="matrix(0.05 0 0 0.05 37.7271 9.2971)" font-style="normal" font-weight="bold" font-size="180px" font-family="Helvetica" >Br</text><path stroke="none" fill="#000000" transform="matrix(0.05 0 0 0.05 -621 -896)" d="M 13239.5,18349.4 L 13239.5,18337.2 L 13249.9,18330.9 L 13501.4,18475.6 L 13490.3,18494.8 L 13239.5,18349.4 Z " /><path stroke="none" fill="#000000" transform="matrix(0.05 0 0 0.05 -621 -896)" d="M 12983.2,18498.5 L 12983.2,18472.9 L 13229.1,18330.9 L 13239.5,18337.2 L 13239.5,18349.4 L 12983.2,18498.5 Z " /><path stroke="none" fill="#000000" transform="matrix(0.05 0 0 0.05 -621 -896)" d="M 14309.3,18323 L 13663.2,18323 L 13663.2,18301 L 14309.3,18301 Z " /><path stroke="none" fill="#000000" transform="matrix(0.05 0 0 0.05 -621 -896)" d="M 14502.3,18312 C 14502.3,18312 14280.6,18368.4 14280.6,18368.4 C 14280.6,18368.4 14308.3,18336.7 14308.3,18312 C 14308.3,18286.8 14280.6,18254.5 14280.6,18254.5 C 14280.6,18254.5 14502.3,18312 14502.3,18312 C 14502.3,18312 14502.3,18312 14502.3,18312 " /><path stroke="#000000" stroke-width="1" fill="none" transform="matrix(0.05 0 0 0.05 -621 -896)" d="M 14502.3,18312 C 14502.3,18312 14280.6,18368.4 14280.6,18368.4 C 14280.6,18368.4 14308.3,18336.7 14308.3,18312 C 14308.3,18286.8 14280.6,18254.5 14280.6,18254.5 C 14280.6,18254.5 14502.3,18312 14502.3,18312 C 14502.3,18312 14502.3,18312 14502.3,18312 " /><text x="0" y="0" stroke="none" fill="#000000" transform="matrix(0.05 0 0 0.05 70.151 30.9202)" font-style="normal" font-weight="bold" font-size="200px" font-family="Helvetica" >heat</text><path stroke="none" fill="#000000" transform="matrix(0.05 0 0 0.05 -621 -896)" d="M 12476,18494.8 L 12465,18475.6 L 12726.8,18323.8 L 12726.8,18349.4 L 12476,18494.8 Z " /><path stroke="none" fill="#000000" transform="matrix(0.05 0 0 0.05 -621 -896)" d="M 12710.2,18353.2 L 12688,18353.2 L 12688,18041.2 L 12710.2,18041.2 L 12710.2,18353.2 Z " /><path stroke="none" fill="#000000" transform="matrix(0.05 0 0 0.05 -621 -896)" d="M 12765.7,18353.2 L 12743.5,18353.2 L 12743.5,18041.2 L 12765.7,18041.2 L 12765.7,18353.2 Z " /><path stroke="none" fill="#000000" transform="matrix(0.05 0 0 0.05 -621 -896)" d="M 12726.8,18349.4 L 12726.8,18323.8 L 12983.2,18472.9 L 12983.2,18498.5 L 12726.8,18349.4 Z " /><text x="0" y="0" stroke="none" fill="#000000" transform="matrix(0.05 0 0 0.05 70.8169 12.9382)" font-style="normal" font-weight="bold" font-size="200px" font-family="Helvetica" >H</text><text x="0" y="0" stroke="none" fill="#000000" transform="matrix(0.05 0 0 0.05 78.0386 15.238)" font-style="normal" font-weight="bold" font-size="150px" font-family="Helvetica" >2</text><text x="0" y="0" stroke="none" fill="#000000" transform="matrix(0.05 0 0 0.05 82.2098 12.9382)" font-style="normal" font-weight="bold" font-size="200px" font-family="Helvetica" >O</text></svg>