<?xml version="1.0" standalone="no" ?><!DOCTYPE svg PUBLIC "-//W3C//DTD SVG 1.1//EN" "http://www.w3.org/Graphics/SVG/1.1/DTD/svg11.dtd"><svg width="97px" height="54px" viewBox="0 0 97 54" style="background-color: #ffffff00" xmlns="http://www.w3.org/2000/svg" xmlns:xlink="http://www.w3.org/1999/xlink" version="1.1" ><path stroke="none" fill="#000000" transform="matrix(0.05 0 0 0.05 -48 -985)" d="M 1290.33,20560.8 L 1312.55,20573.6 L 1049.3,20725 L 1038.21,20705.8 L 1290.33,20560.8 Z " /><path stroke="none" fill="#000000" transform="matrix(0.05 0 0 0.05 -48 -985)" d="M 1290.65,20280.3 L 1300.96,20269.9 L 1311.59,20276.1 L 1312.55,20573.6 L 1290.33,20560.8 L 1290.65,20280.3 Z " /><path stroke="none" fill="#000000" transform="matrix(0.05 0 0 0.05 -48 -985)" d="M 1283.96,20260.1 L 1300.96,20269.9 L 1290.65,20280.3 L 1003.96,20281 L 1003.96,20258.9 L 1283.96,20260.1 Z " /><path stroke="none" fill="#000000" transform="matrix(0.05 0 0 0.05 -48 -985)" d="M 2657.44,20177.5 L 2011.32,20177.5 L 2011.32,20155.5 L 2657.44,20155.5 Z " /><path stroke="none" fill="#000000" transform="matrix(0.05 0 0 0.05 -48 -985)" d="M 2850.48,20166.5 C 2850.48,20166.5 2628.72,20222.9 2628.72,20222.9 C 2628.72,20222.9 2656.44,20191.2 2656.44,20166.5 C 2656.44,20141.3 2628.72,20109 2628.72,20109 C 2628.72,20109 2850.48,20166.5 2850.48,20166.5 C 2850.48,20166.5 2850.48,20166.5 2850.48,20166.5 " /><path stroke="#000000" stroke-width="1" fill="none" transform="matrix(0.05 0 0 0.05 -48 -985)" d="M 2850.48,20166.5 C 2850.48,20166.5 2628.72,20222.9 2628.72,20222.9 C 2628.72,20222.9 2656.44,20191.2 2656.44,20166.5 C 2656.44,20141.3 2628.72,20109 2628.72,20109 C 2628.72,20109 2850.48,20166.5 2850.48,20166.5 C 2850.48,20166.5 2850.48,20166.5 2850.48,20166.5 " /><path stroke="none" fill="#000000" transform="matrix(0.05 0 0 0.05 -48 -985)" d="M 1304.74,20255.9 L 1300.96,20269.9 L 1283.96,20260.1 L 1142.86,20018.3 L 1162.07,20007.2 L 1304.74,20255.9 Z " /><path stroke="none" fill="#000000" transform="matrix(0.05 0 0 0.05 -48 -985)" d="M 1547.8,20115.1 L 1558.17,20121.4 L 1558.17,20133.7 L 1311.59,20276.1 L 1300.96,20269.9 L 1304.74,20255.9 L 1547.8,20115.1 Z " /><path stroke="none" fill="#000000" transform="matrix(0.05 0 0 0.05 -48 -985)" d="M 1820.93,20260.3 L 1809.84,20279.5 L 1558.17,20133.7 L 1558.17,20121.4 L 1568.55,20115.1 L 1820.93,20260.3 Z " /><text x="0" y="0" stroke="none" fill="#000000" transform="matrix(0.05 0 0 0.05 26.4084 9.46104)" font-style="normal" font-weight="bold" font-size="180px" font-family="Helvetica" >OH</text><path stroke="none" fill="#000000" transform="matrix(0.05 0 0 0.05 -48 -985)" d="M 1568.55,20115.1 L 1558.17,20121.4 L 1547.8,20115.1 L 1547.09,19924.9 L 1569.26,19924.9 L 1568.55,20115.1 Z " /><text x="0" y="0" stroke="none" fill="#000000" transform="matrix(0.05 0 0 0.05 55.896 15.998)" font-style="normal" font-weight="bold" font-size="200px" font-family="Helvetica" >KO</text><text x="0" y="0" stroke="none" fill="#000000" transform="matrix(0.05 0 0 0.05 70.896 12.3993)" font-style="normal" font-weight="bold" font-size="150px" font-family="Helvetica" >t</text><text x="0" y="0" stroke="none" fill="#000000" transform="matrix(0.05 0 0 0.05 73.3935 15.998)" font-style="normal" font-weight="bold" font-size="200px" font-family="Helvetica" >Bu</text></svg>