<?xml version="1.0" standalone="no" ?><!DOCTYPE svg PUBLIC "-//W3C//DTD SVG 1.1//EN" "http://www.w3.org/Graphics/SVG/1.1/DTD/svg11.dtd"><svg width="103px" height="31px" viewBox="0 0 103 31" style="background-color: #ffffff00" xmlns="http://www.w3.org/2000/svg" xmlns:xlink="http://www.w3.org/1999/xlink" version="1.1" ><path stroke="none" fill="#000000" transform="matrix(0.05 0 0 0.05 -166 -996)" d="M 3614.18,20287.9 L 3603.1,20268.7 L 3862.49,20118.9 L 3873.58,20138.1 L 3614.18,20287.9 Z " /><path stroke="none" fill="#000000" transform="matrix(0.05 0 0 0.05 -166 -996)" d="M 3641.9,20335.9 L 3630.82,20316.7 L 3890.21,20167 L 3901.3,20186.2 L 3641.9,20335.9 Z " /><path stroke="none" fill="#000000" transform="matrix(0.05 0 0 0.05 -166 -996)" d="M 3669.62,20383.9 L 3658.54,20364.7 L 3917.93,20215 L 3929.02,20234.2 L 3669.62,20383.9 Z " /><text x="0" y="0" stroke="none" fill="#000000" transform="matrix(0.05 0 0 0.05 38.5074 8.57877)" font-style="normal" font-weight="bold" font-size="180px" font-family="Helvetica" >H</text><path stroke="none" fill="#000000" transform="matrix(0.05 0 0 0.05 -166 -996)" d="M 3901.3,20186.2 L 3890.21,20167 L 4057.01,20070.7 L 4068.09,20089.9 L 3901.3,20186.2 Z " /><path stroke="none" fill="#000000" transform="matrix(0.05 0 0 0.05 -166 -996)" d="M 3630.82,20316.7 L 3641.9,20335.9 L 3382.51,20485.7 L 3371.42,20466.5 L 3630.82,20316.7 Z " /><path stroke="none" fill="#000000" transform="matrix(0.05 0 0 0.05 -166 -996)" d="M 5134.96,20310.7 L 4488.84,20310.7 L 4488.84,20288.7 L 5134.96,20288.7 Z " /><path stroke="none" fill="#000000" transform="matrix(0.05 0 0 0.05 -166 -996)" d="M 5328,20299.7 C 5328,20299.7 5106.24,20356.1 5106.24,20356.1 C 5106.24,20356.1 5133.96,20324.4 5133.96,20299.7 C 5133.96,20274.5 5106.24,20242.2 5106.24,20242.2 C 5106.24,20242.2 5328,20299.7 5328,20299.7 C 5328,20299.7 5328,20299.7 5328,20299.7 " /><path stroke="#000000" stroke-width="1" fill="none" transform="matrix(0.05 0 0 0.05 -166 -996)" d="M 5328,20299.7 C 5328,20299.7 5106.24,20356.1 5106.24,20356.1 C 5106.24,20356.1 5133.96,20324.4 5133.96,20299.7 C 5133.96,20274.5 5106.24,20242.2 5106.24,20242.2 C 5106.24,20242.2 5328,20299.7 5328,20299.7 C 5328,20299.7 5328,20299.7 5328,20299.7 " /><text x="0" y="0" stroke="none" fill="#000000" transform="matrix(0.05 0 0 0.05 63.104 11.658)" font-style="normal" font-weight="bold" font-size="200px" font-family="Helvetica" >NaNH</text><text x="0" y="0" stroke="none" fill="#000000" transform="matrix(0.05 0 0 0.05 90.3305 13.9578)" font-style="normal" font-weight="bold" font-size="150px" font-family="Helvetica" >2</text></svg>