<?xml version="1.0" standalone="no" ?><!DOCTYPE svg PUBLIC "-//W3C//DTD SVG 1.1//EN" "http://www.w3.org/Graphics/SVG/1.1/DTD/svg11.dtd"><svg width="110px" height="36px" viewBox="0 0 110 36" style="background-color: #ffffff00" xmlns="http://www.w3.org/2000/svg" xmlns:xlink="http://www.w3.org/1999/xlink" version="1.1" ><path stroke="none" fill="#000000" transform="matrix(0.05 0 0 0.05 -307 -1000)" d="M 8105.32,20403.9 L 7166.16,20403.9 L 7166.16,20381.9 L 8105.32,20381.9 Z " /><path stroke="none" fill="#000000" transform="matrix(0.05 0 0 0.05 -307 -1000)" d="M 8298.36,20392.9 C 8298.36,20392.9 8076.6,20449.4 8076.6,20449.4 C 8076.6,20449.4 8104.32,20417.6 8104.32,20392.9 C 8104.32,20367.8 8076.6,20335.5 8076.6,20335.5 C 8076.6,20335.5 8298.36,20392.9 8298.36,20392.9 C 8298.36,20392.9 8298.36,20392.9 8298.36,20392.9 " /><path stroke="#000000" stroke-width="1" fill="none" transform="matrix(0.05 0 0 0.05 -307 -1000)" d="M 8298.36,20392.9 C 8298.36,20392.9 8076.6,20449.4 8076.6,20449.4 C 8076.6,20449.4 8104.32,20417.6 8104.32,20392.9 C 8104.32,20367.8 8076.6,20335.5 8076.6,20335.5 C 8076.6,20335.5 8298.36,20392.9 8298.36,20392.9 C 8298.36,20392.9 8298.36,20392.9 8298.36,20392.9 " /><text x="0" y="0" stroke="none" fill="#000000" transform="matrix(0.05 0 0 0.05 35.4345 9.40274)" font-style="normal" font-weight="bold" font-size="180px" font-family="Helvetica" >OH</text><path stroke="none" fill="#000000" transform="matrix(0.05 0 0 0.05 -307 -1000)" d="M 6669.96,20278.9 L 6659.3,20273 L 6658.34,20261.4 L 6828.82,20162.4 L 6839.91,20181.6 L 6669.96,20278.9 Z " /><path stroke="none" fill="#000000" transform="matrix(0.05 0 0 0.05 -307 -1000)" d="M 6648.78,20280.7 L 6659.3,20273 L 6669.96,20278.9 L 6671.02,20581.1 L 6648.78,20564.9 L 6648.78,20280.7 Z " /><path stroke="none" fill="#000000" transform="matrix(0.05 0 0 0.05 -307 -1000)" d="M 6658.34,20261.4 L 6659.3,20273 L 6648.78,20280.7 L 6378.46,20192.9 L 6369.97,20166.7 L 6658.34,20261.4 Z " /><path stroke="none" fill="#000000" transform="matrix(0.05 0 0 0.05 -307 -1000)" d="M 6369.97,20166.7 L 6378.46,20192.9 L 6211.39,20422.8 L 6183.9,20422.8 L 6369.97,20166.7 Z " /><path stroke="none" fill="#000000" transform="matrix(0.05 0 0 0.05 -307 -1000)" d="M 6183.9,20422.8 L 6211.39,20422.8 L 6378.46,20652.7 L 6369.97,20678.9 L 6183.9,20422.8 Z " /><path stroke="none" fill="#000000" transform="matrix(0.05 0 0 0.05 -307 -1000)" d="M 6369.97,20678.9 L 6378.46,20652.7 L 6648.78,20564.9 L 6671.02,20581.1 L 6369.97,20678.9 Z " /><text x="0" y="0" stroke="none" fill="#000000" transform="matrix(0.05 0 0 0.05 66.6259 12.986)" font-style="normal" font-weight="bold" font-size="200px" font-family="Helvetica" >NaH</text></svg>