<?xml version="1.0" standalone="no" ?><!DOCTYPE svg PUBLIC "-//W3C//DTD SVG 1.1//EN" "http://www.w3.org/Graphics/SVG/1.1/DTD/svg11.dtd"><svg width="104px" height="34px" viewBox="0 0 104 34" style="background-color: #ffffff00" xmlns="http://www.w3.org/2000/svg" xmlns:xlink="http://www.w3.org/1999/xlink" version="1.1" ><text x="0" y="0" stroke="none" fill="#000000" transform="matrix(0.05 0 0 0.05 12.414 8.60666)" font-style="normal" font-weight="bold" font-size="180px" font-family="Helvetica" >O</text><path stroke="none" fill="#000000" transform="matrix(0.05 0 0 0.05 -450 -994)" d="M 9334.56,20087.9 L 9356.74,20088 L 9355.99,20303 L 9333.81,20302.9 L 9334.56,20087.9 Z " /><path stroke="none" fill="#000000" transform="matrix(0.05 0 0 0.05 -450 -994)" d="M 9279.12,20087.7 L 9301.3,20087.8 L 9300.55,20302.8 L 9278.37,20302.7 L 9279.12,20087.7 Z " /><text x="0" y="0" stroke="none" fill="#000000" transform="matrix(0.05 0 0 0.05 25.3048 31.116)" font-style="normal" font-weight="bold" font-size="180px" font-family="Helvetica" >OH</text><path stroke="none" fill="#000000" transform="matrix(0.05 0 0 0.05 -450 -994)" d="M 9317.44,20299 L 9317.48,20273.4 L 9499.45,20380.1 L 9488.29,20399.3 L 9317.44,20299 Z " /><path stroke="none" fill="#000000" transform="matrix(0.05 0 0 0.05 -450 -994)" d="M 9317.48,20273.4 L 9317.44,20299 L 9062.83,20445.3 L 9051.81,20426.1 L 9317.48,20273.4 Z " /><path stroke="none" fill="#000000" transform="matrix(0.05 0 0 0.05 -450 -994)" d="M 10830.3,20337.3 L 9950.04,20337.3 L 9950.04,20315.3 L 10830.3,20315.3 Z " /><path stroke="none" fill="#000000" transform="matrix(0.05 0 0 0.05 -450 -994)" d="M 11023.3,20326.3 C 11023.3,20326.3 10801.6,20382.8 10801.6,20382.8 C 10801.6,20382.8 10829.3,20351 10829.3,20326.3 C 10829.3,20301.2 10801.6,20268.9 10801.6,20268.9 C 10801.6,20268.9 11023.3,20326.3 11023.3,20326.3 C 11023.3,20326.3 11023.3,20326.3 11023.3,20326.3 " /><path stroke="#000000" stroke-width="1" fill="none" transform="matrix(0.05 0 0 0.05 -450 -994)" d="M 11023.3,20326.3 C 11023.3,20326.3 10801.6,20382.8 10801.6,20382.8 C 10801.6,20382.8 10829.3,20351 10829.3,20326.3 C 10829.3,20301.2 10801.6,20268.9 10801.6,20268.9 C 10801.6,20268.9 11023.3,20326.3 11023.3,20326.3 C 11023.3,20326.3 11023.3,20326.3 11023.3,20326.3 " /><text x="0" y="0" stroke="none" fill="#000000" transform="matrix(0.05 0 0 0.05 58.4338 13.658)" font-style="normal" font-weight="bold" font-size="200px" font-family="Helvetica" >Et</text><text x="0" y="0" stroke="none" fill="#000000" transform="matrix(0.05 0 0 0.05 68.4338 15.9578)" font-style="normal" font-weight="bold" font-size="150px" font-family="Helvetica" >3</text><text x="0" y="0" stroke="none" fill="#000000" transform="matrix(0.05 0 0 0.05 72.6049 13.658)" font-style="normal" font-weight="bold" font-size="200px" font-family="Helvetica" >N</text></svg>