<?xml version="1.0" standalone="no" ?><!DOCTYPE svg PUBLIC "-//W3C//DTD SVG 1.1//EN" "http://www.w3.org/Graphics/SVG/1.1/DTD/svg11.dtd"><svg width="102px" height="39px" viewBox="0 0 102 39" style="background-color: #ffffff00" xmlns="http://www.w3.org/2000/svg" xmlns:xlink="http://www.w3.org/1999/xlink" version="1.1" ><path stroke="none" fill="#000000" transform="matrix(0.05 0 0 0.05 -585 -991)" d="M 11767.1,20256 L 11756,20236.8 L 12021,20083.3 L 12021,20108.9 L 11767.1,20256 Z " /><path stroke="none" fill="#000000" transform="matrix(0.05 0 0 0.05 -585 -991)" d="M 12021,20108.9 L 12021,20083.3 L 12291.9,20239.7 L 12269.7,20252.5 L 12021,20108.9 Z " /><text x="0" y="0" stroke="none" fill="#000000" transform="matrix(0.05 0 0 0.05 38.4865 17.0707)" font-style="normal" font-weight="bold" font-size="180px" font-family="Helvetica" >OH</text><path stroke="none" fill="#000000" transform="matrix(0.05 0 0 0.05 -585 -991)" d="M 12332.1,20229.3 L 12321,20210.1 L 12338.5,20196.2 L 12352.9,20221.1 L 12332.1,20229.3 Z " /><path stroke="none" fill="#000000" transform="matrix(0.05 0 0 0.05 -585 -991)" d="M 12391.7,20205.9 L 12371.1,20170.2 L 12388.6,20156.2 L 12412.5,20197.7 L 12391.7,20205.9 Z " /><path stroke="none" fill="#000000" transform="matrix(0.05 0 0 0.05 -585 -991)" d="M 12451.3,20182.5 L 12421.1,20130.3 L 12438.7,20116.3 L 12472.1,20174.3 L 12451.3,20182.5 Z " /><path stroke="none" fill="#000000" transform="matrix(0.05 0 0 0.05 -585 -991)" d="M 13499.9,20164.2 L 12853.8,20164.2 L 12853.8,20142.2 L 13499.9,20142.2 Z " /><path stroke="none" fill="#000000" transform="matrix(0.05 0 0 0.05 -585 -991)" d="M 13693,20153.2 C 13693,20153.2 13471.2,20209.6 13471.2,20209.6 C 13471.2,20209.6 13498.9,20177.9 13498.9,20153.2 C 13498.9,20128 13471.2,20095.7 13471.2,20095.7 C 13471.2,20095.7 13693,20153.2 13693,20153.2 C 13693,20153.2 13693,20153.2 13693,20153.2 " /><path stroke="#000000" stroke-width="1" fill="none" transform="matrix(0.05 0 0 0.05 -585 -991)" d="M 13693,20153.2 C 13693,20153.2 13471.2,20209.6 13471.2,20209.6 C 13471.2,20209.6 13498.9,20177.9 13498.9,20153.2 C 13498.9,20128 13471.2,20095.7 13471.2,20095.7 C 13471.2,20095.7 13693,20153.2 13693,20153.2 C 13693,20153.2 13693,20153.2 13693,20153.2 " /><text x="0" y="0" stroke="none" fill="#000000" transform="matrix(0.05 0 0 0.05 63.018 9.99797)" font-style="normal" font-weight="bold" font-size="200px" font-family="Helvetica" >NaOH</text><path stroke="none" fill="#000000" transform="matrix(0.05 0 0 0.05 -585 -991)" d="M 12269.7,20252.5 L 12291.9,20239.7 L 12291.4,20545.9 L 12269.3,20545.9 L 12269.7,20252.5 Z " /></svg>