<?xml version="1.0" standalone="no" ?><!DOCTYPE svg PUBLIC "-//W3C//DTD SVG 1.1//EN" "http://www.w3.org/Graphics/SVG/1.1/DTD/svg11.dtd"><svg width="98px" height="63px" viewBox="0 0 98 63" style="background-color: #ffffff00" xmlns="http://www.w3.org/2000/svg" xmlns:xlink="http://www.w3.org/1999/xlink" version="1.1" ><path stroke="none" fill="#000000" transform="matrix(0.05 0 0 0.05 -50 -1043)" d="M 1343.61,21906.1 L 1365.83,21919 L 1102.58,22070.4 L 1091.49,22051.2 L 1343.61,21906.1 Z " /><path stroke="none" fill="#000000" transform="matrix(0.05 0 0 0.05 -50 -1043)" d="M 1343.93,21625.6 L 1354.24,21615.3 L 1364.87,21621.4 L 1365.83,21919 L 1343.61,21906.1 L 1343.93,21625.6 Z " /><path stroke="none" fill="#000000" transform="matrix(0.05 0 0 0.05 -50 -1043)" d="M 1337.24,21605.4 L 1354.24,21615.3 L 1343.93,21625.6 L 1057.24,21626.4 L 1057.24,21604.2 L 1337.24,21605.4 Z " /><path stroke="none" fill="#000000" transform="matrix(0.05 0 0 0.05 -50 -1043)" d="M 2710.72,21522.8 L 2064.6,21522.8 L 2064.6,21500.8 L 2710.72,21500.8 Z " /><path stroke="none" fill="#000000" transform="matrix(0.05 0 0 0.05 -50 -1043)" d="M 2903.76,21511.8 C 2903.76,21511.8 2682,21568.2 2682,21568.2 C 2682,21568.2 2709.72,21536.5 2709.72,21511.8 C 2709.72,21486.7 2682,21454.4 2682,21454.4 C 2682,21454.4 2903.76,21511.8 2903.76,21511.8 C 2903.76,21511.8 2903.76,21511.8 2903.76,21511.8 " /><path stroke="#000000" stroke-width="1" fill="none" transform="matrix(0.05 0 0 0.05 -50 -1043)" d="M 2903.76,21511.8 C 2903.76,21511.8 2682,21568.2 2682,21568.2 C 2682,21568.2 2709.72,21536.5 2709.72,21511.8 C 2709.72,21486.7 2682,21454.4 2682,21454.4 C 2682,21454.4 2903.76,21511.8 2903.76,21511.8 C 2903.76,21511.8 2903.76,21511.8 2903.76,21511.8 " /><path stroke="none" fill="#000000" transform="matrix(0.05 0 0 0.05 -50 -1043)" d="M 1358.02,21601.2 L 1354.24,21615.3 L 1337.24,21605.4 L 1196.14,21363.6 L 1215.35,21352.5 L 1358.02,21601.2 Z " /><path stroke="none" fill="#000000" transform="matrix(0.05 0 0 0.05 -50 -1043)" d="M 1601.08,21460.5 L 1611.45,21466.8 L 1611.45,21479 L 1364.87,21621.4 L 1354.24,21615.3 L 1358.02,21601.2 L 1601.08,21460.5 Z " /><path stroke="none" fill="#000000" transform="matrix(0.05 0 0 0.05 -50 -1043)" d="M 1874.21,21605.7 L 1863.12,21624.9 L 1611.45,21479 L 1611.45,21466.8 L 1621.83,21460.5 L 1874.21,21605.7 Z " /><text x="0" y="0" stroke="none" fill="#000000" transform="matrix(0.05 0 0 0.05 27.0724 18.727)" font-style="normal" font-weight="bold" font-size="180px" font-family="Helvetica" >O</text><path stroke="none" fill="#000000" transform="matrix(0.05 0 0 0.05 -50 -1043)" d="M 1621.83,21460.5 L 1611.45,21466.8 L 1601.08,21460.5 L 1600.36,21270.3 L 1622.54,21270.3 L 1621.83,21460.5 Z " /><text x="0" y="0" stroke="none" fill="#000000" transform="matrix(0.05 0 0 0.05 56.56 25.264)" font-style="normal" font-weight="bold" font-size="200px" font-family="Helvetica" >H</text><text x="0" y="0" stroke="none" fill="#000000" transform="matrix(0.05 0 0 0.05 63.7816 27.5638)" font-style="normal" font-weight="bold" font-size="150px" font-family="Helvetica" >3</text><text x="0" y="0" stroke="none" fill="#000000" transform="matrix(0.05 0 0 0.05 67.9528 25.264)" font-style="normal" font-weight="bold" font-size="200px" font-family="Helvetica" >O</text><text x="0" y="0" stroke="none" fill="#000000" transform="matrix(0.05 0 0 0.05 75.7311 21.6653)" font-style="normal" font-weight="bold" font-size="150px" font-family="Helvetica" >+</text><path stroke="#000000" stroke-width="18" fill="none" transform="matrix(0.05 0 0 0.05 -50 -1043)" d="M 1543.55,20983.3 A 68.8704,68.8704 0 1 0 1681.29,20983.3A 68.8704,68.8704 0 1 0 1543.55,20983.3Z " /><path stroke="none" fill="#000000" transform="matrix(0.05 0 0 0.05 -50 -1043)" d="M 1571.33,20974.3 L 1653.51,20974.3 L 1653.51,20992.3 L 1571.33,20992.3 Z " /></svg>