<?xml version="1.0" standalone="no" ?><!DOCTYPE svg PUBLIC "-//W3C//DTD SVG 1.1//EN" "http://www.w3.org/Graphics/SVG/1.1/DTD/svg11.dtd"><svg width="106px" height="23px" viewBox="0 0 106 23" style="background-color: #ffffff00" xmlns="http://www.w3.org/2000/svg" xmlns:xlink="http://www.w3.org/1999/xlink" version="1.1" ><path stroke="none" fill="#000000" transform="matrix(0.05 0 0 0.05 -187 -1065)" d="M 4084.37,21533.2 L 4084.37,21511 L 4383.37,21511 L 4383.37,21533.2 L 4084.37,21533.2 Z " /><path stroke="none" fill="#000000" transform="matrix(0.05 0 0 0.05 -187 -1065)" d="M 4084.37,21588.6 L 4084.37,21566.5 L 4383.37,21566.5 L 4383.37,21588.6 L 4084.37,21588.6 Z " /><path stroke="none" fill="#000000" transform="matrix(0.05 0 0 0.05 -187 -1065)" d="M 4084.37,21644.1 L 4084.37,21621.9 L 4383.37,21621.9 L 4383.37,21644.1 L 4084.37,21644.1 Z " /><text x="0" y="0" stroke="none" fill="#000000" transform="matrix(0.05 0 0 0.05 43.8688 17.1162)" font-style="normal" font-weight="bold" font-size="180px" font-family="Helvetica" >H</text><path stroke="none" fill="#000000" transform="matrix(0.05 0 0 0.05 -187 -1065)" d="M 4383.37,21588.6 L 4383.37,21566.5 L 4600.67,21566.5 L 4600.67,21588.6 L 4383.37,21588.6 Z " /><path stroke="none" fill="#000000" transform="matrix(0.05 0 0 0.05 -187 -1065)" d="M 4084.37,21566.5 L 4084.37,21588.6 L 3785.37,21588.6 L 3785.37,21566.5 L 4084.37,21566.5 Z " /><path stroke="none" fill="#000000" transform="matrix(0.05 0 0 0.05 -187 -1065)" d="M 5614.48,21656 L 4968.36,21656 L 4968.36,21634 L 5614.48,21634 Z " /><path stroke="none" fill="#000000" transform="matrix(0.05 0 0 0.05 -187 -1065)" d="M 5807.52,21645 C 5807.52,21645 5585.76,21701.4 5585.76,21701.4 C 5585.76,21701.4 5613.48,21669.7 5613.48,21645 C 5613.48,21619.9 5585.76,21587.6 5585.76,21587.6 C 5585.76,21587.6 5807.52,21645 5807.52,21645 C 5807.52,21645 5807.52,21645 5807.52,21645 " /><path stroke="#000000" stroke-width="1" fill="none" transform="matrix(0.05 0 0 0.05 -187 -1065)" d="M 5807.52,21645 C 5807.52,21645 5585.76,21701.4 5585.76,21701.4 C 5585.76,21701.4 5613.48,21669.7 5613.48,21645 C 5613.48,21619.9 5585.76,21587.6 5585.76,21587.6 C 5585.76,21587.6 5807.52,21645 5807.52,21645 C 5807.52,21645 5807.52,21645 5807.52,21645 " /><text x="0" y="0" stroke="none" fill="#000000" transform="matrix(0.05 0 0 0.05 69.41 9.92395)" font-style="normal" font-weight="bold" font-size="200px" font-family="Helvetica" >NaH</text></svg>