<?xml version="1.0" standalone="no" ?><!DOCTYPE svg PUBLIC "-//W3C//DTD SVG 1.1//EN" "http://www.w3.org/Graphics/SVG/1.1/DTD/svg11.dtd"><svg width="105px" height="54px" viewBox="0 0 105 54" style="background-color: #ffffff00" xmlns="http://www.w3.org/2000/svg" xmlns:xlink="http://www.w3.org/1999/xlink" version="1.1" ><path stroke="none" fill="#000000" transform="matrix(0.05 0 0 0.05 -326 -1049)" d="M 6576.82,21544.6 L 6599.04,21557.5 L 6599.04,21843.2 L 6576.82,21856 L 6576.82,21544.6 Z " /><path stroke="none" fill="#000000" transform="matrix(0.05 0 0 0.05 -326 -1049)" d="M 7116.14,21856 L 7093.92,21843.2 L 7093.92,21557.5 L 7116.14,21544.6 L 7116.14,21856 Z " /><path stroke="none" fill="#000000" transform="matrix(0.05 0 0 0.05 -326 -1049)" d="M 7116.14,21544.6 L 7093.92,21557.5 L 6846.48,21414.6 L 6846.48,21402.3 L 6856.86,21396 L 7116.14,21544.6 Z " /><path stroke="none" fill="#000000" transform="matrix(0.05 0 0 0.05 -326 -1049)" d="M 6836.1,21396 L 6846.48,21402.3 L 6846.48,21414.6 L 6599.04,21557.5 L 6576.82,21544.6 L 6836.1,21396 Z " /><text x="0" y="0" stroke="none" fill="#000000" transform="matrix(0.05 0 0 0.05 12.8237 9.45482)" font-style="normal" font-weight="bold" font-size="180px" font-family="Helvetica" >OH</text><path stroke="none" fill="#000000" transform="matrix(0.05 0 0 0.05 -326 -1049)" d="M 6856.86,21396 L 6846.48,21402.3 L 6836.1,21396 L 6835.39,21204.8 L 6857.57,21204.8 L 6856.86,21396 Z " /><path stroke="none" fill="#000000" transform="matrix(0.05 0 0 0.05 -326 -1049)" d="M 8385.04,21642.7 L 7326,21642.7 L 7326,21620.7 L 8385.04,21620.7 Z " /><path stroke="none" fill="#000000" transform="matrix(0.05 0 0 0.05 -326 -1049)" d="M 8578.08,21631.7 C 8578.08,21631.7 8356.32,21688.1 8356.32,21688.1 C 8356.32,21688.1 8384.04,21656.4 8384.04,21631.7 C 8384.04,21606.5 8356.32,21574.2 8356.32,21574.2 C 8356.32,21574.2 8578.08,21631.7 8578.08,21631.7 C 8578.08,21631.7 8578.08,21631.7 8578.08,21631.7 " /><path stroke="#000000" stroke-width="1" fill="none" transform="matrix(0.05 0 0 0.05 -326 -1049)" d="M 8578.08,21631.7 C 8578.08,21631.7 8356.32,21688.1 8356.32,21688.1 C 8356.32,21688.1 8384.04,21656.4 8384.04,21631.7 C 8384.04,21606.5 8356.32,21574.2 8356.32,21574.2 C 8356.32,21574.2 8578.08,21631.7 8578.08,21631.7 C 8578.08,21631.7 8578.08,21631.7 8578.08,21631.7 " /><path stroke="none" fill="#000000" transform="matrix(0.05 0 0 0.05 -326 -1049)" d="M 6576.82,21856 L 6599.04,21843.2 L 6846.48,21986 L 6846.48,22011.7 L 6576.82,21856 Z " /><path stroke="none" fill="#000000" transform="matrix(0.05 0 0 0.05 -326 -1049)" d="M 6846.48,22011.7 L 6846.48,21986 L 7093.92,21843.2 L 7116.14,21856 L 6846.48,22011.7 Z " /><text x="0" y="0" stroke="none" fill="#000000" transform="matrix(0.05 0 0 0.05 54.286 25.924)" font-style="normal" font-weight="bold" font-size="200px" font-family="Helvetica" >KO</text><text x="0" y="0" stroke="none" fill="#000000" transform="matrix(0.05 0 0 0.05 69.286 22.3253)" font-style="normal" font-weight="bold" font-size="150px" font-family="Helvetica" >t</text><text x="0" y="0" stroke="none" fill="#000000" transform="matrix(0.05 0 0 0.05 71.7835 25.924)" font-style="normal" font-weight="bold" font-size="200px" font-family="Helvetica" >Bu</text></svg>