<?xml version="1.0" standalone="no" ?><!DOCTYPE svg PUBLIC "-//W3C//DTD SVG 1.1//EN" "http://www.w3.org/Graphics/SVG/1.1/DTD/svg11.dtd"><svg width="103px" height="54px" viewBox="0 0 103 54" style="background-color: #ffffff00" xmlns="http://www.w3.org/2000/svg" xmlns:xlink="http://www.w3.org/1999/xlink" version="1.1" ><path stroke="none" fill="#000000" transform="matrix(0.05 0 0 0.05 -476 -1047)" d="M 9560.5,21504.7 L 9582.71,21517.5 L 9582.71,21803.2 L 9560.5,21816.1 L 9560.5,21504.7 Z " /><path stroke="none" fill="#000000" transform="matrix(0.05 0 0 0.05 -476 -1047)" d="M 10099.8,21816.1 L 10077.6,21803.2 L 10077.6,21517.5 L 10099.8,21504.7 L 10099.8,21816.1 Z " /><path stroke="none" fill="#000000" transform="matrix(0.05 0 0 0.05 -476 -1047)" d="M 10043.9,21777.4 L 10021.7,21777.4 L 10021.7,21543.4 L 10043.9,21543.4 L 10043.9,21777.4 Z " /><path stroke="none" fill="#000000" transform="matrix(0.05 0 0 0.05 -476 -1047)" d="M 10099.8,21504.7 L 10077.6,21517.5 L 9830.16,21374.6 L 9830.16,21362.4 L 9840.54,21356.1 L 10099.8,21504.7 Z " /><path stroke="none" fill="#000000" transform="matrix(0.05 0 0 0.05 -476 -1047)" d="M 9819.78,21356.1 L 9830.16,21362.4 L 9830.16,21374.6 L 9582.71,21517.5 L 9560.5,21504.7 L 9819.78,21356.1 Z " /><path stroke="none" fill="#000000" transform="matrix(0.05 0 0 0.05 -476 -1047)" d="M 9824.62,21416.8 L 9835.7,21436 L 9633.07,21553 L 9621.98,21533.8 L 9824.62,21416.8 Z " /><text x="0" y="0" stroke="none" fill="#000000" transform="matrix(0.05 0 0 0.05 12.0077 9.45682)" font-style="normal" font-weight="bold" font-size="180px" font-family="Helvetica" >OH</text><path stroke="none" fill="#000000" transform="matrix(0.05 0 0 0.05 -476 -1047)" d="M 9840.54,21356.1 L 9830.16,21362.4 L 9819.78,21356.1 L 9819.07,21164.8 L 9841.25,21164.8 L 9840.54,21356.1 Z " /><path stroke="none" fill="#000000" transform="matrix(0.05 0 0 0.05 -476 -1047)" d="M 11328.8,21589.4 L 10269.7,21589.4 L 10269.7,21567.4 L 11328.8,21567.4 Z " /><path stroke="none" fill="#000000" transform="matrix(0.05 0 0 0.05 -476 -1047)" d="M 11521.8,21578.4 C 11521.8,21578.4 11300,21634.8 11300,21634.8 C 11300,21634.8 11327.8,21603.1 11327.8,21578.4 C 11327.8,21553.3 11300,21521 11300,21521 C 11300,21521 11521.8,21578.4 11521.8,21578.4 C 11521.8,21578.4 11521.8,21578.4 11521.8,21578.4 " /><path stroke="#000000" stroke-width="1" fill="none" transform="matrix(0.05 0 0 0.05 -476 -1047)" d="M 11521.8,21578.4 C 11521.8,21578.4 11300,21634.8 11300,21634.8 C 11300,21634.8 11327.8,21603.1 11327.8,21578.4 C 11327.8,21553.3 11300,21521 11300,21521 C 11300,21521 11521.8,21578.4 11521.8,21578.4 C 11521.8,21578.4 11521.8,21578.4 11521.8,21578.4 " /><path stroke="none" fill="#000000" transform="matrix(0.05 0 0 0.05 -476 -1047)" d="M 9560.5,21816.1 L 9582.71,21803.2 L 9830.16,21946.1 L 9830.16,21971.7 L 9560.5,21816.1 Z " /><path stroke="none" fill="#000000" transform="matrix(0.05 0 0 0.05 -476 -1047)" d="M 9621.98,21787 L 9633.07,21767.8 L 9835.7,21884.7 L 9824.62,21903.9 L 9621.98,21787 Z " /><path stroke="none" fill="#000000" transform="matrix(0.05 0 0 0.05 -476 -1047)" d="M 9830.16,21971.7 L 9830.16,21946.1 L 10077.6,21803.2 L 10099.8,21816.1 L 9830.16,21971.7 Z " /><text x="0" y="0" stroke="none" fill="#000000" transform="matrix(0.05 0 0 0.05 51.472 25.26)" font-style="normal" font-weight="bold" font-size="200px" font-family="Helvetica" >NaOH</text></svg>