<?xml version="1.0" standalone="no" ?><!DOCTYPE svg PUBLIC "-//W3C//DTD SVG 1.1//EN" "http://www.w3.org/Graphics/SVG/1.1/DTD/svg11.dtd"><svg width="102px" height="32px" viewBox="0 0 102 32" style="background-color: #ffffff00" xmlns="http://www.w3.org/2000/svg" xmlns:xlink="http://www.w3.org/1999/xlink" version="1.1" ><path stroke="none" fill="#000000" transform="matrix(0.05 0 0 0.05 -595 -1054)" d="M 11966.9,21614.6 L 11955.8,21595.4 L 12220.8,21441.9 L 12220.8,21467.6 L 11966.9,21614.6 Z " /><path stroke="none" fill="#000000" transform="matrix(0.05 0 0 0.05 -595 -1054)" d="M 11994.6,21662.7 L 11983.5,21643.4 L 12215.2,21509.7 L 12226.3,21528.9 L 11994.6,21662.7 Z " /><path stroke="none" fill="#000000" transform="matrix(0.05 0 0 0.05 -595 -1054)" d="M 12220.8,21467.6 L 12220.8,21441.9 L 12480.4,21592.9 L 12480.4,21618.6 L 12220.8,21467.6 Z " /><text x="0" y="0" stroke="none" fill="#000000" transform="matrix(0.05 0 0 0.05 38.4765 22.0027)" font-style="normal" font-weight="bold" font-size="180px" font-family="Helvetica" >OH</text><path stroke="none" fill="#000000" transform="matrix(0.05 0 0 0.05 -595 -1054)" d="M 12480.4,21618.6 L 12480.4,21592.9 L 12649.7,21494.4 L 12660.8,21513.6 L 12480.4,21618.6 Z " /><path stroke="none" fill="#000000" transform="matrix(0.05 0 0 0.05 -595 -1054)" d="M 13699.7,21522.8 L 13053.6,21522.8 L 13053.6,21500.8 L 13699.7,21500.8 Z " /><path stroke="none" fill="#000000" transform="matrix(0.05 0 0 0.05 -595 -1054)" d="M 13892.8,21511.8 C 13892.8,21511.8 13671,21568.2 13671,21568.2 C 13671,21568.2 13698.7,21536.5 13698.7,21511.8 C 13698.7,21486.7 13671,21454.4 13671,21454.4 C 13671,21454.4 13892.8,21511.8 13892.8,21511.8 C 13892.8,21511.8 13892.8,21511.8 13892.8,21511.8 " /><path stroke="#000000" stroke-width="1" fill="none" transform="matrix(0.05 0 0 0.05 -595 -1054)" d="M 13892.8,21511.8 C 13892.8,21511.8 13671,21568.2 13671,21568.2 C 13671,21568.2 13698.7,21536.5 13698.7,21511.8 C 13698.7,21486.7 13671,21454.4 13671,21454.4 C 13671,21454.4 13892.8,21511.8 13892.8,21511.8 C 13892.8,21511.8 13892.8,21511.8 13892.8,21511.8 " /><text x="0" y="0" stroke="none" fill="#000000" transform="matrix(0.05 0 0 0.05 61.2058 13.598)" font-style="normal" font-weight="bold" font-size="200px" font-family="Helvetica" >KO</text><text x="0" y="0" stroke="none" fill="#000000" transform="matrix(0.05 0 0 0.05 76.2058 9.99933)" font-style="normal" font-weight="bold" font-size="150px" font-family="Helvetica" >t</text><text x="0" y="0" stroke="none" fill="#000000" transform="matrix(0.05 0 0 0.05 78.7034 13.598)" font-style="normal" font-weight="bold" font-size="200px" font-family="Helvetica" >Bu</text></svg>