<?xml version="1.0" standalone="no" ?><!DOCTYPE svg PUBLIC "-//W3C//DTD SVG 1.1//EN" "http://www.w3.org/Graphics/SVG/1.1/DTD/svg11.dtd"><svg width="98px" height="35px" viewBox="0 0 98 35" style="background-color: #ffffff00" xmlns="http://www.w3.org/2000/svg" xmlns:xlink="http://www.w3.org/1999/xlink" version="1.1" ><path stroke="none" fill="#000000" transform="matrix(0.05 0 0 0.05 -51 -1182)" d="M 1071.59,24038.6 L 1060.51,24019.4 L 1324.99,23866.1 L 1324.99,23891.8 L 1071.59,24038.6 Z " /><path stroke="none" fill="#000000" transform="matrix(0.05 0 0 0.05 -51 -1182)" d="M 1324.99,23891.8 L 1324.99,23866.1 L 1584.24,24016.9 L 1583.93,24029 L 1569.83,24032.8 L 1324.99,23891.8 Z " /><text x="0" y="0" stroke="none" fill="#000000" transform="matrix(0.05 0 0 0.05 37.894 15.2147)" font-style="normal" font-weight="bold" font-size="180px" font-family="Helvetica" >Br</text><path stroke="none" fill="#000000" transform="matrix(0.05 0 0 0.05 -51 -1182)" d="M 1597.84,24032.4 L 1583.93,24029 L 1584.24,24016.9 L 1743.7,23924 L 1754.79,23943.2 L 1597.84,24032.4 Z " /><path stroke="none" fill="#000000" transform="matrix(0.05 0 0 0.05 -51 -1182)" d="M 2737.36,24013.6 L 2091.24,24013.6 L 2091.24,23991.6 L 2737.36,23991.6 Z " /><path stroke="none" fill="#000000" transform="matrix(0.05 0 0 0.05 -51 -1182)" d="M 2930.4,24002.6 C 2930.4,24002.6 2708.64,24059.1 2708.64,24059.1 C 2708.64,24059.1 2736.36,24027.3 2736.36,24002.6 C 2736.36,23977.5 2708.64,23945.2 2708.64,23945.2 C 2708.64,23945.2 2930.4,24002.6 2930.4,24002.6 C 2930.4,24002.6 2930.4,24002.6 2930.4,24002.6 " /><path stroke="#000000" stroke-width="1" fill="none" transform="matrix(0.05 0 0 0.05 -51 -1182)" d="M 2930.4,24002.6 C 2930.4,24002.6 2708.64,24059.1 2708.64,24059.1 C 2708.64,24059.1 2736.36,24027.3 2736.36,24002.6 C 2736.36,23977.5 2708.64,23945.2 2708.64,23945.2 C 2708.64,23945.2 2930.4,24002.6 2930.4,24002.6 C 2930.4,24002.6 2930.4,24002.6 2930.4,24002.6 " /><path stroke="none" fill="#000000" transform="matrix(0.05 0 0 0.05 -51 -1182)" d="M 1583.93,24048.7 L 1583.93,24029 L 1597.84,24032.4 L 1743.04,24282.4 L 1723.83,24293.5 L 1583.93,24048.7 Z " /><text x="0" y="0" stroke="none" fill="#000000" transform="matrix(0.05 0 0 0.05 66.8819 10.14)" font-style="normal" font-weight="bold" font-size="200px" font-family="Helvetica" >KI</text><path stroke="none" fill="#000000" transform="matrix(0.05 0 0 0.05 -51 -1182)" d="M 1569.83,24032.8 L 1583.93,24029 L 1583.93,24048.7 L 1444.04,24293.5 L 1424.83,24282.4 L 1569.83,24032.8 Z " /><text x="0" y="0" stroke="none" fill="#000000" transform="matrix(0.05 0 0 0.05 61.554 29.454)" font-style="normal" font-weight="bold" font-size="200px" font-family="Helvetica" >DMF</text></svg>