<?xml version="1.0" standalone="no" ?><!DOCTYPE svg PUBLIC "-//W3C//DTD SVG 1.1//EN" "http://www.w3.org/Graphics/SVG/1.1/DTD/svg11.dtd"><svg width="108px" height="54px" viewBox="0 0 108 54" style="background-color: #ffffff00" xmlns="http://www.w3.org/2000/svg" xmlns:xlink="http://www.w3.org/1999/xlink" version="1.1" ><path stroke="none" fill="#000000" transform="matrix(0.05 0 0 0.05 -182 -1172)" d="M 3698.38,23992.7 L 3720.6,24005.5 L 3720.6,24292.8 L 3698.38,24305.6 L 3698.38,23992.7 Z " /><path stroke="none" fill="#000000" transform="matrix(0.05 0 0 0.05 -182 -1172)" d="M 3698.38,24305.6 L 3720.6,24292.8 L 3969.36,24436.4 L 3969.36,24462.1 L 3698.38,24305.6 Z " /><path stroke="none" fill="#000000" transform="matrix(0.05 0 0 0.05 -182 -1172)" d="M 3969.36,24462.1 L 3969.36,24436.4 L 4218.12,24292.8 L 4240.33,24305.6 L 3969.36,24462.1 Z " /><path stroke="none" fill="#000000" transform="matrix(0.05 0 0 0.05 -182 -1172)" d="M 4240.33,24305.6 L 4218.12,24292.8 L 4218.12,24005.5 L 4240.33,23992.7 L 4240.33,24305.6 Z " /><path stroke="none" fill="#000000" transform="matrix(0.05 0 0 0.05 -182 -1172)" d="M 4240.33,23992.7 L 4218.12,24005.5 L 3969.36,23861.9 L 3969.36,23849.6 L 3979.75,23843.3 L 4240.33,23992.7 Z " /><path stroke="none" fill="#000000" transform="matrix(0.05 0 0 0.05 -182 -1172)" d="M 3958.97,23843.3 L 3969.36,23849.6 L 3969.36,23861.9 L 3720.6,24005.5 L 3698.38,23992.7 L 3958.97,23843.3 Z " /><text x="0" y="0" stroke="none" fill="#000000" transform="matrix(0.05 0 0 0.05 13.2182 8.74474)" font-style="normal" font-weight="bold" font-size="180px" font-family="Helvetica" >Cl</text><path stroke="none" fill="#000000" transform="matrix(0.05 0 0 0.05 -182 -1172)" d="M 3979.75,23843.3 L 3969.36,23849.6 L 3958.97,23843.3 L 3958.27,23649.4 L 3980.45,23649.4 L 3979.75,23843.3 Z " /><path stroke="none" fill="#000000" transform="matrix(0.05 0 0 0.05 -182 -1172)" d="M 5561.2,24080.2 L 4502.16,24080.2 L 4502.16,24058.2 L 5561.2,24058.2 Z " /><path stroke="none" fill="#000000" transform="matrix(0.05 0 0 0.05 -182 -1172)" d="M 5754.24,24069.2 C 5754.24,24069.2 5532.48,24125.7 5532.48,24125.7 C 5532.48,24125.7 5560.2,24093.9 5560.2,24069.2 C 5560.2,24044.1 5532.48,24011.8 5532.48,24011.8 C 5532.48,24011.8 5754.24,24069.2 5754.24,24069.2 C 5754.24,24069.2 5754.24,24069.2 5754.24,24069.2 " /><path stroke="#000000" stroke-width="1" fill="none" transform="matrix(0.05 0 0 0.05 -182 -1172)" d="M 5754.24,24069.2 C 5754.24,24069.2 5532.48,24125.7 5532.48,24125.7 C 5532.48,24125.7 5560.2,24093.9 5560.2,24069.2 C 5560.2,24044.1 5532.48,24011.8 5532.48,24011.8 C 5532.48,24011.8 5754.24,24069.2 5754.24,24069.2 C 5754.24,24069.2 5754.24,24069.2 5754.24,24069.2 " /><text x="0" y="0" stroke="none" fill="#000000" transform="matrix(0.05 0 0 0.05 64.7074 16.8331)" font-style="normal" font-weight="bold" font-size="180px" font-family="Helvetica" >O</text><path stroke="none" fill="#000000" transform="matrix(0.05 0 0 0.05 -182 -1172)" d="M 4750.75,23871 L 4739.67,23851.8 L 4914.28,23751 L 4925.37,23770.2 L 4750.75,23871 Z " /><path stroke="none" fill="#000000" transform="matrix(0.05 0 0 0.05 -182 -1172)" d="M 5083.49,23770.5 L 5094.58,23751.3 L 5268.64,23851.8 L 5257.55,23871 L 5083.49,23770.5 Z " /><text x="0" y="0" stroke="none" fill="#000000" transform="matrix(0.05 0 0 0.05 61.09 41.452)" font-style="normal" font-weight="bold" font-size="200px" font-family="Helvetica" >heat</text></svg>