<?xml version="1.0" standalone="no" ?><!DOCTYPE svg PUBLIC "-//W3C//DTD SVG 1.1//EN" "http://www.w3.org/Graphics/SVG/1.1/DTD/svg11.dtd"><svg width="109px" height="50px" viewBox="0 0 109 50" style="background-color: #ffffff00" xmlns="http://www.w3.org/2000/svg" xmlns:xlink="http://www.w3.org/1999/xlink" version="1.1" ><path stroke="none" fill="#000000" transform="matrix(0.05 0 0 0.05 -322 -1170)" d="M 7739.69,23529.5 L 7750.77,23510.3 L 8004.88,23657.5 L 8004.62,23669.6 L 7993.99,23675.8 L 7739.69,23529.5 Z " /><text x="0" y="0" stroke="none" fill="#000000" transform="matrix(0.05 0 0 0.05 87.7005 9.23273)" font-style="normal" font-weight="bold" font-size="180px" font-family="Helvetica" >OH</text><path stroke="none" fill="#000000" transform="matrix(0.05 0 0 0.05 -322 -1170)" d="M 8015.28,23675.5 L 8004.62,23669.6 L 8004.88,23657.5 L 8174.89,23558.5 L 8185.98,23577.7 L 8015.28,23675.5 Z " /><path stroke="none" fill="#000000" transform="matrix(0.05 0 0 0.05 -322 -1170)" d="M 8385.04,24066.9 L 7445.88,24066.9 L 7445.88,24044.9 L 8385.04,24044.9 Z " /><path stroke="none" fill="#000000" transform="matrix(0.05 0 0 0.05 -322 -1170)" d="M 8578.08,24055.9 C 8578.08,24055.9 8356.32,24112.4 8356.32,24112.4 C 8356.32,24112.4 8384.04,24080.6 8384.04,24055.9 C 8384.04,24030.8 8356.32,23998.5 8356.32,23998.5 C 8356.32,23998.5 8578.08,24055.9 8578.08,24055.9 C 8578.08,24055.9 8578.08,24055.9 8578.08,24055.9 " /><path stroke="#000000" stroke-width="1" fill="none" transform="matrix(0.05 0 0 0.05 -322 -1170)" d="M 8578.08,24055.9 C 8578.08,24055.9 8356.32,24112.4 8356.32,24112.4 C 8356.32,24112.4 8384.04,24080.6 8384.04,24055.9 C 8384.04,24030.8 8356.32,23998.5 8356.32,23998.5 C 8356.32,23998.5 8578.08,24055.9 8578.08,24055.9 C 8578.08,24055.9 8578.08,24055.9 8578.08,24055.9 " /><path stroke="none" fill="#000000" transform="matrix(0.05 0 0 0.05 -322 -1170)" d="M 7993.99,23675.8 L 8004.62,23669.6 L 8015.28,23675.5 L 8015.71,23969.2 L 7993.53,23969.2 L 7993.99,23675.8 Z " /><text x="0" y="0" stroke="none" fill="#000000" transform="matrix(0.05 0 0 0.05 38.0025 23.2187)" font-style="normal" font-weight="bold" font-size="180px" font-family="Helvetica" >I</text><path stroke="none" fill="#000000" transform="matrix(0.05 0 0 0.05 -322 -1170)" d="M 6976.31,23955.3 L 6965.66,23949.4 L 6964.6,23937.7 L 7159.36,23824.7 L 7170.44,23843.9 L 6976.31,23955.3 Z " /><path stroke="none" fill="#000000" transform="matrix(0.05 0 0 0.05 -322 -1170)" d="M 6955.14,23957 L 6965.66,23949.4 L 6976.31,23955.3 L 6977.38,24257.4 L 6955.14,24241.2 L 6955.14,23957 Z " /><path stroke="none" fill="#000000" transform="matrix(0.05 0 0 0.05 -322 -1170)" d="M 6899.13,23989.6 L 6921.31,23989.6 L 6921.31,24208.6 L 6899.13,24208.6 L 6899.13,23989.6 Z " /><path stroke="none" fill="#000000" transform="matrix(0.05 0 0 0.05 -322 -1170)" d="M 6964.6,23937.7 L 6965.66,23949.4 L 6955.14,23957 L 6684.82,23869.2 L 6676.33,23843 L 6964.6,23937.7 Z " /><path stroke="none" fill="#000000" transform="matrix(0.05 0 0 0.05 -322 -1170)" d="M 6676.33,23843 L 6684.82,23869.2 L 6517.75,24099.1 L 6490.26,24099.1 L 6676.33,23843 Z " /><path stroke="none" fill="#000000" transform="matrix(0.05 0 0 0.05 -322 -1170)" d="M 6490.26,24099.1 L 6517.75,24099.1 L 6684.82,24329.1 L 6676.33,24355.2 L 6490.26,24099.1 Z " /><path stroke="none" fill="#000000" transform="matrix(0.05 0 0 0.05 -322 -1170)" d="M 6676.33,24355.2 L 6684.82,24329.1 L 6955.14,24241.2 L 6977.38,24257.4 L 6676.33,24355.2 Z " /><text x="0" y="0" stroke="none" fill="#000000" transform="matrix(0.05 0 0 0.05 64.946 45.45)" font-style="normal" font-weight="bold" font-size="200px" font-family="Helvetica" >heat</text></svg>