<?xml version="1.0" standalone="no" ?><!DOCTYPE svg PUBLIC "-//W3C//DTD SVG 1.1//EN" "http://www.w3.org/Graphics/SVG/1.1/DTD/svg11.dtd"><svg width="109px" height="52px" viewBox="0 0 109 52" style="background-color: #ffffff00" xmlns="http://www.w3.org/2000/svg" xmlns:xlink="http://www.w3.org/1999/xlink" version="1.1" ><path stroke="none" fill="#000000" transform="matrix(0.05 0 0 0.05 -467 -1168)" d="M 9386.47,23885.9 L 9408.69,23898.7 L 9408.69,24185.4 L 9386.47,24198.3 L 9386.47,23885.9 Z " /><path stroke="none" fill="#000000" transform="matrix(0.05 0 0 0.05 -467 -1168)" d="M 9386.47,24198.3 L 9408.69,24185.4 L 9657,24328.8 L 9657,24354.5 L 9386.47,24198.3 Z " /><path stroke="none" fill="#000000" transform="matrix(0.05 0 0 0.05 -467 -1168)" d="M 9657,24354.5 L 9657,24328.8 L 9905.31,24185.4 L 9927.53,24198.3 L 9657,24354.5 Z " /><path stroke="none" fill="#000000" transform="matrix(0.05 0 0 0.05 -467 -1168)" d="M 9927.53,24198.3 L 9905.31,24185.4 L 9905.31,23898.7 L 9927.53,23885.9 L 9927.53,24198.3 Z " /><path stroke="none" fill="#000000" transform="matrix(0.05 0 0 0.05 -467 -1168)" d="M 9927.53,23885.9 L 9905.31,23898.7 L 9657,23755.4 L 9657,23743.1 L 9670.77,23739.1 L 9927.53,23885.9 Z " /><path stroke="none" fill="#000000" transform="matrix(0.05 0 0 0.05 -467 -1168)" d="M 9642.9,23739.3 L 9657,23743.1 L 9657,23755.4 L 9408.69,23898.7 L 9386.47,23885.9 L 9642.9,23739.3 Z " /><text x="0" y="0" stroke="none" fill="#000000" transform="matrix(0.05 0 0 0.05 19.8247 9.44566)" font-style="normal" font-weight="bold" font-size="180px" font-family="Helvetica" >OTs</text><path stroke="none" fill="#000000" transform="matrix(0.05 0 0 0.05 -467 -1168)" d="M 9670.77,23739.1 L 9657,23743.1 L 9657.38,23724 L 9746.18,23566.4 L 9765.38,23577.5 L 9670.77,23739.1 Z " /><path stroke="none" fill="#000000" transform="matrix(0.05 0 0 0.05 -467 -1168)" d="M 11275.5,23933.7 L 10216.4,23933.7 L 10216.4,23911.7 L 11275.5,23911.7 Z " /><path stroke="none" fill="#000000" transform="matrix(0.05 0 0 0.05 -467 -1168)" d="M 11468.5,23922.7 C 11468.5,23922.7 11246.8,23979.2 11246.8,23979.2 C 11246.8,23979.2 11274.5,23947.4 11274.5,23922.7 C 11274.5,23897.6 11246.8,23865.3 11246.8,23865.3 C 11246.8,23865.3 11468.5,23922.7 11468.5,23922.7 C 11468.5,23922.7 11468.5,23922.7 11468.5,23922.7 " /><path stroke="#000000" stroke-width="1" fill="none" transform="matrix(0.05 0 0 0.05 -467 -1168)" d="M 11468.5,23922.7 C 11468.5,23922.7 11246.8,23979.2 11246.8,23979.2 C 11246.8,23979.2 11274.5,23947.4 11274.5,23922.7 C 11274.5,23897.6 11246.8,23865.3 11246.8,23865.3 C 11246.8,23865.3 11468.5,23922.7 11468.5,23922.7 C 11468.5,23922.7 11468.5,23922.7 11468.5,23922.7 " /><path stroke="none" fill="#000000" transform="matrix(0.05 0 0 0.05 -467 -1168)" d="M 9657.38,23724 L 9657,23743.1 L 9642.9,23739.3 L 9497.9,23489.7 L 9517.1,23478.6 L 9657.38,23724 Z " /><text x="0" y="0" stroke="none" fill="#000000" transform="matrix(0.05 0 0 0.05 59.1399 21.476)" font-style="normal" font-weight="bold" font-size="200px" font-family="Helvetica" >NaSH</text><text x="0" y="0" stroke="none" fill="#000000" transform="matrix(0.05 0 0 0.05 55.9741 40.79)" font-style="normal" font-weight="bold" font-size="200px" font-family="Helvetica" >acetone</text></svg>