<?xml version="1.0" standalone="no" ?><!DOCTYPE svg PUBLIC "-//W3C//DTD SVG 1.1//EN" "http://www.w3.org/Graphics/SVG/1.1/DTD/svg11.dtd"><svg width="102px" height="40px" viewBox="0 0 102 40" style="background-color: #ffffff00" xmlns="http://www.w3.org/2000/svg" xmlns:xlink="http://www.w3.org/1999/xlink" version="1.1" ><path stroke="none" fill="#000000" transform="matrix(0.05 0 0 0.05 -150 -1067)" d="M 3056.27,21840.8 L 3045.19,21821.6 L 3309.67,21668.3 L 3309.67,21694 L 3056.27,21840.8 Z " /><path stroke="none" fill="#000000" transform="matrix(0.05 0 0 0.05 -150 -1067)" d="M 3309.67,21694 L 3309.67,21668.3 L 3568.87,21819.1 L 3568.61,21831.2 L 3554.51,21835 L 3309.67,21694 Z " /><text x="0" y="0" stroke="none" fill="#000000" transform="matrix(0.05 0 0 0.05 37.8775 20.3247)" font-style="normal" font-weight="bold" font-size="180px" font-family="Helvetica" >O</text><path stroke="none" fill="#000000" transform="matrix(0.05 0 0 0.05 -150 -1067)" d="M 3582.55,21834.7 L 3568.61,21831.2 L 3568.87,21819.1 L 3737.68,21720.8 L 3748.77,21740 L 3582.55,21834.7 Z " /><path stroke="none" fill="#000000" transform="matrix(0.05 0 0 0.05 -150 -1067)" d="M 4788.64,21749.2 L 4142.52,21749.2 L 4142.52,21727.2 L 4788.64,21727.2 Z " /><path stroke="none" fill="#000000" transform="matrix(0.05 0 0 0.05 -150 -1067)" d="M 4981.68,21738.2 C 4981.68,21738.2 4759.92,21794.7 4759.92,21794.7 C 4759.92,21794.7 4787.64,21762.9 4787.64,21738.2 C 4787.64,21713.1 4759.92,21680.8 4759.92,21680.8 C 4759.92,21680.8 4981.68,21738.2 4981.68,21738.2 C 4981.68,21738.2 4981.68,21738.2 4981.68,21738.2 " /><path stroke="#000000" stroke-width="1" fill="none" transform="matrix(0.05 0 0 0.05 -150 -1067)" d="M 4981.68,21738.2 C 4981.68,21738.2 4759.92,21794.7 4759.92,21794.7 C 4759.92,21794.7 4787.64,21762.9 4787.64,21738.2 C 4787.64,21713.1 4759.92,21680.8 4759.92,21680.8 C 4759.92,21680.8 4981.68,21738.2 4981.68,21738.2 C 4981.68,21738.2 4981.68,21738.2 4981.68,21738.2 " /><path stroke="none" fill="#000000" transform="matrix(0.05 0 0 0.05 -150 -1067)" d="M 3568.61,21850.9 L 3568.61,21831.2 L 3582.55,21834.7 L 3727.72,22084.6 L 3708.51,22095.7 L 3568.61,21850.9 Z " /><path stroke="none" fill="#000000" transform="matrix(0.05 0 0 0.05 -150 -1067)" d="M 3554.51,21835 L 3568.61,21831.2 L 3568.61,21850.9 L 3428.72,22095.7 L 3409.51,22084.6 L 3554.51,21835 Z " /><path stroke="none" fill="#000000" transform="matrix(0.05 0 0 0.05 -150 -1067)" d="M 3838.64,21583.7 L 3816.47,21583.7 L 3816.47,21382.2 L 3838.64,21382.2 L 3838.64,21583.7 Z " /><text x="0" y="0" stroke="none" fill="#000000" transform="matrix(0.05 0 0 0.05 57.1259 11.9199)" font-style="normal" font-weight="bold" font-size="200px" font-family="Helvetica" >CH</text><text x="0" y="0" stroke="none" fill="#000000" transform="matrix(0.05 0 0 0.05 71.5693 14.2197)" font-style="normal" font-weight="bold" font-size="150px" font-family="Helvetica" >3</text><text x="0" y="0" stroke="none" fill="#000000" transform="matrix(0.05 0 0 0.05 75.7404 11.9199)" font-style="normal" font-weight="bold" font-size="200px" font-family="Helvetica" >OH</text><text x="0" y="0" stroke="none" fill="#000000" transform="matrix(0.05 0 0 0.05 64.452 30.568)" font-style="normal" font-weight="bold" font-size="200px" font-family="Helvetica" >heat</text></svg>