<?xml version="1.0" standalone="no" ?><!DOCTYPE svg PUBLIC "-//W3C//DTD SVG 1.1//EN" "http://www.w3.org/Graphics/SVG/1.1/DTD/svg11.dtd"><svg width="108px" height="49px" viewBox="0 0 108 49" style="background-color: #ffffff00" xmlns="http://www.w3.org/2000/svg" xmlns:xlink="http://www.w3.org/1999/xlink" version="1.1" ><path stroke="none" fill="#000000" transform="matrix(0.05 0 0 0.05 -38 -1248)" d="M 1316.11,25717.1 L 1338.32,25730 L 1074.21,25881.9 L 1063.12,25862.7 L 1316.11,25717.1 Z " /><path stroke="none" fill="#000000" transform="matrix(0.05 0 0 0.05 -38 -1248)" d="M 1068.66,25262.9 L 1068.66,25288.6 L 816.131,25434.9 L 805.043,25415.7 L 1068.66,25262.9 Z " /><path stroke="none" fill="#000000" transform="matrix(0.05 0 0 0.05 -38 -1248)" d="M 1316.11,25431.4 L 1326.74,25425.3 L 1337.37,25431.4 L 1338.32,25730 L 1316.11,25717.1 L 1316.11,25431.4 Z " /><path stroke="none" fill="#000000" transform="matrix(0.05 0 0 0.05 -38 -1248)" d="M 1317.47,25408.5 L 1326.74,25425.3 L 1316.11,25431.4 L 1068.66,25288.6 L 1068.66,25262.9 L 1317.47,25408.5 Z " /><path stroke="none" fill="#000000" transform="matrix(0.05 0 0 0.05 -38 -1248)" d="M 2684.08,25332.3 L 2037.96,25332.3 L 2037.96,25310.3 L 2684.08,25310.3 Z " /><path stroke="none" fill="#000000" transform="matrix(0.05 0 0 0.05 -38 -1248)" d="M 2877.12,25321.3 C 2877.12,25321.3 2655.36,25377.8 2655.36,25377.8 C 2655.36,25377.8 2683.08,25346 2683.08,25321.3 C 2683.08,25296.2 2655.36,25263.9 2655.36,25263.9 C 2655.36,25263.9 2877.12,25321.3 2877.12,25321.3 C 2877.12,25321.3 2877.12,25321.3 2877.12,25321.3 " /><path stroke="#000000" stroke-width="1" fill="none" transform="matrix(0.05 0 0 0.05 -38 -1248)" d="M 2877.12,25321.3 C 2877.12,25321.3 2655.36,25377.8 2655.36,25377.8 C 2655.36,25377.8 2683.08,25346 2683.08,25321.3 C 2683.08,25296.2 2655.36,25263.9 2655.36,25263.9 C 2655.36,25263.9 2877.12,25321.3 2877.12,25321.3 C 2877.12,25321.3 2877.12,25321.3 2877.12,25321.3 " /><text x="0" y="0" stroke="none" fill="#000000" transform="matrix(0.05 0 0 0.05 69.892 10.074)" font-style="normal" font-weight="bold" font-size="200px" font-family="Helvetica" >NaBr</text><path stroke="none" fill="#000000" transform="matrix(0.05 0 0 0.05 -38 -1248)" d="M 1336,25408.5 L 1326.74,25425.3 L 1317.47,25408.5 L 1315.65,25221.8 L 1337.83,25221.8 L 1336,25408.5 Z " /><text x="0" y="0" stroke="none" fill="#000000" transform="matrix(0.05 0 0 0.05 27.0867 11.6031)" font-style="normal" font-weight="bold" font-size="180px" font-family="Helvetica" >I</text><path stroke="none" fill="#000000" transform="matrix(0.05 0 0 0.05 -38 -1248)" d="M 1584.81,25262.9 L 1584.81,25288.6 L 1337.37,25431.4 L 1326.74,25425.3 L 1336,25408.5 L 1584.81,25262.9 Z " /><path stroke="none" fill="#000000" transform="matrix(0.05 0 0 0.05 -38 -1248)" d="M 1848.43,25415.7 L 1837.35,25434.9 L 1584.81,25288.6 L 1584.81,25262.9 L 1848.43,25415.7 Z " /><text x="0" y="0" stroke="none" fill="#000000" transform="matrix(0.05 0 0 0.05 68.4743 30.0928)" font-style="normal" font-weight="bold" font-size="200px" font-family="Helvetica" >DMSO</text></svg>