<?xml version="1.0" standalone="no" ?><!DOCTYPE svg PUBLIC "-//W3C//DTD SVG 1.1//EN" "http://www.w3.org/Graphics/SVG/1.1/DTD/svg11.dtd"><svg width="91px" height="38px" viewBox="0 0 91 38" style="background-color: #ffffff00" xmlns="http://www.w3.org/2000/svg" xmlns:xlink="http://www.w3.org/1999/xlink" version="1.1" ><path stroke="none" fill="#000000" transform="matrix(0.05 0 0 0.05 -199 -1250)" d="M 4234.58,25422.4 L 4253.78,25433.5 L 4097.28,25704.5 L 4078.08,25693.5 L 4234.58,25422.4 Z " /><path stroke="none" fill="#000000" transform="matrix(0.05 0 0 0.05 -199 -1250)" d="M 4186.56,25394.7 L 4205.77,25405.8 L 4049.27,25676.8 L 4030.06,25665.7 L 4186.56,25394.7 Z " /><path stroke="none" fill="#000000" transform="matrix(0.05 0 0 0.05 -199 -1250)" d="M 4218.44,25417.5 L 4205.57,25439.7 L 4054.07,25176.3 L 4073.27,25165.2 L 4218.44,25417.5 Z " /><path stroke="none" fill="#000000" transform="matrix(0.05 0 0 0.05 -199 -1250)" d="M 4205.57,25439.7 L 4218.44,25417.5 L 4427.09,25416.8 L 4427.09,25439 L 4205.57,25439.7 Z " /><text x="0" y="0" stroke="none" fill="#000000" transform="matrix(0.05 0 0 0.05 23.2088 24.6352)" font-style="normal" font-weight="bold" font-size="180px" font-family="Helvetica" >Br</text><path stroke="none" fill="#000000" transform="matrix(0.05 0 0 0.05 -199 -1250)" d="M 5561.2,25385.6 L 4915.08,25385.6 L 4915.08,25363.6 L 5561.2,25363.6 Z " /><path stroke="none" fill="#000000" transform="matrix(0.05 0 0 0.05 -199 -1250)" d="M 5754.24,25374.6 C 5754.24,25374.6 5532.48,25431 5532.48,25431 C 5532.48,25431 5560.2,25399.3 5560.2,25374.6 C 5560.2,25349.5 5532.48,25317.2 5532.48,25317.2 C 5532.48,25317.2 5754.24,25374.6 5754.24,25374.6 C 5754.24,25374.6 5754.24,25374.6 5754.24,25374.6 " /><path stroke="#000000" stroke-width="1" fill="none" transform="matrix(0.05 0 0 0.05 -199 -1250)" d="M 5754.24,25374.6 C 5754.24,25374.6 5532.48,25431 5532.48,25431 C 5532.48,25431 5560.2,25399.3 5560.2,25374.6 C 5560.2,25349.5 5532.48,25317.2 5532.48,25317.2 C 5532.48,25317.2 5754.24,25374.6 5754.24,25374.6 C 5754.24,25374.6 5754.24,25374.6 5754.24,25374.6 " /><text x="0" y="0" stroke="none" fill="#000000" transform="matrix(0.05 0 0 0.05 49.4179 10.0719)" font-style="normal" font-weight="bold" font-size="200px" font-family="Helvetica" >CH</text><text x="0" y="0" stroke="none" fill="#000000" transform="matrix(0.05 0 0 0.05 63.8613 12.3717)" font-style="normal" font-weight="bold" font-size="150px" font-family="Helvetica" >3</text><text x="0" y="0" stroke="none" fill="#000000" transform="matrix(0.05 0 0 0.05 68.0324 10.0719)" font-style="normal" font-weight="bold" font-size="200px" font-family="Helvetica" >OH</text><text x="0" y="0" stroke="none" fill="#000000" transform="matrix(0.05 0 0 0.05 55.412 31.384)" font-style="normal" font-weight="bold" font-size="200px" font-family="Helvetica" >heat</text></svg>