<?xml version="1.0" standalone="no" ?><!DOCTYPE svg PUBLIC "-//W3C//DTD SVG 1.1//EN" "http://www.w3.org/Graphics/SVG/1.1/DTD/svg11.dtd"><svg width="110px" height="42px" viewBox="0 0 110 42" style="background-color: #ffffff00" xmlns="http://www.w3.org/2000/svg" xmlns:xlink="http://www.w3.org/1999/xlink" version="1.1" ><path stroke="none" fill="#000000" transform="matrix(0.05 0 0 0.05 -323 -1254)" d="M 7686.41,25234.4 L 7697.49,25215.2 L 7951.6,25362.4 L 7951.55,25388.1 L 7686.41,25234.4 Z " /><text x="0" y="0" stroke="none" fill="#000000" transform="matrix(0.05 0 0 0.05 84.5353 10.4807)" font-style="normal" font-weight="bold" font-size="180px" font-family="Helvetica" >SH</text><path stroke="none" fill="#000000" transform="matrix(0.05 0 0 0.05 -323 -1254)" d="M 7951.55,25388.1 L 7951.6,25362.4 L 8121.22,25263.7 L 8132.31,25282.9 L 7951.55,25388.1 Z " /><path stroke="none" fill="#000000" transform="matrix(0.05 0 0 0.05 -323 -1254)" d="M 8425,25572.1 L 7485.84,25572.1 L 7485.84,25550.1 L 8425,25550.1 Z " /><path stroke="none" fill="#000000" transform="matrix(0.05 0 0 0.05 -323 -1254)" d="M 8618.04,25561.1 C 8618.04,25561.1 8396.28,25617.5 8396.28,25617.5 C 8396.28,25617.5 8424,25585.8 8424,25561.1 C 8424,25535.9 8396.28,25503.6 8396.28,25503.6 C 8396.28,25503.6 8618.04,25561.1 8618.04,25561.1 C 8618.04,25561.1 8618.04,25561.1 8618.04,25561.1 " /><path stroke="#000000" stroke-width="1" fill="none" transform="matrix(0.05 0 0 0.05 -323 -1254)" d="M 8618.04,25561.1 C 8618.04,25561.1 8396.28,25617.5 8396.28,25617.5 C 8396.28,25617.5 8424,25585.8 8424,25561.1 C 8424,25535.9 8396.28,25503.6 8396.28,25503.6 C 8396.28,25503.6 8618.04,25561.1 8618.04,25561.1 C 8618.04,25561.1 8618.04,25561.1 8618.04,25561.1 " /><text x="0" y="0" stroke="none" fill="#000000" transform="matrix(0.05 0 0 0.05 32.8529 8.99512)" font-style="normal" font-weight="bold" font-size="180px" font-family="Helvetica" >I</text><path stroke="none" fill="#000000" transform="matrix(0.05 0 0 0.05 -323 -1254)" d="M 7007.24,25448 L 6992.3,25454.5 L 6987.77,25442 L 7086.18,25269.7 L 7105.38,25280.8 L 7007.24,25448 Z " /><path stroke="none" fill="#000000" transform="matrix(0.05 0 0 0.05 -323 -1254)" d="M 6981.78,25462.2 L 6992.3,25454.5 L 7002.41,25467.7 L 7004.02,25762.6 L 6981.78,25746.4 L 6981.78,25462.2 Z " /><path stroke="none" fill="#000000" transform="matrix(0.05 0 0 0.05 -323 -1254)" d="M 6987.77,25442 L 6992.3,25454.5 L 6981.78,25462.2 L 6711.46,25374.3 L 6702.97,25348.2 L 6987.77,25442 Z " /><path stroke="none" fill="#000000" transform="matrix(0.05 0 0 0.05 -323 -1254)" d="M 6702.97,25348.2 L 6711.46,25374.3 L 6544.39,25604.3 L 6516.9,25604.3 L 6702.97,25348.2 Z " /><path stroke="none" fill="#000000" transform="matrix(0.05 0 0 0.05 -323 -1254)" d="M 6516.9,25604.3 L 6544.39,25604.3 L 6711.46,25834.2 L 6702.97,25860.4 L 6516.9,25604.3 Z " /><path stroke="none" fill="#000000" transform="matrix(0.05 0 0 0.05 -323 -1254)" d="M 6702.97,25860.4 L 6711.46,25834.2 L 6981.78,25746.4 L 7004.02,25762.6 L 6702.97,25860.4 Z " /><path stroke="none" fill="#000000" transform="matrix(0.05 0 0 0.05 -323 -1254)" d="M 7002.41,25467.7 L 6992.3,25454.5 L 7007.24,25448 L 7284.49,25521.3 L 7278.75,25542.8 L 7002.41,25467.7 Z " /><text x="0" y="0" stroke="none" fill="#000000" transform="matrix(0.05 0 0 0.05 64.612 38.706)" font-style="normal" font-weight="bold" font-size="200px" font-family="Helvetica" >DMSO</text></svg>