<?xml version="1.0" standalone="no" ?><!DOCTYPE svg PUBLIC "-//W3C//DTD SVG 1.1//EN" "http://www.w3.org/Graphics/SVG/1.1/DTD/svg11.dtd"><svg width="109px" height="46px" viewBox="0 0 109 46" style="background-color: #ffffff00" xmlns="http://www.w3.org/2000/svg" xmlns:xlink="http://www.w3.org/1999/xlink" version="1.1" ><path stroke="none" fill="#000000" transform="matrix(0.05 0 0 0.05 -465 -1250)" d="M 9886.2,25868.4 L 9864.03,25868.4 L 9864.48,25576.5 L 9886.7,25563.7 L 9886.2,25868.4 Z " /><path stroke="none" fill="#000000" transform="matrix(0.05 0 0 0.05 -465 -1250)" d="M 9886.7,25563.7 L 9864.48,25576.5 L 9617.04,25433.7 L 9617.04,25421.4 L 9627.44,25415.1 L 9886.7,25563.7 Z " /><path stroke="none" fill="#000000" transform="matrix(0.05 0 0 0.05 -465 -1250)" d="M 9825.22,25592.8 L 9814.13,25612 L 9611.5,25495 L 9622.58,25475.8 L 9825.22,25592.8 Z " /><path stroke="none" fill="#000000" transform="matrix(0.05 0 0 0.05 -465 -1250)" d="M 9606.64,25415.1 L 9617.04,25421.4 L 9617.04,25433.7 L 9364.51,25580 L 9353.42,25560.8 L 9606.64,25415.1 Z " /><text x="0" y="0" stroke="none" fill="#000000" transform="matrix(0.05 0 0 0.05 12.6022 9.40872)" font-style="normal" font-weight="bold" font-size="180px" font-family="Helvetica" >Br</text><path stroke="none" fill="#000000" transform="matrix(0.05 0 0 0.05 -465 -1250)" d="M 9627.44,25415.1 L 9617.04,25421.4 L 9606.64,25415.1 L 9605.95,25217.9 L 9628.13,25217.9 L 9627.44,25415.1 Z " /><path stroke="none" fill="#000000" transform="matrix(0.05 0 0 0.05 -465 -1250)" d="M 11235.5,25612 L 10176.5,25612 L 10176.5,25590 L 11235.5,25590 Z " /><path stroke="none" fill="#000000" transform="matrix(0.05 0 0 0.05 -465 -1250)" d="M 11428.6,25601 C 11428.6,25601 11206.8,25657.5 11206.8,25657.5 C 11206.8,25657.5 11234.5,25625.7 11234.5,25601 C 11234.5,25575.9 11206.8,25543.6 11206.8,25543.6 C 11206.8,25543.6 11428.6,25601 11428.6,25601 C 11428.6,25601 11428.6,25601 11428.6,25601 " /><path stroke="#000000" stroke-width="1" fill="none" transform="matrix(0.05 0 0 0.05 -465 -1250)" d="M 11428.6,25601 C 11428.6,25601 11206.8,25657.5 11206.8,25657.5 C 11206.8,25657.5 11234.5,25625.7 11234.5,25601 C 11234.5,25575.9 11206.8,25543.6 11206.8,25543.6 C 11206.8,25543.6 11428.6,25601 11428.6,25601 C 11428.6,25601 11428.6,25601 11428.6,25601 " /><text x="0" y="0" stroke="none" fill="#000000" transform="matrix(0.05 0 0 0.05 60.7498 21.3939)" font-style="normal" font-weight="bold" font-size="200px" font-family="Helvetica" >Ph</text><text x="0" y="0" stroke="none" fill="#000000" transform="matrix(0.05 0 0 0.05 73.5281 23.6937)" font-style="normal" font-weight="bold" font-size="150px" font-family="Helvetica" >3</text><text x="0" y="0" stroke="none" fill="#000000" transform="matrix(0.05 0 0 0.05 77.6993 21.3939)" font-style="normal" font-weight="bold" font-size="200px" font-family="Helvetica" >P</text></svg>