<?xml version="1.0" standalone="no" ?><!DOCTYPE svg PUBLIC "-//W3C//DTD SVG 1.1//EN" "http://www.w3.org/Graphics/SVG/1.1/DTD/svg11.dtd"><svg width="105px" height="39px" viewBox="0 0 105 39" style="background-color: #ffffff00" xmlns="http://www.w3.org/2000/svg" xmlns:xlink="http://www.w3.org/1999/xlink" version="1.1" ><path stroke="none" fill="#000000" transform="matrix(0.05 0 0 0.05 -621 -1253)" d="M 12733.3,25769.5 L 12733.3,25795.1 L 12470.5,25642.8 L 12481.6,25623.6 L 12733.3,25769.5 Z " /><path stroke="none" fill="#000000" transform="matrix(0.05 0 0 0.05 -621 -1253)" d="M 12979.8,25627.1 L 12990.5,25633.2 L 12990.5,25645.5 L 12733.3,25795.1 L 12733.3,25769.5 L 12979.8,25627.1 Z " /><path stroke="none" fill="#000000" transform="matrix(0.05 0 0 0.05 -621 -1253)" d="M 13000.3,25616.9 L 12990.5,25633.2 L 12979.8,25627.1 L 12979.4,25336.2 L 13001.6,25336.2 L 13000.3,25616.9 Z " /><path stroke="none" fill="#000000" transform="matrix(0.05 0 0 0.05 -621 -1253)" d="M 14285.8,25518.8 L 13639.7,25518.8 L 13639.7,25496.8 L 14285.8,25496.8 Z " /><path stroke="none" fill="#000000" transform="matrix(0.05 0 0 0.05 -621 -1253)" d="M 14478.8,25507.8 C 14478.8,25507.8 14257.1,25564.2 14257.1,25564.2 C 14257.1,25564.2 14284.8,25532.5 14284.8,25507.8 C 14284.8,25482.7 14257.1,25450.4 14257.1,25450.4 C 14257.1,25450.4 14478.8,25507.8 14478.8,25507.8 C 14478.8,25507.8 14478.8,25507.8 14478.8,25507.8 " /><path stroke="#000000" stroke-width="1" fill="none" transform="matrix(0.05 0 0 0.05 -621 -1253)" d="M 14478.8,25507.8 C 14478.8,25507.8 14257.1,25564.2 14257.1,25564.2 C 14257.1,25564.2 14284.8,25532.5 14284.8,25507.8 C 14284.8,25482.7 14257.1,25450.4 14257.1,25450.4 C 14257.1,25450.4 14478.8,25507.8 14478.8,25507.8 C 14478.8,25507.8 14478.8,25507.8 14478.8,25507.8 " /><path stroke="none" fill="#000000" transform="matrix(0.05 0 0 0.05 -621 -1253)" d="M 13009.6,25632.9 L 12990.5,25633.2 L 13000.3,25616.9 L 13157.8,25523.8 L 13168.9,25543 L 13009.6,25632.9 Z " /><text x="0" y="0" stroke="none" fill="#000000" transform="matrix(0.05 0 0 0.05 37.8834 24.4755)" font-style="normal" font-weight="bold" font-size="180px" font-family="Helvetica" >OH</text><path stroke="none" fill="#000000" transform="matrix(0.05 0 0 0.05 -621 -1253)" d="M 13253.2,25772.1 L 13242.1,25791.3 L 12990.5,25645.5 L 12990.5,25633.2 L 13009.6,25632.9 L 13253.2,25772.1 Z " /><path stroke="none" fill="#000000" transform="matrix(0.05 0 0 0.05 -621 -1253)" d="M 13627.1,25194.5 L 13638.2,25175.3 L 13892.3,25322.5 L 13892.3,25348.2 L 13627.1,25194.5 Z " /><text x="0" y="0" stroke="none" fill="#000000" transform="matrix(0.05 0 0 0.05 83.5713 9.48271)" font-style="normal" font-weight="bold" font-size="180px" font-family="Helvetica" >SH</text><path stroke="none" fill="#000000" transform="matrix(0.05 0 0 0.05 -621 -1253)" d="M 13892.3,25348.2 L 13892.3,25322.5 L 14062.7,25223.3 L 14073.8,25242.5 L 13892.3,25348.2 Z " /><text x="0" y="0" stroke="none" fill="#000000" transform="matrix(0.05 0 0 0.05 68.976 34.3779)" font-style="normal" font-weight="bold" font-size="200px" font-family="Helvetica" >heat</text></svg>