<?xml version="1.0" standalone="no" ?>
<!DOCTYPE svg PUBLIC "-//W3C//DTD SVG 1.1//EN" "http://www.w3.org/Graphics/SVG/1.1/DTD/svg11.dtd">
<svg width="100%" height="100%" viewBox="0 0 818 460" style="background-color: #ffffff00" xmlns="http://www.w3.org/2000/svg" xmlns:xlink="http://www.w3.org/1999/xlink" version="1.1" >
<path stroke="#000000" stroke-width="22" fill="none" transform="matrix(0.05 0 0 0.05 -10 -11)" d="M 16494.7,9367.47 C 16494.7,9367.47 16494.7,284.602 16494.7,284.602 C 16494.7,284.602 268.683,284.602 268.683,284.602 C 268.683,284.602 268.683,9367.47 268.683,9367.47 C 268.683,9367.47 16494.7,9367.47 16494.7,9367.47 " />
<text x="0" y="0" stroke="none" fill="#000000" transform="matrix(0.05 0 0 0.05 13.94 20.388)" font-style="normal" font-weight="bold" font-size="280px" font-family="Helvetica" >
This </text>
<text x="0" y="0" stroke="none" fill="#000000" transform="matrix(0.05 0 0 0.05 46.6089 20.388)" font-style="normal" font-weight="bold" font-size="280px" font-family="Helvetica" >
resource </text>
<text x="0" y="0" stroke="none" fill="#000000" transform="matrix(0.05 0 0 0.05 109.643 20.388)" font-style="normal" font-weight="bold" font-size="280px" font-family="Helvetica" >
provides </text>
<text x="0" y="0" stroke="none" fill="#000000" transform="matrix(0.05 0 0 0.05 171.884 20.388)" font-style="normal" font-weight="bold" font-size="280px" font-family="Helvetica" >
an </text>
<text x="0" y="0" stroke="none" fill="#000000" transform="matrix(0.05 0 0 0.05 192.112 20.388)" font-style="normal" font-weight="bold" font-size="280px" font-family="Helvetica" >
overview </text>
<text x="0" y="0" stroke="none" fill="#000000" transform="matrix(0.05 0 0 0.05 255.925 20.388)" font-style="normal" font-weight="bold" font-size="280px" font-family="Helvetica" >
of </text>
<text x="0" y="0" stroke="none" fill="#000000" transform="matrix(0.05 0 0 0.05 273.029 20.388)" font-style="normal" font-weight="bold" font-size="280px" font-family="Helvetica" >
reactions </text>
<text x="0" y="0" stroke="none" fill="#000000" transform="matrix(0.05 0 0 0.05 339.167 20.388)" font-style="normal" font-weight="bold" font-size="280px" font-family="Helvetica" >
typically </text>
<text x="0" y="0" stroke="none" fill="#000000" transform="matrix(0.05 0 0 0.05 399.084 20.388)" font-style="normal" font-weight="bold" font-size="280px" font-family="Helvetica" >
taught </text>
<text x="0" y="0" stroke="none" fill="#000000" transform="matrix(0.05 0 0 0.05 445.739 20.388)" font-style="normal" font-weight="bold" font-size="280px" font-family="Helvetica" >
in </text>
<text x="0" y="0" stroke="none" fill="#000000" transform="matrix(0.05 0 0 0.05 462.07 20.388)" font-style="normal" font-weight="bold" font-size="280px" font-family="Helvetica" >
Sophomore </text>
<text x="0" y="0" stroke="none" fill="#000000" transform="matrix(0.05 0 0 0.05 543.739 20.388)" font-style="normal" font-weight="bold" font-size="280px" font-family="Helvetica" >
Organic </text>
<text x="0" y="0" stroke="none" fill="#000000" transform="matrix(0.05 0 0 0.05 600.532 20.388)" font-style="normal" font-weight="bold" font-size="280px" font-family="Helvetica" >
Chemistry.</text>
<text x="0" y="0" stroke="none" fill="#b3b3b3" transform="matrix(0.05 0 0 0.05 13.94 35.463)" font-style="normal" font-weight="normal" font-size="280px" font-family="Helvetica" >
• </text>
<text x="0" y="0" stroke="none" fill="#b3b3b3" transform="matrix(0.05 0 0 0.05 22.731 35.463)" font-style="normal" font-weight="normal" font-size="280px" font-family="Helvetica" >
Click </text>
<text x="0" y="0" stroke="none" fill="#b3b3b3" transform="matrix(0.05 0 0 0.05 56.9517 35.463)" font-style="normal" font-weight="normal" font-size="280px" font-family="Helvetica" >
on </text>
<text x="0" y="0" stroke="none" fill="#b3b3b3" transform="matrix(0.05 0 0 0.05 76.4136 35.463)" font-style="normal" font-weight="normal" font-size="280px" font-family="Helvetica" >
reagents, </text>
<text x="0" y="0" stroke="none" fill="#b3b3b3" transform="matrix(0.05 0 0 0.05 138.675 35.463)" font-style="normal" font-weight="normal" font-size="280px" font-family="Helvetica" >
products, </text>
<text x="0" y="0" stroke="none" fill="#b3b3b3" transform="matrix(0.05 0 0 0.05 200.151 35.463)" font-style="normal" font-weight="normal" font-size="280px" font-family="Helvetica" >
reactants </text>
<text x="0" y="0" stroke="none" fill="#b3b3b3" transform="matrix(0.05 0 0 0.05 261.627 35.463)" font-style="normal" font-weight="normal" font-size="280px" font-family="Helvetica" >
as </text>
<text x="0" y="0" stroke="none" fill="#b3b3b3" transform="matrix(0.05 0 0 0.05 280.302 35.463)" font-style="normal" font-weight="normal" font-size="280px" font-family="Helvetica" >
a </text>
<text x="0" y="0" stroke="none" fill="#b3b3b3" transform="matrix(0.05 0 0 0.05 291.978 35.463)" font-style="normal" font-weight="normal" font-size="280px" font-family="Helvetica" >
way </text>
<text x="0" y="0" stroke="none" fill="#b3b3b3" transform="matrix(0.05 0 0 0.05 320.764 35.463)" font-style="normal" font-weight="normal" font-size="280px" font-family="Helvetica" >
to </text>
<text x="0" y="0" stroke="none" fill="#b3b3b3" transform="matrix(0.05 0 0 0.05 336.33 35.463)" font-style="normal" font-weight="normal" font-size="280px" font-family="Helvetica" >
navigate </text>
<text x="0" y="0" stroke="none" fill="#b3b3b3" transform="matrix(0.05 0 0 0.05 393.15 35.463)" font-style="normal" font-weight="normal" font-size="280px" font-family="Helvetica" >
the </text>
<text x="0" y="0" stroke="none" fill="#b3b3b3" transform="matrix(0.05 0 0 0.05 416.502 35.463)" font-style="normal" font-weight="normal" font-size="280px" font-family="Helvetica" >
website.</text>
<text x="0" y="0" stroke="none" fill="#b3b3b3" transform="matrix(0.05 0 0 0.05 13.94 50.538)" font-style="normal" font-weight="normal" font-size="280px" font-family="Helvetica" >
• </text>
<text x="0" y="0" stroke="none" fill="#b3b3b3" transform="matrix(0.05 0 0 0.05 22.731 50.538)" font-style="normal" font-weight="normal" font-size="280px" font-family="Helvetica" >
Click </text>
<text x="0" y="0" stroke="none" fill="#b3b3b3" transform="matrix(0.05 0 0 0.05 56.9517 50.538)" font-style="normal" font-weight="normal" font-size="280px" font-family="Helvetica" >
on </text>
<text x="0" y="0" stroke="none" fill="#b3b3b3" transform="matrix(0.05 0 0 0.05 76.4136 50.538)" font-style="normal" font-weight="normal" font-size="280px" font-family="Helvetica" >
buttons </text>
<text x="0" y="0" stroke="none" fill="#b3b3b3" transform="matrix(0.05 0 0 0.05 126.227 50.538)" font-style="normal" font-weight="normal" font-size="280px" font-family="Helvetica" >
at </text>
<text x="0" y="0" stroke="none" fill="#b3b3b3" transform="matrix(0.05 0 0 0.05 141.793 50.538)" font-style="normal" font-weight="normal" font-size="280px" font-family="Helvetica" >
bottom </text>
<text x="0" y="0" stroke="none" fill="#b3b3b3" transform="matrix(0.05 0 0 0.05 188.482 50.538)" font-style="normal" font-weight="normal" font-size="280px" font-family="Helvetica" >
left </text>
<text x="0" y="0" stroke="none" fill="#b3b3b3" transform="matrix(0.05 0 0 0.05 211.047 50.538)" font-style="normal" font-weight="normal" font-size="280px" font-family="Helvetica" >
for </text>
<text x="0" y="0" stroke="none" fill="#b3b3b3" transform="matrix(0.05 0 0 0.05 231.275 50.538)" font-style="normal" font-weight="normal" font-size="280px" font-family="Helvetica" >
a </text>
<text x="0" y="0" stroke="none" fill="#b3b3b3" transform="matrix(0.05 0 0 0.05 242.951 50.538)" font-style="normal" font-weight="normal" font-size="280px" font-family="Helvetica" >
self-quiz.</text>
<text x="0" y="0" stroke="none" fill="#000000" transform="matrix(0.05 0 0 0.05 25.644 126.256)" font-style="normal" font-weight="bold" font-size="200px" font-family="Helvetica" >
Color </text>
<text x="0" y="0" stroke="none" fill="#000000" transform="matrix(0.05 0 0 0.05 54.5307 126.256)" font-style="normal" font-weight="bold" font-size="200px" font-family="Helvetica" >
scheme </text>
<text x="0" y="0" stroke="none" fill="#000000" transform="matrix(0.05 0 0 0.05 94.5551 126.256)" font-style="normal" font-weight="bold" font-size="200px" font-family="Helvetica" >
used:</text>
<path stroke="none" fill="#000000" transform="matrix(0.05 0 0 0.05 -10 -11)" d="M 1405.36,3396.72 L 1416.44,3377.52 L 1670.29,3524.6 L 1670.29,3536.88 L 1659.89,3543.17 L 1405.36,3396.72 Z " />
<path stroke="none" fill="#000000" transform="matrix(0.05 0 0 0.05 -10 -11)" d="M 1680.69,3543.17 L 1670.29,3536.88 L 1670.29,3524.6 L 1924.14,3377.52 L 1935.23,3396.72 L 1680.69,3543.17 Z " />
<text x="0" y="0" stroke="none" fill="#107f01" transform="matrix(0.05 0 0 0.05 70.2649 184.059)" font-style="normal" font-weight="bold" font-size="180px" font-family="Helvetica" >
Br</text>
<path stroke="none" fill="#000000" transform="matrix(0.05 0 0 0.05 -10 -11)" d="M 1659.89,3543.17 L 1670.29,3536.88 L 1680.69,3543.17 L 1681.38,3740.38 L 1659.2,3740.38 L 1659.89,3543.17 Z " />
<path stroke="none" fill="#000000" transform="matrix(0.05 0 0 0.05 -10 -11)" d="M 2764.88,3649.88 L 2149.28,3649.88 L 2149.28,3627.88 L 2764.88,3627.88 Z " />
<path stroke="none" fill="#000000" transform="matrix(0.05 0 0 0.05 -10 -11)" d="M 2957.92,3638.88 C 2957.92,3638.88 2736.16,3695.32 2736.16,3695.32 C 2736.16,3695.32 2763.88,3663.57 2763.88,3638.88 C 2763.88,3613.75 2736.16,3581.44 2736.16,3581.44 C 2736.16,3581.44 2957.92,3638.88 2957.92,3638.88 C 2957.92,3638.88 2957.92,3638.88 2957.92,3638.88 " />
<path stroke="#000000" stroke-width="1" fill="none" transform="matrix(0.05 0 0 0.05 -10 -11)" d="M 2957.92,3638.88 C 2957.92,3638.88 2736.16,3695.32 2736.16,3695.32 C 2736.16,3695.32 2763.88,3663.57 2763.88,3638.88 C 2763.88,3613.75 2736.16,3581.44 2736.16,3581.44 C 2736.16,3581.44 2957.92,3638.88 2957.92,3638.88 C 2957.92,3638.88 2957.92,3638.88 2957.92,3638.88 " />
<path stroke="none" fill="#000000" transform="matrix(0.05 0 0 0.05 -10 -11)" d="M 3190.86,3301.82 L 3201.95,3282.62 L 3455.8,3429.7 L 3455.8,3441.98 L 3445.4,3448.28 L 3190.86,3301.82 Z " />
<path stroke="none" fill="#000000" transform="matrix(0.05 0 0 0.05 -10 -11)" d="M 3466.2,3448.28 L 3455.8,3441.98 L 3455.8,3429.7 L 3709.65,3282.62 L 3720.74,3301.82 L 3466.2,3448.28 Z " />
<text x="0" y="0" stroke="none" fill="#0000ff" transform="matrix(0.05 0 0 0.05 159.54 179.314)" font-style="normal" font-weight="bold" font-size="180px" font-family="Helvetica" >
C</text>
<path stroke="none" fill="#ff0000" transform="matrix(0.05 0 0 0.05 -10 -11)" d="M 3445.4,3448.28 L 3455.8,3441.98 L 3466.2,3448.28 L 3466.89,3645.25 L 3444.71,3645.25 L 3445.4,3448.28 Z " />
<text x="0" y="0" stroke="none" fill="#0000ff" transform="matrix(0.05 0 0 0.05 159.54 194.29)" font-style="normal" font-weight="bold" font-size="180px" font-family="Helvetica" >
C</text>
<path stroke="none" fill="#0000ff" transform="matrix(0.05 0 0 0.05 -10 -11)" d="M 3500.15,3841.73 L 3522.33,3841.73 L 3522.33,3944.77 L 3500.15,3944.77 L 3500.15,3841.73 Z " />
<path stroke="none" fill="#0000ff" transform="matrix(0.05 0 0 0.05 -10 -11)" d="M 3444.71,3841.73 L 3466.89,3841.73 L 3466.89,3944.77 L 3444.71,3944.77 L 3444.71,3841.73 Z " />
<path stroke="none" fill="#0000ff" transform="matrix(0.05 0 0 0.05 -10 -11)" d="M 3389.27,3841.73 L 3411.45,3841.73 L 3411.45,3944.77 L 3389.27,3944.77 L 3389.27,3841.73 Z " />
<path stroke="none" fill="#0000ff" transform="matrix(0.05 0 0 0.05 -10 -11)" d="M 3444.71,4141.25 L 3466.89,4141.25 L 3466.89,4340.54 L 3444.71,4340.54 L 3444.71,4141.25 Z " />
<text x="0" y="0" stroke="none" fill="#107f01" transform="matrix(0.05 0 0 0.05 24.048 208.184)" font-style="normal" font-weight="normal" font-size="200px" font-family="Helvetica" >
green</text>
<text x="0" y="0" stroke="none" fill="#000000" transform="matrix(0.05 0 0 0.05 49.6242 208.184)" font-style="normal" font-weight="normal" font-size="200px" font-family="Helvetica" >
 </text>
<text x="0" y="0" stroke="none" fill="#000000" transform="matrix(0.05 0 0 0.05 52.4025 208.184)" font-style="normal" font-weight="normal" font-size="200px" font-family="Helvetica" >
- </text>
<text x="0" y="0" stroke="none" fill="#000000" transform="matrix(0.05 0 0 0.05 58.5109 208.184)" font-style="normal" font-weight="normal" font-size="200px" font-family="Helvetica" >
good </text>
<text x="0" y="0" stroke="none" fill="#000000" transform="matrix(0.05 0 0 0.05 83.5353 208.184)" font-style="normal" font-weight="normal" font-size="200px" font-family="Helvetica" >
leaving </text>
<text x="0" y="0" stroke="none" fill="#000000" transform="matrix(0.05 0 0 0.05 118.003 208.184)" font-style="normal" font-weight="normal" font-size="200px" font-family="Helvetica" >
group</text>
<text x="0" y="0" stroke="none" fill="#ff0000" transform="matrix(0.05 0 0 0.05 182.779 165.624)" font-style="normal" font-weight="normal" font-size="200px" font-family="Helvetica" >
red</text>
<text x="0" y="0" stroke="none" fill="#000000" transform="matrix(0.05 0 0 0.05 197.232 165.624)" font-style="normal" font-weight="normal" font-size="200px" font-family="Helvetica" >
 </text>
<text x="0" y="0" stroke="none" fill="#000000" transform="matrix(0.05 0 0 0.05 200.011 165.624)" font-style="normal" font-weight="normal" font-size="200px" font-family="Helvetica" >
- </text>
<text x="0" y="0" stroke="none" fill="#000000" transform="matrix(0.05 0 0 0.05 206.119 165.624)" font-style="normal" font-weight="normal" font-size="200px" font-family="Helvetica" >
formation </text>
<text x="0" y="0" stroke="none" fill="#000000" transform="matrix(0.05 0 0 0.05 250.582 165.624)" font-style="normal" font-weight="normal" font-size="200px" font-family="Helvetica" >
of </text>
<text x="0" y="0" stroke="none" fill="#000000" transform="matrix(0.05 0 0 0.05 261.7 165.624)" font-style="normal" font-weight="normal" font-size="200px" font-family="Helvetica" >
C-C </text>
<text x="0" y="0" stroke="none" fill="#000000" transform="matrix(0.05 0 0 0.05 282.252 165.624)" font-style="normal" font-weight="normal" font-size="200px" font-family="Helvetica" >
or </text>
<text x="0" y="0" stroke="none" fill="#000000" transform="matrix(0.05 0 0 0.05 293.922 165.624)" font-style="normal" font-weight="normal" font-size="200px" font-family="Helvetica" >
C=C </text>
<text x="0" y="0" stroke="none" fill="#000000" transform="matrix(0.05 0 0 0.05 316.983 165.624)" font-style="normal" font-weight="normal" font-size="200px" font-family="Helvetica" >
bond</text>
<text x="0" y="0" stroke="none" fill="#0000ff" transform="matrix(0.05 0 0 0.05 182.872 186.904)" font-style="normal" font-weight="normal" font-size="200px" font-family="Helvetica" >
blue</text>
<text x="0" y="0" stroke="none" fill="#000000" transform="matrix(0.05 0 0 0.05 201.778 186.904)" font-style="normal" font-weight="normal" font-size="200px" font-family="Helvetica" >
 </text>
<text x="0" y="0" stroke="none" fill="#000000" transform="matrix(0.05 0 0 0.05 204.557 186.904)" font-style="normal" font-weight="normal" font-size="200px" font-family="Helvetica" >
- </text>
<text x="0" y="0" stroke="none" fill="#000000" transform="matrix(0.05 0 0 0.05 210.665 186.904)" font-style="normal" font-weight="normal" font-size="200px" font-family="Helvetica" >
an </text>
<text x="0" y="0" stroke="none" fill="#000000" transform="matrix(0.05 0 0 0.05 224.566 186.904)" font-style="normal" font-weight="normal" font-size="200px" font-family="Helvetica" >
overall </text>
<text x="0" y="0" stroke="none" fill="#000000" transform="matrix(0.05 0 0 0.05 256.803 186.904)" font-style="normal" font-weight="normal" font-size="200px" font-family="Helvetica" >
change </text>
<text x="0" y="0" stroke="none" fill="#000000" transform="matrix(0.05 0 0 0.05 292.389 186.904)" font-style="normal" font-weight="normal" font-size="200px" font-family="Helvetica" >
(relative </text>
<text x="0" y="0" stroke="none" fill="#000000" transform="matrix(0.05 0 0 0.05 330.733 186.904)" font-style="normal" font-weight="normal" font-size="200px" font-family="Helvetica" >
to </text>
<text x="0" y="0" stroke="none" fill="#000000" transform="matrix(0.05 0 0 0.05 341.851 186.904)" font-style="normal" font-weight="normal" font-size="200px" font-family="Helvetica" >
substrate)</text>
<text x="0" y="0" stroke="none" fill="#000000" transform="matrix(0.05 0 0 0.05 22.1514 316.712)" font-style="normal" font-weight="bold" font-size="280px" font-family="Helvetica" >
Comments? </text>
<text x="0" y="0" stroke="none" fill="#000000" transform="matrix(0.05 0 0 0.05 106.938 316.712)" font-style="normal" font-weight="bold" font-size="280px" font-family="Helvetica" >
Suggestions? </text>
<text x="0" y="0" stroke="none" fill="#000000" transform="matrix(0.05 0 0 0.05 203.386 316.712)" font-style="normal" font-weight="bold" font-size="280px" font-family="Helvetica" >
Typos?</text>
<text x="0" y="0" stroke="none" fill="#000000" transform="matrix(0.05 0 0 0.05 21.8135 335.864)" font-style="normal" font-weight="bold" font-size="240px" font-family="Helvetica" >
Email </text>
<text x="0" y="0" stroke="none" fill="#000000" transform="matrix(0.05 0 0 0.05 57.1631 335.864)" font-style="normal" font-weight="bold" font-size="240px" font-family="Helvetica" >
funchemcharts@gmail.com</text>
<text x="0" y="0" stroke="none" fill="#000000" transform="matrix(0.05 0 0 0.05 21.7139 445.988)" font-style="normal" font-weight="bold" font-size="280px" font-family="Helvetica" >
Last </text>
<text x="0" y="0" stroke="none" fill="#000000" transform="matrix(0.05 0 0 0.05 54.3897 445.988)" font-style="normal" font-weight="bold" font-size="280px" font-family="Helvetica" >
Update: </text>
<text x="0" y="0" stroke="none" fill="#000000" transform="matrix(0.05 0 0 0.05 110.39 445.988)" font-style="normal" font-weight="bold" font-size="240px" font-family="Helvetica" >
11/2025</text>
<text x="0" y="0" stroke="none" fill="#000000" transform="matrix(0.05 0 0 0.05 25.112 260.852)" font-style="normal" font-weight="normal" font-size="200px" font-family="Helvetica" >
If </text>
<text x="0" y="0" stroke="none" fill="#000000" transform="matrix(0.05 0 0 0.05 33.4469 260.852)" font-style="normal" font-weight="normal" font-size="200px" font-family="Helvetica" >
clicking </text>
<text x="0" y="0" stroke="none" fill="#000000" transform="matrix(0.05 0 0 0.05 69.0134 260.852)" font-style="normal" font-weight="normal" font-size="200px" font-family="Helvetica" >
on </text>
<text x="0" y="0" stroke="none" fill="#000000" transform="matrix(0.05 0 0 0.05 82.9147 260.852)" font-style="normal" font-weight="normal" font-size="200px" font-family="Helvetica" >
a </text>
<text x="0" y="0" stroke="none" fill="#000000" transform="matrix(0.05 0 0 0.05 91.2546 260.852)" font-style="normal" font-weight="normal" font-size="200px" font-family="Helvetica" >
particular </text>
<text x="0" y="0" stroke="none" fill="#000000" transform="matrix(0.05 0 0 0.05 135.161 260.852)" font-style="normal" font-weight="normal" font-size="200px" font-family="Helvetica" >
transformation </text>
<text x="0" y="0" stroke="none" fill="#000000" transform="matrix(0.05 0 0 0.05 201.855 260.852)" font-style="normal" font-weight="normal" font-size="200px" font-family="Helvetica" >
doesn’t </text>
<text x="0" y="0" stroke="none" fill="#000000" transform="matrix(0.05 0 0 0.05 236.88 260.852)" font-style="normal" font-weight="normal" font-size="200px" font-family="Helvetica" >
lead </text>
<text x="0" y="0" stroke="none" fill="#000000" transform="matrix(0.05 0 0 0.05 258.564 260.852)" font-style="normal" font-weight="normal" font-size="200px" font-family="Helvetica" >
anywhere, </text>
<text x="0" y="0" stroke="none" fill="#000000" transform="matrix(0.05 0 0 0.05 307.48 260.852)" font-style="normal" font-weight="normal" font-size="200px" font-family="Helvetica" >
likely </text>
<text x="0" y="0" stroke="none" fill="#000000" transform="matrix(0.05 0 0 0.05 332.485 260.852)" font-style="normal" font-weight="normal" font-size="200px" font-family="Helvetica" >
this </text>
<text x="0" y="0" stroke="none" fill="#000000" transform="matrix(0.05 0 0 0.05 350.825 260.852)" font-style="normal" font-weight="normal" font-size="200px" font-family="Helvetica" >
is </text>
<text x="0" y="0" stroke="none" fill="#000000" transform="matrix(0.05 0 0 0.05 360.825 260.852)" font-style="normal" font-weight="normal" font-size="200px" font-family="Helvetica" >
the </text>
<text x="0" y="0" stroke="none" fill="#000000" transform="matrix(0.05 0 0 0.05 377.505 260.852)" font-style="normal" font-weight="normal" font-size="200px" font-family="Helvetica" >
only </text>
<text x="0" y="0" stroke="none" fill="#000000" transform="matrix(0.05 0 0 0.05 398.628 260.852)" font-style="normal" font-weight="normal" font-size="200px" font-family="Helvetica" >
transformation </text>
<text x="0" y="0" stroke="none" fill="#000000" transform="matrix(0.05 0 0 0.05 465.322 260.852)" font-style="normal" font-weight="normal" font-size="200px" font-family="Helvetica" >
of </text>
<text x="0" y="0" stroke="none" fill="#000000" transform="matrix(0.05 0 0 0.05 476.44 260.852)" font-style="normal" font-weight="normal" font-size="200px" font-family="Helvetica" >
its </text>
<text x="0" y="0" stroke="none" fill="#000000" transform="matrix(0.05 0 0 0.05 489.218 260.852)" font-style="normal" font-weight="normal" font-size="200px" font-family="Helvetica" >
kind.</text>
<text x="0" y="0" stroke="none" fill="#000000" transform="matrix(0.05 0 0 0.05 25.644 238.508)" font-style="normal" font-weight="normal" font-size="200px" font-family="Helvetica" >
Advice: </text>
<text x="0" y="0" stroke="none" fill="#000000" transform="matrix(0.05 0 0 0.05 61.2153 238.508)" font-style="normal" font-weight="normal" font-size="200px" font-family="Helvetica" >
when </text>
<text x="0" y="0" stroke="none" fill="#000000" transform="matrix(0.05 0 0 0.05 87.8998 238.508)" font-style="normal" font-weight="normal" font-size="200px" font-family="Helvetica" >
learning </text>
<text x="0" y="0" stroke="none" fill="#000000" transform="matrix(0.05 0 0 0.05 126.259 238.508)" font-style="normal" font-weight="normal" font-size="200px" font-family="Helvetica" >
reactions </text>
<text x="0" y="0" stroke="none" fill="#000000" transform="matrix(0.05 0 0 0.05 169.614 238.508)" font-style="normal" font-weight="normal" font-size="200px" font-family="Helvetica" >
- </text>
<text x="0" y="0" stroke="none" fill="#000000" transform="matrix(0.05 0 0 0.05 175.722 238.508)" font-style="normal" font-weight="normal" font-size="200px" font-family="Helvetica" >
(a) </text>
<text x="0" y="0" stroke="none" fill="#000000" transform="matrix(0.05 0 0 0.05 190.722 238.508)" font-style="normal" font-weight="normal" font-size="200px" font-family="Helvetica" >
describe </text>
<text x="0" y="0" stroke="none" fill="#000000" transform="matrix(0.05 0 0 0.05 231.298 238.508)" font-style="normal" font-weight="bold" font-size="200px" font-family="Helvetica" >
what</text>
<text x="0" y="0" stroke="none" fill="#000000" transform="matrix(0.05 0 0 0.05 254.077 238.508)" font-style="normal" font-weight="normal" font-size="200px" font-family="Helvetica" >
 </text>
<text x="0" y="0" stroke="none" fill="#000000" transform="matrix(0.05 0 0 0.05 256.855 238.508)" font-style="normal" font-weight="normal" font-size="200px" font-family="Helvetica" >
happens </text>
<text x="0" y="0" stroke="none" fill="#000000" transform="matrix(0.05 0 0 0.05 298.002 238.508)" font-style="normal" font-weight="normal" font-size="200px" font-family="Helvetica" >
(e.g., </text>
<text x="0" y="0" stroke="none" fill="#000000" transform="matrix(0.05 0 0 0.05 323.569 238.508)" font-style="normal" font-weight="normal" font-size="200px" font-family="Helvetica" >
change/oxidation </text>
<text x="0" y="0" stroke="none" fill="#000000" transform="matrix(0.05 0 0 0.05 401.962 238.508)" font-style="normal" font-weight="normal" font-size="200px" font-family="Helvetica" >
of </text>
<text x="0" y="0" stroke="none" fill="#000000" transform="matrix(0.05 0 0 0.05 413.081 238.508)" font-style="normal" font-weight="normal" font-size="200px" font-family="Helvetica" >
primary </text>
<text x="0" y="0" stroke="none" fill="#000000" transform="matrix(0.05 0 0 0.05 449.194 238.508)" font-style="normal" font-weight="normal" font-size="200px" font-family="Helvetica" >
alcohol </text>
<text x="0" y="0" stroke="none" fill="#000000" transform="matrix(0.05 0 0 0.05 483.662 238.508)" font-style="normal" font-weight="normal" font-size="200px" font-family="Helvetica" >
into </text>
<text x="0" y="0" stroke="none" fill="#000000" transform="matrix(0.05 0 0 0.05 502.563 238.508)" font-style="normal" font-weight="normal" font-size="200px" font-family="Helvetica" >
an </text>
<text x="0" y="0" stroke="none" fill="#000000" transform="matrix(0.05 0 0 0.05 516.464 238.508)" font-style="normal" font-weight="normal" font-size="200px" font-family="Helvetica" >
aldehyde); </text>
<text x="0" y="0" stroke="none" fill="#000000" transform="matrix(0.05 0 0 0.05 565.942 238.508)" font-style="normal" font-weight="normal" font-size="200px" font-family="Helvetica" >
(b) </text>
<text x="0" y="0" stroke="none" fill="#000000" transform="matrix(0.05 0 0 0.05 580.942 238.508)" font-style="normal" font-weight="normal" font-size="200px" font-family="Helvetica" >
explain </text>
<text x="0" y="0" stroke="none" fill="#000000" transform="matrix(0.05 0 0 0.05 615.41 238.508)" font-style="normal" font-weight="bold" font-size="200px" font-family="Helvetica" >
how</text>
<text x="0" y="0" stroke="none" fill="#000000" transform="matrix(0.05 0 0 0.05 635.405 238.508)" font-style="normal" font-weight="normal" font-size="200px" font-family="Helvetica" >
 </text>
<text x="0" y="0" stroke="none" fill="#000000" transform="matrix(0.05 0 0 0.05 638.183 238.508)" font-style="normal" font-weight="normal" font-size="200px" font-family="Helvetica" >
the </text>
<text x="0" y="0" stroke="none" fill="#000000" transform="matrix(0.05 0 0 0.05 654.863 238.508)" font-style="normal" font-weight="normal" font-size="200px" font-family="Helvetica" >
transformation </text>
<text x="0" y="0" stroke="none" fill="#000000" transform="matrix(0.05 0 0 0.05 721.557 238.508)" font-style="normal" font-weight="normal" font-size="200px" font-family="Helvetica" >
happens</text>
<text x="0" y="0" stroke="none" fill="#000000" transform="matrix(0.05 0 0 0.05 25.644 249.166)" font-style="normal" font-weight="normal" font-size="200px" font-family="Helvetica" >
(mechanism); </text>
<text x="0" y="0" stroke="none" fill="#000000" transform="matrix(0.05 0 0 0.05 88.9887 249.166)" font-style="normal" font-weight="normal" font-size="200px" font-family="Helvetica" >
(c) </text>
<text x="0" y="0" stroke="none" fill="#000000" transform="matrix(0.05 0 0 0.05 103.427 249.166)" font-style="normal" font-weight="normal" font-size="200px" font-family="Helvetica" >
try </text>
<text x="0" y="0" stroke="none" fill="#000000" transform="matrix(0.05 0 0 0.05 117.314 249.166)" font-style="normal" font-weight="normal" font-size="200px" font-family="Helvetica" >
to </text>
<text x="0" y="0" stroke="none" fill="#000000" transform="matrix(0.05 0 0 0.05 128.432 249.166)" font-style="normal" font-weight="normal" font-size="200px" font-family="Helvetica" >
rationalize </text>
<text x="0" y="0" stroke="none" fill="#000000" transform="matrix(0.05 0 0 0.05 176.791 249.166)" font-style="normal" font-weight="bold" font-size="200px" font-family="Helvetica" >
why</text>
<text x="0" y="0" stroke="none" fill="#000000" transform="matrix(0.05 0 0 0.05 196.24 249.166)" font-style="normal" font-weight="normal" font-size="200px" font-family="Helvetica" >
 </text>
<text x="0" y="0" stroke="none" fill="#000000" transform="matrix(0.05 0 0 0.05 199.018 249.166)" font-style="normal" font-weight="normal" font-size="200px" font-family="Helvetica" >
a </text>
<text x="0" y="0" stroke="none" fill="#000000" transform="matrix(0.05 0 0 0.05 207.358 249.166)" font-style="normal" font-weight="normal" font-size="200px" font-family="Helvetica" >
particular </text>
<text x="0" y="0" stroke="none" fill="#000000" transform="matrix(0.05 0 0 0.05 251.264 249.166)" font-style="normal" font-weight="normal" font-size="200px" font-family="Helvetica" >
transformation </text>
<text x="0" y="0" stroke="none" fill="#000000" transform="matrix(0.05 0 0 0.05 317.958 249.166)" font-style="normal" font-weight="normal" font-size="200px" font-family="Helvetica" >
(and </text>
<text x="0" y="0" stroke="none" fill="#000000" transform="matrix(0.05 0 0 0.05 340.751 249.166)" font-style="normal" font-weight="normal" font-size="200px" font-family="Helvetica" >
not </text>
<text x="0" y="0" stroke="none" fill="#000000" transform="matrix(0.05 0 0 0.05 357.431 249.166)" font-style="normal" font-weight="normal" font-size="200px" font-family="Helvetica" >
any </text>
<text x="0" y="0" stroke="none" fill="#000000" transform="matrix(0.05 0 0 0.05 376.332 249.166)" font-style="normal" font-weight="normal" font-size="200px" font-family="Helvetica" >
alternative </text>
<text x="0" y="0" stroke="none" fill="#000000" transform="matrix(0.05 0 0 0.05 425.248 249.166)" font-style="normal" font-weight="normal" font-size="200px" font-family="Helvetica" >
path) </text>
<text x="0" y="0" stroke="none" fill="#000000" transform="matrix(0.05 0 0 0.05 450.82 249.166)" font-style="normal" font-weight="normal" font-size="200px" font-family="Helvetica" >
takes </text>
<text x="0" y="0" stroke="none" fill="#000000" transform="matrix(0.05 0 0 0.05 477.499 249.166)" font-style="normal" font-weight="normal" font-size="200px" font-family="Helvetica" >
place.</text>
<path stroke="#000000" stroke-width="22" fill="none" transform="matrix(0.05 0 0 0.05 -10 -11)" stroke-dasharray="53" d="M 541.64,4442.14 C 541.64,4442.14 541.64,3121.9 541.64,3121.9 C 541.64,3048.45 601.253,2988.84 674.695,2988.84 C 674.695,2988.84 7857.58,2988.84 7857.58,2988.84 C 7931.03,2988.84 7990.64,3048.45 7990.64,3121.9 C 7990.64,3121.9 7990.64,4442.14 7990.64,4442.14 C 7990.64,4515.59 7931.03,4575.2 7857.58,4575.2 C 7857.58,4575.2 674.695,4575.2 674.695,4575.2 C 601.253,4575.2 541.64,4515.59 541.64,4442.14 " />
<text x="0" y="0" stroke="none" fill="#000000" transform="matrix(0.05 0 0 0.05 416.664 156.048)" font-style="normal" font-weight="bold" font-size="280px" font-family="Helvetica" >
• </text>
<text x="0" y="0" stroke="none" fill="#000000" transform="matrix(0.05 0 0 0.05 425.455 156.048)" font-style="normal" font-weight="bold" font-size="280px" font-family="Helvetica" >
over </text>
<text x="0" y="0" stroke="none" fill="#000000" transform="matrix(0.05 0 0 0.05 458.917 156.048)" font-style="normal" font-weight="bold" font-size="280px" font-family="Helvetica" >
140 </text>
<text x="0" y="0" stroke="none" fill="#000000" transform="matrix(0.05 0 0 0.05 486.165 156.048)" font-style="normal" font-weight="bold" font-size="280px" font-family="Helvetica" >
reactions </text>
<text x="0" y="0" stroke="none" fill="#000000" transform="matrix(0.05 0 0 0.05 552.303 156.048)" font-style="normal" font-weight="bold" font-size="280px" font-family="Helvetica" >
covered</text>
<text x="0" y="0" stroke="none" fill="#000000" transform="matrix(0.05 0 0 0.05 416.664 170.94)" font-style="normal" font-weight="bold" font-size="280px" font-family="Helvetica" >
• </text>
<text x="0" y="0" stroke="none" fill="#000000" transform="matrix(0.05 0 0 0.05 425.455 170.94)" font-style="normal" font-weight="bold" font-size="280px" font-family="Helvetica" >
2 </text>
<text x="0" y="0" stroke="none" fill="#000000" transform="matrix(0.05 0 0 0.05 437.131 170.94)" font-style="normal" font-weight="bold" font-size="280px" font-family="Helvetica" >
kinds </text>
<text x="0" y="0" stroke="none" fill="#000000" transform="matrix(0.05 0 0 0.05 477.586 170.94)" font-style="normal" font-weight="bold" font-size="280px" font-family="Helvetica" >
of </text>
<text x="0" y="0" stroke="none" fill="#000000" transform="matrix(0.05 0 0 0.05 494.689 170.94)" font-style="normal" font-weight="bold" font-size="280px" font-family="Helvetica" >
pages: </text>
<text x="0" y="0" stroke="none" fill="#000000" transform="matrix(0.05 0 0 0.05 416.664 185.831)" font-style="normal" font-weight="normal" font-size="280px" font-family="Helvetica" >
 </text>
<text x="0" y="0" stroke="none" fill="#000000" transform="matrix(0.05 0 0 0.05 420.554 185.831)" font-style="normal" font-weight="normal" font-size="280px" font-family="Helvetica" >
 </text>
<text x="0" y="0" stroke="none" fill="#000000" transform="matrix(0.05 0 0 0.05 424.443 185.831)" font-style="normal" font-weight="normal" font-size="280px" font-family="Helvetica" >
- </text>
<text x="0" y="0" stroke="none" fill="#000000" transform="matrix(0.05 0 0 0.05 432.995 185.831)" font-style="normal" font-weight="normal" font-size="280px" font-family="Helvetica" >
how </text>
<text x="0" y="0" stroke="none" fill="#000000" transform="matrix(0.05 0 0 0.05 462.567 185.831)" font-style="normal" font-weight="normal" font-size="280px" font-family="Helvetica" >
a </text>
<text x="0" y="0" stroke="none" fill="#000000" transform="matrix(0.05 0 0 0.05 474.243 185.831)" font-style="normal" font-weight="normal" font-size="280px" font-family="Helvetica" >
functional </text>
<text x="0" y="0" stroke="none" fill="#000000" transform="matrix(0.05 0 0 0.05 538.063 185.831)" font-style="normal" font-weight="normal" font-size="280px" font-family="Helvetica" >
group </text>
<text x="0" y="0" stroke="none" fill="#000000" transform="matrix(0.05 0 0 0.05 577.76 185.831)" font-style="normal" font-weight="normal" font-size="280px" font-family="Helvetica" >
reacts</text>
<text x="0" y="0" stroke="none" fill="#000000" transform="matrix(0.05 0 0 0.05 416.664 200.723)" font-style="normal" font-weight="normal" font-size="280px" font-family="Helvetica" >
 </text>
<text x="0" y="0" stroke="none" fill="#000000" transform="matrix(0.05 0 0 0.05 420.554 200.723)" font-style="normal" font-weight="normal" font-size="280px" font-family="Helvetica" >
 </text>
<text x="0" y="0" stroke="none" fill="#000000" transform="matrix(0.05 0 0 0.05 424.443 200.723)" font-style="normal" font-weight="normal" font-size="280px" font-family="Helvetica" >
- </text>
<text x="0" y="0" stroke="none" fill="#000000" transform="matrix(0.05 0 0 0.05 432.995 200.723)" font-style="normal" font-weight="normal" font-size="280px" font-family="Helvetica" >
how </text>
<text x="0" y="0" stroke="none" fill="#000000" transform="matrix(0.05 0 0 0.05 462.567 200.723)" font-style="normal" font-weight="normal" font-size="280px" font-family="Helvetica" >
to </text>
<text x="0" y="0" stroke="none" fill="#000000" transform="matrix(0.05 0 0 0.05 478.133 200.723)" font-style="normal" font-weight="normal" font-size="280px" font-family="Helvetica" >
prepare </text>
<text x="0" y="0" stroke="none" fill="#000000" transform="matrix(0.05 0 0 0.05 530.277 200.723)" font-style="normal" font-weight="normal" font-size="280px" font-family="Helvetica" >
a </text>
<text x="0" y="0" stroke="none" fill="#000000" transform="matrix(0.05 0 0 0.05 541.953 200.723)" font-style="normal" font-weight="normal" font-size="280px" font-family="Helvetica" >
particular </text>
<text x="0" y="0" stroke="none" fill="#000000" transform="matrix(0.05 0 0 0.05 603.422 200.723)" font-style="normal" font-weight="normal" font-size="280px" font-family="Helvetica" >
functional </text>
<text x="0" y="0" stroke="none" fill="#000000" transform="matrix(0.05 0 0 0.05 667.242 200.723)" font-style="normal" font-weight="normal" font-size="280px" font-family="Helvetica" >
group</text>
<text x="0" y="0" stroke="none" fill="#000000" transform="matrix(0.05 0 0 0.05 99.1873 183.584)" font-style="italic" font-weight="normal" font-size="160px" font-family="Helvetica Oblique" >
reaction</text>
<text x="0" y="0" stroke="none" fill="#000000" transform="matrix(0.05 0 0 0.05 182.779 205.928)" font-style="italic" font-weight="normal" font-size="200px" font-family="Helvetica Oblique" >
reaction</text>
<text x="0" y="0" stroke="none" fill="#000000" transform="matrix(0.05 0 0 0.05 218.355 205.928)" font-style="normal" font-weight="normal" font-size="200px" font-family="Helvetica" >
 </text>
<text x="0" y="0" stroke="none" fill="#000000" transform="matrix(0.05 0 0 0.05 221.134 205.928)" font-style="normal" font-weight="normal" font-size="200px" font-family="Helvetica" >
- </text>
<text x="0" y="0" stroke="none" fill="#000000" transform="matrix(0.05 0 0 0.05 227.242 205.928)" font-style="normal" font-weight="normal" font-size="200px" font-family="Helvetica" >
reaction </text>
<text x="0" y="0" stroke="none" fill="#000000" transform="matrix(0.05 0 0 0.05 265.597 205.928)" font-style="normal" font-weight="normal" font-size="200px" font-family="Helvetica" >
name </text>
<text x="0" y="0" stroke="none" fill="#000000" transform="matrix(0.05 0 0 0.05 293.39 205.928)" font-style="normal" font-weight="normal" font-size="200px" font-family="Helvetica" >
(when </text>
<text x="0" y="0" stroke="none" fill="#000000" transform="matrix(0.05 0 0 0.05 323.404 205.928)" font-style="normal" font-weight="normal" font-size="200px" font-family="Helvetica" >
applicable)</text>
  <text
     x="822.84332"
     y="415.79849"
     stroke="none"
     fill="#000000"
     transform="matrix(0.92407999,-0.00322566,0.00377741,1.0821442,0,0)"
     font-style="italic"
     font-weight="bold"
     font-size="8.25806px"
     font-family="'Helvetica Oblique'"
     id="text11"
     style="opacity:1;fill:#00009a;fill-opacity:0.651128;stroke-width:0.0412903">chemisfun</text>
  <g
     id="overlay-box"
     style="opacity:0"
     transform="matrix(0.31364504,0,0,0.8007311,650.50736,385.81436)">
    <rect
       style="fill:#609975;fill-opacity:0.2;stroke:#609970;stroke-width:0;stroke-linecap:round;stroke-opacity:0.657143;paint-order:fill markers stroke"
       id="rect285"
       width="164.84744"
       height="59.583412"
       x="329.69489"
       y="23.171328" />
  </g>
  <g
     id="overlay"
     onclick="window.location.href = 'about.svg'"
     onmouseover="this.ownerDocument.getElementById('overlay-box').style.opacity='0.5'"
     onmouseout="this.ownerDocument.getElementById('overlay-box').style.opacity='0'"
     transform="matrix(0.76550767,-0.0030054,0.00267214,0.86098131,195.61318,22.784653)">
    <rect
       style="opacity:0.5;fill:#ffffff;fill-opacity:0;stroke-linecap:round;stroke-opacity:0.657143;paint-order:stroke fill markers"
       id="rect2"
       width="65.93074"
       height="55.035408"
       x="733.06049"
       y="445.87061" />
  </g>
  <g
     id="g8"
     transform="matrix(0.0625,0,0,0.0625,764.65732,406.62566)">
    <rect
       x="239.31"
       y="120.321"
       style="fill:#444242"
       width="33.389"
       height="139.98"
       id="rect1" />
    <rect
       x="256"
       y="120.321"
       style="fill:#3a3839"
       width="16.695"
       height="139.98"
       id="rect2-2" />
    <rect
       x="132.194"
       y="305.86301"
       transform="matrix(0.5,0.866,-0.866,0.5,399.932,58.9793)"
       style="fill:#444242"
       width="33.387001"
       height="139.967"
       id="rect4" />
    <rect
       x="293.125"
       y="359.13"
       transform="matrix(0.866,0.5,-0.5,0.866,236.5654,-131.205)"
       style="fill:#3a3839"
       width="139.967"
       height="33.387001"
       id="rect5" />
    <path
       style="background-color:#ffffff00;fill:#439de2;fill-opacity:1"
       d="m 456.843,485.07 c -9.538,0 -18.951,-2.501 -27.432,-7.398 v 0 c -12.733,-7.351 -21.842,-19.221 -25.646,-33.424 -3.805,-14.201 -1.853,-29.035 5.499,-41.769 7.351,-12.732 19.221,-21.841 33.424,-25.646 14.201,-3.806 29.034,-1.853 41.769,5.499 12.732,7.351 21.841,19.221 25.646,33.424 3.805,14.202 1.853,29.035 -5.499,41.769 -7.351,12.733 -19.221,21.842 -33.424,25.646 -4.742,1.27 -9.557,1.899 -14.337,1.899 z"
       id="path7-3" />
    <path
       style="background-color:#ffffff00;fill:#eda74a;fill-opacity:1"
       d="m 256.001,137.021 c -30.352,0 -55.044,-24.693 -55.044,-55.044 0,-30.351 24.693,-55.044 55.044,-55.044 30.351,0 55.044,24.693 55.044,55.044 0,30.351 -24.693,55.044 -55.044,55.044 z"
       id="path5-4" />
    <path
       style="background-color:#ffffff00;fill:#53acb1;fill-opacity:1"
       d="m 55.158,485.07 c -4.781,0 -9.594,-0.629 -14.336,-1.9 C 26.619,479.365 14.75,470.256 7.398,457.524 0.046,444.792 -1.906,429.957 1.899,415.755 c 3.805,-14.203 12.914,-26.072 25.646,-33.424 12.731,-7.352 27.567,-9.304 41.769,-5.499 14.203,3.805 26.072,12.914 33.424,25.646 7.352,12.732 9.304,27.567 5.499,41.769 -3.805,14.203 -12.914,26.072 -25.646,33.424 -8.481,4.897 -17.896,7.399 -27.433,7.399 z"
       id="path6-7" />
    <path
       style="fill:#f74d37"
       d="m 256.001,384.379 c -38.81,0 -70.384,-31.575 -70.384,-70.384 0,-38.809 31.575,-70.384 70.384,-70.384 38.809,0 70.384,31.575 70.384,70.384 0,38.809 -31.575,70.384 -70.384,70.384 z"
       id="path4-9" />
  </g>
</svg>
