<?xml version="1.0" encoding="UTF-8" standalone="no"?>
<svg
   width="100%"
   height="100%"
   viewBox="0 0 818 460"
   style="background-color: #ffffff00"
   version="1.1"
   id="svg175"
   sodipodi:docname="acids-noproducts-o1.svg"
   inkscape:version="1.4.2 (ebf0e940, 2025-05-08)"
   xmlns:inkscape="http://www.inkscape.org/namespaces/inkscape"
   xmlns:sodipodi="http://sodipodi.sourceforge.net/DTD/sodipodi-0.dtd"
   xmlns="http://www.w3.org/2000/svg"
   xmlns:svg="http://www.w3.org/2000/svg">
  <path
     stroke="none"
     fill="#ffffff"
     transform="matrix(0.05 0 0 0.05 -10 -11)"
     d="M 3174.6,3417.7 C 3174.6,3417.7 3174.6,2215.5 3174.6,2215.5 C 3174.6,2215.5 2229.8,2215.5 2229.8,2215.5 C 2229.8,2215.5 2229.8,3417.7 2229.8,3417.7 C 2229.8,3417.7 3174.6,3417.7 3174.6,3417.7 "
     id="path1" />
  <path
     stroke="none"
     fill="#ffffff"
     transform="matrix(0.05 0 0 0.05 -10 -11)"
     d="M 5891.6,3403.4 C 5891.6,3403.4 5891.6,2201.2 5891.6,2201.2 C 5891.6,2201.2 4860.66,2201.2 4860.66,2201.2 C 4860.66,2201.2 4860.66,3403.4 4860.66,3403.4 C 4860.66,3403.4 5891.6,3403.4 5891.6,3403.4 "
     id="path11" />
  <path
     stroke="none"
     fill="#ffffff"
     transform="matrix(0.05 0 0 0.05 -10 -11)"
     d="M 5291,8265.4 C 5291,8265.4 5291,7395.45 5291,7395.45 C 5291,7395.45 4390.02,7395.45 4390.02,7395.45 C 4390.02,7395.45 4390.02,8265.4 4390.02,8265.4 C 4390.02,8265.4 5291,8265.4 5291,8265.4 "
     id="path15" />
  <path
     stroke="#000000"
     stroke-width="22"
     fill="none"
     transform="matrix(0.05 0 0 0.05 -10 -11)"
     d="M 16494.7,9367.47 C 16494.7,9367.47 16494.7,284.602 16494.7,284.602 C 16494.7,284.602 268.683,284.602 268.683,284.602 C 268.683,284.602 268.683,9367.47 268.683,9367.47 C 268.683,9367.47 16494.7,9367.47 16494.7,9367.47 "
     id="path21" />
  <text
     x="0"
     y="0"
     stroke="none"
     fill="#000000"
     transform="matrix(0.05 0 0 0.05 11.735 21.13)"
     font-style="normal"
     font-weight="bold"
     font-size="320px"
     font-family="Helvetica"
     id="text21">
Acids - Reactions</text>
  <text
     x="0"
     y="0"
     stroke="none"
     fill="#999999"
     transform="matrix(0.05 0 0 0.05 11.9381 39.085)"
     font-style="normal"
     font-weight="normal"
     font-size="320px"
     font-family="Helvetica"
     id="text24">
click for more</text>
  <g
     id="goback"
     onclick="window.location.href = 'index-o1.svg'"
     onmouseover="document.getElementById('goback-box').setAttribute('opacity','0.5');"
     onmouseout="document.getElementById('goback-box').setAttribute('opacity','1')">
    <path
       stroke="none"
       fill="#999999"
       transform="matrix(0.05 0 0 0.05 -10 -11)"
       d="M 395.9,1492.34 C 395.9,1492.34 395.9,1302.37 395.9,1302.37 C 395.9,1228.92 455.513,1169.31 528.955,1169.31 C 528.955,1169.31 1775.84,1169.31 1775.84,1169.31 C 1849.29,1169.31 1908.9,1228.92 1908.9,1302.37 C 1908.9,1302.37 1908.9,1492.34 1908.9,1492.34 C 1908.9,1565.79 1849.29,1625.4 1775.84,1625.4 C 1775.84,1625.4 528.955,1625.4 528.955,1625.4 C 455.513,1625.4 395.9,1565.79 395.9,1492.34 "
       id="goback-box" />
    <text
       x="0"
       y="0"
       stroke="none"
       fill="#000000"
       transform="matrix(0.05 0 0 0.05 29.3796 61.765)"
       font-style="normal"
       font-weight="bold"
       font-size="200px"
       font-family="Helvetica"
       id="gobacktext">
go home</text>
    <path
       stroke="#999999"
       stroke-width="1"
       transform="matrix(0.05 0 0 0.05 -10 -11)"
       d="M 395.9,1492.34 C 395.9,1492.34 395.9,1302.37 395.9,1302.37 C 395.9,1228.92 455.513,1169.31 528.955,1169.31 C 528.955,1169.31 1775.84,1169.31 1775.84,1169.31 C 1849.29,1169.31 1908.9,1228.92 1908.9,1302.37 C 1908.9,1302.37 1908.9,1492.34 1908.9,1492.34 C 1908.9,1565.79 1849.29,1625.4 1775.84,1625.4 C 1775.84,1625.4 528.955,1625.4 528.955,1625.4 C 455.513,1625.4 395.9,1565.79 395.9,1492.34 "
       style="opacity:0"
       id="goback-link" />
  </g>
  <g
     id="howtomake"
     onclick="window.location.href = 'toacids-o1.svg'"
     onmouseover="document.getElementById('howtomake-box').setAttribute('opacity','0.5');"
     onmouseout="document.getElementById('howtomake-box').setAttribute('opacity','1')">
    <path
       stroke="none"
       fill="#999999"
       transform="matrix(0.05 0 0 0.05 -10 -11)"
       d="M 381.591,2007.46 C 381.591,2007.46 381.591,1817.48 381.591,1817.48 C 381.591,1744.04 441.204,1684.42 514.647,1684.42 C 514.647,1684.42 1761.54,1684.42 1761.54,1684.42 C 1834.98,1684.42 1894.59,1744.04 1894.59,1817.48 C 1894.59,1817.48 1894.59,2007.46 1894.59,2007.46 C 1894.59,2080.9 1834.98,2140.51 1761.54,2140.51 C 1761.54,2140.51 514.647,2140.51 514.647,2140.51 C 441.204,2140.51 381.591,2080.9 381.591,2007.46 "
       id="howtomake-box" />
    <text
       x="0"
       y="0"
       stroke="none"
       fill="#000000"
       transform="matrix(0.05 0 0 0.05 17.275 87.5206)"
       font-style="normal"
       font-weight="bold"
       font-size="200px"
       font-family="Helvetica"
       id="howtomaketext">
how to make</text>
    <path
       stroke="#999999"
       stroke-width="1"
       transform="matrix(0.05 0 0 0.05 -10 -11)"
       d="M 381.591,2007.46 C 381.591,2007.46 381.591,1817.48 381.591,1817.48 C 381.591,1744.04 441.204,1684.42 514.647,1684.42 C 514.647,1684.42 1761.54,1684.42 1761.54,1684.42 C 1834.98,1684.42 1894.59,1744.04 1894.59,1817.48 C 1894.59,1817.48 1894.59,2007.46 1894.59,2007.46 C 1894.59,2080.9 1834.98,2140.51 1761.54,2140.51 C 1761.54,2140.51 514.647,2140.51 514.647,2140.51 C 441.204,2140.51 381.591,2080.9 381.591,2007.46 "
       style="opacity:0"
       id="howtomake-link" />
  </g>
  <path
     stroke="none"
     fill="#000000"
     transform="matrix(0.05 0 0 0.05 -10 -11)"
     d="M 5466.4,3656 L 5466.4,4355.92 L 5444.4,4355.92 L 5444.4,3656 Z "
     id="path28" />
  <path
     stroke="none"
     fill="#000000"
     transform="matrix(0.05 0 0 0.05 -10 -11)"
     d="M 5455.4,3462.96 C 5455.4,3462.96 5511.84,3684.72 5511.84,3684.72 C 5511.84,3684.72 5480.09,3657 5455.4,3657 C 5430.27,3657 5397.96,3684.72 5397.96,3684.72 C 5397.96,3684.72 5455.4,3462.96 5455.4,3462.96 C 5455.4,3462.96 5455.4,3462.96 5455.4,3462.96 "
     id="path29" />
  <path
     stroke="#000000"
     stroke-width="1"
     fill="none"
     transform="matrix(0.05 0 0 0.05 -10 -11)"
     d="M 5455.4,3462.96 C 5455.4,3462.96 5511.84,3684.72 5511.84,3684.72 C 5511.84,3684.72 5480.09,3657 5455.4,3657 C 5430.27,3657 5397.96,3684.72 5397.96,3684.72 C 5397.96,3684.72 5455.4,3462.96 5455.4,3462.96 C 5455.4,3462.96 5455.4,3462.96 5455.4,3462.96 "
     id="path30" />
  <path
     stroke="none"
     fill="#000000"
     d="M 346.95072,208.0115 H 124.893 v -1.1 h 222.05772 z"
     id="path34"
     style="stroke-width:0.0403308" />
  <path
     stroke="none"
     fill="#000000"
     transform="matrix(0.05 0 0 0.05 -10 -11)"
     d="M 2708.86,3639.34 L 2708.86,4369.23 L 2686.86,4369.23 L 2686.86,3639.34 Z "
     id="path35" />
  <path
     stroke="none"
     fill="#000000"
     transform="matrix(0.05 0 0 0.05 -10 -11)"
     d="M 2697.86,3446.3 C 2697.86,3446.3 2754.3,3668.06 2754.3,3668.06 C 2754.3,3668.06 2722.55,3640.34 2697.86,3640.34 C 2672.73,3640.34 2640.42,3668.06 2640.42,3668.06 C 2640.42,3668.06 2697.86,3446.3 2697.86,3446.3 C 2697.86,3446.3 2697.86,3446.3 2697.86,3446.3 "
     id="path36" />
  <path
     stroke="#000000"
     stroke-width="1"
     fill="none"
     transform="matrix(0.05 0 0 0.05 -10 -11)"
     d="M 2697.86,3446.3 C 2697.86,3446.3 2754.3,3668.06 2754.3,3668.06 C 2754.3,3668.06 2722.55,3640.34 2697.86,3640.34 C 2672.73,3640.34 2640.42,3668.06 2640.42,3668.06 C 2640.42,3668.06 2697.86,3446.3 2697.86,3446.3 C 2697.86,3446.3 2697.86,3446.3 2697.86,3446.3 "
     id="path37" />
  <path
     stroke="none"
     fill="#000000"
     transform="matrix(0.05 0 0 0.05 -10 -11)"
     d="M 5444.4,4947.8 L 5444.4,4355.92 L 5466.4,4355.92 L 5466.4,4947.8 Z "
     id="path38" />
  <text
     x="0"
     y="0"
     stroke="none"
     fill="#0000ff"
     transform="matrix(0.05 0 0 0.05 205.09 263.296)"
     font-style="normal"
     font-weight="bold"
     font-size="280px"
     font-family="Helvetica"
     id="text38">
acids</text>
  <path
     stroke="none"
     fill="#000000"
     transform="matrix(0.05 0 0 0.05 -10 -11)"
     d="M 7139.5,3670.3 L 7139.5,4370.22 L 7117.5,4370.22 L 7117.5,3670.3 Z "
     id="path42" />
  <path
     stroke="none"
     fill="#000000"
     transform="matrix(0.05 0 0 0.05 -10 -11)"
     d="M 7128.5,3477.26 C 7128.5,3477.26 7184.94,3699.02 7184.94,3699.02 C 7184.94,3699.02 7153.19,3671.3 7128.5,3671.3 C 7103.37,3671.3 7071.06,3699.02 7071.06,3699.02 C 7071.06,3699.02 7128.5,3477.26 7128.5,3477.26 C 7128.5,3477.26 7128.5,3477.26 7128.5,3477.26 "
     id="path43" />
  <path
     stroke="#000000"
     stroke-width="1"
     fill="none"
     transform="matrix(0.05 0 0 0.05 -10 -11)"
     d="M 7128.5,3477.26 C 7128.5,3477.26 7184.94,3699.02 7184.94,3699.02 C 7184.94,3699.02 7153.19,3671.3 7128.5,3671.3 C 7103.37,3671.3 7071.06,3699.02 7071.06,3699.02 C 7071.06,3699.02 7128.5,3477.26 7128.5,3477.26 C 7128.5,3477.26 7128.5,3477.26 7128.5,3477.26 "
     id="path44" />
  <path
     stroke="none"
     fill="#000000"
     transform="matrix(0.05 0 0 0.05 -10 -11)"
     d="M 5106.33,5642.53 L 5095.24,5623.32 L 5360.38,5469.65 L 5360.43,5495.32 L 5106.33,5642.53 Z "
     id="path53" />
  <text
     x="0"
     y="0"
     stroke="none"
     fill="#000000"
     transform="matrix(0.05 0 0 0.05 254.509 251.421)"
     font-style="normal"
     font-weight="bold"
     font-size="180px"
     font-family="Helvetica"
     id="text61">
O</text>
  <path
     stroke="none"
     fill="#000000"
     transform="matrix(0.05 0 0 0.05 -10 -11)"
     d="M 5343.55,5499.17 L 5321.37,5499.17 L 5321.37,5284.13 L 5343.55,5284.13 L 5343.55,5499.17 Z "
     id="path62" />
  <path
     stroke="none"
     fill="#000000"
     transform="matrix(0.05 0 0 0.05 -10 -11)"
     d="M 5398.99,5499.17 L 5376.81,5499.17 L 5376.81,5284.13 L 5398.99,5284.13 L 5398.99,5499.17 Z "
     id="path63" />
  <text
     x="0"
     y="0"
     stroke="none"
     fill="#000000"
     transform="matrix(0.05 0 0 0.05 267.478 273.885)"
     font-style="normal"
     font-weight="bold"
     font-size="180px"
     font-family="Helvetica"
     id="text63">
OH</text>
  <path
     stroke="none"
     fill="#000000"
     transform="matrix(0.05 0 0 0.05 -10 -11)"
     d="M 5360.43,5495.32 L 5360.38,5469.65 L 5541.98,5575.33 L 5530.9,5594.53 L 5360.43,5495.32 Z "
     id="path64" />
  <text
     x="0"
     y="0"
     stroke="none"
     fill="#000000"
     transform="matrix(0.05 0 0 0.05 90.7677 190.164)"
     font-style="normal"
     font-weight="bold"
     font-size="200px"
     font-family="Helvetica"
     id="text64">
SOCl</text>
  <text
     x="0"
     y="0"
     stroke="none"
     fill="#000000"
     transform="matrix(0.05 0 0 0.05 115.216 192.463)"
     font-style="normal"
     font-weight="bold"
     font-size="150px"
     font-family="Helvetica"
     id="text65">
2</text>
  <path
     stroke="none"
     fill="#000000"
     transform="matrix(0.05 0 0 0.05 -10 -11)"
     d="M 4836.56,7186.05 L 4836.56,6578.81 L 4858.56,6578.81 L 4858.56,7186.05 Z "
     id="path65" />
  <path
     stroke="none"
     fill="#000000"
     transform="matrix(0.05 0 0 0.05 -10 -11)"
     d="M 4847.56,7379.08 C 4847.56,7379.08 4790.12,7157.33 4790.12,7157.33 C 4790.12,7157.33 4822.43,7185.05 4847.56,7185.05 C 4872.25,7185.05 4904,7157.33 4904,7157.33 C 4904,7157.33 4847.56,7379.08 4847.56,7379.08 C 4847.56,7379.08 4847.56,7379.08 4847.56,7379.08 "
     id="path66" />
  <path
     stroke="#000000"
     stroke-width="1"
     fill="none"
     transform="matrix(0.05 0 0 0.05 -10 -11)"
     d="M 4847.56,7379.08 C 4847.56,7379.08 4790.12,7157.33 4790.12,7157.33 C 4790.12,7157.33 4822.43,7185.05 4847.56,7185.05 C 4872.25,7185.05 4904,7157.33 4904,7157.33 C 4904,7157.33 4847.56,7379.08 4847.56,7379.08 C 4847.56,7379.08 4847.56,7379.08 4847.56,7379.08 "
     id="path67" />
  <path
     stroke="none"
     fill="#000000"
     d="M 262.82123,318.4905 H 232.378 v -1.1 h 30.44323 z"
     id="path68"
     style="stroke-width:0.0355271" />
  <text
     x="0"
     y="0"
     stroke="none"
     fill="#000000"
     transform="matrix(0.05 0 0 0.05 305.146 192.178)"
     font-style="normal"
     font-weight="bold"
     font-size="180px"
     font-family="Helvetica"
     id="text82">
HO</text>
  <path
     stroke="none"
     fill="#000000"
     transform="matrix(0.05 0 0 0.05 -10 -11)"
     d="M 6591.9,3960.21 L 6580.81,3941.01 L 6761.65,3835.77 L 6761.6,3861.44 L 6591.9,3960.21 Z "
     id="path82" />
  <path
     stroke="none"
     fill="#000000"
     transform="matrix(0.05 0 0 0.05 -10 -11)"
     d="M 6761.6,3861.44 L 6761.65,3835.77 L 7026.34,3989.18 L 7015.25,4008.39 L 6761.6,3861.44 Z "
     id="path83" />
  <path
     stroke="none"
     fill="#000000"
     transform="matrix(0.05 0 0 0.05 -10 -11)"
     d="M 5439.55,6578.81 L 5439.55,5942.81 L 5461.55,5942.81 L 5461.55,6578.81 Z "
     id="path90" />
  <text
     x="0"
     y="0"
     stroke="none"
     fill="#000000"
     transform="matrix(0.05 0 0 0.05 310.695 202.748)"
     font-style="normal"
     font-weight="bold"
     font-size="200px"
     font-family="Helvetica"
     id="text96">
cat. </text>
  <text
     x="0"
     y="0"
     stroke="none"
     fill="#000000"
     transform="matrix(0.05 0 0 0.05 330.705 202.748)"
     font-style="normal"
     font-weight="bold"
     font-size="200px"
     font-family="Helvetica"
     id="text97">
H</text>
  <text
     x="0"
     y="0"
     stroke="none"
     fill="#000000"
     transform="matrix(0.05 0 0 0.05 337.926 199.15)"
     font-style="normal"
     font-weight="bold"
     font-size="150px"
     font-family="Helvetica"
     id="text98">
+</text>
  <text
     x="0"
     y="0"
     stroke="none"
     fill="#000000"
     transform="matrix(0.05 0 0 0.05 221.906 181.379)"
     font-style="normal"
     font-weight="bold"
     font-size="200px"
     font-family="Helvetica"
     id="text130">
Na</text>
  <text
     x="0"
     y="0"
     stroke="none"
     fill="#000000"
     transform="matrix(0.05 0 0 0.05 234.69 183.679)"
     font-style="normal"
     font-weight="bold"
     font-size="150px"
     font-family="Helvetica"
     id="text131">
2</text>
  <text
     x="0"
     y="0"
     stroke="none"
     fill="#000000"
     transform="matrix(0.05 0 0 0.05 238.861 181.379)"
     font-style="normal"
     font-weight="bold"
     font-size="200px"
     font-family="Helvetica"
     id="text132">
CO</text>
  <text
     x="0"
     y="0"
     stroke="none"
     fill="#000000"
     transform="matrix(0.05 0 0 0.05 253.861 183.679)"
     font-style="normal"
     font-weight="bold"
     font-size="150px"
     font-family="Helvetica"
     id="text133">
3</text>
  <text
     x="0"
     y="0"
     stroke="none"
     fill="#000000"
     transform="matrix(0.05 0 0 0.05 231.188 192.775)"
     font-style="normal"
     font-weight="bold"
     font-size="160px"
     font-family="Helvetica"
     id="text134">
or </text>
  <text
     x="0"
     y="0"
     stroke="none"
     fill="#000000"
     transform="matrix(0.05 0 0 0.05 241.411 192.775)"
     font-style="normal"
     font-weight="bold"
     font-size="160px"
     font-family="Helvetica"
     id="text135">
NaH</text>
  <text
     x="0"
     y="0"
     stroke="none"
     fill="#000000"
     transform="matrix(0.05 0 0 0.05 224.965 200.825)"
     font-style="normal"
     font-weight="bold"
     font-size="160px"
     font-family="Helvetica"
     id="text136">
or </text>
  <text
     x="0"
     y="0"
     stroke="none"
     fill="#000000"
     transform="matrix(0.05 0 0 0.05 235.188 200.825)"
     font-style="normal"
     font-weight="bold"
     font-size="160px"
     font-family="Helvetica"
     id="text137">
NaOH</text>
  <text
     x="0"
     y="0"
     stroke="none"
     fill="#000000"
     transform="matrix(0.05 0 0 0.05 185.195 332.915)"
     font-style="normal"
     font-weight="bold"
     font-size="200px"
     font-family="Helvetica"
     id="text159">
1) </text>
  <text
     x="0"
     y="0"
     stroke="none"
     fill="#000000"
     transform="matrix(0.05 0 0 0.05 196.865 332.915)"
     font-style="normal"
     font-weight="bold"
     font-size="200px"
     font-family="Helvetica"
     id="text160">
LiAl</text>
  <text
     x="0"
     y="0"
     stroke="none"
     fill="#0000ff"
     transform="matrix(0.05 0 0 0.05 215.752 332.915)"
     font-style="normal"
     font-weight="bold"
     font-size="200px"
     font-family="Helvetica"
     id="text161">
H</text>
  <text
     x="0"
     y="0"
     stroke="none"
     fill="#000000"
     transform="matrix(0.05 0 0 0.05 222.973 335.215)"
     font-style="normal"
     font-weight="bold"
     font-size="150px"
     font-family="Helvetica"
     id="text162">
4</text>
  <text
     x="0"
     y="0"
     stroke="none"
     fill="#000000"
     transform="matrix(0.05 0 0 0.05 185.195 343.948)"
     font-style="normal"
     font-weight="bold"
     font-size="200px"
     font-family="Helvetica"
     id="text163">
2) </text>
  <text
     x="0"
     y="0"
     stroke="none"
     fill="#000000"
     transform="matrix(0.05 0 0 0.05 196.865 343.948)"
     font-style="normal"
     font-weight="bold"
     font-size="200px"
     font-family="Helvetica"
     id="text164">
H</text>
  <text
     x="0"
     y="0"
     stroke="none"
     fill="#000000"
     transform="matrix(0.05 0 0 0.05 204.087 346.248)"
     font-style="normal"
     font-weight="bold"
     font-size="150px"
     font-family="Helvetica"
     id="text165">
3</text>
  <text
     x="0"
     y="0"
     stroke="none"
     fill="#000000"
     transform="matrix(0.05 0 0 0.05 208.258 343.948)"
     font-style="normal"
     font-weight="bold"
     font-size="200px"
     font-family="Helvetica"
     id="text166">
O</text>
  <text
     x="0"
     y="0"
     stroke="none"
     fill="#000000"
     transform="matrix(0.05 0 0 0.05 216.036 340.35)"
     font-style="normal"
     font-weight="bold"
     font-size="150px"
     font-family="Helvetica"
     id="text167">
+</text>
  <path
     stroke="none"
     fill="#ffffff"
     opacity="0"
     onclick="window.location.href = 'acidchlorides-o1.svg'"
     transform="matrix(0.05 0 0 0.05 -10 -11)"
     d="M 3174.6,3417.7 C 3174.6,3417.7 3174.6,2215.5 3174.6,2215.5 C 3174.6,2215.5 2229.8,2215.5 2229.8,2215.5 C 2229.8,2215.5 2229.8,3417.7 2229.8,3417.7 C 2229.8,3417.7 3174.6,3417.7 3174.6,3417.7 "
     id="path2"
     inkscape:label="l-acidchlorides" />
  <path
     stroke="none"
     fill="#ffffff"
     opacity="0"
     onclick="window.location.href = 'acids-o1.svg'"
     transform="matrix(0.05 0 0 0.05 -10 -11)"
     d="M 5891.6,3403.4 C 5891.6,3403.4 5891.6,2201.2 5891.6,2201.2 C 5891.6,2201.2 4860.66,2201.2 4860.66,2201.2 C 4860.66,2201.2 4860.66,3403.4 4860.66,3403.4 C 4860.66,3403.4 5891.6,3403.4 5891.6,3403.4 "
     id="path12"
     inkscape:label="l-acids" />
  <path
     stroke="none"
     fill="#ffffff"
     opacity="0"
     onclick="window.location.href = 'alcohols-o1.svg'"
     transform="matrix(0.05 0 0 0.05 -10 -11)"
     d="M 5291,8265.4 C 5291,8265.4 5291,7395.45 5291,7395.45 C 5291,7395.45 4390.02,7395.45 4390.02,7395.45 C 4390.02,7395.45 4390.02,8265.4 4390.02,8265.4 C 4390.02,8265.4 5291,8265.4 5291,8265.4 "
     id="path16"
     inkscape:label="l-alcohols" />
  <path
     stroke="none"
     fill="#ffffff"
     opacity="0"
     onclick="window.location.href = 'toacids-o1.svg'"
     d="m 288.76719,281.43532 c 0,0 0,-42.95 0,-42.95 0,0 -92.65692,0 -92.65692,0 0,0 0,42.95 0,42.95 0,0 92.65692,0 92.65692,0"
     id="path18-9"
     inkscape:label="l-acids"
     style="opacity:0;stroke-width:0.0705612" />
  <path
     stroke="none"
     fill="#ffffff"
     opacity="0"
     onclick="window.location.href = 'supplement-o1.svg'"
     d="m 229.56978,348.72852 c 0,0 0,-25.74827 0,-25.74827 0,0 -46.525,0 -46.525,0 0,0 0,25.74827 0,25.74827 0,0 46.525,0 46.525,0"
     id="path18-9-6"
     inkscape:label="l-supplement"
     style="opacity:0;stroke-width:0.0387135" />
  <path
     stroke="none"
     fill="#ffffff"
     opacity="0"
     onclick="window.location.href = 'supplement-o1.svg'"
     d="m 121.90587,197.72324 c 0,0 0,-18.7112 0,-18.7112 0,0 -35.578443,0 -35.578443,0 0,0 0,18.7112 0,18.7112 0,0 35.578443,0 35.578443,0"
     id="path18-9-6-8-8"
     inkscape:label="l-supplement"
     style="opacity:0;stroke-width:0.0288595" />
  <path
     stroke="none"
     fill="#ffffff"
     opacity="0"
     onclick="window.location.href = 'supplement-o1.svg'"
     d="m 260.14223,204.56291 c 0,0 0,-33.56724 0,-33.56724 0,0 -43.39741,0 -43.39741,0 0,0 0,33.56724 0,33.56724 0,0 43.39741,0 43.39741,0"
     id="path18-9-6-8-0"
     inkscape:label="l-supplement"
     style="opacity:0;stroke-width:0.0426908" />
  <path
     stroke="none"
     fill="#ffffff"
     opacity="0"
     onclick="window.location.href = 'supplement-o1.svg'"
     d="m 342.03535,205.9086 c 0,0 0,-11.67413 0,-11.67413 0,0 -35.57844,0 -35.57844,0 0,0 0,11.67413 0,11.67413 0,0 35.57844,0 35.57844,0"
     id="path18-9-6-8-5"
     inkscape:label="l-supplement"
     style="opacity:0;stroke-width:0.0227956" />
  <path
     stroke="none"
     fill="#ffffff"
     opacity="0"
     onclick="window.location.href = 'toalcohols-o1.svg'"
     d="m 343.16199,194.43532 c 0,0 0,-17.9293 0,-17.9293 0,0 -40.26982,0 -40.26982,0 0,0 0,17.9293 0,17.9293 0,0 40.26982,0 40.26982,0"
     id="path18-9-6-8-2-0"
     inkscape:label="l-toalcohols"
     style="opacity:0;stroke-width:0.030055" />
  <g
     id="noreagents"
     onclick="window.location.href = 'acids-noreagents-o1.svg'"
     transform="translate(-4.6856272,378.9067)">
    <text
       x="11.200497"
       y="54.141506"
       stroke="none"
       fill="#000000"
       font-style="normal"
       font-weight="bold"
       font-size="200px"
       font-family="Helvetica"
       id="gobacktext-7"
       style="font-style:normal;font-weight:bold;font-size:10px;font-family:Helvetica;fill:#000000;fill-opacity:0.443609;stroke:none;stroke-width:0.05"
       inkscape:label="noreagents-text"><tspan
         sodipodi:role="line"
         id="tspan2"
         x="11.200497"
         y="54.141506"
         style="font-style:normal;font-variant:normal;font-weight:bold;font-stretch:normal;font-size:8px;font-family:Helvetica;-inkscape-font-specification:'Helvetica, Bold';font-variant-ligatures:normal;font-variant-caps:normal;font-variant-numeric:normal;font-variant-east-asian:normal;fill:#000000;fill-opacity:0.5;stroke-width:0.05">reagents</tspan></text>
    <rect
       style="fill:#000000;fill-opacity:0.821053;fill-rule:evenodd;stroke:#a13033;stroke-width:0;stroke-linecap:round;stroke-miterlimit:2;stroke-dasharray:none;paint-order:markers fill stroke"
       id="rect3"
       width="31.666824"
       height="0.9773711"
       x="12.224979"
       y="51.518982"
       inkscape:label="noreagents-line" />
    <path
       stroke="none"
       fill="#999999"
       d="m 9.795,54.694678 c 0,0 0,-5.427567 0,-5.427567 0,-2.098514 1.463398,-3.801611 3.266274,-3.801611 0,0 30.608907,0 30.608907,0 1.803073,0 3.266397,1.703097 3.266397,3.801611 0,0 0,5.427567 0,5.427567 0,2.098514 -1.463324,3.801611 -3.266397,3.801611 0,0 -30.608907,0 -30.608907,0 -1.802876,0 -3.266274,-1.703097 -3.266274,-3.801611"
       id="goback-box-8"
       style="fill:#999999;fill-opacity:0.336842;stroke-width:0.0264832"
       inkscape:label="noreagents-box" />
  </g>
  <g
     id="nonames"
     onclick="window.location.href = 'acids-o1.svg'"
     transform="matrix(0.85780308,0,0,1,-3.2442635,382.9067)">
    <text
       x="18.441887"
       y="69.010506"
       stroke="none"
       fill="#000000"
       font-style="normal"
       font-weight="bold"
       font-size="200px"
       font-family="Helvetica"
       id="gobacktext-7-8"
       style="font-style:normal;font-variant:normal;font-weight:bold;font-stretch:normal;font-size:10px;font-family:Helvetica;-inkscape-font-specification:'Helvetica, Bold';font-variant-ligatures:normal;font-variant-caps:normal;font-variant-numeric:normal;font-variant-east-asian:normal;fill:#0088d0;fill-opacity:0.675806;stroke:none;stroke-width:0.05"
       inkscape:label="noproducts-text"><tspan
         sodipodi:role="line"
         id="tspan1"
         x="18.441887"
         y="69.010506">show</tspan></text>
    <path
       stroke="none"
       fill="#999999"
       d="m 10.136392,68.163695 c 0,0 0,-5.427567 0,-5.427567 0,-2.098514 1.679048,-3.801611 3.747601,-3.801611 0,0 35.119514,0 35.119514,0 2.068778,0 3.747742,1.703097 3.747742,3.801611 0,0 0,5.427567 0,5.427567 0,2.098514 -1.678964,3.801611 -3.747742,3.801611 0,0 -35.119514,0 -35.119514,0 -2.068553,0 -3.747601,-1.703097 -3.747601,-3.801611"
       id="goback-box-8-6"
       style="fill:#999999;fill-opacity:0.336842;stroke-width:0.0283675"
       inkscape:label="noproducts-box" />
  </g>
  <text
     x="822.84332"
     y="415.79849"
     stroke="none"
     fill="#000000"
     transform="matrix(0.92407999,-0.00322566,0.00377741,1.0821442,0,0)"
     font-style="italic"
     font-weight="bold"
     font-size="8.25806px"
     font-family="'Helvetica Oblique'"
     id="text11"
     style="opacity:1;fill:#00009a;fill-opacity:0.651128;stroke-width:0.0412903">chemisfun</text>
  <g
     id="overlay-box"
     style="opacity:0"
     transform="matrix(0.31364504,0,0,0.8007311,650.50736,385.81436)">
    <rect
       style="fill:#609975;fill-opacity:0.2;stroke:#609970;stroke-width:0;stroke-linecap:round;stroke-opacity:0.657143;paint-order:fill markers stroke"
       id="rect285"
       width="164.84744"
       height="59.583412"
       x="329.69489"
       y="23.171328" />
  </g>
  <g
     id="overlay"
     onclick="window.location.href = 'index.html'"
     onmouseover="this.ownerDocument.getElementById('overlay-box').style.opacity='0.5'"
     onmouseout="this.ownerDocument.getElementById('overlay-box').style.opacity='0'"
     transform="matrix(0.76550767,-0.0030054,0.00267214,0.86098131,195.61318,22.784653)">
    <rect
       style="opacity:0.5;fill:#ffffff;fill-opacity:0;stroke-linecap:round;stroke-opacity:0.657143;paint-order:stroke fill markers"
       id="rect2"
       width="65.93074"
       height="55.035408"
       x="733.06049"
       y="445.87061" />
  </g>
  <g
     id="g1"
     transform="matrix(0.0625,0,0,0.0625,764.65732,406.62566)">
    <rect
       x="239.31"
       y="120.321"
       style="fill:#444242"
       width="33.389"
       height="139.98"
       id="rect1" />
    <rect
       x="256"
       y="120.321"
       style="fill:#3a3839"
       width="16.695"
       height="139.98"
       id="rect2-2" />
    <rect
       x="132.194"
       y="305.86301"
       transform="matrix(0.5,0.866,-0.866,0.5,399.932,58.9793)"
       style="fill:#444242"
       width="33.387001"
       height="139.967"
       id="rect4" />
    <rect
       x="293.125"
       y="359.13"
       transform="matrix(0.866,0.5,-0.5,0.866,236.5654,-131.205)"
       style="fill:#3a3839"
       width="139.967"
       height="33.387001"
       id="rect5" />
    <path
       style="background-color:#ffffff00;fill:#439de2;fill-opacity:1"
       d="m 456.843,485.07 c -9.538,0 -18.951,-2.501 -27.432,-7.398 v 0 c -12.733,-7.351 -21.842,-19.221 -25.646,-33.424 -3.805,-14.201 -1.853,-29.035 5.499,-41.769 7.351,-12.732 19.221,-21.841 33.424,-25.646 14.201,-3.806 29.034,-1.853 41.769,5.499 12.732,7.351 21.841,19.221 25.646,33.424 3.805,14.202 1.853,29.035 -5.499,41.769 -7.351,12.733 -19.221,21.842 -33.424,25.646 -4.742,1.27 -9.557,1.899 -14.337,1.899 z"
       id="path7-3" />
    <path
       style="background-color:#ffffff00;fill:#eda74a;fill-opacity:1"
       d="m 256.001,137.021 c -30.352,0 -55.044,-24.693 -55.044,-55.044 0,-30.351 24.693,-55.044 55.044,-55.044 30.351,0 55.044,24.693 55.044,55.044 0,30.351 -24.693,55.044 -55.044,55.044 z"
       id="path5-4" />
    <path
       style="background-color:#ffffff00;fill:#53acb1;fill-opacity:1"
       d="m 55.158,485.07 c -4.781,0 -9.594,-0.629 -14.336,-1.9 C 26.619,479.365 14.75,470.256 7.398,457.524 0.046,444.792 -1.906,429.957 1.899,415.755 c 3.805,-14.203 12.914,-26.072 25.646,-33.424 12.731,-7.352 27.567,-9.304 41.769,-5.499 14.203,3.805 26.072,12.914 33.424,25.646 7.352,12.732 9.304,27.567 5.499,41.769 -3.805,14.203 -12.914,26.072 -25.646,33.424 -8.481,4.897 -17.896,7.399 -27.433,7.399 z"
       id="path6-7" />
    <path
       style="fill:#f74d37"
       d="m 256.001,384.379 c -38.81,0 -70.384,-31.575 -70.384,-70.384 0,-38.809 31.575,-70.384 70.384,-70.384 38.809,0 70.384,31.575 70.384,70.384 0,38.809 -31.575,70.384 -70.384,70.384 z"
       id="path4-9" />
  </g>
</svg>
