<?xml version="1.0" encoding="UTF-8" standalone="no"?>
<svg
   width="100%"
   height="100%"
   viewBox="0 0 818 460"
   style="background-color: #ffffff00"
   version="1.1"
   id="svg213"
   sodipodi:docname="acidchlorides-noproducts.svg"
   inkscape:version="1.4.2 (ebf0e940, 2025-05-08)"
   xmlns:inkscape="http://www.inkscape.org/namespaces/inkscape"
   xmlns:sodipodi="http://sodipodi.sourceforge.net/DTD/sodipodi-0.dtd"
   xmlns="http://www.w3.org/2000/svg"
   xmlns:svg="http://www.w3.org/2000/svg">
  <path
     stroke="#ffffff"
     stroke-width="1"
     fill="none"
     transform="matrix(0.05 0 0 0.05 -10 -11)"
     d="M 3203.2,2717 C 3203.2,2717 3203.2,1900.9 3203.2,1900.9 C 3203.2,1900.9 2287,1900.9 2287,1900.9 C 2287,1900.9 2287,2717 2287,2717 C 2287,2717 3203.2,2717 3203.2,2717 "
     id="path2" />
  <path
     stroke="#ffffff"
     stroke-width="1"
     fill="none"
     transform="matrix(0.05 0 0 0.05 -10 -11)"
     d="M 6034.6,2731.3 C 6034.6,2731.3 6034.6,1886.6 6034.6,1886.6 C 6034.6,1886.6 5046.9,1886.6 5046.9,1886.6 C 5046.9,1886.6 5046.9,2731.3 5046.9,2731.3 C 5046.9,2731.3 6034.6,2731.3 6034.6,2731.3 "
     id="path6" />
  <path
     stroke="#ffffff"
     stroke-width="1"
     fill="none"
     transform="matrix(0.05 0 0 0.05 -10 -11)"
     d="M 7907.9,2759.9 C 7907.9,2759.9 7907.9,1915.2 7907.9,1915.2 C 7907.9,1915.2 6991.7,1915.2 6991.7,1915.2 C 6991.7,1915.2 6991.7,2759.9 6991.7,2759.9 C 6991.7,2759.9 7907.9,2759.9 7907.9,2759.9 "
     id="path8" />
  <path
     stroke="#ffffff"
     stroke-width="1"
     fill="none"
     transform="matrix(0.05 0 0 0.05 -10 -11)"
     d="M 4004,7636.2 C 4004,7636.2 4004,6877.3 4004,6877.3 C 4004,6877.3 3102.1,6877.3 3102.1,6877.3 C 3102.1,6877.3 3102.1,7636.2 3102.1,7636.2 C 3102.1,7636.2 4004,7636.2 4004,7636.2 "
     id="path10" />
  <path
     stroke="#ffffff"
     stroke-width="1"
     fill="none"
     transform="matrix(0.05 0 0 0.05 -10 -11)"
     d="M 7121.4,7636.2 C 7121.4,7636.2 7121.4,6720 7121.4,6720 C 7121.4,6720 6162.3,6720 6162.3,6720 C 6162.3,6720 6162.3,7636.2 6162.3,7636.2 C 6162.3,7636.2 7121.4,7636.2 7121.4,7636.2 "
     id="path14" />
  <path
     stroke="#000000"
     stroke-width="22"
     fill="none"
     transform="matrix(0.05 0 0 0.05 -10 -11)"
     d="M 16494.7,9367.47 C 16494.7,9367.47 16494.7,284.602 16494.7,284.602 C 16494.7,284.602 268.683,284.602 268.683,284.602 C 268.683,284.602 268.683,9367.47 268.683,9367.47 C 268.683,9367.47 16494.7,9367.47 16494.7,9367.47 "
     id="path23" />
  <text
     x="0"
     y="0"
     stroke="none"
     fill="#000000"
     transform="matrix(0.05 0 0 0.05 11.735 21.13)"
     font-style="normal"
     font-weight="bold"
     font-size="320px"
     font-family="Helvetica"
     id="text23">
Acid Chlorides and Anhydrides - Reactions</text>
  <text
     x="0"
     y="0"
     stroke="none"
     fill="#999999"
     transform="matrix(0.05 0 0 0.05 11.9381 39.085)"
     font-style="normal"
     font-weight="normal"
     font-size="320px"
     font-family="Helvetica"
     id="text29">
click for more</text>
  <g
     id="goback"
     onclick="window.location.href = 'index.svg'"
     onmouseover="document.getElementById('goback-box').setAttribute('opacity','0.5');"
     onmouseout="document.getElementById('goback-box').setAttribute('opacity','1')">
    <path
       stroke="none"
       fill="#999999"
       transform="matrix(0.05 0 0 0.05 -10 -11)"
       d="M 395.9,1492.34 C 395.9,1492.34 395.9,1302.37 395.9,1302.37 C 395.9,1228.92 455.513,1169.31 528.955,1169.31 C 528.955,1169.31 1775.84,1169.31 1775.84,1169.31 C 1849.29,1169.31 1908.9,1228.92 1908.9,1302.37 C 1908.9,1302.37 1908.9,1492.34 1908.9,1492.34 C 1908.9,1565.79 1849.29,1625.4 1775.84,1625.4 C 1775.84,1625.4 528.955,1625.4 528.955,1625.4 C 455.513,1625.4 395.9,1565.79 395.9,1492.34 "
       id="goback-box" />
    <text
       x="0"
       y="0"
       stroke="none"
       fill="#000000"
       transform="matrix(0.05 0 0 0.05 29.3796 61.765)"
       font-style="normal"
       font-weight="bold"
       font-size="200px"
       font-family="Helvetica"
       id="gobacktext">
go home</text>
    <path
       stroke="#999999"
       stroke-width="1"
       transform="matrix(0.05 0 0 0.05 -10 -11)"
       d="M 395.9,1492.34 C 395.9,1492.34 395.9,1302.37 395.9,1302.37 C 395.9,1228.92 455.513,1169.31 528.955,1169.31 C 528.955,1169.31 1775.84,1169.31 1775.84,1169.31 C 1849.29,1169.31 1908.9,1228.92 1908.9,1302.37 C 1908.9,1302.37 1908.9,1492.34 1908.9,1492.34 C 1908.9,1565.79 1849.29,1625.4 1775.84,1625.4 C 1775.84,1625.4 528.955,1625.4 528.955,1625.4 C 455.513,1625.4 395.9,1565.79 395.9,1492.34 "
       onclick="history.back()"
       style="opacity:0"
       id="goback-link" />
  </g>
  <g
     id="howtomake"
     onclick="window.location.href = 'toacidchlorides.svg'"
     onmouseover="document.getElementById('howtomake-box').setAttribute('opacity','0.5');"
     onmouseout="document.getElementById('howtomake-box').setAttribute('opacity','1')">
    <path
       stroke="none"
       fill="#999999"
       transform="matrix(0.05 0 0 0.05 -10 -11)"
       d="M 381.591,2007.46 C 381.591,2007.46 381.591,1817.48 381.591,1817.48 C 381.591,1744.04 441.204,1684.42 514.647,1684.42 C 514.647,1684.42 1761.54,1684.42 1761.54,1684.42 C 1834.98,1684.42 1894.59,1744.04 1894.59,1817.48 C 1894.59,1817.48 1894.59,2007.46 1894.59,2007.46 C 1894.59,2080.9 1834.98,2140.51 1761.54,2140.51 C 1761.54,2140.51 514.647,2140.51 514.647,2140.51 C 441.204,2140.51 381.591,2080.9 381.591,2007.46 "
       id="howtomake-box" />
    <text
       x="0"
       y="0"
       stroke="none"
       fill="#000000"
       transform="matrix(0.05 0 0 0.05 17.275 87.5206)"
       font-style="normal"
       font-weight="bold"
       font-size="200px"
       font-family="Helvetica"
       id="howtomaketext">
how to make</text>
    <path
       stroke="#999999"
       stroke-width="1"
       transform="matrix(0.05 0 0 0.05 -10 -11)"
       d="M 381.591,2007.46 C 381.591,2007.46 381.591,1817.48 381.591,1817.48 C 381.591,1744.04 441.204,1684.42 514.647,1684.42 C 514.647,1684.42 1761.54,1684.42 1761.54,1684.42 C 1834.98,1684.42 1894.59,1744.04 1894.59,1817.48 C 1894.59,1817.48 1894.59,2007.46 1894.59,2007.46 C 1894.59,2080.9 1834.98,2140.51 1761.54,2140.51 C 1761.54,2140.51 514.647,2140.51 514.647,2140.51 C 441.204,2140.51 381.591,2080.9 381.591,2007.46 "
       style="opacity:0"
       id="howtomake-link" />
  </g>
  <path
     stroke="none"
     fill="#000000"
     transform="matrix(0.05 0 0 0.05 -10 -11)"
     d="M 5966.4,5963.1 L 5966.4,5582.45 L 5988.4,5582.45 L 5988.4,5963.1 Z "
     id="path33" />
  <path
     stroke="none"
     fill="#000000"
     transform="matrix(0.05 0 0 0.05 -10 -11)"
     d="M 5966.4,5582.45 L 5966.4,5142.89 L 5988.4,5142.89 L 5988.4,5582.45 Z "
     id="path34" />
  <path
     stroke="none"
     fill="#000000"
     transform="matrix(0.05 0 0 0.05 -10 -11)"
     d="M 5480.7,2955.3 L 5480.7,3655.22 L 5458.7,3655.22 L 5458.7,2955.3 Z "
     id="path35" />
  <path
     stroke="none"
     fill="#000000"
     transform="matrix(0.05 0 0 0.05 -10 -11)"
     d="M 5469.7,2762.26 C 5469.7,2762.26 5526.14,2984.02 5526.14,2984.02 C 5526.14,2984.02 5494.39,2956.3 5469.7,2956.3 C 5444.57,2956.3 5412.26,2984.02 5412.26,2984.02 C 5412.26,2984.02 5469.7,2762.26 5469.7,2762.26 C 5469.7,2762.26 5469.7,2762.26 5469.7,2762.26 "
     id="path36" />
  <path
     stroke="#000000"
     stroke-width="1"
     fill="none"
     transform="matrix(0.05 0 0 0.05 -10 -11)"
     d="M 5469.7,2762.26 C 5469.7,2762.26 5526.14,2984.02 5526.14,2984.02 C 5526.14,2984.02 5494.39,2956.3 5469.7,2956.3 C 5444.57,2956.3 5412.26,2984.02 5412.26,2984.02 C 5412.26,2984.02 5469.7,2762.26 5469.7,2762.26 C 5469.7,2762.26 5469.7,2762.26 5469.7,2762.26 "
     id="path37" />
  <path
     stroke="none"
     fill="#000000"
     transform="matrix(0.05 0 0 0.05 -10 -11)"
     d="M 4110.8,2910.04 L 4110.8,3668.53 L 4088.8,3668.53 L 4088.8,2910.04 Z "
     id="path38" />
  <path
     stroke="none"
     fill="#000000"
     transform="matrix(0.05 0 0 0.05 -10 -11)"
     d="M 4099.8,2717 C 4099.8,2717 4156.24,2938.76 4156.24,2938.76 C 4156.24,2938.76 4124.49,2911.04 4099.8,2911.04 C 4074.67,2911.04 4042.36,2938.76 4042.36,2938.76 C 4042.36,2938.76 4099.8,2717 4099.8,2717 C 4099.8,2717 4099.8,2717 4099.8,2717 "
     id="path39" />
  <path
     stroke="#000000"
     stroke-width="1"
     fill="none"
     transform="matrix(0.05 0 0 0.05 -10 -11)"
     d="M 4099.8,2717 C 4099.8,2717 4156.24,2938.76 4156.24,2938.76 C 4156.24,2938.76 4124.49,2911.04 4099.8,2911.04 C 4074.67,2911.04 4042.36,2938.76 4042.36,2938.76 C 4042.36,2938.76 4099.8,2717 4099.8,2717 C 4099.8,2717 4099.8,2717 4099.8,2717 "
     id="path40" />
  <path
     stroke="none"
     fill="#000000"
     transform="matrix(0.05 0 0 0.05 -10 -11)"
     d="M 7478.9,3679.53 L 2712.16,3679.53 L 2712.16,3657.53 L 7478.9,3657.53 Z "
     id="path41" />
  <path
     stroke="none"
     fill="#000000"
     transform="matrix(0.05 0 0 0.05 -10 -11)"
     d="M 2723.16,2938.64 L 2723.16,3668.53 L 2701.16,3668.53 L 2701.16,2938.64 Z "
     id="path42" />
  <path
     stroke="none"
     fill="#000000"
     transform="matrix(0.05 0 0 0.05 -10 -11)"
     d="M 2712.16,2745.6 C 2712.16,2745.6 2768.6,2967.36 2768.6,2967.36 C 2768.6,2967.36 2736.85,2939.64 2712.16,2939.64 C 2687.03,2939.64 2654.72,2967.36 2654.72,2967.36 C 2654.72,2967.36 2712.16,2745.6 2712.16,2745.6 C 2712.16,2745.6 2712.16,2745.6 2712.16,2745.6 "
     id="path43" />
  <path
     stroke="#000000"
     stroke-width="1"
     fill="none"
     transform="matrix(0.05 0 0 0.05 -10 -11)"
     d="M 2712.16,2745.6 C 2712.16,2745.6 2768.6,2967.36 2768.6,2967.36 C 2768.6,2967.36 2736.85,2939.64 2712.16,2939.64 C 2687.03,2939.64 2654.72,2967.36 2654.72,2967.36 C 2654.72,2967.36 2712.16,2745.6 2712.16,2745.6 C 2712.16,2745.6 2712.16,2745.6 2712.16,2745.6 "
     id="path44" />
  <path
     stroke="none"
     fill="#000000"
     transform="matrix(0.05 0 0 0.05 -10 -11)"
     d="M 5458.7,4247.1 L 5458.7,3655.22 L 5480.7,3655.22 L 5480.7,4247.1 Z "
     id="path45" />
  <text
     x="0"
     y="0"
     stroke="none"
     fill="#0000ff"
     transform="matrix(0.05 0 0 0.05 148.033 225.401)"
     font-style="normal"
     font-weight="bold"
     font-size="280px"
     font-family="Helvetica"
     id="text45">
acid chlorides</text>
  <path
     stroke="none"
     fill="#000000"
     transform="matrix(0.05 0 0 0.05 -10 -11)"
     d="M 7489.9,2968.61 L 7489.9,3668.53 L 7467.9,3668.53 L 7467.9,2968.61 Z "
     id="path49" />
  <path
     stroke="none"
     fill="#000000"
     transform="matrix(0.05 0 0 0.05 -10 -11)"
     d="M 7478.9,2775.58 C 7478.9,2775.58 7535.34,2997.33 7535.34,2997.33 C 7535.34,2997.33 7503.59,2969.61 7478.9,2969.61 C 7453.77,2969.61 7421.46,2997.33 7421.46,2997.33 C 7421.46,2997.33 7478.9,2775.58 7478.9,2775.58 C 7478.9,2775.58 7478.9,2775.58 7478.9,2775.58 "
     id="path50" />
  <path
     stroke="#000000"
     stroke-width="1"
     fill="none"
     transform="matrix(0.05 0 0 0.05 -10 -11)"
     d="M 7478.9,2775.58 C 7478.9,2775.58 7535.34,2997.33 7535.34,2997.33 C 7535.34,2997.33 7503.59,2969.61 7478.9,2969.61 C 7453.77,2969.61 7421.46,2997.33 7421.46,2997.33 C 7421.46,2997.33 7478.9,2775.58 7478.9,2775.58 C 7478.9,2775.58 7478.9,2775.58 7478.9,2775.58 "
     id="path51" />
  <text
     x="0"
     y="0"
     stroke="none"
     fill="#000000"
     transform="matrix(0.05 0 0 0.05 298.874 149.046)"
     font-style="normal"
     font-weight="bold"
     font-size="200px"
     font-family="Helvetica"
     id="text51">
LiAl</text>
  <text
     x="0"
     y="0"
     stroke="none"
     fill="#0000ff"
     transform="matrix(0.05 0 0 0.05 317.761 149.046)"
     font-style="normal"
     font-weight="bold"
     font-size="200px"
     font-family="Helvetica"
     id="text52">
H</text>
  <text
     x="0"
     y="0"
     stroke="none"
     fill="#000000"
     transform="matrix(0.05 0 0 0.05 324.983 149.046)"
     font-style="normal"
     font-weight="bold"
     font-size="200px"
     font-family="Helvetica"
     id="text53">
(O</text>
  <text
     x="0"
     y="0"
     stroke="none"
     fill="#000000"
     transform="matrix(0.05 0 0 0.05 336.091 145.447)"
     font-style="normal"
     font-weight="bold"
     font-size="150px"
     font-family="Helvetica"
     id="text54">
t</text>
  <text
     x="0"
     y="0"
     stroke="none"
     fill="#000000"
     transform="matrix(0.05 0 0 0.05 338.589 149.046)"
     font-style="normal"
     font-weight="bold"
     font-size="200px"
     font-family="Helvetica"
     id="text55">
Bu)</text>
  <text
     x="0"
     y="0"
     stroke="none"
     fill="#000000"
     transform="matrix(0.05 0 0 0.05 355.249 151.346)"
     font-style="normal"
     font-weight="bold"
     font-size="150px"
     font-family="Helvetica"
     id="text56">
3</text>
  <path
     stroke="none"
     fill="#000000"
     transform="matrix(0.05 0 0 0.05 -10 -11)"
     d="M 5110.78,4927.59 L 5099.7,4908.39 L 5364.82,4754.73 L 5364.87,4780.4 L 5110.78,4927.59 Z "
     id="path56" />
  <text
     x="0"
     y="0"
     stroke="none"
     fill="#000000"
     transform="matrix(0.05 0 0 0.05 254.731 215.674)"
     font-style="normal"
     font-weight="bold"
     font-size="180px"
     font-family="Helvetica"
     id="text60">
O</text>
  <path
     stroke="none"
     fill="#000000"
     transform="matrix(0.05 0 0 0.05 -10 -11)"
     d="M 5348,4784.24 L 5325.82,4784.24 L 5325.82,4569.2 L 5348,4569.2 L 5348,4784.24 Z "
     id="path61" />
  <path
     stroke="none"
     fill="#000000"
     transform="matrix(0.05 0 0 0.05 -10 -11)"
     d="M 5403.44,4784.24 L 5381.26,4784.24 L 5381.26,4569.2 L 5403.44,4569.2 L 5403.44,4784.24 Z "
     id="path62" />
  <text
     x="0"
     y="0"
     stroke="none"
     fill="#107f01"
     transform="matrix(0.05 0 0 0.05 267.951 238.138)"
     font-style="normal"
     font-weight="bold"
     font-size="180px"
     font-family="Helvetica"
     id="text62">
Cl</text>
  <path
     stroke="none"
     fill="#000000"
     transform="matrix(0.05 0 0 0.05 -10 -11)"
     d="M 5364.87,4780.4 L 5364.82,4754.73 L 5550.12,4862.52 L 5539.04,4881.73 L 5364.87,4780.4 Z "
     id="path63" />
  <text
     x="0"
     y="0"
     stroke="none"
     fill="#000000"
     transform="matrix(0.05 0 0 0.05 162.923 147.313)"
     font-style="normal"
     font-weight="bold"
     font-size="200px"
     font-family="Helvetica"
     id="text63">
ROH</text>
  <text
     x="0"
     y="0"
     stroke="none"
     fill="#000000"
     transform="matrix(0.05 0 0 0.05 100.122 147.313)"
     font-style="normal"
     font-weight="bold"
     font-size="200px"
     font-family="Helvetica"
     id="text64">
H</text>
  <text
     x="0"
     y="0"
     stroke="none"
     fill="#000000"
     transform="matrix(0.05 0 0 0.05 107.344 149.612)"
     font-style="normal"
     font-weight="bold"
     font-size="150px"
     font-family="Helvetica"
     id="text65">
2</text>
  <text
     x="0"
     y="0"
     stroke="none"
     fill="#000000"
     transform="matrix(0.05 0 0 0.05 111.515 147.313)"
     font-style="normal"
     font-weight="bold"
     font-size="200px"
     font-family="Helvetica"
     id="text66">
O</text>
  <text
     x="0"
     y="0"
     stroke="none"
     fill="#0000ff"
     transform="matrix(0.05 0 0 0.05 222.165 298.818)"
     font-style="normal"
     font-weight="bold"
     font-size="200px"
     font-family="Helvetica"
     id="text67">
R</text>
  <text
     x="0"
     y="0"
     stroke="none"
     fill="#000000"
     transform="matrix(0.05 0 0 0.05 229.387 298.818)"
     font-style="normal"
     font-weight="bold"
     font-size="200px"
     font-family="Helvetica"
     id="text68">
MgBr</text>
  <text
     x="0"
     y="0"
     stroke="none"
     fill="#000000"
     transform="matrix(0.05 0 0 0.05 215.452 319.706)"
     font-style="normal"
     font-weight="bold"
     font-size="160px"
     font-family="Helvetica"
     id="text69">
then </text>
  <text
     x="0"
     y="0"
     stroke="none"
     fill="#000000"
     transform="matrix(0.05 0 0 0.05 234.561 319.706)"
     font-style="normal"
     font-weight="bold"
     font-size="160px"
     font-family="Helvetica"
     id="text70">
H</text>
  <text
     x="0"
     y="0"
     stroke="none"
     fill="#000000"
     transform="matrix(0.05 0 0 0.05 240.339 321.546)"
     font-style="normal"
     font-weight="bold"
     font-size="120px"
     font-family="Helvetica"
     id="text71">
3</text>
  <text
     x="0"
     y="0"
     stroke="none"
     fill="#000000"
     transform="matrix(0.05 0 0 0.05 243.675 319.706)"
     font-style="normal"
     font-weight="bold"
     font-size="160px"
     font-family="Helvetica"
     id="text72">
O</text>
  <text
     x="0"
     y="0"
     stroke="none"
     fill="#000000"
     transform="matrix(0.05 0 0 0.05 249.898 316.827)"
     font-style="normal"
     font-weight="bold"
     font-size="120px"
     font-family="Helvetica"
     id="text73">
+</text>
  <path
     stroke="none"
     fill="#000000"
     transform="matrix(0.05 0 0 0.05 -10 -11)"
     d="M 5363.41,6570.33 L 5363.41,5963.1 L 5385.41,5963.1 L 5385.41,6570.33 Z "
     id="path77" />
  <path
     stroke="none"
     fill="#000000"
     transform="matrix(0.05 0 0 0.05 -10 -11)"
     d="M 5374.41,6763.37 C 5374.41,6763.37 5316.97,6541.61 5316.97,6541.61 C 5316.97,6541.61 5349.28,6569.33 5374.41,6569.33 C 5399.1,6569.33 5430.85,6541.61 5430.85,6541.61 C 5430.85,6541.61 5374.41,6763.37 5374.41,6763.37 C 5374.41,6763.37 5374.41,6763.37 5374.41,6763.37 "
     id="path78" />
  <path
     stroke="#000000"
     stroke-width="1"
     fill="none"
     transform="matrix(0.05 0 0 0.05 -10 -11)"
     d="M 5374.41,6763.37 C 5374.41,6763.37 5316.97,6541.61 5316.97,6541.61 C 5316.97,6541.61 5349.28,6569.33 5374.41,6569.33 C 5399.1,6569.33 5430.85,6541.61 5430.85,6541.61 C 5430.85,6541.61 5374.41,6763.37 5374.41,6763.37 C 5374.41,6763.37 5374.41,6763.37 5374.41,6763.37 "
     id="path79" />
  <path
     stroke="none"
     fill="#000000"
     transform="matrix(0.05 0 0 0.05 -10 -11)"
     d="M 6580.39,5974.1 L 5374.41,5974.1 L 5374.41,5952.1 L 6580.39,5952.1 Z "
     id="path80" />
  <path
     stroke="none"
     fill="#000000"
     transform="matrix(0.05 0 0 0.05 -10 -11)"
     d="M 6569.39,6514.56 L 6569.39,5963.1 L 6591.39,5963.1 L 6591.39,6514.56 Z "
     id="path85" />
  <path
     stroke="none"
     fill="#000000"
     transform="matrix(0.05 0 0 0.05 -10 -11)"
     d="M 6580.39,6707.6 C 6580.39,6707.6 6522.95,6485.84 6522.95,6485.84 C 6522.95,6485.84 6555.26,6513.56 6580.39,6513.56 C 6605.08,6513.56 6636.83,6485.84 6636.83,6485.84 C 6636.83,6485.84 6580.39,6707.6 6580.39,6707.6 C 6580.39,6707.6 6580.39,6707.6 6580.39,6707.6 "
     id="path86" />
  <path
     stroke="#000000"
     stroke-width="1"
     fill="none"
     transform="matrix(0.05 0 0 0.05 -10 -11)"
     d="M 6580.39,6707.6 C 6580.39,6707.6 6522.95,6485.84 6522.95,6485.84 C 6522.95,6485.84 6555.26,6513.56 6580.39,6513.56 C 6605.08,6513.56 6636.83,6485.84 6636.83,6485.84 C 6636.83,6485.84 6580.39,6707.6 6580.39,6707.6 C 6580.39,6707.6 6580.39,6707.6 6580.39,6707.6 "
     id="path87" />
  <text
     x="0"
     y="0"
     stroke="none"
     fill="#000000"
     transform="matrix(0.05 0 0 0.05 323.505 298.971)"
     font-style="normal"
     font-weight="bold"
     font-size="200px"
     font-family="Helvetica"
     id="text87">
LiAl</text>
  <text
     x="0"
     y="0"
     stroke="none"
     fill="#0000ff"
     transform="matrix(0.05 0 0 0.05 342.391 298.971)"
     font-style="normal"
     font-weight="bold"
     font-size="200px"
     font-family="Helvetica"
     id="text88">
H</text>
  <text
     x="0"
     y="0"
     stroke="none"
     fill="#000000"
     transform="matrix(0.05 0 0 0.05 349.613 301.271)"
     font-style="normal"
     font-weight="bold"
     font-size="150px"
     font-family="Helvetica"
     id="text89">
4</text>
  <text
     x="0"
     y="0"
     stroke="none"
     fill="#000000"
     transform="matrix(0.05 0 0 0.05 228.858 147.093)"
     font-style="normal"
     font-weight="bold"
     font-size="200px"
     font-family="Helvetica"
     id="text90">
RNH</text>
  <text
     x="0"
     y="0"
     stroke="none"
     fill="#000000"
     transform="matrix(0.05 0 0 0.05 250.523 149.393)"
     font-style="normal"
     font-weight="bold"
     font-size="150px"
     font-family="Helvetica"
     id="text91">
2</text>
  <text
     x="0"
     y="0"
     stroke="none"
     fill="#000000"
     transform="matrix(0.05 0 0 0.05 278.61 223.659)"
     font-style="normal"
     font-weight="bold"
     font-size="200px"
     font-family="Helvetica"
     id="text92">
or</text>
  <path
     stroke="none"
     fill="#000000"
     transform="matrix(0.05 0 0 0.05 -10 -11)"
     d="M 6118.97,4910.13 L 6107.88,4890.93 L 6373.02,4737.26 L 6373.07,4762.93 L 6118.97,4910.13 Z "
     id="path92" />
  <text
     x="0"
     y="0"
     stroke="none"
     fill="#000000"
     transform="matrix(0.05 0 0 0.05 305.14 214.801)"
     font-style="normal"
     font-weight="bold"
     font-size="180px"
     font-family="Helvetica"
     id="text93">
O</text>
  <path
     stroke="none"
     fill="#000000"
     transform="matrix(0.05 0 0 0.05 -10 -11)"
     d="M 6356.18,4766.77 L 6334.01,4766.77 L 6334.01,4551.74 L 6356.18,4551.74 L 6356.18,4766.77 Z "
     id="path93" />
  <path
     stroke="none"
     fill="#000000"
     transform="matrix(0.05 0 0 0.05 -10 -11)"
     d="M 6411.62,4766.77 L 6389.45,4766.77 L 6389.45,4551.74 L 6411.62,4551.74 L 6411.62,4766.77 Z "
     id="path94" />
  <text
     x="0"
     y="0"
     stroke="none"
     fill="#107f01"
     transform="matrix(0.05 0 0 0.05 318.11 237.265)"
     font-style="normal"
     font-weight="bold"
     font-size="180px"
     font-family="Helvetica"
     id="text94">
O</text>
  <path
     stroke="none"
     fill="#000000"
     transform="matrix(0.05 0 0 0.05 -10 -11)"
     d="M 6373.07,4762.93 L 6373.02,4737.26 L 6554.62,4842.93 L 6543.53,4862.13 L 6373.07,4762.93 Z "
     id="path95" />
  <path
     stroke="none"
     fill="#107f01"
     transform="matrix(0.05 0 0 0.05 -10 -11)"
     d="M 6721.44,4861.81 L 6710.35,4842.61 L 6891.39,4737.25 L 6891.34,4762.92 L 6721.44,4861.81 Z "
     id="path96" />
  <path
     stroke="none"
     fill="#107f01"
     transform="matrix(0.05 0 0 0.05 -10 -11)"
     d="M 6891.34,4762.92 L 6891.39,4737.25 L 7156.53,4890.93 L 7145.45,4910.13 L 6891.34,4762.92 Z "
     id="path97" />
  <text
     x="0"
     y="0"
     stroke="none"
     fill="#107f01"
     transform="matrix(0.05 0 0 0.05 331.08 214.801)"
     font-style="normal"
     font-weight="bold"
     font-size="180px"
     font-family="Helvetica"
     id="text97">
O</text>
  <path
     stroke="none"
     fill="#107f01"
     transform="matrix(0.05 0 0 0.05 -10 -11)"
     d="M 6874.97,4766.77 L 6852.79,4766.77 L 6852.79,4551.74 L 6874.97,4551.74 L 6874.97,4766.77 Z "
     id="path98" />
  <path
     stroke="none"
     fill="#107f01"
     transform="matrix(0.05 0 0 0.05 -10 -11)"
     d="M 6930.41,4766.77 L 6908.23,4766.77 L 6908.23,4551.74 L 6930.41,4551.74 L 6930.41,4766.77 Z "
     id="path99" />
  <text
     x="0"
     y="0"
     stroke="none"
     fill="#000000"
     transform="matrix(0.05 0 0 0.05 163.231 161.958)"
     font-style="normal"
     font-weight="bold"
     font-size="200px"
     font-family="Helvetica"
     id="text99">
Et</text>
  <text
     x="0"
     y="0"
     stroke="none"
     fill="#000000"
     transform="matrix(0.05 0 0 0.05 173.231 164.258)"
     font-style="normal"
     font-weight="bold"
     font-size="150px"
     font-family="Helvetica"
     id="text100">
3</text>
  <text
     x="0"
     y="0"
     stroke="none"
     fill="#000000"
     transform="matrix(0.05 0 0 0.05 177.402 161.958)"
     font-style="normal"
     font-weight="bold"
     font-size="200px"
     font-family="Helvetica"
     id="text101">
N</text>
  <text
     x="0"
     y="0"
     stroke="none"
     fill="#000000"
     transform="matrix(0.05 0 0 0.05 229.482 160.686)"
     font-style="normal"
     font-weight="bold"
     font-size="200px"
     font-family="Helvetica"
     id="text102">
Et</text>
  <text
     x="0"
     y="0"
     stroke="none"
     fill="#000000"
     transform="matrix(0.05 0 0 0.05 239.482 162.986)"
     font-style="normal"
     font-weight="bold"
     font-size="150px"
     font-family="Helvetica"
     id="text103">
3</text>
  <text
     x="0"
     y="0"
     stroke="none"
     fill="#000000"
     transform="matrix(0.05 0 0 0.05 243.654 160.686)"
     font-style="normal"
     font-weight="bold"
     font-size="200px"
     font-family="Helvetica"
     id="text104">
N</text>
  <text
     x="0"
     y="0"
     stroke="none"
     fill="#0000ff"
     transform="matrix(0.05 0 0 0.05 353.67 226.116)"
     font-style="normal"
     font-weight="bold"
     font-size="280px"
     font-family="Helvetica"
     id="text105">
anhydrides</text>
  <text
     x="0"
     y="0"
     stroke="none"
     fill="#000000"
     transform="matrix(0.05 0 0 0.05 322.702 308.981)"
     font-style="normal"
     font-weight="bold"
     font-size="160px"
     font-family="Helvetica"
     id="text106">
then </text>
  <text
     x="0"
     y="0"
     stroke="none"
     fill="#000000"
     transform="matrix(0.05 0 0 0.05 341.811 308.981)"
     font-style="normal"
     font-weight="bold"
     font-size="160px"
     font-family="Helvetica"
     id="text107">
H</text>
  <text
     x="0"
     y="0"
     stroke="none"
     fill="#000000"
     transform="matrix(0.05 0 0 0.05 347.589 310.821)"
     font-style="normal"
     font-weight="bold"
     font-size="120px"
     font-family="Helvetica"
     id="text108">
3</text>
  <text
     x="0"
     y="0"
     stroke="none"
     fill="#000000"
     transform="matrix(0.05 0 0 0.05 350.925 308.981)"
     font-style="normal"
     font-weight="bold"
     font-size="160px"
     font-family="Helvetica"
     id="text109">
O</text>
  <text
     x="0"
     y="0"
     stroke="none"
     fill="#000000"
     transform="matrix(0.05 0 0 0.05 357.148 306.102)"
     font-style="normal"
     font-weight="bold"
     font-size="120px"
     font-family="Helvetica"
     id="text110">
+</text>
  <path
     stroke="none"
     fill="#000000"
     transform="matrix(0.05 0 0 0.05 -10 -11)"
     d="M 10288,5041.29 L 10265.7,5025.13 L 10566.6,4927.36 L 10558.1,4953.55 L 10288,5041.29 Z "
     id="path122" />
  <text
     x="0"
     y="0"
     stroke="none"
     fill="#000000"
     transform="matrix(0.05 0 0 0.05 519.21 225.083)"
     font-style="normal"
     font-weight="bold"
     font-size="180px"
     font-family="Helvetica"
     id="text122">
O</text>
  <path
     stroke="none"
     fill="#000000"
     transform="matrix(0.05 0 0 0.05 -10 -11)"
     d="M 10539.8,4955.27 L 10518.7,4948.41 L 10585.9,4741.57 L 10607,4748.42 L 10539.8,4955.27 Z "
     id="path123" />
  <path
     stroke="none"
     fill="#000000"
     transform="matrix(0.05 0 0 0.05 -10 -11)"
     d="M 10592.5,4972.4 L 10571.4,4965.55 L 10638.6,4758.7 L 10659.7,4765.56 L 10592.5,4972.4 Z "
     id="path124" />
  <text
     x="0"
     y="0"
     stroke="none"
     fill="#000000"
     transform="matrix(0.05 0 0 0.05 523.378 251.396)"
     font-style="normal"
     font-weight="bold"
     font-size="180px"
     font-family="Helvetica"
     id="text124">
O</text>
  <path
     stroke="none"
     fill="#000000"
     transform="matrix(0.05 0 0 0.05 -10 -11)"
     d="M 10558.1,4953.55 L 10566.6,4927.36 L 10688.6,5096.89 L 10670.7,5109.93 L 10558.1,4953.55 Z "
     id="path125" />
  <path
     stroke="none"
     fill="#000000"
     transform="matrix(0.05 0 0 0.05 -10 -11)"
     d="M 10669.2,5258.36 L 10687.2,5271.4 L 10566.6,5438.94 L 10558.1,5412.75 L 10669.2,5258.36 Z "
     id="path126" />
  <path
     stroke="none"
     fill="#000000"
     transform="matrix(0.05 0 0 0.05 -10 -11)"
     d="M 10558.1,5412.75 L 10566.6,5438.94 L 10265.7,5341.16 L 10288,5325 L 10558.1,5412.75 Z "
     id="path127" />
  <text
     x="0"
     y="0"
     stroke="none"
     fill="#000000"
     transform="matrix(0.05 0 0 0.05 519.21 277.709)"
     font-style="normal"
     font-weight="bold"
     font-size="180px"
     font-family="Helvetica"
     id="text127">
O</text>
  <path
     stroke="none"
     fill="#000000"
     transform="matrix(0.05 0 0 0.05 -10 -11)"
     d="M 10571.4,5400.75 L 10592.5,5393.9 L 10660.6,5603.59 L 10639.5,5610.44 L 10571.4,5400.75 Z "
     id="path128" />
  <path
     stroke="none"
     fill="#000000"
     transform="matrix(0.05 0 0 0.05 -10 -11)"
     d="M 10518.7,5417.88 L 10539.8,5411.03 L 10607.9,5620.72 L 10586.8,5627.57 L 10518.7,5417.88 Z "
     id="path129" />
  <path
     stroke="none"
     fill="#000000"
     transform="matrix(0.05 0 0 0.05 -10 -11)"
     d="M 10265.7,5025.13 L 10288,5041.29 L 10288,5325 L 10265.7,5341.16 L 10265.7,5025.13 Z "
     id="path130" />
  <text
     x="0"
     y="0"
     stroke="none"
     fill="#0000ff"
     transform="matrix(0.05 0 0 0.05 551.065 314.548)"
     font-style="normal"
     font-weight="bold"
     font-size="200px"
     font-family="Helvetica"
     id="text130">
R</text>
  <text
     x="0"
     y="0"
     stroke="none"
     fill="#000000"
     transform="matrix(0.05 0 0 0.05 558.287 314.548)"
     font-style="normal"
     font-weight="bold"
     font-size="200px"
     font-family="Helvetica"
     id="text131">
MgBr</text>
  <path
     stroke="#000000"
     stroke-width="22"
     fill="none"
     transform="matrix(0.05 0 0 0.05 -10 -11)"
     stroke-dasharray="53"
     d="M 9050.9,8289.64 C 9050.9,8289.64 9050.9,4593.66 9050.9,4593.66 C 9050.9,4520.21 9110.51,4460.6 9183.96,4460.6 C 9183.96,4460.6 11893.2,4460.6 11893.2,4460.6 C 11966.7,4460.6 12026.3,4520.21 12026.3,4593.66 C 12026.3,4593.66 12026.3,8289.64 12026.3,8289.64 C 12026.3,8363.09 11966.7,8422.7 11893.2,8422.7 C 11893.2,8422.7 9183.96,8422.7 9183.96,8422.7 C 9110.51,8422.7 9050.9,8363.09 9050.9,8289.64 "
     id="path139" />
  <text
     x="0"
     y="0"
     stroke="none"
     fill="#000000"
     transform="matrix(0.05 0 0 0.05 446.324 221.024)"
     font-style="normal"
     font-weight="normal"
     font-size="200px"
     font-family="Helvetica"
     id="text140">
cyclic </text>
  <text
     x="0"
     y="0"
     stroke="none"
     fill="#000000"
     transform="matrix(0.05 0 0 0.05 473.545 221.024)"
     font-style="normal"
     font-weight="normal"
     font-size="200px"
     font-family="Helvetica"
     id="text141">
case</text>
  <path
     stroke="none"
     fill="#000000"
     transform="matrix(0.05 0 0 0.05 -10 -11)"
     d="M 10528.1,6277.7 L 10528.1,5897.05 L 10550.1,5897.05 L 10550.1,6277.7 Z "
     id="path141" />
  <text
     x="0"
     y="0"
     stroke="none"
     fill="#000000"
     transform="matrix(0.05 0 0 0.05 552.217 326.141)"
     font-style="normal"
     font-weight="bold"
     font-size="160px"
     font-family="Helvetica"
     id="text142">
then </text>
  <text
     x="0"
     y="0"
     stroke="none"
     fill="#000000"
     transform="matrix(0.05 0 0 0.05 571.326 326.141)"
     font-style="normal"
     font-weight="bold"
     font-size="160px"
     font-family="Helvetica"
     id="text143">
H</text>
  <text
     x="0"
     y="0"
     stroke="none"
     fill="#000000"
     transform="matrix(0.05 0 0 0.05 577.104 327.981)"
     font-style="normal"
     font-weight="bold"
     font-size="120px"
     font-family="Helvetica"
     id="text144">
3</text>
  <text
     x="0"
     y="0"
     stroke="none"
     fill="#000000"
     transform="matrix(0.05 0 0 0.05 580.44 326.141)"
     font-style="normal"
     font-weight="bold"
     font-size="160px"
     font-family="Helvetica"
     id="text145">
O</text>
  <text
     x="0"
     y="0"
     stroke="none"
     fill="#000000"
     transform="matrix(0.05 0 0 0.05 586.663 323.262)"
     font-style="normal"
     font-weight="bold"
     font-size="120px"
     font-family="Helvetica"
     id="text146">
+</text>
  <path
     stroke="none"
     fill="#000000"
     transform="matrix(0.05 0 0 0.05 -10 -11)"
     d="M 9925.11,6884.93 L 9925.11,6277.7 L 9947.11,6277.7 L 9947.11,6884.93 Z "
     id="path146" />
  <path
     stroke="none"
     fill="#000000"
     transform="matrix(0.05 0 0 0.05 -10 -11)"
     d="M 9936.11,7077.97 C 9936.11,7077.97 9878.67,6856.21 9878.67,6856.21 C 9878.67,6856.21 9910.98,6883.93 9936.11,6883.93 C 9960.8,6883.93 9992.55,6856.21 9992.55,6856.21 C 9992.55,6856.21 9936.11,7077.97 9936.11,7077.97 C 9936.11,7077.97 9936.11,7077.97 9936.11,7077.97 "
     id="path147" />
  <path
     stroke="#000000"
     stroke-width="1"
     fill="none"
     transform="matrix(0.05 0 0 0.05 -10 -11)"
     d="M 9936.11,7077.97 C 9936.11,7077.97 9878.67,6856.21 9878.67,6856.21 C 9878.67,6856.21 9910.98,6883.93 9936.11,6883.93 C 9960.8,6883.93 9992.55,6856.21 9992.55,6856.21 C 9992.55,6856.21 9936.11,7077.97 9936.11,7077.97 C 9936.11,7077.97 9936.11,7077.97 9936.11,7077.97 "
     id="path148" />
  <path
     stroke="none"
     fill="#000000"
     transform="matrix(0.05 0 0 0.05 -10 -11)"
     d="M 11142.1,6288.7 L 9936.11,6288.7 L 9936.11,6266.7 L 11142.1,6266.7 Z "
     id="path149" />
  <path
     stroke="none"
     fill="#000000"
     transform="matrix(0.05 0 0 0.05 -10 -11)"
     d="M 11131.1,6829.16 L 11131.1,6277.7 L 11153.1,6277.7 L 11153.1,6829.16 Z "
     id="path150" />
  <path
     stroke="none"
     fill="#000000"
     transform="matrix(0.05 0 0 0.05 -10 -11)"
     d="M 11142.1,7022.2 C 11142.1,7022.2 11084.7,6800.44 11084.7,6800.44 C 11084.7,6800.44 11117,6828.16 11142.1,6828.16 C 11166.8,6828.16 11198.5,6800.44 11198.5,6800.44 C 11198.5,6800.44 11142.1,7022.2 11142.1,7022.2 C 11142.1,7022.2 11142.1,7022.2 11142.1,7022.2 "
     id="path151" />
  <path
     stroke="#000000"
     stroke-width="1"
     fill="none"
     transform="matrix(0.05 0 0 0.05 -10 -11)"
     d="M 11142.1,7022.2 C 11142.1,7022.2 11084.7,6800.44 11084.7,6800.44 C 11084.7,6800.44 11117,6828.16 11142.1,6828.16 C 11166.8,6828.16 11198.5,6800.44 11198.5,6800.44 C 11198.5,6800.44 11142.1,7022.2 11142.1,7022.2 C 11142.1,7022.2 11142.1,7022.2 11142.1,7022.2 "
     id="path152" />
  <text
     x="0"
     y="0"
     stroke="none"
     fill="#000000"
     transform="matrix(0.05 0 0 0.05 453.635 312.556)"
     font-style="normal"
     font-weight="bold"
     font-size="200px"
     font-family="Helvetica"
     id="text152">
LiAl</text>
  <text
     x="0"
     y="0"
     stroke="none"
     fill="#0000ff"
     transform="matrix(0.05 0 0 0.05 472.521 312.556)"
     font-style="normal"
     font-weight="bold"
     font-size="200px"
     font-family="Helvetica"
     id="text153">
H</text>
  <text
     x="0"
     y="0"
     stroke="none"
     fill="#000000"
     transform="matrix(0.05 0 0 0.05 479.743 314.856)"
     font-style="normal"
     font-weight="bold"
     font-size="150px"
     font-family="Helvetica"
     id="text154">
4</text>
  <text
     x="0"
     y="0"
     stroke="none"
     fill="#000000"
     transform="matrix(0.05 0 0 0.05 447.112 324.711)"
     font-style="normal"
     font-weight="bold"
     font-size="160px"
     font-family="Helvetica"
     id="text155">
then </text>
  <text
     x="0"
     y="0"
     stroke="none"
     fill="#000000"
     transform="matrix(0.05 0 0 0.05 466.221 324.711)"
     font-style="normal"
     font-weight="bold"
     font-size="160px"
     font-family="Helvetica"
     id="text156">
H</text>
  <text
     x="0"
     y="0"
     stroke="none"
     fill="#000000"
     transform="matrix(0.05 0 0 0.05 471.999 326.551)"
     font-style="normal"
     font-weight="bold"
     font-size="120px"
     font-family="Helvetica"
     id="text157">
3</text>
  <text
     x="0"
     y="0"
     stroke="none"
     fill="#000000"
     transform="matrix(0.05 0 0 0.05 475.335 324.711)"
     font-style="normal"
     font-weight="bold"
     font-size="160px"
     font-family="Helvetica"
     id="text158">
O</text>
  <text
     x="0"
     y="0"
     stroke="none"
     fill="#000000"
     transform="matrix(0.05 0 0 0.05 481.558 321.832)"
     font-style="normal"
     font-weight="bold"
     font-size="120px"
     font-family="Helvetica"
     id="text159">
+</text>
  <text
     x="294.771"
     y="160.672"
     stroke="none"
     fill="#000000"
     font-style="italic"
     font-weight="normal"
     font-size="8px"
     font-family="'Helvetica Oblique'"
     id="text167"
     style="stroke-width:0.05"
     inkscape:label="t-acidchlorides">for acid chlorides</text>
  <path
     stroke="none"
     fill="#000000"
     transform="matrix(0.05 0 0 0.05 -10 -11)"
     d="M 9500.69,3109.69 L 9500.65,3084.02 L 9685.52,3191.57 L 9674.43,3210.77 L 9500.69,3109.69 Z "
     id="path169" />
  <text
     x="0"
     y="0"
     stroke="none"
     fill="#107f01"
     transform="matrix(0.05 0 0 0.05 474.743 154.603)"
     font-style="normal"
     font-weight="bold"
     font-size="180px"
     font-family="Helvetica"
     id="text170">
Cl</text>
  <path
     stroke="none"
     fill="#000000"
     transform="matrix(0.05 0 0 0.05 -10 -11)"
     d="M 9246.61,3256.89 L 9235.52,3237.69 L 9500.65,3084.02 L 9500.69,3109.69 L 9246.61,3256.89 Z "
     id="path170" />
  <text
     x="0"
     y="0"
     stroke="none"
     fill="#000000"
     transform="matrix(0.05 0 0 0.05 461.523 132.139)"
     font-style="normal"
     font-weight="bold"
     font-size="180px"
     font-family="Helvetica"
     id="text171">
O</text>
  <path
     stroke="none"
     fill="#000000"
     transform="matrix(0.05 0 0 0.05 -10 -11)"
     d="M 9483.83,3113.53 L 9461.65,3113.53 L 9461.65,2898.5 L 9483.83,2898.5 L 9483.83,3113.53 Z "
     id="path171" />
  <path
     stroke="none"
     fill="#000000"
     transform="matrix(0.05 0 0 0.05 -10 -11)"
     d="M 9539.26,3113.53 L 9517.09,3113.53 L 9517.09,2898.5 L 9539.26,2898.5 L 9539.26,3113.53 Z "
     id="path172" />
  <path
     stroke="none"
     fill="#000000"
     transform="matrix(0.05 0 0 0.05 -10 -11)"
     d="M 10617.8,3028.3 L 9909.9,3028.3 L 9909.9,3006.3 L 10617.8,3006.3 Z "
     id="path181" />
  <path
     stroke="none"
     fill="#000000"
     transform="matrix(0.05 0 0 0.05 -10 -11)"
     d="M 10810.8,3017.3 C 10810.8,3017.3 10589,3073.74 10589,3073.74 C 10589,3073.74 10616.8,3041.99 10616.8,3017.3 C 10616.8,2992.17 10589,2959.86 10589,2959.86 C 10589,2959.86 10810.8,3017.3 10810.8,3017.3 C 10810.8,3017.3 10810.8,3017.3 10810.8,3017.3 "
     id="path182" />
  <path
     stroke="#000000"
     stroke-width="1"
     fill="none"
     transform="matrix(0.05 0 0 0.05 -10 -11)"
     d="M 10810.8,3017.3 C 10810.8,3017.3 10589,3073.74 10589,3073.74 C 10589,3073.74 10616.8,3041.99 10616.8,3017.3 C 10616.8,2992.17 10589,2959.86 10589,2959.86 C 10589,2959.86 10810.8,3017.3 10810.8,3017.3 C 10810.8,3017.3 10810.8,3017.3 10810.8,3017.3 "
     id="path183" />
  <text
     x="0"
     y="0"
     stroke="none"
     fill="#000000"
     transform="matrix(0.05 0 0 0.05 489.862 133.153)"
     font-style="normal"
     font-weight="bold"
     font-size="180px"
     font-family="Helvetica"
     id="text183">
O</text>
  <path
     stroke="none"
     fill="#000000"
     transform="matrix(0.05 0 0 0.05 -10 -11)"
     d="M 10156.5,2779.57 L 10145.4,2760.37 L 10326.4,2655.01 L 10326.4,2680.68 L 10156.5,2779.57 Z "
     id="path184" />
  <path
     stroke="none"
     fill="#000000"
     transform="matrix(0.05 0 0 0.05 -10 -11)"
     d="M 10326.4,2680.68 L 10326.4,2655.01 L 10591.6,2808.69 L 10580.5,2827.89 L 10326.4,2680.68 Z "
     id="path185" />
  <text
     x="0"
     y="0"
     stroke="none"
     fill="#000000"
     transform="matrix(0.05 0 0 0.05 502.832 110.689)"
     font-style="normal"
     font-weight="bold"
     font-size="180px"
     font-family="Helvetica"
     id="text185">
O</text>
  <path
     stroke="none"
     fill="#000000"
     transform="matrix(0.05 0 0 0.05 -10 -11)"
     d="M 10310,2684.53 L 10287.8,2684.53 L 10287.8,2469.5 L 10310,2469.5 L 10310,2684.53 Z "
     id="path186" />
  <path
     stroke="none"
     fill="#000000"
     transform="matrix(0.05 0 0 0.05 -10 -11)"
     d="M 10365.4,2684.53 L 10343.3,2684.53 L 10343.3,2469.5 L 10365.4,2469.5 L 10365.4,2684.53 Z "
     id="path187" />
  <path
     stroke="#000000"
     stroke-width="18"
     fill="none"
     transform="matrix(0.05 0 0 0.05 -10 -11)"
     d="M 9913.55,2646.16 A 68.8704,68.8704 0 1 0 10051.3,2646.16A 68.8704,68.8704 0 1 0 9913.55,2646.16Z "
     id="path188" />
  <path
     stroke="none"
     fill="#000000"
     transform="matrix(0.05 0 0 0.05 -10 -11)"
     d="M 9941.33,2637.16 L 10023.5,2637.16 L 10023.5,2655.16 L 9941.33,2655.16 Z "
     id="path189" />
  <path
     stroke="#000000"
     stroke-width="22"
     fill="none"
     transform="matrix(0.05 0 0 0.05 -10 -11)"
     stroke-dasharray="53"
     d="M 9065.2,4185.54 C 9065.2,4185.54 9065.2,1734.66 9065.2,1734.66 C 9065.2,1661.21 9124.81,1601.6 9198.26,1601.6 C 9198.26,1601.6 11907.5,1601.6 11907.5,1601.6 C 11981,1601.6 12040.6,1661.21 12040.6,1734.66 C 12040.6,1734.66 12040.6,4185.54 12040.6,4185.54 C 12040.6,4258.99 11981,4318.6 11907.5,4318.6 C 11907.5,4318.6 9198.26,4318.6 9198.26,4318.6 C 9124.81,4318.6 9065.2,4258.99 9065.2,4185.54 "
     id="path190" />
  <text
     x="0"
     y="0"
     stroke="none"
     fill="#000000"
     transform="matrix(0.05 0 0 0.05 448.589 79.4538)"
     font-style="normal"
     font-weight="normal"
     font-size="200px"
     font-family="Helvetica"
     id="text190">
(rare) </text>
  <text
     x="0"
     y="0"
     stroke="none"
     fill="#000000"
     transform="matrix(0.05 0 0 0.05 224.52 310.035)"
     font-style="normal"
     font-weight="bold"
     font-size="200px"
     font-family="Helvetica"
     id="text194">
or</text>
  <text
     x="0"
     y="0"
     stroke="none"
     fill="#0000ff"
     transform="matrix(0.05 0 0 0.05 234.52 310.035)"
     font-style="normal"
     font-weight="bold"
     font-size="200px"
     font-family="Helvetica"
     id="text195" />
  <text
     x="0"
     y="0"
     stroke="none"
     fill="#0000ff"
     transform="matrix(0.05 0 0 0.05 237.298 310.035)"
     font-style="normal"
     font-weight="bold"
     font-size="200px"
     font-family="Helvetica"
     id="text196">
R</text>
  <text
     x="0"
     y="0"
     stroke="none"
     fill="#000000"
     transform="matrix(0.05 0 0 0.05 244.52 310.035)"
     font-style="normal"
     font-weight="bold"
     font-size="200px"
     font-family="Helvetica"
     id="text197">
Li</text>
  <path
     stroke="none"
     fill="#000000"
     transform="matrix(0.05 0 0 0.05 -10 -11)"
     d="M 3492.5,6626.8 L 3492.5,4919.2 L 3514.5,4919.2 L 3514.5,6626.8 Z "
     id="path197" />
  <path
     stroke="none"
     fill="#000000"
     transform="matrix(0.05 0 0 0.05 -10 -11)"
     d="M 3503.5,6819.84 C 3503.5,6819.84 3446.06,6598.08 3446.06,6598.08 C 3446.06,6598.08 3478.37,6625.8 3503.5,6625.8 C 3528.19,6625.8 3559.94,6598.08 3559.94,6598.08 C 3559.94,6598.08 3503.5,6819.84 3503.5,6819.84 C 3503.5,6819.84 3503.5,6819.84 3503.5,6819.84 "
     id="path198" />
  <path
     stroke="#000000"
     stroke-width="1"
     fill="none"
     transform="matrix(0.05 0 0 0.05 -10 -11)"
     d="M 3503.5,6819.84 C 3503.5,6819.84 3446.06,6598.08 3446.06,6598.08 C 3446.06,6598.08 3478.37,6625.8 3503.5,6625.8 C 3528.19,6625.8 3559.94,6598.08 3559.94,6598.08 C 3559.94,6598.08 3503.5,6819.84 3503.5,6819.84 C 3503.5,6819.84 3503.5,6819.84 3503.5,6819.84 "
     id="path199" />
  <text
     x="0"
     y="0"
     stroke="none"
     fill="#0000ff"
     transform="matrix(0.05 0 0 0.05 169.97 282.373)"
     font-style="normal"
     font-weight="bold"
     font-size="200px"
     font-family="Helvetica"
     id="text199">
R</text>
  <text
     x="0"
     y="0"
     stroke="none"
     fill="#000000"
     transform="matrix(0.05 0 0 0.05 177.192 284.673)"
     font-style="normal"
     font-weight="bold"
     font-size="150px"
     font-family="Helvetica"
     id="text200">
2</text>
  <text
     x="0"
     y="0"
     stroke="none"
     fill="#000000"
     transform="matrix(0.05 0 0 0.05 181.363 282.373)"
     font-style="normal"
     font-weight="bold"
     font-size="200px"
     font-family="Helvetica"
     id="text201">
CuLi</text>
  <text
     x="0"
     y="0"
     stroke="none"
     fill="#000000"
     transform="matrix(0.05 0 0 0.05 173.076 247.187)"
     font-style="italic"
     font-weight="normal"
     font-size="160px"
     font-family="Helvetica Oblique"
     id="text204">
for acid chlorides</text>
  <path
     stroke="none"
     fill="#000000"
     transform="matrix(0.05 0 0 0.05 -10 -11)"
     d="M 3503.5,4908.2 L 4947.8,4908.2 L 4947.8,4930.2 L 3503.5,4930.2 Z "
     id="path210" />
  <path
     stroke="none"
     fill="#ffffff"
     opacity="0"
     onclick="window.location.href = 'acids.svg'"
     transform="matrix(0.05 0 0 0.05 -10 -11)"
     d="M 3203.2,2717 C 3203.2,2717 3203.2,1900.9 3203.2,1900.9 C 3203.2,1900.9 2287,1900.9 2287,1900.9 C 2287,1900.9 2287,2717 2287,2717 C 2287,2717 3203.2,2717 3203.2,2717 "
     id="path1"
     inkscape:label="acids" />
  <path
     stroke="#ffffff"
     stroke-width="1"
     fill="none"
     opacity="0"
     onclick="window.location.href = 'esters.svg'"
     transform="matrix(0.05 0 0 0.05 -10 -11)"
     d="M 4590.3,2688.4 C 4590.3,2688.4 4590.3,1872.3 4590.3,1872.3 C 4590.3,1872.3 3674.1,1872.3 3674.1,1872.3 C 3674.1,1872.3 3674.1,2688.4 3674.1,2688.4 C 3674.1,2688.4 4590.3,2688.4 4590.3,2688.4 "
     id="path4"
     inkscape:label="l-esters" />
  <path
     stroke="none"
     fill="#ffffff"
     opacity="0"
     onclick="window.location.href = 'amides.svg'"
     transform="matrix(0.05 0 0 0.05 -10 -11)"
     d="M 6034.6,2731.3 C 6034.6,2731.3 6034.6,1886.6 6034.6,1886.6 C 6034.6,1886.6 5046.9,1886.6 5046.9,1886.6 C 5046.9,1886.6 5046.9,2731.3 5046.9,2731.3 C 5046.9,2731.3 6034.6,2731.3 6034.6,2731.3 "
     id="path5"
     inkscape:label="l-amides" />
  <path
     stroke="none"
     fill="#ffffff"
     opacity="0"
     onclick="window.location.href = 'ketones.svg'"
     transform="matrix(0.05 0 0 0.05 -10 -11)"
     d="M 7907.9,2759.9 C 7907.9,2759.9 7907.9,1915.2 7907.9,1915.2 C 7907.9,1915.2 6991.7,1915.2 6991.7,1915.2 C 6991.7,1915.2 6991.7,2759.9 6991.7,2759.9 C 6991.7,2759.9 7907.9,2759.9 7907.9,2759.9 "
     id="path7"
     inkscape:label="l-aldehydes" />
  <path
     stroke="none"
     fill="#ffffff"
     opacity="0"
     onclick="window.location.href = 'ketones.svg'"
     transform="matrix(0.05 0 0 0.05 -10 -11)"
     d="M 4004,7636.2 C 4004,7636.2 4004,6877.3 4004,6877.3 C 4004,6877.3 3102.1,6877.3 3102.1,6877.3 C 3102.1,6877.3 3102.1,7636.2 3102.1,7636.2 C 3102.1,7636.2 4004,7636.2 4004,7636.2 "
     id="path9"
     inkscape:label="l-ketones" />
  <path
     stroke="none"
     fill="#ffffff"
     opacity="0"
     onclick="window.location.href = 'ccbondformation.svg'"
     d="m 240.33381,431.66141 c 0,0 0,-44.98207 0,-44.98207 0,0 -51.35018,0 -51.35018,0 0,0 0,44.98207 0,44.98207 0,0 51.35018,0 51.35018,0"
     id="path9-3"
     inkscape:label="l-ccbondformation"
     style="stroke-width:0.0580924" />
  <path
     stroke="#ffffff"
     stroke-width="1"
     fill="none"
     opacity="0"
     onclick="window.location.href = 'alcohols.svg'"
     transform="matrix(0.05 0 0 0.05 -10 -11)"
     d="M 5848.7,7636.2 C 5848.7,7636.2 5848.7,6805.8 5848.7,6805.8 C 5848.7,6805.8 4946.8,6805.8 4946.8,6805.8 C 4946.8,6805.8 4946.8,7636.2 4946.8,7636.2 C 4946.8,7636.2 5848.7,7636.2 5848.7,7636.2 "
     id="path12"
     inkscape:label="l-alcohols1" />
  <path
     stroke="none"
     fill="#ffffff"
     opacity="0"
     onclick="window.location.href = 'alcohols.svg'"
     transform="matrix(0.05 0 0 0.05 -10 -11)"
     d="M 7121.4,7636.2 C 7121.4,7636.2 7121.4,6720 7121.4,6720 C 7121.4,6720 6162.3,6720 6162.3,6720 C 6162.3,6720 6162.3,7636.2 6162.3,7636.2 C 6162.3,7636.2 7121.4,7636.2 7121.4,7636.2 "
     id="path13"
     inkscape:label="l-alcohols2" />
  <path
     stroke="none"
     fill="#ffffff"
     opacity="0"
     onclick="window.location.href = 'alcohols.svg'"
     transform="matrix(0.05 0 0 0.05 -10 -11)"
     d="M 10081.5,8365.5 C 10081.5,8365.5 10081.5,7092.8 10081.5,7092.8 C 10081.5,7092.8 9136.7,7092.8 9136.7,7092.8 C 9136.7,7092.8 9136.7,8365.5 9136.7,8365.5 C 9136.7,8365.5 10081.5,8365.5 10081.5,8365.5 "
     id="path15"
     inkscape:label="l-alcohols3" />
  <path
     stroke="none"
     fill="#ffffff"
     opacity="0"
     onclick="window.location.href = 'alcohols.svg'"
     transform="matrix(0.05 0 0 0.05 -10 -11)"
     d="M 11897.6,8379.8 C 11897.6,8379.8 11897.6,7048.9 11897.6,7048.9 C 11897.6,7048.9 10838.4,7048.9 10838.4,7048.9 C 10838.4,7048.9 10838.4,8379.8 10838.4,8379.8 C 10838.4,8379.8 11897.6,8379.8 11897.6,8379.8 "
     id="path17"
     inkscape:label="l-alcohols4" />
  <path
     stroke="none"
     fill="#ffffff"
     opacity="0"
     onclick="window.location.href = 'esters.svg'"
     transform="matrix(0.05 0 0 0.05 -10 -11)"
     d="M 4590.3,2688.4 C 4590.3,2688.4 4590.3,1872.3 4590.3,1872.3 C 4590.3,1872.3 3674.1,1872.3 3674.1,1872.3 C 3674.1,1872.3 3674.1,2688.4 3674.1,2688.4 C 3674.1,2688.4 4590.3,2688.4 4590.3,2688.4 "
     id="path3"
     inkscape:label="l-esters2" />
  <path
     stroke="none"
     fill="#ffffff"
     opacity="0"
     onclick="window.location.href = 'alcohols.svg'"
     transform="matrix(0.05 0 0 0.05 -10 -11)"
     d="M 5848.7,7636.2 C 5848.7,7636.2 5848.7,6805.8 5848.7,6805.8 C 5848.7,6805.8 4946.8,6805.8 4946.8,6805.8 C 4946.8,6805.8 4946.8,7636.2 4946.8,7636.2 C 4946.8,7636.2 5848.7,7636.2 5848.7,7636.2 "
     id="path11"
     inkscape:label="l-alcohols7" />
  <path
     stroke="none"
     fill="#ffffff"
     opacity="0"
     onclick="window.location.href = 'toacidchlorides.svg'"
     d="m 483.9804,162.58454 c 0,0 0,-41.52 0,-41.52 0,0 -36.49413,0 -36.49413,0 0,0 0,41.52 0,41.52 0,0 36.49413,0 36.49413,0"
     id="path11-7"
     inkscape:label="ll-toacidchlorides"
     style="display:inline;opacity:0;stroke-width:0.0449798" />
  <path
     stroke="none"
     fill="#ffffff"
     opacity="0"
     onclick="window.location.href = 'toacidchlorides.svg'"
     d="m 545.31743,281.27781 c 0,0 0,-66.5407 0,-66.5407 0,0 -49.00448,0 -49.00448,0 0,0 0,66.5407 0,66.5407 0,0 49.00448,0 49.00448,0"
     id="path11-7-1"
     inkscape:label="ll-toacidchlorides"
     style="display:inline;opacity:0;stroke-width:0.065984" />
  <path
     stroke="none"
     fill="#ffffff"
     opacity="0"
     onclick="window.location.href = 'toacidchlorides.svg'"
     d="m 432.9915,249.7381 c 0,0 0,-46.21138 0,-46.21138 0,0 -294.52011,0 -294.52011,0 0,0 0,46.21138 0,46.21138 0,0 294.52011,0 294.52011,0"
     id="path11-7-1-3"
     inkscape:label="ll-toacidchlorides"
     style="display:inline;opacity:0;stroke-width:0.134806" />
  <path
     stroke="none"
     fill="#ffffff"
     opacity="0"
     onclick="window.location.href = 'supplement.svg'"
     d="m 121.84754,153.01736 c 0,0 0,-17.28119 0,-17.28119 0,0 -24.765683,0 -24.765683,0 0,0 0,17.28119 0,17.28119 0,0 24.765683,0 24.765683,0"
     id="path11-7-1-3-5"
     inkscape:label="l-supplement"
     style="display:inline;opacity:0;stroke-width:0.023905" />
  <path
     stroke="none"
     fill="#ffffff"
     opacity="0"
     onclick="window.location.href = 'supplement.svg'"
     d="m 253.52349,329.51661 c 0,0 0,-17.28119 0,-17.28119 0,0 -42.74931,0 -42.74931,0 0,0 0,17.28119 0,17.28119 0,0 42.74931,0 42.74931,0"
     id="path11-7-1-3-5-0"
     inkscape:label="l-supplement"
     style="display:inline;opacity:0;stroke-width:0.0314071" />
  <path
     stroke="none"
     fill="#ffffff"
     opacity="0"
     onclick="window.location.href = 'supplement.svg'"
     d="m 363.84848,317.9148 c 0,0 0,-17.28119 0,-17.28119 0,0 -41.96741,0 -41.96741,0 0,0 0,17.28119 0,17.28119 0,0 41.96741,0 41.96741,0"
     id="path11-7-1-3-5-05"
     inkscape:label="l-supplement"
     style="display:inline;opacity:0;stroke-width:0.0311186" />
  <path
     stroke="none"
     fill="#ffffff"
     opacity="0"
     onclick="window.location.href = 'supplement.svg'"
     d="m 189.48209,168.55274 c 0,0 0,-17.28119 0,-17.28119 0,0 -28.67516,0 -28.67516,0 0,0 0,17.28119 0,17.28119 0,0 28.67516,0 28.67516,0"
     id="path11-7-1-3-5-5"
     inkscape:label="l-supplement"
     style="display:inline;opacity:0;stroke-width:0.0257227" />
  <path
     stroke="none"
     fill="#ffffff"
     opacity="0"
     onclick="window.location.href = 'supplement.svg'"
     d="m 253.37088,166.64325 c 0,0 0,-17.28119 0,-17.28119 0,0 -24.76568,0 -24.76568,0 0,0 0,17.28119 0,17.28119 0,0 24.76568,0 24.76568,0"
     id="path11-7-1-3-5-6"
     inkscape:label="l-supplement"
     style="display:inline;opacity:0;stroke-width:0.023905" />
  <path
     stroke="none"
     fill="#ffffff"
     opacity="0"
     onclick="window.location.href = 'supplement.svg'"
     d="m 362.31743,152.99328 c 0,0 0,-17.28119 0,-17.28119 0,0 -66.98811,0 -66.98811,0 0,0 0,17.28119 0,17.28119 0,0 66.98811,0 66.98811,0"
     id="path11-7-1-3-5-2"
     inkscape:label="l-supplement"
     style="display:inline;opacity:0;stroke-width:0.0393154" />
  <path
     stroke="none"
     fill="#ffffff"
     opacity="0"
     onclick="window.location.href = 'supplement.svg'"
     d="m 362.98811,152.28119 c 0,0 0,-17.28119 0,-17.28119 0,0 -66.98811,0 -66.98811,0 0,0 0,17.28119 0,17.28119 0,0 66.98811,0 66.98811,0"
     id="path11-7-1-3-5-2-34"
     inkscape:label="l-supplement"
     style="display:inline;opacity:0;stroke-width:0.0393154" />
  <path
     stroke="none"
     fill="#ffffff"
     opacity="0"
     onclick="window.location.href = 'toalcohols.svg'"
     d="m 188.93372,151.37942 c 0,0 0,-17.28119 0,-17.28119 0,0 -29.45706,0 -29.45706,0 0,0 0,17.28119 0,17.28119 0,0 29.45706,0 29.45706,0"
     id="path11-7-1-3-5-2-3"
     inkscape:label="l-toalcohols"
     style="display:inline;opacity:0;stroke-width:0.026071" />
  <path
     stroke="none"
     fill="#ffffff"
     opacity="0"
     onclick="window.location.href = 'toamines.svg'"
     d="m 258.66312,152.37171 c 0,0 0,-17.28119 0,-17.28119 0,0 -36.49413,0 -36.49413,0 0,0 0,17.28119 0,17.28119 0,0 36.49413,0 36.49413,0"
     id="path11-7-1-3-5-2-3-1"
     inkscape:label="l-toamines"
     style="display:inline;opacity:0;stroke-width:0.0290185" />
  <path
     stroke="none"
     fill="#ffffff"
     opacity="0"
     onclick="window.location.href = 'toacidchlorides.svg'"
     d="m 358.97607,301.0597 c 0,0 0,-11.80791 0,-11.80791 0,0 -36.49413,0 -36.49413,0 0,0 0,11.80791 0,11.80791 0,0 36.49413,0 36.49413,0"
     id="path11-7-1-3-5-2-3-1-6"
     inkscape:label="l-toacidchlorides"
     style="display:inline;opacity:0;stroke-width:0.0239869" />
  <path
     stroke="none"
     fill="#ffffff"
     opacity="0"
     onclick="window.location.href = 'toacidchlorides.svg'"
     d="m 485.3959,315.53636 c 0,0 0,-11.80791 0,-11.80791 0,0 -36.49413,0 -36.49413,0 0,0 0,11.80791 0,11.80791 0,0 36.49413,0 36.49413,0"
     id="path11-7-1-3-5-2-3-1-6-12"
     inkscape:label="l-toacidchlorides"
     style="display:inline;opacity:0;stroke-width:0.0239869" />
  <path
     stroke="none"
     fill="#ffffff"
     opacity="0"
     onclick="window.location.href = 'toacidchlorides.svg'"
     d="m 362.24328,171.28119 c 0,0 0,-17.28119 0,-17.28119 0,0 -73.24328,0 -73.24328,0 0,0 0,17.28119 0,17.28119 0,0 73.24328,0 73.24328,0"
     id="path11-7-1-3-5-2-3-1-6-1"
     inkscape:label="l-toacidchlorides"
     style="display:inline;opacity:0;stroke-width:0.04111" />
  <path
     stroke="none"
     fill="#ffffff"
     opacity="0"
     onclick="window.location.href = 'toorganometallics.svg'"
     d="m 207.66217,288.25711 c 0,0 0,-17.28119 0,-17.28119 0,0 -41.18551,0 -41.18551,0 0,0 0,17.28119 0,17.28119 0,0 41.18551,0 41.18551,0"
     id="path11-7-1-3-5-2-3-1-6-1-7"
     inkscape:label="l-toorganometallics"
     style="display:inline;opacity:0;stroke-width:0.0308273" />
  <path
     stroke="none"
     fill="#ffffff"
     opacity="0"
     onclick="window.location.href = 'toorganometallics.svg'"
     d="m 255.80707,312.48292 c 0,0 0,-25.10016 0,-25.10016 0,0 -42.7493,0 -42.7493,0 0,0 0,25.10016 0,25.10016 0,0 42.7493,0 42.7493,0"
     id="path11-7-1-3-5-2-3-1-6-1-7-5"
     inkscape:label="l-toorganometallics"
     style="display:inline;opacity:0;stroke-width:0.0378512" />
  <path
     stroke="none"
     fill="#ffffff"
     opacity="0"
     onclick="window.location.href = 'toacids.svg'"
     d="m 525.56488,135.80358 c 0,0 0,-35.26482 0,-35.26482 0,0 -42.7493,0 -42.7493,0 0,0 0,35.26482 0,35.26482 0,0 42.7493,0 42.7493,0"
     id="path11-7-1-3-5-2-3-1-6-1-6"
     inkscape:label="l-toacids"
     style="display:inline;opacity:0;stroke-width:0.0448655" />
  <path
     stroke="none"
     fill="#ffffff"
     opacity="0"
     onclick="window.location.href = 'supplement.svg'"
     d="m 486.19417,332.42515 c 0,0 0,-17.28119 0,-17.28119 0,0 -41.18551,0 -41.18551,0 0,0 0,17.28119 0,17.28119 0,0 41.18551,0 41.18551,0"
     id="path11-7-1-3-5-8"
     inkscape:label="l-supplement"
     style="display:inline;opacity:0;stroke-width:0.0308273" />
  <path
     stroke="none"
     fill="#ffffff"
     opacity="0"
     onclick="window.location.href = 'supplement.svg'"
     d="m 590.30106,333.29756 c 0,0 0,-17.28119 0,-17.28119 0,0 -39.62172,0 -39.62172,0 0,0 0,17.28119 0,17.28119 0,0 39.62172,0 39.62172,0"
     id="path11-7-1-3-5-3"
     inkscape:label="l-supplement"
     style="display:inline;opacity:0;stroke-width:0.0302364" />
  <path
     stroke="none"
     fill="#ffffff"
     opacity="0"
     onclick="window.location.href = 'toorganometallics.svg'"
     d="m 584.90626,318.75109 c 0,0 0,-17.28119 0,-17.28119 0,0 -37.27603,0 -37.27603,0 0,0 0,17.28119 0,17.28119 0,0 37.27603,0 37.27603,0"
     id="path11-7-1-3-5-2-3-1-6-1-7-2"
     inkscape:label="l-toorganometallics"
     style="display:inline;opacity:0;stroke-width:0.0293277" />
  <g
     id="noreagents"
     onclick="window.location.href = 'acidchlorides-noreagents.svg'"
     transform="translate(-4.6856272,378.9067)">
    <text
       x="11.200497"
       y="54.141506"
       stroke="none"
       fill="#000000"
       font-style="normal"
       font-weight="bold"
       font-size="200px"
       font-family="Helvetica"
       id="gobacktext-7"
       style="font-style:normal;font-weight:bold;font-size:10px;font-family:Helvetica;fill:#000000;fill-opacity:0.443609;stroke:none;stroke-width:0.05"
       inkscape:label="noreagents-text"><tspan
         sodipodi:role="line"
         id="tspan2"
         x="11.200497"
         y="54.141506"
         style="font-style:normal;font-variant:normal;font-weight:bold;font-stretch:normal;font-size:8px;font-family:Helvetica;-inkscape-font-specification:'Helvetica, Bold';font-variant-ligatures:normal;font-variant-caps:normal;font-variant-numeric:normal;font-variant-east-asian:normal;fill:#000000;fill-opacity:0.5;stroke-width:0.05">reagents</tspan></text>
    <rect
       style="fill:#000000;fill-opacity:0.821053;fill-rule:evenodd;stroke:#a13033;stroke-width:0;stroke-linecap:round;stroke-miterlimit:2;stroke-dasharray:none;paint-order:markers fill stroke"
       id="rect3"
       width="31.666824"
       height="0.9773711"
       x="12.224979"
       y="51.518982"
       inkscape:label="noreagents-line" />
    <path
       stroke="none"
       fill="#999999"
       d="m 9.795,54.694678 c 0,0 0,-5.427567 0,-5.427567 0,-2.098514 1.463398,-3.801611 3.266274,-3.801611 0,0 30.608907,0 30.608907,0 1.803073,0 3.266397,1.703097 3.266397,3.801611 0,0 0,5.427567 0,5.427567 0,2.098514 -1.463324,3.801611 -3.266397,3.801611 0,0 -30.608907,0 -30.608907,0 -1.802876,0 -3.266274,-1.703097 -3.266274,-3.801611"
       id="goback-box-8"
       style="fill:#999999;fill-opacity:0.336842;stroke-width:0.0264832"
       inkscape:label="noreagents-box" />
  </g>
  <g
     id="nonames"
     onclick="window.location.href = 'acidchlorides.svg'"
     transform="matrix(0.85780308,0,0,1,-3.2442635,382.9067)">
    <text
       x="18.441887"
       y="69.010506"
       stroke="none"
       fill="#000000"
       font-style="normal"
       font-weight="bold"
       font-size="200px"
       font-family="Helvetica"
       id="gobacktext-7-8"
       style="font-style:normal;font-variant:normal;font-weight:bold;font-stretch:normal;font-size:10px;font-family:Helvetica;-inkscape-font-specification:'Helvetica, Bold';font-variant-ligatures:normal;font-variant-caps:normal;font-variant-numeric:normal;font-variant-east-asian:normal;fill:#0088d0;fill-opacity:0.675806;stroke:none;stroke-width:0.05"
       inkscape:label="noproducts-text"><tspan
         sodipodi:role="line"
         id="tspan1"
         x="18.441887"
         y="69.010506">show</tspan></text>
    <path
       stroke="none"
       fill="#999999"
       d="m 10.136392,68.163695 c 0,0 0,-5.427567 0,-5.427567 0,-2.098514 1.679048,-3.801611 3.747601,-3.801611 0,0 35.119514,0 35.119514,0 2.068778,0 3.747742,1.703097 3.747742,3.801611 0,0 0,5.427567 0,5.427567 0,2.098514 -1.678964,3.801611 -3.747742,3.801611 0,0 -35.119514,0 -35.119514,0 -2.068553,0 -3.747601,-1.703097 -3.747601,-3.801611"
       id="goback-box-8-6"
       style="fill:#999999;fill-opacity:0.336842;stroke-width:0.0283675"
       inkscape:label="noproducts-box" />
  </g>
  <text
     x="822.84332"
     y="415.79849"
     stroke="none"
     fill="#000000"
     transform="matrix(0.92407999,-0.00322566,0.00377741,1.0821442,0,0)"
     font-style="italic"
     font-weight="bold"
     font-size="8.25806px"
     font-family="'Helvetica Oblique'"
     id="text11"
     style="opacity:1;fill:#00009a;fill-opacity:0.651128;stroke-width:0.0412903">chemisfun</text>
  <g
     id="overlay-box"
     style="opacity:0"
     transform="matrix(0.31364504,0,0,0.8007311,650.50736,385.81436)">
    <rect
       style="fill:#609975;fill-opacity:0.2;stroke:#609970;stroke-width:0;stroke-linecap:round;stroke-opacity:0.657143;paint-order:fill markers stroke"
       id="rect285"
       width="164.84744"
       height="59.583412"
       x="329.69489"
       y="23.171328" />
  </g>
  <g
     id="overlay"
     onclick="window.location.href = 'about.svg'"
     onmouseover="this.ownerDocument.getElementById('overlay-box').style.opacity='0.5'"
     onmouseout="this.ownerDocument.getElementById('overlay-box').style.opacity='0'"
     transform="matrix(0.76550767,-0.0030054,0.00267214,0.86098131,195.61318,22.784653)">
    <rect
       style="opacity:0.5;fill:#ffffff;fill-opacity:0;stroke-linecap:round;stroke-opacity:0.657143;paint-order:stroke fill markers"
       id="rect2"
       width="65.93074"
       height="55.035408"
       x="733.06049"
       y="445.87061" />
  </g>
  <g
     id="g1"
     transform="matrix(0.0625,0,0,0.0625,764.65732,406.62566)">
    <rect
       x="239.31"
       y="120.321"
       style="fill:#444242"
       width="33.389"
       height="139.98"
       id="rect1" />
    <rect
       x="256"
       y="120.321"
       style="fill:#3a3839"
       width="16.695"
       height="139.98"
       id="rect2-2" />
    <rect
       x="132.194"
       y="305.86301"
       transform="matrix(0.5,0.866,-0.866,0.5,399.932,58.9793)"
       style="fill:#444242"
       width="33.387001"
       height="139.967"
       id="rect4" />
    <rect
       x="293.125"
       y="359.13"
       transform="matrix(0.866,0.5,-0.5,0.866,236.5654,-131.205)"
       style="fill:#3a3839"
       width="139.967"
       height="33.387001"
       id="rect5" />
    <path
       style="background-color:#ffffff00;fill:#439de2;fill-opacity:1"
       d="m 456.843,485.07 c -9.538,0 -18.951,-2.501 -27.432,-7.398 v 0 c -12.733,-7.351 -21.842,-19.221 -25.646,-33.424 -3.805,-14.201 -1.853,-29.035 5.499,-41.769 7.351,-12.732 19.221,-21.841 33.424,-25.646 14.201,-3.806 29.034,-1.853 41.769,5.499 12.732,7.351 21.841,19.221 25.646,33.424 3.805,14.202 1.853,29.035 -5.499,41.769 -7.351,12.733 -19.221,21.842 -33.424,25.646 -4.742,1.27 -9.557,1.899 -14.337,1.899 z"
       id="path7-3" />
    <path
       style="background-color:#ffffff00;fill:#eda74a;fill-opacity:1"
       d="m 256.001,137.021 c -30.352,0 -55.044,-24.693 -55.044,-55.044 0,-30.351 24.693,-55.044 55.044,-55.044 30.351,0 55.044,24.693 55.044,55.044 0,30.351 -24.693,55.044 -55.044,55.044 z"
       id="path5-4" />
    <path
       style="background-color:#ffffff00;fill:#53acb1;fill-opacity:1"
       d="m 55.158,485.07 c -4.781,0 -9.594,-0.629 -14.336,-1.9 C 26.619,479.365 14.75,470.256 7.398,457.524 0.046,444.792 -1.906,429.957 1.899,415.755 c 3.805,-14.203 12.914,-26.072 25.646,-33.424 12.731,-7.352 27.567,-9.304 41.769,-5.499 14.203,3.805 26.072,12.914 33.424,25.646 7.352,12.732 9.304,27.567 5.499,41.769 -3.805,14.203 -12.914,26.072 -25.646,33.424 -8.481,4.897 -17.896,7.399 -27.433,7.399 z"
       id="path6-7" />
    <path
       style="fill:#f74d37"
       d="m 256.001,384.379 c -38.81,0 -70.384,-31.575 -70.384,-70.384 0,-38.809 31.575,-70.384 70.384,-70.384 38.809,0 70.384,31.575 70.384,70.384 0,38.809 -31.575,70.384 -70.384,70.384 z"
       id="path4-9" />
  </g>
</svg>
