<?xml version="1.0" encoding="UTF-8" standalone="no"?>
<svg
   width="100%"
   height="100%"
   viewBox="0 0 818 460"
   style="background-color: #ffffff00"
   version="1.1"
   id="svg59"
   sodipodi:docname="alkanes-noproducts-o1.svg"
   inkscape:version="1.4.2 (ebf0e940, 2025-05-08)"
   xmlns:inkscape="http://www.inkscape.org/namespaces/inkscape"
   xmlns:sodipodi="http://sodipodi.sourceforge.net/DTD/sodipodi-0.dtd"
   xmlns="http://www.w3.org/2000/svg"
   xmlns:svg="http://www.w3.org/2000/svg">
  <path
     stroke="#000000"
     stroke-width="22"
     fill="none"
     transform="matrix(0.05 0 0 0.05 -10 -11)"
     d="M 16494.7,9367.47 C 16494.7,9367.47 16494.7,284.602 16494.7,284.602 C 16494.7,284.602 268.683,284.602 268.683,284.602 C 268.683,284.602 268.683,9367.47 268.683,9367.47 C 268.683,9367.47 16494.7,9367.47 16494.7,9367.47 "
     id="path9" />
  <text
     x="0"
     y="0"
     stroke="none"
     fill="#000000"
     transform="matrix(0.05 0 0 0.05 11.735 21.13)"
     font-style="normal"
     font-weight="bold"
     font-size="320px"
     font-family="Helvetica"
     id="title">
Alkanes - Reactions</text>
  <text
     x="0"
     y="0"
     stroke="none"
     fill="#999999"
     transform="matrix(0.05 0 0 0.05 11.9381 39.085)"
     font-style="normal"
     font-weight="normal"
     font-size="320px"
     font-family="Helvetica"
     id="clickfordetailstext">
click for more</text>
  <g
     id="goback"
     onclick="window.location.href = 'index-o1.svg'"
     onmouseover="document.getElementById('goback-box').setAttribute('opacity','0.5');"
     onmouseout="document.getElementById('goback-box').setAttribute('opacity','1')">
    <path
       stroke="none"
       fill="#999999"
       transform="matrix(0.05 0 0 0.05 -10 -11)"
       d="M 395.9,1492.34 C 395.9,1492.34 395.9,1302.37 395.9,1302.37 C 395.9,1228.92 455.513,1169.31 528.955,1169.31 C 528.955,1169.31 1775.84,1169.31 1775.84,1169.31 C 1849.29,1169.31 1908.9,1228.92 1908.9,1302.37 C 1908.9,1302.37 1908.9,1492.34 1908.9,1492.34 C 1908.9,1565.79 1849.29,1625.4 1775.84,1625.4 C 1775.84,1625.4 528.955,1625.4 528.955,1625.4 C 455.513,1625.4 395.9,1565.79 395.9,1492.34 "
       id="goback-box" />
    <text
       x="0"
       y="0"
       stroke="none"
       fill="#000000"
       transform="matrix(0.05 0 0 0.05 29.3796 61.765)"
       font-style="normal"
       font-weight="bold"
       font-size="200px"
       font-family="Helvetica"
       id="gobacktext">
go home</text>
    <path
       stroke="#999999"
       stroke-width="1"
       transform="matrix(0.05 0 0 0.05 -10 -11)"
       d="M 395.9,1492.34 C 395.9,1492.34 395.9,1302.37 395.9,1302.37 C 395.9,1228.92 455.513,1169.31 528.955,1169.31 C 528.955,1169.31 1775.84,1169.31 1775.84,1169.31 C 1849.29,1169.31 1908.9,1228.92 1908.9,1302.37 C 1908.9,1302.37 1908.9,1492.34 1908.9,1492.34 C 1908.9,1565.79 1849.29,1625.4 1775.84,1625.4 C 1775.84,1625.4 528.955,1625.4 528.955,1625.4 C 455.513,1625.4 395.9,1565.79 395.9,1492.34 "
       style="opacity:0"
       id="goback-link" />
  </g>
  <g
     id="howtomake"
     onclick="window.location.href = 'toalkanes-o1.svg'"
     onmouseover="document.getElementById('howtomake-box').setAttribute('opacity','0.5');"
     onmouseout="document.getElementById('howtomake-box').setAttribute('opacity','1')">
    <path
       stroke="none"
       fill="#999999"
       transform="matrix(0.05 0 0 0.05 -10 -11)"
       d="M 381.591,2007.46 C 381.591,2007.46 381.591,1817.48 381.591,1817.48 C 381.591,1744.04 441.204,1684.42 514.647,1684.42 C 514.647,1684.42 1761.54,1684.42 1761.54,1684.42 C 1834.98,1684.42 1894.59,1744.04 1894.59,1817.48 C 1894.59,1817.48 1894.59,2007.46 1894.59,2007.46 C 1894.59,2080.9 1834.98,2140.51 1761.54,2140.51 C 1761.54,2140.51 514.647,2140.51 514.647,2140.51 C 441.204,2140.51 381.591,2080.9 381.591,2007.46 "
       id="howtomake-box" />
    <text
       x="0"
       y="0"
       stroke="none"
       fill="#000000"
       transform="matrix(0.05 0 0 0.05 17.275 87.5206)"
       font-style="normal"
       font-weight="bold"
       font-size="200px"
       font-family="Helvetica"
       id="howtomaketext">
how to make</text>
    <path
       stroke="#999999"
       stroke-width="1"
       transform="matrix(0.05 0 0 0.05 -10 -11)"
       d="M 381.591,2007.46 C 381.591,2007.46 381.591,1817.48 381.591,1817.48 C 381.591,1744.04 441.204,1684.42 514.647,1684.42 C 514.647,1684.42 1761.54,1684.42 1761.54,1684.42 C 1834.98,1684.42 1894.59,1744.04 1894.59,1817.48 C 1894.59,1817.48 1894.59,2007.46 1894.59,2007.46 C 1894.59,2080.9 1834.98,2140.51 1761.54,2140.51 C 1761.54,2140.51 514.647,2140.51 514.647,2140.51 C 441.204,2140.51 381.591,2080.9 381.591,2007.46 "
       style="opacity:0"
       id="howtomake-link" />
  </g>
  <g
     id="g10"
     inkscape:label="alkanes">
    <text
       x="0"
       y="0"
       stroke="none"
       fill="#0000ff"
       transform="matrix(0.05 0 0 0.05 290.908 181.071)"
       font-style="normal"
       font-weight="bold"
       font-size="280px"
       font-family="Helvetica"
       id="text17">
alkanes</text>
    <g
       id="g1">
      <path
         stroke="none"
         fill="#000000"
         transform="matrix(0.05 0 0 0.05 -10 -11)"
         d="M 7399.96,3547.23 L 7411.04,3528.03 L 7664.89,3675.11 L 7664.89,3687.39 L 7654.49,3693.69 L 7399.96,3547.23 Z "
         id="path16" />
      <path
         stroke="none"
         fill="#000000"
         transform="matrix(0.05 0 0 0.05 -10 -11)"
         d="M 7675.29,3693.69 L 7664.89,3687.39 L 7664.89,3675.11 L 7918.74,3528.03 L 7929.83,3547.23 L 7675.29,3693.69 Z "
         id="path17" />
      <text
         x="0"
         y="0"
         stroke="none"
         fill="#000000"
         transform="matrix(0.05 0 0 0.05 369.995 191.584)"
         font-style="normal"
         font-weight="bold"
         font-size="180px"
         font-family="Helvetica"
         id="text25">
H</text>
      <path
         stroke="none"
         fill="#000000"
         transform="matrix(0.05 0 0 0.05 -10 -11)"
         d="M 7654.49,3693.69 L 7664.89,3687.39 L 7675.29,3693.69 L 7675.98,3890.9 L 7653.8,3890.9 L 7654.49,3693.69 Z "
         id="path26" />
    </g>
    <path
       stroke="none"
       fill="#ffffff"
       transform="matrix(0.05,0,0,0.05,-10,-11)"
       d="M 7979.4,4189.9 C 7979.4,4189.9 7979.4,3373.8 7979.4,3373.8 C 7979.4,3373.8 5833.4,3373.8 5833.4,3373.8 C 5833.4,3373.8 5833.4,4189.9 5833.4,4189.9 C 5833.4,4189.9 7979.4,4189.9 7979.4,4189.9 "
       id="path1"
       style="background-color:#ffffff00;opacity:0" />
  </g>
  <path
     stroke="none"
     fill="#000000"
     transform="matrix(0.05 0 0 0.05 -10 -11)"
     d="M 6062.94,5148.05 L 6062.94,4781.65 L 6084.94,4781.65 L 6084.94,5148.05 Z "
     id="path27" />
  <path
     stroke="none"
     fill="#000000"
     transform="matrix(0.05 0 0 0.05 -10 -11)"
     d="M 6073.94,5341.09 C 6073.94,5341.09 6016.5,5119.33 6016.5,5119.33 C 6016.5,5119.33 6048.81,5147.05 6073.94,5147.05 C 6098.63,5147.05 6130.38,5119.33 6130.38,5119.33 C 6130.38,5119.33 6073.94,5341.09 6073.94,5341.09 C 6073.94,5341.09 6073.94,5341.09 6073.94,5341.09 "
     id="path28" />
  <path
     stroke="#000000"
     stroke-width="1"
     fill="none"
     transform="matrix(0.05 0 0 0.05 -10 -11)"
     d="M 6073.94,5341.09 C 6073.94,5341.09 6016.5,5119.33 6016.5,5119.33 C 6016.5,5119.33 6048.81,5147.05 6073.94,5147.05 C 6098.63,5147.05 6130.38,5119.33 6130.38,5119.33 C 6130.38,5119.33 6073.94,5341.09 6073.94,5341.09 C 6073.94,5341.09 6073.94,5341.09 6073.94,5341.09 "
     id="path29" />
  <path
     stroke="none"
     fill="#000000"
     transform="matrix(0.05 0 0 0.05 -10 -11)"
     d="M 9666.8,4792.65 L 6073.94,4792.65 L 6073.94,4770.65 L 9666.8,4770.65 Z "
     id="path30" />
  <path
     stroke="none"
     fill="#000000"
     transform="matrix(0.05 0 0 0.05 -10 -11)"
     d="M 7650.78,5162.35 L 7650.78,4795.95 L 7672.78,4795.95 L 7672.78,5162.35 Z "
     id="path31" />
  <path
     stroke="none"
     fill="#000000"
     transform="matrix(0.05 0 0 0.05 -10 -11)"
     d="M 7661.78,5355.39 C 7661.78,5355.39 7604.34,5133.63 7604.34,5133.63 C 7604.34,5133.63 7636.65,5161.35 7661.78,5161.35 C 7686.47,5161.35 7718.22,5133.63 7718.22,5133.63 C 7718.22,5133.63 7661.78,5355.39 7661.78,5355.39 C 7661.78,5355.39 7661.78,5355.39 7661.78,5355.39 "
     id="path32" />
  <path
     stroke="#000000"
     stroke-width="1"
     fill="none"
     transform="matrix(0.05 0 0 0.05 -10 -11)"
     d="M 7661.78,5355.39 C 7661.78,5355.39 7604.34,5133.63 7604.34,5133.63 C 7604.34,5133.63 7636.65,5161.35 7661.78,5161.35 C 7686.47,5161.35 7718.22,5133.63 7718.22,5133.63 C 7718.22,5133.63 7661.78,5355.39 7661.78,5355.39 C 7661.78,5355.39 7661.78,5355.39 7661.78,5355.39 "
     id="path33" />
  <path
     stroke="none"
     fill="#000000"
     transform="matrix(0.05 0 0 0.05 -10 -11)"
     d="M 9655.8,5148.05 L 9655.8,4781.65 L 9677.8,4781.65 L 9677.8,5148.05 Z "
     id="path34" />
  <path
     stroke="none"
     fill="#000000"
     transform="matrix(0.05 0 0 0.05 -10 -11)"
     d="M 9666.8,5341.09 C 9666.8,5341.09 9609.36,5119.33 9609.36,5119.33 C 9609.36,5119.33 9641.67,5147.05 9666.8,5147.05 C 9691.49,5147.05 9723.24,5119.33 9723.24,5119.33 C 9723.24,5119.33 9666.8,5341.09 9666.8,5341.09 C 9666.8,5341.09 9666.8,5341.09 9666.8,5341.09 "
     id="path35" />
  <path
     stroke="#000000"
     stroke-width="1"
     fill="none"
     transform="matrix(0.05 0 0 0.05 -10 -11)"
     d="M 9666.8,5341.09 C 9666.8,5341.09 9609.36,5119.33 9609.36,5119.33 C 9609.36,5119.33 9641.67,5147.05 9666.8,5147.05 C 9691.49,5147.05 9723.24,5119.33 9723.24,5119.33 C 9723.24,5119.33 9666.8,5341.09 9666.8,5341.09 C 9666.8,5341.09 9666.8,5341.09 9666.8,5341.09 "
     id="path36" />
  <path
     stroke="none"
     fill="#000000"
     transform="matrix(0.05 0 0 0.05 -10 -11)"
     d="M 7650.78,4795.95 L 7650.78,4356.39 L 7672.78,4356.39 L 7672.78,4795.95 Z "
     id="path37" />
  <g
     id="g5">
    <text
       x="0"
       y="0"
       stroke="none"
       fill="#000000"
       transform="matrix(0.05 0 0 0.05 271.81 241.025)"
       font-style="normal"
       font-weight="bold"
       font-size="200px"
       font-family="Helvetica"
       id="text36">
Br</text>
    <text
       x="0"
       y="0"
       stroke="none"
       fill="#000000"
       transform="matrix(0.05 0 0 0.05 282.924 243.325)"
       font-style="normal"
       font-weight="bold"
       font-size="150px"
       font-family="Helvetica"
       id="text37">
2</text>
    <text
       x="0"
       y="0"
       stroke="none"
       fill="#000000"
       transform="matrix(0.05 0 0 0.05 246.993 250.36)"
       font-style="normal"
       font-weight="bold"
       font-size="140px"
       font-family="Helvetica"
       id="text38">
light or heat</text>
  </g>
  <g
     id="g6">
    <text
       x="0"
       y="0"
       stroke="none"
       fill="#000000"
       transform="matrix(0.05 0 0 0.05 350.46 241.025)"
       font-style="normal"
       font-weight="bold"
       font-size="200px"
       font-family="Helvetica"
       id="text42">
Cl</text>
    <text
       x="0"
       y="0"
       stroke="none"
       fill="#000000"
       transform="matrix(0.05 0 0 0.05 360.46 243.325)"
       font-style="normal"
       font-weight="bold"
       font-size="150px"
       font-family="Helvetica"
       id="text43">
2</text>
    <text
       x="0"
       y="0"
       stroke="none"
       fill="#000000"
       transform="matrix(0.05 0 0 0.05 326.358 250.36)"
       font-style="normal"
       font-weight="bold"
       font-size="140px"
       font-family="Helvetica"
       id="text44">
light or heat</text>
  </g>
  <g
     id="g7">
    <text
       x="0"
       y="0"
       stroke="none"
       fill="#000000"
       transform="matrix(0.05 0 0 0.05 434.712 239.531)"
       font-style="normal"
       font-weight="bold"
       font-size="200px"
       font-family="Helvetica"
       id="text41">
acids</text>
    <text
       x="0"
       y="0"
       stroke="none"
       fill="#000000"
       transform="matrix(0.05 0 0 0.05 426.15 250.69)"
       font-style="normal"
       font-weight="bold"
       font-size="200px"
       font-family="Helvetica"
       id="text53">
or bases</text>
  </g>
  <path
     stroke="none"
     fill="#ffffff"
     d="m 395.36812,201.66942 c 0,0 0,-45.63096 0,-45.63096 0,0 -111.421,0 -111.421,0 0,0 0,45.63096 0,45.63096 0,0 111.421,0 111.421,0"
     id="path5-1"
     style="opacity:0;stroke-width:0.0451449"
     inkscape:label="to-alkanes"
     onclick="window.location.href = 'toalkanes-o1.svg'" />
  <path
     stroke="none"
     fill="#ffffff"
     d="m 469.61812,255.13576 c 0,0 0,-23.51557 0,-23.51557 0,0 -44.52196,0 -44.52196,0 0,0 0,23.51557 0,23.51557 0,0 44.52196,0 44.52196,0"
     id="path5-1-8"
     style="opacity:0;stroke-width:0.0204861"
     inkscape:label="l-supplement"
     onclick="window.location.href = supplement-o1.svg'" />
  <path
     stroke="none"
     fill="#ffffff"
     d="m 370.72388,254.11654 c 0,0 0,-21.85692 0,-21.85692 0,0 -47.28638,0 -47.28638,0 0,0 0,21.85692 0,21.85692 0,0 47.28638,0 47.28638,0"
     id="path5-1-8-1"
     style="opacity:0;stroke-width:0.0203543"
     inkscape:label="l-supplement"
     onclick="window.location.href = supplement-o1.svg'" />
  <path
     stroke="none"
     fill="#ffffff"
     d="m 289.2383,252.66942 c 0,0 0,-21.85692 0,-21.85692 0,0 -47.28638,0 -47.28638,0 0,0 0,21.85692 0,21.85692 0,0 47.28638,0 47.28638,0"
     id="path5-1-8-1-6"
     style="opacity:0;stroke-width:0.0203543"
     inkscape:label="l-supplement"
     onclick="window.location.href = supplement-o1.svg'" />
  <g
     id="noreagents"
     onclick="window.location.href = 'alkanes-noreagents-o1.svg'"
     transform="translate(-4.6856272,378.9067)">
    <text
       x="11.200497"
       y="54.141506"
       stroke="none"
       fill="#000000"
       font-style="normal"
       font-weight="bold"
       font-size="200px"
       font-family="Helvetica"
       id="gobacktext-7"
       style="font-style:normal;font-weight:bold;font-size:10px;font-family:Helvetica;fill:#000000;fill-opacity:0.443609;stroke:none;stroke-width:0.05"
       inkscape:label="noreagents-text"><tspan
         sodipodi:role="line"
         id="tspan2"
         x="11.200497"
         y="54.141506"
         style="font-style:normal;font-variant:normal;font-weight:bold;font-stretch:normal;font-size:8px;font-family:Helvetica;-inkscape-font-specification:'Helvetica, Bold';font-variant-ligatures:normal;font-variant-caps:normal;font-variant-numeric:normal;font-variant-east-asian:normal;fill:#000000;fill-opacity:0.5;stroke-width:0.05">reagents</tspan></text>
    <rect
       style="fill:#000000;fill-opacity:0.821053;fill-rule:evenodd;stroke:#a13033;stroke-width:0;stroke-linecap:round;stroke-miterlimit:2;stroke-dasharray:none;paint-order:markers fill stroke"
       id="rect3"
       width="31.666824"
       height="0.9773711"
       x="12.224979"
       y="51.518982"
       inkscape:label="noreagents-line" />
    <path
       stroke="none"
       fill="#999999"
       d="m 9.795,54.694678 c 0,0 0,-5.427567 0,-5.427567 0,-2.098514 1.463398,-3.801611 3.266274,-3.801611 0,0 30.608907,0 30.608907,0 1.803073,0 3.266397,1.703097 3.266397,3.801611 0,0 0,5.427567 0,5.427567 0,2.098514 -1.463324,3.801611 -3.266397,3.801611 0,0 -30.608907,0 -30.608907,0 -1.802876,0 -3.266274,-1.703097 -3.266274,-3.801611"
       id="goback-box-8"
       style="fill:#999999;fill-opacity:0.336842;stroke-width:0.0264832"
       inkscape:label="noreagents-box" />
  </g>
  <g
     id="nonames"
     onclick="window.location.href = 'alkanes-o1.svg'"
     transform="matrix(0.85780308,0,0,1,-3.2442635,382.9067)">
    <text
       x="18.441887"
       y="69.010506"
       stroke="none"
       fill="#000000"
       font-style="normal"
       font-weight="bold"
       font-size="200px"
       font-family="Helvetica"
       id="gobacktext-7-8"
       style="font-style:normal;font-variant:normal;font-weight:bold;font-stretch:normal;font-size:10px;font-family:Helvetica;-inkscape-font-specification:'Helvetica, Bold';font-variant-ligatures:normal;font-variant-caps:normal;font-variant-numeric:normal;font-variant-east-asian:normal;fill:#0088d0;fill-opacity:0.675806;stroke:none;stroke-width:0.05"
       inkscape:label="noproducts-text"><tspan
         sodipodi:role="line"
         id="tspan1"
         x="18.441887"
         y="69.010506">show</tspan></text>
    <path
       stroke="none"
       fill="#999999"
       d="m 10.136392,68.163695 c 0,0 0,-5.427567 0,-5.427567 0,-2.098514 1.679048,-3.801611 3.747601,-3.801611 0,0 35.119514,0 35.119514,0 2.068778,0 3.747742,1.703097 3.747742,3.801611 0,0 0,5.427567 0,5.427567 0,2.098514 -1.678964,3.801611 -3.747742,3.801611 0,0 -35.119514,0 -35.119514,0 -2.068553,0 -3.747601,-1.703097 -3.747601,-3.801611"
       id="goback-box-8-6"
       style="fill:#999999;fill-opacity:0.336842;stroke-width:0.0283675"
       inkscape:label="noproducts-box" />
  </g>
  <text
     x="822.84332"
     y="415.79849"
     stroke="none"
     fill="#000000"
     transform="matrix(0.92407999,-0.00322566,0.00377741,1.0821442,0,0)"
     font-style="italic"
     font-weight="bold"
     font-size="8.25806px"
     font-family="'Helvetica Oblique'"
     id="text11"
     style="opacity:1;fill:#00009a;fill-opacity:0.651128;stroke-width:0.0412903">chemisfun</text>
  <g
     id="overlay-box"
     style="opacity:0"
     transform="matrix(0.31364504,0,0,0.8007311,650.50736,385.81436)">
    <rect
       style="fill:#609975;fill-opacity:0.2;stroke:#609970;stroke-width:0;stroke-linecap:round;stroke-opacity:0.657143;paint-order:fill markers stroke"
       id="rect285"
       width="164.84744"
       height="59.583412"
       x="329.69489"
       y="23.171328" />
  </g>
  <g
     id="overlay"
     onclick="window.location.href = 'index.html'"
     onmouseover="this.ownerDocument.getElementById('overlay-box').style.opacity='0.5'"
     onmouseout="this.ownerDocument.getElementById('overlay-box').style.opacity='0'"
     transform="matrix(0.76550767,-0.0030054,0.00267214,0.86098131,195.61318,22.784653)">
    <rect
       style="opacity:0.5;fill:#ffffff;fill-opacity:0;stroke-linecap:round;stroke-opacity:0.657143;paint-order:stroke fill markers"
       id="rect2"
       width="65.93074"
       height="55.035408"
       x="733.06049"
       y="445.87061" />
  </g>
  <g
     id="g11"
     transform="matrix(0.0625,0,0,0.0625,764.65732,406.62566)">
    <rect
       x="239.31"
       y="120.321"
       style="fill:#444242"
       width="33.389"
       height="139.98"
       id="rect1" />
    <rect
       x="256"
       y="120.321"
       style="fill:#3a3839"
       width="16.695"
       height="139.98"
       id="rect2-2" />
    <rect
       x="132.194"
       y="305.86301"
       transform="matrix(0.5,0.866,-0.866,0.5,399.932,58.9793)"
       style="fill:#444242"
       width="33.387001"
       height="139.967"
       id="rect4" />
    <rect
       x="293.125"
       y="359.13"
       transform="matrix(0.866,0.5,-0.5,0.866,236.5654,-131.205)"
       style="fill:#3a3839"
       width="139.967"
       height="33.387001"
       id="rect5" />
    <path
       style="background-color:#ffffff00;fill:#439de2;fill-opacity:1"
       d="m 456.843,485.07 c -9.538,0 -18.951,-2.501 -27.432,-7.398 v 0 c -12.733,-7.351 -21.842,-19.221 -25.646,-33.424 -3.805,-14.201 -1.853,-29.035 5.499,-41.769 7.351,-12.732 19.221,-21.841 33.424,-25.646 14.201,-3.806 29.034,-1.853 41.769,5.499 12.732,7.351 21.841,19.221 25.646,33.424 3.805,14.202 1.853,29.035 -5.499,41.769 -7.351,12.733 -19.221,21.842 -33.424,25.646 -4.742,1.27 -9.557,1.899 -14.337,1.899 z"
       id="path7-3" />
    <path
       style="background-color:#ffffff00;fill:#eda74a;fill-opacity:1"
       d="m 256.001,137.021 c -30.352,0 -55.044,-24.693 -55.044,-55.044 0,-30.351 24.693,-55.044 55.044,-55.044 30.351,0 55.044,24.693 55.044,55.044 0,30.351 -24.693,55.044 -55.044,55.044 z"
       id="path5-4" />
    <path
       style="background-color:#ffffff00;fill:#53acb1;fill-opacity:1"
       d="m 55.158,485.07 c -4.781,0 -9.594,-0.629 -14.336,-1.9 C 26.619,479.365 14.75,470.256 7.398,457.524 0.046,444.792 -1.906,429.957 1.899,415.755 c 3.805,-14.203 12.914,-26.072 25.646,-33.424 12.731,-7.352 27.567,-9.304 41.769,-5.499 14.203,3.805 26.072,12.914 33.424,25.646 7.352,12.732 9.304,27.567 5.499,41.769 -3.805,14.203 -12.914,26.072 -25.646,33.424 -8.481,4.897 -17.896,7.399 -27.433,7.399 z"
       id="path6-7" />
    <path
       style="fill:#f74d37"
       d="m 256.001,384.379 c -38.81,0 -70.384,-31.575 -70.384,-70.384 0,-38.809 31.575,-70.384 70.384,-70.384 38.809,0 70.384,31.575 70.384,70.384 0,38.809 -31.575,70.384 -70.384,70.384 z"
       id="path4-9" />
  </g>
</svg>
