<?xml version="1.0" encoding="UTF-8" standalone="no"?>
<svg
   width="100%"
   height="100%"
   viewBox="0 0 818 460"
   style="background-color: #ffffff00"
   version="1.1"
   id="svg330"
   sodipodi:docname="alkenes-noproducts.svg"
   inkscape:version="1.4.2 (ebf0e940, 2025-05-08)"
   xmlns:inkscape="http://www.inkscape.org/namespaces/inkscape"
   xmlns:sodipodi="http://sodipodi.sourceforge.net/DTD/sodipodi-0.dtd"
   xmlns="http://www.w3.org/2000/svg"
   xmlns:svg="http://www.w3.org/2000/svg">
  <path
     stroke="#ffffff"
     stroke-width="1"
     fill="none"
     transform="matrix(0.05 0 0 0.05 -10 -11)"
     d="M 3188.9,3217.5 C 3188.9,3217.5 3188.9,1900.9 3188.9,1900.9 C 3188.9,1900.9 2129.7,1900.9 2129.7,1900.9 C 2129.7,1900.9 2129.7,3217.5 2129.7,3217.5 C 2129.7,3217.5 3188.9,3217.5 3188.9,3217.5 "
     id="path2" />
  <path
     stroke="#ffffff"
     stroke-width="1"
     fill="none"
     transform="matrix(0.05 0 0 0.05 -10 -11)"
     d="M 4633.2,3246.1 C 4633.2,3246.1 4633.2,1900.9 4633.2,1900.9 C 4633.2,1900.9 3302.3,1900.9 3302.3,1900.9 C 3302.3,1900.9 3302.3,3246.1 3302.3,3246.1 C 3302.3,3246.1 4633.2,3246.1 4633.2,3246.1 "
     id="path4" />
  <path
     stroke="#ffffff"
     stroke-width="1"
     fill="none"
     transform="matrix(0.05 0 0 0.05 -10 -11)"
     d="M 6992.7,3432 C 6992.7,3432 6992.7,2573 6992.7,2573 C 6992.7,2573 5676.1,2573 5676.1,2573 C 5676.1,2573 5676.1,3432 5676.1,3432 C 5676.1,3432 6992.7,3432 6992.7,3432 "
     id="path6" />
  <path
     stroke="#ffffff"
     stroke-width="1"
     fill="none"
     transform="matrix(0.05 0 0 0.05 -10 -11)"
     d="M 6563.7,1873.3 C 6563.7,1873.3 6563.7,1300.3 6563.7,1300.3 C 6563.7,1300.3 5661.8,1300.3 5661.8,1300.3 C 5661.8,1300.3 5661.8,1873.3 5661.8,1873.3 C 5661.8,1873.3 6563.7,1873.3 6563.7,1873.3 "
     id="path8" />
  <path
     stroke="#ffffff"
     stroke-width="1"
     fill="none"
     transform="matrix(0.05 0 0 0.05 -10 -11)"
     d="M 8394.1,3689.4 C 8394.1,3689.4 8394.1,2773.2 8394.1,2773.2 C 8394.1,2773.2 7320.6,2773.2 7320.6,2773.2 C 7320.6,2773.2 7320.6,3689.4 7320.6,3689.4 C 7320.6,3689.4 8394.1,3689.4 8394.1,3689.4 "
     id="path10" />
  <path
     stroke="#ffffff"
     stroke-width="1"
     fill="none"
     transform="matrix(0.05 0 0 0.05 -10 -11)"
     d="M 9852.7,3646.5 C 9852.7,3646.5 9852.7,2801.8 9852.7,2801.8 C 9852.7,2801.8 8593.3,2801.8 8593.3,2801.8 C 8593.3,2801.8 8593.3,3646.5 8593.3,3646.5 C 8593.3,3646.5 9852.7,3646.5 9852.7,3646.5 "
     id="path12" />
  <path
     stroke="#ffffff"
     stroke-width="1"
     fill="none"
     transform="matrix(0.05 0 0 0.05 -10 -11)"
     d="M 11225.5,3632.2 C 11225.5,3632.2 11225.5,3030.6 11225.5,3030.6 C 11225.5,3030.6 10094.8,3030.6 10094.8,3030.6 C 10094.8,3030.6 10094.8,3632.2 10094.8,3632.2 C 10094.8,3632.2 11225.5,3632.2 11225.5,3632.2 "
     id="path14" />
  <path
     stroke="#ffffff"
     stroke-width="1"
     fill="none"
     transform="matrix(0.05 0 0 0.05 -10 -11)"
     d="M 10982.4,8193.9 C 10982.4,8193.9 10982.4,7150 10982.4,7150 C 10982.4,7150 9322.6,7150 9322.6,7150 C 9322.6,7150 9322.6,8193.9 9322.6,8193.9 C 9322.6,8193.9 10982.4,8193.9 10982.4,8193.9 "
     id="path22" />
  <path
     stroke="#ffffff"
     stroke-width="1"
     fill="none"
     transform="matrix(0.05 0 0 0.05 -10 -11)"
     d="M 10825.1,9323.6 C 10825.1,9323.6 10825.1,8278.7 10825.1,8278.7 C 10825.1,8278.7 9336.9,8278.7 9336.9,8278.7 C 9336.9,8278.7 9336.9,9323.6 9336.9,9323.6 C 9336.9,9323.6 10825.1,9323.6 10825.1,9323.6 "
     id="path24" />
  <path
     stroke="#ffffff"
     stroke-width="1"
     fill="none"
     transform="matrix(0.05 0 0 0.05 -10 -11)"
     d="M 2574,8108.1 C 2574,8108.1 2574,6877.3 2574,6877.3 C 2574,6877.3 1471.9,6877.3 1471.9,6877.3 C 1471.9,6877.3 1471.9,8108.1 1471.9,8108.1 C 1471.9,8108.1 2574,8108.1 2574,8108.1 "
     id="path28" />
  <path
     stroke="#ffffff"
     stroke-width="1"
     fill="none"
     transform="matrix(0.05 0 0 0.05 -10 -11)"
     d="M 4018.3,8279.7 C 4018.3,8279.7 4018.3,6863 4018.3,6863 C 4018.3,6863 2701.7,6863 2701.7,6863 C 2701.7,6863 2701.7,8279.7 2701.7,8279.7 C 2701.7,8279.7 4018.3,8279.7 4018.3,8279.7 "
     id="path30" />
  <path
     stroke="#ffffff"
     stroke-width="1"
     fill="none"
     transform="matrix(0.05 0 0 0.05 -10 -11)"
     d="M 5419.7,7793.5 C 5419.7,7793.5 5419.7,6863 5419.7,6863 C 5419.7,6863 4274.7,6863 4274.7,6863 C 4274.7,6863 4274.7,7793.5 4274.7,7793.5 C 4274.7,7793.5 5419.7,7793.5 5419.7,7793.5 "
     id="path32" />
  <path
     stroke="#ffffff"
     stroke-width="1"
     fill="none"
     transform="matrix(0.05 0 0 0.05 -10 -11)"
     d="M 5233.8,8937.5 C 5233.8,8937.5 5233.8,8507.5 5233.8,8507.5 C 5233.8,8507.5 4389.1,8507.5 4389.1,8507.5 C 4389.1,8507.5 4389.1,8937.5 4389.1,8937.5 C 4389.1,8937.5 5233.8,8937.5 5233.8,8937.5 "
     id="path34" />
  <path
     stroke="#000000"
     stroke-width="22"
     fill="none"
     transform="matrix(0.05 0 0 0.05 -10 -11)"
     d="M 16494.7,9367.47 C 16494.7,9367.47 16494.7,284.602 16494.7,284.602 C 16494.7,284.602 268.683,284.602 268.683,284.602 C 268.683,284.602 268.683,9367.47 268.683,9367.47 C 268.683,9367.47 16494.7,9367.47 16494.7,9367.47 "
     id="path43" />
  <text
     x="0"
     y="0"
     stroke="none"
     fill="#000000"
     transform="matrix(0.05 0 0 0.05 11.735 21.13)"
     font-style="normal"
     font-weight="bold"
     font-size="320px"
     font-family="Helvetica"
     id="text43">
Alkenes - Reactions</text>
  <text
     x="0"
     y="0"
     stroke="none"
     fill="#999999"
     transform="matrix(0.05 0 0 0.05 11.9381 39.085)"
     font-style="normal"
     font-weight="normal"
     font-size="320px"
     font-family="Helvetica"
     id="text46">
click for more</text>
  <g
     id="goback"
     onclick="window.location.href = 'index.svg'"
     onmouseover="document.getElementById('goback-box').setAttribute('opacity','0.5');"
     onmouseout="document.getElementById('goback-box').setAttribute('opacity','1')">
    <path
       stroke="none"
       fill="#999999"
       transform="matrix(0.05 0 0 0.05 -10 -11)"
       d="M 395.9,1492.34 C 395.9,1492.34 395.9,1302.37 395.9,1302.37 C 395.9,1228.92 455.513,1169.31 528.955,1169.31 C 528.955,1169.31 1775.84,1169.31 1775.84,1169.31 C 1849.29,1169.31 1908.9,1228.92 1908.9,1302.37 C 1908.9,1302.37 1908.9,1492.34 1908.9,1492.34 C 1908.9,1565.79 1849.29,1625.4 1775.84,1625.4 C 1775.84,1625.4 528.955,1625.4 528.955,1625.4 C 455.513,1625.4 395.9,1565.79 395.9,1492.34 "
       id="goback-box" />
    <text
       x="0"
       y="0"
       stroke="none"
       fill="#000000"
       transform="matrix(0.05 0 0 0.05 29.3796 61.765)"
       font-style="normal"
       font-weight="bold"
       font-size="200px"
       font-family="Helvetica"
       id="gobacktext">
go home</text>
    <path
       stroke="#999999"
       stroke-width="1"
       transform="matrix(0.05 0 0 0.05 -10 -11)"
       d="M 395.9,1492.34 C 395.9,1492.34 395.9,1302.37 395.9,1302.37 C 395.9,1228.92 455.513,1169.31 528.955,1169.31 C 528.955,1169.31 1775.84,1169.31 1775.84,1169.31 C 1849.29,1169.31 1908.9,1228.92 1908.9,1302.37 C 1908.9,1302.37 1908.9,1492.34 1908.9,1492.34 C 1908.9,1565.79 1849.29,1625.4 1775.84,1625.4 C 1775.84,1625.4 528.955,1625.4 528.955,1625.4 C 455.513,1625.4 395.9,1565.79 395.9,1492.34 "
       onclick="history.back()"
       style="opacity:0"
       id="goback-link" />
  </g>
  <g
     id="howtomake"
     onclick="window.location.href = 'toalkenes.svg'"
     onmouseover="document.getElementById('howtomake-box').setAttribute('opacity','0.5');"
     onmouseout="document.getElementById('howtomake-box').setAttribute('opacity','1')">
    <path
       stroke="none"
       fill="#999999"
       transform="matrix(0.05 0 0 0.05 -10 -11)"
       d="M 381.591,2007.46 C 381.591,2007.46 381.591,1817.48 381.591,1817.48 C 381.591,1744.04 441.204,1684.42 514.647,1684.42 C 514.647,1684.42 1761.54,1684.42 1761.54,1684.42 C 1834.98,1684.42 1894.59,1744.04 1894.59,1817.48 C 1894.59,1817.48 1894.59,2007.46 1894.59,2007.46 C 1894.59,2080.9 1834.98,2140.51 1761.54,2140.51 C 1761.54,2140.51 514.647,2140.51 514.647,2140.51 C 441.204,2140.51 381.591,2080.9 381.591,2007.46 "
       id="howtomake-box" />
    <text
       x="0"
       y="0"
       stroke="none"
       fill="#000000"
       transform="matrix(0.05 0 0 0.05 17.275 87.5206)"
       font-style="normal"
       font-weight="bold"
       font-size="200px"
       font-family="Helvetica"
       id="howtomaketext">
how to make</text>
    <path
       stroke="#999999"
       stroke-width="1"
       transform="matrix(0.05 0 0 0.05 -10 -11)"
       d="M 381.591,2007.46 C 381.591,2007.46 381.591,1817.48 381.591,1817.48 C 381.591,1744.04 441.204,1684.42 514.647,1684.42 C 514.647,1684.42 1761.54,1684.42 1761.54,1684.42 C 1834.98,1684.42 1894.59,1744.04 1894.59,1817.48 C 1894.59,1817.48 1894.59,2007.46 1894.59,2007.46 C 1894.59,2080.9 1834.98,2140.51 1761.54,2140.51 C 1761.54,2140.51 514.647,2140.51 514.647,2140.51 C 441.204,2140.51 381.591,2080.9 381.591,2007.46 "
       style="opacity:0"
       id="howtomake-link" />
  </g>
  <path
     stroke="none"
     fill="#000000"
     transform="matrix(0.05 0 0 0.05 -10 -11)"
     d="M 5212.06,5277.53 L 5223.14,5258.33 L 5476.99,5405.41 L 5476.99,5431.07 L 5212.06,5277.53 Z "
     id="path50" />
  <path
     stroke="none"
     fill="#000000"
     transform="matrix(0.05 0 0 0.05 -10 -11)"
     d="M 5476.99,5431.07 L 5476.99,5405.41 L 5730.84,5258.33 L 5741.93,5277.53 L 5476.99,5431.07 Z "
     id="path51" />
  <path
     stroke="none"
     fill="#000000"
     transform="matrix(0.05 0 0 0.05 -10 -11)"
     d="M 5482.54,5363.28 L 5471.45,5344.07 L 5703.12,5210.32 L 5714.21,5229.52 L 5482.54,5363.28 Z "
     id="path52" />
  <path
     stroke="none"
     fill="#000000"
     transform="matrix(0.05 0 0 0.05 -10 -11)"
     d="M 2030.34,6649.55 L 2030.34,6283.15 L 2052.34,6283.15 L 2052.34,6649.55 Z "
     id="path53" />
  <path
     stroke="none"
     fill="#000000"
     transform="matrix(0.05 0 0 0.05 -10 -11)"
     d="M 2041.34,6842.59 C 2041.34,6842.59 1983.9,6620.83 1983.9,6620.83 C 1983.9,6620.83 2016.21,6648.55 2041.34,6648.55 C 2066.03,6648.55 2097.78,6620.83 2097.78,6620.83 C 2097.78,6620.83 2041.34,6842.59 2041.34,6842.59 C 2041.34,6842.59 2041.34,6842.59 2041.34,6842.59 "
     id="path54" />
  <path
     stroke="#000000"
     stroke-width="1"
     fill="none"
     transform="matrix(0.05 0 0 0.05 -10 -11)"
     d="M 2041.34,6842.59 C 2041.34,6842.59 1983.9,6620.83 1983.9,6620.83 C 1983.9,6620.83 2016.21,6648.55 2041.34,6648.55 C 2066.03,6648.55 2097.78,6620.83 2097.78,6620.83 C 2097.78,6620.83 2041.34,6842.59 2041.34,6842.59 C 2041.34,6842.59 2041.34,6842.59 2041.34,6842.59 "
     id="path55" />
  <path
     stroke="none"
     fill="#000000"
     transform="matrix(0.05 0 0 0.05 -10 -11)"
     d="M 10095.8,6294.15 L 2041.34,6294.15 L 2041.34,6272.15 L 10095.8,6272.15 Z "
     id="path59" />
  <path
     stroke="none"
     fill="#000000"
     transform="matrix(0.05 0 0 0.05 -10 -11)"
     d="M 3332.18,6663.85 L 3332.18,6297.45 L 3354.18,6297.45 L 3354.18,6663.85 Z "
     id="path60" />
  <path
     stroke="none"
     fill="#000000"
     transform="matrix(0.05 0 0 0.05 -10 -11)"
     d="M 3343.18,6856.89 C 3343.18,6856.89 3285.74,6635.13 3285.74,6635.13 C 3285.74,6635.13 3318.05,6662.85 3343.18,6662.85 C 3367.87,6662.85 3399.62,6635.13 3399.62,6635.13 C 3399.62,6635.13 3343.18,6856.89 3343.18,6856.89 C 3343.18,6856.89 3343.18,6856.89 3343.18,6856.89 "
     id="path61" />
  <path
     stroke="#000000"
     stroke-width="1"
     fill="none"
     transform="matrix(0.05 0 0 0.05 -10 -11)"
     d="M 3343.18,6856.89 C 3343.18,6856.89 3285.74,6635.13 3285.74,6635.13 C 3285.74,6635.13 3318.05,6662.85 3343.18,6662.85 C 3367.87,6662.85 3399.62,6635.13 3399.62,6635.13 C 3399.62,6635.13 3343.18,6856.89 3343.18,6856.89 C 3343.18,6856.89 3343.18,6856.89 3343.18,6856.89 "
     id="path62" />
  <path
     stroke="none"
     fill="#000000"
     transform="matrix(0.05 0 0 0.05 -10 -11)"
     d="M 4752.91,6662.87 L 4752.91,6296.47 L 4774.91,6296.47 L 4774.91,6662.87 Z "
     id="path66" />
  <path
     stroke="none"
     fill="#000000"
     transform="matrix(0.05 0 0 0.05 -10 -11)"
     d="M 4763.91,6855.91 C 4763.91,6855.91 4706.47,6634.15 4706.47,6634.15 C 4706.47,6634.15 4738.78,6661.87 4763.91,6661.87 C 4788.6,6661.87 4820.35,6634.15 4820.35,6634.15 C 4820.35,6634.15 4763.91,6855.91 4763.91,6855.91 C 4763.91,6855.91 4763.91,6855.91 4763.91,6855.91 "
     id="path67" />
  <path
     stroke="#000000"
     stroke-width="1"
     fill="none"
     transform="matrix(0.05 0 0 0.05 -10 -11)"
     d="M 4763.91,6855.91 C 4763.91,6855.91 4706.47,6634.15 4706.47,6634.15 C 4706.47,6634.15 4738.78,6661.87 4763.91,6661.87 C 4788.6,6661.87 4820.35,6634.15 4820.35,6634.15 C 4820.35,6634.15 4763.91,6855.91 4763.91,6855.91 C 4763.91,6855.91 4763.91,6855.91 4763.91,6855.91 "
     id="path68" />
  <text
     x="0"
     y="0"
     stroke="none"
     fill="#000000"
     transform="matrix(0.05 0 0 0.05 467.289 321.07)"
     font-style="normal"
     font-weight="bold"
     font-size="200px"
     font-family="Helvetica"
     id="text68">
NBS</text>
  <text
     x="0"
     y="0"
     stroke="none"
     fill="#000000"
     transform="matrix(0.05 0 0 0.05 67.3204 316.1)"
     font-style="normal"
     font-weight="bold"
     font-size="200px"
     font-family="Helvetica"
     id="text69">
HBr</text>
  <path
     stroke="none"
     fill="#000000"
     transform="matrix(0.05 0 0 0.05 -10 -11)"
     d="M 6282.18,6662.87 L 6282.18,6296.47 L 6304.18,6296.47 L 6304.18,6662.87 Z "
     id="path71" />
  <path
     stroke="none"
     fill="#000000"
     transform="matrix(0.05 0 0 0.05 -10 -11)"
     d="M 6293.18,6855.91 C 6293.18,6855.91 6235.74,6634.15 6235.74,6634.15 C 6235.74,6634.15 6268.05,6661.87 6293.18,6661.87 C 6317.87,6661.87 6349.62,6634.15 6349.62,6634.15 C 6349.62,6634.15 6293.18,6855.91 6293.18,6855.91 C 6293.18,6855.91 6293.18,6855.91 6293.18,6855.91 "
     id="path72" />
  <path
     stroke="#000000"
     stroke-width="1"
     fill="none"
     transform="matrix(0.05 0 0 0.05 -10 -11)"
     d="M 6293.18,6855.91 C 6293.18,6855.91 6235.74,6634.15 6235.74,6634.15 C 6235.74,6634.15 6268.05,6661.87 6293.18,6661.87 C 6317.87,6661.87 6349.62,6634.15 6349.62,6634.15 C 6349.62,6634.15 6293.18,6855.91 6293.18,6855.91 C 6293.18,6855.91 6293.18,6855.91 6293.18,6855.91 "
     id="path73" />
  <path
     stroke="none"
     fill="#000000"
     transform="matrix(0.05 0 0 0.05 -10 -11)"
     d="M 10084.8,6972.35 L 10084.8,6283.15 L 10106.8,6283.15 L 10106.8,6972.35 Z "
     id="path74" />
  <path
     stroke="none"
     fill="#000000"
     transform="matrix(0.05 0 0 0.05 -10 -11)"
     d="M 10095.8,7165.38 C 10095.8,7165.38 10038.4,6943.63 10038.4,6943.63 C 10038.4,6943.63 10070.7,6971.35 10095.8,6971.35 C 10120.5,6971.35 10152.2,6943.63 10152.2,6943.63 C 10152.2,6943.63 10095.8,7165.38 10095.8,7165.38 C 10095.8,7165.38 10095.8,7165.38 10095.8,7165.38 "
     id="path75" />
  <path
     stroke="#000000"
     stroke-width="1"
     fill="none"
     transform="matrix(0.05 0 0 0.05 -10 -11)"
     d="M 10095.8,7165.38 C 10095.8,7165.38 10038.4,6943.63 10038.4,6943.63 C 10038.4,6943.63 10070.7,6971.35 10095.8,6971.35 C 10120.5,6971.35 10152.2,6943.63 10152.2,6943.63 C 10152.2,6943.63 10095.8,7165.38 10095.8,7165.38 C 10095.8,7165.38 10095.8,7165.38 10095.8,7165.38 "
     id="path76" />
  <path
     stroke="none"
     fill="#000000"
     transform="matrix(0.05 0 0 0.05 -10 -11)"
     d="M 5429.12,6284.13 L 5429.12,5844.57 L 5451.12,5844.57 L 5451.12,6284.13 Z "
     id="path77" />
  <text
     x="0"
     y="0"
     stroke="none"
     fill="#000000"
     transform="matrix(0.05 0 0 0.05 469.671 331.365)"
     font-style="normal"
     font-weight="bold"
     font-size="160px"
     font-family="Helvetica"
     id="text77">
light</text>
  <text
     x="0"
     y="0"
     stroke="none"
     fill="#000000"
     transform="matrix(0.05 0 0 0.05 55.7282 325.794)"
     font-style="normal"
     font-weight="bold"
     font-size="160px"
     font-family="Helvetica"
     id="text83">
(HCl, </text>
  <text
     x="0"
     y="0"
     stroke="none"
     fill="#000000"
     transform="matrix(0.05 0 0 0.05 76.6149 325.794)"
     font-style="normal"
     font-weight="bold"
     font-size="160px"
     font-family="Helvetica"
     id="text84">
HI)</text>
  <text
     x="0"
     y="0"
     stroke="none"
     fill="#000000"
     transform="matrix(0.05 0 0 0.05 133.24 316.815)"
     font-style="normal"
     font-weight="bold"
     font-size="200px"
     font-family="Helvetica"
     id="text85">
HBr</text>
  <text
     x="0"
     y="0"
     stroke="none"
     fill="#000000"
     transform="matrix(0.05 0 0 0.05 121.524 327.229)"
     font-style="normal"
     font-weight="bold"
     font-size="200px"
     font-family="Helvetica"
     id="text86">
ROOR</text>
  <text
     x="0"
     y="0"
     stroke="none"
     fill="#000000"
     transform="matrix(0.05 0 0 0.05 210.087 316.036)"
     font-style="normal"
     font-weight="bold"
     font-size="200px"
     font-family="Helvetica"
     id="text92">
Br</text>
  <text
     x="0"
     y="0"
     stroke="none"
     fill="#000000"
     transform="matrix(0.05 0 0 0.05 221.2 318.335)"
     font-style="normal"
     font-weight="bold"
     font-size="150px"
     font-family="Helvetica"
     id="text93">
2</text>
  <text
     x="0"
     y="0"
     stroke="none"
     fill="#000000"
     transform="matrix(0.05 0 0 0.05 207.671 327.811)"
     font-style="normal"
     font-weight="bold"
     font-size="160px"
     font-family="Helvetica"
     id="text94">
(Cl</text>
  <text
     x="0"
     y="0"
     stroke="none"
     fill="#000000"
     transform="matrix(0.05 0 0 0.05 218.335 329.651)"
     font-style="normal"
     font-weight="bold"
     font-size="120px"
     font-family="Helvetica"
     id="text95">
2</text>
  <text
     x="0"
     y="0"
     stroke="none"
     fill="#000000"
     transform="matrix(0.05 0 0 0.05 221.672 327.811)"
     font-style="normal"
     font-weight="bold"
     font-size="160px"
     font-family="Helvetica"
     id="text96">
)</text>
  <text
     x="0"
     y="0"
     stroke="none"
     fill="#000000"
     transform="matrix(0.05 0 0 0.05 269.654 178.682)"
     font-style="normal"
     font-weight="bold"
     font-size="200px"
     font-family="Helvetica"
     id="text99">
Br</text>
  <text
     x="0"
     y="0"
     stroke="none"
     fill="#000000"
     transform="matrix(0.05 0 0 0.05 280.768 180.982)"
     font-style="normal"
     font-weight="bold"
     font-size="150px"
     font-family="Helvetica"
     id="text100">
2</text>
  <text
     x="0"
     y="0"
     stroke="none"
     fill="#000000"
     transform="matrix(0.05 0 0 0.05 269.472 198.918)"
     font-style="normal"
     font-weight="bold"
     font-size="200px"
     font-family="Helvetica"
     id="text101">
H</text>
  <text
     x="0"
     y="0"
     stroke="none"
     fill="#000000"
     transform="matrix(0.05 0 0 0.05 276.693 201.218)"
     font-style="normal"
     font-weight="bold"
     font-size="150px"
     font-family="Helvetica"
     id="text102">
2</text>
  <text
     x="0"
     y="0"
     stroke="none"
     fill="#000000"
     transform="matrix(0.05 0 0 0.05 280.865 198.918)"
     font-style="normal"
     font-weight="bold"
     font-size="200px"
     font-family="Helvetica"
     id="text103">
O</text>
  <path
     stroke="none"
     fill="#000000"
     transform="matrix(0.05 0 0 0.05 -10 -11)"
     d="M 6245.37,2140.77 L 6245.37,2507.17 L 6223.37,2507.17 L 6223.37,2140.77 Z "
     id="path107" />
  <path
     stroke="none"
     fill="#000000"
     transform="matrix(0.05 0 0 0.05 -10 -11)"
     d="M 6234.37,1947.73 C 6234.37,1947.73 6290.81,2169.49 6290.81,2169.49 C 6290.81,2169.49 6259.07,2141.77 6234.37,2141.77 C 6209.24,2141.77 6176.93,2169.49 6176.93,2169.49 C 6176.93,2169.49 6234.37,1947.73 6234.37,1947.73 C 6234.37,1947.73 6234.37,1947.73 6234.37,1947.73 "
     id="path108" />
  <path
     stroke="#000000"
     stroke-width="1"
     fill="none"
     transform="matrix(0.05 0 0 0.05 -10 -11)"
     d="M 6234.37,1947.73 C 6234.37,1947.73 6290.81,2169.49 6290.81,2169.49 C 6290.81,2169.49 6259.07,2141.77 6234.37,2141.77 C 6209.24,2141.77 6176.93,2169.49 6176.93,2169.49 C 6176.93,2169.49 6234.37,1947.73 6234.37,1947.73 C 6234.37,1947.73 6234.37,1947.73 6234.37,1947.73 "
     id="path109" />
  <text
     x="0"
     y="0"
     stroke="none"
     fill="#000000"
     transform="matrix(0.05 0 0 0.05 276.249 106.032)"
     font-style="normal"
     font-weight="bold"
     font-size="200px"
     font-family="Helvetica"
     id="text109">
NaH</text>
  <path
     stroke="none"
     fill="#000000"
     transform="matrix(0.05 0 0 0.05 -10 -11)"
     d="M 4771.24,8305.27 L 4771.24,7855.38 L 4793.24,7855.38 L 4793.24,8305.27 Z "
     id="path114" />
  <path
     stroke="none"
     fill="#000000"
     transform="matrix(0.05 0 0 0.05 -10 -11)"
     d="M 4782.24,8498.3 C 4782.24,8498.3 4724.8,8276.55 4724.8,8276.55 C 4724.8,8276.55 4757.11,8304.27 4782.24,8304.27 C 4806.93,8304.27 4838.68,8276.55 4838.68,8276.55 C 4838.68,8276.55 4782.24,8498.3 4782.24,8498.3 C 4782.24,8498.3 4782.24,8498.3 4782.24,8498.3 "
     id="path115" />
  <path
     stroke="#000000"
     stroke-width="1"
     fill="none"
     transform="matrix(0.05 0 0 0.05 -10 -11)"
     d="M 4782.24,8498.3 C 4782.24,8498.3 4724.8,8276.55 4724.8,8276.55 C 4724.8,8276.55 4757.11,8304.27 4782.24,8304.27 C 4806.93,8304.27 4838.68,8276.55 4838.68,8276.55 C 4838.68,8276.55 4782.24,8498.3 4782.24,8498.3 C 4782.24,8498.3 4782.24,8498.3 4782.24,8498.3 "
     id="path116" />
  <text
     x="0"
     y="0"
     stroke="none"
     fill="#000000"
     transform="matrix(0.05 0 0 0.05 233.421 395.308)"
     font-style="normal"
     font-weight="bold"
     font-size="200px"
     font-family="Helvetica"
     id="text116">
NaNH</text>
  <text
     x="0"
     y="0"
     stroke="none"
     fill="#000000"
     transform="matrix(0.05 0 0 0.05 260.648 397.608)"
     font-style="normal"
     font-weight="bold"
     font-size="150px"
     font-family="Helvetica"
     id="text117">
2</text>
  <text
     x="0"
     y="0"
     stroke="none"
     fill="#000000"
     transform="matrix(0.05 0 0 0.05 284.736 315.19)"
     font-style="normal"
     font-weight="bold"
     font-size="200px"
     font-family="Helvetica"
     id="text120">
H</text>
  <text
     x="0"
     y="0"
     stroke="none"
     fill="#000000"
     transform="matrix(0.05 0 0 0.05 291.958 317.49)"
     font-style="normal"
     font-weight="bold"
     font-size="150px"
     font-family="Helvetica"
     id="text121">
2</text>
  <text
     x="0"
     y="0"
     stroke="none"
     fill="#000000"
     transform="matrix(0.05 0 0 0.05 266.039 328.208)"
     font-style="normal"
     font-weight="bold"
     font-size="200px"
     font-family="Helvetica"
     id="text122">
cat. </text>
  <text
     x="0"
     y="0"
     stroke="none"
     fill="#000000"
     transform="matrix(0.05 0 0 0.05 286.049 328.208)"
     font-style="normal"
     font-weight="bold"
     font-size="200px"
     font-family="Helvetica"
     id="text123">
Pd</text>
  <path
     stroke="none"
     fill="#000000"
     transform="matrix(0.05 0 0 0.05 -10 -11)"
     d="M 9345.47,3940.07 L 9345.47,4360.88 L 9323.47,4360.88 L 9323.47,3940.07 Z "
     id="path131" />
  <path
     stroke="none"
     fill="#000000"
     transform="matrix(0.05 0 0 0.05 -10 -11)"
     d="M 9334.47,3747.04 C 9334.47,3747.04 9390.91,3968.79 9390.91,3968.79 C 9390.91,3968.79 9359.16,3941.07 9334.47,3941.07 C 9309.34,3941.07 9277.03,3968.79 9277.03,3968.79 C 9277.03,3968.79 9334.47,3747.04 9334.47,3747.04 C 9334.47,3747.04 9334.47,3747.04 9334.47,3747.04 "
     id="path132" />
  <path
     stroke="#000000"
     stroke-width="1"
     fill="none"
     transform="matrix(0.05 0 0 0.05 -10 -11)"
     d="M 9334.47,3747.04 C 9334.47,3747.04 9390.91,3968.79 9390.91,3968.79 C 9390.91,3968.79 9359.16,3941.07 9334.47,3941.07 C 9309.34,3941.07 9277.03,3968.79 9277.03,3968.79 C 9277.03,3968.79 9334.47,3747.04 9334.47,3747.04 C 9334.47,3747.04 9334.47,3747.04 9334.47,3747.04 "
     id="path133" />
  <path
     stroke="none"
     fill="#000000"
     transform="matrix(0.05 0 0 0.05 -10 -11)"
     d="M 8015.6,3970.79 L 8015.6,4369.23 L 7993.6,4369.23 L 7993.6,3970.79 Z "
     id="path134" />
  <path
     stroke="none"
     fill="#000000"
     transform="matrix(0.05 0 0 0.05 -10 -11)"
     d="M 8004.6,3777.75 C 8004.6,3777.75 8061.04,3999.51 8061.04,3999.51 C 8061.04,3999.51 8029.3,3971.79 8004.6,3971.79 C 7979.47,3971.79 7947.16,3999.51 7947.16,3999.51 C 7947.16,3999.51 8004.6,3777.75 8004.6,3777.75 C 8004.6,3777.75 8004.6,3777.75 8004.6,3777.75 "
     id="path135" />
  <path
     stroke="#000000"
     stroke-width="1"
     fill="none"
     transform="matrix(0.05 0 0 0.05 -10 -11)"
     d="M 8004.6,3777.75 C 8004.6,3777.75 8061.04,3999.51 8061.04,3999.51 C 8061.04,3999.51 8029.3,3971.79 8004.6,3971.79 C 7979.47,3971.79 7947.16,3999.51 7947.16,3999.51 C 7947.16,3999.51 8004.6,3777.75 8004.6,3777.75 C 8004.6,3777.75 8004.6,3777.75 8004.6,3777.75 "
     id="path136" />
  <path
     stroke="none"
     fill="#000000"
     transform="matrix(0.05 0 0 0.05 -10 -11)"
     d="M 6229.69,3655.99 L 6229.69,4355.91 L 6207.69,4355.91 L 6207.69,3655.99 Z "
     id="path137" />
  <path
     stroke="none"
     fill="#000000"
     transform="matrix(0.05 0 0 0.05 -10 -11)"
     d="M 6218.69,3462.96 C 6218.69,3462.96 6275.13,3684.71 6275.13,3684.71 C 6275.13,3684.71 6243.38,3656.99 6218.69,3656.99 C 6193.56,3656.99 6161.25,3684.71 6161.25,3684.71 C 6161.25,3684.71 6218.69,3462.96 6218.69,3462.96 C 6218.69,3462.96 6218.69,3462.96 6218.69,3462.96 "
     id="path138" />
  <path
     stroke="#000000"
     stroke-width="1"
     fill="none"
     transform="matrix(0.05 0 0 0.05 -10 -11)"
     d="M 6218.69,3462.96 C 6218.69,3462.96 6275.13,3684.71 6275.13,3684.71 C 6275.13,3684.71 6243.38,3656.99 6218.69,3656.99 C 6193.56,3656.99 6161.25,3684.71 6161.25,3684.71 C 6161.25,3684.71 6218.69,3462.96 6218.69,3462.96 C 6218.69,3462.96 6218.69,3462.96 6218.69,3462.96 "
     id="path139" />
  <path
     stroke="none"
     fill="#000000"
     transform="matrix(0.05 0 0 0.05 -10 -11)"
     d="M 4225.2,3610.74 L 4225.2,4369.23 L 4203.2,4369.23 L 4203.2,3610.74 Z "
     id="path140" />
  <path
     stroke="none"
     fill="#000000"
     transform="matrix(0.05 0 0 0.05 -10 -11)"
     d="M 4214.2,3417.7 C 4214.2,3417.7 4270.64,3639.46 4270.64,3639.46 C 4270.64,3639.46 4238.89,3611.74 4214.2,3611.74 C 4189.07,3611.74 4156.76,3639.46 4156.76,3639.46 C 4156.76,3639.46 4214.2,3417.7 4214.2,3417.7 C 4214.2,3417.7 4214.2,3417.7 4214.2,3417.7 "
     id="path141" />
  <path
     stroke="#000000"
     stroke-width="1"
     fill="none"
     transform="matrix(0.05 0 0 0.05 -10 -11)"
     d="M 4214.2,3417.7 C 4214.2,3417.7 4270.64,3639.46 4270.64,3639.46 C 4270.64,3639.46 4238.89,3611.74 4214.2,3611.74 C 4189.07,3611.74 4156.76,3639.46 4156.76,3639.46 C 4156.76,3639.46 4214.2,3417.7 4214.2,3417.7 C 4214.2,3417.7 4214.2,3417.7 4214.2,3417.7 "
     id="path142" />
  <path
     stroke="none"
     fill="#000000"
     transform="matrix(0.05 0 0 0.05 -10 -11)"
     d="M 10725,4380.23 L 2697.86,4380.23 L 2697.86,4358.23 L 10725,4358.23 Z "
     id="path143" />
  <path
     stroke="none"
     fill="#000000"
     transform="matrix(0.05 0 0 0.05 -10 -11)"
     d="M 2708.86,3639.34 L 2708.86,4369.23 L 2686.86,4369.23 L 2686.86,3639.34 Z "
     id="path144" />
  <path
     stroke="none"
     fill="#000000"
     transform="matrix(0.05 0 0 0.05 -10 -11)"
     d="M 2697.86,3446.3 C 2697.86,3446.3 2754.3,3668.06 2754.3,3668.06 C 2754.3,3668.06 2722.55,3640.34 2697.86,3640.34 C 2672.73,3640.34 2640.42,3668.06 2640.42,3668.06 C 2640.42,3668.06 2697.86,3446.3 2697.86,3446.3 C 2697.86,3446.3 2697.86,3446.3 2697.86,3446.3 "
     id="path145" />
  <path
     stroke="#000000"
     stroke-width="1"
     fill="none"
     transform="matrix(0.05 0 0 0.05 -10 -11)"
     d="M 2697.86,3446.3 C 2697.86,3446.3 2754.3,3668.06 2754.3,3668.06 C 2754.3,3668.06 2722.55,3640.34 2697.86,3640.34 C 2672.73,3640.34 2640.42,3668.06 2640.42,3668.06 C 2640.42,3668.06 2697.86,3446.3 2697.86,3446.3 C 2697.86,3446.3 2697.86,3446.3 2697.86,3446.3 "
     id="path146" />
  <text
     x="0"
     y="0"
     stroke="none"
     fill="#000000"
     transform="matrix(0.05 0 0 0.05 94.0703 172.42)"
     font-style="normal"
     font-weight="bold"
     font-size="200px"
     font-family="Helvetica"
     id="text146">
H</text>
  <text
     x="0"
     y="0"
     stroke="none"
     fill="#000000"
     transform="matrix(0.05 0 0 0.05 101.292 174.72)"
     font-style="normal"
     font-weight="bold"
     font-size="150px"
     font-family="Helvetica"
     id="text147">
3</text>
  <text
     x="0"
     y="0"
     stroke="none"
     fill="#000000"
     transform="matrix(0.05 0 0 0.05 105.463 172.42)"
     font-style="normal"
     font-weight="bold"
     font-size="200px"
     font-family="Helvetica"
     id="text148">
O</text>
  <text
     x="0"
     y="0"
     stroke="none"
     fill="#000000"
     transform="matrix(0.05 0 0 0.05 113.241 168.821)"
     font-style="normal"
     font-weight="bold"
     font-size="150px"
     font-family="Helvetica"
     id="text149">
+</text>
  <text
     x="0"
     y="0"
     stroke="none"
     fill="#000000"
     transform="matrix(0.05 0 0 0.05 109.222 184.897)"
     font-style="normal"
     font-weight="bold"
     font-size="160px"
     font-family="Helvetica"
     id="text150">
or</text>
  <text
     x="0"
     y="0"
     stroke="none"
     fill="#000000"
     transform="matrix(0.05 0 0 0.05 52.326 193.581)"
     font-style="normal"
     font-weight="bold"
     font-size="160px"
     font-family="Helvetica"
     id="text151">
1) </text>
  <text
     x="0"
     y="0"
     stroke="none"
     fill="#000000"
     transform="matrix(0.05 0 0 0.05 61.6619 193.581)"
     font-style="normal"
     font-weight="bold"
     font-size="160px"
     font-family="Helvetica"
     id="text152">
Hg(OAc)</text>
  <text
     x="0"
     y="0"
     stroke="none"
     fill="#000000"
     transform="matrix(0.05 0 0 0.05 94.1033 195.421)"
     font-style="normal"
     font-weight="bold"
     font-size="120px"
     font-family="Helvetica"
     id="text153">
2</text>
  <text
     x="0"
     y="0"
     stroke="none"
     fill="#000000"
     transform="matrix(0.05 0 0 0.05 97.4402 193.581)"
     font-style="normal"
     font-weight="bold"
     font-size="160px"
     font-family="Helvetica"
     id="text154">
, </text>
  <text
     x="0"
     y="0"
     stroke="none"
     fill="#000000"
     transform="matrix(0.05 0 0 0.05 101.886 193.581)"
     font-style="normal"
     font-weight="bold"
     font-size="160px"
     font-family="Helvetica"
     id="text155">
H</text>
  <text
     x="0"
     y="0"
     stroke="none"
     fill="#000000"
     transform="matrix(0.05 0 0 0.05 107.663 195.421)"
     font-style="normal"
     font-weight="bold"
     font-size="120px"
     font-family="Helvetica"
     id="text156">
2</text>
  <text
     x="0"
     y="0"
     stroke="none"
     fill="#000000"
     transform="matrix(0.05 0 0 0.05 111 193.581)"
     font-style="normal"
     font-weight="bold"
     font-size="160px"
     font-family="Helvetica"
     id="text157">
O</text>
  <text
     x="0"
     y="0"
     stroke="none"
     fill="#000000"
     transform="matrix(0.05 0 0 0.05 82.7684 202.264)"
     font-style="normal"
     font-weight="bold"
     font-size="160px"
     font-family="Helvetica"
     id="text158">
2) </text>
  <text
     x="0"
     y="0"
     stroke="none"
     fill="#000000"
     transform="matrix(0.05 0 0 0.05 92.1043 202.264)"
     font-style="normal"
     font-weight="bold"
     font-size="160px"
     font-family="Helvetica"
     id="text159">
NaBH</text>
  <text
     x="0"
     y="0"
     stroke="none"
     fill="#000000"
     transform="matrix(0.05 0 0 0.05 113.886 204.104)"
     font-style="normal"
     font-weight="bold"
     font-size="120px"
     font-family="Helvetica"
     id="text160">
4</text>
  <text
     x="0"
     y="0"
     stroke="none"
     fill="#000000"
     transform="matrix(0.05 0 0 0.05 141.362 176.82)"
     font-style="normal"
     font-weight="bold"
     font-size="200px"
     font-family="Helvetica"
     id="text163">
1) </text>
  <text
     x="0"
     y="0"
     stroke="none"
     fill="#000000"
     transform="matrix(0.05 0 0 0.05 153.032 176.82)"
     font-style="normal"
     font-weight="bold"
     font-size="200px"
     font-family="Helvetica"
     id="text164">
BH</text>
  <text
     x="0"
     y="0"
     stroke="none"
     fill="#000000"
     transform="matrix(0.05 0 0 0.05 167.475 179.12)"
     font-style="normal"
     font-weight="bold"
     font-size="150px"
     font-family="Helvetica"
     id="text165">
3</text>
  <text
     x="0"
     y="0"
     stroke="none"
     fill="#000000"
     transform="matrix(0.05 0 0 0.05 171.646 176.82)"
     font-style="normal"
     font-weight="bold"
     font-size="200px"
     font-family="Helvetica"
     id="text166">
•THF</text>
  <text
     x="0"
     y="0"
     stroke="none"
     fill="#000000"
     transform="matrix(0.05 0 0 0.05 351.913 189.956)"
     font-style="normal"
     font-weight="bold"
     font-size="180px"
     font-family="Helvetica"
     id="text173">
MCPBA</text>
  <text
     x="0"
     y="0"
     stroke="none"
     fill="#000000"
     transform="matrix(0.05 0 0 0.05 352.436 199.006)"
     font-style="normal"
     font-weight="bold"
     font-size="140px"
     font-family="Helvetica"
     id="text174">
or </text>
  <text
     x="0"
     y="0"
     stroke="none"
     fill="#000000"
     transform="matrix(0.05 0 0 0.05 361.381 199.006)"
     font-style="normal"
     font-weight="bold"
     font-size="140px"
     font-family="Helvetica"
     id="text175">
RCO</text>
  <text
     x="0"
     y="0"
     stroke="none"
     fill="#000000"
     transform="matrix(0.05 0 0 0.05 376.936 200.616)"
     font-style="normal"
     font-weight="bold"
     font-size="105px"
     font-family="Helvetica"
     id="text176">
3</text>
  <text
     x="0"
     y="0"
     stroke="none"
     fill="#000000"
     transform="matrix(0.05 0 0 0.05 379.856 199.006)"
     font-style="normal"
     font-weight="bold"
     font-size="140px"
     font-family="Helvetica"
     id="text177">
H</text>
  <path
     stroke="none"
     fill="#000000"
     transform="matrix(0.05 0 0 0.05 -10 -11)"
     d="M 5444.4,4795.48 L 5444.4,4355.92 L 5466.4,4355.92 L 5466.4,4795.48 Z "
     id="path181" />
  <text
     x="0"
     y="0"
     stroke="none"
     fill="#000000"
     transform="matrix(0.05 0 0 0.05 599.285 240.17)"
     font-style="normal"
     font-weight="bold"
     font-size="200px"
     font-family="Helvetica"
     id="text181">
KMnO</text>
  <text
     x="0"
     y="0"
     stroke="none"
     fill="#000000"
     transform="matrix(0.05 0 0 0.05 628.724 242.469)"
     font-style="normal"
     font-weight="bold"
     font-size="150px"
     font-family="Helvetica"
     id="text182">
4</text>
  <text
     x="0"
     y="0"
     stroke="none"
     fill="#000000"
     transform="matrix(0.05 0 0 0.05 632.895 240.17)"
     font-style="normal"
     font-weight="bold"
     font-size="200px"
     font-family="Helvetica"
     id="text183" />
  <text
     x="0"
     y="0"
     stroke="none"
     fill="#000000"
     transform="matrix(0.05 0 0 0.05 593.448 251.053)"
     font-style="normal"
     font-weight="bold"
     font-size="200px"
     font-family="Helvetica"
     id="text184">
cold, </text>
  <text
     x="0"
     y="0"
     stroke="none"
     fill="#000000"
     transform="matrix(0.05 0 0 0.05 619.561 251.053)"
     font-style="normal"
     font-weight="bold"
     font-size="200px"
     font-family="Helvetica"
     id="text185">
H</text>
  <text
     x="0"
     y="0"
     stroke="none"
     fill="#000000"
     transform="matrix(0.05 0 0 0.05 626.783 253.353)"
     font-style="normal"
     font-weight="bold"
     font-size="150px"
     font-family="Helvetica"
     id="text186">
2</text>
  <text
     x="0"
     y="0"
     stroke="none"
     fill="#000000"
     transform="matrix(0.05 0 0 0.05 630.954 251.053)"
     font-style="normal"
     font-weight="bold"
     font-size="200px"
     font-family="Helvetica"
     id="text187">
O</text>
  <path
     stroke="none"
     fill="#000000"
     transform="matrix(0.05 0 0 0.05 -10 -11)"
     d="M 10714.7,3940.07 L 10714.7,4360.88 L 10692.7,4360.88 L 10692.7,3940.07 Z "
     id="path195" />
  <path
     stroke="none"
     fill="#000000"
     transform="matrix(0.05 0 0 0.05 -10 -11)"
     d="M 10703.7,3747.04 C 10703.7,3747.04 10760.2,3968.79 10760.2,3968.79 C 10760.2,3968.79 10728.4,3941.07 10703.7,3941.07 C 10678.6,3941.07 10646.3,3968.79 10646.3,3968.79 C 10646.3,3968.79 10703.7,3747.04 10703.7,3747.04 C 10703.7,3747.04 10703.7,3747.04 10703.7,3747.04 "
     id="path196" />
  <path
     stroke="#000000"
     stroke-width="1"
     fill="none"
     transform="matrix(0.05 0 0 0.05 -10 -11)"
     d="M 10703.7,3747.04 C 10703.7,3747.04 10760.2,3968.79 10760.2,3968.79 C 10760.2,3968.79 10728.4,3941.07 10703.7,3941.07 C 10678.6,3941.07 10646.3,3968.79 10646.3,3968.79 C 10646.3,3968.79 10703.7,3747.04 10703.7,3747.04 C 10703.7,3747.04 10703.7,3747.04 10703.7,3747.04 "
     id="path197" />
  <text
     x="0"
     y="0"
     stroke="none"
     fill="#0000ff"
     transform="matrix(0.05 0 0 0.05 190.808 257.576)"
     font-style="normal"
     font-weight="bold"
     font-size="280px"
     font-family="Helvetica"
     id="text201">
alkenes</text>
  <path
     stroke="none"
     fill="#000000"
     transform="matrix(0.05 0 0 0.05 -10 -11)"
     d="M 8039.9,6703.95 L 8039.9,6283.15 L 8061.9,6283.15 L 8061.9,6703.95 Z "
     id="path202" />
  <path
     stroke="none"
     fill="#000000"
     transform="matrix(0.05 0 0 0.05 -10 -11)"
     d="M 8050.9,6896.99 C 8050.9,6896.99 7993.46,6675.23 7993.46,6675.23 C 7993.46,6675.23 8025.77,6702.95 8050.9,6702.95 C 8075.59,6702.95 8107.34,6675.23 8107.34,6675.23 C 8107.34,6675.23 8050.9,6896.99 8050.9,6896.99 C 8050.9,6896.99 8050.9,6896.99 8050.9,6896.99 "
     id="path203" />
  <path
     stroke="#000000"
     stroke-width="1"
     fill="none"
     transform="matrix(0.05 0 0 0.05 -10 -11)"
     d="M 8050.9,6896.99 C 8050.9,6896.99 7993.46,6675.23 7993.46,6675.23 C 7993.46,6675.23 8025.77,6702.95 8050.9,6702.95 C 8075.59,6702.95 8107.34,6675.23 8107.34,6675.23 C 8107.34,6675.23 8050.9,6896.99 8050.9,6896.99 C 8050.9,6896.99 8050.9,6896.99 8050.9,6896.99 "
     id="path204" />
  <path
     stroke="none"
     fill="#000000"
     transform="matrix(0.05 0 0 0.05 -10 -11)"
     d="M 8364.56,6734.02 L 8364.19,6759.7 L 8156.25,6634.95 L 8167.61,6615.9 L 8364.56,6734.02 Z "
     id="path205" />
  <path
     stroke="none"
     fill="#000000"
     transform="matrix(0.05 0 0 0.05 -10 -11)"
     d="M 8370.97,6672.63 L 8359.61,6691.68 L 8184.65,6587.33 L 8196.01,6568.29 L 8370.97,6672.63 Z "
     id="path206" />
  <path
     stroke="none"
     fill="#000000"
     transform="matrix(0.05 0 0 0.05 -10 -11)"
     d="M 8364.19,6759.7 L 8364.56,6734.02 L 8559.74,6624.98 L 8581.8,6638.14 L 8364.19,6759.7 Z "
     id="path207" />
  <path
     stroke="none"
     fill="#000000"
     transform="matrix(0.05 0 0 0.05 -10 -11)"
     d="M 8581.8,6638.14 L 8559.74,6624.98 L 8562.42,6395.35 L 8584.6,6395.66 L 8581.8,6638.14 Z "
     id="path208" />
  <path
     stroke="none"
     fill="#000000"
     transform="matrix(0.05 0 0 0.05 -10 -11)"
     d="M 8526.28,6598.57 L 8504.11,6598.26 L 8506.99,6394.56 L 8529.16,6394.88 L 8526.28,6598.57 Z "
     id="path209" />
  <text
     x="0"
     y="0"
     stroke="none"
     fill="#000000"
     transform="matrix(0.05 0 0 0.05 596.976 317.747)"
     font-style="normal"
     font-weight="bold"
     font-size="200px"
     font-family="Helvetica"
     id="text218">
KMnO</text>
  <text
     x="0"
     y="0"
     stroke="none"
     fill="#000000"
     transform="matrix(0.05 0 0 0.05 626.415 320.047)"
     font-style="normal"
     font-weight="bold"
     font-size="150px"
     font-family="Helvetica"
     id="text219">
4</text>
  <text
     x="0"
     y="0"
     stroke="none"
     fill="#000000"
     transform="matrix(0.05 0 0 0.05 630.586 317.747)"
     font-style="normal"
     font-weight="bold"
     font-size="200px"
     font-family="Helvetica"
     id="text220" />
  <text
     x="0"
     y="0"
     stroke="none"
     fill="#000000"
     transform="matrix(0.05 0 0 0.05 591.454 328.781)"
     font-style="normal"
     font-weight="bold"
     font-size="200px"
     font-family="Helvetica"
     id="text221">
hot, </text>
  <text
     x="0"
     y="0"
     stroke="none"
     fill="#000000"
     transform="matrix(0.05 0 0 0.05 612.557 328.781)"
     font-style="normal"
     font-weight="bold"
     font-size="200px"
     font-family="Helvetica"
     id="text222">
H</text>
  <text
     x="0"
     y="0"
     stroke="none"
     fill="#000000"
     transform="matrix(0.05 0 0 0.05 619.779 331.081)"
     font-style="normal"
     font-weight="bold"
     font-size="150px"
     font-family="Helvetica"
     id="text223">
3</text>
  <text
     x="0"
     y="0"
     stroke="none"
     fill="#000000"
     transform="matrix(0.05 0 0 0.05 623.95 328.781)"
     font-style="normal"
     font-weight="bold"
     font-size="200px"
     font-family="Helvetica"
     id="text224">
O</text>
  <text
     x="0"
     y="0"
     stroke="none"
     fill="#000000"
     transform="matrix(0.05 0 0 0.05 631.729 325.182)"
     font-style="normal"
     font-weight="bold"
     font-size="150px"
     font-family="Helvetica"
     id="text225">
+</text>
  <text
     x="0"
     y="0"
     stroke="none"
     fill="#000000"
     transform="matrix(0.05 0 0 0.05 605.918 177.022)"
     font-style="normal"
     font-weight="bold"
     font-size="200px"
     font-family="Helvetica"
     id="text226">
1) </text>
  <text
     x="0"
     y="0"
     stroke="none"
     fill="#000000"
     transform="matrix(0.05 0 0 0.05 617.588 177.022)"
     font-style="normal"
     font-weight="bold"
     font-size="200px"
     font-family="Helvetica"
     id="text227">
O</text>
  <text
     x="0"
     y="0"
     stroke="none"
     fill="#000000"
     transform="matrix(0.05 0 0 0.05 625.367 179.322)"
     font-style="normal"
     font-weight="bold"
     font-size="150px"
     font-family="Helvetica"
     id="text228">
3</text>
  <text
     x="0"
     y="0"
     stroke="none"
     fill="#000000"
     transform="matrix(0.05 0 0 0.05 595.646 188.056)"
     font-style="normal"
     font-weight="bold"
     font-size="200px"
     font-family="Helvetica"
     id="text229">
2) </text>
  <text
     x="0"
     y="0"
     stroke="none"
     fill="#000000"
     transform="matrix(0.05 0 0 0.05 607.316 188.056)"
     font-style="normal"
     font-weight="bold"
     font-size="200px"
     font-family="Helvetica"
     id="text230">
DMS</text>
  <text
     x="0"
     y="0"
     stroke="none"
     fill="#000000"
     transform="matrix(0.05 0 0 0.05 713.185 249.162)"
     font-style="normal"
     font-weight="bold"
     font-size="200px"
     font-family="Helvetica"
     id="text255">
HIO</text>
  <text
     x="0"
     y="0"
     stroke="none"
     fill="#000000"
     transform="matrix(0.05 0 0 0.05 730.963 251.462)"
     font-style="normal"
     font-weight="bold"
     font-size="150px"
     font-family="Helvetica"
     id="text256">
4</text>
  <text
     x="0"
     y="0"
     stroke="none"
     fill="#000000"
     transform="matrix(0.05 0 0 0.05 270.445 188.619)"
     font-style="normal"
     font-weight="bold"
     font-size="160px"
     font-family="Helvetica"
     id="text257">
or </text>
  <text
     x="0"
     y="0"
     stroke="none"
     fill="#000000"
     transform="matrix(0.05 0 0 0.05 280.667 188.619)"
     font-style="normal"
     font-weight="bold"
     font-size="160px"
     font-family="Helvetica"
     id="text258">
NBS</text>
  <text
     x="0"
     y="0"
     stroke="none"
     fill="#000000"
     transform="matrix(0.05 0 0 0.05 427.242 190.413)"
     font-style="normal"
     font-weight="bold"
     font-size="180px"
     font-family="Helvetica"
     id="text273">
CH</text>
  <text
     x="0"
     y="0"
     stroke="none"
     fill="#000000"
     transform="matrix(0.05 0 0 0.05 440.241 192.483)"
     font-style="normal"
     font-weight="bold"
     font-size="135px"
     font-family="Helvetica"
     id="text274">
2</text>
  <text
     x="0"
     y="0"
     stroke="none"
     fill="#000000"
     transform="matrix(0.05 0 0 0.05 443.995 190.413)"
     font-style="normal"
     font-weight="bold"
     font-size="180px"
     font-family="Helvetica"
     id="text275">
I</text>
  <text
     x="0"
     y="0"
     stroke="none"
     fill="#000000"
     transform="matrix(0.05 0 0 0.05 446.496 192.483)"
     font-style="normal"
     font-weight="bold"
     font-size="135px"
     font-family="Helvetica"
     id="text276">
2</text>
  <text
     x="0"
     y="0"
     stroke="none"
     fill="#000000"
     transform="matrix(0.05 0 0 0.05 424.95 202.818)"
     font-style="normal"
     font-weight="bold"
     font-size="180px"
     font-family="Helvetica"
     id="text277">
Cu/Zn</text>
  <text
     x="0"
     y="0"
     stroke="none"
     fill="#000000"
     transform="matrix(0.05 0 0 0.05 494.414 190.413)"
     font-style="normal"
     font-weight="bold"
     font-size="180px"
     font-family="Helvetica"
     id="text278">
CHCl</text>
  <text
     x="0"
     y="0"
     stroke="none"
     fill="#000000"
     transform="matrix(0.05 0 0 0.05 516.413 192.483)"
     font-style="normal"
     font-weight="bold"
     font-size="135px"
     font-family="Helvetica"
     id="text279">
3</text>
  <text
     x="0"
     y="0"
     stroke="none"
     fill="#000000"
     transform="matrix(0.05 0 0 0.05 494.075 201.355)"
     font-style="normal"
     font-weight="bold"
     font-size="180px"
     font-family="Helvetica"
     id="text280">
NaOH</text>
  <path
     stroke="none"
     fill="#000000"
     transform="matrix(0.05 0 0 0.05 -10 -11)"
     d="M 11768.6,5336.05 L 5945.24,5336.05 L 5945.24,5314.05 L 11768.6,5314.05 Z "
     id="path292" />
  <path
     stroke="none"
     fill="#000000"
     transform="matrix(0.05 0 0 0.05 -10 -11)"
     d="M 11764,6935.5 L 11764,4125.59 L 11786,4125.59 L 11786,6935.5 Z "
     id="path293" />
  <path
     stroke="none"
     fill="#000000"
     transform="matrix(0.05 0 0 0.05 -10 -11)"
     d="M 13023.7,4136.59 L 11775,4136.59 L 11775,4114.59 L 13023.7,4114.59 Z "
     id="path294" />
  <path
     stroke="none"
     fill="#000000"
     transform="matrix(0.05 0 0 0.05 -10 -11)"
     d="M 13216.7,4125.59 C 13216.7,4125.59 12995,4182.03 12995,4182.03 C 12995,4182.03 13022.7,4150.28 13022.7,4125.59 C 13022.7,4100.46 12995,4068.15 12995,4068.15 C 12995,4068.15 13216.7,4125.59 13216.7,4125.59 C 13216.7,4125.59 13216.7,4125.59 13216.7,4125.59 "
     id="path295" />
  <path
     stroke="#000000"
     stroke-width="1"
     fill="none"
     transform="matrix(0.05 0 0 0.05 -10 -11)"
     d="M 13216.7,4125.59 C 13216.7,4125.59 12995,4182.03 12995,4182.03 C 12995,4182.03 13022.7,4150.28 13022.7,4125.59 C 13022.7,4100.46 12995,4068.15 12995,4068.15 C 12995,4068.15 13216.7,4125.59 13216.7,4125.59 C 13216.7,4125.59 13216.7,4125.59 13216.7,4125.59 "
     id="path296" />
  <path
     stroke="none"
     fill="#000000"
     transform="matrix(0.05 0 0 0.05 -10 -11)"
     d="M 13023.7,5337.79 L 11775,5337.79 L 11775,5315.79 L 13023.7,5315.79 Z "
     id="path297" />
  <path
     stroke="none"
     fill="#000000"
     transform="matrix(0.05 0 0 0.05 -10 -11)"
     d="M 13216.7,5326.79 C 13216.7,5326.79 12995,5383.23 12995,5383.23 C 12995,5383.23 13022.7,5351.48 13022.7,5326.79 C 13022.7,5301.66 12995,5269.35 12995,5269.35 C 12995,5269.35 13216.7,5326.79 13216.7,5326.79 C 13216.7,5326.79 13216.7,5326.79 13216.7,5326.79 "
     id="path298" />
  <path
     stroke="#000000"
     stroke-width="1"
     fill="none"
     transform="matrix(0.05 0 0 0.05 -10 -11)"
     d="M 13216.7,5326.79 C 13216.7,5326.79 12995,5383.23 12995,5383.23 C 12995,5383.23 13022.7,5351.48 13022.7,5326.79 C 13022.7,5301.66 12995,5269.35 12995,5269.35 C 12995,5269.35 13216.7,5326.79 13216.7,5326.79 C 13216.7,5326.79 13216.7,5326.79 13216.7,5326.79 "
     id="path299" />
  <text
     x="0"
     y="0"
     stroke="none"
     fill="#000000"
     transform="matrix(0.05 0 0 0.05 584.88 274.285)"
     font-style="normal"
     font-weight="bold"
     font-size="160px"
     font-family="Helvetica"
     id="text299">
cat. </text>
  <text
     x="0"
     y="0"
     stroke="none"
     fill="#000000"
     transform="matrix(0.05 0 0 0.05 600.888 274.285)"
     font-style="normal"
     font-weight="bold"
     font-size="160px"
     font-family="Helvetica"
     id="text300">
OsO</text>
  <text
     x="0"
     y="0"
     stroke="none"
     fill="#000000"
     transform="matrix(0.05 0 0 0.05 617.782 276.125)"
     font-style="normal"
     font-weight="bold"
     font-size="120px"
     font-family="Helvetica"
     id="text301">
4</text>
  <text
     x="0"
     y="0"
     stroke="none"
     fill="#000000"
     transform="matrix(0.05 0 0 0.05 621.119 274.285)"
     font-style="normal"
     font-weight="bold"
     font-size="160px"
     font-family="Helvetica"
     id="text302">
, </text>
  <text
     x="0"
     y="0"
     stroke="none"
     fill="#000000"
     transform="matrix(0.05 0 0 0.05 625.565 274.285)"
     font-style="normal"
     font-weight="bold"
     font-size="160px"
     font-family="Helvetica"
     id="text303">
H</text>
  <text
     x="0"
     y="0"
     stroke="none"
     fill="#000000"
     transform="matrix(0.05 0 0 0.05 631.342 276.125)"
     font-style="normal"
     font-weight="bold"
     font-size="120px"
     font-family="Helvetica"
     id="text304">
2</text>
  <text
     x="0"
     y="0"
     stroke="none"
     fill="#000000"
     transform="matrix(0.05 0 0 0.05 634.679 274.285)"
     font-style="normal"
     font-weight="bold"
     font-size="160px"
     font-family="Helvetica"
     id="text305">
O</text>
  <text
     x="0"
     y="0"
     stroke="none"
     fill="#000000"
     transform="matrix(0.05 0 0 0.05 640.901 276.125)"
     font-style="normal"
     font-weight="bold"
     font-size="120px"
     font-family="Helvetica"
     id="text306">
2</text>
  <text
     x="0"
     y="0"
     stroke="none"
     fill="#000000"
     transform="matrix(0.05 0 0 0.05 612.765 264.99)"
     font-style="normal"
     font-weight="bold"
     font-size="160px"
     font-family="Helvetica"
     id="text307">
or</text>
  <path
     stroke="none"
     fill="#000000"
     transform="matrix(0.05 0 0 0.05 -10 -11)"
     d="M 14845.1,5352.09 L 14349,5352.09 L 14349,5330.09 L 14845.1,5330.09 Z "
     id="path307" />
  <path
     stroke="none"
     fill="#000000"
     transform="matrix(0.05 0 0 0.05 -10 -11)"
     d="M 15038.2,5341.09 C 15038.2,5341.09 14816.4,5397.53 14816.4,5397.53 C 14816.4,5397.53 14844.1,5365.78 14844.1,5341.09 C 14844.1,5315.96 14816.4,5283.65 14816.4,5283.65 C 14816.4,5283.65 15038.2,5341.09 15038.2,5341.09 C 15038.2,5341.09 15038.2,5341.09 15038.2,5341.09 "
     id="path308" />
  <path
     stroke="#000000"
     stroke-width="1"
     fill="none"
     transform="matrix(0.05 0 0 0.05 -10 -11)"
     d="M 15038.2,5341.09 C 15038.2,5341.09 14816.4,5397.53 14816.4,5397.53 C 14816.4,5397.53 14844.1,5365.78 14844.1,5341.09 C 14844.1,5315.96 14816.4,5283.65 14816.4,5283.65 C 14816.4,5283.65 15038.2,5341.09 15038.2,5341.09 C 15038.2,5341.09 15038.2,5341.09 15038.2,5341.09 "
     id="path309" />
  <path
     stroke="none"
     fill="#000000"
     transform="matrix(0.05 0 0 0.05 -10 -11)"
     d="M 13023.7,6946.5 L 11775,6946.5 L 11775,6924.5 L 13023.7,6924.5 Z "
     id="path310" />
  <path
     stroke="none"
     fill="#000000"
     transform="matrix(0.05 0 0 0.05 -10 -11)"
     d="M 13216.7,6935.5 C 13216.7,6935.5 12995,6991.94 12995,6991.94 C 12995,6991.94 13022.7,6960.19 13022.7,6935.5 C 13022.7,6910.37 12995,6878.06 12995,6878.06 C 12995,6878.06 13216.7,6935.5 13216.7,6935.5 C 13216.7,6935.5 13216.7,6935.5 13216.7,6935.5 "
     id="path311" />
  <path
     stroke="#000000"
     stroke-width="1"
     fill="none"
     transform="matrix(0.05 0 0 0.05 -10 -11)"
     d="M 13216.7,6935.5 C 13216.7,6935.5 12995,6991.94 12995,6991.94 C 12995,6991.94 13022.7,6960.19 13022.7,6935.5 C 13022.7,6910.37 12995,6878.06 12995,6878.06 C 12995,6878.06 13216.7,6935.5 13216.7,6935.5 C 13216.7,6935.5 13216.7,6935.5 13216.7,6935.5 "
     id="path312" />
  <text
     x="0"
     y="0"
     stroke="none"
     fill="#000000"
     transform="matrix(0.05 0 0 0.05 367.426 319.925)"
     font-style="normal"
     font-weight="bold"
     font-size="160px"
     font-family="Helvetica"
     id="text313">
heat</text>
  <text
     x="0"
     y="0"
     stroke="none"
     fill="#000000"
     transform="matrix(0.05 0 0 0.05 158.025 189.915)"
     font-style="normal"
     font-weight="bold"
     font-size="200px"
     font-family="Helvetica"
     id="text315">
2) </text>
  <text
     x="0"
     y="0"
     stroke="none"
     fill="#000000"
     transform="matrix(0.05 0 0 0.05 169.695 189.915)"
     font-style="normal"
     font-weight="bold"
     font-size="200px"
     font-family="Helvetica"
     id="text316">
H</text>
  <text
     x="0"
     y="0"
     stroke="none"
     fill="#000000"
     transform="matrix(0.05 0 0 0.05 176.917 192.215)"
     font-style="normal"
     font-weight="bold"
     font-size="150px"
     font-family="Helvetica"
     id="text317">
2</text>
  <text
     x="0"
     y="0"
     stroke="none"
     fill="#000000"
     transform="matrix(0.05 0 0 0.05 181.088 189.915)"
     font-style="normal"
     font-weight="bold"
     font-size="200px"
     font-family="Helvetica"
     id="text318">
O</text>
  <text
     x="0"
     y="0"
     stroke="none"
     fill="#000000"
     transform="matrix(0.05 0 0 0.05 188.866 192.215)"
     font-style="normal"
     font-weight="bold"
     font-size="150px"
     font-family="Helvetica"
     id="text319">
2</text>
  <text
     x="0"
     y="0"
     stroke="none"
     fill="#000000"
     transform="matrix(0.05 0 0 0.05 193.037 189.915)"
     font-style="normal"
     font-weight="bold"
     font-size="200px"
     font-family="Helvetica"
     id="text320">
,</text>
  <text
     x="0"
     y="0"
     stroke="none"
     fill="#000000"
     transform="matrix(0.05 0 0 0.05 168.032 200.798)"
     font-style="normal"
     font-weight="bold"
     font-size="200px"
     font-family="Helvetica"
     id="text321">
NaOH</text>
  <text
     x="0"
     y="0"
     stroke="none"
     fill="#000000"
     transform="matrix(0.05 0 0 0.05 160.076 317.78)"
     font-style="normal"
     font-weight="bold"
     font-size="160px"
     font-family="Helvetica"
     id="text329">
light</text>
  <path
     stroke="none"
     fill="#ffffff"
     opacity="0"
     onclick="window.location.href = 'alcohols.svg'"
     transform="matrix(0.05 0 0 0.05 -10 -11)"
     d="M 3188.9,3217.5 C 3188.9,3217.5 3188.9,1900.9 3188.9,1900.9 C 3188.9,1900.9 2129.7,1900.9 2129.7,1900.9 C 2129.7,1900.9 2129.7,3217.5 2129.7,3217.5 C 2129.7,3217.5 3188.9,3217.5 3188.9,3217.5 "
     id="path1"
     inkscape:label="l-alcohols" />
  <path
     stroke="none"
     fill="#ffffff"
     opacity="0"
     onclick="window.location.href = 'alcohols.svg'"
     transform="matrix(0.05 0 0 0.05 -10 -11)"
     d="M 4633.2,3246.1 C 4633.2,3246.1 4633.2,1900.9 4633.2,1900.9 C 4633.2,1900.9 3302.3,1900.9 3302.3,1900.9 C 3302.3,1900.9 3302.3,3246.1 3302.3,3246.1 C 3302.3,3246.1 4633.2,3246.1 4633.2,3246.1 "
     id="path3"
     inkscape:label="l-alcohols" />
  <path
     stroke="none"
     fill="#ffffff"
     opacity="0"
     onclick="window.location.href = 'tobromohydrins.svg'"
     transform="matrix(0.05 0 0 0.05 -10 -11)"
     d="M 6992.7,3432 C 6992.7,3432 6992.7,2573 6992.7,2573 C 6992.7,2573 5676.1,2573 5676.1,2573 C 5676.1,2573 5676.1,3432 5676.1,3432 C 5676.1,3432 6992.7,3432 6992.7,3432 "
     id="path5"
     inkscape:label="l-halohydrins" />
  <path
     stroke="none"
     fill="#ffffff"
     opacity="0"
     onclick="window.location.href = 'epoxides.svg'"
     transform="matrix(0.05 0 0 0.05 -10 -11)"
     d="M 6563.7,1873.3 C 6563.7,1873.3 6563.7,1300.3 6563.7,1300.3 C 6563.7,1300.3 5661.8,1300.3 5661.8,1300.3 C 5661.8,1300.3 5661.8,1873.3 5661.8,1873.3 C 5661.8,1873.3 6563.7,1873.3 6563.7,1873.3 "
     id="path7"
     inkscape:label="l-epoxides" />
  <path
     stroke="none"
     fill="#ffffff"
     opacity="0"
     onclick="window.location.href = 'epoxides.svg'"
     transform="matrix(0.05 0 0 0.05 -10 -11)"
     d="M 8394.1,3689.4 C 8394.1,3689.4 8394.1,2773.2 8394.1,2773.2 C 8394.1,2773.2 7320.6,2773.2 7320.6,2773.2 C 7320.6,2773.2 7320.6,3689.4 7320.6,3689.4 C 7320.6,3689.4 8394.1,3689.4 8394.1,3689.4 "
     id="path9"
     inkscape:label="l-epoxides" />
  <path
     stroke="none"
     fill="#ffffff"
     opacity="0"
     onclick="window.location.href = 'alkanes.svg'"
     transform="matrix(0.05 0 0 0.05 -10 -11)"
     d="M 9852.7,3646.5 C 9852.7,3646.5 9852.7,2801.8 9852.7,2801.8 C 9852.7,2801.8 8593.3,2801.8 8593.3,2801.8 C 8593.3,2801.8 8593.3,3646.5 8593.3,3646.5 C 8593.3,3646.5 9852.7,3646.5 9852.7,3646.5 "
     id="path11"
     inkscape:label="l-cyclopropanes" />
  <path
     stroke="none"
     fill="#ffffff"
     opacity="0"
     onclick="window.location.href = 'halides.svg'"
     transform="matrix(0.05 0 0 0.05 -10 -11)"
     d="M 11225.5,3632.2 C 11225.5,3632.2 11225.5,3030.6 11225.5,3030.6 C 11225.5,3030.6 10094.8,3030.6 10094.8,3030.6 C 10094.8,3030.6 10094.8,3632.2 10094.8,3632.2 C 10094.8,3632.2 11225.5,3632.2 11225.5,3632.2 "
     id="path13"
     inkscape:label="l-cyclopropanes" />
  <path
     stroke="none"
     fill="#ffffff"
     opacity="0"
     onclick="window.location.href = 'ketones.svg'"
     transform="matrix(0.05 0 0 0.05 -10 -11)"
     d="M 16216.2,5920.2 C 16216.2,5920.2 16216.2,4689.4 16216.2,4689.4 C 16216.2,4689.4 15099.8,4689.4 15099.8,4689.4 C 15099.8,4689.4 15099.8,5920.2 15099.8,5920.2 C 15099.8,5920.2 16216.2,5920.2 16216.2,5920.2 "
     id="path19"
     inkscape:label="l-aldehydes" />
  <path
     stroke="none"
     fill="#ffffff"
     opacity="0"
     onclick="window.location.href = 'halides.svg'"
     transform="matrix(0.05 0 0 0.05 -10 -11)"
     d="M 10982.4,8193.9 C 10982.4,8193.9 10982.4,7150 10982.4,7150 C 10982.4,7150 9322.6,7150 9322.6,7150 C 9322.6,7150 9322.6,8193.9 9322.6,8193.9 C 9322.6,8193.9 10982.4,8193.9 10982.4,8193.9 "
     id="path21"
     inkscape:label="l-halides" />
  <path
     stroke="none"
     fill="#ffffff"
     opacity="0"
     onclick="window.location.href = 'allylicrearrangements.svg'"
     transform="matrix(0.05 0 0 0.05 -10 -11)"
     d="M 10825.1,9323.6 C 10825.1,9323.6 10825.1,8278.7 10825.1,8278.7 C 10825.1,8278.7 9336.9,8278.7 9336.9,8278.7 C 9336.9,8278.7 9336.9,9323.6 9336.9,9323.6 C 9336.9,9323.6 10825.1,9323.6 10825.1,9323.6 "
     id="path23"
     inkscape:label="l-allylicrearrang" />
  <path
     stroke="none"
     fill="#ffffff"
     opacity="0"
     onclick="window.location.href = 'halides.svg'"
     transform="matrix(0.05 0 0 0.05 -10 -11)"
     d="M 2574,8108.1 C 2574,8108.1 2574,6877.3 2574,6877.3 C 2574,6877.3 1471.9,6877.3 1471.9,6877.3 C 1471.9,6877.3 1471.9,8108.1 1471.9,8108.1 C 1471.9,8108.1 2574,8108.1 2574,8108.1 "
     id="path27"
     inkscape:label="l-halides" />
  <path
     stroke="none"
     fill="#ffffff"
     opacity="0"
     onclick="window.location.href = 'halides.svg'"
     transform="matrix(0.05 0 0 0.05 -10 -11)"
     d="M 4018.3,8279.7 C 4018.3,8279.7 4018.3,6863 4018.3,6863 C 4018.3,6863 2701.7,6863 2701.7,6863 C 2701.7,6863 2701.7,8279.7 2701.7,8279.7 C 2701.7,8279.7 4018.3,8279.7 4018.3,8279.7 "
     id="path29"
     inkscape:label="l-halides" />
  <path
     stroke="none"
     fill="#ffffff"
     opacity="0"
     onclick="window.location.href = 'halides.svg'"
     transform="matrix(0.05 0 0 0.05 -10 -11)"
     d="M 5419.7,7793.5 C 5419.7,7793.5 5419.7,6863 5419.7,6863 C 5419.7,6863 4274.7,6863 4274.7,6863 C 4274.7,6863 4274.7,7793.5 4274.7,7793.5 C 4274.7,7793.5 5419.7,7793.5 5419.7,7793.5 "
     id="path31"
     inkscape:label="l-halides" />
  <path
     stroke="none"
     fill="#ffffff"
     opacity="0"
     onclick="window.location.href = 'alkynes.svg'"
     transform="matrix(0.05 0 0 0.05 -10 -11)"
     d="M 5233.8,8937.5 C 5233.8,8937.5 5233.8,8507.5 5233.8,8507.5 C 5233.8,8507.5 4389.1,8507.5 4389.1,8507.5 C 4389.1,8507.5 4389.1,8937.5 4389.1,8937.5 C 4389.1,8937.5 5233.8,8937.5 5233.8,8937.5 "
     id="path33"
     inkscape:label="l-alkynes" />
  <path
     stroke="none"
     fill="#ffffff"
     opacity="0"
     onclick="window.location.href = 'alkenes.svg'"
     transform="matrix(0.05 0 0 0.05 -10 -11)"
     d="M 14414.4,6077.5 C 14414.4,6077.5 14414.4,4918.2 14414.4,4918.2 C 14414.4,4918.2 13041.6,4918.2 13041.6,4918.2 C 13041.6,4918.2 13041.6,6077.5 13041.6,6077.5 C 13041.6,6077.5 14414.4,6077.5 14414.4,6077.5 "
     id="path37"
     inkscape:label="l-diols" />
  <path
     stroke="none"
     fill="#ffffff"
     opacity="0"
     onclick="window.location.href = 'toalkenes.svg'"
     d="m 284.81288,272.70965 c 0,0 0,-36.60276 0,-36.60276 0,0 -103.37762,0 -103.37762,0 0,0 0,36.60276 0,36.60276 0,0 103.37762,0 103.37762,0"
     id="path39-5"
     inkscape:label="l-toalkenes"
     style="opacity:0;stroke-width:0.103848" />
  <path
     stroke="none"
     fill="#ffffff"
     opacity="0"
     onclick="window.location.href = 'supplement.svg'"
     d="m 119.79989,206.93979 c 0,0 0,-45.98552 0,-45.98552 0,0 -71.319845,0 -71.319845,0 0,0 0,45.98552 0,45.98552 0,0 71.319845,0 71.319845,0"
     id="path39-5-5"
     inkscape:label="l-supplement"
     style="opacity:0;stroke-width:0.0966816" />
  <path
     stroke="none"
     fill="#ffffff"
     opacity="0"
     onclick="window.location.href = 'supplement.svg'"
     d="m 197.069,203.91138 c 0,0 0,-38.94845 0,-38.94845 0,0 -58.0276,0 -58.0276,0 0,0 0,38.94845 0,38.94845 0,0 58.0276,0 58.0276,0"
     id="path39-5-5-6"
     inkscape:label="l-supplement"
     style="opacity:0;stroke-width:0.0802584" />
  <path
     stroke="none"
     fill="#ffffff"
     opacity="0"
     onclick="window.location.href = 'supplement.svg'"
     d="m 298.0897,204.49587 c 0,0 0,-37.38465 0,-37.38465 0,0 -35.35259,0 -35.35259,0 0,0 0,37.38465 0,37.38465 0,0 35.35259,0 35.35259,0"
     id="path39-5-5-7"
     inkscape:label="l-supplement"
     style="opacity:0;stroke-width:0.0613741" />
  <path
     stroke="none"
     fill="#ffffff"
     opacity="0"
     onclick="window.location.href = 'supplement.svg'"
     d="m 297.29482,113.46651 c 0,0 0,-20.964818 0,-20.964818 0,0 -25.18793,0 -25.18793,0 0,0 0,20.964818 0,20.964818 0,0 25.18793,0 25.18793,0"
     id="path39-5-5-7-6"
     inkscape:label="l-supplement"
     style="opacity:0;stroke-width:0.0387945" />
  <path
     stroke="none"
     fill="#ffffff"
     opacity="0"
     onclick="window.location.href = 'supplement.svg'"
     d="m 387.77676,203.17088 c 0,0 0,-24.8743 0,-24.8743 0,0 -40.82587,0 -40.82587,0 0,0 0,24.8743 0,24.8743 0,0 40.82587,0 40.82587,0"
     id="path39-5-5-7-3"
     inkscape:label="l-supplement"
     style="opacity:0;stroke-width:0.0537986" />
  <path
     stroke="none"
     fill="#ffffff"
     opacity="0"
     onclick="window.location.href = 'supplement.svg'"
     d="m 451.95779,205.19929 c 0,0 0,-24.8743 0,-24.8743 0,0 -29.09742,0 -29.09742,0 0,0 0,24.8743 0,24.8743 0,0 29.09742,0 29.09742,0"
     id="path39-5-5-7-3-9"
     inkscape:label="l-supplement"
     style="opacity:0;stroke-width:0.0454183" />
  <path
     stroke="none"
     fill="#ffffff"
     opacity="0"
     onclick="window.location.href = 'supplement.svg'"
     d="m 521.31985,203.14585 c 0,0 0,-24.8743 0,-24.8743 0,0 -29.09742,0 -29.09742,0 0,0 0,24.8743 0,24.8743 0,0 29.09742,0 29.09742,0"
     id="path39-5-5-7-3-4"
     inkscape:label="l-supplement"
     style="opacity:0;stroke-width:0.0454183" />
  <path
     stroke="none"
     fill="#ffffff"
     opacity="0"
     onclick="window.location.href = 'supplement.svg'"
     d="m 634.8302,191.84156 c 0,0 0,-24.8743 0,-24.8743 0,0 -40.82587,0 -40.82587,0 0,0 0,24.8743 0,24.8743 0,0 40.82587,0 40.82587,0"
     id="path39-5-5-7-3-48"
     inkscape:label="l-supplement"
     style="opacity:0;stroke-width:0.0537986" />
  <path
     stroke="none"
     fill="#ffffff"
     opacity="0"
     onclick="window.location.href = 'supplement.svg'"
     d="m 647.87931,279.52089 c 0,0 0,-51.45879 0,-51.45879 0,0 -65.06467,0 -65.06467,0 0,0 0,51.45879 0,51.45879 0,0 65.06467,0 65.06467,0"
     id="path39-5-5-7-3-3"
     inkscape:label="l-supplement"
     style="opacity:0;stroke-width:0.0976855" />
  <path
     stroke="none"
     fill="#ffffff"
     opacity="0"
     onclick="window.location.href = 'supplement.svg'"
     d="m 638.38533,333.18725 c 0,0 0,-27.21999 0,-27.21999 0,0 -50.20863,0 -50.20863,0 0,0 0,27.21999 0,27.21999 0,0 50.20863,0 50.20863,0"
     id="path39-5-5-7-3-93"
     inkscape:label="l-supplement"
     style="opacity:0;stroke-width:0.062411" />
  <path
     stroke="none"
     fill="#ffffff"
     opacity="0"
     onclick="window.location.href = 'supplement.svg'"
     d="m 736.61642,252.70098 c 0,0 0,-13.92774 0,-13.92774 0,0 -25.18793,0 -25.18793,0 0,0 0,13.92774 0,13.92774 0,0 25.18793,0 25.18793,0"
     id="path39-5-5-7-3-44"
     inkscape:label="l-supplement"
     style="opacity:0;stroke-width:0.0316202" />
  <path
     stroke="none"
     fill="#ffffff"
     opacity="0"
     onclick="window.location.href = 'supplement.svg'"
     d="m 491.02665,335.98119 c 0,0 0,-24.8743 0,-24.8743 0,0 -25.18793,0 -25.18793,0 0,0 0,24.8743 0,24.8743 0,0 25.18793,0 25.18793,0"
     id="path39-5-5-7-3-0"
     inkscape:label="l-supplement"
     style="opacity:0;stroke-width:0.0422571" />
  <path
     stroke="none"
     fill="#ffffff"
     opacity="0"
     onclick="window.location.href = 'supplement.svg'"
     d="m 301.45853,330.0717 c 0,0 0,-24.8743 0,-24.8743 0,0 -40.82587,0 -40.82587,0 0,0 0,24.8743 0,24.8743 0,0 40.82587,0 40.82587,0"
     id="path39-5-5-7-3-7"
     inkscape:label="l-supplement"
     style="opacity:0;stroke-width:0.0537986" />
  <path
     stroke="none"
     fill="#ffffff"
     opacity="0"
     onclick="window.location.href = 'supplement.svg'"
     d="m 226.08443,332.84156 c 0,0 0,-24.8743 0,-24.8743 0,0 -20.49655,0 -20.49655,0 0,0 0,24.8743 0,24.8743 0,0 20.49655,0 20.49655,0"
     id="path39-5-5-7-3-488"
     inkscape:label="l-supplement"
     style="opacity:0;stroke-width:0.0381192" />
  <path
     stroke="none"
     fill="#ffffff"
     opacity="0"
     onclick="window.location.href = 'supplement.svg'"
     d="m 181.21202,330.96914 c 0,0 0,-24.8743 0,-24.8743 0,0 -61.93709,0 -61.93709,0 0,0 0,24.8743 0,24.8743 0,0 61.93709,0 61.93709,0"
     id="path39-5-5-7-3-1"
     inkscape:label="l-supplement"
     style="opacity:0;stroke-width:0.0662642" />
  <path
     stroke="none"
     fill="#ffffff"
     opacity="0"
     onclick="window.location.href = 'supplement.svg'"
     d="m 91.191315,330.21999 c 0,0 0,-24.8743 0,-24.8743 0,0 -40.82587,0 -40.82587,0 0,0 0,24.8743 0,24.8743 0,0 40.82587,0 40.82587,0"
     id="path39-5-5-7-3-47"
     inkscape:label="l-supplement"
     style="opacity:0;stroke-width:0.0537986" />
  <path
     stroke="none"
     fill="#ffffff"
     opacity="0"
     onclick="window.location.href = 'supplement.svg'"
     d="m 268.73969,402.29413 c 0,0 0,-17.05533 0,-17.05533 0,0 -36.91639,0 -36.91639,0 0,0 0,17.05533 0,17.05533 0,0 36.91639,0 36.91639,0"
     id="path39-5-5-7-3-446"
     inkscape:label="l-supplement"
     style="opacity:0;stroke-width:0.0423611" />
  <path
     stroke="none"
     fill="#ffffff"
     opacity="0"
     onclick="window.location.href = 'todienes.svg'"
     d="m 425.49222,330.19158 c 0,0 0,-23.31051 0,-23.31051 0,0 -28.31552,0 -28.31552,0 0,0 0,23.31051 0,23.31051 0,0 28.31552,0 28.31552,0"
     id="path39-5-5-7-3-2"
     style="opacity:0;stroke-width:0.0423611"
     inkscape:label="l-todienes" />
  <path
     stroke="#ffffff"
     opacity="0"
     onclick="window.location.href = 'todiols-diketones.svg'"
     transform="matrix(0.05 0 0 0.05 -10 -11)"
     d="M 14414.4,6077.5 C 14414.4,6077.5 14414.4,4918.2 14414.4,4918.2 C 14414.4,4918.2 13041.6,4918.2 13041.6,4918.2 C 13041.6,4918.2 13041.6,6077.5 13041.6,6077.5 C 13041.6,6077.5 14414.4,6077.5 14414.4,6077.5 "
     id="path38" />
  <g
     id="noreagents"
     onclick="window.location.href = 'alkenes-noreagents.svg'"
     transform="translate(-4.6856272,378.9067)">
    <text
       x="11.200497"
       y="54.141506"
       stroke="none"
       fill="#000000"
       font-style="normal"
       font-weight="bold"
       font-size="200px"
       font-family="Helvetica"
       id="gobacktext-7"
       style="font-style:normal;font-weight:bold;font-size:10px;font-family:Helvetica;fill:#000000;fill-opacity:0.443609;stroke:none;stroke-width:0.05"
       inkscape:label="noreagents-text"><tspan
         sodipodi:role="line"
         id="tspan2"
         x="11.200497"
         y="54.141506"
         style="font-style:normal;font-variant:normal;font-weight:bold;font-stretch:normal;font-size:8px;font-family:Helvetica;-inkscape-font-specification:'Helvetica, Bold';font-variant-ligatures:normal;font-variant-caps:normal;font-variant-numeric:normal;font-variant-east-asian:normal;fill:#000000;fill-opacity:0.5;stroke-width:0.05">reagents</tspan></text>
    <rect
       style="fill:#000000;fill-opacity:0.821053;fill-rule:evenodd;stroke:#a13033;stroke-width:0;stroke-linecap:round;stroke-miterlimit:2;stroke-dasharray:none;paint-order:markers fill stroke"
       id="rect3"
       width="31.666824"
       height="0.9773711"
       x="12.224979"
       y="51.518982"
       inkscape:label="noreagents-line" />
    <path
       stroke="none"
       fill="#999999"
       d="m 9.795,54.694678 c 0,0 0,-5.427567 0,-5.427567 0,-2.098514 1.463398,-3.801611 3.266274,-3.801611 0,0 30.608907,0 30.608907,0 1.803073,0 3.266397,1.703097 3.266397,3.801611 0,0 0,5.427567 0,5.427567 0,2.098514 -1.463324,3.801611 -3.266397,3.801611 0,0 -30.608907,0 -30.608907,0 -1.802876,0 -3.266274,-1.703097 -3.266274,-3.801611"
       id="goback-box-8"
       style="fill:#999999;fill-opacity:0.336842;stroke-width:0.0264832"
       inkscape:label="noreagents-box" />
  </g>
  <g
     id="nonames"
     onclick="window.location.href = 'alkenes.svg'"
     transform="matrix(0.85780308,0,0,1,-3.2442635,382.9067)">
    <text
       x="18.441887"
       y="69.010506"
       stroke="none"
       fill="#000000"
       font-style="normal"
       font-weight="bold"
       font-size="200px"
       font-family="Helvetica"
       id="gobacktext-7-8"
       style="font-style:normal;font-variant:normal;font-weight:bold;font-stretch:normal;font-size:10px;font-family:Helvetica;-inkscape-font-specification:'Helvetica, Bold';font-variant-ligatures:normal;font-variant-caps:normal;font-variant-numeric:normal;font-variant-east-asian:normal;fill:#0088d0;fill-opacity:0.675806;stroke:none;stroke-width:0.05"
       inkscape:label="noproducts-text"><tspan
         sodipodi:role="line"
         id="tspan1"
         x="18.441887"
         y="69.010506">show</tspan></text>
    <path
       stroke="none"
       fill="#999999"
       d="m 10.136392,68.163695 c 0,0 0,-5.427567 0,-5.427567 0,-2.098514 1.679048,-3.801611 3.747601,-3.801611 0,0 35.119514,0 35.119514,0 2.068778,0 3.747742,1.703097 3.747742,3.801611 0,0 0,5.427567 0,5.427567 0,2.098514 -1.678964,3.801611 -3.747742,3.801611 0,0 -35.119514,0 -35.119514,0 -2.068553,0 -3.747601,-1.703097 -3.747601,-3.801611"
       id="goback-box-8-6"
       style="fill:#999999;fill-opacity:0.336842;stroke-width:0.0283675"
       inkscape:label="noproducts-box" />
  </g>
  <text
     x="822.84332"
     y="415.79849"
     stroke="none"
     fill="#000000"
     transform="matrix(0.92407999,-0.00322566,0.00377741,1.0821442,0,0)"
     font-style="italic"
     font-weight="bold"
     font-size="8.25806px"
     font-family="'Helvetica Oblique'"
     id="text11"
     style="opacity:1;fill:#00009a;fill-opacity:0.651128;stroke-width:0.0412903">chemisfun</text>
  <g
     id="overlay-box"
     style="opacity:0"
     transform="matrix(0.31364504,0,0,0.8007311,650.50736,385.81436)">
    <rect
       style="fill:#609975;fill-opacity:0.2;stroke:#609970;stroke-width:0;stroke-linecap:round;stroke-opacity:0.657143;paint-order:fill markers stroke"
       id="rect285"
       width="164.84744"
       height="59.583412"
       x="329.69489"
       y="23.171328" />
  </g>
  <g
     id="overlay"
     onclick="window.location.href = 'index.html'"
     onmouseover="this.ownerDocument.getElementById('overlay-box').style.opacity='0.5'"
     onmouseout="this.ownerDocument.getElementById('overlay-box').style.opacity='0'"
     transform="matrix(0.76550767,-0.0030054,0.00267214,0.86098131,195.61318,22.784653)">
    <rect
       style="opacity:0.5;fill:#ffffff;fill-opacity:0;stroke-linecap:round;stroke-opacity:0.657143;paint-order:stroke fill markers"
       id="rect2"
       width="65.93074"
       height="55.035408"
       x="733.06049"
       y="445.87061" />
  </g>
  <g
     id="g1"
     transform="matrix(0.0625,0,0,0.0625,764.65732,406.62566)">
    <rect
       x="239.31"
       y="120.321"
       style="fill:#444242"
       width="33.389"
       height="139.98"
       id="rect1" />
    <rect
       x="256"
       y="120.321"
       style="fill:#3a3839"
       width="16.695"
       height="139.98"
       id="rect2-2" />
    <rect
       x="132.194"
       y="305.86301"
       transform="matrix(0.5,0.866,-0.866,0.5,399.932,58.9793)"
       style="fill:#444242"
       width="33.387001"
       height="139.967"
       id="rect4" />
    <rect
       x="293.125"
       y="359.13"
       transform="matrix(0.866,0.5,-0.5,0.866,236.5654,-131.205)"
       style="fill:#3a3839"
       width="139.967"
       height="33.387001"
       id="rect5" />
    <path
       style="background-color:#ffffff00;fill:#439de2;fill-opacity:1"
       d="m 456.843,485.07 c -9.538,0 -18.951,-2.501 -27.432,-7.398 v 0 c -12.733,-7.351 -21.842,-19.221 -25.646,-33.424 -3.805,-14.201 -1.853,-29.035 5.499,-41.769 7.351,-12.732 19.221,-21.841 33.424,-25.646 14.201,-3.806 29.034,-1.853 41.769,5.499 12.732,7.351 21.841,19.221 25.646,33.424 3.805,14.202 1.853,29.035 -5.499,41.769 -7.351,12.733 -19.221,21.842 -33.424,25.646 -4.742,1.27 -9.557,1.899 -14.337,1.899 z"
       id="path7-3" />
    <path
       style="background-color:#ffffff00;fill:#eda74a;fill-opacity:1"
       d="m 256.001,137.021 c -30.352,0 -55.044,-24.693 -55.044,-55.044 0,-30.351 24.693,-55.044 55.044,-55.044 30.351,0 55.044,24.693 55.044,55.044 0,30.351 -24.693,55.044 -55.044,55.044 z"
       id="path5-4" />
    <path
       style="background-color:#ffffff00;fill:#53acb1;fill-opacity:1"
       d="m 55.158,485.07 c -4.781,0 -9.594,-0.629 -14.336,-1.9 C 26.619,479.365 14.75,470.256 7.398,457.524 0.046,444.792 -1.906,429.957 1.899,415.755 c 3.805,-14.203 12.914,-26.072 25.646,-33.424 12.731,-7.352 27.567,-9.304 41.769,-5.499 14.203,3.805 26.072,12.914 33.424,25.646 7.352,12.732 9.304,27.567 5.499,41.769 -3.805,14.203 -12.914,26.072 -25.646,33.424 -8.481,4.897 -17.896,7.399 -27.433,7.399 z"
       id="path6-7" />
    <path
       style="fill:#f74d37"
       d="m 256.001,384.379 c -38.81,0 -70.384,-31.575 -70.384,-70.384 0,-38.809 31.575,-70.384 70.384,-70.384 38.809,0 70.384,31.575 70.384,70.384 0,38.809 -31.575,70.384 -70.384,70.384 z"
       id="path4-9" />
  </g>
</svg>
