<?xml version="1.0" encoding="UTF-8" standalone="no"?>
<svg
   width="100%"
   height="100%"
   viewBox="0 0 818 460"
   style="background-color: #ffffff00"
   version="1.1"
   id="svg236"
   sodipodi:docname="allylicrearrangements.svg"
   inkscape:version="1.4.2 (ebf0e940, 2025-05-08)"
   xmlns:inkscape="http://www.inkscape.org/namespaces/inkscape"
   xmlns:sodipodi="http://sodipodi.sourceforge.net/DTD/sodipodi-0.dtd"
   xmlns="http://www.w3.org/2000/svg"
   xmlns:svg="http://www.w3.org/2000/svg">
  <path
     stroke="#ffffff"
     stroke-width="1"
     fill="none"
     transform="matrix(0.05 0 0 0.05 -10 -11)"
     d="M 7128.4,5296.6 C 7128.4,5296.6 7128.4,1632 7128.4,1632 C 7128.4,1632 4940.6,1632 4940.6,1632 C 4940.6,1632 4940.6,5296.6 4940.6,5296.6 C 4940.6,5296.6 7128.4,5296.6 7128.4,5296.6 "
     id="path2" />
  <path
     stroke="#ffffff"
     stroke-width="1"
     fill="none"
     transform="matrix(0.05 0 0 0.05 -10 -11)"
     d="M 7199.4,9088 C 7199.4,9088 7199.4,5451.8 7199.4,5451.8 C 7199.4,5451.8 4969,5451.8 4969,5451.8 C 4969,5451.8 4969,9088 4969,9088 C 4969,9088 7199.4,9088 7199.4,9088 "
     id="path4" />
  <path
     stroke="#ffffff"
     stroke-width="1"
     fill="none"
     transform="matrix(0.05 0 0 0.05 -10 -11)"
     d="M 10153,9159 C 10153,9159 10153,5395 10153,5395 C 10153,5395 7922.6,5395 7922.6,5395 C 7922.6,5395 7922.6,9159 7922.6,9159 C 7922.6,9159 10153,9159 10153,9159 "
     id="path6" />
  <path
     stroke="#000000"
     stroke-width="22"
     fill="none"
     transform="matrix(0.05 0 0 0.05 -10 -11)"
     d="M 16494.7,9367.47 C 16494.7,9367.47 16494.7,284.602 16494.7,284.602 C 16494.7,284.602 268.683,284.602 268.683,284.602 C 268.683,284.602 268.683,9367.47 268.683,9367.47 C 268.683,9367.47 16494.7,9367.47 16494.7,9367.47 "
     id="path9" />
  <text
     x="0"
     y="0"
     stroke="none"
     fill="#000000"
     transform="matrix(0.05 0 0 0.05 11.735 21.13)"
     font-style="normal"
     font-weight="bold"
     font-size="320px"
     font-family="Helvetica"
     id="text9">
Examples of Allylic Resonance</text>
  <text
     x="0"
     y="0"
     stroke="none"
     fill="#999999"
     transform="matrix(0.05 0 0 0.05 11.9381 39.085)"
     font-style="normal"
     font-weight="normal"
     font-size="320px"
     font-family="Helvetica"
     id="text13">
click for details</text>
  <g
     id="goback"
     onclick="window.location.href = 'index.svg'"
     onmouseover="document.getElementById('goback-box').setAttribute('opacity','0.5');"
     onmouseout="document.getElementById('goback-box').setAttribute('opacity','1')">
    <path
       stroke="none"
       fill="#999999"
       transform="matrix(0.05 0 0 0.05 -10 -11)"
       d="M 395.9,1492.34 C 395.9,1492.34 395.9,1302.37 395.9,1302.37 C 395.9,1228.92 455.513,1169.31 528.955,1169.31 C 528.955,1169.31 1775.84,1169.31 1775.84,1169.31 C 1849.29,1169.31 1908.9,1228.92 1908.9,1302.37 C 1908.9,1302.37 1908.9,1492.34 1908.9,1492.34 C 1908.9,1565.79 1849.29,1625.4 1775.84,1625.4 C 1775.84,1625.4 528.955,1625.4 528.955,1625.4 C 455.513,1625.4 395.9,1565.79 395.9,1492.34 "
       id="goback-box" />
    <text
       x="0"
       y="0"
       stroke="none"
       fill="#000000"
       transform="matrix(0.05 0 0 0.05 29.3796 61.765)"
       font-style="normal"
       font-weight="bold"
       font-size="200px"
       font-family="Helvetica"
       id="gobacktext">
go home</text>
    <path
       stroke="#999999"
       stroke-width="1"
       transform="matrix(0.05 0 0 0.05 -10 -11)"
       d="M 395.9,1492.34 C 395.9,1492.34 395.9,1302.37 395.9,1302.37 C 395.9,1228.92 455.513,1169.31 528.955,1169.31 C 528.955,1169.31 1775.84,1169.31 1775.84,1169.31 C 1849.29,1169.31 1908.9,1228.92 1908.9,1302.37 C 1908.9,1302.37 1908.9,1492.34 1908.9,1492.34 C 1908.9,1565.79 1849.29,1625.4 1775.84,1625.4 C 1775.84,1625.4 528.955,1625.4 528.955,1625.4 C 455.513,1625.4 395.9,1565.79 395.9,1492.34 "
       onclick="history.back()"
       style="opacity:0"
       id="goback-link" />
  </g>
  <text
     x="0"
     y="0"
     stroke="none"
     fill="#000000"
     transform="matrix(0.05 0 0 0.05 101.639 146.41)"
     font-style="normal"
     font-weight="bold"
     font-size="200px"
     font-family="Helvetica"
     id="text18">
NBS</text>
  <text
     x="0"
     y="0"
     stroke="none"
     fill="#000000"
     transform="matrix(0.05 0 0 0.05 104.021 156.705)"
     font-style="normal"
     font-weight="bold"
     font-size="160px"
     font-family="Helvetica"
     id="text19">
light</text>
  <path
     stroke="none"
     fill="#000000"
     transform="matrix(0.05 0 0 0.05 -10 -11)"
     d="M 1804.56,3214.46 L 1782.36,3201.59 L 1781.68,3002.82 L 1803.85,3002.82 L 1804.56,3214.46 Z "
     id="path19" />
  <text
     x="0"
     y="0"
     stroke="none"
     fill="#000000"
     transform="matrix(0.05 0 0 0.05 76.3885 137.657)"
     font-style="normal"
     font-weight="bold"
     font-size="180px"
     font-family="Helvetica"
     id="text20">
H</text>
  <path
     stroke="none"
     fill="#000000"
     transform="matrix(0.05 0 0 0.05 -10 -11)"
     d="M 1533.37,3643.78 L 1533.37,3669.44 L 1279.52,3816.52 L 1268.44,3797.32 L 1533.37,3643.78 Z "
     id="path20" />
  <path
     stroke="none"
     fill="#000000"
     transform="matrix(0.05 0 0 0.05 -10 -11)"
     d="M 1538.92,3367.24 L 1527.83,3348.04 L 1782.36,3201.59 L 1804.56,3214.46 L 1538.92,3367.24 Z "
     id="path21" />
  <path
     stroke="none"
     fill="#000000"
     transform="matrix(0.05 0 0 0.05 -10 -11)"
     d="M 1516.74,3673.16 L 1494.56,3673.16 L 1494.56,3357.64 L 1516.74,3357.64 L 1516.74,3673.16 Z "
     id="path22" />
  <path
     stroke="none"
     fill="#000000"
     transform="matrix(0.05 0 0 0.05 -10 -11)"
     d="M 1572.18,3673.16 L 1550,3673.16 L 1550,3341.64 L 1572.18,3341.64 L 1572.18,3673.16 Z "
     id="path23" />
  <path
     stroke="none"
     fill="#000000"
     transform="matrix(0.05 0 0 0.05 -10 -11)"
     d="M 1798.31,3797.32 L 1787.22,3816.52 L 1533.37,3669.44 L 1533.37,3643.78 L 1798.31,3797.32 Z "
     id="path24" />
  <path
     stroke="none"
     fill="#000000"
     transform="matrix(0.05 0 0 0.05 -10 -11)"
     d="M 2817.36,3475.8 L 2059,3475.8 L 2059,3453.8 L 2817.36,3453.8 Z "
     id="path25" />
  <path
     stroke="none"
     fill="#000000"
     transform="matrix(0.05 0 0 0.05 -10 -11)"
     d="M 3010.4,3464.8 C 3010.4,3464.8 2788.64,3521.24 2788.64,3521.24 C 2788.64,3521.24 2816.36,3489.49 2816.36,3464.8 C 2816.36,3439.67 2788.64,3407.36 2788.64,3407.36 C 2788.64,3407.36 3010.4,3464.8 3010.4,3464.8 C 3010.4,3464.8 3010.4,3464.8 3010.4,3464.8 "
     id="path26" />
  <path
     stroke="#000000"
     stroke-width="1"
     fill="none"
     transform="matrix(0.05 0 0 0.05 -10 -11)"
     d="M 3010.4,3464.8 C 3010.4,3464.8 2788.64,3521.24 2788.64,3521.24 C 2788.64,3521.24 2816.36,3489.49 2816.36,3464.8 C 2816.36,3439.67 2788.64,3407.36 2788.64,3407.36 C 2788.64,3407.36 3010.4,3464.8 3010.4,3464.8 C 3010.4,3464.8 3010.4,3464.8 3010.4,3464.8 "
     id="path27" />
  <path
     stroke="none"
     fill="#000000"
     transform="matrix(0.05 0 0 0.05 -10 -11)"
     d="M 3407.77,3601.18 L 3407.77,3626.84 L 3153.92,3773.92 L 3142.84,3754.72 L 3407.77,3601.18 Z "
     id="path28" />
  <path
     stroke="none"
     fill="#000000"
     transform="matrix(0.05 0 0 0.05 -10 -11)"
     d="M 3413.72,3324.4 L 3401.82,3305.68 L 3661.21,3140.69 L 3673.12,3159.4 L 3413.72,3324.4 Z "
     id="path29" />
  <path
     stroke="none"
     fill="#000000"
     transform="matrix(0.05 0 0 0.05 -10 -11)"
     d="M 3391.14,3630.56 L 3368.96,3630.56 L 3368.96,3315.04 L 3391.14,3315.04 L 3391.14,3630.56 Z "
     id="path30" />
  <path
     stroke="none"
     fill="#000000"
     transform="matrix(0.05 0 0 0.05 -10 -11)"
     d="M 3446.58,3630.56 L 3424.4,3630.56 L 3424.4,3297.41 L 3446.58,3297.41 L 3446.58,3630.56 Z "
     id="path31" />
  <path
     stroke="none"
     fill="#000000"
     transform="matrix(0.05 0 0 0.05 -10 -11)"
     d="M 3672.71,3754.72 L 3661.62,3773.92 L 3407.77,3626.84 L 3407.77,3601.18 L 3672.71,3754.72 Z "
     id="path32" />
  <path
     stroke="none"
     fill="#000000"
     transform="matrix(0.05 0 0 0.05 -10 -11)"
     d="M 3647.01,3037.43 A 29.745,29.745 0 1 0 3706.5,3037.43A 29.745,29.745 0 1 0 3647.01,3037.43Z "
     id="path33" />
  <path
     stroke="none"
     fill="#000000"
     transform="matrix(0.05 0 0 0.05 -10 -11)"
     d="M 4444.6,3419 L 3961.8,3419 L 3961.8,3397 L 4444.6,3397 Z "
     id="path34" />
  <path
     stroke="none"
     fill="#000000"
     transform="matrix(0.05 0 0 0.05 -10 -11)"
     d="M 4455.6,2299.21 L 4455.6,3408 L 4433.6,3408 L 4433.6,2299.21 Z "
     id="path35" />
  <path
     stroke="none"
     fill="#000000"
     transform="matrix(0.05 0 0 0.05 -10 -11)"
     d="M 4734.36,2311.4 L 4444.6,2311.4 L 4444.6,2289.4 L 4734.36,2289.4 Z "
     id="path36" />
  <path
     stroke="none"
     fill="#000000"
     transform="matrix(0.05 0 0 0.05 -10 -11)"
     d="M 4927.4,2300.4 C 4927.4,2300.4 4705.64,2356.84 4705.64,2356.84 C 4705.64,2356.84 4733.36,2325.09 4733.36,2300.4 C 4733.36,2275.27 4705.64,2242.96 4705.64,2242.96 C 4705.64,2242.96 4927.4,2300.4 4927.4,2300.4 C 4927.4,2300.4 4927.4,2300.4 4927.4,2300.4 "
     id="path37" />
  <path
     stroke="#000000"
     stroke-width="1"
     fill="none"
     transform="matrix(0.05 0 0 0.05 -10 -11)"
     d="M 4927.4,2300.4 C 4927.4,2300.4 4705.64,2356.84 4705.64,2356.84 C 4705.64,2356.84 4733.36,2325.09 4733.36,2300.4 C 4733.36,2275.27 4705.64,2242.96 4705.64,2242.96 C 4705.64,2242.96 4927.4,2300.4 4927.4,2300.4 C 4927.4,2300.4 4927.4,2300.4 4927.4,2300.4 "
     id="path38" />
  <path
     stroke="none"
     fill="#000000"
     transform="matrix(0.05 0 0 0.05 -10 -11)"
     d="M 4734.36,4673.88 L 4444.6,4673.88 L 4444.6,4651.88 L 4734.36,4651.88 Z "
     id="path39" />
  <path
     stroke="none"
     fill="#000000"
     transform="matrix(0.05 0 0 0.05 -10 -11)"
     d="M 4927.4,4662.88 C 4927.4,4662.88 4705.64,4719.32 4705.64,4719.32 C 4705.64,4719.32 4733.36,4687.57 4733.36,4662.88 C 4733.36,4637.75 4705.64,4605.44 4705.64,4605.44 C 4705.64,4605.44 4927.4,4662.88 4927.4,4662.88 C 4927.4,4662.88 4927.4,4662.88 4927.4,4662.88 "
     id="path40" />
  <path
     stroke="#000000"
     stroke-width="1"
     fill="none"
     transform="matrix(0.05 0 0 0.05 -10 -11)"
     d="M 4927.4,4662.88 C 4927.4,4662.88 4705.64,4719.32 4705.64,4719.32 C 4705.64,4719.32 4733.36,4687.57 4733.36,4662.88 C 4733.36,4637.75 4705.64,4605.44 4705.64,4605.44 C 4705.64,4605.44 4927.4,4662.88 4927.4,4662.88 C 4927.4,4662.88 4927.4,4662.88 4927.4,4662.88 "
     id="path41" />
  <path
     stroke="none"
     fill="#000000"
     transform="matrix(0.05 0 0 0.05 -10 -11)"
     d="M 4433.6,4664.07 L 4433.6,3555.28 L 4455.6,3555.28 L 4455.6,4664.07 Z "
     id="path42" />
  <path
     stroke="none"
     fill="#000000"
     transform="matrix(0.05 0 0 0.05 -10 -11)"
     d="M 4444.6,3566.28 L 4154.84,3566.28 L 4154.84,3544.28 L 4444.6,3544.28 Z "
     id="path43" />
  <path
     stroke="none"
     fill="#000000"
     transform="matrix(0.05 0 0 0.05 -10 -11)"
     d="M 3961.8,3555.28 C 3961.8,3555.28 4183.56,3612.72 4183.56,3612.72 C 4183.56,3612.72 4155.84,3580.41 4155.84,3555.28 C 4155.84,3530.58 4183.56,3498.84 4183.56,3498.84 C 4183.56,3498.84 3961.8,3555.28 3961.8,3555.28 C 3961.8,3555.28 3961.8,3555.28 3961.8,3555.28 "
     id="path44" />
  <path
     stroke="#000000"
     stroke-width="1"
     fill="none"
     transform="matrix(0.05 0 0 0.05 -10 -11)"
     d="M 3961.8,3555.28 C 3961.8,3555.28 4183.56,3612.72 4183.56,3612.72 C 4183.56,3612.72 4155.84,3580.41 4155.84,3555.28 C 4155.84,3530.58 4183.56,3498.84 4183.56,3498.84 C 4183.56,3498.84 3961.8,3555.28 3961.8,3555.28 C 3961.8,3555.28 3961.8,3555.28 3961.8,3555.28 "
     id="path45" />
  <path
     stroke="none"
     fill="#000000"
     transform="matrix(0.05 0 0 0.05 -10 -11)"
     d="M 5553.36,2149.46 L 5531.16,2136.59 L 5530.48,1937.82 L 5552.65,1937.82 L 5553.36,2149.46 Z "
     id="path46" />
  <text
     x="0"
     y="0"
     stroke="none"
     fill="#0000ff"
     transform="matrix(0.05 0 0 0.05 263.828 84.4068)"
     font-style="normal"
     font-weight="bold"
     font-size="180px"
     font-family="Helvetica"
     id="text46">
Br</text>
  <path
     stroke="none"
     fill="#000000"
     transform="matrix(0.05 0 0 0.05 -10 -11)"
     d="M 5282.17,2578.78 L 5282.17,2604.44 L 5028.32,2751.52 L 5017.24,2732.32 L 5282.17,2578.78 Z "
     id="path47" />
  <path
     stroke="none"
     fill="#000000"
     transform="matrix(0.05 0 0 0.05 -10 -11)"
     d="M 5287.72,2302.24 L 5276.63,2283.04 L 5531.16,2136.59 L 5553.36,2149.46 L 5287.72,2302.24 Z "
     id="path48" />
  <path
     stroke="none"
     fill="#000000"
     transform="matrix(0.05 0 0 0.05 -10 -11)"
     d="M 5265.54,2608.16 L 5243.36,2608.16 L 5243.36,2292.64 L 5265.54,2292.64 L 5265.54,2608.16 Z "
     id="path49" />
  <path
     stroke="none"
     fill="#000000"
     transform="matrix(0.05 0 0 0.05 -10 -11)"
     d="M 5320.98,2608.16 L 5298.8,2608.16 L 5298.8,2276.64 L 5320.98,2276.64 L 5320.98,2608.16 Z "
     id="path50" />
  <path
     stroke="none"
     fill="#000000"
     transform="matrix(0.05 0 0 0.05 -10 -11)"
     d="M 5547.11,2732.32 L 5536.02,2751.52 L 5282.17,2604.44 L 5282.17,2578.78 L 5547.11,2732.32 Z "
     id="path51" />
  <path
     stroke="none"
     fill="#000000"
     transform="matrix(0.05 0 0 0.05 -10 -11)"
     d="M 5328.34,4815.42 L 5338.97,4821.56 L 5338.97,4833.84 L 5085.12,4980.92 L 5074.04,4961.72 L 5328.34,4815.42 Z "
     id="path52" />
  <path
     stroke="none"
     fill="#000000"
     transform="matrix(0.05 0 0 0.05 -10 -11)"
     d="M 5349.63,4527.9 L 5327.42,4515.71 L 5592.41,4347.69 L 5604.32,4366.4 L 5349.63,4527.9 Z "
     id="path53" />
  <path
     stroke="none"
     fill="#000000"
     transform="matrix(0.05 0 0 0.05 -10 -11)"
     d="M 5400.36,4561.84 L 5388.46,4543.12 L 5622.17,4394.47 L 5634.07,4413.18 L 5400.36,4561.84 Z "
     id="path54" />
  <path
     stroke="none"
     fill="#000000"
     transform="matrix(0.05 0 0 0.05 -10 -11)"
     d="M 5349.61,4815.42 L 5338.97,4821.56 L 5328.34,4815.42 L 5327.42,4515.71 L 5349.63,4527.9 L 5349.61,4815.42 Z "
     id="path55" />
  <path
     stroke="none"
     fill="#000000"
     transform="matrix(0.05 0 0 0.05 -10 -11)"
     d="M 5603.91,4961.72 L 5592.82,4980.92 L 5338.97,4833.84 L 5338.97,4821.56 L 5349.61,4815.42 L 5603.91,4961.72 Z "
     id="path56" />
  <path
     stroke="none"
     fill="#000000"
     transform="matrix(0.05 0 0 0.05 -10 -11)"
     d="M 5393.61,4769.83 A 29.745,29.745 0 1 0 5453.1,4769.83A 29.745,29.745 0 1 0 5393.61,4769.83Z "
     id="path57" />
  <path
     stroke="none"
     fill="#000000"
     transform="matrix(0.05 0 0 0.05 -10 -11)"
     d="M 6040.76,4654.4 L 5751,4654.4 L 5751,4632.4 L 6040.76,4632.4 Z "
     id="path58" />
  <path
     stroke="none"
     fill="#000000"
     transform="matrix(0.05 0 0 0.05 -10 -11)"
     d="M 6233.8,4643.4 C 6233.8,4643.4 6012.04,4699.84 6012.04,4699.84 C 6012.04,4699.84 6039.76,4668.09 6039.76,4643.4 C 6039.76,4618.27 6012.04,4585.96 6012.04,4585.96 C 6012.04,4585.96 6233.8,4643.4 6233.8,4643.4 C 6233.8,4643.4 6233.8,4643.4 6233.8,4643.4 "
     id="path59" />
  <path
     stroke="#000000"
     stroke-width="1"
     fill="none"
     transform="matrix(0.05 0 0 0.05 -10 -11)"
     d="M 6233.8,4643.4 C 6233.8,4643.4 6012.04,4699.84 6012.04,4699.84 C 6012.04,4699.84 6039.76,4668.09 6039.76,4643.4 C 6039.76,4618.27 6012.04,4585.96 6012.04,4585.96 C 6012.04,4585.96 6233.8,4643.4 6233.8,4643.4 C 6233.8,4643.4 6233.8,4643.4 6233.8,4643.4 "
     id="path60" />
  <path
     stroke="none"
     fill="#000000"
     transform="matrix(0.05 0 0 0.05 -10 -11)"
     d="M 6549.54,4829.62 L 6560.17,4835.76 L 6560.17,4848.04 L 6306.32,4995.12 L 6295.24,4975.92 L 6549.54,4829.62 Z "
     id="path61" />
  <path
     stroke="none"
     fill="#000000"
     transform="matrix(0.05 0 0 0.05 -10 -11)"
     d="M 6570.83,4542.1 L 6548.62,4529.91 L 6813.61,4361.89 L 6825.52,4380.6 L 6570.83,4542.1 Z "
     id="path62" />
  <path
     stroke="none"
     fill="#000000"
     transform="matrix(0.05 0 0 0.05 -10 -11)"
     d="M 6621.56,4576.04 L 6609.66,4557.32 L 6843.37,4408.67 L 6855.27,4427.38 L 6621.56,4576.04 Z "
     id="path63" />
  <path
     stroke="none"
     fill="#000000"
     transform="matrix(0.05 0 0 0.05 -10 -11)"
     d="M 6570.05,4819.47 L 6560.17,4835.76 L 6549.54,4829.62 L 6548.62,4529.91 L 6570.83,4542.1 L 6570.05,4819.47 Z "
     id="path64" />
  <path
     stroke="none"
     fill="#000000"
     transform="matrix(0.05 0 0 0.05 -10 -11)"
     d="M 6825.11,4975.92 L 6814.02,4995.12 L 6560.17,4848.04 L 6560.17,4835.76 L 6579.22,4835.34 L 6825.11,4975.92 Z "
     id="path65" />
  <text
     x="0"
     y="0"
     stroke="none"
     fill="#0000ff"
     transform="matrix(0.05 0 0 0.05 327.728 226.539)"
     font-style="normal"
     font-weight="bold"
     font-size="180px"
     font-family="Helvetica"
     id="text65">
Br</text>
  <path
     stroke="none"
     fill="#000000"
     transform="matrix(0.05 0 0 0.05 -10 -11)"
     d="M 6579.22,4835.34 L 6560.17,4835.76 L 6570.05,4819.47 L 6721.14,4730.02 L 6732.23,4749.23 L 6579.22,4835.34 Z "
     id="path66" />
  <text
     x="0"
     y="0"
     stroke="none"
     fill="#000000"
     transform="matrix(0.05 0 0 0.05 242.05 138.81)"
     font-style="italic"
     font-weight="normal"
     font-size="160px"
     font-family="Helvetica Oblique"
     id="text66">
regular</text>
  <text
     x="302.39999"
     y="251.7"
     stroke="none"
     fill="#000000"
     font-style="italic"
     font-weight="normal"
     font-size="8px"
     font-family="'Helvetica Oblique'"
     id="text67"
     style="stroke-width:0.05">rearranged</text>
  <text
     x="0"
     y="0"
     stroke="none"
     fill="#000000"
     transform="matrix(0.05 0 0 0.05 101.891 189.365)"
     font-style="italic"
     font-weight="normal"
     font-size="160px"
     font-family="Helvetica Oblique"
     id="text68">
one of the allylic radicals </text>
  <path
     stroke="none"
     fill="#000000"
     transform="matrix(0.05 0 0 0.05 -10 -11)"
     d="M 1775.95,6849.77 L 1753.73,6836.94 L 1753.28,6543.56 L 1775.45,6543.56 L 1775.95,6849.77 Z "
     id="path72" />
  <path
     stroke="none"
     fill="#000000"
     transform="matrix(0.05 0 0 0.05 -10 -11)"
     d="M 1830.89,6843.08 L 1808.72,6843.08 L 1808.72,6543.56 L 1830.89,6543.56 L 1830.89,6843.08 Z "
     id="path73" />
  <path
     stroke="none"
     fill="#000000"
     transform="matrix(0.05 0 0 0.05 -10 -11)"
     d="M 1504.97,7278.98 L 1504.97,7304.64 L 1251.12,7451.72 L 1240.04,7432.52 L 1504.97,7278.98 Z "
     id="path74" />
  <path
     stroke="none"
     fill="#000000"
     transform="matrix(0.05 0 0 0.05 -10 -11)"
     d="M 1510.52,7002.44 L 1499.43,6983.24 L 1753.73,6836.94 L 1775.95,6849.77 L 1510.52,7002.44 Z "
     id="path75" />
  <path
     stroke="none"
     fill="#000000"
     transform="matrix(0.05 0 0 0.05 -10 -11)"
     d="M 1488.34,7308.36 L 1466.16,7308.36 L 1466.16,6992.84 L 1488.34,6992.84 L 1488.34,7308.36 Z "
     id="path76" />
  <path
     stroke="none"
     fill="#000000"
     transform="matrix(0.05 0 0 0.05 -10 -11)"
     d="M 1543.78,7308.36 L 1521.6,7308.36 L 1521.6,6976.84 L 1543.78,6976.84 L 1543.78,7308.36 Z "
     id="path77" />
  <path
     stroke="none"
     fill="#000000"
     transform="matrix(0.05 0 0 0.05 -10 -11)"
     d="M 1769.91,7432.52 L 1758.82,7451.72 L 1504.97,7304.64 L 1504.97,7278.98 L 1769.91,7432.52 Z "
     id="path78" />
  <text
     x="0"
     y="0"
     stroke="none"
     fill="#000000"
     transform="matrix(0.05 0 0 0.05 100.219 339.53)"
     font-style="normal"
     font-weight="bold"
     font-size="200px"
     font-family="Helvetica"
     id="text78">
HBr</text>
  <path
     stroke="none"
     fill="#000000"
     transform="matrix(0.05 0 0 0.05 -10 -11)"
     d="M 2717.96,7182 L 1959.6,7182 L 1959.6,7160 L 2717.96,7160 Z "
     id="path79" />
  <path
     stroke="none"
     fill="#000000"
     transform="matrix(0.05 0 0 0.05 -10 -11)"
     d="M 2911,7171 C 2911,7171 2689.24,7227.44 2689.24,7227.44 C 2689.24,7227.44 2716.96,7195.69 2716.96,7171 C 2716.96,7145.87 2689.24,7113.56 2689.24,7113.56 C 2689.24,7113.56 2911,7171 2911,7171 C 2911,7171 2911,7171 2911,7171 "
     id="path80" />
  <path
     stroke="#000000"
     stroke-width="1"
     fill="none"
     transform="matrix(0.05 0 0 0.05 -10 -11)"
     d="M 2911,7171 C 2911,7171 2689.24,7227.44 2689.24,7227.44 C 2689.24,7227.44 2716.96,7195.69 2716.96,7171 C 2716.96,7145.87 2689.24,7113.56 2689.24,7113.56 C 2689.24,7113.56 2911,7171 2911,7171 C 2911,7171 2911,7171 2911,7171 "
     id="path81" />
  <path
     stroke="none"
     fill="#000000"
     transform="matrix(0.05 0 0 0.05 -10 -11)"
     d="M 3522.55,6849.77 L 3500.33,6836.94 L 3499.88,6543.56 L 3522.05,6543.56 L 3522.55,6849.77 Z "
     id="path82" />
  <path
     stroke="none"
     fill="#000000"
     transform="matrix(0.05 0 0 0.05 -10 -11)"
     d="M 3251.57,7278.98 L 3251.57,7304.64 L 2997.72,7451.72 L 2986.64,7432.52 L 3251.57,7278.98 Z "
     id="path83" />
  <path
     stroke="none"
     fill="#000000"
     transform="matrix(0.05 0 0 0.05 -10 -11)"
     d="M 3257.12,7002.44 L 3246.03,6983.24 L 3500.33,6836.94 L 3522.55,6849.77 L 3257.12,7002.44 Z "
     id="path84" />
  <path
     stroke="none"
     fill="#000000"
     transform="matrix(0.05 0 0 0.05 -10 -11)"
     d="M 3234.94,7308.36 L 3212.76,7308.36 L 3212.76,6992.84 L 3234.94,6992.84 L 3234.94,7308.36 Z "
     id="path85" />
  <path
     stroke="none"
     fill="#000000"
     transform="matrix(0.05 0 0 0.05 -10 -11)"
     d="M 3290.38,7308.36 L 3268.2,7308.36 L 3268.2,6976.84 L 3290.38,6976.84 L 3290.38,7308.36 Z "
     id="path86" />
  <path
     stroke="none"
     fill="#000000"
     transform="matrix(0.05 0 0 0.05 -10 -11)"
     d="M 3516.51,7432.52 L 3505.42,7451.72 L 3251.57,7304.64 L 3251.57,7278.98 L 3516.51,7432.52 Z "
     id="path87" />
  <path
     stroke="#000000"
     stroke-width="18"
     fill="none"
     transform="matrix(0.05 0 0 0.05 -10 -11)"
     d="M 3561.77,6885.18 A 68.8704,68.8704 0 1 0 3699.51,6885.18A 68.8704,68.8704 0 1 0 3561.77,6885.18Z "
     id="path88" />
  <path
     stroke="none"
     fill="#000000"
     transform="matrix(0.05 0 0 0.05 -10 -11)"
     d="M 3589.55,6876.18 L 3671.73,6876.18 L 3671.73,6894.18 L 3589.55,6894.18 Z "
     id="path89" />
  <path
     stroke="none"
     fill="#000000"
     transform="matrix(0.05 0 0 0.05 -10 -11)"
     d="M 3639.64,6844.09 L 3639.64,6926.27 L 3621.64,6926.27 L 3621.64,6844.09 Z "
     id="path90" />
  <text
     x="0"
     y="0"
     stroke="none"
     fill="#000000"
     transform="matrix(0.05 0 0 0.05 89.8211 375.385)"
     font-style="italic"
     font-weight="normal"
     font-size="160px"
     font-family="Helvetica Oblique"
     id="text90">
one of the allylic cations</text>
  <path
     stroke="none"
     fill="#000000"
     transform="matrix(0.05 0 0 0.05 -10 -11)"
     d="M 4373.6,7196.2 L 3890.8,7196.2 L 3890.8,7174.2 L 4373.6,7174.2 Z "
     id="path94" />
  <path
     stroke="none"
     fill="#000000"
     transform="matrix(0.05 0 0 0.05 -10 -11)"
     d="M 4384.6,6076.41 L 4384.6,7185.2 L 4362.6,7185.2 L 4362.6,6076.41 Z "
     id="path95" />
  <path
     stroke="none"
     fill="#000000"
     transform="matrix(0.05 0 0 0.05 -10 -11)"
     d="M 4663.36,6088.6 L 4373.6,6088.6 L 4373.6,6066.6 L 4663.36,6066.6 Z "
     id="path96" />
  <path
     stroke="none"
     fill="#000000"
     transform="matrix(0.05 0 0 0.05 -10 -11)"
     d="M 4856.4,6077.6 C 4856.4,6077.6 4634.64,6134.04 4634.64,6134.04 C 4634.64,6134.04 4662.36,6102.29 4662.36,6077.6 C 4662.36,6052.47 4634.64,6020.16 4634.64,6020.16 C 4634.64,6020.16 4856.4,6077.6 4856.4,6077.6 C 4856.4,6077.6 4856.4,6077.6 4856.4,6077.6 "
     id="path97" />
  <path
     stroke="#000000"
     stroke-width="1"
     fill="none"
     transform="matrix(0.05 0 0 0.05 -10 -11)"
     d="M 4856.4,6077.6 C 4856.4,6077.6 4634.64,6134.04 4634.64,6134.04 C 4634.64,6134.04 4662.36,6102.29 4662.36,6077.6 C 4662.36,6052.47 4634.64,6020.16 4634.64,6020.16 C 4634.64,6020.16 4856.4,6077.6 4856.4,6077.6 C 4856.4,6077.6 4856.4,6077.6 4856.4,6077.6 "
     id="path98" />
  <path
     stroke="none"
     fill="#000000"
     transform="matrix(0.05 0 0 0.05 -10 -11)"
     d="M 4663.36,8451.08 L 4373.6,8451.08 L 4373.6,8429.08 L 4663.36,8429.08 Z "
     id="path99" />
  <path
     stroke="none"
     fill="#000000"
     transform="matrix(0.05 0 0 0.05 -10 -11)"
     d="M 4856.4,8440.08 C 4856.4,8440.08 4634.64,8496.52 4634.64,8496.52 C 4634.64,8496.52 4662.36,8464.77 4662.36,8440.08 C 4662.36,8414.95 4634.64,8382.64 4634.64,8382.64 C 4634.64,8382.64 4856.4,8440.08 4856.4,8440.08 C 4856.4,8440.08 4856.4,8440.08 4856.4,8440.08 "
     id="path100" />
  <path
     stroke="#000000"
     stroke-width="1"
     fill="none"
     transform="matrix(0.05 0 0 0.05 -10 -11)"
     d="M 4856.4,8440.08 C 4856.4,8440.08 4634.64,8496.52 4634.64,8496.52 C 4634.64,8496.52 4662.36,8464.77 4662.36,8440.08 C 4662.36,8414.95 4634.64,8382.64 4634.64,8382.64 C 4634.64,8382.64 4856.4,8440.08 4856.4,8440.08 C 4856.4,8440.08 4856.4,8440.08 4856.4,8440.08 "
     id="path101" />
  <path
     stroke="none"
     fill="#000000"
     transform="matrix(0.05 0 0 0.05 -10 -11)"
     d="M 4362.6,8441.27 L 4362.6,7332.48 L 4384.6,7332.48 L 4384.6,8441.27 Z "
     id="path102" />
  <path
     stroke="none"
     fill="#000000"
     transform="matrix(0.05 0 0 0.05 -10 -11)"
     d="M 4373.6,7343.48 L 4083.84,7343.48 L 4083.84,7321.48 L 4373.6,7321.48 Z "
     id="path103" />
  <path
     stroke="none"
     fill="#000000"
     transform="matrix(0.05 0 0 0.05 -10 -11)"
     d="M 3890.8,7332.48 C 3890.8,7332.48 4112.56,7389.92 4112.56,7389.92 C 4112.56,7389.92 4084.84,7357.61 4084.84,7332.48 C 4084.84,7307.78 4112.56,7276.04 4112.56,7276.04 C 4112.56,7276.04 3890.8,7332.48 3890.8,7332.48 C 3890.8,7332.48 3890.8,7332.48 3890.8,7332.48 "
     id="path104" />
  <path
     stroke="#000000"
     stroke-width="1"
     fill="none"
     transform="matrix(0.05 0 0 0.05 -10 -11)"
     d="M 3890.8,7332.48 C 3890.8,7332.48 4112.56,7389.92 4112.56,7389.92 C 4112.56,7389.92 4084.84,7357.61 4084.84,7332.48 C 4084.84,7307.78 4112.56,7276.04 4112.56,7276.04 C 4112.56,7276.04 3890.8,7332.48 3890.8,7332.48 C 3890.8,7332.48 3890.8,7332.48 3890.8,7332.48 "
     id="path105" />
  <path
     stroke="none"
     fill="#000000"
     transform="matrix(0.05 0 0 0.05 -10 -11)"
     d="M 5581.05,8135.28 L 5558.88,8135.28 L 5558.88,7835.76 L 5581.05,7835.76 L 5581.05,8135.28 Z "
     id="path106" />
  <path
     stroke="none"
     fill="#000000"
     transform="matrix(0.05 0 0 0.05 -10 -11)"
     d="M 5299.94,8578.42 L 5310.57,8584.56 L 5310.57,8596.84 L 5056.72,8743.92 L 5045.64,8724.72 L 5299.94,8578.42 Z "
     id="path107" />
  <path
     stroke="none"
     fill="#000000"
     transform="matrix(0.05 0 0 0.05 -10 -11)"
     d="M 5302.26,8270.64 L 5291.17,8251.43 L 5564.42,8093.67 L 5575.51,8112.87 L 5302.26,8270.64 Z "
     id="path108" />
  <path
     stroke="none"
     fill="#000000"
     transform="matrix(0.05 0 0 0.05 -10 -11)"
     d="M 5316.12,8326.65 L 5305.03,8307.45 L 5578.28,8149.68 L 5589.37,8168.89 L 5316.12,8326.65 Z "
     id="path109" />
  <path
     stroke="none"
     fill="#000000"
     transform="matrix(0.05 0 0 0.05 -10 -11)"
     d="M 5321.21,8578.42 L 5310.57,8584.56 L 5299.94,8578.42 L 5299.48,8285.04 L 5321.66,8285.04 L 5321.21,8578.42 Z "
     id="path110" />
  <path
     stroke="none"
     fill="#000000"
     transform="matrix(0.05 0 0 0.05 -10 -11)"
     d="M 5575.51,8724.72 L 5564.42,8743.92 L 5310.57,8596.84 L 5310.57,8584.56 L 5321.21,8578.42 L 5575.51,8724.72 Z "
     id="path111" />
  <path
     stroke="#000000"
     stroke-width="18"
     fill="none"
     transform="matrix(0.05 0 0 0.05 -10 -11)"
     d="M 5379.37,8518.18 A 68.8704,68.8704 0 1 0 5517.11,8518.18A 68.8704,68.8704 0 1 0 5379.37,8518.18Z "
     id="path112" />
  <path
     stroke="none"
     fill="#000000"
     transform="matrix(0.05 0 0 0.05 -10 -11)"
     d="M 5407.15,8509.18 L 5489.33,8509.18 L 5489.33,8527.18 L 5407.15,8527.18 Z "
     id="path113" />
  <path
     stroke="none"
     fill="#000000"
     transform="matrix(0.05 0 0 0.05 -10 -11)"
     d="M 5457.24,8477.09 L 5457.24,8559.27 L 5439.24,8559.27 L 5439.24,8477.09 Z "
     id="path114" />
  <path
     stroke="none"
     fill="#000000"
     transform="matrix(0.05 0 0 0.05 -10 -11)"
     d="M 6069.16,8460 L 5779.4,8460 L 5779.4,8438 L 6069.16,8438 Z "
     id="path115" />
  <path
     stroke="none"
     fill="#000000"
     transform="matrix(0.05 0 0 0.05 -10 -11)"
     d="M 6262.2,8449 C 6262.2,8449 6040.44,8505.44 6040.44,8505.44 C 6040.44,8505.44 6068.16,8473.69 6068.16,8449 C 6068.16,8423.87 6040.44,8391.56 6040.44,8391.56 C 6040.44,8391.56 6262.2,8449 6262.2,8449 C 6262.2,8449 6262.2,8449 6262.2,8449 "
     id="path116" />
  <path
     stroke="#000000"
     stroke-width="1"
     fill="none"
     transform="matrix(0.05 0 0 0.05 -10 -11)"
     d="M 6262.2,8449 C 6262.2,8449 6040.44,8505.44 6040.44,8505.44 C 6040.44,8505.44 6068.16,8473.69 6068.16,8449 C 6068.16,8423.87 6040.44,8391.56 6040.44,8391.56 C 6040.44,8391.56 6262.2,8449 6262.2,8449 C 6262.2,8449 6262.2,8449 6262.2,8449 "
     id="path117" />
  <text
     x="0"
     y="0"
     stroke="none"
     fill="#000000"
     transform="matrix(0.05 0 0 0.05 305.24 439.85)"
     font-style="italic"
     font-weight="normal"
     font-size="160px"
     font-family="Helvetica Oblique"
     id="text117">
rearranged</text>
  <path
     stroke="none"
     fill="#000000"
     transform="matrix(0.05 0 0 0.05 -10 -11)"
     d="M 6648.94,8521.62 L 6659.57,8527.76 L 6659.57,8540.04 L 6405.72,8687.12 L 6394.64,8667.92 L 6648.94,8521.62 Z "
     id="path118" />
  <path
     stroke="none"
     fill="#000000"
     transform="matrix(0.05 0 0 0.05 -10 -11)"
     d="M 6650.65,8214.21 L 6638.74,8195.49 L 6913.01,8021.03 L 6924.91,8039.75 L 6650.65,8214.21 Z "
     id="path119" />
  <path
     stroke="none"
     fill="#000000"
     transform="matrix(0.05 0 0 0.05 -10 -11)"
     d="M 6665.52,8270.45 L 6653.62,8251.74 L 6927.89,8077.28 L 6939.79,8095.99 L 6665.52,8270.45 Z "
     id="path120" />
  <path
     stroke="none"
     fill="#000000"
     transform="matrix(0.05 0 0 0.05 -10 -11)"
     d="M 6669.46,8511.48 L 6659.57,8527.76 L 6648.94,8521.62 L 6648.48,8228.24 L 6670.66,8228.24 L 6669.46,8511.48 Z "
     id="path121" />
  <path
     stroke="none"
     fill="#000000"
     transform="matrix(0.05 0 0 0.05 -10 -11)"
     d="M 6924.51,8667.92 L 6913.42,8687.12 L 6659.57,8540.04 L 6659.57,8527.76 L 6678.61,8527.34 L 6924.51,8667.92 Z "
     id="path122" />
  <text
     x="0"
     y="0"
     stroke="none"
     fill="#0000ff"
     transform="matrix(0.05 0 0 0.05 332.698 411.139)"
     font-style="normal"
     font-weight="bold"
     font-size="180px"
     font-family="Helvetica"
     id="text122">
Br</text>
  <path
     stroke="none"
     fill="#000000"
     transform="matrix(0.05 0 0 0.05 -10 -11)"
     d="M 6678.61,8527.34 L 6659.57,8527.76 L 6669.46,8511.48 L 6819.79,8422.46 L 6830.88,8441.66 L 6678.61,8527.34 Z "
     id="path123" />
  <path
     stroke="none"
     fill="#000000"
     transform="matrix(0.05 0 0 0.05 -10 -11)"
     d="M 6930.05,8063.24 L 6907.88,8063.24 L 6907.88,7763.72 L 6930.05,7763.72 L 6930.05,8063.24 Z "
     id="path124" />
  <path
     stroke="none"
     fill="#000000"
     transform="matrix(0.05 0 0 0.05 -10 -11)"
     d="M 5527.67,5818.61 L 5527.36,5806.48 L 5538.02,5800.67 L 5699.18,5892.87 L 5688.09,5912.08 L 5527.67,5818.61 Z "
     id="path125" />
  <text
     x="0"
     y="0"
     stroke="none"
     fill="#0000ff"
     transform="matrix(0.05 0 0 0.05 276.088 290.051)"
     font-style="normal"
     font-weight="bold"
     font-size="180px"
     font-family="Helvetica"
     id="text125">
Br</text>
  <path
     stroke="none"
     fill="#000000"
     transform="matrix(0.05 0 0 0.05 -10 -11)"
     d="M 5267.97,6242.38 L 5267.97,6268.04 L 5014.12,6415.12 L 5003.04,6395.92 L 5267.97,6242.38 Z "
     id="path126" />
  <path
     stroke="none"
     fill="#000000"
     transform="matrix(0.05 0 0 0.05 -10 -11)"
     d="M 5273.52,5965.84 L 5262.43,5946.64 L 5516.73,5800.34 L 5527.36,5806.48 L 5527.67,5818.61 L 5273.52,5965.84 Z "
     id="path127" />
  <path
     stroke="none"
     fill="#000000"
     transform="matrix(0.05 0 0 0.05 -10 -11)"
     d="M 5251.34,6271.76 L 5229.16,6271.76 L 5229.16,5956.24 L 5251.34,5956.24 L 5251.34,6271.76 Z "
     id="path128" />
  <path
     stroke="none"
     fill="#000000"
     transform="matrix(0.05 0 0 0.05 -10 -11)"
     d="M 5306.78,6271.76 L 5284.6,6271.76 L 5284.6,5940.24 L 5306.78,5940.24 L 5306.78,6271.76 Z "
     id="path129" />
  <path
     stroke="none"
     fill="#000000"
     transform="matrix(0.05 0 0 0.05 -10 -11)"
     d="M 5532.91,6395.92 L 5521.82,6415.12 L 5267.97,6268.04 L 5267.97,6242.38 L 5532.91,6395.92 Z "
     id="path130" />
  <text
     x="0"
     y="0"
     stroke="none"
     fill="#000000"
     transform="matrix(0.05 0 0 0.05 241.34 321.99)"
     font-style="italic"
     font-weight="normal"
     font-size="160px"
     font-family="Helvetica Oblique"
     id="text130">
regular</text>
  <path
     stroke="none"
     fill="#000000"
     transform="matrix(0.05 0 0 0.05 -10 -11)"
     d="M 5538.02,5800.67 L 5527.36,5806.48 L 5516.73,5800.34 L 5516.28,5506.96 L 5538.45,5506.96 L 5538.02,5800.67 Z "
     id="path131" />
  <path
     stroke="none"
     fill="#000000"
     transform="matrix(0.05 0 0 0.05 -10 -11)"
     d="M 9514.88,5828.74 L 9504.25,5834.88 L 9493.6,5828.93 L 9493.16,5535.36 L 9515.33,5535.36 L 9514.88,5828.74 Z "
     id="path132" />
  <text
     x="0"
     y="0"
     stroke="none"
     fill="#000000"
     transform="matrix(0.05 0 0 0.05 465.955 323.41)"
     font-style="italic"
     font-weight="normal"
     font-size="160px"
     font-family="Helvetica Oblique"
     id="text132">
regular</text>
  <path
     stroke="none"
     fill="#000000"
     transform="matrix(0.05 0 0 0.05 -10 -11)"
     d="M 9509.79,6443.52 L 9498.7,6424.32 L 9763.64,6270.78 L 9763.64,6296.44 L 9509.79,6443.52 Z "
     id="path133" />
  <path
     stroke="none"
     fill="#000000"
     transform="matrix(0.05 0 0 0.05 -10 -11)"
     d="M 9747.01,6300.16 L 9724.83,6300.16 L 9724.83,5968.64 L 9747.01,5968.64 L 9747.01,6300.16 Z "
     id="path134" />
  <path
     stroke="none"
     fill="#000000"
     transform="matrix(0.05 0 0 0.05 -10 -11)"
     d="M 9802.45,6300.16 L 9780.27,6300.16 L 9780.27,5984.64 L 9802.45,5984.64 L 9802.45,6300.16 Z "
     id="path135" />
  <path
     stroke="none"
     fill="#000000"
     transform="matrix(0.05 0 0 0.05 -10 -11)"
     d="M 9769.18,5975.04 L 9758.09,5994.24 L 9504.07,5847.07 L 9504.25,5834.88 L 9514.88,5828.74 L 9769.18,5975.04 Z "
     id="path136" />
  <path
     stroke="none"
     fill="#000000"
     transform="matrix(0.05 0 0 0.05 -10 -11)"
     d="M 9763.64,6296.44 L 9763.64,6270.78 L 10028.6,6424.32 L 10017.5,6443.52 L 9763.64,6296.44 Z "
     id="path137" />
  <text
     x="0"
     y="0"
     stroke="none"
     fill="#0000ff"
     transform="matrix(0.05 0 0 0.05 443.992 291.471)"
     font-style="normal"
     font-weight="bold"
     font-size="180px"
     font-family="Helvetica"
     id="text137">
Br</text>
  <path
     stroke="none"
     fill="#000000"
     transform="matrix(0.05 0 0 0.05 -10 -11)"
     d="M 9493.6,5828.93 L 9504.25,5834.88 L 9504.07,5847.07 L 9314.56,5957.2 L 9303.48,5937.99 L 9493.6,5828.93 Z "
     id="path138" />
  <path
     stroke="none"
     fill="#000000"
     transform="matrix(0.05 0 0 0.05 -10 -11)"
     d="M 8123.73,8091.64 L 8101.56,8091.64 L 8101.56,7792.12 L 8123.73,7792.12 L 8123.73,8091.64 Z "
     id="path139" />
  <path
     stroke="none"
     fill="#000000"
     transform="matrix(0.05 0 0 0.05 -10 -11)"
     d="M 8362.19,8539.44 L 8372.04,8556.16 L 8352.63,8555.99 L 8155.02,8443.67 L 8166.11,8424.46 L 8362.19,8539.44 Z "
     id="path140" />
  <text
     x="0"
     y="0"
     stroke="none"
     fill="#0000ff"
     transform="matrix(0.05 0 0 0.05 387.382 412.559)"
     font-style="normal"
     font-weight="bold"
     font-size="180px"
     font-family="Helvetica"
     id="text140">
Br</text>
  <path
     stroke="none"
     fill="#000000"
     transform="matrix(0.05 0 0 0.05 -10 -11)"
     d="M 8118.19,8715.52 L 8107.1,8696.32 L 8352.63,8555.99 L 8372.04,8556.16 L 8372.04,8568.44 L 8118.19,8715.52 Z "
     id="path141" />
  <path
     stroke="none"
     fill="#000000"
     transform="matrix(0.05 0 0 0.05 -10 -11)"
     d="M 8382.67,8550.02 L 8372.04,8556.16 L 8362.19,8539.44 L 8360.95,8256.64 L 8383.13,8256.64 L 8382.67,8550.02 Z "
     id="path142" />
  <path
     stroke="none"
     fill="#000000"
     transform="matrix(0.05 0 0 0.05 -10 -11)"
     d="M 8377.99,8280.14 L 8366.09,8298.85 L 8091.82,8124.39 L 8103.72,8105.68 L 8377.99,8280.14 Z "
     id="path143" />
  <path
     stroke="none"
     fill="#000000"
     transform="matrix(0.05 0 0 0.05 -10 -11)"
     d="M 8392.87,8223.89 L 8380.97,8242.61 L 8106.7,8068.15 L 8118.6,8049.43 L 8392.87,8223.89 Z "
     id="path144" />
  <path
     stroke="none"
     fill="#000000"
     transform="matrix(0.05 0 0 0.05 -10 -11)"
     d="M 8372.04,8568.44 L 8372.04,8556.16 L 8382.67,8550.02 L 8636.97,8696.32 L 8625.89,8715.52 L 8372.04,8568.44 Z "
     id="path145" />
  <text
     x="0"
     y="0"
     stroke="none"
     fill="#000000"
     transform="matrix(0.05 0 0 0.05 387.821 441.27)"
     font-style="italic"
     font-weight="normal"
     font-size="160px"
     font-family="Helvetica Oblique"
     id="text145">
rearranged</text>
  <path
     stroke="none"
     fill="#000000"
     transform="matrix(0.05 0 0 0.05 -10 -11)"
     d="M 8962.45,8466.4 L 9252.21,8466.4 L 9252.21,8488.4 L 8962.45,8488.4 Z "
     id="path146" />
  <path
     stroke="none"
     fill="#000000"
     transform="matrix(0.05 0 0 0.05 -10 -11)"
     d="M 8769.41,8477.4 C 8769.41,8477.4 8991.17,8419.96 8991.17,8419.96 C 8991.17,8419.96 8963.45,8452.27 8963.45,8477.4 C 8963.45,8502.09 8991.17,8533.84 8991.17,8533.84 C 8991.17,8533.84 8769.41,8477.4 8769.41,8477.4 C 8769.41,8477.4 8769.41,8477.4 8769.41,8477.4 "
     id="path147" />
  <path
     stroke="#000000"
     stroke-width="1"
     fill="none"
     transform="matrix(0.05 0 0 0.05 -10 -11)"
     d="M 8769.41,8477.4 C 8769.41,8477.4 8991.17,8419.96 8991.17,8419.96 C 8991.17,8419.96 8963.45,8452.27 8963.45,8477.4 C 8963.45,8502.09 8991.17,8533.84 8991.17,8533.84 C 8991.17,8533.84 8769.41,8477.4 8769.41,8477.4 C 8769.41,8477.4 8769.41,8477.4 8769.41,8477.4 "
     id="path148" />
  <path
     stroke="#000000"
     stroke-width="18"
     fill="none"
     transform="matrix(0.05 0 0 0.05 -10 -11)"
     d="M 9514.5,8546.58 A 68.8704,68.8704 0 1 0 9652.24,8546.58A 68.8704,68.8704 0 1 0 9514.5,8546.58Z "
     id="path149" />
  <path
     stroke="none"
     fill="#000000"
     transform="matrix(0.05 0 0 0.05 -10 -11)"
     d="M 9542.28,8537.58 L 9624.46,8537.58 L 9624.46,8555.58 L 9542.28,8555.58 Z "
     id="path150" />
  <path
     stroke="none"
     fill="#000000"
     transform="matrix(0.05 0 0 0.05 -10 -11)"
     d="M 9592.37,8505.49 L 9592.37,8587.67 L 9574.37,8587.67 L 9574.37,8505.49 Z "
     id="path151" />
  <path
     stroke="none"
     fill="#000000"
     transform="matrix(0.05 0 0 0.05 -10 -11)"
     d="M 9467.19,8772.32 L 9456.1,8753.12 L 9710.41,8606.82 L 9721.04,8612.96 L 9721.04,8625.24 L 9467.19,8772.32 Z "
     id="path152" />
  <path
     stroke="none"
     fill="#000000"
     transform="matrix(0.05 0 0 0.05 -10 -11)"
     d="M 9731.67,8606.82 L 9721.04,8612.96 L 9710.41,8606.82 L 9709.95,8313.44 L 9732.13,8313.44 L 9731.67,8606.82 Z "
     id="path153" />
  <path
     stroke="none"
     fill="#000000"
     transform="matrix(0.05 0 0 0.05 -10 -11)"
     d="M 9726.58,8335.85 L 9715.5,8355.05 L 9442.24,8197.29 L 9453.33,8178.08 L 9726.58,8335.85 Z "
     id="path154" />
  <path
     stroke="none"
     fill="#000000"
     transform="matrix(0.05 0 0 0.05 -10 -11)"
     d="M 9740.44,8279.83 L 9729.36,8299.04 L 9456.1,8141.27 L 9467.19,8122.07 L 9740.44,8279.83 Z "
     id="path155" />
  <path
     stroke="none"
     fill="#000000"
     transform="matrix(0.05 0 0 0.05 -10 -11)"
     d="M 9721.04,8625.24 L 9721.04,8612.96 L 9731.67,8606.82 L 9985.97,8753.12 L 9974.89,8772.32 L 9721.04,8625.24 Z "
     id="path156" />
  <path
     stroke="none"
     fill="#000000"
     transform="matrix(0.05 0 0 0.05 -10 -11)"
     d="M 9472.73,8163.68 L 9450.56,8163.68 L 9450.56,7864.16 L 9472.73,7864.16 L 9472.73,8163.68 Z "
     id="path157" />
  <path
     stroke="none"
     fill="#000000"
     transform="matrix(0.05 0 0 0.05 -10 -11)"
     d="M 10658,7349.88 L 10947.8,7349.88 L 10947.8,7371.88 L 10658,7371.88 Z "
     id="path158" />
  <path
     stroke="none"
     fill="#000000"
     transform="matrix(0.05 0 0 0.05 -10 -11)"
     d="M 11140.8,7360.88 C 11140.8,7360.88 10919.1,7304.44 10919.1,7304.44 C 10919.1,7304.44 10946.8,7336.18 10946.8,7360.88 C 10946.8,7386.01 10919.1,7418.32 10919.1,7418.32 C 10919.1,7418.32 11140.8,7360.88 11140.8,7360.88 C 11140.8,7360.88 11140.8,7360.88 11140.8,7360.88 "
     id="path159" />
  <path
     stroke="#000000"
     stroke-width="1"
     fill="none"
     transform="matrix(0.05 0 0 0.05 -10 -11)"
     d="M 11140.8,7360.88 C 11140.8,7360.88 10919.1,7304.44 10919.1,7304.44 C 10919.1,7304.44 10946.8,7336.18 10946.8,7360.88 C 10946.8,7386.01 10919.1,7418.32 10919.1,7418.32 C 10919.1,7418.32 11140.8,7360.88 11140.8,7360.88 C 11140.8,7360.88 11140.8,7360.88 11140.8,7360.88 "
     id="path160" />
  <path
     stroke="none"
     fill="#000000"
     transform="matrix(0.05 0 0 0.05 -10 -11)"
     d="M 10647,8469.67 L 10647,7360.88 L 10669,7360.88 L 10669,8469.67 Z "
     id="path161" />
  <path
     stroke="none"
     fill="#000000"
     transform="matrix(0.05 0 0 0.05 -10 -11)"
     d="M 10368.3,8457.48 L 10658,8457.48 L 10658,8479.48 L 10368.3,8479.48 Z "
     id="path162" />
  <path
     stroke="none"
     fill="#000000"
     transform="matrix(0.05 0 0 0.05 -10 -11)"
     d="M 10175.2,8468.48 C 10175.2,8468.48 10397,8411.04 10397,8411.04 C 10397,8411.04 10369.3,8443.35 10369.3,8468.48 C 10369.3,8493.17 10397,8524.92 10397,8524.92 C 10397,8524.92 10175.2,8468.48 10175.2,8468.48 C 10175.2,8468.48 10175.2,8468.48 10175.2,8468.48 "
     id="path163" />
  <path
     stroke="#000000"
     stroke-width="1"
     fill="none"
     transform="matrix(0.05 0 0 0.05 -10 -11)"
     d="M 10175.2,8468.48 C 10175.2,8468.48 10397,8411.04 10397,8411.04 C 10397,8411.04 10369.3,8443.35 10369.3,8468.48 C 10369.3,8493.17 10397,8524.92 10397,8524.92 C 10397,8524.92 10175.2,8468.48 10175.2,8468.48 C 10175.2,8468.48 10175.2,8468.48 10175.2,8468.48 "
     id="path164" />
  <path
     stroke="none"
     fill="#000000"
     transform="matrix(0.05 0 0 0.05 -10 -11)"
     d="M 10368.3,6095 L 10658,6095 L 10658,6117 L 10368.3,6117 Z "
     id="path165" />
  <path
     stroke="none"
     fill="#000000"
     transform="matrix(0.05 0 0 0.05 -10 -11)"
     d="M 10175.2,6106 C 10175.2,6106 10397,6048.56 10397,6048.56 C 10397,6048.56 10369.3,6080.87 10369.3,6106 C 10369.3,6130.69 10397,6162.44 10397,6162.44 C 10397,6162.44 10175.2,6106 10175.2,6106 C 10175.2,6106 10175.2,6106 10175.2,6106 "
     id="path166" />
  <path
     stroke="#000000"
     stroke-width="1"
     fill="none"
     transform="matrix(0.05 0 0 0.05 -10 -11)"
     d="M 10175.2,6106 C 10175.2,6106 10397,6048.56 10397,6048.56 C 10397,6048.56 10369.3,6080.87 10369.3,6106 C 10369.3,6130.69 10397,6162.44 10397,6162.44 C 10397,6162.44 10175.2,6106 10175.2,6106 C 10175.2,6106 10175.2,6106 10175.2,6106 "
     id="path167" />
  <path
     stroke="none"
     fill="#000000"
     transform="matrix(0.05 0 0 0.05 -10 -11)"
     d="M 10669,6104.81 L 10669,7213.6 L 10647,7213.6 L 10647,6104.81 Z "
     id="path168" />
  <path
     stroke="none"
     fill="#000000"
     transform="matrix(0.05 0 0 0.05 -10 -11)"
     d="M 10658,7202.6 L 11140.8,7202.6 L 11140.8,7224.6 L 10658,7224.6 Z "
     id="path169" />
  <path
     stroke="#000000"
     stroke-width="18"
     fill="none"
     transform="matrix(0.05 0 0 0.05 -10 -11)"
     d="M 11332.1,6913.58 A 68.8704,68.8704 0 1 0 11469.8,6913.58A 68.8704,68.8704 0 1 0 11332.1,6913.58Z "
     id="path170" />
  <path
     stroke="none"
     fill="#000000"
     transform="matrix(0.05 0 0 0.05 -10 -11)"
     d="M 11359.9,6904.58 L 11442.1,6904.58 L 11442.1,6922.58 L 11359.9,6922.58 Z "
     id="path171" />
  <path
     stroke="none"
     fill="#000000"
     transform="matrix(0.05 0 0 0.05 -10 -11)"
     d="M 11410,6872.49 L 11410,6954.67 L 11392,6954.67 L 11392,6872.49 Z "
     id="path172" />
  <path
     stroke="none"
     fill="#000000"
     transform="matrix(0.05 0 0 0.05 -10 -11)"
     d="M 11526.2,7480.12 L 11515.1,7460.92 L 11780,7307.38 L 11780,7333.04 L 11526.2,7480.12 Z "
     id="path173" />
  <path
     stroke="none"
     fill="#000000"
     transform="matrix(0.05 0 0 0.05 -10 -11)"
     d="M 11763.4,7336.76 L 11741.2,7336.76 L 11741.2,7005.24 L 11763.4,7005.24 L 11763.4,7336.76 Z "
     id="path174" />
  <path
     stroke="none"
     fill="#000000"
     transform="matrix(0.05 0 0 0.05 -10 -11)"
     d="M 11818.8,7336.76 L 11796.7,7336.76 L 11796.7,7021.24 L 11818.8,7021.24 L 11818.8,7336.76 Z "
     id="path175" />
  <path
     stroke="none"
     fill="#000000"
     transform="matrix(0.05 0 0 0.05 -10 -11)"
     d="M 11785.6,7011.64 L 11774.5,7030.84 L 11509.1,6878.17 L 11531.3,6865.34 L 11785.6,7011.64 Z "
     id="path176" />
  <path
     stroke="none"
     fill="#000000"
     transform="matrix(0.05 0 0 0.05 -10 -11)"
     d="M 11780,7333.04 L 11780,7307.38 L 12045,7460.92 L 12033.9,7480.12 L 11780,7333.04 Z "
     id="path177" />
  <path
     stroke="none"
     fill="#000000"
     transform="matrix(0.05 0 0 0.05 -10 -11)"
     d="M 11531.3,6865.34 L 11509.1,6878.17 L 11509.6,6571.96 L 11531.7,6571.96 L 11531.3,6865.34 Z "
     id="path178" />
  <path
     stroke="none"
     fill="#000000"
     transform="matrix(0.05 0 0 0.05 -10 -11)"
     d="M 12313.7,7188.4 L 13072,7188.4 L 13072,7210.4 L 12313.7,7210.4 Z "
     id="path179" />
  <path
     stroke="none"
     fill="#000000"
     transform="matrix(0.05 0 0 0.05 -10 -11)"
     d="M 12120.6,7199.4 C 12120.6,7199.4 12342.4,7141.96 12342.4,7141.96 C 12342.4,7141.96 12314.7,7174.27 12314.7,7199.4 C 12314.7,7224.09 12342.4,7255.84 12342.4,7255.84 C 12342.4,7255.84 12120.6,7199.4 12120.6,7199.4 C 12120.6,7199.4 12120.6,7199.4 12120.6,7199.4 "
     id="path180" />
  <path
     stroke="#000000"
     stroke-width="1"
     fill="none"
     transform="matrix(0.05 0 0 0.05 -10 -11)"
     d="M 12120.6,7199.4 C 12120.6,7199.4 12342.4,7141.96 12342.4,7141.96 C 12342.4,7141.96 12314.7,7174.27 12314.7,7199.4 C 12314.7,7224.09 12342.4,7255.84 12342.4,7255.84 C 12342.4,7255.84 12120.6,7199.4 12120.6,7199.4 C 12120.6,7199.4 12120.6,7199.4 12120.6,7199.4 "
     id="path181" />
  <text
     x="0"
     y="0"
     stroke="none"
     fill="#000000"
     transform="matrix(0.05 0 0 0.05 615.62 339.53)"
     font-style="normal"
     font-weight="bold"
     font-size="200px"
     font-family="Helvetica"
     id="text181">
HBr</text>
  <path
     stroke="none"
     fill="#000000"
     transform="matrix(0.05 0 0 0.05 -10 -11)"
     d="M 13698.8,7480.12 L 13687.7,7460.92 L 13952.6,7307.38 L 13952.6,7333.04 L 13698.8,7480.12 Z "
     id="path182" />
  <path
     stroke="none"
     fill="#000000"
     transform="matrix(0.05 0 0 0.05 -10 -11)"
     d="M 13936,7336.76 L 13913.8,7336.76 L 13913.8,7005.24 L 13936,7005.24 L 13936,7336.76 Z "
     id="path183" />
  <path
     stroke="none"
     fill="#000000"
     transform="matrix(0.05 0 0 0.05 -10 -11)"
     d="M 13991.4,7336.76 L 13969.3,7336.76 L 13969.3,7021.24 L 13991.4,7021.24 L 13991.4,7336.76 Z "
     id="path184" />
  <path
     stroke="none"
     fill="#000000"
     transform="matrix(0.05 0 0 0.05 -10 -11)"
     d="M 13958.2,7011.64 L 13947.1,7030.84 L 13693,6883.64 L 13693.2,6871.48 L 13703.9,6865.34 L 13958.2,7011.64 Z "
     id="path185" />
  <path
     stroke="none"
     fill="#000000"
     transform="matrix(0.05 0 0 0.05 -10 -11)"
     d="M 13952.6,7333.04 L 13952.6,7307.38 L 14217.6,7460.92 L 14206.5,7480.12 L 13952.6,7333.04 Z "
     id="path186" />
  <path
     stroke="none"
     fill="#000000"
     transform="matrix(0.05 0 0 0.05 -10 -11)"
     d="M 13703.9,6865.34 L 13693.2,6871.48 L 13682.6,6865.62 L 13682.2,6571.96 L 13704.3,6571.96 L 13703.9,6865.34 Z "
     id="path187" />
  <text
     x="0"
     y="0"
     stroke="none"
     fill="#000000"
     transform="matrix(0.05 0 0 0.05 651.693 343.301)"
     font-style="normal"
     font-weight="bold"
     font-size="180px"
     font-family="Helvetica"
     id="text187">
HO</text>
  <path
     stroke="none"
     fill="#000000"
     transform="matrix(0.05 0 0 0.05 -10 -11)"
     d="M 13682.6,6865.62 L 13693.2,6871.48 L 13693,6883.64 L 13522.8,6982.67 L 13511.8,6963.46 L 13682.6,6865.62 Z "
     id="path188" />
  <text
     x="0"
     y="0"
     stroke="none"
     fill="#000000"
     transform="matrix(0.05 0 0 0.05 374.82 136.68)"
     font-style="normal"
     font-weight="normal"
     font-size="200px"
     font-family="Helvetica"
     id="text188">
• </text>
  <text
     x="0"
     y="0"
     stroke="none"
     fill="#000000"
     transform="matrix(0.05 0 0 0.05 380.924 136.68)"
     font-style="normal"
     font-weight="normal"
     font-size="200px"
     font-family="Helvetica"
     id="text189">
These </text>
  <text
     x="0"
     y="0"
     stroke="none"
     fill="#000000"
     transform="matrix(0.05 0 0 0.05 411.495 136.68)"
     font-style="normal"
     font-weight="normal"
     font-size="200px"
     font-family="Helvetica"
     id="text190">
are </text>
  <text
     x="0"
     y="0"
     stroke="none"
     fill="#000000"
     transform="matrix(0.05 0 0 0.05 428.726 136.68)"
     font-style="normal"
     font-weight="normal"
     font-size="200px"
     font-family="Helvetica"
     id="text191">
only </text>
  <text
     x="0"
     y="0"
     stroke="none"
     fill="#000000"
     transform="matrix(0.05 0 0 0.05 449.849 136.68)"
     font-style="normal"
     font-weight="normal"
     font-size="200px"
     font-family="Helvetica"
     id="text192">
3 </text>
  <text
     x="0"
     y="0"
     stroke="none"
     fill="#000000"
     transform="matrix(0.05 0 0 0.05 458.189 136.68)"
     font-style="normal"
     font-weight="normal"
     font-size="200px"
     font-family="Helvetica"
     id="text193">
of </text>
  <text
     x="0"
     y="0"
     stroke="none"
     fill="#000000"
     transform="matrix(0.05 0 0 0.05 469.307 136.68)"
     font-style="normal"
     font-weight="normal"
     font-size="200px"
     font-family="Helvetica"
     id="text194">
many </text>
  <text
     x="0"
     y="0"
     stroke="none"
     fill="#000000"
     transform="matrix(0.05 0 0 0.05 496.539 136.68)"
     font-style="normal"
     font-weight="normal"
     font-size="200px"
     font-family="Helvetica"
     id="text195">
possibilities </text>
  <text
     x="0"
     y="0"
     stroke="none"
     fill="#000000"
     transform="matrix(0.05 0 0 0.05 550.45 136.68)"
     font-style="normal"
     font-weight="normal"
     font-size="200px"
     font-family="Helvetica"
     id="text196">
of </text>
  <text
     x="0"
     y="0"
     stroke="none"
     fill="#000000"
     transform="matrix(0.05 0 0 0.05 561.568 136.68)"
     font-style="normal"
     font-weight="normal"
     font-size="200px"
     font-family="Helvetica"
     id="text197">
allylic </text>
  <text
     x="0"
     y="0"
     stroke="none"
     fill="#000000"
     transform="matrix(0.05 0 0 0.05 588.795 136.68)"
     font-style="normal"
     font-weight="normal"
     font-size="200px"
     font-family="Helvetica"
     id="text198">
rearrangements.</text>
  <text
     x="0"
     y="0"
     stroke="none"
     fill="#000000"
     transform="matrix(0.05 0 0 0.05 374.82 147.338)"
     font-style="normal"
     font-weight="normal"
     font-size="200px"
     font-family="Helvetica"
     id="text199">
• </text>
  <text
     x="0"
     y="0"
     stroke="none"
     fill="#000000"
     transform="matrix(0.05 0 0 0.05 381.099 147.338)"
     font-style="normal"
     font-weight="normal"
     font-size="200px"
     font-family="Helvetica"
     id="text200">
Each </text>
  <text
     x="0"
     y="0"
     stroke="none"
     fill="#000000"
     transform="matrix(0.05 0 0 0.05 406.671 147.338)"
     font-style="normal"
     font-weight="normal"
     font-size="200px"
     font-family="Helvetica"
     id="text201">
time </text>
  <text
     x="0"
     y="0"
     stroke="none"
     fill="#000000"
     transform="matrix(0.05 0 0 0.05 428.34 147.338)"
     font-style="normal"
     font-weight="normal"
     font-size="200px"
     font-family="Helvetica"
     id="text202">
an </text>
  <text
     x="0"
     y="0"
     stroke="none"
     fill="#000000"
     transform="matrix(0.05 0 0 0.05 442.242 147.338)"
     font-style="normal"
     font-weight="normal"
     font-size="200px"
     font-family="Helvetica"
     id="text203">
allylic </text>
  <text
     x="0"
     y="0"
     stroke="none"
     fill="#000000"
     transform="matrix(0.05 0 0 0.05 469.468 147.338)"
     font-style="normal"
     font-weight="normal"
     font-size="200px"
     font-family="Helvetica"
     id="text204">
cation/anion/radical </text>
  <text
     x="0"
     y="0"
     stroke="none"
     fill="#000000"
     transform="matrix(0.05 0 0 0.05 558.414 147.338)"
     font-style="normal"
     font-weight="normal"
     font-size="200px"
     font-family="Helvetica"
     id="text205">
is </text>
  <text
     x="0"
     y="0"
     stroke="none"
     fill="#000000"
     transform="matrix(0.05 0 0 0.05 568.414 147.338)"
     font-style="normal"
     font-weight="normal"
     font-size="200px"
     font-family="Helvetica"
     id="text206">
formed, </text>
  <text
     x="0"
     y="0"
     stroke="none"
     fill="#000000"
     transform="matrix(0.05 0 0 0.05 605.093 147.338)"
     font-style="normal"
     font-weight="normal"
     font-size="200px"
     font-family="Helvetica"
     id="text207">
watch </text>
  <text
     x="0"
     y="0"
     stroke="none"
     fill="#000000"
     transform="matrix(0.05 0 0 0.05 633.995 147.338)"
     font-style="normal"
     font-weight="normal"
     font-size="200px"
     font-family="Helvetica"
     id="text208">
out </text>
  <text
     x="0"
     y="0"
     stroke="none"
     fill="#000000"
     transform="matrix(0.05 0 0 0.05 650.674 147.338)"
     font-style="normal"
     font-weight="normal"
     font-size="200px"
     font-family="Helvetica"
     id="text209">
for </text>
  <text
     x="0"
     y="0"
     stroke="none"
     fill="#000000"
     transform="matrix(0.05 0 0 0.05 665.123 147.338)"
     font-style="normal"
     font-weight="normal"
     font-size="200px"
     font-family="Helvetica"
     id="text210">
possible </text>
  <text
     x="0"
     y="0"
     stroke="none"
     fill="#000000"
     transform="matrix(0.05 0 0 0.05 704.59 147.338)"
     font-style="normal"
     font-weight="normal"
     font-size="200px"
     font-family="Helvetica"
     id="text211">
rearrangements.</text>
  <text
     x="0"
     y="0"
     stroke="none"
     fill="#000000"
     transform="matrix(0.05 0 0 0.05 374.82 157.997)"
     font-style="normal"
     font-weight="normal"
     font-size="200px"
     font-family="Helvetica"
     id="text212">
• </text>
  <text
     x="0"
     y="0"
     stroke="none"
     fill="#000000"
     transform="matrix(0.05 0 0 0.05 381.099 157.997)"
     font-style="normal"
     font-weight="normal"
     font-size="200px"
     font-family="Helvetica"
     id="text213">
Ratio </text>
  <text
     x="0"
     y="0"
     stroke="none"
     fill="#000000"
     transform="matrix(0.05 0 0 0.05 407.222 157.997)"
     font-style="normal"
     font-weight="normal"
     font-size="200px"
     font-family="Helvetica"
     id="text214">
of </text>
  <text
     x="0"
     y="0"
     stroke="none"
     fill="#000000"
     transform="matrix(0.05 0 0 0.05 418.34 157.997)"
     font-style="normal"
     font-weight="normal"
     font-size="200px"
     font-family="Helvetica"
     id="text215">
regular </text>
  <text
     x="0"
     y="0"
     stroke="none"
     fill="#000000"
     transform="matrix(0.05 0 0 0.05 452.247 157.997)"
     font-style="normal"
     font-weight="normal"
     font-size="200px"
     font-family="Helvetica"
     id="text216">
and </text>
  <text
     x="0"
     y="0"
     stroke="none"
     fill="#000000"
     transform="matrix(0.05 0 0 0.05 471.71 157.997)"
     font-style="normal"
     font-weight="normal"
     font-size="200px"
     font-family="Helvetica"
     id="text217">
rearranged </text>
  <text
     x="0"
     y="0"
     stroke="none"
     fill="#000000"
     transform="matrix(0.05 0 0 0.05 523.409 157.997)"
     font-style="normal"
     font-weight="normal"
     font-size="200px"
     font-family="Helvetica"
     id="text218">
products </text>
  <text
     x="0"
     y="0"
     stroke="none"
     fill="#000000"
     transform="matrix(0.05 0 0 0.05 564.542 157.997)"
     font-style="normal"
     font-weight="normal"
     font-size="200px"
     font-family="Helvetica"
     id="text219">
often </text>
  <text
     x="0"
     y="0"
     stroke="none"
     fill="#000000"
     transform="matrix(0.05 0 0 0.05 589.561 157.997)"
     font-style="normal"
     font-weight="normal"
     font-size="200px"
     font-family="Helvetica"
     id="text220">
depends </text>
  <text
     x="0"
     y="0"
     stroke="none"
     fill="#000000"
     transform="matrix(0.05 0 0 0.05 630.709 157.997)"
     font-style="normal"
     font-weight="normal"
     font-size="200px"
     font-family="Helvetica"
     id="text221">
on </text>
  <text
     x="0"
     y="0"
     stroke="none"
     fill="#000000"
     transform="matrix(0.05 0 0 0.05 644.61 157.997)"
     font-style="normal"
     font-weight="normal"
     font-size="200px"
     font-family="Helvetica"
     id="text222">
temperature.</text>
  <path
     stroke="#000000"
     stroke-width="22"
     fill="none"
     transform="matrix(0.05 0 0 0.05 -10 -11)"
     stroke-dasharray="53"
     d="M 7539.2,3516.34 C 7539.2,3516.34 7539.2,2730.66 7539.2,2730.66 C 7539.2,2657.21 7598.81,2597.6 7672.26,2597.6 C 7672.26,2597.6 15827.7,2597.6 15827.7,2597.6 C 15901.2,2597.6 15960.8,2657.21 15960.8,2730.66 C 15960.8,2730.66 15960.8,3516.34 15960.8,3516.34 C 15960.8,3589.79 15901.2,3649.4 15827.7,3649.4 C 15827.7,3649.4 7672.26,3649.4 7672.26,3649.4 C 7598.81,3649.4 7539.2,3589.79 7539.2,3516.34 "
     id="path222" />
  <text
     x="0"
     y="0"
     stroke="none"
     fill="#000000"
     transform="matrix(0.05 0 0 0.05 73.78 211.23)"
     font-style="normal"
     font-weight="bold"
     font-size="200px"
     font-family="Helvetica"
     id="text223">
from </text>
  <text
     x="0"
     y="0"
     stroke="none"
     fill="#000000"
     transform="matrix(0.05 0 0 0.05 98.78 211.23)"
     font-style="normal"
     font-weight="bold"
     font-size="200px"
     font-family="Helvetica"
     id="text224">
reactions </text>
  <text
     x="0"
     y="0"
     stroke="none"
     fill="#000000"
     transform="matrix(0.05 0 0 0.05 146.021 211.23)"
     font-style="normal"
     font-weight="bold"
     font-size="200px"
     font-family="Helvetica"
     id="text225">
of</text>
  <text
     x="0"
     y="0"
     stroke="none"
     fill="#0000ff"
     transform="matrix(0.05 0 0 0.05 96.2727 221.28)"
     font-style="normal"
     font-weight="bold"
     font-size="200px"
     font-family="Helvetica"
     id="text226">
alkenes</text>
  <text
     x="0"
     y="0"
     stroke="none"
     fill="#000000"
     transform="matrix(0.05 0 0 0.05 636.1 383.05)"
     font-style="normal"
     font-weight="bold"
     font-size="200px"
     font-family="Helvetica"
     id="text227">
from </text>
  <text
     x="0"
     y="0"
     stroke="none"
     fill="#000000"
     transform="matrix(0.05 0 0 0.05 661.1 383.05)"
     font-style="normal"
     font-weight="bold"
     font-size="200px"
     font-family="Helvetica"
     id="text228">
reactions </text>
  <text
     x="0"
     y="0"
     stroke="none"
     fill="#000000"
     transform="matrix(0.05 0 0 0.05 708.341 383.05)"
     font-style="normal"
     font-weight="bold"
     font-size="200px"
     font-family="Helvetica"
     id="text229">
of</text>
  <text
     x="0"
     y="0"
     stroke="none"
     fill="#000000"
     transform="matrix(0.05 0 0 0.05 655.267 393.1)"
     font-style="normal"
     font-weight="bold"
     font-size="200px"
     font-family="Helvetica"
     id="text230" />
  <text
     x="0"
     y="0"
     stroke="none"
     fill="#0000ff"
     transform="matrix(0.05 0 0 0.05 658.046 393.1)"
     font-style="normal"
     font-weight="bold"
     font-size="200px"
     font-family="Helvetica"
     id="text231">
alcohols</text>
  <text
     x="0"
     y="0"
     stroke="none"
     fill="#000000"
     transform="matrix(0.05 0 0 0.05 71.1566 403.64)"
     font-style="normal"
     font-weight="bold"
     font-size="200px"
     font-family="Helvetica"
     id="text232">
from </text>
  <text
     x="0"
     y="0"
     stroke="none"
     fill="#000000"
     transform="matrix(0.05 0 0 0.05 96.1566 403.64)"
     font-style="normal"
     font-weight="bold"
     font-size="200px"
     font-family="Helvetica"
     id="text233">
reactions </text>
  <text
     x="0"
     y="0"
     stroke="none"
     fill="#000000"
     transform="matrix(0.05 0 0 0.05 143.398 403.64)"
     font-style="normal"
     font-weight="bold"
     font-size="200px"
     font-family="Helvetica"
     id="text234">
of </text>
  <text
     x="0"
     y="0"
     stroke="none"
     fill="#0000ff"
     transform="matrix(0.05 0 0 0.05 68.1 414.19)"
     font-style="normal"
     font-weight="bold"
     font-size="200px"
     font-family="Helvetica"
     id="text235">
conjugated </text>
  <text
     x="0"
     y="0"
     stroke="none"
     fill="#0000ff"
     transform="matrix(0.05 0 0 0.05 124.213 414.19)"
     font-style="normal"
     font-weight="bold"
     font-size="200px"
     font-family="Helvetica"
     id="text236">
dienes</text>
  <path
     stroke="none"
     fill="#ffffff"
     opacity="0"
     onclick="window.location.href = 'halides.svg'"
     transform="matrix(0.05 0 0 0.05 -10 -11)"
     d="M 7128.4,5296.6 C 7128.4,5296.6 7128.4,1632 7128.4,1632 C 7128.4,1632 4940.6,1632 4940.6,1632 C 4940.6,1632 4940.6,5296.6 4940.6,5296.6 C 4940.6,5296.6 7128.4,5296.6 7128.4,5296.6 "
     id="path1"
     inkscape:label="l-halides" />
  <path
     stroke="none"
     fill="#ffffff"
     opacity="0"
     onclick="window.location.href = 'halides.svg'"
     transform="matrix(0.05 0 0 0.05 -10 -11)"
     d="M 7199.4,9088 C 7199.4,9088 7199.4,5451.8 7199.4,5451.8 C 7199.4,5451.8 4969,5451.8 4969,5451.8 C 4969,5451.8 4969,9088 4969,9088 C 4969,9088 7199.4,9088 7199.4,9088 "
     id="path3"
     inkscape:label="l-halides" />
  <path
     stroke="none"
     fill="#ffffff"
     opacity="0"
     onclick="window.location.href = 'halides.svg'"
     transform="matrix(0.05 0 0 0.05 -10 -11)"
     d="M 10153,9159 C 10153,9159 10153,5395 10153,5395 C 10153,5395 7922.6,5395 7922.6,5395 C 7922.6,5395 7922.6,9159 7922.6,9159 C 7922.6,9159 10153,9159 10153,9159 "
     id="path5"
     inkscape:label="l-halides" />
  <path
     stroke="none"
     fill="#ffffff"
     opacity="0"
     onclick="window.location.href = 'toalcohols.svg'"
     d="m 731.38131,405.22503 c 0,0 0,-92.02668 0,-92.02668 0,0 -98.22775,0 -98.22775,0 0,0 0,92.02668 0,92.02668 0,0 98.22775,0 98.22775,0"
     id="path5-8"
     inkscape:label="l-toalcohols"
     style="opacity:0;stroke-width:0.0328139" />
  <path
     stroke="none"
     fill="#ffffff"
     opacity="0"
     onclick="window.location.href = 'toalkenes.svg'"
     d="m 90.878272,192.97229 c 0,0 0,-68.56977 0,-68.56977 0,0 -59.914799,0 -59.914799,0 0,0 0,68.56977 0,68.56977 0,0 59.914799,0 59.914799,0"
     id="path5-8-2"
     inkscape:label="l-toalkenes"
     style="opacity:0;stroke-width:0.0221216" />
  <path
     stroke="none"
     fill="#ffffff"
     opacity="0"
     onclick="window.location.href = 'todienes.svg'"
     d="m 87.494965,381.18795 c 0,0 0,-68.56977 0,-68.56977 0,0 -59.9148,0 -59.9148,0 0,0 0,68.56977 0,68.56977 0,0 59.9148,0 59.9148,0"
     id="path5-8-2-4"
     inkscape:label="l-todienes"
     style="opacity:0;stroke-width:0.0221216" />
  <path
     stroke="none"
     fill="#ffffff"
     opacity="0"
     onclick="window.location.href = 'todienes.svg'"
     d="m 168.59414,423.29823 c 0,0 0,-31.82062 0,-31.82062 0,0 -118.557068,0 -118.557068,0 0,0 0,31.82062 0,31.82062 0,0 118.557068,0 118.557068,0"
     id="path5-8-2-4-6"
     inkscape:label="l-todienes"
     style="opacity:0;stroke-width:0.0211983" />
  <path
     stroke="none"
     fill="#ffffff"
     opacity="0"
     onclick="window.location.href = 'toalkenes.svg'"
     d="m 169.98895,228.52743 c 0,0 0,-31.82062 0,-31.82062 0,0 -118.557073,0 -118.557073,0 0,0 0,31.82062 0,31.82062 0,0 118.557073,0 118.557073,0"
     id="path5-8-2-4-6-7"
     inkscape:label="l-toalkenes"
     style="opacity:0;stroke-width:0.0211983" />
  <path
     stroke="none"
     fill="#ffffff"
     opacity="0"
     onclick="window.location.href = 'supplement.svg'"
     d="m 123.75691,159.51971 c 0,0 0,-24.00165 0,-24.00165 0,0 -27.075133,0 -27.075133,0 0,0 0,24.00165 0,24.00165 0,0 27.075133,0 27.075133,0"
     id="path5-8-2-4-6-7-1"
     inkscape:label="l-tosupplement"
     style="opacity:0;stroke-width:0.0087981" />
  <path
     stroke="none"
     fill="#ffffff"
     opacity="0"
     onclick="window.location.href = 'supplement.svg'"
     d="m 122.68804,344.10948 c 0,0 0,-24.00165 0,-24.00165 0,0 -27.075132,0 -27.075132,0 0,0 0,24.00165 0,24.00165 0,0 27.075132,0 27.075132,0"
     id="path5-8-2-4-6-7-1-7"
     inkscape:label="l-tosupplement"
     style="opacity:0;stroke-width:0.0087981" />
  <path
     stroke="none"
     fill="#ffffff"
     opacity="0"
     onclick="window.location.href = 'supplement.svg'"
     d="m 638.83484,345.42148 c 0,0 0,-24.00165 0,-24.00165 0,0 -27.07513,0 -27.07513,0 0,0 0,24.00165 0,24.00165 0,0 27.07513,0 27.07513,0"
     id="path5-8-2-4-6-7-1-2"
     inkscape:label="l-tosupplement"
     style="opacity:0;stroke-width:0.0087981" />

  <g
     id="noreagents"
     onclick="window.location.href = 'allylicrearrangements-noreagents.svg'"
     transform="translate(-4.6856272,378.9067)">
    <text
       x="11.200497"
       y="54.141506"
       stroke="none"
       fill="#000000"
       font-style="normal"
       font-weight="bold"
       font-size="200px"
       font-family="Helvetica"
       id="gobacktext-7"
       style="font-style:normal;font-weight:bold;font-size:10px;font-family:Helvetica;fill:#000000;fill-opacity:0.443609;stroke:none;stroke-width:0.05"
       inkscape:label="noreagents-text"><tspan
         sodipodi:role="line"
         id="tspan2"
         x="11.200497"
         y="54.141506"
         style="font-style:normal;font-variant:normal;font-weight:bold;font-stretch:normal;font-size:8px;font-family:Helvetica;-inkscape-font-specification:'Helvetica, Bold';font-variant-ligatures:normal;font-variant-caps:normal;font-variant-numeric:normal;font-variant-east-asian:normal;fill:#000000;fill-opacity:0.5;stroke-width:0.05">reagents</tspan></text>
    <rect
       style="fill:#000000;fill-opacity:0.821053;fill-rule:evenodd;stroke:#a13033;stroke-width:0;stroke-linecap:round;stroke-miterlimit:2;stroke-dasharray:none;paint-order:markers fill stroke"
       id="rect3"
       width="31.666824"
       height="0.9773711"
       x="12.224979"
       y="51.518982"
       inkscape:label="noreagents-line" />
    <path
       stroke="none"
       fill="#999999"
       d="m 9.795,54.694678 c 0,0 0,-5.427567 0,-5.427567 0,-2.098514 1.463398,-3.801611 3.266274,-3.801611 0,0 30.608907,0 30.608907,0 1.803073,0 3.266397,1.703097 3.266397,3.801611 0,0 0,5.427567 0,5.427567 0,2.098514 -1.463324,3.801611 -3.266397,3.801611 0,0 -30.608907,0 -30.608907,0 -1.802876,0 -3.266274,-1.703097 -3.266274,-3.801611"
       id="goback-box-8"
       style="fill:#999999;fill-opacity:0.336842;stroke-width:0.0264832"
       inkscape:label="noreagents-box" />
  </g>
  <g
     id="noproducts"
     onclick="window.location.href = 'allylicrearrangements-noproducts.svg'"
     transform="translate(-4.6856272,382.9067)">
    <text
       x="11.541888"
       y="67.610527"
       stroke="none"
       fill="#000000"
       font-style="normal"
       font-weight="bold"
       font-size="200px"
       font-family="Helvetica"
       id="gobacktext-7-8"
       style="font-style:normal;font-weight:bold;font-size:10px;font-family:Helvetica;fill:#000000;fill-opacity:0.443609;stroke:none;stroke-width:0.05"
       inkscape:label="noproducts-text"><tspan
         sodipodi:role="line"
         id="tspan2-5"
         x="11.541888"
         y="67.610527"
         style="font-style:normal;font-variant:normal;font-weight:bold;font-stretch:normal;font-size:8px;font-family:Helvetica;-inkscape-font-specification:'Helvetica, Bold';font-variant-ligatures:normal;font-variant-caps:normal;font-variant-numeric:normal;font-variant-east-asian:normal;fill:#000000;fill-opacity:0.5;stroke-width:0.05">products</tspan></text>
    <rect
       style="fill:#000000;fill-opacity:0.821053;fill-rule:evenodd;stroke:#a13033;stroke-width:0;stroke-linecap:round;stroke-miterlimit:2;stroke-dasharray:none;paint-order:markers fill stroke"
       id="rect3-9"
       width="31.666824"
       height="0.9773711"
       x="12.566371"
       y="64.987999"
       inkscape:label="noproducts-line" />
    <path
       stroke="none"
       fill="#999999"
       d="m 10.136392,68.163695 c 0,0 0,-5.427567 0,-5.427567 0,-2.098514 1.463398,-3.801611 3.266274,-3.801611 0,0 30.608907,0 30.608907,0 1.803073,0 3.266397,1.703097 3.266397,3.801611 0,0 0,5.427567 0,5.427567 0,2.098514 -1.463324,3.801611 -3.266397,3.801611 0,0 -30.608907,0 -30.608907,0 -1.802876,0 -3.266274,-1.703097 -3.266274,-3.801611"
       id="goback-box-8-6"
       style="fill:#999999;fill-opacity:0.336842;stroke-width:0.0264832"
       inkscape:label="noproducts-box" />
  </g>

  <text x="822.84332" y="415.79849" stroke="none" fill="#000000" transform="matrix(0.92407999,-0.00322566,0.00377741,1.0821442,0,0)" font-style="italic" font-weight="bold" font-size="8.25806px" font-family="'Helvetica Oblique'" id="text11" style="opacity:1;fill:#00009a;fill-opacity:0.651128;stroke-width:0.0412903">chemisfun</text>
  <g id="overlay-box" style="opacity:0" transform="matrix(0.31364504,0,0,0.8007311,650.50736,385.81436)">
    <rect style="fill:#609975;fill-opacity:0.2;stroke:#609970;stroke-width:0;stroke-linecap:round;stroke-opacity:0.657143;paint-order:fill markers stroke" id="rect285" width="164.84744" height="59.583412" x="329.69489" y="23.171328" />
  </g>
  <g id="overlay" onclick="window.location.href = 'about.svg'" onmouseover="this.ownerDocument.getElementById('overlay-box').style.opacity='0.5'" onmouseout="this.ownerDocument.getElementById('overlay-box').style.opacity='0'" transform="matrix(0.76550767,-0.0030054,0.00267214,0.86098131,195.61318,22.784653)">
    <rect style="opacity:0.5;fill:#ffffff;fill-opacity:0;stroke-linecap:round;stroke-opacity:0.657143;paint-order:stroke fill markers" id="rect2" width="65.93074" height="55.035408" x="733.06049" y="445.87061" />
  </g>
  <g id="g1" transform="matrix(0.0625,0,0,0.0625,764.65732,406.62566)">
    <rect x="239.31" y="120.321" style="fill:#444242" width="33.389" height="139.98" id="rect1" />
    <rect x="256" y="120.321" style="fill:#3a3839" width="16.695" height="139.98" id="rect2-2" />
    <rect x="132.194" y="305.86301" transform="matrix(0.5,0.866,-0.866,0.5,399.932,58.9793)" style="fill:#444242" width="33.387001" height="139.967" id="rect3" />
    <rect x="293.125" y="359.13" transform="matrix(0.866,0.5,-0.5,0.866,236.5654,-131.205)" style="fill:#3a3839" width="139.967" height="33.387001" id="rect4" />
    <path style="background-color:#ffffff00;fill:#439de2;fill-opacity:1" d="m 456.843,485.07 c -9.538,0 -18.951,-2.501 -27.432,-7.398 v 0 c -12.733,-7.351 -21.842,-19.221 -25.646,-33.424 -3.805,-14.201 -1.853,-29.035 5.499,-41.769 7.351,-12.732 19.221,-21.841 33.424,-25.646 14.201,-3.806 29.034,-1.853 41.769,5.499 12.732,7.351 21.841,19.221 25.646,33.424 3.805,14.202 1.853,29.035 -5.499,41.769 -7.351,12.733 -19.221,21.842 -33.424,25.646 -4.742,1.27 -9.557,1.899 -14.337,1.899 z" id="path7-3" />
    <path style="background-color:#ffffff00;fill:#eda74a;fill-opacity:1" d="m 256.001,137.021 c -30.352,0 -55.044,-24.693 -55.044,-55.044 0,-30.351 24.693,-55.044 55.044,-55.044 30.351,0 55.044,24.693 55.044,55.044 0,30.351 -24.693,55.044 -55.044,55.044 z" id="path5-4" />
    <path style="background-color:#ffffff00;fill:#53acb1;fill-opacity:1" d="m 55.158,485.07 c -4.781,0 -9.594,-0.629 -14.336,-1.9 C 26.619,479.365 14.75,470.256 7.398,457.524 0.046,444.792 -1.906,429.957 1.899,415.755 c 3.805,-14.203 12.914,-26.072 25.646,-33.424 12.731,-7.352 27.567,-9.304 41.769,-5.499 14.203,3.805 26.072,12.914 33.424,25.646 7.352,12.732 9.304,27.567 5.499,41.769 -3.805,14.203 -12.914,26.072 -25.646,33.424 -8.481,4.897 -17.896,7.399 -27.433,7.399 z" id="path6-7" />
    <path style="fill:#f74d37" d="m 256.001,384.379 c -38.81,0 -70.384,-31.575 -70.384,-70.384 0,-38.809 31.575,-70.384 70.384,-70.384 38.809,0 70.384,31.575 70.384,70.384 0,38.809 -31.575,70.384 -70.384,70.384 z" id="path4-9" />
  </g>
</svg>
