<?xml version="1.0" encoding="UTF-8" standalone="no"?>
<svg
   width="100%"
   height="100%"
   viewBox="0 0 818 460"
   style="background-color: #ffffff00"
   version="1.1"
   id="svg275"
   sodipodi:docname="amines-o1.svg"
   inkscape:version="1.4.2 (ebf0e940, 2025-05-08)"
   xmlns:inkscape="http://www.inkscape.org/namespaces/inkscape"
   xmlns:sodipodi="http://sodipodi.sourceforge.net/DTD/sodipodi-0.dtd"
   xmlns="http://www.w3.org/2000/svg"
   xmlns:svg="http://www.w3.org/2000/svg">
  <path
     stroke="#ffffff"
     stroke-width="1"
     fill="none"
     transform="matrix(0.05 0 0 0.05 -10 -6)"
     d="M 5764.52,2677.36 C 5764.52,2677.36 5764.52,1528.92 5764.52,1528.92 C 5764.52,1528.92 4301.9,1528.92 4301.9,1528.92 C 4301.9,1528.92 4301.9,2677.36 4301.9,2677.36 C 4301.9,2677.36 5764.52,2677.36 5764.52,2677.36 "
     id="path2" />
  <path
     stroke="#ffffff"
     stroke-width="1"
     fill="none"
     transform="matrix(0.05 0 0 0.05 -10 -6)"
     d="M 9370.76,9179.52 C 9370.76,9179.52 9370.76,8536.5 9370.76,8536.5 C 9370.76,8536.5 7184.16,8536.5 7184.16,8536.5 C 7184.16,8536.5 7184.16,9179.52 7184.16,9179.52 C 7184.16,9179.52 9370.76,9179.52 9370.76,9179.52 "
     id="path14" />
  <path
     stroke="#000000"
     stroke-width="22"
     fill="none"
     transform="matrix(0.05 0 0 0.05 -10 -6)"
     d="M 16494.7,9267.37 C 16494.7,9267.37 16494.7,184.502 16494.7,184.502 C 16494.7,184.502 268.683,184.502 268.683,184.502 C 268.683,184.502 268.683,9267.37 268.683,9267.37 C 268.683,9267.37 16494.7,9267.37 16494.7,9267.37 "
     id="path23" />
  <text
     x="0"
     y="0"
     stroke="none"
     fill="#000000"
     transform="matrix(0.05 0 0 0.05 11.735 21.13)"
     font-style="normal"
     font-weight="bold"
     font-size="320px"
     font-family="Helvetica"
     id="text17">
Amines - Reactions</text>
  <text
     x="0"
     y="0"
     stroke="none"
     fill="#999999"
     transform="matrix(0.05 0 0 0.05 11.9381 39.085)"
     font-style="normal"
     font-weight="normal"
     font-size="320px"
     font-family="Helvetica"
     id="text20">
click for more</text>
  <g
     id="goback"
     onclick="window.location.href = 'index-o1.svg'"
     onmouseover="document.getElementById('goback-box').setAttribute('opacity','0.5');"
     onmouseout="document.getElementById('goback-box').setAttribute('opacity','1')">
    <path
       stroke="none"
       fill="#999999"
       transform="matrix(0.05 0 0 0.05 -10 -11)"
       d="M 395.9,1492.34 C 395.9,1492.34 395.9,1302.37 395.9,1302.37 C 395.9,1228.92 455.513,1169.31 528.955,1169.31 C 528.955,1169.31 1775.84,1169.31 1775.84,1169.31 C 1849.29,1169.31 1908.9,1228.92 1908.9,1302.37 C 1908.9,1302.37 1908.9,1492.34 1908.9,1492.34 C 1908.9,1565.79 1849.29,1625.4 1775.84,1625.4 C 1775.84,1625.4 528.955,1625.4 528.955,1625.4 C 455.513,1625.4 395.9,1565.79 395.9,1492.34 "
       id="goback-box" />
    <text
       x="0"
       y="0"
       stroke="none"
       fill="#000000"
       transform="matrix(0.05 0 0 0.05 29.3796 61.765)"
       font-style="normal"
       font-weight="bold"
       font-size="200px"
       font-family="Helvetica"
       id="gobacktext">
go home</text>
    <path
       stroke="#999999"
       stroke-width="1"
       transform="matrix(0.05 0 0 0.05 -10 -11)"
       d="M 395.9,1492.34 C 395.9,1492.34 395.9,1302.37 395.9,1302.37 C 395.9,1228.92 455.513,1169.31 528.955,1169.31 C 528.955,1169.31 1775.84,1169.31 1775.84,1169.31 C 1849.29,1169.31 1908.9,1228.92 1908.9,1302.37 C 1908.9,1302.37 1908.9,1492.34 1908.9,1492.34 C 1908.9,1565.79 1849.29,1625.4 1775.84,1625.4 C 1775.84,1625.4 528.955,1625.4 528.955,1625.4 C 455.513,1625.4 395.9,1565.79 395.9,1492.34 "
       style="opacity:0"
       id="goback-link" />
  </g>
  <g
     id="howtomake"
     onclick="window.location.href = 'toamines-o1.svg'"
     onmouseover="document.getElementById('howtomake-box').setAttribute('opacity','0.5');"
     onmouseout="document.getElementById('howtomake-box').setAttribute('opacity','1')">
    <path
       stroke="none"
       fill="#999999"
       transform="matrix(0.05 0 0 0.05 -10 -11)"
       d="M 381.591,2007.46 C 381.591,2007.46 381.591,1817.48 381.591,1817.48 C 381.591,1744.04 441.204,1684.42 514.647,1684.42 C 514.647,1684.42 1761.54,1684.42 1761.54,1684.42 C 1834.98,1684.42 1894.59,1744.04 1894.59,1817.48 C 1894.59,1817.48 1894.59,2007.46 1894.59,2007.46 C 1894.59,2080.9 1834.98,2140.51 1761.54,2140.51 C 1761.54,2140.51 514.647,2140.51 514.647,2140.51 C 441.204,2140.51 381.591,2080.9 381.591,2007.46 "
       id="howtomake-box" />
    <text
       x="0"
       y="0"
       stroke="none"
       fill="#000000"
       transform="matrix(0.05 0 0 0.05 17.275 87.5206)"
       font-style="normal"
       font-weight="bold"
       font-size="200px"
       font-family="Helvetica"
       id="howtomaketext">
how to make</text>
    <path
       stroke="#999999"
       stroke-width="1"
       transform="matrix(0.05 0 0 0.05 -10 -11)"
       d="M 381.591,2007.46 C 381.591,2007.46 381.591,1817.48 381.591,1817.48 C 381.591,1744.04 441.204,1684.42 514.647,1684.42 C 514.647,1684.42 1761.54,1684.42 1761.54,1684.42 C 1834.98,1684.42 1894.59,1744.04 1894.59,1817.48 C 1894.59,1817.48 1894.59,2007.46 1894.59,2007.46 C 1894.59,2080.9 1834.98,2140.51 1761.54,2140.51 C 1761.54,2140.51 514.647,2140.51 514.647,2140.51 C 441.204,2140.51 381.591,2080.9 381.591,2007.46 "
       style="opacity:0"
       id="howtomake-link" />
  </g>
  <path
     stroke="none"
     fill="#000000"
     transform="matrix(0.05 0 0 0.05 -10 -6)"
     d="M 4744.3,2881.44 L 4744.3,3396.83 L 4722.3,3396.83 L 4722.3,2881.44 Z "
     id="path32" />
  <path
     stroke="none"
     fill="#000000"
     transform="matrix(0.05 0 0 0.05 -10 -6)"
     d="M 4733.3,2688.4 C 4733.3,2688.4 4789.74,2910.16 4789.74,2910.16 C 4789.74,2910.16 4757.99,2882.44 4733.3,2882.44 C 4708.17,2882.44 4675.86,2910.16 4675.86,2910.16 C 4675.86,2910.16 4733.3,2688.4 4733.3,2688.4 C 4733.3,2688.4 4733.3,2688.4 4733.3,2688.4 "
     id="path33" />
  <path
     stroke="#000000"
     stroke-width="1"
     fill="none"
     transform="matrix(0.05 0 0 0.05 -10 -6)"
     d="M 4733.3,2688.4 C 4733.3,2688.4 4789.74,2910.16 4789.74,2910.16 C 4789.74,2910.16 4757.99,2882.44 4733.3,2882.44 C 4708.17,2882.44 4675.86,2910.16 4675.86,2910.16 C 4675.86,2910.16 4733.3,2688.4 4733.3,2688.4 C 4733.3,2688.4 4733.3,2688.4 4733.3,2688.4 "
     id="path34" />
  <path
     stroke="none"
     fill="#000000"
     d="M 298.5698,164.3915 H 226.665 v -1.1 h 71.9048 z"
     id="path35"
     style="stroke-width:0.0342107" />
  <path
     stroke="none"
     fill="#000000"
     transform="matrix(0.05 0 0 0.05 -10 -6)"
     d="M 6159.4,3789.5 L 6159.4,3383.52 L 6181.4,3383.52 L 6181.4,3789.5 Z "
     id="path36" />
  <text
     x="0"
     y="0"
     stroke="none"
     fill="#0000ff"
     transform="matrix(0.05 0 0 0.05 226.036 202.516)"
     font-style="normal"
     font-weight="bold"
     font-size="280px"
     font-family="Helvetica"
     id="text36">
amines</text>
  <text
     x="0"
     y="0"
     stroke="none"
     fill="#000000"
     transform="matrix(0.05 0 0 0.05 203.97 153.497)"
     font-style="normal"
     font-weight="bold"
     font-size="200px"
     font-family="Helvetica"
     id="text48">
HCl</text>
  <path
     stroke="none"
     fill="#000000"
     transform="matrix(0.05 0 0 0.05 -10 -6)"
     d="M 6024.79,4261.05 L 6014.38,4267.34 L 6003.98,4261.05 L 6003.3,4062.29 L 6025.47,4062.29 L 6024.79,4261.05 Z "
     id="path48" />
  <text
     x="0"
     y="0"
     stroke="none"
     fill="#000000"
     transform="matrix(0.05 0 0 0.05 287.469 195.63)"
     font-style="normal"
     font-weight="bold"
     font-size="180px"
     font-family="Helvetica"
     id="text49">
NH</text>
  <text
     x="0"
     y="0"
     stroke="none"
     fill="#000000"
     transform="matrix(0.05 0 0 0.05 300.468 197.7)"
     font-style="normal"
     font-weight="bold"
     font-size="135px"
     font-family="Helvetica"
     id="text50">
2</text>
  <path
     stroke="none"
     fill="#000000"
     transform="matrix(0.05 0 0 0.05 -10 -6)"
     d="M 6014.38,4279.62 L 6014.38,4267.34 L 6024.79,4261.05 L 6273.78,4404.83 L 6273.78,4430.48 L 6014.38,4279.62 Z "
     id="path50" />
  <path
     stroke="none"
     fill="#000000"
     transform="matrix(0.05 0 0 0.05 -10 -6)"
     d="M 5760.54,4426.71 L 5749.45,4407.5 L 6003.98,4261.05 L 6014.38,4267.34 L 6014.38,4279.62 L 5760.54,4426.71 Z "
     id="path51" />
  <path
     stroke="none"
     fill="#000000"
     transform="matrix(0.05 0 0 0.05 -10 -6)"
     d="M 6273.78,4430.48 L 6273.78,4404.83 L 6527.62,4257.74 L 6538.71,4276.95 L 6273.78,4430.48 Z "
     id="path52" />
  <path
     stroke="none"
     fill="#000000"
     transform="matrix(0.05 0 0 0.05 -10 -6)"
     d="M 4680.02,2284.91 L 4669.61,2291.2 L 4659.2,2284.91 L 4658.52,2086.14 L 4680.7,2086.14 L 4680.02,2284.91 Z "
     id="path53" />
  <text
     x="0"
     y="0"
     stroke="none"
     fill="#000000"
     transform="matrix(0.05 0 0 0.05 220.231 96.8228)"
     font-style="normal"
     font-weight="bold"
     font-size="180px"
     font-family="Helvetica"
     id="text53">
NH</text>
  <text
     x="0"
     y="0"
     stroke="none"
     fill="#000000"
     transform="matrix(0.05 0 0 0.05 233.23 98.8926)"
     font-style="normal"
     font-weight="bold"
     font-size="135px"
     font-family="Helvetica"
     id="text54">
3</text>
  <path
     stroke="none"
     fill="#000000"
     transform="matrix(0.05 0 0 0.05 -10 -6)"
     d="M 4669.61,2303.48 L 4669.61,2291.2 L 4680.02,2284.91 L 4929,2428.68 L 4929,2454.34 L 4669.61,2303.48 Z "
     id="path54" />
  <path
     stroke="none"
     fill="#000000"
     transform="matrix(0.05 0 0 0.05 -10 -6)"
     d="M 4415.76,2450.56 L 4404.67,2431.36 L 4659.2,2284.91 L 4669.61,2291.2 L 4669.61,2303.48 L 4415.76,2450.56 Z "
     id="path55" />
  <path
     stroke="none"
     fill="#000000"
     transform="matrix(0.05 0 0 0.05 -10 -6)"
     d="M 4929,2454.34 L 4929,2428.68 L 5182.85,2281.6 L 5193.94,2300.8 L 4929,2454.34 Z "
     id="path56" />
  <path
     stroke="#000000"
     stroke-width="18"
     fill="none"
     transform="matrix(0.05 0 0 0.05 -10 -6)"
     d="M 4601.62,1807.23 A 68.8704,68.8704 0 1 0 4739.36,1807.23A 68.8704,68.8704 0 1 0 4601.62,1807.23Z "
     id="path57" />
  <path
     stroke="none"
     fill="#000000"
     transform="matrix(0.05 0 0 0.05 -10 -6)"
     d="M 4629.4,1798.23 L 4711.58,1798.23 L 4711.58,1816.23 L 4629.4,1816.23 Z "
     id="path58" />
  <path
     stroke="none"
     fill="#000000"
     transform="matrix(0.05 0 0 0.05 -10 -6)"
     d="M 4679.49,1766.14 L 4679.49,1848.32 L 4661.49,1848.32 L 4661.49,1766.14 Z "
     id="path59" />
  <text
     x="0"
     y="0"
     stroke="none"
     fill="#000000"
     transform="matrix(0.05 0 0 0.05 237.137 86.0649)"
     font-style="normal"
     font-weight="bold"
     font-size="200px"
     font-family="Helvetica"
     id="text59">
Cl</text>
  <path
     stroke="#000000"
     stroke-width="18"
     fill="none"
     transform="matrix(0.05 0 0 0.05 -10 -6)"
     d="M 5118.43,1620.81 A 68.8704,68.8704 0 1 0 5256.18,1620.81A 68.8704,68.8704 0 1 0 5118.43,1620.81Z "
     id="path60" />
  <path
     stroke="none"
     fill="#000000"
     transform="matrix(0.05 0 0 0.05 -10 -6)"
     d="M 5146.22,1611.81 L 5228.39,1611.81 L 5228.39,1629.81 L 5146.22,1629.81 Z "
     id="path61" />
  <text
     x="0"
     y="0"
     stroke="none"
     fill="#0000ff"
     transform="matrix(0.05 0 0 0.05 585.531 178.206)"
     font-style="normal"
     font-weight="bold"
     font-size="200px"
     font-family="Helvetica"
     id="text196" />
  <text
     x="0"
     y="0"
     stroke="none"
     fill="#0000ff"
     transform="matrix(0.05 0 0 0.05 506.166 178.206)"
     font-style="normal"
     font-weight="bold"
     font-size="200px"
     font-family="Helvetica"
     id="text205" />
  <text
     x="0"
     y="0"
     stroke="none"
     fill="#000000"
     transform="matrix(0.05 0 0 0.05 255.857 171.667)"
     font-style="italic"
     font-weight="normal"
     font-size="160px"
     font-family="Helvetica Oblique"
     id="text257">
as </text>
  <text
     x="0"
     y="0"
     stroke="none"
     fill="#000000"
     transform="matrix(0.05 0 0 0.05 266.529 171.667)"
     font-style="italic"
     font-weight="normal"
     font-size="160px"
     font-family="Helvetica Oblique"
     id="text258">
a </text>
  <text
     x="0"
     y="0"
     stroke="none"
     fill="#000000"
     transform="matrix(0.05 0 0 0.05 273.201 171.667)"
     font-style="italic"
     font-weight="normal"
     font-size="160px"
     font-family="Helvetica Oblique"
     id="text259">
base</text>
  <text
     x="0"
     y="0"
     stroke="none"
     fill="#0000ff"
     transform="matrix(0.05 0 0 0.05 214.783 125.628)"
     font-style="normal"
     font-weight="normal"
     font-size="160px"
     font-family="Helvetica"
     id="text274">
ammonium </text>
  <text
     x="0"
     y="0"
     stroke="none"
     fill="#0000ff"
     transform="matrix(0.05 0 0 0.05 256.572 125.628)"
     font-style="normal"
     font-weight="normal"
     font-size="160px"
     font-family="Helvetica"
     id="text275">
salts</text>
  <path
     stroke="none"
     fill="#ffffff"
     opacity="0"
     onclick="window.location.href = 'amines-o1.svg'"
     transform="matrix(0.05 0 0 0.05 -10 -6)"
     d="M 5764.52,2677.36 C 5764.52,2677.36 5764.52,1528.92 5764.52,1528.92 C 5764.52,1528.92 4301.9,1528.92 4301.9,1528.92 C 4301.9,1528.92 4301.9,2677.36 4301.9,2677.36 C 4301.9,2677.36 5764.52,2677.36 5764.52,2677.36 "
     id="path1"
     inkscape:label="l-amines" />
  <path
     stroke="none"
     fill="#ffffff"
     opacity="0"
     onclick="window.location.href = 'alkenes-o1.svg'"
     transform="matrix(0.05 0 0 0.05 -10 -6)"
     d="M 9370.76,9179.52 C 9370.76,9179.52 9370.76,8536.5 9370.76,8536.5 C 9370.76,8536.5 7184.16,8536.5 7184.16,8536.5 C 7184.16,8536.5 7184.16,9179.52 7184.16,9179.52 C 7184.16,9179.52 9370.76,9179.52 9370.76,9179.52 "
     id="path13"
     inkscape:label="l-alkenes" />
  <path
     stroke="none"
     fill="#ffffff"
     opacity="0"
     onclick="window.location.href = 'toamines-o1.svg'"
     d="m 330.6474,220.02608 c 0,0 0,-36.4493 0,-36.4493 0,0 -112.23812,0 -112.23812,0 0,0 0,36.4493 0,36.4493 0,0 112.23812,0 112.23812,0"
     id="path19-5-09"
     inkscape:label="l-toamines"
     style="opacity:0;stroke-width:0.0495855" />
  <path
     stroke="none"
     fill="#ffffff"
     opacity="0"
     onclick="window.location.href = 'supplement-o1.svg'"
     d="m 224.03544,157.27598 c 0,0 0,-16.11998 0,-16.11998 0,0 -24.66567,0 -24.66567,0 0,0 0,16.11998 0,16.11998 0,0 24.66567,0 24.66567,0"
     id="path19-5-09-9"
     inkscape:label="l-supplement"
     style="opacity:0;stroke-width:0.0154585" />
  <g
     id="noreagents"
     onclick="window.location.href = 'amines-noreagents-o1.svg'"
     transform="translate(-4.6856272,378.9067)">
    <text
       x="11.200497"
       y="54.141506"
       stroke="none"
       fill="#000000"
       font-style="normal"
       font-weight="bold"
       font-size="200px"
       font-family="Helvetica"
       id="gobacktext-7"
       style="font-style:normal;font-weight:bold;font-size:10px;font-family:Helvetica;fill:#000000;fill-opacity:0.443609;stroke:none;stroke-width:0.05"
       inkscape:label="noreagents-text"><tspan
         sodipodi:role="line"
         id="tspan2"
         x="11.200497"
         y="54.141506"
         style="font-style:normal;font-variant:normal;font-weight:bold;font-stretch:normal;font-size:8px;font-family:Helvetica;-inkscape-font-specification:'Helvetica, Bold';font-variant-ligatures:normal;font-variant-caps:normal;font-variant-numeric:normal;font-variant-east-asian:normal;fill:#000000;fill-opacity:0.5;stroke-width:0.05">reagents</tspan></text>
    <rect
       style="fill:#000000;fill-opacity:0.821053;fill-rule:evenodd;stroke:#a13033;stroke-width:0;stroke-linecap:round;stroke-miterlimit:2;stroke-dasharray:none;paint-order:markers fill stroke"
       id="rect3"
       width="31.666824"
       height="0.9773711"
       x="12.224979"
       y="51.518982"
       inkscape:label="noreagents-line" />
    <path
       stroke="none"
       fill="#999999"
       d="m 9.795,54.694678 c 0,0 0,-5.427567 0,-5.427567 0,-2.098514 1.463398,-3.801611 3.266274,-3.801611 0,0 30.608907,0 30.608907,0 1.803073,0 3.266397,1.703097 3.266397,3.801611 0,0 0,5.427567 0,5.427567 0,2.098514 -1.463324,3.801611 -3.266397,3.801611 0,0 -30.608907,0 -30.608907,0 -1.802876,0 -3.266274,-1.703097 -3.266274,-3.801611"
       id="goback-box-8"
       style="fill:#999999;fill-opacity:0.336842;stroke-width:0.0264832"
       inkscape:label="noreagents-box" />
  </g>
  <g
     id="noproducts"
     onclick="window.location.href = 'amines-noproducts-o1.svg'"
     transform="translate(-4.6856272,382.9067)">
    <text
       x="11.541888"
       y="67.610527"
       stroke="none"
       fill="#000000"
       font-style="normal"
       font-weight="bold"
       font-size="200px"
       font-family="Helvetica"
       id="gobacktext-7-8"
       style="font-style:normal;font-weight:bold;font-size:10px;font-family:Helvetica;fill:#000000;fill-opacity:0.443609;stroke:none;stroke-width:0.05"
       inkscape:label="noproducts-text"><tspan
         sodipodi:role="line"
         id="tspan2-5"
         x="11.541888"
         y="67.610527"
         style="font-style:normal;font-variant:normal;font-weight:bold;font-stretch:normal;font-size:8px;font-family:Helvetica;-inkscape-font-specification:'Helvetica, Bold';font-variant-ligatures:normal;font-variant-caps:normal;font-variant-numeric:normal;font-variant-east-asian:normal;fill:#000000;fill-opacity:0.5;stroke-width:0.05">products</tspan></text>
    <rect
       style="fill:#000000;fill-opacity:0.821053;fill-rule:evenodd;stroke:#a13033;stroke-width:0;stroke-linecap:round;stroke-miterlimit:2;stroke-dasharray:none;paint-order:markers fill stroke"
       id="rect3-9"
       width="31.666824"
       height="0.9773711"
       x="12.566371"
       y="64.987999"
       inkscape:label="noproducts-line" />
    <path
       stroke="none"
       fill="#999999"
       d="m 10.136392,68.163695 c 0,0 0,-5.427567 0,-5.427567 0,-2.098514 1.463398,-3.801611 3.266274,-3.801611 0,0 30.608907,0 30.608907,0 1.803073,0 3.266397,1.703097 3.266397,3.801611 0,0 0,5.427567 0,5.427567 0,2.098514 -1.463324,3.801611 -3.266397,3.801611 0,0 -30.608907,0 -30.608907,0 -1.802876,0 -3.266274,-1.703097 -3.266274,-3.801611"
       id="goback-box-8-6"
       style="fill:#999999;fill-opacity:0.336842;stroke-width:0.0264832"
       inkscape:label="noproducts-box" />
  </g>
  <text
     x="822.84332"
     y="415.79849"
     stroke="none"
     fill="#000000"
     transform="matrix(0.92407999,-0.00322566,0.00377741,1.0821442,0,0)"
     font-style="italic"
     font-weight="bold"
     font-size="8.25806px"
     font-family="'Helvetica Oblique'"
     id="text11"
     style="opacity:1;fill:#00009a;fill-opacity:0.651128;stroke-width:0.0412903">chemisfun</text>
  <g
     id="overlay-box"
     style="opacity:0"
     transform="matrix(0.31364504,0,0,0.8007311,650.50736,385.81436)">
    <rect
       style="fill:#609975;fill-opacity:0.2;stroke:#609970;stroke-width:0;stroke-linecap:round;stroke-opacity:0.657143;paint-order:fill markers stroke"
       id="rect285"
       width="164.84744"
       height="59.583412"
       x="329.69489"
       y="23.171328" />
  </g>
  <g
     id="overlay"
     onclick="window.location.href = 'about.svg'"
     onmouseover="this.ownerDocument.getElementById('overlay-box').style.opacity='0.5'"
     onmouseout="this.ownerDocument.getElementById('overlay-box').style.opacity='0'"
     transform="matrix(0.76550767,-0.0030054,0.00267214,0.86098131,195.61318,22.784653)">
    <rect
       style="opacity:0.5;fill:#ffffff;fill-opacity:0;stroke-linecap:round;stroke-opacity:0.657143;paint-order:stroke fill markers"
       id="rect2"
       width="65.93074"
       height="55.035408"
       x="733.06049"
       y="445.87061" />
  </g>
  <g
     id="g1"
     transform="matrix(0.0625,0,0,0.0625,764.65732,406.62566)">
    <rect
       x="239.31"
       y="120.321"
       style="fill:#444242"
       width="33.389"
       height="139.98"
       id="rect1" />
    <rect
       x="256"
       y="120.321"
       style="fill:#3a3839"
       width="16.695"
       height="139.98"
       id="rect2-2" />
    <rect
       x="132.194"
       y="305.86301"
       transform="matrix(0.5,0.866,-0.866,0.5,399.932,58.9793)"
       style="fill:#444242"
       width="33.387001"
       height="139.967"
       id="rect4" />
    <rect
       x="293.125"
       y="359.13"
       transform="matrix(0.866,0.5,-0.5,0.866,236.5654,-131.205)"
       style="fill:#3a3839"
       width="139.967"
       height="33.387001"
       id="rect5" />
    <path
       style="background-color:#ffffff00;fill:#439de2;fill-opacity:1"
       d="m 456.843,485.07 c -9.538,0 -18.951,-2.501 -27.432,-7.398 v 0 c -12.733,-7.351 -21.842,-19.221 -25.646,-33.424 -3.805,-14.201 -1.853,-29.035 5.499,-41.769 7.351,-12.732 19.221,-21.841 33.424,-25.646 14.201,-3.806 29.034,-1.853 41.769,5.499 12.732,7.351 21.841,19.221 25.646,33.424 3.805,14.202 1.853,29.035 -5.499,41.769 -7.351,12.733 -19.221,21.842 -33.424,25.646 -4.742,1.27 -9.557,1.899 -14.337,1.899 z"
       id="path7-3" />
    <path
       style="background-color:#ffffff00;fill:#eda74a;fill-opacity:1"
       d="m 256.001,137.021 c -30.352,0 -55.044,-24.693 -55.044,-55.044 0,-30.351 24.693,-55.044 55.044,-55.044 30.351,0 55.044,24.693 55.044,55.044 0,30.351 -24.693,55.044 -55.044,55.044 z"
       id="path5-4" />
    <path
       style="background-color:#ffffff00;fill:#53acb1;fill-opacity:1"
       d="m 55.158,485.07 c -4.781,0 -9.594,-0.629 -14.336,-1.9 C 26.619,479.365 14.75,470.256 7.398,457.524 0.046,444.792 -1.906,429.957 1.899,415.755 c 3.805,-14.203 12.914,-26.072 25.646,-33.424 12.731,-7.352 27.567,-9.304 41.769,-5.499 14.203,3.805 26.072,12.914 33.424,25.646 7.352,12.732 9.304,27.567 5.499,41.769 -3.805,14.203 -12.914,26.072 -25.646,33.424 -8.481,4.897 -17.896,7.399 -27.433,7.399 z"
       id="path6-7" />
    <path
       style="fill:#f74d37"
       d="m 256.001,384.379 c -38.81,0 -70.384,-31.575 -70.384,-70.384 0,-38.809 31.575,-70.384 70.384,-70.384 38.809,0 70.384,31.575 70.384,70.384 0,38.809 -31.575,70.384 -70.384,70.384 z"
       id="path4-9" />
  </g>
</svg>
