<?xml version="1.0" encoding="UTF-8" standalone="no"?>
<svg
   width="100%"
   height="100%"
   viewBox="0 0 818 460"
   style="background-color: #ffffff00"
   version="1.1"
   id="svg693"
   sodipodi:docname="ccbondformation-noproducts-o1.svg"
   inkscape:version="1.4.2 (ebf0e940, 2025-05-08)"
   xmlns:inkscape="http://www.inkscape.org/namespaces/inkscape"
   xmlns:sodipodi="http://sodipodi.sourceforge.net/DTD/sodipodi-0.dtd"
   xmlns="http://www.w3.org/2000/svg"
   xmlns:svg="http://www.w3.org/2000/svg">
  <path
     stroke="#ffffff"
     stroke-width="1"
     fill="none"
     transform="matrix(0.05 0 0 0.05 -10 -11)"
     d="M 1301.3,4332.9 C 1301.3,4332.9 1301.3,3388.1 1301.3,3388.1 C 1301.3,3388.1 571,3388.1 571,3388.1 C 571,3388.1 571,4332.9 571,4332.9 C 571,4332.9 1301.3,4332.9 1301.3,4332.9 "
     id="path6" />
  <path
     stroke="#ffffff"
     stroke-width="1"
     fill="none"
     transform="matrix(0.05 0 0 0.05 -10 -11)"
     d="M 2216.5,4576 C 2216.5,4576 2216.5,3388.1 2216.5,3388.1 C 2216.5,3388.1 1471.9,3388.1 1471.9,3388.1 C 1471.9,3388.1 1471.9,4576 1471.9,4576 C 1471.9,4576 2216.5,4576 2216.5,4576 "
     id="path8" />
  <path
     stroke="none"
     fill="#ffffff"
     transform="matrix(0.05 0 0 0.05 -10 -11)"
     d="M 3632.2,2616.9 C 3632.2,2616.9 3632.2,2058.2 3632.2,2058.2 C 3632.2,2058.2 2744.6,2058.2 2744.6,2058.2 C 2744.6,2058.2 2744.6,2616.9 2744.6,2616.9 C 2744.6,2616.9 3632.2,2616.9 3632.2,2616.9 "
     id="path11" />
  <path
     stroke="#ffffff"
     stroke-width="1"
     fill="none"
     transform="matrix(0.05 0 0 0.05 -10 -11)"
     d="M 3632.2,2616.9 C 3632.2,2616.9 3632.2,2058.2 3632.2,2058.2 C 3632.2,2058.2 2744.6,2058.2 2744.6,2058.2 C 2744.6,2058.2 2744.6,2616.9 2744.6,2616.9 C 2744.6,2616.9 3632.2,2616.9 3632.2,2616.9 "
     id="path12" />
  <path
     stroke="none"
     fill="#ffffff"
     transform="matrix(0.05 0 0 0.05 -10 -11)"
     d="M 1773.2,2674.1 C 1773.2,2674.1 1773.2,2029.6 1773.2,2029.6 C 1773.2,2029.6 957.1,2029.6 957.1,2029.6 C 957.1,2029.6 957.1,2674.1 957.1,2674.1 C 957.1,2674.1 1773.2,2674.1 1773.2,2674.1 "
     id="path13" />
  <path
     stroke="#ffffff"
     stroke-width="1"
     fill="none"
     transform="matrix(0.05 0 0 0.05 -10 -11)"
     d="M 1773.2,2674.1 C 1773.2,2674.1 1773.2,2029.6 1773.2,2029.6 C 1773.2,2029.6 957.1,2029.6 957.1,2029.6 C 957.1,2029.6 957.1,2674.1 957.1,2674.1 C 957.1,2674.1 1773.2,2674.1 1773.2,2674.1 "
     id="path14" />
  <path
     stroke="none"
     fill="#ffffff"
     transform="matrix(0.05 0 0 0.05 -10 -11)"
     d="M 4933.5,2874.3 C 4933.5,2874.3 4933.5,2201.2 4933.5,2201.2 C 4933.5,2201.2 4160.3,2201.2 4160.3,2201.2 C 4160.3,2201.2 4160.3,2874.3 4160.3,2874.3 C 4160.3,2874.3 4933.5,2874.3 4933.5,2874.3 "
     id="path15" />
  <path
     stroke="#ffffff"
     stroke-width="1"
     fill="none"
     transform="matrix(0.05 0 0 0.05 -10 -11)"
     d="M 4933.5,2874.3 C 4933.5,2874.3 4933.5,2201.2 4933.5,2201.2 C 4933.5,2201.2 4160.3,2201.2 4160.3,2201.2 C 4160.3,2201.2 4160.3,2874.3 4160.3,2874.3 C 4160.3,2874.3 4933.5,2874.3 4933.5,2874.3 "
     id="path16" />
  <path
     stroke="#ffffff"
     stroke-width="1"
     fill="none"
     transform="matrix(0.05 0 0 0.05 -10 -11)"
     d="M 5991.7,4561.7 C 5991.7,4561.7 5991.7,3702.7 5991.7,3702.7 C 5991.7,3702.7 5175.6,3702.7 5175.6,3702.7 C 5175.6,3702.7 5175.6,4561.7 5175.6,4561.7 C 5175.6,4561.7 5991.7,4561.7 5991.7,4561.7 "
     id="path20" />
  <path
     stroke="#ffffff"
     stroke-width="1"
     fill="none"
     transform="matrix(0.05 0 0 0.05 -10 -11)"
     d="M 10696.4,4147 C 10696.4,4147 10696.4,3359.5 10696.4,3359.5 C 10696.4,3359.5 9966.1,3359.5 9966.1,3359.5 C 9966.1,3359.5 9966.1,4147 9966.1,4147 C 9966.1,4147 10696.4,4147 10696.4,4147 "
     id="path28" />
  <path
     stroke="#ffffff"
     stroke-width="1"
     fill="none"
     transform="matrix(0.05 0 0 0.05 -10 -11)"
     d="M 13613.6,4547.4 C 13613.6,4547.4 13613.6,3645.5 13613.6,3645.5 C 13613.6,3645.5 13069.2,3645.5 13069.2,3645.5 C 13069.2,3645.5 13069.2,4547.4 13069.2,4547.4 C 13069.2,4547.4 13613.6,4547.4 13613.6,4547.4 "
     id="path48" />
  <path
     stroke="none"
     fill="#ffffff"
     transform="matrix(0.05 0 0 0.05 -10 -11)"
     d="M 5734.3,1544.4 C 5734.3,1544.4 5734.3,2115.4 5734.3,2115.4 C 5734.3,2115.4 5147,2115.4 5147,2115.4 C 5147,2115.4 5147,1544.4 5147,1544.4 C 5147,1544.4 5734.3,1544.4 5734.3,1544.4 "
     id="path51" />
  <path
     stroke="#ffffff"
     stroke-width="1"
     fill="none"
     transform="matrix(0.05 0 0 0.05 -10 -11)"
     d="M 5734.3,1544.4 C 5734.3,1544.4 5734.3,2115.4 5734.3,2115.4 C 5734.3,2115.4 5147,2115.4 5147,2115.4 C 5147,2115.4 5147,1544.4 5147,1544.4 C 5147,1544.4 5734.3,1544.4 5734.3,1544.4 "
     id="path52" />
  <path
     stroke="none"
     fill="#ffffff"
     transform="matrix(0.05 0 0 0.05 -10 -11)"
     d="M 5748.6,2359.5 C 5748.6,2359.5 5748.6,1772.2 5748.6,1772.2 C 5748.6,1772.2 6519.8,1772.2 6519.8,1772.2 C 6519.8,1772.2 6519.8,2359.5 6519.8,2359.5 C 6519.8,2359.5 5748.6,2359.5 5748.6,2359.5 "
     id="path53" />
  <path
     stroke="#ffffff"
     stroke-width="1"
     fill="none"
     transform="matrix(0.05 0 0 0.05 -10 -11)"
     d="M 5748.6,2359.5 C 5748.6,2359.5 5748.6,1772.2 5748.6,1772.2 C 5748.6,1772.2 6519.8,1772.2 6519.8,1772.2 C 6519.8,1772.2 6519.8,2359.5 6519.8,2359.5 C 6519.8,2359.5 5748.6,2359.5 5748.6,2359.5 "
     id="path54" />
  <path
     stroke="none"
     fill="#ffffff"
     transform="matrix(0.05 0 0 0.05 -10 -11)"
     d="M 6006,2888.6 C 6006,2888.6 6006,2380.67 6006,2380.67 C 6006,2380.67 5075.5,2380.67 5075.5,2380.67 C 5075.5,2380.67 5075.5,2888.6 5075.5,2888.6 C 5075.5,2888.6 6006,2888.6 6006,2888.6 "
     id="path55" />
  <path
     stroke="#ffffff"
     stroke-width="1"
     fill="none"
     transform="matrix(0.05 0 0 0.05 -10 -11)"
     d="M 6006,2888.6 C 6006,2888.6 6006,2380.67 6006,2380.67 C 6006,2380.67 5075.5,2380.67 5075.5,2380.67 C 5075.5,2380.67 5075.5,2888.6 5075.5,2888.6 C 5075.5,2888.6 6006,2888.6 6006,2888.6 "
     id="path56" />
  <path
     stroke="none"
     fill="#ffffff"
     transform="matrix(0.05 0 0 0.05 -10 -11)"
     d="M 12183.6,1144 C 12183.6,1144 12183.6,613.9 12183.6,613.9 C 12183.6,613.9 11481.9,613.9 11481.9,613.9 C 11481.9,613.9 11481.9,1144 11481.9,1144 C 11481.9,1144 12183.6,1144 12183.6,1144 "
     id="path61" />
  <path
     stroke="#ffffff"
     stroke-width="1"
     fill="none"
     transform="matrix(0.05 0 0 0.05 -10 -11)"
     d="M 12183.6,1144 C 12183.6,1144 12183.6,613.9 12183.6,613.9 C 12183.6,613.9 11481.9,613.9 11481.9,613.9 C 11481.9,613.9 11481.9,1144 11481.9,1144 C 11481.9,1144 12183.6,1144 12183.6,1144 "
     id="path62" />
  <path
     stroke="none"
     fill="#ffffff"
     transform="matrix(0.05 0 0 0.05 -10 -11)"
     d="M 14500.2,1086.8 C 14500.2,1086.8 14500.2,556.7 14500.2,556.7 C 14500.2,556.7 13841.4,556.7 13841.4,556.7 C 13841.4,556.7 13841.4,1086.8 13841.4,1086.8 C 13841.4,1086.8 14500.2,1086.8 14500.2,1086.8 "
     id="path63" />
  <path
     stroke="#ffffff"
     stroke-width="1"
     fill="none"
     transform="matrix(0.05 0 0 0.05 -10 -11)"
     d="M 14500.2,1086.8 C 14500.2,1086.8 14500.2,556.7 14500.2,556.7 C 14500.2,556.7 13841.4,556.7 13841.4,556.7 C 13841.4,556.7 13841.4,1086.8 13841.4,1086.8 C 13841.4,1086.8 14500.2,1086.8 14500.2,1086.8 "
     id="path64" />
  <path
     stroke="none"
     fill="#ffffff"
     transform="matrix(0.05 0 0 0.05 -10 -11)"
     d="M 15372.5,1515.8 C 15372.5,1515.8 15372.5,2244.1 15372.5,2244.1 C 15372.5,2244.1 14770.9,2244.1 14770.9,2244.1 C 14770.9,2244.1 14770.9,1515.8 14770.9,1515.8 C 14770.9,1515.8 15372.5,1515.8 15372.5,1515.8 "
     id="path77" />
  <path
     stroke="#ffffff"
     stroke-width="1"
     fill="none"
     transform="matrix(0.05 0 0 0.05 -10 -11)"
     d="M 15372.5,1515.8 C 15372.5,1515.8 15372.5,2244.1 15372.5,2244.1 C 15372.5,2244.1 14770.9,2244.1 14770.9,2244.1 C 14770.9,2244.1 14770.9,1515.8 14770.9,1515.8 C 14770.9,1515.8 15372.5,1515.8 15372.5,1515.8 "
     id="path78" />
  <path
     stroke="none"
     fill="#ffffff"
     transform="matrix(0.05 0 0 0.05 -10 -11)"
     d="M 13527.8,1501.5 C 13527.8,1501.5 13527.8,2272.7 13527.8,2272.7 C 13527.8,2272.7 13040.6,2272.7 13040.6,2272.7 C 13040.6,2272.7 13040.6,1501.5 13040.6,1501.5 C 13040.6,1501.5 13527.8,1501.5 13527.8,1501.5 "
     id="path79" />
  <path
     stroke="#ffffff"
     stroke-width="1"
     fill="none"
     transform="matrix(0.05 0 0 0.05 -10 -11)"
     d="M 13527.8,1501.5 C 13527.8,1501.5 13527.8,2272.7 13527.8,2272.7 C 13527.8,2272.7 13040.6,2272.7 13040.6,2272.7 C 13040.6,2272.7 13040.6,1501.5 13040.6,1501.5 C 13040.6,1501.5 13527.8,1501.5 13527.8,1501.5 "
     id="path80" />
  <path
     stroke="none"
     fill="#ffffff"
     transform="matrix(0.05 0 0 0.05 -10 -11)"
     d="M 13627.9,1530.1 C 13627.9,1530.1 13627.9,2272.7 13627.9,2272.7 C 13627.9,2272.7 14399.1,2272.7 14399.1,2272.7 C 14399.1,2272.7 14399.1,1530.1 14399.1,1530.1 C 14399.1,1530.1 13627.9,1530.1 13627.9,1530.1 "
     id="path81" />
  <path
     stroke="#ffffff"
     stroke-width="1"
     fill="none"
     transform="matrix(0.05 0 0 0.05 -10 -11)"
     d="M 13627.9,1530.1 C 13627.9,1530.1 13627.9,2272.7 13627.9,2272.7 C 13627.9,2272.7 14399.1,2272.7 14399.1,2272.7 C 14399.1,2272.7 14399.1,1530.1 14399.1,1530.1 C 14399.1,1530.1 13627.9,1530.1 13627.9,1530.1 "
     id="path82" />
  <path
     stroke="none"
     fill="#ffffff"
     transform="matrix(0.05 0 0 0.05 -10 -11)"
     d="M 11668.8,2459.6 C 11668.8,2459.6 11668.8,1729.3 11668.8,1729.3 C 11668.8,1729.3 10867,1729.3 10867,1729.3 C 10867,1729.3 10867,2459.6 10867,2459.6 C 10867,2459.6 11668.8,2459.6 11668.8,2459.6 "
     id="path85" />
  <path
     stroke="#ffffff"
     stroke-width="1"
     fill="none"
     transform="matrix(0.05 0 0 0.05 -10 -11)"
     d="M 11668.8,2459.6 C 11668.8,2459.6 11668.8,1729.3 11668.8,1729.3 C 11668.8,1729.3 10867,1729.3 10867,1729.3 C 10867,1729.3 10867,2459.6 10867,2459.6 C 10867,2459.6 11668.8,2459.6 11668.8,2459.6 "
     id="path86" />
  <path
     stroke="none"
     fill="#ffffff"
     transform="matrix(0.05 0 0 0.05 -10 -11)"
     d="M 10553.4,2473.9 C 10553.4,2473.9 10553.4,1800.8 10553.4,1800.8 C 10553.4,1800.8 9966.1,1800.8 9966.1,1800.8 C 9966.1,1800.8 9966.1,2473.9 9966.1,2473.9 C 9966.1,2473.9 10553.4,2473.9 10553.4,2473.9 "
     id="path87" />
  <path
     stroke="#ffffff"
     stroke-width="1"
     fill="none"
     transform="matrix(0.05 0 0 0.05 -10 -11)"
     d="M 10553.4,2473.9 C 10553.4,2473.9 10553.4,1800.8 10553.4,1800.8 C 10553.4,1800.8 9966.1,1800.8 9966.1,1800.8 C 9966.1,1800.8 9966.1,2473.9 9966.1,2473.9 C 9966.1,2473.9 10553.4,2473.9 10553.4,2473.9 "
     id="path88" />
  <path
     stroke="none"
     fill="#ffffff"
     transform="matrix(0.05 0 0 0.05 -10 -11)"
     d="M 15100.8,2559.7 C 15100.8,2559.7 15100.8,2272.7 15100.8,2272.7 C 15100.8,2272.7 16000.7,2272.7 16000.7,2272.7 C 16000.7,2272.7 16000.7,2559.7 16000.7,2559.7 C 16000.7,2559.7 15100.8,2559.7 15100.8,2559.7 "
     id="path89" />
  <path
     stroke="#ffffff"
     stroke-width="1"
     fill="none"
     transform="matrix(0.05 0 0 0.05 -10 -11)"
     d="M 15100.8,2559.7 C 15100.8,2559.7 15100.8,2272.7 15100.8,2272.7 C 15100.8,2272.7 16000.7,2272.7 16000.7,2272.7 C 16000.7,2272.7 16000.7,2559.7 16000.7,2559.7 C 16000.7,2559.7 15100.8,2559.7 15100.8,2559.7 "
     id="path90" />
  <path
     stroke="#000000"
     stroke-width="22"
     fill="none"
     transform="matrix(0.05 0 0 0.05 -10 -11)"
     d="M 16494.7,9367.47 C 16494.7,9367.47 16494.7,284.602 16494.7,284.602 C 16494.7,284.602 268.683,284.602 268.683,284.602 C 268.683,284.602 268.683,9367.47 268.683,9367.47 C 268.683,9367.47 16494.7,9367.47 16494.7,9367.47 "
     id="path93" />
  <text
     x="0"
     y="0"
     stroke="none"
     fill="#000000"
     transform="matrix(0.05 0 0 0.05 11.735 21.13)"
     font-style="normal"
     font-weight="bold"
     font-size="320px"
     font-family="Helvetica"
     id="text93">
Formation of C-C / C=C</text>
  <text
     x="0"
     y="0"
     stroke="none"
     fill="#999999"
     transform="matrix(0.05 0 0 0.05 11.9381 39.085)"
     font-style="normal"
     font-weight="normal"
     font-size="320px"
     font-family="Helvetica"
     id="text98">
click for more</text>
  <g
     id="goback"
     onclick="window.location.href = 'index-o1.svg'"
     onmouseover="document.getElementById('goback-box').setAttribute('opacity','0.5');"
     onmouseout="document.getElementById('goback-box').setAttribute('opacity','1')">
    <path
       stroke="none"
       fill="#999999"
       transform="matrix(0.05 0 0 0.05 -10 -11)"
       d="M 395.9,1492.34 C 395.9,1492.34 395.9,1302.37 395.9,1302.37 C 395.9,1228.92 455.513,1169.31 528.955,1169.31 C 528.955,1169.31 1775.84,1169.31 1775.84,1169.31 C 1849.29,1169.31 1908.9,1228.92 1908.9,1302.37 C 1908.9,1302.37 1908.9,1492.34 1908.9,1492.34 C 1908.9,1565.79 1849.29,1625.4 1775.84,1625.4 C 1775.84,1625.4 528.955,1625.4 528.955,1625.4 C 455.513,1625.4 395.9,1565.79 395.9,1492.34 "
       id="goback-box" />
    <text
       x="0"
       y="0"
       stroke="none"
       fill="#000000"
       transform="matrix(0.05 0 0 0.05 29.3796 61.765)"
       font-style="normal"
       font-weight="bold"
       font-size="200px"
       font-family="Helvetica"
       id="gobacktext">
go home</text>
    <path
       stroke="#999999"
       stroke-width="1"
       transform="matrix(0.05 0 0 0.05 -10 -11)"
       d="M 395.9,1492.34 C 395.9,1492.34 395.9,1302.37 395.9,1302.37 C 395.9,1228.92 455.513,1169.31 528.955,1169.31 C 528.955,1169.31 1775.84,1169.31 1775.84,1169.31 C 1849.29,1169.31 1908.9,1228.92 1908.9,1302.37 C 1908.9,1302.37 1908.9,1492.34 1908.9,1492.34 C 1908.9,1565.79 1849.29,1625.4 1775.84,1625.4 C 1775.84,1625.4 528.955,1625.4 528.955,1625.4 C 455.513,1625.4 395.9,1565.79 395.9,1492.34 "
       style="opacity:0"
       id="goback-link" />
  </g>
  <path
     stroke="none"
     fill="#000000"
     transform="matrix(0.05 0 0 0.05 -10 -11)"
     d="M 5551.7,3496.36 L 5551.7,2969.29 L 5573.7,2969.29 L 5573.7,3496.36 Z "
     id="path102" />
  <path
     stroke="none"
     fill="#000000"
     transform="matrix(0.05 0 0 0.05 -10 -11)"
     d="M 5562.7,3689.4 C 5562.7,3689.4 5505.26,3467.64 5505.26,3467.64 C 5505.26,3467.64 5537.57,3495.36 5562.7,3495.36 C 5587.39,3495.36 5619.14,3467.64 5619.14,3467.64 C 5619.14,3467.64 5562.7,3689.4 5562.7,3689.4 C 5562.7,3689.4 5562.7,3689.4 5562.7,3689.4 "
     id="path103" />
  <path
     stroke="#000000"
     stroke-width="1"
     fill="none"
     transform="matrix(0.05 0 0 0.05 -10 -11)"
     d="M 5562.7,3689.4 C 5562.7,3689.4 5505.26,3467.64 5505.26,3467.64 C 5505.26,3467.64 5537.57,3495.36 5562.7,3495.36 C 5587.39,3495.36 5619.14,3467.64 5619.14,3467.64 C 5619.14,3467.64 5562.7,3689.4 5562.7,3689.4 C 5562.7,3689.4 5562.7,3689.4 5562.7,3689.4 "
     id="path104" />
  <path
     stroke="none"
     fill="#000000"
     transform="matrix(0.05 0 0 0.05 -10 -11)"
     d="M 5225.18,1968.15 L 5214.09,1948.94 L 5405.54,1837.54 L 5405.71,1863.28 L 5225.18,1968.15 Z "
     id="path105" />
  <text
     x="0"
     y="0"
     stroke="none"
     fill="#000000"
     transform="matrix(0.05 0 0 0.05 256.755 74.1044)"
     font-style="normal"
     font-weight="bold"
     font-size="180px"
     font-family="Helvetica"
     id="text105">
O</text>
  <path
     stroke="none"
     fill="#000000"
     transform="matrix(0.05 0 0 0.05 -10 -11)"
     d="M 5388.47,1867.47 L 5366.3,1867.47 L 5366.3,1737.8 L 5388.47,1737.8 L 5388.47,1867.47 Z "
     id="path106" />
  <path
     stroke="none"
     fill="#000000"
     transform="matrix(0.05 0 0 0.05 -10 -11)"
     d="M 5443.91,1867.47 L 5421.74,1867.47 L 5421.74,1737.8 L 5443.91,1737.8 L 5443.91,1867.47 Z "
     id="path107" />
  <text
     x="0"
     y="0"
     stroke="none"
     fill="#107f01"
     transform="matrix(0.05 0 0 0.05 266.279 90.1661)"
     font-style="normal"
     font-weight="bold"
     font-size="180px"
     font-family="Helvetica"
     id="text107">
Cl</text>
  <path
     stroke="none"
     fill="#000000"
     transform="matrix(0.05 0 0 0.05 -10 -11)"
     d="M 5405.71,1863.28 L 5405.54,1837.54 L 5516.67,1903.08 L 5505.58,1922.28 L 5405.71,1863.28 Z "
     id="path108" />
  <text
     x="0"
     y="0"
     stroke="none"
     fill="#0000ff"
     transform="matrix(0.05 0 0 0.05 272.215 147.953)"
     font-style="normal"
     font-weight="bold"
     font-size="200px"
     font-family="Helvetica"
     id="text108">
R</text>
  <text
     x="0"
     y="0"
     stroke="none"
     fill="#000000"
     transform="matrix(0.05 0 0 0.05 279.437 147.953)"
     font-style="normal"
     font-weight="bold"
     font-size="200px"
     font-family="Helvetica"
     id="text109">
MgBr</text>
  <text
     x="0"
     y="0"
     stroke="none"
     fill="#000000"
     transform="matrix(0.05 0 0 0.05 272.652 168.841)"
     font-style="normal"
     font-weight="bold"
     font-size="160px"
     font-family="Helvetica"
     id="text110">
then </text>
  <text
     x="0"
     y="0"
     stroke="none"
     fill="#000000"
     transform="matrix(0.05 0 0 0.05 291.761 168.841)"
     font-style="normal"
     font-weight="bold"
     font-size="160px"
     font-family="Helvetica"
     id="text111">
H</text>
  <text
     x="0"
     y="0"
     stroke="none"
     fill="#000000"
     transform="matrix(0.05 0 0 0.05 297.539 170.681)"
     font-style="normal"
     font-weight="bold"
     font-size="120px"
     font-family="Helvetica"
     id="text112">
3</text>
  <text
     x="0"
     y="0"
     stroke="none"
     fill="#000000"
     transform="matrix(0.05 0 0 0.05 300.875 168.841)"
     font-style="normal"
     font-weight="bold"
     font-size="160px"
     font-family="Helvetica"
     id="text113">
O</text>
  <text
     x="0"
     y="0"
     stroke="none"
     fill="#000000"
     transform="matrix(0.05 0 0 0.05 307.098 165.962)"
     font-style="normal"
     font-weight="bold"
     font-size="120px"
     font-family="Helvetica"
     id="text114">
+</text>
  <text
     x="0"
     y="0"
     stroke="none"
     fill="#000000"
     transform="matrix(0.05 0 0 0.05 260.02 102.824)"
     font-style="normal"
     font-weight="bold"
     font-size="200px"
     font-family="Helvetica"
     id="text118">
or</text>
  <path
     stroke="none"
     fill="#000000"
     transform="matrix(0.05 0 0 0.05 -10 -11)"
     d="M 5189.47,2789.44 L 5178.38,2770.24 L 5367.02,2660.42 L 5367.23,2686.17 L 5189.47,2789.44 Z "
     id="path118" />
  <text
     x="0"
     y="0"
     stroke="none"
     fill="#000000"
     transform="matrix(0.05 0 0 0.05 254.826 115.416)"
     font-style="normal"
     font-weight="bold"
     font-size="180px"
     font-family="Helvetica"
     id="text119">
O</text>
  <path
     stroke="none"
     fill="#000000"
     transform="matrix(0.05 0 0 0.05 -10 -11)"
     d="M 5349.9,2690.41 L 5327.73,2690.41 L 5327.73,2564.04 L 5349.9,2564.04 L 5349.9,2690.41 Z "
     id="path119" />
  <path
     stroke="none"
     fill="#000000"
     transform="matrix(0.05 0 0 0.05 -10 -11)"
     d="M 5405.34,2690.41 L 5383.17,2690.41 L 5383.17,2564.04 L 5405.34,2564.04 L 5405.34,2690.41 Z "
     id="path120" />
  <text
     x="0"
     y="0"
     stroke="none"
     fill="#107f01"
     transform="matrix(0.05 0 0 0.05 263.957 131.231)"
     font-style="normal"
     font-weight="bold"
     font-size="180px"
     font-family="Helvetica"
     id="text120">
O</text>
  <path
     stroke="none"
     fill="#000000"
     transform="matrix(0.05 0 0 0.05 -10 -11)"
     d="M 5367.23,2686.17 L 5367.02,2660.42 L 5471.56,2722.24 L 5460.47,2741.45 L 5367.23,2686.17 Z "
     id="path121" />
  <path
     stroke="none"
     fill="#107f01"
     transform="matrix(0.05 0 0 0.05 -10 -11)"
     d="M 5638.38,2741.13 L 5627.29,2721.92 L 5731.26,2660.42 L 5731.05,2686.17 L 5638.38,2741.13 Z "
     id="path122" />
  <path
     stroke="none"
     fill="#107f01"
     transform="matrix(0.05 0 0 0.05 -10 -11)"
     d="M 5731.05,2686.17 L 5731.26,2660.42 L 5919.91,2770.24 L 5908.83,2789.44 L 5731.05,2686.17 Z "
     id="path123" />
  <text
     x="0"
     y="0"
     stroke="none"
     fill="#107f01"
     transform="matrix(0.05 0 0 0.05 273.088 115.416)"
     font-style="normal"
     font-weight="bold"
     font-size="180px"
     font-family="Helvetica"
     id="text123">
O</text>
  <path
     stroke="none"
     fill="#107f01"
     transform="matrix(0.05 0 0 0.05 -10 -11)"
     d="M 5715.13,2690.41 L 5692.95,2690.41 L 5692.95,2564.03 L 5715.13,2564.03 L 5715.13,2690.41 Z "
     id="path124" />
  <path
     stroke="none"
     fill="#107f01"
     transform="matrix(0.05 0 0 0.05 -10 -11)"
     d="M 5770.57,2690.41 L 5748.39,2690.41 L 5748.39,2564.03 L 5770.57,2564.03 L 5770.57,2690.41 Z "
     id="path125" />
  <text
     x="0"
     y="0"
     stroke="none"
     fill="#000000"
     transform="matrix(0.05 0 0 0.05 273.14 158.455)"
     font-style="normal"
     font-weight="bold"
     font-size="200px"
     font-family="Helvetica"
     id="text125">
or</text>
  <text
     x="0"
     y="0"
     stroke="none"
     fill="#0000ff"
     transform="matrix(0.05 0 0 0.05 283.14 158.455)"
     font-style="normal"
     font-weight="bold"
     font-size="200px"
     font-family="Helvetica"
     id="text126" />
  <text
     x="0"
     y="0"
     stroke="none"
     fill="#0000ff"
     transform="matrix(0.05 0 0 0.05 285.918 158.455)"
     font-style="normal"
     font-weight="bold"
     font-size="200px"
     font-family="Helvetica"
     id="text127">
R</text>
  <text
     x="0"
     y="0"
     stroke="none"
     fill="#000000"
     transform="matrix(0.05 0 0 0.05 293.14 158.455)"
     font-style="normal"
     font-weight="bold"
     font-size="200px"
     font-family="Helvetica"
     id="text128">
Li</text>
  <text
     x="0"
     y="0"
     stroke="none"
     fill="#0000ff"
     transform="matrix(0.05 0 0 0.05 554.64 133.653)"
     font-style="normal"
     font-weight="bold"
     font-size="200px"
     font-family="Helvetica"
     id="text129">
R</text>
  <text
     x="0"
     y="0"
     stroke="none"
     fill="#000000"
     transform="matrix(0.05 0 0 0.05 561.862 135.953)"
     font-style="normal"
     font-weight="bold"
     font-size="150px"
     font-family="Helvetica"
     id="text130">
2</text>
  <text
     x="0"
     y="0"
     stroke="none"
     fill="#000000"
     transform="matrix(0.05 0 0 0.05 566.033 133.653)"
     font-style="normal"
     font-weight="bold"
     font-size="200px"
     font-family="Helvetica"
     id="text131">
CuLi</text>
  <text
     x="0"
     y="0"
     stroke="none"
     fill="#000000"
     transform="matrix(0.05 0 0 0.05 604.562 28.1084)"
     font-style="normal"
     font-weight="bold"
     font-size="180px"
     font-family="Helvetica"
     id="text159">
CH</text>
  <text
     x="0"
     y="0"
     stroke="none"
     fill="#000000"
     transform="matrix(0.05 0 0 0.05 617.561 30.1782)"
     font-style="normal"
     font-weight="bold"
     font-size="135px"
     font-family="Helvetica"
     id="text160">
2</text>
  <text
     x="0"
     y="0"
     stroke="none"
     fill="#000000"
     transform="matrix(0.05 0 0 0.05 621.315 28.1084)"
     font-style="normal"
     font-weight="bold"
     font-size="180px"
     font-family="Helvetica"
     id="text161">
I</text>
  <text
     x="0"
     y="0"
     stroke="none"
     fill="#000000"
     transform="matrix(0.05 0 0 0.05 623.816 30.1782)"
     font-style="normal"
     font-weight="bold"
     font-size="135px"
     font-family="Helvetica"
     id="text162">
2</text>
  <text
     x="0"
     y="0"
     stroke="none"
     fill="#000000"
     transform="matrix(0.05 0 0 0.05 603.7 44.8034)"
     font-style="normal"
     font-weight="bold"
     font-size="180px"
     font-family="Helvetica"
     id="text163">
Cu/Zn</text>
  <text
     x="0"
     y="0"
     stroke="none"
     fill="#000000"
     transform="matrix(0.05 0 0 0.05 724.644 26.6784)"
     font-style="normal"
     font-weight="bold"
     font-size="180px"
     font-family="Helvetica"
     id="text164">
CHCl</text>
  <text
     x="0"
     y="0"
     stroke="none"
     fill="#000000"
     transform="matrix(0.05 0 0 0.05 746.643 28.7482)"
     font-style="normal"
     font-weight="bold"
     font-size="135px"
     font-family="Helvetica"
     id="text165">
3</text>
  <text
     x="0"
     y="0"
     stroke="none"
     fill="#000000"
     transform="matrix(0.05 0 0 0.05 723.59 43.34)"
     font-style="normal"
     font-weight="bold"
     font-size="180px"
     font-family="Helvetica"
     id="text166">
NaOH</text>
  <text
     x="0"
     y="0"
     stroke="none"
     fill="#000000"
     transform="matrix(0.05 0 0 0.05 748.863 123.218)"
     font-style="normal"
     font-weight="bold"
     font-size="160px"
     font-family="Helvetica"
     id="text186">
cat. </text>
  <text
     x="0"
     y="0"
     stroke="none"
     fill="#000000"
     transform="matrix(0.05 0 0 0.05 764.871 123.218)"
     font-style="normal"
     font-weight="bold"
     font-size="160px"
     font-family="Helvetica"
     id="text187">
Pd(OAc)</text>
  <text
     x="0"
     y="0"
     stroke="none"
     fill="#000000"
     transform="matrix(0.05 0 0 0.05 796.871 125.058)"
     font-style="normal"
     font-weight="bold"
     font-size="120px"
     font-family="Helvetica"
     id="text188">
2</text>
  <text
     x="0"
     y="0"
     stroke="none"
     fill="#000000"
     transform="matrix(0.05 0 0 0.05 758.825 78.176)"
     font-style="italic"
     font-weight="normal"
     font-size="160px"
     font-family="Helvetica Oblique"
     id="text191">
also aryl</text>
  <text
     x="0"
     y="0"
     stroke="none"
     fill="#000000"
     transform="matrix(0.05 0 0 0.05 758.825 86.5843)"
     font-style="italic"
     font-weight="normal"
     font-size="160px"
     font-family="Helvetica Oblique"
     id="text193">
halides work</text>
  <text
     x="0"
     y="0"
     stroke="none"
     fill="#000000"
     transform="matrix(0.05 0 0 0.05 117.332 414.739)"
     font-style="italic"
     font-weight="normal"
     font-size="160px"
     font-family="Arial"
     id="text204" />
  <text
     x="0"
     y="0"
     stroke="none"
     fill="#000000"
     transform="matrix(0.05 0 0 0.05 15.8514 413.438)"
     font-style="italic"
     font-weight="normal"
     font-size="160px"
     font-family="Arial"
     id="text207" />
  <path
     stroke="none"
     fill="#000000"
     transform="matrix(0.05 0 0 0.05 -10 -11)"
     d="M 3406.7,3489.8 L 3406.7,2766.62 L 3428.7,2766.62 L 3428.7,3489.8 Z "
     id="path330" />
  <path
     stroke="none"
     fill="#000000"
     transform="matrix(0.05 0 0 0.05 -10 -11)"
     d="M 3417.7,3682.83 C 3417.7,3682.83 3360.26,3461.08 3360.26,3461.08 C 3360.26,3461.08 3392.57,3488.8 3417.7,3488.8 C 3442.39,3488.8 3474.14,3461.08 3474.14,3461.08 C 3474.14,3461.08 3417.7,3682.83 3417.7,3682.83 C 3417.7,3682.83 3417.7,3682.83 3417.7,3682.83 "
     id="path331" />
  <path
     stroke="#000000"
     stroke-width="1"
     fill="none"
     transform="matrix(0.05 0 0 0.05 -10 -11)"
     d="M 3417.7,3682.83 C 3417.7,3682.83 3360.26,3461.08 3360.26,3461.08 C 3360.26,3461.08 3392.57,3488.8 3417.7,3488.8 C 3442.39,3488.8 3474.14,3461.08 3474.14,3461.08 C 3474.14,3461.08 3417.7,3682.83 3417.7,3682.83 C 3417.7,3682.83 3417.7,3682.83 3417.7,3682.83 "
     id="path332" />
  <text
     x="0"
     y="0"
     stroke="none"
     fill="#000000"
     transform="matrix(0.05 0 0 0.05 108.433 137.631)"
     font-style="normal"
     font-weight="bold"
     font-size="200px"
     font-family="Helvetica"
     id="text332">
1) </text>
  <text
     x="0"
     y="0"
     stroke="none"
     fill="#0000ff"
     transform="matrix(0.05 0 0 0.05 120.103 137.631)"
     font-style="normal"
     font-weight="bold"
     font-size="200px"
     font-family="Helvetica"
     id="text333">
R</text>
  <text
     x="0"
     y="0"
     stroke="none"
     fill="#000000"
     transform="matrix(0.05 0 0 0.05 127.324 137.631)"
     font-style="normal"
     font-weight="bold"
     font-size="200px"
     font-family="Helvetica"
     id="text334">
MgBr</text>
  <text
     x="0"
     y="0"
     stroke="none"
     fill="#000000"
     transform="matrix(0.05 0 0 0.05 108.433 148.665)"
     font-style="normal"
     font-weight="bold"
     font-size="200px"
     font-family="Helvetica"
     id="text335">
2) </text>
  <text
     x="0"
     y="0"
     stroke="none"
     fill="#000000"
     transform="matrix(0.05 0 0 0.05 120.103 148.665)"
     font-style="normal"
     font-weight="bold"
     font-size="200px"
     font-family="Helvetica"
     id="text336">
H</text>
  <text
     x="0"
     y="0"
     stroke="none"
     fill="#000000"
     transform="matrix(0.05 0 0 0.05 127.324 150.965)"
     font-style="normal"
     font-weight="bold"
     font-size="150px"
     font-family="Helvetica"
     id="text337">
3</text>
  <text
     x="0"
     y="0"
     stroke="none"
     fill="#000000"
     transform="matrix(0.05 0 0 0.05 131.495 148.665)"
     font-style="normal"
     font-weight="bold"
     font-size="200px"
     font-family="Helvetica"
     id="text338">
O</text>
  <text
     x="0"
     y="0"
     stroke="none"
     fill="#000000"
     transform="matrix(0.05 0 0 0.05 139.274 145.066)"
     font-style="normal"
     font-weight="bold"
     font-size="150px"
     font-family="Helvetica"
     id="text339">
+</text>
  <text
     x="0"
     y="0"
     stroke="none"
     fill="#000000"
     transform="matrix(0.05 0 0 0.05 122.892 159.885)"
     font-style="normal"
     font-weight="bold"
     font-size="160px"
     font-family="Helvetica"
     id="text342">
also</text>
  <text
     x="0"
     y="0"
     stroke="none"
     fill="#000000"
     transform="matrix(0.05 0 0 0.05 111.55 168.293)"
     font-style="normal"
     font-weight="bold"
     font-size="160px"
     font-family="Helvetica"
     id="text343">
acetylides</text>
  <text
     x="0"
     y="0"
     stroke="none"
     fill="#000000"
     transform="matrix(0.05 0 0 0.05 16.6402 144.098)"
     font-style="normal"
     font-weight="bold"
     font-size="200px"
     font-family="Helvetica"
     id="text344">
CN</text>
  <text
     x="0"
     y="0"
     stroke="none"
     fill="#000000"
     transform="matrix(0.05 0 0 0.05 31.0835 140.499)"
     font-style="normal"
     font-weight="bold"
     font-size="150px"
     font-family="Helvetica"
     id="text345">
-</text>
  <text
     x="0"
     y="0"
     stroke="none"
     fill="#000000"
     transform="matrix(0.05 0 0 0.05 68.0992 138.803)"
     font-style="normal"
     font-weight="bold"
     font-size="108px"
     font-family="Helvetica"
     id="text360">
C</text>
  <text
     x="0"
     y="0"
     stroke="none"
     fill="#000000"
     transform="matrix(0.05 0 0 0.05 68.0992 147.789)"
     font-style="normal"
     font-weight="bold"
     font-size="108px"
     font-family="Helvetica"
     id="text361">
C</text>
  <path
     stroke="none"
     fill="#000000"
     transform="matrix(0.05 0 0 0.05 -10 -11)"
     d="M 1627.59,3017.74 L 1640.9,3017.74 L 1640.9,3079.17 L 1627.59,3079.17 L 1627.59,3017.74 Z "
     id="path361" />
  <path
     stroke="none"
     fill="#000000"
     transform="matrix(0.05 0 0 0.05 -10 -11)"
     d="M 1594.33,3017.74 L 1607.63,3017.74 L 1607.63,3079.17 L 1594.33,3079.17 L 1594.33,3017.74 Z "
     id="path362" />
  <path
     stroke="none"
     fill="#000000"
     transform="matrix(0.05 0 0 0.05 -10 -11)"
     d="M 1561.07,3017.74 L 1574.37,3017.74 L 1574.37,3079.17 L 1561.07,3079.17 L 1561.07,3017.74 Z "
     id="path363" />
  <path
     stroke="none"
     fill="#000000"
     transform="matrix(0.05 0 0 0.05 -10 -11)"
     d="M 1594.54,3197.48 L 1607.84,3197.43 L 1608.25,3317.58 L 1594.95,3317.62 L 1594.54,3197.48 Z "
     id="path364" />
  <path
     stroke="#000000"
     stroke-width="11"
     fill="none"
     transform="matrix(0.05 0 0 0.05 -10 -11)"
     d="M 1638.86,2878.43 A 41.3221,41.3221 0 1 0 1721.5,2878.43A 41.3221,41.3221 0 1 0 1638.86,2878.43Z "
     id="path365" />
  <path
     stroke="none"
     fill="#000000"
     transform="matrix(0.05 0 0 0.05 -10 -11)"
     d="M 1655.53,2872.93 L 1704.83,2872.93 L 1704.83,2883.93 L 1655.53,2883.93 Z "
     id="path366" />
  <path
     stroke="none"
     fill="#000000"
     transform="matrix(0.05 0 0 0.05 -10 -11)"
     d="M 918.499,3214.75 L 918.499,2793.95 L 940.499,2793.95 L 940.499,3214.75 Z "
     id="path367" />
  <path
     stroke="none"
     fill="#000000"
     transform="matrix(0.05 0 0 0.05 -10 -11)"
     d="M 929.499,3407.79 C 929.499,3407.79 872.059,3186.03 872.059,3186.03 C 872.059,3186.03 904.369,3213.75 929.499,3213.75 C 954.192,3213.75 985.939,3186.03 985.939,3186.03 C 985.939,3186.03 929.499,3407.79 929.499,3407.79 C 929.499,3407.79 929.499,3407.79 929.499,3407.79 "
     id="path368" />
  <path
     stroke="#000000"
     stroke-width="1"
     fill="none"
     transform="matrix(0.05 0 0 0.05 -10 -11)"
     d="M 929.499,3407.79 C 929.499,3407.79 872.059,3186.03 872.059,3186.03 C 872.059,3186.03 904.369,3213.75 929.499,3213.75 C 954.192,3213.75 985.939,3186.03 985.939,3186.03 C 985.939,3186.03 929.499,3407.79 929.499,3407.79 C 929.499,3407.79 929.499,3407.79 929.499,3407.79 "
     id="path369" />
  <path
     stroke="none"
     fill="#000000"
     transform="matrix(0.05 0 0 0.05 -10 -11)"
     d="M 1862.3,3214.75 L 1862.3,2793.95 L 1884.3,2793.95 L 1884.3,3214.75 Z "
     id="path370" />
  <path
     stroke="none"
     fill="#000000"
     transform="matrix(0.05 0 0 0.05 -10 -11)"
     d="M 1873.3,3407.79 C 1873.3,3407.79 1815.86,3186.03 1815.86,3186.03 C 1815.86,3186.03 1848.17,3213.75 1873.3,3213.75 C 1897.99,3213.75 1929.74,3186.03 1929.74,3186.03 C 1929.74,3186.03 1873.3,3407.79 1873.3,3407.79 C 1873.3,3407.79 1873.3,3407.79 1873.3,3407.79 "
     id="path371" />
  <path
     stroke="#000000"
     stroke-width="1"
     fill="none"
     transform="matrix(0.05 0 0 0.05 -10 -11)"
     d="M 1873.3,3407.79 C 1873.3,3407.79 1815.86,3186.03 1815.86,3186.03 C 1815.86,3186.03 1848.17,3213.75 1873.3,3213.75 C 1897.99,3213.75 1929.74,3186.03 1929.74,3186.03 C 1929.74,3186.03 1873.3,3407.79 1873.3,3407.79 C 1873.3,3407.79 1873.3,3407.79 1873.3,3407.79 "
     id="path372" />
  <text
     x="0"
     y="0"
     stroke="none"
     fill="#000000"
     transform="matrix(0.05 0 0 0.05 85.7306 144.317)"
     font-style="normal"
     font-weight="normal"
     font-size="200px"
     font-family="Helvetica"
     id="text372">
1</text>
  <text
     x="0"
     y="0"
     stroke="none"
     fill="#000000"
     transform="matrix(0.05 0 0 0.05 91.2922 140.731)"
     font-style="normal"
     font-weight="normal"
     font-size="150px"
     font-family="Helvetica"
     id="text373">
o</text>
  <text
     x="0"
     y="0"
     stroke="none"
     fill="#000000"
     transform="matrix(0.05 0 0 0.05 39.4887 144.166)"
     font-style="normal"
     font-weight="normal"
     font-size="200px"
     font-family="Helvetica"
     id="text374">
1,2</text>
  <text
     x="0"
     y="0"
     stroke="none"
     fill="#000000"
     transform="matrix(0.05 0 0 0.05 53.3901 140.58)"
     font-style="normal"
     font-weight="normal"
     font-size="150px"
     font-family="Helvetica"
     id="text375">
o</text>
  <path
     stroke="none"
     fill="#000000"
     transform="matrix(0.05 0 0 0.05 -10 -11)"
     d="M 1071.48,2139.02 L 1082.56,2119.82 L 1336.41,2266.9 L 1336.41,2279.18 L 1326.01,2285.47 L 1071.48,2139.02 Z "
     id="path375" />
  <path
     stroke="none"
     fill="#000000"
     transform="matrix(0.05 0 0 0.05 -10 -11)"
     d="M 1346.81,2285.47 L 1336.41,2279.18 L 1336.41,2266.9 L 1590.26,2119.82 L 1601.35,2139.02 L 1346.81,2285.47 Z "
     id="path376" />
  <text
     x="0"
     y="0"
     stroke="none"
     fill="#107f01"
     transform="matrix(0.05 0 0 0.05 53.5709 121.174)"
     font-style="normal"
     font-weight="bold"
     font-size="180px"
     font-family="Helvetica"
     id="text376">
Br</text>
  <path
     stroke="none"
     fill="#000000"
     transform="matrix(0.05 0 0 0.05 -10 -11)"
     d="M 1326.01,2285.47 L 1336.41,2279.18 L 1346.81,2285.47 L 1347.5,2482.68 L 1325.32,2482.68 L 1326.01,2285.47 Z "
     id="path377" />
  <path
     stroke="none"
     fill="#000000"
     transform="matrix(0.05 0 0 0.05 -10 -11)"
     d="M 4589.3,3475.63 L 4589.3,2960.1 L 4611.3,2960.1 L 4611.3,3475.63 Z "
     id="path378" />
  <path
     stroke="none"
     fill="#000000"
     transform="matrix(0.05 0 0 0.05 -10 -11)"
     d="M 4600.3,3668.66 C 4600.3,3668.66 4542.86,3446.91 4542.86,3446.91 C 4542.86,3446.91 4575.17,3474.63 4600.3,3474.63 C 4624.99,3474.63 4656.74,3446.91 4656.74,3446.91 C 4656.74,3446.91 4600.3,3668.66 4600.3,3668.66 C 4600.3,3668.66 4600.3,3668.66 4600.3,3668.66 "
     id="path379" />
  <path
     stroke="#000000"
     stroke-width="1"
     fill="none"
     transform="matrix(0.05 0 0 0.05 -10 -11)"
     d="M 4600.3,3668.66 C 4600.3,3668.66 4542.86,3446.91 4542.86,3446.91 C 4542.86,3446.91 4575.17,3474.63 4600.3,3474.63 C 4624.99,3474.63 4656.74,3446.91 4656.74,3446.91 C 4656.74,3446.91 4600.3,3668.66 4600.3,3668.66 C 4600.3,3668.66 4600.3,3668.66 4600.3,3668.66 "
     id="path380" />
  <text
     x="0"
     y="0"
     stroke="none"
     fill="#0000ff"
     transform="matrix(0.05 0 0 0.05 186.515 149.324)"
     font-style="normal"
     font-weight="bold"
     font-size="200px"
     font-family="Helvetica"
     id="text384">
R</text>
  <text
     x="0"
     y="0"
     stroke="none"
     fill="#000000"
     transform="matrix(0.05 0 0 0.05 193.737 149.324)"
     font-style="normal"
     font-weight="bold"
     font-size="200px"
     font-family="Helvetica"
     id="text385">
MgX</text>
  <text
     x="0"
     y="0"
     stroke="none"
     fill="#000000"
     transform="matrix(0.05 0 0 0.05 190.902 159.447)"
     font-style="normal"
     font-weight="bold"
     font-size="160px"
     font-family="Helvetica"
     id="text386">
or </text>
  <text
     x="0"
     y="0"
     stroke="none"
     fill="#0000ff"
     transform="matrix(0.05 0 0 0.05 201.125 159.447)"
     font-style="normal"
     font-weight="bold"
     font-size="160px"
     font-family="Helvetica"
     id="text387">
R</text>
  <text
     x="0"
     y="0"
     stroke="none"
     fill="#000000"
     transform="matrix(0.05 0 0 0.05 206.902 159.447)"
     font-style="normal"
     font-weight="bold"
     font-size="160px"
     font-family="Helvetica"
     id="text388">
Li</text>
  <path
     stroke="none"
     fill="#000000"
     transform="matrix(0.05 0 0 0.05 -10 -11)"
     d="M 4541.35,2677.77 L 4519.17,2677.77 L 4519.17,2462.74 L 4541.35,2462.74 L 4541.35,2677.77 Z "
     id="path388" />
  <path
     stroke="none"
     fill="#000000"
     transform="matrix(0.05 0 0 0.05 -10 -11)"
     d="M 4596.79,2677.77 L 4574.61,2677.77 L 4574.61,2462.74 L 4596.79,2462.74 L 4596.79,2677.77 Z "
     id="path389" />
  <text
     x="0"
     y="0"
     stroke="none"
     fill="#000000"
     transform="matrix(0.05 0 0 0.05 214.399 110.351)"
     font-style="normal"
     font-weight="bold"
     font-size="180px"
     font-family="Helvetica"
     id="text389">
O</text>
  <path
     stroke="none"
     fill="#000000"
     transform="matrix(0.05 0 0 0.05 -10 -11)"
     d="M 4557.98,2674.05 L 4557.98,2648.39 L 4822.92,2801.93 L 4811.83,2821.13 L 4557.98,2674.05 Z "
     id="path390" />
  <path
     stroke="none"
     fill="#000000"
     transform="matrix(0.05 0 0 0.05 -10 -11)"
     d="M 4304.13,2821.13 L 4293.04,2801.93 L 4557.98,2648.39 L 4557.98,2674.05 L 4304.13,2821.13 Z "
     id="path391" />
  <text
     x="0"
     y="0"
     stroke="none"
     fill="#000000"
     transform="matrix(0.05 0 0 0.05 648.031 142.614)"
     font-style="normal"
     font-weight="bold"
     font-size="160px"
     font-family="Helvetica"
     id="text483">
Pd(OAc)</text>
  <text
     x="0"
     y="0"
     stroke="none"
     fill="#000000"
     transform="matrix(0.05 0 0 0.05 680.031 144.454)"
     font-style="normal"
     font-weight="bold"
     font-size="120px"
     font-family="Helvetica"
     id="text484">
2</text>
  <text
     x="0"
     y="0"
     stroke="none"
     fill="#0000ff"
     transform="matrix(0.05 0 0 0.05 646.38 124.024)"
     font-style="normal"
     font-weight="bold"
     font-size="160px"
     font-family="Helvetica"
     id="text485">
R</text>
  <text
     x="0"
     y="0"
     stroke="none"
     fill="#000000"
     transform="matrix(0.05 0 0 0.05 652.158 124.024)"
     font-style="normal"
     font-weight="bold"
     font-size="160px"
     font-family="Helvetica"
     id="text486">
B(OH)</text>
  <text
     x="0"
     y="0"
     stroke="none"
     fill="#000000"
     transform="matrix(0.05 0 0 0.05 675.263 125.864)"
     font-style="normal"
     font-weight="bold"
     font-size="120px"
     font-family="Helvetica"
     id="text487">
2</text>
  <path
     stroke="none"
     fill="#000000"
     transform="matrix(0.05 0 0 0.05 -10 -11)"
     d="M 13064.7,3330.45 L 13064.7,2463.59 L 13086.7,2463.59 L 13086.7,3330.45 Z "
     id="path487" />
  <path
     stroke="none"
     fill="#000000"
     transform="matrix(0.05 0 0 0.05 -10 -11)"
     d="M 13075.7,2452.59 L 13637.4,2452.59 L 13637.4,2474.59 L 13075.7,2474.59 Z "
     id="path488" />
  <path
     stroke="none"
     fill="#000000"
     transform="matrix(0.05 0 0 0.05 -10 -11)"
     d="M 13626.4,2463.59 L 13626.4,2259.4 L 13648.4,2259.4 L 13648.4,2463.59 Z "
     id="path489" />
  <path
     stroke="none"
     fill="#000000"
     transform="matrix(0.05 0 0 0.05 -10 -11)"
     d="M 13626.4,3524.96 L 13626.4,3335.89 L 13648.4,3335.89 L 13648.4,3524.96 Z "
     id="path490" />
  <path
     stroke="none"
     fill="#000000"
     transform="matrix(0.05 0 0 0.05 -10 -11)"
     d="M 13637.4,3718 C 13637.4,3718 13580,3496.24 13580,3496.24 C 13580,3496.24 13612.3,3523.96 13637.4,3523.96 C 13662.1,3523.96 13693.9,3496.24 13693.9,3496.24 C 13693.9,3496.24 13637.4,3718 13637.4,3718 C 13637.4,3718 13637.4,3718 13637.4,3718 "
     id="path491" />
  <path
     stroke="#000000"
     stroke-width="1"
     fill="none"
     transform="matrix(0.05 0 0 0.05 -10 -11)"
     d="M 13637.4,3718 C 13637.4,3718 13580,3496.24 13580,3496.24 C 13580,3496.24 13612.3,3523.96 13637.4,3523.96 C 13662.1,3523.96 13693.9,3496.24 13693.9,3496.24 C 13693.9,3496.24 13637.4,3718 13637.4,3718 C 13637.4,3718 13637.4,3718 13637.4,3718 "
     id="path492" />
  <path
     stroke="none"
     fill="#000000"
     transform="matrix(0.05 0 0 0.05 -10 -11)"
     d="M 13300.2,1941.51 L 13310.2,1935.2 L 13320.2,1941.54 L 13320.7,2067.16 L 13298.5,2067.06 L 13300.2,1941.51 Z "
     id="path493" />
  <text
     x="0"
     y="0"
     stroke="none"
     fill="#107f01"
     transform="matrix(0.05 0 0 0.05 652.209 100.395)"
     font-style="normal"
     font-weight="bold"
     font-size="180px"
     font-family="Helvetica"
     id="text493">
Br</text>
  <path
     stroke="none"
     fill="#000000"
     transform="matrix(0.05 0 0 0.05 -10 -11)"
     d="M 13310.2,1923.16 L 13310.2,1935.2 L 13300.2,1941.51 L 13122,1840.2 L 13144.3,1827.34 L 13310.2,1923.16 Z "
     id="path494" />
  <path
     stroke="none"
     fill="#000000"
     transform="matrix(0.05 0 0 0.05 -10 -11)"
     d="M 13315.8,1861.58 L 13304.7,1880.79 L 13183.7,1810.96 L 13194.8,1791.76 L 13315.8,1861.58 Z "
     id="path495" />
  <path
     stroke="none"
     fill="#000000"
     transform="matrix(0.05 0 0 0.05 -10 -11)"
     d="M 13476.2,1827.34 L 13498.4,1840.2 L 13320.2,1941.54 L 13310.2,1935.2 L 13310.2,1923.16 L 13476.2,1827.34 Z "
     id="path496" />
  <text
     x="0"
     y="0"
     stroke="none"
     fill="#0000ff"
     transform="matrix(0.05 0 0 0.05 695.715 133.319)"
     font-style="normal"
     font-weight="bold"
     font-size="160px"
     font-family="Helvetica"
     id="text496">
R</text>
  <text
     x="0"
     y="0"
     stroke="none"
     fill="#000000"
     transform="matrix(0.05 0 0 0.05 701.493 135.159)"
     font-style="normal"
     font-weight="bold"
     font-size="120px"
     font-family="Helvetica"
     id="text497">
2</text>
  <text
     x="0"
     y="0"
     stroke="none"
     fill="#000000"
     transform="matrix(0.05 0 0 0.05 704.83 133.319)"
     font-style="normal"
     font-weight="bold"
     font-size="160px"
     font-family="Helvetica"
     id="text498">
CuLi</text>
  <path
     stroke="none"
     fill="#000000"
     transform="matrix(0.05 0 0 0.05 -10 -11)"
     d="M 13144.3,1827.34 L 13122,1840.2 L 13122,1622.86 L 13144.3,1635.72 L 13144.3,1827.34 Z "
     id="path498" />
  <path
     stroke="none"
     fill="#000000"
     transform="matrix(0.05 0 0 0.05 -10 -11)"
     d="M 13144.3,1635.72 L 13122,1622.86 L 13310.2,1514.19 L 13310.2,1539.9 L 13144.3,1635.72 Z "
     id="path499" />
  <path
     stroke="none"
     fill="#000000"
     transform="matrix(0.05 0 0 0.05 -10 -11)"
     d="M 13194.8,1671.3 L 13183.7,1652.1 L 13304.7,1582.27 L 13315.8,1601.47 L 13194.8,1671.3 Z "
     id="path500" />
  <path
     stroke="none"
     fill="#000000"
     transform="matrix(0.05 0 0 0.05 -10 -11)"
     d="M 13310.2,1539.9 L 13310.2,1514.19 L 13498.4,1622.86 L 13476.2,1635.72 L 13310.2,1539.9 Z "
     id="path501" />
  <path
     stroke="none"
     fill="#000000"
     transform="matrix(0.05 0 0 0.05 -10 -11)"
     d="M 13476.2,1635.72 L 13498.4,1622.86 L 13498.4,1840.2 L 13476.2,1827.34 L 13476.2,1635.72 Z "
     id="path502" />
  <path
     stroke="none"
     fill="#000000"
     transform="matrix(0.05 0 0 0.05 -10 -11)"
     d="M 13420.1,1661.7 L 13442.3,1661.7 L 13442.3,1801.36 L 13420.1,1801.36 L 13420.1,1661.7 Z "
     id="path503" />
  <path
     stroke="none"
     fill="#000000"
     transform="matrix(0.05 0 0 0.05 -10 -11)"
     d="M 13641.2,1710.02 L 13652.3,1690.82 L 13917.9,1843.6 L 13895.7,1856.47 L 13641.2,1710.02 Z "
     id="path518" />
  <path
     stroke="none"
     fill="#000000"
     transform="matrix(0.05 0 0 0.05 -10 -11)"
     d="M 13883.9,1843.78 L 13872.8,1824.57 L 14146.1,1666.81 L 14157.2,1686.01 L 13883.9,1843.78 Z "
     id="path519" />
  <path
     stroke="none"
     fill="#000000"
     transform="matrix(0.05 0 0 0.05 -10 -11)"
     d="M 13911.7,1891.79 L 13900.6,1872.58 L 14173.8,1714.82 L 14184.9,1734.03 L 13911.7,1891.79 Z "
     id="path520" />
  <text
     x="0"
     y="0"
     stroke="none"
     fill="#107f01"
     transform="matrix(0.05 0 0 0.05 682.056 99.7236)"
     font-style="normal"
     font-weight="bold"
     font-size="180px"
     font-family="Helvetica"
     id="text520">
Br</text>
  <path
     stroke="none"
     fill="#000000"
     transform="matrix(0.05 0 0 0.05 -10 -11)"
     d="M 13895.7,1856.47 L 13917.9,1843.6 L 13917.2,2053.68 L 13895,2053.68 L 13895.7,1856.47 Z "
     id="path521" />
  <path
     stroke="none"
     fill="#000000"
     transform="matrix(0.05 0 0 0.05 -10 -11)"
     d="M 9966.08,1924.52 L 9977.16,1905.32 L 10231,2052.4 L 10231,2064.68 L 10220.6,2070.97 L 9966.08,1924.52 Z "
     id="path522" />
  <path
     stroke="none"
     fill="#000000"
     transform="matrix(0.05 0 0 0.05 -10 -11)"
     d="M 10241.4,2070.97 L 10231,2064.68 L 10231,2052.4 L 10484.9,1905.32 L 10495.9,1924.52 L 10241.4,2070.97 Z "
     id="path523" />
  <text
     x="0"
     y="0"
     stroke="none"
     fill="#107f01"
     transform="matrix(0.05 0 0 0.05 498.301 110.449)"
     font-style="normal"
     font-weight="bold"
     font-size="180px"
     font-family="Helvetica"
     id="text523">
Br</text>
  <path
     stroke="none"
     fill="#000000"
     transform="matrix(0.05 0 0 0.05 -10 -11)"
     d="M 10220.6,2070.97 L 10231,2064.68 L 10241.4,2070.97 L 10242.1,2268.18 L 10219.9,2268.18 L 10220.6,2070.97 Z "
     id="path524" />
  <path
     stroke="none"
     fill="#000000"
     transform="matrix(0.05 0 0 0.05 -10 -11)"
     d="M 10242.1,3028.85 L 10242.1,2531.1 L 10264.1,2531.1 L 10264.1,3028.85 Z "
     id="path525" />
  <path
     stroke="none"
     fill="#000000"
     transform="matrix(0.05 0 0 0.05 -10 -11)"
     d="M 10253.1,3221.89 C 10253.1,3221.89 10195.7,3000.13 10195.7,3000.13 C 10195.7,3000.13 10228,3027.85 10253.1,3027.85 C 10277.8,3027.85 10309.5,3000.13 10309.5,3000.13 C 10309.5,3000.13 10253.1,3221.89 10253.1,3221.89 C 10253.1,3221.89 10253.1,3221.89 10253.1,3221.89 "
     id="path526" />
  <path
     stroke="#000000"
     stroke-width="1"
     fill="none"
     transform="matrix(0.05 0 0 0.05 -10 -11)"
     d="M 10253.1,3221.89 C 10253.1,3221.89 10195.7,3000.13 10195.7,3000.13 C 10195.7,3000.13 10228,3027.85 10253.1,3027.85 C 10277.8,3027.85 10309.5,3000.13 10309.5,3000.13 C 10309.5,3000.13 10253.1,3221.89 10253.1,3221.89 C 10253.1,3221.89 10253.1,3221.89 10253.1,3221.89 "
     id="path527" />
  <text
     x="0"
     y="0"
     stroke="none"
     fill="#0000ff"
     transform="matrix(0.05 0 0 0.05 504.745 133.324)"
     font-style="normal"
     font-weight="bold"
     font-size="200px"
     font-family="Helvetica"
     id="text527">
R</text>
  <text
     x="0"
     y="0"
     stroke="none"
     fill="#000000"
     transform="matrix(0.05 0 0 0.05 511.967 135.624)"
     font-style="normal"
     font-weight="bold"
     font-size="150px"
     font-family="Helvetica"
     id="text528">
2</text>
  <text
     x="0"
     y="0"
     stroke="none"
     fill="#000000"
     transform="matrix(0.05 0 0 0.05 516.138 133.324)"
     font-style="normal"
     font-weight="bold"
     font-size="200px"
     font-family="Helvetica"
     id="text529">
CuLi</text>
  <path
     stroke="none"
     fill="#000000"
     transform="matrix(0.05 0 0 0.05 -10 -11)"
     d="M 2846.61,2305.41 L 2847.14,2283.24 L 3143.14,2290.51 L 3145.79,2301.45 L 3142.92,2312.28 L 2846.61,2305.41 Z "
     id="path529" />
  <path
     stroke="none"
     fill="#000000"
     transform="matrix(0.05 0 0 0.05 -10 -11)"
     d="M 3164.91,2302.26 L 3145.79,2301.45 L 3143.14,2290.51 L 3422.34,2135.87 L 3398.58,2174.67 L 3164.91,2302.26 Z "
     id="path530" />
  <text
     x="0"
     y="0"
     stroke="none"
     fill="#000000"
     transform="matrix(0.05 0 0 0.05 156.555 115.093)"
     font-style="normal"
     font-weight="bold"
     font-size="180px"
     font-family="Helvetica"
     id="text530">
O</text>
  <path
     stroke="none"
     fill="#000000"
     transform="matrix(0.05 0 0 0.05 -10 -11)"
     d="M 3142.92,2312.28 L 3145.79,2301.45 L 3164.91,2302.26 L 3324.77,2397.56 L 3313.23,2416.5 L 3142.92,2312.28 Z "
     id="path531" />
  <path
     stroke="none"
     fill="#000000"
     transform="matrix(0.05 0 0 0.05 -10 -11)"
     d="M 3414.52,2359.39 L 3392.35,2358.87 L 3398.58,2174.67 L 3422.34,2135.87 L 3414.52,2359.39 Z "
     id="path532" />
  <path
     stroke="none"
     fill="#000000"
     transform="matrix(0.05 0 0 0.05 -10 -11)"
     d="M 10973.8,2339.29 L 10962.7,2320.09 L 11227.8,2166.43 L 11227.9,2192.1 L 10973.8,2339.29 Z "
     id="path533" />
  <text
     x="0"
     y="0"
     stroke="none"
     fill="#000000"
     transform="matrix(0.05 0 0 0.05 547.881 86.2594)"
     font-style="normal"
     font-weight="bold"
     font-size="180px"
     font-family="Helvetica"
     id="text533">
O</text>
  <path
     stroke="none"
     fill="#000000"
     transform="matrix(0.05 0 0 0.05 -10 -11)"
     d="M 11211,2195.94 L 11188.8,2195.94 L 11188.8,1980.9 L 11211,1980.9 L 11211,2195.94 Z "
     id="path534" />
  <path
     stroke="none"
     fill="#000000"
     transform="matrix(0.05 0 0 0.05 -10 -11)"
     d="M 11266.4,2195.94 L 11244.3,2195.94 L 11244.3,1980.9 L 11266.4,1980.9 L 11266.4,2195.94 Z "
     id="path535" />
  <text
     x="0"
     y="0"
     stroke="none"
     fill="#107f01"
     transform="matrix(0.05 0 0 0.05 561.101 108.723)"
     font-style="normal"
     font-weight="bold"
     font-size="180px"
     font-family="Helvetica"
     id="text535">
Cl</text>
  <path
     stroke="none"
     fill="#000000"
     transform="matrix(0.05 0 0 0.05 -10 -11)"
     d="M 11227.9,2192.1 L 11227.8,2166.43 L 11413.1,2274.22 L 11402,2293.43 L 11227.9,2192.1 Z "
     id="path536" />
  <path
     stroke="none"
     fill="#000000"
     transform="matrix(0.05 0 0 0.05 -10 -11)"
     d="M 1873.3,2804.95 L 929.499,2804.95 L 929.499,2782.95 L 1873.3,2782.95 Z "
     id="path537" />
  <path
     stroke="none"
     fill="#000000"
     transform="matrix(0.05 0 0 0.05 -10 -11)"
     d="M 15191.8,2396.31 L 15191.8,2374.14 L 15489.8,2374.14 L 15489.8,2396.31 L 15191.8,2396.31 Z "
     id="path538" />
  <path
     stroke="none"
     fill="#000000"
     transform="matrix(0.05 0 0 0.05 -10 -11)"
     d="M 15489.8,2340.87 L 15489.8,2318.7 L 15787.8,2318.7 L 15787.8,2340.87 L 15489.8,2340.87 Z "
     id="path539" />
  <path
     stroke="none"
     fill="#000000"
     transform="matrix(0.05 0 0 0.05 -10 -11)"
     d="M 15489.8,2396.31 L 15489.8,2374.14 L 15787.8,2374.14 L 15787.8,2396.31 L 15489.8,2396.31 Z "
     id="path540" />
  <path
     stroke="none"
     fill="#000000"
     transform="matrix(0.05 0 0 0.05 -10 -11)"
     d="M 15489.8,2451.75 L 15489.8,2429.58 L 15787.8,2429.58 L 15787.8,2451.75 L 15489.8,2451.75 Z "
     id="path541" />
  <path
     stroke="none"
     fill="#000000"
     transform="matrix(0.05 0 0 0.05 -10 -11)"
     d="M 11200.2,3028.85 L 11200.2,2531.1 L 11222.2,2531.1 L 11222.2,3028.85 Z "
     id="path542" />
  <path
     stroke="none"
     fill="#000000"
     transform="matrix(0.05 0 0 0.05 -10 -11)"
     d="M 11211.2,3221.89 C 11211.2,3221.89 11153.8,3000.13 11153.8,3000.13 C 11153.8,3000.13 11186.1,3027.85 11211.2,3027.85 C 11235.9,3027.85 11267.6,3000.13 11267.6,3000.13 C 11267.6,3000.13 11211.2,3221.89 11211.2,3221.89 C 11211.2,3221.89 11211.2,3221.89 11211.2,3221.89 "
     id="path543" />
  <path
     stroke="#000000"
     stroke-width="1"
     fill="none"
     transform="matrix(0.05 0 0 0.05 -10 -11)"
     d="M 11211.2,3221.89 C 11211.2,3221.89 11153.8,3000.13 11153.8,3000.13 C 11153.8,3000.13 11186.1,3027.85 11211.2,3027.85 C 11235.9,3027.85 11267.6,3000.13 11267.6,3000.13 C 11267.6,3000.13 11211.2,3221.89 11211.2,3221.89 C 11211.2,3221.89 11211.2,3221.89 11211.2,3221.89 "
     id="path544" />
  <text
     x="0"
     y="0"
     stroke="none"
     fill="#000000"
     transform="matrix(0.05 0 0 0.05 665.675 93.39)"
     font-style="normal"
     font-weight="bold"
     font-size="200px"
     font-family="Helvetica"
     id="text544">
or</text>
  <path
     stroke="none"
     fill="#000000"
     transform="matrix(0.05 0 0 0.05 -10 -11)"
     d="M 14813.8,1652.82 L 14824.9,1633.61 L 15090.5,1786.4 L 15068.3,1799.27 L 14813.8,1652.82 Z "
     id="path545" />
  <path
     stroke="none"
     fill="#000000"
     transform="matrix(0.05 0 0 0.05 -10 -11)"
     d="M 15056.5,1786.58 L 15045.4,1767.37 L 15318.7,1609.61 L 15329.8,1628.81 L 15056.5,1786.58 Z "
     id="path546" />
  <path
     stroke="none"
     fill="#000000"
     transform="matrix(0.05 0 0 0.05 -10 -11)"
     d="M 15084.3,1834.59 L 15073.2,1815.38 L 15346.4,1657.62 L 15357.5,1676.83 L 15084.3,1834.59 Z "
     id="path547" />
  <text
     x="0"
     y="0"
     stroke="none"
     fill="#107f01"
     transform="matrix(0.05 0 0 0.05 740.686 96.8636)"
     font-style="normal"
     font-weight="bold"
     font-size="180px"
     font-family="Helvetica"
     id="text547">
Br</text>
  <path
     stroke="none"
     fill="#000000"
     transform="matrix(0.05 0 0 0.05 -10 -11)"
     d="M 15068.3,1799.27 L 15090.5,1786.4 L 15089.8,1996.48 L 15067.6,1996.48 L 15068.3,1799.27 Z "
     id="path548" />
  <path
     stroke="none"
     fill="#000000"
     transform="matrix(0.05 0 0 0.05 -10 -11)"
     d="M 15018.3,2814.35 L 15018.3,2316.6 L 15040.3,2316.6 L 15040.3,2814.35 Z "
     id="path549" />
  <path
     stroke="none"
     fill="#000000"
     transform="matrix(0.05 0 0 0.05 -10 -11)"
     d="M 15029.3,3007.39 C 15029.3,3007.39 14971.9,2785.63 14971.9,2785.63 C 14971.9,2785.63 15004.2,2813.35 15029.3,2813.35 C 15054,2813.35 15085.7,2785.63 15085.7,2785.63 C 15085.7,2785.63 15029.3,3007.39 15029.3,3007.39 C 15029.3,3007.39 15029.3,3007.39 15029.3,3007.39 "
     id="path550" />
  <path
     stroke="#000000"
     stroke-width="1"
     fill="none"
     transform="matrix(0.05 0 0 0.05 -10 -11)"
     d="M 15029.3,3007.39 C 15029.3,3007.39 14971.9,2785.63 14971.9,2785.63 C 14971.9,2785.63 15004.2,2813.35 15029.3,2813.35 C 15054,2813.35 15085.7,2785.63 15085.7,2785.63 C 15085.7,2785.63 15029.3,3007.39 15029.3,3007.39 C 15029.3,3007.39 15029.3,3007.39 15029.3,3007.39 "
     id="path551" />
  <path
     stroke="#000000"
     stroke-width="22"
     fill="none"
     stroke-dasharray="53"
     d="M 413.7,4485.84 C 413.7,4485.84 413.7,1894.42 413.7,1894.42 C 413.7,1820.98 473.313,1761.37 546.755,1761.37 C 546.755,1761.37 3685.04,1761.37 3685.04,1761.37 C 3758.49,1761.37 3818.1,1820.98 3818.1,1894.42 C 3818.1,1894.42 3818.1,4485.84 3818.1,4485.84 C 3818.1,4559.29 3758.49,4618.9 3685.04,4618.9 C 3685.04,4618.9 546.755,4618.9 546.755,4618.9 C 473.313,4618.9 413.7,4559.29 413.7,4485.84 "
     id="path553"
     transform="matrix(0.05 0 0 0.05 -10 -11)" />
  <path
     stroke="#000000"
     stroke-width="22"
     fill="none"
     transform="matrix(0.05 0 0 0.05 -10 -11)"
     stroke-dasharray="53"
     d="M 9881.3,4628.84 C 9881.3,4628.84 9881.3,1591.66 9881.3,1591.66 C 9881.3,1518.21 9940.91,1458.6 10014.4,1458.6 C 10014.4,1458.6 16269,1458.6 16269,1458.6 C 16342.5,1458.6 16402.1,1518.21 16402.1,1591.66 C 16402.1,1591.66 16402.1,4628.84 16402.1,4628.84 C 16402.1,4702.29 16342.5,4761.9 16269,4761.9 C 16269,4761.9 10014.4,4761.9 10014.4,4761.9 C 9940.91,4761.9 9881.3,4702.29 9881.3,4628.84 "
     id="path554" />
  <path
     stroke="none"
     fill="#000000"
     transform="matrix(0.05 0 0 0.05 -10 -11)"
     d="M 8778.05,2546.35 L 8762.84,2530.21 L 8838.78,2458.63 L 8853.99,2474.77 L 8778.05,2546.35 Z "
     id="path565" />
  <path
     stroke="none"
     fill="#000000"
     transform="matrix(0.05 0 0 0.05 -10 -11)"
     d="M 8816.08,2586.69 L 8800.87,2570.55 L 8876.8,2498.98 L 8892.02,2515.11 L 8816.08,2586.69 Z "
     id="path566" />
  <text
     x="0"
     y="0"
     stroke="none"
     fill="#000000"
     transform="matrix(0.05 0 0 0.05 433.534 113.271)"
     font-style="normal"
     font-weight="bold"
     font-size="180px"
     font-family="Helvetica"
     id="text566">
C</text>
  <text
     x="0"
     y="0"
     stroke="none"
     fill="#000000"
     transform="matrix(0.05 0 0 0.05 422.385 123.543)"
     font-style="normal"
     font-weight="bold"
     font-size="180px"
     font-family="Helvetica"
     id="text567">
O</text>
  <text
     x="0"
     y="0"
     stroke="none"
     fill="#000000"
     transform="matrix(0.05 0 0 0.05 444.316 103.144)"
     font-style="normal"
     font-weight="bold"
     font-size="180px"
     font-family="Helvetica"
     id="text568">
O</text>
  <path
     stroke="none"
     fill="#000000"
     transform="matrix(0.05 0 0 0.05 -10 -11)"
     d="M 8996.17,2342.53 L 8981.18,2326.19 L 9057.38,2256.25 L 9072.38,2272.59 L 8996.17,2342.53 Z "
     id="path568" />
  <path
     stroke="none"
     fill="#000000"
     transform="matrix(0.05 0 0 0.05 -10 -11)"
     d="M 9033.66,2383.37 L 9018.67,2367.03 L 9094.87,2297.1 L 9109.86,2313.43 L 9033.66,2383.37 Z "
     id="path569" />
  <path
     stroke="none"
     fill="#000000"
     transform="matrix(0.05 0 0 0.05 -10 -11)"
     d="M 5754.28,2239.85 L 5743.19,2220.64 L 5934.67,2109.21 L 5934.87,2134.95 L 5754.28,2239.85 Z "
     id="path570" />
  <text
     x="0"
     y="0"
     stroke="none"
     fill="#000000"
     transform="matrix(0.05 0 0 0.05 283.21 87.6893)"
     font-style="normal"
     font-weight="bold"
     font-size="180px"
     font-family="Helvetica"
     id="text570">
O</text>
  <path
     stroke="none"
     fill="#000000"
     transform="matrix(0.05 0 0 0.05 -10 -11)"
     d="M 5917.57,2139.17 L 5895.4,2139.17 L 5895.4,2009.5 L 5917.57,2009.5 L 5917.57,2139.17 Z "
     id="path571" />
  <path
     stroke="none"
     fill="#000000"
     transform="matrix(0.05 0 0 0.05 -10 -11)"
     d="M 5973.01,2139.17 L 5950.84,2139.17 L 5950.84,2009.5 L 5973.01,2009.5 L 5973.01,2139.17 Z "
     id="path572" />
  <text
     x="0"
     y="0"
     stroke="none"
     fill="#107f01"
     transform="matrix(0.05 0 0 0.05 292.483 103.751)"
     font-style="normal"
     font-weight="bold"
     font-size="180px"
     font-family="Helvetica"
     id="text572">
OR</text>
  <path
     stroke="none"
     fill="#000000"
     transform="matrix(0.05 0 0 0.05 -10 -11)"
     d="M 5934.87,2134.95 L 5934.67,2109.21 L 6042.08,2172.65 L 6030.99,2191.85 L 5934.87,2134.95 Z "
     id="path573" />
  <path
     stroke="none"
     fill="#000000"
     transform="matrix(0.05 0 0 0.05 -10 -11)"
     d="M 8888.24,3555.28 L 8888.24,2888.6 L 8910.24,2888.6 L 8910.24,3555.28 Z "
     id="path580" />
  <path
     stroke="none"
     fill="#000000"
     transform="matrix(0.05 0 0 0.05 -10 -11)"
     d="M 8899.24,3748.32 C 8899.24,3748.32 8841.8,3526.56 8841.8,3526.56 C 8841.8,3526.56 8874.11,3554.28 8899.24,3554.28 C 8923.93,3554.28 8955.68,3526.56 8955.68,3526.56 C 8955.68,3526.56 8899.24,3748.32 8899.24,3748.32 C 8899.24,3748.32 8899.24,3748.32 8899.24,3748.32 "
     id="path581" />
  <path
     stroke="#000000"
     stroke-width="1"
     fill="none"
     transform="matrix(0.05 0 0 0.05 -10 -11)"
     d="M 8899.24,3748.32 C 8899.24,3748.32 8841.8,3526.56 8841.8,3526.56 C 8841.8,3526.56 8874.11,3554.28 8899.24,3554.28 C 8923.93,3554.28 8955.68,3526.56 8955.68,3526.56 C 8955.68,3526.56 8899.24,3748.32 8899.24,3748.32 C 8899.24,3748.32 8899.24,3748.32 8899.24,3748.32 "
     id="path582" />
  <text
     x="0"
     y="0"
     stroke="none"
     fill="#0000ff"
     transform="matrix(0.05 0 0 0.05 438.195 152.184)"
     font-style="normal"
     font-weight="bold"
     font-size="200px"
     font-family="Helvetica"
     id="text582">
R</text>
  <text
     x="0"
     y="0"
     stroke="none"
     fill="#000000"
     transform="matrix(0.05 0 0 0.05 445.417 152.184)"
     font-style="normal"
     font-weight="bold"
     font-size="200px"
     font-family="Helvetica"
     id="text583">
MgX</text>
  <text
     x="0"
     y="0"
     stroke="none"
     fill="#000000"
     transform="matrix(0.05 0 0 0.05 438.532 160.976)"
     font-style="normal"
     font-weight="bold"
     font-size="160px"
     font-family="Helvetica"
     id="text584">
then </text>
  <text
     x="0"
     y="0"
     stroke="none"
     fill="#000000"
     transform="matrix(0.05 0 0 0.05 457.641 160.976)"
     font-style="normal"
     font-weight="bold"
     font-size="160px"
     font-family="Helvetica"
     id="text585">
H</text>
  <text
     x="0"
     y="0"
     stroke="none"
     fill="#000000"
     transform="matrix(0.05 0 0 0.05 463.419 162.816)"
     font-style="normal"
     font-weight="bold"
     font-size="120px"
     font-family="Helvetica"
     id="text586">
3</text>
  <text
     x="0"
     y="0"
     stroke="none"
     fill="#000000"
     transform="matrix(0.05 0 0 0.05 466.755 160.976)"
     font-style="normal"
     font-weight="bold"
     font-size="160px"
     font-family="Helvetica"
     id="text587">
O</text>
  <text
     x="0"
     y="0"
     stroke="none"
     fill="#000000"
     transform="matrix(0.05 0 0 0.05 472.978 158.097)"
     font-style="normal"
     font-weight="bold"
     font-size="120px"
     font-family="Helvetica"
     id="text588">
+</text>
  <path
     stroke="#000000"
     stroke-width="22"
     fill="none"
     transform="matrix(0.05 0 0 0.05 -10 -11)"
     stroke-dasharray="53"
     d="M 3888.6,4500.14 C 3888.6,4500.14 3888.6,1651.32 3888.6,1651.32 C 3888.6,1577.88 3948.21,1518.27 4021.65,1518.27 C 4021.65,1518.27 9648.14,1518.27 9648.14,1518.27 C 9721.59,1518.27 9781.2,1577.88 9781.2,1651.32 C 9781.2,1651.32 9781.2,4500.14 9781.2,4500.14 C 9781.2,4573.59 9721.59,4633.2 9648.14,4633.2 C 9648.14,4633.2 4021.65,4633.2 4021.65,4633.2 C 3948.21,4633.2 3888.6,4573.59 3888.6,4500.14 "
     id="path592" />
  <text
     x="0"
     y="0"
     stroke="none"
     fill="#000000"
     transform="matrix(0.05 0 0 0.05 648.515 133.43)"
     font-style="normal"
     font-weight="bold"
     font-size="160px"
     font-family="Helvetica"
     id="text592">
cat.</text>
  <path
     stroke="none"
     fill="#000000"
     transform="matrix(0.05 0 0 0.05 -10 -11)"
     d="M 13075.7,3324.89 L 13637.4,3324.89 L 13637.4,3346.89 L 13075.7,3346.89 Z "
     id="path593" />
  <text
     x="0"
     y="0"
     stroke="none"
     fill="#000000"
     transform="matrix(0.05 0 0 0.05 682.12 134.145)"
     font-style="normal"
     font-weight="bold"
     font-size="200px"
     font-family="Helvetica"
     id="text593">
or</text>
  <path
     stroke="none"
     fill="#000000"
     transform="matrix(0.05 0 0 0.05 -10 -11)"
     d="M 12064.6,847.088 L 12075.6,866.343 L 11810,1018.67 L 11810.1,993.022 L 12064.6,847.088 Z "
     id="path600" />
  <path
     stroke="none"
     fill="#000000"
     transform="matrix(0.05 0 0 0.05 -10 -11)"
     d="M 12037.1,798.951 L 12048.1,818.206 L 11815.8,950.912 L 11804.8,931.657 L 12037.1,798.951 Z "
     id="path601" />
  <path
     stroke="none"
     fill="#000000"
     transform="matrix(0.05 0 0 0.05 -10 -11)"
     d="M 11810.1,993.022 L 11810,1018.67 L 11545.7,863.945 L 11556.9,844.79 L 11810.1,993.022 Z "
     id="path602" />
  <path
     stroke="none"
     fill="#000000"
     transform="matrix(0.05 0 0 0.05 -10 -11)"
     d="M 12762.8,911.9 L 12240.8,911.9 L 12240.8,889.9 L 12762.8,889.9 Z "
     id="path603" />
  <path
     stroke="none"
     fill="#000000"
     transform="matrix(0.05 0 0 0.05 -10 -11)"
     d="M 12955.8,900.9 C 12955.8,900.9 12734,957.339 12734,957.339 C 12734,957.339 12761.8,925.592 12761.8,900.9 C 12761.8,875.77 12734,843.46 12734,843.46 C 12734,843.46 12955.8,900.9 12955.8,900.9 C 12955.8,900.9 12955.8,900.9 12955.8,900.9 "
     id="path604" />
  <path
     stroke="#000000"
     stroke-width="1"
     fill="none"
     transform="matrix(0.05 0 0 0.05 -10 -11)"
     d="M 12955.8,900.9 C 12955.8,900.9 12734,957.339 12734,957.339 C 12734,957.339 12761.8,925.592 12761.8,900.9 C 12761.8,875.77 12734,843.46 12734,843.46 C 12734,843.46 12955.8,900.9 12955.8,900.9 C 12955.8,900.9 12955.8,900.9 12955.8,900.9 "
     id="path605" />
  <path
     stroke="none"
     fill="#000000"
     transform="matrix(0.05 0 0 0.05 -10 -11)"
     d="M 14438.4,818.488 L 14449.4,837.743 L 14183.8,990.075 L 14183.9,964.422 L 14438.4,818.488 Z "
     id="path606" />
  <path
     stroke="none"
     fill="#000000"
     transform="matrix(0.05 0 0 0.05 -10 -11)"
     d="M 14410.9,770.351 L 14421.9,789.606 L 14189.6,922.312 L 14178.6,903.057 L 14410.9,770.351 Z "
     id="path607" />
  <path
     stroke="none"
     fill="#000000"
     transform="matrix(0.05 0 0 0.05 -10 -11)"
     d="M 14183.9,964.422 L 14183.8,990.075 L 13919.5,835.344 L 13930.7,816.19 L 14183.9,964.422 Z "
     id="path608" />
  <path
     stroke="none"
     fill="#000000"
     transform="matrix(0.05 0 0 0.05 -10 -11)"
     d="M 15136.6,883.299 L 14614.6,883.299 L 14614.6,861.299 L 15136.6,861.299 Z "
     id="path609" />
  <path
     stroke="none"
     fill="#000000"
     transform="matrix(0.05 0 0 0.05 -10 -11)"
     d="M 15329.6,872.299 C 15329.6,872.299 15107.8,928.739 15107.8,928.739 C 15107.8,928.739 15135.6,896.992 15135.6,872.299 C 15135.6,847.17 15107.8,814.86 15107.8,814.86 C 15107.8,814.86 15329.6,872.299 15329.6,872.299 C 15329.6,872.299 15329.6,872.299 15329.6,872.299 "
     id="path610" />
  <path
     stroke="#000000"
     stroke-width="1"
     fill="none"
     transform="matrix(0.05 0 0 0.05 -10 -11)"
     d="M 15329.6,872.299 C 15329.6,872.299 15107.8,928.739 15107.8,928.739 C 15107.8,928.739 15135.6,896.992 15135.6,872.299 C 15135.6,847.17 15107.8,814.86 15107.8,814.86 C 15107.8,814.86 15329.6,872.299 15329.6,872.299 C 15329.6,872.299 15329.6,872.299 15329.6,872.299 "
     id="path611" />
  <path
     stroke="#000000"
     stroke-width="22"
     fill="none"
     transform="matrix(0.05 0 0 0.05 -10 -11)"
     stroke-dasharray="53"
     d="M 7692.4,1239.74 C 7692.4,1239.74 7692.4,521.623 7692.4,521.623 C 7692.4,448.18 7752.01,388.567 7825.45,388.567 C 7825.45,388.567 16254.7,388.567 16254.7,388.567 C 16328.2,388.567 16387.8,448.18 16387.8,521.623 C 16387.8,521.623 16387.8,1239.74 16387.8,1239.74 C 16387.8,1313.19 16328.2,1372.8 16254.7,1372.8 C 16254.7,1372.8 7825.45,1372.8 7825.45,1372.8 C 7752.01,1372.8 7692.4,1313.19 7692.4,1239.74 "
     id="path612" />
  <text
     x="18.455"
     y="86.955002"
     stroke="none"
     fill="#000000"
     font-style="italic"
     font-weight="normal"
     font-size="10px"
     font-family="'Helvetica Oblique'"
     id="text667"
     style="stroke-width:0.05">S</text>
  <text
     x="0"
     y="0"
     stroke="none"
     fill="#000000"
     transform="matrix(0.05 0 0 0.05 23.1249 89.2548)"
     font-style="italic"
     font-weight="normal"
     font-size="150px"
     font-family="Helvetica Oblique"
     id="text668">
N</text>
  <text
     x="0"
     y="0"
     stroke="none"
     fill="#000000"
     transform="matrix(0.05 0 0 0.05 28.5412 86.955)"
     font-style="italic"
     font-weight="normal"
     font-size="200px"
     font-family="Helvetica Oblique"
     id="text669">
2 </text>
  <text
     x="0"
     y="0"
     stroke="none"
     fill="#000000"
     transform="matrix(0.05 0 0 0.05 36.881 86.955)"
     font-style="italic"
     font-weight="normal"
     font-size="200px"
     font-family="Helvetica Oblique"
     id="text670">
and </text>
  <text
     x="58.343899"
     y="86.955002"
     stroke="none"
     fill="#000000"
     font-style="italic"
     font-weight="normal"
     font-size="10px"
     font-family="'Helvetica Oblique'"
     id="text671"
     style="stroke-width:0.05">S</text>
  <text
     x="0"
     y="0"
     stroke="none"
     fill="#000000"
     transform="matrix(0.05 0 0 0.05 63.0138 89.2548)"
     font-style="italic"
     font-weight="normal"
     font-size="150px"
     font-family="Helvetica Oblique"
     id="text672">
N</text>
  <text
     x="0"
     y="0"
     stroke="none"
     fill="#000000"
     transform="matrix(0.05 0 0 0.05 68.4301 86.955)"
     font-style="italic"
     font-weight="normal"
     font-size="200px"
     font-family="Helvetica Oblique"
     id="text673">
2-like</text>
  <text
     x="0"
     y="0"
     stroke="none"
     fill="#000000"
     transform="matrix(0.05 0 0 0.05 188.77 76.23)"
     font-style="italic"
     font-weight="normal"
     font-size="200px"
     font-family="Helvetica Oblique"
     id="text674">
Mg and Li</text>
  <text
     x="0"
     y="0"
     stroke="none"
     fill="#000000"
     transform="matrix(0.05 0 0 0.05 488.355 72.655)"
     font-style="italic"
     font-weight="normal"
     font-size="200px"
     font-family="Helvetica Oblique"
     id="text677">
Cu and Pd</text>
  <text
     x="0"
     y="0"
     stroke="none"
     fill="#000000"
     transform="matrix(0.05 0 0 0.05 378.406 17.5999)"
     font-style="italic"
     font-weight="normal"
     font-size="200px"
     font-family="Helvetica Oblique"
     id="text682">
modifying both sides of C=C</text>
  <text
     x="0"
     y="0"
     stroke="none"
     fill="#000000"
     transform="matrix(0.05 0 0 0.05 749.497 134.081)"
     font-style="normal"
     font-weight="bold"
     font-size="160px"
     font-family="Helvetica"
     id="text692">
PPh</text>
  <text
     x="0"
     y="0"
     stroke="none"
     fill="#000000"
     transform="matrix(0.05 0 0 0.05 765.056 135.921)"
     font-style="normal"
     font-weight="bold"
     font-size="120px"
     font-family="Helvetica"
     id="text693">
3</text>
  <path
     stroke="none"
     fill="#ffffff"
     opacity="0"
     onclick="window.location.href = 'nitriles-o1.svg'"
     transform="matrix(0.05 0 0 0.05 -10 -11)"
     d="M 1301.3,4332.9 C 1301.3,4332.9 1301.3,3388.1 1301.3,3388.1 C 1301.3,3388.1 571,3388.1 571,3388.1 C 571,3388.1 571,4332.9 571,4332.9 C 571,4332.9 1301.3,4332.9 1301.3,4332.9 "
     id="path5"
     inkscape:label="l-nitrile" />
  <path
     stroke="none"
     fill="#ffffff"
     opacity="0"
     onclick="window.location.href = 'alkynes-o1.svg'"
     transform="matrix(0.05 0 0 0.05 -10 -11)"
     d="M 2216.5,4576 C 2216.5,4576 2216.5,3388.1 2216.5,3388.1 C 2216.5,3388.1 1471.9,3388.1 1471.9,3388.1 C 1471.9,3388.1 1471.9,4576 1471.9,4576 C 1471.9,4576 2216.5,4576 2216.5,4576 "
     id="path7"
     inkscape:label="l-alkyne" />
  <path
     stroke="none"
     fill="#ffffff"
     opacity="0"
     onclick="window.location.href = 'alcohols-o1.svg'"
     transform="matrix(0.05 0 0 0.05 -10 -11)"
     d="M 5991.7,4561.7 C 5991.7,4561.7 5991.7,3702.7 5991.7,3702.7 C 5991.7,3702.7 5175.6,3702.7 5175.6,3702.7 C 5175.6,3702.7 5175.6,4561.7 5175.6,4561.7 C 5175.6,4561.7 5991.7,4561.7 5991.7,4561.7 "
     id="path19"
     inkscape:label="l-alcohol" />
  <path
     stroke="none"
     fill="#ffffff"
     opacity="0"
     onclick="window.location.href = 'alkanes-o1.svg'"
     transform="matrix(0.05 0 0 0.05 -10 -11)"
     d="M 10696.4,4147 C 10696.4,4147 10696.4,3359.5 10696.4,3359.5 C 10696.4,3359.5 9966.1,3359.5 9966.1,3359.5 C 9966.1,3359.5 9966.1,4147 9966.1,4147 C 9966.1,4147 10696.4,4147 10696.4,4147 "
     id="path27"
     inkscape:label="l-alkane" />
  <path
     stroke="none"
     fill="#ffffff"
     opacity="0"
     onclick="window.location.href = 'alkynes-o1.svg'"
     transform="matrix(0.05 0 0 0.05 -10 -11)"
     d="M 16244.8,4547.4 C 16244.8,4547.4 16244.8,3145 16244.8,3145 C 16244.8,3145 14656.5,3145 14656.5,3145 C 14656.5,3145 14656.5,4547.4 14656.5,4547.4 C 14656.5,4547.4 16244.8,4547.4 16244.8,4547.4 "
     id="path31"
     inkscape:label="l-alkyne" />
  <path
     stroke="none"
     fill="#ffffff"
     opacity="0"
     onclick="window.location.href = 'aromatic-o1.svg'"
     transform="matrix(0.05 0 0 0.05 -10 -11)"
     d="M 13613.6,4547.4 C 13613.6,4547.4 13613.6,3645.5 13613.6,3645.5 C 13613.6,3645.5 13069.2,3645.5 13069.2,3645.5 C 13069.2,3645.5 13069.2,4547.4 13069.2,4547.4 C 13069.2,4547.4 13613.6,4547.4 13613.6,4547.4 "
     id="path47"
     inkscape:label="l-aromatic" />
  <path
     stroke="none"
     fill="#ffffff"
     opacity="0"
     onclick="window.location.href = 'alkanes-o1.svg'"
     d="m 685.7414,47.020485 c 0,0 0,-29.189474 0,-29.189474 0,0 -47.97587,0 -47.97587,0 0,0 0,29.189474 0,29.189474 0,0 47.97587,0 47.97587,0"
     id="path83-7"
     style="stroke-width:0.0430593"
     inkscape:label="l-alkanes" />
  <path
     stroke="none"
     fill="#ffffff"
     opacity="0"
     onclick="window.location.href = 'tohalides-o1.svg'"
     d="m 79.760204,124.34549 c 0,0 0,-31.53518 0,-31.53518 0,0 -44.848283,0 -44.848283,0 0,0 0,31.53518 0,31.53518 0,0 44.848283,0 44.848283,0"
     id="path83-7-4-7"
     style="opacity:0;stroke-width:0.0432726"
     inkscape:label="l-tohalides" />
  <path
     stroke="none"
     fill="#ffffff"
     opacity="0"
     onclick="window.location.href = 'toepoxides-o1.svg'"
     d="m 168.40003,124.02483 c 0,0 0,-31.53518 0,-31.53518 0,0 -44.84828,0 -44.84828,0 0,0 0,31.53518 0,31.53518 0,0 44.84828,0 44.84828,0"
     id="path83-7-4-7-8"
     style="opacity:0;stroke-width:0.0432726"
     inkscape:label="l-toepoxides" />
  <path
     stroke="none"
     fill="#ffffff"
     opacity="0"
     onclick="window.location.href = 'toketones-o1.svg'"
     d="m 239.77847,133.42829 c 0,0 0,-31.53518 0,-31.53518 0,0 -44.84828,0 -44.84828,0 0,0 0,31.53518 0,31.53518 0,0 44.84828,0 44.84828,0"
     id="path83-7-4-7-85"
     style="opacity:0;stroke-width:0.0432726"
     inkscape:label="l-toketones" />
  <path
     stroke="none"
     fill="#ffffff"
     opacity="0"
     onclick="window.location.href = 'toacidhalides-o1.svg'"
     d="m 276.35863,92.892913 c 0,0 0,-26.843799 0,-26.843799 0,0 -34.68362,0 -34.68362,0 0,0 0,26.843799 0,26.843799 0,0 34.68362,0 34.68362,0"
     id="path83-7-4-7-1"
     style="opacity:0;stroke-width:0.0351097"
     inkscape:label="l-toacidhalides" />
  <path
     stroke="none"
     fill="#ffffff"
     opacity="0"
     onclick="window.location.href = 'toesters-o1.svg'"
     d="m 310.11983,106.28001 c 0,0 0,-26.843804 0,-26.843804 0,0 -34.68362,0 -34.68362,0 0,0 0,26.843804 0,26.843804 0,0 34.68362,0 34.68362,0"
     id="path83-7-4-7-1-9"
     style="opacity:0;stroke-width:0.0351097"
     inkscape:label="l-toesters" />
  <path
     stroke="none"
     fill="#ffffff"
     opacity="0"
     onclick="window.location.href = 'toacidhalides-o1.svg'"
     d="m 290.18965,134.48174 c 0,0 0,-27.6257 0,-27.6257 0,0 -43.28449,0 -43.28449,0 0,0 0,27.6257 0,27.6257 0,0 43.28449,0 43.28449,0"
     id="path83-7-4-7-1-0"
     style="opacity:0;stroke-width:0.0397892"
     inkscape:label="l-toacidhalides" />
  <path
     stroke="none"
     fill="#ffffff"
     opacity="0"
     onclick="window.location.href = 'toalkenes-o1.svg'"
     d="m 597.56469,49.477408 c 0,0 0,-26.843799 0,-26.843799 0,0 -34.68362,0 -34.68362,0 0,0 0,26.843799 0,26.843799 0,0 34.68362,0 34.68362,0"
     id="path83-7-4-7-1-7"
     style="opacity:0;stroke-width:0.0351097"
     inkscape:label="l-toalkenes" />
  <path
     stroke="none"
     fill="#ffffff"
     opacity="0"
     onclick="window.location.href = 'toalkenes-o1.svg'"
     d="m 716.56469,47.259304 c 0,0 0,-26.843799 0,-26.843799 0,0 -34.68362,0 -34.68362,0 0,0 0,26.843799 0,26.843799 0,0 34.68362,0 34.68362,0"
     id="path83-7-4-7-1-8"
     style="opacity:0;stroke-width:0.0351097"
     inkscape:label="l-toalkenes" />
  <path
     stroke="none"
     fill="#ffffff"
     opacity="0"
     onclick="window.location.href = 'tohalides-o1.svg'"
     d="m 518.57146,114.66277 c 0,0 0,-33.880873 0,-33.880873 0,0 -31.55603,0 -31.55603,0 0,0 0,33.880873 0,33.880873 0,0 31.55603,0 31.55603,0"
     id="path83-7-4-7-1-87"
     style="opacity:0;stroke-width:0.0376237"
     inkscape:label="l-tohalides" />
  <path
     stroke="none"
     fill="#ffffff"
     opacity="0"
     onclick="window.location.href = 'toacidhalides-o1.svg'"
     d="m 575.26812,112.89725 c 0,0 0,-35.444672 0,-35.444672 0,0 -40.1569,0 -40.1569,0 0,0 0,35.444672 0,35.444672 0,0 40.1569,0 40.1569,0"
     id="path83-7-4-7-1-2"
     style="opacity:0;stroke-width:0.0434109"
     inkscape:label="l-toacidhalides" />
  <path
     stroke="none"
     fill="#ffffff"
     opacity="0"
     onclick="window.location.href = 'tonon-alkyl-halides-o1.svg'"
     d="m 704.32155,102.95069 c 0,0 0,-33.098978 0,-33.098978 0,0 -33.90172,0 -33.90172,0 0,0 0,33.098978 0,33.098978 0,0 33.90172,0 33.90172,0"
     id="path83-7-4-7-1-312"
     style="opacity:0;stroke-width:0.0385444"
     inkscape:label="l-tovinylhalides" />
  <path
     stroke="none"
     fill="#ffffff"
     opacity="0"
     onclick="window.location.href = 'tonon-alkyl-halides-o1.svg'"
     d="m 758.01294,99.823099 c 0,0 0,-34.662769 0,-34.662769 0,0 -30.77414,0 -30.77414,0 0,0 0,34.662769 0,34.662769 0,0 30.77414,0 30.77414,0"
     id="path83-7-4-7-1-99"
     style="opacity:0;stroke-width:0.0375809"
     inkscape:label="l-tovinylhalides" />
  <path
     stroke="none"
     fill="#ffffff"
     opacity="0"
     onclick="window.location.href = 'toalkynes-o1.svg'"
     d="m 790.30086,114.58335 c 0,0 0,-14.33345 0,-14.33345 0,0 -43.28449,0 -43.28449,0 0,0 0,14.33345 0,14.33345 0,0 43.28449,0 43.28449,0"
     id="path83-7-4-7-1-88"
     style="opacity:0;stroke-width:0.0286605"
     inkscape:label="l-toalkynes" />
  <path
     stroke="none"
     fill="#ffffff"
     opacity="0"
     onclick="window.location.href = 'toalkynes-o1.svg'"
     d="m 77.737609,159.90158 c 0,0 0,-29.97139 0,-29.97139 0,0 -15.136198,0 -15.136198,0 0,0 0,29.97139 0,29.97139 0,0 15.136198,0 15.136198,0"
     id="path83-7-4-7-1-91"
     style="opacity:0;stroke-width:0.0245078"
     inkscape:label="l-toalkynes" />
  <path
     stroke="none"
     fill="#ffffff"
     opacity="0"
     onclick="window.location.href = 'toalkynes-o1.svg'"
     d="m 153.72841,173.28095 c 0,0 0,-19.02482 0,-19.02482 0,0 -47.97587,0 -47.97587,0 0,0 0,19.02482 0,19.02482 0,0 47.97587,0 47.97587,0"
     id="path83-7-4-7-1-94"
     style="opacity:0;stroke-width:0.0347628"
     inkscape:label="l-toalkynes" />
  <path
     stroke="none"
     fill="#ffffff"
     opacity="0"
     onclick="window.location.href = 'toorganometallics-o1.svg'"
     d="m 155.87236,140.74463 c 0,0 0,-11.98776 0,-11.98776 0,0 -49.53966,0 -49.53966,0 0,0 0,11.98776 0,11.98776 0,0 49.53966,0 49.53966,0"
     id="path83-7-4-7-1-847"
     style="opacity:0;stroke-width:0.0280407"
     inkscape:label="l-toorganometallics" />
  <path
     stroke="none"
     fill="#ffffff"
     opacity="0"
     onclick="window.location.href = 'toorganometallics-o1.svg'"
     d="m 216.65087,161.98776 c 0,0 0,-22.15242 0,-22.15242 0,0 -30.77413,0 -30.77413,0 0,0 0,22.15242 0,22.15242 0,0 30.77413,0 30.77413,0"
     id="path83-7-4-7-1-847-5"
     style="opacity:0;stroke-width:0.0300432"
     inkscape:label="l-toorganometallics" />
  <path
     stroke="none"
     fill="#ffffff"
     opacity="0"
     onclick="window.location.href = 'toorganometallics-o1.svg'"
     d="m 307.70865,161.13172 c 0,0 0,-22.15242 0,-22.15242 0,0 -37.81121,0 -37.81121,0 0,0 0,22.15242 0,22.15242 0,0 37.81121,0 37.81121,0"
     id="path83-7-4-7-1-847-2"
     style="opacity:0;stroke-width:0.0333015"
     inkscape:label="l-toorganometallics" />
  <path
     stroke="none"
     fill="#ffffff"
     opacity="0"
     onclick="window.location.href = 'toorganometallics-o1.svg'"
     d="m 471.08708,154.38689 c 0,0 0,-11.98776 0,-11.98776 0,0 -36.24741,0 -36.24741,0 0,0 0,11.98776 0,11.98776 0,0 36.24741,0 36.24741,0"
     id="path83-7-4-7-1-847-23"
     style="opacity:0;stroke-width:0.0239856"
     inkscape:label="l-toorganometallics" />
  <path
     stroke="none"
     fill="#ffffff"
     opacity="0"
     onclick="window.location.href = 'toorganometallics-o1.svg'"
     d="m 541.37933,136.18516 c 0,0 0,-11.98776 0,-11.98776 0,0 -39.375,0 -39.375,0 0,0 0,11.98776 0,11.98776 0,0 39.375,0 39.375,0"
     id="path83-7-4-7-1-847-1"
     style="opacity:0;stroke-width:0.024999"
     inkscape:label="l-toorganometallics" />
  <path
     stroke="none"
     fill="#ffffff"
     opacity="0"
     onclick="window.location.href = 'toorganometallics-o1.svg'"
     d="m 592.14053,136.16879 c 0,0 0,-11.98776 0,-11.98776 0,0 -39.375,0 -39.375,0 0,0 0,11.98776 0,11.98776 0,0 39.375,0 39.375,0"
     id="path83-7-4-7-1-847-22"
     style="opacity:0;stroke-width:0.024999"
     inkscape:label="l-toorganometallics" />
  <path
     stroke="none"
     fill="#ffffff"
     opacity="0"
     onclick="window.location.href = 'toorganometallics-o1.svg'"
     d="m 728.03797,136.93431 c 0,0 0,-11.98776 0,-11.98776 0,0 -34.68362,0 -34.68362,0 0,0 0,11.98776 0,11.98776 0,0 34.68362,0 34.68362,0"
     id="path83-7-4-7-1-847-86"
     style="opacity:0;stroke-width:0.0234625"
     inkscape:label="l-toorganometallics" />
  <path
     stroke="none"
     fill="#ffffff"
     opacity="0"
     onclick="window.location.href = 'supplement-o1.svg'"
     d="m 36.500697,147.98343 c 0,0 0,-14.33345 0,-14.33345 0,0 -21.391373,0 -21.391373,0 0,0 0,14.33345 0,14.33345 0,0 21.391373,0 21.391373,0"
     id="path83-7-4-7-1-847-86-5"
     style="opacity:0;stroke-width:0.0201483"
     inkscape:label="l-supplement" />
  <path
     stroke="none"
     fill="#ffffff"
     opacity="0"
     onclick="window.location.href = 'supplement-o1.svg'"
     d="m 145.4371,151.3869 c 0,0 0,-10.42397 0,-10.42397 0,0 -37.8112,0 -37.8112,0 0,0 0,10.42397 0,10.42397 0,0 37.8112,0 37.8112,0"
     id="path83-7-4-7-1-847-86-5-4"
     style="opacity:0;stroke-width:0.0228439"
     inkscape:label="l-supplement" />
  <path
     stroke="none"
     fill="#ffffff"
     opacity="0"
     onclick="window.location.href = 'supplement-o1.svg'"
     d="m 311.3259,171.62664 c 0,0 0,-9.64207 0,-9.64207 0,0 -40.15691,0 -40.15691,0 0,0 0,9.64207 0,9.64207 0,0 40.15691,0 40.15691,0"
     id="path83-7-4-7-1-847-86-5-5"
     style="opacity:0;stroke-width:0.0226417"
     inkscape:label="l-supplement" />
  <path
     stroke="none"
     fill="#ffffff"
     opacity="0"
     onclick="window.location.href = 'supplement-o1.svg'"
     d="m 480.90606,162.78603 c 0,0 0,-8.07827 0,-8.07827 0,0 -42.5026,0 -42.5026,0 0,0 0,8.07827 0,8.07827 0,0 42.5026,0 42.5026,0"
     id="path83-7-4-7-1-847-86-5-5-7-1"
     style="opacity:0;stroke-width:0.0213211"
     inkscape:label="l-supplement" />
  <path
     stroke="none"
     fill="#ffffff"
     opacity="0"
     onclick="window.location.href = 'supplement-o1.svg'"
     d="m 800.80351,136.44467 c 0,0 0,-19.80673 0,-19.80673 0,0 -53.44916,0 -53.44916,0 0,0 0,19.80673 0,19.80673 0,0 53.44916,0 53.44916,0"
     id="path83-7-4-7-1-847-86-5-5-7-10"
     style="opacity:0;stroke-width:0.0374386"
     inkscape:label="l-supplement" />
  <path
     stroke="none"
     fill="#ffffff"
     opacity="0"
     onclick="window.location.href = 'supplement-o1.svg'"
     d="m 684.36636,153.85246 c 0,0 0,-37.00846 0,-37.00846 0,0 -37.81122,0 -37.81122,0 0,0 0,37.00846 0,37.00846 0,0 37.81122,0 37.81122,0"
     id="path83-7-4-7-1-847-86-5-5-7-4"
     style="opacity:0;stroke-width:0.0430431"
     inkscape:label="l-supplement" />
  <path
     stroke="none"
     fill="#ffffff"
     opacity="0"
     onclick="window.location.href = 'supplement-o1.svg'"
     d="m 751.56038,48.354148 c 0,0 0,-30.753282 0,-30.753282 0,0 -31.55605,0 -31.55605,0 0,0 0,30.753282 0,30.753282 0,0 31.55605,0 31.55605,0"
     id="path83-7-4-7-1-847-86-5-5-7-0"
     style="opacity:0;stroke-width:0.0358451"
     inkscape:label="l-supplement" />
  <path
     stroke="none"
     fill="#ffffff"
     opacity="0"
     onclick="window.location.href = 'supplement-o1.svg'"
     d="m 632.63357,47.440335 c 0,0 0,-27.625695 0,-27.625695 0,0 -29.99225,0 -29.99225,0 0,0 0,27.625695 0,27.625695 0,0 29.99225,0 29.99225,0"
     id="path83-7-4-7-1-847-86-5-5-7-7"
     style="opacity:0;stroke-width:0.0331211"
     inkscape:label="l-supplement" />
  <g
     id="noreagents"
     onclick="window.location.href = 'ccbondformation-noreagents-o1.svg'"
     transform="translate(-4.6856272,378.9067)">
    <text
       x="11.200497"
       y="54.141506"
       stroke="none"
       fill="#000000"
       font-style="normal"
       font-weight="bold"
       font-size="200px"
       font-family="Helvetica"
       id="gobacktext-7"
       style="font-style:normal;font-weight:bold;font-size:10px;font-family:Helvetica;fill:#000000;fill-opacity:0.443609;stroke:none;stroke-width:0.05"
       inkscape:label="noreagents-text"><tspan
         sodipodi:role="line"
         id="tspan2"
         x="11.200497"
         y="54.141506"
         style="font-style:normal;font-variant:normal;font-weight:bold;font-stretch:normal;font-size:8px;font-family:Helvetica;-inkscape-font-specification:'Helvetica, Bold';font-variant-ligatures:normal;font-variant-caps:normal;font-variant-numeric:normal;font-variant-east-asian:normal;fill:#000000;fill-opacity:0.5;stroke-width:0.05">reagents</tspan></text>
    <rect
       style="fill:#000000;fill-opacity:0.821053;fill-rule:evenodd;stroke:#a13033;stroke-width:0;stroke-linecap:round;stroke-miterlimit:2;stroke-dasharray:none;paint-order:markers fill stroke"
       id="rect3"
       width="31.666824"
       height="0.9773711"
       x="12.224979"
       y="51.518982"
       inkscape:label="noreagents-line" />
    <path
       stroke="none"
       fill="#999999"
       d="m 9.795,54.694678 c 0,0 0,-5.427567 0,-5.427567 0,-2.098514 1.463398,-3.801611 3.266274,-3.801611 0,0 30.608907,0 30.608907,0 1.803073,0 3.266397,1.703097 3.266397,3.801611 0,0 0,5.427567 0,5.427567 0,2.098514 -1.463324,3.801611 -3.266397,3.801611 0,0 -30.608907,0 -30.608907,0 -1.802876,0 -3.266274,-1.703097 -3.266274,-3.801611"
       id="goback-box-8"
       style="fill:#999999;fill-opacity:0.336842;stroke-width:0.0264832"
       inkscape:label="noreagents-box" />
  </g>
  <g
     id="nonames"
     onclick="window.location.href = 'ccbondformation-o1.svg'"
     transform="matrix(0.85780308,0,0,1,-3.2442635,382.9067)">
    <text
       x="18.441887"
       y="69.010506"
       stroke="none"
       fill="#000000"
       font-style="normal"
       font-weight="bold"
       font-size="200px"
       font-family="Helvetica"
       id="gobacktext-7-8"
       style="font-style:normal;font-variant:normal;font-weight:bold;font-stretch:normal;font-size:10px;font-family:Helvetica;-inkscape-font-specification:'Helvetica, Bold';font-variant-ligatures:normal;font-variant-caps:normal;font-variant-numeric:normal;font-variant-east-asian:normal;fill:#0088d0;fill-opacity:0.675806;stroke:none;stroke-width:0.05"
       inkscape:label="noproducts-text"><tspan
         sodipodi:role="line"
         id="tspan1"
         x="18.441887"
         y="69.010506">show</tspan></text>
    <path
       stroke="none"
       fill="#999999"
       d="m 10.136392,68.163695 c 0,0 0,-5.427567 0,-5.427567 0,-2.098514 1.679048,-3.801611 3.747601,-3.801611 0,0 35.119514,0 35.119514,0 2.068778,0 3.747742,1.703097 3.747742,3.801611 0,0 0,5.427567 0,5.427567 0,2.098514 -1.678964,3.801611 -3.747742,3.801611 0,0 -35.119514,0 -35.119514,0 -2.068553,0 -3.747601,-1.703097 -3.747601,-3.801611"
       id="goback-box-8-6"
       style="fill:#999999;fill-opacity:0.336842;stroke-width:0.0283675"
       inkscape:label="noproducts-box" />
  </g>
  <text
     x="822.84332"
     y="415.79849"
     stroke="none"
     fill="#000000"
     transform="matrix(0.92407999,-0.00322566,0.00377741,1.0821442,0,0)"
     font-style="italic"
     font-weight="bold"
     font-size="8.25806px"
     font-family="'Helvetica Oblique'"
     id="text11"
     style="opacity:1;fill:#00009a;fill-opacity:0.651128;stroke-width:0.0412903">chemisfun</text>
  <g
     id="overlay-box"
     style="opacity:0"
     transform="matrix(0.31364504,0,0,0.8007311,650.50736,385.81436)">
    <rect
       style="fill:#609975;fill-opacity:0.2;stroke:#609970;stroke-width:0;stroke-linecap:round;stroke-opacity:0.657143;paint-order:fill markers stroke"
       id="rect285"
       width="164.84744"
       height="59.583412"
       x="329.69489"
       y="23.171328" />
  </g>
  <g
     id="overlay"
     onclick="window.location.href = 'about.svg'"
     onmouseover="this.ownerDocument.getElementById('overlay-box').style.opacity='0.5'"
     onmouseout="this.ownerDocument.getElementById('overlay-box').style.opacity='0'"
     transform="matrix(0.76550767,-0.0030054,0.00267214,0.86098131,195.61318,22.784653)">
    <rect
       style="opacity:0.5;fill:#ffffff;fill-opacity:0;stroke-linecap:round;stroke-opacity:0.657143;paint-order:stroke fill markers"
       id="rect2"
       width="65.93074"
       height="55.035408"
       x="733.06049"
       y="445.87061" />
  </g>
  <g
     id="g1"
     transform="matrix(0.0625,0,0,0.0625,764.65732,406.62566)">
    <rect
       x="239.31"
       y="120.321"
       style="fill:#444242"
       width="33.389"
       height="139.98"
       id="rect1" />
    <rect
       x="256"
       y="120.321"
       style="fill:#3a3839"
       width="16.695"
       height="139.98"
       id="rect2-2" />
    <rect
       x="132.194"
       y="305.86301"
       transform="matrix(0.5,0.866,-0.866,0.5,399.932,58.9793)"
       style="fill:#444242"
       width="33.387001"
       height="139.967"
       id="rect4" />
    <rect
       x="293.125"
       y="359.13"
       transform="matrix(0.866,0.5,-0.5,0.866,236.5654,-131.205)"
       style="fill:#3a3839"
       width="139.967"
       height="33.387001"
       id="rect5" />
    <path
       style="background-color:#ffffff00;fill:#439de2;fill-opacity:1"
       d="m 456.843,485.07 c -9.538,0 -18.951,-2.501 -27.432,-7.398 v 0 c -12.733,-7.351 -21.842,-19.221 -25.646,-33.424 -3.805,-14.201 -1.853,-29.035 5.499,-41.769 7.351,-12.732 19.221,-21.841 33.424,-25.646 14.201,-3.806 29.034,-1.853 41.769,5.499 12.732,7.351 21.841,19.221 25.646,33.424 3.805,14.202 1.853,29.035 -5.499,41.769 -7.351,12.733 -19.221,21.842 -33.424,25.646 -4.742,1.27 -9.557,1.899 -14.337,1.899 z"
       id="path7-3" />
    <path
       style="background-color:#ffffff00;fill:#eda74a;fill-opacity:1"
       d="m 256.001,137.021 c -30.352,0 -55.044,-24.693 -55.044,-55.044 0,-30.351 24.693,-55.044 55.044,-55.044 30.351,0 55.044,24.693 55.044,55.044 0,30.351 -24.693,55.044 -55.044,55.044 z"
       id="path5-4" />
    <path
       style="background-color:#ffffff00;fill:#53acb1;fill-opacity:1"
       d="m 55.158,485.07 c -4.781,0 -9.594,-0.629 -14.336,-1.9 C 26.619,479.365 14.75,470.256 7.398,457.524 0.046,444.792 -1.906,429.957 1.899,415.755 c 3.805,-14.203 12.914,-26.072 25.646,-33.424 12.731,-7.352 27.567,-9.304 41.769,-5.499 14.203,3.805 26.072,12.914 33.424,25.646 7.352,12.732 9.304,27.567 5.499,41.769 -3.805,14.203 -12.914,26.072 -25.646,33.424 -8.481,4.897 -17.896,7.399 -27.433,7.399 z"
       id="path6-7" />
    <path
       style="fill:#f74d37"
       d="m 256.001,384.379 c -38.81,0 -70.384,-31.575 -70.384,-70.384 0,-38.809 31.575,-70.384 70.384,-70.384 38.809,0 70.384,31.575 70.384,70.384 0,38.809 -31.575,70.384 -70.384,70.384 z"
       id="path4-9" />
  </g>
</svg>
