<?xml version="1.0" encoding="UTF-8" standalone="no"?>
<svg
   width="100%"
   height="100%"
   viewBox="0 0 818 460"
   style="background-color: #ffffff00"
   version="1.1"
   id="svg141"
   sodipodi:docname="enamines-imines-noproducts.svg"
   inkscape:version="1.4.2 (ebf0e940, 2025-05-08)"
   xmlns:inkscape="http://www.inkscape.org/namespaces/inkscape"
   xmlns:sodipodi="http://sodipodi.sourceforge.net/DTD/sodipodi-0.dtd"
   xmlns="http://www.w3.org/2000/svg"
   xmlns:svg="http://www.w3.org/2000/svg">
  <path
     stroke="#ffffff"
     stroke-width="1"
     fill="none"
     transform="matrix(0.05 0 0 0.05 -10 -6)"
     d="M 8093.8,2931.5 C 8093.8,2931.5 8093.8,1600.6 8093.8,1600.6 C 8093.8,1600.6 6362.5,1600.6 6362.5,1600.6 C 6362.5,1600.6 6362.5,2931.5 6362.5,2931.5 C 6362.5,2931.5 8093.8,2931.5 8093.8,2931.5 "
     id="path8" />
  <path
     stroke="#ffffff"
     stroke-width="1"
     fill="none"
     transform="matrix(0.05 0 0 0.05 -10 -6)"
     d="M 5748.6,3403.4 C 5748.6,3403.4 5748.6,2001 5748.6,2001 C 5748.6,2001 4746.6,2001 4746.6,2001 C 4746.6,2001 4746.6,3403.4 4746.6,3403.4 C 4746.6,3403.4 5748.6,3403.4 5748.6,3403.4 "
     id="path10" />
  <path
     stroke="#ffffff"
     stroke-width="1"
     fill="none"
     transform="matrix(0.05 0 0 0.05 -10 -6)"
     d="M 6949.8,3918.2 C 6949.8,3918.2 6949.8,3145 6949.8,3145 C 6949.8,3145 6405.4,3145 6405.4,3145 C 6405.4,3145 6405.4,3918.2 6405.4,3918.2 C 6405.4,3918.2 6949.8,3918.2 6949.8,3918.2 "
     id="path12" />
  <path
     stroke="#000000"
     stroke-width="22"
     fill="none"
     transform="matrix(0.05 0 0 0.05 -10 -6)"
     d="M 16494.7,9267.37 C 16494.7,9267.37 16494.7,184.502 16494.7,184.502 C 16494.7,184.502 268.683,184.502 268.683,184.502 C 268.683,184.502 268.683,9267.37 268.683,9267.37 C 268.683,9267.37 16494.7,9267.37 16494.7,9267.37 "
     id="path23" />
  <text
     x="0"
     y="0"
     stroke="none"
     fill="#000000"
     transform="matrix(0.05 0 0 0.05 11.735 21.13)"
     font-style="normal"
     font-weight="bold"
     font-size="320px"
     font-family="Helvetica"
     id="text17">
Enamines, Imines, Oximes - Reactions</text>
  <text
     x="0"
     y="0"
     stroke="none"
     fill="#999999"
     transform="matrix(0.05 0 0 0.05 11.9381 39.085)"
     font-style="normal"
     font-weight="normal"
     font-size="320px"
     font-family="Helvetica"
     id="text20">
click for more</text>
  <g
     id="goback"
     onclick="window.location.href = 'index.svg'"
     onmouseover="document.getElementById('goback-box').setAttribute('opacity','0.5');"
     onmouseout="document.getElementById('goback-box').setAttribute('opacity','1')">
    <path
       stroke="none"
       fill="#999999"
       transform="matrix(0.05 0 0 0.05 -10 -11)"
       d="M 395.9,1492.34 C 395.9,1492.34 395.9,1302.37 395.9,1302.37 C 395.9,1228.92 455.513,1169.31 528.955,1169.31 C 528.955,1169.31 1775.84,1169.31 1775.84,1169.31 C 1849.29,1169.31 1908.9,1228.92 1908.9,1302.37 C 1908.9,1302.37 1908.9,1492.34 1908.9,1492.34 C 1908.9,1565.79 1849.29,1625.4 1775.84,1625.4 C 1775.84,1625.4 528.955,1625.4 528.955,1625.4 C 455.513,1625.4 395.9,1565.79 395.9,1492.34 "
       id="goback-box" />
    <text
       x="0"
       y="0"
       stroke="none"
       fill="#000000"
       transform="matrix(0.05 0 0 0.05 29.3796 61.765)"
       font-style="normal"
       font-weight="bold"
       font-size="200px"
       font-family="Helvetica"
       id="gobacktext">
go home</text>
    <path
       stroke="#999999"
       stroke-width="1"
       transform="matrix(0.05 0 0 0.05 -10 -11)"
       d="M 395.9,1492.34 C 395.9,1492.34 395.9,1302.37 395.9,1302.37 C 395.9,1228.92 455.513,1169.31 528.955,1169.31 C 528.955,1169.31 1775.84,1169.31 1775.84,1169.31 C 1849.29,1169.31 1908.9,1228.92 1908.9,1302.37 C 1908.9,1302.37 1908.9,1492.34 1908.9,1492.34 C 1908.9,1565.79 1849.29,1625.4 1775.84,1625.4 C 1775.84,1625.4 528.955,1625.4 528.955,1625.4 C 455.513,1625.4 395.9,1565.79 395.9,1492.34 "
       onclick="history.back()"
       style="opacity:0"
       id="goback-link" />
  </g>
  <g
     id="howtomake"
     onclick="window.location.href = 'toenamines-imines.svg'"
     onmouseover="document.getElementById('howtomake-box').setAttribute('opacity','0.5');"
     onmouseout="document.getElementById('howtomake-box').setAttribute('opacity','1')">
    <path
       stroke="none"
       fill="#999999"
       transform="matrix(0.05 0 0 0.05 -10 -11)"
       d="M 381.591,2007.46 C 381.591,2007.46 381.591,1817.48 381.591,1817.48 C 381.591,1744.04 441.204,1684.42 514.647,1684.42 C 514.647,1684.42 1761.54,1684.42 1761.54,1684.42 C 1834.98,1684.42 1894.59,1744.04 1894.59,1817.48 C 1894.59,1817.48 1894.59,2007.46 1894.59,2007.46 C 1894.59,2080.9 1834.98,2140.51 1761.54,2140.51 C 1761.54,2140.51 514.647,2140.51 514.647,2140.51 C 441.204,2140.51 381.591,2080.9 381.591,2007.46 "
       id="howtomake-box" />
    <text
       x="0"
       y="0"
       stroke="none"
       fill="#000000"
       transform="matrix(0.05 0 0 0.05 17.275 87.5206)"
       font-style="normal"
       font-weight="bold"
       font-size="200px"
       font-family="Helvetica"
       id="howtomaketext">
how to make</text>
    <path
       stroke="#999999"
       stroke-width="1"
       transform="matrix(0.05 0 0 0.05 -10 -11)"
       d="M 381.591,2007.46 C 381.591,2007.46 381.591,1817.48 381.591,1817.48 C 381.591,1744.04 441.204,1684.42 514.647,1684.42 C 514.647,1684.42 1761.54,1684.42 1761.54,1684.42 C 1834.98,1684.42 1894.59,1744.04 1894.59,1817.48 C 1894.59,1817.48 1894.59,2007.46 1894.59,2007.46 C 1894.59,2080.9 1834.98,2140.51 1761.54,2140.51 C 1761.54,2140.51 514.647,2140.51 514.647,2140.51 C 441.204,2140.51 381.591,2080.9 381.591,2007.46 "
       style="opacity:0"
       id="howtomake-link" />
  </g>
  <path
     stroke="none"
     fill="#000000"
     transform="matrix(0.05 0 0 0.05 -10 -6)"
     d="M 6152.01,6070.45 L 6152.01,5577 L 6174.01,5577 L 6174.01,6070.45 Z "
     id="path32" />
  <path
     stroke="none"
     fill="#000000"
     transform="matrix(0.05 0 0 0.05 -10 -6)"
     d="M 6163.01,6263.49 C 6163.01,6263.49 6105.57,6041.73 6105.57,6041.73 C 6105.57,6041.73 6137.88,6069.45 6163.01,6069.45 C 6187.71,6069.45 6219.45,6041.73 6219.45,6041.73 C 6219.45,6041.73 6163.01,6263.49 6163.01,6263.49 C 6163.01,6263.49 6163.01,6263.49 6163.01,6263.49 "
     id="path33" />
  <path
     stroke="#000000"
     stroke-width="1"
     fill="none"
     transform="matrix(0.05 0 0 0.05 -10 -6)"
     d="M 6163.01,6263.49 C 6163.01,6263.49 6105.57,6041.73 6105.57,6041.73 C 6105.57,6041.73 6137.88,6069.45 6163.01,6069.45 C 6187.71,6069.45 6219.45,6041.73 6219.45,6041.73 C 6219.45,6041.73 6163.01,6263.49 6163.01,6263.49 C 6163.01,6263.49 6163.01,6263.49 6163.01,6263.49 "
     id="path34" />
  <path
     stroke="none"
     fill="#000000"
     transform="matrix(0.05 0 0 0.05 -10 -6)"
     d="M 5327.95,3739.44 L 5327.95,4254.83 L 5305.95,4254.83 L 5305.95,3739.44 Z "
     id="path35" />
  <path
     stroke="none"
     fill="#000000"
     transform="matrix(0.05 0 0 0.05 -10 -6)"
     d="M 5316.95,3546.4 C 5316.95,3546.4 5373.39,3768.16 5373.39,3768.16 C 5373.39,3768.16 5341.65,3740.44 5316.95,3740.44 C 5291.83,3740.44 5259.52,3768.16 5259.52,3768.16 C 5259.52,3768.16 5316.95,3546.4 5316.95,3546.4 C 5316.95,3546.4 5316.95,3546.4 5316.95,3546.4 "
     id="path36" />
  <path
     stroke="#000000"
     stroke-width="1"
     fill="none"
     transform="matrix(0.05 0 0 0.05 -10 -6)"
     d="M 5316.95,3546.4 C 5316.95,3546.4 5373.39,3768.16 5373.39,3768.16 C 5373.39,3768.16 5341.65,3740.44 5316.95,3740.44 C 5291.83,3740.44 5259.52,3768.16 5259.52,3768.16 C 5259.52,3768.16 5316.95,3546.4 5316.95,3546.4 C 5316.95,3546.4 5316.95,3546.4 5316.95,3546.4 "
     id="path37" />
  <path
     stroke="none"
     fill="#000000"
     transform="matrix(0.05 0 0 0.05 -10 -6)"
     d="M 7036.31,4265.83 L 5316.95,4265.83 L 5316.95,4243.83 L 7036.31,4243.83 Z "
     id="path38" />
  <path
     stroke="none"
     fill="#000000"
     transform="matrix(0.05 0 0 0.05 -10 -6)"
     d="M 6159.4,4647.5 L 6159.4,4241.52 L 6181.4,4241.52 L 6181.4,4647.5 Z "
     id="path39" />
  <text
     x="0"
     y="0"
     stroke="none"
     fill="#0000ff"
     transform="matrix(0.05 0 0 0.05 210.717 248.535)"
     font-style="normal"
     font-weight="bold"
     font-size="280px"
     font-family="Helvetica"
     id="text39">
enamines</text>
  <text
     x="0"
     y="0"
     stroke="none"
     fill="#000000"
     transform="matrix(0.05 0 0 0.05 221.595 189.693)"
     font-style="normal"
     font-weight="bold"
     font-size="200px"
     font-family="Helvetica"
     id="text44">
CH</text>
  <text
     x="0"
     y="0"
     stroke="none"
     fill="#000000"
     transform="matrix(0.05 0 0 0.05 236.038 191.993)"
     font-style="normal"
     font-weight="bold"
     font-size="150px"
     font-family="Helvetica"
     id="text45">
3</text>
  <text
     x="0"
     y="0"
     stroke="none"
     fill="#000000"
     transform="matrix(0.05 0 0 0.05 240.209 189.693)"
     font-style="normal"
     font-weight="bold"
     font-size="200px"
     font-family="Helvetica"
     id="text46">
I</text>
  <path
     stroke="none"
     fill="#000000"
     transform="matrix(0.05 0 0 0.05 -10 -6)"
     d="M 9011.29,4701.93 L 9022.37,4682.72 L 9276.22,4829.81 L 9276.22,4855.46 L 9011.29,4701.93 Z "
     id="path48" />
  <path
     stroke="none"
     fill="#000000"
     transform="matrix(0.05 0 0 0.05 -10 -6)"
     d="M 9276.22,4855.46 L 9276.22,4829.81 L 9530.07,4682.72 L 9541.16,4701.93 L 9276.22,4855.46 Z "
     id="path49" />
  <text
     x="0"
     y="0"
     stroke="none"
     fill="#000000"
     transform="matrix(0.05 0 0 0.05 450.561 254.319)"
     font-style="normal"
     font-weight="bold"
     font-size="180px"
     font-family="Helvetica"
     id="text49">
N</text>
  <path
     stroke="none"
     fill="#000000"
     transform="matrix(0.05 0 0 0.05 -10 -6)"
     d="M 9292.85,4826.08 L 9315.03,4826.08 L 9315.03,5045.59 L 9292.85,5045.59 L 9292.85,4826.08 Z "
     id="path50" />
  <path
     stroke="none"
     fill="#000000"
     transform="matrix(0.05 0 0 0.05 -10 -6)"
     d="M 9237.41,4826.08 L 9259.59,4826.08 L 9259.59,5045.59 L 9237.41,5045.59 L 9237.41,4826.08 Z "
     id="path51" />
  <path
     stroke="none"
     fill="#000000"
     transform="matrix(0.05 0 0 0.05 -10 -6)"
     d="M 9364.63,5205.45 L 9375.72,5186.25 L 9541.16,5281.76 L 9530.07,5300.97 L 9364.63,5205.45 Z "
     id="path52" />
  <path
     stroke="none"
     fill="#000000"
     transform="matrix(0.05 0 0 0.05 -10 -6)"
     d="M 5908.15,4689.92 L 5919.23,4670.72 L 6192.49,4828.48 L 6181.4,4847.69 L 5908.15,4689.92 Z "
     id="path53" />
  <path
     stroke="none"
     fill="#000000"
     transform="matrix(0.05 0 0 0.05 -10 -6)"
     d="M 5880.43,4737.94 L 5891.51,4718.73 L 6164.77,4876.49 L 6153.68,4895.7 L 5880.43,4737.94 Z "
     id="path54" />
  <path
     stroke="none"
     fill="#000000"
     transform="matrix(0.05 0 0 0.05 -10 -6)"
     d="M 6169.62,4860.39 L 6147.42,4847.51 L 6413.07,4694.73 L 6424.16,4713.93 L 6169.62,4860.39 Z "
     id="path55" />
  <text
     x="0"
     y="0"
     stroke="none"
     fill="#000000"
     transform="matrix(0.05 0 0 0.05 294.711 254.919)"
     font-style="normal"
     font-weight="bold"
     font-size="180px"
     font-family="Helvetica"
     id="text55">
N</text>
  <path
     stroke="none"
     fill="#000000"
     transform="matrix(0.05 0 0 0.05 -10 -6)"
     d="M 6147.42,4847.51 L 6169.62,4860.39 L 6170.31,5057.59 L 6148.13,5057.59 L 6147.42,4847.51 Z "
     id="path56" />
  <path
     stroke="none"
     fill="#000000"
     transform="matrix(0.05 0 0 0.05 -10 -6)"
     d="M 6247.63,5217.46 L 6258.72,5198.25 L 6424.16,5293.77 L 6413.07,5312.97 L 6247.63,5217.46 Z "
     id="path57" />
  <path
     stroke="none"
     fill="#000000"
     transform="matrix(0.05 0 0 0.05 -10 -6)"
     d="M 6060.14,5198.01 L 6071.23,5217.22 L 5905.37,5312.97 L 5894.29,5293.77 L 6060.14,5198.01 Z "
     id="path58" />
  <path
     stroke="none"
     fill="#000000"
     transform="matrix(0.05 0 0 0.05 -10 -6)"
     d="M 11971.2,4671.55 L 11982.3,4652.35 L 12236.1,4799.43 L 12236.1,4825.08 L 11971.2,4671.55 Z "
     id="path59" />
  <path
     stroke="none"
     fill="#000000"
     transform="matrix(0.05 0 0 0.05 -10 -6)"
     d="M 12236.1,4825.08 L 12236.1,4799.43 L 12490,4652.35 L 12501.1,4671.55 L 12236.1,4825.08 Z "
     id="path60" />
  <text
     x="0"
     y="0"
     stroke="none"
     fill="#000000"
     transform="matrix(0.05 0 0 0.05 598.557 252.8)"
     font-style="normal"
     font-weight="bold"
     font-size="180px"
     font-family="Helvetica"
     id="text60">
N</text>
  <path
     stroke="none"
     fill="#000000"
     transform="matrix(0.05 0 0 0.05 -10 -6)"
     d="M 12252.8,4795.7 L 12275,4795.7 L 12275,5015.21 L 12252.8,5015.21 L 12252.8,4795.7 Z "
     id="path61" />
  <path
     stroke="none"
     fill="#000000"
     transform="matrix(0.05 0 0 0.05 -10 -6)"
     d="M 12197.3,4795.7 L 12219.5,4795.7 L 12219.5,5015.21 L 12197.3,5015.21 L 12197.3,4795.7 Z "
     id="path62" />
  <text
     x="0"
     y="0"
     stroke="none"
     fill="#000000"
     transform="matrix(0.05 0 0 0.05 611.276 260.288)"
     font-style="normal"
     font-weight="bold"
     font-size="180px"
     font-family="Helvetica"
     id="text62">
OH</text>
  <path
     stroke="none"
     fill="#000000"
     transform="matrix(0.05 0 0 0.05 -10 -6)"
     d="M 12324.6,5175.08 L 12335.6,5155.87 L 12417.9,5203.39 L 12406.9,5222.59 L 12324.6,5175.08 Z "
     id="path63" />
  <text
     x="0"
     y="0"
     stroke="none"
     fill="#0000ff"
     transform="matrix(0.05 0 0 0.05 386.714 248.535)"
     font-style="normal"
     font-weight="bold"
     font-size="280px"
     font-family="Helvetica"
     id="text63">
imines</text>
  <text
     x="0"
     y="0"
     stroke="none"
     fill="#0000ff"
     transform="matrix(0.05 0 0 0.05 533.486 248.531)"
     font-style="normal"
     font-weight="bold"
     font-size="280px"
     font-family="Helvetica"
     id="text64">
oximes</text>
  <text
     x="0"
     y="0"
     stroke="none"
     fill="#000000"
     transform="matrix(0.05 0 0 0.05 266.64 291.938)"
     font-style="normal"
     font-weight="bold"
     font-size="200px"
     font-family="Helvetica"
     id="text65">
H</text>
  <text
     x="0"
     y="0"
     stroke="none"
     fill="#000000"
     transform="matrix(0.05 0 0 0.05 273.862 294.238)"
     font-style="normal"
     font-weight="bold"
     font-size="150px"
     font-family="Helvetica"
     id="text66">
3</text>
  <text
     x="0"
     y="0"
     stroke="none"
     fill="#000000"
     transform="matrix(0.05 0 0 0.05 278.033 291.938)"
     font-style="normal"
     font-weight="bold"
     font-size="200px"
     font-family="Helvetica"
     id="text67">
O</text>
  <text
     x="0"
     y="0"
     stroke="none"
     fill="#000000"
     transform="matrix(0.05 0 0 0.05 285.811 288.34)"
     font-style="normal"
     font-weight="bold"
     font-size="150px"
     font-family="Helvetica"
     id="text68">
+</text>
  <path
     stroke="none"
     fill="#000000"
     transform="matrix(0.05 0 0 0.05 -10 -6)"
     d="M 9255.11,6027.55 L 9255.11,5534.1 L 9277.11,5534.1 L 9277.11,6027.55 Z "
     id="path68" />
  <path
     stroke="none"
     fill="#000000"
     transform="matrix(0.05 0 0 0.05 -10 -6)"
     d="M 9266.11,6220.59 C 9266.11,6220.59 9208.67,5998.83 9208.67,5998.83 C 9208.67,5998.83 9240.98,6026.55 9266.11,6026.55 C 9290.81,6026.55 9322.55,5998.83 9322.55,5998.83 C 9322.55,5998.83 9266.11,6220.59 9266.11,6220.59 C 9266.11,6220.59 9266.11,6220.59 9266.11,6220.59 "
     id="path69" />
  <path
     stroke="#000000"
     stroke-width="1"
     fill="none"
     transform="matrix(0.05 0 0 0.05 -10 -6)"
     d="M 9266.11,6220.59 C 9266.11,6220.59 9208.67,5998.83 9208.67,5998.83 C 9208.67,5998.83 9240.98,6026.55 9266.11,6026.55 C 9290.81,6026.55 9322.55,5998.83 9322.55,5998.83 C 9322.55,5998.83 9266.11,6220.59 9266.11,6220.59 C 9266.11,6220.59 9266.11,6220.59 9266.11,6220.59 "
     id="path70" />
  <text
     x="0"
     y="0"
     stroke="none"
     fill="#000000"
     transform="matrix(0.05 0 0 0.05 421.795 289.793)"
     font-style="normal"
     font-weight="bold"
     font-size="200px"
     font-family="Helvetica"
     id="text70">
H</text>
  <text
     x="0"
     y="0"
     stroke="none"
     fill="#000000"
     transform="matrix(0.05 0 0 0.05 429.017 292.093)"
     font-style="normal"
     font-weight="bold"
     font-size="150px"
     font-family="Helvetica"
     id="text71">
3</text>
  <text
     x="0"
     y="0"
     stroke="none"
     fill="#000000"
     transform="matrix(0.05 0 0 0.05 433.188 289.793)"
     font-style="normal"
     font-weight="bold"
     font-size="200px"
     font-family="Helvetica"
     id="text72">
O</text>
  <text
     x="0"
     y="0"
     stroke="none"
     fill="#000000"
     transform="matrix(0.05 0 0 0.05 440.966 286.195)"
     font-style="normal"
     font-weight="bold"
     font-size="150px"
     font-family="Helvetica"
     id="text73">
+</text>
  <text
     x="0"
     y="0"
     stroke="none"
     fill="#000000"
     transform="matrix(0.05 0 0 0.05 546.205 193.754)"
     font-style="normal"
     font-weight="bold"
     font-size="200px"
     font-family="Helvetica"
     id="text86">
H</text>
  <text
     x="0"
     y="0"
     stroke="none"
     fill="#000000"
     transform="matrix(0.05 0 0 0.05 553.426 196.053)"
     font-style="normal"
     font-weight="bold"
     font-size="150px"
     font-family="Helvetica"
     id="text87">
2</text>
  <text
     x="0"
     y="0"
     stroke="none"
     fill="#000000"
     transform="matrix(0.05 0 0 0.05 557.598 193.754)"
     font-style="normal"
     font-weight="bold"
     font-size="200px"
     font-family="Helvetica"
     id="text88">
, </text>
  <text
     x="0"
     y="0"
     stroke="none"
     fill="#000000"
     transform="matrix(0.05 0 0 0.05 563.154 193.754)"
     font-style="normal"
     font-weight="bold"
     font-size="200px"
     font-family="Helvetica"
     id="text89">
cat. </text>
  <text
     x="0"
     y="0"
     stroke="none"
     fill="#000000"
     transform="matrix(0.05 0 0 0.05 583.164 193.754)"
     font-style="normal"
     font-weight="bold"
     font-size="200px"
     font-family="Helvetica"
     id="text90">
Pd</text>
  <path
     stroke="none"
     fill="#000000"
     transform="matrix(0.05 0 0 0.05 -10 -6)"
     d="M 12237.2,3739.44 L 12237.2,4232.89 L 12215.2,4232.89 L 12215.2,3739.44 Z "
     id="path90" />
  <path
     stroke="none"
     fill="#000000"
     transform="matrix(0.05 0 0 0.05 -10 -6)"
     d="M 12226.2,3546.4 C 12226.2,3546.4 12282.7,3768.16 12282.7,3768.16 C 12282.7,3768.16 12250.9,3740.44 12226.2,3740.44 C 12201.1,3740.44 12168.8,3768.16 12168.8,3768.16 C 12168.8,3768.16 12226.2,3546.4 12226.2,3546.4 C 12226.2,3546.4 12226.2,3546.4 12226.2,3546.4 "
     id="path91" />
  <path
     stroke="#000000"
     stroke-width="1"
     fill="none"
     transform="matrix(0.05 0 0 0.05 -10 -6)"
     d="M 12226.2,3546.4 C 12226.2,3546.4 12282.7,3768.16 12282.7,3768.16 C 12282.7,3768.16 12250.9,3740.44 12226.2,3740.44 C 12201.1,3740.44 12168.8,3768.16 12168.8,3768.16 C 12168.8,3768.16 12226.2,3546.4 12226.2,3546.4 C 12226.2,3546.4 12226.2,3546.4 12226.2,3546.4 "
     id="path92" />
  <text
     x="0"
     y="0"
     stroke="none"
     fill="#000000"
     transform="matrix(0.05 0 0 0.05 414.645 192.323)"
     font-style="normal"
     font-weight="bold"
     font-size="200px"
     font-family="Helvetica"
     id="text96">
NaBH</text>
  <text
     x="0"
     y="0"
     stroke="none"
     fill="#000000"
     transform="matrix(0.05 0 0 0.05 441.871 194.623)"
     font-style="normal"
     font-weight="bold"
     font-size="150px"
     font-family="Helvetica"
     id="text97">
4</text>
  <path
     stroke="none"
     fill="#000000"
     transform="matrix(0.05 0 0 0.05 -10 -6)"
     d="M 9234.21,3768.04 L 9234.21,4261.49 L 9212.21,4261.49 L 9212.21,3768.04 Z "
     id="path97" />
  <path
     stroke="none"
     fill="#000000"
     transform="matrix(0.05 0 0 0.05 -10 -6)"
     d="M 9223.21,3575 C 9223.21,3575 9279.65,3796.76 9279.65,3796.76 C 9279.65,3796.76 9247.91,3769.04 9223.21,3769.04 C 9198.08,3769.04 9165.77,3796.76 9165.77,3796.76 C 9165.77,3796.76 9223.21,3575 9223.21,3575 C 9223.21,3575 9223.21,3575 9223.21,3575 "
     id="path98" />
  <path
     stroke="#000000"
     stroke-width="1"
     fill="none"
     transform="matrix(0.05 0 0 0.05 -10 -6)"
     d="M 9223.21,3575 C 9223.21,3575 9279.65,3796.76 9279.65,3796.76 C 9279.65,3796.76 9247.91,3769.04 9223.21,3769.04 C 9198.08,3769.04 9165.77,3796.76 9165.77,3796.76 C 9165.77,3796.76 9223.21,3575 9223.21,3575 C 9223.21,3575 9223.21,3575 9223.21,3575 "
     id="path99" />
  <text
     x="0"
     y="0"
     stroke="none"
     fill="#000000"
     transform="matrix(0.05 0 0 0.05 408.643 203.874)"
     font-style="normal"
     font-weight="normal"
     font-size="160px"
     font-family="Helvetica"
     id="text99">
then </text>
  <text
     x="0"
     y="0"
     stroke="none"
     fill="#000000"
     transform="matrix(0.05 0 0 0.05 426.436 203.874)"
     font-style="normal"
     font-weight="normal"
     font-size="160px"
     font-family="Helvetica"
     id="text100">
H</text>
  <text
     x="0"
     y="0"
     stroke="none"
     fill="#000000"
     transform="matrix(0.05 0 0 0.05 432.213 205.713)"
     font-style="normal"
     font-weight="normal"
     font-size="120px"
     font-family="Helvetica"
     id="text101">
3</text>
  <text
     x="0"
     y="0"
     stroke="none"
     fill="#000000"
     transform="matrix(0.05 0 0 0.05 435.55 203.874)"
     font-style="normal"
     font-weight="normal"
     font-size="160px"
     font-family="Helvetica"
     id="text102">
O</text>
  <text
     x="0"
     y="0"
     stroke="none"
     fill="#000000"
     transform="matrix(0.05 0 0 0.05 441.773 201.004)"
     font-style="normal"
     font-weight="normal"
     font-size="120px"
     font-family="Helvetica"
     id="text103">
+</text>
  <text
     x="0"
     y="0"
     stroke="none"
     fill="#000000"
     transform="matrix(0.05 0 0 0.05 210.588 201.729)"
     font-style="normal"
     font-weight="normal"
     font-size="160px"
     font-family="Helvetica"
     id="text106">
then </text>
  <text
     x="0"
     y="0"
     stroke="none"
     fill="#000000"
     transform="matrix(0.05 0 0 0.05 228.381 201.729)"
     font-style="normal"
     font-weight="normal"
     font-size="160px"
     font-family="Helvetica"
     id="text107">
H</text>
  <text
     x="0"
     y="0"
     stroke="none"
     fill="#000000"
     transform="matrix(0.05 0 0 0.05 234.158 203.568)"
     font-style="normal"
     font-weight="normal"
     font-size="120px"
     font-family="Helvetica"
     id="text108">
3</text>
  <text
     x="0"
     y="0"
     stroke="none"
     fill="#000000"
     transform="matrix(0.05 0 0 0.05 237.495 201.729)"
     font-style="normal"
     font-weight="normal"
     font-size="160px"
     font-family="Helvetica"
     id="text109">
O</text>
  <text
     x="0"
     y="0"
     stroke="none"
     fill="#000000"
     transform="matrix(0.05 0 0 0.05 243.718 198.859)"
     font-style="normal"
     font-weight="normal"
     font-size="120px"
     font-family="Helvetica"
     id="text110">
+</text>
  <path
     stroke="none"
     fill="#000000"
     transform="matrix(0.05 0 0 0.05 -10 -6)"
     d="M 7043.95,3110.24 L 7043.95,4254.83 L 7021.95,4254.83 L 7021.95,3110.24 Z "
     id="path115" />
  <path
     stroke="none"
     fill="#000000"
     transform="matrix(0.05 0 0 0.05 -10 -6)"
     d="M 7032.95,2917.2 C 7032.95,2917.2 7089.39,3138.96 7089.39,3138.96 C 7089.39,3138.96 7057.65,3111.24 7032.95,3111.24 C 7007.82,3111.24 6975.51,3138.96 6975.51,3138.96 C 6975.51,3138.96 7032.95,2917.2 7032.95,2917.2 C 7032.95,2917.2 7032.95,2917.2 7032.95,2917.2 "
     id="path116" />
  <path
     stroke="#000000"
     stroke-width="1"
     fill="none"
     transform="matrix(0.05 0 0 0.05 -10 -6)"
     d="M 7032.95,2917.2 C 7032.95,2917.2 7089.39,3138.96 7089.39,3138.96 C 7089.39,3138.96 7057.65,3111.24 7032.95,3111.24 C 7007.82,3111.24 6975.51,3138.96 6975.51,3138.96 C 6975.51,3138.96 7032.95,2917.2 7032.95,2917.2 C 7032.95,2917.2 7032.95,2917.2 7032.95,2917.2 "
     id="path117" />
  <path
     stroke="none"
     fill="#000000"
     transform="matrix(0.05 0 0 0.05 -10 -6)"
     d="M 6879.57,3599.06 L 6901.81,3586.16 L 6901.3,3892.05 L 6879.12,3892.05 L 6879.57,3599.06 Z "
     id="path118" />
  <path
     stroke="none"
     fill="#000000"
     transform="matrix(0.05 0 0 0.05 -10 -6)"
     d="M 6823.68,3625.27 L 6845.86,3625.27 L 6845.86,3892.05 L 6823.68,3892.05 L 6823.68,3625.27 Z "
     id="path119" />
  <path
     stroke="none"
     fill="#000000"
     transform="matrix(0.05 0 0 0.05 -10 -6)"
     d="M 6901.81,3586.16 L 6879.57,3599.06 L 6688.5,3490.2 L 6688.43,3464.56 L 6901.81,3586.16 Z "
     id="path120" />
  <path
     stroke="none"
     fill="#000000"
     transform="matrix(0.05 0 0 0.05 -10 -6)"
     d="M 6688.43,3464.56 L 6688.5,3490.2 L 6494.89,3602.65 L 6483.8,3583.45 L 6688.43,3464.56 Z "
     id="path121" />
  <text
     x="0"
     y="0"
     stroke="none"
     fill="#000000"
     transform="matrix(0.05 0 0 0.05 320.923 159.646)"
     font-style="normal"
     font-weight="bold"
     font-size="180px"
     font-family="Helvetica"
     id="text121">
O</text>
  <path
     stroke="none"
     fill="#000000"
     transform="matrix(0.05 0 0 0.05 -10 -6)"
     d="M 6671.84,3494.09 L 6649.66,3494.09 L 6649.66,3348.64 L 6671.84,3348.64 L 6671.84,3494.09 Z "
     id="path122" />
  <path
     stroke="none"
     fill="#000000"
     transform="matrix(0.05 0 0 0.05 -10 -6)"
     d="M 6727.28,3493.88 L 6705.1,3493.88 L 6705.1,3348.64 L 6727.28,3348.64 L 6727.28,3493.88 Z "
     id="path123" />
  <text
     x="0"
     y="0"
     stroke="none"
     fill="#000000"
     transform="matrix(0.05 0 0 0.05 301.393 201.014)"
     font-style="normal"
     font-weight="normal"
     font-size="160px"
     font-family="Helvetica"
     id="text123">
then </text>
  <text
     x="0"
     y="0"
     stroke="none"
     fill="#000000"
     transform="matrix(0.05 0 0 0.05 319.186 201.014)"
     font-style="normal"
     font-weight="normal"
     font-size="160px"
     font-family="Helvetica"
     id="text124">
H</text>
  <text
     x="0"
     y="0"
     stroke="none"
     fill="#000000"
     transform="matrix(0.05 0 0 0.05 324.963 202.853)"
     font-style="normal"
     font-weight="normal"
     font-size="120px"
     font-family="Helvetica"
     id="text125">
3</text>
  <text
     x="0"
     y="0"
     stroke="none"
     fill="#000000"
     transform="matrix(0.05 0 0 0.05 328.3 201.014)"
     font-style="normal"
     font-weight="normal"
     font-size="160px"
     font-family="Helvetica"
     id="text126">
O</text>
  <text
     x="0"
     y="0"
     stroke="none"
     fill="#000000"
     transform="matrix(0.05 0 0 0.05 334.523 198.144)"
     font-style="normal"
     font-weight="normal"
     font-size="120px"
     font-family="Helvetica"
     id="text127">
+</text>
  <path
     stroke="none"
     fill="#ffffff"
     opacity="0"
     onclick="window.location.href = 'ketones.svg'"
     transform="matrix(0.05 0 0 0.05 -10 -6)"
     d="M 8093.8,2931.5 C 8093.8,2931.5 8093.8,1600.6 8093.8,1600.6 C 8093.8,1600.6 6362.5,1600.6 6362.5,1600.6 C 6362.5,1600.6 6362.5,2931.5 6362.5,2931.5 C 6362.5,2931.5 8093.8,2931.5 8093.8,2931.5 "
     id="path7"
     inkscape:label="l-ketone" />
  <path
     stroke="none"
     fill="#ffffff"
     opacity="0"
     onclick="window.location.href = 'ketones.svg'"
     transform="matrix(0.05 0 0 0.05 -10 -6)"
     d="M 5748.6,3403.4 C 5748.6,3403.4 5748.6,2001 5748.6,2001 C 5748.6,2001 4746.6,2001 4746.6,2001 C 4746.6,2001 4746.6,3403.4 4746.6,3403.4 C 4746.6,3403.4 5748.6,3403.4 5748.6,3403.4 "
     id="path9"
     inkscape:label="l-ketone" />
  <path
     stroke="none"
     fill="#ffffff"
     opacity="0"
     onclick="window.location.href = 'tomalonic.svg'"
     transform="matrix(0.05 0 0 0.05 -10 -6)"
     d="M 6949.8,3918.2 C 6949.8,3918.2 6949.8,3145 6949.8,3145 C 6949.8,3145 6405.4,3145 6405.4,3145 C 6405.4,3145 6405.4,3918.2 6405.4,3918.2 C 6405.4,3918.2 6949.8,3918.2 6949.8,3918.2 "
     id="path11"
     inkscape:label="l-enone" />
  <path
     stroke="none"
     fill="#ffffff"
     opacity="0"
     onclick="window.location.href = 'toenamines-imines.svg'"
     d="m 203.53009,267.12486 c 0,0 0,-42.03001 0,-42.03001 0,0 118.31349,0 118.31349,0 0,0 0,42.03001 0,42.03001 0,0 -118.31349,0 -118.31349,0"
     id="path19-9"
     inkscape:label="l-toenamines"
     style="opacity:0;stroke-width:0.129063" />
  <path
     stroke="none"
     fill="#ffffff"
     opacity="0"
     onclick="window.location.href = 'toenamines-imines.svg'"
     d="m 373.15696,265.70069 c 0,0 0,-42.03001 0,-42.03001 0,0 118.31349,0 118.31349,0 0,0 0,42.03001 0,42.03001 0,0 -118.31349,0 -118.31349,0"
     id="path19-9-7"
     inkscape:label="l-toenamines"
     style="opacity:0;stroke-width:0.129063" />
  <path
     stroke="none"
     fill="#ffffff"
     opacity="0"
     onclick="window.location.href = 'toenamines-imines.svg'"
     d="m 521.4078,264.64725 c 0,0 0,-42.03001 0,-42.03001 0,0 118.31349,0 118.31349,0 0,0 0,42.03001 0,42.03001 0,0 -118.31349,0 -118.31349,0"
     id="path19-9-6"
     inkscape:label="l-toenamines"
     style="opacity:0;stroke-width:0.129063" />
  <path
     stroke="none"
     fill="#ffffff"
     opacity="0"
     onclick="window.location.href = 'supplement.svg'"
     d="m 208.88012,206.64724 c 0,0 0,-13.09982 0,-13.09982 0,0 40.12379,0 40.12379,0 0,0 0,13.09982 0,13.09982 0,0 -40.12379,0 -40.12379,0"
     id="path19-9-6-8"
     inkscape:label="l-supplement"
     style="opacity:0;stroke-width:0.0419603" />
  <path
     stroke="none"
     fill="#ffffff"
     opacity="0"
     onclick="window.location.href = 'supplement.svg'"
     d="m 299.91815,206.28085 c 0,0 0,-13.09982 0,-13.09982 0,0 40.12379,0 40.12379,0 0,0 0,13.09982 0,13.09982 0,0 -40.12379,0 -40.12379,0"
     id="path19-9-6-8-8"
     inkscape:label="l-supplement"
     style="opacity:0;stroke-width:0.0419603" />
  <path
     stroke="none"
     fill="#ffffff"
     opacity="0"
     onclick="window.location.href = 'supplement.svg'"
     d="m 403.42417,207.75413 c 0,0 0,-27.17397 0,-27.17397 0,0 44.81517,0 44.81517,0 0,0 0,27.17397 0,27.17397 0,0 -44.81517,0 -44.81517,0"
     id="path19-9-6-8-89"
     inkscape:label="l-supplement"
     style="opacity:0;stroke-width:0.0638696" />
  <path
     stroke="none"
     fill="#ffffff"
     opacity="0"
     onclick="window.location.href = 'supplement.svg'"
     d="m 543.72075,199.55239 c 0,0 0,-17.7912 0,-17.7912 0,0 53.41604,0 53.41604,0 0,0 0,17.7912 0,17.7912 0,0 -53.41604,0 -53.41604,0"
     id="path19-9-6-8-4"
     inkscape:label="l-supplement"
     style="opacity:0;stroke-width:0.0564213" />
  <path
     stroke="none"
     fill="#ffffff"
     opacity="0"
     onclick="window.location.href = 'supplement.svg'"
     d="m 412.38614,292.71802 c 0,0 0,-13.09982 0,-13.09982 0,0 40.12379,0 40.12379,0 0,0 0,13.09982 0,13.09982 0,0 -40.12379,0 -40.12379,0"
     id="path19-9-6-8-6"
     inkscape:label="l-supplement"
     style="opacity:0;stroke-width:0.0419603" />
  <path
     stroke="none"
     fill="#ffffff"
     opacity="0"
     onclick="window.location.href = 'supplement.svg'"
     d="m 256.43525,295.26881 c 0,0 0,-13.09982 0,-13.09982 0,0 40.12379,0 40.12379,0 0,0 0,13.09982 0,13.09982 0,0 -40.12379,0 -40.12379,0"
     id="path19-9-6-8-1"
     inkscape:label="l-supplement"
     style="opacity:0;stroke-width:0.0419603" />
  <path
     stroke="none"
     fill="#ffffff"
     opacity="0"
     onclick="window.location.href = 'tomalonic.svg'"
     d="m 308.23784,192.30156 c 0,0 0,-42.03001 0,-42.03001 0,0 30.74103,0 30.74103,0 0,0 0,42.03001 0,42.03001 0,0 -30.74103,0 -30.74103,0"
     id="path19-9-6-8-40"
     inkscape:label="l-tomalonic"
     style="opacity:0;stroke-width:0.0657876" />
  <path
     stroke="none"
     fill="#ffffff"
     opacity="0"
     onclick="window.location.href = 'tohalides.svg'"
     d="m 217.85941,192.50329 c 0,0 0,-13.09982 0,-13.09982 0,0 30.74103,0 30.74103,0 0,0 0,13.09982 0,13.09982 0,0 -30.74103,0 -30.74103,0"
     id="path19-9-6-8-40-1"
     inkscape:label="l-tohalides"
     style="opacity:0;stroke-width:0.036728" />
  <g
     id="noreagents"
     onclick="window.location.href = 'enamines-imines-noreagents.svg'"
     transform="translate(-4.6856272,378.9067)">
    <text
       x="11.200497"
       y="54.141506"
       stroke="none"
       fill="#000000"
       font-style="normal"
       font-weight="bold"
       font-size="200px"
       font-family="Helvetica"
       id="gobacktext-7"
       style="font-style:normal;font-weight:bold;font-size:10px;font-family:Helvetica;fill:#000000;fill-opacity:0.443609;stroke:none;stroke-width:0.05"
       inkscape:label="noreagents-text"><tspan
         sodipodi:role="line"
         id="tspan2"
         x="11.200497"
         y="54.141506"
         style="font-style:normal;font-variant:normal;font-weight:bold;font-stretch:normal;font-size:8px;font-family:Helvetica;-inkscape-font-specification:'Helvetica, Bold';font-variant-ligatures:normal;font-variant-caps:normal;font-variant-numeric:normal;font-variant-east-asian:normal;fill:#000000;fill-opacity:0.5;stroke-width:0.05">reagents</tspan></text>
    <rect
       style="fill:#000000;fill-opacity:0.821053;fill-rule:evenodd;stroke:#a13033;stroke-width:0;stroke-linecap:round;stroke-miterlimit:2;stroke-dasharray:none;paint-order:markers fill stroke"
       id="rect3"
       width="31.666824"
       height="0.9773711"
       x="12.224979"
       y="51.518982"
       inkscape:label="noreagents-line" />
    <path
       stroke="none"
       fill="#999999"
       d="m 9.795,54.694678 c 0,0 0,-5.427567 0,-5.427567 0,-2.098514 1.463398,-3.801611 3.266274,-3.801611 0,0 30.608907,0 30.608907,0 1.803073,0 3.266397,1.703097 3.266397,3.801611 0,0 0,5.427567 0,5.427567 0,2.098514 -1.463324,3.801611 -3.266397,3.801611 0,0 -30.608907,0 -30.608907,0 -1.802876,0 -3.266274,-1.703097 -3.266274,-3.801611"
       id="goback-box-8"
       style="fill:#999999;fill-opacity:0.336842;stroke-width:0.0264832"
       inkscape:label="noreagents-box" />
  </g>
  <g
     id="nonames"
     onclick="window.location.href = 'enamines-imines.svg'"
     transform="matrix(0.85780308,0,0,1,-3.2442635,382.9067)">
    <text
       x="18.441887"
       y="69.010506"
       stroke="none"
       fill="#000000"
       font-style="normal"
       font-weight="bold"
       font-size="200px"
       font-family="Helvetica"
       id="gobacktext-7-8"
       style="font-style:normal;font-variant:normal;font-weight:bold;font-stretch:normal;font-size:10px;font-family:Helvetica;-inkscape-font-specification:'Helvetica, Bold';font-variant-ligatures:normal;font-variant-caps:normal;font-variant-numeric:normal;font-variant-east-asian:normal;fill:#0088d0;fill-opacity:0.675806;stroke:none;stroke-width:0.05"
       inkscape:label="noproducts-text"><tspan
         sodipodi:role="line"
         id="tspan1"
         x="18.441887"
         y="69.010506">show</tspan></text>
    <path
       stroke="none"
       fill="#999999"
       d="m 10.136392,68.163695 c 0,0 0,-5.427567 0,-5.427567 0,-2.098514 1.679048,-3.801611 3.747601,-3.801611 0,0 35.119514,0 35.119514,0 2.068778,0 3.747742,1.703097 3.747742,3.801611 0,0 0,5.427567 0,5.427567 0,2.098514 -1.678964,3.801611 -3.747742,3.801611 0,0 -35.119514,0 -35.119514,0 -2.068553,0 -3.747601,-1.703097 -3.747601,-3.801611"
       id="goback-box-8-6"
       style="fill:#999999;fill-opacity:0.336842;stroke-width:0.0283675"
       inkscape:label="noproducts-box" />
  </g>
  <text
     x="822.84332"
     y="415.79849"
     stroke="none"
     fill="#000000"
     transform="matrix(0.92407999,-0.00322566,0.00377741,1.0821442,0,0)"
     font-style="italic"
     font-weight="bold"
     font-size="8.25806px"
     font-family="'Helvetica Oblique'"
     id="text11"
     style="opacity:1;fill:#00009a;fill-opacity:0.651128;stroke-width:0.0412903">chemisfun</text>
  <g
     id="overlay-box"
     style="opacity:0"
     transform="matrix(0.31364504,0,0,0.8007311,650.50736,385.81436)">
    <rect
       style="fill:#609975;fill-opacity:0.2;stroke:#609970;stroke-width:0;stroke-linecap:round;stroke-opacity:0.657143;paint-order:fill markers stroke"
       id="rect285"
       width="164.84744"
       height="59.583412"
       x="329.69489"
       y="23.171328" />
  </g>
  <g
     id="overlay"
     onclick="window.location.href = 'index.html'"
     onmouseover="this.ownerDocument.getElementById('overlay-box').style.opacity='0.5'"
     onmouseout="this.ownerDocument.getElementById('overlay-box').style.opacity='0'"
     transform="matrix(0.76550767,-0.0030054,0.00267214,0.86098131,195.61318,22.784653)">
    <rect
       style="opacity:0.5;fill:#ffffff;fill-opacity:0;stroke-linecap:round;stroke-opacity:0.657143;paint-order:stroke fill markers"
       id="rect2"
       width="65.93074"
       height="55.035408"
       x="733.06049"
       y="445.87061" />
  </g>
  <g
     id="g1"
     transform="matrix(0.0625,0,0,0.0625,764.65732,406.62566)">
    <rect
       x="239.31"
       y="120.321"
       style="fill:#444242"
       width="33.389"
       height="139.98"
       id="rect1" />
    <rect
       x="256"
       y="120.321"
       style="fill:#3a3839"
       width="16.695"
       height="139.98"
       id="rect2-2" />
    <rect
       x="132.194"
       y="305.86301"
       transform="matrix(0.5,0.866,-0.866,0.5,399.932,58.9793)"
       style="fill:#444242"
       width="33.387001"
       height="139.967"
       id="rect4" />
    <rect
       x="293.125"
       y="359.13"
       transform="matrix(0.866,0.5,-0.5,0.866,236.5654,-131.205)"
       style="fill:#3a3839"
       width="139.967"
       height="33.387001"
       id="rect5" />
    <path
       style="background-color:#ffffff00;fill:#439de2;fill-opacity:1"
       d="m 456.843,485.07 c -9.538,0 -18.951,-2.501 -27.432,-7.398 v 0 c -12.733,-7.351 -21.842,-19.221 -25.646,-33.424 -3.805,-14.201 -1.853,-29.035 5.499,-41.769 7.351,-12.732 19.221,-21.841 33.424,-25.646 14.201,-3.806 29.034,-1.853 41.769,5.499 12.732,7.351 21.841,19.221 25.646,33.424 3.805,14.202 1.853,29.035 -5.499,41.769 -7.351,12.733 -19.221,21.842 -33.424,25.646 -4.742,1.27 -9.557,1.899 -14.337,1.899 z"
       id="path7-3" />
    <path
       style="background-color:#ffffff00;fill:#eda74a;fill-opacity:1"
       d="m 256.001,137.021 c -30.352,0 -55.044,-24.693 -55.044,-55.044 0,-30.351 24.693,-55.044 55.044,-55.044 30.351,0 55.044,24.693 55.044,55.044 0,30.351 -24.693,55.044 -55.044,55.044 z"
       id="path5-4" />
    <path
       style="background-color:#ffffff00;fill:#53acb1;fill-opacity:1"
       d="m 55.158,485.07 c -4.781,0 -9.594,-0.629 -14.336,-1.9 C 26.619,479.365 14.75,470.256 7.398,457.524 0.046,444.792 -1.906,429.957 1.899,415.755 c 3.805,-14.203 12.914,-26.072 25.646,-33.424 12.731,-7.352 27.567,-9.304 41.769,-5.499 14.203,3.805 26.072,12.914 33.424,25.646 7.352,12.732 9.304,27.567 5.499,41.769 -3.805,14.203 -12.914,26.072 -25.646,33.424 -8.481,4.897 -17.896,7.399 -27.433,7.399 z"
       id="path6-7" />
    <path
       style="fill:#f74d37"
       d="m 256.001,384.379 c -38.81,0 -70.384,-31.575 -70.384,-70.384 0,-38.809 31.575,-70.384 70.384,-70.384 38.809,0 70.384,31.575 70.384,70.384 0,38.809 -31.575,70.384 -70.384,70.384 z"
       id="path4-9" />
  </g>
</svg>
