<?xml version="1.0" encoding="UTF-8" standalone="no"?>
<svg
   width="100%"
   height="100%"
   viewBox="0 0 818 460"
   style="background-color: #ffffff00"
   version="1.1"
   id="svg225"
   sodipodi:docname="esters-noproducts.svg"
   inkscape:version="1.4.2 (ebf0e940, 2025-05-08)"
   xmlns:inkscape="http://www.inkscape.org/namespaces/inkscape"
   xmlns:sodipodi="http://sodipodi.sourceforge.net/DTD/sodipodi-0.dtd"
   xmlns="http://www.w3.org/2000/svg"
   xmlns:svg="http://www.w3.org/2000/svg">
  <path
     stroke="#ffffff"
     stroke-width="1"
     fill="none"
     transform="matrix(0.05 0 0 0.05 -10 -11)"
     d="M 4833.4,2445.3 C 4833.4,2445.3 4833.4,1157.3 4833.4,1157.3 C 4833.4,1157.3 3631.2,1157.3 3631.2,1157.3 C 3631.2,1157.3 3631.2,2445.3 3631.2,2445.3 C 3631.2,2445.3 4833.4,2445.3 4833.4,2445.3 "
     id="path2" />
  <path
     stroke="#ffffff"
     stroke-width="1"
     fill="none"
     transform="matrix(0.05 0 0 0.05 -10 -11)"
     d="M 6349.2,2445.3 C 6349.2,2445.3 6349.2,1257.4 6349.2,1257.4 C 6349.2,1257.4 4946.8,1257.4 4946.8,1257.4 C 4946.8,1257.4 4946.8,2445.3 4946.8,2445.3 C 4946.8,2445.3 6349.2,2445.3 6349.2,2445.3 "
     id="path4" />
  <path
     stroke="#ffffff"
     stroke-width="1"
     fill="none"
     transform="matrix(0.05 0 0 0.05 -10 -11)"
     d="M 7664.8,2459.6 C 7664.8,2459.6 7664.8,1629.2 7664.8,1629.2 C 7664.8,1629.2 6591.3,1629.2 6591.3,1629.2 C 6591.3,1629.2 6591.3,2459.6 6591.3,2459.6 C 6591.3,2459.6 7664.8,2459.6 7664.8,2459.6 "
     id="path6" />
  <path
     stroke="#ffffff"
     stroke-width="1"
     fill="none"
     transform="matrix(0.05 0 0 0.05 -10 -11)"
     d="M 9337.9,2445.3 C 9337.9,2445.3 9337.9,1657.8 9337.9,1657.8 C 9337.9,1657.8 8493.2,1657.8 8493.2,1657.8 C 8493.2,1657.8 8493.2,2445.3 8493.2,2445.3 C 8493.2,2445.3 9337.9,2445.3 9337.9,2445.3 "
     id="path8" />
  <path
     stroke="#ffffff"
     stroke-width="1"
     fill="none"
     transform="matrix(0.05 0 0 0.05 -10 -11)"
     d="M 12641.2,2659.8 C 12641.2,2659.8 12641.2,1572 12641.2,1572 C 12641.2,1572 11725,1572 11725,1572 C 11725,1572 11725,2659.8 11725,2659.8 C 11725,2659.8 12641.2,2659.8 12641.2,2659.8 "
     id="path12" />
  <path
     stroke="#ffffff"
     stroke-width="1"
     fill="none"
     transform="matrix(0.05 0 0 0.05 -10 -11)"
     d="M 6892.6,8279.7 C 6892.6,8279.7 6892.6,7420.7 6892.6,7420.7 C 6892.6,7420.7 5447.3,7420.7 5447.3,7420.7 C 5447.3,7420.7 5447.3,8279.7 5447.3,8279.7 C 5447.3,8279.7 6892.6,8279.7 6892.6,8279.7 "
     id="path14" />
  <path
     stroke="#ffffff"
     stroke-width="1"
     fill="none"
     transform="matrix(0.05 0 0 0.05 -10 -11)"
     d="M 9509.5,8265.4 C 9509.5,8265.4 9509.5,7077.5 9509.5,7077.5 C 9509.5,7077.5 12183.6,7077.5 12183.6,7077.5 C 12183.6,7077.5 12183.6,8265.4 12183.6,8265.4 C 12183.6,8265.4 9509.5,8265.4 9509.5,8265.4 "
     id="path18" />
  <path
     stroke="#ffffff"
     stroke-width="1"
     fill="none"
     transform="matrix(0.05 0 0 0.05 -10 -11)"
     d="M 7534.03,6347.02 C 7534.03,6347.02 7534.03,5486.71 7534.03,5486.71 C 7534.03,5486.71 6419.7,5486.71 6419.7,5486.71 C 6419.7,5486.71 6419.7,6347.02 6419.7,6347.02 C 6419.7,6347.02 7534.03,6347.02 7534.03,6347.02 "
     id="path22" />
  <path
     stroke="#000000"
     stroke-width="22"
     fill="none"
     transform="matrix(0.05 0 0 0.05 -10 -11)"
     d="M 16494.7,9367.47 C 16494.7,9367.47 16494.7,284.602 16494.7,284.602 C 16494.7,284.602 268.683,284.602 268.683,284.602 C 268.683,284.602 268.683,9367.47 268.683,9367.47 C 268.683,9367.47 16494.7,9367.47 16494.7,9367.47 "
     id="path25" />
  <text
     x="0"
     y="0"
     stroke="none"
     fill="#000000"
     transform="matrix(0.05 0 0 0.05 11.735 21.13)"
     font-style="normal"
     font-weight="bold"
     font-size="320px"
     font-family="Helvetica"
     id="text25">
Esters - Reactions</text>
  <text
     x="0"
     y="0"
     stroke="none"
     fill="#999999"
     transform="matrix(0.05 0 0 0.05 11.9381 39.085)"
     font-style="normal"
     font-weight="normal"
     font-size="320px"
     font-family="Helvetica"
     id="text28">
click for more</text>
  <g
     id="goback"
     onclick="window.location.href = 'index.svg'"
     onmouseover="document.getElementById('goback-box').setAttribute('opacity','0.5');"
     onmouseout="document.getElementById('goback-box').setAttribute('opacity','1')">
    <path
       stroke="none"
       fill="#999999"
       transform="matrix(0.05 0 0 0.05 -10 -11)"
       d="M 395.9,1492.34 C 395.9,1492.34 395.9,1302.37 395.9,1302.37 C 395.9,1228.92 455.513,1169.31 528.955,1169.31 C 528.955,1169.31 1775.84,1169.31 1775.84,1169.31 C 1849.29,1169.31 1908.9,1228.92 1908.9,1302.37 C 1908.9,1302.37 1908.9,1492.34 1908.9,1492.34 C 1908.9,1565.79 1849.29,1625.4 1775.84,1625.4 C 1775.84,1625.4 528.955,1625.4 528.955,1625.4 C 455.513,1625.4 395.9,1565.79 395.9,1492.34 "
       id="goback-box" />
    <text
       x="0"
       y="0"
       stroke="none"
       fill="#000000"
       transform="matrix(0.05 0 0 0.05 29.3796 61.765)"
       font-style="normal"
       font-weight="bold"
       font-size="200px"
       font-family="Helvetica"
       id="gobacktext">
go home</text>
    <path
       stroke="#999999"
       stroke-width="1"
       transform="matrix(0.05 0 0 0.05 -10 -11)"
       d="M 395.9,1492.34 C 395.9,1492.34 395.9,1302.37 395.9,1302.37 C 395.9,1228.92 455.513,1169.31 528.955,1169.31 C 528.955,1169.31 1775.84,1169.31 1775.84,1169.31 C 1849.29,1169.31 1908.9,1228.92 1908.9,1302.37 C 1908.9,1302.37 1908.9,1492.34 1908.9,1492.34 C 1908.9,1565.79 1849.29,1625.4 1775.84,1625.4 C 1775.84,1625.4 528.955,1625.4 528.955,1625.4 C 455.513,1625.4 395.9,1565.79 395.9,1492.34 "
       onclick="history.back()"
       style="opacity:0"
       id="goback-link" />
  </g>
  <g
     id="howtomake"
     onclick="window.location.href = 'toesters.svg'"
     onmouseover="document.getElementById('howtomake-box').setAttribute('opacity','0.5');"
     onmouseout="document.getElementById('howtomake-box').setAttribute('opacity','1')">
    <path
       stroke="none"
       fill="#999999"
       transform="matrix(0.05 0 0 0.05 -10 -11)"
       d="M 381.591,2007.46 C 381.591,2007.46 381.591,1817.48 381.591,1817.48 C 381.591,1744.04 441.204,1684.42 514.647,1684.42 C 514.647,1684.42 1761.54,1684.42 1761.54,1684.42 C 1834.98,1684.42 1894.59,1744.04 1894.59,1817.48 C 1894.59,1817.48 1894.59,2007.46 1894.59,2007.46 C 1894.59,2080.9 1834.98,2140.51 1761.54,2140.51 C 1761.54,2140.51 514.647,2140.51 514.647,2140.51 C 441.204,2140.51 381.591,2080.9 381.591,2007.46 "
       id="howtomake-box" />
    <text
       x="0"
       y="0"
       stroke="none"
       fill="#000000"
       transform="matrix(0.05 0 0 0.05 17.275 87.5206)"
       font-style="normal"
       font-weight="bold"
       font-size="200px"
       font-family="Helvetica"
       id="howtomaketext">
how to make</text>
    <path
       stroke="#999999"
       stroke-width="1"
       transform="matrix(0.05 0 0 0.05 -10 -11)"
       d="M 381.591,2007.46 C 381.591,2007.46 381.591,1817.48 381.591,1817.48 C 381.591,1744.04 441.204,1684.42 514.647,1684.42 C 514.647,1684.42 1761.54,1684.42 1761.54,1684.42 C 1834.98,1684.42 1894.59,1744.04 1894.59,1817.48 C 1894.59,1817.48 1894.59,2007.46 1894.59,2007.46 C 1894.59,2080.9 1834.98,2140.51 1761.54,2140.51 C 1761.54,2140.51 514.647,2140.51 514.647,2140.51 C 441.204,2140.51 381.591,2080.9 381.591,2007.46 "
       style="opacity:0"
       id="howtomake-link" />
  </g>
  <path
     stroke="none"
     fill="#000000"
     transform="matrix(0.05 0 0 0.05 -10 -11)"
     d="M 6967.9,2683.6 L 6967.9,3383.52 L 6945.9,3383.52 L 6945.9,2683.6 Z "
     id="path32" />
  <path
     stroke="none"
     fill="#000000"
     transform="matrix(0.05 0 0 0.05 -10 -11)"
     d="M 6956.9,2490.56 C 6956.9,2490.56 7013.34,2712.32 7013.34,2712.32 C 7013.34,2712.32 6981.59,2684.6 6956.9,2684.6 C 6931.77,2684.6 6899.46,2712.32 6899.46,2712.32 C 6899.46,2712.32 6956.9,2490.56 6956.9,2490.56 C 6956.9,2490.56 6956.9,2490.56 6956.9,2490.56 "
     id="path33" />
  <path
     stroke="#000000"
     stroke-width="1"
     fill="none"
     transform="matrix(0.05 0 0 0.05 -10 -11)"
     d="M 6956.9,2490.56 C 6956.9,2490.56 7013.34,2712.32 7013.34,2712.32 C 7013.34,2712.32 6981.59,2684.6 6956.9,2684.6 C 6931.77,2684.6 6899.46,2712.32 6899.46,2712.32 C 6899.46,2712.32 6956.9,2490.56 6956.9,2490.56 C 6956.9,2490.56 6956.9,2490.56 6956.9,2490.56 "
     id="path34" />
  <path
     stroke="none"
     fill="#000000"
     transform="matrix(0.05 0 0 0.05 -10 -11)"
     d="M 5598,2638.34 L 5598,3396.83 L 5576,3396.83 L 5576,2638.34 Z "
     id="path35" />
  <path
     stroke="none"
     fill="#000000"
     transform="matrix(0.05 0 0 0.05 -10 -11)"
     d="M 5587,2445.3 C 5587,2445.3 5643.44,2667.06 5643.44,2667.06 C 5643.44,2667.06 5611.69,2639.34 5587,2639.34 C 5561.87,2639.34 5529.56,2667.06 5529.56,2667.06 C 5529.56,2667.06 5587,2445.3 5587,2445.3 C 5587,2445.3 5587,2445.3 5587,2445.3 "
     id="path36" />
  <path
     stroke="#000000"
     stroke-width="1"
     fill="none"
     transform="matrix(0.05 0 0 0.05 -10 -11)"
     d="M 5587,2445.3 C 5587,2445.3 5643.44,2667.06 5643.44,2667.06 C 5643.44,2667.06 5611.69,2639.34 5587,2639.34 C 5561.87,2639.34 5529.56,2667.06 5529.56,2667.06 C 5529.56,2667.06 5587,2445.3 5587,2445.3 C 5587,2445.3 5587,2445.3 5587,2445.3 "
     id="path37" />
  <path
     stroke="none"
     fill="#000000"
     transform="matrix(0.05 0 0 0.05 -10 -11)"
     d="M 8866,3407.83 L 4199.36,3407.83 L 4199.36,3385.83 L 8866,3385.83 Z "
     id="path38" />
  <path
     stroke="none"
     fill="#000000"
     transform="matrix(0.05 0 0 0.05 -10 -11)"
     d="M 4210.36,2666.94 L 4210.36,3396.83 L 4188.36,3396.83 L 4188.36,2666.94 Z "
     id="path39" />
  <path
     stroke="none"
     fill="#000000"
     transform="matrix(0.05 0 0 0.05 -10 -11)"
     d="M 4199.36,2473.9 C 4199.36,2473.9 4255.8,2695.66 4255.8,2695.66 C 4255.8,2695.66 4224.05,2667.94 4199.36,2667.94 C 4174.23,2667.94 4141.92,2695.66 4141.92,2695.66 C 4141.92,2695.66 4199.36,2473.9 4199.36,2473.9 C 4199.36,2473.9 4199.36,2473.9 4199.36,2473.9 "
     id="path40" />
  <path
     stroke="#000000"
     stroke-width="1"
     fill="none"
     transform="matrix(0.05 0 0 0.05 -10 -11)"
     d="M 4199.36,2473.9 C 4199.36,2473.9 4255.8,2695.66 4255.8,2695.66 C 4255.8,2695.66 4224.05,2667.94 4199.36,2667.94 C 4174.23,2667.94 4141.92,2695.66 4141.92,2695.66 C 4141.92,2695.66 4199.36,2473.9 4199.36,2473.9 C 4199.36,2473.9 4199.36,2473.9 4199.36,2473.9 "
     id="path41" />
  <path
     stroke="none"
     fill="#000000"
     transform="matrix(0.05 0 0 0.05 -10 -11)"
     d="M 6945.9,3975.4 L 6945.9,3383.52 L 6967.9,3383.52 L 6967.9,3975.4 Z "
     id="path42" />
  <text
     x="0"
     y="0"
     stroke="none"
     fill="#0000ff"
     transform="matrix(0.05 0 0 0.05 277.438 214.676)"
     font-style="normal"
     font-weight="bold"
     font-size="280px"
     font-family="Helvetica"
     id="text42">
esters</text>
  <path
     stroke="none"
     fill="#000000"
     transform="matrix(0.05 0 0 0.05 -10 -11)"
     d="M 8877,2696.91 L 8877,3396.83 L 8855,3396.83 L 8855,2696.91 Z "
     id="path46" />
  <path
     stroke="none"
     fill="#000000"
     transform="matrix(0.05 0 0 0.05 -10 -11)"
     d="M 8866,2503.88 C 8866,2503.88 8922.44,2725.63 8922.44,2725.63 C 8922.44,2725.63 8890.69,2697.91 8866,2697.91 C 8840.87,2697.91 8808.56,2725.63 8808.56,2725.63 C 8808.56,2725.63 8866,2503.88 8866,2503.88 C 8866,2503.88 8866,2503.88 8866,2503.88 "
     id="path47" />
  <path
     stroke="#000000"
     stroke-width="1"
     fill="none"
     transform="matrix(0.05 0 0 0.05 -10 -11)"
     d="M 8866,2503.88 C 8866,2503.88 8922.44,2725.63 8922.44,2725.63 C 8922.44,2725.63 8890.69,2697.91 8866,2697.91 C 8840.87,2697.91 8808.56,2725.63 8808.56,2725.63 C 8808.56,2725.63 8866,2503.88 8866,2503.88 C 8866,2503.88 8866,2503.88 8866,2503.88 "
     id="path48" />
  <path
     stroke="none"
     fill="#000000"
     transform="matrix(0.05 0 0 0.05 -10 -11)"
     d="M 11422.6,4463.75 L 7661.24,4463.75 L 7661.24,4441.75 L 11422.6,4441.75 Z "
     id="path49" />
  <text
     x="0"
     y="0"
     stroke="none"
     fill="#000000"
     transform="matrix(0.05 0 0 0.05 599.895 154.183)"
     font-style="normal"
     font-weight="bold"
     font-size="200px"
     font-family="Helvetica"
     id="text53">
2) </text>
  <text
     x="0"
     y="0"
     stroke="none"
     fill="#000000"
     transform="matrix(0.05 0 0 0.05 611.565 154.183)"
     font-style="normal"
     font-weight="bold"
     font-size="200px"
     font-family="Helvetica"
     id="text54">
H</text>
  <text
     x="0"
     y="0"
     stroke="none"
     fill="#000000"
     transform="matrix(0.05 0 0 0.05 618.787 156.483)"
     font-style="normal"
     font-weight="bold"
     font-size="150px"
     font-family="Helvetica"
     id="text55">
3</text>
  <text
     x="0"
     y="0"
     stroke="none"
     fill="#000000"
     transform="matrix(0.05 0 0 0.05 622.958 154.183)"
     font-style="normal"
     font-weight="bold"
     font-size="200px"
     font-family="Helvetica"
     id="text56">
O</text>
  <text
     x="0"
     y="0"
     stroke="none"
     fill="#000000"
     transform="matrix(0.05 0 0 0.05 630.736 150.585)"
     font-style="normal"
     font-weight="bold"
     font-size="150px"
     font-family="Helvetica"
     id="text57">
+</text>
  <text
     x="0"
     y="0"
     stroke="none"
     fill="#000000"
     transform="matrix(0.05 0 0 0.05 484.78 142.188)"
     font-style="normal"
     font-weight="bold"
     font-size="200px"
     font-family="Helvetica"
     id="text62">
1) </text>
  <text
     x="0"
     y="0"
     stroke="none"
     fill="#000000"
     transform="matrix(0.05 0 0 0.05 496.45 142.188)"
     font-style="normal"
     font-weight="bold"
     font-size="200px"
     font-family="Helvetica"
     id="text63">
LiAl</text>
  <text
     x="0"
     y="0"
     stroke="none"
     fill="#0000ff"
     transform="matrix(0.05 0 0 0.05 515.337 142.188)"
     font-style="normal"
     font-weight="bold"
     font-size="200px"
     font-family="Helvetica"
     id="text64">
H</text>
  <text
     x="0"
     y="0"
     stroke="none"
     fill="#000000"
     transform="matrix(0.05 0 0 0.05 522.558 144.487)"
     font-style="normal"
     font-weight="bold"
     font-size="150px"
     font-family="Helvetica"
     id="text65">
4</text>
  <text
     x="0"
     y="0"
     stroke="none"
     fill="#000000"
     transform="matrix(0.05 0 0 0.05 484.78 153.221)"
     font-style="normal"
     font-weight="bold"
     font-size="200px"
     font-family="Helvetica"
     id="text66">
2) </text>
  <text
     x="0"
     y="0"
     stroke="none"
     fill="#000000"
     transform="matrix(0.05 0 0 0.05 496.45 153.221)"
     font-style="normal"
     font-weight="bold"
     font-size="200px"
     font-family="Helvetica"
     id="text67">
H</text>
  <text
     x="0"
     y="0"
     stroke="none"
     fill="#000000"
     transform="matrix(0.05 0 0 0.05 503.672 155.521)"
     font-style="normal"
     font-weight="bold"
     font-size="150px"
     font-family="Helvetica"
     id="text68">
3</text>
  <text
     x="0"
     y="0"
     stroke="none"
     fill="#000000"
     transform="matrix(0.05 0 0 0.05 507.843 153.221)"
     font-style="normal"
     font-weight="bold"
     font-size="200px"
     font-family="Helvetica"
     id="text69">
O</text>
  <text
     x="0"
     y="0"
     stroke="none"
     fill="#000000"
     transform="matrix(0.05 0 0 0.05 515.621 149.622)"
     font-style="normal"
     font-weight="bold"
     font-size="150px"
     font-family="Helvetica"
     id="text70">
+</text>
  <text
     x="0"
     y="0"
     stroke="none"
     fill="#000000"
     transform="matrix(0.05 0 0 0.05 599.578 141.965)"
     font-style="normal"
     font-weight="bold"
     font-size="200px"
     font-family="Helvetica"
     id="text71">
1) </text>
  <text
     x="0"
     y="0"
     stroke="none"
     fill="#0000ff"
     transform="matrix(0.05 0 0 0.05 611.248 141.965)"
     font-style="normal"
     font-weight="bold"
     font-size="200px"
     font-family="Helvetica"
     id="text72">
R</text>
  <text
     x="0"
     y="0"
     stroke="none"
     fill="#000000"
     transform="matrix(0.05 0 0 0.05 618.469 141.965)"
     font-style="normal"
     font-weight="bold"
     font-size="200px"
     font-family="Helvetica"
     id="text73">
Li </text>
  <text
     x="0"
     y="0"
     stroke="none"
     fill="#000000"
     transform="matrix(0.05 0 0 0.05 630.134 141.965)"
     font-style="normal"
     font-weight="bold"
     font-size="200px"
     font-family="Helvetica"
     id="text74">
or </text>
  <text
     x="0"
     y="0"
     stroke="none"
     fill="#0000ff"
     transform="matrix(0.05 0 0 0.05 642.913 141.965)"
     font-style="normal"
     font-weight="bold"
     font-size="200px"
     font-family="Helvetica"
     id="text75">
R</text>
  <text
     x="0"
     y="0"
     stroke="none"
     fill="#000000"
     transform="matrix(0.05 0 0 0.05 650.134 141.965)"
     font-style="normal"
     font-weight="bold"
     font-size="200px"
     font-family="Helvetica"
     id="text76">
MgBr</text>
  <path
     stroke="none"
     fill="#000000"
     transform="matrix(0.05 0 0 0.05 -10 -11)"
     d="M 11433.6,3445.32 L 11433.6,4452.75 L 11411.6,4452.75 L 11411.6,3445.32 Z "
     id="path76" />
  <path
     stroke="none"
     fill="#000000"
     transform="matrix(0.05 0 0 0.05 -10 -11)"
     d="M 12041.9,2880.27 L 12041.9,3431.73 L 12019.9,3431.73 L 12019.9,2880.27 Z "
     id="path82" />
  <path
     stroke="none"
     fill="#000000"
     transform="matrix(0.05 0 0 0.05 -10 -11)"
     d="M 12030.9,2687.23 C 12030.9,2687.23 12087.4,2908.99 12087.4,2908.99 C 12087.4,2908.99 12055.6,2881.27 12030.9,2881.27 C 12005.8,2881.27 11973.5,2908.99 11973.5,2908.99 C 11973.5,2908.99 12030.9,2687.23 12030.9,2687.23 C 12030.9,2687.23 12030.9,2687.23 12030.9,2687.23 "
     id="path83" />
  <path
     stroke="#000000"
     stroke-width="1"
     fill="none"
     transform="matrix(0.05 0 0 0.05 -10 -11)"
     d="M 12030.9,2687.23 C 12030.9,2687.23 12087.4,2908.99 12087.4,2908.99 C 12087.4,2908.99 12055.6,2881.27 12030.9,2881.27 C 12005.8,2881.27 11973.5,2908.99 11973.5,2908.99 C 11973.5,2908.99 12030.9,2687.23 12030.9,2687.23 C 12030.9,2687.23 12030.9,2687.23 12030.9,2687.23 "
     id="path84" />
  <path
     stroke="none"
     fill="#000000"
     transform="matrix(0.05 0 0 0.05 -10 -11)"
     d="M 12030.9,3442.73 L 10825,3442.73 L 10825,3420.73 L 12030.9,3420.73 Z "
     id="path85" />
  <path
     stroke="none"
     fill="#000000"
     transform="matrix(0.05 0 0 0.05 -10 -11)"
     d="M 10836,2824.5 L 10836,3431.73 L 10814,3431.73 L 10814,2824.5 Z "
     id="path86" />
  <path
     stroke="none"
     fill="#000000"
     transform="matrix(0.05 0 0 0.05 -10 -11)"
     d="M 10825,2631.46 C 10825,2631.46 10881.4,2853.22 10881.4,2853.22 C 10881.4,2853.22 10849.7,2825.5 10825,2825.5 C 10799.8,2825.5 10767.5,2853.22 10767.5,2853.22 C 10767.5,2853.22 10825,2631.46 10825,2631.46 C 10825,2631.46 10825,2631.46 10825,2631.46 "
     id="path87" />
  <path
     stroke="#000000"
     stroke-width="1"
     fill="none"
     transform="matrix(0.05 0 0 0.05 -10 -11)"
     d="M 10825,2631.46 C 10825,2631.46 10881.4,2853.22 10881.4,2853.22 C 10881.4,2853.22 10849.7,2825.5 10825,2825.5 C 10799.8,2825.5 10767.5,2853.22 10767.5,2853.22 C 10767.5,2853.22 10825,2631.46 10825,2631.46 C 10825,2631.46 10825,2631.46 10825,2631.46 "
     id="path88" />
  <text
     x="0"
     y="0"
     stroke="none"
     fill="#000000"
     transform="matrix(0.05 0 0 0.05 396.589 122.034)"
     font-style="normal"
     font-weight="bold"
     font-size="200px"
     font-family="Helvetica"
     id="text88">
DIBAL</text>
  <path
     stroke="none"
     fill="#000000"
     transform="matrix(0.05 0 0 0.05 -10 -11)"
     d="M 6669.48,4641.53 L 6658.4,4622.32 L 6923.54,4468.65 L 6923.58,4494.32 L 6669.48,4641.53 Z "
     id="path89" />
  <text
     x="0"
     y="0"
     stroke="none"
     fill="#000000"
     transform="matrix(0.05 0 0 0.05 332.666 201.371)"
     font-style="normal"
     font-weight="bold"
     font-size="180px"
     font-family="Helvetica"
     id="text89">
O</text>
  <path
     stroke="none"
     fill="#000000"
     transform="matrix(0.05 0 0 0.05 -10 -11)"
     d="M 6906.7,4498.17 L 6884.52,4498.17 L 6884.52,4283.13 L 6906.7,4283.13 L 6906.7,4498.17 Z "
     id="path90" />
  <path
     stroke="none"
     fill="#000000"
     transform="matrix(0.05 0 0 0.05 -10 -11)"
     d="M 6962.14,4498.17 L 6939.96,4498.17 L 6939.96,4283.13 L 6962.14,4283.13 L 6962.14,4498.17 Z "
     id="path91" />
  <text
     x="0"
     y="0"
     stroke="none"
     fill="#107f01"
     transform="matrix(0.05 0 0 0.05 345.636 223.835)"
     font-style="normal"
     font-weight="bold"
     font-size="180px"
     font-family="Helvetica"
     id="text91">
OR</text>
  <path
     stroke="none"
     fill="#000000"
     transform="matrix(0.05 0 0 0.05 -10 -11)"
     d="M 6923.58,4494.32 L 6923.54,4468.65 L 7105.14,4574.33 L 7094.05,4593.53 L 6923.58,4494.32 Z "
     id="path92" />
  <text
     x="0"
     y="0"
     stroke="none"
     fill="#0000ff"
     transform="matrix(0.05 0 0 0.05 226.008 149.491)"
     font-style="normal"
     font-weight="bold"
     font-size="200px"
     font-family="Helvetica"
     id="text92">
ROH</text>
  <text
     x="0"
     y="0"
     stroke="none"
     fill="#000000"
     transform="matrix(0.05 0 0 0.05 248.229 149.491)"
     font-style="normal"
     font-weight="bold"
     font-size="200px"
     font-family="Helvetica"
     id="text93">
, </text>
  <text
     x="0"
     y="0"
     stroke="none"
     fill="#000000"
     transform="matrix(0.05 0 0 0.05 253.786 149.491)"
     font-style="normal"
     font-weight="bold"
     font-size="200px"
     font-family="Helvetica"
     id="text94">
H</text>
  <text
     x="0"
     y="0"
     stroke="none"
     fill="#000000"
     transform="matrix(0.05 0 0 0.05 261.008 145.892)"
     font-style="normal"
     font-weight="bold"
     font-size="150px"
     font-family="Helvetica"
     id="text95">
+</text>
  <text
     x="0"
     y="0"
     stroke="none"
     fill="#0000ff"
     transform="matrix(0.05 0 0 0.05 174.204 137.174)"
     font-style="normal"
     font-weight="bold"
     font-size="200px"
     font-family="Helvetica"
     id="text96">
OH</text>
  <text
     x="0"
     y="0"
     stroke="none"
     fill="#000000"
     transform="matrix(0.05 0 0 0.05 156.135 150.079)"
     font-style="normal"
     font-weight="bold"
     font-size="160px"
     font-family="Helvetica"
     id="text108">
then </text>
  <text
     x="0"
     y="0"
     stroke="none"
     fill="#000000"
     transform="matrix(0.05 0 0 0.05 175.244 150.079)"
     font-style="normal"
     font-weight="bold"
     font-size="160px"
     font-family="Helvetica"
     id="text109">
H</text>
  <text
     x="0"
     y="0"
     stroke="none"
     fill="#000000"
     transform="matrix(0.05 0 0 0.05 181.021 151.919)"
     font-style="normal"
     font-weight="bold"
     font-size="120px"
     font-family="Helvetica"
     id="text110">
3</text>
  <text
     x="0"
     y="0"
     stroke="none"
     fill="#000000"
     transform="matrix(0.05 0 0 0.05 184.358 150.079)"
     font-style="normal"
     font-weight="bold"
     font-size="160px"
     font-family="Helvetica"
     id="text111">
O</text>
  <text
     x="0"
     y="0"
     stroke="none"
     fill="#000000"
     transform="matrix(0.05 0 0 0.05 190.581 147.201)"
     font-style="normal"
     font-weight="bold"
     font-size="120px"
     font-family="Helvetica"
     id="text112">
+</text>
  <text
     x="0"
     y="0"
     stroke="none"
     fill="#0000ff"
     transform="matrix(0.05 0 0 0.05 307.508 135.187)"
     font-style="normal"
     font-weight="bold"
     font-size="200px"
     font-family="Helvetica"
     id="text113">
RNH</text>
  <text
     x="0"
     y="0"
     stroke="none"
     fill="#0000ff"
     transform="matrix(0.05 0 0 0.05 329.173 137.487)"
     font-style="normal"
     font-weight="bold"
     font-size="150px"
     font-family="Helvetica"
     id="text114">
2</text>
  <text
     x="0"
     y="0"
     stroke="none"
     fill="#000000"
     transform="matrix(0.05 0 0 0.05 314.743 146.106)"
     font-style="normal"
     font-weight="bold"
     font-size="160px"
     font-family="Helvetica"
     id="text115">
heat</text>
  <text
     x="0"
     y="0"
     stroke="none"
     fill="#000000"
     transform="matrix(0.05 0 0 0.05 341.932 252.526)"
     font-style="normal"
     font-weight="bold"
     font-size="160px"
     font-family="Helvetica"
     id="text116">
(LDA </text>
  <text
     x="0"
     y="0"
     stroke="none"
     fill="#000000"
     transform="matrix(0.05 0 0 0.05 362.967 252.526)"
     font-style="normal"
     font-weight="bold"
     font-size="160px"
     font-family="Helvetica"
     id="text117">
or </text>
  <text
     x="0"
     y="0"
     stroke="none"
     fill="#000000"
     transform="matrix(0.05 0 0 0.05 373.19 252.526)"
     font-style="normal"
     font-weight="bold"
     font-size="160px"
     font-family="Helvetica"
     id="text118">
NaOEt)</text>
  <text
     x="0"
     y="0"
     stroke="none"
     fill="#000000"
     transform="matrix(0.05 0 0 0.05 397.105 132.044)"
     font-style="normal"
     font-weight="bold"
     font-size="200px"
     font-family="Helvetica"
     id="text124">
-78 </text>
  <text
     x="0"
     y="0"
     stroke="none"
     fill="#000000"
     transform="matrix(0.05 0 0 0.05 414.336 128.445)"
     font-style="normal"
     font-weight="bold"
     font-size="150px"
     font-family="Helvetica"
     id="text125">
o</text>
  <text
     x="0"
     y="0"
     stroke="none"
     fill="#000000"
     transform="matrix(0.05 0 0 0.05 418.918 132.044)"
     font-style="normal"
     font-weight="bold"
     font-size="200px"
     font-family="Helvetica"
     id="text126">
C</text>
  <text
     x="0"
     y="0"
     stroke="none"
     fill="#000000"
     transform="matrix(0.05 0 0 0.05 394.245 143.484)"
     font-style="normal"
     font-weight="bold"
     font-size="200px"
     font-family="Helvetica"
     id="text127">
([Al]-</text>
  <text
     x="0"
     y="0"
     stroke="none"
     fill="#0000ff"
     transform="matrix(0.05 0 0 0.05 417.565 143.484)"
     font-style="normal"
     font-weight="bold"
     font-size="200px"
     font-family="Helvetica"
     id="text128">
H</text>
  <text
     x="0"
     y="0"
     stroke="none"
     fill="#000000"
     transform="matrix(0.05 0 0 0.05 424.787 143.484)"
     font-style="normal"
     font-weight="bold"
     font-size="200px"
     font-family="Helvetica"
     id="text129">
)</text>
  <text
     x="0"
     y="0"
     stroke="none"
     fill="#000000"
     transform="matrix(0.05 0 0 0.05 389.685 154.165)"
     font-style="normal"
     font-weight="bold"
     font-size="160px"
     font-family="Helvetica"
     id="text130">
then </text>
  <text
     x="0"
     y="0"
     stroke="none"
     fill="#000000"
     transform="matrix(0.05 0 0 0.05 408.794 154.165)"
     font-style="normal"
     font-weight="bold"
     font-size="160px"
     font-family="Helvetica"
     id="text131">
H</text>
  <text
     x="0"
     y="0"
     stroke="none"
     fill="#000000"
     transform="matrix(0.05 0 0 0.05 414.572 156.005)"
     font-style="normal"
     font-weight="bold"
     font-size="120px"
     font-family="Helvetica"
     id="text132">
3</text>
  <text
     x="0"
     y="0"
     stroke="none"
     fill="#000000"
     transform="matrix(0.05 0 0 0.05 417.909 154.165)"
     font-style="normal"
     font-weight="bold"
     font-size="160px"
     font-family="Helvetica"
     id="text133">
O</text>
  <text
     x="0"
     y="0"
     stroke="none"
     fill="#000000"
     transform="matrix(0.05 0 0 0.05 424.131 151.286)"
     font-style="normal"
     font-weight="bold"
     font-size="120px"
     font-family="Helvetica"
     id="text134">
+</text>
  <text
     x="0"
     y="0"
     stroke="none"
     fill="#0000ff"
     transform="matrix(0.05 0 0 0.05 247.849 135.029)"
     font-style="normal"
     font-weight="bold"
     font-size="200px"
     font-family="Helvetica"
     id="text137">
OR</text>
  <path
     stroke="#0000ff"
     stroke-width="18"
     fill="none"
     transform="matrix(0.05 0 0 0.05 -10 -11)"
     d="M 3565.36,2724.06 A 68.8704,68.8704 0 1 0 3703.1,2724.06A 68.8704,68.8704 0 1 0 3565.36,2724.06Z "
     id="path138" />
  <path
     stroke="none"
     fill="#0000ff"
     transform="matrix(0.05 0 0 0.05 -10 -11)"
     d="M 3593.14,2715.06 L 3675.32,2715.06 L 3675.32,2733.06 L 3593.14,2733.06 Z "
     id="path139" />
  <path
     stroke="#0000ff"
     stroke-width="18"
     fill="none"
     transform="matrix(0.05 0 0 0.05 -10 -11)"
     d="M 5066.86,2681.16 A 68.8704,68.8704 0 1 0 5204.6,2681.16A 68.8704,68.8704 0 1 0 5066.86,2681.16Z "
     id="path140" />
  <path
     stroke="none"
     fill="#0000ff"
     transform="matrix(0.05 0 0 0.05 -10 -11)"
     d="M 5094.64,2672.16 L 5176.82,2672.16 L 5176.82,2690.16 L 5094.64,2690.16 Z "
     id="path141" />
  <path
     stroke="none"
     fill="#000000"
     transform="matrix(0.05 0 0 0.05 -10 -11)"
     d="M 6903,5312.46 L 6903,4878.66 L 6925,4878.66 L 6925,5312.46 Z "
     id="path147" />
  <path
     stroke="none"
     fill="#000000"
     transform="matrix(0.05 0 0 0.05 -10 -11)"
     d="M 6914,5505.5 C 6914,5505.5 6856.56,5283.74 6856.56,5283.74 C 6856.56,5283.74 6888.87,5311.46 6914,5311.46 C 6938.69,5311.46 6970.44,5283.74 6970.44,5283.74 C 6970.44,5283.74 6914,5505.5 6914,5505.5 C 6914,5505.5 6914,5505.5 6914,5505.5 "
     id="path148" />
  <path
     stroke="#000000"
     stroke-width="1"
     fill="none"
     transform="matrix(0.05 0 0 0.05 -10 -11)"
     d="M 6914,5505.5 C 6914,5505.5 6856.56,5283.74 6856.56,5283.74 C 6856.56,5283.74 6888.87,5311.46 6914,5311.46 C 6938.69,5311.46 6970.44,5283.74 6970.44,5283.74 C 6970.44,5283.74 6914,5505.5 6914,5505.5 C 6914,5505.5 6914,5505.5 6914,5505.5 "
     id="path149" />
  <path
     stroke="none"
     fill="#000000"
     transform="matrix(0.05 0 0 0.05 -10 -11)"
     d="M 6297.55,7179.47 L 6297.55,6740.36 L 6319.55,6740.36 L 6319.55,7179.47 Z "
     id="path150" />
  <path
     stroke="none"
     fill="#000000"
     transform="matrix(0.05 0 0 0.05 -10 -11)"
     d="M 6308.55,7372.5 C 6308.55,7372.5 6251.11,7150.75 6251.11,7150.75 C 6251.11,7150.75 6283.42,7178.47 6308.55,7178.47 C 6333.24,7178.47 6364.99,7150.75 6364.99,7150.75 C 6364.99,7150.75 6308.55,7372.5 6308.55,7372.5 C 6308.55,7372.5 6308.55,7372.5 6308.55,7372.5 "
     id="path151" />
  <path
     stroke="#000000"
     stroke-width="1"
     fill="none"
     transform="matrix(0.05 0 0 0.05 -10 -11)"
     d="M 6308.55,7372.5 C 6308.55,7372.5 6251.11,7150.75 6251.11,7150.75 C 6251.11,7150.75 6283.42,7178.47 6308.55,7178.47 C 6333.24,7178.47 6364.99,7150.75 6364.99,7150.75 C 6364.99,7150.75 6308.55,7372.5 6308.55,7372.5 C 6308.55,7372.5 6308.55,7372.5 6308.55,7372.5 "
     id="path152" />
  <path
     stroke="none"
     fill="#000000"
     transform="matrix(0.05 0 0 0.05 -10 -11)"
     d="M 7514.53,6751.36 L 6308.55,6751.36 L 6308.55,6729.36 L 7514.53,6729.36 Z "
     id="path153" />
  <path
     stroke="none"
     fill="#000000"
     transform="matrix(0.05 0 0 0.05 -10 -11)"
     d="M 7503.53,7165.17 L 7503.53,6740.36 L 7525.53,6740.36 L 7525.53,7165.17 Z "
     id="path154" />
  <path
     stroke="none"
     fill="#000000"
     transform="matrix(0.05 0 0 0.05 -10 -11)"
     d="M 7514.53,7358.2 C 7514.53,7358.2 7457.09,7136.45 7457.09,7136.45 C 7457.09,7136.45 7489.4,7164.17 7514.53,7164.17 C 7539.22,7164.17 7570.97,7136.45 7570.97,7136.45 C 7570.97,7136.45 7514.53,7358.2 7514.53,7358.2 C 7514.53,7358.2 7514.53,7358.2 7514.53,7358.2 "
     id="path155" />
  <path
     stroke="#000000"
     stroke-width="1"
     fill="none"
     transform="matrix(0.05 0 0 0.05 -10 -11)"
     d="M 7514.53,7358.2 C 7514.53,7358.2 7457.09,7136.45 7457.09,7136.45 C 7457.09,7136.45 7489.4,7164.17 7514.53,7164.17 C 7539.22,7164.17 7570.97,7136.45 7570.97,7136.45 C 7570.97,7136.45 7514.53,7358.2 7514.53,7358.2 C 7514.53,7358.2 7514.53,7358.2 7514.53,7358.2 "
     id="path156" />
  <path
     stroke="none"
     fill="#000000"
     transform="matrix(0.05 0 0 0.05 -10 -11)"
     d="M 6922.54,6276.53 L 6922.54,6740.36 L 6900.54,6740.36 L 6900.54,6276.53 Z "
     id="path157" />
  <path
     stroke="none"
     fill="#000000"
     transform="matrix(0.05 0 0 0.05 -10 -11)"
     d="M 5476.97,7074.83 L 5465.88,7055.63 L 5730.61,6902.19 L 5730.67,6927.86 L 5476.97,7074.83 Z "
     id="path158" />
  <text
     x="0"
     y="0"
     stroke="none"
     fill="#107f01"
     transform="matrix(0.05 0 0 0.05 286.216 345.5)"
     font-style="normal"
     font-weight="bold"
     font-size="180px"
     font-family="Helvetica"
     id="text158">
Br</text>
  <path
     stroke="none"
     fill="#000000"
     transform="matrix(0.05 0 0 0.05 -10 -11)"
     d="M 5730.67,6927.86 L 5730.61,6902.19 L 5901.73,7001.86 L 5890.64,7021.07 L 5730.67,6927.86 Z "
     id="path159" />
  <path
     stroke="none"
     fill="#000000"
     transform="matrix(0.05 0 0 0.05 -10 -11)"
     d="M 7692.93,7067.78 L 7681.84,7048.58 L 7946.98,6894.91 L 7947.03,6920.58 L 7692.93,7067.78 Z "
     id="path167" />
  <text
     x="0"
     y="0"
     stroke="none"
     fill="#000000"
     transform="matrix(0.05 0 0 0.05 383.839 322.684)"
     font-style="normal"
     font-weight="bold"
     font-size="180px"
     font-family="Helvetica"
     id="text167">
O</text>
  <path
     stroke="none"
     fill="#000000"
     transform="matrix(0.05 0 0 0.05 -10 -11)"
     d="M 7930.15,6924.42 L 7907.97,6924.42 L 7907.97,6709.39 L 7930.15,6709.39 L 7930.15,6924.42 Z "
     id="path168" />
  <path
     stroke="none"
     fill="#000000"
     transform="matrix(0.05 0 0 0.05 -10 -11)"
     d="M 7985.59,6924.42 L 7963.41,6924.42 L 7963.41,6709.39 L 7985.59,6709.39 L 7985.59,6924.42 Z "
     id="path169" />
  <text
     x="0"
     y="0"
     stroke="none"
     fill="#107f01"
     transform="matrix(0.05 0 0 0.05 396.808 345.148)"
     font-style="normal"
     font-weight="bold"
     font-size="180px"
     font-family="Helvetica"
     id="text169">
OR</text>
  <path
     stroke="none"
     fill="#000000"
     transform="matrix(0.05 0 0 0.05 -10 -11)"
     d="M 7947.03,6920.58 L 7946.98,6894.91 L 8128.58,7000.58 L 8117.5,7019.79 L 7947.03,6920.58 Z "
     id="path170" />
  <text
     x="0"
     y="0"
     stroke="none"
     fill="#000000"
     transform="matrix(0.05 0 0 0.05 373.495 355.999)"
     font-style="normal"
     font-weight="bold"
     font-size="160px"
     font-family="Helvetica"
     id="text178">
then </text>
  <text
     x="0"
     y="0"
     stroke="none"
     fill="#000000"
     transform="matrix(0.05 0 0 0.05 392.604 355.999)"
     font-style="normal"
     font-weight="bold"
     font-size="160px"
     font-family="Helvetica"
     id="text179">
H</text>
  <text
     x="0"
     y="0"
     stroke="none"
     fill="#000000"
     transform="matrix(0.05 0 0 0.05 398.381 357.839)"
     font-style="normal"
     font-weight="bold"
     font-size="120px"
     font-family="Helvetica"
     id="text180">
3</text>
  <text
     x="0"
     y="0"
     stroke="none"
     fill="#000000"
     transform="matrix(0.05 0 0 0.05 401.718 355.999)"
     font-style="normal"
     font-weight="bold"
     font-size="160px"
     font-family="Helvetica"
     id="text181">
O</text>
  <text
     x="0"
     y="0"
     stroke="none"
     fill="#000000"
     transform="matrix(0.05 0 0 0.05 407.941 353.121)"
     font-style="normal"
     font-weight="bold"
     font-size="120px"
     font-family="Helvetica"
     id="text182">
+</text>
  <text
     x="0"
     y="0"
     stroke="none"
     fill="#000000"
     transform="matrix(0.05 0 0 0.05 309.042 338.326)"
     font-style="normal"
     font-weight="normal"
     font-size="160px"
     font-family="Helvetica"
     id="text183">
(LDA)</text>
  <text
     x="0"
     y="0"
     stroke="none"
     fill="#000000"
     transform="matrix(0.05 0 0 0.05 336.608 338.279)"
     font-style="normal"
     font-weight="normal"
     font-size="160px"
     font-family="Helvetica"
     id="text184">
(NaOR)</text>
  <path
     stroke="none"
     fill="#000000"
     transform="matrix(0.05 0 0 0.05 -10 -11)"
     d="M 9653.39,5851.84 L 9675.57,5860.6 L 9675.44,6149.62 L 9653.22,6162.45 L 9653.39,5851.84 Z "
     id="path184" />
  <path
     stroke="none"
     fill="#000000"
     transform="matrix(0.05 0 0 0.05 -10 -11)"
     d="M 9653.22,6162.45 L 9675.44,6149.62 L 9924.2,6293.24 L 9924.2,6318.89 L 9653.22,6162.45 Z "
     id="path185" />
  <path
     stroke="none"
     fill="#000000"
     transform="matrix(0.05 0 0 0.05 -10 -11)"
     d="M 9924.2,6318.89 L 9924.2,6293.24 L 10173,6149.62 L 10195.2,6162.45 L 9924.2,6318.89 Z "
     id="path186" />
  <path
     stroke="none"
     fill="#000000"
     transform="matrix(0.05 0 0 0.05 -10 -11)"
     d="M 10195.2,6162.45 L 10173,6149.62 L 10171.9,5848.06 L 10194.1,5863.85 L 10195.2,6162.45 Z "
     id="path187" />
  <path
     stroke="none"
     fill="#000000"
     transform="matrix(0.05 0 0 0.05 -10 -11)"
     d="M 9919.02,5566.68 L 9929.96,5587.59 L 9675.57,5860.6 L 9653.39,5851.84 L 9919.02,5566.68 Z "
     id="path188" />
  <text
     x="0"
     y="0"
     stroke="none"
     fill="#000000"
     transform="matrix(0.05 0 0 0.05 482.71 256.152)"
     font-style="normal"
     font-weight="bold"
     font-size="180px"
     font-family="Helvetica"
     id="text188">
O</text>
  <path
     stroke="none"
     fill="#000000"
     transform="matrix(0.05 0 0 0.05 -10 -11)"
     d="M 9907.57,5607.54 L 9885.39,5607.54 L 9885.39,5378.75 L 9907.57,5378.75 L 9907.57,5607.54 Z "
     id="path189" />
  <path
     stroke="none"
     fill="#000000"
     transform="matrix(0.05 0 0 0.05 -10 -11)"
     d="M 9963.01,5574.43 L 9940.83,5574.43 L 9940.83,5378.75 L 9963.01,5378.75 L 9963.01,5574.43 Z "
     id="path190" />
  <text
     x="0"
     y="0"
     stroke="none"
     fill="#000000"
     transform="matrix(0.05 0 0 0.05 494.865 269.659)"
     font-style="normal"
     font-weight="bold"
     font-size="180px"
     font-family="Helvetica"
     id="text190">
OEt</text>
  <path
     stroke="none"
     fill="#000000"
     transform="matrix(0.05 0 0 0.05 -10 -11)"
     d="M 9929.96,5587.59 L 9919.02,5566.68 L 10074.7,5548.42 L 10077.4,5570.44 L 9929.96,5587.59 Z "
     id="path191" />
  <path
     stroke="none"
     fill="#000000"
     transform="matrix(0.05 0 0 0.05 -10 -11)"
     d="M 10194.1,5863.85 L 10171.9,5848.06 L 10542.9,5718.89 L 10541.8,5742.87 L 10194.1,5863.85 Z "
     id="path192" />
  <text
     x="0"
     y="0"
     stroke="none"
     fill="#000000"
     transform="matrix(0.05 0 0 0.05 513.455 267.514)"
     font-style="normal"
     font-weight="bold"
     font-size="180px"
     font-family="Helvetica"
     id="text192">
O</text>
  <path
     stroke="none"
     fill="#000000"
     transform="matrix(0.05 0 0 0.05 -10 -11)"
     d="M 10525.1,5740.89 L 10503,5741.14 L 10501.4,5606.41 L 10523.6,5606.16 L 10525.1,5740.89 Z "
     id="path193" />
  <path
     stroke="none"
     fill="#000000"
     transform="matrix(0.05 0 0 0.05 -10 -11)"
     d="M 10580.6,5744.81 L 10558.4,5745.06 L 10556.9,5605.79 L 10579,5605.54 L 10580.6,5744.81 Z "
     id="path194" />
  <text
     x="0"
     y="0"
     stroke="none"
     fill="#000000"
     transform="matrix(0.05 0 0 0.05 524.18 283.959)"
     font-style="normal"
     font-weight="bold"
     font-size="180px"
     font-family="Helvetica"
     id="text194">
OEt</text>
  <path
     stroke="none"
     fill="#000000"
     transform="matrix(0.05 0 0 0.05 -10 -11)"
     d="M 10541.8,5742.87 L 10542.9,5718.89 L 10672.6,5782.69 L 10662.9,5802.64 L 10541.8,5742.87 Z "
     id="path195" />
  <path
     stroke="none"
     fill="#000000"
     transform="matrix(0.05 0 0 0.05 -10 -11)"
     d="M 9963.2,6871.16 L 9963.2,6437.36 L 9985.2,6437.36 L 9985.2,6871.16 Z "
     id="path196" />
  <path
     stroke="none"
     fill="#000000"
     transform="matrix(0.05 0 0 0.05 -10 -11)"
     d="M 9974.2,7064.2 C 9974.2,7064.2 9916.76,6842.44 9916.76,6842.44 C 9916.76,6842.44 9949.07,6870.16 9974.2,6870.16 C 9998.89,6870.16 10030.6,6842.44 10030.6,6842.44 C 10030.6,6842.44 9974.2,7064.2 9974.2,7064.2 C 9974.2,7064.2 9974.2,7064.2 9974.2,7064.2 "
     id="path197" />
  <path
     stroke="#000000"
     stroke-width="1"
     fill="none"
     transform="matrix(0.05 0 0 0.05 -10 -11)"
     d="M 9974.2,7064.2 C 9974.2,7064.2 9916.76,6842.44 9916.76,6842.44 C 9916.76,6842.44 9949.07,6870.16 9974.2,6870.16 C 9998.89,6870.16 10030.6,6842.44 10030.6,6842.44 C 10030.6,6842.44 9974.2,7064.2 9974.2,7064.2 C 9974.2,7064.2 9974.2,7064.2 9974.2,7064.2 "
     id="path198" />
  <text
     x="0"
     y="0"
     stroke="none"
     fill="#000000"
     transform="matrix(0.05 0 0 0.05 493.775 327.568)"
     font-style="normal"
     font-weight="bold"
     font-size="200px"
     font-family="Helvetica"
     id="text198">
NaOEt, </text>
  <text
     x="0"
     y="0"
     stroke="none"
     fill="#000000"
     transform="matrix(0.05 0 0 0.05 529.893 327.568)"
     font-style="normal"
     font-weight="bold"
     font-size="200px"
     font-family="Helvetica"
     id="text199">
then </text>
  <text
     x="0"
     y="0"
     stroke="none"
     fill="#000000"
     transform="matrix(0.05 0 0 0.05 553.78 327.568)"
     font-style="normal"
     font-weight="bold"
     font-size="200px"
     font-family="Helvetica"
     id="text200">
H</text>
  <text
     x="0"
     y="0"
     stroke="none"
     fill="#000000"
     transform="matrix(0.05 0 0 0.05 561.001 329.868)"
     font-style="normal"
     font-weight="bold"
     font-size="150px"
     font-family="Helvetica"
     id="text201">
3</text>
  <text
     x="0"
     y="0"
     stroke="none"
     fill="#000000"
     transform="matrix(0.05 0 0 0.05 565.172 327.568)"
     font-style="normal"
     font-weight="bold"
     font-size="200px"
     font-family="Helvetica"
     id="text202">
O</text>
  <text
     x="0"
     y="0"
     stroke="none"
     fill="#000000"
     transform="matrix(0.05 0 0 0.05 572.951 323.969)"
     font-style="normal"
     font-weight="bold"
     font-size="150px"
     font-family="Helvetica"
     id="text203">
+</text>
  <path
     stroke="#000000"
     stroke-width="22"
     fill="none"
     transform="matrix(0.05 0 0 0.05 -10 -11)"
     stroke-dasharray="53"
     d="M 9422.7,8218.14 C 9422.7,8218.14 9422.7,5037.96 9422.7,5037.96 C 9422.7,4964.51 9482.31,4904.9 9555.76,4904.9 C 9555.76,4904.9 12136.3,4904.9 12136.3,4904.9 C 12209.8,4904.9 12269.4,4964.51 12269.4,5037.96 C 12269.4,5037.96 12269.4,8218.14 12269.4,8218.14 C 12269.4,8291.59 12209.8,8351.2 12136.3,8351.2 C 12136.3,8351.2 9555.76,8351.2 9555.76,8351.2 C 9482.31,8351.2 9422.7,8291.59 9422.7,8218.14 "
     id="path215" />
  <text
     x="0"
     y="0"
     stroke="none"
     fill="#000000"
     transform="matrix(0.05 0 0 0.05 467.58 244.498)"
     font-style="normal"
     font-weight="normal"
     font-size="200px"
     font-family="Helvetica"
     id="text216">
intramolecular </text>
  <text
     x="0"
     y="0"
     stroke="none"
     fill="#000000"
     transform="matrix(0.05 0 0 0.05 533.161 244.498)"
     font-style="normal"
     font-weight="normal"
     font-size="200px"
     font-family="Helvetica"
     id="text217">
application</text>
  <path
     stroke="none"
     fill="#ffffff"
     opacity="0"
     onclick="window.location.href = 'acids.svg'"
     transform="matrix(0.05 0 0 0.05 -10 -11)"
     d="M 4833.4,2445.3 C 4833.4,2445.3 4833.4,1157.3 4833.4,1157.3 C 4833.4,1157.3 3631.2,1157.3 3631.2,1157.3 C 3631.2,1157.3 3631.2,2445.3 3631.2,2445.3 C 3631.2,2445.3 4833.4,2445.3 4833.4,2445.3 "
     id="path1"
     inkscape:label="l-acid" />
  <path
     stroke="none"
     fill="#ffffff"
     opacity="0"
     onclick="window.location.href = 'esters.svg'"
     transform="matrix(0.05 0 0 0.05 -10 -11)"
     d="M 6349.2,2445.3 C 6349.2,2445.3 6349.2,1257.4 6349.2,1257.4 C 6349.2,1257.4 4946.8,1257.4 4946.8,1257.4 C 4946.8,1257.4 4946.8,2445.3 4946.8,2445.3 C 4946.8,2445.3 6349.2,2445.3 6349.2,2445.3 "
     id="path3"
     inkscape:label="l-ester" />
  <path
     stroke="none"
     fill="#ffffff"
     opacity="0"
     onclick="window.location.href = 'amides.svg'"
     transform="matrix(0.05 0 0 0.05 -10 -11)"
     d="M 7664.8,2459.6 C 7664.8,2459.6 7664.8,1629.2 7664.8,1629.2 C 7664.8,1629.2 6591.3,1629.2 6591.3,1629.2 C 6591.3,1629.2 6591.3,2459.6 6591.3,2459.6 C 6591.3,2459.6 7664.8,2459.6 7664.8,2459.6 "
     id="path5"
     inkscape:label="l-amide" />
  <path
     stroke="none"
     fill="#ffffff"
     opacity="0"
     onclick="window.location.href = 'ketones.svg'"
     transform="matrix(0.05 0 0 0.05 -10 -11)"
     d="M 9337.9,2445.3 C 9337.9,2445.3 9337.9,1657.8 9337.9,1657.8 C 9337.9,1657.8 8493.2,1657.8 8493.2,1657.8 C 8493.2,1657.8 8493.2,2445.3 8493.2,2445.3 C 8493.2,2445.3 9337.9,2445.3 9337.9,2445.3 "
     id="path7"
     inkscape:label="l-aldehyde" />
  <path
     stroke="none"
     fill="#ffffff"
     opacity="0"
     onclick="window.location.href = 'alcohols.svg'"
     transform="matrix(0.05 0 0 0.05 -10 -11)"
     d="M 12641.2,2659.8 C 12641.2,2659.8 12641.2,1572 12641.2,1572 C 12641.2,1572 11725,1572 11725,1572 C 11725,1572 11725,2659.8 11725,2659.8 C 11725,2659.8 12641.2,2659.8 12641.2,2659.8 "
     id="path11"
     inkscape:label="l-alcohol" />
  <path
     stroke="none"
     fill="#ffffff"
     opacity="0"
     onclick="window.location.href = 'esters.svg'"
     transform="matrix(0.05 0 0 0.05 -10 -11)"
     d="M 6892.6,8279.7 C 6892.6,8279.7 6892.6,7420.7 6892.6,7420.7 C 6892.6,7420.7 5447.3,7420.7 5447.3,7420.7 C 5447.3,7420.7 5447.3,8279.7 5447.3,8279.7 C 5447.3,8279.7 6892.6,8279.7 6892.6,8279.7 "
     id="path13"
     inkscape:label="l-ester" />
  <path
     stroke="none"
     fill="#ffffff"
     opacity="0"
     onclick="window.location.href = 'malonic.svg'"
     transform="matrix(0.05 0 0 0.05 -10 -11)"
     d="M 8508.5,8322.6 C 8508.5,8322.6 8508.5,7435 8508.5,7435 C 8508.5,7435 6964.1,7435 6964.1,7435 C 6964.1,7435 6964.1,8322.6 6964.1,8322.6 C 6964.1,8322.6 8508.5,8322.6 8508.5,8322.6 "
     id="path15"
     inkscape:label="l-malonic" />
  <path
     stroke="none"
     fill="#ffffff"
     opacity="0"
     onclick="window.location.href = 'malonic.svg'"
     transform="matrix(0.05 0 0 0.05 -10 -11)"
     d="M 9509.5,8265.4 C 9509.5,8265.4 9509.5,7077.5 9509.5,7077.5 C 9509.5,7077.5 12183.6,7077.5 12183.6,7077.5 C 12183.6,7077.5 12183.6,8265.4 12183.6,8265.4 C 12183.6,8265.4 9509.5,8265.4 9509.5,8265.4 "
     id="path17"
     inkscape:label="l-malonic" />
  <path
     stroke="none"
     fill="#ffffff"
     opacity="0"
     onclick="window.location.href = 'esters.svg'"
     transform="matrix(0.05 0 0 0.05 -10 -11)"
     d="M 7534.03,6347.02 C 7534.03,6347.02 7534.03,5486.71 7534.03,5486.71 C 7534.03,5486.71 6419.7,5486.71 6419.7,5486.71 C 6419.7,5486.71 6419.7,6347.02 6419.7,6347.02 C 6419.7,6347.02 7534.03,6347.02 7534.03,6347.02 "
     id="path21"
     inkscape:label="l-enolate" />
  <path
     stroke="none"
     fill="#ffffff"
     opacity="0"
     onclick="window.location.href = 'toesters.svg'"
     d="m 367.79497,230.83447 c 0,0 0,-39.88791 0,-39.88791 0,0 -108.10359,0 -108.10359,0 0,0 0,39.88791 0,39.88791 0,0 108.10359,0 108.10359,0"
     id="path21-4"
     inkscape:label="l-toesters"
     style="opacity:0;stroke-width:0.0670666" />
  <path
     stroke="none"
     fill="#ffffff"
     opacity="0"
     onclick="window.location.href = 'toesters.svg'"
     d="m 544.68037,309.78535 c 0,0 0,-62.56292 0,-62.56292 0,0 -83.08289,0 -83.08289,0 0,0 0,62.56292 0,62.56292 0,0 83.08289,0 83.08289,0"
     id="path21-4-6"
     inkscape:label="l-toesters"
     style="opacity:0;stroke-width:0.0736343" />
  <path
     stroke="none"
     fill="#ffffff"
     opacity="0"
     onclick="window.location.href = 'supplement.svg'"
     d="m 196.63369,157.50082 c 0,0 0,-37.54222 0,-37.54222 0,0 -47.11563,0 -47.11563,0 0,0 0,37.54222 0,37.54222 0,0 47.11563,0 47.11563,0"
     id="path21-4-6-1"
     inkscape:label="l-supplement"
     style="opacity:0;stroke-width:0.0429545" />
  <path
     stroke="none"
     fill="#ffffff"
     opacity="0"
     onclick="window.location.href = 'supplement.svg'"
     d="m 268.06651,153.86721 c 0,0 0,-14.08531 0,-14.08531 0,0 -15.83975,0 -15.83975,0 0,0 0,14.08531 0,14.08531 0,0 15.83975,0 15.83975,0"
     id="path21-4-6-1-5"
     inkscape:label="l-supplement"
     style="opacity:0;stroke-width:0.0152554" />
  <path
     stroke="none"
     fill="#ffffff"
     opacity="0"
     onclick="window.location.href = 'supplement.svg'"
     d="m 429.3631,155.61204 c 0,0 0,-43.7974 0,-43.7974 0,0 -47.89753,0 -47.89753,0 0,0 0,43.7974 0,43.7974 0,0 47.89753,0 47.89753,0"
     id="path21-4-6-1-1"
     inkscape:label="l-supplement"
     style="opacity:0;stroke-width:0.0467786" />
  <path
     stroke="none"
     fill="#ffffff"
     opacity="0"
     onclick="window.location.href = 'supplement.svg'"
     d="m 530.06651,158.30342 c 0,0 0,-25.81377 0,-25.81377 0,0 -46.33373,0 -46.33373,0 0,0 0,25.81377 0,25.81377 0,0 46.33373,0 46.33373,0"
     id="path21-4-6-1-0"
     inkscape:label="l-supplement"
     style="opacity:0;stroke-width:0.0353216" />
  <path
     stroke="none"
     fill="#ffffff"
     opacity="0"
     onclick="window.location.href = 'supplement.svg'"
     d="m 644.88548,158.35686 c 0,0 0,-13.30342 0,-13.30342 0,0 -47.11563,0 -47.11563,0 0,0 0,13.30342 0,13.30342 0,0 47.11563,0 47.11563,0"
     id="path21-4-6-1-9"
     inkscape:label="l-supplement"
     style="opacity:0;stroke-width:0.02557" />
  <path
     stroke="none"
     fill="#ffffff"
     opacity="0"
     onclick="window.location.href = 'supplement.svg'"
     d="m 404.70689,255.87587 c 0,0 0,-21.90428 0,-21.90428 0,0 -63.53546,0 -63.53546,0 0,0 0,21.90428 0,21.90428 0,0 63.53546,0 63.53546,0"
     id="path21-4-6-1-08"
     inkscape:label="l-supplement"
     style="opacity:0;stroke-width:0.0381012" />
  <path
     stroke="none"
     fill="#ffffff"
     opacity="0"
     onclick="window.location.href = 'supplement.svg'"
     d="m 578.78293,334.54655 c 0,0 0,-17.9948 0,-17.9948 0,0 -86.99237,0 -86.99237,0 0,0 0,17.9948 0,17.9948 0,0 86.99237,0 86.99237,0"
     id="path21-4-6-1-8"
     inkscape:label="l-supplement"
     style="opacity:0;stroke-width:0.0404092" />
  <path
     stroke="none"
     fill="#ffffff"
     opacity="0"
     onclick="window.location.href = 'supplement.svg'"
     d="m 411.77332,358.54222 c 0,0 0,-10.17583 0,-10.17583 0,0 -39.29666,0 -39.29666,0 0,0 0,10.17583 0,10.17583 0,0 39.29666,0 39.29666,0"
     id="path21-4-6-1-2"
     inkscape:label="l-supplement"
     style="opacity:0;stroke-width:0.0204234" />
  <path
     stroke="none"
     fill="#ffffff"
     opacity="0"
     onclick="window.location.href = 'supplement.svg'"
     d="m 363.92594,343.02754 c 0,0 0,-14.08531 0,-14.08531 0,0 -56.49839,0 -56.49839,0 0,0 0,14.08531 0,14.08531 0,0 56.49839,0 56.49839,0"
     id="path21-4-6-1-2-8"
     inkscape:label="l-supplement"
     style="opacity:0;stroke-width:0.0288115" />
  <path
     stroke="none"
     fill="#ffffff"
     opacity="0"
     onclick="window.location.href = 'tohalides.svg'"
     d="m 299.25093,349.2129 c 0,0 0,-17.2129 0,-17.2129 0,0 -39.29666,0 -39.29666,0 0,0 0,17.2129 0,17.2129 0,0 39.29666,0 39.29666,0"
     id="path21-4-6-1-2-0"
     inkscape:label="l-x"
     style="opacity:0;stroke-width:0.0265626" />
  <path
     stroke="none"
     fill="#ffffff"
     opacity="0"
     onclick="window.location.href = 'toesters.svg'"
     d="m 413.28895,348.44737 c 0,0 0,-33.63273 0,-33.63273 0,0 -41.64235,0 -41.64235,0 0,0 0,33.63273 0,33.63273 0,0 41.64235,0 41.64235,0"
     id="path21-4-6-1-2-0-6"
     inkscape:label="l-x"
     style="opacity:0;stroke-width:0.0382221" />
  <path
     stroke="none"
     fill="#ffffff"
     opacity="0"
     onclick="window.location.href = 'toorganometallics.svg'"
     d="m 676.35105,144.87492 c 0,0 0,-17.2129 0,-17.2129 0,0 -76.82771,0 -76.82771,0 0,0 0,17.2129 0,17.2129 0,0 76.82771,0 76.82771,0"
     id="path21-4-6-1-2-0-1"
     inkscape:label="l-x"
     style="opacity:0;stroke-width:0.0371408" />
  <path
     stroke="none"
     fill="#ffffff"
     opacity="0"
     onclick="window.location.href = 'toamines.svg'"
     d="m 336.02417,139.33616 c 0,0 0,-14.08531 0,-14.08531 0,0 -32.25959,0 -32.25959,0 0,0 0,14.08531 0,14.08531 0,0 32.25959,0 32.25959,0"
     id="path21-4-6-1-2-0-2"
     inkscape:label="l-x"
     style="opacity:0;stroke-width:0.021771" />
  <path
     stroke="none"
     fill="#ffffff"
     opacity="0"
     onclick="window.location.href = 'toalcohols.svg'"
     d="m 266.97938,136.55426 c 0,0 0,-17.2129 0,-17.2129 0,0 -26.78631,0 -26.78631,0 0,0 0,17.2129 0,17.2129 0,0 26.78631,0 26.78631,0"
     id="path21-4-6-1-2-0-7"
     inkscape:label="l-x"
     style="opacity:0;stroke-width:0.0219305" />
  <path
     stroke="none"
     fill="#ffffff"
     opacity="0"
     onclick="window.location.href = 'toalcohols.svg'"
     d="m 249.90957,153.61636 c 0,0 0,-17.2129 0,-17.2129 0,0 -26.78631,0 -26.78631,0 0,0 0,17.2129 0,17.2129 0,0 26.78631,0 26.78631,0"
     id="path21-4-6-1-2-0-7-1"
     inkscape:label="l-x"
     style="opacity:0;stroke-width:0.0219305" />
  <path
     stroke="none"
     fill="#ffffff"
     opacity="0"
     onclick="window.location.href = 'toorganometallics.svg'"
     d="m 678.13389,143.75166 c 0,0 0,-12.52152 0,-12.52152 0,0 -79.1734,0 -79.1734,0 0,0 0,12.52152 0,12.52152 0,0 79.1734,0 79.1734,0"
     id="path21-4-6-1-2-0-7-1-9"
     inkscape:label="l-x"
     style="opacity:0;stroke-width:0.0321576" />
  <g
     id="noreagents"
     onclick="window.location.href = 'esters-noreagents.svg'"
     transform="translate(-4.6856272,378.9067)">
    <text
       x="11.200497"
       y="54.141506"
       stroke="none"
       fill="#000000"
       font-style="normal"
       font-weight="bold"
       font-size="200px"
       font-family="Helvetica"
       id="gobacktext-7"
       style="font-style:normal;font-weight:bold;font-size:10px;font-family:Helvetica;fill:#000000;fill-opacity:0.443609;stroke:none;stroke-width:0.05"
       inkscape:label="noreagents-text"><tspan
         sodipodi:role="line"
         id="tspan2"
         x="11.200497"
         y="54.141506"
         style="font-style:normal;font-variant:normal;font-weight:bold;font-stretch:normal;font-size:8px;font-family:Helvetica;-inkscape-font-specification:'Helvetica, Bold';font-variant-ligatures:normal;font-variant-caps:normal;font-variant-numeric:normal;font-variant-east-asian:normal;fill:#000000;fill-opacity:0.5;stroke-width:0.05">reagents</tspan></text>
    <rect
       style="fill:#000000;fill-opacity:0.821053;fill-rule:evenodd;stroke:#a13033;stroke-width:0;stroke-linecap:round;stroke-miterlimit:2;stroke-dasharray:none;paint-order:markers fill stroke"
       id="rect3"
       width="31.666824"
       height="0.9773711"
       x="12.224979"
       y="51.518982"
       inkscape:label="noreagents-line" />
    <path
       stroke="none"
       fill="#999999"
       d="m 9.795,54.694678 c 0,0 0,-5.427567 0,-5.427567 0,-2.098514 1.463398,-3.801611 3.266274,-3.801611 0,0 30.608907,0 30.608907,0 1.803073,0 3.266397,1.703097 3.266397,3.801611 0,0 0,5.427567 0,5.427567 0,2.098514 -1.463324,3.801611 -3.266397,3.801611 0,0 -30.608907,0 -30.608907,0 -1.802876,0 -3.266274,-1.703097 -3.266274,-3.801611"
       id="goback-box-8"
       style="fill:#999999;fill-opacity:0.336842;stroke-width:0.0264832"
       inkscape:label="noreagents-box" />
  </g>
  <g
     id="nonames"
     onclick="window.location.href = 'esters.svg'"
     transform="matrix(0.85780308,0,0,1,-3.2442635,382.9067)">
    <text
       x="18.441887"
       y="69.010506"
       stroke="none"
       fill="#000000"
       font-style="normal"
       font-weight="bold"
       font-size="200px"
       font-family="Helvetica"
       id="gobacktext-7-8"
       style="font-style:normal;font-variant:normal;font-weight:bold;font-stretch:normal;font-size:10px;font-family:Helvetica;-inkscape-font-specification:'Helvetica, Bold';font-variant-ligatures:normal;font-variant-caps:normal;font-variant-numeric:normal;font-variant-east-asian:normal;fill:#0088d0;fill-opacity:0.675806;stroke:none;stroke-width:0.05"
       inkscape:label="noproducts-text"><tspan
         sodipodi:role="line"
         id="tspan1"
         x="18.441887"
         y="69.010506">show</tspan></text>
    <path
       stroke="none"
       fill="#999999"
       d="m 10.136392,68.163695 c 0,0 0,-5.427567 0,-5.427567 0,-2.098514 1.679048,-3.801611 3.747601,-3.801611 0,0 35.119514,0 35.119514,0 2.068778,0 3.747742,1.703097 3.747742,3.801611 0,0 0,5.427567 0,5.427567 0,2.098514 -1.678964,3.801611 -3.747742,3.801611 0,0 -35.119514,0 -35.119514,0 -2.068553,0 -3.747601,-1.703097 -3.747601,-3.801611"
       id="goback-box-8-6"
       style="fill:#999999;fill-opacity:0.336842;stroke-width:0.0283675"
       inkscape:label="noproducts-box" />
  </g>
  <text
     x="822.84332"
     y="415.79849"
     stroke="none"
     fill="#000000"
     transform="matrix(0.92407999,-0.00322566,0.00377741,1.0821442,0,0)"
     font-style="italic"
     font-weight="bold"
     font-size="8.25806px"
     font-family="'Helvetica Oblique'"
     id="text11"
     style="opacity:1;fill:#00009a;fill-opacity:0.651128;stroke-width:0.0412903">chemisfun</text>
  <g
     id="overlay-box"
     style="opacity:0"
     transform="matrix(0.31364504,0,0,0.8007311,650.50736,385.81436)">
    <rect
       style="fill:#609975;fill-opacity:0.2;stroke:#609970;stroke-width:0;stroke-linecap:round;stroke-opacity:0.657143;paint-order:fill markers stroke"
       id="rect285"
       width="164.84744"
       height="59.583412"
       x="329.69489"
       y="23.171328" />
  </g>
  <g
     id="overlay"
     onclick="window.location.href = 'index.html'"
     onmouseover="this.ownerDocument.getElementById('overlay-box').style.opacity='0.5'"
     onmouseout="this.ownerDocument.getElementById('overlay-box').style.opacity='0'"
     transform="matrix(0.76550767,-0.0030054,0.00267214,0.86098131,195.61318,22.784653)">
    <rect
       style="opacity:0.5;fill:#ffffff;fill-opacity:0;stroke-linecap:round;stroke-opacity:0.657143;paint-order:stroke fill markers"
       id="rect2"
       width="65.93074"
       height="55.035408"
       x="733.06049"
       y="445.87061" />
  </g>
  <g
     id="g1"
     transform="matrix(0.0625,0,0,0.0625,764.65732,406.62566)">
    <rect
       x="239.31"
       y="120.321"
       style="fill:#444242"
       width="33.389"
       height="139.98"
       id="rect1" />
    <rect
       x="256"
       y="120.321"
       style="fill:#3a3839"
       width="16.695"
       height="139.98"
       id="rect2-2" />
    <rect
       x="132.194"
       y="305.86301"
       transform="matrix(0.5,0.866,-0.866,0.5,399.932,58.9793)"
       style="fill:#444242"
       width="33.387001"
       height="139.967"
       id="rect4" />
    <rect
       x="293.125"
       y="359.13"
       transform="matrix(0.866,0.5,-0.5,0.866,236.5654,-131.205)"
       style="fill:#3a3839"
       width="139.967"
       height="33.387001"
       id="rect5" />
    <path
       style="background-color:#ffffff00;fill:#439de2;fill-opacity:1"
       d="m 456.843,485.07 c -9.538,0 -18.951,-2.501 -27.432,-7.398 v 0 c -12.733,-7.351 -21.842,-19.221 -25.646,-33.424 -3.805,-14.201 -1.853,-29.035 5.499,-41.769 7.351,-12.732 19.221,-21.841 33.424,-25.646 14.201,-3.806 29.034,-1.853 41.769,5.499 12.732,7.351 21.841,19.221 25.646,33.424 3.805,14.202 1.853,29.035 -5.499,41.769 -7.351,12.733 -19.221,21.842 -33.424,25.646 -4.742,1.27 -9.557,1.899 -14.337,1.899 z"
       id="path7-3" />
    <path
       style="background-color:#ffffff00;fill:#eda74a;fill-opacity:1"
       d="m 256.001,137.021 c -30.352,0 -55.044,-24.693 -55.044,-55.044 0,-30.351 24.693,-55.044 55.044,-55.044 30.351,0 55.044,24.693 55.044,55.044 0,30.351 -24.693,55.044 -55.044,55.044 z"
       id="path5-4" />
    <path
       style="background-color:#ffffff00;fill:#53acb1;fill-opacity:1"
       d="m 55.158,485.07 c -4.781,0 -9.594,-0.629 -14.336,-1.9 C 26.619,479.365 14.75,470.256 7.398,457.524 0.046,444.792 -1.906,429.957 1.899,415.755 c 3.805,-14.203 12.914,-26.072 25.646,-33.424 12.731,-7.352 27.567,-9.304 41.769,-5.499 14.203,3.805 26.072,12.914 33.424,25.646 7.352,12.732 9.304,27.567 5.499,41.769 -3.805,14.203 -12.914,26.072 -25.646,33.424 -8.481,4.897 -17.896,7.399 -27.433,7.399 z"
       id="path6-7" />
    <path
       style="fill:#f74d37"
       d="m 256.001,384.379 c -38.81,0 -70.384,-31.575 -70.384,-70.384 0,-38.809 31.575,-70.384 70.384,-70.384 38.809,0 70.384,31.575 70.384,70.384 0,38.809 -31.575,70.384 -70.384,70.384 z"
       id="path4-9" />
  </g>
</svg>
