<?xml version="1.0" encoding="UTF-8" standalone="no"?>
<svg
   width="100%"
   height="100%"
   viewBox="0 0 818 460"
   style="background-color: #ffffff00"
   version="1.1"
   id="svg60"
   sodipodi:docname="ethers-noproducts.svg"
   inkscape:version="1.4.2 (ebf0e940, 2025-05-08)"
   xmlns:inkscape="http://www.inkscape.org/namespaces/inkscape"
   xmlns:sodipodi="http://sodipodi.sourceforge.net/DTD/sodipodi-0.dtd"
   xmlns="http://www.w3.org/2000/svg"
   xmlns:svg="http://www.w3.org/2000/svg">
  <path
     stroke="#ffffff"
     stroke-width="1"
     fill="none"
     transform="matrix(0.05 0 0 0.05 -10 -11)"
     d="M 9295,4819.1 C 9295,4819.1 9295,3702.7 9295,3702.7 C 9295,3702.7 7477.9,3702.7 7477.9,3702.7 C 7477.9,3702.7 7477.9,4819.1 7477.9,4819.1 C 7477.9,4819.1 9295,4819.1 9295,4819.1 "
     id="path2" />
  <path
     stroke="#ffffff"
     stroke-width="1"
     fill="none"
     transform="matrix(0.05 0 0 0.05 -10 -11)"
     d="M 8265.4,6220.5 C 8265.4,6220.5 8265.4,5447.3 8265.4,5447.3 C 8265.4,5447.3 7592.3,5447.3 7592.3,5447.3 C 7592.3,5447.3 7592.3,6220.5 7592.3,6220.5 C 7592.3,6220.5 8265.4,6220.5 8265.4,6220.5 "
     id="path4" />
  <path
     stroke="#000000"
     stroke-width="22"
     fill="none"
     transform="matrix(0.05 0 0 0.05 -10 -11)"
     d="M 16494.7,9367.47 C 16494.7,9367.47 16494.7,284.602 16494.7,284.602 C 16494.7,284.602 268.683,284.602 268.683,284.602 C 268.683,284.602 268.683,9367.47 268.683,9367.47 C 268.683,9367.47 16494.7,9367.47 16494.7,9367.47 "
     id="path11" />
  <text
     x="0"
     y="0"
     stroke="none"
     fill="#000000"
     transform="matrix(0.05 0 0 0.05 11.735 21.13)"
     font-style="normal"
     font-weight="bold"
     font-size="320px"
     font-family="Helvetica"
     id="text11">
Ethers - Reactions</text>
  <text
     x="0"
     y="0"
     stroke="none"
     fill="#999999"
     transform="matrix(0.05 0 0 0.05 11.9381 39.085)"
     font-style="normal"
     font-weight="normal"
     font-size="320px"
     font-family="Helvetica"
     id="text14">
click for more</text>
  <g
     id="goback"
     onclick="window.location.href = 'index.svg'"
     onmouseover="document.getElementById('goback-box').setAttribute('opacity','0.5');"
     onmouseout="document.getElementById('goback-box').setAttribute('opacity','1')">
    <path
       stroke="none"
       fill="#999999"
       transform="matrix(0.05 0 0 0.05 -10 -11)"
       d="M 395.9,1492.34 C 395.9,1492.34 395.9,1302.37 395.9,1302.37 C 395.9,1228.92 455.513,1169.31 528.955,1169.31 C 528.955,1169.31 1775.84,1169.31 1775.84,1169.31 C 1849.29,1169.31 1908.9,1228.92 1908.9,1302.37 C 1908.9,1302.37 1908.9,1492.34 1908.9,1492.34 C 1908.9,1565.79 1849.29,1625.4 1775.84,1625.4 C 1775.84,1625.4 528.955,1625.4 528.955,1625.4 C 455.513,1625.4 395.9,1565.79 395.9,1492.34 "
       id="goback-box" />
    <text
       x="0"
       y="0"
       stroke="none"
       fill="#000000"
       transform="matrix(0.05 0 0 0.05 29.3796 61.765)"
       font-style="normal"
       font-weight="bold"
       font-size="200px"
       font-family="Helvetica"
       id="gobacktext">
go home</text>
    <path
       stroke="#999999"
       stroke-width="1"
       transform="matrix(0.05 0 0 0.05 -10 -11)"
       d="M 395.9,1492.34 C 395.9,1492.34 395.9,1302.37 395.9,1302.37 C 395.9,1228.92 455.513,1169.31 528.955,1169.31 C 528.955,1169.31 1775.84,1169.31 1775.84,1169.31 C 1849.29,1169.31 1908.9,1228.92 1908.9,1302.37 C 1908.9,1302.37 1908.9,1492.34 1908.9,1492.34 C 1908.9,1565.79 1849.29,1625.4 1775.84,1625.4 C 1775.84,1625.4 528.955,1625.4 528.955,1625.4 C 455.513,1625.4 395.9,1565.79 395.9,1492.34 "
       onclick="history.back()"
       style="opacity:0"
       id="goback-link" />
  </g>
  <g
     id="howtomake"
     onclick="window.location.href = 'toethers.svg'"
     onmouseover="document.getElementById('howtomake-box').setAttribute('opacity','0.5');"
     onmouseout="document.getElementById('howtomake-box').setAttribute('opacity','1')">
    <path
       stroke="none"
       fill="#999999"
       transform="matrix(0.05 0 0 0.05 -10 -11)"
       d="M 381.591,2007.46 C 381.591,2007.46 381.591,1817.48 381.591,1817.48 C 381.591,1744.04 441.204,1684.42 514.647,1684.42 C 514.647,1684.42 1761.54,1684.42 1761.54,1684.42 C 1834.98,1684.42 1894.59,1744.04 1894.59,1817.48 C 1894.59,1817.48 1894.59,2007.46 1894.59,2007.46 C 1894.59,2080.9 1834.98,2140.51 1761.54,2140.51 C 1761.54,2140.51 514.647,2140.51 514.647,2140.51 C 441.204,2140.51 381.591,2080.9 381.591,2007.46 "
       id="howtomake-box" />
    <text
       x="0"
       y="0"
       stroke="none"
       fill="#000000"
       transform="matrix(0.05 0 0 0.05 17.275 87.5206)"
       font-style="normal"
       font-weight="bold"
       font-size="200px"
       font-family="Helvetica"
       id="howtomaketext">
how to make</text>
    <path
       stroke="#999999"
       stroke-width="1"
       transform="matrix(0.05 0 0 0.05 -10 -11)"
       d="M 381.591,2007.46 C 381.591,2007.46 381.591,1817.48 381.591,1817.48 C 381.591,1744.04 441.204,1684.42 514.647,1684.42 C 514.647,1684.42 1761.54,1684.42 1761.54,1684.42 C 1834.98,1684.42 1894.59,1744.04 1894.59,1817.48 C 1894.59,1817.48 1894.59,2007.46 1894.59,2007.46 C 1894.59,2080.9 1834.98,2140.51 1761.54,2140.51 C 1761.54,2140.51 514.647,2140.51 514.647,2140.51 C 441.204,2140.51 381.591,2080.9 381.591,2007.46 "
       style="opacity:0"
       id="howtomake-link" />
  </g>
  <text
     x="0"
     y="0"
     stroke="none"
     fill="#0000ff"
     transform="matrix(0.05 0 0 0.05 340.243 124.586)"
     font-style="normal"
     font-weight="bold"
     font-size="280px"
     font-family="Helvetica"
     id="text19">
ethers</text>
  <path
     stroke="none"
     fill="#000000"
     transform="matrix(0.05 0 0 0.05 -10 -11)"
     d="M 8295.49,3582.16 L 8295.49,3097.7 L 8317.49,3097.7 L 8317.49,3582.16 Z "
     id="path22" />
  <path
     stroke="none"
     fill="#000000"
     transform="matrix(0.05 0 0 0.05 -10 -11)"
     d="M 8306.49,3775.2 C 8306.49,3775.2 8249.05,3553.44 8249.05,3553.44 C 8249.05,3553.44 8281.36,3581.16 8306.49,3581.16 C 8331.18,3581.16 8362.93,3553.44 8362.93,3553.44 C 8362.93,3553.44 8306.49,3775.2 8306.49,3775.2 C 8306.49,3775.2 8306.49,3775.2 8306.49,3775.2 "
     id="path23" />
  <path
     stroke="#000000"
     stroke-width="1"
     fill="none"
     transform="matrix(0.05 0 0 0.05 -10 -11)"
     d="M 8306.49,3775.2 C 8306.49,3775.2 8249.05,3553.44 8249.05,3553.44 C 8249.05,3553.44 8281.36,3581.16 8306.49,3581.16 C 8331.18,3581.16 8362.93,3553.44 8362.93,3553.44 C 8362.93,3553.44 8306.49,3775.2 8306.49,3775.2 C 8306.49,3775.2 8306.49,3775.2 8306.49,3775.2 "
     id="path24" />
  <path
     stroke="none"
     fill="#000000"
     transform="matrix(0.05 0 0 0.05 -10 -11)"
     d="M 8032.46,2334.91 L 8043.55,2315.71 L 8297.4,2462.79 L 8297.4,2475.07 L 8287.01,2481.37 L 8032.46,2334.91 Z "
     id="path25" />
  <path
     stroke="none"
     fill="#000000"
     transform="matrix(0.05 0 0 0.05 -10 -11)"
     d="M 8307.79,2481.37 L 8297.4,2475.07 L 8297.4,2462.79 L 8551.25,2315.71 L 8562.34,2334.91 L 8307.79,2481.37 Z "
     id="path26" />
  <text
     x="0"
     y="0"
     stroke="none"
     fill="#000000"
     transform="matrix(0.05 0 0 0.05 401.37 130.968)"
     font-style="normal"
     font-weight="bold"
     font-size="180px"
     font-family="Helvetica"
     id="text26">
O</text>
  <path
     stroke="none"
     fill="#000000"
     transform="matrix(0.05 0 0 0.05 -10 -11)"
     d="M 8287.01,2481.37 L 8297.4,2475.07 L 8307.79,2481.37 L 8308.49,2676.59 L 8286.31,2676.59 L 8287.01,2481.37 Z "
     id="path27" />
  <text
     x="0"
     y="0"
     stroke="none"
     fill="#000000"
     transform="matrix(0.05 0 0 0.05 389 166.229)"
     font-style="normal"
     font-weight="bold"
     font-size="200px"
     font-family="Helvetica"
     id="text27">
HI</text>
  <path
     stroke="none"
     fill="#000000"
     transform="matrix(0.05 0 0 0.05 -10 -11)"
     d="M 8376.74,2833.2 L 8387.83,2813.99 L 8556.53,2912.19 L 8556.58,2937.87 L 8376.74,2833.2 Z "
     id="path28" />
  <path
     stroke="none"
     fill="#000000"
     transform="matrix(0.05 0 0 0.05 -10 -11)"
     d="M 8556.58,2937.87 L 8556.53,2912.19 L 8810.64,2764.99 L 8821.73,2784.19 L 8556.58,2937.87 Z "
     id="path29" />
  <path
     stroke="none"
     fill="#107f01"
     transform="matrix(0.05 0 0 0.05 -10 -11)"
     d="M 8103.96,3979.41 L 8115.05,3960.2 L 8368.9,4107.29 L 8368.9,4119.57 L 8358.51,4125.87 L 8103.96,3979.41 Z "
     id="path35" />
  <path
     stroke="none"
     fill="#107f01"
     transform="matrix(0.05 0 0 0.05 -10 -11)"
     d="M 8379.29,4125.87 L 8368.9,4119.57 L 8368.9,4107.29 L 8622.75,3960.2 L 8633.84,3979.41 L 8379.29,4125.87 Z "
     id="path36" />
  <text
     x="0"
     y="0"
     stroke="none"
     fill="#107f01"
     transform="matrix(0.05 0 0 0.05 404.945 213.193)"
     font-style="normal"
     font-weight="bold"
     font-size="180px"
     font-family="Helvetica"
     id="text36">
O</text>
  <path
     stroke="none"
     fill="#107f01"
     transform="matrix(0.05 0 0 0.05 -10 -11)"
     d="M 8358.51,4125.87 L 8368.9,4119.57 L 8379.29,4125.87 L 8379.99,4321.09 L 8357.81,4321.09 L 8358.51,4125.87 Z "
     id="path37" />
  <path
     stroke="none"
     fill="#000000"
     transform="matrix(0.05 0 0 0.05 -10 -11)"
     d="M 8448.24,4477.7 L 8459.33,4458.49 L 8628.03,4556.69 L 8628.08,4582.37 L 8448.24,4477.7 Z "
     id="path38" />
  <path
     stroke="none"
     fill="#000000"
     transform="matrix(0.05 0 0 0.05 -10 -11)"
     d="M 8628.08,4582.37 L 8628.03,4556.69 L 8882.14,4409.49 L 8893.23,4428.69 L 8628.08,4582.37 Z "
     id="path39" />
  <path
     stroke="#000000"
     stroke-width="22"
     fill="none"
     transform="matrix(0.05 0 0 0.05 -10 -11)"
     d="M 9114.79,4762.22 A 972.4,972.4 0 0 0 9131.76,3789.97"
     id="path40" />
  <path
     stroke="#000000"
     stroke-width="22"
     fill="none"
     transform="matrix(0.05 0 0 0.05 -10 -11)"
     d="M 7707.7,3775.2 A 972.4,972.4 0 0 0 7707.7,4747.6"
     id="path41" />
  <text
     x="0"
     y="0"
     stroke="none"
     fill="#107f01"
     transform="matrix(0.05 0 0 0.05 392.226 220.681)"
     font-style="normal"
     font-weight="bold"
     font-size="180px"
     font-family="Helvetica"
     id="text41">
H</text>
  <path
     stroke="none"
     fill="#107f01"
     transform="matrix(0.05 0 0 0.05 -10 -11)"
     d="M 8279.03,4458.17 L 8290.12,4477.38 L 8208.69,4524.39 L 8197.61,4505.18 L 8279.03,4458.17 Z "
     id="path42" />
  <path
     stroke="#107f01"
     stroke-width="18"
     fill="none"
     transform="matrix(0.05 0 0 0.05 -10 -11)"
     d="M 8301,4605.52 A 68.8704,68.8704 0 1 0 8438.74,4605.52A 68.8704,68.8704 0 1 0 8301,4605.52Z "
     id="path43" />
  <path
     stroke="none"
     fill="#107f01"
     transform="matrix(0.05 0 0 0.05 -10 -11)"
     d="M 8328.78,4596.52 L 8410.95,4596.52 L 8410.95,4614.52 L 8328.78,4614.52 Z "
     id="path44" />
  <path
     stroke="none"
     fill="#107f01"
     transform="matrix(0.05 0 0 0.05 -10 -11)"
     d="M 8378.87,4564.43 L 8378.87,4646.6 L 8360.87,4646.6 L 8360.87,4564.43 Z "
     id="path45" />
  <path
     stroke="none"
     fill="#000000"
     transform="matrix(0.05 0 0 0.05 -10 -11)"
     d="M 8324.09,5312.46 L 8324.09,4828 L 8346.09,4828 L 8346.09,5312.46 Z "
     id="path46" />
  <path
     stroke="none"
     fill="#000000"
     transform="matrix(0.05 0 0 0.05 -10 -11)"
     d="M 8335.09,5505.5 C 8335.09,5505.5 8277.65,5283.74 8277.65,5283.74 C 8277.65,5283.74 8309.96,5311.46 8335.09,5311.46 C 8359.78,5311.46 8391.53,5283.74 8391.53,5283.74 C 8391.53,5283.74 8335.09,5505.5 8335.09,5505.5 C 8335.09,5505.5 8335.09,5505.5 8335.09,5505.5 "
     id="path47" />
  <path
     stroke="#000000"
     stroke-width="1"
     fill="none"
     transform="matrix(0.05 0 0 0.05 -10 -11)"
     d="M 8335.09,5505.5 C 8335.09,5505.5 8277.65,5283.74 8277.65,5283.74 C 8277.65,5283.74 8309.96,5311.46 8335.09,5311.46 C 8359.78,5311.46 8391.53,5283.74 8391.53,5283.74 C 8391.53,5283.74 8335.09,5505.5 8335.09,5505.5 C 8335.09,5505.5 8335.09,5505.5 8335.09,5505.5 "
     id="path48" />
  <path
     stroke="none"
     fill="#000000"
     transform="matrix(0.05 0 0 0.05 -10 -11)"
     d="M 8338.39,6799.66 L 8338.39,6315.2 L 8360.39,6315.2 L 8360.39,6799.66 Z "
     id="path49" />
  <path
     stroke="none"
     fill="#000000"
     transform="matrix(0.05 0 0 0.05 -10 -11)"
     d="M 8349.39,6992.7 C 8349.39,6992.7 8291.95,6770.94 8291.95,6770.94 C 8291.95,6770.94 8324.26,6798.66 8349.39,6798.66 C 8374.08,6798.66 8405.83,6770.94 8405.83,6770.94 C 8405.83,6770.94 8349.39,6992.7 8349.39,6992.7 C 8349.39,6992.7 8349.39,6992.7 8349.39,6992.7 "
     id="path50" />
  <path
     stroke="#000000"
     stroke-width="1"
     fill="none"
     transform="matrix(0.05 0 0 0.05 -10 -11)"
     d="M 8349.39,6992.7 C 8349.39,6992.7 8291.95,6770.94 8291.95,6770.94 C 8291.95,6770.94 8324.26,6798.66 8349.39,6798.66 C 8374.08,6798.66 8405.83,6770.94 8405.83,6770.94 C 8405.83,6770.94 8349.39,6992.7 8349.39,6992.7 C 8349.39,6992.7 8349.39,6992.7 8349.39,6992.7 "
     id="path51" />
  <text
     x="0"
     y="0"
     stroke="none"
     fill="#000000"
     transform="matrix(0.05 0 0 0.05 413.28 316.47)"
     font-style="italic"
     font-weight="normal"
     font-size="160px"
     font-family="Helvetica Oblique"
     id="text56">
some textbooks</text>
  <text
     x="0"
     y="0"
     stroke="none"
     fill="#000000"
     transform="matrix(0.05 0 0 0.05 413.28 324.828)"
     font-style="italic"
     font-weight="normal"
     font-size="160px"
     font-family="Helvetica Oblique"
     id="text58">
repeat the reaction</text>
  <path
     stroke="none"
     fill="#ffffff"
     opacity="0"
     onclick="window.location.href = 'ethers.svg'"
     transform="matrix(0.05 0 0 0.05 -10 -11)"
     d="M 9295,4819.1 C 9295,4819.1 9295,3702.7 9295,3702.7 C 9295,3702.7 7477.9,3702.7 7477.9,3702.7 C 7477.9,3702.7 7477.9,4819.1 7477.9,4819.1 C 7477.9,4819.1 9295,4819.1 9295,4819.1 "
     id="path1"
     inkscape:label="l-ethers" />
  <path
     stroke="none"
     fill="#ffffff"
     opacity="0"
     onclick="window.location.href = 'alcohols.svg'"
     transform="matrix(0.05 0 0 0.05 -10 -11)"
     d="M 8265.4,6220.5 C 8265.4,6220.5 8265.4,5447.3 8265.4,5447.3 C 8265.4,5447.3 7592.3,5447.3 7592.3,5447.3 C 7592.3,5447.3 7592.3,6220.5 7592.3,6220.5 C 7592.3,6220.5 8265.4,6220.5 8265.4,6220.5 "
     id="path3"
     inkscape:label="l-alcohols" />
  <path
     stroke="none"
     fill="#ffffff"
     opacity="0"
     onclick="window.location.href = 'toethers.svg'"
     d="m 438.49011,142.29631 c 0,0 0,-42.25587 0,-42.25587 0,0 -113.03657,0 -113.03657,0 0,0 0,42.25587 0,42.25587 0,0 113.03657,0 113.03657,0"
     id="path7-6"
     inkscape:label="l-toethers"
     style="opacity:0;stroke-width:0.0668416" />
  <path
     stroke="none"
     fill="#ffffff"
     opacity="0"
     onclick="window.location.href = 'supplement.svg'"
     d="m 401.94268,172.48168 c 0,0 0,-21.92655 0,-21.92655 0,0 -19.20893,0 -19.20893,0 0,0 0,21.92655 0,21.92655 0,0 19.20893,0 19.20893,0"
     id="path7-6-1"
     inkscape:label="l-supplement"
     style="opacity:0;stroke-width:0.0198486" />
  <g
     id="noreagents"
     onclick="window.location.href = 'ethers-noreagents.svg'"
     transform="translate(-4.6856272,378.9067)">
    <text
       x="11.200497"
       y="54.141506"
       stroke="none"
       fill="#000000"
       font-style="normal"
       font-weight="bold"
       font-size="200px"
       font-family="Helvetica"
       id="gobacktext-7"
       style="font-style:normal;font-weight:bold;font-size:10px;font-family:Helvetica;fill:#000000;fill-opacity:0.443609;stroke:none;stroke-width:0.05"
       inkscape:label="noreagents-text"><tspan
         sodipodi:role="line"
         id="tspan2"
         x="11.200497"
         y="54.141506"
         style="font-style:normal;font-variant:normal;font-weight:bold;font-stretch:normal;font-size:8px;font-family:Helvetica;-inkscape-font-specification:'Helvetica, Bold';font-variant-ligatures:normal;font-variant-caps:normal;font-variant-numeric:normal;font-variant-east-asian:normal;fill:#000000;fill-opacity:0.5;stroke-width:0.05">reagents</tspan></text>
    <rect
       style="fill:#000000;fill-opacity:0.821053;fill-rule:evenodd;stroke:#a13033;stroke-width:0;stroke-linecap:round;stroke-miterlimit:2;stroke-dasharray:none;paint-order:markers fill stroke"
       id="rect3"
       width="31.666824"
       height="0.9773711"
       x="12.224979"
       y="51.518982"
       inkscape:label="noreagents-line" />
    <path
       stroke="none"
       fill="#999999"
       d="m 9.795,54.694678 c 0,0 0,-5.427567 0,-5.427567 0,-2.098514 1.463398,-3.801611 3.266274,-3.801611 0,0 30.608907,0 30.608907,0 1.803073,0 3.266397,1.703097 3.266397,3.801611 0,0 0,5.427567 0,5.427567 0,2.098514 -1.463324,3.801611 -3.266397,3.801611 0,0 -30.608907,0 -30.608907,0 -1.802876,0 -3.266274,-1.703097 -3.266274,-3.801611"
       id="goback-box-8"
       style="fill:#999999;fill-opacity:0.336842;stroke-width:0.0264832"
       inkscape:label="noreagents-box" />
  </g>
  <g
     id="nonames"
     onclick="window.location.href = 'ethers.svg'"
     transform="matrix(0.85780308,0,0,1,-3.2442635,382.9067)">
    <text
       x="18.441887"
       y="69.010506"
       stroke="none"
       fill="#000000"
       font-style="normal"
       font-weight="bold"
       font-size="200px"
       font-family="Helvetica"
       id="gobacktext-7-8"
       style="font-style:normal;font-variant:normal;font-weight:bold;font-stretch:normal;font-size:10px;font-family:Helvetica;-inkscape-font-specification:'Helvetica, Bold';font-variant-ligatures:normal;font-variant-caps:normal;font-variant-numeric:normal;font-variant-east-asian:normal;fill:#0088d0;fill-opacity:0.675806;stroke:none;stroke-width:0.05"
       inkscape:label="noproducts-text"><tspan
         sodipodi:role="line"
         id="tspan1"
         x="18.441887"
         y="69.010506">show</tspan></text>
    <path
       stroke="none"
       fill="#999999"
       d="m 10.136392,68.163695 c 0,0 0,-5.427567 0,-5.427567 0,-2.098514 1.679048,-3.801611 3.747601,-3.801611 0,0 35.119514,0 35.119514,0 2.068778,0 3.747742,1.703097 3.747742,3.801611 0,0 0,5.427567 0,5.427567 0,2.098514 -1.678964,3.801611 -3.747742,3.801611 0,0 -35.119514,0 -35.119514,0 -2.068553,0 -3.747601,-1.703097 -3.747601,-3.801611"
       id="goback-box-8-6"
       style="fill:#999999;fill-opacity:0.336842;stroke-width:0.0283675"
       inkscape:label="noproducts-box" />
  </g>
  <text
     x="822.84332"
     y="415.79849"
     stroke="none"
     fill="#000000"
     transform="matrix(0.92407999,-0.00322566,0.00377741,1.0821442,0,0)"
     font-style="italic"
     font-weight="bold"
     font-size="8.25806px"
     font-family="'Helvetica Oblique'"
     id="text1"
     style="opacity:1;fill:#00009a;fill-opacity:0.651128;stroke-width:0.0412903">chemisfun</text>
  <g
     id="overlay-box"
     style="opacity:0"
     transform="matrix(0.31364504,0,0,0.8007311,650.50736,385.81436)">
    <rect
       style="fill:#609975;fill-opacity:0.2;stroke:#609970;stroke-width:0;stroke-linecap:round;stroke-opacity:0.657143;paint-order:fill markers stroke"
       id="rect285"
       width="164.84744"
       height="59.583412"
       x="329.69489"
       y="23.171328" />
  </g>
  <g
     id="overlay"
     onclick="window.location.href = 'about.svg'"
     onmouseover="this.ownerDocument.getElementById('overlay-box').style.opacity='0.5'"
     onmouseout="this.ownerDocument.getElementById('overlay-box').style.opacity='0'"
     transform="matrix(0.76550767,-0.0030054,0.00267214,0.86098131,195.61318,22.784653)">
    <rect
       style="opacity:0.5;fill:#ffffff;fill-opacity:0;stroke-linecap:round;stroke-opacity:0.657143;paint-order:stroke fill markers"
       id="rect2"
       width="65.93074"
       height="55.035408"
       x="733.06049"
       y="445.87061" />
  </g>
  <g
     id="g1"
     transform="matrix(0.0625,0,0,0.0625,764.65732,406.62566)">
    <rect
       x="239.31"
       y="120.321"
       style="fill:#444242"
       width="33.389"
       height="139.98"
       id="rect1" />
    <rect
       x="256"
       y="120.321"
       style="fill:#3a3839"
       width="16.695"
       height="139.98"
       id="rect2-2" />
    <rect
       x="132.194"
       y="305.86301"
       transform="matrix(0.5,0.866,-0.866,0.5,399.932,58.9793)"
       style="fill:#444242"
       width="33.387001"
       height="139.967"
       id="rect4" />
    <rect
       x="293.125"
       y="359.13"
       transform="matrix(0.866,0.5,-0.5,0.866,236.5654,-131.205)"
       style="fill:#3a3839"
       width="139.967"
       height="33.387001"
       id="rect5" />
    <path
       style="background-color:#ffffff00;fill:#439de2;fill-opacity:1"
       d="m 456.843,485.07 c -9.538,0 -18.951,-2.501 -27.432,-7.398 v 0 c -12.733,-7.351 -21.842,-19.221 -25.646,-33.424 -3.805,-14.201 -1.853,-29.035 5.499,-41.769 7.351,-12.732 19.221,-21.841 33.424,-25.646 14.201,-3.806 29.034,-1.853 41.769,5.499 12.732,7.351 21.841,19.221 25.646,33.424 3.805,14.202 1.853,29.035 -5.499,41.769 -7.351,12.733 -19.221,21.842 -33.424,25.646 -4.742,1.27 -9.557,1.899 -14.337,1.899 z"
       id="path7-3" />
    <path
       style="background-color:#ffffff00;fill:#eda74a;fill-opacity:1"
       d="m 256.001,137.021 c -30.352,0 -55.044,-24.693 -55.044,-55.044 0,-30.351 24.693,-55.044 55.044,-55.044 30.351,0 55.044,24.693 55.044,55.044 0,30.351 -24.693,55.044 -55.044,55.044 z"
       id="path5-4" />
    <path
       style="background-color:#ffffff00;fill:#53acb1;fill-opacity:1"
       d="m 55.158,485.07 c -4.781,0 -9.594,-0.629 -14.336,-1.9 C 26.619,479.365 14.75,470.256 7.398,457.524 0.046,444.792 -1.906,429.957 1.899,415.755 c 3.805,-14.203 12.914,-26.072 25.646,-33.424 12.731,-7.352 27.567,-9.304 41.769,-5.499 14.203,3.805 26.072,12.914 33.424,25.646 7.352,12.732 9.304,27.567 5.499,41.769 -3.805,14.203 -12.914,26.072 -25.646,33.424 -8.481,4.897 -17.896,7.399 -27.433,7.399 z"
       id="path6-7" />
    <path
       style="fill:#f74d37"
       d="m 256.001,384.379 c -38.81,0 -70.384,-31.575 -70.384,-70.384 0,-38.809 31.575,-70.384 70.384,-70.384 38.809,0 70.384,31.575 70.384,70.384 0,38.809 -31.575,70.384 -70.384,70.384 z"
       id="path4-9" />
  </g>
</svg>
