<?xml version="1.0" encoding="UTF-8" standalone="no"?>
<svg
   width="100%"
   height="100%"
   viewBox="0 0 818 460"
   style="background-color: #ffffff00"
   version="1.1"
   id="svg375"
   sodipodi:docname="halides-noproducts-o1.svg"
   inkscape:version="1.4.2 (ebf0e940, 2025-05-08)"
   xmlns:inkscape="http://www.inkscape.org/namespaces/inkscape"
   xmlns:sodipodi="http://sodipodi.sourceforge.net/DTD/sodipodi-0.dtd"
   xmlns="http://www.w3.org/2000/svg"
   xmlns:svg="http://www.w3.org/2000/svg">
  <path
     stroke="#ffffff"
     stroke-width="1"
     fill="none"
     transform="matrix(0.05 0 0 0.05 -10 -11)"
     d="M 3174.6,3374.8 C 3174.6,3374.8 3174.6,2329.9 3174.6,2329.9 C 3174.6,2329.9 2315.6,2329.9 2315.6,2329.9 C 2315.6,2329.9 2315.6,3374.8 2315.6,3374.8 C 2315.6,3374.8 3174.6,3374.8 3174.6,3374.8 "
     id="path2" />
  <path
     stroke="#ffffff"
     stroke-width="1"
     fill="none"
     transform="matrix(0.05 0 0 0.05 -10 -11)"
     d="M 4618.9,3346.2 C 4618.9,3346.2 4618.9,2301.3 4618.9,2301.3 C 4618.9,2301.3 3659.8,2301.3 3659.8,2301.3 C 3659.8,2301.3 3659.8,3346.2 3659.8,3346.2 C 3659.8,3346.2 4618.9,3346.2 4618.9,3346.2 "
     id="path4" />
  <path
     stroke="#ffffff"
     stroke-width="1"
     fill="none"
     transform="matrix(0.05 0 0 0.05 -10 -11)"
     d="M 2717,7965.1 C 2717,7965.1 2717,6791.5 2717,6791.5 C 2717,6791.5 1572,6791.5 1572,6791.5 C 1572,6791.5 1572,7965.1 1572,7965.1 C 1572,7965.1 2717,7965.1 2717,7965.1 "
     id="path22" />
  <path
     stroke="#ffffff"
     stroke-width="1"
     fill="none"
     transform="matrix(0.05 0 0 0.05 -10 -11)"
     d="M 4032.6,7493.2 C 4032.6,7493.2 4032.6,6820.1 4032.6,6820.1 C 4032.6,6820.1 3316.6,6820.1 3316.6,6820.1 C 3316.6,6820.1 3316.6,7493.2 3316.6,7493.2 C 3316.6,7493.2 4032.6,7493.2 4032.6,7493.2 "
     id="path24" />
  <path
     stroke="#ffffff"
     stroke-width="1"
     fill="none"
     transform="matrix(0.05 0 0 0.05 -10 -11)"
     d="M 6864,7764.9 C 6864,7764.9 6864,6864 6864,6864 C 6864,6864 6162.3,6864 6162.3,6864 C 6162.3,6864 6162.3,7764.9 6162.3,7764.9 C 6162.3,7764.9 6864,7764.9 6864,7764.9 "
     id="path26" />
  <path
     stroke="#ffffff"
     stroke-width="1"
     fill="none"
     transform="matrix(0.05 0 0 0.05 -10 -11)"
     d="M 11425.7,8966.1 C 11425.7,8966.1 11425.7,8235.8 11425.7,8235.8 C 11425.7,8235.8 9794.5,8235.8 9794.5,8235.8 C 9794.5,8235.8 9794.5,8966.1 9794.5,8966.1 C 9794.5,8966.1 11425.7,8966.1 11425.7,8966.1 "
     id="path42" />
  <path
     stroke="#ffffff"
     stroke-width="1"
     fill="none"
     transform="matrix(0.05 0 0 0.05 -10 -11)"
     d="M 5491.2,8093.8 C 5491.2,8093.8 5491.2,6820.1 5491.2,6820.1 C 5491.2,6820.1 4274.7,6820.1 4274.7,6820.1 C 4274.7,6820.1 4274.7,8093.8 4274.7,8093.8 C 4274.7,8093.8 5491.2,8093.8 5491.2,8093.8 "
     id="path44" />
  <path
     stroke="#000000"
     stroke-width="22"
     fill="none"
     transform="matrix(0.05 0 0 0.05 -10 -11)"
     d="M 16494.7,9367.47 C 16494.7,9367.47 16494.7,284.602 16494.7,284.602 C 16494.7,284.602 268.683,284.602 268.683,284.602 C 268.683,284.602 268.683,9367.47 268.683,9367.47 C 268.683,9367.47 16494.7,9367.47 16494.7,9367.47 "
     id="path47" />
  <text
     x="0"
     y="0"
     stroke="none"
     fill="#000000"
     transform="matrix(0.05 0 0 0.05 11.735 21.13)"
     font-style="normal"
     font-weight="bold"
     font-size="320px"
     font-family="Helvetica"
     id="text47">
Halides - Reactions</text>
  <text
     x="0"
     y="0"
     stroke="none"
     fill="#999999"
     transform="matrix(0.05 0 0 0.05 11.9381 39.085)"
     font-style="normal"
     font-weight="normal"
     font-size="320px"
     font-family="Helvetica"
     id="text50">
click for more</text>
  <g
     id="goback"
     onclick="window.location.href = 'index-o1.svg'"
     onmouseover="document.getElementById('goback-box').setAttribute('opacity','0.5');"
     onmouseout="document.getElementById('goback-box').setAttribute('opacity','1')">
    <path
       stroke="none"
       fill="#999999"
       transform="matrix(0.05 0 0 0.05 -10 -11)"
       d="M 395.9,1492.34 C 395.9,1492.34 395.9,1302.37 395.9,1302.37 C 395.9,1228.92 455.513,1169.31 528.955,1169.31 C 528.955,1169.31 1775.84,1169.31 1775.84,1169.31 C 1849.29,1169.31 1908.9,1228.92 1908.9,1302.37 C 1908.9,1302.37 1908.9,1492.34 1908.9,1492.34 C 1908.9,1565.79 1849.29,1625.4 1775.84,1625.4 C 1775.84,1625.4 528.955,1625.4 528.955,1625.4 C 455.513,1625.4 395.9,1565.79 395.9,1492.34 "
       id="goback-box" />
    <text
       x="0"
       y="0"
       stroke="none"
       fill="#000000"
       transform="matrix(0.05 0 0 0.05 29.3796 61.765)"
       font-style="normal"
       font-weight="bold"
       font-size="200px"
       font-family="Helvetica"
       id="gobacktext">
go home</text>
    <path
       stroke="#999999"
       stroke-width="1"
       transform="matrix(0.05 0 0 0.05 -10 -11)"
       d="M 395.9,1492.34 C 395.9,1492.34 395.9,1302.37 395.9,1302.37 C 395.9,1228.92 455.513,1169.31 528.955,1169.31 C 528.955,1169.31 1775.84,1169.31 1775.84,1169.31 C 1849.29,1169.31 1908.9,1228.92 1908.9,1302.37 C 1908.9,1302.37 1908.9,1492.34 1908.9,1492.34 C 1908.9,1565.79 1849.29,1625.4 1775.84,1625.4 C 1775.84,1625.4 528.955,1625.4 528.955,1625.4 C 455.513,1625.4 395.9,1565.79 395.9,1492.34 "
       onclick="history.back()"
       style="opacity:0"
       id="goback-link" />
  </g>
  <g
     id="howtomake"
     onclick="window.location.href = 'tohalides-o1.svg'"
     onmouseover="document.getElementById('howtomake-box').setAttribute('opacity','0.5');"
     onmouseout="document.getElementById('howtomake-box').setAttribute('opacity','1')">
    <path
       stroke="none"
       fill="#999999"
       transform="matrix(0.05 0 0 0.05 -10 -11)"
       d="M 381.591,2007.46 C 381.591,2007.46 381.591,1817.48 381.591,1817.48 C 381.591,1744.04 441.204,1684.42 514.647,1684.42 C 514.647,1684.42 1761.54,1684.42 1761.54,1684.42 C 1834.98,1684.42 1894.59,1744.04 1894.59,1817.48 C 1894.59,1817.48 1894.59,2007.46 1894.59,2007.46 C 1894.59,2080.9 1834.98,2140.51 1761.54,2140.51 C 1761.54,2140.51 514.647,2140.51 514.647,2140.51 C 441.204,2140.51 381.591,2080.9 381.591,2007.46 "
       id="howtomake-box" />
    <text
       x="0"
       y="0"
       stroke="none"
       fill="#000000"
       transform="matrix(0.05 0 0 0.05 17.275 87.5206)"
       font-style="normal"
       font-weight="bold"
       font-size="200px"
       font-family="Helvetica"
       id="howtomaketext">
how to make</text>
    <path
       stroke="#999999"
       stroke-width="1"
       transform="matrix(0.05 0 0 0.05 -10 -11)"
       d="M 381.591,2007.46 C 381.591,2007.46 381.591,1817.48 381.591,1817.48 C 381.591,1744.04 441.204,1684.42 514.647,1684.42 C 514.647,1684.42 1761.54,1684.42 1761.54,1684.42 C 1834.98,1684.42 1894.59,1744.04 1894.59,1817.48 C 1894.59,1817.48 1894.59,2007.46 1894.59,2007.46 C 1894.59,2080.9 1834.98,2140.51 1761.54,2140.51 C 1761.54,2140.51 514.647,2140.51 514.647,2140.51 C 441.204,2140.51 381.591,2080.9 381.591,2007.46 "
       style="opacity:0"
       id="howtomake-link" />
  </g>
  <path
     stroke="none"
     fill="#000000"
     transform="matrix(0.05 0 0 0.05 -10 -11)"
     d="M 843.441,6649.55 L 843.441,6283.15 L 865.441,6283.15 L 865.441,6649.55 Z "
     id="path54" />
  <path
     stroke="none"
     fill="#000000"
     transform="matrix(0.05 0 0 0.05 -10 -11)"
     d="M 854.441,6842.59 C 854.441,6842.59 797.001,6620.83 797.001,6620.83 C 797.001,6620.83 829.311,6648.55 854.441,6648.55 C 879.133,6648.55 910.881,6620.83 910.881,6620.83 C 910.881,6620.83 854.441,6842.59 854.441,6842.59 C 854.441,6842.59 854.441,6842.59 854.441,6842.59 "
     id="path55" />
  <path
     stroke="#000000"
     stroke-width="1"
     fill="none"
     transform="matrix(0.05 0 0 0.05 -10 -11)"
     d="M 854.441,6842.59 C 854.441,6842.59 797.001,6620.83 797.001,6620.83 C 797.001,6620.83 829.311,6648.55 854.441,6648.55 C 879.133,6648.55 910.881,6620.83 910.881,6620.83 C 910.881,6620.83 854.441,6842.59 854.441,6842.59 C 854.441,6842.59 854.441,6842.59 854.441,6842.59 "
     id="path56" />
  <path
     stroke="none"
     fill="#000000"
     transform="matrix(0.05 0 0 0.05 -10 -11)"
     d="M 10759.3,6294.15 L 854.441,6294.15 L 854.441,6272.15 L 10759.3,6272.15 Z "
     id="path57" />
  <path
     stroke="none"
     fill="#000000"
     transform="matrix(0.05 0 0 0.05 -10 -11)"
     d="M 2145.28,6663.85 L 2145.28,6297.45 L 2167.28,6297.45 L 2167.28,6663.85 Z "
     id="path58" />
  <path
     stroke="none"
     fill="#000000"
     transform="matrix(0.05 0 0 0.05 -10 -11)"
     d="M 2156.28,6856.89 C 2156.28,6856.89 2098.84,6635.13 2098.84,6635.13 C 2098.84,6635.13 2131.15,6662.85 2156.28,6662.85 C 2180.97,6662.85 2212.72,6635.13 2212.72,6635.13 C 2212.72,6635.13 2156.28,6856.89 2156.28,6856.89 C 2156.28,6856.89 2156.28,6856.89 2156.28,6856.89 "
     id="path59" />
  <path
     stroke="#000000"
     stroke-width="1"
     fill="none"
     transform="matrix(0.05 0 0 0.05 -10 -11)"
     d="M 2156.28,6856.89 C 2156.28,6856.89 2098.84,6635.13 2098.84,6635.13 C 2098.84,6635.13 2131.15,6662.85 2156.28,6662.85 C 2180.97,6662.85 2212.72,6635.13 2212.72,6635.13 C 2212.72,6635.13 2156.28,6856.89 2156.28,6856.89 C 2156.28,6856.89 2156.28,6856.89 2156.28,6856.89 "
     id="path60" />
  <path
     stroke="none"
     fill="#000000"
     transform="matrix(0.05 0 0 0.05 -10 -11)"
     d="M 3709.01,6662.87 L 3709.01,6296.47 L 3731.01,6296.47 L 3731.01,6662.87 Z "
     id="path61" />
  <path
     stroke="none"
     fill="#000000"
     transform="matrix(0.05 0 0 0.05 -10 -11)"
     d="M 3720.01,6855.91 C 3720.01,6855.91 3662.57,6634.15 3662.57,6634.15 C 3662.57,6634.15 3694.88,6661.87 3720.01,6661.87 C 3744.7,6661.87 3776.45,6634.15 3776.45,6634.15 C 3776.45,6634.15 3720.01,6855.91 3720.01,6855.91 C 3720.01,6855.91 3720.01,6855.91 3720.01,6855.91 "
     id="path62" />
  <path
     stroke="#000000"
     stroke-width="1"
     fill="none"
     transform="matrix(0.05 0 0 0.05 -10 -11)"
     d="M 3720.01,6855.91 C 3720.01,6855.91 3662.57,6634.15 3662.57,6634.15 C 3662.57,6634.15 3694.88,6661.87 3720.01,6661.87 C 3744.7,6661.87 3776.45,6634.15 3776.45,6634.15 C 3776.45,6634.15 3720.01,6855.91 3720.01,6855.91 C 3720.01,6855.91 3720.01,6855.91 3720.01,6855.91 "
     id="path63" />
  <path
     stroke="none"
     fill="#000000"
     transform="matrix(0.05 0 0 0.05 -10 -11)"
     d="M 5095.28,6662.87 L 5095.28,6296.47 L 5117.28,6296.47 L 5117.28,6662.87 Z "
     id="path64" />
  <path
     stroke="none"
     fill="#000000"
     transform="matrix(0.05 0 0 0.05 -10 -11)"
     d="M 5106.28,6855.91 C 5106.28,6855.91 5048.84,6634.15 5048.84,6634.15 C 5048.84,6634.15 5081.15,6661.87 5106.28,6661.87 C 5130.97,6661.87 5162.72,6634.15 5162.72,6634.15 C 5162.72,6634.15 5106.28,6855.91 5106.28,6855.91 C 5106.28,6855.91 5106.28,6855.91 5106.28,6855.91 "
     id="path65" />
  <path
     stroke="#000000"
     stroke-width="1"
     fill="none"
     transform="matrix(0.05 0 0 0.05 -10 -11)"
     d="M 5106.28,6855.91 C 5106.28,6855.91 5048.84,6634.15 5048.84,6634.15 C 5048.84,6634.15 5081.15,6661.87 5106.28,6661.87 C 5130.97,6661.87 5162.72,6634.15 5162.72,6634.15 C 5162.72,6634.15 5106.28,6855.91 5106.28,6855.91 C 5106.28,6855.91 5106.28,6855.91 5106.28,6855.91 "
     id="path66" />
  <path
     stroke="none"
     fill="#000000"
     transform="matrix(0.05 0 0 0.05 -10 -11)"
     d="M 5424.18,6296.47 L 5424.18,5856.91 L 5446.18,5856.91 L 5446.18,6296.47 Z "
     id="path67" />
  <path
     stroke="none"
     fill="#000000"
     transform="matrix(0.05 0 0 0.05 -10 -11)"
     d="M 4225.2,3610.74 L 4225.2,4369.23 L 4203.2,4369.23 L 4203.2,3610.74 Z "
     id="path71" />
  <path
     stroke="none"
     fill="#000000"
     transform="matrix(0.05 0 0 0.05 -10 -11)"
     d="M 4214.2,3417.7 C 4214.2,3417.7 4270.64,3639.46 4270.64,3639.46 C 4270.64,3639.46 4238.89,3611.74 4214.2,3611.74 C 4189.07,3611.74 4156.76,3639.46 4156.76,3639.46 C 4156.76,3639.46 4214.2,3417.7 4214.2,3417.7 C 4214.2,3417.7 4214.2,3417.7 4214.2,3417.7 "
     id="path72" />
  <path
     stroke="#000000"
     stroke-width="1"
     fill="none"
     transform="matrix(0.05 0 0 0.05 -10 -11)"
     d="M 4214.2,3417.7 C 4214.2,3417.7 4270.64,3639.46 4270.64,3639.46 C 4270.64,3639.46 4238.89,3611.74 4214.2,3611.74 C 4189.07,3611.74 4156.76,3639.46 4156.76,3639.46 C 4156.76,3639.46 4214.2,3417.7 4214.2,3417.7 C 4214.2,3417.7 4214.2,3417.7 4214.2,3417.7 "
     id="path73" />
  <path
     stroke="none"
     fill="#000000"
     transform="matrix(0.05 0 0 0.05 -10 -11)"
     d="M 5210.35,4380.23 L 2697.86,4380.23 L 2697.86,4358.23 L 5210.35,4358.23 Z "
     id="path74" />
  <path
     stroke="none"
     fill="#000000"
     transform="matrix(0.05 0 0 0.05 -10 -11)"
     d="M 2708.86,3639.34 L 2708.86,4369.23 L 2686.86,4369.23 L 2686.86,3639.34 Z "
     id="path75" />
  <path
     stroke="none"
     fill="#000000"
     transform="matrix(0.05 0 0 0.05 -10 -11)"
     d="M 2697.86,3446.3 C 2697.86,3446.3 2754.3,3668.06 2754.3,3668.06 C 2754.3,3668.06 2722.55,3640.34 2697.86,3640.34 C 2672.73,3640.34 2640.42,3668.06 2640.42,3668.06 C 2640.42,3668.06 2697.86,3446.3 2697.86,3446.3 C 2697.86,3446.3 2697.86,3446.3 2697.86,3446.3 "
     id="path76" />
  <path
     stroke="#000000"
     stroke-width="1"
     fill="none"
     transform="matrix(0.05 0 0 0.05 -10 -11)"
     d="M 2697.86,3446.3 C 2697.86,3446.3 2754.3,3668.06 2754.3,3668.06 C 2754.3,3668.06 2722.55,3640.34 2697.86,3640.34 C 2672.73,3640.34 2640.42,3668.06 2640.42,3668.06 C 2640.42,3668.06 2697.86,3446.3 2697.86,3446.3 C 2697.86,3446.3 2697.86,3446.3 2697.86,3446.3 "
     id="path77" />
  <path
     stroke="none"
     fill="#000000"
     transform="matrix(0.05 0 0 0.05 -10 -11)"
     d="M 5199.35,4808.8 L 5199.35,4369.23 L 5221.35,4369.23 L 5221.35,4808.8 Z "
     id="path80" />
  <text
     x="0"
     y="0"
     stroke="none"
     fill="#0000ff"
     transform="matrix(0.05 0 0 0.05 155.773 259.721)"
     font-style="normal"
     font-weight="bold"
     font-size="280px"
     font-family="Helvetica"
     id="text81">
alkyl </text>
  <text
     x="0"
     y="0"
     stroke="none"
     fill="#0000ff"
     transform="matrix(0.05 0 0 0.05 190.8 259.721)"
     font-style="normal"
     font-weight="bold"
     font-size="280px"
     font-family="Helvetica"
     id="text82">
halides</text>
  <path
     stroke="none"
     fill="#000000"
     transform="matrix(0.05 0 0 0.05 -10 -11)"
     d="M 6524.1,6703.95 L 6524.1,6283.15 L 6546.1,6283.15 L 6546.1,6703.95 Z "
     id="path82" />
  <path
     stroke="none"
     fill="#000000"
     transform="matrix(0.05 0 0 0.05 -10 -11)"
     d="M 6535.1,6896.99 C 6535.1,6896.99 6477.66,6675.23 6477.66,6675.23 C 6477.66,6675.23 6509.97,6702.95 6535.1,6702.95 C 6559.79,6702.95 6591.54,6675.23 6591.54,6675.23 C 6591.54,6675.23 6535.1,6896.99 6535.1,6896.99 C 6535.1,6896.99 6535.1,6896.99 6535.1,6896.99 "
     id="path83" />
  <path
     stroke="#000000"
     stroke-width="1"
     fill="none"
     transform="matrix(0.05 0 0 0.05 -10 -11)"
     d="M 6535.1,6896.99 C 6535.1,6896.99 6477.66,6675.23 6477.66,6675.23 C 6477.66,6675.23 6509.97,6702.95 6535.1,6702.95 C 6559.79,6702.95 6591.54,6675.23 6591.54,6675.23 C 6591.54,6675.23 6535.1,6896.99 6535.1,6896.99 C 6535.1,6896.99 6535.1,6896.99 6535.1,6896.99 "
     id="path84" />
  <path
     stroke="none"
     fill="#000000"
     transform="matrix(0.05 0 0 0.05 -10 -11)"
     d="M 11768.6,5336.05 L 5945.24,5336.05 L 5945.24,5314.05 L 11768.6,5314.05 Z "
     id="path93" />
  <path
     stroke="none"
     fill="#000000"
     transform="matrix(0.05 0 0 0.05 -10 -11)"
     d="M 11764,6935.5 L 11764,4125.59 L 11786,4125.59 L 11786,6935.5 Z "
     id="path94" />
  <path
     stroke="none"
     fill="#000000"
     transform="matrix(0.05 0 0 0.05 -10 -11)"
     d="M 13023.7,4136.59 L 11775,4136.59 L 11775,4114.59 L 13023.7,4114.59 Z "
     id="path95" />
  <path
     stroke="none"
     fill="#000000"
     transform="matrix(0.05 0 0 0.05 -10 -11)"
     d="M 13216.7,4125.59 C 13216.7,4125.59 12995,4182.03 12995,4182.03 C 12995,4182.03 13022.7,4150.28 13022.7,4125.59 C 13022.7,4100.46 12995,4068.15 12995,4068.15 C 12995,4068.15 13216.7,4125.59 13216.7,4125.59 C 13216.7,4125.59 13216.7,4125.59 13216.7,4125.59 "
     id="path96" />
  <path
     stroke="#000000"
     stroke-width="1"
     fill="none"
     transform="matrix(0.05 0 0 0.05 -10 -11)"
     d="M 13216.7,4125.59 C 13216.7,4125.59 12995,4182.03 12995,4182.03 C 12995,4182.03 13022.7,4150.28 13022.7,4125.59 C 13022.7,4100.46 12995,4068.15 12995,4068.15 C 12995,4068.15 13216.7,4125.59 13216.7,4125.59 C 13216.7,4125.59 13216.7,4125.59 13216.7,4125.59 "
     id="path97" />
  <path
     stroke="none"
     fill="#000000"
     transform="matrix(0.05 0 0 0.05 -10 -11)"
     d="M 13023.7,5337.79 L 11775,5337.79 L 11775,5315.79 L 13023.7,5315.79 Z "
     id="path98" />
  <path
     stroke="none"
     fill="#000000"
     transform="matrix(0.05 0 0 0.05 -10 -11)"
     d="M 13216.7,5326.79 C 13216.7,5326.79 12995,5383.23 12995,5383.23 C 12995,5383.23 13022.7,5351.48 13022.7,5326.79 C 13022.7,5301.66 12995,5269.35 12995,5269.35 C 12995,5269.35 13216.7,5326.79 13216.7,5326.79 C 13216.7,5326.79 13216.7,5326.79 13216.7,5326.79 "
     id="path99" />
  <path
     stroke="#000000"
     stroke-width="1"
     fill="none"
     transform="matrix(0.05 0 0 0.05 -10 -11)"
     d="M 13216.7,5326.79 C 13216.7,5326.79 12995,5383.23 12995,5383.23 C 12995,5383.23 13022.7,5351.48 13022.7,5326.79 C 13022.7,5301.66 12995,5269.35 12995,5269.35 C 12995,5269.35 13216.7,5326.79 13216.7,5326.79 C 13216.7,5326.79 13216.7,5326.79 13216.7,5326.79 "
     id="path100" />
  <path
     stroke="none"
     fill="#000000"
     transform="matrix(0.05 0 0 0.05 -10 -11)"
     d="M 13023.7,6946.5 L 11775,6946.5 L 11775,6924.5 L 13023.7,6924.5 Z "
     id="path101" />
  <path
     stroke="none"
     fill="#000000"
     transform="matrix(0.05 0 0 0.05 -10 -11)"
     d="M 13216.7,6935.5 C 13216.7,6935.5 12995,6991.94 12995,6991.94 C 12995,6991.94 13022.7,6960.19 13022.7,6935.5 C 13022.7,6910.37 12995,6878.06 12995,6878.06 C 12995,6878.06 13216.7,6935.5 13216.7,6935.5 C 13216.7,6935.5 13216.7,6935.5 13216.7,6935.5 "
     id="path102" />
  <path
     stroke="#000000"
     stroke-width="1"
     fill="none"
     transform="matrix(0.05 0 0 0.05 -10 -11)"
     d="M 13216.7,6935.5 C 13216.7,6935.5 12995,6991.94 12995,6991.94 C 12995,6991.94 13022.7,6960.19 13022.7,6935.5 C 13022.7,6910.37 12995,6878.06 12995,6878.06 C 12995,6878.06 13216.7,6935.5 13216.7,6935.5 C 13216.7,6935.5 13216.7,6935.5 13216.7,6935.5 "
     id="path103" />
  <text
     x="0"
     y="0"
     stroke="none"
     fill="#000000"
     transform="matrix(0.05 0 0 0.05 11.4162 314.121)"
     font-style="normal"
     font-weight="bold"
     font-size="200px"
     font-family="Helvetica"
     id="text107">
HO</text>
  <text
     x="0"
     y="0"
     stroke="none"
     fill="#000000"
     transform="matrix(0.05 0 0 0.05 26.4162 310.522)"
     font-style="normal"
     font-weight="bold"
     font-size="150px"
     font-family="Helvetica"
     id="text108">
-</text>
  <text
     x="0"
     y="0"
     stroke="none"
     fill="#000000"
     transform="matrix(0.05 0 0 0.05 36.3588 316.432)"
     font-style="normal"
     font-weight="normal"
     font-size="200px"
     font-family="Helvetica"
     id="text109">
1</text>
  <text
     x="0"
     y="0"
     stroke="none"
     fill="#000000"
     transform="matrix(0.05 0 0 0.05 41.9203 312.846)"
     font-style="normal"
     font-weight="normal"
     font-size="150px"
     font-family="Helvetica"
     id="text110">
o</text>
  <text
     x="0"
     y="0"
     stroke="none"
     fill="#000000"
     transform="matrix(0.05 0 0 0.05 65.8522 314.934)"
     font-style="normal"
     font-weight="bold"
     font-size="200px"
     font-family="Helvetica"
     id="text111">
CH</text>
  <text
     x="0"
     y="0"
     stroke="none"
     fill="#000000"
     transform="matrix(0.05 0 0 0.05 80.2955 317.234)"
     font-style="normal"
     font-weight="bold"
     font-size="150px"
     font-family="Helvetica"
     id="text112">
3</text>
  <text
     x="0"
     y="0"
     stroke="none"
     fill="#000000"
     transform="matrix(0.05 0 0 0.05 84.4667 314.934)"
     font-style="normal"
     font-weight="bold"
     font-size="200px"
     font-family="Helvetica"
     id="text113">
O</text>
  <text
     x="0"
     y="0"
     stroke="none"
     fill="#000000"
     transform="matrix(0.05 0 0 0.05 92.245 311.335)"
     font-style="normal"
     font-weight="bold"
     font-size="150px"
     font-family="Helvetica"
     id="text114">
-</text>
  <text
     x="0"
     y="0"
     stroke="none"
     fill="#000000"
     transform="matrix(0.05 0 0 0.05 101.451 315.002)"
     font-style="normal"
     font-weight="normal"
     font-size="200px"
     font-family="Helvetica"
     id="text115">
1</text>
  <text
     x="0"
     y="0"
     stroke="none"
     fill="#000000"
     transform="matrix(0.05 0 0 0.05 107.012 311.416)"
     font-style="normal"
     font-weight="normal"
     font-size="150px"
     font-family="Helvetica"
     id="text116">
o</text>
  <text
     x="0"
     y="0"
     stroke="none"
     fill="#0000ff"
     transform="matrix(0.05 0 0 0.05 164.9 314.268)"
     font-style="normal"
     font-weight="bold"
     font-size="200px"
     font-family="Helvetica"
     id="text117">
I</text>
  <text
     x="0"
     y="0"
     stroke="none"
     fill="#0000ff"
     transform="matrix(0.05 0 0 0.05 167.678 310.669)"
     font-style="normal"
     font-weight="bold"
     font-size="150px"
     font-family="Helvetica"
     id="text118">
-</text>
  <text
     x="0"
     y="0"
     stroke="none"
     fill="#000000"
     transform="matrix(0.05 0 0 0.05 179.629 314.336)"
     font-style="normal"
     font-weight="normal"
     font-size="200px"
     font-family="Helvetica"
     id="text119">
1,2</text>
  <text
     x="0"
     y="0"
     stroke="none"
     fill="#000000"
     transform="matrix(0.05 0 0 0.05 193.53 310.75)"
     font-style="normal"
     font-weight="normal"
     font-size="150px"
     font-family="Helvetica"
     id="text120">
o</text>
  <text
     x="0"
     y="0"
     stroke="none"
     fill="#000000"
     transform="matrix(0.05 0 0 0.05 464.23 314.268)"
     font-style="normal"
     font-weight="bold"
     font-size="200px"
     font-family="Helvetica"
     id="text122">
CN</text>
  <text
     x="0"
     y="0"
     stroke="none"
     fill="#000000"
     transform="matrix(0.05 0 0 0.05 478.674 310.669)"
     font-style="normal"
     font-weight="bold"
     font-size="150px"
     font-family="Helvetica"
     id="text123">
-</text>
  <text
     x="0"
     y="0"
     stroke="none"
     fill="#000000"
     transform="matrix(0.05 0 0 0.05 248.833 314.385)"
     font-style="normal"
     font-weight="normal"
     font-size="200px"
     font-family="Helvetica"
     id="text128">
1</text>
  <text
     x="0"
     y="0"
     stroke="none"
     fill="#000000"
     transform="matrix(0.05 0 0 0.05 254.394 310.799)"
     font-style="normal"
     font-weight="normal"
     font-size="150px"
     font-family="Helvetica"
     id="text129">
o</text>
  <text
     x="0"
     y="0"
     stroke="none"
     fill="#000000"
     transform="matrix(0.05 0 0 0.05 219.915 322.897)"
     font-style="normal"
     font-weight="bold"
     font-size="200px"
     font-family="Helvetica"
     id="text130">
NH</text>
  <text
     x="0"
     y="0"
     stroke="none"
     fill="#000000"
     transform="matrix(0.05 0 0 0.05 234.358 325.197)"
     font-style="normal"
     font-weight="bold"
     font-size="150px"
     font-family="Helvetica"
     id="text131">
3</text>
  <text
     x="0"
     y="0"
     stroke="none"
     fill="#000000"
     transform="matrix(0.05 0 0 0.05 516.185 284.904)"
     font-style="normal"
     font-weight="bold"
     font-size="200px"
     font-family="Helvetica"
     id="text134">
R</text>
  <text
     x="0"
     y="0"
     stroke="none"
     fill="#000000"
     transform="matrix(0.05 0 0 0.05 523.407 287.204)"
     font-style="normal"
     font-weight="bold"
     font-size="150px"
     font-family="Helvetica"
     id="text135">
2</text>
  <text
     x="0"
     y="0"
     stroke="none"
     fill="#000000"
     transform="matrix(0.05 0 0 0.05 527.578 284.904)"
     font-style="normal"
     font-weight="bold"
     font-size="200px"
     font-family="Helvetica"
     id="text136">
CuLi</text>
  <text
     x="0"
     y="0"
     stroke="none"
     fill="#000000"
     transform="matrix(0.05 0 0 0.05 70.1578 180.742)"
     font-style="normal"
     font-weight="bold"
     font-size="150px"
     font-family="Helvetica"
     id="text138">
-</text>
  <text
     x="0"
     y="0"
     stroke="none"
     fill="#000000"
     transform="matrix(0.05 0 0 0.05 72.6553 184.341)"
     font-style="normal"
     font-weight="bold"
     font-size="200px"
     font-family="Helvetica"
     id="text139">
OH,</text>
  <text
     x="0"
     y="0"
     stroke="none"
     fill="#000000"
     transform="matrix(0.05 0 0 0.05 90.4337 180.742)"
     font-style="normal"
     font-weight="bold"
     font-size="150px"
     font-family="Helvetica"
     id="text140">
-</text>
  <text
     x="0"
     y="0"
     stroke="none"
     fill="#000000"
     transform="matrix(0.05 0 0 0.05 92.9312 184.341)"
     font-style="normal"
     font-weight="bold"
     font-size="200px"
     font-family="Helvetica"
     id="text141">
OCH</text>
  <text
     x="0"
     y="0"
     stroke="none"
     fill="#000000"
     transform="matrix(0.05 0 0 0.05 115.153 186.641)"
     font-style="normal"
     font-weight="bold"
     font-size="150px"
     font-family="Helvetica"
     id="text142">
3</text>
  <text
     x="0"
     y="0"
     stroke="none"
     fill="#000000"
     transform="matrix(0.05 0 0 0.05 169.536 186.021)"
     font-style="normal"
     font-weight="bold"
     font-size="150px"
     font-family="Helvetica"
     id="text144">
-</text>
  <text
     x="0"
     y="0"
     stroke="none"
     fill="#000000"
     transform="matrix(0.05 0 0 0.05 172.034 189.62)"
     font-style="normal"
     font-weight="bold"
     font-size="200px"
     font-family="Helvetica"
     id="text145">
O</text>
  <text
     x="0"
     y="0"
     stroke="none"
     fill="#000000"
     transform="matrix(0.05 0 0 0.05 179.812 186.021)"
     font-style="normal"
     font-weight="bold"
     font-size="150px"
     font-family="Helvetica"
     id="text146">
t</text>
  <text
     x="0"
     y="0"
     stroke="none"
     fill="#000000"
     transform="matrix(0.05 0 0 0.05 182.31 189.62)"
     font-style="normal"
     font-weight="bold"
     font-size="200px"
     font-family="Helvetica"
     id="text147">
Bu</text>
  <text
     x="0"
     y="0"
     stroke="none"
     fill="#000000"
     transform="matrix(0.05 0 0 0.05 71.6017 195.663)"
     font-style="normal"
     font-weight="bold"
     font-size="200px"
     font-family="Helvetica"
     id="text148">
DBU, </text>
  <text
     x="0"
     y="0"
     stroke="none"
     fill="#000000"
     transform="matrix(0.05 0 0 0.05 98.8233 195.663)"
     font-style="normal"
     font-weight="bold"
     font-size="200px"
     font-family="Helvetica"
     id="text149">
NaH</text>
  <text
     x="0"
     y="0"
     stroke="none"
     fill="#000000"
     transform="matrix(0.05 0 0 0.05 515.689 313.263)"
     font-style="normal"
     font-weight="bold"
     font-size="108px"
     font-family="Helvetica"
     id="text158">
C</text>
  <text
     x="0"
     y="0"
     stroke="none"
     fill="#000000"
     transform="matrix(0.05 0 0 0.05 515.689 322.249)"
     font-style="normal"
     font-weight="bold"
     font-size="108px"
     font-family="Helvetica"
     id="text159">
C</text>
  <path
     stroke="none"
     fill="#000000"
     transform="matrix(0.05 0 0 0.05 -10 -11)"
     d="M 10579.4,6506.94 L 10592.7,6506.94 L 10592.7,6568.37 L 10579.4,6568.37 L 10579.4,6506.94 Z "
     id="path159" />
  <path
     stroke="none"
     fill="#000000"
     transform="matrix(0.05 0 0 0.05 -10 -11)"
     d="M 10546.1,6506.94 L 10559.4,6506.94 L 10559.4,6568.37 L 10546.1,6568.37 L 10546.1,6506.94 Z "
     id="path160" />
  <path
     stroke="none"
     fill="#000000"
     transform="matrix(0.05 0 0 0.05 -10 -11)"
     d="M 10512.9,6506.94 L 10526.2,6506.94 L 10526.2,6568.37 L 10512.9,6568.37 L 10512.9,6506.94 Z "
     id="path161" />
  <path
     stroke="none"
     fill="#000000"
     transform="matrix(0.05 0 0 0.05 -10 -11)"
     d="M 10546.3,6686.68 L 10559.6,6686.63 L 10560.1,6806.78 L 10546.7,6806.82 L 10546.3,6686.68 Z "
     id="path162" />
  <path
     stroke="#000000"
     stroke-width="11"
     fill="none"
     transform="matrix(0.05 0 0 0.05 -10 -11)"
     d="M 10590.7,6367.63 A 41.3221,41.3221 0 1 0 10673.3,6367.63A 41.3221,41.3221 0 1 0 10590.7,6367.63Z "
     id="path163" />
  <path
     stroke="none"
     fill="#000000"
     transform="matrix(0.05 0 0 0.05 -10 -11)"
     d="M 10607.3,6362.13 L 10656.6,6362.13 L 10656.6,6373.13 L 10607.3,6373.13 Z "
     id="path164" />
  <text
     x="0"
     y="0"
     stroke="none"
     fill="#000000"
     transform="matrix(0.05 0 0 0.05 609.079 250.147)"
     font-style="normal"
     font-weight="bold"
     font-size="200px"
     font-family="Helvetica"
     id="text183">
Li</text>
  <text
     x="0"
     y="0"
     stroke="none"
     fill="#000000"
     transform="matrix(0.05 0 0 0.05 599.748 320.065)"
     font-style="normal"
     font-weight="bold"
     font-size="200px"
     font-family="Helvetica"
     id="text191">
1) </text>
  <text
     x="0"
     y="0"
     stroke="none"
     fill="#000000"
     transform="matrix(0.05 0 0 0.05 611.418 320.065)"
     font-style="normal"
     font-weight="bold"
     font-size="200px"
     font-family="Helvetica"
     id="text192">
Li</text>
  <text
     x="0"
     y="0"
     stroke="none"
     fill="#000000"
     transform="matrix(0.05 0 0 0.05 599.748 330.582)"
     font-style="normal"
     font-weight="bold"
     font-size="200px"
     font-family="Helvetica"
     id="text193">
2) </text>
  <text
     x="0"
     y="0"
     stroke="none"
     fill="#000000"
     transform="matrix(0.05 0 0 0.05 611.418 330.582)"
     font-style="normal"
     font-weight="bold"
     font-size="200px"
     font-family="Helvetica"
     id="text194">
CuI</text>
  <path
     stroke="none"
     fill="#000000"
     transform="matrix(0.05 0 0 0.05 -10 -11)"
     d="M 5161.28,5099.12 L 5172.36,5079.92 L 5426.21,5227 L 5426.21,5239.28 L 5415.81,5245.58 L 5161.28,5099.12 Z "
     id="path212" />
  <path
     stroke="none"
     fill="#000000"
     transform="matrix(0.05 0 0 0.05 -10 -11)"
     d="M 5436.61,5245.58 L 5426.21,5239.28 L 5426.21,5227 L 5680.06,5079.92 L 5691.15,5099.12 L 5436.61,5245.58 Z "
     id="path213" />
  <text
     x="0"
     y="0"
     stroke="none"
     fill="#107f01"
     transform="matrix(0.05 0 0 0.05 258.061 269.179)"
     font-style="normal"
     font-weight="bold"
     font-size="180px"
     font-family="Helvetica"
     id="text213">
Br</text>
  <path
     stroke="none"
     fill="#000000"
     transform="matrix(0.05 0 0 0.05 -10 -11)"
     d="M 5415.81,5245.58 L 5426.21,5239.28 L 5436.61,5245.58 L 5437.3,5442.78 L 5415.12,5442.78 L 5415.81,5245.58 Z "
     id="path214" />
  <text
     x="0"
     y="0"
     stroke="none"
     fill="#000000"
     transform="matrix(0.05 0 0 0.05 539.12 250.69)"
     font-style="normal"
     font-weight="bold"
     font-size="200px"
     font-family="Helvetica"
     id="text214">
metal</text>
  <text
     x="0"
     y="0"
     stroke="none"
     fill="#000000"
     transform="matrix(0.05 0 0 0.05 605.487 190.382)"
     font-style="normal"
     font-weight="bold"
     font-size="200px"
     font-family="Helvetica"
     id="text215">
Mg</text>
  <text
     x="0"
     y="0"
     stroke="none"
     fill="#000000"
     transform="matrix(0.05 0 0 0.05 342.495 324.335)"
     font-style="normal"
     font-weight="bold"
     font-size="160px"
     font-family="Helvetica"
     id="text220">
also </text>
  <text
     x="0"
     y="0"
     stroke="none"
     fill="#000000"
     transform="matrix(0.05 0 0 0.05 360.725 324.335)"
     font-style="normal"
     font-weight="bold"
     font-size="160px"
     font-family="Helvetica"
     id="text221">
RS</text>
  <text
     x="0"
     y="0"
     stroke="none"
     fill="#000000"
     transform="matrix(0.05 0 0 0.05 371.839 321.456)"
     font-style="normal"
     font-weight="bold"
     font-size="120px"
     font-family="Helvetica"
     id="text222">
-</text>
  <text
     x="0"
     y="0"
     stroke="none"
     fill="#000000"
     transform="matrix(0.05 0 0 0.05 120.845 323.62)"
     font-style="normal"
     font-weight="bold"
     font-size="160px"
     font-family="Helvetica"
     id="text223">
also </text>
  <text
     x="0"
     y="0"
     stroke="none"
     fill="#000000"
     transform="matrix(0.05 0 0 0.05 139.075 323.62)"
     font-style="normal"
     font-weight="bold"
     font-size="160px"
     font-family="Helvetica"
     id="text224">
F</text>
  <text
     x="0"
     y="0"
     stroke="none"
     fill="#000000"
     transform="matrix(0.05 0 0 0.05 143.962 320.741)"
     font-style="normal"
     font-weight="bold"
     font-size="120px"
     font-family="Helvetica"
     id="text225">
-</text>
  <text
     x="0"
     y="0"
     stroke="none"
     fill="#000000"
     transform="matrix(0.05 0 0 0.05 145.96 323.62)"
     font-style="normal"
     font-weight="bold"
     font-size="160px"
     font-family="Helvetica"
     id="text226">
/Cl</text>
  <text
     x="0"
     y="0"
     stroke="none"
     fill="#000000"
     transform="matrix(0.05 0 0 0.05 156.183 320.741)"
     font-style="normal"
     font-weight="bold"
     font-size="120px"
     font-family="Helvetica"
     id="text227">
-</text>
  <text
     x="0"
     y="0"
     stroke="none"
     fill="#000000"
     transform="matrix(0.05 0 0 0.05 158.181 323.62)"
     font-style="normal"
     font-weight="bold"
     font-size="160px"
     font-family="Helvetica"
     id="text228">
/Br</text>
  <text
     x="0"
     y="0"
     stroke="none"
     fill="#000000"
     transform="matrix(0.05 0 0 0.05 169.294 320.741)"
     font-style="normal"
     font-weight="bold"
     font-size="120px"
     font-family="Helvetica"
     id="text229">
-</text>
  <text
     x="0"
     y="0"
     stroke="none"
     fill="#000000"
     transform="matrix(0.05 0 0 0.05 288.155 315.04)"
     font-style="normal"
     font-weight="bold"
     font-size="200px"
     font-family="Helvetica"
     id="text230">
NaN</text>
  <text
     x="0"
     y="0"
     stroke="none"
     fill="#000000"
     transform="matrix(0.05 0 0 0.05 308.16 317.34)"
     font-style="normal"
     font-weight="bold"
     font-size="150px"
     font-family="Helvetica"
     id="text231">
3</text>
  <text
     x="0"
     y="0"
     stroke="none"
     fill="#000000"
     transform="matrix(0.05 0 0 0.05 320.333 315.1)"
     font-style="normal"
     font-weight="normal"
     font-size="200px"
     font-family="Helvetica"
     id="text232">
1</text>
  <text
     x="0"
     y="0"
     stroke="none"
     fill="#000000"
     transform="matrix(0.05 0 0 0.05 325.894 311.514)"
     font-style="normal"
     font-weight="normal"
     font-size="150px"
     font-family="Helvetica"
     id="text233">
o</text>
  <path
     stroke="none"
     fill="#999999"
     transform="matrix(0.05 0 0 0.05 -10 -11)"
     d="M 5584.14,7096.1 L 6134.7,7096.1 L 6134.7,7118.1 L 5584.14,7118.1 Z "
     id="path236" />
  <path
     stroke="none"
     fill="#999999"
     transform="matrix(0.05 0 0 0.05 -10 -11)"
     d="M 5391.1,7107.1 C 5391.1,7107.1 5612.86,7049.66 5612.86,7049.66 C 5612.86,7049.66 5585.14,7081.97 5585.14,7107.1 C 5585.14,7131.79 5612.86,7163.54 5612.86,7163.54 C 5612.86,7163.54 5391.1,7107.1 5391.1,7107.1 C 5391.1,7107.1 5391.1,7107.1 5391.1,7107.1 "
     id="path237" />
  <path
     stroke="#999999"
     stroke-width="1"
     fill="none"
     transform="matrix(0.05 0 0 0.05 -10 -11)"
     d="M 5391.1,7107.1 C 5391.1,7107.1 5612.86,7049.66 5612.86,7049.66 C 5612.86,7049.66 5585.14,7081.97 5585.14,7107.1 C 5585.14,7131.79 5612.86,7163.54 5612.86,7163.54 C 5612.86,7163.54 5391.1,7107.1 5391.1,7107.1 C 5391.1,7107.1 5391.1,7107.1 5391.1,7107.1 "
     id="path238" />
  <text
     x="0"
     y="0"
     stroke="none"
     fill="#999999"
     transform="matrix(0.05 0 0 0.05 275.292 337.915)"
     font-style="normal"
     font-weight="bold"
     font-size="160px"
     font-family="Helvetica"
     id="text238">
H</text>
  <text
     x="0"
     y="0"
     stroke="none"
     fill="#999999"
     transform="matrix(0.05 0 0 0.05 281.07 339.755)"
     font-style="normal"
     font-weight="bold"
     font-size="120px"
     font-family="Helvetica"
     id="text239">
2</text>
  <text
     x="0"
     y="0"
     stroke="none"
     fill="#999999"
     transform="matrix(0.05 0 0 0.05 266.661 355.075)"
     font-style="normal"
     font-weight="bold"
     font-size="160px"
     font-family="Helvetica"
     id="text240">
cat. </text>
  <text
     x="0"
     y="0"
     stroke="none"
     fill="#999999"
     transform="matrix(0.05 0 0 0.05 282.669 355.075)"
     font-style="normal"
     font-weight="bold"
     font-size="160px"
     font-family="Helvetica"
     id="text241">
Pd</text>
  <path
     stroke="none"
     fill="#000000"
     transform="matrix(0.05 0 0 0.05 -10 -11)"
     d="M 7807.54,6663.85 L 7807.54,6297.45 L 7829.54,6297.45 L 7829.54,6663.85 Z "
     id="path242" />
  <path
     stroke="none"
     fill="#000000"
     transform="matrix(0.05 0 0 0.05 -10 -11)"
     d="M 7818.54,6856.89 C 7818.54,6856.89 7761.1,6635.13 7761.1,6635.13 C 7761.1,6635.13 7793.41,6662.85 7818.54,6662.85 C 7843.23,6662.85 7874.98,6635.13 7874.98,6635.13 C 7874.98,6635.13 7818.54,6856.89 7818.54,6856.89 C 7818.54,6856.89 7818.54,6856.89 7818.54,6856.89 "
     id="path243" />
  <path
     stroke="#000000"
     stroke-width="1"
     fill="none"
     transform="matrix(0.05 0 0 0.05 -10 -11)"
     d="M 7818.54,6856.89 C 7818.54,6856.89 7761.1,6635.13 7761.1,6635.13 C 7761.1,6635.13 7793.41,6662.85 7818.54,6662.85 C 7843.23,6662.85 7874.98,6635.13 7874.98,6635.13 C 7874.98,6635.13 7818.54,6856.89 7818.54,6856.89 C 7818.54,6856.89 7818.54,6856.89 7818.54,6856.89 "
     id="path244" />
  <text
     x="0"
     y="0"
     stroke="none"
     fill="#000000"
     transform="matrix(0.05 0 0 0.05 358.191 314.121)"
     font-style="normal"
     font-weight="bold"
     font-size="200px"
     font-family="Helvetica"
     id="text244">
HS</text>
  <text
     x="0"
     y="0"
     stroke="none"
     fill="#000000"
     transform="matrix(0.05 0 0 0.05 372.083 310.522)"
     font-style="normal"
     font-weight="bold"
     font-size="150px"
     font-family="Helvetica"
     id="text245">
-</text>
  <text
     x="0"
     y="0"
     stroke="none"
     fill="#000000"
     transform="matrix(0.05 0 0 0.05 209.505 311.465)"
     font-style="italic"
     font-weight="bold"
     font-size="160px"
     font-family="Helvetica Oblique"
     id="text253">
excess</text>
  <path
     stroke="none"
     fill="#000000"
     transform="matrix(0.05 0 0 0.05 -10 -11)"
     d="M 8940.8,6703.95 L 8940.8,6283.15 L 8962.8,6283.15 L 8962.8,6703.95 Z "
     id="path253" />
  <path
     stroke="none"
     fill="#000000"
     transform="matrix(0.05 0 0 0.05 -10 -11)"
     d="M 8951.8,6896.99 C 8951.8,6896.99 8894.36,6675.23 8894.36,6675.23 C 8894.36,6675.23 8926.67,6702.95 8951.8,6702.95 C 8976.49,6702.95 9008.24,6675.23 9008.24,6675.23 C 9008.24,6675.23 8951.8,6896.99 8951.8,6896.99 C 8951.8,6896.99 8951.8,6896.99 8951.8,6896.99 "
     id="path254" />
  <path
     stroke="#000000"
     stroke-width="1"
     fill="none"
     transform="matrix(0.05 0 0 0.05 -10 -11)"
     d="M 8951.8,6896.99 C 8951.8,6896.99 8894.36,6675.23 8894.36,6675.23 C 8894.36,6675.23 8926.67,6702.95 8951.8,6702.95 C 8976.49,6702.95 9008.24,6675.23 9008.24,6675.23 C 9008.24,6675.23 8951.8,6896.99 8951.8,6896.99 C 8951.8,6896.99 8951.8,6896.99 8951.8,6896.99 "
     id="path255" />
  <text
     x="0"
     y="0"
     stroke="none"
     fill="#000000"
     transform="matrix(0.05 0 0 0.05 409.947 314.121)"
     font-style="normal"
     font-weight="bold"
     font-size="200px"
     font-family="Helvetica"
     id="text255">
Ph</text>
  <text
     x="0"
     y="0"
     stroke="none"
     fill="#000000"
     transform="matrix(0.05 0 0 0.05 422.725 316.421)"
     font-style="normal"
     font-weight="bold"
     font-size="150px"
     font-family="Helvetica"
     id="text256">
3</text>
  <text
     x="0"
     y="0"
     stroke="none"
     fill="#000000"
     transform="matrix(0.05 0 0 0.05 426.897 314.121)"
     font-style="normal"
     font-weight="bold"
     font-size="200px"
     font-family="Helvetica"
     id="text257">
P</text>
  <text
     x="0"
     y="0"
     stroke="none"
     fill="#000000"
     transform="matrix(0.05 0 0 0.05 30.7776 407.99)"
     font-style="italic"
     font-weight="normal"
     font-size="160px"
     font-family="Helvetica Oblique"
     id="text283" />
  <path
     stroke="none"
     fill="#000000"
     transform="matrix(0.05 0 0 0.05 -10 -11)"
     d="M 9870.3,6703.95 L 9870.3,6283.15 L 9892.3,6283.15 L 9892.3,6703.95 Z "
     id="path300" />
  <path
     stroke="none"
     fill="#000000"
     transform="matrix(0.05 0 0 0.05 -10 -11)"
     d="M 9881.3,6896.99 C 9881.3,6896.99 9823.86,6675.23 9823.86,6675.23 C 9823.86,6675.23 9856.17,6702.95 9881.3,6702.95 C 9905.99,6702.95 9937.74,6675.23 9937.74,6675.23 C 9937.74,6675.23 9881.3,6896.99 9881.3,6896.99 C 9881.3,6896.99 9881.3,6896.99 9881.3,6896.99 "
     id="path301" />
  <path
     stroke="#000000"
     stroke-width="1"
     fill="none"
     transform="matrix(0.05 0 0 0.05 -10 -11)"
     d="M 9881.3,6896.99 C 9881.3,6896.99 9823.86,6675.23 9823.86,6675.23 C 9823.86,6675.23 9856.17,6702.95 9881.3,6702.95 C 9905.99,6702.95 9937.74,6675.23 9937.74,6675.23 C 9937.74,6675.23 9881.3,6896.99 9881.3,6896.99 C 9881.3,6896.99 9881.3,6896.99 9881.3,6896.99 "
     id="path302" />
  <path
     stroke="none"
     fill="#000000"
     transform="matrix(0.05 0 0 0.05 -10 -11)"
     d="M 10742.6,6703.95 L 10742.6,6283.15 L 10764.6,6283.15 L 10764.6,6703.95 Z "
     id="path304" />
  <path
     stroke="none"
     fill="#000000"
     transform="matrix(0.05 0 0 0.05 -10 -11)"
     d="M 10753.6,6896.99 C 10753.6,6896.99 10696.2,6675.23 10696.2,6675.23 C 10696.2,6675.23 10728.5,6702.95 10753.6,6702.95 C 10778.3,6702.95 10810,6675.23 10810,6675.23 C 10810,6675.23 10753.6,6896.99 10753.6,6896.99 C 10753.6,6896.99 10753.6,6896.99 10753.6,6896.99 "
     id="path305" />
  <path
     stroke="#000000"
     stroke-width="1"
     fill="none"
     transform="matrix(0.05 0 0 0.05 -10 -11)"
     d="M 10753.6,6896.99 C 10753.6,6896.99 10696.2,6675.23 10696.2,6675.23 C 10696.2,6675.23 10728.5,6702.95 10753.6,6702.95 C 10778.3,6702.95 10810,6675.23 10810,6675.23 C 10810,6675.23 10753.6,6896.99 10753.6,6896.99 C 10753.6,6896.99 10753.6,6896.99 10753.6,6896.99 "
     id="path306" />
  <text
     x="0"
     y="0"
     stroke="none"
     fill="#000000"
     transform="matrix(0.05 0 0 0.05 531.891 316.633)"
     font-style="normal"
     font-weight="normal"
     font-size="200px"
     font-family="Helvetica"
     id="text306">
1</text>
  <text
     x="0"
     y="0"
     stroke="none"
     fill="#000000"
     transform="matrix(0.05 0 0 0.05 537.452 313.046)"
     font-style="normal"
     font-weight="normal"
     font-size="150px"
     font-family="Helvetica"
     id="text307">
o</text>
  <text
     x="0"
     y="0"
     stroke="none"
     fill="#000000"
     transform="matrix(0.05 0 0 0.05 382.689 315.051)"
     font-style="normal"
     font-weight="normal"
     font-size="200px"
     font-family="Helvetica"
     id="text308">
1,2</text>
  <text
     x="0"
     y="0"
     stroke="none"
     fill="#000000"
     transform="matrix(0.05 0 0 0.05 396.59 311.465)"
     font-style="normal"
     font-weight="normal"
     font-size="150px"
     font-family="Helvetica"
     id="text309">
o</text>
  <text
     x="0"
     y="0"
     stroke="none"
     fill="#000000"
     transform="matrix(0.05 0 0 0.05 438.459 315.051)"
     font-style="normal"
     font-weight="normal"
     font-size="200px"
     font-family="Helvetica"
     id="text310">
1,2</text>
  <text
     x="0"
     y="0"
     stroke="none"
     fill="#000000"
     transform="matrix(0.05 0 0 0.05 452.36 311.465)"
     font-style="normal"
     font-weight="normal"
     font-size="150px"
     font-family="Helvetica"
     id="text311">
o</text>
  <text
     x="0"
     y="0"
     stroke="none"
     fill="#000000"
     transform="matrix(0.05 0 0 0.05 487.079 315.051)"
     font-style="normal"
     font-weight="normal"
     font-size="200px"
     font-family="Helvetica"
     id="text312">
1,2</text>
  <text
     x="0"
     y="0"
     stroke="none"
     fill="#000000"
     transform="matrix(0.05 0 0 0.05 500.98 311.465)"
     font-style="normal"
     font-weight="normal"
     font-size="150px"
     font-family="Helvetica"
     id="text313">
o</text>
  <path
     stroke="none"
     fill="#000000"
     transform="matrix(0.05 0 0 0.05 -10 -11)"
     d="M 11282.7,5707.85 L 5677.1,5707.85 L 5677.1,5685.85 L 11282.7,5685.85 Z "
     id="path313" />
  <path
     stroke="none"
     fill="#000000"
     transform="matrix(0.05 0 0 0.05 -10 -11)"
     d="M 11271.7,6685.26 L 11271.7,5696.85 L 11293.7,5696.85 L 11293.7,6685.26 Z "
     id="path314" />
  <path
     stroke="none"
     fill="#000000"
     transform="matrix(0.05 0 0 0.05 -10 -11)"
     d="M 11282.7,6878.3 C 11282.7,6878.3 11225.3,6656.54 11225.3,6656.54 C 11225.3,6656.54 11257.6,6684.26 11282.7,6684.26 C 11307.4,6684.26 11339.1,6656.54 11339.1,6656.54 C 11339.1,6656.54 11282.7,6878.3 11282.7,6878.3 C 11282.7,6878.3 11282.7,6878.3 11282.7,6878.3 "
     id="path315" />
  <path
     stroke="#000000"
     stroke-width="1"
     fill="none"
     transform="matrix(0.05 0 0 0.05 -10 -11)"
     d="M 11282.7,6878.3 C 11282.7,6878.3 11225.3,6656.54 11225.3,6656.54 C 11225.3,6656.54 11257.6,6684.26 11282.7,6684.26 C 11307.4,6684.26 11339.1,6656.54 11339.1,6656.54 C 11339.1,6656.54 11282.7,6878.3 11282.7,6878.3 C 11282.7,6878.3 11282.7,6878.3 11282.7,6878.3 "
     id="path316" />
  <text
     x="0"
     y="0"
     stroke="none"
     fill="#000000"
     transform="matrix(0.05 0 0 0.05 85.095 207.79)"
     font-style="normal"
     font-weight="bold"
     font-size="200px"
     font-family="Helvetica"
     id="text316">
heat</text>
  <text
     x="0"
     y="0"
     stroke="none"
     fill="#000000"
     transform="matrix(0.05 0 0 0.05 309.15 121.99)"
     font-style="italic"
     font-weight="normal"
     font-size="160px"
     font-family="Helvetica Oblique"
     id="text334" />
  <text
     x="0"
     y="0"
     stroke="none"
     fill="#000000"
     transform="matrix(0.05 0 0 0.05 74.37 292.16)"
     font-style="normal"
     font-weight="bold"
     font-size="200px"
     font-family="Helvetica"
     id="text350">
(also </text>
  <text
     x="0"
     y="0"
     stroke="none"
     fill="#0000ff"
     transform="matrix(0.05 0 0 0.05 100.488 292.16)"
     font-style="normal"
     font-weight="bold"
     font-size="200px"
     font-family="Helvetica"
     id="text351">
allylic </text>
  <text
     x="0"
     y="0"
     stroke="none"
     fill="#000000"
     transform="matrix(0.05 0 0 0.05 131.064 292.16)"
     font-style="normal"
     font-weight="bold"
     font-size="200px"
     font-family="Helvetica"
     id="text352">
and</text>
  <text
     x="0"
     y="0"
     stroke="none"
     fill="#0000ff"
     transform="matrix(0.05 0 0 0.05 148.843 292.16)"
     font-style="normal"
     font-weight="bold"
     font-size="200px"
     font-family="Helvetica"
     id="text353" />
  <text
     x="0"
     y="0"
     stroke="none"
     fill="#0000ff"
     transform="matrix(0.05 0 0 0.05 151.621 292.16)"
     font-style="normal"
     font-weight="bold"
     font-size="200px"
     font-family="Helvetica"
     id="text354">
benzylic </text>
  <text
     x="0"
     y="0"
     stroke="none"
     fill="#0000ff"
     transform="matrix(0.05 0 0 0.05 193.857 292.16)"
     font-style="normal"
     font-weight="bold"
     font-size="200px"
     font-family="Helvetica"
     id="text355">
halides</text>
  <text
     x="0"
     y="0"
     stroke="none"
     fill="#000000"
     transform="matrix(0.05 0 0 0.05 228.315 292.16)"
     font-style="normal"
     font-weight="bold"
     font-size="200px"
     font-family="Helvetica"
     id="text356" />
  <text
     x="0"
     y="0"
     stroke="none"
     fill="#000000"
     transform="matrix(0.05 0 0 0.05 231.094 292.16)"
     font-style="normal"
     font-weight="bold"
     font-size="200px"
     font-family="Helvetica"
     id="text357">
work)</text>
  <text
     x="0"
     y="0"
     stroke="none"
     fill="#000000"
     transform="matrix(0.05 0 0 0.05 58.6308 169.792)"
     font-style="italic"
     font-weight="normal"
     font-size="200px"
     font-family="Helvetica Oblique"
     id="text358">
base options:</text>
  <path
     stroke="none"
     fill="#ffffff"
     opacity="0"
     onclick="window.location.href = 'alkenes-o1.svg'"
     transform="matrix(0.05 0 0 0.05 -10 -11)"
     d="M 3174.6,3374.8 C 3174.6,3374.8 3174.6,2329.9 3174.6,2329.9 C 3174.6,2329.9 2315.6,2329.9 2315.6,2329.9 C 2315.6,2329.9 2315.6,3374.8 2315.6,3374.8 C 2315.6,3374.8 3174.6,3374.8 3174.6,3374.8 "
     id="path1"
     inkscape:label="l-alkene" />
  <path
     stroke="none"
     fill="#ffffff"
     opacity="0"
     onclick="window.location.href = 'alkenes-o1.svg'"
     transform="matrix(0.05 0 0 0.05 -10 -11)"
     d="M 4618.9,3346.2 C 4618.9,3346.2 4618.9,2301.3 4618.9,2301.3 C 4618.9,2301.3 3659.8,2301.3 3659.8,2301.3 C 3659.8,2301.3 3659.8,3346.2 3659.8,3346.2 C 3659.8,3346.2 4618.9,3346.2 4618.9,3346.2 "
     id="path3"
     inkscape:label="l-alkene" />
  <path
     stroke="none"
     fill="#ffffff"
     opacity="0"
     onclick="window.location.href = 'ethers-o1.svg'"
     transform="matrix(0.05 0 0 0.05 -10 -11)"
     d="M 2717,7965.1 C 2717,7965.1 2717,6791.5 2717,6791.5 C 2717,6791.5 1572,6791.5 1572,6791.5 C 1572,6791.5 1572,7965.1 1572,7965.1 C 1572,7965.1 2717,7965.1 2717,7965.1 "
     id="path21"
     inkscape:label="l-ethers" />
  <path
     stroke="none"
     fill="#ffffff"
     opacity="0"
     onclick="window.location.href = 'halides-o1.svg'"
     transform="matrix(0.05 0 0 0.05 -10 -11)"
     d="M 4032.6,7493.2 C 4032.6,7493.2 4032.6,6820.1 4032.6,6820.1 C 4032.6,6820.1 3316.6,6820.1 3316.6,6820.1 C 3316.6,6820.1 3316.6,7493.2 3316.6,7493.2 C 3316.6,7493.2 4032.6,7493.2 4032.6,7493.2 "
     id="path23"
     inkscape:label="l-halides" />
  <path
     stroke="none"
     fill="#ffffff"
     opacity="0"
     onclick="window.location.href = 'azides-o1.svg'"
     transform="matrix(0.05 0 0 0.05 -10 -11)"
     d="M 6864,7764.9 C 6864,7764.9 6864,6864 6864,6864 C 6864,6864 6162.3,6864 6162.3,6864 C 6162.3,6864 6162.3,7764.9 6162.3,7764.9 C 6162.3,7764.9 6864,7764.9 6864,7764.9 "
     id="path25"
     inkscape:label="l-azides" />
  <path
     stroke="none"
     fill="#ffffff"
     opacity="0"
     onclick="window.location.href = 'ccbondformation-o1.svg'"
     transform="matrix(0.05 0 0 0.05 -10 -11)"
     d="M 11425.7,8966.1 C 11425.7,8966.1 11425.7,8235.8 11425.7,8235.8 C 11425.7,8235.8 9794.5,8235.8 9794.5,8235.8 C 9794.5,8235.8 9794.5,8966.1 9794.5,8966.1 C 9794.5,8966.1 11425.7,8966.1 11425.7,8966.1 "
     id="path41"
     inkscape:label="l-ccbond" />
  <path
     stroke="none"
     fill="#ffffff"
     opacity="0"
     onclick="window.location.href = 'amines-o1.svg'"
     transform="matrix(0.05 0 0 0.05 -10 -11)"
     d="M 5491.2,8093.8 C 5491.2,8093.8 5491.2,6820.1 5491.2,6820.1 C 5491.2,6820.1 4274.7,6820.1 4274.7,6820.1 C 4274.7,6820.1 4274.7,8093.8 4274.7,8093.8 C 4274.7,8093.8 5491.2,8093.8 5491.2,8093.8 "
     id="path43"
     inkscape:label="l-amines" />
  <path
     stroke="none"
     fill="#ffffff"
     opacity="0"
     onclick="window.location.href = 'tohalides-o1.svg'"
     d="m 280.99304,272.97725 c 0,0 0,-35.53671 0,-35.53671 0,0 -133.54141,0 -133.54141,0 0,0 0,35.53671 0,35.53671 0,0 133.54141,0 133.54141,0"
     id="path43-8"
     inkscape:label="to-halides"
     style="opacity:0;stroke-width:0.0553423" />
  <path
     stroke="none"
     fill="#ffffff"
     opacity="0"
     onclick="window.location.href = 'tohalides-o1.svg'"
     d="m 256.64397,297.48327 c 0,0 0,-19.11688 0,-19.11688 0,0 -184.364713,0 -184.364713,0 0,0 0,19.11688 0,19.11688 0,0 184.364713,0 184.364713,0"
     id="path43-8-5"
     inkscape:label="to-halides"
     style="opacity:0;stroke-width:0.0476934" />
  <path
     stroke="none"
     fill="#ffffff"
     opacity="0"
     onclick="window.location.href = 'supplement-o1.svg'"
     d="m 121.25594,209.96859 c 0,0 0,-49.61086 0,-49.61086 0,0 -67.080184,0 -67.080184,0 0,0 0,49.61086 0,49.61086 0,0 67.080184,0 67.080184,0"
     id="path43-8-5-6"
     inkscape:label="l-supplement"
     style="opacity:0;stroke-width:0.0463443" />
  <path
     stroke="none"
     fill="#ffffff"
     opacity="0"
     onclick="window.location.href = 'supplement-o1.svg'"
     d="m 198.48364,194.98929 c 0,0 0,-19.11688 0,-19.11688 0,0 -34.24051,0 -34.24051,0 0,0 0,19.11688 0,19.11688 0,0 34.24051,0 34.24051,0"
     id="path43-8-5-6-3"
     inkscape:label="l-supplement"
     style="opacity:0;stroke-width:0.0205537" />
  <path
     stroke="none"
     fill="#ffffff"
     opacity="0"
     onclick="window.location.href = 'supplement-o1.svg'"
     d="m 30.942041,321.45147 c 0,0 0,-18.33498 0,-18.33498 0,0 -20.9482626,0 -20.9482626,0 0,0 0,18.33498 0,18.33498 0,0 20.9482626,0 20.9482626,0"
     id="path43-8-5-6-92"
     inkscape:label="l-supplement"
     style="opacity:0;stroke-width:0.0157444" />
  <path
     stroke="none"
     fill="#ffffff"
     opacity="0"
     onclick="window.location.href = 'supplement-o1.svg'"
     d="m 97.318984,320.98929 c 0,0 0,-15.98929 0,-15.98929 0,0 -35.804304,0 -35.804304,0 0,0 0,15.98929 0,15.98929 0,0 35.804304,0 35.804304,0"
     id="path43-8-5-6-7"
     inkscape:label="l-supplement"
     style="opacity:0;stroke-width:0.0192218" />
  <path
     stroke="none"
     fill="#ffffff"
     opacity="0"
     onclick="window.location.href = 'supplement-o1.svg'"
     d="m 174.88277,328.93585 c 0,0 0,-24.59016 0,-24.59016 0,0 -56.13362,0 -56.13362,0 0,0 0,24.59016 0,24.59016 0,0 56.13362,0 56.13362,0"
     id="path43-8-5-6-4"
     inkscape:label="l-supplement"
     style="opacity:0;stroke-width:0.0298472" />
  <path
     stroke="none"
     fill="#ffffff"
     opacity="0"
     onclick="window.location.href = 'supplement-o1.svg'"
     d="m 242.73449,328.52129 c 0,0 0,-24.59016 0,-24.59016 0,0 -35.8043,0 -35.8043,0 0,0 0,24.59016 0,24.59016 0,0 35.8043,0 35.8043,0"
     id="path43-8-5-6-6"
     inkscape:label="l-supplement"
     style="opacity:0;stroke-width:0.0238374" />
  <path
     stroke="none"
     fill="#ffffff"
     opacity="0"
     onclick="window.location.href = 'supplement-o1.svg'"
     d="m 313.8457,322.33499 c 0,0 0,-17.55309 0,-17.55309 0,0 -26.42154,0 -26.42154,0 0,0 0,17.55309 0,17.55309 0,0 26.42154,0 26.42154,0"
     id="path43-8-5-6-5"
     inkscape:label="l-supplement"
     style="opacity:0;stroke-width:0.0173008" />
  <path
     stroke="none"
     fill="#ffffff"
     opacity="0"
     onclick="window.location.href = 'supplement-o1.svg'"
     d="m 377.28191,315.38843 c 0,0 0,-10.51602 0,-10.51602 0,0 -38.14999,0 -38.14999,0 0,0 0,10.51602 0,10.51602 0,0 38.14999,0 38.14999,0"
     id="path43-8-5-6-68"
     inkscape:label="l-supplement"
     style="opacity:0;stroke-width:0.016091" />
  <path
     stroke="none"
     fill="#ffffff"
     opacity="0"
     onclick="window.location.href = 'supplement-o1.svg'"
     d="m 434.28191,320.68068 c 0,0 0,-15.2074 0,-15.2074 0,0 -24.85775,0 -24.85775,0 0,0 0,15.2074 0,15.2074 0,0 24.85775,0 24.85775,0"
     id="path43-8-5-6-0"
     inkscape:label="l-supplement"
     style="opacity:0;stroke-width:0.0156196" />
  <path
     stroke="none"
     fill="#ffffff"
     opacity="0"
     onclick="window.location.href = 'supplement-o1.svg'"
     d="m 482.80863,319.89878 c 0,0 0,-15.2074 0,-15.2074 0,0 -18.60257,0 -18.60257,0 0,0 0,15.2074 0,15.2074 0,0 18.60257,0 18.60257,0"
     id="path43-8-5-6-50"
     inkscape:label="l-supplement"
     style="opacity:0;stroke-width:0.0135122" />
  <path
     stroke="none"
     fill="#ffffff"
     opacity="0"
     onclick="window.location.href = 'supplement-o1.svg'"
     d="m 631.45956,343.54875 c 0,0 0,-174.71436 0,-174.71436 0,0 -31.89482,0 -31.89482,0 0,0 0,174.71436 0,174.71436 0,0 31.89482,0 31.89482,0"
     id="path43-8-5-6-1"
     inkscape:label="l-supplement"
     style="opacity:0;stroke-width:0.0599702" />
  <path
     stroke="none"
     fill="#ffffff"
     opacity="0"
     onclick="window.location.href = 'tothiols-o1.svg'"
     d="m 375.45428,327.51696 c 0,0 0,-11.29791 0,-11.29791 0,0 -36.5862,0 -36.5862,0 0,0 0,11.29791 0,11.29791 0,0 36.5862,0 36.5862,0"
     id="path43-8-5-6-64-6"
     inkscape:label="l-x"
     style="opacity:0;stroke-width:0.0163331" />
  <path
     stroke="none"
     fill="#ffffff"
     opacity="0"
     onclick="window.location.href = 'toalkynes-o1.svg'"
     d="m 525.10954,331.35135 c 0,0 0,-26.15395 0,-26.15395 0,0 -12.3474,0 -12.3474,0 0,0 0,26.15395 0,26.15395 0,0 12.3474,0 12.3474,0"
     id="path43-8-5-6-64-6-8"
     inkscape:label="l-x"
     style="opacity:0;stroke-width:0.0144367" />
  <path
     stroke="none"
     fill="#ffffff"
     opacity="0"
     onclick="window.location.href = 'toorganometallics-o1.svg'"
     d="m 553.4095,289.22377 c 0,0 0,-13.6436 0,-13.6436 0,0 -42.05948,0 -42.05948,0 0,0 0,13.6436 0,13.6436 0,0 42.05948,0 42.05948,0"
     id="path43-8-5-6-64-6-4"
     inkscape:label="l-x"
     style="opacity:0;stroke-width:0.0192445" />
  <g
     id="noreagents"
     onclick="window.location.href = 'halides-noreagents-o1.svg'"
     transform="translate(-4.6856272,378.9067)">
    <text
       x="11.200497"
       y="54.141506"
       stroke="none"
       fill="#000000"
       font-style="normal"
       font-weight="bold"
       font-size="200px"
       font-family="Helvetica"
       id="gobacktext-7"
       style="font-style:normal;font-weight:bold;font-size:10px;font-family:Helvetica;fill:#000000;fill-opacity:0.443609;stroke:none;stroke-width:0.05"
       inkscape:label="noreagents-text"><tspan
         sodipodi:role="line"
         id="tspan2"
         x="11.200497"
         y="54.141506"
         style="font-style:normal;font-variant:normal;font-weight:bold;font-stretch:normal;font-size:8px;font-family:Helvetica;-inkscape-font-specification:'Helvetica, Bold';font-variant-ligatures:normal;font-variant-caps:normal;font-variant-numeric:normal;font-variant-east-asian:normal;fill:#000000;fill-opacity:0.5;stroke-width:0.05">reagents</tspan></text>
    <rect
       style="fill:#000000;fill-opacity:0.821053;fill-rule:evenodd;stroke:#a13033;stroke-width:0;stroke-linecap:round;stroke-miterlimit:2;stroke-dasharray:none;paint-order:markers fill stroke"
       id="rect3"
       width="31.666824"
       height="0.9773711"
       x="12.224979"
       y="51.518982"
       inkscape:label="noreagents-line" />
    <path
       stroke="none"
       fill="#999999"
       d="m 9.795,54.694678 c 0,0 0,-5.427567 0,-5.427567 0,-2.098514 1.463398,-3.801611 3.266274,-3.801611 0,0 30.608907,0 30.608907,0 1.803073,0 3.266397,1.703097 3.266397,3.801611 0,0 0,5.427567 0,5.427567 0,2.098514 -1.463324,3.801611 -3.266397,3.801611 0,0 -30.608907,0 -30.608907,0 -1.802876,0 -3.266274,-1.703097 -3.266274,-3.801611"
       id="goback-box-8"
       style="fill:#999999;fill-opacity:0.336842;stroke-width:0.0264832"
       inkscape:label="noreagents-box" />
  </g>
  <g
     id="nonames"
     onclick="window.location.href = 'halides-o1.svg'"
     transform="matrix(0.85780308,0,0,1,-3.2442635,382.9067)">
    <text
       x="18.441887"
       y="69.010506"
       stroke="none"
       fill="#000000"
       font-style="normal"
       font-weight="bold"
       font-size="200px"
       font-family="Helvetica"
       id="gobacktext-7-8"
       style="font-style:normal;font-variant:normal;font-weight:bold;font-stretch:normal;font-size:10px;font-family:Helvetica;-inkscape-font-specification:'Helvetica, Bold';font-variant-ligatures:normal;font-variant-caps:normal;font-variant-numeric:normal;font-variant-east-asian:normal;fill:#0088d0;fill-opacity:0.675806;stroke:none;stroke-width:0.05"
       inkscape:label="noproducts-text"><tspan
         sodipodi:role="line"
         id="tspan1"
         x="18.441887"
         y="69.010506">show</tspan></text>
    <path
       stroke="none"
       fill="#999999"
       d="m 10.136392,68.163695 c 0,0 0,-5.427567 0,-5.427567 0,-2.098514 1.679048,-3.801611 3.747601,-3.801611 0,0 35.119514,0 35.119514,0 2.068778,0 3.747742,1.703097 3.747742,3.801611 0,0 0,5.427567 0,5.427567 0,2.098514 -1.678964,3.801611 -3.747742,3.801611 0,0 -35.119514,0 -35.119514,0 -2.068553,0 -3.747601,-1.703097 -3.747601,-3.801611"
       id="goback-box-8-6"
       style="fill:#999999;fill-opacity:0.336842;stroke-width:0.0283675"
       inkscape:label="noproducts-box" />
  </g>
  <text
     x="822.84332"
     y="415.79849"
     stroke="none"
     fill="#000000"
     transform="matrix(0.92407999,-0.00322566,0.00377741,1.0821442,0,0)"
     font-style="italic"
     font-weight="bold"
     font-size="8.25806px"
     font-family="'Helvetica Oblique'"
     id="text11"
     style="opacity:1;fill:#00009a;fill-opacity:0.651128;stroke-width:0.0412903">chemisfun</text>
  <g
     id="overlay-box"
     style="opacity:0"
     transform="matrix(0.31364504,0,0,0.8007311,650.50736,385.81436)">
    <rect
       style="fill:#609975;fill-opacity:0.2;stroke:#609970;stroke-width:0;stroke-linecap:round;stroke-opacity:0.657143;paint-order:fill markers stroke"
       id="rect285"
       width="164.84744"
       height="59.583412"
       x="329.69489"
       y="23.171328" />
  </g>
  <g
     id="overlay"
     onclick="window.location.href = 'about.svg'"
     onmouseover="this.ownerDocument.getElementById('overlay-box').style.opacity='0.5'"
     onmouseout="this.ownerDocument.getElementById('overlay-box').style.opacity='0'"
     transform="matrix(0.76550767,-0.0030054,0.00267214,0.86098131,195.61318,22.784653)">
    <rect
       style="opacity:0.5;fill:#ffffff;fill-opacity:0;stroke-linecap:round;stroke-opacity:0.657143;paint-order:stroke fill markers"
       id="rect2"
       width="65.93074"
       height="55.035408"
       x="733.06049"
       y="445.87061" />
  </g>
  <g
     id="g1"
     transform="matrix(0.0625,0,0,0.0625,764.65732,406.62566)">
    <rect
       x="239.31"
       y="120.321"
       style="fill:#444242"
       width="33.389"
       height="139.98"
       id="rect1" />
    <rect
       x="256"
       y="120.321"
       style="fill:#3a3839"
       width="16.695"
       height="139.98"
       id="rect2-2" />
    <rect
       x="132.194"
       y="305.86301"
       transform="matrix(0.5,0.866,-0.866,0.5,399.932,58.9793)"
       style="fill:#444242"
       width="33.387001"
       height="139.967"
       id="rect4" />
    <rect
       x="293.125"
       y="359.13"
       transform="matrix(0.866,0.5,-0.5,0.866,236.5654,-131.205)"
       style="fill:#3a3839"
       width="139.967"
       height="33.387001"
       id="rect5" />
    <path
       style="background-color:#ffffff00;fill:#439de2;fill-opacity:1"
       d="m 456.843,485.07 c -9.538,0 -18.951,-2.501 -27.432,-7.398 v 0 c -12.733,-7.351 -21.842,-19.221 -25.646,-33.424 -3.805,-14.201 -1.853,-29.035 5.499,-41.769 7.351,-12.732 19.221,-21.841 33.424,-25.646 14.201,-3.806 29.034,-1.853 41.769,5.499 12.732,7.351 21.841,19.221 25.646,33.424 3.805,14.202 1.853,29.035 -5.499,41.769 -7.351,12.733 -19.221,21.842 -33.424,25.646 -4.742,1.27 -9.557,1.899 -14.337,1.899 z"
       id="path7-3" />
    <path
       style="background-color:#ffffff00;fill:#eda74a;fill-opacity:1"
       d="m 256.001,137.021 c -30.352,0 -55.044,-24.693 -55.044,-55.044 0,-30.351 24.693,-55.044 55.044,-55.044 30.351,0 55.044,24.693 55.044,55.044 0,30.351 -24.693,55.044 -55.044,55.044 z"
       id="path5-4" />
    <path
       style="background-color:#ffffff00;fill:#53acb1;fill-opacity:1"
       d="m 55.158,485.07 c -4.781,0 -9.594,-0.629 -14.336,-1.9 C 26.619,479.365 14.75,470.256 7.398,457.524 0.046,444.792 -1.906,429.957 1.899,415.755 c 3.805,-14.203 12.914,-26.072 25.646,-33.424 12.731,-7.352 27.567,-9.304 41.769,-5.499 14.203,3.805 26.072,12.914 33.424,25.646 7.352,12.732 9.304,27.567 5.499,41.769 -3.805,14.203 -12.914,26.072 -25.646,33.424 -8.481,4.897 -17.896,7.399 -27.433,7.399 z"
       id="path6-7" />
    <path
       style="fill:#f74d37"
       d="m 256.001,384.379 c -38.81,0 -70.384,-31.575 -70.384,-70.384 0,-38.809 31.575,-70.384 70.384,-70.384 38.809,0 70.384,31.575 70.384,70.384 0,38.809 -31.575,70.384 -70.384,70.384 z"
       id="path4-9" />
  </g>
</svg>
