<?xml version="1.0" encoding="UTF-8" standalone="no"?>
<svg
   width="100%"
   height="100%"
   viewBox="0 0 818 460"
   style="background-color: #ffffff00"
   version="1.1"
   id="svg382"
   sodipodi:docname="index-nostructures.svg"
   inkscape:version="1.4.2 (ebf0e940, 2025-05-08)"
   xmlns:inkscape="http://www.inkscape.org/namespaces/inkscape"
   xmlns:sodipodi="http://sodipodi.sourceforge.net/DTD/sodipodi-0.dtd"
   xmlns="http://www.w3.org/2000/svg"
   xmlns:svg="http://www.w3.org/2000/svg">
  <g
     id="organic1"
     onclick="window.location.href = 'index-o1.svg'"
     onmouseover="document.getElementById('goback-box').setAttribute('opacity','0.5');"
     onmouseout="document.getElementById('goback-box').setAttribute('opacity','1')">
    <path
       stroke="none"
       fill="#999999"
       transform="matrix(0.05 0 0 0.05 -10 -11)"
       d="M 395.9,1492.34 C 395.9,1492.34 395.9,1302.37 395.9,1302.37 C 395.9,1228.92 455.513,1169.31 528.955,1169.31 C 528.955,1169.31 1775.84,1169.31 1775.84,1169.31 C 1849.29,1169.31 1908.9,1228.92 1908.9,1302.37 C 1908.9,1302.37 1908.9,1492.34 1908.9,1492.34 C 1908.9,1565.79 1849.29,1625.4 1775.84,1625.4 C 1775.84,1625.4 528.955,1625.4 528.955,1625.4 C 455.513,1625.4 395.9,1565.79 395.9,1492.34 "
       id="goback-box" />
    <text
       x="14.379601"
       y="61.764999"
       stroke="none"
       fill="#000000"
       font-style="normal"
       font-weight="bold"
       font-size="10px"
       font-family="Helvetica"
       id="gobacktext"
       style="stroke-width:0.05">Organic I only</text>
    <path
       stroke="#999999"
       stroke-width="1"
       transform="matrix(0.05 0 0 0.05 -10 -11)"
       d="M 395.9,1492.34 C 395.9,1492.34 395.9,1302.37 395.9,1302.37 C 395.9,1228.92 455.513,1169.31 528.955,1169.31 C 528.955,1169.31 1775.84,1169.31 1775.84,1169.31 C 1849.29,1169.31 1908.9,1228.92 1908.9,1302.37 C 1908.9,1302.37 1908.9,1492.34 1908.9,1492.34 C 1908.9,1565.79 1849.29,1625.4 1775.84,1625.4 C 1775.84,1625.4 528.955,1625.4 528.955,1625.4 C 455.513,1625.4 395.9,1565.79 395.9,1492.34 "
       onclick="history.back()"
       style="opacity:0"
       id="goback-link" />
  </g>
  <path
     stroke="#000000"
     stroke-width="22"
     fill="none"
     transform="matrix(0.05 0 0 0.05 -10 -11)"
     d="M 16494.7,9367.47 C 16494.7,9367.47 16494.7,284.602 16494.7,284.602 C 16494.7,284.602 268.683,284.602 268.683,284.602 C 268.683,284.602 268.683,9367.47 268.683,9367.47 C 268.683,9367.47 16494.7,9367.47 16494.7,9367.47 "
     id="path85" />
  <text
     x="0"
     y="0"
     stroke="none"
     fill="#0000ff"
     transform="matrix(0.05 0 0 0.05 21.107 117.212)"
     font-style="normal"
     font-weight="bold"
     font-size="200px"
     font-family="Helvetica"
     id="text100">
alkanes</text>
  <text
     x="0"
     y="0"
     stroke="none"
     fill="#0000ff"
     transform="matrix(0.05 0 0 0.05 188.761 95.786)"
     font-style="normal"
     font-weight="bold"
     font-size="200px"
     font-family="Helvetica"
     id="text101">
halides</text>
  <text
     x="0"
     y="0"
     stroke="none"
     fill="#0000ff"
     transform="matrix(0.05 0 0 0.05 310.962 143.602)"
     font-style="normal"
     font-weight="bold"
     font-size="200px"
     font-family="Helvetica"
     id="text102">
alcohols</text>
  <text
     x="0"
     y="0"
     stroke="none"
     fill="#0000ff"
     transform="matrix(0.05 0 0 0.05 316.267 227.733)"
     font-style="normal"
     font-weight="bold"
     font-size="200px"
     font-family="Helvetica"
     id="text103">
ethers</text>
  <text
     x="0"
     y="0"
     stroke="none"
     fill="#0000ff"
     transform="matrix(0.05 0 0 0.05 21.107 152.192)"
     font-style="normal"
     font-weight="bold"
     font-size="200px"
     font-family="Helvetica"
     id="text104">
alkenes</text>
  <text
     x="0"
     y="0"
     stroke="none"
     fill="#0000ff"
     transform="matrix(0.05 0 0 0.05 21.107 227.371)"
     font-style="normal"
     font-weight="bold"
     font-size="200px"
     font-family="Helvetica"
     id="text107">
alkynes</text>
  <text
     x="0"
     y="0"
     stroke="none"
     fill="#0000ff"
     transform="matrix(0.05 0 0 0.05 309.599 267.553)"
     font-style="normal"
     font-weight="bold"
     font-size="200px"
     font-family="Helvetica"
     id="text108">
epoxides</text>
  <text
     x="0"
     y="0"
     stroke="none"
     fill="#0000ff"
     transform="matrix(0.05 0 0 0.05 12.5669 183.879)"
     font-style="normal"
     font-weight="bold"
     font-size="200px"
     font-family="Helvetica"
     id="text111">
conjugated</text>
  <text
     x="0"
     y="0"
     stroke="none"
     fill="#0000ff"
     transform="matrix(0.05 0 0 0.05 23.3946 194.429)"
     font-style="normal"
     font-weight="bold"
     font-size="200px"
     font-family="Helvetica"
     id="text112">
dienes</text>
  <text
     x="0"
     y="0"
     stroke="none"
     fill="#0000ff"
     transform="matrix(0.05 0 0 0.05 430.837 138.781)"
     font-style="normal"
     font-weight="bold"
     font-size="200px"
     font-family="Helvetica"
     id="text125">
ketones</text>
  <text
     x="0"
     y="0"
     stroke="none"
     fill="#0000ff"
     transform="matrix(0.05 0 0 0.05 425.452 176.673)"
     font-style="normal"
     font-weight="bold"
     font-size="200px"
     font-family="Helvetica"
     id="text139">
aldehydes</text>
  <text
     x="0"
     y="0"
     stroke="none"
     fill="#0000ff"
     transform="matrix(0.05 0 0 0.05 417.024 372.294)"
     font-style="normal"
     font-weight="bold"
     font-size="200px"
     font-family="Helvetica"
     id="text140">
enones</text>
  <text
     x="0"
     y="0"
     stroke="none"
     fill="#0000ff"
     transform="matrix(0.05 0 0 0.05 325.712 70.7566)"
     font-style="normal"
     font-weight="bold"
     font-size="200px"
     font-family="Helvetica"
     id="text141">
amines</text>
  <text
     x="0"
     y="0"
     stroke="none"
     fill="#0000ff"
     transform="matrix(0.05 0 0 0.05 755.425 86.9984)"
     font-style="normal"
     font-weight="bold"
     font-size="200px"
     font-family="Helvetica"
     id="text144">
nitriles</text>
  <text
     x="0"
     y="0"
     stroke="none"
     fill="#0000ff"
     transform="matrix(0.05 0 0 0.05 142.012 204.411)"
     font-style="normal"
     font-weight="bold"
     font-size="200px"
     font-family="Helvetica"
     id="text152">
organocuprates</text>
  <text
     x="0"
     y="0"
     stroke="none"
     fill="#0000ff"
     transform="matrix(0.05 0 0 0.05 159.519 215.136)"
     font-style="normal"
     font-weight="bold"
     font-size="200px"
     font-family="Helvetica"
     id="text153">
(Gilman)</text>
  <text
     x="0"
     y="0"
     stroke="none"
     fill="#0000ff"
     transform="matrix(0.05 0 0 0.05 550.872 185.649)"
     font-style="normal"
     font-weight="bold"
     font-size="200px"
     font-family="Helvetica"
     id="text154">
acids</text>
  <text
     x="0"
     y="0"
     stroke="none"
     fill="#0000ff"
     transform="matrix(0.05 0 0 0.05 432.949 265.419)"
     font-style="normal"
     font-weight="bold"
     font-size="200px"
     font-family="Helvetica"
     id="text169">
acetals</text>
  <text
     x="0"
     y="0"
     stroke="none"
     fill="#0000ff"
     transform="matrix(0.05 0 0 0.05 421.094 219.15)"
     font-style="normal"
     font-weight="bold"
     font-size="200px"
     font-family="Helvetica"
     id="text170">
hemiacetals</text>
  <text
     x="0"
     y="0"
     stroke="none"
     fill="#0000ff"
     transform="matrix(0.05 0 0 0.05 607.892 124.394)"
     font-style="normal"
     font-weight="bold"
     font-size="200px"
     font-family="Helvetica"
     id="text171">
esters</text>
  <text
     x="0"
     y="0"
     stroke="none"
     fill="#0000ff"
     transform="matrix(0.05 0 0 0.05 607.833 159.365)"
     font-style="normal"
     font-weight="bold"
     font-size="200px"
     font-family="Helvetica"
     id="text175">
acid </text>
  <text
     x="0"
     y="0"
     stroke="none"
     fill="#0000ff"
     transform="matrix(0.05 0 0 0.05 630.621 159.365)"
     font-style="normal"
     font-weight="bold"
     font-size="200px"
     font-family="Helvetica"
     id="text176">
chlorides</text>
  <text
     x="0"
     y="0"
     stroke="none"
     fill="#0000ff"
     transform="matrix(0.05 0 0 0.05 607.833 197.777)"
     font-style="normal"
     font-weight="bold"
     font-size="200px"
     font-family="Helvetica"
     id="text187">
anhydrides</text>
  <text
     x="0"
     y="0"
     stroke="none"
     fill="#0000ff"
     transform="matrix(0.05 0 0 0.05 601.239 66.5861)"
     font-style="normal"
     font-weight="bold"
     font-size="200px"
     font-family="Helvetica"
     id="text192">
amides</text>
  <text
     x="0"
     y="0"
     stroke="none"
     fill="#000000"
     transform="matrix(0.05 0 0 0.05 151.141 179.941)"
     font-style="normal"
     font-weight="bold"
     font-size="200px"
     font-family="Helvetica"
     id="text197">
organometallic </text>
  <text
     x="0"
     y="0"
     stroke="none"
     fill="#000000"
     transform="matrix(0.05 0 0 0.05 225.048 179.941)"
     font-style="normal"
     font-weight="bold"
     font-size="200px"
     font-family="Helvetica"
     id="text198">
reagents</text>
  <text
     x="0"
     y="0"
     stroke="none"
     fill="#0000ff"
     transform="matrix(0.05 0 0 0.05 485.803 372.294)"
     font-style="normal"
     font-weight="bold"
     font-size="200px"
     font-family="Helvetica"
     id="text205">
malonic </text>
  <text
     x="0"
     y="0"
     stroke="none"
     fill="#0000ff"
     transform="matrix(0.05 0 0 0.05 526.37 372.294)"
     font-style="normal"
     font-weight="bold"
     font-size="200px"
     font-family="Helvetica"
     id="text206">
ester</text>
  <text
     x="0"
     y="0"
     stroke="none"
     fill="#0000ff"
     transform="matrix(0.05 0 0 0.05 574.397 372.294)"
     font-style="normal"
     font-weight="bold"
     font-size="200px"
     font-family="Helvetica"
     id="text207">
acetoacetic </text>
  <text
     x="0"
     y="0"
     stroke="none"
     fill="#0000ff"
     transform="matrix(0.05 0 0 0.05 631.653 372.294)"
     font-style="normal"
     font-weight="bold"
     font-size="200px"
     font-family="Helvetica"
     id="text208">
ester</text>
  <text
     x="0"
     y="0"
     stroke="none"
     fill="#0000ff"
     transform="matrix(0.05 0 0 0.05 18.5752 263.166)"
     font-style="normal"
     font-weight="bold"
     font-size="200px"
     font-family="Helvetica"
     id="text209">
aromatic</text>
  <text
     x="0"
     y="0"
     stroke="none"
     fill="#0000ff"
     transform="matrix(0.05 0 0 0.05 202.808 339.475)"
     font-style="normal"
     font-weight="bold"
     font-size="200px"
     font-family="Helvetica"
     id="text210">
azides</text>
  <text
     x="0"
     y="0"
     stroke="none"
     fill="#0000ff"
     transform="matrix(0.05 0 0 0.05 135.069 233.22)"
     font-style="normal"
     font-weight="bold"
     font-size="200px"
     font-family="Helvetica"
     id="text226">
organomagnesium</text>
  <text
     x="0"
     y="0"
     stroke="none"
     fill="#0000ff"
     transform="matrix(0.05 0 0 0.05 155.354 243.945)"
     font-style="normal"
     font-weight="bold"
     font-size="200px"
     font-family="Helvetica"
     id="text227">
(Grignard)</text>
  <text
     x="0"
     y="0"
     stroke="none"
     fill="#0000ff"
     transform="matrix(0.05 0 0 0.05 146.468 265.521)"
     font-style="normal"
     font-weight="bold"
     font-size="200px"
     font-family="Helvetica"
     id="text228">
organolithium</text>
  <path
     stroke="#000000"
     stroke-width="22"
     fill="none"
     transform="matrix(0.05 0 0 0.05 -10 -11)"
     d="M 2784.59,5687.66 C 2784.59,5687.66 2784.59,3682.97 2784.59,3682.97 C 2784.59,3609.53 2844.2,3549.92 2917.64,3549.92 C 2917.64,3549.92 5690.57,3549.92 5690.57,3549.92 C 5764.02,3549.92 5823.63,3609.53 5823.63,3682.97 C 5823.63,3682.97 5823.63,5687.66 5823.63,5687.66 C 5823.63,5761.11 5764.02,5820.72 5690.57,5820.72 C 5690.57,5820.72 2917.64,5820.72 2917.64,5820.72 C 2844.2,5820.72 2784.59,5761.11 2784.59,5687.66 "
     id="path229" />
  <path
     stroke="#000000"
     stroke-width="22"
     fill="none"
     transform="matrix(0.05 0 0 0.05 -10 -11)"
     d="M 2784.59,3330.56 C 2784.59,3330.56 2784.59,2060.19 2784.59,2060.19 C 2784.59,1986.75 2844.2,1927.14 2917.64,1927.14 C 2917.64,1927.14 5690.57,1927.14 5690.57,1927.14 C 5764.02,1927.14 5823.63,1986.75 5823.63,2060.19 C 5823.63,2060.19 5823.63,3330.56 5823.63,3330.56 C 5823.63,3404.01 5764.02,3463.62 5690.57,3463.62 C 5690.57,3463.62 2917.64,3463.62 2917.64,3463.62 C 2844.2,3463.62 2784.59,3404.01 2784.59,3330.56 "
     id="path230" />
  <path
     stroke="#000000"
     stroke-width="22"
     fill="none"
     transform="matrix(0.05 0 0 0.05 -10 -11)"
     d="M 367.279,5836.07 C 367.279,5836.07 367.279,1895.3 367.279,1895.3 C 367.279,1821.86 426.892,1762.24 500.334,1762.24 C 500.334,1762.24 2512.94,1762.24 2512.94,1762.24 C 2586.39,1762.24 2646,1821.86 2646,1895.3 C 2646,1895.3 2646,5836.07 2646,5836.07 C 2646,5909.51 2586.39,5969.12 2512.94,5969.12 C 2512.94,5969.12 500.334,5969.12 500.334,5969.12 C 426.892,5969.12 367.279,5909.51 367.279,5836.07 "
     id="path231" />
  <text
     x="0"
     y="0"
     stroke="none"
     fill="#000000"
     transform="matrix(0.05 0 0 0.05 25.4319 90.8954)"
     font-style="normal"
     font-weight="bold"
     font-size="200px"
     font-family="Helvetica"
     id="text231">
hydrocarbons</text>
  <text
     x="0"
     y="0"
     stroke="none"
     fill="#0000ff"
     transform="matrix(0.05 0 0 0.05 61.382 340.348)"
     font-style="normal"
     font-weight="bold"
     font-size="200px"
     font-family="Helvetica"
     id="text232">
thiols</text>
  <text
     x="0"
     y="0"
     stroke="none"
     fill="#0000ff"
     transform="matrix(0.05 0 0 0.05 106.778 353.443)"
     font-style="normal"
     font-weight="bold"
     font-size="200px"
     font-family="Helvetica"
     id="text234">
sulfonic</text>
  <text
     x="0"
     y="0"
     stroke="none"
     fill="#0000ff"
     transform="matrix(0.05 0 0 0.05 113.16 363.493)"
     font-style="normal"
     font-weight="bold"
     font-size="200px"
     font-family="Helvetica"
     id="text235">
acids</text>
  <text
     x="0"
     y="0"
     stroke="none"
     fill="#0000ff"
     transform="matrix(0.05 0 0 0.05 160.904 342.094)"
     font-style="normal"
     font-weight="bold"
     font-size="200px"
     font-family="Helvetica"
     id="text242">
ylides</text>
  <path
     stroke="#999999"
     stroke-width="22"
     fill="none"
     transform="matrix(0.05 0 0 0.05 -10 -11)"
     d="M 372.599,8586.84 C 372.599,8586.84 372.599,6156.37 372.599,6156.37 C 372.599,6082.93 432.212,6023.32 505.655,6023.32 C 505.655,6023.32 7415.6,6023.32 7415.6,6023.32 C 7489.05,6023.32 7548.66,6082.93 7548.66,6156.37 C 7548.66,6156.37 7548.66,8586.84 7548.66,8586.84 C 7548.66,8660.29 7489.05,8719.9 7415.6,8719.9 C 7415.6,8719.9 505.655,8719.9 505.655,8719.9 C 432.212,8719.9 372.599,8660.29 372.599,8586.84 "
     id="path247" />
  <text
     x="0"
     y="0"
     stroke="none"
     fill="#999999"
     transform="matrix(0.05 0 0 0.05 17.2876 305.307)"
     font-style="normal"
     font-weight="bold"
     font-size="200px"
     font-family="Helvetica"
     id="text247">
rare</text>
  <text
     x="0"
     y="0"
     stroke="none"
     fill="#0000ff"
     transform="matrix(0.05 0 0 0.05 257.807 351.697)"
     font-style="normal"
     font-weight="bold"
     font-size="200px"
     font-family="Helvetica"
     id="text258">
nitro</text>
  <text
     x="0"
     y="0"
     stroke="none"
     fill="#0000ff"
     transform="matrix(0.05 0 0 0.05 300.584 345.01)"
     font-style="normal"
     font-weight="bold"
     font-size="200px"
     font-family="Helvetica"
     id="text267">
diazonium</text>
  <text
     x="0"
     y="0"
     stroke="none"
     fill="#0000ff"
     transform="matrix(0.05 0 0 0.05 316.69 355.06)"
     font-style="normal"
     font-weight="bold"
     font-size="200px"
     font-family="Helvetica"
     id="text268">
salt</text>
  <text
     x="0"
     y="0"
     stroke="none"
     fill="#000000"
     transform="matrix(0.05 0 0 0.05 142.069 156.023)"
     font-style="normal"
     font-weight="normal"
     font-size="200px"
     font-family="Helvetica"
     id="text274">
alkyl</text>
  <text
     x="0"
     y="0"
     stroke="none"
     fill="#000000"
     transform="matrix(0.05 0 0 0.05 178.735 156.023)"
     font-style="normal"
     font-weight="normal"
     font-size="200px"
     font-family="Helvetica"
     id="text275">
aryl</text>
  <text
     x="0"
     y="0"
     stroke="none"
     fill="#000000"
     transform="matrix(0.05 0 0 0.05 209.29 156.023)"
     font-style="normal"
     font-weight="normal"
     font-size="200px"
     font-family="Helvetica"
     id="text276">
vinylic</text>
  <path
     stroke="#999999"
     stroke-width="22"
     fill="none"
     transform="matrix(0.05 0 0 0.05 -10 -11)"
     d="M 7670.88,7741.02 C 7670.88,7741.02 7670.88,6156.37 7670.88,6156.37 C 7670.88,6082.93 7730.49,6023.32 7803.93,6023.32 C 7803.93,6023.32 13608.8,6023.32 13608.8,6023.32 C 13682.2,6023.32 13741.8,6082.93 13741.8,6156.37 C 13741.8,6156.37 13741.8,7741.02 13741.8,7741.02 C 13741.8,7814.47 13682.2,7874.08 13608.8,7874.08 C 13608.8,7874.08 7803.93,7874.08 7803.93,7874.08 C 7730.49,7874.08 7670.88,7814.47 7670.88,7741.02 "
     id="path284" />
  <text
     x="0"
     y="0"
     stroke="none"
     fill="#999999"
     transform="matrix(0.05 0 0 0.05 377.37 301.815)"
     font-style="normal"
     font-weight="bold"
     font-size="200px"
     font-family="Helvetica"
     id="text284">
‘advanced’ </text>
  <text
     x="0"
     y="0"
     stroke="none"
     fill="#999999"
     transform="matrix(0.05 0 0 0.05 431.291 301.815)"
     font-style="normal"
     font-weight="bold"
     font-size="200px"
     font-family="Helvetica"
     id="text285">
C=O </text>
  <text
     x="0"
     y="0"
     stroke="none"
     fill="#999999"
     transform="matrix(0.05 0 0 0.05 454.909 301.815)"
     font-style="normal"
     font-weight="bold"
     font-size="200px"
     font-family="Helvetica"
     id="text286">
containing</text>
  <text
     x="0"
     y="0"
     stroke="none"
     fill="#0000ff"
     transform="matrix(0.05 0 0 0.05 153.353 417.829)"
     font-style="normal"
     font-weight="bold"
     font-size="200px"
     font-family="Helvetica"
     id="text287">
imines</text>
  <text
     x="0"
     y="0"
     stroke="none"
     fill="#0000ff"
     transform="matrix(0.05 0 0 0.05 91.6576 417.829)"
     font-style="normal"
     font-weight="bold"
     font-size="200px"
     font-family="Helvetica"
     id="text291">
enamines</text>
  <text
     x="0"
     y="0"
     stroke="none"
     fill="#0000ff"
     transform="matrix(0.05 0 0 0.05 198.389 416.956)"
     font-style="normal"
     font-weight="bold"
     font-size="200px"
     font-family="Helvetica"
     id="text297">
oximes</text>
  <path
     stroke="#000000"
     stroke-width="22"
     fill="none"
     transform="matrix(0.05 0 0 0.05 -10 -11)"
     d="M 5990.94,2038.16 C 5990.94,2038.16 5990.94,1018 5990.94,1018 C 5990.94,944.553 6050.55,884.94 6124,884.94 C 6124,884.94 16019.6,884.94 16019.6,884.94 C 16093,884.94 16152.7,944.553 16152.7,1018 C 16152.7,1018 16152.7,2038.16 16152.7,2038.16 C 16152.7,2111.61 16093,2171.22 16019.6,2171.22 C 16019.6,2171.22 6124,2171.22 6124,2171.22 C 6050.55,2171.22 5990.94,2111.61 5990.94,2038.16 "
     id="path303" />
  <text
     x="0"
     y="0"
     stroke="none"
     fill="#000000"
     transform="matrix(0.05 0 0 0.05 294.691 43.955)"
     font-style="italic"
     font-weight="normal"
     font-size="200px"
     font-family="Helvetica Oblique"
     id="text303">
N</text>
  <text
     x="0"
     y="0"
     stroke="none"
     fill="#000000"
     transform="matrix(0.05 0 0 0.05 301.913 43.955)"
     font-style="normal"
     font-weight="bold"
     font-size="200px"
     font-family="Helvetica"
     id="text304">
-containing</text>
  <path
     stroke="#000000"
     stroke-width="22"
     fill="none"
     transform="matrix(0.05 0 0 0.05 -10 -11)"
     d="M 12067,4447.64 C 12067,4447.64 12067,658.895 12067,658.895 C 12067,585.452 12126.6,525.84 12200.1,525.84 C 12200.1,525.84 16124.4,525.84 16124.4,525.84 C 16197.8,525.84 16257.4,585.452 16257.4,658.895 C 16257.4,658.895 16257.4,4447.64 16257.4,4447.64 C 16257.4,4521.09 16197.8,4580.7 16124.4,4580.7 C 16124.4,4580.7 12200.1,4580.7 12200.1,4580.7 C 12126.6,4580.7 12067,4521.09 12067,4447.64 "
     id="path304" />
  <text
     x="0"
     y="0"
     stroke="none"
     fill="#000000"
     transform="matrix(0.05 0 0 0.05 596.452 26.711)"
     font-style="normal"
     font-weight="bold"
     font-size="200px"
     font-family="Helvetica"
     id="text305">
acid </text>
  <text
     x="0"
     y="0"
     stroke="none"
     fill="#000000"
     transform="matrix(0.05 0 0 0.05 619.24 26.711)"
     font-style="normal"
     font-weight="bold"
     font-size="200px"
     font-family="Helvetica"
     id="text306">
derivatives</text>
  <path
     stroke="#000000"
     stroke-width="22"
     fill="none"
     transform="matrix(0.05 0 0 0.05 -10 -11)"
     d="M 5990.94,5703.68 C 5990.94,5703.68 5990.94,2391.57 5990.94,2391.57 C 5990.94,2318.13 6050.55,2258.52 6124,2258.52 C 6124,2258.52 16019.6,2258.52 16019.6,2258.52 C 16093,2258.52 16152.7,2318.13 16152.7,2391.57 C 16152.7,2391.57 16152.7,5703.68 16152.7,5703.68 C 16152.7,5777.13 16093,5836.74 16019.6,5836.74 C 16019.6,5836.74 6124,5836.74 6124,5836.74 C 6050.55,5836.74 5990.94,5777.13 5990.94,5703.68 "
     id="path306" />
  <text
     x="0"
     y="0"
     stroke="none"
     fill="#000000"
     transform="matrix(0.05 0 0 0.05 294.583 114.101)"
     font-style="italic"
     font-weight="normal"
     font-size="200px"
     font-family="Helvetica Oblique"
     id="text307">
O</text>
  <text
     x="0"
     y="0"
     stroke="none"
     fill="#000000"
     transform="matrix(0.05 0 0 0.05 302.362 114.101)"
     font-style="normal"
     font-weight="bold"
     font-size="200px"
     font-family="Helvetica"
     id="text308">
-containing</text>
  <text
     x="0"
     y="0"
     stroke="none"
     fill="#0000ff"
     transform="matrix(0.05 0 0 0.05 253.556 416.746)"
     font-style="normal"
     font-weight="bold"
     font-size="200px"
     font-family="Helvetica"
     id="text345">
azo</text>
  <text
     x="0"
     y="0"
     stroke="none"
     fill="#000000"
     transform="matrix(0.05 0 0 0.05 11.735 21.13)"
     font-style="normal"
     font-weight="bold"
     font-size="320px"
     font-family="Helvetica"
     id="text346">
Sophomore </text>
  <text
     x="0"
     y="0"
     stroke="none"
     fill="#000000"
     transform="matrix(0.05 0 0 0.05 105.071 21.13)"
     font-style="normal"
     font-weight="bold"
     font-size="320px"
     font-family="Helvetica"
     id="text347">
Organic </text>
  <text
     x="0"
     y="0"
     stroke="none"
     fill="#000000"
     transform="matrix(0.05 0 0 0.05 169.977 21.13)"
     font-style="normal"
     font-weight="bold"
     font-size="320px"
     font-family="Helvetica"
     id="text348">
Chemistry</text>
  <text
     x="0"
     y="0"
     stroke="none"
     fill="#999999"
     transform="matrix(0.05 0 0 0.05 11.9381 39.085)"
     font-style="normal"
     font-weight="normal"
     font-size="320px"
     font-family="Helvetica"
     id="text349">
click </text>
  <text
     x="0"
     y="0"
     stroke="none"
     fill="#999999"
     transform="matrix(0.05 0 0 0.05 47.4928 39.085)"
     font-style="normal"
     font-weight="normal"
     font-size="320px"
     font-family="Helvetica"
     id="text350">
on </text>
  <text
     x="0"
     y="0"
     stroke="none"
     fill="#999999"
     transform="matrix(0.05 0 0 0.05 69.735 39.085)"
     font-style="normal"
     font-weight="normal"
     font-size="320px"
     font-family="Helvetica"
     id="text351">
a </text>
  <text
     x="0"
     y="0"
     stroke="none"
     fill="#999999"
     transform="matrix(0.05 0 0 0.05 83.0787 39.085)"
     font-style="normal"
     font-weight="normal"
     font-size="320px"
     font-family="Helvetica"
     id="text352">
functional </text>
  <text
     x="0"
     y="0"
     stroke="none"
     fill="#999999"
     transform="matrix(0.05 0 0 0.05 156.016 39.085)"
     font-style="normal"
     font-weight="normal"
     font-size="320px"
     font-family="Helvetica"
     id="text353">
group</text>
  <text
     x="0"
     y="0"
     stroke="none"
     fill="#000000"
     transform="matrix(0.05 0 0 0.05 249.799 156.023)"
     font-style="normal"
     font-weight="normal"
     font-size="200px"
     font-family="Helvetica"
     id="text358">
allylic</text>
  <text
     x="0"
     y="0"
     stroke="none"
     fill="#0000ff"
     transform="matrix(0.05 0 0 0.05 319.467 185.182)"
     font-style="normal"
     font-weight="bold"
     font-size="200px"
     font-family="Helvetica"
     id="text364">
diols</text>
  <text
     x="0"
     y="0"
     stroke="none"
     fill="#0000ff"
     transform="matrix(0.05 0 0 0.05 16.6245 417.055)"
     font-style="normal"
     font-weight="bold"
     font-size="200px"
     font-family="Helvetica"
     id="text368">
bromohydrins</text>
  <text
     x="0"
     y="0"
     stroke="none"
     fill="#0000ff"
     transform="matrix(0.05 0 0 0.05 318.916 416.674)"
     font-style="normal"
     font-weight="bold"
     font-size="200px"
     font-family="Helvetica"
     id="text378">
phenols</text>
  <g
     id="nostructures"
     onclick="window.location.href = 'index.svg'"
     transform="translate(-4.490153,381.05692)">
    <text
       x="18.000504"
       y="55.14151"
       stroke="none"
       fill="#000000"
       font-style="normal"
       font-weight="bold"
       font-size="200px"
       font-family="Helvetica"
       id="gobacktext-7"
       style="font-style:normal;font-variant:normal;font-weight:bold;font-stretch:normal;font-size:10px;font-family:Helvetica;-inkscape-font-specification:'Helvetica, Bold';font-variant-ligatures:normal;font-variant-caps:normal;font-variant-numeric:normal;font-variant-east-asian:normal;fill:#0088d0;fill-opacity:0.68000001;stroke:none;stroke-width:0.05"
       inkscape:label="noreagents-text"><tspan
         sodipodi:role="line"
         id="tspan1"
         x="18.000504"
         y="55.14151">show</tspan></text>
    <path
       stroke="none"
       fill="#999999"
       d="m 9.795,54.694678 c 0,0 0,-5.427567 0,-5.427567 0,-2.098514 1.679048,-3.801611 3.747601,-3.801611 0,0 35.119514,0 35.119514,0 2.068778,0 3.747742,1.703097 3.747742,3.801611 0,0 0,5.427567 0,5.427567 0,2.098514 -1.678964,3.801611 -3.747742,3.801611 0,0 -35.119514,0 -35.119514,0 -2.068553,0 -3.747601,-1.703097 -3.747601,-3.801611"
       id="goback-box-8"
       style="fill:#999999;fill-opacity:0.336842;stroke-width:0.0283675"
       inkscape:label="noreagents-box" />
  </g>
  <g
     id="nonames"
     onclick="window.location.href = 'index-nonames.svg'"
     transform="translate(-4.6856272,382.9067)">
    <text
       x="19.041889"
       y="67.610527"
       stroke="none"
       fill="#000000"
       font-style="normal"
       font-weight="bold"
       font-size="200px"
       font-family="Helvetica"
       id="gobacktext-7-8"
       style="font-style:normal;font-weight:bold;font-size:10px;font-family:Helvetica;fill:#000000;fill-opacity:0.443609;stroke:none;stroke-width:0.05"
       inkscape:label="noproducts-text"><tspan
         sodipodi:role="line"
         id="tspan2-5"
         x="19.041889"
         y="67.610527"
         style="font-style:normal;font-variant:normal;font-weight:bold;font-stretch:normal;font-size:8px;font-family:Helvetica;-inkscape-font-specification:'Helvetica, Bold';font-variant-ligatures:normal;font-variant-caps:normal;font-variant-numeric:normal;font-variant-east-asian:normal;fill:#000000;fill-opacity:0.5;stroke-width:0.05">names</tspan></text>
    <rect
       style="fill:#000000;fill-opacity:0.821053;fill-rule:evenodd;stroke:#a13033;stroke-width:0;stroke-linecap:round;stroke-miterlimit:2;stroke-dasharray:none;paint-order:markers fill stroke"
       id="rect3-9"
       width="31.666824"
       height="0.9773711"
       x="16.066372"
       y="64.987999"
       inkscape:label="noproducts-line" />
    <path
       stroke="none"
       fill="#999999"
       d="m 10.136392,68.163695 c 0,0 0,-5.427567 0,-5.427567 0,-2.098514 1.679048,-3.801611 3.747601,-3.801611 0,0 35.119514,0 35.119514,0 2.068778,0 3.747742,1.703097 3.747742,3.801611 0,0 0,5.427567 0,5.427567 0,2.098514 -1.678964,3.801611 -3.747742,3.801611 0,0 -35.119514,0 -35.119514,0 -2.068553,0 -3.747601,-1.703097 -3.747601,-3.801611"
       id="goback-box-8-6"
       style="fill:#999999;fill-opacity:0.336842;stroke-width:0.0283675"
       inkscape:label="noproducts-box" />
  </g>
  <text
     x="822.84332"
     y="415.79849"
     stroke="none"
     fill="#000000"
     transform="matrix(0.92407999,-0.00322566,0.00377741,1.0821442,0,0)"
     font-style="italic"
     font-weight="bold"
     font-size="8.25806px"
     font-family="'Helvetica Oblique'"
     id="text11"
     style="opacity:1;fill:#00009a;fill-opacity:0.651128;stroke-width:0.0412903">chemisfun</text>
  <g
     id="overlay-box"
     style="opacity:0"
     transform="matrix(0.31364504,0,0,0.8007311,650.50736,385.81436)">
    <rect
       style="fill:#609975;fill-opacity:0.2;stroke:#609970;stroke-width:0;stroke-linecap:round;stroke-opacity:0.657143;paint-order:fill markers stroke"
       id="rect285"
       width="164.84744"
       height="59.583412"
       x="329.69489"
       y="23.171328" />
  </g>
  <g
     id="overlay"
     onclick="window.location.href = 'about.svg'"
     onmouseover="this.ownerDocument.getElementById('overlay-box').style.opacity='0.5'"
     onmouseout="this.ownerDocument.getElementById('overlay-box').style.opacity='0'"
     transform="matrix(0.76550767,-0.0030054,0.00267214,0.86098131,195.61318,22.784653)">
    <rect
       style="opacity:0.5;fill:#ffffff;fill-opacity:0;stroke-linecap:round;stroke-opacity:0.657143;paint-order:stroke fill markers"
       id="rect2"
       width="65.93074"
       height="55.035408"
       x="733.06049"
       y="445.87061" />
  </g>
  <g
     id="g1"
     transform="matrix(0.0625,0,0,0.0625,764.65732,406.62566)">
    <rect
       x="239.31"
       y="120.321"
       style="fill:#444242"
       width="33.389"
       height="139.98"
       id="rect1" />
    <rect
       x="256"
       y="120.321"
       style="fill:#3a3839"
       width="16.695"
       height="139.98"
       id="rect2-2" />
    <rect
       x="132.194"
       y="305.86301"
       transform="matrix(0.5,0.866,-0.866,0.5,399.932,58.9793)"
       style="fill:#444242"
       width="33.387001"
       height="139.967"
       id="rect4" />
    <rect
       x="293.125"
       y="359.13"
       transform="matrix(0.866,0.5,-0.5,0.866,236.5654,-131.205)"
       style="fill:#3a3839"
       width="139.967"
       height="33.387001"
       id="rect5" />
    <path
       style="background-color:#ffffff00;fill:#439de2;fill-opacity:1"
       d="m 456.843,485.07 c -9.538,0 -18.951,-2.501 -27.432,-7.398 v 0 c -12.733,-7.351 -21.842,-19.221 -25.646,-33.424 -3.805,-14.201 -1.853,-29.035 5.499,-41.769 7.351,-12.732 19.221,-21.841 33.424,-25.646 14.201,-3.806 29.034,-1.853 41.769,5.499 12.732,7.351 21.841,19.221 25.646,33.424 3.805,14.202 1.853,29.035 -5.499,41.769 -7.351,12.733 -19.221,21.842 -33.424,25.646 -4.742,1.27 -9.557,1.899 -14.337,1.899 z"
       id="path7-3" />
    <path
       style="background-color:#ffffff00;fill:#eda74a;fill-opacity:1"
       d="m 256.001,137.021 c -30.352,0 -55.044,-24.693 -55.044,-55.044 0,-30.351 24.693,-55.044 55.044,-55.044 30.351,0 55.044,24.693 55.044,55.044 0,30.351 -24.693,55.044 -55.044,55.044 z"
       id="path5-4" />
    <path
       style="background-color:#ffffff00;fill:#53acb1;fill-opacity:1"
       d="m 55.158,485.07 c -4.781,0 -9.594,-0.629 -14.336,-1.9 C 26.619,479.365 14.75,470.256 7.398,457.524 0.046,444.792 -1.906,429.957 1.899,415.755 c 3.805,-14.203 12.914,-26.072 25.646,-33.424 12.731,-7.352 27.567,-9.304 41.769,-5.499 14.203,3.805 26.072,12.914 33.424,25.646 7.352,12.732 9.304,27.567 5.499,41.769 -3.805,14.203 -12.914,26.072 -25.646,33.424 -8.481,4.897 -17.896,7.399 -27.433,7.399 z"
       id="path6-7" />
    <path
       style="fill:#f74d37"
       d="m 256.001,384.379 c -38.81,0 -70.384,-31.575 -70.384,-70.384 0,-38.809 31.575,-70.384 70.384,-70.384 38.809,0 70.384,31.575 70.384,70.384 0,38.809 -31.575,70.384 -70.384,70.384 z"
       id="path4-9" />
  </g>
  <path
     stroke="none"
     fill="#ffffff"
     opacity="0"
     transform="matrix(0.05 0 0 0.05 -10 -11)"
     d="M 2265.03,3535.78 C 2265.03,3535.78 2265.03,2906.24 2265.03,2906.24 C 2265.03,2906.24 509.3,2906.24 509.3,2906.24 C 509.3,2906.24 509.3,3535.78 509.3,3535.78 C 509.3,3535.78 2265.03,3535.78 2265.03,3535.78 "
     id="path81"
     onclick="window.location.href = 'alkenes.svg'" />
  <path
     stroke="none"
     fill="#ffffff"
     opacity="0"
     transform="matrix(0.05 0 0 0.05 -10 -11)"
     d="M 2265.03,2817.58 C 2265.03,2817.58 2265.03,2188.04 2265.03,2188.04 C 2265.03,2188.04 509.3,2188.04 509.3,2188.04 C 509.3,2188.04 509.3,2817.58 509.3,2817.58 C 509.3,2817.58 2265.03,2817.58 2265.03,2817.58 "
     id="path83"
     onclick="window.location.href = 'alkanes.svg'" />
  <path
     stroke="none"
     fill="#ffffff"
     opacity="0"
     transform="matrix(0.05 0 0 0.05 -10 -11)"
     d="M 2460.64,5009.98 C 2460.64,5009.98 2460.64,4380.44 2460.64,4380.44 C 2460.64,4380.44 395.899,4380.44 395.899,4380.44 C 395.899,4380.44 395.899,5009.98 395.899,5009.98 C 395.899,5009.98 2460.64,5009.98 2460.64,5009.98 "
     id="path75"
     onclick="window.location.href = 'alkynes.svg'" />
  <path
     stroke="none"
     fill="#ffffff"
     opacity="0"
     transform="matrix(0.05 0 0 0.05 -10 -11)"
     d="M 2460.64,5765.98 C 2460.64,5765.98 2460.64,5136.44 2460.64,5136.44 C 2460.64,5136.44 395.899,5136.44 395.899,5136.44 C 395.899,5136.44 395.899,5765.98 395.899,5765.98 C 395.899,5765.98 2460.64,5765.98 2460.64,5765.98 "
     id="path77"
     onclick="window.location.href = 'aromatic.svg'" />
  <path
     stroke="none"
     fill="#ffffff"
     opacity="0"
     transform="matrix(0.05 0 0 0.05 -10 -11)"
     d="M 2460.64,4253.98 C 2460.64,4253.98 2460.64,3624.44 2460.64,3624.44 C 2460.64,3624.44 395.899,3624.44 395.899,3624.44 C 395.899,3624.44 395.899,4253.98 395.899,4253.98 C 395.899,4253.98 2460.64,4253.98 2460.64,4253.98 "
     id="path79"
     onclick="window.location.href = 'dienes.svg'" />
  <path
     stroke="none"
     fill="#ffffff"
     opacity="0"
     transform="matrix(0.05 0 0 0.05 -10 -11)"
     d="M 5602.49,4646.04 C 5602.49,4646.04 5602.49,3927.84 5602.49,3927.84 C 5602.49,3927.84 2872.8,3927.84 2872.8,3927.84 C 2872.8,3927.84 2872.8,4646.04 2872.8,4646.04 C 2872.8,4646.04 5602.49,4646.04 5602.49,4646.04 "
     id="path13"
     onclick="window.location.href = 'organometallics.svg'" />
  <path
     stroke="none"
     fill="#ffffff"
     opacity="0"
     transform="matrix(0.05 0 0 0.05 -10 -11)"
     d="M 5602.49,5169.66 C 5602.49,5169.66 5602.49,4670.51 5602.49,4670.51 C 5602.49,4670.51 2872.8,4670.51 2872.8,4670.51 C 2872.8,4670.51 2872.8,5169.66 2872.8,5169.66 C 2872.8,5169.66 5602.49,5169.66 5602.49,5169.66 "
     id="path15"
     onclick="window.location.href = 'organometallics.svg'" />
  <path
     stroke="none"
     fill="#ffffff"
     opacity="0"
     transform="matrix(0.05 0 0 0.05 -10 -11)"
     d="M 5602.49,5693.29 C 5602.49,5693.29 5602.49,5194.14 5602.49,5194.14 C 5602.49,5194.14 2872.8,5194.14 2872.8,5194.14 C 2872.8,5194.14 2872.8,5693.29 2872.8,5693.29 C 2872.8,5693.29 5602.49,5693.29 5602.49,5693.29 "
     id="path17"
     onclick="window.location.href = 'organometallics.svg'" />
  <path
     stroke="none"
     fill="#ffffff"
     opacity="0"
     transform="matrix(0.05 0 0 0.05 -10 -11)"
     d="M 9092.82,2037.84 C 9092.82,2037.84 9092.82,1189.69 9092.82,1189.69 C 9092.82,1189.69 6670.7,1189.69 6670.7,1189.69 C 6670.7,1189.69 6670.7,2037.84 6670.7,2037.84 C 6670.7,2037.84 9092.82,2037.84 9092.82,2037.84 "
     id="path35"
     onclick="window.location.href = 'amines.svg'" />
  <path
     stroke="none"
     fill="#ffffff"
     opacity="0"
     transform="matrix(0.05 0 0 0.05 -10 -11)"
     d="M 8448.3,5036.57 C 8448.3,5036.57 8448.3,4343.64 8448.3,4343.64 C 8448.3,4343.64 6312.6,4343.64 6312.6,4343.64 C 6312.6,4343.64 6312.6,5036.57 6312.6,5036.57 C 6312.6,5036.57 8448.3,5036.57 8448.3,5036.57 "
     id="path23"
     onclick="window.location.href = 'ethers.svg'" />
  <path
     stroke="none"
     fill="#ffffff"
     opacity="0"
     transform="matrix(0.05 0 0 0.05 -10 -11)"
     d="M 8448.3,5761.14 C 8448.3,5761.14 8448.3,5175.24 8448.3,5175.24 C 8448.3,5175.24 6312.6,5175.24 6312.6,5175.24 C 6312.6,5175.24 6312.6,5761.14 6312.6,5761.14 C 6312.6,5761.14 8448.3,5761.14 8448.3,5761.14 "
     id="path25"
     onclick="window.location.href = 'epoxides.svg'" />
  <path
     stroke="none"
     fill="#ffffff"
     opacity="0"
     transform="matrix(0.05 0 0 0.05 -10 -11)"
     d="M 8278.2,4192.44 C 8278.2,4192.44 8278.2,3493.14 8278.2,3493.14 C 8278.2,3493.14 6312.6,3493.14 6312.6,3493.14 C 6312.6,3493.14 6312.6,4192.44 6312.6,4192.44 C 6312.6,4192.44 8278.2,4192.44 8278.2,4192.44 "
     id="path27"
     onclick="window.location.href = 'alkenes.svg'" />
  <path
     stroke="none"
     fill="#ffffff"
     opacity="0"
     transform="matrix(0.05 0 0 0.05 -10 -11)"
     d="M 8278.2,3455.34 C 8278.2,3455.34 8278.2,2623.74 8278.2,2623.74 C 8278.2,2623.74 6312.6,2623.74 6312.6,2623.74 C 6312.6,2623.74 6312.6,3455.34 6312.6,3455.34 C 6312.6,3455.34 8278.2,3455.34 8278.2,3455.34 "
     id="path29"
     onclick="window.location.href = 'alcohols.svg'" />
  <path
     stroke="none"
     fill="#ffffff"
     opacity="0"
     transform="matrix(0.05 0 0 0.05 -10 -11)"
     d="M 10874.5,4079.04 C 10874.5,4079.04 10874.5,3417.54 10874.5,3417.54 C 10874.5,3417.54 8580.6,3417.54 8580.6,3417.54 C 8580.6,3417.54 8580.6,4079.04 8580.6,4079.04 C 8580.6,4079.04 10874.5,4079.04 10874.5,4079.04 "
     id="path19"
     onclick="window.location.href = 'ketones.svg'" />
  <path
     stroke="none"
     fill="#ffffff"
     opacity="0"
     transform="matrix(0.05 0 0 0.05 -10 -11)"
     d="M 10874.5,3398.64 C 10874.5,3398.64 10874.5,2680.44 10874.5,2680.44 C 10874.5,2680.44 8580.6,2680.44 8580.6,2680.44 C 8580.6,2680.44 8580.6,3398.64 8580.6,3398.64 C 8580.6,3398.64 10874.5,3398.64 10874.5,3398.64 "
     id="path21"
     onclick="window.location.href = 'ketones.svg'" />
  <path
     stroke="none"
     fill="#ffffff"
     opacity="0"
     transform="matrix(0.05 0 0 0.05 -10 -11)"
     d="M 11982.6,4097.94 C 11982.6,4097.94 11982.6,2962.94 11982.6,2962.94 C 11982.6,2962.94 11036.6,2962.94 11036.6,2962.94 C 11036.6,2962.94 11036.6,4097.94 11036.6,4097.94 C 11036.6,4097.94 11982.6,4097.94 11982.6,4097.94 "
     id="path31"
     onclick="window.location.href = 'acids.svg'" />
  <path
     stroke="none"
     fill="#ffffff"
     opacity="0"
     transform="matrix(0.05 0 0 0.05 -10 -11)"
     d="M 11604.6,5780.04 C 11604.6,5780.04 11604.6,4192.44 11604.6,4192.44 C 11604.6,4192.44 8561.7,4192.44 8561.7,4192.44 C 8561.7,4192.44 8561.7,5780.04 8561.7,5780.04 C 8561.7,5780.04 11604.6,5780.04 11604.6,5780.04 "
     id="path33"
     onclick="window.location.href = 'acetals.svg'" />
  <path
     stroke="none"
     fill="#ffffff"
     opacity="0"
     transform="matrix(0.05 0 0 0.05 -10 -11)"
     d="M 14945,2000.04 C 14945,2000.04 14945,1035.14 14945,1035.14 C 14945,1035.14 12189.5,1035.14 12189.5,1035.14 C 12189.5,1035.14 12189.5,2000.04 12189.5,2000.04 C 12189.5,2000.04 14945,2000.04 14945,2000.04 "
     id="path43"
     onclick="window.location.href = 'amides.svg'" />
  <path
     stroke="none"
     fill="#ffffff"
     opacity="0"
     transform="matrix(0.05 0 0 0.05 -10 -11)"
     d="M 16085.5,2000.04 C 16085.5,2000.04 16085.5,1035.14 16085.5,1035.14 C 16085.5,1035.14 15081.2,1035.14 15081.2,1035.14 C 15081.2,1035.14 15081.2,2000.04 15081.2,2000.04 C 15081.2,2000.04 16085.5,2000.04 16085.5,2000.04 "
     id="path45"
     onclick="window.location.href = 'nitriles.svg'" />
  <path
     stroke="none"
     fill="#ffffff"
     opacity="0"
     transform="matrix(0.05 0 0 0.05 -10 -11)"
     d="M 14817.6,4491.53 C 14817.6,4491.53 14817.6,3775.64 14817.6,3775.64 C 14817.6,3775.64 12227.3,3775.64 12227.3,3775.64 C 12227.3,3775.64 12227.3,4491.53 12227.3,4491.53 C 12227.3,4491.53 14817.6,4491.53 14817.6,4491.53 "
     id="path37"
     onclick="window.location.href = 'acidchlorides.svg'" />
  <path
     stroke="none"
     fill="#ffffff"
     opacity="0"
     transform="matrix(0.05 0 0 0.05 -10 -11)"
     d="M 14817.6,3742.52 C 14817.6,3742.52 14817.6,3095.24 14817.6,3095.24 C 14817.6,3095.24 12227.3,3095.24 12227.3,3095.24 C 12227.3,3095.24 12227.3,3742.52 12227.3,3742.52 C 12227.3,3742.52 14817.6,3742.52 14817.6,3742.52 "
     id="path39"
     onclick="window.location.href = 'acidchlorides.svg'" />
  <path
     stroke="none"
     fill="#ffffff"
     opacity="0"
     transform="matrix(0.05 0 0 0.05 -10 -11)"
     d="M 14288.4,3065.64 C 14288.4,3065.64 14288.4,2301.44 14288.4,2301.44 C 14288.4,2301.44 12227.3,2301.44 12227.3,2301.44 C 12227.3,2301.44 12227.3,3065.64 12227.3,3065.64 C 12227.3,3065.64 14288.4,3065.64 14288.4,3065.64 "
     id="path41"
     onclick="window.location.href = 'esters.svg'" />
  <path
     stroke="none"
     fill="#ffffff"
     opacity="0"
     transform="matrix(0.05 0 0 0.05 -10 -11)"
     d="M 9450,7756 C 9450,7756 9450,6337.5 9450,6337.5 C 9450,6337.5 8333.9,6337.5 8333.9,6337.5 C 8333.9,6337.5 8333.9,7756 8333.9,7756 C 8333.9,7756 9450,7756 9450,7756 "
     id="path47"
     onclick="window.location.href = 'malonic.svg'" />
  <path
     stroke="none"
     fill="#ffffff"
     opacity="0"
     transform="matrix(0.05 0 0 0.05 -10 -11)"
     d="M 11392.7,7756 C 11392.7,7756 11392.7,6337.5 11392.7,6337.5 C 11392.7,6337.5 9581.3,6337.5 9581.3,6337.5 C 9581.3,6337.5 9581.3,7756 9581.3,7756 C 9581.3,7756 11392.7,7756 11392.7,7756 "
     id="path49"
     onclick="window.location.href = 'malonic.svg'" />
  <path
     stroke="none"
     fill="#ffffff"
     opacity="0"
     transform="matrix(0.05 0 0 0.05 -10 -11)"
     d="M 13430,7756 C 13430,7756 13430,6337.5 13430,6337.5 C 13430,6337.5 11528,6337.5 11528,6337.5 C 11528,6337.5 11528,7756 11528,7756 C 11528,7756 13430,7756 13430,7756 "
     id="path51"
     onclick="window.location.href = 'malonic.svg'" />
  <path
     stroke="none"
     fill="#ffffff"
     opacity="0"
     transform="matrix(0.05 0 0 0.05 -10 -11)"
     d="M 3234.93,7556.28 C 3234.93,7556.28 3234.93,6091.8 3234.93,6091.8 C 3234.93,6091.8 2229.2,6091.8 2229.2,6091.8 C 2229.2,6091.8 2229.2,7556.28 2229.2,7556.28 C 2229.2,7556.28 3234.93,7556.28 3234.93,7556.28 "
     id="path53"
     onclick="window.location.href = 'thiols-sulfonicacids.svg'" />
  <path
     stroke="none"
     fill="#ffffff"
     opacity="0"
     d="m 97.300919,347.04611 c 0,0 0,-51.10861 0,-51.10861 0,0 -44.757654,0 -44.757654,0 0,0 0,51.10861 0,51.10861 0,0 44.757654,0 44.757654,0"
     id="path53-5"
     onclick="window.location.href = 'thiols-sulfonicacids.svg'"
     style="opacity:0;stroke-width:0.0394093" />
  <path
     stroke="none"
     fill="#ffffff"
     opacity="0"
     transform="matrix(0.05 0 0 0.05 -10 -11)"
     d="M 3647.7,3417.54 C 3647.7,3417.54 3647.7,2301.44 3647.7,2301.44 C 3647.7,2301.44 2871.8,2301.44 2871.8,2301.44 C 2871.8,2301.44 2871.8,3417.54 2871.8,3417.54 C 2871.8,3417.54 3647.7,3417.54 3647.7,3417.54 "
     id="path5"
     onclick="window.location.href = 'halides.svg'" />
  <path
     stroke="none"
     fill="#ffffff"
     opacity="0"
     transform="matrix(0.05 0 0 0.05 -10 -11)"
     d="M 4303.67,3417.54 C 4303.67,3417.54 4303.67,2301.44 4303.67,2301.44 C 4303.67,2301.44 3684.5,2301.44 3684.5,2301.44 C 3684.5,2301.44 3684.5,3417.54 3684.5,3417.54 C 3684.5,3417.54 4303.67,3417.54 4303.67,3417.54 "
     id="path7"
     onclick="window.location.href = 'non-alkyl-halides.svg'" />
  <path
     stroke="none"
     fill="#ffffff"
     opacity="0"
     transform="matrix(0.05 0 0 0.05 -10 -11)"
     d="M 4965.17,3417.54 C 4965.17,3417.54 4965.17,2301.44 4965.17,2301.44 C 4965.17,2301.44 4346,2301.44 4346,2301.44 C 4346,2301.44 4346,3417.54 4346,3417.54 C 4346,3417.54 4965.17,3417.54 4965.17,3417.54 "
     id="path9"
     onclick="window.location.href = 'non-alkyl-halides.svg'" />
  <path
     stroke="none"
     fill="#ffffff"
     opacity="0"
     transform="matrix(0.05 0 0 0.05 -10 -11)"
     d="M 5747.11,3417.54 C 5747.11,3417.54 5747.11,2301.44 5747.11,2301.44 C 5747.11,2301.44 5026.4,2301.44 5026.4,2301.44 C 5026.4,2301.44 5026.4,3417.54 5026.4,3417.54 C 5026.4,3417.54 5747.11,3417.54 5747.11,3417.54 "
     id="path11"
     onclick="window.location.href = 'halides.svg'" />
  <path
     stroke="none"
     fill="#ffffff"
     opacity="0"
     transform="matrix(0.05 0 0 0.05 -10 -11)"
     d="M 4139.1,7101.09 C 4139.1,7101.09 4139.1,6091.8 4139.1,6091.8 C 4139.1,6091.8 3325.4,6091.8 3325.4,6091.8 C 3325.4,6091.8 3325.4,7101.09 3325.4,7101.09 C 3325.4,7101.09 4139.1,7101.09 4139.1,7101.09 "
     id="path55"
     onclick="window.location.href = 'ylides.svg'" />
  <path
     stroke="none"
     fill="#ffffff"
     opacity="0"
     transform="matrix(0.05 0 0 0.05 -10 -11)"
     d="M 4989.6,7101.09 C 4989.6,7101.09 4989.6,6091.8 4989.6,6091.8 C 4989.6,6091.8 4175.9,6091.8 4175.9,6091.8 C 4175.9,6091.8 4175.9,7101.09 4175.9,7101.09 C 4175.9,7101.09 4989.6,7101.09 4989.6,7101.09 "
     id="path57"
     onclick="window.location.href = 'azides.svg'" />
  <path
     stroke="none"
     fill="#ffffff"
     opacity="0"
     transform="matrix(0.05 0 0 0.05 -10 -11)"
     d="M 5896.8,7275.69 C 5896.8,7275.69 5896.8,6091.8 5896.8,6091.8 C 5896.8,6091.8 5083.1,6091.8 5083.1,6091.8 C 5083.1,6091.8 5083.1,7275.69 5083.1,7275.69 C 5083.1,7275.69 5896.8,7275.69 5896.8,7275.69 "
     id="path59"
     onclick="window.location.href = 'nitro.svg'" />
  <path
     stroke="none"
     fill="#ffffff"
     opacity="0"
     transform="matrix(0.05 0 0 0.05 -10 -11)"
     d="M 7295.03,7378.05 C 7295.03,7378.05 7295.03,6091.8 7295.03,6091.8 C 7295.03,6091.8 6028.1,6091.8 6028.1,6091.8 C 6028.1,6091.8 6028.1,7378.05 6028.1,7378.05 C 6028.1,7378.05 7295.03,7378.05 7295.03,7378.05 "
     id="path61"
     onclick="window.location.href = 'diazonium.svg'" />
  <path
     stroke="none"
     fill="#ffffff"
     opacity="0"
     transform="matrix(0.05 0 0 0.05 -10 -11)"
     d="M 7391.74,8613.09 C 7391.74,8613.09 7391.74,7436.25 7391.74,7436.25 C 7391.74,7436.25 6328.79,7436.25 6328.79,7436.25 C 6328.79,7436.25 6328.79,8613.09 6328.79,8613.09 C 6328.79,8613.09 7391.74,8613.09 7391.74,8613.09 "
     id="path1"
     onclick="window.location.href = 'phenols.svg'" />
  <path
     stroke="none"
     fill="#ffffff"
     opacity="0"
     transform="matrix(0.05 0 0 0.05 -10 -11)"
     d="M 1915.48,8613.09 C 1915.48,8613.09 1915.48,7603.8 1915.48,7603.8 C 1915.48,7603.8 496.32,7603.8 496.32,7603.8 C 496.32,7603.8 496.32,8613.09 496.32,8613.09 C 496.32,8613.09 1915.48,8613.09 1915.48,8613.09 "
     id="path3"
     onclick="window.location.href = 'alkenes.svg'" />
  <path
     stroke="none"
     fill="#ffffff"
     opacity="0"
     transform="matrix(0.05 0 0 0.05 -10 -11)"
     d="M 3008.4,8613.09 C 3008.4,8613.09 3008.4,7603.8 3008.4,7603.8 C 3008.4,7603.8 1981.51,7603.8 1981.51,7603.8 C 1981.51,7603.8 1981.51,8613.09 1981.51,8613.09 C 1981.51,8613.09 3008.4,8613.09 3008.4,8613.09 "
     id="path69"
     onclick="window.location.href = 'enamines-imines.svg'" />
  <path
     stroke="none"
     fill="#ffffff"
     opacity="0"
     transform="matrix(0.05 0 0 0.05 -10 -11)"
     d="M 4066.8,8613.09 C 4066.8,8613.09 4066.8,7603.8 4066.8,7603.8 C 4066.8,7603.8 3039.91,7603.8 3039.91,7603.8 C 3039.91,7603.8 3039.91,8613.09 3039.91,8613.09 C 3039.91,8613.09 4066.8,8613.09 4066.8,8613.09 "
     id="path63"
     onclick="window.location.href = 'enamines-imines.svg'" />
  <path
     stroke="none"
     fill="#ffffff"
     opacity="0"
     transform="matrix(0.05 0 0 0.05 -10 -11)"
     d="M 5125.2,8613.09 C 5125.2,8613.09 5125.2,7603.8 5125.2,7603.8 C 5125.2,7603.8 4098.31,7603.8 4098.31,7603.8 C 4098.31,7603.8 4098.31,8613.09 4098.31,8613.09 C 4098.31,8613.09 5125.2,8613.09 5125.2,8613.09 "
     id="path65"
     onclick="window.location.href = 'enamines-imines.svg'" />
  <path
     stroke="none"
     fill="#ffffff"
     opacity="0"
     transform="matrix(0.05 0 0 0.05 -10 -11)"
     d="M 6306.11,8655.39 C 6306.11,8655.39 6306.11,7471.5 6306.11,7471.5 C 6306.11,7471.5 4797.61,7471.5 4797.61,7471.5 C 4797.61,7471.5 4797.61,8655.39 4797.61,8655.39 C 4797.61,8655.39 6306.11,8655.39 6306.11,8655.39 "
     id="path67"
     onclick="window.location.href = 'diazonium.svg'" />
</svg>
