<?xml version="1.0" encoding="UTF-8" standalone="no"?>
<svg
   width="100%"
   height="100%"
   viewBox="0 0 818 460"
   style="background-color: #ffffff00"
   version="1.1"
   id="svg374"
   sodipodi:docname="ketones-noproducts.svg"
   inkscape:version="1.4.2 (ebf0e940, 2025-05-08)"
   xmlns:inkscape="http://www.inkscape.org/namespaces/inkscape"
   xmlns:sodipodi="http://sodipodi.sourceforge.net/DTD/sodipodi-0.dtd"
   xmlns="http://www.w3.org/2000/svg"
   xmlns:svg="http://www.w3.org/2000/svg">
  <path
     stroke="#ffffff"
     stroke-width="1"
     fill="none"
     transform="matrix(0.05 0 0 0.05 -10 -11)"
     d="M 14869.7,4382.08 C 14869.7,4382.08 14869.7,3592.84 14869.7,3592.84 C 14869.7,3592.84 14107.2,3592.84 14107.2,3592.84 C 14107.2,3592.84 14107.2,4382.08 14107.2,4382.08 C 14107.2,4382.08 14869.7,4382.08 14869.7,4382.08 "
     id="path26" />
  <path
     stroke="#ffffff"
     stroke-width="1"
     fill="none"
     transform="matrix(0.05 0 0 0.05 -10 -11)"
     d="M 15991.9,7788.88 C 15991.9,7788.88 15991.9,6785.88 15991.9,6785.88 C 15991.9,6785.88 15029,6785.88 15029,6785.88 C 15029,6785.88 15029,7788.88 15029,7788.88 C 15029,7788.88 15991.9,7788.88 15991.9,7788.88 "
     id="path28" />
  <path
     stroke="#ffffff"
     stroke-width="1"
     fill="none"
     d="M 4101.52,8684 C 4101.52,8684 4101.52,7053.08 4101.52,7053.08 C 4101.52,7053.08 2630.92,7053.08 2630.92,7053.08 C 2630.92,7053.08 2630.92,8684 2630.92,8684 C 2630.92,8684 4101.52,8684 4101.52,8684 "
     id="path32"
     transform="matrix(0.05 0 0 0.05 -10 -11)" />
  <path
     stroke="#ffffff"
     stroke-width="1"
     fill="none"
     transform="matrix(0.05 0 0 0.05 -10 -11)"
     d="M 5784.88,7895.76 C 5784.88,7895.76 5784.88,6919.48 5784.88,6919.48 C 5784.88,6919.48 4795.24,6919.48 4795.24,6919.48 C 4795.24,6919.48 4795.24,7895.76 4795.24,7895.76 C 4795.24,7895.76 5784.88,7895.76 5784.88,7895.76 "
     id="path34" />
  <path
     stroke="#000000"
     stroke-width="22"
     fill="none"
     transform="matrix(0.05 0 0 0.05 -10 -11)"
     d="M 16494.7,9367.47 C 16494.7,9367.47 16494.7,284.602 16494.7,284.602 C 16494.7,284.602 268.683,284.602 268.683,284.602 C 268.683,284.602 268.683,9367.47 268.683,9367.47 C 268.683,9367.47 16494.7,9367.47 16494.7,9367.47 "
     id="path47" />
  <text
     x="0"
     y="0"
     stroke="none"
     fill="#000000"
     transform="matrix(0.05 0 0 0.05 11.735 21.13)"
     font-style="normal"
     font-weight="bold"
     font-size="320px"
     font-family="Helvetica"
     id="text47">
Ketones and Aldehydes - Reactions</text>
  <text
     x="0"
     y="0"
     stroke="none"
     fill="#999999"
     transform="matrix(0.05 0 0 0.05 11.9381 39.085)"
     font-style="normal"
     font-weight="normal"
     font-size="320px"
     font-family="Helvetica"
     id="text52">
click for more</text>
  <g
     id="goback"
     onclick="window.location.href = 'index.svg'"
     onmouseover="document.getElementById('goback-box').setAttribute('opacity','0.5');"
     onmouseout="document.getElementById('goback-box').setAttribute('opacity','1')">
    <path
       stroke="none"
       fill="#999999"
       transform="matrix(0.05 0 0 0.05 -10 -11)"
       d="M 395.9,1492.34 C 395.9,1492.34 395.9,1302.37 395.9,1302.37 C 395.9,1228.92 455.513,1169.31 528.955,1169.31 C 528.955,1169.31 1775.84,1169.31 1775.84,1169.31 C 1849.29,1169.31 1908.9,1228.92 1908.9,1302.37 C 1908.9,1302.37 1908.9,1492.34 1908.9,1492.34 C 1908.9,1565.79 1849.29,1625.4 1775.84,1625.4 C 1775.84,1625.4 528.955,1625.4 528.955,1625.4 C 455.513,1625.4 395.9,1565.79 395.9,1492.34 "
       id="goback-box" />
    <text
       x="0"
       y="0"
       stroke="none"
       fill="#000000"
       transform="matrix(0.05 0 0 0.05 29.3796 61.765)"
       font-style="normal"
       font-weight="bold"
       font-size="200px"
       font-family="Helvetica"
       id="gobacktext">
go home</text>
    <path
       stroke="#999999"
       stroke-width="1"
       transform="matrix(0.05 0 0 0.05 -10 -11)"
       d="M 395.9,1492.34 C 395.9,1492.34 395.9,1302.37 395.9,1302.37 C 395.9,1228.92 455.513,1169.31 528.955,1169.31 C 528.955,1169.31 1775.84,1169.31 1775.84,1169.31 C 1849.29,1169.31 1908.9,1228.92 1908.9,1302.37 C 1908.9,1302.37 1908.9,1492.34 1908.9,1492.34 C 1908.9,1565.79 1849.29,1625.4 1775.84,1625.4 C 1775.84,1625.4 528.955,1625.4 528.955,1625.4 C 455.513,1625.4 395.9,1565.79 395.9,1492.34 "
       onclick="history.back()"
       style="opacity:0"
       id="goback-link" />
  </g>
  <g
     id="howtomake"
     onclick="window.location.href = 'toketones.svg'"
     onmouseover="document.getElementById('howtomake-box').setAttribute('opacity','0.5');"
     onmouseout="document.getElementById('howtomake-box').setAttribute('opacity','1')">
    <path
       stroke="none"
       fill="#999999"
       transform="matrix(0.05 0 0 0.05 -10 -11)"
       d="M 381.591,2007.46 C 381.591,2007.46 381.591,1817.48 381.591,1817.48 C 381.591,1744.04 441.204,1684.42 514.647,1684.42 C 514.647,1684.42 1761.54,1684.42 1761.54,1684.42 C 1834.98,1684.42 1894.59,1744.04 1894.59,1817.48 C 1894.59,1817.48 1894.59,2007.46 1894.59,2007.46 C 1894.59,2080.9 1834.98,2140.51 1761.54,2140.51 C 1761.54,2140.51 514.647,2140.51 514.647,2140.51 C 441.204,2140.51 381.591,2080.9 381.591,2007.46 "
       id="howtomake-box" />
    <text
       x="15.486538"
       y="87.244156"
       stroke="none"
       fill="#000000"
       font-style="normal"
       font-weight="bold"
       font-size="10px"
       font-family="Helvetica"
       id="howtomaketext"
       style="font-style:normal;font-variant:normal;font-weight:bold;font-stretch:normal;font-size:9.33333px;font-family:Helvetica;-inkscape-font-specification:'Helvetica, Bold';font-variant-ligatures:normal;font-variant-caps:normal;font-variant-numeric:normal;font-variant-east-asian:normal;fill:#000000;stroke:none;stroke-width:0.05">make ketones</text>
    <path
       stroke="#999999"
       stroke-width="1"
       transform="matrix(0.05 0 0 0.05 -10 -11)"
       d="M 381.591,2007.46 C 381.591,2007.46 381.591,1817.48 381.591,1817.48 C 381.591,1744.04 441.204,1684.42 514.647,1684.42 C 514.647,1684.42 1761.54,1684.42 1761.54,1684.42 C 1834.98,1684.42 1894.59,1744.04 1894.59,1817.48 C 1894.59,1817.48 1894.59,2007.46 1894.59,2007.46 C 1894.59,2080.9 1834.98,2140.51 1761.54,2140.51 C 1761.54,2140.51 514.647,2140.51 514.647,2140.51 C 441.204,2140.51 381.591,2080.9 381.591,2007.46 "
       onclick="window.location.href = 'toketones.svg'"
       style="opacity:0"
       id="howtomake-link" />
  </g>
  <g
     id="howtomake-2"
     onclick="window.location.href = 'toaldehydes.svg'"
     onmouseover="document.getElementById('howtomake-box-6').setAttribute('opacity','0.5');"
     onmouseout="document.getElementById('howtomake-box-6').setAttribute('opacity','1')"
     transform="translate(0.30751205,26.750557)">
    <path
       stroke="none"
       fill="#999999"
       transform="matrix(0.05,0,0,0.05,-10,-11)"
       d="m 381.591,2007.46 c 0,0 0,-189.98 0,-189.98 0,-73.44 59.613,-133.06 133.056,-133.06 0,0 1246.893,0 1246.893,0 73.44,0 133.05,59.62 133.05,133.06 0,0 0,189.98 0,189.98 0,73.44 -59.61,133.05 -133.05,133.05 0,0 -1246.893,0 -1246.893,0 -73.443,0 -133.056,-59.61 -133.056,-133.05"
       id="howtomake-box-6" />
    <text
       x="10.916827"
       y="87.244156"
       stroke="none"
       fill="#000000"
       font-style="normal"
       font-weight="bold"
       font-size="10px"
       font-family="Helvetica"
       id="howtomaketext-5"
       style="stroke-width:0.05;-inkscape-font-specification:'Helvetica, Bold';font-family:Helvetica;font-weight:bold;font-style:normal;font-stretch:normal;font-variant:normal;font-size:9.33333px;font-variant-ligatures:normal;font-variant-caps:normal;font-variant-numeric:normal;font-variant-east-asian:normal;fill:#000000;stroke:none">make aldehydes</text>
    <path
       stroke="#999999"
       stroke-width="1"
       transform="matrix(0.05,0,0,0.05,-10,-11)"
       d="m 381.591,2007.46 c 0,0 0,-189.98 0,-189.98 0,-73.44 59.613,-133.06 133.056,-133.06 0,0 1246.893,0 1246.893,0 73.44,0 133.05,59.62 133.05,133.06 0,0 0,189.98 0,189.98 0,73.44 -59.61,133.05 -133.05,133.05 0,0 -1246.893,0 -1246.893,0 -73.443,0 -133.056,-59.61 -133.056,-133.05"
       onclick="window.location.href = 'toaldehydes.svg'"
       style="opacity:0"
       id="howtomake-link-0" />
  </g>
  <path
     stroke="none"
     fill="#000000"
     transform="matrix(0.05 0 0 0.05 -10 -11)"
     d="M 1830.14,6842.56 L 1830.14,6283.15 L 1852.14,6283.15 L 1852.14,6842.56 Z "
     id="path56" />
  <path
     stroke="none"
     fill="#000000"
     transform="matrix(0.05 0 0 0.05 -10 -11)"
     d="M 1841.14,7035.6 C 1841.14,7035.6 1783.7,6813.84 1783.7,6813.84 C 1783.7,6813.84 1816.01,6841.56 1841.14,6841.56 C 1865.83,6841.56 1897.58,6813.84 1897.58,6813.84 C 1897.58,6813.84 1841.14,7035.6 1841.14,7035.6 C 1841.14,7035.6 1841.14,7035.6 1841.14,7035.6 "
     id="path57" />
  <path
     stroke="#000000"
     stroke-width="1"
     fill="none"
     transform="matrix(0.05 0 0 0.05 -10 -11)"
     d="M 1841.14,7035.6 C 1841.14,7035.6 1783.7,6813.84 1783.7,6813.84 C 1783.7,6813.84 1816.01,6841.56 1841.14,6841.56 C 1865.83,6841.56 1897.58,6813.84 1897.58,6813.84 C 1897.58,6813.84 1841.14,7035.6 1841.14,7035.6 C 1841.14,7035.6 1841.14,7035.6 1841.14,7035.6 "
     id="path58" />
  <path
     stroke="none"
     fill="#000000"
     transform="matrix(0.05 0 0 0.05 -10 -11)"
     d="M 5434,6294.15 L 1841.14,6294.15 L 1841.14,6272.15 L 5434,6272.15 Z "
     id="path59" />
  <path
     stroke="none"
     fill="#000000"
     transform="matrix(0.05 0 0 0.05 -10 -11)"
     d="M 5423,6649.55 L 5423,6283.15 L 5445,6283.15 L 5445,6649.55 Z "
     id="path60" />
  <path
     stroke="none"
     fill="#000000"
     transform="matrix(0.05 0 0 0.05 -10 -11)"
     d="M 5434,6842.59 C 5434,6842.59 5376.56,6620.83 5376.56,6620.83 C 5376.56,6620.83 5408.87,6648.55 5434,6648.55 C 5458.69,6648.55 5490.44,6620.83 5490.44,6620.83 C 5490.44,6620.83 5434,6842.59 5434,6842.59 C 5434,6842.59 5434,6842.59 5434,6842.59 "
     id="path61" />
  <path
     stroke="#000000"
     stroke-width="1"
     fill="none"
     transform="matrix(0.05 0 0 0.05 -10 -11)"
     d="M 5434,6842.59 C 5434,6842.59 5376.56,6620.83 5376.56,6620.83 C 5376.56,6620.83 5408.87,6648.55 5434,6648.55 C 5458.69,6648.55 5490.44,6620.83 5490.44,6620.83 C 5490.44,6620.83 5434,6842.59 5434,6842.59 C 5434,6842.59 5434,6842.59 5434,6842.59 "
     id="path62" />
  <path
     stroke="none"
     fill="#000000"
     transform="matrix(0.05 0 0 0.05 -10 -11)"
     d="M 5423,6283.15 L 5423,5843.59 L 5445,5843.59 L 5445,6283.15 Z "
     id="path63" />
  <path
     stroke="none"
     fill="#000000"
     transform="matrix(0.05 0 0 0.05 -10 -11)"
     d="M 5466.4,3656 L 5466.4,4355.92 L 5444.4,4355.92 L 5444.4,3656 Z "
     id="path64" />
  <path
     stroke="none"
     fill="#000000"
     transform="matrix(0.05 0 0 0.05 -10 -11)"
     d="M 5455.4,3462.96 C 5455.4,3462.96 5511.84,3684.72 5511.84,3684.72 C 5511.84,3684.72 5480.09,3657 5455.4,3657 C 5430.27,3657 5397.96,3684.72 5397.96,3684.72 C 5397.96,3684.72 5455.4,3462.96 5455.4,3462.96 C 5455.4,3462.96 5455.4,3462.96 5455.4,3462.96 "
     id="path65" />
  <path
     stroke="#000000"
     stroke-width="1"
     fill="none"
     transform="matrix(0.05 0 0 0.05 -10 -11)"
     d="M 5455.4,3462.96 C 5455.4,3462.96 5511.84,3684.72 5511.84,3684.72 C 5511.84,3684.72 5480.09,3657 5455.4,3657 C 5430.27,3657 5397.96,3684.72 5397.96,3684.72 C 5397.96,3684.72 5455.4,3462.96 5455.4,3462.96 C 5455.4,3462.96 5455.4,3462.96 5455.4,3462.96 "
     id="path66" />
  <path
     stroke="none"
     fill="#000000"
     transform="matrix(0.05 0 0 0.05 -10 -11)"
     d="M 4096.5,3610.74 L 4096.5,4369.23 L 4074.5,4369.23 L 4074.5,3610.74 Z "
     id="path67" />
  <path
     stroke="none"
     fill="#000000"
     transform="matrix(0.05 0 0 0.05 -10 -11)"
     d="M 4085.5,3417.7 C 4085.5,3417.7 4141.94,3639.46 4141.94,3639.46 C 4141.94,3639.46 4110.19,3611.74 4085.5,3611.74 C 4060.37,3611.74 4028.06,3639.46 4028.06,3639.46 C 4028.06,3639.46 4085.5,3417.7 4085.5,3417.7 C 4085.5,3417.7 4085.5,3417.7 4085.5,3417.7 "
     id="path68" />
  <path
     stroke="#000000"
     stroke-width="1"
     fill="none"
     transform="matrix(0.05 0 0 0.05 -10 -11)"
     d="M 4085.5,3417.7 C 4085.5,3417.7 4141.94,3639.46 4141.94,3639.46 C 4141.94,3639.46 4110.19,3611.74 4085.5,3611.74 C 4060.37,3611.74 4028.06,3639.46 4028.06,3639.46 C 4028.06,3639.46 4085.5,3417.7 4085.5,3417.7 C 4085.5,3417.7 4085.5,3417.7 4085.5,3417.7 "
     id="path69" />
  <path
     stroke="none"
     fill="#000000"
     transform="matrix(0.05 0 0 0.05 -10 -11)"
     d="M 13113.1,4380.23 L 2697.86,4380.23 L 2697.86,4358.23 L 13113.1,4358.23 Z "
     id="path70" />
  <path
     stroke="none"
     fill="#000000"
     transform="matrix(0.05 0 0 0.05 -10 -11)"
     d="M 2708.86,3639.34 L 2708.86,4369.23 L 2686.86,4369.23 L 2686.86,3639.34 Z "
     id="path71" />
  <path
     stroke="none"
     fill="#000000"
     transform="matrix(0.05 0 0 0.05 -10 -11)"
     d="M 2697.86,3446.3 C 2697.86,3446.3 2754.3,3668.06 2754.3,3668.06 C 2754.3,3668.06 2722.55,3640.34 2697.86,3640.34 C 2672.73,3640.34 2640.42,3668.06 2640.42,3668.06 C 2640.42,3668.06 2697.86,3446.3 2697.86,3446.3 C 2697.86,3446.3 2697.86,3446.3 2697.86,3446.3 "
     id="path72" />
  <path
     stroke="#000000"
     stroke-width="1"
     fill="none"
     transform="matrix(0.05 0 0 0.05 -10 -11)"
     d="M 2697.86,3446.3 C 2697.86,3446.3 2754.3,3668.06 2754.3,3668.06 C 2754.3,3668.06 2722.55,3640.34 2697.86,3640.34 C 2672.73,3640.34 2640.42,3668.06 2640.42,3668.06 C 2640.42,3668.06 2697.86,3446.3 2697.86,3446.3 C 2697.86,3446.3 2697.86,3446.3 2697.86,3446.3 "
     id="path73" />
  <path
     stroke="none"
     fill="#000000"
     transform="matrix(0.05 0 0 0.05 -10 -11)"
     d="M 5444.4,4947.8 L 5444.4,4355.92 L 5466.4,4355.92 L 5466.4,4947.8 Z "
     id="path74" />
  <text
     x="0"
     y="0"
     stroke="none"
     fill="#0000ff"
     transform="matrix(0.05 0 0 0.05 164.36 256.861)"
     font-style="normal"
     font-weight="bold"
     font-size="280px"
     font-family="Helvetica"
     id="text74">
ketones</text>
  <text
     x="0"
     y="0"
     stroke="none"
     fill="#0000ff"
     transform="matrix(0.05 0 0 0.05 142.188 271.586)"
     font-style="normal"
     font-weight="bold"
     font-size="280px"
     font-family="Helvetica"
     id="text75">
and </text>
  <text
     x="0"
     y="0"
     stroke="none"
     fill="#0000ff"
     transform="matrix(0.05 0 0 0.05 170.967 271.586)"
     font-style="normal"
     font-weight="bold"
     font-size="280px"
     font-family="Helvetica"
     id="text76">
aldehydes</text>
  <path
     stroke="none"
     fill="#000000"
     transform="matrix(0.05 0 0 0.05 -10 -11)"
     d="M 11059.7,3826.18 L 11048.6,3806.98 L 11313.3,3653.57 L 11313.4,3679.24 L 11059.7,3826.18 Z "
     id="path79" />
  <text
     x="0"
     y="0"
     stroke="none"
     fill="#000000"
     transform="matrix(0.05 0 0 0.05 565.103 183.068)"
     font-style="normal"
     font-weight="bold"
     font-size="180px"
     font-family="Helvetica"
     id="text80">
OH</text>
  <path
     stroke="none"
     fill="#000000"
     transform="matrix(0.05 0 0 0.05 -10 -11)"
     d="M 11313.4,3679.24 L 11313.3,3653.57 L 11495.2,3759.41 L 11484.1,3778.62 L 11313.4,3679.24 Z "
     id="path80" />
  <text
     x="0"
     y="0"
     stroke="none"
     fill="#000000"
     transform="matrix(0.05 0 0 0.05 88.6128 178.918)"
     font-style="normal"
     font-weight="bold"
     font-size="200px"
     font-family="Helvetica"
     id="text81">
NaBH</text>
  <text
     x="0"
     y="0"
     stroke="none"
     fill="#000000"
     transform="matrix(0.05 0 0 0.05 115.839 181.218)"
     font-style="normal"
     font-weight="bold"
     font-size="150px"
     font-family="Helvetica"
     id="text82">
4</text>
  <text
     x="0"
     y="0"
     stroke="none"
     fill="#000000"
     transform="matrix(0.05 0 0 0.05 85.5642 189.509)"
     font-style="normal"
     font-weight="bold"
     font-size="160px"
     font-family="Helvetica"
     id="text83">
or </text>
  <text
     x="0"
     y="0"
     stroke="none"
     fill="#000000"
     transform="matrix(0.05 0 0 0.05 95.7869 189.509)"
     font-style="normal"
     font-weight="bold"
     font-size="160px"
     font-family="Helvetica"
     id="text84">
LiAlH</text>
  <text
     x="0"
     y="0"
     stroke="none"
     fill="#000000"
     transform="matrix(0.05 0 0 0.05 116.674 191.349)"
     font-style="normal"
     font-weight="bold"
     font-size="120px"
     font-family="Helvetica"
     id="text85">
4</text>
  <path
     stroke="none"
     fill="#000000"
     transform="matrix(0.05 0 0 0.05 -10 -11)"
     d="M 5442.25,5509.17 L 5420.07,5509.17 L 5420.07,5294.14 L 5442.25,5294.14 L 5442.25,5509.17 Z "
     id="path85" />
  <path
     stroke="none"
     fill="#000000"
     transform="matrix(0.05 0 0 0.05 -10 -11)"
     d="M 5497.69,5509.17 L 5475.51,5509.17 L 5475.51,5294.14 L 5497.69,5294.14 L 5497.69,5509.17 Z "
     id="path86" />
  <text
     x="0"
     y="0"
     stroke="none"
     fill="#000000"
     transform="matrix(0.05 0 0 0.05 259.444 251.921)"
     font-style="normal"
     font-weight="bold"
     font-size="180px"
     font-family="Helvetica"
     id="text86">
O</text>
  <path
     stroke="none"
     fill="#000000"
     transform="matrix(0.05 0 0 0.05 -10 -11)"
     d="M 5458.88,5505.45 L 5458.88,5479.79 L 5723.82,5633.33 L 5712.73,5652.53 L 5458.88,5505.45 Z "
     id="path87" />
  <path
     stroke="none"
     fill="#000000"
     transform="matrix(0.05 0 0 0.05 -10 -11)"
     d="M 5205.03,5652.53 L 5193.94,5633.33 L 5458.88,5479.79 L 5458.88,5505.45 L 5205.03,5652.53 Z "
     id="path88" />
  <text
     x="0"
     y="0"
     stroke="none"
     fill="#000000"
     transform="matrix(0.05 0 0 0.05 545.416 195.674)"
     font-style="normal"
     font-weight="bold"
     font-size="200px"
     font-family="Helvetica"
     id="text88">
cat. </text>
  <text
     x="0"
     y="0"
     stroke="none"
     fill="#000000"
     transform="matrix(0.05 0 0 0.05 565.426 195.674)"
     font-style="normal"
     font-weight="bold"
     font-size="200px"
     font-family="Helvetica"
     id="text89">
H</text>
  <text
     x="0"
     y="0"
     stroke="none"
     fill="#000000"
     transform="matrix(0.05 0 0 0.05 572.648 192.075)"
     font-style="normal"
     font-weight="bold"
     font-size="150px"
     font-family="Helvetica"
     id="text90">
+</text>
  <text
     x="0"
     y="0"
     stroke="none"
     fill="#000000"
     transform="matrix(0.05 0 0 0.05 80.7258 202.347)"
     font-style="normal"
     font-weight="bold"
     font-size="160px"
     font-family="Helvetica"
     id="text103">
then </text>
  <text
     x="0"
     y="0"
     stroke="none"
     fill="#000000"
     transform="matrix(0.05 0 0 0.05 99.8352 202.347)"
     font-style="normal"
     font-weight="bold"
     font-size="160px"
     font-family="Helvetica"
     id="text104">
H</text>
  <text
     x="0"
     y="0"
     stroke="none"
     fill="#000000"
     transform="matrix(0.05 0 0 0.05 105.613 204.187)"
     font-style="normal"
     font-weight="bold"
     font-size="120px"
     font-family="Helvetica"
     id="text105">
3</text>
  <text
     x="0"
     y="0"
     stroke="none"
     fill="#000000"
     transform="matrix(0.05 0 0 0.05 108.949 202.347)"
     font-style="normal"
     font-weight="bold"
     font-size="160px"
     font-family="Helvetica"
     id="text106">
O</text>
  <text
     x="0"
     y="0"
     stroke="none"
     fill="#000000"
     transform="matrix(0.05 0 0 0.05 115.172 199.468)"
     font-style="normal"
     font-weight="bold"
     font-size="120px"
     font-family="Helvetica"
     id="text107">
+</text>
  <text
     x="0"
     y="0"
     stroke="none"
     fill="#000000"
     transform="matrix(0.05 0 0 0.05 152.466 200.917)"
     font-style="normal"
     font-weight="bold"
     font-size="160px"
     font-family="Helvetica"
     id="text114">
then </text>
  <text
     x="0"
     y="0"
     stroke="none"
     fill="#000000"
     transform="matrix(0.05 0 0 0.05 171.576 200.917)"
     font-style="normal"
     font-weight="bold"
     font-size="160px"
     font-family="Helvetica"
     id="text115">
H</text>
  <text
     x="0"
     y="0"
     stroke="none"
     fill="#000000"
     transform="matrix(0.05 0 0 0.05 177.353 202.757)"
     font-style="normal"
     font-weight="bold"
     font-size="120px"
     font-family="Helvetica"
     id="text116">
3</text>
  <text
     x="0"
     y="0"
     stroke="none"
     fill="#000000"
     transform="matrix(0.05 0 0 0.05 180.69 200.917)"
     font-style="normal"
     font-weight="bold"
     font-size="160px"
     font-family="Helvetica"
     id="text117">
O</text>
  <text
     x="0"
     y="0"
     stroke="none"
     fill="#000000"
     transform="matrix(0.05 0 0 0.05 186.913 198.038)"
     font-style="normal"
     font-weight="bold"
     font-size="120px"
     font-family="Helvetica"
     id="text118">
+</text>
  <text
     x="0"
     y="0"
     stroke="none"
     fill="#000000"
     transform="matrix(0.05 0 0 0.05 160.775 179.354)"
     font-style="normal"
     font-weight="bold"
     font-size="200px"
     font-family="Helvetica"
     id="text119">
RMgX</text>
  <text
     x="0"
     y="0"
     stroke="none"
     fill="#000000"
     transform="matrix(0.05 0 0 0.05 229.744 181.745)"
     font-style="normal"
     font-weight="bold"
     font-size="200px"
     font-family="Helvetica"
     id="text125">
Zn/Hg</text>
  <text
     x="0"
     y="0"
     stroke="none"
     fill="#000000"
     transform="matrix(0.05 0 0 0.05 235.655 194.305)"
     font-style="normal"
     font-weight="bold"
     font-size="200px"
     font-family="Helvetica"
     id="text126">
HCl</text>
  <text
     x="0"
     y="0"
     stroke="none"
     fill="#000000"
     transform="matrix(0.05 0 0 0.05 284.539 180.315)"
     font-style="normal"
     font-weight="bold"
     font-size="200px"
     font-family="Helvetica"
     id="text133">
1) </text>
  <text
     x="0"
     y="0"
     stroke="none"
     fill="#000000"
     transform="matrix(0.05 0 0 0.05 296.209 180.315)"
     font-style="normal"
     font-weight="bold"
     font-size="200px"
     font-family="Helvetica"
     id="text134">
N</text>
  <text
     x="0"
     y="0"
     stroke="none"
     fill="#000000"
     transform="matrix(0.05 0 0 0.05 303.431 182.615)"
     font-style="normal"
     font-weight="bold"
     font-size="150px"
     font-family="Helvetica"
     id="text135">
2</text>
  <text
     x="0"
     y="0"
     stroke="none"
     fill="#000000"
     transform="matrix(0.05 0 0 0.05 307.602 180.315)"
     font-style="normal"
     font-weight="bold"
     font-size="200px"
     font-family="Helvetica"
     id="text136">
H</text>
  <text
     x="0"
     y="0"
     stroke="none"
     fill="#000000"
     transform="matrix(0.05 0 0 0.05 314.824 182.615)"
     font-style="normal"
     font-weight="bold"
     font-size="150px"
     font-family="Helvetica"
     id="text137">
4</text>
  <text
     x="0"
     y="0"
     stroke="none"
     fill="#000000"
     transform="matrix(0.05 0 0 0.05 284.539 191.198)"
     font-style="normal"
     font-weight="bold"
     font-size="200px"
     font-family="Helvetica"
     id="text138">
2) </text>
  <text
     x="0"
     y="0"
     stroke="none"
     fill="#000000"
     transform="matrix(0.05 0 0 0.05 296.209 191.198)"
     font-style="normal"
     font-weight="bold"
     font-size="200px"
     font-family="Helvetica"
     id="text139">
KOH</text>
  <text
     x="0"
     y="0"
     stroke="none"
     fill="#000000"
     transform="matrix(0.05 0 0 0.05 418.036 176.212)"
     font-style="normal"
     font-weight="bold"
     font-size="180px"
     font-family="Helvetica"
     id="text142">
X</text>
  <text
     x="0"
     y="0"
     stroke="none"
     fill="#000000"
     transform="matrix(0.05 0 0 0.05 430.735 183.687)"
     font-style="normal"
     font-weight="bold"
     font-size="180px"
     font-family="Helvetica"
     id="text143">
NH</text>
  <text
     x="0"
     y="0"
     stroke="none"
     fill="#000000"
     transform="matrix(0.05 0 0 0.05 443.734 185.757)"
     font-style="normal"
     font-weight="bold"
     font-size="135px"
     font-family="Helvetica"
     id="text144">
2</text>
  <path
     stroke="none"
     fill="#000000"
     transform="matrix(0.05 0 0 0.05 -10 -11)"
     d="M 8712.61,3745.31 L 8723.69,3726.1 L 8791.45,3765.22 L 8780.37,3784.43 L 8712.61,3745.31 Z "
     id="path144" />
  <text
     x="0"
     y="0"
     stroke="none"
     fill="#000000"
     transform="matrix(0.05 0 0 0.05 413.753 199.892)"
     font-style="normal"
     font-weight="bold"
     font-size="200px"
     font-family="Helvetica"
     id="text145">
cat. </text>
  <text
     x="0"
     y="0"
     stroke="none"
     fill="#000000"
     transform="matrix(0.05 0 0 0.05 433.762 199.892)"
     font-style="normal"
     font-weight="bold"
     font-size="200px"
     font-family="Helvetica"
     id="text146">
H</text>
  <text
     x="0"
     y="0"
     stroke="none"
     fill="#000000"
     transform="matrix(0.05 0 0 0.05 440.984 196.293)"
     font-style="normal"
     font-weight="bold"
     font-size="150px"
     font-family="Helvetica"
     id="text147">
+</text>
  <text
     x="0"
     y="0"
     stroke="none"
     fill="#000000"
     transform="matrix(0.05 0 0 0.05 491.05 183.684)"
     font-style="normal"
     font-weight="bold"
     font-size="180px"
     font-family="Helvetica"
     id="text151">
NH</text>
  <path
     stroke="none"
     fill="#000000"
     transform="matrix(0.05 0 0 0.05 -10 -11)"
     d="M 10058.4,3530.98 L 10080.5,3529.76 L 10091.8,3732.53 L 10069.6,3733.76 L 10058.4,3530.98 Z "
     id="path152" />
  <path
     stroke="none"
     fill="#000000"
     transform="matrix(0.05 0 0 0.05 -10 -11)"
     d="M 9988.27,3879.55 L 10000.4,3898.11 L 9841.78,4001.78 L 9829.65,3983.22 L 9988.27,3879.55 Z "
     id="path153" />
  <text
     x="0"
     y="0"
     stroke="none"
     fill="#000000"
     transform="matrix(0.05 0 0 0.05 476.461 201.298)"
     font-style="normal"
     font-weight="bold"
     font-size="200px"
     font-family="Helvetica"
     id="text153">
cat. </text>
  <text
     x="0"
     y="0"
     stroke="none"
     fill="#000000"
     transform="matrix(0.05 0 0 0.05 496.471 201.298)"
     font-style="normal"
     font-weight="bold"
     font-size="200px"
     font-family="Helvetica"
     id="text154">
H</text>
  <text
     x="0"
     y="0"
     stroke="none"
     fill="#000000"
     transform="matrix(0.05 0 0 0.05 503.692 197.7)"
     font-style="normal"
     font-weight="bold"
     font-size="150px"
     font-family="Helvetica"
     id="text155">
+</text>
  <text
     x="0"
     y="0"
     stroke="none"
     fill="#000000"
     transform="matrix(0.05 0 0 0.05 354.24 172.446)"
     font-style="normal"
     font-weight="bold"
     font-size="180px"
     font-family="Helvetica"
     id="text160">
X</text>
  <text
     x="0"
     y="0"
     stroke="none"
     fill="#000000"
     transform="matrix(0.05 0 0 0.05 366.939 179.921)"
     font-style="normal"
     font-weight="bold"
     font-size="180px"
     font-family="Helvetica"
     id="text161">
NH</text>
  <text
     x="0"
     y="0"
     stroke="none"
     fill="#000000"
     transform="matrix(0.05 0 0 0.05 379.938 181.991)"
     font-style="normal"
     font-weight="bold"
     font-size="135px"
     font-family="Helvetica"
     id="text162">
2</text>
  <path
     stroke="none"
     fill="#000000"
     transform="matrix(0.05 0 0 0.05 -10 -11)"
     d="M 7436.68,3669.99 L 7447.77,3650.78 L 7514.78,3689.47 L 7503.69,3708.68 L 7436.68,3669.99 Z "
     id="path162" />
  <text
     x="0"
     y="0"
     stroke="none"
     fill="#000000"
     transform="matrix(0.05 0 0 0.05 351.854 192.685)"
     font-style="normal"
     font-weight="bold"
     font-size="160px"
     font-family="Helvetica"
     id="text163">
NaBH</text>
  <text
     x="0"
     y="0"
     stroke="none"
     fill="#000000"
     transform="matrix(0.05 0 0 0.05 373.635 194.524)"
     font-style="normal"
     font-weight="bold"
     font-size="120px"
     font-family="Helvetica"
     id="text164">
3</text>
  <text
     x="0"
     y="0"
     stroke="none"
     fill="#000000"
     transform="matrix(0.05 0 0 0.05 376.972 192.685)"
     font-style="normal"
     font-weight="bold"
     font-size="160px"
     font-family="Helvetica"
     id="text165">
CN</text>
  <text
     x="0"
     y="0"
     stroke="none"
     fill="#000000"
     transform="matrix(0.05 0 0 0.05 331.408 201.468)"
     font-style="normal"
     font-weight="bold"
     font-size="160px"
     font-family="Helvetica"
     id="text166">
or </text>
  <text
     x="0"
     y="0"
     stroke="none"
     fill="#000000"
     transform="matrix(0.05 0 0 0.05 341.631 201.468)"
     font-style="normal"
     font-weight="bold"
     font-size="160px"
     font-family="Helvetica"
     id="text167">
NaBH(OAc)</text>
  <text
     x="0"
     y="0"
     stroke="none"
     fill="#000000"
     transform="matrix(0.05 0 0 0.05 385.189 203.308)"
     font-style="normal"
     font-weight="bold"
     font-size="120px"
     font-family="Helvetica"
     id="text168">
3</text>
  <text
     x="0"
     y="0"
     stroke="none"
     fill="#000000"
     transform="matrix(0.05 0 0 0.05 109.183 316.603)"
     font-style="normal"
     font-weight="bold"
     font-size="200px"
     font-family="Helvetica"
     id="text176">
NaOH</text>
  <text
     x="0"
     y="0"
     stroke="none"
     fill="#000000"
     transform="matrix(0.05 0 0 0.05 115.432 327.487)"
     font-style="normal"
     font-weight="bold"
     font-size="200px"
     font-family="Helvetica"
     id="text177">
Br</text>
  <text
     x="0"
     y="0"
     stroke="none"
     fill="#000000"
     transform="matrix(0.05 0 0 0.05 126.546 329.786)"
     font-style="normal"
     font-weight="bold"
     font-size="150px"
     font-family="Helvetica"
     id="text178">
2</text>
  <text
     x="0"
     y="0"
     stroke="none"
     fill="#000000"
     transform="matrix(0.05 0 0 0.05 54.3712 315.738)"
     font-style="normal"
     font-weight="bold"
     font-size="200px"
     font-family="Helvetica"
     id="text188">
Br</text>
  <text
     x="0"
     y="0"
     stroke="none"
     fill="#000000"
     transform="matrix(0.05 0 0 0.05 65.4844 318.038)"
     font-style="normal"
     font-weight="bold"
     font-size="150px"
     font-family="Helvetica"
     id="text189">
2</text>
  <text
     x="0"
     y="0"
     stroke="none"
     fill="#000000"
     transform="matrix(0.05 0 0 0.05 46.2077 326.388)"
     font-style="normal"
     font-weight="bold"
     font-size="200px"
     font-family="Helvetica"
     id="text190">
cat. </text>
  <text
     x="0"
     y="0"
     stroke="none"
     fill="#000000"
     transform="matrix(0.05 0 0 0.05 66.2175 326.388)"
     font-style="normal"
     font-weight="bold"
     font-size="200px"
     font-family="Helvetica"
     id="text191">
H</text>
  <text
     x="0"
     y="0"
     stroke="none"
     fill="#000000"
     transform="matrix(0.05 0 0 0.05 73.4391 322.789)"
     font-style="normal"
     font-weight="bold"
     font-size="150px"
     font-family="Helvetica"
     id="text192">
+</text>
  <text
     x="0"
     y="0"
     stroke="none"
     fill="#000000"
     transform="matrix(0.05 0 0 0.05 267.069 316.289)"
     font-style="normal"
     font-weight="bold"
     font-size="160px"
     font-family="Helvetica"
     id="text202">
NaOCH</text>
  <text
     x="0"
     y="0"
     stroke="none"
     fill="#000000"
     transform="matrix(0.05 0 0 0.05 295.073 318.129)"
     font-style="normal"
     font-weight="bold"
     font-size="120px"
     font-family="Helvetica"
     id="text203">
3</text>
  <text
     x="0"
     y="0"
     stroke="none"
     fill="#000000"
     transform="matrix(0.05 0 0 0.05 298.41 316.289)"
     font-style="normal"
     font-weight="bold"
     font-size="160px"
     font-family="Helvetica"
     id="text204" />
  <text
     x="0"
     y="0"
     stroke="none"
     fill="#000000"
     transform="matrix(0.05 0 0 0.05 300.632 316.289)"
     font-style="normal"
     font-weight="bold"
     font-size="160px"
     font-family="Helvetica"
     id="text205">
or </text>
  <text
     x="0"
     y="0"
     stroke="none"
     fill="#000000"
     transform="matrix(0.05 0 0 0.05 310.855 316.289)"
     font-style="normal"
     font-weight="bold"
     font-size="160px"
     font-family="Helvetica"
     id="text206">
NaH</text>
  <text
     x="0"
     y="0"
     stroke="none"
     fill="#000000"
     transform="matrix(0.05 0 0 0.05 326.859 316.289)"
     font-style="normal"
     font-weight="normal"
     font-size="160px"
     font-family="Helvetica"
     id="text207">
: </text>
  <text
     x="0"
     y="0"
     stroke="none"
     fill="#000000"
     transform="matrix(0.05 0 0 0.05 331.304 316.289)"
     font-style="normal"
     font-weight="normal"
     font-size="160px"
     font-family="Helvetica"
     id="text208">
more </text>
  <text
     x="0"
     y="0"
     stroke="none"
     fill="#000000"
     transform="matrix(0.05 0 0 0.05 351.754 316.289)"
     font-style="normal"
     font-weight="normal"
     font-size="160px"
     font-family="Helvetica"
     id="text209">
sub</text>
  <text
     x="0"
     y="0"
     stroke="none"
     fill="#000000"
     transform="matrix(0.05 0 0 0.05 267.069 325.072)"
     font-style="normal"
     font-weight="bold"
     font-size="160px"
     font-family="Helvetica"
     id="text210">
LDA</text>
  <text
     x="0"
     y="0"
     stroke="none"
     fill="#000000"
     transform="matrix(0.05 0 0 0.05 283.51 325.072)"
     font-style="normal"
     font-weight="normal"
     font-size="160px"
     font-family="Helvetica"
     id="text211">
: </text>
  <text
     x="0"
     y="0"
     stroke="none"
     fill="#000000"
     transform="matrix(0.05 0 0 0.05 287.956 325.072)"
     font-style="normal"
     font-weight="normal"
     font-size="160px"
     font-family="Helvetica"
     id="text212">
less </text>
  <text
     x="0"
     y="0"
     stroke="none"
     fill="#000000"
     transform="matrix(0.05 0 0 0.05 304.405 325.072)"
     font-style="normal"
     font-weight="normal"
     font-size="160px"
     font-family="Helvetica"
     id="text213">
sub</text>
  <path
     stroke="none"
     fill="#000000"
     transform="matrix(0.05 0 0 0.05 -10 -11)"
     d="M 9052.86,5652.98 L 9063.94,5672.19 L 8874.83,5781.37 L 8863.74,5762.17 L 9052.86,5652.98 Z "
     id="path213" />
  <path
     stroke="none"
     fill="#000000"
     transform="matrix(0.05 0 0 0.05 -10 -11)"
     d="M 9025.14,5604.97 L 9036.22,5624.18 L 8847.11,5733.36 L 8836.02,5714.16 L 9025.14,5604.97 Z "
     id="path214" />
  <text
     x="0"
     y="0"
     stroke="none"
     fill="#000000"
     transform="matrix(0.05 0 0 0.05 425.087 282.043)"
     font-style="normal"
     font-weight="bold"
     font-size="180px"
     font-family="Helvetica"
     id="text214">
O</text>
  <path
     stroke="none"
     fill="#000000"
     transform="matrix(0.05 0 0 0.05 -10 -11)"
     d="M 9041.31,5640.44 L 9019.1,5653.27 L 9019.59,5347.58 L 9041.77,5347.58 L 9041.31,5640.44 Z "
     id="path215" />
  <path
     stroke="none"
     fill="#000000"
     transform="matrix(0.05 0 0 0.05 -10 -11)"
     d="M 9295.17,5786.48 L 9284.08,5805.68 L 9019.1,5653.27 L 9041.31,5640.44 L 9295.17,5786.48 Z "
     id="path216" />
  <path
     stroke="none"
     fill="#000000"
     transform="matrix(0.05 0 0 0.05 -10 -11)"
     d="M 9064.96,8286.92 L 9064.93,8312.59 L 8876.17,8422.28 L 8865.09,8403.08 L 9064.96,8286.92 Z "
     id="path228" />
  <text
     x="0"
     y="0"
     stroke="none"
     fill="#107f01"
     transform="matrix(0.05 0 0 0.05 422.035 414.747)"
     font-style="normal"
     font-weight="bold"
     font-size="180px"
     font-family="Helvetica"
     id="text229">
Br</text>
  <path
     stroke="none"
     fill="#000000"
     transform="matrix(0.05 0 0 0.05 -10 -11)"
     d="M 9330.04,8440.55 L 9318.95,8459.76 L 9064.93,8312.59 L 9064.96,8286.92 L 9330.04,8440.55 Z "
     id="path229" />
  <path
     stroke="none"
     fill="#000000"
     transform="matrix(0.05 0 0 0.05 -10 -11)"
     d="M 15647.6,6575.17 L 15649.4,6210.22 L 15671.4,6210.22 L 15669.6,6575.17 Z "
     id="path242" />
  <path
     stroke="none"
     fill="#000000"
     transform="matrix(0.05 0 0 0.05 -10 -11)"
     d="M 15657.7,6768.2 C 15657.7,6768.2 15602.3,6545.18 15602.3,6545.18 C 15602.3,6545.18 15633.9,6573.61 15658.6,6574.17 C 15683.3,6574.72 15715.2,6547.71 15715.2,6547.71 C 15715.2,6547.71 15657.7,6768.2 15657.7,6768.2 C 15657.7,6768.2 15657.7,6768.2 15657.7,6768.2 "
     id="path243" />
  <path
     stroke="#000000"
     stroke-width="1"
     fill="none"
     transform="matrix(0.05 0 0 0.05 -10 -11)"
     d="M 15657.7,6768.2 C 15657.7,6768.2 15602.3,6545.18 15602.3,6545.18 C 15602.3,6545.18 15633.9,6573.61 15658.6,6574.17 C 15683.3,6574.72 15715.2,6547.71 15715.2,6547.71 C 15715.2,6547.71 15657.7,6768.2 15657.7,6768.2 C 15657.7,6768.2 15657.7,6768.2 15657.7,6768.2 "
     id="path244" />
  <path
     stroke="none"
     fill="#000000"
     transform="matrix(0.05 0 0 0.05 -10 -11)"
     d="M 15617.8,5857.15 L 15595.6,5857.15 L 15595.6,5642.11 L 15617.8,5642.11 L 15617.8,5857.15 Z "
     id="path249" />
  <path
     stroke="none"
     fill="#000000"
     transform="matrix(0.05 0 0 0.05 -10 -11)"
     d="M 15673.2,5857.15 L 15651.1,5857.15 L 15651.1,5642.11 L 15673.2,5642.11 L 15673.2,5857.15 Z "
     id="path250" />
  <text
     x="0"
     y="0"
     stroke="none"
     fill="#000000"
     transform="matrix(0.05 0 0 0.05 768.221 269.32)"
     font-style="normal"
     font-weight="bold"
     font-size="180px"
     font-family="Helvetica"
     id="text250">
O</text>
  <path
     stroke="none"
     fill="#000000"
     transform="matrix(0.05 0 0 0.05 -10 -11)"
     d="M 15634.1,5853.27 L 15634.2,5827.6 L 15899.4,5981.3 L 15888.3,6000.5 L 15634.1,5853.27 Z "
     id="path251" />
  <path
     stroke="none"
     fill="#000000"
     transform="matrix(0.05 0 0 0.05 -10 -11)"
     d="M 15475,5946.01 L 15463.9,5926.8 L 15634.2,5827.6 L 15634.1,5853.27 L 15475,5946.01 Z "
     id="path252" />
  <text
     x="0"
     y="0"
     stroke="none"
     fill="#000000"
     transform="matrix(0.05 0 0 0.05 755.502 291.784)"
     font-style="normal"
     font-weight="bold"
     font-size="180px"
     font-family="Helvetica"
     id="text252">
H</text>
  <text
     x="0"
     y="0"
     stroke="none"
     fill="#000000"
     transform="matrix(0.05 0 0 0.05 744.002 308.781)"
     font-style="normal"
     font-weight="bold"
     font-size="200px"
     font-family="Helvetica"
     id="text255">
Ag</text>
  <text
     x="0"
     y="0"
     stroke="none"
     fill="#000000"
     transform="matrix(0.05 0 0 0.05 757.332 311.081)"
     font-style="normal"
     font-weight="bold"
     font-size="150px"
     font-family="Helvetica"
     id="text256">
2</text>
  <text
     x="0"
     y="0"
     stroke="none"
     fill="#000000"
     transform="matrix(0.05 0 0 0.05 761.503 308.781)"
     font-style="normal"
     font-weight="bold"
     font-size="200px"
     font-family="Helvetica"
     id="text257">
O</text>
  <text
     x="0"
     y="0"
     stroke="none"
     fill="#000000"
     transform="matrix(0.05 0 0 0.05 747.696 322.081)"
     font-style="normal"
     font-weight="bold"
     font-size="200px"
     font-family="Helvetica"
     id="text258">
NH</text>
  <text
     x="0"
     y="0"
     stroke="none"
     fill="#000000"
     transform="matrix(0.05 0 0 0.05 762.139 324.38)"
     font-style="normal"
     font-weight="bold"
     font-size="150px"
     font-family="Helvetica"
     id="text259">
3</text>
  <text
     x="0"
     y="0"
     stroke="none"
     fill="#000000"
     transform="matrix(0.05 0 0 0.05 165.162 190.192)"
     font-style="normal"
     font-weight="bold"
     font-size="160px"
     font-family="Helvetica"
     id="text262">
or </text>
  <text
     x="0"
     y="0"
     stroke="none"
     fill="#000000"
     transform="matrix(0.05 0 0 0.05 175.385 190.192)"
     font-style="normal"
     font-weight="bold"
     font-size="160px"
     font-family="Helvetica"
     id="text263">
RLi</text>
  <path
     stroke="none"
     fill="#000000"
     transform="matrix(0.05 0 0 0.05 -10 -11)"
     d="M 6667.6,3656 L 6667.6,4355.92 L 6645.6,4355.92 L 6645.6,3656 Z "
     id="path263" />
  <path
     stroke="none"
     fill="#000000"
     transform="matrix(0.05 0 0 0.05 -10 -11)"
     d="M 6656.6,3462.96 C 6656.6,3462.96 6713.04,3684.72 6713.04,3684.72 C 6713.04,3684.72 6681.29,3657 6656.6,3657 C 6631.47,3657 6599.16,3684.72 6599.16,3684.72 C 6599.16,3684.72 6656.6,3462.96 6656.6,3462.96 C 6656.6,3462.96 6656.6,3462.96 6656.6,3462.96 "
     id="path264" />
  <path
     stroke="#000000"
     stroke-width="1"
     fill="none"
     transform="matrix(0.05 0 0 0.05 -10 -11)"
     d="M 6656.6,3462.96 C 6656.6,3462.96 6713.04,3684.72 6713.04,3684.72 C 6713.04,3684.72 6681.29,3657 6656.6,3657 C 6631.47,3657 6599.16,3684.72 6599.16,3684.72 C 6599.16,3684.72 6656.6,3462.96 6656.6,3462.96 C 6656.6,3462.96 6656.6,3462.96 6656.6,3462.96 "
     id="path265" />
  <path
     stroke="none"
     fill="#000000"
     transform="matrix(0.05 0 0 0.05 -10 -11)"
     d="M 8040.4,3670.3 L 8040.4,4370.22 L 8018.4,4370.22 L 8018.4,3670.3 Z "
     id="path266" />
  <path
     stroke="none"
     fill="#000000"
     transform="matrix(0.05 0 0 0.05 -10 -11)"
     d="M 8029.4,3477.26 C 8029.4,3477.26 8085.84,3699.02 8085.84,3699.02 C 8085.84,3699.02 8054.09,3671.3 8029.4,3671.3 C 8004.27,3671.3 7971.96,3699.02 7971.96,3699.02 C 7971.96,3699.02 8029.4,3477.26 8029.4,3477.26 C 8029.4,3477.26 8029.4,3477.26 8029.4,3477.26 "
     id="path267" />
  <path
     stroke="#000000"
     stroke-width="1"
     fill="none"
     transform="matrix(0.05 0 0 0.05 -10 -11)"
     d="M 8029.4,3477.26 C 8029.4,3477.26 8085.84,3699.02 8085.84,3699.02 C 8085.84,3699.02 8054.09,3671.3 8029.4,3671.3 C 8004.27,3671.3 7971.96,3699.02 7971.96,3699.02 C 7971.96,3699.02 8029.4,3477.26 8029.4,3477.26 C 8029.4,3477.26 8029.4,3477.26 8029.4,3477.26 "
     id="path268" />
  <path
     stroke="none"
     fill="#000000"
     transform="matrix(0.05 0 0 0.05 -10 -11)"
     d="M 9255.9,3656 L 9255.9,4355.92 L 9233.9,4355.92 L 9233.9,3656 Z "
     id="path269" />
  <path
     stroke="none"
     fill="#000000"
     transform="matrix(0.05 0 0 0.05 -10 -11)"
     d="M 9244.9,3462.96 C 9244.9,3462.96 9301.34,3684.72 9301.34,3684.72 C 9301.34,3684.72 9269.59,3657 9244.9,3657 C 9219.77,3657 9187.46,3684.72 9187.46,3684.72 C 9187.46,3684.72 9244.9,3462.96 9244.9,3462.96 C 9244.9,3462.96 9244.9,3462.96 9244.9,3462.96 "
     id="path270" />
  <path
     stroke="#000000"
     stroke-width="1"
     fill="none"
     transform="matrix(0.05 0 0 0.05 -10 -11)"
     d="M 9244.9,3462.96 C 9244.9,3462.96 9301.34,3684.72 9301.34,3684.72 C 9301.34,3684.72 9269.59,3657 9244.9,3657 C 9219.77,3657 9187.46,3684.72 9187.46,3684.72 C 9187.46,3684.72 9244.9,3462.96 9244.9,3462.96 C 9244.9,3462.96 9244.9,3462.96 9244.9,3462.96 "
     id="path271" />
  <path
     stroke="none"
     fill="#000000"
     transform="matrix(0.05 0 0 0.05 -10 -11)"
     d="M 10471.4,3656 L 10471.4,4355.92 L 10449.4,4355.92 L 10449.4,3656 Z "
     id="path272" />
  <path
     stroke="none"
     fill="#000000"
     transform="matrix(0.05 0 0 0.05 -10 -11)"
     d="M 10460.4,3462.96 C 10460.4,3462.96 10516.8,3684.72 10516.8,3684.72 C 10516.8,3684.72 10485.1,3657 10460.4,3657 C 10435.3,3657 10403,3684.72 10403,3684.72 C 10403,3684.72 10460.4,3462.96 10460.4,3462.96 C 10460.4,3462.96 10460.4,3462.96 10460.4,3462.96 "
     id="path273" />
  <path
     stroke="#000000"
     stroke-width="1"
     fill="none"
     transform="matrix(0.05 0 0 0.05 -10 -11)"
     d="M 10460.4,3462.96 C 10460.4,3462.96 10516.8,3684.72 10516.8,3684.72 C 10516.8,3684.72 10485.1,3657 10460.4,3657 C 10435.3,3657 10403,3684.72 10403,3684.72 C 10403,3684.72 10460.4,3462.96 10460.4,3462.96 C 10460.4,3462.96 10460.4,3462.96 10460.4,3462.96 "
     id="path274" />
  <path
     stroke="none"
     fill="#000000"
     transform="matrix(0.05 0 0 0.05 -10 -11)"
     d="M 11829.9,3656 L 11829.9,4355.92 L 11807.9,4355.92 L 11807.9,3656 Z "
     id="path276" />
  <path
     stroke="none"
     fill="#000000"
     transform="matrix(0.05 0 0 0.05 -10 -11)"
     d="M 11818.9,3462.96 C 11818.9,3462.96 11875.3,3684.72 11875.3,3684.72 C 11875.3,3684.72 11843.6,3657 11818.9,3657 C 11793.8,3657 11761.5,3684.72 11761.5,3684.72 C 11761.5,3684.72 11818.9,3462.96 11818.9,3462.96 C 11818.9,3462.96 11818.9,3462.96 11818.9,3462.96 "
     id="path277" />
  <path
     stroke="#000000"
     stroke-width="1"
     fill="none"
     transform="matrix(0.05 0 0 0.05 -10 -11)"
     d="M 11818.9,3462.96 C 11818.9,3462.96 11875.3,3684.72 11875.3,3684.72 C 11875.3,3684.72 11843.6,3657 11818.9,3657 C 11793.8,3657 11761.5,3684.72 11761.5,3684.72 C 11761.5,3684.72 11818.9,3462.96 11818.9,3462.96 C 11818.9,3462.96 11818.9,3462.96 11818.9,3462.96 "
     id="path278" />
  <path
     stroke="none"
     fill="#000000"
     transform="matrix(0.05 0 0 0.05 -10 -11)"
     d="M 13124.1,3669.31 L 13124.1,4369.23 L 13102.1,4369.23 L 13102.1,3669.31 Z "
     id="path279" />
  <path
     stroke="none"
     fill="#000000"
     transform="matrix(0.05 0 0 0.05 -10 -11)"
     d="M 13113.1,3476.28 C 13113.1,3476.28 13169.5,3698.03 13169.5,3698.03 C 13169.5,3698.03 13137.8,3670.31 13113.1,3670.31 C 13088,3670.31 13055.7,3698.03 13055.7,3698.03 C 13055.7,3698.03 13113.1,3476.28 13113.1,3476.28 C 13113.1,3476.28 13113.1,3476.28 13113.1,3476.28 "
     id="path280" />
  <path
     stroke="#000000"
     stroke-width="1"
     fill="none"
     transform="matrix(0.05 0 0 0.05 -10 -11)"
     d="M 13113.1,3476.28 C 13113.1,3476.28 13169.5,3698.03 13169.5,3698.03 C 13169.5,3698.03 13137.8,3670.31 13113.1,3670.31 C 13088,3670.31 13055.7,3698.03 13055.7,3698.03 C 13055.7,3698.03 13113.1,3476.28 13113.1,3476.28 C 13113.1,3476.28 13113.1,3476.28 13113.1,3476.28 "
     id="path281" />
  <path
     stroke="none"
     fill="#000000"
     transform="matrix(0.05 0 0 0.05 -10 -11)"
     d="M 12289.5,3869.08 L 12278.4,3849.88 L 12543.1,3696.46 L 12543.2,3722.13 L 12289.5,3869.08 Z "
     id="path282" />
  <text
     x="0"
     y="0"
     stroke="none"
     fill="#000000"
     transform="matrix(0.05 0 0 0.05 626.593 185.213)"
     font-style="normal"
     font-weight="bold"
     font-size="180px"
     font-family="Helvetica"
     id="text282">
OH</text>
  <path
     stroke="none"
     fill="#000000"
     transform="matrix(0.05 0 0 0.05 -10 -11)"
     d="M 12543.2,3722.13 L 12543.1,3696.46 L 12724.3,3801.88 L 12713.2,3821.09 L 12543.2,3722.13 Z "
     id="path283" />
  <text
     x="0"
     y="0"
     stroke="none"
     fill="#000000"
     transform="matrix(0.05 0 0 0.05 606.906 197.104)"
     font-style="normal"
     font-weight="bold"
     font-size="200px"
     font-family="Helvetica"
     id="text283">
cat. </text>
  <text
     x="0"
     y="0"
     stroke="none"
     fill="#000000"
     transform="matrix(0.05 0 0 0.05 626.916 197.104)"
     font-style="normal"
     font-weight="bold"
     font-size="200px"
     font-family="Helvetica"
     id="text284">
H</text>
  <text
     x="0"
     y="0"
     stroke="none"
     fill="#000000"
     transform="matrix(0.05 0 0 0.05 634.138 193.505)"
     font-style="normal"
     font-weight="bold"
     font-size="150px"
     font-family="Helvetica"
     id="text285">
+</text>
  <text
     x="0"
     y="0"
     stroke="none"
     fill="#000000"
     transform="matrix(0.05 0 0 0.05 600.924 167.712)"
     font-style="normal"
     font-weight="bold"
     font-size="160px"
     font-family="Helvetica"
     id="text286">
excess</text>
  <path
     stroke="none"
     fill="#000000"
     transform="matrix(0.05 0 0 0.05 -10 -11)"
     d="M 14986.4,4666.23 L 5457.76,4666.23 L 5457.76,4644.23 L 14986.4,4644.23 Z "
     id="path293" />
  <path
     stroke="none"
     fill="#000000"
     transform="matrix(0.05 0 0 0.05 -10 -11)"
     d="M 14997.4,3646.35 L 14997.4,4655.23 L 14975.4,4655.23 L 14975.4,3646.35 Z "
     id="path294" />
  <path
     stroke="none"
     fill="#000000"
     transform="matrix(0.05 0 0 0.05 -10 -11)"
     d="M 14986.4,3453.31 C 14986.4,3453.31 15042.8,3675.07 15042.8,3675.07 C 15042.8,3675.07 15011.1,3647.35 14986.4,3647.35 C 14961.3,3647.35 14929,3675.07 14929,3675.07 C 14929,3675.07 14986.4,3453.31 14986.4,3453.31 C 14986.4,3453.31 14986.4,3453.31 14986.4,3453.31 "
     id="path295" />
  <path
     stroke="#000000"
     stroke-width="1"
     fill="none"
     transform="matrix(0.05 0 0 0.05 -10 -11)"
     d="M 14986.4,3453.31 C 14986.4,3453.31 15042.8,3675.07 15042.8,3675.07 C 15042.8,3675.07 15011.1,3647.35 14986.4,3647.35 C 14961.3,3647.35 14929,3675.07 14929,3675.07 C 14929,3675.07 14986.4,3453.31 14986.4,3453.31 C 14986.4,3453.31 14986.4,3453.31 14986.4,3453.31 "
     id="path296" />
  <path
     stroke="none"
     fill="#000000"
     transform="matrix(0.05 0 0 0.05 -10 -11)"
     d="M 14504.4,3911.06 L 14526.5,3911.06 L 14526.5,4130.57 L 14504.4,4130.57 L 14504.4,3911.06 Z "
     id="path297" />
  <path
     stroke="none"
     fill="#000000"
     transform="matrix(0.05 0 0 0.05 -10 -11)"
     d="M 14448.9,3911.06 L 14471.1,3911.06 L 14471.1,4130.57 L 14448.9,4130.57 L 14448.9,3911.06 Z "
     id="path298" />
  <text
     x="0"
     y="0"
     stroke="none"
     fill="#000000"
     transform="matrix(0.05 0 0 0.05 711.385 203.568)"
     font-style="normal"
     font-weight="bold"
     font-size="180px"
     font-family="Helvetica"
     id="text298">
PPh</text>
  <text
     x="0"
     y="0"
     stroke="none"
     fill="#000000"
     transform="matrix(0.05 0 0 0.05 728.889 205.638)"
     font-style="normal"
     font-weight="bold"
     font-size="135px"
     font-family="Helvetica"
     id="text299">
3</text>
  <path
     stroke="none"
     fill="#0000ff"
     transform="matrix(0.05 0 0 0.05 -10 -11)"
     d="M 14487.7,3940.44 L 14487.7,3914.78 L 14741.1,3767.96 L 14752.2,3787.16 L 14487.7,3940.44 Z "
     id="path299" />
  <path
     stroke="none"
     fill="#0000ff"
     transform="matrix(0.05 0 0 0.05 -10 -11)"
     d="M 14223.2,3787.16 L 14234.3,3767.96 L 14487.7,3914.78 L 14487.7,3940.44 L 14223.2,3787.16 Z "
     id="path300" />
  <text
     x="0"
     y="0"
     stroke="none"
     fill="#000000"
     transform="matrix(0.05 0 0 0.05 144.085 323.266)"
     font-style="normal"
     font-weight="bold"
     font-size="160px"
     font-family="Helvetica"
     id="text300">
then </text>
  <text
     x="0"
     y="0"
     stroke="none"
     fill="#000000"
     transform="matrix(0.05 0 0 0.05 163.194 323.266)"
     font-style="normal"
     font-weight="bold"
     font-size="160px"
     font-family="Helvetica"
     id="text301">
H</text>
  <text
     x="0"
     y="0"
     stroke="none"
     fill="#000000"
     transform="matrix(0.05 0 0 0.05 168.971 325.106)"
     font-style="normal"
     font-weight="bold"
     font-size="120px"
     font-family="Helvetica"
     id="text302">
3</text>
  <text
     x="0"
     y="0"
     stroke="none"
     fill="#000000"
     transform="matrix(0.05 0 0 0.05 172.308 323.266)"
     font-style="normal"
     font-weight="bold"
     font-size="160px"
     font-family="Helvetica"
     id="text303">
O</text>
  <text
     x="0"
     y="0"
     stroke="none"
     fill="#000000"
     transform="matrix(0.05 0 0 0.05 178.531 320.387)"
     font-style="normal"
     font-weight="bold"
     font-size="120px"
     font-family="Helvetica"
     id="text304">
+</text>
  <path
     stroke="none"
     fill="#000000"
     transform="matrix(0.05 0 0 0.05 -10 -11)"
     d="M 3017.04,6842.56 L 3017.04,6283.15 L 3039.04,6283.15 L 3039.04,6842.56 Z "
     id="path304" />
  <path
     stroke="none"
     fill="#000000"
     transform="matrix(0.05 0 0 0.05 -10 -11)"
     d="M 3028.04,7035.6 C 3028.04,7035.6 2970.6,6813.84 2970.6,6813.84 C 2970.6,6813.84 3002.91,6841.56 3028.04,6841.56 C 3052.73,6841.56 3084.48,6813.84 3084.48,6813.84 C 3084.48,6813.84 3028.04,7035.6 3028.04,7035.6 C 3028.04,7035.6 3028.04,7035.6 3028.04,7035.6 "
     id="path305" />
  <path
     stroke="#000000"
     stroke-width="1"
     fill="none"
     transform="matrix(0.05 0 0 0.05 -10 -11)"
     d="M 3028.04,7035.6 C 3028.04,7035.6 2970.6,6813.84 2970.6,6813.84 C 2970.6,6813.84 3002.91,6841.56 3028.04,6841.56 C 3052.73,6841.56 3084.48,6813.84 3084.48,6813.84 C 3084.48,6813.84 3028.04,7035.6 3028.04,7035.6 C 3028.04,7035.6 3028.04,7035.6 3028.04,7035.6 "
     id="path306" />
  <path
     stroke="none"
     fill="#000000"
     transform="matrix(0.05 0 0 0.05 -10 -11)"
     d="M 8014.8,7295.15 L 5930.94,7295.15 L 5930.94,7273.15 L 8014.8,7273.15 Z "
     id="path323" />
  <path
     stroke="none"
     fill="#000000"
     transform="matrix(0.05 0 0 0.05 -10 -11)"
     d="M 8032.4,8622.9 L 8032.4,6021.98 L 8054.4,6021.98 L 8054.4,8622.9 Z "
     id="path324" />
  <path
     stroke="none"
     fill="#000000"
     transform="matrix(0.05 0 0 0.05 -10 -11)"
     d="M 9657.92,6036.75 L 8047.34,6036.75 L 8047.34,6014.75 L 9657.92,6014.75 Z "
     id="path325" />
  <path
     stroke="none"
     fill="#000000"
     transform="matrix(0.05 0 0 0.05 -10 -11)"
     d="M 9850.96,6025.75 C 9850.96,6025.75 9629.2,6082.19 9629.2,6082.19 C 9629.2,6082.19 9656.92,6050.44 9656.92,6025.75 C 9656.92,6000.62 9629.2,5968.31 9629.2,5968.31 C 9629.2,5968.31 9850.96,6025.75 9850.96,6025.75 C 9850.96,6025.75 9850.96,6025.75 9850.96,6025.75 "
     id="path326" />
  <path
     stroke="#000000"
     stroke-width="1"
     fill="none"
     transform="matrix(0.05 0 0 0.05 -10 -11)"
     d="M 9850.96,6025.75 C 9850.96,6025.75 9629.2,6082.19 9629.2,6082.19 C 9629.2,6082.19 9656.92,6050.44 9656.92,6025.75 C 9656.92,6000.62 9629.2,5968.31 9629.2,5968.31 C 9629.2,5968.31 9850.96,6025.75 9850.96,6025.75 C 9850.96,6025.75 9850.96,6025.75 9850.96,6025.75 "
     id="path327" />
  <path
     stroke="none"
     fill="#000000"
     transform="matrix(0.05 0 0 0.05 -10 -11)"
     d="M 9657.92,7295.15 L 8047.34,7295.15 L 8047.34,7273.15 L 9657.92,7273.15 Z "
     id="path336" />
  <path
     stroke="none"
     fill="#000000"
     transform="matrix(0.05 0 0 0.05 -10 -11)"
     d="M 9850.96,7284.15 C 9850.96,7284.15 9629.2,7340.59 9629.2,7340.59 C 9629.2,7340.59 9656.92,7308.84 9656.92,7284.15 C 9656.92,7259.02 9629.2,7226.71 9629.2,7226.71 C 9629.2,7226.71 9850.96,7284.15 9850.96,7284.15 C 9850.96,7284.15 9850.96,7284.15 9850.96,7284.15 "
     id="path337" />
  <path
     stroke="#000000"
     stroke-width="1"
     fill="none"
     transform="matrix(0.05 0 0 0.05 -10 -11)"
     d="M 9850.96,7284.15 C 9850.96,7284.15 9629.2,7340.59 9629.2,7340.59 C 9629.2,7340.59 9656.92,7308.84 9656.92,7284.15 C 9656.92,7259.02 9629.2,7226.71 9629.2,7226.71 C 9629.2,7226.71 9850.96,7284.15 9850.96,7284.15 C 9850.96,7284.15 9850.96,7284.15 9850.96,7284.15 "
     id="path338" />
  <path
     stroke="none"
     fill="#107f01"
     transform="matrix(0.05 0 0 0.05 -10 -11)"
     d="M 8721.17,7084.01 L 8710.04,7103.19 L 8534.05,7000.99 L 8545.18,6981.81 L 8721.17,7084.01 Z "
     id="path339" />
  <path
     stroke="none"
     fill="#000000"
     transform="matrix(0.05 0 0 0.05 -10 -11)"
     d="M 9322.1,7135.03 L 9310.91,7154.18 L 9058.05,7005.86 L 9058.24,6980.19 L 9322.1,7135.03 Z "
     id="path340" />
  <text
     x="0"
     y="0"
     stroke="none"
     fill="#107f01"
     transform="matrix(0.05 0 0 0.05 426.431 349.329)"
     font-style="normal"
     font-weight="bold"
     font-size="180px"
     font-family="Helvetica"
     id="text340">
O</text>
  <path
     stroke="none"
     fill="#000000"
     transform="matrix(0.05 0 0 0.05 -10 -11)"
     d="M 9058.24,6980.19 L 9058.05,7005.86 L 8888.05,7103.59 L 8877.06,7084.32 L 9058.24,6980.19 Z "
     id="path341" />
  <text
     x="0"
     y="0"
     stroke="none"
     fill="#000000"
     transform="matrix(0.05 0 0 0.05 439.499 326.974)"
     font-style="normal"
     font-weight="bold"
     font-size="180px"
     font-family="Helvetica"
     id="text341">
O</text>
  <path
     stroke="none"
     fill="#000000"
     transform="matrix(0.05 0 0 0.05 -10 -11)"
     d="M 9041.66,7009.62 L 9019.48,7009.5 L 9020.64,6794.99 L 9042.82,6795.11 L 9041.66,7009.62 Z "
     id="path342" />
  <path
     stroke="none"
     fill="#000000"
     transform="matrix(0.05 0 0 0.05 -10 -11)"
     d="M 9097.1,7009.92 L 9074.92,7009.8 L 9076.08,6795.29 L 9098.25,6795.41 L 9097.1,7009.92 Z "
     id="path343" />
  <path
     stroke="none"
     fill="#000000"
     transform="matrix(0.05 0 0 0.05 -10 -11)"
     d="M 9657.92,8639.35 L 8047.34,8639.35 L 8047.34,8617.35 L 9657.92,8617.35 Z "
     id="path344" />
  <path
     stroke="none"
     fill="#000000"
     transform="matrix(0.05 0 0 0.05 -10 -11)"
     d="M 9850.96,8628.35 C 9850.96,8628.35 9629.2,8684.79 9629.2,8684.79 C 9629.2,8684.79 9656.92,8653.04 9656.92,8628.35 C 9656.92,8603.22 9629.2,8570.91 9629.2,8570.91 C 9629.2,8570.91 9850.96,8628.35 9850.96,8628.35 C 9850.96,8628.35 9850.96,8628.35 9850.96,8628.35 "
     id="path345" />
  <path
     stroke="#000000"
     stroke-width="1"
     fill="none"
     transform="matrix(0.05 0 0 0.05 -10 -11)"
     d="M 9850.96,8628.35 C 9850.96,8628.35 9629.2,8684.79 9629.2,8684.79 C 9629.2,8684.79 9656.92,8653.04 9656.92,8628.35 C 9656.92,8603.22 9629.2,8570.91 9629.2,8570.91 C 9629.2,8570.91 9850.96,8628.35 9850.96,8628.35 C 9850.96,8628.35 9850.96,8628.35 9850.96,8628.35 "
     id="path346" />
  <text
     x="0"
     y="0"
     stroke="none"
     fill="#000000"
     transform="matrix(0.05 0 0 0.05 544.125 204.215)"
     font-style="normal"
     font-weight="bold"
     font-size="160px"
     font-family="Helvetica"
     id="text349">
or </text>
  <text
     x="0"
     y="0"
     stroke="none"
     fill="#000000"
     transform="matrix(0.05 0 0 0.05 554.348 204.215)"
     font-style="normal"
     font-weight="bold"
     font-size="160px"
     font-family="Helvetica"
     id="text350">
NaOH</text>
  <path
     stroke="none"
     fill="#000000"
     transform="matrix(0.05 0 0 0.05 -10 -11)"
     d="M 6963.84,7843.56 L 6963.84,7284.15 L 6985.84,7284.15 L 6985.84,7843.56 Z "
     id="path366" />
  <path
     stroke="none"
     fill="#000000"
     transform="matrix(0.05 0 0 0.05 -10 -11)"
     d="M 6974.84,8036.6 C 6974.84,8036.6 6917.4,7814.84 6917.4,7814.84 C 6917.4,7814.84 6949.71,7842.56 6974.84,7842.56 C 6999.53,7842.56 7031.28,7814.84 7031.28,7814.84 C 7031.28,7814.84 6974.84,8036.6 6974.84,8036.6 C 6974.84,8036.6 6974.84,8036.6 6974.84,8036.6 "
     id="path367" />
  <path
     stroke="#000000"
     stroke-width="1"
     fill="none"
     transform="matrix(0.05 0 0 0.05 -10 -11)"
     d="M 6974.84,8036.6 C 6974.84,8036.6 6917.4,7814.84 6917.4,7814.84 C 6917.4,7814.84 6949.71,7842.56 6974.84,7842.56 C 6999.53,7842.56 7031.28,7814.84 7031.28,7814.84 C 7031.28,7814.84 6974.84,8036.6 6974.84,8036.6 C 6974.84,8036.6 6974.84,8036.6 6974.84,8036.6 "
     id="path368" />
  <path
     stroke="none"
     fill="#000000"
     transform="matrix(0.05 0 0 0.05 -10 -11)"
     d="M 7211.28,8699.06 L 7211.34,8673.38 L 7371.57,8580.03 L 7382.66,8599.23 L 7211.28,8699.06 Z "
     id="path369" />
  <text
     x="0"
     y="0"
     stroke="none"
     fill="#0000ff"
     transform="matrix(0.05 0 0 0.05 360.272 419.027)"
     font-style="normal"
     font-weight="bold"
     font-size="180px"
     font-family="Helvetica"
     id="text370">
Br</text>
  <path
     stroke="none"
     fill="#000000"
     transform="matrix(0.05 0 0 0.05 -10 -11)"
     d="M 7211.34,8673.38 L 7211.28,8699.06 L 6951.65,8548.03 L 6951.65,8522.38 L 7211.34,8673.38 Z "
     id="path370" />
  <path
     stroke="none"
     fill="#000000"
     transform="matrix(0.05 0 0 0.05 -10 -11)"
     d="M 6951.65,8522.38 L 6951.65,8548.03 L 6697.8,8695.12 L 6686.71,8675.91 L 6951.65,8522.38 Z "
     id="path371" />
  <text
     x="0"
     y="0"
     stroke="none"
     fill="#000000"
     transform="matrix(0.05 0 0 0.05 334.082 404.051)"
     font-style="normal"
     font-weight="bold"
     font-size="180px"
     font-family="Helvetica"
     id="text371">
O</text>
  <path
     stroke="none"
     fill="#000000"
     transform="matrix(0.05 0 0 0.05 -10 -11)"
     d="M 6935.02,8551.76 L 6912.84,8551.76 L 6912.84,8336.72 L 6935.02,8336.72 L 6935.02,8551.76 Z "
     id="path372" />
  <path
     stroke="none"
     fill="#000000"
     transform="matrix(0.05 0 0 0.05 -10 -11)"
     d="M 6990.46,8551.76 L 6968.28,8551.76 L 6968.28,8336.72 L 6990.46,8336.72 L 6990.46,8551.76 Z "
     id="path373" />
  <path
     stroke="none"
     fill="#ffffff"
     opacity="0"
     onclick="window.location.href = 'ylides.svg'"
     transform="matrix(0.05 0 0 0.05 -10 -11)"
     d="M 14869.7,4382.08 C 14869.7,4382.08 14869.7,3592.84 14869.7,3592.84 C 14869.7,3592.84 14107.2,3592.84 14107.2,3592.84 C 14107.2,3592.84 14107.2,4382.08 14107.2,4382.08 C 14107.2,4382.08 14869.7,4382.08 14869.7,4382.08 "
     id="path25"
     inkscape:label="l-ylide" />
  <path
     stroke="none"
     fill="#ffffff"
     opacity="0"
     onclick="window.location.href = 'acids.svg'"
     transform="matrix(0.05 0 0 0.05 -10 -11)"
     d="M 15991.9,7788.88 C 15991.9,7788.88 15991.9,6785.88 15991.9,6785.88 C 15991.9,6785.88 15029,6785.88 15029,6785.88 C 15029,6785.88 15029,7788.88 15029,7788.88 C 15029,7788.88 15991.9,7788.88 15991.9,7788.88 "
     id="path27"
     inkscape:label="l-acid" />
  <path
     stroke="none"
     fill="#ffffff"
     opacity="0"
     onclick="window.location.href = 'halides.svg'"
     transform="matrix(0.05 0 0 0.05 -10 -11)"
     d="M 2538.4,8016 C 2538.4,8016 2538.4,7079.8 2538.4,7079.8 C 2538.4,7079.8 1468.6,7079.8 1468.6,7079.8 C 1468.6,7079.8 1468.6,8016 1468.6,8016 C 1468.6,8016 2538.4,8016 2538.4,8016 "
     id="path29"
     inkscape:label="l-halide" />
  <path
     stroke="none"
     fill="#ffffff"
     opacity="0"
     onclick="window.location.href = 'acids.svg'"
     transform="matrix(0.05 0 0 0.05 -10 -11)"
     d="M 4101.52,8684 C 4101.52,8684 4101.52,7053.08 4101.52,7053.08 C 4101.52,7053.08 2630.92,7053.08 2630.92,7053.08 C 2630.92,7053.08 2630.92,8684 2630.92,8684 C 2630.92,8684 4101.52,8684 4101.52,8684 "
     id="path31"
     inkscape:label="l-acid" />
  <path
     stroke="none"
     fill="#ffffff"
     opacity="0"
     onclick="window.location.href = 'ketones.svg'"
     transform="matrix(0.05 0 0 0.05 -10 -11)"
     d="M 5784.88,7895.76 C 5784.88,7895.76 5784.88,6919.48 5784.88,6919.48 C 5784.88,6919.48 4795.24,6919.48 4795.24,6919.48 C 4795.24,6919.48 4795.24,7895.76 4795.24,7895.76 C 4795.24,7895.76 5784.88,7895.76 5784.88,7895.76 "
     id="path33"
     inkscape:label="l-ketone" />
  <path
     stroke="none"
     fill="#ffffff"
     opacity="0"
     onclick="window.location.href = 'halides.svg'"
     transform="matrix(0.05 0 0 0.05 -10 -11)"
     d="M 7735.44,8790.88 C 7735.44,8790.88 7735.44,8055.08 7735.44,8055.08 C 7735.44,8055.08 6532.04,8055.08 6532.04,8055.08 C 6532.04,8055.08 6532.04,8790.88 6532.04,8790.88 C 6532.04,8790.88 7735.44,8790.88 7735.44,8790.88 "
     id="path35"
     inkscape:label="l-halide" />
  <path
     stroke="none"
     fill="#ffffff"
     opacity="0"
     onclick="window.location.href = 'toaldehydes.svg'"
     d="m 791.76843,296.33309 c 0,0 0,-41.48138 0,-41.48138 0,0 -125.06744,0 -125.06744,0 0,0 0,41.48138 0,41.48138 0,0 125.06744,0 125.06744,0"
     id="path35-3"
     inkscape:label="l-toaldehydes"
     style="opacity:0;stroke-width:0.0765445" />
  <path
     stroke="none"
     fill="#ffffff"
     opacity="0"
     onclick="window.location.href = 'toketones.svg'"
     d="m 281.05256,278.49775 c 0,0 0,-38.35379 0,-38.35379 0,0 -35.1493,0 -35.1493,0 0,0 0,38.35379 0,38.35379 0,0 35.1493,0 35.1493,0"
     id="path35-3-2"
     inkscape:label="l-toketones"
     style="opacity:0;stroke-width:0.0390191" />
  <path
     stroke="none"
     fill="#ffffff"
     opacity="0"
     onclick="window.location.href = 'toketones.svg'"
     d="m 226.46996,260.2055 c 0,0 0,-17.24257 0,-17.24257 0,0 -67.98897,0 -67.98897,0 0,0 0,17.24257 0,17.24257 0,0 67.98897,0 67.98897,0"
     id="path35-3-2-6"
     inkscape:label="l-toketones"
     style="opacity:0;stroke-width:0.0363861" />
  <path
     stroke="none"
     fill="#ffffff"
     opacity="0"
     onclick="window.location.href = 'toaldehydes.svg'"
     d="m 244.17,278.84344 c 0,0 0,-17.24257 0,-17.24257 0,0 -107.86571,0 -107.86571,0 0,0 0,17.24257 0,17.24257 0,0 107.86571,0 107.86571,0"
     id="path35-3-2-6-3"
     inkscape:label="l-toaldehydes"
     style="opacity:0;stroke-width:0.0458309" />
  <path
     stroke="none"
     fill="#ffffff"
     opacity="0"
     onclick="window.location.href = 'supplement.svg'"
     d="m 121.79469,205.74864 c 0,0 0,-40.94266 0,-40.94266 0,0 -45.425861,0 -45.425861,0 0,0 0,40.94266 0,40.94266 0,0 45.425861,0 45.425861,0"
     id="path43-3"
     inkscape:label="l-supplement"
     style="opacity:0;stroke-width:0.0503884" />
  <path
     stroke="none"
     fill="#ffffff"
     opacity="0"
     onclick="window.location.href = 'supplement.svg'"
     d="m 194.15864,203.55989 c 0,0 0,-9.66678 0,-9.66678 0,0 -45.42586,0 -45.42586,0 0,0 0,9.66678 0,9.66678 0,0 45.42586,0 45.42586,0"
     id="path43-3-3"
     inkscape:label="l-supplement"
     style="opacity:0;stroke-width:0.0244841" />
  <path
     stroke="none"
     fill="#ffffff"
     opacity="0"
     onclick="window.location.href = 'supplement.svg'"
     d="m 259.03105,197.88489 c 0,0 0,-26.08662 0,-26.08662 0,0 -35.2612,0 -35.2612,0 0,0 0,26.08662 0,26.08662 0,0 35.2612,0 35.2612,0"
     id="path43-3-2"
     inkscape:label="l-supplement"
     style="opacity:0;stroke-width:0.0354363" />
  <path
     stroke="none"
     fill="#ffffff"
     opacity="0"
     onclick="window.location.href = 'supplement.svg'"
     d="m 320.17501,198.14007 c 0,0 0,-29.21421 0,-29.21421 0,0 -39.95258,0 -39.95258,0 0,0 0,29.21421 0,29.21421 0,0 39.95258,0 39.95258,0"
     id="path43-3-1"
     inkscape:label="l-supplement"
     style="opacity:0;stroke-width:0.0399172" />
  <path
     stroke="none"
     fill="#ffffff"
     opacity="0"
     onclick="window.location.href = 'supplement.svg'"
     d="m 389.53708,204.14006 c 0,0 0,-18.26765 0,-18.26765 0,0 -61.0638,0 -61.0638,0 0,0 0,18.26765 0,18.26765 0,0 61.0638,0 61.0638,0"
     id="path43-3-9"
     inkscape:label="l-supplement"
     style="opacity:0;stroke-width:0.0390233" />
  <path
     stroke="none"
     fill="#ffffff"
     opacity="0"
     onclick="window.location.href = 'supplement.svg'"
     d="m 449.40949,205.14006 c 0,0 0,-15.14006 0,-15.14006 0,0 -40.73448,0 -40.73448,0 0,0 0,15.14006 0,15.14006 0,0 40.73448,0 40.73448,0"
     id="path43-3-15"
     inkscape:label="l-supplement"
     style="opacity:0;stroke-width:0.0290159" />
  <path
     stroke="none"
     fill="#ffffff"
     opacity="0"
     onclick="window.location.href = 'supplement.svg'"
     d="m 509.08449,205.39524 c 0,0 0,-14.35817 0,-14.35817 0,0 -36.82499,0 -36.82499,0 0,0 0,14.35817 0,14.35817 0,0 36.82499,0 36.82499,0"
     id="path43-3-5"
     inkscape:label="l-supplement"
     style="opacity:0;stroke-width:0.0268665" />
  <path
     stroke="none"
     fill="#ffffff"
     opacity="0"
     onclick="window.location.href = 'supplement.svg'"
     d="m 770.66993,327.4246 c 0,0 0,-28.43231 0,-28.43231 0,0 -31.35171,0 -31.35171,0 0,0 0,28.43231 0,28.43231 0,0 31.35171,0 31.35171,0"
     id="path43-3-5-8"
     inkscape:label="l-supplement"
     style="opacity:0;stroke-width:0.0348841" />
  <path
     stroke="none"
     fill="#ffffff"
     opacity="0"
     onclick="window.location.href = 'supplement.svg'"
     d="m 578.33534,206.01248 c 0,0 0,-19.04955 0,-19.04955 0,0 -39.95258,0 -39.95258,0 0,0 0,19.04955 0,19.04955 0,0 39.95258,0 39.95258,0"
     id="path43-3-4"
     inkscape:label="l-supplement"
     style="opacity:0;stroke-width:0.0322334" />
  <path
     stroke="none"
     fill="#ffffff"
     opacity="0"
     onclick="window.location.href = 'supplement.svg'"
     d="m 640.40516,201.53919 c 0,0 0,-12.79437 0,-12.79437 0,0 -36.0431,0 -36.0431,0 0,0 0,12.79437 0,12.79437 0,0 36.0431,0 36.0431,0"
     id="path43-3-23"
     inkscape:label="l-supplement"
     style="opacity:0;stroke-width:0.0250906" />
  <path
     stroke="none"
     fill="#ffffff"
     opacity="0"
     onclick="window.location.href = 'supplement.svg'"
     d="m 334.67914,381.2479 c 0,0 0,-26.86852 0,-26.86852 0,0 -32.13361,0 -32.13361,0 0,0 0,26.86852 0,26.86852 0,0 32.13361,0 32.13361,0"
     id="path43-3-6"
     inkscape:label="l-supplement"
     style="opacity:0;stroke-width:0.0343315" />
  <path
     stroke="none"
     fill="#ffffff"
     opacity="0"
     onclick="window.location.href = 'supplement.svg'"
     d="m 370.40516,328.19351 c 0,0 0,-20.61334 0,-20.61334 0,0 -105.63192,0 -105.63192,0 0,0 0,20.61334 0,20.61334 0,0 105.63192,0 105.63192,0"
     id="path43-3-90"
     inkscape:label="l-supplement"
     style="opacity:0;stroke-width:0.0545209" />
  <path
     stroke="none"
     fill="#ffffff"
     opacity="0"
     onclick="window.location.href = 'supplement.svg'"
     d="m 184.71283,330.83145 c 0,0 0,-23.74093 0,-23.74093 0,0 -78.26553,0 -78.26553,0 0,0 0,23.74093 0,23.74093 0,0 78.26553,0 78.26553,0"
     id="path43-3-0"
     inkscape:label="l-supplement"
     style="opacity:0;stroke-width:0.0503646" />
  <path
     stroke="none"
     fill="#ffffff"
     opacity="0"
     onclick="window.location.href = 'supplement.svg'"
     d="m 80.194769,331.48576 c 0,0 0,-26.86852 0,-26.86852 0,0 -37.606891,0 -37.606891,0 0,0 0,26.86852 0,26.86852 0,0 37.606891,0 37.606891,0"
     id="path43-3-39"
     inkscape:label="l-supplement"
     style="opacity:0;stroke-width:0.0371404" />
  <path
     stroke="none"
     fill="#ffffff"
     opacity="0"
     onclick="window.location.href = 'toorganometallics.svg'"
     d="m 191.03877,193.78571 c 0,0 0,-26.08662 0,-26.08662 0,0 -32.91551,0 -32.91551,0 0,0 0,26.08662 0,26.08662 0,0 32.91551,0 32.91551,0"
     id="path43-3-43"
     inkscape:label="l-x"
     style="opacity:0;stroke-width:0.0342374" />
  <path
     stroke="none"
     fill="#ffffff"
     opacity="0"
     onclick="window.location.href = 'toamines.svg'"
     d="m 388.24144,183.24695 c 0,0 0,-19.83144 0,-19.83144 0,0 -37.60689,0 -37.60689,0 0,0 0,19.83144 0,19.83144 0,0 37.60689,0 37.60689,0"
     id="path43-3-43-5"
     inkscape:label="l-x"
     style="opacity:0;stroke-width:0.0319082" />
  <path
     stroke="none"
     fill="#ffffff"
     opacity="0"
     onclick="window.location.href = 'toamines.svg'"
     d="m 449.0224,187.99177 c 0,0 0,-26.08662 0,-26.08662 0,0 -32.91551,0 -32.91551,0 0,0 0,26.08662 0,26.08662 0,0 32.91551,0 32.91551,0"
     id="path43-3-43-4"
     inkscape:label="l-x"
     style="opacity:0;stroke-width:0.0342374" />
  <path
     stroke="none"
     fill="#ffffff"
     opacity="0"
     onclick="window.location.href = 'toamines.svg'"
     d="m 507.46293,190.63405 c 0,0 0,-26.86852 0,-26.86852 0,0 -28.22413,0 -28.22413,0 0,0 0,26.86852 0,26.86852 0,0 28.22413,0 28.22413,0"
     id="path43-3-43-7"
     inkscape:label="l-x"
     style="opacity:0;stroke-width:0.0321754" />
  <path
     stroke="none"
     fill="#ffffff"
     opacity="0"
     onclick="window.location.href = 'toalcohols.svg'"
     d="m 578.95258,186.30905 c 0,0 0,-19.04955 0,-19.04955 0,0 -38.38879,0 -38.38879,0 0,0 0,19.04955 0,19.04955 0,0 38.38879,0 38.38879,0"
     id="path43-3-43-54"
     inkscape:label="l-x"
     style="opacity:0;stroke-width:0.0315963" />
  <path
     stroke="none"
     fill="#ffffff"
     opacity="0"
     onclick="window.location.href = 'toalcohols.svg'"
     d="m 642.56982,186.48575 c 0,0 0,-26.08662 0,-26.08662 0,0 -43.86207,0 -43.86207,0 0,0 0,26.08662 0,26.08662 0,0 43.86207,0 43.86207,0"
     id="path43-3-43-9"
     inkscape:label="l-x"
     style="opacity:0;stroke-width:0.0395226" />
  <path
     stroke="none"
     fill="#ffffff"
     opacity="0"
     onclick="window.location.href = 'toylides.svg'"
     d="m 735.43019,208.81507 c 0,0 0,-33.90559 0,-33.90559 0,0 -36.82499,0 -36.82499,0 0,0 0,33.90559 0,33.90559 0,0 36.82499,0 36.82499,0"
     id="path43-3-43-3"
     inkscape:label="l-x"
     style="opacity:0;stroke-width:0.0412856" />
  <path
     stroke="none"
     fill="#ffffff"
     opacity="0"
     onclick="window.location.href = 'toketones.svg'"
     d="m 456.11968,281.97635 c 0,0 0,-26.08662 0,-26.08662 0,0 -32.91551,0 -32.91551,0 0,0 0,26.08662 0,26.08662 0,0 32.91551,0 32.91551,0"
     id="path43-3-43-2"
     inkscape:label="l-x"
     style="opacity:0;stroke-width:0.0342374" />
  <path
     stroke="none"
     fill="#ffffff"
     opacity="0"
     onclick="window.location.href = 'toesters.svg'"
     d="m 460.96895,349.63837 c 0,0 0,-31.5599 0,-31.5599 0,0 -46.98965,0 -46.98965,0 0,0 0,31.5599 0,31.5599 0,0 46.98965,0 46.98965,0"
     id="path43-3-43-2-6"
     inkscape:label="l-x"
     style="opacity:0;stroke-width:0.0449946" />
  <path
     stroke="none"
     fill="#ffffff"
     opacity="0"
     onclick="window.location.href = 'tohalides.svg'"
     d="m 459.04309,418.80303 c 0,0 0,-22.17714 0,-22.17714 0,0 -39.17068,0 -39.17068,0 0,0 0,22.17714 0,22.17714 0,0 39.17068,0 39.17068,0"
     id="path43-3-43-2-6-9"
     inkscape:label="l-x"
     style="opacity:0;stroke-width:0.034437" />
  <g
     id="noreagents"
     onclick="window.location.href = 'ketones-noreagents.svg'"
     transform="translate(-4.6856272,378.9067)">
    <text
       x="11.200497"
       y="54.141506"
       stroke="none"
       fill="#000000"
       font-style="normal"
       font-weight="bold"
       font-size="200px"
       font-family="Helvetica"
       id="gobacktext-7"
       style="font-style:normal;font-weight:bold;font-size:10px;font-family:Helvetica;fill:#000000;fill-opacity:0.443609;stroke:none;stroke-width:0.05"
       inkscape:label="noreagents-text"><tspan
         sodipodi:role="line"
         id="tspan2"
         x="11.200497"
         y="54.141506"
         style="font-style:normal;font-variant:normal;font-weight:bold;font-stretch:normal;font-size:8px;font-family:Helvetica;-inkscape-font-specification:'Helvetica, Bold';font-variant-ligatures:normal;font-variant-caps:normal;font-variant-numeric:normal;font-variant-east-asian:normal;fill:#000000;fill-opacity:0.5;stroke-width:0.05">reagents</tspan></text>
    <rect
       style="fill:#000000;fill-opacity:0.821053;fill-rule:evenodd;stroke:#a13033;stroke-width:0;stroke-linecap:round;stroke-miterlimit:2;stroke-dasharray:none;paint-order:markers fill stroke"
       id="rect3"
       width="31.666824"
       height="0.9773711"
       x="12.224979"
       y="51.518982"
       inkscape:label="noreagents-line" />
    <path
       stroke="none"
       fill="#999999"
       d="m 9.795,54.694678 c 0,0 0,-5.427567 0,-5.427567 0,-2.098514 1.463398,-3.801611 3.266274,-3.801611 0,0 30.608907,0 30.608907,0 1.803073,0 3.266397,1.703097 3.266397,3.801611 0,0 0,5.427567 0,5.427567 0,2.098514 -1.463324,3.801611 -3.266397,3.801611 0,0 -30.608907,0 -30.608907,0 -1.802876,0 -3.266274,-1.703097 -3.266274,-3.801611"
       id="goback-box-8"
       style="fill:#999999;fill-opacity:0.336842;stroke-width:0.0264832"
       inkscape:label="noreagents-box" />
  </g>
  <g
     id="nonames"
     onclick="window.location.href = 'ketones.svg'"
     transform="matrix(0.85780308,0,0,1,-3.2442635,382.9067)">
    <text
       x="18.441887"
       y="69.010506"
       stroke="none"
       fill="#000000"
       font-style="normal"
       font-weight="bold"
       font-size="200px"
       font-family="Helvetica"
       id="gobacktext-7-8"
       style="font-style:normal;font-variant:normal;font-weight:bold;font-stretch:normal;font-size:10px;font-family:Helvetica;-inkscape-font-specification:'Helvetica, Bold';font-variant-ligatures:normal;font-variant-caps:normal;font-variant-numeric:normal;font-variant-east-asian:normal;fill:#0088d0;fill-opacity:0.675806;stroke:none;stroke-width:0.05"
       inkscape:label="noproducts-text"><tspan
         sodipodi:role="line"
         id="tspan1"
         x="18.441887"
         y="69.010506">show</tspan></text>
    <path
       stroke="none"
       fill="#999999"
       d="m 10.136392,68.163695 c 0,0 0,-5.427567 0,-5.427567 0,-2.098514 1.679048,-3.801611 3.747601,-3.801611 0,0 35.119514,0 35.119514,0 2.068778,0 3.747742,1.703097 3.747742,3.801611 0,0 0,5.427567 0,5.427567 0,2.098514 -1.678964,3.801611 -3.747742,3.801611 0,0 -35.119514,0 -35.119514,0 -2.068553,0 -3.747601,-1.703097 -3.747601,-3.801611"
       id="goback-box-8-6"
       style="fill:#999999;fill-opacity:0.336842;stroke-width:0.0283675"
       inkscape:label="noproducts-box" />
  </g>
  <text
     x="822.84332"
     y="415.79849"
     stroke="none"
     fill="#000000"
     transform="matrix(0.92407999,-0.00322566,0.00377741,1.0821442,0,0)"
     font-style="italic"
     font-weight="bold"
     font-size="8.25806px"
     font-family="'Helvetica Oblique'"
     id="text11"
     style="opacity:1;fill:#00009a;fill-opacity:0.651128;stroke-width:0.0412903">chemisfun</text>
  <g
     id="overlay-box"
     style="opacity:0"
     transform="matrix(0.31364504,0,0,0.8007311,650.50736,385.81436)">
    <rect
       style="fill:#609975;fill-opacity:0.2;stroke:#609970;stroke-width:0;stroke-linecap:round;stroke-opacity:0.657143;paint-order:fill markers stroke"
       id="rect285"
       width="164.84744"
       height="59.583412"
       x="329.69489"
       y="23.171328" />
  </g>
  <g
     id="overlay"
     onclick="window.location.href = 'index.html'"
     onmouseover="this.ownerDocument.getElementById('overlay-box').style.opacity='0.5'"
     onmouseout="this.ownerDocument.getElementById('overlay-box').style.opacity='0'"
     transform="matrix(0.76550767,-0.0030054,0.00267214,0.86098131,195.61318,22.784653)">
    <rect
       style="opacity:0.5;fill:#ffffff;fill-opacity:0;stroke-linecap:round;stroke-opacity:0.657143;paint-order:stroke fill markers"
       id="rect2"
       width="65.93074"
       height="55.035408"
       x="733.06049"
       y="445.87061" />
  </g>
  <g
     id="g1"
     transform="matrix(0.0625,0,0,0.0625,764.65732,406.62566)">
    <rect
       x="239.31"
       y="120.321"
       style="fill:#444242"
       width="33.389"
       height="139.98"
       id="rect1" />
    <rect
       x="256"
       y="120.321"
       style="fill:#3a3839"
       width="16.695"
       height="139.98"
       id="rect2-2" />
    <rect
       x="132.194"
       y="305.86301"
       transform="matrix(0.5,0.866,-0.866,0.5,399.932,58.9793)"
       style="fill:#444242"
       width="33.387001"
       height="139.967"
       id="rect4" />
    <rect
       x="293.125"
       y="359.13"
       transform="matrix(0.866,0.5,-0.5,0.866,236.5654,-131.205)"
       style="fill:#3a3839"
       width="139.967"
       height="33.387001"
       id="rect5" />
    <path
       style="background-color:#ffffff00;fill:#439de2;fill-opacity:1"
       d="m 456.843,485.07 c -9.538,0 -18.951,-2.501 -27.432,-7.398 v 0 c -12.733,-7.351 -21.842,-19.221 -25.646,-33.424 -3.805,-14.201 -1.853,-29.035 5.499,-41.769 7.351,-12.732 19.221,-21.841 33.424,-25.646 14.201,-3.806 29.034,-1.853 41.769,5.499 12.732,7.351 21.841,19.221 25.646,33.424 3.805,14.202 1.853,29.035 -5.499,41.769 -7.351,12.733 -19.221,21.842 -33.424,25.646 -4.742,1.27 -9.557,1.899 -14.337,1.899 z"
       id="path7-3" />
    <path
       style="background-color:#ffffff00;fill:#eda74a;fill-opacity:1"
       d="m 256.001,137.021 c -30.352,0 -55.044,-24.693 -55.044,-55.044 0,-30.351 24.693,-55.044 55.044,-55.044 30.351,0 55.044,24.693 55.044,55.044 0,30.351 -24.693,55.044 -55.044,55.044 z"
       id="path5-4" />
    <path
       style="background-color:#ffffff00;fill:#53acb1;fill-opacity:1"
       d="m 55.158,485.07 c -4.781,0 -9.594,-0.629 -14.336,-1.9 C 26.619,479.365 14.75,470.256 7.398,457.524 0.046,444.792 -1.906,429.957 1.899,415.755 c 3.805,-14.203 12.914,-26.072 25.646,-33.424 12.731,-7.352 27.567,-9.304 41.769,-5.499 14.203,3.805 26.072,12.914 33.424,25.646 7.352,12.732 9.304,27.567 5.499,41.769 -3.805,14.203 -12.914,26.072 -25.646,33.424 -8.481,4.897 -17.896,7.399 -27.433,7.399 z"
       id="path6-7" />
    <path
       style="fill:#f74d37"
       d="m 256.001,384.379 c -38.81,0 -70.384,-31.575 -70.384,-70.384 0,-38.809 31.575,-70.384 70.384,-70.384 38.809,0 70.384,31.575 70.384,70.384 0,38.809 -31.575,70.384 -70.384,70.384 z"
       id="path4-9" />
  </g>
</svg>
