<?xml version="1.0" encoding="UTF-8" standalone="no"?>
<svg
   width="100%"
   height="100%"
   viewBox="0 0 818 460"
   style="background-color: #ffffff00"
   version="1.1"
   id="svg277"
   sodipodi:docname="malonic-noproducts.svg"
   inkscape:version="1.4.2 (ebf0e940, 2025-05-08)"
   xmlns:inkscape="http://www.inkscape.org/namespaces/inkscape"
   xmlns:sodipodi="http://sodipodi.sourceforge.net/DTD/sodipodi-0.dtd"
   xmlns="http://www.w3.org/2000/svg"
   xmlns:svg="http://www.w3.org/2000/svg">
  <path
     stroke="#ffffff"
     stroke-width="1"
     fill="none"
     transform="matrix(0.05 0 0 0.05 -10 -11)"
     d="M 10038.6,4204.2 C 10038.6,4204.2 10038.6,3302.3 10038.6,3302.3 C 10038.6,3302.3 8464.6,3302.3 8464.6,3302.3 C 8464.6,3302.3 8464.6,4204.2 8464.6,4204.2 C 8464.6,4204.2 10038.6,4204.2 10038.6,4204.2 "
     id="path4" />
  <path
     stroke="#ffffff"
     stroke-width="1"
     fill="none"
     transform="matrix(0.05 0 0 0.05 -10 -11)"
     d="M 15215.2,6835.4 C 15215.2,6835.4 15215.2,5633.2 15215.2,5633.2 C 15215.2,5633.2 14070.2,5633.2 14070.2,5633.2 C 14070.2,5633.2 14070.2,6835.4 14070.2,6835.4 C 14070.2,6835.4 15215.2,6835.4 15215.2,6835.4 "
     id="path8" />
  <path
     stroke="#ffffff"
     stroke-width="1"
     fill="none"
     transform="matrix(0.05 0 0 0.05 -10 -11)"
     d="M 6921.2,8866 C 6921.2,8866 6921.2,7763.9 6921.2,7763.9 C 6921.2,7763.9 5304.3,7763.9 5304.3,7763.9 C 5304.3,7763.9 5304.3,8866 5304.3,8866 C 5304.3,8866 6921.2,8866 6921.2,8866 "
     id="path12" />
  <path
     stroke="#ffffff"
     stroke-width="1"
     fill="none"
     transform="matrix(0.05 0 0 0.05 -10 -11)"
     d="M 6520.8,7035.6 C 6520.8,7035.6 6520.8,5761.9 6520.8,5761.9 C 6520.8,5761.9 4932.5,5761.9 4932.5,5761.9 C 4932.5,5761.9 4932.5,7035.6 4932.5,7035.6 C 4932.5,7035.6 6520.8,7035.6 6520.8,7035.6 "
     id="path16" />
  <path
     stroke="#ffffff"
     stroke-width="1"
     fill="none"
     transform="matrix(0.05 0 0 0.05 -10 -11)"
     d="M 11583,8908.9 C 11583,8908.9 11583,7735.3 11583,7735.3 C 11583,7735.3 9766.9,7735.3 9766.9,7735.3 C 9766.9,7735.3 9766.9,8908.9 9766.9,8908.9 C 9766.9,8908.9 11583,8908.9 11583,8908.9 "
     id="path24" />
  <path
     stroke="#000000"
     stroke-width="22"
     fill="none"
     transform="matrix(0.05 0 0 0.05 -10 -11)"
     d="M 16494.7,9367.47 C 16494.7,9367.47 16494.7,284.602 16494.7,284.602 C 16494.7,284.602 268.683,284.602 268.683,284.602 C 268.683,284.602 268.683,9367.47 268.683,9367.47 C 268.683,9367.47 16494.7,9367.47 16494.7,9367.47 "
     id="path27" />
  <text
     x="0"
     y="0"
     stroke="none"
     fill="#000000"
     transform="matrix(0.05 0 0 0.05 11.735 21.13)"
     font-style="normal"
     font-weight="bold"
     font-size="320px"
     font-family="Helvetica"
     id="text27">
Malonic and Acetoacetic Ester, Enones - Reactions</text>
  <text
     x="0"
     y="0"
     stroke="none"
     fill="#999999"
     transform="matrix(0.05 0 0 0.05 11.9381 39.085)"
     font-style="normal"
     font-weight="normal"
     font-size="320px"
     font-family="Helvetica"
     id="text34">
click for more</text>
  <g
     id="goback"
     onclick="window.location.href = 'index.svg'"
     onmouseover="document.getElementById('goback-box').setAttribute('opacity','0.5');"
     onmouseout="document.getElementById('goback-box').setAttribute('opacity','1')">
    <path
       stroke="none"
       fill="#999999"
       transform="matrix(0.05 0 0 0.05 -10 -11)"
       d="M 395.9,1492.34 C 395.9,1492.34 395.9,1302.37 395.9,1302.37 C 395.9,1228.92 455.513,1169.31 528.955,1169.31 C 528.955,1169.31 1775.84,1169.31 1775.84,1169.31 C 1849.29,1169.31 1908.9,1228.92 1908.9,1302.37 C 1908.9,1302.37 1908.9,1492.34 1908.9,1492.34 C 1908.9,1565.79 1849.29,1625.4 1775.84,1625.4 C 1775.84,1625.4 528.955,1625.4 528.955,1625.4 C 455.513,1625.4 395.9,1565.79 395.9,1492.34 "
       id="goback-box" />
    <text
       x="0"
       y="0"
       stroke="none"
       fill="#000000"
       transform="matrix(0.05 0 0 0.05 29.3796 61.765)"
       font-style="normal"
       font-weight="bold"
       font-size="200px"
       font-family="Helvetica"
       id="gobacktext">
go home</text>
    <path
       stroke="#999999"
       stroke-width="1"
       transform="matrix(0.05 0 0 0.05 -10 -11)"
       d="M 395.9,1492.34 C 395.9,1492.34 395.9,1302.37 395.9,1302.37 C 395.9,1228.92 455.513,1169.31 528.955,1169.31 C 528.955,1169.31 1775.84,1169.31 1775.84,1169.31 C 1849.29,1169.31 1908.9,1228.92 1908.9,1302.37 C 1908.9,1302.37 1908.9,1492.34 1908.9,1492.34 C 1908.9,1565.79 1849.29,1625.4 1775.84,1625.4 C 1775.84,1625.4 528.955,1625.4 528.955,1625.4 C 455.513,1625.4 395.9,1565.79 395.9,1492.34 "
       style="opacity:0"
       id="goback-link" />
  </g>
  <g
     id="howtomake"
     onclick="window.location.href = 'tomalonic.svg'"
     onmouseover="document.getElementById('howtomake-box').setAttribute('opacity','0.5');"
     onmouseout="document.getElementById('howtomake-box').setAttribute('opacity','1')">
    <path
       stroke="none"
       fill="#999999"
       transform="matrix(0.05 0 0 0.05 -10 -11)"
       d="M 381.591,2007.46 C 381.591,2007.46 381.591,1817.48 381.591,1817.48 C 381.591,1744.04 441.204,1684.42 514.647,1684.42 C 514.647,1684.42 1761.54,1684.42 1761.54,1684.42 C 1834.98,1684.42 1894.59,1744.04 1894.59,1817.48 C 1894.59,1817.48 1894.59,2007.46 1894.59,2007.46 C 1894.59,2080.9 1834.98,2140.51 1761.54,2140.51 C 1761.54,2140.51 514.647,2140.51 514.647,2140.51 C 441.204,2140.51 381.591,2080.9 381.591,2007.46 "
       id="howtomake-box" />
    <text
       x="0"
       y="0"
       stroke="none"
       fill="#000000"
       transform="matrix(0.05 0 0 0.05 17.275 87.5206)"
       font-style="normal"
       font-weight="bold"
       font-size="200px"
       font-family="Helvetica"
       id="howtomaketext">
how to make</text>
    <path
       stroke="#999999"
       stroke-width="1"
       transform="matrix(0.05 0 0 0.05 -10 -11)"
       d="M 381.591,2007.46 C 381.591,2007.46 381.591,1817.48 381.591,1817.48 C 381.591,1744.04 441.204,1684.42 514.647,1684.42 C 514.647,1684.42 1761.54,1684.42 1761.54,1684.42 C 1834.98,1684.42 1894.59,1744.04 1894.59,1817.48 C 1894.59,1817.48 1894.59,2007.46 1894.59,2007.46 C 1894.59,2080.9 1834.98,2140.51 1761.54,2140.51 C 1761.54,2140.51 514.647,2140.51 514.647,2140.51 C 441.204,2140.51 381.591,2080.9 381.591,2007.46 "
       onclick="window.location.href = 'tomalonic.svg'"
       style="opacity:0"
       id="howtomake-link" />
  </g>
  <text
     x="0"
     y="0"
     stroke="none"
     fill="#0000ff"
     transform="matrix(0.05 0 0 0.05 97.7793 109.571)"
     font-style="normal"
     font-weight="bold"
     font-size="280px"
     font-family="Helvetica"
     id="text39">
malonic </text>
  <text
     x="0"
     y="0"
     stroke="none"
     fill="#0000ff"
     transform="matrix(0.05 0 0 0.05 154.572 109.571)"
     font-style="normal"
     font-weight="bold"
     font-size="280px"
     font-family="Helvetica"
     id="text40">
ester</text>
  <path
     stroke="none"
     fill="#000000"
     transform="matrix(0.05 0 0 0.05 -10 -11)"
     d="M 11732.5,2923.48 L 11710.3,2936.31 L 11710.8,2630.1 L 11732.9,2630.1 L 11732.5,2923.48 Z "
     id="path43" />
  <path
     stroke="none"
     fill="#000000"
     transform="matrix(0.05 0 0 0.05 -10 -11)"
     d="M 11788.4,2897.62 L 11766.2,2897.62 L 11766.2,2630.1 L 11788.4,2630.1 L 11788.4,2897.62 Z "
     id="path44" />
  <path
     stroke="none"
     fill="#000000"
     transform="matrix(0.05 0 0 0.05 -10 -11)"
     d="M 11710.3,2936.31 L 11732.5,2923.48 L 11981.2,3067.11 L 11981.2,3092.76 L 11710.3,2936.31 Z "
     id="path45" />
  <path
     stroke="none"
     fill="#000000"
     transform="matrix(0.05 0 0 0.05 -10 -11)"
     d="M 11981.2,3092.76 L 11981.2,3067.11 L 12235.1,2920.02 L 12246.2,2939.23 L 11981.2,3092.76 Z "
     id="path46" />
  <text
     x="0"
     y="0"
     stroke="none"
     fill="#000000"
     transform="matrix(0.05 0 0 0.05 585.562 161.184)"
     font-style="normal"
     font-weight="bold"
     font-size="180px"
     font-family="Helvetica"
     id="text46">
O</text>
  <path
     stroke="none"
     fill="#000000"
     transform="matrix(0.05 0 0 0.05 -10 -11)"
     d="M 11997.9,3063.38 L 12020.1,3063.38 L 12020.1,3280.91 L 11997.9,3280.91 L 11997.9,3063.38 Z "
     id="path47" />
  <path
     stroke="none"
     fill="#000000"
     transform="matrix(0.05 0 0 0.05 -10 -11)"
     d="M 11942.4,3063.38 L 11964.6,3063.38 L 11964.6,3280.91 L 11942.4,3280.91 L 11942.4,3063.38 Z "
     id="path48" />
  <path
     stroke="none"
     fill="#000000"
     transform="matrix(0.05 0 0 0.05 -10 -11)"
     d="M 10179.1,7493.44 L 10179.1,7127.04 L 10201.1,7127.04 L 10201.1,7493.44 Z "
     id="path69" />
  <path
     stroke="none"
     fill="#000000"
     transform="matrix(0.05 0 0 0.05 -10 -11)"
     d="M 10190.1,7686.48 C 10190.1,7686.48 10132.7,7464.72 10132.7,7464.72 C 10132.7,7464.72 10165,7492.44 10190.1,7492.44 C 10214.8,7492.44 10246.6,7464.72 10246.6,7464.72 C 10246.6,7464.72 10190.1,7686.48 10190.1,7686.48 C 10190.1,7686.48 10190.1,7686.48 10190.1,7686.48 "
     id="path70" />
  <path
     stroke="#000000"
     stroke-width="1"
     fill="none"
     transform="matrix(0.05 0 0 0.05 -10 -11)"
     d="M 10190.1,7686.48 C 10190.1,7686.48 10132.7,7464.72 10132.7,7464.72 C 10132.7,7464.72 10165,7492.44 10190.1,7492.44 C 10214.8,7492.44 10246.6,7464.72 10246.6,7464.72 C 10246.6,7464.72 10190.1,7686.48 10190.1,7686.48 C 10190.1,7686.48 10190.1,7686.48 10190.1,7686.48 "
     id="path71" />
  <text
     x="0"
     y="0"
     stroke="none"
     fill="#000000"
     transform="matrix(0.05 0 0 0.05 504.612 354.897)"
     font-style="normal"
     font-weight="bold"
     font-size="160px"
     font-family="Helvetica"
     id="text71">
base</text>
  <text
     x="0"
     y="0"
     stroke="none"
     fill="#000000"
     transform="matrix(0.05 0 0 0.05 504.612 363.322)"
     font-style="normal"
     font-weight="bold"
     font-size="160px"
     font-family="Helvetica"
     id="text72">
(aldol </text>
  <text
     x="0"
     y="0"
     stroke="none"
     fill="#000000"
     transform="matrix(0.05 0 0 0.05 528.166 363.322)"
     font-style="normal"
     font-weight="bold"
     font-size="160px"
     font-family="Helvetica"
     id="text73">
cond.)</text>
  <path
     stroke="none"
     fill="#000000"
     transform="matrix(0.05 0 0 0.05 -10 -11)"
     d="M 14863.6,5401.85 L 14863.6,4788.36 L 14885.6,4788.36 L 14885.6,5401.85 Z "
     id="path87" />
  <path
     stroke="none"
     fill="#000000"
     transform="matrix(0.05 0 0 0.05 -10 -11)"
     d="M 14874.6,5594.89 C 14874.6,5594.89 14817.1,5373.13 14817.1,5373.13 C 14817.1,5373.13 14849.4,5400.85 14874.6,5400.85 C 14899.3,5400.85 14931,5373.13 14931,5373.13 C 14931,5373.13 14874.6,5594.89 14874.6,5594.89 C 14874.6,5594.89 14874.6,5594.89 14874.6,5594.89 "
     id="path88" />
  <path
     stroke="#000000"
     stroke-width="1"
     fill="none"
     transform="matrix(0.05 0 0 0.05 -10 -11)"
     d="M 14874.6,5594.89 C 14874.6,5594.89 14817.1,5373.13 14817.1,5373.13 C 14817.1,5373.13 14849.4,5400.85 14874.6,5400.85 C 14899.3,5400.85 14931,5373.13 14931,5373.13 C 14931,5373.13 14874.6,5594.89 14874.6,5594.89 C 14874.6,5594.89 14874.6,5594.89 14874.6,5594.89 "
     id="path89" />
  <text
     x="0"
     y="0"
     stroke="none"
     fill="#000000"
     transform="matrix(0.05 0 0 0.05 609.464 252.154)"
     font-style="normal"
     font-weight="bold"
     font-size="200px"
     font-family="Helvetica"
     id="text89">
R</text>
  <text
     x="0"
     y="0"
     stroke="none"
     fill="#000000"
     transform="matrix(0.05 0 0 0.05 616.685 254.454)"
     font-style="normal"
     font-weight="bold"
     font-size="150px"
     font-family="Helvetica"
     id="text90">
2</text>
  <text
     x="0"
     y="0"
     stroke="none"
     fill="#000000"
     transform="matrix(0.05 0 0 0.05 620.856 252.154)"
     font-style="normal"
     font-weight="bold"
     font-size="200px"
     font-family="Helvetica"
     id="text91">
CuLi</text>
  <text
     x="0"
     y="0"
     stroke="none"
     fill="#000000"
     transform="matrix(0.05 0 0 0.05 603.596 263.461)"
     font-style="normal"
     font-weight="bold"
     font-size="160px"
     font-family="Helvetica"
     id="text97">
then </text>
  <text
     x="0"
     y="0"
     stroke="none"
     fill="#000000"
     transform="matrix(0.05 0 0 0.05 622.705 263.461)"
     font-style="normal"
     font-weight="bold"
     font-size="160px"
     font-family="Helvetica"
     id="text98">
H</text>
  <text
     x="0"
     y="0"
     stroke="none"
     fill="#000000"
     transform="matrix(0.05 0 0 0.05 628.482 265.301)"
     font-style="normal"
     font-weight="bold"
     font-size="120px"
     font-family="Helvetica"
     id="text99">
3</text>
  <text
     x="0"
     y="0"
     stroke="none"
     fill="#000000"
     transform="matrix(0.05 0 0 0.05 631.819 263.461)"
     font-style="normal"
     font-weight="bold"
     font-size="160px"
     font-family="Helvetica"
     id="text100">
O</text>
  <text
     x="0"
     y="0"
     stroke="none"
     fill="#000000"
     transform="matrix(0.05 0 0 0.05 638.042 260.582)"
     font-style="normal"
     font-weight="bold"
     font-size="120px"
     font-family="Helvetica"
     id="text101">
+</text>
  <path
     stroke="none"
     fill="#000000"
     transform="matrix(0.05 0 0 0.05 -10 -11)"
     d="M 4856.99,2586.8 L 4856.99,2561.15 L 5116.58,2410.15 L 5116.63,2435.82 L 4856.99,2586.8 Z "
     id="path103" />
  <path
     stroke="none"
     fill="#000000"
     transform="matrix(0.05 0 0 0.05 -10 -11)"
     d="M 4580.97,2439.67 L 4558.79,2439.67 L 4558.79,2224.63 L 4580.97,2224.63 L 4580.97,2439.67 Z "
     id="path104" />
  <path
     stroke="none"
     fill="#000000"
     transform="matrix(0.05 0 0 0.05 -10 -11)"
     d="M 4636.41,2439.67 L 4614.23,2439.67 L 4614.23,2224.63 L 4636.41,2224.63 L 4636.41,2439.67 Z "
     id="path105" />
  <text
     x="0"
     y="0"
     stroke="none"
     fill="#000000"
     transform="matrix(0.05 0 0 0.05 216.38 98.4461)"
     font-style="normal"
     font-weight="bold"
     font-size="180px"
     font-family="Helvetica"
     id="text105">
O</text>
  <path
     stroke="none"
     fill="#000000"
     transform="matrix(0.05 0 0 0.05 -10 -11)"
     d="M 4597.34,2435.82 L 4597.39,2410.15 L 4856.99,2561.15 L 4856.99,2586.8 L 4597.34,2435.82 Z "
     id="path106" />
  <path
     stroke="none"
     fill="#000000"
     transform="matrix(0.05 0 0 0.05 -10 -11)"
     d="M 4427.91,2534.44 L 4416.82,2515.24 L 4597.39,2410.15 L 4597.34,2435.82 L 4427.91,2534.44 Z "
     id="path107" />
  <text
     x="0"
     y="0"
     stroke="none"
     fill="#000000"
     transform="matrix(0.05 0 0 0.05 194.41 120.91)"
     font-style="normal"
     font-weight="bold"
     font-size="180px"
     font-family="Helvetica"
     id="text107">
EtO</text>
  <text
     x="0"
     y="0"
     stroke="none"
     fill="#cc66fe"
     transform="matrix(0.05 0 0 0.05 255.288 120.91)"
     font-style="normal"
     font-weight="bold"
     font-size="180px"
     font-family="Helvetica"
     id="text108">
OEt</text>
  <path
     stroke="none"
     fill="#cc66fe"
     transform="matrix(0.05 0 0 0.05 -10 -11)"
     d="M 5116.63,2435.82 L 5116.58,2410.15 L 5298.19,2515.83 L 5287.1,2535.03 L 5116.63,2435.82 Z "
     id="path108" />
  <text
     x="0"
     y="0"
     stroke="none"
     fill="#cc66fe"
     transform="matrix(0.05 0 0 0.05 242.319 98.4462)"
     font-style="normal"
     font-weight="bold"
     font-size="180px"
     font-family="Helvetica"
     id="text109">
O</text>
  <path
     stroke="none"
     fill="#cc66fe"
     transform="matrix(0.05 0 0 0.05 -10 -11)"
     d="M 5099.75,2439.67 L 5077.57,2439.67 L 5077.57,2224.63 L 5099.75,2224.63 L 5099.75,2439.67 Z "
     id="path109" />
  <path
     stroke="none"
     fill="#cc66fe"
     transform="matrix(0.05 0 0 0.05 -10 -11)"
     d="M 5155.19,2439.67 L 5133.01,2439.67 L 5133.01,2224.63 L 5155.19,2224.63 L 5155.19,2439.67 Z "
     id="path110" />
  <text
     x="0"
     y="0"
     stroke="none"
     fill="#0000ff"
     transform="matrix(0.05 0 0 0.05 332.861 105.281)"
     font-style="normal"
     font-weight="bold"
     font-size="280px"
     font-family="Helvetica"
     id="text110">
acetoacetic</text>
  <text
     x="0"
     y="0"
     stroke="none"
     fill="#0000ff"
     transform="matrix(0.05 0 0 0.05 354.261 119.331)"
     font-style="normal"
     font-weight="bold"
     font-size="280px"
     font-family="Helvetica"
     id="text111">
ester</text>
  <path
     stroke="none"
     fill="#000000"
     transform="matrix(0.05 0 0 0.05 -10 -11)"
     d="M 9218.49,2558.2 L 9218.49,2532.55 L 9478.08,2381.55 L 9478.13,2407.22 L 9218.49,2558.2 Z "
     id="path111" />
  <path
     stroke="none"
     fill="#000000"
     transform="matrix(0.05 0 0 0.05 -10 -11)"
     d="M 8942.47,2411.07 L 8920.29,2411.07 L 8920.29,2196.03 L 8942.47,2196.03 L 8942.47,2411.07 Z "
     id="path112" />
  <path
     stroke="none"
     fill="#000000"
     transform="matrix(0.05 0 0 0.05 -10 -11)"
     d="M 8997.91,2411.07 L 8975.73,2411.07 L 8975.73,2196.03 L 8997.91,2196.03 L 8997.91,2411.07 Z "
     id="path113" />
  <text
     x="0"
     y="0"
     stroke="none"
     fill="#000000"
     transform="matrix(0.05 0 0 0.05 434.455 97.0161)"
     font-style="normal"
     font-weight="bold"
     font-size="180px"
     font-family="Helvetica"
     id="text113">
O</text>
  <path
     stroke="none"
     fill="#000000"
     transform="matrix(0.05 0 0 0.05 -10 -11)"
     d="M 8959.1,2407.35 L 8959.1,2381.69 L 9218.49,2532.55 L 9218.49,2558.2 L 8959.1,2407.35 Z "
     id="path114" />
  <path
     stroke="none"
     fill="#000000"
     transform="matrix(0.05 0 0 0.05 -10 -11)"
     d="M 8705.25,2554.43 L 8694.16,2535.22 L 8959.1,2381.69 L 8959.1,2407.35 L 8705.25,2554.43 Z "
     id="path115" />
  <text
     x="0"
     y="0"
     stroke="none"
     fill="#cc66fe"
     transform="matrix(0.05 0 0 0.05 473.363 119.48)"
     font-style="normal"
     font-weight="bold"
     font-size="180px"
     font-family="Helvetica"
     id="text115">
OEt</text>
  <path
     stroke="none"
     fill="#cc66fe"
     transform="matrix(0.05 0 0 0.05 -10 -11)"
     d="M 9478.13,2407.22 L 9478.08,2381.55 L 9659.69,2487.23 L 9648.6,2506.43 L 9478.13,2407.22 Z "
     id="path116" />
  <text
     x="0"
     y="0"
     stroke="none"
     fill="#cc66fe"
     transform="matrix(0.05 0 0 0.05 460.394 97.0161)"
     font-style="normal"
     font-weight="bold"
     font-size="180px"
     font-family="Helvetica"
     id="text116">
O</text>
  <path
     stroke="none"
     fill="#cc66fe"
     transform="matrix(0.05 0 0 0.05 -10 -11)"
     d="M 9461.25,2411.07 L 9439.07,2411.07 L 9439.07,2196.03 L 9461.25,2196.03 L 9461.25,2411.07 Z "
     id="path117" />
  <path
     stroke="none"
     fill="#cc66fe"
     transform="matrix(0.05 0 0 0.05 -10 -11)"
     d="M 9516.69,2411.07 L 9494.51,2411.07 L 9494.51,2196.03 L 9516.69,2196.03 L 9516.69,2411.07 Z "
     id="path118" />
  <path
     stroke="none"
     fill="#000000"
     transform="matrix(0.05 0 0 0.05 -10 -11)"
     d="M 4792.96,3119.81 L 4792.96,2795.87 L 4814.96,2795.87 L 4814.96,3119.81 Z "
     id="path119" />
  <path
     stroke="none"
     fill="#000000"
     transform="matrix(0.05 0 0 0.05 -10 -11)"
     d="M 4803.96,3312.85 C 4803.96,3312.85 4746.52,3091.09 4746.52,3091.09 C 4746.52,3091.09 4778.83,3118.81 4803.96,3118.81 C 4828.66,3118.81 4860.4,3091.09 4860.4,3091.09 C 4860.4,3091.09 4803.96,3312.85 4803.96,3312.85 C 4803.96,3312.85 4803.96,3312.85 4803.96,3312.85 "
     id="path120" />
  <path
     stroke="#000000"
     stroke-width="1"
     fill="none"
     transform="matrix(0.05 0 0 0.05 -10 -11)"
     d="M 4803.96,3312.85 C 4803.96,3312.85 4746.52,3091.09 4746.52,3091.09 C 4746.52,3091.09 4778.83,3118.81 4803.96,3118.81 C 4828.66,3118.81 4860.4,3091.09 4860.4,3091.09 C 4860.4,3091.09 4803.96,3312.85 4803.96,3312.85 C 4803.96,3312.85 4803.96,3312.85 4803.96,3312.85 "
     id="path121" />
  <text
     x="0"
     y="0"
     stroke="none"
     fill="#000000"
     transform="matrix(0.05 0 0 0.05 235.419 141.035)"
     font-style="normal"
     font-weight="bold"
     font-size="200px"
     font-family="Helvetica"
     id="text121">
NaH</text>
  <text
     x="0"
     y="0"
     stroke="none"
     fill="#000000"
     transform="matrix(0.05 0 0 0.05 237.39 151.305)"
     font-style="normal"
     font-weight="bold"
     font-size="160px"
     font-family="Helvetica"
     id="text122">
or </text>
  <text
     x="0"
     y="0"
     stroke="none"
     fill="#000000"
     transform="matrix(0.05 0 0 0.05 247.613 151.305)"
     font-style="normal"
     font-weight="bold"
     font-size="160px"
     font-family="Helvetica"
     id="text123">
other </text>
  <text
     x="0"
     y="0"
     stroke="none"
     fill="#000000"
     transform="matrix(0.05 0 0 0.05 269.835 151.305)"
     font-style="normal"
     font-weight="bold"
     font-size="160px"
     font-family="Helvetica"
     id="text124">
base</text>
  <path
     stroke="none"
     fill="#000000"
     transform="matrix(0.05 0 0 0.05 -10 -11)"
     d="M 9211.66,3076.92 L 9211.66,2752.97 L 9233.66,2752.97 L 9233.66,3076.92 Z "
     id="path124" />
  <path
     stroke="none"
     fill="#000000"
     transform="matrix(0.05 0 0 0.05 -10 -11)"
     d="M 9222.66,3269.96 C 9222.66,3269.96 9165.22,3048.2 9165.22,3048.2 C 9165.22,3048.2 9197.53,3075.92 9222.66,3075.92 C 9247.36,3075.92 9279.1,3048.2 9279.1,3048.2 C 9279.1,3048.2 9222.66,3269.96 9222.66,3269.96 C 9222.66,3269.96 9222.66,3269.96 9222.66,3269.96 "
     id="path125" />
  <path
     stroke="#000000"
     stroke-width="1"
     fill="none"
     transform="matrix(0.05 0 0 0.05 -10 -11)"
     d="M 9222.66,3269.96 C 9222.66,3269.96 9165.22,3048.2 9165.22,3048.2 C 9165.22,3048.2 9197.53,3075.92 9222.66,3075.92 C 9247.36,3075.92 9279.1,3048.2 9279.1,3048.2 C 9279.1,3048.2 9222.66,3269.96 9222.66,3269.96 C 9222.66,3269.96 9222.66,3269.96 9222.66,3269.96 "
     id="path126" />
  <text
     x="0"
     y="0"
     stroke="none"
     fill="#000000"
     transform="matrix(0.05 0 0 0.05 456.354 138.89)"
     font-style="normal"
     font-weight="bold"
     font-size="200px"
     font-family="Helvetica"
     id="text126">
NaH</text>
  <text
     x="0"
     y="0"
     stroke="none"
     fill="#000000"
     transform="matrix(0.05 0 0 0.05 458.325 149.16)"
     font-style="normal"
     font-weight="bold"
     font-size="160px"
     font-family="Helvetica"
     id="text127">
or </text>
  <text
     x="0"
     y="0"
     stroke="none"
     fill="#000000"
     transform="matrix(0.05 0 0 0.05 468.548 149.16)"
     font-style="normal"
     font-weight="bold"
     font-size="160px"
     font-family="Helvetica"
     id="text128">
other </text>
  <text
     x="0"
     y="0"
     stroke="none"
     fill="#000000"
     transform="matrix(0.05 0 0 0.05 490.77 149.16)"
     font-style="normal"
     font-weight="bold"
     font-size="160px"
     font-family="Helvetica"
     id="text129">
base</text>
  <path
     stroke="none"
     fill="#000000"
     transform="matrix(0.05 0 0 0.05 -10 -11)"
     d="M 3633.95,5498.36 L 3633.95,4755.8 L 3655.95,4755.8 L 3655.95,5498.36 Z "
     id="path149" />
  <path
     stroke="none"
     fill="#000000"
     transform="matrix(0.05 0 0 0.05 -10 -11)"
     d="M 3644.95,5691.4 C 3644.95,5691.4 3587.51,5469.64 3587.51,5469.64 C 3587.51,5469.64 3619.82,5497.36 3644.95,5497.36 C 3669.64,5497.36 3701.39,5469.64 3701.39,5469.64 C 3701.39,5469.64 3644.95,5691.4 3644.95,5691.4 C 3644.95,5691.4 3644.95,5691.4 3644.95,5691.4 "
     id="path150" />
  <path
     stroke="#000000"
     stroke-width="1"
     fill="none"
     transform="matrix(0.05 0 0 0.05 -10 -11)"
     d="M 3644.95,5691.4 C 3644.95,5691.4 3587.51,5469.64 3587.51,5469.64 C 3587.51,5469.64 3619.82,5497.36 3644.95,5497.36 C 3669.64,5497.36 3701.39,5469.64 3701.39,5469.64 C 3701.39,5469.64 3644.95,5691.4 3644.95,5691.4 C 3644.95,5691.4 3644.95,5691.4 3644.95,5691.4 "
     id="path151" />
  <path
     stroke="none"
     fill="#000000"
     transform="matrix(0.05 0 0 0.05 -10 -11)"
     d="M 5709.55,4780.12 L 3644.95,4766.8 L 3644.95,4744.8 L 5709.55,4758.12 Z "
     id="path152" />
  <path
     stroke="none"
     fill="#000000"
     transform="matrix(0.05 0 0 0.05 -10 -11)"
     d="M 5698.55,5498.36 L 5698.55,4769.12 L 5720.55,4769.12 L 5720.55,5498.36 Z "
     id="path153" />
  <path
     stroke="none"
     fill="#000000"
     transform="matrix(0.05 0 0 0.05 -10 -11)"
     d="M 5709.55,5691.4 C 5709.55,5691.4 5652.11,5469.64 5652.11,5469.64 C 5652.11,5469.64 5684.42,5497.36 5709.55,5497.36 C 5734.24,5497.36 5765.99,5469.64 5765.99,5469.64 C 5765.99,5469.64 5709.55,5691.4 5709.55,5691.4 C 5709.55,5691.4 5709.55,5691.4 5709.55,5691.4 "
     id="path154" />
  <path
     stroke="#000000"
     stroke-width="1"
     fill="none"
     transform="matrix(0.05 0 0 0.05 -10 -11)"
     d="M 5709.55,5691.4 C 5709.55,5691.4 5652.11,5469.64 5652.11,5469.64 C 5652.11,5469.64 5684.42,5497.36 5709.55,5497.36 C 5734.24,5497.36 5765.99,5469.64 5765.99,5469.64 C 5765.99,5469.64 5709.55,5691.4 5709.55,5691.4 C 5709.55,5691.4 5709.55,5691.4 5709.55,5691.4 "
     id="path155" />
  <path
     stroke="none"
     fill="#000000"
     transform="matrix(0.05 0 0 0.05 -10 -11)"
     d="M 4792.33,4757.26 L 4792.33,4317.7 L 4814.33,4317.7 L 4814.33,4757.26 Z "
     id="path156" />
  <path
     stroke="none"
     fill="#000000"
     transform="matrix(0.05 0 0 0.05 -10 -11)"
     d="M 3803.55,5145.32 L 3792.46,5126.12 L 4057.64,4972.42 L 4057.7,4998.09 L 3803.55,5145.32 Z "
     id="path157" />
  <text
     x="0"
     y="0"
     stroke="none"
     fill="#107f01"
     transform="matrix(0.05 0 0 0.05 202.59 249.025)"
     font-style="normal"
     font-weight="bold"
     font-size="180px"
     font-family="Helvetica"
     id="text157">
Br</text>
  <path
     stroke="none"
     fill="#000000"
     transform="matrix(0.05 0 0 0.05 -10 -11)"
     d="M 4057.7,4998.09 L 4057.64,4972.42 L 4229.21,5072.35 L 4218.13,5091.56 L 4057.7,4998.09 Z "
     id="path158" />
  <path
     stroke="none"
     fill="#000000"
     transform="matrix(0.05 0 0 0.05 -10 -11)"
     d="M 3625.14,7641 L 3625.14,7099.71 L 3647.14,7099.71 L 3647.14,7641 Z "
     id="path169" />
  <path
     stroke="none"
     fill="#000000"
     transform="matrix(0.05 0 0 0.05 -10 -11)"
     d="M 3636.14,7834.04 C 3636.14,7834.04 3578.7,7612.28 3578.7,7612.28 C 3578.7,7612.28 3611.01,7640 3636.14,7640 C 3660.83,7640 3692.58,7612.28 3692.58,7612.28 C 3692.58,7612.28 3636.14,7834.04 3636.14,7834.04 C 3636.14,7834.04 3636.14,7834.04 3636.14,7834.04 "
     id="path170" />
  <path
     stroke="#000000"
     stroke-width="1"
     fill="none"
     transform="matrix(0.05 0 0 0.05 -10 -11)"
     d="M 3636.14,7834.04 C 3636.14,7834.04 3578.7,7612.28 3578.7,7612.28 C 3578.7,7612.28 3611.01,7640 3636.14,7640 C 3660.83,7640 3692.58,7612.28 3692.58,7612.28 C 3692.58,7612.28 3636.14,7834.04 3636.14,7834.04 C 3636.14,7834.04 3636.14,7834.04 3636.14,7834.04 "
     id="path171" />
  <text
     x="0"
     y="0"
     stroke="none"
     fill="#000000"
     transform="matrix(0.05 0 0 0.05 176.675 362.006)"
     font-style="normal"
     font-weight="bold"
     font-size="180px"
     font-family="Helvetica"
     id="text171">
H</text>
  <text
     x="0"
     y="0"
     stroke="none"
     fill="#000000"
     transform="matrix(0.05 0 0 0.05 183.175 364.076)"
     font-style="normal"
     font-weight="bold"
     font-size="135px"
     font-family="Helvetica"
     id="text172">
3</text>
  <text
     x="0"
     y="0"
     stroke="none"
     fill="#000000"
     transform="matrix(0.05 0 0 0.05 186.929 362.006)"
     font-style="normal"
     font-weight="bold"
     font-size="180px"
     font-family="Helvetica"
     id="text173">
O</text>
  <text
     x="0"
     y="0"
     stroke="none"
     fill="#000000"
     transform="matrix(0.05 0 0 0.05 193.929 358.767)"
     font-style="normal"
     font-weight="bold"
     font-size="135px"
     font-family="Helvetica"
     id="text174">
+</text>
  <text
     x="0"
     y="0"
     stroke="none"
     fill="#000000"
     transform="matrix(0.05 0 0 0.05 197.871 362.006)"
     font-style="normal"
     font-weight="bold"
     font-size="180px"
     font-family="Helvetica"
     id="text175">
, </text>
  <text
     x="0"
     y="0"
     stroke="none"
     fill="#000000"
     transform="matrix(0.05 0 0 0.05 202.872 362.006)"
     font-style="normal"
     font-weight="bold"
     font-size="180px"
     font-family="Helvetica"
     id="text176">
heat</text>
  <path
     stroke="none"
     fill="#000000"
     transform="matrix(0.05 0 0 0.05 -10 -11)"
     d="M 6120.15,4916.52 L 6109.06,4897.31 L 6374.24,4743.62 L 6374.3,4769.29 L 6120.15,4916.52 Z "
     id="path186" />
  <text
     x="0"
     y="0"
     stroke="none"
     fill="#107f01"
     transform="matrix(0.05 0 0 0.05 318.42 237.585)"
     font-style="normal"
     font-weight="bold"
     font-size="180px"
     font-family="Helvetica"
     id="text187">
Br</text>
  <path
     stroke="none"
     fill="#000000"
     transform="matrix(0.05 0 0 0.05 -10 -11)"
     d="M 6374.3,4769.29 L 6374.24,4743.62 L 6545.81,4843.55 L 6534.73,4862.76 L 6374.3,4769.29 Z "
     id="path187" />
  <text
     x="0"
     y="0"
     stroke="none"
     fill="#000000"
     transform="matrix(0.05 0 0 0.05 278.86 235.675)"
     font-style="normal"
     font-weight="bold"
     font-size="200px"
     font-family="Helvetica"
     id="text188">
1)</text>
  <text
     x="0"
     y="0"
     stroke="none"
     fill="#000000"
     transform="matrix(0.05 0 0 0.05 279.575 249.975)"
     font-style="normal"
     font-weight="bold"
     font-size="200px"
     font-family="Helvetica"
     id="text189">
2) </text>
  <text
     x="0"
     y="0"
     stroke="none"
     fill="#000000"
     transform="matrix(0.05 0 0 0.05 291.245 249.975)"
     font-style="normal"
     font-weight="bold"
     font-size="200px"
     font-family="Helvetica"
     id="text190">
NaH</text>
  <path
     stroke="none"
     fill="#000000"
     transform="matrix(0.05 0 0 0.05 -10 -11)"
     d="M 6400.23,5549.75 L 6400.95,5523.67 L 6660.24,5372.82 L 6660.3,5398.49 L 6400.23,5549.75 Z "
     id="path190" />
  <text
     x="0"
     y="0"
     stroke="none"
     fill="#107f01"
     transform="matrix(0.05 0 0 0.05 332.72 269.045)"
     font-style="normal"
     font-weight="bold"
     font-size="180px"
     font-family="Helvetica"
     id="text191">
Br</text>
  <path
     stroke="none"
     fill="#000000"
     transform="matrix(0.05 0 0 0.05 -10 -11)"
     d="M 6660.3,5398.49 L 6660.24,5372.82 L 6831.81,5472.75 L 6820.73,5491.96 L 6660.3,5398.49 Z "
     id="path191" />
  <path
     stroke="none"
     fill="#000000"
     transform="matrix(0.05 0 0 0.05 -10 -11)"
     d="M 6400.95,5523.67 L 6400.23,5549.75 L 6143.75,5381.65 L 6155.87,5363.08 L 6400.95,5523.67 Z "
     id="path192" />
  <text
     x="0"
     y="0"
     stroke="none"
     fill="#000000"
     transform="matrix(0.05 0 0 0.05 279.575 264.275)"
     font-style="normal"
     font-weight="bold"
     font-size="200px"
     font-family="Helvetica"
     id="text192">
3)</text>
  <path
     stroke="none"
     fill="#000000"
     transform="matrix(0.05 0 0 0.05 -10 -11)"
     d="M 5727.24,7569.5 L 5727.24,7028.21 L 5749.24,7028.21 L 5749.24,7569.5 Z "
     id="path206" />
  <path
     stroke="none"
     fill="#000000"
     transform="matrix(0.05 0 0 0.05 -10 -11)"
     d="M 5738.24,7762.54 C 5738.24,7762.54 5680.8,7540.78 5680.8,7540.78 C 5680.8,7540.78 5713.11,7568.5 5738.24,7568.5 C 5762.93,7568.5 5794.68,7540.78 5794.68,7540.78 C 5794.68,7540.78 5738.24,7762.54 5738.24,7762.54 C 5738.24,7762.54 5738.24,7762.54 5738.24,7762.54 "
     id="path207" />
  <path
     stroke="#000000"
     stroke-width="1"
     fill="none"
     transform="matrix(0.05 0 0 0.05 -10 -11)"
     d="M 5738.24,7762.54 C 5738.24,7762.54 5680.8,7540.78 5680.8,7540.78 C 5680.8,7540.78 5713.11,7568.5 5738.24,7568.5 C 5762.93,7568.5 5794.68,7540.78 5794.68,7540.78 C 5794.68,7540.78 5738.24,7762.54 5738.24,7762.54 C 5738.24,7762.54 5738.24,7762.54 5738.24,7762.54 "
     id="path208" />
  <text
     x="0"
     y="0"
     stroke="none"
     fill="#000000"
     transform="matrix(0.05 0 0 0.05 281.78 358.431)"
     font-style="normal"
     font-weight="bold"
     font-size="180px"
     font-family="Helvetica"
     id="text208">
H</text>
  <text
     x="0"
     y="0"
     stroke="none"
     fill="#000000"
     transform="matrix(0.05 0 0 0.05 288.28 360.501)"
     font-style="normal"
     font-weight="bold"
     font-size="135px"
     font-family="Helvetica"
     id="text209">
3</text>
  <text
     x="0"
     y="0"
     stroke="none"
     fill="#000000"
     transform="matrix(0.05 0 0 0.05 292.034 358.431)"
     font-style="normal"
     font-weight="bold"
     font-size="180px"
     font-family="Helvetica"
     id="text210">
O</text>
  <text
     x="0"
     y="0"
     stroke="none"
     fill="#000000"
     transform="matrix(0.05 0 0 0.05 299.034 355.192)"
     font-style="normal"
     font-weight="bold"
     font-size="135px"
     font-family="Helvetica"
     id="text211">
+</text>
  <text
     x="0"
     y="0"
     stroke="none"
     fill="#000000"
     transform="matrix(0.05 0 0 0.05 302.976 358.431)"
     font-style="normal"
     font-weight="bold"
     font-size="180px"
     font-family="Helvetica"
     id="text212">
, </text>
  <text
     x="0"
     y="0"
     stroke="none"
     fill="#000000"
     transform="matrix(0.05 0 0 0.05 307.977 358.431)"
     font-style="normal"
     font-weight="bold"
     font-size="180px"
     font-family="Helvetica"
     id="text213">
heat</text>
  <path
     stroke="none"
     fill="#000000"
     transform="matrix(0.05 0 0 0.05 -10 -11)"
     d="M 8081.25,5512.66 L 8081.25,4770.1 L 8103.25,4770.1 L 8103.25,5512.66 Z "
     id="path222" />
  <path
     stroke="none"
     fill="#000000"
     transform="matrix(0.05 0 0 0.05 -10 -11)"
     d="M 8092.25,5705.7 C 8092.25,5705.7 8034.81,5483.94 8034.81,5483.94 C 8034.81,5483.94 8067.12,5511.66 8092.25,5511.66 C 8116.94,5511.66 8148.69,5483.94 8148.69,5483.94 C 8148.69,5483.94 8092.25,5705.7 8092.25,5705.7 C 8092.25,5705.7 8092.25,5705.7 8092.25,5705.7 "
     id="path223" />
  <path
     stroke="#000000"
     stroke-width="1"
     fill="none"
     transform="matrix(0.05 0 0 0.05 -10 -11)"
     d="M 8092.25,5705.7 C 8092.25,5705.7 8034.81,5483.94 8034.81,5483.94 C 8034.81,5483.94 8067.12,5511.66 8092.25,5511.66 C 8116.94,5511.66 8148.69,5483.94 8148.69,5483.94 C 8148.69,5483.94 8092.25,5705.7 8092.25,5705.7 C 8092.25,5705.7 8092.25,5705.7 8092.25,5705.7 "
     id="path224" />
  <path
     stroke="none"
     fill="#000000"
     transform="matrix(0.05 0 0 0.05 -10 -11)"
     d="M 10156.9,4794.42 L 8092.25,4781.1 L 8092.25,4759.1 L 10156.9,4772.42 Z "
     id="path225" />
  <path
     stroke="none"
     fill="#000000"
     transform="matrix(0.05 0 0 0.05 -10 -11)"
     d="M 10145.9,5512.66 L 10145.9,4783.42 L 10167.9,4783.42 L 10167.9,5512.66 Z "
     id="path226" />
  <path
     stroke="none"
     fill="#000000"
     transform="matrix(0.05 0 0 0.05 -10 -11)"
     d="M 10156.9,5705.7 C 10156.9,5705.7 10099.4,5483.94 10099.4,5483.94 C 10099.4,5483.94 10131.7,5511.66 10156.9,5511.66 C 10181.5,5511.66 10213.3,5483.94 10213.3,5483.94 C 10213.3,5483.94 10156.9,5705.7 10156.9,5705.7 C 10156.9,5705.7 10156.9,5705.7 10156.9,5705.7 "
     id="path227" />
  <path
     stroke="#000000"
     stroke-width="1"
     fill="none"
     transform="matrix(0.05 0 0 0.05 -10 -11)"
     d="M 10156.9,5705.7 C 10156.9,5705.7 10099.4,5483.94 10099.4,5483.94 C 10099.4,5483.94 10131.7,5511.66 10156.9,5511.66 C 10181.5,5511.66 10213.3,5483.94 10213.3,5483.94 C 10213.3,5483.94 10156.9,5705.7 10156.9,5705.7 C 10156.9,5705.7 10156.9,5705.7 10156.9,5705.7 "
     id="path228" />
  <path
     stroke="none"
     fill="#000000"
     transform="matrix(0.05 0 0 0.05 -10 -11)"
     d="M 9239.63,4771.56 L 9239.63,4332 L 9261.63,4332 L 9261.63,4771.56 Z "
     id="path229" />
  <path
     stroke="none"
     fill="#000000"
     transform="matrix(0.05 0 0 0.05 -10 -11)"
     d="M 8250.85,5159.62 L 8239.76,5140.41 L 8504.94,4986.72 L 8505,5012.39 L 8250.85,5159.62 Z "
     id="path230" />
  <text
     x="0"
     y="0"
     stroke="none"
     fill="#107f01"
     transform="matrix(0.05 0 0 0.05 424.955 249.74)"
     font-style="normal"
     font-weight="bold"
     font-size="180px"
     font-family="Helvetica"
     id="text230">
Br</text>
  <path
     stroke="none"
     fill="#000000"
     transform="matrix(0.05 0 0 0.05 -10 -11)"
     d="M 8505,5012.39 L 8504.94,4986.72 L 8676.51,5086.65 L 8665.43,5105.86 L 8505,5012.39 Z "
     id="path231" />
  <path
     stroke="none"
     fill="#000000"
     transform="matrix(0.05 0 0 0.05 -10 -11)"
     d="M 8072.44,7655.3 L 8072.44,7114.01 L 8094.44,7114.01 L 8094.44,7655.3 Z "
     id="path242" />
  <path
     stroke="none"
     fill="#000000"
     transform="matrix(0.05 0 0 0.05 -10 -11)"
     d="M 8083.44,7848.34 C 8083.44,7848.34 8026,7626.58 8026,7626.58 C 8026,7626.58 8058.31,7654.3 8083.44,7654.3 C 8108.13,7654.3 8139.88,7626.58 8139.88,7626.58 C 8139.88,7626.58 8083.44,7848.34 8083.44,7848.34 C 8083.44,7848.34 8083.44,7848.34 8083.44,7848.34 "
     id="path243" />
  <path
     stroke="#000000"
     stroke-width="1"
     fill="none"
     transform="matrix(0.05 0 0 0.05 -10 -11)"
     d="M 8083.44,7848.34 C 8083.44,7848.34 8026,7626.58 8026,7626.58 C 8026,7626.58 8058.31,7654.3 8083.44,7654.3 C 8108.13,7654.3 8139.88,7626.58 8139.88,7626.58 C 8139.88,7626.58 8083.44,7848.34 8083.44,7848.34 C 8083.44,7848.34 8083.44,7848.34 8083.44,7848.34 "
     id="path244" />
  <text
     x="0"
     y="0"
     stroke="none"
     fill="#000000"
     transform="matrix(0.05 0 0 0.05 399.04 362.721)"
     font-style="normal"
     font-weight="bold"
     font-size="180px"
     font-family="Helvetica"
     id="text244">
H</text>
  <text
     x="0"
     y="0"
     stroke="none"
     fill="#000000"
     transform="matrix(0.05 0 0 0.05 405.54 364.791)"
     font-style="normal"
     font-weight="bold"
     font-size="135px"
     font-family="Helvetica"
     id="text245">
3</text>
  <text
     x="0"
     y="0"
     stroke="none"
     fill="#000000"
     transform="matrix(0.05 0 0 0.05 409.294 362.721)"
     font-style="normal"
     font-weight="bold"
     font-size="180px"
     font-family="Helvetica"
     id="text246">
O</text>
  <text
     x="0"
     y="0"
     stroke="none"
     fill="#000000"
     transform="matrix(0.05 0 0 0.05 416.294 359.482)"
     font-style="normal"
     font-weight="bold"
     font-size="135px"
     font-family="Helvetica"
     id="text247">
+</text>
  <text
     x="0"
     y="0"
     stroke="none"
     fill="#000000"
     transform="matrix(0.05 0 0 0.05 420.236 362.721)"
     font-style="normal"
     font-weight="bold"
     font-size="180px"
     font-family="Helvetica"
     id="text248">
, </text>
  <text
     x="0"
     y="0"
     stroke="none"
     fill="#000000"
     transform="matrix(0.05 0 0 0.05 425.237 362.721)"
     font-style="normal"
     font-weight="bold"
     font-size="180px"
     font-family="Helvetica"
     id="text249">
heat</text>
  <path
     stroke="none"
     fill="#000000"
     transform="matrix(0.05 0 0 0.05 -10 -11)"
     d="M 10312.1,5526.96 L 10312.1,4770.1 L 10334.1,4770.1 L 10334.1,5526.96 Z "
     id="path255" />
  <path
     stroke="none"
     fill="#000000"
     transform="matrix(0.05 0 0 0.05 -10 -11)"
     d="M 10323.1,5720 C 10323.1,5720 10265.6,5498.24 10265.6,5498.24 C 10265.6,5498.24 10297.9,5525.96 10323.1,5525.96 C 10347.7,5525.96 10379.5,5498.24 10379.5,5498.24 C 10379.5,5498.24 10323.1,5720 10323.1,5720 C 10323.1,5720 10323.1,5720 10323.1,5720 "
     id="path256" />
  <path
     stroke="#000000"
     stroke-width="1"
     fill="none"
     transform="matrix(0.05 0 0 0.05 -10 -11)"
     d="M 10323.1,5720 C 10323.1,5720 10265.6,5498.24 10265.6,5498.24 C 10265.6,5498.24 10297.9,5525.96 10323.1,5525.96 C 10347.7,5525.96 10379.5,5498.24 10379.5,5498.24 C 10379.5,5498.24 10323.1,5720 10323.1,5720 C 10323.1,5720 10323.1,5720 10323.1,5720 "
     id="path257" />
  <path
     stroke="none"
     fill="#000000"
     transform="matrix(0.05 0 0 0.05 -10 -11)"
     d="M 14874.6,4799.36 L 10323,4781.1 L 10323,4759.1 L 14874.6,4777.36 Z "
     id="path258" />
  <path
     stroke="none"
     fill="#000000"
     transform="matrix(0.05 0 0 0.05 -10 -11)"
     d="M 13142.6,5517.6 L 13142.6,4788.36 L 13164.6,4788.36 L 13164.6,5517.6 Z "
     id="path259" />
  <path
     stroke="none"
     fill="#000000"
     transform="matrix(0.05 0 0 0.05 -10 -11)"
     d="M 13153.6,5710.64 C 13153.6,5710.64 13096.2,5488.88 13096.2,5488.88 C 13096.2,5488.88 13128.5,5516.6 13153.6,5516.6 C 13178.3,5516.6 13210.1,5488.88 13210.1,5488.88 C 13210.1,5488.88 13153.6,5710.64 13153.6,5710.64 C 13153.6,5710.64 13153.6,5710.64 13153.6,5710.64 "
     id="path260" />
  <path
     stroke="#000000"
     stroke-width="1"
     fill="none"
     transform="matrix(0.05 0 0 0.05 -10 -11)"
     d="M 13153.6,5710.64 C 13153.6,5710.64 13096.2,5488.88 13096.2,5488.88 C 13096.2,5488.88 13128.5,5516.6 13153.6,5516.6 C 13178.3,5516.6 13210.1,5488.88 13210.1,5488.88 C 13210.1,5488.88 13153.6,5710.64 13153.6,5710.64 C 13153.6,5710.64 13153.6,5710.64 13153.6,5710.64 "
     id="path261" />
  <path
     stroke="none"
     fill="#000000"
     transform="matrix(0.05 0 0 0.05 -10 -11)"
     d="M 11956.6,4785.86 L 11956.6,3675.1 L 11978.6,3675.1 L 11978.6,4785.86 Z "
     id="path262" />
  <text
     x="0"
     y="0"
     stroke="none"
     fill="#0000ff"
     transform="matrix(0.05 0 0 0.05 562.418 104.566)"
     font-style="normal"
     font-weight="bold"
     font-size="280px"
     font-family="Helvetica"
     id="text262">
enones</text>
  <text
     x="0"
     y="0"
     stroke="none"
     fill="#000000"
     transform="matrix(0.05 0 0 0.05 692.404 252.869)"
     font-style="normal"
     font-weight="bold"
     font-size="200px"
     font-family="Helvetica"
     id="text263">
R</text>
  <text
     x="0"
     y="0"
     stroke="none"
     fill="#000000"
     transform="matrix(0.05 0 0 0.05 699.625 255.169)"
     font-style="normal"
     font-weight="bold"
     font-size="150px"
     font-family="Helvetica"
     id="text264">
2</text>
  <text
     x="0"
     y="0"
     stroke="none"
     fill="#000000"
     transform="matrix(0.05 0 0 0.05 703.796 252.869)"
     font-style="normal"
     font-weight="bold"
     font-size="200px"
     font-family="Helvetica"
     id="text265">
CuLi</text>
  <text
     x="0"
     y="0"
     stroke="none"
     fill="#000000"
     transform="matrix(0.05 0 0 0.05 691.122 264.176)"
     font-style="normal"
     font-weight="bold"
     font-size="160px"
     font-family="Helvetica"
     id="text266">
then </text>
  <text
     x="0"
     y="0"
     stroke="none"
     fill="#000000"
     transform="matrix(0.05 0 0 0.05 710.232 264.176)"
     font-style="normal"
     font-weight="bold"
     font-size="160px"
     font-family="Helvetica"
     id="text267">
CH</text>
  <text
     x="0"
     y="0"
     stroke="none"
     fill="#000000"
     transform="matrix(0.05 0 0 0.05 721.786 266.016)"
     font-style="normal"
     font-weight="bold"
     font-size="120px"
     font-family="Helvetica"
     id="text268">
3</text>
  <text
     x="0"
     y="0"
     stroke="none"
     fill="#000000"
     transform="matrix(0.05 0 0 0.05 725.123 264.176)"
     font-style="normal"
     font-weight="bold"
     font-size="160px"
     font-family="Helvetica"
     id="text269">
I</text>
  <path
     stroke="none"
     fill="#ffffff"
     opacity="0"
     onclick="window.location.href = 'malonic.svg'"
     transform="matrix(0.05 0 0 0.05 -10 -11)"
     d="M 5720,4161.3 C 5720,4161.3 5720,3302.3 5720,3302.3 C 5720,3302.3 3931.5,3302.3 3931.5,3302.3 C 3931.5,3302.3 3931.5,4161.3 3931.5,4161.3 C 3931.5,4161.3 5720,4161.3 5720,4161.3 "
     id="path1"
     inkscape:label="l-malonic" />
  <path
     stroke="none"
     fill="#ffffff"
     opacity="0"
     onclick="window.location.href = 'malonic.svg'"
     transform="matrix(0.05 0 0 0.05 -10 -11)"
     d="M 10038.6,4204.2 C 10038.6,4204.2 10038.6,3302.3 10038.6,3302.3 C 10038.6,3302.3 8464.6,3302.3 8464.6,3302.3 C 8464.6,3302.3 8464.6,4204.2 8464.6,4204.2 C 8464.6,4204.2 10038.6,4204.2 10038.6,4204.2 "
     id="path3"
     inkscape:label="l-malonic" />
  <path
     stroke="none"
     fill="#ffffff"
     opacity="0"
     onclick="window.location.href = 'ketones.svg'"
     transform="matrix(0.05 0 0 0.05 -10 -11)"
     d="M 15215.2,6835.4 C 15215.2,6835.4 15215.2,5633.2 15215.2,5633.2 C 15215.2,5633.2 14070.2,5633.2 14070.2,5633.2 C 14070.2,5633.2 14070.2,6835.4 14070.2,6835.4 C 14070.2,6835.4 15215.2,6835.4 15215.2,6835.4 "
     id="path7"
     inkscape:label="l-ketone" />
  <path
     stroke="none"
     fill="#ffffff"
     opacity="0"
     onclick="window.location.href = 'acids.svg'"
     transform="matrix(0.05 0 0 0.05 -10 -11)"
     d="M 6921.2,8866 C 6921.2,8866 6921.2,7763.9 6921.2,7763.9 C 6921.2,7763.9 5304.3,7763.9 5304.3,7763.9 C 5304.3,7763.9 5304.3,8866 5304.3,8866 C 5304.3,8866 6921.2,8866 6921.2,8866 "
     id="path11"
     inkscape:label="l-acid" />
  <path
     stroke="none"
     fill="#ffffff"
     opacity="0"
     onclick="window.location.href = 'malonic.svg'"
     transform="matrix(0.05 0 0 0.05 -10 -11)"
     d="M 4518.8,6921.2 C 4518.8,6921.2 4518.8,5776.2 4518.8,5776.2 C 4518.8,5776.2 2859,5776.2 2859,5776.2 C 2859,5776.2 2859,6921.2 2859,6921.2 C 2859,6921.2 4518.8,6921.2 4518.8,6921.2 "
     id="path13"
     inkscape:label="l-malonic" />
  <path
     stroke="none"
     fill="#ffffff"
     opacity="0"
     onclick="window.location.href = 'esters.svg'"
     transform="matrix(0.05 0 0 0.05 -10 -11)"
     d="M 6520.8,7035.6 C 6520.8,7035.6 6520.8,5761.9 6520.8,5761.9 C 6520.8,5761.9 4932.5,5761.9 4932.5,5761.9 C 4932.5,5761.9 4932.5,7035.6 4932.5,7035.6 C 4932.5,7035.6 6520.8,7035.6 6520.8,7035.6 "
     id="path15"
     inkscape:label="l-ester" />
  <path
     stroke="none"
     fill="#ffffff"
     opacity="0"
     onclick="window.location.href = 'malonic.svg'"
     transform="matrix(0.05 0 0 0.05 -10 -11)"
     d="M 8937.5,6921.2 C 8937.5,6921.2 8937.5,5747.6 8937.5,5747.6 C 8937.5,5747.6 7563.7,5747.6 7563.7,5747.6 C 7563.7,5747.6 7563.7,6921.2 7563.7,6921.2 C 7563.7,6921.2 8937.5,6921.2 8937.5,6921.2 "
     id="path17"
     inkscape:label="l-malonic" />
  <path
     stroke="none"
     fill="#ffffff"
     opacity="0"
     onclick="window.location.href = 'ketones.svg'"
     transform="matrix(0.05 0 0 0.05 -10 -11)"
     d="M 11468.6,7121.4 C 11468.6,7121.4 11468.6,5690.4 11468.6,5690.4 C 11468.6,5690.4 9308.3,5690.4 9308.3,5690.4 C 9308.3,5690.4 9308.3,7121.4 9308.3,7121.4 C 9308.3,7121.4 11468.6,7121.4 11468.6,7121.4 "
     id="path19"
     inkscape:label="l-ketone" />
  <path
     stroke="none"
     fill="#ffffff"
     opacity="0"
     onclick="window.location.href = 'malonic.svg'"
     transform="matrix(0.05 0 0 0.05 -10 -11)"
     d="M 11583,8908.9 C 11583,8908.9 11583,7735.3 11583,7735.3 C 11583,7735.3 9766.9,7735.3 9766.9,7735.3 C 9766.9,7735.3 9766.9,8908.9 9766.9,8908.9 C 9766.9,8908.9 11583,8908.9 11583,8908.9 "
     id="path23"
     inkscape:label="l-enone" />
  <path
     stroke="none"
     fill="#ffffff"
     opacity="0"
     onclick="window.location.href = 'tomalonic.svg'"
     d="m 625.25853,170.2929 c 0,0 0,-80.573105 0,-80.573105 0,0 -73.60327,0 -73.60327,0 0,0 0,80.573105 0,80.573105 0,0 73.60327,0 73.60327,0"
     id="path23-6"
     inkscape:label="l-tomalonic"
     style="opacity:0;stroke-width:0.0527489" />
  <path
     stroke="none"
     fill="#ffffff"
     opacity="0"
     onclick="window.location.href = 'tomalonic.svg'"
     d="m 498.73424,124.32996 c 0,0 0,-39.132558 0,-39.132558 0,0 -184.63263,0 -184.63263,0 0,0 0,39.132558 0,39.132558 0,0 184.63263,0 184.63263,0"
     id="path23-6-0"
     inkscape:label="l-tomalonic"
     style="opacity:0;stroke-width:0.0582228" />
  <path
     stroke="none"
     fill="#ffffff"
     opacity="0"
     onclick="window.location.href = 'tomalonic.svg'"
     d="m 281.62303,129.30156 c 0,0 0,-43.823952 0,-43.823952 0,0 -187.760222,0 -187.760222,0 0,0 0,43.823952 0,43.823952 0,0 187.760222,0 187.760222,0"
     id="path23-6-5"
     inkscape:label="l-tomalonic"
     style="opacity:0;stroke-width:0.0621337" />
  <path
     stroke="none"
     fill="#ffffff"
     opacity="0"
     onclick="window.location.href = 'supplement.svg'"
     d="m 293.21185,153.83599 c 0,0 0,-23.49463 0,-23.49463 0,0 -59.52913,0 -59.52913,0 0,0 0,23.49463 0,23.49463 0,0 59.52913,0 59.52913,0"
     id="path23-6-5-6"
     inkscape:label="l-supplement"
     style="opacity:0;stroke-width:0.0256164" />
  <path
     stroke="none"
     fill="#ffffff"
     opacity="0"
     onclick="window.location.href = 'supplement.svg'"
     d="m 512.73181,152.11187 c 0,0 0,-23.49463 0,-23.49463 0,0 -59.52913,0 -59.52913,0 0,0 0,23.49463 0,23.49463 0,0 59.52913,0 59.52913,0"
     id="path23-6-5-6-3"
     inkscape:label="l-supplement"
     style="opacity:0;stroke-width:0.0256164" />
  <path
     stroke="none"
     fill="#ffffff"
     opacity="0"
     onclick="window.location.href = 'supplement.svg'"
     d="m 313.12472,251.92313 c 0,0 0,-11.76618 0,-11.76618 0,0 -34.50843,0 -34.50843,0 0,0 0,11.76618 0,11.76618 0,0 34.50843,0 34.50843,0"
     id="path23-6-5-6-5"
     inkscape:label="l-supplement"
     style="opacity:0;stroke-width:0.0138022" />
  <path
     stroke="none"
     fill="#ffffff"
     opacity="0"
     onclick="window.location.href = 'supplement.svg'"
     d="m 232.71787,371.92312 c 0,0 0,-23.49463 0,-23.49463 0,0 -59.52913,0 -59.52913,0 0,0 0,23.49463 0,23.49463 0,0 59.52913,0 59.52913,0"
     id="path23-6-5-6-1"
     inkscape:label="l-supplement"
     style="opacity:0;stroke-width:0.0256164" />
  <path
     stroke="none"
     fill="#ffffff"
     opacity="0"
     onclick="window.location.href = 'supplement.svg'"
     d="m 339.39383,369.71273 c 0,0 0,-23.49463 0,-23.49463 0,0 -59.52913,0 -59.52913,0 0,0 0,23.49463 0,23.49463 0,0 59.52913,0 59.52913,0"
     id="path23-6-5-6-57"
     inkscape:label="l-supplement"
     style="opacity:0;stroke-width:0.0256164" />
  <path
     stroke="none"
     fill="#ffffff"
     opacity="0"
     onclick="window.location.href = 'supplement.svg'"
     d="m 456.99037,374.14894 c 0,0 0,-23.49463 0,-23.49463 0,0 -59.52913,0 -59.52913,0 0,0 0,23.49463 0,23.49463 0,0 59.52913,0 59.52913,0"
     id="path23-6-5-6-0"
     inkscape:label="l-supplement"
     style="opacity:0;stroke-width:0.0256164" />
  <path
     stroke="none"
     fill="#ffffff"
     opacity="0"
     onclick="window.location.href = 'supplement.svg'"
     d="m 554.82571,369.42049 c 0,0 0,-23.49463 0,-23.49463 0,0 -52.49206,0 -52.49206,0 0,0 0,23.49463 0,23.49463 0,0 52.49206,0 52.49206,0"
     id="path23-6-5-6-7"
     inkscape:label="l-supplement"
     style="opacity:0;stroke-width:0.0240547" />
  <path
     stroke="none"
     fill="#ffffff"
     opacity="0"
     onclick="window.location.href = 'supplement.svg'"
     d="m 643.07222,269.6463 c 0,0 0,-13.32997 0,-13.32997 0,0 -42.3274,0 -42.3274,0 0,0 0,13.32997 0,13.32997 0,0 42.3274,0 42.3274,0"
     id="path23-6-5-6-2"
     inkscape:label="l-supplement"
     style="opacity:0;stroke-width:0.0162703" />
  <path
     stroke="none"
     fill="#ffffff"
     opacity="0"
     onclick="window.location.href = 'tohalides.svg'"
     d="m 216.08237,257.56444 c 0,0 0,-23.49463 0,-23.49463 0,0 -40.7636,0 -40.7636,0 0,0 0,23.49463 0,23.49463 0,0 40.7636,0 40.7636,0"
     id="path23-6-5-6-8"
     inkscape:label="l-x"
     style="opacity:0;stroke-width:0.0211977" />
  <path
     stroke="none"
     fill="#ffffff"
     opacity="0"
     onclick="window.location.href = 'tohalides.svg'"
     d="m 333.04813,240.25583 c 0,0 0,-18.80325 0,-18.80325 0,0 -55.61964,0 -55.61964,0 0,0 0,18.80325 0,18.80325 0,0 55.61964,0 55.61964,0"
     id="path23-6-5-6-8-4"
     inkscape:label="l-x"
     style="opacity:0;stroke-width:0.0221513" />
  <path
     stroke="none"
     fill="#ffffff"
     opacity="0"
     onclick="window.location.href = 'tohalides.svg'"
     d="m 345.63601,271.42482 c 0,0 0,-16.45756 0,-16.45756 0,0 -67.34809,0 -67.34809,0 0,0 0,16.45756 0,16.45756 0,0 67.34809,0 67.34809,0"
     id="path23-6-5-6-8-3"
     inkscape:label="l-x"
     style="opacity:0;stroke-width:0.0228041" />
  <path
     stroke="none"
     fill="#ffffff"
     opacity="0"
     onclick="window.location.href = 'tohalides.svg'"
     d="m 437.96966,258.39979 c 0,0 0,-23.49463 0,-23.49463 0,0 -40.7636,0 -40.7636,0 0,0 0,23.49463 0,23.49463 0,0 40.7636,0 40.7636,0"
     id="path23-6-5-6-8-0"
     inkscape:label="l-x"
     style="opacity:0;stroke-width:0.0211977" />
  <path
     stroke="none"
     fill="#ffffff"
     opacity="0"
     onclick="window.location.href = 'tohalides.svg'"
     d="m 730.58785,268.42049 c 0,0 0,-11.76618 0,-11.76618 0,0 -39.19981,0 -39.19981,0 0,0 0,11.76618 0,11.76618 0,0 39.19981,0 39.19981,0"
     id="path23-6-5-6-8-38"
     inkscape:label="l-x"
     style="opacity:0;stroke-width:0.0147105" />
  <path
     stroke="none"
     fill="#ffffff"
     opacity="0"
     onclick="window.location.href = 'toorganometallics.svg'"
     d="m 645.72992,254.32564 c 0,0 0,-14.89376 0,-14.89376 0,0 -36.85412,0 -36.85412,0 0,0 0,14.89376 0,14.89376 0,0 36.85412,0 36.85412,0"
     id="path23-6-5-6-8-08"
     inkscape:label="l-x"
     style="opacity:0;stroke-width:0.0160477" />
  <path
     stroke="none"
     fill="#ffffff"
     opacity="0"
     onclick="window.location.href = 'toorganometallics.svg'"
     d="m 727.57053,255.63858 c 0,0 0,-14.89376 0,-14.89376 0,0 -36.85412,0 -36.85412,0 0,0 0,14.89376 0,14.89376 0,0 36.85412,0 36.85412,0"
     id="path23-6-5-6-8-08-8"
     inkscape:label="l-x"
     style="opacity:0;stroke-width:0.0160477" />
  <g
     id="noreagents"
     onclick="window.location.href = 'malonic-noreagents.svg'"
     transform="translate(-4.6856272,378.9067)">
    <text
       x="11.200497"
       y="54.141506"
       stroke="none"
       fill="#000000"
       font-style="normal"
       font-weight="bold"
       font-size="200px"
       font-family="Helvetica"
       id="gobacktext-7"
       style="font-style:normal;font-weight:bold;font-size:10px;font-family:Helvetica;fill:#000000;fill-opacity:0.443609;stroke:none;stroke-width:0.05"
       inkscape:label="noreagents-text"><tspan
         sodipodi:role="line"
         id="tspan2"
         x="11.200497"
         y="54.141506"
         style="font-style:normal;font-variant:normal;font-weight:bold;font-stretch:normal;font-size:8px;font-family:Helvetica;-inkscape-font-specification:'Helvetica, Bold';font-variant-ligatures:normal;font-variant-caps:normal;font-variant-numeric:normal;font-variant-east-asian:normal;fill:#000000;fill-opacity:0.5;stroke-width:0.05">reagents</tspan></text>
    <rect
       style="fill:#000000;fill-opacity:0.821053;fill-rule:evenodd;stroke:#a13033;stroke-width:0;stroke-linecap:round;stroke-miterlimit:2;stroke-dasharray:none;paint-order:markers fill stroke"
       id="rect3"
       width="31.666824"
       height="0.9773711"
       x="12.224979"
       y="51.518982"
       inkscape:label="noreagents-line" />
    <path
       stroke="none"
       fill="#999999"
       d="m 9.795,54.694678 c 0,0 0,-5.427567 0,-5.427567 0,-2.098514 1.463398,-3.801611 3.266274,-3.801611 0,0 30.608907,0 30.608907,0 1.803073,0 3.266397,1.703097 3.266397,3.801611 0,0 0,5.427567 0,5.427567 0,2.098514 -1.463324,3.801611 -3.266397,3.801611 0,0 -30.608907,0 -30.608907,0 -1.802876,0 -3.266274,-1.703097 -3.266274,-3.801611"
       id="goback-box-8"
       style="fill:#999999;fill-opacity:0.336842;stroke-width:0.0264832"
       inkscape:label="noreagents-box" />
  </g>
  <g
     id="nonames"
     onclick="window.location.href = 'malonic.svg'"
     transform="matrix(0.85780308,0,0,1,-3.2442635,382.9067)">
    <text
       x="18.441887"
       y="69.010506"
       stroke="none"
       fill="#000000"
       font-style="normal"
       font-weight="bold"
       font-size="200px"
       font-family="Helvetica"
       id="gobacktext-7-8"
       style="font-style:normal;font-variant:normal;font-weight:bold;font-stretch:normal;font-size:10px;font-family:Helvetica;-inkscape-font-specification:'Helvetica, Bold';font-variant-ligatures:normal;font-variant-caps:normal;font-variant-numeric:normal;font-variant-east-asian:normal;fill:#0088d0;fill-opacity:0.675806;stroke:none;stroke-width:0.05"
       inkscape:label="noproducts-text"><tspan
         sodipodi:role="line"
         id="tspan1"
         x="18.441887"
         y="69.010506">show</tspan></text>
    <path
       stroke="none"
       fill="#999999"
       d="m 10.136392,68.163695 c 0,0 0,-5.427567 0,-5.427567 0,-2.098514 1.679048,-3.801611 3.747601,-3.801611 0,0 35.119514,0 35.119514,0 2.068778,0 3.747742,1.703097 3.747742,3.801611 0,0 0,5.427567 0,5.427567 0,2.098514 -1.678964,3.801611 -3.747742,3.801611 0,0 -35.119514,0 -35.119514,0 -2.068553,0 -3.747601,-1.703097 -3.747601,-3.801611"
       id="goback-box-8-6"
       style="fill:#999999;fill-opacity:0.336842;stroke-width:0.0283675"
       inkscape:label="noproducts-box" />
  </g>
  <text
     x="822.84332"
     y="415.79849"
     stroke="none"
     fill="#000000"
     transform="matrix(0.92407999,-0.00322566,0.00377741,1.0821442,0,0)"
     font-style="italic"
     font-weight="bold"
     font-size="8.25806px"
     font-family="'Helvetica Oblique'"
     id="text11"
     style="opacity:1;fill:#00009a;fill-opacity:0.651128;stroke-width:0.0412903">chemisfun</text>
  <g
     id="overlay-box"
     style="opacity:0"
     transform="matrix(0.31364504,0,0,0.8007311,650.50736,385.81436)">
    <rect
       style="fill:#609975;fill-opacity:0.2;stroke:#609970;stroke-width:0;stroke-linecap:round;stroke-opacity:0.657143;paint-order:fill markers stroke"
       id="rect285"
       width="164.84744"
       height="59.583412"
       x="329.69489"
       y="23.171328" />
  </g>
  <g
     id="overlay"
     onclick="window.location.href = 'index.html'"
     onmouseover="this.ownerDocument.getElementById('overlay-box').style.opacity='0.5'"
     onmouseout="this.ownerDocument.getElementById('overlay-box').style.opacity='0'"
     transform="matrix(0.76550767,-0.0030054,0.00267214,0.86098131,195.61318,22.784653)">
    <rect
       style="opacity:0.5;fill:#ffffff;fill-opacity:0;stroke-linecap:round;stroke-opacity:0.657143;paint-order:stroke fill markers"
       id="rect2"
       width="65.93074"
       height="55.035408"
       x="733.06049"
       y="445.87061" />
  </g>
  <g
     id="g1"
     transform="matrix(0.0625,0,0,0.0625,764.65732,406.62566)">
    <rect
       x="239.31"
       y="120.321"
       style="fill:#444242"
       width="33.389"
       height="139.98"
       id="rect1" />
    <rect
       x="256"
       y="120.321"
       style="fill:#3a3839"
       width="16.695"
       height="139.98"
       id="rect2-2" />
    <rect
       x="132.194"
       y="305.86301"
       transform="matrix(0.5,0.866,-0.866,0.5,399.932,58.9793)"
       style="fill:#444242"
       width="33.387001"
       height="139.967"
       id="rect4" />
    <rect
       x="293.125"
       y="359.13"
       transform="matrix(0.866,0.5,-0.5,0.866,236.5654,-131.205)"
       style="fill:#3a3839"
       width="139.967"
       height="33.387001"
       id="rect5" />
    <path
       style="background-color:#ffffff00;fill:#439de2;fill-opacity:1"
       d="m 456.843,485.07 c -9.538,0 -18.951,-2.501 -27.432,-7.398 v 0 c -12.733,-7.351 -21.842,-19.221 -25.646,-33.424 -3.805,-14.201 -1.853,-29.035 5.499,-41.769 7.351,-12.732 19.221,-21.841 33.424,-25.646 14.201,-3.806 29.034,-1.853 41.769,5.499 12.732,7.351 21.841,19.221 25.646,33.424 3.805,14.202 1.853,29.035 -5.499,41.769 -7.351,12.733 -19.221,21.842 -33.424,25.646 -4.742,1.27 -9.557,1.899 -14.337,1.899 z"
       id="path7-3" />
    <path
       style="background-color:#ffffff00;fill:#eda74a;fill-opacity:1"
       d="m 256.001,137.021 c -30.352,0 -55.044,-24.693 -55.044,-55.044 0,-30.351 24.693,-55.044 55.044,-55.044 30.351,0 55.044,24.693 55.044,55.044 0,30.351 -24.693,55.044 -55.044,55.044 z"
       id="path5-4" />
    <path
       style="background-color:#ffffff00;fill:#53acb1;fill-opacity:1"
       d="m 55.158,485.07 c -4.781,0 -9.594,-0.629 -14.336,-1.9 C 26.619,479.365 14.75,470.256 7.398,457.524 0.046,444.792 -1.906,429.957 1.899,415.755 c 3.805,-14.203 12.914,-26.072 25.646,-33.424 12.731,-7.352 27.567,-9.304 41.769,-5.499 14.203,3.805 26.072,12.914 33.424,25.646 7.352,12.732 9.304,27.567 5.499,41.769 -3.805,14.203 -12.914,26.072 -25.646,33.424 -8.481,4.897 -17.896,7.399 -27.433,7.399 z"
       id="path6-7" />
    <path
       style="fill:#f74d37"
       d="m 256.001,384.379 c -38.81,0 -70.384,-31.575 -70.384,-70.384 0,-38.809 31.575,-70.384 70.384,-70.384 38.809,0 70.384,31.575 70.384,70.384 0,38.809 -31.575,70.384 -70.384,70.384 z"
       id="path4-9" />
  </g>
</svg>
