<?xml version="1.0" encoding="UTF-8" standalone="no"?>
<svg
   width="100%"
   height="100%"
   viewBox="0 0 818 460"
   style="background-color: #ffffff00"
   version="1.1"
   id="svg190"
   sodipodi:docname="nitriles-noproducts.svg"
   inkscape:version="1.4.2 (ebf0e940, 2025-05-08)"
   xmlns:inkscape="http://www.inkscape.org/namespaces/inkscape"
   xmlns:sodipodi="http://sodipodi.sourceforge.net/DTD/sodipodi-0.dtd"
   xmlns="http://www.w3.org/2000/svg"
   xmlns:svg="http://www.w3.org/2000/svg">
  <path
     stroke="#ffffff"
     stroke-width="1"
     fill="none"
     transform="matrix(0.05 0 0 0.05 -10 -11)"
     d="M 13129.2,7887.6 C 13129.2,7887.6 13129.2,6777.8 13129.2,6777.8 C 13129.2,6777.8 14085.8,6777.8 14085.8,6777.8 C 14085.8,6777.8 14085.8,7887.6 14085.8,7887.6 C 14085.8,7887.6 13129.2,7887.6 13129.2,7887.6 "
     id="path2" />
  <path
     stroke="#ffffff"
     stroke-width="1"
     fill="none"
     transform="matrix(0.05 0 0 0.05 -10 -11)"
     d="M 11680.2,7812 C 11680.2,7812 11680.2,6626.6 11680.2,6626.6 C 11680.2,6626.6 10772,6626.6 10772,6626.6 C 10772,6626.6 10772,7812 10772,7812 C 10772,7812 11680.2,7812 11680.2,7812 "
     id="path4" />
  <path
     stroke="#ffffff"
     stroke-width="1"
     fill="none"
     transform="matrix(0.05 0 0 0.05 -10 -11)"
     d="M 3742.2,4006.8 C 3742.2,4006.8 3742.2,2960 3742.2,2960 C 3742.2,2960 4585.4,2960 4585.4,2960 C 4585.4,2960 4585.4,4006.8 4585.4,4006.8 C 4585.4,4006.8 3742.2,4006.8 3742.2,4006.8 "
     id="path10" />
  <path
     stroke="#000000"
     stroke-width="22"
     fill="none"
     transform="matrix(0.05 0 0 0.05 -10 -11)"
     d="M 16494.7,9367.47 C 16494.7,9367.47 16494.7,284.602 16494.7,284.602 C 16494.7,284.602 268.683,284.602 268.683,284.602 C 268.683,284.602 268.683,9367.47 268.683,9367.47 C 268.683,9367.47 16494.7,9367.47 16494.7,9367.47 "
     id="path15" />
  <text
     x="0"
     y="0"
     stroke="none"
     fill="#000000"
     transform="matrix(0.05 0 0 0.05 11.735 21.13)"
     font-style="normal"
     font-weight="bold"
     font-size="320px"
     font-family="Helvetica"
     id="text15">
Nitriles - Reactions</text>
  <text
     x="0"
     y="0"
     stroke="none"
     fill="#999999"
     transform="matrix(0.05 0 0 0.05 11.9381 39.085)"
     font-style="normal"
     font-weight="normal"
     font-size="320px"
     font-family="Helvetica"
     id="text18">
click for more</text>
  <g
     id="goback"
     onclick="window.location.href = 'index.svg'"
     onmouseover="document.getElementById('goback-box').setAttribute('opacity','0.5');"
     onmouseout="document.getElementById('goback-box').setAttribute('opacity','1')">
    <path
       stroke="none"
       fill="#999999"
       transform="matrix(0.05 0 0 0.05 -10 -11)"
       d="M 395.9,1492.34 C 395.9,1492.34 395.9,1302.37 395.9,1302.37 C 395.9,1228.92 455.513,1169.31 528.955,1169.31 C 528.955,1169.31 1775.84,1169.31 1775.84,1169.31 C 1849.29,1169.31 1908.9,1228.92 1908.9,1302.37 C 1908.9,1302.37 1908.9,1492.34 1908.9,1492.34 C 1908.9,1565.79 1849.29,1625.4 1775.84,1625.4 C 1775.84,1625.4 528.955,1625.4 528.955,1625.4 C 455.513,1625.4 395.9,1565.79 395.9,1492.34 "
       id="goback-box" />
    <text
       x="0"
       y="0"
       stroke="none"
       fill="#000000"
       transform="matrix(0.05 0 0 0.05 29.3796 61.765)"
       font-style="normal"
       font-weight="bold"
       font-size="200px"
       font-family="Helvetica"
       id="gobacktext">
go home</text>
    <path
       stroke="#999999"
       stroke-width="1"
       transform="matrix(0.05 0 0 0.05 -10 -11)"
       d="M 395.9,1492.34 C 395.9,1492.34 395.9,1302.37 395.9,1302.37 C 395.9,1228.92 455.513,1169.31 528.955,1169.31 C 528.955,1169.31 1775.84,1169.31 1775.84,1169.31 C 1849.29,1169.31 1908.9,1228.92 1908.9,1302.37 C 1908.9,1302.37 1908.9,1492.34 1908.9,1492.34 C 1908.9,1565.79 1849.29,1625.4 1775.84,1625.4 C 1775.84,1625.4 528.955,1625.4 528.955,1625.4 C 455.513,1625.4 395.9,1565.79 395.9,1492.34 "
       onclick="history.back()"
       style="opacity:0"
       id="goback-link" />
  </g>
  <g
     id="howtomake"
     onclick="window.location.href = 'tonitriles.svg'"
     onmouseover="document.getElementById('howtomake-box').setAttribute('opacity','0.5');"
     onmouseout="document.getElementById('howtomake-box').setAttribute('opacity','1')">
    <path
       stroke="none"
       fill="#999999"
       transform="matrix(0.05 0 0 0.05 -10 -11)"
       d="M 381.591,2007.46 C 381.591,2007.46 381.591,1817.48 381.591,1817.48 C 381.591,1744.04 441.204,1684.42 514.647,1684.42 C 514.647,1684.42 1761.54,1684.42 1761.54,1684.42 C 1834.98,1684.42 1894.59,1744.04 1894.59,1817.48 C 1894.59,1817.48 1894.59,2007.46 1894.59,2007.46 C 1894.59,2080.9 1834.98,2140.51 1761.54,2140.51 C 1761.54,2140.51 514.647,2140.51 514.647,2140.51 C 441.204,2140.51 381.591,2080.9 381.591,2007.46 "
       id="howtomake-box" />
    <text
       x="0"
       y="0"
       stroke="none"
       fill="#000000"
       transform="matrix(0.05 0 0 0.05 17.275 87.5206)"
       font-style="normal"
       font-weight="bold"
       font-size="200px"
       font-family="Helvetica"
       id="howtomaketext">
how to make</text>
    <path
       stroke="#999999"
       stroke-width="1"
       transform="matrix(0.05 0 0 0.05 -10 -11)"
       d="M 381.591,2007.46 C 381.591,2007.46 381.591,1817.48 381.591,1817.48 C 381.591,1744.04 441.204,1684.42 514.647,1684.42 C 514.647,1684.42 1761.54,1684.42 1761.54,1684.42 C 1834.98,1684.42 1894.59,1744.04 1894.59,1817.48 C 1894.59,1817.48 1894.59,2007.46 1894.59,2007.46 C 1894.59,2080.9 1834.98,2140.51 1761.54,2140.51 C 1761.54,2140.51 514.647,2140.51 514.647,2140.51 C 441.204,2140.51 381.591,2080.9 381.591,2007.46 "
       style="opacity:0"
       id="howtomake-link" />
  </g>
  <path
     stroke="none"
     fill="#000000"
     transform="matrix(0.05 0 0 0.05 -10 -11)"
     d="M 7846.31,5637.92 L 7846.31,6337.84 L 7824.31,6337.84 L 7824.31,5637.92 Z "
     id="path22" />
  <path
     stroke="none"
     fill="#000000"
     transform="matrix(0.05 0 0 0.05 -10 -11)"
     d="M 7835.31,5444.88 C 7835.31,5444.88 7891.75,5666.64 7891.75,5666.64 C 7891.75,5666.64 7860,5638.92 7835.31,5638.92 C 7810.18,5638.92 7777.87,5666.64 7777.87,5666.64 C 7777.87,5666.64 7835.31,5444.88 7835.31,5444.88 C 7835.31,5444.88 7835.31,5444.88 7835.31,5444.88 "
     id="path23" />
  <path
     stroke="#000000"
     stroke-width="1"
     fill="none"
     transform="matrix(0.05 0 0 0.05 -10 -11)"
     d="M 7835.31,5444.88 C 7835.31,5444.88 7891.75,5666.64 7891.75,5666.64 C 7891.75,5666.64 7860,5638.92 7835.31,5638.92 C 7810.18,5638.92 7777.87,5666.64 7777.87,5666.64 C 7777.87,5666.64 7835.31,5444.88 7835.31,5444.88 C 7835.31,5444.88 7835.31,5444.88 7835.31,5444.88 "
     id="path24" />
  <path
     stroke="none"
     fill="#000000"
     transform="matrix(0.05 0 0 0.05 -10 -11)"
     d="M 9830.21,6362.15 L 4043.43,6362.15 L 4043.43,6340.15 L 9830.21,6340.15 Z "
     id="path25" />
  <path
     stroke="none"
     fill="#000000"
     transform="matrix(0.05 0 0 0.05 -10 -11)"
     d="M 5808.61,5851.41 L 5808.61,6351.15 L 5786.61,6351.15 L 5786.61,5851.41 Z "
     id="path26" />
  <path
     stroke="none"
     fill="#000000"
     transform="matrix(0.05 0 0 0.05 -10 -11)"
     d="M 5797.61,5658.37 C 5797.61,5658.37 5854.05,5880.13 5854.05,5880.13 C 5854.05,5880.13 5822.3,5852.41 5797.61,5852.41 C 5772.48,5852.41 5740.17,5880.13 5740.17,5880.13 C 5740.17,5880.13 5797.61,5658.37 5797.61,5658.37 C 5797.61,5658.37 5797.61,5658.37 5797.61,5658.37 "
     id="path27" />
  <path
     stroke="#000000"
     stroke-width="1"
     fill="none"
     transform="matrix(0.05 0 0 0.05 -10 -11)"
     d="M 5797.61,5658.37 C 5797.61,5658.37 5854.05,5880.13 5854.05,5880.13 C 5854.05,5880.13 5822.3,5852.41 5797.61,5852.41 C 5772.48,5852.41 5740.17,5880.13 5740.17,5880.13 C 5740.17,5880.13 5797.61,5658.37 5797.61,5658.37 C 5797.61,5658.37 5797.61,5658.37 5797.61,5658.37 "
     id="path28" />
  <path
     stroke="none"
     fill="#000000"
     transform="matrix(0.05 0 0 0.05 -10 -11)"
     d="M 7824.31,6929.72 L 7824.31,6337.84 L 7846.31,6337.84 L 7846.31,6929.72 Z "
     id="path29" />
  <text
     x="0"
     y="0"
     stroke="none"
     fill="#0000ff"
     transform="matrix(0.05 0 0 0.05 304.734 353.836)"
     font-style="normal"
     font-weight="bold"
     font-size="280px"
     font-family="Helvetica"
     id="text29">
nitriles</text>
  <path
     stroke="none"
     fill="#000000"
     transform="matrix(0.05 0 0 0.05 -10 -11)"
     d="M 9841.21,5651.23 L 9841.21,6351.15 L 9819.21,6351.15 L 9819.21,5651.23 Z "
     id="path33" />
  <path
     stroke="none"
     fill="#000000"
     transform="matrix(0.05 0 0 0.05 -10 -11)"
     d="M 9830.21,5458.19 C 9830.21,5458.19 9886.65,5679.95 9886.65,5679.95 C 9886.65,5679.95 9854.9,5652.23 9830.21,5652.23 C 9805.08,5652.23 9772.77,5679.95 9772.77,5679.95 C 9772.77,5679.95 9830.21,5458.19 9830.21,5458.19 C 9830.21,5458.19 9830.21,5458.19 9830.21,5458.19 "
     id="path34" />
  <path
     stroke="#000000"
     stroke-width="1"
     fill="none"
     transform="matrix(0.05 0 0 0.05 -10 -11)"
     d="M 9830.21,5458.19 C 9830.21,5458.19 9886.65,5679.95 9886.65,5679.95 C 9886.65,5679.95 9854.9,5652.23 9830.21,5652.23 C 9805.08,5652.23 9772.77,5679.95 9772.77,5679.95 C 9772.77,5679.95 9830.21,5458.19 9830.21,5458.19 C 9830.21,5458.19 9830.21,5458.19 9830.21,5458.19 "
     id="path35" />
  <path
     stroke="none"
     fill="#000000"
     transform="matrix(0.05 0 0 0.05 -10 -11)"
     d="M 9857.4,4000.52 L 9857.4,4548.42 L 9835.4,4548.42 L 9835.4,4000.52 Z "
     id="path36" />
  <path
     stroke="none"
     fill="#000000"
     transform="matrix(0.05 0 0 0.05 -10 -11)"
     d="M 9846.4,3807.48 C 9846.4,3807.48 9902.84,4029.24 9902.84,4029.24 C 9902.84,4029.24 9871.09,4001.52 9846.4,4001.52 C 9821.27,4001.52 9788.96,4029.24 9788.96,4029.24 C 9788.96,4029.24 9846.4,3807.48 9846.4,3807.48 C 9846.4,3807.48 9846.4,3807.48 9846.4,3807.48 "
     id="path37" />
  <path
     stroke="#000000"
     stroke-width="1"
     fill="none"
     transform="matrix(0.05 0 0 0.05 -10 -11)"
     d="M 9846.4,3807.48 C 9846.4,3807.48 9902.84,4029.24 9902.84,4029.24 C 9902.84,4029.24 9871.09,4001.52 9846.4,4001.52 C 9821.27,4001.52 9788.96,4029.24 9788.96,4029.24 C 9788.96,4029.24 9846.4,3807.48 9846.4,3807.48 C 9846.4,3807.48 9846.4,3807.48 9846.4,3807.48 "
     id="path38" />
  <text
     x="283.60501"
     y="286.75299"
     stroke="none"
     fill="#000000"
     font-style="normal"
     font-weight="bold"
     font-size="10px"
     font-family="Helvetica"
     id="text41"
     style="stroke-width:0.05">LiAl</text>
  <text
     x="302.492"
     y="286.75299"
     stroke="none"
     fill="#0000ff"
     font-style="normal"
     font-weight="bold"
     font-size="10px"
     font-family="Helvetica"
     id="text42"
     style="stroke-width:0.05">H</text>
  <text
     x="309.71399"
     y="289.052"
     stroke="none"
     fill="#000000"
     font-style="normal"
     font-weight="bold"
     font-size="7.5px"
     font-family="Helvetica"
     id="text43"
     style="stroke-width:0.05">4</text>
  <path
     stroke="none"
     fill="#000000"
     transform="matrix(0.05 0 0 0.05 -10 -11)"
     d="M 7864.57,7162.16 L 7853.48,7142.96 L 7936.32,7095.13 L 7947.41,7114.34 L 7864.57,7162.16 Z "
     id="path43" />
  <path
     stroke="none"
     fill="#000000"
     transform="matrix(0.05 0 0 0.05 -10 -11)"
     d="M 7892.29,7210.18 L 7881.2,7190.97 L 7964.04,7143.15 L 7975.13,7162.35 L 7892.29,7210.18 Z "
     id="path44" />
  <path
     stroke="none"
     fill="#000000"
     transform="matrix(0.05 0 0 0.05 -10 -11)"
     d="M 7920.01,7258.19 L 7908.92,7238.98 L 7991.76,7191.16 L 8002.85,7210.36 L 7920.01,7258.19 Z "
     id="path45" />
  <text
     x="0"
     y="0"
     stroke="none"
     fill="#000000"
     transform="matrix(0.05 0 0 0.05 389.907 347.176)"
     font-style="normal"
     font-weight="bold"
     font-size="180px"
     font-family="Helvetica"
     id="text45">
N</text>
  <path
     stroke="none"
     fill="#000000"
     transform="matrix(0.05 0 0 0.05 -10 -11)"
     d="M 7549.89,7407.86 L 7538.8,7388.66 L 7716.7,7285.95 L 7727.79,7305.15 L 7549.89,7407.86 Z "
     id="path46" />
  <text
     x="0"
     y="0"
     stroke="none"
     fill="#000000"
     transform="matrix(0.05 0 0 0.05 376.937 354.664)"
     font-style="normal"
     font-weight="bold"
     font-size="180px"
     font-family="Helvetica"
     id="text46">
C</text>
  <text
     x="0"
     y="0"
     stroke="none"
     fill="#000000"
     transform="matrix(0.05 0 0 0.05 197.604 294.903)"
     font-style="normal"
     font-weight="bold"
     font-size="200px"
     font-family="Helvetica"
     id="text47">
H</text>
  <text
     x="0"
     y="0"
     stroke="none"
     fill="#000000"
     transform="matrix(0.05 0 0 0.05 204.826 297.203)"
     font-style="normal"
     font-weight="bold"
     font-size="150px"
     font-family="Helvetica"
     id="text48">
2</text>
  <text
     x="0"
     y="0"
     stroke="none"
     fill="#000000"
     transform="matrix(0.05 0 0 0.05 208.997 294.903)"
     font-style="normal"
     font-weight="bold"
     font-size="200px"
     font-family="Helvetica"
     id="text49">
, </text>
  <text
     x="0"
     y="0"
     stroke="none"
     fill="#000000"
     transform="matrix(0.05 0 0 0.05 214.553 294.903)"
     font-style="normal"
     font-weight="bold"
     font-size="200px"
     font-family="Helvetica"
     id="text50">
Pd</text>
  <text
     x="0"
     y="0"
     stroke="none"
     fill="#000000"
     transform="matrix(0.05 0 0 0.05 426.028 339.737)"
     font-style="normal"
     font-weight="bold"
     font-size="200px"
     font-family="Helvetica"
     id="text51">
H</text>
  <text
     x="0"
     y="0"
     stroke="none"
     fill="#000000"
     transform="matrix(0.05 0 0 0.05 433.249 342.037)"
     font-style="normal"
     font-weight="bold"
     font-size="150px"
     font-family="Helvetica"
     id="text52">
3</text>
  <text
     x="0"
     y="0"
     stroke="none"
     fill="#000000"
     transform="matrix(0.05 0 0 0.05 437.421 339.737)"
     font-style="normal"
     font-weight="bold"
     font-size="200px"
     font-family="Helvetica"
     id="text53">
O</text>
  <text
     x="0"
     y="0"
     stroke="none"
     fill="#000000"
     transform="matrix(0.05 0 0 0.05 445.199 336.138)"
     font-style="normal"
     font-weight="bold"
     font-size="150px"
     font-family="Helvetica"
     id="text54">
+</text>
  <text
     x="0"
     y="0"
     stroke="none"
     fill="#000000"
     transform="matrix(0.05 0 0 0.05 426.028 350.77)"
     font-style="normal"
     font-weight="bold"
     font-size="200px"
     font-family="Helvetica"
     id="text55">
or </text>
  <text
     x="0"
     y="0"
     stroke="none"
     fill="#000000"
     transform="matrix(0.05 0 0 0.05 438.806 350.77)"
     font-style="normal"
     font-weight="bold"
     font-size="200px"
     font-family="Helvetica"
     id="text56">
OH</text>
  <text
     x="0"
     y="0"
     stroke="none"
     fill="#000000"
     transform="matrix(0.05 0 0 0.05 453.806 347.171)"
     font-style="normal"
     font-weight="bold"
     font-size="150px"
     font-family="Helvetica"
     id="text57">
-</text>
  <text
     x="0"
     y="0"
     stroke="none"
     fill="#000000"
     transform="matrix(0.05 0 0 0.05 344.925 284.174)"
     font-style="normal"
     font-weight="bold"
     font-size="200px"
     font-family="Helvetica"
     id="text58">
DIBAL</text>
  <text
     x="0"
     y="0"
     stroke="none"
     fill="#999999"
     transform="matrix(0.05 0 0 0.05 647.085 373.694)"
     font-style="normal"
     font-weight="normal"
     font-size="160px"
     font-family="Helvetica"
     id="text66">
extended</text>
  <text
     x="0"
     y="0"
     stroke="none"
     fill="#999999"
     transform="matrix(0.05 0 0 0.05 655.987 381.744)"
     font-style="normal"
     font-weight="normal"
     font-size="160px"
     font-family="Helvetica"
     id="text67">
time</text>
  <text
     x="541.45502"
     y="375.94501"
     stroke="none"
     fill="#999999"
     font-style="normal"
     font-weight="normal"
     font-size="8px"
     font-family="Helvetica"
     id="text68"
     style="stroke-width:0.05">mild</text>
  <text
     x="0"
     y="0"
     stroke="none"
     fill="#000000"
     transform="matrix(0.05 0 0 0.05 459.144 343.749)"
     font-style="normal"
     font-weight="bold"
     font-size="160px"
     font-family="Helvetica"
     id="text71">
heat</text>
  <text
     x="282.73596"
     y="300.03204"
     stroke="none"
     fill="#000000"
     font-style="normal"
     font-weight="bold"
     font-size="8px"
     font-family="Helvetica"
     id="text71-2"
     style="font-style:normal;font-variant:normal;font-weight:bold;font-stretch:normal;font-size:8px;font-family:Helvetica;-inkscape-font-specification:'Helvetica, Bold';font-variant-ligatures:normal;font-variant-caps:normal;font-variant-numeric:normal;font-variant-east-asian:normal;fill:#000000;stroke:none;stroke-width:0.05"><tspan
       sodipodi:role="line"
       id="tspan5"
       x="282.73596"
       y="300.03204">then</tspan></text>
  <text
     x="0"
     y="0"
     stroke="none"
     fill="#0000ff"
     transform="matrix(0.05 0 0 0.05 488.991 289.775)"
     font-style="normal"
     font-weight="bold"
     font-size="200px"
     font-family="Helvetica"
     id="text76">
R</text>
  <text
     x="0"
     y="0"
     stroke="none"
     fill="#000000"
     transform="matrix(0.05 0 0 0.05 496.213 289.775)"
     font-style="normal"
     font-weight="bold"
     font-size="200px"
     font-family="Helvetica"
     id="text77">
MgX</text>
  <text
     x="0"
     y="0"
     stroke="none"
     fill="#000000"
     transform="matrix(0.05 0 0 0.05 488.051 203.959)"
     font-style="normal"
     font-weight="bold"
     font-size="200px"
     font-family="Helvetica"
     id="text78">
H</text>
  <text
     x="0"
     y="0"
     stroke="none"
     fill="#000000"
     transform="matrix(0.05 0 0 0.05 495.273 206.259)"
     font-style="normal"
     font-weight="bold"
     font-size="150px"
     font-family="Helvetica"
     id="text79">
3</text>
  <text
     x="0"
     y="0"
     stroke="none"
     fill="#000000"
     transform="matrix(0.05 0 0 0.05 499.444 203.959)"
     font-style="normal"
     font-weight="bold"
     font-size="200px"
     font-family="Helvetica"
     id="text80">
O</text>
  <text
     x="0"
     y="0"
     stroke="none"
     fill="#000000"
     transform="matrix(0.05 0 0 0.05 507.222 200.361)"
     font-style="normal"
     font-weight="bold"
     font-size="150px"
     font-family="Helvetica"
     id="text81">
+</text>
  <path
     stroke="none"
     fill="#000000"
     transform="matrix(0.05 0 0 0.05 -10 -11)"
     d="M 4049.71,5836.68 L 4049.71,6351.15 L 4027.71,6351.15 L 4027.71,5836.68 Z "
     id="path107" />
  <path
     stroke="none"
     fill="#000000"
     transform="matrix(0.05 0 0 0.05 -10 -11)"
     d="M 4038.71,5643.64 C 4038.71,5643.64 4095.15,5865.4 4095.15,5865.4 C 4095.15,5865.4 4063.4,5837.68 4038.71,5837.68 C 4013.58,5837.68 3981.27,5865.4 3981.27,5865.4 C 3981.27,5865.4 4038.71,5643.64 4038.71,5643.64 C 4038.71,5643.64 4038.71,5643.64 4038.71,5643.64 "
     id="path108" />
  <path
     stroke="#000000"
     stroke-width="1"
     fill="none"
     transform="matrix(0.05 0 0 0.05 -10 -11)"
     d="M 4038.71,5643.64 C 4038.71,5643.64 4095.15,5865.4 4095.15,5865.4 C 4095.15,5865.4 4063.4,5837.68 4038.71,5837.68 C 4013.58,5837.68 3981.27,5865.4 3981.27,5865.4 C 3981.27,5865.4 4038.71,5643.64 4038.71,5643.64 C 4038.71,5643.64 4038.71,5643.64 4038.71,5643.64 "
     id="path109" />
  <text
     x="301.23303"
     y="299.93906"
     stroke="none"
     fill="#000000"
     font-style="normal"
     font-weight="bold"
     font-size="10px"
     font-family="Helvetica"
     id="text166"
     style="stroke-width:0.05">H</text>
  <text
     x="308.45505"
     y="302.23907"
     stroke="none"
     fill="#000000"
     font-style="normal"
     font-weight="bold"
     font-size="7.5px"
     font-family="Helvetica"
     id="text167"
     style="stroke-width:0.05">3</text>
  <text
     x="312.62604"
     y="299.93906"
     stroke="none"
     fill="#000000"
     font-style="normal"
     font-weight="bold"
     font-size="10px"
     font-family="Helvetica"
     id="text168"
     style="stroke-width:0.05">O</text>
  <text
     x="320.40405"
     y="296.34006"
     stroke="none"
     fill="#000000"
     font-style="normal"
     font-weight="bold"
     font-size="7.5px"
     font-family="Helvetica"
     id="text169"
     style="stroke-width:0.05">+</text>
  <text
     x="337.12469"
     y="300.34073"
     stroke="none"
     fill="#000000"
     font-style="normal"
     font-weight="bold"
     font-size="8px"
     font-family="Helvetica"
     id="text71-2-1"
     style="font-style:normal;font-variant:normal;font-weight:bold;font-stretch:normal;font-size:8px;font-family:Helvetica;-inkscape-font-specification:'Helvetica, Bold';font-variant-ligatures:normal;font-variant-caps:normal;font-variant-numeric:normal;font-variant-east-asian:normal;fill:#000000;stroke:none;stroke-width:0.05"><tspan
       sodipodi:role="line"
       id="tspan5-1"
       x="337.12469"
       y="300.34073">then</tspan></text>
  <text
     x="355.62177"
     y="300.24774"
     stroke="none"
     fill="#000000"
     font-style="normal"
     font-weight="bold"
     font-size="10px"
     font-family="Helvetica"
     id="text166-1"
     style="stroke-width:0.05">H</text>
  <text
     x="362.84378"
     y="302.54776"
     stroke="none"
     fill="#000000"
     font-style="normal"
     font-weight="bold"
     font-size="7.5px"
     font-family="Helvetica"
     id="text167-0"
     style="stroke-width:0.05">3</text>
  <text
     x="367.01477"
     y="300.24774"
     stroke="none"
     fill="#000000"
     font-style="normal"
     font-weight="bold"
     font-size="10px"
     font-family="Helvetica"
     id="text168-7"
     style="stroke-width:0.05">O</text>
  <text
     x="374.79279"
     y="296.64874"
     stroke="none"
     fill="#000000"
     font-style="normal"
     font-weight="bold"
     font-size="7.5px"
     font-family="Helvetica"
     id="text169-0"
     style="stroke-width:0.05">+</text>
  <path
     stroke="none"
     fill="#000000"
     d="M 10483.5,7308.59 L 8409.64,7308.59 L 8409.64,7286.59 L 10483.5,7286.59 Z "
     id="path178"
     transform="matrix(0.05 0 0 0.05 -10 -11)" />
  <path
     stroke="none"
     fill="#000000"
     transform="matrix(0.05 0 0 0.05 -10 -11)"
     d="M 10676.5,7297.59 C 10676.5,7297.59 10454.8,7354.03 10454.8,7354.03 C 10454.8,7354.03 10482.5,7322.28 10482.5,7297.59 C 10482.5,7272.46 10454.8,7240.15 10454.8,7240.15 C 10454.8,7240.15 10676.5,7297.59 10676.5,7297.59 C 10676.5,7297.59 10676.5,7297.59 10676.5,7297.59 "
     id="path179" />
  <path
     stroke="#000000"
     stroke-width="1"
     fill="none"
     transform="matrix(0.05 0 0 0.05 -10 -11)"
     d="M 10676.5,7297.59 C 10676.5,7297.59 10454.8,7354.03 10454.8,7354.03 C 10454.8,7354.03 10482.5,7322.28 10482.5,7297.59 C 10482.5,7272.46 10454.8,7240.15 10454.8,7240.15 C 10454.8,7240.15 10676.5,7297.59 10676.5,7297.59 C 10676.5,7297.59 10676.5,7297.59 10676.5,7297.59 "
     id="path180" />
  <path
     stroke="none"
     fill="#000000"
     transform="matrix(0.05 0 0 0.05 -10 -11)"
     d="M 12919,7245.49 L 11741.1,7245.49 L 11741.1,7223.49 L 12919,7223.49 Z "
     id="path181" />
  <path
     stroke="none"
     fill="#000000"
     transform="matrix(0.05 0 0 0.05 -10 -11)"
     d="M 13112,7234.49 C 13112,7234.49 12890.2,7290.93 12890.2,7290.93 C 12890.2,7290.93 12918,7259.18 12918,7234.49 C 12918,7209.36 12890.2,7177.05 12890.2,7177.05 C 12890.2,7177.05 13112,7234.49 13112,7234.49 C 13112,7234.49 13112,7234.49 13112,7234.49 "
     id="path182" />
  <path
     stroke="#000000"
     stroke-width="1"
     fill="none"
     transform="matrix(0.05 0 0 0.05 -10 -11)"
     d="M 13112,7234.49 C 13112,7234.49 12890.2,7290.93 12890.2,7290.93 C 12890.2,7290.93 12918,7259.18 12918,7234.49 C 12918,7209.36 12890.2,7177.05 12890.2,7177.05 C 12890.2,7177.05 13112,7234.49 13112,7234.49 C 13112,7234.49 13112,7234.49 13112,7234.49 "
     id="path183" />
  <text
     x="0"
     y="0"
     stroke="none"
     fill="#000000"
     transform="matrix(0.05 0 0 0.05 579.35 334.689)"
     font-style="normal"
     font-weight="bold"
     font-size="200px"
     font-family="Helvetica"
     id="text183">
H</text>
  <text
     x="0"
     y="0"
     stroke="none"
     fill="#000000"
     transform="matrix(0.05 0 0 0.05 586.572 336.989)"
     font-style="normal"
     font-weight="bold"
     font-size="150px"
     font-family="Helvetica"
     id="text184">
3</text>
  <text
     x="0"
     y="0"
     stroke="none"
     fill="#000000"
     transform="matrix(0.05 0 0 0.05 590.743 334.689)"
     font-style="normal"
     font-weight="bold"
     font-size="200px"
     font-family="Helvetica"
     id="text185">
O</text>
  <text
     x="0"
     y="0"
     stroke="none"
     fill="#000000"
     transform="matrix(0.05 0 0 0.05 598.521 331.09)"
     font-style="normal"
     font-weight="bold"
     font-size="150px"
     font-family="Helvetica"
     id="text186">
+</text>
  <text
     x="0"
     y="0"
     stroke="none"
     fill="#000000"
     transform="matrix(0.05 0 0 0.05 579.35 345.722)"
     font-style="normal"
     font-weight="bold"
     font-size="200px"
     font-family="Helvetica"
     id="text187">
or </text>
  <text
     x="0"
     y="0"
     stroke="none"
     fill="#000000"
     transform="matrix(0.05 0 0 0.05 592.128 345.722)"
     font-style="normal"
     font-weight="bold"
     font-size="200px"
     font-family="Helvetica"
     id="text188">
OH</text>
  <text
     x="0"
     y="0"
     stroke="none"
     fill="#000000"
     transform="matrix(0.05 0 0 0.05 607.128 342.124)"
     font-style="normal"
     font-weight="bold"
     font-size="150px"
     font-family="Helvetica"
     id="text189">
-</text>
  <text
     x="0"
     y="0"
     stroke="none"
     fill="#000000"
     transform="matrix(0.05 0 0 0.05 613.097 338.701)"
     font-style="normal"
     font-weight="bold"
     font-size="160px"
     font-family="Helvetica"
     id="text190">
heat</text>
  <path
     stroke="none"
     fill="#ffffff"
     opacity="0"
     onclick="window.location.href = 'acids.svg'"
     transform="matrix(0.05 0 0 0.05 -10 -11)"
     d="M 13129.2,7887.6 C 13129.2,7887.6 13129.2,6777.8 13129.2,6777.8 C 13129.2,6777.8 14085.8,6777.8 14085.8,6777.8 C 14085.8,6777.8 14085.8,7887.6 14085.8,7887.6 C 14085.8,7887.6 13129.2,7887.6 13129.2,7887.6 "
     id="path1"
     inkscape:label="l-acids" />
  <path
     stroke="none"
     fill="#ffffff"
     opacity="0"
     onclick="window.location.href = 'amides.svg'"
     transform="matrix(0.05 0 0 0.05 -10 -11)"
     d="M 11680.2,7812 C 11680.2,7812 11680.2,6626.6 11680.2,6626.6 C 11680.2,6626.6 10772,6626.6 10772,6626.6 C 10772,6626.6 10772,7812 10772,7812 C 10772,7812 11680.2,7812 11680.2,7812 "
     id="path3"
     inkscape:label="l-amides" />
  <path
     stroke="none"
     fill="#ffffff"
     opacity="0"
     onclick="window.location.href = 'amines.svg'"
     transform="matrix(0.05 0 0 0.05 -10 -11)"
     d="M 3742.2,4006.8 C 3742.2,4006.8 3742.2,2960 3742.2,2960 C 3742.2,2960 4585.4,2960 4585.4,2960 C 4585.4,2960 4585.4,4006.8 4585.4,4006.8 C 4585.4,4006.8 3742.2,4006.8 3742.2,4006.8 "
     id="path9"
     inkscape:label="l-amines" />
  <path
     stroke="none"
     fill="#ffffff"
     opacity="0"
     onclick="window.location.href = 'tonitriles.svg'"
     d="m 409.43191,332.61385 c 0,0 0,38.70621 0,38.70621 0,0 -112.19744,0 -112.19744,0 0,0 0,-38.70621 0,-38.70621 0,0 112.19744,0 112.19744,0"
     id="path11-2"
     inkscape:label="l-tonitriles"
     style="opacity:0;stroke-width:0.0754971" />
  <path
     stroke="none"
     fill="#ffffff"
     opacity="0"
     onclick="window.location.href = 'supplement.svg'"
     d="m 230.79736,284.42849 c 0,0 0,16.8131 0,16.8131 0,0 -37.13534,0 -37.13534,0 0,0 0,-16.8131 0,-16.8131 0,0 37.13534,0 37.13534,0"
     id="path11-2-9-17"
     inkscape:label="l-supplement"
     style="opacity:0;stroke-width:0.0286264" />
  <path
     stroke="none"
     fill="#ffffff"
     opacity="0"
     onclick="window.location.href = 'supplement.svg'"
     d="m 316.01208,285.12759 c 0,0 0,16.8131 0,16.8131 0,0 -34.00775,0 -34.00775,0 0,0 0,-16.8131 0,-16.8131 0,0 34.00775,0 34.00775,0"
     id="path11-2-9-6"
     inkscape:label="l-supplement"
     style="opacity:0;stroke-width:0.0273944" />
  <path
     stroke="none"
     fill="#ffffff"
     opacity="0"
     onclick="window.location.href = 'supplement.svg'"
     d="m 380.25859,273.29658 c 0,0 0,27.75966 0,27.75966 0,0 -38.69913,0 -38.69913,0 0,0 0,-27.75966 0,-27.75966 0,0 38.69913,0 38.69913,0"
     id="path11-2-9-9"
     inkscape:label="l-supplement"
     style="opacity:0;stroke-width:0.0375497" />
  <path
     stroke="none"
     fill="#ffffff"
     opacity="0"
     onclick="window.location.href = 'supplement.svg'"
     d="m 515.28795,193.90083 c 0,0 0,16.8131 0,16.8131 0,0 -28.53447,0 -28.53447,0 0,0 0,-16.8131 0,-16.8131 0,0 28.53447,0 28.53447,0"
     id="path11-2-9-0"
     inkscape:label="l-supplement"
     style="opacity:0;stroke-width:0.0250933" />
  <path
     stroke="none"
     fill="#ffffff"
     opacity="0"
     onclick="window.location.href = 'supplement.svg'"
     d="m 477.19649,330.17765 c 0,0 0,22.28638 0,22.28638 0,0 -53.55517,0 -53.55517,0 0,0 0,-22.28638 0,-22.28638 0,0 53.55517,0 53.55517,0"
     id="path11-2-9-55"
     inkscape:label="l-supplement"
     style="opacity:0;stroke-width:0.0395794" />
  <path
     stroke="none"
     fill="#ffffff"
     opacity="0"
     onclick="window.location.href = 'supplement.svg'"
     d="m 634.80264,324.27155 c 0,0 0,23.85017 0,23.85017 0,0 -57.46466,0 -57.46466,0 0,0 0,-23.85017 0,-23.85017 0,0 57.46466,0 57.46466,0"
     id="path11-2-9-3"
     inkscape:label="l-supplement"
     style="opacity:0;stroke-width:0.0424126" />
  <path
     stroke="none"
     fill="#ffffff"
     opacity="0"
     onclick="window.location.href = 'toorganometallics.svg'"
     d="m 519.29134,278.86903 c 0,0 0,16.8131 0,16.8131 0,0 -32.44396,0 -32.44396,0 0,0 0,-16.8131 0,-16.8131 0,0 32.44396,0 32.44396,0"
     id="path11-2-9-70"
     inkscape:label="l-x"
     style="opacity:0;stroke-width:0.0267572" />
  <g
     id="noreagents"
     onclick="window.location.href = 'nitriles-noreagents.svg'"
     transform="translate(-4.6856272,378.9067)">
    <text
       x="11.200497"
       y="54.141506"
       stroke="none"
       fill="#000000"
       font-style="normal"
       font-weight="bold"
       font-size="200px"
       font-family="Helvetica"
       id="gobacktext-7"
       style="font-style:normal;font-weight:bold;font-size:10px;font-family:Helvetica;fill:#000000;fill-opacity:0.443609;stroke:none;stroke-width:0.05"
       inkscape:label="noreagents-text"><tspan
         sodipodi:role="line"
         id="tspan2"
         x="11.200497"
         y="54.141506"
         style="font-style:normal;font-variant:normal;font-weight:bold;font-stretch:normal;font-size:8px;font-family:Helvetica;-inkscape-font-specification:'Helvetica, Bold';font-variant-ligatures:normal;font-variant-caps:normal;font-variant-numeric:normal;font-variant-east-asian:normal;fill:#000000;fill-opacity:0.5;stroke-width:0.05">reagents</tspan></text>
    <rect
       style="fill:#000000;fill-opacity:0.821053;fill-rule:evenodd;stroke:#a13033;stroke-width:0;stroke-linecap:round;stroke-miterlimit:2;stroke-dasharray:none;paint-order:markers fill stroke"
       id="rect3"
       width="31.666824"
       height="0.9773711"
       x="12.224979"
       y="51.518982"
       inkscape:label="noreagents-line" />
    <path
       stroke="none"
       fill="#999999"
       d="m 9.795,54.694678 c 0,0 0,-5.427567 0,-5.427567 0,-2.098514 1.463398,-3.801611 3.266274,-3.801611 0,0 30.608907,0 30.608907,0 1.803073,0 3.266397,1.703097 3.266397,3.801611 0,0 0,5.427567 0,5.427567 0,2.098514 -1.463324,3.801611 -3.266397,3.801611 0,0 -30.608907,0 -30.608907,0 -1.802876,0 -3.266274,-1.703097 -3.266274,-3.801611"
       id="goback-box-8"
       style="fill:#999999;fill-opacity:0.336842;stroke-width:0.0264832"
       inkscape:label="noreagents-box" />
  </g>
  <g
     id="nonames"
     onclick="window.location.href = 'nitriles.svg'"
     transform="matrix(0.85780308,0,0,1,-3.2442635,382.9067)">
    <text
       x="18.441887"
       y="69.010506"
       stroke="none"
       fill="#000000"
       font-style="normal"
       font-weight="bold"
       font-size="200px"
       font-family="Helvetica"
       id="gobacktext-7-8"
       style="font-style:normal;font-variant:normal;font-weight:bold;font-stretch:normal;font-size:10px;font-family:Helvetica;-inkscape-font-specification:'Helvetica, Bold';font-variant-ligatures:normal;font-variant-caps:normal;font-variant-numeric:normal;font-variant-east-asian:normal;fill:#0088d0;fill-opacity:0.675806;stroke:none;stroke-width:0.05"
       inkscape:label="noproducts-text"><tspan
         sodipodi:role="line"
         id="tspan1"
         x="18.441887"
         y="69.010506">show</tspan></text>
    <path
       stroke="none"
       fill="#999999"
       d="m 10.136392,68.163695 c 0,0 0,-5.427567 0,-5.427567 0,-2.098514 1.679048,-3.801611 3.747601,-3.801611 0,0 35.119514,0 35.119514,0 2.068778,0 3.747742,1.703097 3.747742,3.801611 0,0 0,5.427567 0,5.427567 0,2.098514 -1.678964,3.801611 -3.747742,3.801611 0,0 -35.119514,0 -35.119514,0 -2.068553,0 -3.747601,-1.703097 -3.747601,-3.801611"
       id="goback-box-8-6"
       style="fill:#999999;fill-opacity:0.336842;stroke-width:0.0283675"
       inkscape:label="noproducts-box" />
  </g>
  <text
     x="822.84332"
     y="415.79849"
     stroke="none"
     fill="#000000"
     transform="matrix(0.92407999,-0.00322566,0.00377741,1.0821442,0,0)"
     font-style="italic"
     font-weight="bold"
     font-size="8.25806px"
     font-family="'Helvetica Oblique'"
     id="text11"
     style="opacity:1;fill:#00009a;fill-opacity:0.651128;stroke-width:0.0412903">chemisfun</text>
  <g
     id="overlay-box"
     style="opacity:0"
     transform="matrix(0.31364504,0,0,0.8007311,650.50736,385.81436)">
    <rect
       style="fill:#609975;fill-opacity:0.2;stroke:#609970;stroke-width:0;stroke-linecap:round;stroke-opacity:0.657143;paint-order:fill markers stroke"
       id="rect285"
       width="164.84744"
       height="59.583412"
       x="329.69489"
       y="23.171328" />
  </g>
  <g
     id="overlay"
     onclick="window.location.href = 'about.svg'"
     onmouseover="this.ownerDocument.getElementById('overlay-box').style.opacity='0.5'"
     onmouseout="this.ownerDocument.getElementById('overlay-box').style.opacity='0'"
     transform="matrix(0.76550767,-0.0030054,0.00267214,0.86098131,195.61318,22.784653)">
    <rect
       style="opacity:0.5;fill:#ffffff;fill-opacity:0;stroke-linecap:round;stroke-opacity:0.657143;paint-order:stroke fill markers"
       id="rect2"
       width="65.93074"
       height="55.035408"
       x="733.06049"
       y="445.87061" />
  </g>
  <g
     id="g1"
     transform="matrix(0.0625,0,0,0.0625,764.65732,406.62566)">
    <rect
       x="239.31"
       y="120.321"
       style="fill:#444242"
       width="33.389"
       height="139.98"
       id="rect1" />
    <rect
       x="256"
       y="120.321"
       style="fill:#3a3839"
       width="16.695"
       height="139.98"
       id="rect2-2" />
    <rect
       x="132.194"
       y="305.86301"
       transform="matrix(0.5,0.866,-0.866,0.5,399.932,58.9793)"
       style="fill:#444242"
       width="33.387001"
       height="139.967"
       id="rect4" />
    <rect
       x="293.125"
       y="359.13"
       transform="matrix(0.866,0.5,-0.5,0.866,236.5654,-131.205)"
       style="fill:#3a3839"
       width="139.967"
       height="33.387001"
       id="rect5" />
    <path
       style="background-color:#ffffff00;fill:#439de2;fill-opacity:1"
       d="m 456.843,485.07 c -9.538,0 -18.951,-2.501 -27.432,-7.398 v 0 c -12.733,-7.351 -21.842,-19.221 -25.646,-33.424 -3.805,-14.201 -1.853,-29.035 5.499,-41.769 7.351,-12.732 19.221,-21.841 33.424,-25.646 14.201,-3.806 29.034,-1.853 41.769,5.499 12.732,7.351 21.841,19.221 25.646,33.424 3.805,14.202 1.853,29.035 -5.499,41.769 -7.351,12.733 -19.221,21.842 -33.424,25.646 -4.742,1.27 -9.557,1.899 -14.337,1.899 z"
       id="path7-3" />
    <path
       style="background-color:#ffffff00;fill:#eda74a;fill-opacity:1"
       d="m 256.001,137.021 c -30.352,0 -55.044,-24.693 -55.044,-55.044 0,-30.351 24.693,-55.044 55.044,-55.044 30.351,0 55.044,24.693 55.044,55.044 0,30.351 -24.693,55.044 -55.044,55.044 z"
       id="path5-4" />
    <path
       style="background-color:#ffffff00;fill:#53acb1;fill-opacity:1"
       d="m 55.158,485.07 c -4.781,0 -9.594,-0.629 -14.336,-1.9 C 26.619,479.365 14.75,470.256 7.398,457.524 0.046,444.792 -1.906,429.957 1.899,415.755 c 3.805,-14.203 12.914,-26.072 25.646,-33.424 12.731,-7.352 27.567,-9.304 41.769,-5.499 14.203,3.805 26.072,12.914 33.424,25.646 7.352,12.732 9.304,27.567 5.499,41.769 -3.805,14.203 -12.914,26.072 -25.646,33.424 -8.481,4.897 -17.896,7.399 -27.433,7.399 z"
       id="path6-7" />
    <path
       style="fill:#f74d37"
       d="m 256.001,384.379 c -38.81,0 -70.384,-31.575 -70.384,-70.384 0,-38.809 31.575,-70.384 70.384,-70.384 38.809,0 70.384,31.575 70.384,70.384 0,38.809 -31.575,70.384 -70.384,70.384 z"
       id="path4-9" />
  </g>
</svg>
