<?xml version="1.0" encoding="UTF-8" standalone="no"?>
<svg
   width="100%"
   height="100%"
   viewBox="0 0 818 460"
   style="background-color: #ffffff00"
   version="1.1"
   id="svg190"
   sodipodi:docname="nitriles.svg"
   inkscape:version="1.4.2 (ebf0e940, 2025-05-08)"
   xmlns:inkscape="http://www.inkscape.org/namespaces/inkscape"
   xmlns:sodipodi="http://sodipodi.sourceforge.net/DTD/sodipodi-0.dtd"
   xmlns="http://www.w3.org/2000/svg"
   xmlns:svg="http://www.w3.org/2000/svg">
  <path
     stroke="#ffffff"
     stroke-width="1"
     fill="none"
     transform="matrix(0.05 0 0 0.05 -10 -11)"
     d="M 13129.2,7887.6 C 13129.2,7887.6 13129.2,6777.8 13129.2,6777.8 C 13129.2,6777.8 14085.8,6777.8 14085.8,6777.8 C 14085.8,6777.8 14085.8,7887.6 14085.8,7887.6 C 14085.8,7887.6 13129.2,7887.6 13129.2,7887.6 "
     id="path2" />
  <path
     stroke="#ffffff"
     stroke-width="1"
     fill="none"
     transform="matrix(0.05 0 0 0.05 -10 -11)"
     d="M 11680.2,7812 C 11680.2,7812 11680.2,6626.6 11680.2,6626.6 C 11680.2,6626.6 10772,6626.6 10772,6626.6 C 10772,6626.6 10772,7812 10772,7812 C 10772,7812 11680.2,7812 11680.2,7812 "
     id="path4" />
  <path
     stroke="#ffffff"
     stroke-width="1"
     fill="none"
     transform="matrix(0.05 0 0 0.05 -10 -11)"
     d="M 10395,2998.8 C 10395,2998.8 10395,3766.4 10395,3766.4 C 10395,3766.4 9335.6,3766.4 9335.6,3766.4 C 9335.6,3766.4 9335.6,2998.8 9335.6,2998.8 C 9335.6,2998.8 10395,2998.8 10395,2998.8 "
     id="path6" />
  <path
     stroke="#ffffff"
     stroke-width="1"
     fill="none"
     transform="matrix(0.05 0 0 0.05 -10 -11)"
     d="M 7497,2986.2 C 7497,2986.2 7497,3690.8 7497,3690.8 C 7497,3690.8 8541.8,3690.8 8541.8,3690.8 C 8541.8,3690.8 8541.8,2986.2 8541.8,2986.2 C 8541.8,2986.2 7497,2986.2 7497,2986.2 "
     id="path8" />
  <path
     stroke="#ffffff"
     stroke-width="1"
     fill="none"
     transform="matrix(0.05 0 0 0.05 -10 -11)"
     d="M 3742.2,4006.8 C 3742.2,4006.8 3742.2,2960 3742.2,2960 C 3742.2,2960 4585.4,2960 4585.4,2960 C 4585.4,2960 4585.4,4006.8 4585.4,4006.8 C 4585.4,4006.8 3742.2,4006.8 3742.2,4006.8 "
     id="path10" />
  <path
     stroke="#ffffff"
     stroke-width="1"
     fill="none"
     transform="matrix(0.05 0 0 0.05 -10 -11)"
     d="M 6312.6,1827 C 6312.6,1827 6312.6,2632.4 6312.6,2632.4 C 6312.6,2632.4 5366.6,2632.4 5366.6,2632.4 C 5366.6,2632.4 5366.6,1827 5366.6,1827 C 5366.6,1827 6312.6,1827 6312.6,1827 "
     id="path12" />
  <path
     stroke="#000000"
     stroke-width="22"
     fill="none"
     transform="matrix(0.05 0 0 0.05 -10 -11)"
     d="M 16494.7,9367.47 C 16494.7,9367.47 16494.7,284.602 16494.7,284.602 C 16494.7,284.602 268.683,284.602 268.683,284.602 C 268.683,284.602 268.683,9367.47 268.683,9367.47 C 268.683,9367.47 16494.7,9367.47 16494.7,9367.47 "
     id="path15" />
  <text
     x="0"
     y="0"
     stroke="none"
     fill="#000000"
     transform="matrix(0.05 0 0 0.05 11.735 21.13)"
     font-style="normal"
     font-weight="bold"
     font-size="320px"
     font-family="Helvetica"
     id="text15">
Nitriles - Reactions</text>
  <text
     x="0"
     y="0"
     stroke="none"
     fill="#999999"
     transform="matrix(0.05 0 0 0.05 11.9381 39.085)"
     font-style="normal"
     font-weight="normal"
     font-size="320px"
     font-family="Helvetica"
     id="text18">
click for more</text>
  <g
     id="goback"
     onclick="window.location.href = 'index.svg'"
     onmouseover="document.getElementById('goback-box').setAttribute('opacity','0.5');"
     onmouseout="document.getElementById('goback-box').setAttribute('opacity','1')">
    <path
       stroke="none"
       fill="#999999"
       transform="matrix(0.05 0 0 0.05 -10 -11)"
       d="M 395.9,1492.34 C 395.9,1492.34 395.9,1302.37 395.9,1302.37 C 395.9,1228.92 455.513,1169.31 528.955,1169.31 C 528.955,1169.31 1775.84,1169.31 1775.84,1169.31 C 1849.29,1169.31 1908.9,1228.92 1908.9,1302.37 C 1908.9,1302.37 1908.9,1492.34 1908.9,1492.34 C 1908.9,1565.79 1849.29,1625.4 1775.84,1625.4 C 1775.84,1625.4 528.955,1625.4 528.955,1625.4 C 455.513,1625.4 395.9,1565.79 395.9,1492.34 "
       id="goback-box" />
    <text
       x="0"
       y="0"
       stroke="none"
       fill="#000000"
       transform="matrix(0.05 0 0 0.05 29.3796 61.765)"
       font-style="normal"
       font-weight="bold"
       font-size="200px"
       font-family="Helvetica"
       id="gobacktext">
go home</text>
    <path
       stroke="#999999"
       stroke-width="1"
       transform="matrix(0.05 0 0 0.05 -10 -11)"
       d="M 395.9,1492.34 C 395.9,1492.34 395.9,1302.37 395.9,1302.37 C 395.9,1228.92 455.513,1169.31 528.955,1169.31 C 528.955,1169.31 1775.84,1169.31 1775.84,1169.31 C 1849.29,1169.31 1908.9,1228.92 1908.9,1302.37 C 1908.9,1302.37 1908.9,1492.34 1908.9,1492.34 C 1908.9,1565.79 1849.29,1625.4 1775.84,1625.4 C 1775.84,1625.4 528.955,1625.4 528.955,1625.4 C 455.513,1625.4 395.9,1565.79 395.9,1492.34 "
       onclick="history.back()"
       style="opacity:0"
       id="goback-link" />
  </g>
  <g
     id="howtomake"
     onclick="window.location.href = 'tonitriles.svg'"
     onmouseover="document.getElementById('howtomake-box').setAttribute('opacity','0.5');"
     onmouseout="document.getElementById('howtomake-box').setAttribute('opacity','1')">
    <path
       stroke="none"
       fill="#999999"
       transform="matrix(0.05 0 0 0.05 -10 -11)"
       d="M 381.591,2007.46 C 381.591,2007.46 381.591,1817.48 381.591,1817.48 C 381.591,1744.04 441.204,1684.42 514.647,1684.42 C 514.647,1684.42 1761.54,1684.42 1761.54,1684.42 C 1834.98,1684.42 1894.59,1744.04 1894.59,1817.48 C 1894.59,1817.48 1894.59,2007.46 1894.59,2007.46 C 1894.59,2080.9 1834.98,2140.51 1761.54,2140.51 C 1761.54,2140.51 514.647,2140.51 514.647,2140.51 C 441.204,2140.51 381.591,2080.9 381.591,2007.46 "
       id="howtomake-box" />
    <text
       x="0"
       y="0"
       stroke="none"
       fill="#000000"
       transform="matrix(0.05 0 0 0.05 17.275 87.5206)"
       font-style="normal"
       font-weight="bold"
       font-size="200px"
       font-family="Helvetica"
       id="howtomaketext">
how to make</text>
    <path
       stroke="#999999"
       stroke-width="1"
       transform="matrix(0.05 0 0 0.05 -10 -11)"
       d="M 381.591,2007.46 C 381.591,2007.46 381.591,1817.48 381.591,1817.48 C 381.591,1744.04 441.204,1684.42 514.647,1684.42 C 514.647,1684.42 1761.54,1684.42 1761.54,1684.42 C 1834.98,1684.42 1894.59,1744.04 1894.59,1817.48 C 1894.59,1817.48 1894.59,2007.46 1894.59,2007.46 C 1894.59,2080.9 1834.98,2140.51 1761.54,2140.51 C 1761.54,2140.51 514.647,2140.51 514.647,2140.51 C 441.204,2140.51 381.591,2080.9 381.591,2007.46 "
       style="opacity:0"
       id="howtomake-link" />
  </g>
  <path
     stroke="none"
     fill="#000000"
     transform="matrix(0.05 0 0 0.05 -10 -11)"
     d="M 7846.31,5637.92 L 7846.31,6337.84 L 7824.31,6337.84 L 7824.31,5637.92 Z "
     id="path22" />
  <path
     stroke="none"
     fill="#000000"
     transform="matrix(0.05 0 0 0.05 -10 -11)"
     d="M 7835.31,5444.88 C 7835.31,5444.88 7891.75,5666.64 7891.75,5666.64 C 7891.75,5666.64 7860,5638.92 7835.31,5638.92 C 7810.18,5638.92 7777.87,5666.64 7777.87,5666.64 C 7777.87,5666.64 7835.31,5444.88 7835.31,5444.88 C 7835.31,5444.88 7835.31,5444.88 7835.31,5444.88 "
     id="path23" />
  <path
     stroke="#000000"
     stroke-width="1"
     fill="none"
     transform="matrix(0.05 0 0 0.05 -10 -11)"
     d="M 7835.31,5444.88 C 7835.31,5444.88 7891.75,5666.64 7891.75,5666.64 C 7891.75,5666.64 7860,5638.92 7835.31,5638.92 C 7810.18,5638.92 7777.87,5666.64 7777.87,5666.64 C 7777.87,5666.64 7835.31,5444.88 7835.31,5444.88 C 7835.31,5444.88 7835.31,5444.88 7835.31,5444.88 "
     id="path24" />
  <path
     stroke="none"
     fill="#000000"
     transform="matrix(0.05 0 0 0.05 -10 -11)"
     d="M 9830.21,6362.15 L 4043.43,6362.15 L 4043.43,6340.15 L 9830.21,6340.15 Z "
     id="path25" />
  <path
     stroke="none"
     fill="#000000"
     transform="matrix(0.05 0 0 0.05 -10 -11)"
     d="M 5808.61,5851.41 L 5808.61,6351.15 L 5786.61,6351.15 L 5786.61,5851.41 Z "
     id="path26" />
  <path
     stroke="none"
     fill="#000000"
     transform="matrix(0.05 0 0 0.05 -10 -11)"
     d="M 5797.61,5658.37 C 5797.61,5658.37 5854.05,5880.13 5854.05,5880.13 C 5854.05,5880.13 5822.3,5852.41 5797.61,5852.41 C 5772.48,5852.41 5740.17,5880.13 5740.17,5880.13 C 5740.17,5880.13 5797.61,5658.37 5797.61,5658.37 C 5797.61,5658.37 5797.61,5658.37 5797.61,5658.37 "
     id="path27" />
  <path
     stroke="#000000"
     stroke-width="1"
     fill="none"
     transform="matrix(0.05 0 0 0.05 -10 -11)"
     d="M 5797.61,5658.37 C 5797.61,5658.37 5854.05,5880.13 5854.05,5880.13 C 5854.05,5880.13 5822.3,5852.41 5797.61,5852.41 C 5772.48,5852.41 5740.17,5880.13 5740.17,5880.13 C 5740.17,5880.13 5797.61,5658.37 5797.61,5658.37 C 5797.61,5658.37 5797.61,5658.37 5797.61,5658.37 "
     id="path28" />
  <path
     stroke="none"
     fill="#000000"
     transform="matrix(0.05 0 0 0.05 -10 -11)"
     d="M 7824.31,6929.72 L 7824.31,6337.84 L 7846.31,6337.84 L 7846.31,6929.72 Z "
     id="path29" />
  <text
     x="0"
     y="0"
     stroke="none"
     fill="#0000ff"
     transform="matrix(0.05 0 0 0.05 304.734 353.836)"
     font-style="normal"
     font-weight="bold"
     font-size="280px"
     font-family="Helvetica"
     id="text29">
nitriles</text>
  <path
     stroke="none"
     fill="#000000"
     transform="matrix(0.05 0 0 0.05 -10 -11)"
     d="M 9841.21,5651.23 L 9841.21,6351.15 L 9819.21,6351.15 L 9819.21,5651.23 Z "
     id="path33" />
  <path
     stroke="none"
     fill="#000000"
     transform="matrix(0.05 0 0 0.05 -10 -11)"
     d="M 9830.21,5458.19 C 9830.21,5458.19 9886.65,5679.95 9886.65,5679.95 C 9886.65,5679.95 9854.9,5652.23 9830.21,5652.23 C 9805.08,5652.23 9772.77,5679.95 9772.77,5679.95 C 9772.77,5679.95 9830.21,5458.19 9830.21,5458.19 C 9830.21,5458.19 9830.21,5458.19 9830.21,5458.19 "
     id="path34" />
  <path
     stroke="#000000"
     stroke-width="1"
     fill="none"
     transform="matrix(0.05 0 0 0.05 -10 -11)"
     d="M 9830.21,5458.19 C 9830.21,5458.19 9886.65,5679.95 9886.65,5679.95 C 9886.65,5679.95 9854.9,5652.23 9830.21,5652.23 C 9805.08,5652.23 9772.77,5679.95 9772.77,5679.95 C 9772.77,5679.95 9830.21,5458.19 9830.21,5458.19 C 9830.21,5458.19 9830.21,5458.19 9830.21,5458.19 "
     id="path35" />
  <path
     stroke="none"
     fill="#000000"
     transform="matrix(0.05 0 0 0.05 -10 -11)"
     d="M 9857.4,4000.52 L 9857.4,4548.42 L 9835.4,4548.42 L 9835.4,4000.52 Z "
     id="path36" />
  <path
     stroke="none"
     fill="#000000"
     transform="matrix(0.05 0 0 0.05 -10 -11)"
     d="M 9846.4,3807.48 C 9846.4,3807.48 9902.84,4029.24 9902.84,4029.24 C 9902.84,4029.24 9871.09,4001.52 9846.4,4001.52 C 9821.27,4001.52 9788.96,4029.24 9788.96,4029.24 C 9788.96,4029.24 9846.4,3807.48 9846.4,3807.48 C 9846.4,3807.48 9846.4,3807.48 9846.4,3807.48 "
     id="path37" />
  <path
     stroke="#000000"
     stroke-width="1"
     fill="none"
     transform="matrix(0.05 0 0 0.05 -10 -11)"
     d="M 9846.4,3807.48 C 9846.4,3807.48 9902.84,4029.24 9902.84,4029.24 C 9902.84,4029.24 9871.09,4001.52 9846.4,4001.52 C 9821.27,4001.52 9788.96,4029.24 9788.96,4029.24 C 9788.96,4029.24 9846.4,3807.48 9846.4,3807.48 C 9846.4,3807.48 9846.4,3807.48 9846.4,3807.48 "
     id="path38" />
  <text
     x="0"
     y="0"
     stroke="none"
     fill="#000000"
     transform="matrix(0.05 0 0 0.05 385.907 318.063)"
     font-style="italic"
     font-weight="normal"
     font-size="160px"
     font-family="Helvetica Oblique"
     id="text38">
reduction of CN</text>
  <text
     x="0"
     y="0"
     stroke="none"
     fill="#000000"
     transform="matrix(0.05 0 0 0.05 283.605 296.753)"
     font-style="normal"
     font-weight="bold"
     font-size="200px"
     font-family="Helvetica"
     id="text41">
LiAl</text>
  <text
     x="0"
     y="0"
     stroke="none"
     fill="#0000ff"
     transform="matrix(0.05 0 0 0.05 302.492 296.753)"
     font-style="normal"
     font-weight="bold"
     font-size="200px"
     font-family="Helvetica"
     id="text42">
H</text>
  <text
     x="0"
     y="0"
     stroke="none"
     fill="#000000"
     transform="matrix(0.05 0 0 0.05 309.714 299.052)"
     font-style="normal"
     font-weight="bold"
     font-size="150px"
     font-family="Helvetica"
     id="text43">
4</text>
  <path
     stroke="none"
     fill="#000000"
     transform="matrix(0.05 0 0 0.05 -10 -11)"
     d="M 7864.57,7162.16 L 7853.48,7142.96 L 7936.32,7095.13 L 7947.41,7114.34 L 7864.57,7162.16 Z "
     id="path43" />
  <path
     stroke="none"
     fill="#000000"
     transform="matrix(0.05 0 0 0.05 -10 -11)"
     d="M 7892.29,7210.18 L 7881.2,7190.97 L 7964.04,7143.15 L 7975.13,7162.35 L 7892.29,7210.18 Z "
     id="path44" />
  <path
     stroke="none"
     fill="#000000"
     transform="matrix(0.05 0 0 0.05 -10 -11)"
     d="M 7920.01,7258.19 L 7908.92,7238.98 L 7991.76,7191.16 L 8002.85,7210.36 L 7920.01,7258.19 Z "
     id="path45" />
  <text
     x="0"
     y="0"
     stroke="none"
     fill="#000000"
     transform="matrix(0.05 0 0 0.05 389.907 347.176)"
     font-style="normal"
     font-weight="bold"
     font-size="180px"
     font-family="Helvetica"
     id="text45">
N</text>
  <path
     stroke="none"
     fill="#000000"
     transform="matrix(0.05 0 0 0.05 -10 -11)"
     d="M 7549.89,7407.86 L 7538.8,7388.66 L 7716.7,7285.95 L 7727.79,7305.15 L 7549.89,7407.86 Z "
     id="path46" />
  <text
     x="0"
     y="0"
     stroke="none"
     fill="#000000"
     transform="matrix(0.05 0 0 0.05 376.937 354.664)"
     font-style="normal"
     font-weight="bold"
     font-size="180px"
     font-family="Helvetica"
     id="text46">
C</text>
  <text
     x="0"
     y="0"
     stroke="none"
     fill="#000000"
     transform="matrix(0.05 0 0 0.05 197.604 294.903)"
     font-style="normal"
     font-weight="bold"
     font-size="200px"
     font-family="Helvetica"
     id="text47">
H</text>
  <text
     x="0"
     y="0"
     stroke="none"
     fill="#000000"
     transform="matrix(0.05 0 0 0.05 204.826 297.203)"
     font-style="normal"
     font-weight="bold"
     font-size="150px"
     font-family="Helvetica"
     id="text48">
2</text>
  <text
     x="0"
     y="0"
     stroke="none"
     fill="#000000"
     transform="matrix(0.05 0 0 0.05 208.997 294.903)"
     font-style="normal"
     font-weight="bold"
     font-size="200px"
     font-family="Helvetica"
     id="text49">
, </text>
  <text
     x="0"
     y="0"
     stroke="none"
     fill="#000000"
     transform="matrix(0.05 0 0 0.05 214.553 294.903)"
     font-style="normal"
     font-weight="bold"
     font-size="200px"
     font-family="Helvetica"
     id="text50">
Pd</text>
  <text
     x="0"
     y="0"
     stroke="none"
     fill="#000000"
     transform="matrix(0.05 0 0 0.05 426.028 339.737)"
     font-style="normal"
     font-weight="bold"
     font-size="200px"
     font-family="Helvetica"
     id="text51">
H</text>
  <text
     x="0"
     y="0"
     stroke="none"
     fill="#000000"
     transform="matrix(0.05 0 0 0.05 433.249 342.037)"
     font-style="normal"
     font-weight="bold"
     font-size="150px"
     font-family="Helvetica"
     id="text52">
3</text>
  <text
     x="0"
     y="0"
     stroke="none"
     fill="#000000"
     transform="matrix(0.05 0 0 0.05 437.421 339.737)"
     font-style="normal"
     font-weight="bold"
     font-size="200px"
     font-family="Helvetica"
     id="text53">
O</text>
  <text
     x="0"
     y="0"
     stroke="none"
     fill="#000000"
     transform="matrix(0.05 0 0 0.05 445.199 336.138)"
     font-style="normal"
     font-weight="bold"
     font-size="150px"
     font-family="Helvetica"
     id="text54">
+</text>
  <text
     x="0"
     y="0"
     stroke="none"
     fill="#000000"
     transform="matrix(0.05 0 0 0.05 426.028 350.77)"
     font-style="normal"
     font-weight="bold"
     font-size="200px"
     font-family="Helvetica"
     id="text55">
or </text>
  <text
     x="0"
     y="0"
     stroke="none"
     fill="#000000"
     transform="matrix(0.05 0 0 0.05 438.806 350.77)"
     font-style="normal"
     font-weight="bold"
     font-size="200px"
     font-family="Helvetica"
     id="text56">
OH</text>
  <text
     x="0"
     y="0"
     stroke="none"
     fill="#000000"
     transform="matrix(0.05 0 0 0.05 453.806 347.171)"
     font-style="normal"
     font-weight="bold"
     font-size="150px"
     font-family="Helvetica"
     id="text57">
-</text>
  <text
     x="0"
     y="0"
     stroke="none"
     fill="#000000"
     transform="matrix(0.05 0 0 0.05 344.925 284.174)"
     font-style="normal"
     font-weight="bold"
     font-size="200px"
     font-family="Helvetica"
     id="text58">
DIBAL</text>
  <path
     stroke="none"
     fill="#000000"
     transform="matrix(0.05 0 0 0.05 -10 -11)"
     d="M 11126.6,7252 L 11126.6,7226.33 L 11296.7,7325.45 L 11285.7,7344.66 L 11126.6,7252 Z "
     id="path58" />
  <text
     x="0"
     y="0"
     stroke="none"
     fill="#0000ff"
     transform="matrix(0.05 0 0 0.05 556.037 361.72)"
     font-style="normal"
     font-weight="bold"
     font-size="180px"
     font-family="Helvetica"
     id="text59">
NH</text>
  <text
     x="0"
     y="0"
     stroke="none"
     fill="#0000ff"
     transform="matrix(0.05 0 0 0.05 569.036 363.79)"
     font-style="normal"
     font-weight="bold"
     font-size="135px"
     font-family="Helvetica"
     id="text60">
2</text>
  <path
     stroke="none"
     fill="#000000"
     transform="matrix(0.05 0 0 0.05 -10 -11)"
     d="M 10872.5,7399.23 L 10861.4,7380.03 L 11126.6,7226.33 L 11126.6,7252 L 10872.5,7399.23 Z "
     id="path60" />
  <text
     x="0"
     y="0"
     stroke="none"
     fill="#0000ff"
     transform="matrix(0.05 0 0 0.05 542.817 339.256)"
     font-style="normal"
     font-weight="bold"
     font-size="180px"
     font-family="Helvetica"
     id="text61">
O</text>
  <path
     stroke="none"
     fill="#000000"
     transform="matrix(0.05 0 0 0.05 -10 -11)"
     d="M 11109.7,7255.87 L 11087.5,7255.87 L 11087.5,7040.84 L 11109.7,7040.84 L 11109.7,7255.87 Z "
     id="path61" />
  <path
     stroke="none"
     fill="#000000"
     transform="matrix(0.05 0 0 0.05 -10 -11)"
     d="M 11165.1,7255.87 L 11143,7255.87 L 11143,7040.84 L 11165.1,7040.84 L 11165.1,7255.87 Z "
     id="path62" />
  <path
     stroke="none"
     fill="#000000"
     transform="matrix(0.05 0 0 0.05 -10 -11)"
     d="M 13460.6,7225.97 L 13460.6,7200.3 L 13642.2,7305.97 L 13631.1,7325.18 L 13460.6,7225.97 Z "
     id="path63" />
  <text
     x="0"
     y="0"
     stroke="none"
     fill="#0000ff"
     transform="matrix(0.05 0 0 0.05 672.489 360.417)"
     font-style="normal"
     font-weight="bold"
     font-size="180px"
     font-family="Helvetica"
     id="text63">
OH</text>
  <path
     stroke="none"
     fill="#000000"
     transform="matrix(0.05 0 0 0.05 -10 -11)"
     d="M 13206.5,7373.17 L 13195.5,7353.97 L 13460.6,7200.3 L 13460.6,7225.97 L 13206.5,7373.17 Z "
     id="path64" />
  <text
     x="0"
     y="0"
     stroke="none"
     fill="#0000ff"
     transform="matrix(0.05 0 0 0.05 659.52 337.953)"
     font-style="normal"
     font-weight="bold"
     font-size="180px"
     font-family="Helvetica"
     id="text64">
O</text>
  <path
     stroke="none"
     fill="#000000"
     transform="matrix(0.05 0 0 0.05 -10 -11)"
     d="M 13443.8,7229.81 L 13421.6,7229.81 L 13421.6,7014.78 L 13443.8,7014.78 L 13443.8,7229.81 Z "
     id="path65" />
  <path
     stroke="none"
     fill="#000000"
     transform="matrix(0.05 0 0 0.05 -10 -11)"
     d="M 13499.2,7229.81 L 13477,7229.81 L 13477,7014.78 L 13499.2,7014.78 L 13499.2,7229.81 Z "
     id="path66" />
  <text
     x="0"
     y="0"
     stroke="none"
     fill="#999999"
     transform="matrix(0.05 0 0 0.05 647.085 373.694)"
     font-style="normal"
     font-weight="normal"
     font-size="160px"
     font-family="Helvetica"
     id="text66">
extended</text>
  <text
     x="0"
     y="0"
     stroke="none"
     fill="#999999"
     transform="matrix(0.05 0 0 0.05 655.987 381.744)"
     font-style="normal"
     font-weight="normal"
     font-size="160px"
     font-family="Helvetica"
     id="text67">
time</text>
  <text
     x="541.45502"
     y="375.94501"
     stroke="none"
     fill="#999999"
     font-style="normal"
     font-weight="normal"
     font-size="8px"
     font-family="Helvetica"
     id="text68"
     style="stroke-width:0.05">mild</text>
  <path
     stroke="none"
     fill="#ff0000"
     transform="matrix(0.05 0 0 0.05 -10 -11)"
     d="M 9872.4,3471.68 L 9872.34,3446.01 L 10043.6,3545.77 L 10032.5,3564.98 L 9872.4,3471.68 Z "
     id="path68" />
  <text
     x="0"
     y="0"
     stroke="none"
     fill="#0000ff"
     transform="matrix(0.05 0 0 0.05 493.325 172.704)"
     font-style="normal"
     font-weight="bold"
     font-size="180px"
     font-family="Helvetica"
     id="text69">
R</text>
  <path
     stroke="none"
     fill="#000000"
     transform="matrix(0.05 0 0 0.05 -10 -11)"
     d="M 9618.25,3618.91 L 9607.16,3599.71 L 9872.34,3446.01 L 9872.4,3471.68 L 9618.25,3618.91 Z "
     id="path69" />
  <text
     x="0"
     y="0"
     stroke="none"
     fill="#0000ff"
     transform="matrix(0.05 0 0 0.05 480.105 150.24)"
     font-style="normal"
     font-weight="bold"
     font-size="180px"
     font-family="Helvetica"
     id="text70">
O</text>
  <path
     stroke="none"
     fill="#000000"
     transform="matrix(0.05 0 0 0.05 -10 -11)"
     d="M 9855.47,3475.56 L 9833.29,3475.56 L 9833.29,3260.52 L 9855.47,3260.52 L 9855.47,3475.56 Z "
     id="path70" />
  <path
     stroke="none"
     fill="#000000"
     transform="matrix(0.05 0 0 0.05 -10 -11)"
     d="M 9910.91,3475.56 L 9888.73,3475.56 L 9888.73,3260.52 L 9910.91,3260.52 L 9910.91,3475.56 Z "
     id="path71" />
  <text
     x="0"
     y="0"
     stroke="none"
     fill="#000000"
     transform="matrix(0.05 0 0 0.05 459.144 343.749)"
     font-style="normal"
     font-weight="bold"
     font-size="160px"
     font-family="Helvetica"
     id="text71">
heat</text>
  <path
     stroke="none"
     fill="#ff0000"
     transform="matrix(0.05 0 0 0.05 -10 -11)"
     d="M 9843.8,5159.08 L 9843.74,5133.41 L 10015,5233.17 L 10003.9,5252.38 L 9843.8,5159.08 Z "
     id="path72" />
  <text
     x="0"
     y="0"
     stroke="none"
     fill="#0000ff"
     transform="matrix(0.05 0 0 0.05 491.895 257.074)"
     font-style="normal"
     font-weight="bold"
     font-size="180px"
     font-family="Helvetica"
     id="text72">
R</text>
  <path
     stroke="none"
     fill="#000000"
     transform="matrix(0.05 0 0 0.05 -10 -11)"
     d="M 9589.65,5306.31 L 9578.56,5287.11 L 9843.74,5133.41 L 9843.8,5159.08 L 9589.65,5306.31 Z "
     id="path73" />
  <text
     x="0"
     y="0"
     stroke="none"
     fill="#000000"
     transform="matrix(0.05 0 0 0.05 478.925 234.61)"
     font-style="normal"
     font-weight="bold"
     font-size="180px"
     font-family="Helvetica"
     id="text73">
N</text>
  <path
     stroke="none"
     fill="#000000"
     transform="matrix(0.05 0 0 0.05 -10 -11)"
     d="M 9826.87,5162.96 L 9804.69,5162.96 L 9804.69,4941.9 L 9826.87,4941.9 L 9826.87,5162.96 Z "
     id="path74" />
  <path
     stroke="none"
     fill="#000000"
     transform="matrix(0.05 0 0 0.05 -10 -11)"
     d="M 9882.31,5162.96 L 9860.13,5162.96 L 9860.13,4941.9 L 9882.31,4941.9 L 9882.31,5162.96 Z "
     id="path75" />
  <text
     x="0"
     y="0"
     stroke="none"
     fill="#0000ff"
     transform="matrix(0.05 0 0 0.05 492.311 228.999)"
     font-style="normal"
     font-weight="bold"
     font-size="180px"
     font-family="Helvetica"
     id="text75">
MgX</text>
  <path
     stroke="none"
     fill="#000000"
     transform="matrix(0.05 0 0 0.05 -10 -11)"
     d="M 9944.34,4818.64 L 9936.03,4798.08 L 10012.8,4767.05 L 10021.1,4787.61 L 9944.34,4818.64 Z "
     id="path76" />
  <text
     x="0"
     y="0"
     stroke="none"
     fill="#0000ff"
     transform="matrix(0.05 0 0 0.05 488.991 289.775)"
     font-style="normal"
     font-weight="bold"
     font-size="200px"
     font-family="Helvetica"
     id="text76">
R</text>
  <text
     x="0"
     y="0"
     stroke="none"
     fill="#000000"
     transform="matrix(0.05 0 0 0.05 496.213 289.775)"
     font-style="normal"
     font-weight="bold"
     font-size="200px"
     font-family="Helvetica"
     id="text77">
MgX</text>
  <text
     x="0"
     y="0"
     stroke="none"
     fill="#000000"
     transform="matrix(0.05 0 0 0.05 488.051 203.959)"
     font-style="normal"
     font-weight="bold"
     font-size="200px"
     font-family="Helvetica"
     id="text78">
H</text>
  <text
     x="0"
     y="0"
     stroke="none"
     fill="#000000"
     transform="matrix(0.05 0 0 0.05 495.273 206.259)"
     font-style="normal"
     font-weight="bold"
     font-size="150px"
     font-family="Helvetica"
     id="text79">
3</text>
  <text
     x="0"
     y="0"
     stroke="none"
     fill="#000000"
     transform="matrix(0.05 0 0 0.05 499.444 203.959)"
     font-style="normal"
     font-weight="bold"
     font-size="200px"
     font-family="Helvetica"
     id="text80">
O</text>
  <text
     x="0"
     y="0"
     stroke="none"
     fill="#000000"
     transform="matrix(0.05 0 0 0.05 507.222 200.361)"
     font-style="normal"
     font-weight="bold"
     font-size="150px"
     font-family="Helvetica"
     id="text81">
+</text>
  <path
     stroke="#000000"
     stroke-width="22"
     fill="none"
     transform="matrix(0.05 0 0 0.05 -10 -11)"
     d="M 10529.8,4613.12 L 10588.1,4613.12 "
     id="path81" />
  <path
     stroke="#000000"
     stroke-width="22"
     fill="none"
     transform="matrix(0.05 0 0 0.05 -10 -11)"
     d="M 10588.1,4613.12 L 10588.1,5413.92 "
     id="path82" />
  <path
     stroke="#000000"
     stroke-width="22"
     fill="none"
     transform="matrix(0.05 0 0 0.05 -10 -11)"
     d="M 10588.1,5413.92 L 10529.8,5413.92 "
     id="path83" />
  <path
     stroke="#000000"
     stroke-width="22"
     fill="none"
     transform="matrix(0.05 0 0 0.05 -10 -11)"
     d="M 9516.73,5413.92 L 9458.41,5413.92 "
     id="path84" />
  <path
     stroke="#000000"
     stroke-width="22"
     fill="none"
     transform="matrix(0.05 0 0 0.05 -10 -11)"
     d="M 9458.41,5413.92 L 9458.41,4613.12 "
     id="path85" />
  <path
     stroke="#000000"
     stroke-width="22"
     fill="none"
     transform="matrix(0.05 0 0 0.05 -10 -11)"
     d="M 9458.41,4613.12 L 9516.73,4613.12 "
     id="path86" />
  <path
     stroke="none"
     fill="#000000"
     transform="matrix(0.05 0 0 0.05 -10 -11)"
     d="M 7912.6,3986.22 L 7912.6,4534.12 L 7890.6,4534.12 L 7890.6,3986.22 Z "
     id="path87" />
  <path
     stroke="none"
     fill="#000000"
     transform="matrix(0.05 0 0 0.05 -10 -11)"
     d="M 7901.6,3793.18 C 7901.6,3793.18 7958.04,4014.94 7958.04,4014.94 C 7958.04,4014.94 7926.29,3987.22 7901.6,3987.22 C 7876.47,3987.22 7844.16,4014.94 7844.16,4014.94 C 7844.16,4014.94 7901.6,3793.18 7901.6,3793.18 C 7901.6,3793.18 7901.6,3793.18 7901.6,3793.18 "
     id="path88" />
  <path
     stroke="#000000"
     stroke-width="1"
     fill="none"
     transform="matrix(0.05 0 0 0.05 -10 -11)"
     d="M 7901.6,3793.18 C 7901.6,3793.18 7958.04,4014.94 7958.04,4014.94 C 7958.04,4014.94 7926.29,3987.22 7901.6,3987.22 C 7876.47,3987.22 7844.16,4014.94 7844.16,4014.94 C 7844.16,4014.94 7901.6,3793.18 7901.6,3793.18 C 7901.6,3793.18 7901.6,3793.18 7901.6,3793.18 "
     id="path89" />
  <path
     stroke="none"
     fill="#000000"
     transform="matrix(0.05 0 0 0.05 -10 -11)"
     d="M 7927.61,3457.38 L 7927.54,3431.71 L 8098.22,3531.13 L 8087.13,3550.34 L 7927.61,3457.38 Z "
     id="path90" />
  <text
     x="0"
     y="0"
     stroke="none"
     fill="#0000ff"
     transform="matrix(0.05 0 0 0.05 396.085 171.989)"
     font-style="normal"
     font-weight="bold"
     font-size="180px"
     font-family="Helvetica"
     id="text90">
H</text>
  <path
     stroke="none"
     fill="#000000"
     transform="matrix(0.05 0 0 0.05 -10 -11)"
     d="M 7673.45,3604.61 L 7662.36,3585.41 L 7927.54,3431.71 L 7927.61,3457.38 L 7673.45,3604.61 Z "
     id="path91" />
  <text
     x="0"
     y="0"
     stroke="none"
     fill="#0000ff"
     transform="matrix(0.05 0 0 0.05 382.865 149.525)"
     font-style="normal"
     font-weight="bold"
     font-size="180px"
     font-family="Helvetica"
     id="text91">
O</text>
  <path
     stroke="none"
     fill="#000000"
     transform="matrix(0.05 0 0 0.05 -10 -11)"
     d="M 7910.67,3461.26 L 7888.49,3461.26 L 7888.49,3246.22 L 7910.67,3246.22 L 7910.67,3461.26 Z "
     id="path92" />
  <path
     stroke="none"
     fill="#000000"
     transform="matrix(0.05 0 0 0.05 -10 -11)"
     d="M 7966.11,3461.26 L 7943.93,3461.26 L 7943.93,3246.22 L 7966.11,3246.22 L 7966.11,3461.26 Z "
     id="path93" />
  <path
     stroke="none"
     fill="#000000"
     transform="matrix(0.05 0 0 0.05 -10 -11)"
     d="M 7899,5144.78 L 7898.94,5119.11 L 8069.62,5218.53 L 8058.53,5237.73 L 7899,5144.78 Z "
     id="path94" />
  <text
     x="0"
     y="0"
     stroke="none"
     fill="#0000ff"
     transform="matrix(0.05 0 0 0.05 394.655 256.359)"
     font-style="normal"
     font-weight="bold"
     font-size="180px"
     font-family="Helvetica"
     id="text94">
H</text>
  <path
     stroke="none"
     fill="#000000"
     transform="matrix(0.05 0 0 0.05 -10 -11)"
     d="M 7644.85,5292.01 L 7633.76,5272.81 L 7898.94,5119.11 L 7899,5144.78 L 7644.85,5292.01 Z "
     id="path95" />
  <text
     x="0"
     y="0"
     stroke="none"
     fill="#000000"
     transform="matrix(0.05 0 0 0.05 381.685 233.895)"
     font-style="normal"
     font-weight="bold"
     font-size="180px"
     font-family="Helvetica"
     id="text95">
N</text>
  <path
     stroke="none"
     fill="#000000"
     transform="matrix(0.05 0 0 0.05 -10 -11)"
     d="M 7882.07,5148.66 L 7859.89,5148.66 L 7859.89,4927.6 L 7882.07,4927.6 L 7882.07,5148.66 Z "
     id="path96" />
  <path
     stroke="none"
     fill="#000000"
     transform="matrix(0.05 0 0 0.05 -10 -11)"
     d="M 7937.51,5148.66 L 7915.33,5148.66 L 7915.33,4927.6 L 7937.51,4927.6 L 7937.51,5148.66 Z "
     id="path97" />
  <text
     x="0"
     y="0"
     stroke="none"
     fill="#0000ff"
     transform="matrix(0.05 0 0 0.05 397.321 228.284)"
     font-style="normal"
     font-weight="bold"
     font-size="180px"
     font-family="Helvetica"
     id="text97">
[Al]</text>
  <path
     stroke="none"
     fill="#000000"
     transform="matrix(0.05 0 0 0.05 -10 -11)"
     d="M 7999.54,4804.34 L 7991.23,4783.78 L 8109.33,4736.05 L 8117.64,4756.61 L 7999.54,4804.34 Z "
     id="path98" />
  <text
     x="0"
     y="0"
     stroke="none"
     fill="#000000"
     transform="matrix(0.05 0 0 0.05 390.811 203.244)"
     font-style="normal"
     font-weight="bold"
     font-size="200px"
     font-family="Helvetica"
     id="text98">
H</text>
  <text
     x="0"
     y="0"
     stroke="none"
     fill="#000000"
     transform="matrix(0.05 0 0 0.05 398.033 205.544)"
     font-style="normal"
     font-weight="bold"
     font-size="150px"
     font-family="Helvetica"
     id="text99">
3</text>
  <text
     x="0"
     y="0"
     stroke="none"
     fill="#000000"
     transform="matrix(0.05 0 0 0.05 402.204 203.244)"
     font-style="normal"
     font-weight="bold"
     font-size="200px"
     font-family="Helvetica"
     id="text100">
O</text>
  <text
     x="0"
     y="0"
     stroke="none"
     fill="#000000"
     transform="matrix(0.05 0 0 0.05 409.982 199.646)"
     font-style="normal"
     font-weight="bold"
     font-size="150px"
     font-family="Helvetica"
     id="text101">
+</text>
  <path
     stroke="#000000"
     stroke-width="22"
     fill="none"
     transform="matrix(0.05 0 0 0.05 -10 -11)"
     d="M 8584.98,4598.82 L 8643.31,4598.82 "
     id="path101" />
  <path
     stroke="#000000"
     stroke-width="22"
     fill="none"
     transform="matrix(0.05 0 0 0.05 -10 -11)"
     d="M 8643.31,4598.82 L 8643.31,5399.62 "
     id="path102" />
  <path
     stroke="#000000"
     stroke-width="22"
     fill="none"
     transform="matrix(0.05 0 0 0.05 -10 -11)"
     d="M 8643.31,5399.62 L 8584.98,5399.62 "
     id="path103" />
  <path
     stroke="#000000"
     stroke-width="22"
     fill="none"
     transform="matrix(0.05 0 0 0.05 -10 -11)"
     d="M 7571.93,5399.62 L 7513.61,5399.62 "
     id="path104" />
  <path
     stroke="#000000"
     stroke-width="22"
     fill="none"
     transform="matrix(0.05 0 0 0.05 -10 -11)"
     d="M 7513.61,5399.62 L 7513.61,4598.82 "
     id="path105" />
  <path
     stroke="#000000"
     stroke-width="22"
     fill="none"
     transform="matrix(0.05 0 0 0.05 -10 -11)"
     d="M 7513.61,4598.82 L 7571.93,4598.82 "
     id="path106" />
  <text
     x="0"
     y="0"
     stroke="none"
     fill="#000000"
     transform="matrix(0.05 0 0 0.05 342.8 297.591)"
     font-style="normal"
     font-weight="bold"
     font-size="200px"
     font-family="Helvetica"
     id="text106">
([Al]-</text>
  <text
     x="0"
     y="0"
     stroke="none"
     fill="#0000ff"
     transform="matrix(0.05 0 0 0.05 366.121 297.591)"
     font-style="normal"
     font-weight="bold"
     font-size="200px"
     font-family="Helvetica"
     id="text107">
H)</text>
  <path
     stroke="none"
     fill="#000000"
     transform="matrix(0.05 0 0 0.05 -10 -11)"
     d="M 4049.71,5836.68 L 4049.71,6351.15 L 4027.71,6351.15 L 4027.71,5836.68 Z "
     id="path107" />
  <path
     stroke="none"
     fill="#000000"
     transform="matrix(0.05 0 0 0.05 -10 -11)"
     d="M 4038.71,5643.64 C 4038.71,5643.64 4095.15,5865.4 4095.15,5865.4 C 4095.15,5865.4 4063.4,5837.68 4038.71,5837.68 C 4013.58,5837.68 3981.27,5865.4 3981.27,5865.4 C 3981.27,5865.4 4038.71,5643.64 4038.71,5643.64 C 4038.71,5643.64 4038.71,5643.64 4038.71,5643.64 "
     id="path108" />
  <path
     stroke="#000000"
     stroke-width="1"
     fill="none"
     transform="matrix(0.05 0 0 0.05 -10 -11)"
     d="M 4038.71,5643.64 C 4038.71,5643.64 4095.15,5865.4 4095.15,5865.4 C 4095.15,5865.4 4063.4,5837.68 4038.71,5837.68 C 4013.58,5837.68 3981.27,5865.4 3981.27,5865.4 C 3981.27,5865.4 4038.71,5643.64 4038.71,5643.64 C 4038.71,5643.64 4038.71,5643.64 4038.71,5643.64 "
     id="path109" />
  <path
     stroke="none"
     fill="#000000"
     transform="matrix(0.05 0 0 0.05 -10 -11)"
     d="M 4080.9,5309.57 L 4080.84,5283.89 L 4251.52,5383.31 L 4240.43,5402.52 L 4080.9,5309.57 Z "
     id="path110" />
  <text
     x="0"
     y="0"
     stroke="none"
     fill="#0000ff"
     transform="matrix(0.05 0 0 0.05 203.75 264.599)"
     font-style="normal"
     font-weight="bold"
     font-size="180px"
     font-family="Helvetica"
     id="text110">
H</text>
  <path
     stroke="none"
     fill="#000000"
     transform="matrix(0.05 0 0 0.05 -10 -11)"
     d="M 3826.75,5456.8 L 3815.66,5437.59 L 4080.84,5283.89 L 4080.9,5309.57 L 3826.75,5456.8 Z "
     id="path111" />
  <text
     x="0"
     y="0"
     stroke="none"
     fill="#000000"
     transform="matrix(0.05 0 0 0.05 190.78 242.135)"
     font-style="normal"
     font-weight="bold"
     font-size="180px"
     font-family="Helvetica"
     id="text111">
N</text>
  <path
     stroke="none"
     fill="#000000"
     transform="matrix(0.05 0 0 0.05 -10 -11)"
     d="M 4063.97,5313.44 L 4041.79,5313.44 L 4041.79,5092.38 L 4063.97,5092.38 L 4063.97,5313.44 Z "
     id="path112" />
  <path
     stroke="none"
     fill="#000000"
     transform="matrix(0.05 0 0 0.05 -10 -11)"
     d="M 4119.41,5313.44 L 4097.23,5313.44 L 4097.23,5092.38 L 4119.41,5092.38 L 4119.41,5313.44 Z "
     id="path113" />
  <text
     x="0"
     y="0"
     stroke="none"
     fill="#0000ff"
     transform="matrix(0.05 0 0 0.05 204.665 236.523)"
     font-style="normal"
     font-weight="bold"
     font-size="180px"
     font-family="Helvetica"
     id="text113">
H</text>
  <path
     stroke="none"
     fill="#000000"
     transform="matrix(0.05 0 0 0.05 -10 -11)"
     d="M 4181.44,4969.12 L 4173.13,4948.56 L 4258.7,4913.98 L 4267.01,4934.54 L 4181.44,4969.12 Z "
     id="path114" />
  <path
     stroke="#000000"
     stroke-width="22"
     fill="none"
     transform="matrix(0.05 0 0 0.05 -10 -11)"
     d="M 4609.58,4763.6 L 4667.91,4763.6 "
     id="path115" />
  <path
     stroke="#000000"
     stroke-width="22"
     fill="none"
     transform="matrix(0.05 0 0 0.05 -10 -11)"
     d="M 4667.91,4763.6 L 4667.91,5564.4 "
     id="path116" />
  <path
     stroke="#000000"
     stroke-width="22"
     fill="none"
     transform="matrix(0.05 0 0 0.05 -10 -11)"
     d="M 4667.91,5564.4 L 4609.58,5564.4 "
     id="path117" />
  <path
     stroke="#000000"
     stroke-width="22"
     fill="none"
     transform="matrix(0.05 0 0 0.05 -10 -11)"
     d="M 3753.83,5564.4 L 3695.51,5564.4 "
     id="path118" />
  <path
     stroke="#000000"
     stroke-width="22"
     fill="none"
     transform="matrix(0.05 0 0 0.05 -10 -11)"
     d="M 3695.51,5564.4 L 3695.51,4763.6 "
     id="path119" />
  <path
     stroke="#000000"
     stroke-width="22"
     fill="none"
     transform="matrix(0.05 0 0 0.05 -10 -11)"
     d="M 3695.51,4763.6 L 3753.83,4763.6 "
     id="path120" />
  <path
     stroke="none"
     fill="#000000"
     transform="matrix(0.05 0 0 0.05 -10 -11)"
     d="M 4106.91,4241.64 L 4106.91,4714.14 L 4084.91,4714.14 L 4084.91,4241.64 Z "
     id="path121" />
  <path
     stroke="none"
     fill="#000000"
     transform="matrix(0.05 0 0 0.05 -10 -11)"
     d="M 4095.91,4048.6 C 4095.91,4048.6 4152.35,4270.36 4152.35,4270.36 C 4152.35,4270.36 4120.6,4242.64 4095.91,4242.64 C 4070.78,4242.64 4038.47,4270.36 4038.47,4270.36 C 4038.47,4270.36 4095.91,4048.6 4095.91,4048.6 C 4095.91,4048.6 4095.91,4048.6 4095.91,4048.6 "
     id="path122" />
  <path
     stroke="#000000"
     stroke-width="1"
     fill="none"
     transform="matrix(0.05 0 0 0.05 -10 -11)"
     d="M 4095.91,4048.6 C 4095.91,4048.6 4152.35,4270.36 4152.35,4270.36 C 4152.35,4270.36 4120.6,4242.64 4095.91,4242.64 C 4070.78,4242.64 4038.47,4270.36 4038.47,4270.36 C 4038.47,4270.36 4095.91,4048.6 4095.91,4048.6 C 4095.91,4048.6 4095.91,4048.6 4095.91,4048.6 "
     id="path123" />
  <path
     stroke="none"
     fill="#000000"
     transform="matrix(0.05 0 0 0.05 -10 -11)"
     d="M 4109.58,3793.73 L 4109.2,3781.64 L 4133.58,3785.68 L 4281.56,3865.5 L 4270.72,3884.85 L 4109.58,3793.73 Z "
     id="path124" />
  <text
     x="0"
     y="0"
     stroke="none"
     fill="#0000ff"
     transform="matrix(0.05 0 0 0.05 205.275 188.641)"
     font-style="normal"
     font-weight="bold"
     font-size="180px"
     font-family="Helvetica"
     id="text124">
H</text>
  <path
     stroke="none"
     fill="#000000"
     transform="matrix(0.05 0 0 0.05 -10 -11)"
     d="M 3855.35,3941 L 3844.26,3921.79 L 4098.79,3775.34 L 4109.2,3781.64 L 4109.58,3793.73 L 3855.35,3941 Z "
     id="path125" />
  <text
     x="0"
     y="0"
     stroke="none"
     fill="#000000"
     transform="matrix(0.05 0 0 0.05 192.21 166.345)"
     font-style="normal"
     font-weight="bold"
     font-size="180px"
     font-family="Helvetica"
     id="text125">
N</text>
  <path
     stroke="none"
     fill="#000000"
     transform="matrix(0.05 0 0 0.05 -10 -11)"
     d="M 4119,3769.73 L 4109.2,3781.64 L 4098.79,3775.34 L 4098.11,3576.58 L 4120.29,3576.58 L 4119,3769.73 Z "
     id="path126" />
  <text
     x="0"
     y="0"
     stroke="none"
     fill="#0000ff"
     transform="matrix(0.05 0 0 0.05 203.995 157.103)"
     font-style="normal"
     font-weight="bold"
     font-size="180px"
     font-family="Helvetica"
     id="text126">
H</text>
  <path
     stroke="none"
     fill="#000000"
     transform="matrix(0.05 0 0 0.05 -10 -11)"
     d="M 4204.77,3421.27 L 4191.08,3403.82 L 4250.59,3357.16 L 4264.27,3374.61 L 4204.77,3421.27 Z "
     id="path127" />
  <text
     x="0"
     y="0"
     stroke="none"
     fill="#0000ff"
     transform="matrix(0.05 0 0 0.05 206.911 178.465)"
     font-style="normal"
     font-weight="bold"
     font-size="180px"
     font-family="Helvetica"
     id="text127">
H</text>
  <path
     stroke="none"
     fill="#000000"
     transform="matrix(0.05 0 0 0.05 -10 -11)"
     d="M 4133.58,3785.68 L 4109.2,3781.64 L 4119,3769.73 L 4311.1,3731.13 L 4315.33,3752.89 L 4133.58,3785.68 Z "
     id="path128" />
  <text
     x="0"
     y="0"
     stroke="none"
     fill="#0000ff"
     transform="matrix(0.05 0 0 0.05 207.146 167.443)"
     font-style="normal"
     font-weight="bold"
     font-size="180px"
     font-family="Helvetica"
     id="text128">
H</text>
  <path
     stroke="none"
     fill="#000000"
     transform="matrix(0.05 0 0 0.05 -10 -11)"
     d="M 4191.53,3499.29 L 4193.16,3477.17 L 4326.39,3486.97 L 4324.76,3509.09 L 4191.53,3499.29 Z "
     id="path129" />
  <text
     x="0"
     y="0"
     stroke="none"
     fill="#999999"
     transform="matrix(0.05 0 0 0.05 200.906 211.101)"
     font-style="normal"
     font-weight="bold"
     font-size="200px"
     font-family="Helvetica"
     id="text129">
H</text>
  <text
     x="0"
     y="0"
     stroke="none"
     fill="#999999"
     transform="matrix(0.05 0 0 0.05 208.128 213.401)"
     font-style="normal"
     font-weight="bold"
     font-size="150px"
     font-family="Helvetica"
     id="text130">
2</text>
  <text
     x="0"
     y="0"
     stroke="none"
     fill="#999999"
     transform="matrix(0.05 0 0 0.05 212.299 211.101)"
     font-style="normal"
     font-weight="bold"
     font-size="200px"
     font-family="Helvetica"
     id="text131">
, </text>
  <text
     x="0"
     y="0"
     stroke="none"
     fill="#999999"
     transform="matrix(0.05 0 0 0.05 217.856 211.101)"
     font-style="normal"
     font-weight="bold"
     font-size="200px"
     font-family="Helvetica"
     id="text132">
Pd</text>
  <path
     stroke="none"
     fill="#000000"
     transform="matrix(0.05 0 0 0.05 -10 -11)"
     d="M 5790.21,5320.8 L 5790.15,5295.12 L 5960.82,5394.54 L 5949.73,5413.75 L 5790.21,5320.8 Z "
     id="path132" />
  <text
     x="0"
     y="0"
     stroke="none"
     fill="#0000ff"
     transform="matrix(0.05 0 0 0.05 289.215 265.16)"
     font-style="normal"
     font-weight="bold"
     font-size="180px"
     font-family="Helvetica"
     id="text133">
H</text>
  <path
     stroke="none"
     fill="#000000"
     transform="matrix(0.05 0 0 0.05 -10 -11)"
     d="M 5536.05,5468.03 L 5524.97,5448.82 L 5790.15,5295.12 L 5790.21,5320.8 L 5536.05,5468.03 Z "
     id="path133" />
  <text
     x="0"
     y="0"
     stroke="none"
     fill="#000000"
     transform="matrix(0.05 0 0 0.05 276.245 242.696)"
     font-style="normal"
     font-weight="bold"
     font-size="180px"
     font-family="Helvetica"
     id="text134">
N</text>
  <path
     stroke="none"
     fill="#000000"
     transform="matrix(0.05 0 0 0.05 -10 -11)"
     d="M 5773.27,5324.67 L 5751.09,5324.67 L 5751.09,5103.61 L 5773.27,5103.61 L 5773.27,5324.67 Z "
     id="path134" />
  <path
     stroke="none"
     fill="#000000"
     transform="matrix(0.05 0 0 0.05 -10 -11)"
     d="M 5828.71,5324.67 L 5806.53,5324.67 L 5806.53,5103.61 L 5828.71,5103.61 L 5828.71,5324.67 Z "
     id="path135" />
  <text
     x="0"
     y="0"
     stroke="none"
     fill="#0000ff"
     transform="matrix(0.05 0 0 0.05 291.882 237.085)"
     font-style="normal"
     font-weight="bold"
     font-size="180px"
     font-family="Helvetica"
     id="text135">
[Al]</text>
  <path
     stroke="none"
     fill="#000000"
     transform="matrix(0.05 0 0 0.05 -10 -11)"
     d="M 5890.74,4980.35 L 5882.43,4959.79 L 6000.53,4912.06 L 6008.84,4932.62 L 5890.74,4980.35 Z "
     id="path136" />
  <path
     stroke="#000000"
     stroke-width="22"
     fill="none"
     transform="matrix(0.05 0 0 0.05 -10 -11)"
     d="M 6508.29,4774.83 L 6566.62,4774.83 "
     id="path137" />
  <path
     stroke="#000000"
     stroke-width="22"
     fill="none"
     transform="matrix(0.05 0 0 0.05 -10 -11)"
     d="M 6566.62,4774.83 L 6566.62,5575.63 "
     id="path138" />
  <path
     stroke="#000000"
     stroke-width="22"
     fill="none"
     transform="matrix(0.05 0 0 0.05 -10 -11)"
     d="M 6566.62,5575.63 L 6508.29,5575.63 "
     id="path139" />
  <path
     stroke="#000000"
     stroke-width="22"
     fill="none"
     transform="matrix(0.05 0 0 0.05 -10 -11)"
     d="M 5415.78,5575.63 L 5357.46,5575.63 "
     id="path140" />
  <path
     stroke="#000000"
     stroke-width="22"
     fill="none"
     transform="matrix(0.05 0 0 0.05 -10 -11)"
     d="M 5357.46,5575.63 L 5357.46,4774.83 "
     id="path141" />
  <path
     stroke="#000000"
     stroke-width="22"
     fill="none"
     transform="matrix(0.05 0 0 0.05 -10 -11)"
     d="M 5357.46,4774.83 L 5415.78,4774.83 "
     id="path142" />
  <path
     stroke="none"
     fill="#000000"
     transform="matrix(0.05 0 0 0.05 -10 -11)"
     d="M 5791.01,4240.9 L 5791.01,4740.64 L 5769.01,4740.64 L 5769.01,4240.9 Z "
     id="path143" />
  <path
     stroke="none"
     fill="#000000"
     transform="matrix(0.05 0 0 0.05 -10 -11)"
     d="M 5780.01,4047.86 C 5780.01,4047.86 5836.44,4269.62 5836.44,4269.62 C 5836.44,4269.62 5804.7,4241.9 5780.01,4241.9 C 5754.88,4241.9 5722.57,4269.62 5722.57,4269.62 C 5722.57,4269.62 5780.01,4047.86 5780.01,4047.86 C 5780.01,4047.86 5780.01,4047.86 5780.01,4047.86 "
     id="path144" />
  <path
     stroke="#000000"
     stroke-width="1"
     fill="none"
     transform="matrix(0.05 0 0 0.05 -10 -11)"
     d="M 5780.01,4047.86 C 5780.01,4047.86 5836.44,4269.62 5836.44,4269.62 C 5836.44,4269.62 5804.7,4241.9 5780.01,4241.9 C 5754.88,4241.9 5722.57,4269.62 5722.57,4269.62 C 5722.57,4269.62 5780.01,4047.86 5780.01,4047.86 C 5780.01,4047.86 5780.01,4047.86 5780.01,4047.86 "
     id="path145" />
  <path
     stroke="none"
     fill="#000000"
     transform="matrix(0.05 0 0 0.05 -10 -11)"
     d="M 5802.74,3810.47 L 5802.36,3798.37 L 5826.74,3802.41 L 5974.72,3882.24 L 5963.88,3901.58 L 5802.74,3810.47 Z "
     id="path146" />
  <text
     x="0"
     y="0"
     stroke="none"
     fill="#0000ff"
     transform="matrix(0.05 0 0 0.05 289.933 189.478)"
     font-style="normal"
     font-weight="bold"
     font-size="180px"
     font-family="Helvetica"
     id="text146">
H</text>
  <path
     stroke="none"
     fill="#000000"
     transform="matrix(0.05 0 0 0.05 -10 -11)"
     d="M 5548.51,3957.73 L 5537.42,3938.53 L 5791.95,3792.08 L 5802.36,3798.37 L 5802.74,3810.47 L 5548.51,3957.73 Z "
     id="path147" />
  <text
     x="0"
     y="0"
     stroke="none"
     fill="#000000"
     transform="matrix(0.05 0 0 0.05 276.868 167.181)"
     font-style="normal"
     font-weight="bold"
     font-size="180px"
     font-family="Helvetica"
     id="text147">
N</text>
  <path
     stroke="none"
     fill="#000000"
     transform="matrix(0.05 0 0 0.05 -10 -11)"
     d="M 5812.16,3786.47 L 5802.36,3798.37 L 5791.95,3792.08 L 5791.27,3593.32 L 5813.45,3593.32 L 5812.16,3786.47 Z "
     id="path148" />
  <text
     x="0"
     y="0"
     stroke="none"
     fill="#0000ff"
     transform="matrix(0.05 0 0 0.05 290.404 157.94)"
     font-style="normal"
     font-weight="bold"
     font-size="180px"
     font-family="Helvetica"
     id="text148">
[Al]</text>
  <path
     stroke="none"
     fill="#000000"
     transform="matrix(0.05 0 0 0.05 -10 -11)"
     d="M 5897.93,3438 L 5884.24,3420.55 L 5962.38,3359.28 L 5976.06,3376.73 L 5897.93,3438 Z "
     id="path149" />
  <text
     x="0"
     y="0"
     stroke="none"
     fill="#0000ff"
     transform="matrix(0.05 0 0 0.05 291.569 179.302)"
     font-style="normal"
     font-weight="bold"
     font-size="180px"
     font-family="Helvetica"
     id="text149">
H</text>
  <path
     stroke="none"
     fill="#000000"
     transform="matrix(0.05 0 0 0.05 -10 -11)"
     d="M 5826.74,3802.41 L 5802.36,3798.37 L 5812.16,3786.47 L 6004.26,3747.86 L 6008.49,3769.63 L 5826.74,3802.41 Z "
     id="path150" />
  <text
     x="0"
     y="0"
     stroke="none"
     fill="#0000ff"
     transform="matrix(0.05 0 0 0.05 293.555 168.28)"
     font-style="normal"
     font-weight="bold"
     font-size="180px"
     font-family="Helvetica"
     id="text150">
[Al]</text>
  <path
     stroke="none"
     fill="#000000"
     transform="matrix(0.05 0 0 0.05 -10 -11)"
     d="M 5884.69,3516.02 L 5886.32,3493.91 L 6052.11,3506.1 L 6050.49,3528.22 L 5884.69,3516.02 Z "
     id="path151" />
  <path
     stroke="none"
     fill="#000000"
     transform="matrix(0.05 0 0 0.05 -10 -11)"
     d="M 5780.3,2856.11 L 5780.3,3289.17 L 5758.3,3289.17 L 5758.3,2856.11 Z "
     id="path152" />
  <path
     stroke="none"
     fill="#000000"
     transform="matrix(0.05 0 0 0.05 -10 -11)"
     d="M 5769.3,2663.07 C 5769.3,2663.07 5825.73,2884.83 5825.73,2884.83 C 5825.73,2884.83 5793.99,2857.11 5769.3,2857.11 C 5744.17,2857.11 5711.86,2884.83 5711.86,2884.83 C 5711.86,2884.83 5769.3,2663.07 5769.3,2663.07 C 5769.3,2663.07 5769.3,2663.07 5769.3,2663.07 "
     id="path153" />
  <path
     stroke="#000000"
     stroke-width="1"
     fill="none"
     transform="matrix(0.05 0 0 0.05 -10 -11)"
     d="M 5769.3,2663.07 C 5769.3,2663.07 5825.73,2884.83 5825.73,2884.83 C 5825.73,2884.83 5793.99,2857.11 5769.3,2857.11 C 5744.17,2857.11 5711.86,2884.83 5711.86,2884.83 C 5711.86,2884.83 5769.3,2663.07 5769.3,2663.07 C 5769.3,2663.07 5769.3,2663.07 5769.3,2663.07 "
     id="path154" />
  <path
     stroke="none"
     fill="#000000"
     transform="matrix(0.05 0 0 0.05 -10 -11)"
     d="M 5778.34,2416.34 L 5777.96,2404.24 L 5802.35,2408.28 L 5950.33,2488.11 L 5939.49,2507.45 L 5778.34,2416.34 Z "
     id="path155" />
  <text
     x="0"
     y="0"
     stroke="none"
     fill="#0000ff"
     transform="matrix(0.05 0 0 0.05 288.713 119.771)"
     font-style="normal"
     font-weight="bold"
     font-size="180px"
     font-family="Helvetica"
     id="text155">
H</text>
  <path
     stroke="none"
     fill="#000000"
     transform="matrix(0.05 0 0 0.05 -10 -11)"
     d="M 5524.11,2563.61 L 5513.03,2544.4 L 5767.55,2397.95 L 5777.96,2404.24 L 5778.34,2416.34 L 5524.11,2563.61 Z "
     id="path156" />
  <text
     x="0"
     y="0"
     stroke="none"
     fill="#000000"
     transform="matrix(0.05 0 0 0.05 275.648 97.475)"
     font-style="normal"
     font-weight="bold"
     font-size="180px"
     font-family="Helvetica"
     id="text156">
N</text>
  <path
     stroke="none"
     fill="#000000"
     transform="matrix(0.05 0 0 0.05 -10 -11)"
     d="M 5787.76,2392.34 L 5777.96,2404.24 L 5767.55,2397.95 L 5766.87,2199.19 L 5789.05,2199.19 L 5787.76,2392.34 Z "
     id="path157" />
  <text
     x="0"
     y="0"
     stroke="none"
     fill="#0000ff"
     transform="matrix(0.05 0 0 0.05 287.433 88.2339)"
     font-style="normal"
     font-weight="bold"
     font-size="180px"
     font-family="Helvetica"
     id="text157">
H</text>
  <path
     stroke="none"
     fill="#000000"
     transform="matrix(0.05 0 0 0.05 -10 -11)"
     d="M 5873.53,2043.88 L 5859.85,2026.42 L 5919.35,1979.76 L 5933.03,1997.22 L 5873.53,2043.88 Z "
     id="path158" />
  <text
     x="0"
     y="0"
     stroke="none"
     fill="#0000ff"
     transform="matrix(0.05 0 0 0.05 290.35 109.596)"
     font-style="normal"
     font-weight="bold"
     font-size="180px"
     font-family="Helvetica"
     id="text158">
H</text>
  <path
     stroke="none"
     fill="#000000"
     transform="matrix(0.05 0 0 0.05 -10 -11)"
     d="M 5802.35,2408.28 L 5777.96,2404.24 L 5787.76,2392.34 L 5979.86,2353.73 L 5984.09,2375.5 L 5802.35,2408.28 Z "
     id="path159" />
  <text
     x="0"
     y="0"
     stroke="none"
     fill="#0000ff"
     transform="matrix(0.05 0 0 0.05 290.584 98.5735)"
     font-style="normal"
     font-weight="bold"
     font-size="180px"
     font-family="Helvetica"
     id="text159">
H</text>
  <path
     stroke="none"
     fill="#000000"
     transform="matrix(0.05 0 0 0.05 -10 -11)"
     d="M 5860.3,2121.9 L 5861.92,2099.78 L 5995.15,2109.58 L 5993.52,2131.7 L 5860.3,2121.9 Z "
     id="path160" />
  <path
     stroke="#000000"
     stroke-width="22"
     fill="none"
     transform="matrix(0.05 0 0 0.05 -10 -11)"
     d="M 6508.29,3238.51 L 6566.62,3238.51 "
     id="path161" />
  <path
     stroke="#000000"
     stroke-width="22"
     fill="none"
     transform="matrix(0.05 0 0 0.05 -10 -11)"
     d="M 6566.62,3238.51 L 6566.62,4039.31 "
     id="path162" />
  <path
     stroke="#000000"
     stroke-width="22"
     fill="none"
     transform="matrix(0.05 0 0 0.05 -10 -11)"
     d="M 6566.62,4039.31 L 6508.29,4039.31 "
     id="path163" />
  <path
     stroke="#000000"
     stroke-width="22"
     fill="none"
     transform="matrix(0.05 0 0 0.05 -10 -11)"
     d="M 5415.78,4039.31 L 5357.46,4039.31 "
     id="path164" />
  <path
     stroke="#000000"
     stroke-width="22"
     fill="none"
     transform="matrix(0.05 0 0 0.05 -10 -11)"
     d="M 5357.46,4039.31 L 5357.46,3238.51 "
     id="path165" />
  <path
     stroke="#000000"
     stroke-width="22"
     fill="none"
     transform="matrix(0.05 0 0 0.05 -10 -11)"
     d="M 5357.46,3238.51 L 5415.78,3238.51 "
     id="path166" />
  <text
     x="0"
     y="0"
     stroke="none"
     fill="#000000"
     transform="matrix(0.05 0 0 0.05 282.377 141.214)"
     font-style="normal"
     font-weight="bold"
     font-size="200px"
     font-family="Helvetica"
     id="text166">
H</text>
  <text
     x="0"
     y="0"
     stroke="none"
     fill="#000000"
     transform="matrix(0.05 0 0 0.05 289.599 143.514)"
     font-style="normal"
     font-weight="bold"
     font-size="150px"
     font-family="Helvetica"
     id="text167">
3</text>
  <text
     x="0"
     y="0"
     stroke="none"
     fill="#000000"
     transform="matrix(0.05 0 0 0.05 293.77 141.214)"
     font-style="normal"
     font-weight="bold"
     font-size="200px"
     font-family="Helvetica"
     id="text168">
O</text>
  <text
     x="0"
     y="0"
     stroke="none"
     fill="#000000"
     transform="matrix(0.05 0 0 0.05 301.548 137.615)"
     font-style="normal"
     font-weight="bold"
     font-size="150px"
     font-family="Helvetica"
     id="text169">
+</text>
  <text
     x="0"
     y="0"
     stroke="none"
     fill="#999999"
     transform="matrix(0.05 0 0 0.05 284.079 215.782)"
     font-style="normal"
     font-weight="bold"
     font-size="200px"
     font-family="Helvetica"
     id="text170">
LiAlH</text>
  <text
     x="0"
     y="0"
     stroke="none"
     fill="#999999"
     transform="matrix(0.05 0 0 0.05 310.187 218.082)"
     font-style="normal"
     font-weight="bold"
     font-size="150px"
     font-family="Helvetica"
     id="text171">
4</text>
  <text
     x="0"
     y="0"
     stroke="none"
     fill="#000000"
     transform="matrix(0.05 0 0 0.05 169.938 74.9919)"
     font-style="italic"
     font-weight="normal"
     font-size="160px"
     font-family="Helvetica Oblique"
     id="text172">
adds twice</text>
  <text
     x="0"
     y="0"
     stroke="none"
     fill="#000000"
     transform="matrix(0.05 0 0 0.05 343.175 130.866)"
     font-style="italic"
     font-weight="normal"
     font-size="160px"
     font-family="Helvetica Oblique"
     id="text174">
adds once</text>
  <path
     stroke="#000000"
     stroke-width="22"
     fill="none"
     transform="matrix(0.05 0 0 0.05 -10 -11)"
     stroke-dasharray="53"
     d="M 7018.78,6147.86 C 7018.78,6147.86 7018.78,3079.44 7018.78,3079.44 C 7018.78,3006 7078.39,2946.38 7151.83,2946.38 C 7151.83,2946.38 10588.6,2946.38 10588.6,2946.38 C 10662,2946.38 10721.6,3006 10721.6,3079.44 C 10721.6,3079.44 10721.6,6147.86 10721.6,6147.86 C 10721.6,6221.3 10662,6280.92 10588.6,6280.92 C 10588.6,6280.92 7151.83,6280.92 7151.83,6280.92 C 7078.39,6280.92 7018.78,6221.3 7018.78,6147.86 "
     id="path175" />
  <path
     stroke="#000000"
     stroke-width="22"
     fill="none"
     transform="matrix(0.05 0 0 0.05 -10 -11)"
     stroke-dasharray="53"
     d="M 3590.54,6157.33 C 3590.54,6157.33 3590.54,1934.54 3590.54,1934.54 C 3590.54,1861.1 3650.15,1801.48 3723.6,1801.48 C 3723.6,1801.48 6734.2,1801.48 6734.2,1801.48 C 6807.64,1801.48 6867.25,1861.1 6867.25,1934.54 C 6867.25,1934.54 6867.25,6157.33 6867.25,6157.33 C 6867.25,6230.77 6807.64,6290.39 6734.2,6290.39 C 6734.2,6290.39 3723.6,6290.39 3723.6,6290.39 C 3650.15,6290.39 3590.54,6230.77 3590.54,6157.33 "
     id="path176" />
  <text
     x="0"
     y="0"
     stroke="none"
     fill="#000000"
     transform="matrix(0.05 0 0 0.05 433.727 365.384)"
     font-style="italic"
     font-weight="normal"
     font-size="160px"
     font-family="Helvetica Oblique"
     id="text176">
hydrolysis of CN</text>
  <path
     stroke="none"
     fill="#000000"
     transform="matrix(0.05 0 0 0.05 -10 -11)"
     d="M 10483.5,7308.59 L 8409.64,7308.59 L 8409.64,7286.59 L 10483.5,7286.59 Z "
     id="path178" />
  <path
     stroke="none"
     fill="#000000"
     transform="matrix(0.05 0 0 0.05 -10 -11)"
     d="M 10676.5,7297.59 C 10676.5,7297.59 10454.8,7354.03 10454.8,7354.03 C 10454.8,7354.03 10482.5,7322.28 10482.5,7297.59 C 10482.5,7272.46 10454.8,7240.15 10454.8,7240.15 C 10454.8,7240.15 10676.5,7297.59 10676.5,7297.59 C 10676.5,7297.59 10676.5,7297.59 10676.5,7297.59 "
     id="path179" />
  <path
     stroke="#000000"
     stroke-width="1"
     fill="none"
     transform="matrix(0.05 0 0 0.05 -10 -11)"
     d="M 10676.5,7297.59 C 10676.5,7297.59 10454.8,7354.03 10454.8,7354.03 C 10454.8,7354.03 10482.5,7322.28 10482.5,7297.59 C 10482.5,7272.46 10454.8,7240.15 10454.8,7240.15 C 10454.8,7240.15 10676.5,7297.59 10676.5,7297.59 C 10676.5,7297.59 10676.5,7297.59 10676.5,7297.59 "
     id="path180" />
  <path
     stroke="none"
     fill="#000000"
     transform="matrix(0.05 0 0 0.05 -10 -11)"
     d="M 12919,7245.49 L 11741.1,7245.49 L 11741.1,7223.49 L 12919,7223.49 Z "
     id="path181" />
  <path
     stroke="none"
     fill="#000000"
     transform="matrix(0.05 0 0 0.05 -10 -11)"
     d="M 13112,7234.49 C 13112,7234.49 12890.2,7290.93 12890.2,7290.93 C 12890.2,7290.93 12918,7259.18 12918,7234.49 C 12918,7209.36 12890.2,7177.05 12890.2,7177.05 C 12890.2,7177.05 13112,7234.49 13112,7234.49 C 13112,7234.49 13112,7234.49 13112,7234.49 "
     id="path182" />
  <path
     stroke="#000000"
     stroke-width="1"
     fill="none"
     transform="matrix(0.05 0 0 0.05 -10 -11)"
     d="M 13112,7234.49 C 13112,7234.49 12890.2,7290.93 12890.2,7290.93 C 12890.2,7290.93 12918,7259.18 12918,7234.49 C 12918,7209.36 12890.2,7177.05 12890.2,7177.05 C 12890.2,7177.05 13112,7234.49 13112,7234.49 C 13112,7234.49 13112,7234.49 13112,7234.49 "
     id="path183" />
  <text
     x="0"
     y="0"
     stroke="none"
     fill="#000000"
     transform="matrix(0.05 0 0 0.05 579.35 334.689)"
     font-style="normal"
     font-weight="bold"
     font-size="200px"
     font-family="Helvetica"
     id="text183">
H</text>
  <text
     x="0"
     y="0"
     stroke="none"
     fill="#000000"
     transform="matrix(0.05 0 0 0.05 586.572 336.989)"
     font-style="normal"
     font-weight="bold"
     font-size="150px"
     font-family="Helvetica"
     id="text184">
3</text>
  <text
     x="0"
     y="0"
     stroke="none"
     fill="#000000"
     transform="matrix(0.05 0 0 0.05 590.743 334.689)"
     font-style="normal"
     font-weight="bold"
     font-size="200px"
     font-family="Helvetica"
     id="text185">
O</text>
  <text
     x="0"
     y="0"
     stroke="none"
     fill="#000000"
     transform="matrix(0.05 0 0 0.05 598.521 331.09)"
     font-style="normal"
     font-weight="bold"
     font-size="150px"
     font-family="Helvetica"
     id="text186">
+</text>
  <text
     x="0"
     y="0"
     stroke="none"
     fill="#000000"
     transform="matrix(0.05 0 0 0.05 579.35 345.722)"
     font-style="normal"
     font-weight="bold"
     font-size="200px"
     font-family="Helvetica"
     id="text187">
or </text>
  <text
     x="0"
     y="0"
     stroke="none"
     fill="#000000"
     transform="matrix(0.05 0 0 0.05 592.128 345.722)"
     font-style="normal"
     font-weight="bold"
     font-size="200px"
     font-family="Helvetica"
     id="text188">
OH</text>
  <text
     x="0"
     y="0"
     stroke="none"
     fill="#000000"
     transform="matrix(0.05 0 0 0.05 607.128 342.124)"
     font-style="normal"
     font-weight="bold"
     font-size="150px"
     font-family="Helvetica"
     id="text189">
-</text>
  <text
     x="0"
     y="0"
     stroke="none"
     fill="#000000"
     transform="matrix(0.05 0 0 0.05 613.097 338.701)"
     font-style="normal"
     font-weight="bold"
     font-size="160px"
     font-family="Helvetica"
     id="text190">
heat</text>
  <path
     stroke="none"
     fill="#ffffff"
     opacity="0"
     onclick="window.location.href = 'acids.svg'"
     transform="matrix(0.05 0 0 0.05 -10 -11)"
     d="M 13129.2,7887.6 C 13129.2,7887.6 13129.2,6777.8 13129.2,6777.8 C 13129.2,6777.8 14085.8,6777.8 14085.8,6777.8 C 14085.8,6777.8 14085.8,7887.6 14085.8,7887.6 C 14085.8,7887.6 13129.2,7887.6 13129.2,7887.6 "
     id="path1"
     inkscape:label="l-acids" />
  <path
     stroke="none"
     fill="#ffffff"
     opacity="0"
     onclick="window.location.href = 'amides.svg'"
     transform="matrix(0.05 0 0 0.05 -10 -11)"
     d="M 11680.2,7812 C 11680.2,7812 11680.2,6626.6 11680.2,6626.6 C 11680.2,6626.6 10772,6626.6 10772,6626.6 C 10772,6626.6 10772,7812 10772,7812 C 10772,7812 11680.2,7812 11680.2,7812 "
     id="path3"
     inkscape:label="l-amides" />
  <path
     stroke="none"
     fill="#ffffff"
     opacity="0"
     onclick="window.location.href = 'ketones.svg'"
     transform="matrix(0.05 0 0 0.05 -10 -11)"
     d="M 10395,2998.8 C 10395,2998.8 10395,3766.4 10395,3766.4 C 10395,3766.4 9335.6,3766.4 9335.6,3766.4 C 9335.6,3766.4 9335.6,2998.8 9335.6,2998.8 C 9335.6,2998.8 10395,2998.8 10395,2998.8 "
     id="path5"
     inkscape:label="l-ketones" />
  <path
     stroke="none"
     fill="#ffffff"
     opacity="0"
     onclick="window.location.href = 'ketones.svg'"
     transform="matrix(0.05 0 0 0.05 -10 -11)"
     d="M 7497,2986.2 C 7497,2986.2 7497,3690.8 7497,3690.8 C 7497,3690.8 8541.8,3690.8 8541.8,3690.8 C 8541.8,3690.8 8541.8,2986.2 8541.8,2986.2 C 8541.8,2986.2 7497,2986.2 7497,2986.2 "
     id="path7"
     inkscape:label="l-aldehydes" />
  <path
     stroke="none"
     fill="#ffffff"
     opacity="0"
     onclick="window.location.href = 'amines.svg'"
     transform="matrix(0.05 0 0 0.05 -10 -11)"
     d="M 3742.2,4006.8 C 3742.2,4006.8 3742.2,2960 3742.2,2960 C 3742.2,2960 4585.4,2960 4585.4,2960 C 4585.4,2960 4585.4,4006.8 4585.4,4006.8 C 4585.4,4006.8 3742.2,4006.8 3742.2,4006.8 "
     id="path9"
     inkscape:label="l-amines" />
  <path
     stroke="none"
     fill="#ffffff"
     opacity="0"
     onclick="window.location.href = 'amines.svg'"
     transform="matrix(0.05 0 0 0.05 -10 -11)"
     d="M 6312.6,1827 C 6312.6,1827 6312.6,2632.4 6312.6,2632.4 C 6312.6,2632.4 5366.6,2632.4 5366.6,2632.4 C 5366.6,2632.4 5366.6,1827 5366.6,1827 C 5366.6,1827 6312.6,1827 6312.6,1827 "
     id="path11"
     inkscape:label="l-amines" />
  <path
     stroke="none"
     fill="#ffffff"
     opacity="0"
     onclick="window.location.href = 'tonitriles.svg'"
     d="m 409.43191,332.61385 c 0,0 0,38.70621 0,38.70621 0,0 -112.19744,0 -112.19744,0 0,0 0,-38.70621 0,-38.70621 0,0 112.19744,0 112.19744,0"
     id="path11-2"
     inkscape:label="l-tonitriles"
     style="opacity:0;stroke-width:0.0754971" />
  <path
     stroke="none"
     fill="#ffffff"
     opacity="0"
     onclick="window.location.href = 'supplement.svg'"
     d="m 237.25427,199.12759 c 0,0 0,16.8131 0,16.8131 0,0 -37.13534,0 -37.13534,0 0,0 0,-16.8131 0,-16.8131 0,0 37.13534,0 37.13534,0"
     id="path11-2-9"
     inkscape:label="l-supplement"
     style="opacity:0;stroke-width:0.0286264" />
  <path
     stroke="none"
     fill="#ffffff"
     opacity="0"
     onclick="window.location.href = 'supplement.svg'"
     d="m 316.10693,203.90948 c 0,0 0,16.8131 0,16.8131 0,0 -37.13534,0 -37.13534,0 0,0 0,-16.8131 0,-16.8131 0,0 37.13534,0 37.13534,0"
     id="path11-2-9-5"
     inkscape:label="l-supplement"
     style="opacity:0;stroke-width:0.0286264" />
  <path
     stroke="none"
     fill="#ffffff"
     opacity="0"
     onclick="window.location.href = 'supplement.svg'"
     d="m 308.93361,129.3741 c 0,0 0,16.8131 0,16.8131 0,0 -27.75258,0 -27.75258,0 0,0 0,-16.8131 0,-16.8131 0,0 27.75258,0 27.75258,0"
     id="path11-2-9-1"
     inkscape:label="l-supplement"
     style="opacity:0;stroke-width:0.0247471" />
  <path
     stroke="none"
     fill="#ffffff"
     opacity="0"
     onclick="window.location.href = 'supplement.svg'"
     d="m 230.79736,284.42849 c 0,0 0,16.8131 0,16.8131 0,0 -37.13534,0 -37.13534,0 0,0 0,-16.8131 0,-16.8131 0,0 37.13534,0 37.13534,0"
     id="path11-2-9-17"
     inkscape:label="l-supplement"
     style="opacity:0;stroke-width:0.0286264" />
  <path
     stroke="none"
     fill="#ffffff"
     opacity="0"
     onclick="window.location.href = 'supplement.svg'"
     d="m 316.01208,285.12759 c 0,0 0,16.8131 0,16.8131 0,0 -34.00775,0 -34.00775,0 0,0 0,-16.8131 0,-16.8131 0,0 34.00775,0 34.00775,0"
     id="path11-2-9-6"
     inkscape:label="l-supplement"
     style="opacity:0;stroke-width:0.0273944" />
  <path
     stroke="none"
     fill="#ffffff"
     opacity="0"
     onclick="window.location.href = 'supplement.svg'"
     d="m 419.09394,191.69233 c 0,0 0,16.8131 0,16.8131 0,0 -32.44396,0 -32.44396,0 0,0 0,-16.8131 0,-16.8131 0,0 32.44396,0 32.44396,0"
     id="path11-2-9-7"
     inkscape:label="l-supplement"
     style="opacity:0;stroke-width:0.0267572" />
  <path
     stroke="none"
     fill="#ffffff"
     opacity="0"
     onclick="window.location.href = 'supplement.svg'"
     d="m 380.25859,273.29658 c 0,0 0,27.75966 0,27.75966 0,0 -38.69913,0 -38.69913,0 0,0 0,-27.75966 0,-27.75966 0,0 38.69913,0 38.69913,0"
     id="path11-2-9-9"
     inkscape:label="l-supplement"
     style="opacity:0;stroke-width:0.0375497" />
  <path
     stroke="none"
     fill="#ffffff"
     opacity="0"
     onclick="window.location.href = 'supplement.svg'"
     d="m 515.28795,193.90083 c 0,0 0,16.8131 0,16.8131 0,0 -28.53447,0 -28.53447,0 0,0 0,-16.8131 0,-16.8131 0,0 28.53447,0 28.53447,0"
     id="path11-2-9-0"
     inkscape:label="l-supplement"
     style="opacity:0;stroke-width:0.0250933" />
  <path
     stroke="none"
     fill="#ffffff"
     opacity="0"
     onclick="window.location.href = 'supplement.svg'"
     d="m 477.19649,330.17765 c 0,0 0,22.28638 0,22.28638 0,0 -53.55517,0 -53.55517,0 0,0 0,-22.28638 0,-22.28638 0,0 53.55517,0 53.55517,0"
     id="path11-2-9-55"
     inkscape:label="l-supplement"
     style="opacity:0;stroke-width:0.0395794" />
  <path
     stroke="none"
     fill="#ffffff"
     opacity="0"
     onclick="window.location.href = 'supplement.svg'"
     d="m 634.80264,324.27155 c 0,0 0,23.85017 0,23.85017 0,0 -57.46466,0 -57.46466,0 0,0 0,-23.85017 0,-23.85017 0,0 57.46466,0 57.46466,0"
     id="path11-2-9-3"
     inkscape:label="l-supplement"
     style="opacity:0;stroke-width:0.0424126" />
  <path
     stroke="none"
     fill="#ffffff"
     opacity="0"
     onclick="window.location.href = 'toorganometallics.svg'"
     d="m 519.29134,278.86903 c 0,0 0,16.8131 0,16.8131 0,0 -32.44396,0 -32.44396,0 0,0 0,-16.8131 0,-16.8131 0,0 32.44396,0 32.44396,0"
     id="path11-2-9-70"
     inkscape:label="l-x"
     style="opacity:0;stroke-width:0.0267572" />

  <g
     id="noreagents"
     onclick="window.location.href = 'nitriles-noreagents.svg'"
     transform="translate(-4.6856272,378.9067)">
    <text
       x="11.200497"
       y="54.141506"
       stroke="none"
       fill="#000000"
       font-style="normal"
       font-weight="bold"
       font-size="200px"
       font-family="Helvetica"
       id="gobacktext-7"
       style="font-style:normal;font-weight:bold;font-size:10px;font-family:Helvetica;fill:#000000;fill-opacity:0.443609;stroke:none;stroke-width:0.05"
       inkscape:label="noreagents-text"><tspan
         sodipodi:role="line"
         id="tspan2"
         x="11.200497"
         y="54.141506"
         style="font-style:normal;font-variant:normal;font-weight:bold;font-stretch:normal;font-size:8px;font-family:Helvetica;-inkscape-font-specification:'Helvetica, Bold';font-variant-ligatures:normal;font-variant-caps:normal;font-variant-numeric:normal;font-variant-east-asian:normal;fill:#000000;fill-opacity:0.5;stroke-width:0.05">reagents</tspan></text>
    <rect
       style="fill:#000000;fill-opacity:0.821053;fill-rule:evenodd;stroke:#a13033;stroke-width:0;stroke-linecap:round;stroke-miterlimit:2;stroke-dasharray:none;paint-order:markers fill stroke"
       id="rect3"
       width="31.666824"
       height="0.9773711"
       x="12.224979"
       y="51.518982"
       inkscape:label="noreagents-line" />
    <path
       stroke="none"
       fill="#999999"
       d="m 9.795,54.694678 c 0,0 0,-5.427567 0,-5.427567 0,-2.098514 1.463398,-3.801611 3.266274,-3.801611 0,0 30.608907,0 30.608907,0 1.803073,0 3.266397,1.703097 3.266397,3.801611 0,0 0,5.427567 0,5.427567 0,2.098514 -1.463324,3.801611 -3.266397,3.801611 0,0 -30.608907,0 -30.608907,0 -1.802876,0 -3.266274,-1.703097 -3.266274,-3.801611"
       id="goback-box-8"
       style="fill:#999999;fill-opacity:0.336842;stroke-width:0.0264832"
       inkscape:label="noreagents-box" />
  </g>
  <g
     id="noproducts"
     onclick="window.location.href = 'nitriles-noproducts.svg'"
     transform="translate(-4.6856272,382.9067)">
    <text
       x="11.541888"
       y="67.610527"
       stroke="none"
       fill="#000000"
       font-style="normal"
       font-weight="bold"
       font-size="200px"
       font-family="Helvetica"
       id="gobacktext-7-8"
       style="font-style:normal;font-weight:bold;font-size:10px;font-family:Helvetica;fill:#000000;fill-opacity:0.443609;stroke:none;stroke-width:0.05"
       inkscape:label="noproducts-text"><tspan
         sodipodi:role="line"
         id="tspan2-5"
         x="11.541888"
         y="67.610527"
         style="font-style:normal;font-variant:normal;font-weight:bold;font-stretch:normal;font-size:8px;font-family:Helvetica;-inkscape-font-specification:'Helvetica, Bold';font-variant-ligatures:normal;font-variant-caps:normal;font-variant-numeric:normal;font-variant-east-asian:normal;fill:#000000;fill-opacity:0.5;stroke-width:0.05">products</tspan></text>
    <rect
       style="fill:#000000;fill-opacity:0.821053;fill-rule:evenodd;stroke:#a13033;stroke-width:0;stroke-linecap:round;stroke-miterlimit:2;stroke-dasharray:none;paint-order:markers fill stroke"
       id="rect3-9"
       width="31.666824"
       height="0.9773711"
       x="12.566371"
       y="64.987999"
       inkscape:label="noproducts-line" />
    <path
       stroke="none"
       fill="#999999"
       d="m 10.136392,68.163695 c 0,0 0,-5.427567 0,-5.427567 0,-2.098514 1.463398,-3.801611 3.266274,-3.801611 0,0 30.608907,0 30.608907,0 1.803073,0 3.266397,1.703097 3.266397,3.801611 0,0 0,5.427567 0,5.427567 0,2.098514 -1.463324,3.801611 -3.266397,3.801611 0,0 -30.608907,0 -30.608907,0 -1.802876,0 -3.266274,-1.703097 -3.266274,-3.801611"
       id="goback-box-8-6"
       style="fill:#999999;fill-opacity:0.336842;stroke-width:0.0264832"
       inkscape:label="noproducts-box" />
  </g>

  <text x="822.84332" y="415.79849" stroke="none" fill="#000000" transform="matrix(0.92407999,-0.00322566,0.00377741,1.0821442,0,0)" font-style="italic" font-weight="bold" font-size="8.25806px" font-family="'Helvetica Oblique'" id="text11" style="opacity:1;fill:#00009a;fill-opacity:0.651128;stroke-width:0.0412903">chemisfun</text>
  <g id="overlay-box" style="opacity:0" transform="matrix(0.31364504,0,0,0.8007311,650.50736,385.81436)">
    <rect style="fill:#609975;fill-opacity:0.2;stroke:#609970;stroke-width:0;stroke-linecap:round;stroke-opacity:0.657143;paint-order:fill markers stroke" id="rect285" width="164.84744" height="59.583412" x="329.69489" y="23.171328" />
  </g>
  <g id="overlay" onclick="window.location.href = 'about.svg'" onmouseover="this.ownerDocument.getElementById('overlay-box').style.opacity='0.5'" onmouseout="this.ownerDocument.getElementById('overlay-box').style.opacity='0'" transform="matrix(0.76550767,-0.0030054,0.00267214,0.86098131,195.61318,22.784653)">
    <rect style="opacity:0.5;fill:#ffffff;fill-opacity:0;stroke-linecap:round;stroke-opacity:0.657143;paint-order:stroke fill markers" id="rect2" width="65.93074" height="55.035408" x="733.06049" y="445.87061" />
  </g>
  <g id="g1" transform="matrix(0.0625,0,0,0.0625,764.65732,406.62566)">
    <rect x="239.31" y="120.321" style="fill:#444242" width="33.389" height="139.98" id="rect1" />
    <rect x="256" y="120.321" style="fill:#3a3839" width="16.695" height="139.98" id="rect2-2" />
    <rect x="132.194" y="305.86301" transform="matrix(0.5,0.866,-0.866,0.5,399.932,58.9793)" style="fill:#444242" width="33.387001" height="139.967" id="rect3" />
    <rect x="293.125" y="359.13" transform="matrix(0.866,0.5,-0.5,0.866,236.5654,-131.205)" style="fill:#3a3839" width="139.967" height="33.387001" id="rect4" />
    <path style="background-color:#ffffff00;fill:#439de2;fill-opacity:1" d="m 456.843,485.07 c -9.538,0 -18.951,-2.501 -27.432,-7.398 v 0 c -12.733,-7.351 -21.842,-19.221 -25.646,-33.424 -3.805,-14.201 -1.853,-29.035 5.499,-41.769 7.351,-12.732 19.221,-21.841 33.424,-25.646 14.201,-3.806 29.034,-1.853 41.769,5.499 12.732,7.351 21.841,19.221 25.646,33.424 3.805,14.202 1.853,29.035 -5.499,41.769 -7.351,12.733 -19.221,21.842 -33.424,25.646 -4.742,1.27 -9.557,1.899 -14.337,1.899 z" id="path7-3" />
    <path style="background-color:#ffffff00;fill:#eda74a;fill-opacity:1" d="m 256.001,137.021 c -30.352,0 -55.044,-24.693 -55.044,-55.044 0,-30.351 24.693,-55.044 55.044,-55.044 30.351,0 55.044,24.693 55.044,55.044 0,30.351 -24.693,55.044 -55.044,55.044 z" id="path5-4" />
    <path style="background-color:#ffffff00;fill:#53acb1;fill-opacity:1" d="m 55.158,485.07 c -4.781,0 -9.594,-0.629 -14.336,-1.9 C 26.619,479.365 14.75,470.256 7.398,457.524 0.046,444.792 -1.906,429.957 1.899,415.755 c 3.805,-14.203 12.914,-26.072 25.646,-33.424 12.731,-7.352 27.567,-9.304 41.769,-5.499 14.203,3.805 26.072,12.914 33.424,25.646 7.352,12.732 9.304,27.567 5.499,41.769 -3.805,14.203 -12.914,26.072 -25.646,33.424 -8.481,4.897 -17.896,7.399 -27.433,7.399 z" id="path6-7" />
    <path style="fill:#f74d37" d="m 256.001,384.379 c -38.81,0 -70.384,-31.575 -70.384,-70.384 0,-38.809 31.575,-70.384 70.384,-70.384 38.809,0 70.384,31.575 70.384,70.384 0,38.809 -31.575,70.384 -70.384,70.384 z" id="path4-9" />
  </g>
</svg>
