<?xml version="1.0" encoding="UTF-8" standalone="no"?>
<svg
   width="100%"
   height="100%"
   viewBox="0 0 818 460"
   style="background-color: #ffffff00"
   version="1.1"
   id="svg319"
   sodipodi:docname="non-alkyl-halides-noproducts.svg"
   inkscape:version="1.4.2 (ebf0e940, 2025-05-08)"
   xmlns:inkscape="http://www.inkscape.org/namespaces/inkscape"
   xmlns:sodipodi="http://sodipodi.sourceforge.net/DTD/sodipodi-0.dtd"
   xmlns="http://www.w3.org/2000/svg"
   xmlns:svg="http://www.w3.org/2000/svg">
  <path
     stroke="#ffffff"
     stroke-width="1"
     fill="none"
     transform="matrix(0.05 0 0 0.05 -10 -11)"
     d="M 3398.54,8448.96 C 3398.54,8448.96 3398.54,7784.5 3398.54,7784.5 C 3398.54,7784.5 1826.9,7784.5 1826.9,7784.5 C 1826.9,7784.5 1826.9,8448.96 1826.9,8448.96 C 1826.9,8448.96 3398.54,8448.96 3398.54,8448.96 "
     id="path2" />
  <path
     stroke="#ffffff"
     stroke-width="1"
     fill="none"
     transform="matrix(0.05 0 0 0.05 -10 -11)"
     d="M 15191.9,7771.96 C 15191.9,7771.96 15191.9,8461.5 15191.9,8461.5 C 15191.9,8461.5 13539,8461.5 13539,8461.5 C 13539,8461.5 13539,7771.96 13539,7771.96 C 13539,7771.96 15191.9,7771.96 15191.9,7771.96 "
     id="path4" />
  <path
     stroke="#ffffff"
     stroke-width="1"
     fill="none"
     transform="matrix(0.05 0 0 0.05 -10 -11)"
     d="M 4089.08,7663.64 C 4089.08,7663.64 4089.08,6660.68 4089.08,6660.68 C 4089.08,6660.68 1489.4,6660.68 1489.4,6660.68 C 1489.4,6660.68 1489.4,7663.64 1489.4,7663.64 C 1489.4,7663.64 4089.08,7663.64 4089.08,7663.64 "
     id="path6" />
  <path
     stroke="#ffffff"
     stroke-width="1"
     fill="none"
     transform="matrix(0.05 0 0 0.05 -10 -11)"
     d="M 3046.5,3412.08 C 3046.5,3412.08 3046.5,3004.88 3046.5,3004.88 C 3046.5,3004.88 2138.32,3004.88 2138.32,3004.88 C 2138.32,3004.88 2138.32,3412.08 2138.32,3412.08 C 2138.32,3412.08 3046.5,3412.08 3046.5,3412.08 "
     id="path8" />
  <path
     stroke="#ffffff"
     stroke-width="1"
     fill="none"
     transform="matrix(0.05 0 0 0.05 -10 -11)"
     d="M 11387.1,7555.32 C 11387.1,7555.32 11387.1,2625.76 11387.1,2625.76 C 11387.1,2625.76 6579.44,2625.76 6579.44,2625.76 C 6579.44,2625.76 6579.44,7555.32 6579.44,7555.32 C 6579.44,7555.32 11387.1,7555.32 11387.1,7555.32 "
     id="path10" />
  <path
     stroke="#ffffff"
     stroke-width="1"
     fill="none"
     transform="matrix(0.05 0 0 0.05 -10 -11)"
     d="M 14041,2044.54 C 14041,2044.54 14041,1000.96 14041,1000.96 C 14041,1000.96 14541,1000.96 14541,1000.96 C 14541,1000.96 14541,2044.54 14541,2044.54 C 14541,2044.54 14041,2044.54 14041,2044.54 "
     id="path16" />
  <path
     stroke="#000000"
     stroke-width="22"
     fill="none"
     transform="matrix(0.05 0 0 0.05 -10 -11)"
     d="M 16494.7,9367.47 C 16494.7,9367.47 16494.7,284.602 16494.7,284.602 C 16494.7,284.602 268.683,284.602 268.683,284.602 C 268.683,284.602 268.683,9367.47 268.683,9367.47 C 268.683,9367.47 16494.7,9367.47 16494.7,9367.47 "
     id="path19" />
  <text
     x="0"
     y="0"
     stroke="none"
     fill="#000000"
     transform="matrix(0.05 0 0 0.05 11.735 21.13)"
     font-style="normal"
     font-weight="bold"
     font-size="320px"
     font-family="Helvetica"
     id="text19">
Vinylic and Aryl Halides - Reactions</text>
  <text
     x="0"
     y="0"
     stroke="none"
     fill="#999999"
     transform="matrix(0.05 0 0 0.05 11.9381 39.085)"
     font-style="normal"
     font-weight="normal"
     font-size="320px"
     font-family="Helvetica"
     id="text25">
click for more</text>
  <g
     id="goback"
     onclick="window.location.href = 'index.svg'"
     onmouseover="document.getElementById('goback-box').setAttribute('opacity','0.5');"
     onmouseout="document.getElementById('goback-box').setAttribute('opacity','1')">
    <path
       stroke="none"
       fill="#999999"
       transform="matrix(0.05 0 0 0.05 -10 -11)"
       d="M 395.9,1492.34 C 395.9,1492.34 395.9,1302.37 395.9,1302.37 C 395.9,1228.92 455.513,1169.31 528.955,1169.31 C 528.955,1169.31 1775.84,1169.31 1775.84,1169.31 C 1849.29,1169.31 1908.9,1228.92 1908.9,1302.37 C 1908.9,1302.37 1908.9,1492.34 1908.9,1492.34 C 1908.9,1565.79 1849.29,1625.4 1775.84,1625.4 C 1775.84,1625.4 528.955,1625.4 528.955,1625.4 C 455.513,1625.4 395.9,1565.79 395.9,1492.34 "
       id="goback-box" />
    <text
       x="0"
       y="0"
       stroke="none"
       fill="#000000"
       transform="matrix(0.05 0 0 0.05 29.3796 61.765)"
       font-style="normal"
       font-weight="bold"
       font-size="200px"
       font-family="Helvetica"
       id="gobacktext">
go home</text>
    <path
       stroke="#999999"
       stroke-width="1"
       transform="matrix(0.05 0 0 0.05 -10 -11)"
       d="M 395.9,1492.34 C 395.9,1492.34 395.9,1302.37 395.9,1302.37 C 395.9,1228.92 455.513,1169.31 528.955,1169.31 C 528.955,1169.31 1775.84,1169.31 1775.84,1169.31 C 1849.29,1169.31 1908.9,1228.92 1908.9,1302.37 C 1908.9,1302.37 1908.9,1492.34 1908.9,1492.34 C 1908.9,1565.79 1849.29,1625.4 1775.84,1625.4 C 1775.84,1625.4 528.955,1625.4 528.955,1625.4 C 455.513,1625.4 395.9,1565.79 395.9,1492.34 "
       onclick="history.back()"
       style="opacity:0"
       id="goback-link" />
  </g>
  <g
     id="howtomake"
     onclick="window.location.href = 'tonon-alkyl-halides.svg'"
     onmouseover="document.getElementById('howtomake-box').setAttribute('opacity','0.5');"
     onmouseout="document.getElementById('howtomake-box').setAttribute('opacity','1')">
    <path
       stroke="none"
       fill="#999999"
       transform="matrix(0.05 0 0 0.05 -10 -11)"
       d="M 381.591,2007.46 C 381.591,2007.46 381.591,1817.48 381.591,1817.48 C 381.591,1744.04 441.204,1684.42 514.647,1684.42 C 514.647,1684.42 1761.54,1684.42 1761.54,1684.42 C 1834.98,1684.42 1894.59,1744.04 1894.59,1817.48 C 1894.59,1817.48 1894.59,2007.46 1894.59,2007.46 C 1894.59,2080.9 1834.98,2140.51 1761.54,2140.51 C 1761.54,2140.51 514.647,2140.51 514.647,2140.51 C 441.204,2140.51 381.591,2080.9 381.591,2007.46 "
       id="howtomake-box" />
    <text
       x="0"
       y="0"
       stroke="none"
       fill="#000000"
       transform="matrix(0.05 0 0 0.05 17.275 87.5206)"
       font-style="normal"
       font-weight="bold"
       font-size="200px"
       font-family="Helvetica"
       id="howtomaketext">
how to make</text>
    <path
       stroke="#999999"
       stroke-width="1"
       transform="matrix(0.05 0 0 0.05 -10 -11)"
       d="M 381.591,2007.46 C 381.591,2007.46 381.591,1817.48 381.591,1817.48 C 381.591,1744.04 441.204,1684.42 514.647,1684.42 C 514.647,1684.42 1761.54,1684.42 1761.54,1684.42 C 1834.98,1684.42 1894.59,1744.04 1894.59,1817.48 C 1894.59,1817.48 1894.59,2007.46 1894.59,2007.46 C 1894.59,2080.9 1834.98,2140.51 1761.54,2140.51 C 1761.54,2140.51 514.647,2140.51 514.647,2140.51 C 441.204,2140.51 381.591,2080.9 381.591,2007.46 "
       style="opacity:0"
       id="howtomake-link" />
  </g>
  <path
     stroke="none"
     fill="#000000"
     transform="matrix(0.05 0 0 0.05 -10 -11)"
     d="M 2627.9,3796.64 L 2627.9,4254.83 L 2605.9,4254.83 L 2605.9,3796.64 Z "
     id="path29" />
  <path
     stroke="none"
     fill="#000000"
     transform="matrix(0.05 0 0 0.05 -10 -11)"
     d="M 2616.9,3603.6 C 2616.9,3603.6 2673.34,3825.36 2673.34,3825.36 C 2673.34,3825.36 2641.59,3797.64 2616.9,3797.64 C 2591.77,3797.64 2559.46,3825.36 2559.46,3825.36 C 2559.46,3825.36 2616.9,3603.6 2616.9,3603.6 C 2616.9,3603.6 2616.9,3603.6 2616.9,3603.6 "
     id="path30" />
  <path
     stroke="#000000"
     stroke-width="1"
     fill="none"
     transform="matrix(0.05 0 0 0.05 -10 -11)"
     d="M 2616.9,3603.6 C 2616.9,3603.6 2673.34,3825.36 2673.34,3825.36 C 2673.34,3825.36 2641.59,3797.64 2616.9,3797.64 C 2591.77,3797.64 2559.46,3825.36 2559.46,3825.36 C 2559.46,3825.36 2616.9,3603.6 2616.9,3603.6 C 2616.9,3603.6 2616.9,3603.6 2616.9,3603.6 "
     id="path31" />
  <text
     x="0"
     y="0"
     stroke="none"
     fill="#0000ff"
     transform="matrix(0.05 0 0 0.05 7.07214 235.333)"
     font-style="normal"
     font-weight="bold"
     font-size="280px"
     font-family="Helvetica"
     id="text31">
vinylic </text>
  <text
     x="0"
     y="0"
     stroke="none"
     fill="#0000ff"
     transform="matrix(0.05 0 0 0.05 54.5409 235.333)"
     font-style="normal"
     font-weight="bold"
     font-size="280px"
     font-family="Helvetica"
     id="text32">
halides</text>
  <path
     stroke="none"
     fill="#000000"
     transform="matrix(0.05 0 0 0.05 -10 -11)"
     d="M 5133.41,4864.15 L 3246.1,4864.15 L 3246.1,4842.15 L 5133.41,4842.15 Z "
     id="path37" />
  <path
     stroke="none"
     fill="#000000"
     transform="matrix(0.05 0 0 0.05 -10 -11)"
     d="M 5128.82,6463.6 L 5128.82,3653.69 L 5150.82,3653.69 L 5150.82,6463.6 Z "
     id="path38" />
  <path
     stroke="none"
     fill="#000000"
     transform="matrix(0.05 0 0 0.05 -10 -11)"
     d="M 6388.49,3664.69 L 5139.82,3664.69 L 5139.82,3642.69 L 6388.49,3642.69 Z "
     id="path39" />
  <path
     stroke="none"
     fill="#000000"
     transform="matrix(0.05 0 0 0.05 -10 -11)"
     d="M 6581.52,3653.69 C 6581.52,3653.69 6359.77,3710.13 6359.77,3710.13 C 6359.77,3710.13 6387.49,3678.38 6387.49,3653.69 C 6387.49,3628.56 6359.77,3596.25 6359.77,3596.25 C 6359.77,3596.25 6581.52,3653.69 6581.52,3653.69 C 6581.52,3653.69 6581.52,3653.69 6581.52,3653.69 "
     id="path40" />
  <path
     stroke="#000000"
     stroke-width="1"
     fill="none"
     transform="matrix(0.05 0 0 0.05 -10 -11)"
     d="M 6581.52,3653.69 C 6581.52,3653.69 6359.77,3710.13 6359.77,3710.13 C 6359.77,3710.13 6387.49,3678.38 6387.49,3653.69 C 6387.49,3628.56 6359.77,3596.25 6359.77,3596.25 C 6359.77,3596.25 6581.52,3653.69 6581.52,3653.69 C 6581.52,3653.69 6581.52,3653.69 6581.52,3653.69 "
     id="path41" />
  <path
     stroke="none"
     fill="#000000"
     transform="matrix(0.05 0 0 0.05 -10 -11)"
     d="M 6388.49,4865.89 L 5139.82,4865.89 L 5139.82,4843.89 L 6388.49,4843.89 Z "
     id="path42" />
  <path
     stroke="none"
     fill="#000000"
     transform="matrix(0.05 0 0 0.05 -10 -11)"
     d="M 6581.52,4854.89 C 6581.52,4854.89 6359.77,4911.33 6359.77,4911.33 C 6359.77,4911.33 6387.49,4879.58 6387.49,4854.89 C 6387.49,4829.76 6359.77,4797.45 6359.77,4797.45 C 6359.77,4797.45 6581.52,4854.89 6581.52,4854.89 C 6581.52,4854.89 6581.52,4854.89 6581.52,4854.89 "
     id="path43" />
  <path
     stroke="#000000"
     stroke-width="1"
     fill="none"
     transform="matrix(0.05 0 0 0.05 -10 -11)"
     d="M 6581.52,4854.89 C 6581.52,4854.89 6359.77,4911.33 6359.77,4911.33 C 6359.77,4911.33 6387.49,4879.58 6387.49,4854.89 C 6387.49,4829.76 6359.77,4797.45 6359.77,4797.45 C 6359.77,4797.45 6581.52,4854.89 6581.52,4854.89 C 6581.52,4854.89 6581.52,4854.89 6581.52,4854.89 "
     id="path44" />
  <path
     stroke="none"
     fill="#000000"
     transform="matrix(0.05 0 0 0.05 -10 -11)"
     d="M 6388.49,6474.6 L 5139.82,6474.6 L 5139.82,6452.6 L 6388.49,6452.6 Z "
     id="path45" />
  <path
     stroke="none"
     fill="#000000"
     transform="matrix(0.05 0 0 0.05 -10 -11)"
     d="M 6581.52,6463.6 C 6581.52,6463.6 6359.77,6520.04 6359.77,6520.04 C 6359.77,6520.04 6387.49,6488.29 6387.49,6463.6 C 6387.49,6438.47 6359.77,6406.16 6359.77,6406.16 C 6359.77,6406.16 6581.52,6463.6 6581.52,6463.6 C 6581.52,6463.6 6581.52,6463.6 6581.52,6463.6 "
     id="path46" />
  <path
     stroke="#000000"
     stroke-width="1"
     fill="none"
     transform="matrix(0.05 0 0 0.05 -10 -11)"
     d="M 6581.52,6463.6 C 6581.52,6463.6 6359.77,6520.04 6359.77,6520.04 C 6359.77,6520.04 6387.49,6488.29 6387.49,6463.6 C 6387.49,6438.47 6359.77,6406.16 6359.77,6406.16 C 6359.77,6406.16 6581.52,6463.6 6581.52,6463.6 C 6581.52,6463.6 6581.52,6463.6 6581.52,6463.6 "
     id="path47" />
  <text
     x="0"
     y="0"
     stroke="none"
     fill="#000000"
     transform="matrix(0.05,0,0,0.05,93.009,299.242)"
     font-style="normal"
     font-weight="bold"
     font-size="160px"
     font-family="Helvetica"
     id="text47"><tspan
       style="fill:#0000ff;fill-opacity:1"
       id="tspan3">R</tspan></text>
  <text
     x="0"
     y="0"
     stroke="none"
     fill="#000000"
     transform="matrix(0.05 0 0 0.05 98.7863 301.082)"
     font-style="normal"
     font-weight="bold"
     font-size="120px"
     font-family="Helvetica"
     id="text48">
2</text>
  <text
     x="0"
     y="0"
     stroke="none"
     fill="#000000"
     transform="matrix(0.05 0 0 0.05 102.123 299.242)"
     font-style="normal"
     font-weight="bold"
     font-size="160px"
     font-family="Helvetica"
     id="text49">
CuLi</text>
  <text
     x="0"
     y="0"
     stroke="none"
     fill="#000000"
     transform="matrix(0.05 0 0 0.05 79.362 180.325)"
     font-style="normal"
     font-weight="bold"
     font-size="200px"
     font-family="Helvetica"
     id="text52">
K</text>
  <text
     x="0"
     y="0"
     stroke="none"
     fill="#000000"
     transform="matrix(0.05 0 0 0.05 86.5836 180.325)"
     font-style="normal"
     font-weight="bold"
     font-size="200px"
     font-family="Helvetica"
     id="text53">
O</text>
  <text
     x="0"
     y="0"
     stroke="none"
     fill="#000000"
     transform="matrix(0.05 0 0 0.05 94.362 176.726)"
     font-style="normal"
     font-weight="bold"
     font-size="150px"
     font-family="Helvetica"
     id="text54">
t</text>
  <text
     x="0"
     y="0"
     stroke="none"
     fill="#000000"
     transform="matrix(0.05 0 0 0.05 96.8595 180.325)"
     font-style="normal"
     font-weight="bold"
     font-size="200px"
     font-family="Helvetica"
     id="text55">
Bu</text>
  <text
     x="0"
     y="0"
     stroke="none"
     fill="#000000"
     transform="matrix(0.05 0 0 0.05 277.319 226.552)"
     font-style="normal"
     font-weight="bold"
     font-size="200px"
     font-family="Helvetica"
     id="text66">
Li</text>
  <text
     x="0"
     y="0"
     stroke="none"
     fill="#000000"
     transform="matrix(0.05 0 0 0.05 267.988 296.47)"
     font-style="normal"
     font-weight="bold"
     font-size="200px"
     font-family="Helvetica"
     id="text75">
1) </text>
  <text
     x="0"
     y="0"
     stroke="none"
     fill="#000000"
     transform="matrix(0.05 0 0 0.05 279.658 296.47)"
     font-style="normal"
     font-weight="bold"
     font-size="200px"
     font-family="Helvetica"
     id="text76">
Li</text>
  <text
     x="0"
     y="0"
     stroke="none"
     fill="#000000"
     transform="matrix(0.05 0 0 0.05 267.988 306.987)"
     font-style="normal"
     font-weight="bold"
     font-size="200px"
     font-family="Helvetica"
     id="text77">
2) </text>
  <text
     x="0"
     y="0"
     stroke="none"
     fill="#000000"
     transform="matrix(0.05 0 0 0.05 279.658 306.987)"
     font-style="normal"
     font-weight="bold"
     font-size="200px"
     font-family="Helvetica"
     id="text78">
CuI</text>
  <path
     stroke="none"
     fill="#000000"
     transform="matrix(0.05 0 0 0.05 -10 -11)"
     d="M 2358.48,4555.72 L 2369.56,4536.52 L 2635.22,4689.3 L 2613.01,4702.17 L 2358.48,4555.72 Z "
     id="path85" />
  <path
     stroke="none"
     fill="#000000"
     transform="matrix(0.05 0 0 0.05 -10 -11)"
     d="M 2601.24,4689.48 L 2590.15,4670.27 L 2863.4,4512.51 L 2874.49,4531.71 L 2601.24,4689.48 Z "
     id="path86" />
  <path
     stroke="none"
     fill="#000000"
     transform="matrix(0.05 0 0 0.05 -10 -11)"
     d="M 2628.96,4737.49 L 2617.87,4718.28 L 2891.12,4560.52 L 2902.21,4579.73 L 2628.96,4737.49 Z "
     id="path87" />
  <text
     x="0"
     y="0"
     stroke="none"
     fill="#107f01"
     transform="matrix(0.05 0 0 0.05 117.921 242.009)"
     font-style="normal"
     font-weight="bold"
     font-size="180px"
     font-family="Helvetica"
     id="text87">
Br</text>
  <path
     stroke="none"
     fill="#000000"
     transform="matrix(0.05 0 0 0.05 -10 -11)"
     d="M 2613.01,4702.17 L 2635.22,4689.3 L 2634.5,4899.38 L 2612.32,4899.38 L 2613.01,4702.17 Z "
     id="path88" />
  <text
     x="0"
     y="0"
     stroke="none"
     fill="#000000"
     transform="matrix(0.05 0 0 0.05 200.925 228.525)"
     font-style="normal"
     font-weight="bold"
     font-size="200px"
     font-family="Helvetica"
     id="text88">
metal</text>
  <text
     x="0"
     y="0"
     stroke="none"
     fill="#000000"
     transform="matrix(0.05 0 0 0.05 273.727 166.787)"
     font-style="normal"
     font-weight="bold"
     font-size="200px"
     font-family="Helvetica"
     id="text89">
Mg</text>
  <path
     stroke="none"
     fill="#000000"
     transform="matrix(0.05 0 0 0.05 -10 -11)"
     d="M 1933.8,6456.46 L 1933.8,5782.65 L 1955.8,5782.65 L 1955.8,6456.46 Z "
     id="path95" />
  <path
     stroke="none"
     fill="#000000"
     transform="matrix(0.05 0 0 0.05 -10 -11)"
     d="M 1944.8,6649.5 C 1944.8,6649.5 1887.36,6427.74 1887.36,6427.74 C 1887.36,6427.74 1919.67,6455.46 1944.8,6455.46 C 1969.49,6455.46 2001.24,6427.74 2001.24,6427.74 C 2001.24,6427.74 1944.8,6649.5 1944.8,6649.5 C 1944.8,6649.5 1944.8,6649.5 1944.8,6649.5 "
     id="path96" />
  <path
     stroke="#000000"
     stroke-width="1"
     fill="none"
     transform="matrix(0.05 0 0 0.05 -10 -11)"
     d="M 1944.8,6649.5 C 1944.8,6649.5 1887.36,6427.74 1887.36,6427.74 C 1887.36,6427.74 1919.67,6455.46 1944.8,6455.46 C 1969.49,6455.46 2001.24,6427.74 2001.24,6427.74 C 2001.24,6427.74 1944.8,6649.5 1944.8,6649.5 C 1944.8,6649.5 1944.8,6649.5 1944.8,6649.5 "
     id="path97" />
  <path
     stroke="none"
     fill="#000000"
     transform="matrix(0.05 0 0 0.05 -10 -11)"
     d="M 2625.35,5781.19 L 2625.35,5341.63 L 2647.35,5341.63 L 2647.35,5781.19 Z "
     id="path98" />
  <path
     stroke="none"
     fill="#000000"
     transform="matrix(0.05 0 0 0.05 -10 -11)"
     d="M 3318.02,5792.19 L 1954.68,5792.19 L 1954.68,5770.19 L 3318.02,5770.19 Z "
     id="path99" />
  <text
     x="0"
     y="0"
     stroke="none"
     fill="#000000"
     transform="matrix(0.05 0 0 0.05 78.66 193.49)"
     font-style="normal"
     font-weight="bold"
     font-size="160px"
     font-family="Helvetica"
     id="text99">
or </text>
  <text
     x="0"
     y="0"
     stroke="none"
     fill="#000000"
     transform="matrix(0.05 0 0 0.05 88.8826 193.49)"
     font-style="normal"
     font-weight="bold"
     font-size="160px"
     font-family="Helvetica"
     id="text100">
NH</text>
  <text
     x="0"
     y="0"
     stroke="none"
     fill="#000000"
     transform="matrix(0.05 0 0 0.05 100.437 195.33)"
     font-style="normal"
     font-weight="bold"
     font-size="120px"
     font-family="Helvetica"
     id="text101">
2</text>
  <text
     x="0"
     y="0"
     stroke="none"
     fill="#000000"
     transform="matrix(0.05 0 0 0.05 103.774 190.611)"
     font-style="normal"
     font-weight="bold"
     font-size="120px"
     font-family="Helvetica"
     id="text102">
-</text>
  <path
     stroke="none"
     fill="#000000"
     transform="matrix(0.05 0 0 0.05 -10 -11)"
     d="M 3306.6,6456.46 L 3306.6,5782.65 L 3328.6,5782.65 L 3328.6,6456.46 Z "
     id="path102" />
  <path
     stroke="none"
     fill="#000000"
     transform="matrix(0.05 0 0 0.05 -10 -11)"
     d="M 3317.6,6649.5 C 3317.6,6649.5 3260.16,6427.74 3260.16,6427.74 C 3260.16,6427.74 3292.47,6455.46 3317.6,6455.46 C 3342.29,6455.46 3374.04,6427.74 3374.04,6427.74 C 3374.04,6427.74 3317.6,6649.5 3317.6,6649.5 C 3317.6,6649.5 3317.6,6649.5 3317.6,6649.5 "
     id="path103" />
  <path
     stroke="#000000"
     stroke-width="1"
     fill="none"
     transform="matrix(0.05 0 0 0.05 -10 -11)"
     d="M 3317.6,6649.5 C 3317.6,6649.5 3260.16,6427.74 3260.16,6427.74 C 3260.16,6427.74 3292.47,6455.46 3317.6,6455.46 C 3342.29,6455.46 3374.04,6427.74 3374.04,6427.74 C 3374.04,6427.74 3317.6,6649.5 3317.6,6649.5 C 3317.6,6649.5 3317.6,6649.5 3317.6,6649.5 "
     id="path104" />
  <text
     x="0"
     y="0"
     stroke="none"
     fill="#000000"
     transform="matrix(0.05,0,0,0.05,160.965,295.752)"
     font-style="normal"
     font-weight="bold"
     font-size="160px"
     font-family="Helvetica"
     id="text104"><tspan
   style="fill:#0000ff;fill-opacity:1"
   id="tspan4">R</tspan>B(OH)</text>
  <text
     x="0"
     y="0"
     stroke="none"
     fill="#000000"
     transform="matrix(0.05 0 0 0.05 189.848 297.592)"
     font-style="normal"
     font-weight="bold"
     font-size="120px"
     font-family="Helvetica"
     id="text105">
2</text>
  <text
     x="0"
     y="0"
     stroke="none"
     fill="#000000"
     transform="matrix(0.05 0 0 0.05 161.629 307.192)"
     font-style="normal"
     font-weight="bold"
     font-size="160px"
     font-family="Helvetica"
     id="text106">
cat. </text>
  <text
     x="0"
     y="0"
     stroke="none"
     fill="#000000"
     transform="matrix(0.05 0 0 0.05 177.637 307.192)"
     font-style="normal"
     font-weight="bold"
     font-size="160px"
     font-family="Helvetica"
     id="text107">
Pd(OAc)</text>
  <text
     x="0"
     y="0"
     stroke="none"
     fill="#000000"
     transform="matrix(0.05 0 0 0.05 209.637 309.032)"
     font-style="normal"
     font-weight="bold"
     font-size="120px"
     font-family="Helvetica"
     id="text108">
2</text>
  <text
     x="0"
     y="0"
     stroke="none"
     fill="#000000"
     transform="matrix(0.05 0 0 0.05 667.064 305.634)"
     font-style="normal"
     font-weight="bold"
     font-size="160px"
     font-family="Helvetica"
     id="text117">
cat. </text>
  <text
     x="0"
     y="0"
     stroke="none"
     fill="#000000"
     transform="matrix(0.05 0 0 0.05 683.072 305.634)"
     font-style="normal"
     font-weight="bold"
     font-size="160px"
     font-family="Helvetica"
     id="text118">
Pd(OAc)</text>
  <text
     x="0"
     y="0"
     stroke="none"
     fill="#000000"
     transform="matrix(0.05 0 0 0.05 715.072 307.474)"
     font-style="normal"
     font-weight="bold"
     font-size="120px"
     font-family="Helvetica"
     id="text119">
2</text>
  <text
     x="0"
     y="0"
     stroke="none"
     fill="#0000ff"
     transform="matrix(0.05 0 0 0.05 666.4 294.194)"
     font-style="normal"
     font-weight="bold"
     font-size="160px"
     font-family="Helvetica"
     id="text120">
R</text>
  <text
     x="0"
     y="0"
     stroke="none"
     fill="#000000"
     transform="matrix(0.05 0 0 0.05 672.178 294.194)"
     font-style="normal"
     font-weight="bold"
     font-size="160px"
     font-family="Helvetica"
     id="text121">
B(OH)</text>
  <text
     x="0"
     y="0"
     stroke="none"
     fill="#000000"
     transform="matrix(0.05 0 0 0.05 695.283 296.034)"
     font-style="normal"
     font-weight="bold"
     font-size="120px"
     font-family="Helvetica"
     id="text122">
2</text>
  <path
     stroke="none"
     fill="#000000"
     transform="matrix(0.05 0 0 0.05 -10 -11)"
     d="M 13460,6499.36 L 13460,5825.55 L 13482,5825.55 L 13482,6499.36 Z "
     id="path122" />
  <path
     stroke="none"
     fill="#000000"
     transform="matrix(0.05 0 0 0.05 -10 -11)"
     d="M 13471,6692.4 C 13471,6692.4 13413.6,6470.64 13413.6,6470.64 C 13413.6,6470.64 13445.9,6498.36 13471,6498.36 C 13495.7,6498.36 13527.4,6470.64 13527.4,6470.64 C 13527.4,6470.64 13471,6692.4 13471,6692.4 C 13471,6692.4 13471,6692.4 13471,6692.4 "
     id="path123" />
  <path
     stroke="#000000"
     stroke-width="1"
     fill="none"
     transform="matrix(0.05 0 0 0.05 -10 -11)"
     d="M 13471,6692.4 C 13471,6692.4 13413.6,6470.64 13413.6,6470.64 C 13413.6,6470.64 13445.9,6498.36 13471,6498.36 C 13495.7,6498.36 13527.4,6470.64 13527.4,6470.64 C 13527.4,6470.64 13471,6692.4 13471,6692.4 C 13471,6692.4 13471,6692.4 13471,6692.4 "
     id="path124" />
  <path
     stroke="none"
     fill="#000000"
     transform="matrix(0.05 0 0 0.05 -10 -11)"
     d="M 13470.6,5813.09 L 14833.9,5813.09 L 14833.9,5835.09 L 13470.6,5835.09 Z "
     id="path125" />
  <path
     stroke="none"
     fill="#000000"
     transform="matrix(0.05 0 0 0.05 -10 -11)"
     d="M 14141.2,5824.09 L 14141.2,5384.53 L 14163.2,5384.53 L 14163.2,5824.09 Z "
     id="path126" />
  <path
     stroke="none"
     fill="#000000"
     transform="matrix(0.05 0 0 0.05 -10 -11)"
     d="M 14832.8,6499.36 L 14832.8,5825.55 L 14854.8,5825.55 L 14854.8,6499.36 Z "
     id="path127" />
  <path
     stroke="none"
     fill="#000000"
     transform="matrix(0.05 0 0 0.05 -10 -11)"
     d="M 14843.8,6692.4 C 14843.8,6692.4 14786.4,6470.64 14786.4,6470.64 C 14786.4,6470.64 14818.7,6498.36 14843.8,6498.36 C 14868.5,6498.36 14900.2,6470.64 14900.2,6470.64 C 14900.2,6470.64 14843.8,6692.4 14843.8,6692.4 C 14843.8,6692.4 14843.8,6692.4 14843.8,6692.4 "
     id="path128" />
  <path
     stroke="#000000"
     stroke-width="1"
     fill="none"
     transform="matrix(0.05 0 0 0.05 -10 -11)"
     d="M 14843.8,6692.4 C 14843.8,6692.4 14786.4,6470.64 14786.4,6470.64 C 14786.4,6470.64 14818.7,6498.36 14843.8,6498.36 C 14868.5,6498.36 14900.2,6470.64 14900.2,6470.64 C 14900.2,6470.64 14843.8,6692.4 14843.8,6692.4 C 14843.8,6692.4 14843.8,6692.4 14843.8,6692.4 "
     id="path129" />
  <text
     x="0"
     y="0"
     stroke="none"
     fill="#000000"
     transform="matrix(0.05 0 0 0.05 596.718 167.502)"
     font-style="normal"
     font-weight="bold"
     font-size="200px"
     font-family="Helvetica"
     id="text132">
Mg</text>
  <text
     x="0"
     y="0"
     stroke="none"
     fill="#000000"
     transform="matrix(0.05 0 0 0.05 639.327 227.81)"
     font-style="normal"
     font-weight="bold"
     font-size="200px"
     font-family="Helvetica"
     id="text133">
metal</text>
  <path
     stroke="none"
     fill="#000000"
     transform="matrix(0.05 0 0 0.05 -10 -11)"
     d="M 14229.7,4930.21 L 14239.7,4923.9 L 14249.7,4930.24 L 14250.2,5055.86 L 14228,5055.76 L 14229.7,4930.21 Z "
     id="path133" />
  <text
     x="0"
     y="0"
     stroke="none"
     fill="#107f01"
     transform="matrix(0.05 0 0 0.05 698.684 249.83)"
     font-style="normal"
     font-weight="bold"
     font-size="180px"
     font-family="Helvetica"
     id="text134">
Br</text>
  <path
     stroke="none"
     fill="#000000"
     transform="matrix(0.05 0 0 0.05 -10 -11)"
     d="M 14239.7,4911.86 L 14239.7,4923.9 L 14229.7,4930.21 L 14051.5,4828.9 L 14073.8,4816.04 L 14239.7,4911.86 Z "
     id="path134" />
  <path
     stroke="none"
     fill="#000000"
     transform="matrix(0.05 0 0 0.05 -10 -11)"
     d="M 14245.3,4850.28 L 14234.2,4869.49 L 14113.2,4799.66 L 14124.3,4780.46 L 14245.3,4850.28 Z "
     id="path135" />
  <path
     stroke="none"
     fill="#000000"
     transform="matrix(0.05 0 0 0.05 -10 -11)"
     d="M 14405.7,4816.04 L 14427.9,4828.9 L 14249.7,4930.24 L 14239.7,4923.9 L 14239.7,4911.86 L 14405.7,4816.04 Z "
     id="path136" />
  <text
     x="0"
     y="0"
     stroke="none"
     fill="#000000"
     transform="matrix(0.05 0 0 0.05 589.985 297.185)"
     font-style="normal"
     font-weight="bold"
     font-size="200px"
     font-family="Helvetica"
     id="text141">
1) </text>
  <text
     x="0"
     y="0"
     stroke="none"
     fill="#000000"
     transform="matrix(0.05 0 0 0.05 601.655 297.185)"
     font-style="normal"
     font-weight="bold"
     font-size="200px"
     font-family="Helvetica"
     id="text142">
Li</text>
  <text
     x="0"
     y="0"
     stroke="none"
     fill="#000000"
     transform="matrix(0.05 0 0 0.05 582.764 307.702)"
     font-style="normal"
     font-weight="bold"
     font-size="200px"
     font-family="Helvetica"
     id="text143">
2) </text>
  <text
     x="0"
     y="0"
     stroke="none"
     fill="#000000"
     transform="matrix(0.05 0 0 0.05 594.433 307.702)"
     font-style="normal"
     font-weight="bold"
     font-size="200px"
     font-family="Helvetica"
     id="text144">
CuI</text>
  <text
     x="0"
     y="0"
     stroke="none"
     fill="#000000"
     transform="matrix(0.05 0 0 0.05 595.347 227.267)"
     font-style="normal"
     font-weight="bold"
     font-size="200px"
     font-family="Helvetica"
     id="text149">
Li</text>
  <text
     x="0"
     y="0"
     stroke="none"
     fill="#0000ff"
     transform="matrix(0.05 0 0 0.05 736.47 299.914)"
     font-style="normal"
     font-weight="bold"
     font-size="160px"
     font-family="Helvetica"
     id="text151">
R</text>
  <text
     x="0"
     y="0"
     stroke="none"
     fill="#000000"
     transform="matrix(0.05 0 0 0.05 742.248 301.754)"
     font-style="normal"
     font-weight="bold"
     font-size="120px"
     font-family="Helvetica"
     id="text152">
2</text>
  <text
     x="0"
     y="0"
     stroke="none"
     fill="#000000"
     transform="matrix(0.05 0 0 0.05 745.585 299.914)"
     font-style="normal"
     font-weight="bold"
     font-size="160px"
     font-family="Helvetica"
     id="text153">
CuLi</text>
  <path
     stroke="none"
     fill="#000000"
     transform="matrix(0.05 0 0 0.05 -10 -11)"
     d="M 11587,6466.9 L 12835.7,6466.9 L 12835.7,6488.9 L 11587,6488.9 Z "
     id="path153" />
  <path
     stroke="none"
     fill="#000000"
     transform="matrix(0.05 0 0 0.05 -10 -11)"
     d="M 11394,6477.9 C 11394,6477.9 11615.7,6420.46 11615.7,6420.46 C 11615.7,6420.46 11588,6452.77 11588,6477.9 C 11588,6502.59 11615.7,6534.34 11615.7,6534.34 C 11615.7,6534.34 11394,6477.9 11394,6477.9 C 11394,6477.9 11394,6477.9 11394,6477.9 "
     id="path154" />
  <path
     stroke="#000000"
     stroke-width="1"
     fill="none"
     transform="matrix(0.05 0 0 0.05 -10 -11)"
     d="M 11394,6477.9 C 11394,6477.9 11615.7,6420.46 11615.7,6420.46 C 11615.7,6420.46 11588,6452.77 11588,6477.9 C 11588,6502.59 11615.7,6534.34 11615.7,6534.34 C 11615.7,6534.34 11394,6477.9 11394,6477.9 C 11394,6477.9 11394,6477.9 11394,6477.9 "
     id="path155" />
  <path
     stroke="none"
     fill="#000000"
     transform="matrix(0.05 0 0 0.05 -10 -11)"
     d="M 11587,4858.19 L 12835.7,4858.19 L 12835.7,4880.19 L 11587,4880.19 Z "
     id="path156" />
  <path
     stroke="none"
     fill="#000000"
     transform="matrix(0.05 0 0 0.05 -10 -11)"
     d="M 11394,4869.19 C 11394,4869.19 11615.7,4811.75 11615.7,4811.75 C 11615.7,4811.75 11588,4844.06 11588,4869.19 C 11588,4893.88 11615.7,4925.63 11615.7,4925.63 C 11615.7,4925.63 11394,4869.19 11394,4869.19 C 11394,4869.19 11394,4869.19 11394,4869.19 "
     id="path157" />
  <path
     stroke="#000000"
     stroke-width="1"
     fill="none"
     transform="matrix(0.05 0 0 0.05 -10 -11)"
     d="M 11394,4869.19 C 11394,4869.19 11615.7,4811.75 11615.7,4811.75 C 11615.7,4811.75 11588,4844.06 11588,4869.19 C 11588,4893.88 11615.7,4925.63 11615.7,4925.63 C 11615.7,4925.63 11394,4869.19 11394,4869.19 C 11394,4869.19 11394,4869.19 11394,4869.19 "
     id="path158" />
  <path
     stroke="none"
     fill="#000000"
     transform="matrix(0.05 0 0 0.05 -10 -11)"
     d="M 11587,3656.99 L 12835.7,3656.99 L 12835.7,3678.99 L 11587,3678.99 Z "
     id="path159" />
  <path
     stroke="none"
     fill="#000000"
     transform="matrix(0.05 0 0 0.05 -10 -11)"
     d="M 11394,3667.99 C 11394,3667.99 11615.7,3610.55 11615.7,3610.55 C 11615.7,3610.55 11588,3642.86 11588,3667.99 C 11588,3692.68 11615.7,3724.43 11615.7,3724.43 C 11615.7,3724.43 11394,3667.99 11394,3667.99 C 11394,3667.99 11394,3667.99 11394,3667.99 "
     id="path160" />
  <path
     stroke="#000000"
     stroke-width="1"
     fill="none"
     transform="matrix(0.05 0 0 0.05 -10 -11)"
     d="M 11394,3667.99 C 11394,3667.99 11615.7,3610.55 11615.7,3610.55 C 11615.7,3610.55 11588,3642.86 11588,3667.99 C 11588,3692.68 11615.7,3724.43 11615.7,3724.43 C 11615.7,3724.43 11394,3667.99 11394,3667.99 C 11394,3667.99 11394,3667.99 11394,3667.99 "
     id="path161" />
  <path
     stroke="none"
     fill="#000000"
     transform="matrix(0.05 0 0 0.05 -10 -11)"
     d="M 12824.7,6477.9 L 12824.7,3667.99 L 12846.7,3667.99 L 12846.7,6477.9 Z "
     id="path162" />
  <path
     stroke="none"
     fill="#000000"
     transform="matrix(0.05 0 0 0.05 -10 -11)"
     d="M 12842.1,4856.45 L 13785.2,4856.45 L 13785.2,4878.45 L 12842.1,4878.45 Z "
     id="path163" />
  <text
     x="0"
     y="0"
     stroke="none"
     fill="#0000ff"
     transform="matrix(0.05 0 0 0.05 722.221 233.981)"
     font-style="normal"
     font-weight="bold"
     font-size="280px"
     font-family="Helvetica"
     id="text164">
aryl </text>
  <text
     x="0"
     y="0"
     stroke="none"
     fill="#0000ff"
     transform="matrix(0.05 0 0 0.05 751.021 233.981)"
     font-style="normal"
     font-weight="bold"
     font-size="280px"
     font-family="Helvetica"
     id="text165">
halides</text>
  <path
     stroke="none"
     fill="#000000"
     transform="matrix(0.05 0 0 0.05 -10 -11)"
     d="M 14254.2,3868.14 L 14254.2,4326.33 L 14232.2,4326.33 L 14232.2,3868.14 Z "
     id="path165" />
  <path
     stroke="none"
     fill="#000000"
     transform="matrix(0.05 0 0 0.05 -10 -11)"
     d="M 14243.2,3675.1 C 14243.2,3675.1 14299.6,3896.86 14299.6,3896.86 C 14299.6,3896.86 14267.9,3869.14 14243.2,3869.14 C 14218.1,3869.14 14185.8,3896.86 14185.8,3896.86 C 14185.8,3896.86 14243.2,3675.1 14243.2,3675.1 C 14243.2,3675.1 14243.2,3675.1 14243.2,3675.1 "
     id="path166" />
  <path
     stroke="#000000"
     stroke-width="1"
     fill="none"
     transform="matrix(0.05 0 0 0.05 -10 -11)"
     d="M 14243.2,3675.1 C 14243.2,3675.1 14299.6,3896.86 14299.6,3896.86 C 14299.6,3896.86 14267.9,3869.14 14243.2,3869.14 C 14218.1,3869.14 14185.8,3896.86 14185.8,3896.86 C 14185.8,3896.86 14243.2,3675.1 14243.2,3675.1 C 14243.2,3675.1 14243.2,3675.1 14243.2,3675.1 "
     id="path167" />
  <text
     x="0"
     y="0"
     stroke="none"
     fill="#000000"
     transform="matrix(0.05 0 0 0.05 708.094 190.635)"
     font-style="normal"
     font-weight="bold"
     font-size="200px"
     font-family="Helvetica"
     id="text167">
NaNH</text>
  <text
     x="0"
     y="0"
     stroke="none"
     fill="#000000"
     transform="matrix(0.05 0 0 0.05 735.321 192.935)"
     font-style="normal"
     font-weight="bold"
     font-size="150px"
     font-family="Helvetica"
     id="text168">
2</text>
  <path
     stroke="none"
     fill="#000000"
     transform="matrix(0.05 0 0 0.05 -10 -11)"
     d="M 14073.8,4816.04 L 14051.5,4828.9 L 14051.5,4611.56 L 14073.8,4624.42 L 14073.8,4816.04 Z "
     id="path168" />
  <path
     stroke="none"
     fill="#000000"
     transform="matrix(0.05 0 0 0.05 -10 -11)"
     d="M 14073.8,4624.42 L 14051.5,4611.56 L 14239.7,4502.89 L 14239.7,4528.6 L 14073.8,4624.42 Z "
     id="path169" />
  <path
     stroke="none"
     fill="#000000"
     transform="matrix(0.05 0 0 0.05 -10 -11)"
     d="M 14124.3,4660 L 14113.2,4640.8 L 14234.2,4570.97 L 14245.3,4590.18 L 14124.3,4660 Z "
     id="path170" />
  <path
     stroke="none"
     fill="#000000"
     transform="matrix(0.05 0 0 0.05 -10 -11)"
     d="M 14239.7,4528.6 L 14239.7,4502.89 L 14427.9,4611.56 L 14405.7,4624.42 L 14239.7,4528.6 Z "
     id="path171" />
  <path
     stroke="none"
     fill="#000000"
     transform="matrix(0.05 0 0 0.05 -10 -11)"
     d="M 14405.7,4624.42 L 14427.9,4611.56 L 14427.9,4828.9 L 14405.7,4816.04 L 14405.7,4624.42 Z "
     id="path172" />
  <path
     stroke="none"
     fill="#000000"
     transform="matrix(0.05 0 0 0.05 -10 -11)"
     d="M 14349.6,4650.4 L 14371.8,4650.4 L 14371.8,4790.06 L 14349.6,4790.06 L 14349.6,4650.4 Z "
     id="path173" />
  <path
     stroke="#000000"
     stroke-width="22"
     fill="none"
     transform="matrix(0.05 0 0 0.05 -10 -11)"
     d="M 14565.6,2902.9 L 14614.6,2902.9 "
     id="path184" />
  <path
     stroke="#000000"
     stroke-width="22"
     fill="none"
     transform="matrix(0.05 0 0 0.05 -10 -11)"
     d="M 14614.6,2902.9 L 14614.6,3575 "
     id="path185" />
  <path
     stroke="#000000"
     stroke-width="22"
     fill="none"
     transform="matrix(0.05 0 0 0.05 -10 -11)"
     d="M 14614.6,3575 L 14565.6,3575 "
     id="path186" />
  <path
     stroke="#000000"
     stroke-width="22"
     fill="none"
     transform="matrix(0.05 0 0 0.05 -10 -11)"
     d="M 13891.4,3575 L 13842.4,3575 "
     id="path187" />
  <path
     stroke="#000000"
     stroke-width="22"
     fill="none"
     transform="matrix(0.05 0 0 0.05 -10 -11)"
     d="M 13842.4,3575 L 13842.4,2902.9 "
     id="path188" />
  <path
     stroke="#000000"
     stroke-width="22"
     fill="none"
     transform="matrix(0.05 0 0 0.05 -10 -11)"
     d="M 13842.4,2902.9 L 13891.4,2902.9 "
     id="path189" />
  <text
     x="0"
     y="0"
     stroke="none"
     fill="#000000"
     transform="matrix(0.05 0 0 0.05 743.321 189.219)"
     font-style="normal"
     font-weight="bold"
     font-size="160px"
     font-family="Helvetica"
     id="text250">
or </text>
  <text
     x="0"
     y="0"
     stroke="none"
     fill="#000000"
     transform="matrix(0.05 0 0 0.05 753.543 189.219)"
     font-style="normal"
     font-weight="bold"
     font-size="160px"
     font-family="Helvetica"
     id="text251">
NaOH</text>
  <path
     stroke="none"
     fill="#000000"
     transform="matrix(0.05 0 0 0.05 -10 -11)"
     d="M 14268.1,2351.78 L 14268.1,2809.98 L 14246.1,2809.98 L 14246.1,2351.78 Z "
     id="path252" />
  <path
     stroke="none"
     fill="#000000"
     transform="matrix(0.05 0 0 0.05 -10 -11)"
     d="M 14257.1,2158.74 C 14257.1,2158.74 14313.6,2380.5 14313.6,2380.5 C 14313.6,2380.5 14281.8,2352.78 14257.1,2352.78 C 14232,2352.78 14199.7,2380.5 14199.7,2380.5 C 14199.7,2380.5 14257.1,2158.74 14257.1,2158.74 C 14257.1,2158.74 14257.1,2158.74 14257.1,2158.74 "
     id="path253" />
  <path
     stroke="#000000"
     stroke-width="1"
     fill="none"
     transform="matrix(0.05 0 0 0.05 -10 -11)"
     d="M 14257.1,2158.74 C 14257.1,2158.74 14313.6,2380.5 14313.6,2380.5 C 14313.6,2380.5 14281.8,2352.78 14257.1,2352.78 C 14232,2352.78 14199.7,2380.5 14199.7,2380.5 C 14199.7,2380.5 14257.1,2158.74 14257.1,2158.74 C 14257.1,2158.74 14257.1,2158.74 14257.1,2158.74 "
     id="path254" />
  <text
     x="0"
     y="0"
     stroke="none"
     fill="#000000"
     font-style="normal"
     font-weight="bold"
     font-size="200px"
     font-family="Helvetica"
     id="text254"
     transform="matrix(0.05 0 0 0.05 721.573 114.817)">
NH</text>
  <text
     x="0"
     y="0"
     stroke="none"
     fill="#000000"
     font-style="normal"
     font-weight="bold"
     font-size="150px"
     font-family="Helvetica"
     id="text255"
     transform="matrix(0.05 0 0 0.05 736.016 117.117)">
3</text>
  <text
     x="0"
     y="0"
     stroke="none"
     fill="#000000"
     font-style="normal"
     font-weight="bold"
     font-size="160px"
     font-family="Helvetica"
     id="text256"
     transform="matrix(0.05 0 0 0.05 745.047 114.097)">
or </text>
  <text
     x="0"
     y="0"
     stroke="none"
     fill="#000000"
     transform="matrix(0.05 0 0 0.05 755.27 114.097)"
     font-style="normal"
     font-weight="bold"
     font-size="160px"
     font-family="Helvetica"
     id="text257">
2) </text>
  <text
     x="0"
     y="0"
     stroke="none"
     fill="#000000"
     font-style="normal"
     font-weight="bold"
     font-size="160px"
     font-family="Helvetica"
     id="text258"
     transform="matrix(0.05 0 0 0.05 764.606 114.097)">
H</text>
  <text
     x="0"
     y="0"
     stroke="none"
     fill="#000000"
     font-style="normal"
     font-weight="bold"
     font-size="120px"
     font-family="Helvetica"
     id="text259"
     transform="matrix(0.05 0 0 0.05 770.383 115.937)">
3</text>
  <text
     x="0"
     y="0"
     stroke="none"
     fill="#000000"
     font-style="normal"
     font-weight="bold"
     font-size="160px"
     font-family="Helvetica"
     id="text260"
     transform="matrix(0.05 0 0 0.05 773.72 114.097)">
O</text>
  <text
     x="0"
     y="0"
     stroke="none"
     fill="#000000"
     font-style="normal"
     font-weight="bold"
     font-size="120px"
     font-family="Helvetica"
     id="text261"
     transform="matrix(0.05 0 0 0.05 779.943 111.218)">
+</text>
  <path
     stroke="none"
     fill="#000000"
     transform="matrix(0.05 0 0 0.05 -10 -11)"
     d="M 11280.7,1661.18 L 11290.5,1654.7 L 11300.3,1661.14 L 11302.2,1768.18 L 11280,1768.3 L 11280.7,1661.18 Z "
     id="path284" />
  <text
     x="0"
     y="0"
     stroke="none"
     fill="#107f01"
     transform="matrix(0.05 0 0 0.05 551.33 85.4516)"
     font-style="normal"
     font-weight="bold"
     font-size="180px"
     font-family="Helvetica"
     id="text284">
Br</text>
  <path
     stroke="none"
     fill="#000000"
     transform="matrix(0.05 0 0 0.05 -10 -11)"
     d="M 11290.5,1642.65 L 11290.5,1654.7 L 11280.7,1661.18 L 11102.3,1559.69 L 11124.5,1546.84 L 11290.5,1642.65 Z "
     id="path285" />
  <path
     stroke="none"
     fill="#000000"
     transform="matrix(0.05 0 0 0.05 -10 -11)"
     d="M 11296,1581.08 L 11284.9,1600.28 L 11164,1530.45 L 11175.1,1511.25 L 11296,1581.08 Z "
     id="path286" />
  <path
     stroke="none"
     fill="#000000"
     transform="matrix(0.05 0 0 0.05 -10 -11)"
     d="M 11456.4,1546.84 L 11478.7,1559.69 L 11300.3,1661.14 L 11290.5,1654.7 L 11290.5,1642.65 L 11456.4,1546.84 Z "
     id="path287" />
  <path
     stroke="none"
     fill="#000000"
     transform="matrix(0.05 0 0 0.05 -10 -11)"
     d="M 11124.5,1546.84 L 11102.3,1559.69 L 11102.3,1342.36 L 11124.5,1355.21 L 11124.5,1546.84 Z "
     id="path288" />
  <path
     stroke="none"
     fill="#000000"
     transform="matrix(0.05 0 0 0.05 -10 -11)"
     d="M 11124.5,1355.21 L 11102.3,1342.36 L 11290.5,1233.69 L 11290.5,1259.4 L 11124.5,1355.21 Z "
     id="path289" />
  <path
     stroke="none"
     fill="#000000"
     transform="matrix(0.05 0 0 0.05 -10 -11)"
     d="M 11175.1,1390.8 L 11164,1371.59 L 11284.9,1301.76 L 11296,1320.97 L 11175.1,1390.8 Z "
     id="path290" />
  <path
     stroke="none"
     fill="#000000"
     transform="matrix(0.05 0 0 0.05 -10 -11)"
     d="M 11290.5,1259.4 L 11290.5,1233.69 L 11478.7,1342.36 L 11456.4,1355.21 L 11290.5,1259.4 Z "
     id="path291" />
  <path
     stroke="none"
     fill="#000000"
     transform="matrix(0.05 0 0 0.05 -10 -11)"
     d="M 11456.4,1355.21 L 11478.7,1342.36 L 11478.7,1419.38 L 11456.4,1419.38 L 11456.4,1355.21 L 11456.4,1355.21 Z "
     id="path292" />
  <path
     stroke="none"
     fill="#000000"
     transform="matrix(0.05 0 0 0.05 -10 -11)"
     d="M 11478.7,1559.69 L 11456.4,1546.84 L 11456.4,1502.04 L 11478.7,1502.04 L 11478.7,1559.69 L 11478.7,1559.69 Z "
     id="path293" />
  <path
     stroke="none"
     fill="#000000"
     transform="matrix(0.05 0 0 0.05 -10 -11)"
     d="M 11400.3,1381.19 L 11422.5,1381.19 L 11422.5,1419.38 L 11400.3,1419.38 L 11400.3,1381.19 L 11400.3,1381.19 Z "
     id="path294" />
  <path
     stroke="none"
     fill="#000000"
     transform="matrix(0.05 0 0 0.05 -10 -11)"
     d="M 11422.5,1520.85 L 11400.3,1520.85 L 11400.3,1502.04 L 11422.5,1502.04 L 11422.5,1520.85 L 11422.5,1520.85 Z "
     id="path295" />
  <text
     x="0"
     y="0"
     stroke="none"
     fill="#fc8008"
     transform="matrix(0.05 0 0 0.05 567.109 65.2742)"
     font-style="normal"
     font-weight="bold"
     font-size="180px"
     font-family="Helvetica"
     id="text295">
EWG</text>
  <path
     stroke="none"
     fill="#000000"
     transform="matrix(0.05 0 0 0.05 -10 -11)"
     d="M 11526.4,1449.62 L 11526.4,1471.8 L 11302.7,1471.8 L 11302.7,1449.62 L 11526.4,1449.62 Z "
     id="path296" />
  <text
     x="0"
     y="0"
     stroke="none"
     fill="#0000ff"
     transform="matrix(0.05 0 0 0.05 537.348 26.1823)"
     font-style="normal"
     font-weight="bold"
     font-size="240px"
     font-family="Helvetica"
     id="text296">
activated</text>
  <text
     x="0"
     y="0"
     stroke="none"
     fill="#0000ff"
     transform="matrix(0.05 0 0 0.05 530.343 38.824)"
     font-style="normal"
     font-weight="bold"
     font-size="240px"
     font-family="Helvetica"
     id="text297">
aryl </text>
  <text
     x="0"
     y="0"
     stroke="none"
     fill="#0000ff"
     transform="matrix(0.05 0 0 0.05 555.028 38.824)"
     font-style="normal"
     font-weight="bold"
     font-size="240px"
     font-family="Helvetica"
     id="text298">
halides</text>
  <path
     stroke="none"
     fill="#000000"
     transform="matrix(0.05 0 0 0.05 -10 -11)"
     d="M 12647.3,1536.23 L 12081.7,1536.23 L 12081.7,1514.23 L 12647.3,1514.23 Z "
     id="path298" />
  <path
     stroke="none"
     fill="#000000"
     transform="matrix(0.05 0 0 0.05 -10 -11)"
     d="M 12840.3,1525.23 C 12840.3,1525.23 12618.6,1581.67 12618.6,1581.67 C 12618.6,1581.67 12646.3,1549.92 12646.3,1525.23 C 12646.3,1500.1 12618.6,1467.79 12618.6,1467.79 C 12618.6,1467.79 12840.3,1525.23 12840.3,1525.23 C 12840.3,1525.23 12840.3,1525.23 12840.3,1525.23 "
     id="path299" />
  <path
     stroke="#000000"
     stroke-width="1"
     fill="none"
     transform="matrix(0.05 0 0 0.05 -10 -11)"
     d="M 12840.3,1525.23 C 12840.3,1525.23 12618.6,1581.67 12618.6,1581.67 C 12618.6,1581.67 12646.3,1549.92 12646.3,1525.23 C 12646.3,1500.1 12618.6,1467.79 12618.6,1467.79 C 12618.6,1467.79 12840.3,1525.23 12840.3,1525.23 C 12840.3,1525.23 12840.3,1525.23 12840.3,1525.23 "
     id="path300" />
  <text
     x="0"
     y="0"
     stroke="none"
     fill="#0000ff"
     transform="matrix(0.05 0 0 0.05 604.228 58.9922)"
     font-style="normal"
     font-weight="bold"
     font-size="200px"
     font-family="Helvetica"
     id="text300">
Nu</text>
  <text
     x="0"
     y="0"
     stroke="none"
     fill="#000000"
     transform="matrix(0.05 0 0 0.05 596.603 77.053)"
     font-style="normal"
     font-weight="bold"
     font-size="160px"
     font-family="Helvetica"
     id="text301">
CN</text>
  <text
     x="0"
     y="0"
     stroke="none"
     fill="#000000"
     transform="matrix(0.05 0 0 0.05 608.158 74.1741)"
     font-style="normal"
     font-weight="bold"
     font-size="120px"
     font-family="Helvetica"
     id="text302">
-</text>
  <text
     x="0"
     y="0"
     stroke="none"
     fill="#000000"
     transform="matrix(0.05 0 0 0.05 610.156 77.053)"
     font-style="normal"
     font-weight="bold"
     font-size="160px"
     font-family="Helvetica"
     id="text303">
, </text>
  <text
     x="0"
     y="0"
     stroke="none"
     fill="#000000"
     transform="matrix(0.05 0 0 0.05 614.601 77.053)"
     font-style="normal"
     font-weight="bold"
     font-size="160px"
     font-family="Helvetica"
     id="text304">
NH</text>
  <text
     x="0"
     y="0"
     stroke="none"
     fill="#000000"
     transform="matrix(0.05 0 0 0.05 626.156 78.8929)"
     font-style="normal"
     font-weight="bold"
     font-size="120px"
     font-family="Helvetica"
     id="text305">
3</text>
  <path
     stroke="#000000"
     stroke-width="22"
     fill="none"
     transform="matrix(0.05 0 0 0.05 -10 -11)"
     stroke-dasharray="53"
     d="M 10738.7,2092.79 C 10738.7,2092.79 10738.7,618.958 10738.7,618.958 C 10738.7,545.516 10798.3,485.903 10871.7,485.903 C 10871.7,485.903 13806.3,485.903 13806.3,485.903 C 13879.7,485.903 13939.3,545.516 13939.3,618.958 C 13939.3,618.958 13939.3,2092.79 13939.3,2092.79 C 13939.3,2166.23 13879.7,2225.84 13806.3,2225.84 C 13806.3,2225.84 10871.7,2225.84 10871.7,2225.84 C 10798.3,2225.84 10738.7,2166.23 10738.7,2092.79 "
     id="path319" />
  <path
     stroke="none"
     fill="#ffffff"
     opacity="0"
     onclick="window.location.href = 'ccbondformation.svg'"
     transform="matrix(0.05 0 0 0.05 -10 -11)"
     d="M 3398.54,8448.96 C 3398.54,8448.96 3398.54,7784.5 3398.54,7784.5 C 3398.54,7784.5 1826.9,7784.5 1826.9,7784.5 C 1826.9,7784.5 1826.9,8448.96 1826.9,8448.96 C 1826.9,8448.96 3398.54,8448.96 3398.54,8448.96 "
     id="path1"
     inkscape:label="l-ccbond" />
  <path
     stroke="none"
     fill="#ffffff"
     opacity="0"
     onclick="window.location.href = 'ccbondformation.svg'"
     transform="matrix(0.05 0 0 0.05 -10 -11)"
     d="M 15191.9,7771.96 C 15191.9,7771.96 15191.9,8461.5 15191.9,8461.5 C 15191.9,8461.5 13539,8461.5 13539,8461.5 C 13539,8461.5 13539,7771.96 13539,7771.96 C 13539,7771.96 15191.9,7771.96 15191.9,7771.96 "
     id="path3"
     inkscape:label="l-ccbond" />
  <path
     stroke="none"
     fill="#ffffff"
     opacity="0"
     onclick="window.location.href = 'alkenes.svg'"
     transform="matrix(0.05 0 0 0.05 -10 -11)"
     d="M 4089.08,7663.64 C 4089.08,7663.64 4089.08,6660.68 4089.08,6660.68 C 4089.08,6660.68 1489.4,6660.68 1489.4,6660.68 C 1489.4,6660.68 1489.4,7663.64 1489.4,7663.64 C 1489.4,7663.64 4089.08,7663.64 4089.08,7663.64 "
     id="path5"
     inkscape:label="l-alkenes" />
  <path
     stroke="none"
     fill="#ffffff"
     opacity="0"
     onclick="window.location.href = 'alkynes.svg'"
     transform="matrix(0.05 0 0 0.05 -10 -11)"
     d="M 3046.5,3412.08 C 3046.5,3412.08 3046.5,3004.88 3046.5,3004.88 C 3046.5,3004.88 2138.32,3004.88 2138.32,3004.88 C 2138.32,3004.88 2138.32,3412.08 2138.32,3412.08 C 2138.32,3412.08 3046.5,3412.08 3046.5,3412.08 "
     id="path7"
     inkscape:label="l-alkynes" />
  <path
     stroke="none"
     fill="#ffffff"
     opacity="0"
     onclick="window.location.href = 'organometallics.svg'"
     transform="matrix(0.05 0 0 0.05 -10 -11)"
     d="M 11387.1,7555.32 C 11387.1,7555.32 11387.1,2625.76 11387.1,2625.76 C 11387.1,2625.76 6579.44,2625.76 6579.44,2625.76 C 6579.44,2625.76 6579.44,7555.32 6579.44,7555.32 C 6579.44,7555.32 11387.1,7555.32 11387.1,7555.32 "
     id="path9"
     inkscape:label="l-organometallics" />
  <path
     stroke="none"
     fill="#ffffff"
     opacity="0"
     onclick="window.location.href = 'aromatic.svg'"
     transform="matrix(0.05 0 0 0.05 -10 -11)"
     d="M 12822.4,7758.42 C 12822.4,7758.42 12822.4,6674.22 12822.4,6674.22 C 12822.4,6674.22 15380.4,6674.22 15380.4,6674.22 C 15380.4,6674.22 15380.4,7758.42 15380.4,7758.42 C 15380.4,7758.42 12822.4,7758.42 12822.4,7758.42 "
     id="path11"
     inkscape:label="l-aromatic" />
  <path
     stroke="none"
     fill="#ffffff"
     opacity="0"
     onclick="window.location.href = 'amines.svg'"
     transform="matrix(0.05 0 0 0.05 -10 -11)"
     d="M 14041,2044.54 C 14041,2044.54 14041,1000.96 14041,1000.96 C 14041,1000.96 14541,1000.96 14541,1000.96 C 14541,1000.96 14541,2044.54 14541,2044.54 C 14541,2044.54 14041,2044.54 14041,2044.54 "
     id="path15"
     inkscape:label="l-amines" />
  <path
     stroke="none"
     fill="#ffffff"
     opacity="0"
     onclick="window.location.href = 'tonon-alkyl-halides.svg'"
     d="m 5.3601699,250.25314 c 0,0 0,-42.01434 0,-42.01434 0,0 139.9388401,0 139.9388401,0 0,0 0,42.01434 0,42.01434 0,0 -139.9388401,0 -139.9388401,0"
     id="path15-0"
     inkscape:label="l-tovinyliccl"
     style="opacity:0;stroke-width:0.10615" />
  <path
     stroke="none"
     fill="#ffffff"
     opacity="0"
     onclick="window.location.href = 'aromatic.svg'"
     d="m 684.10201,253.79624 c 0,0 0,-42.01434 0,-42.01434 0,0 120.39142,0 120.39142,0 0,0 0,42.01434 0,42.01434 0,0 -120.39142,0 -120.39142,0"
     id="path15-0-9"
     inkscape:label="l-tovinyliccl"
     style="opacity:0;stroke-width:0.0984575" />
  <path
     stroke="none"
     fill="#ffffff"
     opacity="0"
     onclick="window.location.href = 'aromatic.svg'"
     d="m 529.38182,88.704775 c 0,0 0,-73.290216 0,-73.290216 0,0 66.44053,0 66.44053,0 0,0 0,73.290216 0,73.290216 0,0 -66.44053,0 -66.44053,0"
     id="path15-0-9-0"
     inkscape:label="l-tovinyliccl"
     style="opacity:0;stroke-width:0.0966033" />
  <path
     stroke="none"
     fill="#ffffff"
     opacity="0"
     onclick="window.location.href = 'supplement.svg'"
     d="m 265.06116,309.84196 c 0,0 0,-156.95318 0,-156.95318 0,0 37.51034,0 37.51034,0 0,0 0,156.95318 0,156.95318 0,0 -37.51034,0 -37.51034,0"
     id="path15-0-9-0-2"
     inkscape:label="l-supplement"
     style="opacity:0;stroke-width:0.106222" />
  <path
     stroke="none"
     fill="#ffffff"
     opacity="0"
     onclick="window.location.href = 'supplement.svg'"
     d="m 75.393859,198.94019 c 0,0 0,-35.75916 0,-35.75916 0,0 37.510341,0 37.510341,0 0,0 0,35.75916 0,35.75916 0,0 -37.510341,0 -37.510341,0"
     id="path15-0-9-0-2-8"
     inkscape:label="l-supplement"
     style="opacity:0;stroke-width:0.0507018" />
  <path
     stroke="none"
     fill="#ffffff"
     opacity="0"
     onclick="window.location.href = 'supplement.svg'"
     d="m 159.66297,313.00662 c 0,0 0,-25.5945 0,-25.5945 0,0 57.83966,0 57.83966,0 0,0 0,25.5945 0,25.5945 0,0 -57.83966,0 -57.83966,0"
     id="path15-0-9-0-2-8-0"
     inkscape:label="l-supplement"
     style="opacity:0;stroke-width:0.0532648" />
  <path
     stroke="none"
     fill="#ffffff"
     opacity="0"
     onclick="window.location.href = 'supplement.svg'"
     d="m 579.07604,324.15829 c 0,0 0,-173.37301 0,-173.37301 0,0 38.29223,0 38.29223,0 0,0 0,173.37301 0,173.37301 0,0 -38.29223,0 -38.29223,0"
     id="path15-0-9-0-2-8-4"
     inkscape:label="l-supplement"
     style="opacity:0;stroke-width:0.112797" />
  <path
     stroke="none"
     fill="#ffffff"
     opacity="0"
     onclick="window.location.href = 'supplement.svg'"
     d="m 665.67068,310.68501 c 0,0 0,-27.15829 0,-27.15829 0,0 55.49397,0 55.49397,0 0,0 0,27.15829 0,27.15829 0,0 -55.49397,0 -55.49397,0"
     id="path15-0-9-0-2-8-3"
     inkscape:label="l-supplement"
     style="opacity:0;stroke-width:0.0537438" />
  <path
     stroke="none"
     fill="#ffffff"
     opacity="0"
     onclick="window.location.href = 'supplement.svg'"
     d="m 704.85604,203.40048 c 0,0 0,-24.03071 0,-24.03071 0,0 73.4776,0 73.4776,0 0,0 0,24.03071 0,24.03071 0,0 -73.4776,0 -73.4776,0"
     id="path15-0-9-0-2-8-1"
     inkscape:label="l-supplement"
     style="opacity:0;stroke-width:0.0581721" />
  <path
     stroke="none"
     fill="#ffffff"
     opacity="0"
     onclick="window.location.href = 'supplement.svg'"
     d="m 705.72413,127.93154 c 0,0 0,-23.24881 0,-23.24881 0,0 82.07846,0 82.07846,0 0,0 0,23.24881 0,23.24881 0,0 -82.07846,0 -82.07846,0"
     id="path15-0-9-0-2-8-2"
     inkscape:label="l-supplement"
     style="opacity:0;stroke-width:0.0604741" />
  <path
     stroke="none"
     fill="#ffffff"
     opacity="0"
     onclick="window.location.href = 'supplement.svg'"
     d="m 595.0732,82.458254 c 0,0 0,-35.75916 0,-35.75916 0,0 36.72844,0 36.72844,0 0,0 0,35.75916 0,35.75916 0,0 -36.72844,0 -36.72844,0"
     id="path15-0-9-0-2-8-2-5"
     inkscape:label="l-supplement"
     style="opacity:0;stroke-width:0.0501705" />
  <path
     stroke="none"
     fill="#ffffff"
     opacity="0"
     onclick="window.location.href = 'toorganometallics.svg'"
     d="m 735.59315,304.21268 c 0,0 0,-14.64794 0,-14.64794 0,0 32.03706,0 32.03706,0 0,0 0,14.64794 0,14.64794 0,0 -32.03706,0 -32.03706,0"
     id="path15-0-9-0-2-8-2-8"
     inkscape:label="l-supplement"
     style="opacity:0;stroke-width:0.0299895" />
  <path
     stroke="none"
     fill="#ffffff"
     opacity="0"
     onclick="window.location.href = 'toorganometallics.svg'"
     d="m 89.860915,303.49965 c 0,0 0,-14.64794 0,-14.64794 0,0 32.037065,0 32.037065,0 0,0 0,14.64794 0,14.64794 0,0 -32.037065,0 -32.037065,0"
     id="path15-0-9-0-2-8-2-8-6"
     inkscape:label="l-supplement"
     style="opacity:0;stroke-width:0.0299895" />
  <g
     id="noreagents"
     onclick="window.location.href = 'non-alkyl-halides-noreagents.svg'"
     transform="translate(-4.6856272,378.9067)">
    <text
       x="11.200497"
       y="54.141506"
       stroke="none"
       fill="#000000"
       font-style="normal"
       font-weight="bold"
       font-size="200px"
       font-family="Helvetica"
       id="gobacktext-7"
       style="font-style:normal;font-weight:bold;font-size:10px;font-family:Helvetica;fill:#000000;fill-opacity:0.443609;stroke:none;stroke-width:0.05"
       inkscape:label="noreagents-text"><tspan
         sodipodi:role="line"
         id="tspan2"
         x="11.200497"
         y="54.141506"
         style="font-style:normal;font-variant:normal;font-weight:bold;font-stretch:normal;font-size:8px;font-family:Helvetica;-inkscape-font-specification:'Helvetica, Bold';font-variant-ligatures:normal;font-variant-caps:normal;font-variant-numeric:normal;font-variant-east-asian:normal;fill:#000000;fill-opacity:0.5;stroke-width:0.05">reagents</tspan></text>
    <rect
       style="fill:#000000;fill-opacity:0.821053;fill-rule:evenodd;stroke:#a13033;stroke-width:0;stroke-linecap:round;stroke-miterlimit:2;stroke-dasharray:none;paint-order:markers fill stroke"
       id="rect3"
       width="31.666824"
       height="0.9773711"
       x="12.224979"
       y="51.518982"
       inkscape:label="noreagents-line" />
    <path
       stroke="none"
       fill="#999999"
       d="m 9.795,54.694678 c 0,0 0,-5.427567 0,-5.427567 0,-2.098514 1.463398,-3.801611 3.266274,-3.801611 0,0 30.608907,0 30.608907,0 1.803073,0 3.266397,1.703097 3.266397,3.801611 0,0 0,5.427567 0,5.427567 0,2.098514 -1.463324,3.801611 -3.266397,3.801611 0,0 -30.608907,0 -30.608907,0 -1.802876,0 -3.266274,-1.703097 -3.266274,-3.801611"
       id="goback-box-8"
       style="fill:#999999;fill-opacity:0.336842;stroke-width:0.0264832"
       inkscape:label="noreagents-box" />
  </g>
  <g
     id="nonames"
     onclick="window.location.href = 'non-alkyl-halides.svg'"
     transform="matrix(0.85780308,0,0,1,-3.2442635,382.9067)">
    <text
       x="18.441887"
       y="69.010506"
       stroke="none"
       fill="#000000"
       font-style="normal"
       font-weight="bold"
       font-size="200px"
       font-family="Helvetica"
       id="gobacktext-7-8"
       style="font-style:normal;font-variant:normal;font-weight:bold;font-stretch:normal;font-size:10px;font-family:Helvetica;-inkscape-font-specification:'Helvetica, Bold';font-variant-ligatures:normal;font-variant-caps:normal;font-variant-numeric:normal;font-variant-east-asian:normal;fill:#0088d0;fill-opacity:0.675806;stroke:none;stroke-width:0.05"
       inkscape:label="noproducts-text"><tspan
         sodipodi:role="line"
         id="tspan1"
         x="18.441887"
         y="69.010506">show</tspan></text>
    <path
       stroke="none"
       fill="#999999"
       d="m 10.136392,68.163695 c 0,0 0,-5.427567 0,-5.427567 0,-2.098514 1.679048,-3.801611 3.747601,-3.801611 0,0 35.119514,0 35.119514,0 2.068778,0 3.747742,1.703097 3.747742,3.801611 0,0 0,5.427567 0,5.427567 0,2.098514 -1.678964,3.801611 -3.747742,3.801611 0,0 -35.119514,0 -35.119514,0 -2.068553,0 -3.747601,-1.703097 -3.747601,-3.801611"
       id="goback-box-8-6"
       style="fill:#999999;fill-opacity:0.336842;stroke-width:0.0283675"
       inkscape:label="noproducts-box" />
  </g>
  <text
     x="822.84332"
     y="415.79849"
     stroke="none"
     fill="#000000"
     transform="matrix(0.92407999,-0.00322566,0.00377741,1.0821442,0,0)"
     font-style="italic"
     font-weight="bold"
     font-size="8.25806px"
     font-family="'Helvetica Oblique'"
     id="text11"
     style="opacity:1;fill:#00009a;fill-opacity:0.651128;stroke-width:0.0412903">chemisfun</text>
  <g
     id="overlay-box"
     style="opacity:0"
     transform="matrix(0.31364504,0,0,0.8007311,650.50736,385.81436)">
    <rect
       style="fill:#609975;fill-opacity:0.2;stroke:#609970;stroke-width:0;stroke-linecap:round;stroke-opacity:0.657143;paint-order:fill markers stroke"
       id="rect285"
       width="164.84744"
       height="59.583412"
       x="329.69489"
       y="23.171328" />
  </g>
  <g
     id="overlay"
     onclick="window.location.href = 'about.svg'"
     onmouseover="this.ownerDocument.getElementById('overlay-box').style.opacity='0.5'"
     onmouseout="this.ownerDocument.getElementById('overlay-box').style.opacity='0'"
     transform="matrix(0.76550767,-0.0030054,0.00267214,0.86098131,195.61318,22.784653)">
    <rect
       style="opacity:0.5;fill:#ffffff;fill-opacity:0;stroke-linecap:round;stroke-opacity:0.657143;paint-order:stroke fill markers"
       id="rect2"
       width="65.93074"
       height="55.035408"
       x="733.06049"
       y="445.87061" />
  </g>
  <g
     id="g1"
     transform="matrix(0.0625,0,0,0.0625,764.65732,406.62566)">
    <rect
       x="239.31"
       y="120.321"
       style="fill:#444242"
       width="33.389"
       height="139.98"
       id="rect1" />
    <rect
       x="256"
       y="120.321"
       style="fill:#3a3839"
       width="16.695"
       height="139.98"
       id="rect2-2" />
    <rect
       x="132.194"
       y="305.86301"
       transform="matrix(0.5,0.866,-0.866,0.5,399.932,58.9793)"
       style="fill:#444242"
       width="33.387001"
       height="139.967"
       id="rect4" />
    <rect
       x="293.125"
       y="359.13"
       transform="matrix(0.866,0.5,-0.5,0.866,236.5654,-131.205)"
       style="fill:#3a3839"
       width="139.967"
       height="33.387001"
       id="rect5" />
    <path
       style="background-color:#ffffff00;fill:#439de2;fill-opacity:1"
       d="m 456.843,485.07 c -9.538,0 -18.951,-2.501 -27.432,-7.398 v 0 c -12.733,-7.351 -21.842,-19.221 -25.646,-33.424 -3.805,-14.201 -1.853,-29.035 5.499,-41.769 7.351,-12.732 19.221,-21.841 33.424,-25.646 14.201,-3.806 29.034,-1.853 41.769,5.499 12.732,7.351 21.841,19.221 25.646,33.424 3.805,14.202 1.853,29.035 -5.499,41.769 -7.351,12.733 -19.221,21.842 -33.424,25.646 -4.742,1.27 -9.557,1.899 -14.337,1.899 z"
       id="path7-3" />
    <path
       style="background-color:#ffffff00;fill:#eda74a;fill-opacity:1"
       d="m 256.001,137.021 c -30.352,0 -55.044,-24.693 -55.044,-55.044 0,-30.351 24.693,-55.044 55.044,-55.044 30.351,0 55.044,24.693 55.044,55.044 0,30.351 -24.693,55.044 -55.044,55.044 z"
       id="path5-4" />
    <path
       style="background-color:#ffffff00;fill:#53acb1;fill-opacity:1"
       d="m 55.158,485.07 c -4.781,0 -9.594,-0.629 -14.336,-1.9 C 26.619,479.365 14.75,470.256 7.398,457.524 0.046,444.792 -1.906,429.957 1.899,415.755 c 3.805,-14.203 12.914,-26.072 25.646,-33.424 12.731,-7.352 27.567,-9.304 41.769,-5.499 14.203,3.805 26.072,12.914 33.424,25.646 7.352,12.732 9.304,27.567 5.499,41.769 -3.805,14.203 -12.914,26.072 -25.646,33.424 -8.481,4.897 -17.896,7.399 -27.433,7.399 z"
       id="path6-7" />
    <path
       style="fill:#f74d37"
       d="m 256.001,384.379 c -38.81,0 -70.384,-31.575 -70.384,-70.384 0,-38.809 31.575,-70.384 70.384,-70.384 38.809,0 70.384,31.575 70.384,70.384 0,38.809 -31.575,70.384 -70.384,70.384 z"
       id="path4-9" />
  </g>
</svg>
