<?xml version="1.0" encoding="UTF-8" standalone="no"?>
<svg
   width="100%"
   height="100%"
   viewBox="0 0 818 460"
   style="background-color: #ffffff00"
   version="1.1"
   id="svg292"
   sodipodi:docname="organometallics-noproducts.svg"
   inkscape:version="1.4.2 (ebf0e940, 2025-05-08)"
   xmlns:inkscape="http://www.inkscape.org/namespaces/inkscape"
   xmlns:sodipodi="http://sodipodi.sourceforge.net/DTD/sodipodi-0.dtd"
   xmlns="http://www.w3.org/2000/svg"
   xmlns:svg="http://www.w3.org/2000/svg">
  <path
     stroke="#ffffff"
     stroke-width="1"
     fill="none"
     transform="matrix(0.05 0 0 0.05 -10 -11)"
     d="M 5320.38,2400.84 C 5320.38,2400.84 5320.38,1110.5 5320.38,1110.5 C 5320.38,1110.5 4445,1110.5 4445,1110.5 C 4445,1110.5 4445,2400.84 4445,2400.84 C 4445,2400.84 5320.38,2400.84 5320.38,2400.84 "
     id="path6" />
  <path
     stroke="#ffffff"
     stroke-width="1"
     fill="none"
     transform="matrix(0.05 0 0 0.05 -10 -11)"
     d="M 10092.4,2400.84 C 10092.4,2400.84 10092.4,1406.9 10092.4,1406.9 C 10092.4,1406.9 9320.78,1406.9 9320.78,1406.9 C 9320.78,1406.9 9320.78,2400.84 9320.78,2400.84 C 9320.78,2400.84 10092.4,2400.84 10092.4,2400.84 "
     id="path12" />
  <path
     stroke="none"
     fill="#ffffff"
     transform="matrix(0.05 0 0 0.05 -10 -11)"
     d="M 3038.1,3541.98 C 3038.1,3541.98 3038.1,2607.32 3038.1,2607.32 C 3038.1,2607.32 2073.8,2607.32 2073.8,2607.32 C 2073.8,2607.32 2073.8,3541.98 2073.8,3541.98 C 2073.8,3541.98 3038.1,3541.98 3038.1,3541.98 "
     id="path13" />
  <path
     stroke="#ffffff"
     stroke-width="1"
     fill="none"
     transform="matrix(0.05 0 0 0.05 -10 -11)"
     d="M 3038.1,3541.98 C 3038.1,3541.98 3038.1,2607.32 3038.1,2607.32 C 3038.1,2607.32 2073.8,2607.32 2073.8,2607.32 C 2073.8,2607.32 2073.8,3541.98 2073.8,3541.98 C 2073.8,3541.98 3038.1,3541.98 3038.1,3541.98 "
     id="path14" />
  <path
     stroke="none"
     fill="#ffffff"
     transform="matrix(0.05 0 0 0.05 -10 -11)"
     d="M 4935.06,3245.58 C 4935.06,3245.58 4935.06,2429.48 4935.06,2429.48 C 4935.06,2429.48 3837.38,2429.48 3837.38,2429.48 C 3837.38,2429.48 3837.38,3245.58 3837.38,3245.58 C 3837.38,3245.58 4935.06,3245.58 4935.06,3245.58 "
     id="path15" />
  <path
     stroke="#ffffff"
     stroke-width="1"
     fill="none"
     transform="matrix(0.05 0 0 0.05 -10 -11)"
     d="M 4935.06,3245.58 C 4935.06,3245.58 4935.06,2429.48 4935.06,2429.48 C 4935.06,2429.48 3837.38,2429.48 3837.38,2429.48 C 3837.38,2429.48 3837.38,3245.58 3837.38,3245.58 C 3837.38,3245.58 4935.06,3245.58 4935.06,3245.58 "
     id="path16" />
  <path
     stroke="none"
     fill="#ffffff"
     transform="matrix(0.05 0 0 0.05 -10 -11)"
     d="M 7721.22,3230.76 C 7721.22,3230.76 7721.22,2636.96 7721.22,2636.96 C 7721.22,2636.96 7112.6,2636.96 7112.6,2636.96 C 7112.6,2636.96 7112.6,3230.76 7112.6,3230.76 C 7112.6,3230.76 7721.22,3230.76 7721.22,3230.76 "
     id="path17" />
  <path
     stroke="#ffffff"
     stroke-width="1"
     fill="none"
     transform="matrix(0.05 0 0 0.05 -10 -11)"
     d="M 7721.22,3230.76 C 7721.22,3230.76 7721.22,2636.96 7721.22,2636.96 C 7721.22,2636.96 7112.6,2636.96 7112.6,2636.96 C 7112.6,2636.96 7112.6,3230.76 7112.6,3230.76 C 7112.6,3230.76 7721.22,3230.76 7721.22,3230.76 "
     id="path18" />
  <path
     stroke="none"
     fill="#ffffff"
     transform="matrix(0.05 0 0 0.05 -10 -11)"
     d="M 9514.44,3349.32 C 9514.44,3349.32 9514.44,2622.14 9514.44,2622.14 C 9514.44,2622.14 8653.88,2622.14 8653.88,2622.14 C 8653.88,2622.14 8653.88,3349.32 8653.88,3349.32 C 8653.88,3349.32 9514.44,3349.32 9514.44,3349.32 "
     id="path19" />
  <path
     stroke="#ffffff"
     stroke-width="1"
     fill="none"
     transform="matrix(0.05 0 0 0.05 -10 -11)"
     d="M 9514.44,3349.32 C 9514.44,3349.32 9514.44,2622.14 9514.44,2622.14 C 9514.44,2622.14 8653.88,2622.14 8653.88,2622.14 C 8653.88,2622.14 8653.88,3349.32 8653.88,3349.32 C 8653.88,3349.32 9514.44,3349.32 9514.44,3349.32 "
     id="path20" />
  <path
     stroke="#ffffff"
     stroke-width="1"
     fill="none"
     transform="matrix(0.05 0 0 0.05 -10 -11)"
     d="M 12434,2608.32 C 12434,2608.32 12434,1762.58 12434,1762.58 C 12434,1762.58 11543.8,1762.58 11543.8,1762.58 C 11543.8,1762.58 11543.8,2608.32 11543.8,2608.32 C 11543.8,2608.32 12434,2608.32 12434,2608.32 "
     id="path22" />
  <path
     stroke="none"
     fill="#ffffff"
     transform="matrix(0.05 0 0 0.05 -10 -11)"
     d="M 15635.1,3541.98 C 15635.1,3541.98 15635.1,2740.7 15635.1,2740.7 C 15635.1,2740.7 14759.7,2740.7 14759.7,2740.7 C 14759.7,2740.7 14759.7,3541.98 14759.7,3541.98 C 14759.7,3541.98 15635.1,3541.98 15635.1,3541.98 "
     id="path27" />
  <path
     stroke="#ffffff"
     stroke-width="1"
     fill="none"
     transform="matrix(0.05 0 0 0.05 -10 -11)"
     d="M 15635.1,3541.98 C 15635.1,3541.98 15635.1,2740.7 15635.1,2740.7 C 15635.1,2740.7 14759.7,2740.7 14759.7,2740.7 C 14759.7,2740.7 14759.7,3541.98 14759.7,3541.98 C 14759.7,3541.98 15635.1,3541.98 15635.1,3541.98 "
     id="path28" />
  <path
     stroke="none"
     fill="#ffffff"
     transform="matrix(0.05 0 0 0.05 -10 -11)"
     d="M 13782.6,3868.02 C 13782.6,3868.02 13782.6,2666.6 13782.6,2666.6 C 13782.6,2666.6 12626.6,2666.6 12626.6,2666.6 C 12626.6,2666.6 12626.6,3868.02 12626.6,3868.02 C 12626.6,3868.02 13782.6,3868.02 13782.6,3868.02 "
     id="path29" />
  <path
     stroke="#ffffff"
     stroke-width="1"
     fill="none"
     transform="matrix(0.05 0 0 0.05 -10 -11)"
     d="M 13782.6,3868.02 C 13782.6,3868.02 13782.6,2666.6 13782.6,2666.6 C 13782.6,2666.6 12626.6,2666.6 12626.6,2666.6 C 12626.6,2666.6 12626.6,3868.02 12626.6,3868.02 C 12626.6,3868.02 13782.6,3868.02 13782.6,3868.02 "
     id="path30" />
  <path
     stroke="none"
     fill="#ffffff"
     transform="matrix(0.05 0 0 0.05 -10 -11)"
     d="M 11900.5,3793.92 C 11900.5,3793.92 11900.5,2860.26 11900.5,2860.26 C 11900.5,2860.26 10965.8,2860.26 10965.8,2860.26 C 10965.8,2860.26 10965.8,3793.92 10965.8,3793.92 C 10965.8,3793.92 11900.5,3793.92 11900.5,3793.92 "
     id="path31" />
  <path
     stroke="#ffffff"
     stroke-width="1"
     fill="none"
     transform="matrix(0.05 0 0 0.05 -10 -11)"
     d="M 11900.5,3793.92 C 11900.5,3793.92 11900.5,2860.26 11900.5,2860.26 C 11900.5,2860.26 10965.8,2860.26 10965.8,2860.26 C 10965.8,2860.26 10965.8,3793.92 10965.8,3793.92 C 10965.8,3793.92 11900.5,3793.92 11900.5,3793.92 "
     id="path32" />
  <path
     stroke="none"
     fill="#ffffff"
     transform="matrix(0.05 0 0 0.05 -10 -11)"
     d="M 12152.4,5720.52 C 12152.4,5720.52 12152.4,6416.06 12152.4,6416.06 C 12152.4,6416.06 15575.8,6416.06 15575.8,6416.06 C 15575.8,6416.06 15575.8,5720.52 15575.8,5720.52 C 15575.8,5720.52 12152.4,5720.52 12152.4,5720.52 "
     id="path33" />
  <path
     stroke="#ffffff"
     stroke-width="1"
     fill="none"
     transform="matrix(0.05 0 0 0.05 -10 -11)"
     d="M 12152.4,5720.52 C 12152.4,5720.52 12152.4,6416.06 12152.4,6416.06 C 12152.4,6416.06 15575.8,6416.06 15575.8,6416.06 C 15575.8,6416.06 15575.8,5720.52 15575.8,5720.52 C 15575.8,5720.52 12152.4,5720.52 12152.4,5720.52 "
     id="path34" />
  <path
     stroke="#ffffff"
     stroke-width="1"
     fill="none"
     transform="matrix(0.05 0 0 0.05 -10 -11)"
     d="M 9277.32,7009.86 C 9277.32,7009.86 9277.32,7809.14 9277.32,7809.14 C 9277.32,7809.14 10165.5,7809.14 10165.5,7809.14 C 10165.5,7809.14 10165.5,7009.86 10165.5,7009.86 C 10165.5,7009.86 9277.32,7009.86 9277.32,7009.86 "
     id="path38" />
  <path
     stroke="none"
     fill="#ffffff"
     transform="matrix(0.05 0 0 0.05 -10 -11)"
     d="M 9633,6076.2 C 9633,6076.2 9633,5349.02 9633,5349.02 C 9633,5349.02 8802.08,5349.02 8802.08,5349.02 C 8802.08,5349.02 8802.08,6076.2 8802.08,6076.2 C 8802.08,6076.2 9633,6076.2 9633,6076.2 "
     id="path39" />
  <path
     stroke="#ffffff"
     stroke-width="1"
     fill="none"
     transform="matrix(0.05 0 0 0.05 -10 -11)"
     d="M 9633,6076.2 C 9633,6076.2 9633,5349.02 9633,5349.02 C 9633,5349.02 8802.08,5349.02 8802.08,5349.02 C 8802.08,5349.02 8802.08,6076.2 8802.08,6076.2 C 8802.08,6076.2 9633,6076.2 9633,6076.2 "
     id="path40" />
  <path
     stroke="none"
     fill="#ffffff"
     transform="matrix(0.05 0 0 0.05 -10 -11)"
     d="M 8121.36,5928 C 8121.36,5928 8121.36,6564.26 8121.36,6564.26 C 8121.36,6564.26 7142.24,6564.26 7142.24,6564.26 C 7142.24,6564.26 7142.24,5928 7142.24,5928 C 7142.24,5928 8121.36,5928 8121.36,5928 "
     id="path43" />
  <path
     stroke="#ffffff"
     stroke-width="1"
     fill="none"
     transform="matrix(0.05 0 0 0.05 -10 -11)"
     d="M 8121.36,5928 C 8121.36,5928 8121.36,6564.26 8121.36,6564.26 C 8121.36,6564.26 7142.24,6564.26 7142.24,6564.26 C 7142.24,6564.26 7142.24,5928 7142.24,5928 C 7142.24,5928 8121.36,5928 8121.36,5928 "
     id="path44" />
  <path
     stroke="#ffffff"
     stroke-width="1"
     fill="none"
     transform="matrix(0.05 0 0 0.05 -10 -11)"
     d="M 3779.1,7543.38 C 3779.1,7543.38 3779.1,6697.64 3779.1,6697.64 C 3779.1,6697.64 5082.26,6697.64 5082.26,6697.64 C 5082.26,6697.64 5082.26,7543.38 5082.26,7543.38 C 5082.26,7543.38 3779.1,7543.38 3779.1,7543.38 "
     id="path46" />
  <path
     stroke="#000000"
     stroke-width="22"
     fill="none"
     transform="matrix(0.05 0 0 0.05 -10 -11)"
     d="M 16494.7,9367.47 C 16494.7,9367.47 16494.7,284.602 16494.7,284.602 C 16494.7,284.602 268.683,284.602 268.683,284.602 C 268.683,284.602 268.683,9367.47 268.683,9367.47 C 268.683,9367.47 16494.7,9367.47 16494.7,9367.47 "
     id="path49" />
  <text
     x="0"
     y="0"
     stroke="none"
     fill="#000000"
     transform="matrix(0.05 0 0 0.05 11.735 21.13)"
     font-style="normal"
     font-weight="bold"
     font-size="320px"
     font-family="Helvetica"
     id="text49">
Organometallic Reagents - Reactions</text>
  <text
     x="0"
     y="0"
     stroke="none"
     fill="#999999"
     transform="matrix(0.05 0 0 0.05 11.9381 39.085)"
     font-style="normal"
     font-weight="normal"
     font-size="320px"
     font-family="Helvetica"
     id="text53">
click for more</text>
  <g
     id="goback"
     onclick="window.location.href = 'index.svg'"
     onmouseover="document.getElementById('goback-box').setAttribute('opacity','0.5');"
     onmouseout="document.getElementById('goback-box').setAttribute('opacity','1')">
    <path
       stroke="none"
       fill="#999999"
       transform="matrix(0.05 0 0 0.05 -10 -11)"
       d="M 395.9,1492.34 C 395.9,1492.34 395.9,1302.37 395.9,1302.37 C 395.9,1228.92 455.513,1169.31 528.955,1169.31 C 528.955,1169.31 1775.84,1169.31 1775.84,1169.31 C 1849.29,1169.31 1908.9,1228.92 1908.9,1302.37 C 1908.9,1302.37 1908.9,1492.34 1908.9,1492.34 C 1908.9,1565.79 1849.29,1625.4 1775.84,1625.4 C 1775.84,1625.4 528.955,1625.4 528.955,1625.4 C 455.513,1625.4 395.9,1565.79 395.9,1492.34 "
       id="goback-box" />
    <text
       x="0"
       y="0"
       stroke="none"
       fill="#000000"
       transform="matrix(0.05 0 0 0.05 29.3796 61.765)"
       font-style="normal"
       font-weight="bold"
       font-size="200px"
       font-family="Helvetica"
       id="gobacktext">
go home</text>
    <path
       stroke="#999999"
       stroke-width="1"
       transform="matrix(0.05 0 0 0.05 -10 -11)"
       d="M 395.9,1492.34 C 395.9,1492.34 395.9,1302.37 395.9,1302.37 C 395.9,1228.92 455.513,1169.31 528.955,1169.31 C 528.955,1169.31 1775.84,1169.31 1775.84,1169.31 C 1849.29,1169.31 1908.9,1228.92 1908.9,1302.37 C 1908.9,1302.37 1908.9,1492.34 1908.9,1492.34 C 1908.9,1565.79 1849.29,1625.4 1775.84,1625.4 C 1775.84,1625.4 528.955,1625.4 528.955,1625.4 C 455.513,1625.4 395.9,1565.79 395.9,1492.34 "
       onclick="history.back()"
       style="opacity:0"
       id="goback-link" />
  </g>
  <g
     id="howtomake"
     onclick="window.location.href = 'toorganometallics.svg'"
     onmouseover="document.getElementById('howtomake-box').setAttribute('opacity','0.5');"
     onmouseout="document.getElementById('howtomake-box').setAttribute('opacity','1')">
    <path
       stroke="none"
       fill="#999999"
       transform="matrix(0.05 0 0 0.05 -10 -11)"
       d="M 381.591,2007.46 C 381.591,2007.46 381.591,1817.48 381.591,1817.48 C 381.591,1744.04 441.204,1684.42 514.647,1684.42 C 514.647,1684.42 1761.54,1684.42 1761.54,1684.42 C 1834.98,1684.42 1894.59,1744.04 1894.59,1817.48 C 1894.59,1817.48 1894.59,2007.46 1894.59,2007.46 C 1894.59,2080.9 1834.98,2140.51 1761.54,2140.51 C 1761.54,2140.51 514.647,2140.51 514.647,2140.51 C 441.204,2140.51 381.591,2080.9 381.591,2007.46 "
       id="howtomake-box" />
    <text
       x="0"
       y="0"
       stroke="none"
       fill="#000000"
       transform="matrix(0.05 0 0 0.05 17.275 87.5206)"
       font-style="normal"
       font-weight="bold"
       font-size="200px"
       font-family="Helvetica"
       id="howtomaketext">
how to make</text>
    <path
       stroke="#999999"
       stroke-width="1"
       transform="matrix(0.05 0 0 0.05 -10 -11)"
       d="M 381.591,2007.46 C 381.591,2007.46 381.591,1817.48 381.591,1817.48 C 381.591,1744.04 441.204,1684.42 514.647,1684.42 C 514.647,1684.42 1761.54,1684.42 1761.54,1684.42 C 1834.98,1684.42 1894.59,1744.04 1894.59,1817.48 C 1894.59,1817.48 1894.59,2007.46 1894.59,2007.46 C 1894.59,2080.9 1834.98,2140.51 1761.54,2140.51 C 1761.54,2140.51 514.647,2140.51 514.647,2140.51 C 441.204,2140.51 381.591,2080.9 381.591,2007.46 "
       style="opacity:0"
       id="howtomake-link" />
  </g>
  <path
     stroke="none"
     fill="#000000"
     transform="matrix(0.05 0 0 0.05 -10 -11)"
     d="M 15758.6,3951.23 L 12012,3951.23 L 12012,3929.23 L 15758.6,3929.23 Z "
     id="path57" />
  <path
     stroke="none"
     fill="#000000"
     transform="matrix(0.05 0 0 0.05 -10 -11)"
     d="M 13874.3,4379.79 L 13874.3,3940.23 L 13896.3,3940.23 L 13896.3,4379.79 Z "
     id="path58" />
  <text
     x="0"
     y="0"
     stroke="none"
     fill="#0000ff"
     transform="matrix(0.05 0 0 0.05 610.244 228.261)"
     font-style="normal"
     font-weight="bold"
     font-size="280px"
     font-family="Helvetica"
     id="text58">
Gilman</text>
  <text
     x="0"
     y="0"
     stroke="none"
     fill="#0000ff"
     transform="matrix(0.05 0 0 0.05 604.793 243.278)"
     font-style="normal"
     font-weight="bold"
     font-size="280px"
     font-family="Helvetica"
     id="text59">
reagents</text>
  <path
     stroke="none"
     fill="#000000"
     transform="matrix(0.05 0 0 0.05 -10 -11)"
     d="M 2637.04,3065.15 L 2637.04,3039.49 L 2901.97,3193.03 L 2890.89,3212.23 L 2637.04,3065.15 Z "
     id="path66" />
  <path
     stroke="none"
     fill="#000000"
     transform="matrix(0.05 0 0 0.05 -10 -11)"
     d="M 2383.19,3212.23 L 2372.1,3193.03 L 2637.04,3039.49 L 2637.04,3065.15 L 2383.19,3212.23 Z "
     id="path67" />
  <text
     x="0"
     y="0"
     stroke="none"
     fill="#000000"
     transform="matrix(0.05 0 0 0.05 118.352 129.906)"
     font-style="normal"
     font-weight="bold"
     font-size="180px"
     font-family="Helvetica"
     id="text67">
O</text>
  <path
     stroke="none"
     fill="#000000"
     transform="matrix(0.05 0 0 0.05 -10 -11)"
     d="M 2620.41,3068.87 L 2598.23,3068.87 L 2598.23,2853.84 L 2620.41,2853.84 L 2620.41,3068.87 Z "
     id="path68" />
  <path
     stroke="none"
     fill="#000000"
     transform="matrix(0.05 0 0 0.05 -10 -11)"
     d="M 2675.85,3068.87 L 2653.67,3068.87 L 2653.67,2853.84 L 2675.85,2853.84 L 2675.85,3068.87 Z "
     id="path69" />
  <text
     x="0"
     y="0"
     stroke="none"
     fill="#0000ff"
     transform="matrix(0.05 0 0 0.05 292.859 228.899)"
     font-style="normal"
     font-weight="bold"
     font-size="200px"
     font-family="Helvetica"
     id="text73">
R</text>
  <text
     x="0"
     y="0"
     stroke="none"
     fill="#000000"
     transform="matrix(0.05 0 0 0.05 300.081 228.899)"
     font-style="normal"
     font-weight="bold"
     font-size="200px"
     font-family="Helvetica"
     id="text74">
MgX</text>
  <text
     x="0"
     y="0"
     stroke="none"
     fill="#000000"
     transform="matrix(0.05 0 0 0.05 94.1255 160.596)"
     font-style="normal"
     font-weight="bold"
     font-size="160px"
     font-family="Helvetica"
     id="text77">
or </text>
  <text
     x="0"
     y="0"
     stroke="none"
     fill="#000000"
     transform="matrix(0.05 0 0 0.05 104.348 160.596)"
     font-style="normal"
     font-weight="bold"
     font-size="160px"
     font-family="Helvetica"
     id="text78">
aldehyde</text>
  <path
     stroke="none"
     fill="#000000"
     transform="matrix(0.05 0 0 0.05 -10 -11)"
     d="M 8899.91,3267.04 L 8888.82,3247.84 L 9066.73,3145.13 L 9077.81,3164.33 L 8899.91,3267.04 Z "
     id="path78" />
  <text
     x="0"
     y="0"
     stroke="none"
     fill="#000000"
     transform="matrix(0.05 0 0 0.05 444.438 147.623)"
     font-style="normal"
     font-weight="bold"
     font-size="180px"
     font-family="Helvetica"
     id="text79">
C</text>
  <text
     x="0"
     y="0"
     stroke="none"
     fill="#000000"
     transform="matrix(0.05 0 0 0.05 457.408 140.135)"
     font-style="normal"
     font-weight="bold"
     font-size="180px"
     font-family="Helvetica"
     id="text80">
N</text>
  <path
     stroke="none"
     fill="#000000"
     transform="matrix(0.05 0 0 0.05 -10 -11)"
     d="M 9214.59,3021.34 L 9203.51,3002.14 L 9286.34,2954.31 L 9297.43,2973.52 L 9214.59,3021.34 Z "
     id="path80" />
  <path
     stroke="none"
     fill="#000000"
     transform="matrix(0.05 0 0 0.05 -10 -11)"
     d="M 9242.31,3069.36 L 9231.23,3050.15 L 9314.06,3002.33 L 9325.15,3021.53 L 9242.31,3069.36 Z "
     id="path81" />
  <path
     stroke="none"
     fill="#000000"
     transform="matrix(0.05 0 0 0.05 -10 -11)"
     d="M 9270.03,3117.37 L 9258.94,3098.16 L 9341.78,3050.34 L 9352.87,3069.54 L 9270.03,3117.37 Z "
     id="path82" />
  <path
     stroke="none"
     fill="#000000"
     transform="matrix(0.05 0 0 0.05 -10 -11)"
     d="M 4200.34,2949.19 L 4200.3,2923.52 L 4381.9,3029.2 L 4370.81,3048.4 L 4200.34,2949.19 Z "
     id="path83" />
  <text
     x="0"
     y="0"
     stroke="none"
     fill="#107f01"
     transform="matrix(0.05 0 0 0.05 209.474 146.579)"
     font-style="normal"
     font-weight="bold"
     font-size="180px"
     font-family="Helvetica"
     id="text83">
OCH</text>
  <text
     x="0"
     y="0"
     stroke="none"
     fill="#107f01"
     transform="matrix(0.05 0 0 0.05 229.473 148.648)"
     font-style="normal"
     font-weight="bold"
     font-size="135px"
     font-family="Helvetica"
     id="text84">
3</text>
  <path
     stroke="none"
     fill="#000000"
     transform="matrix(0.05 0 0 0.05 -10 -11)"
     d="M 3946.24,3096.4 L 3935.16,3077.19 L 4200.3,2923.52 L 4200.34,2949.19 L 3946.24,3096.4 Z "
     id="path84" />
  <text
     x="0"
     y="0"
     stroke="none"
     fill="#000000"
     transform="matrix(0.05 0 0 0.05 196.504 124.115)"
     font-style="normal"
     font-weight="bold"
     font-size="180px"
     font-family="Helvetica"
     id="text85">
O</text>
  <path
     stroke="none"
     fill="#000000"
     transform="matrix(0.05 0 0 0.05 -10 -11)"
     d="M 4183.46,2953.04 L 4161.28,2953.04 L 4161.28,2738 L 4183.46,2738 L 4183.46,2953.04 Z "
     id="path85" />
  <path
     stroke="none"
     fill="#000000"
     transform="matrix(0.05 0 0 0.05 -10 -11)"
     d="M 4238.9,2953.04 L 4216.72,2953.04 L 4216.72,2738 L 4238.9,2738 L 4238.9,2953.04 Z "
     id="path86" />
  <text
     x="0"
     y="0"
     stroke="none"
     fill="#000000"
     transform="matrix(0.05 0 0 0.05 169.861 159.738)"
     font-style="normal"
     font-weight="bold"
     font-size="160px"
     font-family="Helvetica"
     id="text86">
or </text>
  <text
     x="0"
     y="0"
     stroke="none"
     fill="#000000"
     transform="matrix(0.05 0 0 0.05 180.083 159.738)"
     font-style="normal"
     font-weight="bold"
     font-size="160px"
     font-family="Helvetica"
     id="text87">
acid </text>
  <text
     x="0"
     y="0"
     stroke="none"
     fill="#000000"
     transform="matrix(0.05 0 0 0.05 198.314 159.738)"
     font-style="normal"
     font-weight="bold"
     font-size="160px"
     font-family="Helvetica"
     id="text88">
chloride</text>
  <text
     x="0"
     y="0"
     stroke="none"
     fill="#000000"
     transform="matrix(0.05 0 0 0.05 180.978 167.866)"
     font-style="normal"
     font-weight="bold"
     font-size="160px"
     font-family="Helvetica"
     id="text89">
or </text>
  <text
     x="0"
     y="0"
     stroke="none"
     fill="#000000"
     transform="matrix(0.05 0 0 0.05 191.201 167.866)"
     font-style="normal"
     font-weight="bold"
     font-size="160px"
     font-family="Helvetica"
     id="text90">
anhydride</text>
  <path
     stroke="none"
     fill="#000000"
     transform="matrix(0.05 0 0 0.05 -10 -11)"
     d="M 7326.52,2952.65 L 7281.05,2951.65 L 7583.96,2786.26 L 7560.2,2825.06 L 7326.52,2952.65 Z "
     id="path98" />
  <text
     x="0"
     y="0"
     stroke="none"
     fill="#000000"
     transform="matrix(0.05 0 0 0.05 364.635 147.612)"
     font-style="normal"
     font-weight="bold"
     font-size="180px"
     font-family="Helvetica"
     id="text98">
O</text>
  <path
     stroke="none"
     fill="#000000"
     transform="matrix(0.05 0 0 0.05 -10 -11)"
     d="M 7281.05,2951.65 L 7326.52,2952.65 L 7486.39,3047.95 L 7474.85,3066.89 L 7281.05,2951.65 Z "
     id="path99" />
  <path
     stroke="none"
     fill="#000000"
     transform="matrix(0.05 0 0 0.05 -10 -11)"
     d="M 7576.13,3009.78 L 7553.96,3009.25 L 7560.2,2825.06 L 7583.96,2786.26 L 7576.13,3009.78 Z "
     id="path100" />
  <path
     stroke="none"
     fill="#000000"
     transform="matrix(0.05 0 0 0.05 -10 -11)"
     d="M 11590.2,3081.37 L 11600.6,3075.08 L 11611,3081.37 L 11611.7,3278.58 L 11589.5,3278.58 L 11590.2,3081.37 Z "
     id="path104" />
  <text
     x="0"
     y="0"
     stroke="none"
     fill="#107f01"
     transform="matrix(0.05 0 0 0.05 566.781 160.969)"
     font-style="normal"
     font-weight="bold"
     font-size="180px"
     font-family="Helvetica"
     id="text104">
Br</text>
  <path
     stroke="none"
     fill="#000000"
     transform="matrix(0.05 0 0 0.05 -10 -11)"
     d="M 11335.7,2934.92 L 11346.8,2915.71 L 11600.6,3062.8 L 11600.6,3075.08 L 11590.2,3081.37 L 11335.7,2934.92 Z "
     id="path105" />
  <path
     stroke="none"
     fill="#000000"
     transform="matrix(0.05 0 0 0.05 -10 -11)"
     d="M 11611,3081.37 L 11600.6,3075.08 L 11600.6,3062.8 L 11854.5,2915.71 L 11865.6,2934.92 L 11611,3081.37 Z "
     id="path106" />
  <text
     x="0"
     y="0"
     stroke="none"
     fill="#0000ff"
     transform="matrix(0.05 0 0 0.05 667.778 233.869)"
     font-style="normal"
     font-weight="bold"
     font-size="200px"
     font-family="Helvetica"
     id="text106">
R</text>
  <text
     x="0"
     y="0"
     stroke="none"
     fill="#000000"
     transform="matrix(0.05 0 0 0.05 675 236.169)"
     font-style="normal"
     font-weight="bold"
     font-size="150px"
     font-family="Helvetica"
     id="text107">
2</text>
  <text
     x="0"
     y="0"
     stroke="none"
     fill="#000000"
     transform="matrix(0.05 0 0 0.05 679.171 233.869)"
     font-style="normal"
     font-weight="bold"
     font-size="200px"
     font-family="Helvetica"
     id="text108">
CuLi</text>
  <path
     stroke="none"
     fill="#000000"
     transform="matrix(0.05 0 0 0.05 -10 -11)"
     d="M 15245.6,3279.78 L 15245.5,3254.11 L 15430.4,3361.66 L 15419.3,3380.86 L 15245.6,3279.78 Z "
     id="path108" />
  <text
     x="0"
     y="0"
     stroke="none"
     fill="#107f01"
     transform="matrix(0.05 0 0 0.05 761.987 163.108)"
     font-style="normal"
     font-weight="bold"
     font-size="180px"
     font-family="Helvetica"
     id="text109">
Cl</text>
  <path
     stroke="none"
     fill="#000000"
     transform="matrix(0.05 0 0 0.05 -10 -11)"
     d="M 14991.5,3426.98 L 14980.4,3407.78 L 15245.5,3254.11 L 15245.6,3279.78 L 14991.5,3426.98 Z "
     id="path109" />
  <text
     x="0"
     y="0"
     stroke="none"
     fill="#000000"
     transform="matrix(0.05 0 0 0.05 748.767 140.644)"
     font-style="normal"
     font-weight="bold"
     font-size="180px"
     font-family="Helvetica"
     id="text110">
O</text>
  <path
     stroke="none"
     fill="#000000"
     transform="matrix(0.05 0 0 0.05 -10 -11)"
     d="M 15228.7,3283.62 L 15206.5,3283.62 L 15206.5,3068.59 L 15228.7,3068.59 L 15228.7,3283.62 Z "
     id="path110" />
  <path
     stroke="none"
     fill="#000000"
     transform="matrix(0.05 0 0 0.05 -10 -11)"
     d="M 15284.2,3283.62 L 15262,3283.62 L 15262,3068.59 L 15284.2,3068.59 L 15284.2,3283.62 Z "
     id="path111" />
  <text
     x="0"
     y="0"
     stroke="none"
     fill="#000000"
     transform="matrix(0.05 0 0 0.05 547.768 174.103)"
     font-style="normal"
     font-weight="bold"
     font-size="160px"
     font-family="Helvetica"
     id="text111">
or </text>
  <text
     x="0"
     y="0"
     stroke="none"
     fill="#000000"
     transform="matrix(0.05 0 0 0.05 557.991 174.103)"
     font-style="normal"
     font-weight="bold"
     font-size="160px"
     font-family="Helvetica"
     id="text112">
Cl </text>
  <text
     x="0"
     y="0"
     stroke="none"
     fill="#000000"
     transform="matrix(0.05 0 0 0.05 568.214 174.103)"
     font-style="normal"
     font-weight="bold"
     font-size="160px"
     font-family="Helvetica"
     id="text113">
or </text>
  <text
     x="0"
     y="0"
     stroke="none"
     fill="#000000"
     transform="matrix(0.05 0 0 0.05 578.436 174.103)"
     font-style="normal"
     font-weight="bold"
     font-size="160px"
     font-family="Helvetica"
     id="text114">
I</text>
  <path
     stroke="none"
     fill="#000000"
     transform="matrix(0.05 0 0 0.05 -10 -11)"
     d="M 13426.9,3022.43 L 13449.1,3035.31 L 13449.8,3232.52 L 13427.6,3232.52 L 13426.9,3022.43 Z "
     id="path114" />
  <text
     x="0"
     y="0"
     stroke="none"
     fill="#107f01"
     transform="matrix(0.05 0 0 0.05 658.686 158.666)"
     font-style="normal"
     font-weight="bold"
     font-size="180px"
     font-family="Helvetica"
     id="text115">
Br</text>
  <path
     stroke="none"
     fill="#000000"
     transform="matrix(0.05 0 0 0.05 -10 -11)"
     d="M 13187.6,2864.85 L 13198.7,2845.65 L 13472,3003.41 L 13460.9,3022.61 L 13187.6,2864.85 Z "
     id="path115" />
  <path
     stroke="none"
     fill="#000000"
     transform="matrix(0.05 0 0 0.05 -10 -11)"
     d="M 13159.9,2912.86 L 13171,2893.66 L 13444.3,3051.42 L 13433.2,3070.63 L 13159.9,2912.86 Z "
     id="path116" />
  <path
     stroke="none"
     fill="#000000"
     transform="matrix(0.05 0 0 0.05 -10 -11)"
     d="M 13449.1,3035.31 L 13426.9,3022.43 L 13692.6,2869.65 L 13703.7,2888.86 L 13449.1,3035.31 Z "
     id="path117" />
  <text
     x="0"
     y="0"
     stroke="none"
     fill="#000000"
     transform="matrix(0.05 0 0 0.05 643.274 169.91)"
     font-style="normal"
     font-weight="bold"
     font-size="160px"
     font-family="Helvetica"
     id="text117">
or </text>
  <text
     x="0"
     y="0"
     stroke="none"
     fill="#000000"
     transform="matrix(0.05 0 0 0.05 653.497 169.91)"
     font-style="normal"
     font-weight="bold"
     font-size="160px"
     font-family="Helvetica"
     id="text118">
Cl </text>
  <text
     x="0"
     y="0"
     stroke="none"
     fill="#000000"
     transform="matrix(0.05 0 0 0.05 663.72 169.91)"
     font-style="normal"
     font-weight="bold"
     font-size="160px"
     font-family="Helvetica"
     id="text119">
or </text>
  <text
     x="0"
     y="0"
     stroke="none"
     fill="#000000"
     transform="matrix(0.05 0 0 0.05 673.942 169.91)"
     font-style="normal"
     font-weight="bold"
     font-size="160px"
     font-family="Helvetica"
     id="text120">
I</text>
  <path
     stroke="none"
     fill="#000000"
     transform="matrix(0.05 0 0 0.05 -10 -11)"
     d="M 12751.5,6166.11 L 12751.5,6140.46 L 13016.4,6293.99 L 13005.3,6313.19 L 12751.5,6166.11 Z "
     id="path120" />
  <path
     stroke="none"
     fill="#000000"
     transform="matrix(0.05 0 0 0.05 -10 -11)"
     d="M 12492.1,6316.97 L 12492.1,6291.31 L 12751.5,6140.46 L 12751.5,6166.11 L 12492.1,6316.97 Z "
     id="path121" />
  <text
     x="0"
     y="0"
     stroke="none"
     fill="#000000"
     transform="matrix(0.05 0 0 0.05 624.075 284.954)"
     font-style="normal"
     font-weight="bold"
     font-size="180px"
     font-family="Helvetica"
     id="text121">
O</text>
  <path
     stroke="none"
     fill="#000000"
     transform="matrix(0.05 0 0 0.05 -10 -11)"
     d="M 12734.9,6169.84 L 12712.7,6169.84 L 12712.7,5954.8 L 12734.9,5954.8 L 12734.9,6169.84 Z "
     id="path122" />
  <path
     stroke="none"
     fill="#000000"
     transform="matrix(0.05 0 0 0.05 -10 -11)"
     d="M 12790.3,6169.84 L 12768.1,6169.84 L 12768.1,5954.8 L 12790.3,5954.8 L 12790.3,6169.84 Z "
     id="path123" />
  <path
     stroke="none"
     fill="#000000"
     transform="matrix(0.05 0 0 0.05 -10 -11)"
     d="M 12492.1,6291.31 L 12492.1,6316.97 L 12227.2,6163.44 L 12238.3,6144.23 L 12492.1,6291.31 Z "
     id="path124" />
  <path
     stroke="none"
     fill="#000000"
     transform="matrix(0.05 0 0 0.05 -10 -11)"
     d="M 12497.7,6229.97 L 12486.6,6249.18 L 12254.9,6115.42 L 12266,6096.22 L 12497.7,6229.97 Z "
     id="path125" />
  <path
     stroke="none"
     fill="#000000"
     transform="matrix(0.05 0 0 0.05 -10 -11)"
     d="M 15268.4,6165.63 L 15268.4,6139.98 L 15533.3,6293.51 L 15522.2,6312.72 L 15268.4,6165.63 Z "
     id="path133" />
  <path
     stroke="none"
     fill="#000000"
     transform="matrix(0.05 0 0 0.05 -10 -11)"
     d="M 15009,6316.49 L 15009,6290.84 L 15268.4,6139.98 L 15268.4,6165.63 L 15009,6316.49 Z "
     id="path134" />
  <text
     x="0"
     y="0"
     stroke="none"
     fill="#000000"
     transform="matrix(0.05 0 0 0.05 749.918 284.931)"
     font-style="normal"
     font-weight="bold"
     font-size="180px"
     font-family="Helvetica"
     id="text134">
O</text>
  <path
     stroke="none"
     fill="#000000"
     transform="matrix(0.05 0 0 0.05 -10 -11)"
     d="M 15251.7,6169.36 L 15229.5,6169.36 L 15229.5,5954.32 L 15251.7,5954.32 L 15251.7,6169.36 Z "
     id="path135" />
  <path
     stroke="none"
     fill="#000000"
     transform="matrix(0.05 0 0 0.05 -10 -11)"
     d="M 15307.2,6169.36 L 15285,6169.36 L 15285,5954.32 L 15307.2,5954.32 L 15307.2,6169.36 Z "
     id="path136" />
  <path
     stroke="none"
     fill="#000000"
     transform="matrix(0.05 0 0 0.05 -10 -11)"
     d="M 15009,6290.84 L 15009,6316.49 L 14744,6162.96 L 14755.1,6143.75 L 15009,6290.84 Z "
     id="path137" />
  <path
     stroke="none"
     fill="#000000"
     transform="matrix(0.05 0 0 0.05 -10 -11)"
     d="M 15014.5,6229.5 L 15003.4,6248.7 L 14771.7,6114.95 L 14782.8,6095.74 L 15014.5,6229.5 Z "
     id="path138" />
  <text
     x="0"
     y="0"
     stroke="none"
     fill="#000000"
     transform="matrix(0.05 0 0 0.05 597.662 320.659)"
     font-style="normal"
     font-weight="bold"
     font-size="160px"
     font-family="Helvetica"
     id="text138">
then </text>
  <text
     x="0"
     y="0"
     stroke="none"
     fill="#000000"
     transform="matrix(0.05 0 0 0.05 616.772 320.659)"
     font-style="normal"
     font-weight="bold"
     font-size="160px"
     font-family="Helvetica"
     id="text139">
H</text>
  <text
     x="0"
     y="0"
     stroke="none"
     fill="#000000"
     transform="matrix(0.05 0 0 0.05 622.549 322.499)"
     font-style="normal"
     font-weight="bold"
     font-size="120px"
     font-family="Helvetica"
     id="text140">
3</text>
  <text
     x="0"
     y="0"
     stroke="none"
     fill="#000000"
     transform="matrix(0.05 0 0 0.05 625.886 320.659)"
     font-style="normal"
     font-weight="bold"
     font-size="160px"
     font-family="Helvetica"
     id="text141">
O</text>
  <text
     x="0"
     y="0"
     stroke="none"
     fill="#000000"
     transform="matrix(0.05 0 0 0.05 632.109 317.78)"
     font-style="normal"
     font-weight="bold"
     font-size="120px"
     font-family="Helvetica"
     id="text142">
+</text>
  <text
     x="0"
     y="0"
     stroke="none"
     fill="#000000"
     transform="matrix(0.05 0 0 0.05 727.212 319.896)"
     font-style="normal"
     font-weight="bold"
     font-size="160px"
     font-family="Helvetica"
     id="text143">
then </text>
  <text
     x="0"
     y="0"
     stroke="none"
     fill="#000000"
     transform="matrix(0.05 0 0 0.05 746.322 319.896)"
     font-style="normal"
     font-weight="bold"
     font-size="160px"
     font-family="Helvetica"
     id="text144">
CH</text>
  <text
     x="0"
     y="0"
     stroke="none"
     fill="#000000"
     transform="matrix(0.05 0 0 0.05 757.876 321.736)"
     font-style="normal"
     font-weight="bold"
     font-size="120px"
     font-family="Helvetica"
     id="text145">
3</text>
  <text
     x="0"
     y="0"
     stroke="none"
     fill="#000000"
     transform="matrix(0.05 0 0 0.05 761.213 319.896)"
     font-style="normal"
     font-weight="bold"
     font-size="160px"
     font-family="Helvetica"
     id="text146">
I</text>
  <path
     stroke="none"
     fill="#000000"
     transform="matrix(0.05 0 0 0.05 -10 -11)"
     d="M 13896.3,2895.74 L 13896.3,3940.23 L 13874.3,3940.23 L 13874.3,2895.74 Z "
     id="path153" />
  <path
     stroke="none"
     fill="#000000"
     transform="matrix(0.05 0 0 0.05 -10 -11)"
     d="M 13885.3,2702.7 C 13885.3,2702.7 13941.7,2924.46 13941.7,2924.46 C 13941.7,2924.46 13910,2896.74 13885.3,2896.74 C 13860.2,2896.74 13827.9,2924.46 13827.9,2924.46 C 13827.9,2924.46 13885.3,2702.7 13885.3,2702.7 C 13885.3,2702.7 13885.3,2702.7 13885.3,2702.7 "
     id="path154" />
  <path
     stroke="#000000"
     stroke-width="1"
     fill="none"
     transform="matrix(0.05 0 0 0.05 -10 -11)"
     d="M 13885.3,2702.7 C 13885.3,2702.7 13941.7,2924.46 13941.7,2924.46 C 13941.7,2924.46 13910,2896.74 13885.3,2896.74 C 13860.2,2896.74 13827.9,2924.46 13827.9,2924.46 C 13827.9,2924.46 13885.3,2702.7 13885.3,2702.7 C 13885.3,2702.7 13885.3,2702.7 13885.3,2702.7 "
     id="path155" />
  <text
     x="0"
     y="0"
     stroke="none"
     fill="#000000"
     transform="matrix(0.05 0 0 0.05 623.297 178.36)"
     font-style="normal"
     font-weight="bold"
     font-size="160px"
     font-family="Helvetica"
     id="text155">
or </text>
  <text
     x="0"
     y="0"
     stroke="none"
     fill="#000000"
     transform="matrix(0.05 0 0 0.05 633.519 178.36)"
     font-style="normal"
     font-weight="bold"
     font-size="160px"
     font-family="Helvetica"
     id="text156">
aryl </text>
  <text
     x="0"
     y="0"
     stroke="none"
     fill="#000000"
     transform="matrix(0.05 0 0 0.05 649.976 178.36)"
     font-style="normal"
     font-weight="bold"
     font-size="160px"
     font-family="Helvetica"
     id="text157">
halides</text>
  <path
     stroke="none"
     fill="#000000"
     transform="matrix(0.05 0 0 0.05 -10 -11)"
     d="M 12023,2895.74 L 12023,3940.23 L 12001,3940.23 L 12001,2895.74 Z "
     id="path157" />
  <path
     stroke="none"
     fill="#000000"
     transform="matrix(0.05 0 0 0.05 -10 -11)"
     d="M 12012,2702.7 C 12012,2702.7 12068.4,2924.46 12068.4,2924.46 C 12068.4,2924.46 12036.7,2896.74 12012,2896.74 C 11986.9,2896.74 11954.6,2924.46 11954.6,2924.46 C 11954.6,2924.46 12012,2702.7 12012,2702.7 C 12012,2702.7 12012,2702.7 12012,2702.7 "
     id="path158" />
  <path
     stroke="#000000"
     stroke-width="1"
     fill="none"
     transform="matrix(0.05 0 0 0.05 -10 -11)"
     d="M 12012,2702.7 C 12012,2702.7 12068.4,2924.46 12068.4,2924.46 C 12068.4,2924.46 12036.7,2896.74 12012,2896.74 C 11986.9,2896.74 11954.6,2924.46 11954.6,2924.46 C 11954.6,2924.46 12012,2702.7 12012,2702.7 C 12012,2702.7 12012,2702.7 12012,2702.7 "
     id="path159" />
  <path
     stroke="none"
     fill="#000000"
     transform="matrix(0.05 0 0 0.05 -10 -11)"
     d="M 15769.6,2895.74 L 15769.6,3940.23 L 15747.6,3940.23 L 15747.6,2895.74 Z "
     id="path160" />
  <path
     stroke="none"
     fill="#000000"
     transform="matrix(0.05 0 0 0.05 -10 -11)"
     d="M 15758.6,2702.7 C 15758.6,2702.7 15815,2924.46 15815,2924.46 C 15815,2924.46 15783.3,2896.74 15758.6,2896.74 C 15733.5,2896.74 15701.2,2924.46 15701.2,2924.46 C 15701.2,2924.46 15758.6,2702.7 15758.6,2702.7 C 15758.6,2702.7 15758.6,2702.7 15758.6,2702.7 "
     id="path161" />
  <path
     stroke="#000000"
     stroke-width="1"
     fill="none"
     transform="matrix(0.05 0 0 0.05 -10 -11)"
     d="M 15758.6,2702.7 C 15758.6,2702.7 15815,2924.46 15815,2924.46 C 15815,2924.46 15783.3,2896.74 15758.6,2896.74 C 15733.5,2896.74 15701.2,2924.46 15701.2,2924.46 C 15701.2,2924.46 15758.6,2702.7 15758.6,2702.7 C 15758.6,2702.7 15758.6,2702.7 15758.6,2702.7 "
     id="path162" />
  <path
     stroke="none"
     fill="#000000"
     transform="matrix(0.05 0 0 0.05 -10 -11)"
     d="M 15719,6689.26 L 15719,5644.76 L 15741,5644.76 L 15741,6689.26 Z "
     id="path174" />
  <path
     stroke="none"
     fill="#000000"
     transform="matrix(0.05 0 0 0.05 -10 -11)"
     d="M 15730,6882.29 C 15730,6882.29 15672.6,6660.54 15672.6,6660.54 C 15672.6,6660.54 15704.9,6688.26 15730,6688.26 C 15754.7,6688.26 15786.4,6660.54 15786.4,6660.54 C 15786.4,6660.54 15730,6882.29 15730,6882.29 C 15730,6882.29 15730,6882.29 15730,6882.29 "
     id="path175" />
  <path
     stroke="#000000"
     stroke-width="1"
     fill="none"
     transform="matrix(0.05 0 0 0.05 -10 -11)"
     d="M 15730,6882.29 C 15730,6882.29 15672.6,6660.54 15672.6,6660.54 C 15672.6,6660.54 15704.9,6688.26 15730,6688.26 C 15754.7,6688.26 15786.4,6660.54 15786.4,6660.54 C 15786.4,6660.54 15730,6882.29 15730,6882.29 C 15730,6882.29 15730,6882.29 15730,6882.29 "
     id="path176" />
  <path
     stroke="none"
     fill="#000000"
     transform="matrix(0.05 0 0 0.05 -10 -11)"
     d="M 11972.4,6689.26 L 11972.4,5644.76 L 11994.4,5644.76 L 11994.4,6689.26 Z "
     id="path177" />
  <path
     stroke="none"
     fill="#000000"
     transform="matrix(0.05 0 0 0.05 -10 -11)"
     d="M 11983.4,6882.29 C 11983.4,6882.29 11926,6660.54 11926,6660.54 C 11926,6660.54 11958.3,6688.26 11983.4,6688.26 C 12008.1,6688.26 12039.8,6660.54 12039.8,6660.54 C 12039.8,6660.54 11983.4,6882.29 11983.4,6882.29 C 11983.4,6882.29 11983.4,6882.29 11983.4,6882.29 "
     id="path178" />
  <path
     stroke="#000000"
     stroke-width="1"
     fill="none"
     transform="matrix(0.05 0 0 0.05 -10 -11)"
     d="M 11983.4,6882.29 C 11983.4,6882.29 11926,6660.54 11926,6660.54 C 11926,6660.54 11958.3,6688.26 11983.4,6688.26 C 12008.1,6688.26 12039.8,6660.54 12039.8,6660.54 C 12039.8,6660.54 11983.4,6882.29 11983.4,6882.29 C 11983.4,6882.29 11983.4,6882.29 11983.4,6882.29 "
     id="path179" />
  <path
     stroke="none"
     fill="#000000"
     transform="matrix(0.05 0 0 0.05 -10 -11)"
     d="M 13867.7,5205.2 L 13867.7,5644.76 L 13845.7,5644.76 L 13845.7,5205.2 Z "
     id="path180" />
  <path
     stroke="none"
     fill="#000000"
     transform="matrix(0.05 0 0 0.05 -10 -11)"
     d="M 15730,5655.76 L 11983.4,5655.76 L 11983.4,5633.76 L 15730,5633.76 Z "
     id="path181" />
  <text
     x="0"
     y="0"
     stroke="none"
     fill="#0000ff"
     transform="matrix(0.05 0 0 0.05 224.033 225.401)"
     font-style="normal"
     font-weight="bold"
     font-size="280px"
     font-family="Helvetica"
     id="text183">
Grignard</text>
  <text
     x="0"
     y="0"
     stroke="none"
     fill="#0000ff"
     transform="matrix(0.05 0 0 0.05 224.413 240.418)"
     font-style="normal"
     font-weight="bold"
     font-size="280px"
     font-family="Helvetica"
     id="text184">
reagents</text>
  <text
     x="0"
     y="0"
     stroke="none"
     fill="#0000ff"
     transform="matrix(0.05 0 0 0.05 234.987 195.529)"
     font-style="normal"
     font-weight="normal"
     font-size="200px"
     font-family="Helvetica"
     id="text185">
organolithium</text>
  <text
     x="0"
     y="0"
     stroke="none"
     fill="#000000"
     transform="matrix(0.05 0 0 0.05 225.812 206.071)"
     font-style="normal"
     font-weight="normal"
     font-size="200px"
     font-family="Helvetica"
     id="text186">
react </text>
  <text
     x="0"
     y="0"
     stroke="none"
     fill="#000000"
     transform="matrix(0.05 0 0 0.05 250.822 206.071)"
     font-style="normal"
     font-weight="normal"
     font-size="200px"
     font-family="Helvetica"
     id="text187">
analogously</text>
  <path
     stroke="none"
     fill="#000000"
     transform="matrix(0.05 0 0 0.05 -10 -11)"
     d="M 9607.35,3936.93 L 3117.4,3936.93 L 3117.4,3914.93 L 9607.35,3914.93 Z "
     id="path187" />
  <path
     stroke="none"
     fill="#000000"
     transform="matrix(0.05 0 0 0.05 -10 -11)"
     d="M 6366.8,4365.49 L 6366.8,3925.93 L 6388.8,3925.93 L 6388.8,4365.49 Z "
     id="path188" />
  <path
     stroke="none"
     fill="#000000"
     transform="matrix(0.05 0 0 0.05 -10 -11)"
     d="M 5001.7,2681.24 L 5001.7,3925.93 L 4979.7,3925.93 L 4979.7,2681.24 Z "
     id="path189" />
  <path
     stroke="none"
     fill="#000000"
     transform="matrix(0.05 0 0 0.05 -10 -11)"
     d="M 4990.7,2488.2 C 4990.7,2488.2 5047.14,2709.96 5047.14,2709.96 C 5047.14,2709.96 5015.39,2682.24 4990.7,2682.24 C 4965.57,2682.24 4933.26,2709.96 4933.26,2709.96 C 4933.26,2709.96 4990.7,2488.2 4990.7,2488.2 C 4990.7,2488.2 4990.7,2488.2 4990.7,2488.2 "
     id="path190" />
  <path
     stroke="#000000"
     stroke-width="1"
     fill="none"
     transform="matrix(0.05 0 0 0.05 -10 -11)"
     d="M 4990.7,2488.2 C 4990.7,2488.2 5047.14,2709.96 5047.14,2709.96 C 5047.14,2709.96 5015.39,2682.24 4990.7,2682.24 C 4965.57,2682.24 4933.26,2709.96 4933.26,2709.96 C 4933.26,2709.96 4990.7,2488.2 4990.7,2488.2 C 4990.7,2488.2 4990.7,2488.2 4990.7,2488.2 "
     id="path191" />
  <text
     x="0"
     y="0"
     stroke="none"
     fill="#000000"
     transform="matrix(0.05 0 0 0.05 97.6998 176.347)"
     font-style="normal"
     font-weight="bold"
     font-size="160px"
     font-family="Helvetica"
     id="text191">
then </text>
  <text
     x="0"
     y="0"
     stroke="none"
     fill="#000000"
     transform="matrix(0.05 0 0 0.05 116.809 176.347)"
     font-style="normal"
     font-weight="bold"
     font-size="160px"
     font-family="Helvetica"
     id="text192">
H</text>
  <text
     x="0"
     y="0"
     stroke="none"
     fill="#000000"
     transform="matrix(0.05 0 0 0.05 122.587 178.187)"
     font-style="normal"
     font-weight="bold"
     font-size="120px"
     font-family="Helvetica"
     id="text193">
3</text>
  <text
     x="0"
     y="0"
     stroke="none"
     fill="#000000"
     transform="matrix(0.05 0 0 0.05 125.923 176.347)"
     font-style="normal"
     font-weight="bold"
     font-size="160px"
     font-family="Helvetica"
     id="text194">
O</text>
  <text
     x="0"
     y="0"
     stroke="none"
     fill="#000000"
     transform="matrix(0.05 0 0 0.05 132.146 173.469)"
     font-style="normal"
     font-weight="bold"
     font-size="120px"
     font-family="Helvetica"
     id="text195">
+</text>
  <path
     stroke="none"
     fill="#000000"
     transform="matrix(0.05 0 0 0.05 -10 -11)"
     d="M 3128.4,2681.24 L 3128.4,3925.93 L 3106.4,3925.93 L 3106.4,2681.24 Z "
     id="path195" />
  <path
     stroke="none"
     fill="#000000"
     transform="matrix(0.05 0 0 0.05 -10 -11)"
     d="M 3117.4,2488.2 C 3117.4,2488.2 3173.84,2709.96 3173.84,2709.96 C 3173.84,2709.96 3142.09,2682.24 3117.4,2682.24 C 3092.27,2682.24 3059.96,2709.96 3059.96,2709.96 C 3059.96,2709.96 3117.4,2488.2 3117.4,2488.2 C 3117.4,2488.2 3117.4,2488.2 3117.4,2488.2 "
     id="path196" />
  <path
     stroke="#000000"
     stroke-width="1"
     fill="none"
     transform="matrix(0.05 0 0 0.05 -10 -11)"
     d="M 3117.4,2488.2 C 3117.4,2488.2 3173.84,2709.96 3173.84,2709.96 C 3173.84,2709.96 3142.09,2682.24 3117.4,2682.24 C 3092.27,2682.24 3059.96,2709.96 3059.96,2709.96 C 3059.96,2709.96 3117.4,2488.2 3117.4,2488.2 C 3117.4,2488.2 3117.4,2488.2 3117.4,2488.2 "
     id="path197" />
  <path
     stroke="none"
     fill="#000000"
     transform="matrix(0.05 0 0 0.05 -10 -11)"
     d="M 6388.8,2681.24 L 6388.8,3925.93 L 6366.8,3925.93 L 6366.8,2681.24 Z "
     id="path198" />
  <path
     stroke="none"
     fill="#000000"
     transform="matrix(0.05 0 0 0.05 -10 -11)"
     d="M 6377.8,2488.2 C 6377.8,2488.2 6434.24,2709.96 6434.24,2709.96 C 6434.24,2709.96 6402.49,2682.24 6377.8,2682.24 C 6352.67,2682.24 6320.36,2709.96 6320.36,2709.96 C 6320.36,2709.96 6377.8,2488.2 6377.8,2488.2 C 6377.8,2488.2 6377.8,2488.2 6377.8,2488.2 "
     id="path199" />
  <path
     stroke="#000000"
     stroke-width="1"
     fill="none"
     transform="matrix(0.05 0 0 0.05 -10 -11)"
     d="M 6377.8,2488.2 C 6377.8,2488.2 6434.24,2709.96 6434.24,2709.96 C 6434.24,2709.96 6402.49,2682.24 6377.8,2682.24 C 6352.67,2682.24 6320.36,2709.96 6320.36,2709.96 C 6320.36,2709.96 6377.8,2488.2 6377.8,2488.2 C 6377.8,2488.2 6377.8,2488.2 6377.8,2488.2 "
     id="path200" />
  <text
     x="0"
     y="0"
     stroke="none"
     fill="#000000"
     transform="matrix(0.05 0 0 0.05 185.107 179.089)"
     font-style="normal"
     font-weight="bold"
     font-size="160px"
     font-family="Helvetica"
     id="text200">
then </text>
  <text
     x="0"
     y="0"
     stroke="none"
     fill="#000000"
     transform="matrix(0.05 0 0 0.05 204.217 179.089)"
     font-style="normal"
     font-weight="bold"
     font-size="160px"
     font-family="Helvetica"
     id="text201">
H</text>
  <text
     x="0"
     y="0"
     stroke="none"
     fill="#000000"
     transform="matrix(0.05 0 0 0.05 209.994 180.929)"
     font-style="normal"
     font-weight="bold"
     font-size="120px"
     font-family="Helvetica"
     id="text202">
3</text>
  <text
     x="0"
     y="0"
     stroke="none"
     fill="#000000"
     transform="matrix(0.05 0 0 0.05 213.331 179.089)"
     font-style="normal"
     font-weight="bold"
     font-size="160px"
     font-family="Helvetica"
     id="text203">
O</text>
  <text
     x="0"
     y="0"
     stroke="none"
     fill="#000000"
     transform="matrix(0.05 0 0 0.05 219.554 176.21)"
     font-style="normal"
     font-weight="bold"
     font-size="120px"
     font-family="Helvetica"
     id="text204">
+</text>
  <path
     stroke="none"
     fill="#000000"
     transform="matrix(0.05 0 0 0.05 -10 -11)"
     d="M 6002.24,3181.67 L 5980.07,3181.97 L 5978.72,3080.67 L 6000.89,3080.38 L 6002.24,3181.67 Z "
     id="path204" />
  <path
     stroke="none"
     fill="#000000"
     transform="matrix(0.05 0 0 0.05 -10 -11)"
     d="M 6057.67,3180.94 L 6035.5,3181.23 L 6034.15,3079.93 L 6056.33,3079.64 L 6057.67,3180.94 Z "
     id="path205" />
  <text
     x="0"
     y="0"
     stroke="none"
     fill="#000000"
     transform="matrix(0.05 0 0 0.05 287.56 141.236)"
     font-style="normal"
     font-weight="bold"
     font-size="180px"
     font-family="Helvetica"
     id="text205">
C</text>
  <text
     x="0"
     y="0"
     stroke="none"
     fill="#000000"
     transform="matrix(0.05 0 0 0.05 287.508 156.21)"
     font-style="normal"
     font-weight="bold"
     font-size="180px"
     font-family="Helvetica"
     id="text206">
O</text>
  <text
     x="0"
     y="0"
     stroke="none"
     fill="#000000"
     transform="matrix(0.05 0 0 0.05 287.309 126.26)"
     font-style="normal"
     font-weight="bold"
     font-size="180px"
     font-family="Helvetica"
     id="text207">
O</text>
  <path
     stroke="none"
     fill="#000000"
     transform="matrix(0.05 0 0 0.05 -10 -11)"
     d="M 5999.56,2883.69 L 5977.38,2883.69 L 5977.38,2780.9 L 5999.56,2780.9 L 5999.56,2883.69 Z "
     id="path207" />
  <path
     stroke="none"
     fill="#000000"
     transform="matrix(0.05 0 0 0.05 -10 -11)"
     d="M 6055,2883.69 L 6032.82,2883.69 L 6032.82,2780.9 L 6055,2780.9 L 6055,2883.69 Z "
     id="path208" />
  <path
     stroke="none"
     fill="#000000"
     transform="matrix(0.05 0 0 0.05 -10 -11)"
     d="M 7861.7,2666.94 L 7861.7,3911.63 L 7839.7,3911.63 L 7839.7,2666.94 Z "
     id="path209" />
  <path
     stroke="none"
     fill="#000000"
     transform="matrix(0.05 0 0 0.05 -10 -11)"
     d="M 7850.7,2473.9 C 7850.7,2473.9 7907.14,2695.66 7907.14,2695.66 C 7907.14,2695.66 7875.39,2667.94 7850.7,2667.94 C 7825.57,2667.94 7793.26,2695.66 7793.26,2695.66 C 7793.26,2695.66 7850.7,2473.9 7850.7,2473.9 C 7850.7,2473.9 7850.7,2473.9 7850.7,2473.9 "
     id="path210" />
  <path
     stroke="#000000"
     stroke-width="1"
     fill="none"
     transform="matrix(0.05 0 0 0.05 -10 -11)"
     d="M 7850.7,2473.9 C 7850.7,2473.9 7907.14,2695.66 7907.14,2695.66 C 7907.14,2695.66 7875.39,2667.94 7850.7,2667.94 C 7825.57,2667.94 7793.26,2695.66 7793.26,2695.66 C 7793.26,2695.66 7850.7,2473.9 7850.7,2473.9 C 7850.7,2473.9 7850.7,2473.9 7850.7,2473.9 "
     id="path211" />
  <path
     stroke="none"
     fill="#000000"
     transform="matrix(0.05 0 0 0.05 -10 -11)"
     d="M 9618.35,2681.24 L 9618.35,3925.93 L 9596.35,3925.93 L 9596.35,2681.24 Z "
     id="path212" />
  <path
     stroke="none"
     fill="#000000"
     transform="matrix(0.05 0 0 0.05 -10 -11)"
     d="M 9607.35,2488.2 C 9607.35,2488.2 9663.79,2709.96 9663.79,2709.96 C 9663.79,2709.96 9632.05,2682.24 9607.35,2682.24 C 9582.22,2682.24 9549.91,2709.96 9549.91,2709.96 C 9549.91,2709.96 9607.35,2488.2 9607.35,2488.2 C 9607.35,2488.2 9607.35,2488.2 9607.35,2488.2 "
     id="path213" />
  <path
     stroke="#000000"
     stroke-width="1"
     fill="none"
     transform="matrix(0.05 0 0 0.05 -10 -11)"
     d="M 9607.35,2488.2 C 9607.35,2488.2 9663.79,2709.96 9663.79,2709.96 C 9663.79,2709.96 9632.05,2682.24 9607.35,2682.24 C 9582.22,2682.24 9549.91,2709.96 9549.91,2709.96 C 9549.91,2709.96 9607.35,2488.2 9607.35,2488.2 C 9607.35,2488.2 9607.35,2488.2 9607.35,2488.2 "
     id="path214" />
  <text
     x="0"
     y="0"
     stroke="none"
     fill="#000000"
     transform="matrix(0.05 0 0 0.05 264.063 170.612)"
     font-style="normal"
     font-weight="bold"
     font-size="160px"
     font-family="Helvetica"
     id="text214">
then </text>
  <text
     x="0"
     y="0"
     stroke="none"
     fill="#000000"
     transform="matrix(0.05 0 0 0.05 283.173 170.612)"
     font-style="normal"
     font-weight="bold"
     font-size="160px"
     font-family="Helvetica"
     id="text215">
H</text>
  <text
     x="0"
     y="0"
     stroke="none"
     fill="#000000"
     transform="matrix(0.05 0 0 0.05 288.95 172.452)"
     font-style="normal"
     font-weight="bold"
     font-size="120px"
     font-family="Helvetica"
     id="text216">
3</text>
  <text
     x="0"
     y="0"
     stroke="none"
     fill="#000000"
     transform="matrix(0.05 0 0 0.05 292.287 170.612)"
     font-style="normal"
     font-weight="bold"
     font-size="160px"
     font-family="Helvetica"
     id="text217">
O</text>
  <text
     x="0"
     y="0"
     stroke="none"
     fill="#000000"
     transform="matrix(0.05 0 0 0.05 298.51 167.733)"
     font-style="normal"
     font-weight="bold"
     font-size="120px"
     font-family="Helvetica"
     id="text218">
+</text>
  <text
     x="0"
     y="0"
     stroke="none"
     fill="#000000"
     transform="matrix(0.05 0 0 0.05 339.372 168.073)"
     font-style="normal"
     font-weight="bold"
     font-size="160px"
     font-family="Helvetica"
     id="text219">
then </text>
  <text
     x="0"
     y="0"
     stroke="none"
     fill="#000000"
     transform="matrix(0.05 0 0 0.05 358.481 168.073)"
     font-style="normal"
     font-weight="bold"
     font-size="160px"
     font-family="Helvetica"
     id="text220">
H</text>
  <text
     x="0"
     y="0"
     stroke="none"
     fill="#000000"
     transform="matrix(0.05 0 0 0.05 364.259 169.913)"
     font-style="normal"
     font-weight="bold"
     font-size="120px"
     font-family="Helvetica"
     id="text221">
3</text>
  <text
     x="0"
     y="0"
     stroke="none"
     fill="#000000"
     transform="matrix(0.05 0 0 0.05 367.595 168.073)"
     font-style="normal"
     font-weight="bold"
     font-size="160px"
     font-family="Helvetica"
     id="text222">
O</text>
  <text
     x="0"
     y="0"
     stroke="none"
     fill="#000000"
     transform="matrix(0.05 0 0 0.05 373.818 165.194)"
     font-style="normal"
     font-weight="bold"
     font-size="120px"
     font-family="Helvetica"
     id="text223">
+</text>
  <text
     x="0"
     y="0"
     stroke="none"
     fill="#000000"
     transform="matrix(0.05 0 0 0.05 428.265 170.524)"
     font-style="normal"
     font-weight="bold"
     font-size="160px"
     font-family="Helvetica"
     id="text224">
then </text>
  <text
     x="0"
     y="0"
     stroke="none"
     fill="#000000"
     transform="matrix(0.05 0 0 0.05 447.374 170.524)"
     font-style="normal"
     font-weight="bold"
     font-size="160px"
     font-family="Helvetica"
     id="text225">
H</text>
  <text
     x="0"
     y="0"
     stroke="none"
     fill="#000000"
     transform="matrix(0.05 0 0 0.05 453.152 172.364)"
     font-style="normal"
     font-weight="bold"
     font-size="120px"
     font-family="Helvetica"
     id="text226">
3</text>
  <text
     x="0"
     y="0"
     stroke="none"
     fill="#000000"
     transform="matrix(0.05 0 0 0.05 456.489 170.524)"
     font-style="normal"
     font-weight="bold"
     font-size="160px"
     font-family="Helvetica"
     id="text227">
O</text>
  <text
     x="0"
     y="0"
     stroke="none"
     fill="#000000"
     transform="matrix(0.05 0 0 0.05 462.711 167.645)"
     font-style="normal"
     font-weight="bold"
     font-size="120px"
     font-family="Helvetica"
     id="text228">
+</text>
  <text
     x="0"
     y="0"
     stroke="none"
     fill="#000000"
     transform="matrix(0.05 0 0 0.05 188.77 297.88)"
     font-style="normal"
     font-weight="bold"
     font-size="200px"
     font-family="Helvetica"
     id="text238">
D</text>
  <text
     x="0"
     y="0"
     stroke="none"
     fill="#000000"
     transform="matrix(0.05 0 0 0.05 195.992 300.18)"
     font-style="normal"
     font-weight="bold"
     font-size="150px"
     font-family="Helvetica"
     id="text239">
2</text>
  <text
     x="0"
     y="0"
     stroke="none"
     fill="#000000"
     transform="matrix(0.05 0 0 0.05 200.163 297.88)"
     font-style="normal"
     font-weight="bold"
     font-size="200px"
     font-family="Helvetica"
     id="text240">
O</text>
  <text
     x="0"
     y="0"
     stroke="none"
     fill="#000000"
     transform="matrix(0.05 0 0 0.05 178.61 310.866)"
     font-style="normal"
     font-weight="bold"
     font-size="140px"
     font-family="Helvetica"
     id="text250">
also </text>
  <text
     x="0"
     y="0"
     stroke="none"
     fill="#000000"
     transform="matrix(0.05 0 0 0.05 194.561 310.866)"
     font-style="normal"
     font-weight="bold"
     font-size="140px"
     font-family="Helvetica"
     id="text251">
H</text>
  <text
     x="0"
     y="0"
     stroke="none"
     fill="#000000"
     transform="matrix(0.05 0 0 0.05 199.616 312.476)"
     font-style="normal"
     font-weight="bold"
     font-size="105px"
     font-family="Helvetica"
     id="text252">
2</text>
  <text
     x="0"
     y="0"
     stroke="none"
     fill="#000000"
     transform="matrix(0.05 0 0 0.05 202.536 310.866)"
     font-style="normal"
     font-weight="bold"
     font-size="140px"
     font-family="Helvetica"
     id="text253">
O</text>
  <path
     stroke="none"
     fill="#000000"
     transform="matrix(0.05 0 0 0.05 -10 -11)"
     d="M 4450.6,6499.36 L 4450.6,5859.26 L 4472.6,5859.26 L 4472.6,6499.36 Z "
     id="path253" />
  <path
     stroke="none"
     fill="#000000"
     transform="matrix(0.05 0 0 0.05 -10 -11)"
     d="M 4461.6,6692.4 C 4461.6,6692.4 4404.16,6470.64 4404.16,6470.64 C 4404.16,6470.64 4436.47,6498.36 4461.6,6498.36 C 4486.29,6498.36 4518.04,6470.64 4518.04,6470.64 C 4518.04,6470.64 4461.6,6692.4 4461.6,6692.4 C 4461.6,6692.4 4461.6,6692.4 4461.6,6692.4 "
     id="path254" />
  <path
     stroke="#000000"
     stroke-width="1"
     fill="none"
     transform="matrix(0.05 0 0 0.05 -10 -11)"
     d="M 4461.6,6692.4 C 4461.6,6692.4 4404.16,6470.64 4404.16,6470.64 C 4404.16,6470.64 4436.47,6498.36 4461.6,6498.36 C 4486.29,6498.36 4518.04,6470.64 4518.04,6470.64 C 4518.04,6470.64 4461.6,6692.4 4461.6,6692.4 C 4461.6,6692.4 4461.6,6692.4 4461.6,6692.4 "
     id="path255" />
  <path
     stroke="none"
     fill="#000000"
     transform="matrix(0.05 0 0 0.05 -10 -11)"
     d="M 6345.9,5062.2 L 6345.9,5859.26 L 6323.9,5859.26 L 6323.9,5062.2 Z "
     id="path256" />
  <path
     stroke="none"
     fill="#000000"
     transform="matrix(0.05 0 0 0.05 -10 -11)"
     d="M 8208.2,5870.26 L 4461.6,5870.26 L 4461.6,5848.26 L 8208.2,5848.26 Z "
     id="path257" />
  <path
     stroke="none"
     fill="#000000"
     transform="matrix(0.05 0 0 0.05 -10 -11)"
     d="M 8197.2,6813.96 L 8197.2,5859.26 L 8219.2,5859.26 L 8219.2,6813.96 Z "
     id="path258" />
  <path
     stroke="none"
     fill="#000000"
     transform="matrix(0.05 0 0 0.05 -10 -11)"
     d="M 8208.2,7007 C 8208.2,7007 8150.76,6785.24 8150.76,6785.24 C 8150.76,6785.24 8183.07,6812.96 8208.2,6812.96 C 8232.89,6812.96 8264.64,6785.24 8264.64,6785.24 C 8264.64,6785.24 8208.2,7007 8208.2,7007 C 8208.2,7007 8208.2,7007 8208.2,7007 "
     id="path259" />
  <path
     stroke="#000000"
     stroke-width="1"
     fill="none"
     transform="matrix(0.05 0 0 0.05 -10 -11)"
     d="M 8208.2,7007 C 8208.2,7007 8150.76,6785.24 8150.76,6785.24 C 8150.76,6785.24 8183.07,6812.96 8208.2,6812.96 C 8232.89,6812.96 8264.64,6785.24 8264.64,6785.24 C 8264.64,6785.24 8208.2,7007 8208.2,7007 C 8208.2,7007 8208.2,7007 8208.2,7007 "
     id="path260" />
  <path
     stroke="none"
     fill="#000000"
     transform="matrix(0.05 0 0 0.05 -10 -11)"
     d="M 7589.67,6335.04 L 7567.49,6335.04 L 7567.49,6120 L 7589.67,6120 L 7589.67,6335.04 Z "
     id="path261" />
  <path
     stroke="none"
     fill="#000000"
     transform="matrix(0.05 0 0 0.05 -10 -11)"
     d="M 7645.11,6335.04 L 7622.93,6335.04 L 7622.93,6120 L 7645.11,6120 L 7645.11,6335.04 Z "
     id="path262" />
  <text
     x="0"
     y="0"
     stroke="none"
     fill="#000000"
     transform="matrix(0.05 0 0 0.05 366.815 293.215)"
     font-style="normal"
     font-weight="bold"
     font-size="180px"
     font-family="Helvetica"
     id="text262">
O</text>
  <text
     x="0"
     y="0"
     stroke="none"
     fill="#000000"
     transform="matrix(0.05 0 0 0.05 379.784 315.679)"
     font-style="normal"
     font-weight="bold"
     font-size="180px"
     font-family="Helvetica"
     id="text263">
OH</text>
  <path
     stroke="none"
     fill="#000000"
     transform="matrix(0.05 0 0 0.05 -10 -11)"
     d="M 7788.1,6411.2 L 7777.02,6430.4 L 7606.55,6331.19 L 7606.5,6305.52 L 7788.1,6411.2 Z "
     id="path263" />
  <path
     stroke="none"
     fill="#000000"
     transform="matrix(0.05 0 0 0.05 -10 -11)"
     d="M 7606.5,6305.52 L 7606.55,6331.19 L 7352.45,6478.4 L 7341.36,6459.19 L 7606.5,6305.52 Z "
     id="path264" />
  <text
     x="0"
     y="0"
     stroke="none"
     fill="#000000"
     transform="matrix(0.05 0 0 0.05 352.481 325.761)"
     font-style="normal"
     font-weight="bold"
     font-size="160px"
     font-family="Helvetica"
     id="text264">
or </text>
  <text
     x="0"
     y="0"
     stroke="none"
     fill="#000000"
     transform="matrix(0.05 0 0 0.05 362.704 325.761)"
     font-style="normal"
     font-weight="bold"
     font-size="160px"
     font-family="Helvetica"
     id="text265">
alcohol</text>
  <text
     x="0"
     y="0"
     stroke="none"
     fill="#0000ff"
     transform="matrix(0.05 0 0 0.05 467.319 246.059)"
     font-style="normal"
     font-weight="bold"
     font-size="200px"
     font-family="Helvetica"
     id="text272">
R</text>
  <text
     x="0"
     y="0"
     stroke="none"
     fill="#000000"
     transform="matrix(0.05 0 0 0.05 474.541 246.059)"
     font-style="normal"
     font-weight="bold"
     font-size="200px"
     font-family="Helvetica"
     id="text273">
Li</text>
  <path
     stroke="none"
     fill="#000000"
     transform="matrix(0.05 0 0 0.05 -10 -11)"
     d="M 9655.8,6771.06 L 9655.8,5376.8 L 9677.8,5376.8 L 9677.8,6771.06 Z "
     id="path273" />
  <path
     stroke="none"
     fill="#000000"
     transform="matrix(0.05 0 0 0.05 -10 -11)"
     d="M 9666.8,6964.1 C 9666.8,6964.1 9609.36,6742.34 9609.36,6742.34 C 9609.36,6742.34 9641.67,6770.06 9666.8,6770.06 C 9691.49,6770.06 9723.24,6742.34 9723.24,6742.34 C 9723.24,6742.34 9666.8,6964.1 9666.8,6964.1 C 9666.8,6964.1 9666.8,6964.1 9666.8,6964.1 "
     id="path274" />
  <path
     stroke="#000000"
     stroke-width="1"
     fill="none"
     transform="matrix(0.05 0 0 0.05 -10 -11)"
     d="M 9666.8,6964.1 C 9666.8,6964.1 9609.36,6742.34 9609.36,6742.34 C 9609.36,6742.34 9641.67,6770.06 9666.8,6770.06 C 9691.49,6770.06 9723.24,6742.34 9723.24,6742.34 C 9723.24,6742.34 9666.8,6964.1 9666.8,6964.1 C 9666.8,6964.1 9666.8,6964.1 9666.8,6964.1 "
     id="path275" />
  <path
     stroke="none"
     fill="#000000"
     transform="matrix(0.05 0 0 0.05 -10 -11)"
     d="M 9091.17,5848.84 L 9068.99,5848.84 L 9068.99,5633.8 L 9091.17,5633.8 L 9091.17,5848.84 Z "
     id="path276" />
  <path
     stroke="none"
     fill="#000000"
     transform="matrix(0.05 0 0 0.05 -10 -11)"
     d="M 9146.61,5848.84 L 9124.43,5848.84 L 9124.43,5633.8 L 9146.61,5633.8 L 9146.61,5848.84 Z "
     id="path277" />
  <text
     x="0"
     y="0"
     stroke="none"
     fill="#000000"
     transform="matrix(0.05 0 0 0.05 441.89 268.905)"
     font-style="normal"
     font-weight="bold"
     font-size="180px"
     font-family="Helvetica"
     id="text277">
O</text>
  <text
     x="0"
     y="0"
     stroke="none"
     fill="#107f01"
     transform="matrix(0.05 0 0 0.05 454.859 291.369)"
     font-style="normal"
     font-weight="bold"
     font-size="180px"
     font-family="Helvetica"
     id="text278">
OH</text>
  <path
     stroke="none"
     fill="#000000"
     transform="matrix(0.05 0 0 0.05 -10 -11)"
     d="M 9289.6,5925 L 9278.52,5944.2 L 9108.05,5844.99 L 9108,5819.32 L 9289.6,5925 Z "
     id="path278" />
  <path
     stroke="none"
     fill="#000000"
     transform="matrix(0.05 0 0 0.05 -10 -11)"
     d="M 9108,5819.32 L 9108.05,5844.99 L 8853.95,5992.2 L 8842.86,5972.99 L 9108,5819.32 Z "
     id="path279" />
  <text
     x="0"
     y="0"
     stroke="none"
     fill="#000000"
     transform="matrix(0.05 0 0 0.05 430.067 231.994)"
     font-style="normal"
     font-weight="normal"
     font-size="200px"
     font-family="Helvetica"
     id="text279">
exceptional </text>
  <text
     x="0"
     y="0"
     stroke="none"
     fill="#000000"
     transform="matrix(0.05 0 0 0.05 483.437 231.994)"
     font-style="normal"
     font-weight="normal"
     font-size="200px"
     font-family="Helvetica"
     id="text280">
reaction:</text>
  <text
     x="0"
     y="0"
     stroke="none"
     fill="#000000"
     transform="matrix(0.05 0 0 0.05 428.835 303.908)"
     font-style="normal"
     font-weight="bold"
     font-size="160px"
     font-family="Helvetica"
     id="text283">
then </text>
  <text
     x="0"
     y="0"
     stroke="none"
     fill="#000000"
     transform="matrix(0.05 0 0 0.05 447.944 303.908)"
     font-style="normal"
     font-weight="bold"
     font-size="160px"
     font-family="Helvetica"
     id="text284">
H</text>
  <text
     x="0"
     y="0"
     stroke="none"
     fill="#000000"
     transform="matrix(0.05 0 0 0.05 453.721 305.748)"
     font-style="normal"
     font-weight="bold"
     font-size="120px"
     font-family="Helvetica"
     id="text285">
3</text>
  <text
     x="0"
     y="0"
     stroke="none"
     fill="#000000"
     transform="matrix(0.05 0 0 0.05 457.058 303.908)"
     font-style="normal"
     font-weight="bold"
     font-size="160px"
     font-family="Helvetica"
     id="text286">
O</text>
  <text
     x="0"
     y="0"
     stroke="none"
     fill="#000000"
     transform="matrix(0.05 0 0 0.05 463.281 301.029)"
     font-style="normal"
     font-weight="bold"
     font-size="120px"
     font-family="Helvetica"
     id="text287">
+</text>
  <text
     x="0"
     y="0"
     stroke="none"
     fill="#000000"
     transform="matrix(0.05 0 0 0.05 431.067 245.584)"
     font-style="normal"
     font-weight="bold"
     font-size="200px"
     font-family="Helvetica"
     id="text288">
excess</text>
  <text
     x="0"
     y="0"
     stroke="none"
     fill="#000000"
     transform="matrix(0.05 0 0 0.05 429.87 221.727)"
     font-style="italic"
     font-weight="normal"
     font-size="200px"
     font-family="Helvetica Oblique"
     id="text289">
rare</text>
  <path
     stroke="none"
     fill="#ffffff"
     opacity="0"
     onclick="window.location.href = 'alcohols.svg'"
     transform="matrix(0.05 0 0 0.05 -10 -11)"
     d="M 3541.98,2430.48 C 3541.98,2430.48 3541.98,1451.36 3541.98,1451.36 C 3541.98,1451.36 2696.24,1451.36 2696.24,1451.36 C 2696.24,1451.36 2696.24,2430.48 2696.24,2430.48 C 2696.24,2430.48 3541.98,2430.48 3541.98,2430.48 "
     id="path3"
     inkscape:label="l-alcohol" />
  <path
     stroke="none"
     fill="#ffffff"
     opacity="0"
     onclick="window.location.href = 'alcohols.svg'"
     transform="matrix(0.05 0 0 0.05 -10 -11)"
     d="M 5320.38,2400.84 C 5320.38,2400.84 5320.38,1110.5 5320.38,1110.5 C 5320.38,1110.5 4445,1110.5 4445,1110.5 C 4445,1110.5 4445,2400.84 4445,2400.84 C 4445,2400.84 5320.38,2400.84 5320.38,2400.84 "
     id="path5"
     inkscape:label="l-alcohol" />
  <path
     stroke="none"
     fill="#ffffff"
     opacity="0"
     onclick="window.location.href = 'ketones.svg'"
     transform="matrix(0.05 0 0 0.05 -10 -11)"
     d="M 10092.4,2400.84 C 10092.4,2400.84 10092.4,1406.9 10092.4,1406.9 C 10092.4,1406.9 9320.78,1406.9 9320.78,1406.9 C 9320.78,1406.9 9320.78,2400.84 9320.78,2400.84 C 9320.78,2400.84 10092.4,2400.84 10092.4,2400.84 "
     id="path11"
     inkscape:label="l-ketone" />
  <path
     stroke="none"
     fill="#ffffff"
     opacity="0"
     onclick="window.location.href = 'alkanes.svg'"
     transform="matrix(0.05 0 0 0.05 -10 -11)"
     d="M 12434,2608.32 C 12434,2608.32 12434,1762.58 12434,1762.58 C 12434,1762.58 11543.8,1762.58 11543.8,1762.58 C 11543.8,1762.58 11543.8,2608.32 11543.8,2608.32 C 11543.8,2608.32 12434,2608.32 12434,2608.32 "
     id="path21"
     inkscape:label="l-alkane" />
  <path
     stroke="none"
     fill="#ffffff"
     opacity="0"
     onclick="window.location.href = 'ketones.svg'"
     transform="matrix(0.05 0 0 0.05 -10 -11)"
     d="M 11174.3,6861.66 C 11174.3,6861.66 11174.3,7868.42 11174.3,7868.42 C 11174.3,7868.42 16124.2,7868.42 16124.2,7868.42 C 16124.2,7868.42 16124.2,6861.66 16124.2,6861.66 C 16124.2,6861.66 11174.3,6861.66 11174.3,6861.66 "
     id="path35"
     inkscape:label="l-ketone" />
  <path
     stroke="none"
     fill="#ffffff"
     opacity="0"
     onclick="window.location.href = 'ketones.svg'"
     transform="matrix(0.05 0 0 0.05 -10 -11)"
     d="M 9277.32,7009.86 C 9277.32,7009.86 9277.32,7809.14 9277.32,7809.14 C 9277.32,7809.14 10165.5,7809.14 10165.5,7809.14 C 10165.5,7809.14 10165.5,7009.86 10165.5,7009.86 C 10165.5,7009.86 9277.32,7009.86 9277.32,7009.86 "
     id="path37"
     inkscape:label="l-ketone" />
  <path
     stroke="none"
     fill="#ffffff"
     opacity="0"
     onclick="window.location.href = 'alkanes.svg'"
     transform="matrix(0.05 0 0 0.05 -10 -11)"
     d="M 3779.1,7543.38 C 3779.1,7543.38 3779.1,6697.64 3779.1,6697.64 C 3779.1,6697.64 5082.26,6697.64 5082.26,6697.64 C 5082.26,6697.64 5082.26,7543.38 5082.26,7543.38 C 5082.26,7543.38 3779.1,7543.38 3779.1,7543.38 "
     id="path45"
     inkscape:label="l-alkane" />
  <path
     stroke="none"
     fill="#ffffff"
     opacity="0"
     onclick="window.location.href = 'toorganometallics.svg'"
     d="m 217.58355,250.40255 c 0,0 0,-40.72321 0,-40.72321 0,0 113.63561,0 113.63561,0 0,0 0,40.72321 0,40.72321 0,0 -113.63561,0 -113.63561,0"
     id="path45-9"
     inkscape:label="l-toorganometallics"
     style="opacity:0;stroke-width:0.0647979" />
  <path
     stroke="none"
     fill="#ffffff"
     opacity="0"
     onclick="window.location.href = 'toorganometallics.svg'"
     d="m 418.25179,252.64907 c 0,0 0,-40.72321 0,-40.72321 0,0 113.63561,0 113.63561,0 0,0 0,40.72321 0,40.72321 0,0 -113.63561,0 -113.63561,0"
     id="path45-9-9"
     inkscape:label="l-toorganometallics"
     style="opacity:0;stroke-width:0.0647979" />
  <path
     stroke="none"
     fill="#ffffff"
     opacity="0"
     onclick="window.location.href = 'toorganometallics.svg'"
     d="m 598.72507,251.24993 c 0,0 0,-40.72321 0,-40.72321 0,0 113.63561,0 113.63561,0 0,0 0,40.72321 0,40.72321 0,0 -113.63561,0 -113.63561,0"
     id="path45-9-3"
     inkscape:label="l-toorganometallics"
     style="opacity:0;stroke-width:0.0647979" />
  <path
     stroke="none"
     fill="#ffffff"
     opacity="0"
     onclick="window.location.href = 'toorganometallics.svg'"
     d="m 221.64376,210.17146 c 0,0 0,-22.73958 0,-22.73958 0,0 85.48732,0 85.48732,0 0,0 0,22.73958 0,22.73958 0,0 -85.48732,0 -85.48732,0"
     id="path45-9-99"
     inkscape:label="l-toorganometallics"
     style="opacity:0;stroke-width:0.0419977" />
  <path
     stroke="none"
     fill="#ffffff"
     opacity="0"
     onclick="window.location.href = 'supplement.svg'"
     d="m 94.772292,182.21285 c 0,0 0,-14.13871 0,-14.13871 0,0 42.482988,0 42.482988,0 0,0 0,14.13871 0,14.13871 0,0 -42.482988,0 -42.482988,0"
     id="path45-9-99-0"
     inkscape:label="l-supplement"
     style="opacity:0;stroke-width:0.0233451" />
  <path
     stroke="none"
     fill="#ffffff"
     opacity="0"
     onclick="window.location.href = 'supplement.svg'"
     d="m 184.02503,183.19215 c 0,0 0,-11.01112 0,-11.01112 0,0 42.48299,0 42.48299,0 0,0 0,11.01112 0,11.01112 0,0 -42.48299,0 -42.48299,0"
     id="path45-9-99-0-7"
     inkscape:label="l-supplement"
     style="opacity:0;stroke-width:0.0206019" />
  <path
     stroke="none"
     fill="#ffffff"
     opacity="0"
     onclick="window.location.href = 'supplement.svg'"
     d="m 261.62157,176.50077 c 0,0 0,-14.13871 0,-14.13871 0,0 42.48299,0 42.48299,0 0,0 0,14.13871 0,14.13871 0,0 -42.48299,0 -42.48299,0"
     id="path45-9-99-0-5"
     inkscape:label="l-supplement"
     style="opacity:0;stroke-width:0.0233451" />
  <path
     stroke="none"
     fill="#ffffff"
     opacity="0"
     onclick="window.location.href = 'supplement.svg'"
     d="m 335.65864,173.02749 c 0,0 0,-14.13871 0,-14.13871 0,0 42.48299,0 42.48299,0 0,0 0,14.13871 0,14.13871 0,0 -42.48299,0 -42.48299,0"
     id="path45-9-99-0-4"
     inkscape:label="l-supplement"
     style="opacity:0;stroke-width:0.0233451" />
  <path
     stroke="none"
     fill="#ffffff"
     opacity="0"
     onclick="window.location.href = 'supplement.svg'"
     d="m 426.40779,175.13871 c 0,0 0,-14.13871 0,-14.13871 0,0 42.48299,0 42.48299,0 0,0 0,14.13871 0,14.13871 0,0 -42.48299,0 -42.48299,0"
     id="path45-9-99-0-46"
     inkscape:label="l-supplement"
     style="opacity:0;stroke-width:0.0233451" />
  <path
     stroke="none"
     fill="#ffffff"
     opacity="0"
     onclick="window.location.href = 'supplement.svg'"
     d="m 598.1242,325.00774 c 0,0 0,-11.01112 0,-11.01112 0,0 40.1373,0 40.1373,0 0,0 0,11.01112 0,11.01112 0,0 -40.1373,0 -40.1373,0"
     id="path45-9-99-0-9"
     inkscape:label="l-supplement"
     style="opacity:0;stroke-width:0.020025" />
  <path
     stroke="none"
     fill="#ffffff"
     opacity="0"
     onclick="window.location.href = 'supplement.svg'"
     d="m 426.60858,308.38956 c 0,0 0,-14.13871 0,-14.13871 0,0 42.48299,0 42.48299,0 0,0 0,14.13871 0,14.13871 0,0 -42.48299,0 -42.48299,0"
     id="path45-9-99-0-3"
     inkscape:label="l-supplement"
     style="opacity:0;stroke-width:0.0233451" />
  <path
     stroke="none"
     fill="#ffffff"
     opacity="0"
     onclick="window.location.href = 'supplement.svg'"
     d="m 173.75592,316.30336 c 0,0 0,-30.55854 0,-30.55854 0,0 37.00971,0 37.00971,0 0,0 0,30.55854 0,30.55854 0,0 -37.00971,0 -37.00971,0"
     id="path45-9-99-0-37"
     inkscape:label="l-supplement"
     style="opacity:0;stroke-width:0.0320337" />
  <path
     stroke="none"
     fill="#ffffff"
     opacity="0"
     onclick="window.location.href = 'toketones.svg'"
     d="m 106.95332,153.14209 c 0,0 0,-31.34044 0,-31.34044 0,0 31.53643,0 31.53643,0 0,0 0,31.34044 0,31.34044 0,0 -31.53643,0 -31.53643,0"
     id="path45-9-99-0-77"
     inkscape:label="l-supplement"
     style="opacity:0;stroke-width:0.0299462" />
  <path
     stroke="none"
     fill="#ffffff"
     opacity="0"
     onclick="window.location.href = 'toesters.svg'"
     d="m 185.46124,149.61199 c 0,0 0,-34.46803 0,-34.46803 0,0 50.30196,0 50.30196,0 0,0 0,34.46803 0,34.46803 0,0 -50.30196,0 -50.30196,0"
     id="path45-9-99-0-77-6"
     inkscape:label="l-supplement"
     style="opacity:0;stroke-width:0.0396628" />
  <path
     stroke="none"
     fill="#ffffff"
     opacity="0"
     onclick="window.location.href = 'toacids.svg'"
     d="m 354.34231,317.44827 c 0,0 0,-31.34044 0,-31.34044 0,0 40.1373,0 40.1373,0 0,0 0,31.34044 0,31.34044 0,0 -40.1373,0 -40.1373,0"
     id="path45-9-99-0-77-6-30"
     inkscape:label="l-supplement"
     style="opacity:0;stroke-width:0.0337839" />
  <path
     stroke="none"
     fill="#ffffff"
     opacity="0"
     onclick="window.location.href = 'toacids.svg'"
     d="m 430.20606,292.88353 c 0,0 0,-31.34044 0,-31.34044 0,0 40.1373,0 40.1373,0 0,0 0,31.34044 0,31.34044 0,0 -40.1373,0 -40.1373,0"
     id="path45-9-99-0-77-6-30-8"
     inkscape:label="l-supplement"
     style="opacity:0;stroke-width:0.0337839" />
  <path
     stroke="none"
     fill="#ffffff"
     opacity="0"
     onclick="window.location.href = 'toalcohols.svg'"
     d="m 353.14396,327.81372 c 0,0 0,-8.66543 0,-8.66543 0,0 41.70109,0 41.70109,0 0,0 0,8.66543 0,8.66543 0,0 -41.70109,0 -41.70109,0"
     id="path45-9-99-0-77-6-30-2"
     inkscape:label="l-supplement"
     style="opacity:0;stroke-width:0.0181072" />
  <path
     stroke="none"
     fill="#ffffff"
     opacity="0"
     onclick="window.location.href = 'toacidchlorides.svg'"
     d="m 168.85171,170.05253 c 0,0 0,-17.2663 0,-17.2663 0,0 63.59421,0 63.59421,0 0,0 0,17.2663 0,17.2663 0,0 -63.59421,0 -63.59421,0"
     id="path45-9-99-0-77-6-3"
     inkscape:label="l-supplement"
     style="opacity:0;stroke-width:0.0315639" />
  <path
     stroke="none"
     fill="#ffffff"
     opacity="0"
     onclick="window.location.href = 'toaldehydes.svg'"
     d="m 92.143959,164.85079 c 0,0 0,-10.22922 0,-10.22922 0,0 51.083851,0 51.083851,0 0,0 0,10.22922 0,10.22922 0,0 -51.083851,0 -51.083851,0"
     id="path45-9-99-0-77-8"
     inkscape:label="l-supplement"
     style="opacity:0;stroke-width:0.0217744" />
  <path
     stroke="none"
     fill="#ffffff"
     opacity="0"
     onclick="window.location.href = 'toepoxides.svg'"
     d="m 350.06549,152.12666 c 0,0 0,-25.86716 0,-25.86716 0,0 26.84505,0 26.84505,0 0,0 0,25.86716 0,25.86716 0,0 -26.84505,0 -26.84505,0"
     id="path45-9-99-0-77-6-7"
     inkscape:label="l-supplement"
     style="opacity:0;stroke-width:0.0251009" />
  <path
     stroke="none"
     fill="#ffffff"
     opacity="0"
     onclick="window.location.href = 'acids.svg'"
     d="m 392.09052,378.50604 c 0,0 0,-32.90423 0,-32.90423 0,0 39.3554,0 39.3554,0 0,0 0,32.90423 0,32.90423 0,0 -39.3554,0 -39.3554,0"
     id="path45-9-99-0-77-6-7-9"
     inkscape:label="l-supplement"
     style="opacity:0;stroke-width:0.0342776" />
  <path
     stroke="none"
     fill="#ffffff"
     opacity="0"
     onclick="window.location.href = 'tonitriles.svg'"
     d="m 431.54742,156.13871 c 0,0 0,-26.64906 0,-26.64906 0,0 34.66402,0 34.66402,0 0,0 0,26.64906 0,26.64906 0,0 -34.66402,0 -34.66402,0"
     id="path45-9-99-0-77-6-5"
     inkscape:label="l-supplement"
     style="opacity:0;stroke-width:0.028951" />
  <path
     stroke="none"
     fill="#ffffff"
     opacity="0"
     onclick="window.location.href = 'tohalides.svg'"
     d="m 541.64227,179.56288 c 0,0 0,-50.10597 0,-50.10597 0,0 45.61058,0 45.61058,0 0,0 0,50.10597 0,50.10597 0,0 -45.61058,0 -45.61058,0"
     id="path45-9-99-0-77-6-0"
     inkscape:label="l-supplement"
     style="opacity:0;stroke-width:0.0455366" />
  <path
     stroke="none"
     fill="#ffffff"
     opacity="0"
     onclick="window.location.href = 'tohalides.svg'"
     d="m 724.32594,323.93793 c 0,0 0,-11.79302 0,-11.79302 0,0 45.61058,0 45.61058,0 0,0 0,11.79302 0,11.79302 0,0 -45.61058,0 -45.61058,0"
     id="path45-9-99-0-77-6-0-9"
     inkscape:label="l-supplement"
     style="opacity:0;stroke-width:0.0220917" />
  <path
     stroke="none"
     fill="#ffffff"
     opacity="0"
     onclick="window.location.href = 'toacidchlorides.svg'"
     d="m 736.8647,169.37752 c 0,0 0,-37.59562 0,-37.59562 0,0 37.79161,0 37.79161,0 0,0 0,37.59562 0,37.59562 0,0 -37.79161,0 -37.79161,0"
     id="path45-9-99-0-77-6-1"
     inkscape:label="l-supplement"
     style="opacity:0;stroke-width:0.0359045" />
  <path
     stroke="none"
     fill="#ffffff"
     opacity="0"
     onclick="window.location.href = 'toenones.svg'"
     d="m 599.35773,307.34572 c 0,0 0,-29.77665 0,-29.77665 0,0 46.39248,0 46.39248,0 0,0 0,29.77665 0,29.77665 0,0 -46.39248,0 -46.39248,0"
     id="path45-9-99-0-77-6-4"
     inkscape:label="l-supplement"
     style="opacity:0;stroke-width:0.0354034" />
  <path
     stroke="none"
     fill="#ffffff"
     opacity="0"
     onclick="window.location.href = 'toesters.svg'"
     d="m 723.55608,309.46803 c 0,0 0,-34.46803 0,-34.46803 0,0 50.30196,0 50.30196,0 0,0 0,34.46803 0,34.46803 0,0 -50.30196,0 -50.30196,0"
     id="path45-9-99-0-77-6-2"
     inkscape:label="l-supplement"
     style="opacity:0;stroke-width:0.0396628" />
  <path
     stroke="none"
     fill="#ffffff"
     opacity="0"
     onclick="window.location.href = 'tonon-alkyl-halides.svg'"
     d="m 637.94317,172.74729 c 0,0 0,-44.63269 0,-44.63269 0,0 41.7011,0 41.7011,0 0,0 0,44.63269 0,44.63269 0,0 -41.7011,0 -41.7011,0"
     id="path45-9-99-0-77-6-30-7"
     inkscape:label="l-supplement"
     style="opacity:0;stroke-width:0.0410944" />
  <path
     stroke="none"
     fill="#ffffff"
     opacity="0"
     onclick="window.location.href = 'aromatics.svg'"
     d="m 622.16033,181.57925 c 0,0 0,-10.22923 0,-10.22923 0,0 57.33904,0 57.33904,0 0,0 0,10.22923 0,10.22923 0,0 -57.33904,0 -57.33904,0"
     id="path45-9-99-0-77-6-30-7-3"
     inkscape:label="l-supplement"
     style="opacity:0;stroke-width:0.023069" />
  <g
     id="noreagents"
     onclick="window.location.href = 'organometallics-noreagents.svg'"
     transform="translate(-4.6856272,378.9067)">
    <text
       x="11.200497"
       y="54.141506"
       stroke="none"
       fill="#000000"
       font-style="normal"
       font-weight="bold"
       font-size="200px"
       font-family="Helvetica"
       id="gobacktext-7"
       style="font-style:normal;font-weight:bold;font-size:10px;font-family:Helvetica;fill:#000000;fill-opacity:0.443609;stroke:none;stroke-width:0.05"
       inkscape:label="noreagents-text"><tspan
         sodipodi:role="line"
         id="tspan2"
         x="11.200497"
         y="54.141506"
         style="font-style:normal;font-variant:normal;font-weight:bold;font-stretch:normal;font-size:8px;font-family:Helvetica;-inkscape-font-specification:'Helvetica, Bold';font-variant-ligatures:normal;font-variant-caps:normal;font-variant-numeric:normal;font-variant-east-asian:normal;fill:#000000;fill-opacity:0.5;stroke-width:0.05">reagents</tspan></text>
    <rect
       style="fill:#000000;fill-opacity:0.821053;fill-rule:evenodd;stroke:#a13033;stroke-width:0;stroke-linecap:round;stroke-miterlimit:2;stroke-dasharray:none;paint-order:markers fill stroke"
       id="rect3"
       width="31.666824"
       height="0.9773711"
       x="12.224979"
       y="51.518982"
       inkscape:label="noreagents-line" />
    <path
       stroke="none"
       fill="#999999"
       d="m 9.795,54.694678 c 0,0 0,-5.427567 0,-5.427567 0,-2.098514 1.463398,-3.801611 3.266274,-3.801611 0,0 30.608907,0 30.608907,0 1.803073,0 3.266397,1.703097 3.266397,3.801611 0,0 0,5.427567 0,5.427567 0,2.098514 -1.463324,3.801611 -3.266397,3.801611 0,0 -30.608907,0 -30.608907,0 -1.802876,0 -3.266274,-1.703097 -3.266274,-3.801611"
       id="goback-box-8"
       style="fill:#999999;fill-opacity:0.336842;stroke-width:0.0264832"
       inkscape:label="noreagents-box" />
  </g>
  <g
     id="nonames"
     onclick="window.location.href = 'organometallics.svg'"
     transform="matrix(0.85780308,0,0,1,-3.2442635,382.9067)">
    <text
       x="18.441887"
       y="69.010506"
       stroke="none"
       fill="#000000"
       font-style="normal"
       font-weight="bold"
       font-size="200px"
       font-family="Helvetica"
       id="gobacktext-7-8"
       style="font-style:normal;font-variant:normal;font-weight:bold;font-stretch:normal;font-size:10px;font-family:Helvetica;-inkscape-font-specification:'Helvetica, Bold';font-variant-ligatures:normal;font-variant-caps:normal;font-variant-numeric:normal;font-variant-east-asian:normal;fill:#0088d0;fill-opacity:0.675806;stroke:none;stroke-width:0.05"
       inkscape:label="noproducts-text"><tspan
         sodipodi:role="line"
         id="tspan1"
         x="18.441887"
         y="69.010506">show</tspan></text>
    <path
       stroke="none"
       fill="#999999"
       d="m 10.136392,68.163695 c 0,0 0,-5.427567 0,-5.427567 0,-2.098514 1.679048,-3.801611 3.747601,-3.801611 0,0 35.119514,0 35.119514,0 2.068778,0 3.747742,1.703097 3.747742,3.801611 0,0 0,5.427567 0,5.427567 0,2.098514 -1.678964,3.801611 -3.747742,3.801611 0,0 -35.119514,0 -35.119514,0 -2.068553,0 -3.747601,-1.703097 -3.747601,-3.801611"
       id="goback-box-8-6"
       style="fill:#999999;fill-opacity:0.336842;stroke-width:0.0283675"
       inkscape:label="noproducts-box" />
  </g>
  <text
     x="822.84332"
     y="415.79849"
     stroke="none"
     fill="#000000"
     transform="matrix(0.92407999,-0.00322566,0.00377741,1.0821442,0,0)"
     font-style="italic"
     font-weight="bold"
     font-size="8.25806px"
     font-family="'Helvetica Oblique'"
     id="text11"
     style="opacity:1;fill:#00009a;fill-opacity:0.651128;stroke-width:0.0412903">chemisfun</text>
  <g
     id="overlay-box"
     style="opacity:0"
     transform="matrix(0.31364504,0,0,0.8007311,650.50736,385.81436)">
    <rect
       style="fill:#609975;fill-opacity:0.2;stroke:#609970;stroke-width:0;stroke-linecap:round;stroke-opacity:0.657143;paint-order:fill markers stroke"
       id="rect285"
       width="164.84744"
       height="59.583412"
       x="329.69489"
       y="23.171328" />
  </g>
  <g
     id="overlay"
     onclick="window.location.href = 'index.html'"
     onmouseover="this.ownerDocument.getElementById('overlay-box').style.opacity='0.5'"
     onmouseout="this.ownerDocument.getElementById('overlay-box').style.opacity='0'"
     transform="matrix(0.76550767,-0.0030054,0.00267214,0.86098131,195.61318,22.784653)">
    <rect
       style="opacity:0.5;fill:#ffffff;fill-opacity:0;stroke-linecap:round;stroke-opacity:0.657143;paint-order:stroke fill markers"
       id="rect2"
       width="65.93074"
       height="55.035408"
       x="733.06049"
       y="445.87061" />
  </g>
  <g
     id="g1"
     transform="matrix(0.0625,0,0,0.0625,764.65732,406.62566)">
    <rect
       x="239.31"
       y="120.321"
       style="fill:#444242"
       width="33.389"
       height="139.98"
       id="rect1" />
    <rect
       x="256"
       y="120.321"
       style="fill:#3a3839"
       width="16.695"
       height="139.98"
       id="rect2-2" />
    <rect
       x="132.194"
       y="305.86301"
       transform="matrix(0.5,0.866,-0.866,0.5,399.932,58.9793)"
       style="fill:#444242"
       width="33.387001"
       height="139.967"
       id="rect4" />
    <rect
       x="293.125"
       y="359.13"
       transform="matrix(0.866,0.5,-0.5,0.866,236.5654,-131.205)"
       style="fill:#3a3839"
       width="139.967"
       height="33.387001"
       id="rect5" />
    <path
       style="background-color:#ffffff00;fill:#439de2;fill-opacity:1"
       d="m 456.843,485.07 c -9.538,0 -18.951,-2.501 -27.432,-7.398 v 0 c -12.733,-7.351 -21.842,-19.221 -25.646,-33.424 -3.805,-14.201 -1.853,-29.035 5.499,-41.769 7.351,-12.732 19.221,-21.841 33.424,-25.646 14.201,-3.806 29.034,-1.853 41.769,5.499 12.732,7.351 21.841,19.221 25.646,33.424 3.805,14.202 1.853,29.035 -5.499,41.769 -7.351,12.733 -19.221,21.842 -33.424,25.646 -4.742,1.27 -9.557,1.899 -14.337,1.899 z"
       id="path7-3" />
    <path
       style="background-color:#ffffff00;fill:#eda74a;fill-opacity:1"
       d="m 256.001,137.021 c -30.352,0 -55.044,-24.693 -55.044,-55.044 0,-30.351 24.693,-55.044 55.044,-55.044 30.351,0 55.044,24.693 55.044,55.044 0,30.351 -24.693,55.044 -55.044,55.044 z"
       id="path5-4" />
    <path
       style="background-color:#ffffff00;fill:#53acb1;fill-opacity:1"
       d="m 55.158,485.07 c -4.781,0 -9.594,-0.629 -14.336,-1.9 C 26.619,479.365 14.75,470.256 7.398,457.524 0.046,444.792 -1.906,429.957 1.899,415.755 c 3.805,-14.203 12.914,-26.072 25.646,-33.424 12.731,-7.352 27.567,-9.304 41.769,-5.499 14.203,3.805 26.072,12.914 33.424,25.646 7.352,12.732 9.304,27.567 5.499,41.769 -3.805,14.203 -12.914,26.072 -25.646,33.424 -8.481,4.897 -17.896,7.399 -27.433,7.399 z"
       id="path6-7" />
    <path
       style="fill:#f74d37"
       d="m 256.001,384.379 c -38.81,0 -70.384,-31.575 -70.384,-70.384 0,-38.809 31.575,-70.384 70.384,-70.384 38.809,0 70.384,31.575 70.384,70.384 0,38.809 -31.575,70.384 -70.384,70.384 z"
       id="path4-9" />
  </g>
</svg>
