<?xml version="1.0" encoding="UTF-8" standalone="no"?>
<svg
   width="100%"
   height="100%"
   viewBox="0 0 818 460"
   style="background-color: #ffffff00"
   version="1.1"
   id="svg250"
   sodipodi:docname="phenols-noproducts-o1.svg"
   inkscape:version="1.4.2 (ebf0e940, 2025-05-08)"
   xmlns:inkscape="http://www.inkscape.org/namespaces/inkscape"
   xmlns:sodipodi="http://sodipodi.sourceforge.net/DTD/sodipodi-0.dtd"
   xmlns="http://www.w3.org/2000/svg"
   xmlns:svg="http://www.w3.org/2000/svg">
  <path
     stroke="none"
     fill="#ffffff"
     transform="matrix(0.05 0 0 0.05 -10 -11)"
     d="M 3911.7,3835 C 3911.7,3835 3911.7,3235.74 3911.7,3235.74 C 3911.7,3235.74 3113.02,3235.74 3113.02,3235.74 C 3113.02,3235.74 3113.02,3835 3113.02,3835 C 3113.02,3835 3911.7,3835 3911.7,3835 "
     id="path5" />
  <path
     stroke="#ffffff"
     stroke-width="1"
     fill="none"
     transform="matrix(0.05 0 0 0.05 -10 -11)"
     d="M 3911.7,3835 C 3911.7,3835 3911.7,3235.74 3911.7,3235.74 C 3911.7,3235.74 3113.02,3235.74 3113.02,3235.74 C 3113.02,3235.74 3113.02,3835 3113.02,3835 C 3113.02,3835 3911.7,3835 3911.7,3835 "
     id="path6" />
  <path
     stroke="none"
     fill="#ffffff"
     transform="matrix(0.05 0 0 0.05 -10 -11)"
     d="M 5445.7,3236.74 C 5445.7,3236.74 5445.7,3940.75 5445.7,3940.75 C 5445.7,3940.75 4447.6,3940.75 4447.6,3940.75 C 4447.6,3940.75 4447.6,3236.74 4447.6,3236.74 C 4447.6,3236.74 5445.7,3236.74 5445.7,3236.74 "
     id="path21" />
  <path
     stroke="#ffffff"
     stroke-width="1"
     fill="none"
     transform="matrix(0.05 0 0 0.05 -10 -11)"
     d="M 5445.7,3236.74 C 5445.7,3236.74 5445.7,3940.75 5445.7,3940.75 C 5445.7,3940.75 4447.6,3940.75 4447.6,3940.75 C 4447.6,3940.75 4447.6,3236.74 4447.6,3236.74 C 4447.6,3236.74 5445.7,3236.74 5445.7,3236.74 "
     id="path22" />
  <path
     stroke="#000000"
     stroke-width="22"
     fill="none"
     transform="matrix(0.05 0 0 0.05 -10 -11)"
     d="M 16494.7,9367.47 C 16494.7,9367.47 16494.7,284.602 16494.7,284.602 C 16494.7,284.602 268.683,284.602 268.683,284.602 C 268.683,284.602 268.683,9367.47 268.683,9367.47 C 268.683,9367.47 16494.7,9367.47 16494.7,9367.47 "
     id="path25" />
  <text
     x="0"
     y="0"
     stroke="none"
     fill="#000000"
     transform="matrix(0.05 0 0 0.05 11.735 21.13)"
     font-style="normal"
     font-weight="bold"
     font-size="320px"
     font-family="Helvetica"
     id="text25">
Phenols - Reactions</text>
  <text
     x="0"
     y="0"
     stroke="none"
     fill="#999999"
     transform="matrix(0.05 0 0 0.05 11.9381 39.085)"
     font-style="normal"
     font-weight="normal"
     font-size="320px"
     font-family="Helvetica"
     id="text28">
click for more</text>
  <g
     id="goback"
     onclick="window.location.href = 'index-o1.svg'"
     onmouseover="document.getElementById('goback-box').setAttribute('opacity','0.5');"
     onmouseout="document.getElementById('goback-box').setAttribute('opacity','1')">
    <path
       stroke="none"
       fill="#999999"
       transform="matrix(0.05 0 0 0.05 -10 -11)"
       d="M 395.9,1492.34 C 395.9,1492.34 395.9,1302.37 395.9,1302.37 C 395.9,1228.92 455.513,1169.31 528.955,1169.31 C 528.955,1169.31 1775.84,1169.31 1775.84,1169.31 C 1849.29,1169.31 1908.9,1228.92 1908.9,1302.37 C 1908.9,1302.37 1908.9,1492.34 1908.9,1492.34 C 1908.9,1565.79 1849.29,1625.4 1775.84,1625.4 C 1775.84,1625.4 528.955,1625.4 528.955,1625.4 C 455.513,1625.4 395.9,1565.79 395.9,1492.34 "
       id="goback-box" />
    <text
       x="0"
       y="0"
       stroke="none"
       fill="#000000"
       transform="matrix(0.05 0 0 0.05 29.3796 61.765)"
       font-style="normal"
       font-weight="bold"
       font-size="200px"
       font-family="Helvetica"
       id="gobacktext">
go home</text>
    <path
       stroke="#999999"
       stroke-width="1"
       transform="matrix(0.05 0 0 0.05 -10 -11)"
       d="M 395.9,1492.34 C 395.9,1492.34 395.9,1302.37 395.9,1302.37 C 395.9,1228.92 455.513,1169.31 528.955,1169.31 C 528.955,1169.31 1775.84,1169.31 1775.84,1169.31 C 1849.29,1169.31 1908.9,1228.92 1908.9,1302.37 C 1908.9,1302.37 1908.9,1492.34 1908.9,1492.34 C 1908.9,1565.79 1849.29,1625.4 1775.84,1625.4 C 1775.84,1625.4 528.955,1625.4 528.955,1625.4 C 455.513,1625.4 395.9,1565.79 395.9,1492.34 "
       style="opacity:0"
       id="goback-link" />
  </g>
  <g
     id="howtomake"
     onclick="window.location.href = 'tophenols-o1.svg'"
     onmouseover="document.getElementById('howtomake-box').setAttribute('opacity','0.5');"
     onmouseout="document.getElementById('howtomake-box').setAttribute('opacity','1')">
    <path
       stroke="none"
       fill="#999999"
       transform="matrix(0.05 0 0 0.05 -10 -11)"
       d="M 381.591,2007.46 C 381.591,2007.46 381.591,1817.48 381.591,1817.48 C 381.591,1744.04 441.204,1684.42 514.647,1684.42 C 514.647,1684.42 1761.54,1684.42 1761.54,1684.42 C 1834.98,1684.42 1894.59,1744.04 1894.59,1817.48 C 1894.59,1817.48 1894.59,2007.46 1894.59,2007.46 C 1894.59,2080.9 1834.98,2140.51 1761.54,2140.51 C 1761.54,2140.51 514.647,2140.51 514.647,2140.51 C 441.204,2140.51 381.591,2080.9 381.591,2007.46 "
       id="howtomake-box" />
    <text
       x="0"
       y="0"
       stroke="none"
       fill="#000000"
       transform="matrix(0.05 0 0 0.05 17.275 87.5206)"
       font-style="normal"
       font-weight="bold"
       font-size="200px"
       font-family="Helvetica"
       id="howtomaketext">
how to make</text>
    <path
       stroke="#999999"
       stroke-width="1"
       transform="matrix(0.05 0 0 0.05 -10 -11)"
       d="M 381.591,2007.46 C 381.591,2007.46 381.591,1817.48 381.591,1817.48 C 381.591,1744.04 441.204,1684.42 514.647,1684.42 C 514.647,1684.42 1761.54,1684.42 1761.54,1684.42 C 1834.98,1684.42 1894.59,1744.04 1894.59,1817.48 C 1894.59,1817.48 1894.59,2007.46 1894.59,2007.46 C 1894.59,2080.9 1834.98,2140.51 1761.54,2140.51 C 1761.54,2140.51 514.647,2140.51 514.647,2140.51 C 441.204,2140.51 381.591,2080.9 381.591,2007.46 "
       style="opacity:0"
       id="howtomake-link" />
  </g>
  <path
     stroke="none"
     fill="#000000"
     transform="matrix(0.05 0 0 0.05 -10 -11)"
     d="M 5518.7,3472.68 L 5518.7,4231.17 L 5496.7,4231.17 L 5496.7,3472.68 Z "
     id="path35" />
  <path
     stroke="none"
     fill="#000000"
     transform="matrix(0.05 0 0 0.05 -10 -11)"
     d="M 5507.7,3279.64 C 5507.7,3279.64 5564.14,3501.4 5564.14,3501.4 C 5564.14,3501.4 5532.39,3473.68 5507.7,3473.68 C 5482.57,3473.68 5450.26,3501.4 5450.26,3501.4 C 5450.26,3501.4 5507.7,3279.64 5507.7,3279.64 C 5507.7,3279.64 5507.7,3279.64 5507.7,3279.64 "
     id="path36" />
  <path
     stroke="#000000"
     stroke-width="1"
     fill="none"
     transform="matrix(0.05 0 0 0.05 -10 -11)"
     d="M 5507.7,3279.64 C 5507.7,3279.64 5564.14,3501.4 5564.14,3501.4 C 5564.14,3501.4 5532.39,3473.68 5507.7,3473.68 C 5482.57,3473.68 5450.26,3501.4 5450.26,3501.4 C 5450.26,3501.4 5507.7,3279.64 5507.7,3279.64 C 5507.7,3279.64 5507.7,3279.64 5507.7,3279.64 "
     id="path37" />
  <path
     stroke="none"
     fill="#000000"
     d="M 327.5557,201.1085 H 189.568 v -1.1 h 137.9877 z"
     id="path38"
     style="stroke-width:0.0438135" />
  <path
     stroke="none"
     fill="#000000"
     transform="matrix(0.05 0 0 0.05 -10 -11)"
     d="M 4002.36,3501.28 L 4002.36,4231.17 L 3980.36,4231.17 L 3980.36,3501.28 Z "
     id="path39" />
  <path
     stroke="none"
     fill="#000000"
     transform="matrix(0.05 0 0 0.05 -10 -11)"
     d="M 3991.36,3308.24 C 3991.36,3308.24 4047.8,3530 4047.8,3530 C 4047.8,3530 4016.05,3502.28 3991.36,3502.28 C 3966.23,3502.28 3933.92,3530 3933.92,3530 C 3933.92,3530 3991.36,3308.24 3991.36,3308.24 C 3991.36,3308.24 3991.36,3308.24 3991.36,3308.24 "
     id="path40" />
  <path
     stroke="#000000"
     stroke-width="1"
     fill="none"
     transform="matrix(0.05 0 0 0.05 -10 -11)"
     d="M 3991.36,3308.24 C 3991.36,3308.24 4047.8,3530 4047.8,3530 C 4047.8,3530 4016.05,3502.28 3991.36,3502.28 C 3966.23,3502.28 3933.92,3530 3933.92,3530 C 3933.92,3530 3991.36,3308.24 3991.36,3308.24 C 3991.36,3308.24 3991.36,3308.24 3991.36,3308.24 "
     id="path41" />
  <path
     stroke="none"
     fill="#000000"
     transform="matrix(0.05 0 0 0.05 -10 -11)"
     d="M 6737.9,4657.42 L 6737.9,4217.86 L 6759.9,4217.86 L 6759.9,4657.42 Z "
     id="path42" />
  <text
     x="0"
     y="0"
     stroke="none"
     fill="#0000ff"
     transform="matrix(0.05 0 0 0.05 256.183 260.628)"
     font-style="normal"
     font-weight="bold"
     font-size="280px"
     font-family="Helvetica"
     id="text45">
phenols</text>
  <text
     x="0"
     y="0"
     stroke="none"
     fill="#000000"
     transform="matrix(0.05 0 0 0.05 608.6 194.119)"
     font-style="normal"
     font-weight="bold"
     font-size="200px"
     font-family="Helvetica"
     id="text51">
NaH</text>
  <text
     x="0"
     y="0"
     stroke="none"
     fill="#000000"
     transform="matrix(0.05 0 0 0.05 306.578 296.832)"
     font-style="normal"
     font-weight="bold"
     font-size="200px"
     font-family="Helvetica"
     id="text52">
TsCl</text>
  <text
     x="0"
     y="0"
     stroke="none"
     fill="#000000"
     transform="matrix(0.05 0 0 0.05 305.593 309.634)"
     font-style="normal"
     font-weight="bold"
     font-size="200px"
     font-family="Helvetica"
     id="text53">
Et</text>
  <text
     x="0"
     y="0"
     stroke="none"
     fill="#000000"
     transform="matrix(0.05 0 0 0.05 315.593 311.934)"
     font-style="normal"
     font-weight="bold"
     font-size="150px"
     font-family="Helvetica"
     id="text54">
3</text>
  <text
     x="0"
     y="0"
     stroke="none"
     fill="#000000"
     transform="matrix(0.05 0 0 0.05 319.764 309.634)"
     font-style="normal"
     font-weight="bold"
     font-size="200px"
     font-family="Helvetica"
     id="text55">
N</text>
  <text
     x="0"
     y="0"
     stroke="none"
     fill="#000000"
     transform="matrix(0.05 0 0 0.05 302.155 321.563)"
     font-style="normal"
     font-weight="bold"
     font-size="160px"
     font-family="Helvetica"
     id="text56">
(or </text>
  <text
     x="0"
     y="0"
     stroke="none"
     fill="#000000"
     transform="matrix(0.05 0 0 0.05 315.042 321.563)"
     font-style="normal"
     font-weight="bold"
     font-size="160px"
     font-family="Helvetica"
     id="text57">
Py)</text>
  <path
     stroke="none"
     fill="#000000"
     transform="matrix(0.05 0 0 0.05 -10 -11)"
     d="M 3484.9,3622.48 L 3484.68,3596.72 L 3585.55,3656.48 L 3574.46,3675.69 L 3484.9,3622.48 Z "
     id="path57" />
  <text
     x="0"
     y="0"
     stroke="none"
     fill="#000000"
     transform="matrix(0.05 0 0 0.05 169.657 177.943)"
     font-style="normal"
     font-weight="bold"
     font-size="180px"
     font-family="Helvetica"
     id="text58">
OH</text>
  <path
     stroke="none"
     fill="#000000"
     transform="matrix(0.05 0 0 0.05 -10 -11)"
     d="M 3467.53,3626.75 L 3445.35,3626.75 L 3445.35,3504.57 L 3467.53,3504.57 L 3467.53,3626.75 Z "
     id="path58" />
  <path
     stroke="none"
     fill="#000000"
     transform="matrix(0.05 0 0 0.05 -10 -11)"
     d="M 3522.97,3626.75 L 3500.79,3626.75 L 3500.79,3504.57 L 3522.97,3504.57 L 3522.97,3626.75 Z "
     id="path59" />
  <text
     x="0"
     y="0"
     stroke="none"
     fill="#000000"
     transform="matrix(0.05 0 0 0.05 160.708 162.443)"
     font-style="normal"
     font-weight="bold"
     font-size="180px"
     font-family="Helvetica"
     id="text59">
O</text>
  <path
     stroke="none"
     fill="#000000"
     transform="matrix(0.05 0 0 0.05 -10 -11)"
     d="M 3310.72,3723.69 L 3299.64,3704.48 L 3484.68,3596.72 L 3484.9,3622.48 L 3310.72,3723.69 Z "
     id="path60" />
  <text
     x="0"
     y="0"
     stroke="none"
     fill="#000000"
     transform="matrix(0.05 0 0 0.05 151.604 191.65)"
     font-style="normal"
     font-weight="bold"
     font-size="200px"
     font-family="Helvetica"
     id="text60">
cat. </text>
  <text
     x="0"
     y="0"
     stroke="none"
     fill="#000000"
     transform="matrix(0.05 0 0 0.05 171.614 191.65)"
     font-style="normal"
     font-weight="bold"
     font-size="200px"
     font-family="Helvetica"
     id="text61">
H</text>
  <text
     x="0"
     y="0"
     stroke="none"
     fill="#000000"
     transform="matrix(0.05 0 0 0.05 178.835 188.051)"
     font-style="normal"
     font-weight="bold"
     font-size="150px"
     font-family="Helvetica"
     id="text62">
+</text>
  <path
     stroke="none"
     fill="#000000"
     transform="matrix(0.05 0 0 0.05 -10 -11)"
     d="M 5069.73,3560.25 L 5069.52,3534.5 L 5174.13,3596.36 L 5163.04,3615.57 L 5069.73,3560.25 Z "
     id="path65" />
  <text
     x="0"
     y="0"
     stroke="none"
     fill="#000000"
     transform="matrix(0.05 0 0 0.05 249.152 174.83)"
     font-style="normal"
     font-weight="bold"
     font-size="180px"
     font-family="Helvetica"
     id="text65">
Cl</text>
  <path
     stroke="none"
     fill="#000000"
     transform="matrix(0.05 0 0 0.05 -10 -11)"
     d="M 5052.41,3564.5 L 5030.24,3564.5 L 5030.24,3442.32 L 5052.41,3442.32 L 5052.41,3564.5 Z "
     id="path66" />
  <path
     stroke="none"
     fill="#000000"
     transform="matrix(0.05 0 0 0.05 -10 -11)"
     d="M 5107.85,3564.5 L 5085.68,3564.5 L 5085.68,3442.32 L 5107.85,3442.32 L 5107.85,3564.5 Z "
     id="path67" />
  <text
     x="0"
     y="0"
     stroke="none"
     fill="#000000"
     transform="matrix(0.05 0 0 0.05 239.952 159.33)"
     font-style="normal"
     font-weight="bold"
     font-size="180px"
     font-family="Helvetica"
     id="text67">
O</text>
  <path
     stroke="none"
     fill="#000000"
     transform="matrix(0.05 0 0 0.05 -10 -11)"
     d="M 4895.61,3661.44 L 4884.52,3642.23 L 5069.52,3534.5 L 5069.73,3560.25 L 4895.61,3661.44 Z "
     id="path68" />
  <text
     x="0"
     y="0"
     stroke="none"
     fill="#000000"
     transform="matrix(0.05 0 0 0.05 236.603 195.451)"
     font-style="normal"
     font-weight="bold"
     font-size="200px"
     font-family="Helvetica"
     id="text68">
Et</text>
  <text
     x="0"
     y="0"
     stroke="none"
     fill="#000000"
     transform="matrix(0.05 0 0 0.05 246.603 197.751)"
     font-style="normal"
     font-weight="bold"
     font-size="150px"
     font-family="Helvetica"
     id="text69">
3</text>
  <text
     x="0"
     y="0"
     stroke="none"
     fill="#000000"
     transform="matrix(0.05 0 0 0.05 250.774 195.451)"
     font-style="normal"
     font-weight="bold"
     font-size="200px"
     font-family="Helvetica"
     id="text70">
N</text>
  <text
     x="0"
     y="0"
     stroke="none"
     fill="#000000"
     transform="matrix(0.05 0 0 0.05 211.658 184.046)"
     font-style="italic"
     font-weight="normal"
     font-size="160px"
     font-family="Helvetica Oblique"
     id="text84">
or anhydrides</text>
  <path
     stroke="none"
     fill="#000000"
     transform="matrix(0.05 0 0 0.05 -10 -11)"
     d="M 6800.6,6941.05 L 6800.6,5832.79 L 6822.6,5832.79 L 6822.6,6941.05 Z "
     id="path85" />
  <path
     stroke="none"
     fill="#000000"
     transform="matrix(0.05 0 0 0.05 -10 -11)"
     d="M 6811.6,7134.09 C 6811.6,7134.09 6754.16,6912.33 6754.16,6912.33 C 6754.16,6912.33 6786.47,6940.05 6811.6,6940.05 C 6836.29,6940.05 6868.04,6912.33 6868.04,6912.33 C 6868.04,6912.33 6811.6,7134.09 6811.6,7134.09 C 6811.6,7134.09 6811.6,7134.09 6811.6,7134.09 "
     id="path86" />
  <path
     stroke="#000000"
     stroke-width="1"
     fill="none"
     transform="matrix(0.05 0 0 0.05 -10 -11)"
     d="M 6811.6,7134.09 C 6811.6,7134.09 6754.16,6912.33 6754.16,6912.33 C 6754.16,6912.33 6786.47,6940.05 6811.6,6940.05 C 6836.29,6940.05 6868.04,6912.33 6868.04,6912.33 C 6868.04,6912.33 6811.6,7134.09 6811.6,7134.09 C 6811.6,7134.09 6811.6,7134.09 6811.6,7134.09 "
     id="path87" />
  <path
     stroke="none"
     fill="#000000"
     transform="matrix(0.05 0 0 0.05 -10 -11)"
     d="M 12205.5,5183.69 L 7372.56,5183.69 L 7372.56,5161.69 L 12205.5,5161.69 Z "
     id="path88" />
  <text
     x="0"
     y="0"
     stroke="none"
     fill="#000000"
     transform="matrix(0.05 0 0 0.05 699.376 223.228)"
     font-style="normal"
     font-weight="normal"
     font-size="200px"
     font-family="Helvetica"
     id="text89">
1</text>
  <text
     x="0"
     y="0"
     stroke="none"
     fill="#000000"
     transform="matrix(0.05 0 0 0.05 704.938 219.642)"
     font-style="normal"
     font-weight="normal"
     font-size="150px"
     font-family="Helvetica"
     id="text90">
o</text>
  <path
     stroke="none"
     fill="#000000"
     transform="matrix(0.05 0 0 0.05 -10 -11)"
     d="M 14303.1,3990.5 L 14304,4016.15 L 14119,4132.81 L 14107.2,4114.02 L 14303.1,3990.5 Z "
     id="path90" />
  <text
     x="0"
     y="0"
     stroke="none"
     fill="#000000"
     transform="matrix(0.05 0 0 0.05 684.244 200.389)"
     font-style="normal"
     font-weight="bold"
     font-size="180px"
     font-family="Helvetica"
     id="text91">
Br</text>
  <path
     stroke="none"
     fill="#000000"
     transform="matrix(0.05 0 0 0.05 -10 -11)"
     d="M 14573.5,4134.43 L 14563.1,4154.02 L 14304,4016.15 L 14303.1,3990.5 L 14573.5,4134.43 Z "
     id="path91" />
  <path
     stroke="none"
     fill="#000000"
     transform="matrix(0.05 0 0 0.05 -10 -11)"
     d="M 14518.4,4410.69 L 13894.8,4410.69 L 13894.8,4388.69 L 14518.4,4388.69 Z "
     id="path92" />
  <path
     stroke="none"
     fill="#000000"
     transform="matrix(0.05 0 0 0.05 -10 -11)"
     d="M 14711.4,4399.69 C 14711.4,4399.69 14489.7,4456.13 14489.7,4456.13 C 14489.7,4456.13 14517.4,4424.39 14517.4,4399.69 C 14517.4,4374.56 14489.7,4342.25 14489.7,4342.25 C 14489.7,4342.25 14711.4,4399.69 14711.4,4399.69 C 14711.4,4399.69 14711.4,4399.69 14711.4,4399.69 "
     id="path93" />
  <path
     stroke="#000000"
     stroke-width="1"
     fill="none"
     transform="matrix(0.05 0 0 0.05 -10 -11)"
     d="M 14711.4,4399.69 C 14711.4,4399.69 14489.7,4456.13 14489.7,4456.13 C 14489.7,4456.13 14517.4,4424.39 14517.4,4399.69 C 14517.4,4374.56 14489.7,4342.25 14489.7,4342.25 C 14489.7,4342.25 14711.4,4399.69 14711.4,4399.69 C 14711.4,4399.69 14711.4,4399.69 14711.4,4399.69 "
     id="path94" />
  <path
     stroke="none"
     fill="#000000"
     d="m 600.825,210.3435 v 37.8315 h -1.1 v -37.8315 z"
     id="path102"
     style="stroke-width:0.0356108" />
  <path
     stroke="none"
     fill="#000000"
     transform="matrix(0.05 0 0 0.05 -10 -11)"
     d="M 12877,4437.87 L 12205.5,4437.87 L 12205.5,4415.87 L 12877,4415.87 Z "
     id="path103" />
  <path
     stroke="none"
     fill="#000000"
     transform="matrix(0.05 0 0 0.05 -10 -11)"
     d="M 13070.1,4426.87 C 13070.1,4426.87 12848.3,4483.31 12848.3,4483.31 C 12848.3,4483.31 12876,4451.56 12876,4426.87 C 12876,4401.74 12848.3,4369.43 12848.3,4369.43 C 12848.3,4369.43 13070.1,4426.87 13070.1,4426.87 C 13070.1,4426.87 13070.1,4426.87 13070.1,4426.87 "
     id="path104" />
  <path
     stroke="#000000"
     stroke-width="1"
     fill="none"
     transform="matrix(0.05 0 0 0.05 -10 -11)"
     d="M 13070.1,4426.87 C 13070.1,4426.87 12848.3,4483.31 12848.3,4483.31 C 12848.3,4483.31 12876,4451.56 12876,4426.87 C 12876,4401.74 12848.3,4369.43 12848.3,4369.43 C 12848.3,4369.43 13070.1,4426.87 13070.1,4426.87 C 13070.1,4426.87 13070.1,4426.87 13070.1,4426.87 "
     id="path105" />
  <path
     stroke="none"
     fill="#000000"
     transform="matrix(0.05 0 0 0.05 -10 -11)"
     d="M 6619.06,5337.42 L 6641.33,5350.28 L 6641.33,5530.56 L 6619.06,5543.42 L 6619.06,5337.42 Z "
     id="path141" />
  <path
     stroke="none"
     fill="#000000"
     transform="matrix(0.05 0 0 0.05 -10 -11)"
     d="M 6675.29,5376.28 L 6697.47,5376.28 L 6697.47,5504.56 L 6675.29,5504.56 L 6675.29,5376.28 Z "
     id="path142" />
  <path
     stroke="none"
     fill="#000000"
     transform="matrix(0.05 0 0 0.05 -10 -11)"
     d="M 6619.06,5543.42 L 6641.33,5530.56 L 6797.46,5620.71 L 6797.46,5646.43 L 6619.06,5543.42 Z "
     id="path143" />
  <path
     stroke="none"
     fill="#000000"
     transform="matrix(0.05 0 0 0.05 -10 -11)"
     d="M 6797.46,5646.43 L 6797.46,5620.71 L 6953.58,5530.56 L 6975.86,5543.42 L 6797.46,5646.43 Z "
     id="path144" />
  <path
     stroke="none"
     fill="#000000"
     transform="matrix(0.05 0 0 0.05 -10 -11)"
     d="M 6803,5578.3 L 6791.91,5559.09 L 6902.99,5494.96 L 6914.08,5514.16 L 6803,5578.3 Z "
     id="path145" />
  <path
     stroke="none"
     fill="#000000"
     transform="matrix(0.05 0 0 0.05 -10 -11)"
     d="M 6975.86,5543.42 L 6953.58,5530.56 L 6953.58,5350.28 L 6975.86,5337.42 L 6975.86,5543.42 Z "
     id="path146" />
  <path
     stroke="none"
     fill="#000000"
     transform="matrix(0.05 0 0 0.05 -10 -11)"
     d="M 6975.86,5337.42 L 6953.58,5350.28 L 6797.46,5260.13 L 6797.46,5248.13 L 6807.5,5241.86 L 6975.86,5337.42 Z "
     id="path147" />
  <path
     stroke="none"
     fill="#000000"
     transform="matrix(0.05 0 0 0.05 -10 -11)"
     d="M 6914.08,5366.68 L 6902.99,5385.88 L 6791.91,5321.75 L 6803,5302.54 L 6914.08,5366.68 Z "
     id="path148" />
  <path
     stroke="none"
     fill="#000000"
     transform="matrix(0.05 0 0 0.05 -10 -11)"
     d="M 6787.74,5241.62 L 6797.46,5248.13 L 6797.46,5260.13 L 6641.33,5350.28 L 6619.06,5337.42 L 6787.74,5241.62 Z "
     id="path149" />
  <text
     x="0"
     y="0"
     stroke="none"
     fill="#0000ff"
     transform="matrix(0.05 0 0 0.05 326.711 243.902)"
     font-style="normal"
     font-weight="bold"
     font-size="180px"
     font-family="Arial"
     id="text149">
OH</text>
  <path
     stroke="none"
     fill="#000000"
     transform="matrix(0.05 0 0 0.05 -10 -11)"
     d="M 6807.5,5241.86 L 6797.46,5248.13 L 6787.74,5241.62 L 6790.06,5130.89 L 6812.22,5131.59 L 6807.5,5241.86 Z "
     id="path150" />
  <text
     x="0"
     y="0"
     stroke="none"
     fill="#000000"
     transform="matrix(0.05 0 0 0.05 603.846 203.528)"
     font-style="normal"
     font-weight="bold"
     font-size="160px"
     font-family="Arial"
     id="text162">
or </text>
  <text
     x="0"
     y="0"
     stroke="none"
     fill="#000000"
     transform="matrix(0.05 0 0 0.05 614.069 203.528)"
     font-style="normal"
     font-weight="bold"
     font-size="160px"
     font-family="Arial"
     id="text163">
NaOH</text>
  <path
     stroke="none"
     fill="#ffffff"
     opacity="0"
     onclick="window.location.href = 'phenols-o1.svg'"
     transform="matrix(0.05 0 0 0.05 -10 -11)"
     d="M 13836.7,4939.48 C 13836.7,4939.48 13836.7,3772.64 13836.7,3772.64 C 13836.7,3772.64 13084,3772.64 13084,3772.64 C 13084,3772.64 13084,4939.48 13084,4939.48 C 13084,4939.48 13836.7,4939.48 13836.7,4939.48 "
     id="path15"
     inkscape:label="l-phenoxides" />
  <path
     stroke="none"
     fill="#ffffff"
     opacity="0"
     onclick="window.location.href = 'tophenols-o1.svg'"
     d="m 355.79031,279.92914 c 0,0 0,-46.787 0,-46.787 0,0 -107.61368,0 -107.61368,0 0,0 0,46.787 0,46.787 0,0 107.61368,0 107.61368,0"
     id="path19-2"
     inkscape:label="l-tophenols"
     style="opacity:0;stroke-width:0.0495144" />
  <path
     stroke="none"
     fill="#ffffff"
     opacity="0"
     onclick="window.location.href = 'supplement-o1.svg'"
     d="m 184.67047,197.90476 c 0,0 0,-14.9672 0,-14.9672 0,0 -35.48879,0 -35.48879,0 0,0 0,14.9672 0,14.9672 0,0 35.48879,0 35.48879,0"
     id="path19-2-4"
     inkscape:label="l-supplement"
     style="opacity:0;stroke-width:0.0160824" />
  <path
     stroke="none"
     fill="#ffffff"
     opacity="0"
     onclick="window.location.href = 'supplement-o1.svg'"
     d="m 262.29998,198.65349 c 0,0 0,-12.84588 0,-12.84588 0,0 -29.83194,0 -29.83194,0 0,0 0,12.84588 0,12.84588 0,0 29.83194,0 29.83194,0"
     id="path19-2-4-3"
     inkscape:label="l-supplement"
     style="opacity:0;stroke-width:0.0136602" />
  <path
     stroke="none"
     fill="#ffffff"
     opacity="0"
     onclick="window.location.href = 'supplement-o1.svg'"
     d="m 641.02284,206.1804 c 0,0 0,-20.62405 0,-20.62405 0,0 -40.43854,0 -40.43854,0 0,0 0,20.62405 0,20.62405 0,0 40.43854,0 40.43854,0"
     id="path19-2-4-8"
     inkscape:label="l-supplement"
     style="opacity:0;stroke-width:0.0201521" />
  <path
     stroke="none"
     fill="#ffffff"
     opacity="0"
     onclick="window.location.href = 'tohalides-o1.svg'"
     d="m 723.0157,202.26515 c 0,0 0,-14.9672 0,-14.9672 0,0 -41.85275,0 -41.85275,0 0,0 0,14.9672 0,14.9672 0,0 41.85275,0 41.85275,0"
     id="path19-2-4-31"
     inkscape:label="l-supplement"
     style="opacity:0;stroke-width:0.0174649" />
  <path
     stroke="none"
     fill="#ffffff"
     opacity="0"
     onclick="window.location.href = 'supplement-o1.svg'"
     d="m 328.28718,325.46824 c 0,0 0,-39.00883 0,-39.00883 0,0 -33.36747,0 -33.36747,0 0,0 0,39.00883 0,39.00883 0,0 33.36747,0 33.36747,0"
     id="path19-2-4-31-3"
     inkscape:label="l-supplement"
     style="opacity:0;stroke-width:0.0251754" />
  <path
     stroke="none"
     fill="#ffffff"
     opacity="0"
     onclick="window.location.href = 'toacidchlorides-o1.svg'"
     d="m 259.52328,176.84588 c 0,0 0,-26.28091 0,-26.28091 0,0 -27.00351,0 -27.00351,0 0,0 0,26.28091 0,26.28091 0,0 27.00351,0 27.00351,0"
     id="path19-2-4-31-3-9-0"
     inkscape:label="l-supplement"
     style="opacity:0;stroke-width:0.0185893" />
  <path
     stroke="none"
     fill="#ffffff"
     opacity="0"
     onclick="window.location.href = 'toacids-o1.svg'"
     d="m 183.99994,181.13015 c 0,0 0,-26.28091 0,-26.28091 0,0 -31.95326,0 -31.95326,0 0,0 0,26.28091 0,26.28091 0,0 31.95326,0 31.95326,0"
     id="path19-2-4-31-3-9-0-4"
     inkscape:label="l-supplement"
     style="opacity:0;stroke-width:0.0202214" />
  <g
     id="noreagents"
     onclick="window.location.href = 'phenols-noreagents-o1.svg'"
     transform="translate(-4.6856272,378.9067)">
    <text
       x="11.200497"
       y="54.141506"
       stroke="none"
       fill="#000000"
       font-style="normal"
       font-weight="bold"
       font-size="200px"
       font-family="Helvetica"
       id="gobacktext-7"
       style="font-style:normal;font-weight:bold;font-size:10px;font-family:Helvetica;fill:#000000;fill-opacity:0.443609;stroke:none;stroke-width:0.05"
       inkscape:label="noreagents-text"><tspan
         sodipodi:role="line"
         id="tspan2"
         x="11.200497"
         y="54.141506"
         style="font-style:normal;font-variant:normal;font-weight:bold;font-stretch:normal;font-size:8px;font-family:Helvetica;-inkscape-font-specification:'Helvetica, Bold';font-variant-ligatures:normal;font-variant-caps:normal;font-variant-numeric:normal;font-variant-east-asian:normal;fill:#000000;fill-opacity:0.5;stroke-width:0.05">reagents</tspan></text>
    <rect
       style="fill:#000000;fill-opacity:0.821053;fill-rule:evenodd;stroke:#a13033;stroke-width:0;stroke-linecap:round;stroke-miterlimit:2;stroke-dasharray:none;paint-order:markers fill stroke"
       id="rect3"
       width="31.666824"
       height="0.9773711"
       x="12.224979"
       y="51.518982"
       inkscape:label="noreagents-line" />
    <path
       stroke="none"
       fill="#999999"
       d="m 9.795,54.694678 c 0,0 0,-5.427567 0,-5.427567 0,-2.098514 1.463398,-3.801611 3.266274,-3.801611 0,0 30.608907,0 30.608907,0 1.803073,0 3.266397,1.703097 3.266397,3.801611 0,0 0,5.427567 0,5.427567 0,2.098514 -1.463324,3.801611 -3.266397,3.801611 0,0 -30.608907,0 -30.608907,0 -1.802876,0 -3.266274,-1.703097 -3.266274,-3.801611"
       id="goback-box-8"
       style="fill:#999999;fill-opacity:0.336842;stroke-width:0.0264832"
       inkscape:label="noreagents-box" />
  </g>
  <g
     id="nonames"
     onclick="window.location.href = 'phenols-o1.svg'"
     transform="matrix(0.85780308,0,0,1,-3.2442635,382.9067)">
    <text
       x="18.441887"
       y="69.010506"
       stroke="none"
       fill="#000000"
       font-style="normal"
       font-weight="bold"
       font-size="200px"
       font-family="Helvetica"
       id="gobacktext-7-8"
       style="font-style:normal;font-variant:normal;font-weight:bold;font-stretch:normal;font-size:10px;font-family:Helvetica;-inkscape-font-specification:'Helvetica, Bold';font-variant-ligatures:normal;font-variant-caps:normal;font-variant-numeric:normal;font-variant-east-asian:normal;fill:#0088d0;fill-opacity:0.675806;stroke:none;stroke-width:0.05"
       inkscape:label="noproducts-text"><tspan
         sodipodi:role="line"
         id="tspan1"
         x="18.441887"
         y="69.010506">show</tspan></text>
    <path
       stroke="none"
       fill="#999999"
       d="m 10.136392,68.163695 c 0,0 0,-5.427567 0,-5.427567 0,-2.098514 1.679048,-3.801611 3.747601,-3.801611 0,0 35.119514,0 35.119514,0 2.068778,0 3.747742,1.703097 3.747742,3.801611 0,0 0,5.427567 0,5.427567 0,2.098514 -1.678964,3.801611 -3.747742,3.801611 0,0 -35.119514,0 -35.119514,0 -2.068553,0 -3.747601,-1.703097 -3.747601,-3.801611"
       id="goback-box-8-6"
       style="fill:#999999;fill-opacity:0.336842;stroke-width:0.0283675"
       inkscape:label="noproducts-box" />
  </g>
  <text
     x="822.84332"
     y="415.79849"
     stroke="none"
     fill="#000000"
     transform="matrix(0.92407999,-0.00322566,0.00377741,1.0821442,0,0)"
     font-style="italic"
     font-weight="bold"
     font-size="8.25806px"
     font-family="'Helvetica Oblique'"
     id="text11"
     style="opacity:1;fill:#00009a;fill-opacity:0.651128;stroke-width:0.0412903">chemisfun</text>
  <g
     id="overlay-box"
     style="opacity:0"
     transform="matrix(0.31364504,0,0,0.8007311,650.50736,385.81436)">
    <rect
       style="fill:#609975;fill-opacity:0.2;stroke:#609970;stroke-width:0;stroke-linecap:round;stroke-opacity:0.657143;paint-order:fill markers stroke"
       id="rect285"
       width="164.84744"
       height="59.583412"
       x="329.69489"
       y="23.171328" />
  </g>
  <g
     id="overlay"
     onclick="window.location.href = 'index.html'"
     onmouseover="this.ownerDocument.getElementById('overlay-box').style.opacity='0.5'"
     onmouseout="this.ownerDocument.getElementById('overlay-box').style.opacity='0'"
     transform="matrix(0.76550767,-0.0030054,0.00267214,0.86098131,195.61318,22.784653)">
    <rect
       style="opacity:0.5;fill:#ffffff;fill-opacity:0;stroke-linecap:round;stroke-opacity:0.657143;paint-order:stroke fill markers"
       id="rect2"
       width="65.93074"
       height="55.035408"
       x="733.06049"
       y="445.87061" />
  </g>
  <g
     id="g1"
     transform="matrix(0.0625,0,0,0.0625,764.65732,406.62566)">
    <rect
       x="239.31"
       y="120.321"
       style="fill:#444242"
       width="33.389"
       height="139.98"
       id="rect1" />
    <rect
       x="256"
       y="120.321"
       style="fill:#3a3839"
       width="16.695"
       height="139.98"
       id="rect2-2" />
    <rect
       x="132.194"
       y="305.86301"
       transform="matrix(0.5,0.866,-0.866,0.5,399.932,58.9793)"
       style="fill:#444242"
       width="33.387001"
       height="139.967"
       id="rect4" />
    <rect
       x="293.125"
       y="359.13"
       transform="matrix(0.866,0.5,-0.5,0.866,236.5654,-131.205)"
       style="fill:#3a3839"
       width="139.967"
       height="33.387001"
       id="rect5" />
    <path
       style="background-color:#ffffff00;fill:#439de2;fill-opacity:1"
       d="m 456.843,485.07 c -9.538,0 -18.951,-2.501 -27.432,-7.398 v 0 c -12.733,-7.351 -21.842,-19.221 -25.646,-33.424 -3.805,-14.201 -1.853,-29.035 5.499,-41.769 7.351,-12.732 19.221,-21.841 33.424,-25.646 14.201,-3.806 29.034,-1.853 41.769,5.499 12.732,7.351 21.841,19.221 25.646,33.424 3.805,14.202 1.853,29.035 -5.499,41.769 -7.351,12.733 -19.221,21.842 -33.424,25.646 -4.742,1.27 -9.557,1.899 -14.337,1.899 z"
       id="path7-3" />
    <path
       style="background-color:#ffffff00;fill:#eda74a;fill-opacity:1"
       d="m 256.001,137.021 c -30.352,0 -55.044,-24.693 -55.044,-55.044 0,-30.351 24.693,-55.044 55.044,-55.044 30.351,0 55.044,24.693 55.044,55.044 0,30.351 -24.693,55.044 -55.044,55.044 z"
       id="path5-4" />
    <path
       style="background-color:#ffffff00;fill:#53acb1;fill-opacity:1"
       d="m 55.158,485.07 c -4.781,0 -9.594,-0.629 -14.336,-1.9 C 26.619,479.365 14.75,470.256 7.398,457.524 0.046,444.792 -1.906,429.957 1.899,415.755 c 3.805,-14.203 12.914,-26.072 25.646,-33.424 12.731,-7.352 27.567,-9.304 41.769,-5.499 14.203,3.805 26.072,12.914 33.424,25.646 7.352,12.732 9.304,27.567 5.499,41.769 -3.805,14.203 -12.914,26.072 -25.646,33.424 -8.481,4.897 -17.896,7.399 -27.433,7.399 z"
       id="path6-7" />
    <path
       style="fill:#f74d37"
       d="m 256.001,384.379 c -38.81,0 -70.384,-31.575 -70.384,-70.384 0,-38.809 31.575,-70.384 70.384,-70.384 38.809,0 70.384,31.575 70.384,70.384 0,38.809 -31.575,70.384 -70.384,70.384 z"
       id="path4-9" />
  </g>
</svg>
