<?xml version="1.0" encoding="UTF-8" standalone="no"?>
<svg
   width="100%"
   height="100%"
   viewBox="0 0 818 460"
   style="background-color: #ffffff00"
   version="1.1"
   id="svg200"
   sodipodi:docname="selectivity-noproducts.svg"
   inkscape:version="1.4.2 (ebf0e940, 2025-05-08)"
   xmlns:inkscape="http://www.inkscape.org/namespaces/inkscape"
   xmlns:sodipodi="http://sodipodi.sourceforge.net/DTD/sodipodi-0.dtd"
   xmlns="http://www.w3.org/2000/svg"
   xmlns:svg="http://www.w3.org/2000/svg">
  <path
     stroke="#000000"
     stroke-width="22"
     fill="none"
     transform="matrix(0.05 0 0 0.05 -10 -11)"
     d="M 16494.7,9367.47 C 16494.7,9367.47 16494.7,284.602 16494.7,284.602 C 16494.7,284.602 268.683,284.602 268.683,284.602 C 268.683,284.602 268.683,9367.47 268.683,9367.47 C 268.683,9367.47 16494.7,9367.47 16494.7,9367.47 "
     id="path3" />
  <text
     x="0"
     y="0"
     stroke="none"
     fill="#000000"
     transform="matrix(0.05 0 0 0.05 11.735 21.13)"
     font-style="normal"
     font-weight="bold"
     font-size="320px"
     font-family="Helvetica"
     id="text3">
Aromatic </text>
  <text
     x="0"
     y="0"
     stroke="none"
     fill="#000000"
     transform="matrix(0.05,0,0,0.05,85.5319,21.13)"
     font-style="normal"
     font-weight="bold"
     font-size="320px"
     font-family="Helvetica"
     id="text4">Substitution</text>
  <text
     x="0"
     y="0"
     stroke="none"
     fill="#000000"
     transform="matrix(0.05 0 0 0.05 183.297 21.13)"
     font-style="normal"
     font-weight="bold"
     font-size="320px"
     font-family="Helvetica"
     id="text5">
- </text>
  <text
     x="0"
     y="0"
     stroke="none"
     fill="#000000"
     transform="matrix(0.05 0 0 0.05 193.071 21.13)"
     font-style="normal"
     font-weight="bold"
     font-size="320px"
     font-family="Helvetica"
     id="text6">
Selectivity </text>
  <text
     x="0"
     y="0"
     stroke="none"
     fill="#000000"
     transform="matrix(0.05 0 0 0.05 276.672 21.13)"
     font-style="normal"
     font-weight="bold"
     font-size="320px"
     font-family="Helvetica"
     id="text7">
Issues:</text>
  <text
     x="0"
     y="0"
     stroke="none"
     fill="#ffffff"
     transform="matrix(0.05 0 0 0.05 246.495 450.155)"
     font-style="italic"
     font-weight="bold"
     font-size="240px"
     font-family="Times New Roman"
     id="text13">
i</text>
  <path
     stroke="none"
     fill="#000000"
     transform="matrix(0.05 0 0 0.05 -10 -11)"
     d="M 4880.49,3137.78 L 4902.77,3150.64 L 4902.77,3330.93 L 4880.49,3343.79 L 4880.49,3137.78 Z "
     id="path13" />
  <path
     stroke="none"
     fill="#000000"
     transform="matrix(0.05 0 0 0.05 -10 -11)"
     d="M 4936.72,3176.65 L 4958.9,3176.65 L 4958.9,3304.92 L 4936.72,3304.92 L 4936.72,3176.65 Z "
     id="path14" />
  <path
     stroke="none"
     fill="#000000"
     transform="matrix(0.05 0 0 0.05 -10 -11)"
     d="M 4880.49,3343.79 L 4902.77,3330.93 L 5058.89,3421.07 L 5058.89,3446.79 L 4880.49,3343.79 Z "
     id="path15" />
  <path
     stroke="none"
     fill="#000000"
     transform="matrix(0.05 0 0 0.05 -10 -11)"
     d="M 5058.89,3446.79 L 5058.89,3421.07 L 5215.01,3330.93 L 5237.29,3343.79 L 5058.89,3446.79 Z "
     id="path16" />
  <path
     stroke="none"
     fill="#000000"
     transform="matrix(0.05 0 0 0.05 -10 -11)"
     d="M 5064.43,3378.66 L 5053.34,3359.46 L 5164.42,3295.32 L 5175.51,3314.53 L 5064.43,3378.66 Z "
     id="path17" />
  <path
     stroke="none"
     fill="#000000"
     transform="matrix(0.05 0 0 0.05 -10 -11)"
     d="M 5237.29,3343.79 L 5215.01,3330.93 L 5215.01,3150.64 L 5237.29,3137.78 L 5237.29,3343.79 Z "
     id="path18" />
  <path
     stroke="none"
     fill="#000000"
     transform="matrix(0.05 0 0 0.05 -10 -11)"
     d="M 5237.29,3137.78 L 5215.01,3150.64 L 5058.89,3060.5 L 5058.89,3048.49 L 5068.98,3042.26 L 5237.29,3137.78 Z "
     id="path19" />
  <path
     stroke="none"
     fill="#000000"
     transform="matrix(0.05 0 0 0.05 -10 -11)"
     d="M 5175.51,3167.04 L 5164.42,3186.25 L 5053.34,3122.11 L 5064.43,3102.91 L 5175.51,3167.04 Z "
     id="path20" />
  <path
     stroke="none"
     fill="#000000"
     transform="matrix(0.05 0 0 0.05 -10 -11)"
     d="M 5049.13,3042.02 L 5058.89,3048.49 L 5058.89,3060.5 L 4902.77,3150.64 L 4880.49,3137.78 L 5049.13,3042.02 Z "
     id="path21" />
  <text
     x="0"
     y="0"
     stroke="none"
     fill="#000000"
     transform="matrix(0.05 0 0 0.05 240.281 133.92)"
     font-style="normal"
     font-weight="bold"
     font-size="180px"
     font-family="Arial"
     id="text21">
X</text>
  <path
     stroke="none"
     fill="#000000"
     transform="matrix(0.05 0 0 0.05 -10 -11)"
     d="M 5068.98,3042.26 L 5058.89,3048.49 L 5049.13,3042.02 L 5051.61,2927.36 L 5073.78,2928.06 L 5068.98,3042.26 Z "
     id="path22" />
  <path
     stroke="none"
     fill="#000000"
     transform="matrix(0.05 0 0 0.05 -10 -11)"
     d="M 6238.1,3241.46 L 5377.57,3241.46 L 5377.57,3219.46 L 6238.1,3219.46 Z "
     id="path23" />
  <text
     x="0"
     y="0"
     stroke="none"
     fill="#000000"
     transform="matrix(0.05 0 0 0.05 275.694 144.964)"
     font-style="normal"
     font-weight="bold"
     font-size="200px"
     font-family="Helvetica"
     id="text53">
Y</text>
  <path
     stroke="none"
     fill="#000000"
     transform="matrix(0.05 0 0 0.05 -10 -11)"
     d="M 6227.1,4151.6 L 6227.1,2309.32 L 6249.1,2309.32 L 6249.1,4151.6 Z "
     id="path57" />
  <path
     stroke="none"
     fill="#000000"
     transform="matrix(0.05 0 0 0.05 -10 -11)"
     d="M 9088.32,2320.32 L 6238.1,2320.32 L 6238.1,2298.32 L 9088.32,2298.32 Z "
     id="path58" />
  <path
     stroke="none"
     fill="#000000"
     transform="matrix(0.05 0 0 0.05 -10 -11)"
     d="M 9281.36,2309.32 C 9281.36,2309.32 9059.6,2365.76 9059.6,2365.76 C 9059.6,2365.76 9087.32,2334.02 9087.32,2309.32 C 9087.32,2284.19 9059.6,2251.88 9059.6,2251.88 C 9059.6,2251.88 9281.36,2309.32 9281.36,2309.32 C 9281.36,2309.32 9281.36,2309.32 9281.36,2309.32 "
     id="path59" />
  <path
     stroke="#000000"
     stroke-width="1"
     fill="none"
     transform="matrix(0.05 0 0 0.05 -10 -11)"
     d="M 9281.36,2309.32 C 9281.36,2309.32 9059.6,2365.76 9059.6,2365.76 C 9059.6,2365.76 9087.32,2334.02 9087.32,2309.32 C 9087.32,2284.19 9059.6,2251.88 9059.6,2251.88 C 9059.6,2251.88 9281.36,2309.32 9281.36,2309.32 C 9281.36,2309.32 9281.36,2309.32 9281.36,2309.32 "
     id="path60" />
  <path
     stroke="none"
     fill="#000000"
     transform="matrix(0.05 0 0 0.05 -10 -11)"
     d="M 9099.98,4162.6 L 6238.1,4162.6 L 6238.1,4140.6 L 9099.98,4140.6 Z "
     id="path61" />
  <path
     stroke="none"
     fill="#000000"
     transform="matrix(0.05 0 0 0.05 -10 -11)"
     d="M 9293.02,4151.6 C 9293.02,4151.6 9071.26,4208.04 9071.26,4208.04 C 9071.26,4208.04 9098.98,4176.3 9098.98,4151.6 C 9098.98,4126.47 9071.26,4094.16 9071.26,4094.16 C 9071.26,4094.16 9293.02,4151.6 9293.02,4151.6 C 9293.02,4151.6 9293.02,4151.6 9293.02,4151.6 "
     id="path62" />
  <path
     stroke="#000000"
     stroke-width="1"
     fill="none"
     transform="matrix(0.05 0 0 0.05 -10 -11)"
     d="M 9293.02,4151.6 C 9293.02,4151.6 9071.26,4208.04 9071.26,4208.04 C 9071.26,4208.04 9098.98,4176.3 9098.98,4151.6 C 9098.98,4126.47 9071.26,4094.16 9071.26,4094.16 C 9071.26,4094.16 9293.02,4151.6 9293.02,4151.6 C 9293.02,4151.6 9293.02,4151.6 9293.02,4151.6 "
     id="path63" />
  <text
     x="0"
     y="0"
     stroke="none"
     fill="#000000"
     transform="matrix(0.05 0 0 0.05 270.305 161.102)"
     font-style="normal"
     font-weight="normal"
     font-size="160px"
     font-family="Helvetica"
     id="text63">
S</text>
  <text
     x="0"
     y="0"
     stroke="none"
     fill="#000000"
     transform="matrix(0.05 0 0 0.05 275.641 162.942)"
     font-style="normal"
     font-weight="normal"
     font-size="120px"
     font-family="Helvetica"
     id="text64">
E</text>
  <text
     x="0"
     y="0"
     stroke="none"
     fill="#000000"
     transform="matrix(0.05 0 0 0.05 279.643 161.102)"
     font-style="normal"
     font-weight="normal"
     font-size="160px"
     font-family="Helvetica"
     id="text65">
Ar</text>
  <text
     x="0"
     y="0"
     stroke="none"
     fill="#000000"
     transform="matrix(0.05 0 0 0.05 306.569 84.029)"
     font-style="normal"
     font-weight="normal"
     font-size="200px"
     font-family="Helvetica"
     id="text71">
if </text>
  <text
     x="0"
     y="0"
     stroke="none"
     fill="#000000"
     transform="matrix(0.05 0 0 0.05 314.347 84.029)"
     font-style="normal"
     font-weight="normal"
     font-size="200px"
     font-family="Helvetica"
     id="text72">
first </text>
  <text
     x="0"
     y="0"
     stroke="none"
     fill="#000000"
     transform="matrix(0.05 0 0 0.05 333.234 84.029)"
     font-style="normal"
     font-weight="normal"
     font-size="200px"
     font-family="Helvetica"
     id="text73">
atom </text>
  <text
     x="0"
     y="0"
     stroke="none"
     fill="#000000"
     transform="matrix(0.05 0 0 0.05 358.244 84.029)"
     font-style="normal"
     font-weight="normal"
     font-size="200px"
     font-family="Helvetica"
     id="text74">
of </text>
  <text
     x="0"
     y="0"
     stroke="none"
     fill="#000000"
     transform="matrix(0.05 0 0 0.05 369.362 84.029)"
     font-style="normal"
     font-weight="normal"
     font-size="200px"
     font-family="Helvetica"
     id="text75">
X </text>
  <text
     x="0"
     y="0"
     stroke="none"
     fill="#000000"
     transform="matrix(0.05 0 0 0.05 378.81 84.029)"
     font-style="normal"
     font-weight="normal"
     font-size="200px"
     font-family="Helvetica"
     id="text76">
has </text>
  <text
     x="0"
     y="0"
     stroke="none"
     fill="#000000"
     transform="matrix(0.05 0 0 0.05 397.712 84.029)"
     font-style="normal"
     font-weight="normal"
     font-size="200px"
     font-family="Helvetica"
     id="text77">
a </text>
  <text
     x="0"
     y="0"
     stroke="none"
     fill="#000000"
     transform="matrix(0.05 0 0 0.05 406.051 84.029)"
     font-style="normal"
     font-weight="normal"
     font-size="200px"
     font-family="Helvetica"
     id="text78">
lone </text>
  <text
     x="0"
     y="0"
     stroke="none"
     fill="#000000"
     transform="matrix(0.05 0 0 0.05 427.736 84.029)"
     font-style="normal"
     font-weight="normal"
     font-size="200px"
     font-family="Helvetica"
     id="text79">
pair</text>
  <text
     x="0"
     y="0"
     stroke="none"
     fill="#000000"
     transform="matrix(0.05 0 0 0.05 306.569 94.5873)"
     font-style="normal"
     font-weight="normal"
     font-size="200px"
     font-family="Helvetica"
     id="text80">
or </text>
  <text
     x="0"
     y="0"
     stroke="none"
     fill="#000000"
     transform="matrix(0.05 0 0 0.05 318.239 94.5873)"
     font-style="normal"
     font-weight="normal"
     font-size="200px"
     font-family="Helvetica"
     id="text81">
if </text>
  <text
     x="0"
     y="0"
     stroke="none"
     fill="#000000"
     transform="matrix(0.05 0 0 0.05 326.017 94.5873)"
     font-style="normal"
     font-weight="normal"
     font-size="200px"
     font-family="Helvetica"
     id="text82">
X </text>
  <text
     x="0"
     y="0"
     stroke="none"
     fill="#000000"
     transform="matrix(0.05 0 0 0.05 335.465 94.5873)"
     font-style="normal"
     font-weight="normal"
     font-size="200px"
     font-family="Helvetica"
     id="text83">
is </text>
  <text
     x="0"
     y="0"
     stroke="none"
     fill="#000000"
     transform="matrix(0.05 0 0 0.05 345.465 94.5873)"
     font-style="normal"
     font-weight="normal"
     font-size="200px"
     font-family="Helvetica"
     id="text84">
alkyl </text>
  <text
     x="0"
     y="0"
     stroke="none"
     fill="#000000"
     transform="matrix(0.05 0 0 0.05 368.249 94.5873)"
     font-style="normal"
     font-weight="normal"
     font-size="200px"
     font-family="Helvetica"
     id="text85">
(methyl, </text>
  <text
     x="0"
     y="0"
     stroke="none"
     fill="#000000"
     transform="matrix(0.05 0 0 0.05 406.589 94.5873)"
     font-style="normal"
     font-weight="normal"
     font-size="200px"
     font-family="Helvetica"
     id="text86">
ethyl, </text>
  <text
     x="0"
     y="0"
     stroke="none"
     fill="#000000"
     transform="matrix(0.05 0 0 0.05 433.268 94.5873)"
     font-style="normal"
     font-weight="normal"
     font-size="200px"
     font-family="Helvetica"
     id="text87">
etc.)</text>
  <text
     x="0"
     y="0"
     stroke="none"
     fill="#000000"
     transform="matrix(0.05 0 0 0.05 306.569 115.511)"
     font-style="normal"
     font-weight="bold"
     font-size="200px"
     font-family="Helvetica"
     id="text88">
examples: </text>
  <text
     x="0"
     y="0"
     stroke="none"
     fill="#000000"
     transform="matrix(0.05 0 0 0.05 358.263 115.511)"
     font-style="normal"
     font-weight="bold"
     font-size="200px"
     font-family="Helvetica"
     id="text89">
OH, </text>
  <text
     x="0"
     y="0"
     stroke="none"
     fill="#000000"
     transform="matrix(0.05 0 0 0.05 378.82 115.511)"
     font-style="normal"
     font-weight="bold"
     font-size="200px"
     font-family="Helvetica"
     id="text90">
OCH</text>
  <text
     x="0"
     y="0"
     stroke="none"
     fill="#000000"
     transform="matrix(0.05 0 0 0.05 401.042 117.811)"
     font-style="normal"
     font-weight="bold"
     font-size="150px"
     font-family="Helvetica"
     id="text91">
3</text>
  <text
     x="0"
     y="0"
     stroke="none"
     fill="#000000"
     transform="matrix(0.05 0 0 0.05 405.213 115.511)"
     font-style="normal"
     font-weight="bold"
     font-size="200px"
     font-family="Helvetica"
     id="text92">
, </text>
  <text
     x="0"
     y="0"
     stroke="none"
     fill="#000000"
     transform="matrix(0.05 0 0 0.05 410.769 115.511)"
     font-style="normal"
     font-weight="bold"
     font-size="200px"
     font-family="Helvetica"
     id="text93">
NH</text>
  <text
     x="0"
     y="0"
     stroke="none"
     fill="#000000"
     transform="matrix(0.05 0 0 0.05 425.213 117.811)"
     font-style="normal"
     font-weight="bold"
     font-size="150px"
     font-family="Helvetica"
     id="text94">
2</text>
  <text
     x="0"
     y="0"
     stroke="none"
     fill="#000000"
     transform="matrix(0.05 0 0 0.05 307.152 130.086)"
     font-style="normal"
     font-weight="bold"
     font-size="200px"
     font-family="Helvetica"
     id="text95">
Cl, </text>
  <text
     x="0"
     y="0"
     stroke="none"
     fill="#000000"
     transform="matrix(0.05 0 0 0.05 322.709 130.086)"
     font-style="normal"
     font-weight="bold"
     font-size="200px"
     font-family="Helvetica"
     id="text96">
Br, </text>
  <text
     x="0"
     y="0"
     stroke="none"
     fill="#000000"
     transform="matrix(0.05 0 0 0.05 338.832 130.086)"
     font-style="normal"
     font-weight="bold"
     font-size="200px"
     font-family="Helvetica"
     id="text97">
I,</text>
  <text
     x="0"
     y="0"
     stroke="none"
     fill="#000000"
     transform="matrix(0.05 0 0 0.05 358.221 140.036)"
     font-style="normal"
     font-weight="bold"
     font-size="180px"
     font-family="Helvetica"
     id="text98">
O</text>
  <path
     stroke="none"
     fill="#000000"
     transform="matrix(0.05 0 0 0.05 -10 -11)"
     d="M 7523.66,2917.23 L 7512.57,2898.03 L 7590.74,2852.9 L 7601.83,2872.1 L 7523.66,2917.23 Z "
     id="path98" />
  <text
     x="0"
     y="0"
     stroke="none"
     fill="#000000"
     transform="matrix(0.05 0 0 0.05 366.314 126.019)"
     font-style="normal"
     font-weight="bold"
     font-size="180px"
     font-family="Helvetica"
     id="text99">
O</text>
  <path
     stroke="none"
     fill="#000000"
     transform="matrix(0.05 0 0 0.05 -10 -11)"
     d="M 7579.66,2878.5 L 7557.48,2878.5 L 7557.48,2776.09 L 7579.66,2776.09 L 7579.66,2878.5 Z "
     id="path99" />
  <path
     stroke="none"
     fill="#000000"
     transform="matrix(0.05 0 0 0.05 -10 -11)"
     d="M 7635.1,2878.5 L 7612.92,2878.5 L 7612.92,2776.09 L 7635.1,2776.09 L 7635.1,2878.5 Z "
     id="path100" />
  <path
     stroke="none"
     fill="#000000"
     transform="matrix(0.05 0 0 0.05 -10 -11)"
     d="M 7595.22,2874.02 L 7595.6,2848.24 L 7763.69,2946.35 L 7752.61,2965.55 L 7595.22,2874.02 Z "
     id="path101" />
  <path
     stroke="none"
     fill="#000000"
     transform="matrix(0.05 0 0 0.05 -10 -11)"
     d="M 7342.12,2944.4 L 7342.01,2966.58 L 7323.93,2966.49 L 7323.93,2944.31 L 7342.12,2944.4 L 7342.12,2944.4 Z "
     id="path102" />
  <path
     stroke="none"
     fill="#000000"
     transform="matrix(0.05 0 0 0.05 -10 -11)"
     d="M 7157.28,2965.65 L 7157.39,2943.48 L 7218.82,2943.78 L 7218.82,2965.96 L 7157.28,2965.65 L 7157.28,2965.65 Z "
     id="path103" />
  <path
     stroke="#000000"
     stroke-width="22"
     fill="none"
     transform="matrix(0.05 0 0 0.05 -10 -11)"
     d="M 7271.37,2868.64 C 7259.06,2868.64 7249.06,2877.57 7249.06,2888.58 C 7249.06,2899.59 7259.06,2908.52 7271.37,2908.52 C 7283.69,2908.52 7293.69,2917.45 7293.69,2928.46 C 7293.69,2939.46 7283.69,2948.4 7271.37,2948.4 C 7259.06,2948.4 7249.06,2957.33 7249.06,2968.33 C 7249.06,2979.34 7259.06,2988.27 7271.37,2988.27 C 7283.69,2988.27 7293.69,2997.21 7293.69,3008.21 C 7293.69,3019.22 7283.69,3028.15 7271.37,3028.15 C 7259.06,3028.15 7249.06,3037.08 7249.06,3048.09 "
     id="path104" />
  <text
     x="0"
     y="0"
     stroke="none"
     fill="#000000"
     transform="matrix(0.05 0 0 0.05 394.421 140.619)"
     font-style="normal"
     font-weight="bold"
     font-size="180px"
     font-family="Helvetica"
     id="text104">
N</text>
  <text
     x="0"
     y="0"
     stroke="none"
     fill="#000000"
     transform="matrix(0.05 0 0 0.05 394.421 148.144)"
     font-style="normal"
     font-weight="bold"
     font-size="180px"
     font-family="Helvetica"
     id="text105">
H</text>
  <path
     stroke="none"
     fill="#000000"
     transform="matrix(0.05 0 0 0.05 -10 -11)"
     d="M 8253.59,2922.58 L 8242.5,2903.38 L 8309.74,2864.56 L 8320.82,2883.76 L 8253.59,2922.58 Z "
     id="path105" />
  <text
     x="0"
     y="0"
     stroke="none"
     fill="#000000"
     transform="matrix(0.05 0 0 0.05 402.264 126.602)"
     font-style="normal"
     font-weight="bold"
     font-size="180px"
     font-family="Helvetica"
     id="text106">
O</text>
  <path
     stroke="none"
     fill="#000000"
     transform="matrix(0.05 0 0 0.05 -10 -11)"
     d="M 8298.65,2890.16 L 8276.47,2890.16 L 8276.47,2787.75 L 8298.65,2787.75 L 8298.65,2890.16 Z "
     id="path106" />
  <path
     stroke="none"
     fill="#000000"
     transform="matrix(0.05 0 0 0.05 -10 -11)"
     d="M 8354.09,2890.16 L 8331.91,2890.16 L 8331.91,2787.75 L 8354.09,2787.75 L 8354.09,2890.16 Z "
     id="path107" />
  <path
     stroke="none"
     fill="#000000"
     transform="matrix(0.05 0 0 0.05 -10 -11)"
     d="M 8313.82,2885.52 L 8314.39,2859.75 L 8482.68,2958.01 L 8471.6,2977.21 L 8313.82,2885.52 Z "
     id="path108" />
  <path
     stroke="none"
     fill="#000000"
     transform="matrix(0.05 0 0 0.05 -10 -11)"
     d="M 8070.73,2954.72 L 8070.25,2976.89 L 8042.93,2976.29 L 8042.93,2954.11 L 8070.73,2954.72 L 8070.73,2954.72 Z "
     id="path109" />
  <path
     stroke="none"
     fill="#000000"
     transform="matrix(0.05 0 0 0.05 -10 -11)"
     d="M 7885.81,2972.86 L 7886.29,2950.69 L 7937.81,2951.82 L 7937.81,2974 L 7885.81,2972.86 L 7885.81,2972.86 Z "
     id="path110" />
  <path
     stroke="#000000"
     stroke-width="22"
     fill="none"
     transform="matrix(0.05 0 0 0.05 -10 -11)"
     d="M 7990.37,2880.3 C 7978.05,2880.3 7968.05,2889.23 7968.05,2900.24 C 7968.05,2911.24 7978.05,2920.18 7990.37,2920.18 C 8002.69,2920.18 8012.69,2929.11 8012.69,2940.12 C 8012.69,2951.12 8002.69,2960.06 7990.37,2960.06 C 7978.05,2960.06 7968.05,2968.99 7968.05,2979.99 C 7968.05,2991 7978.05,2999.93 7990.37,2999.93 C 8002.69,2999.93 8012.69,3008.87 8012.69,3019.87 C 8012.69,3030.88 8002.69,3039.81 7990.37,3039.81 C 7978.05,3039.81 7968.05,3048.74 7968.05,3059.75 "
     id="path111" />
  <text
     x="0"
     y="0"
     stroke="none"
     fill="#000000"
     transform="matrix(0.05 0 0 0.05 418.17 130.567)"
     font-style="normal"
     font-weight="bold"
     font-size="200px"
     font-family="Helvetica"
     id="text111">
, </text>
  <text
     x="0"
     y="0"
     stroke="none"
     fill="#000000"
     transform="matrix(0.05 0 0 0.05 423.726 130.567)"
     font-style="normal"
     font-weight="bold"
     font-size="200px"
     font-family="Helvetica"
     id="text112">
CH</text>
  <text
     x="0"
     y="0"
     stroke="none"
     fill="#000000"
     transform="matrix(0.05 0 0 0.05 438.17 132.867)"
     font-style="normal"
     font-weight="bold"
     font-size="150px"
     font-family="Helvetica"
     id="text113">
3</text>
  <text
     x="0"
     y="0"
     stroke="none"
     fill="#000000"
     transform="matrix(0.05 0 0 0.05 306.252 191.159)"
     font-style="normal"
     font-weight="normal"
     font-size="200px"
     font-family="Helvetica"
     id="text114">
all </text>
  <text
     x="0"
     y="0"
     stroke="none"
     fill="#000000"
     transform="matrix(0.05 0 0 0.05 319.035 191.159)"
     font-style="normal"
     font-weight="normal"
     font-size="200px"
     font-family="Helvetica"
     id="text115">
other </text>
  <text
     x="344.60699"
     y="191.159"
     stroke="none"
     fill="#000000"
     font-style="normal"
     font-weight="normal"
     font-size="10px"
     font-family="Helvetica"
     id="text116"
     style="stroke-width:0.05">groups</text>
  <text
     x="0"
     y="0"
     stroke="none"
     fill="#000000"
     transform="matrix(0.05 0 0 0.05 306.901 209.911)"
     font-style="normal"
     font-weight="bold"
     font-size="200px"
     font-family="Helvetica"
     id="text117">
examples: </text>
  <text
     x="0"
     y="0"
     stroke="none"
     fill="#000000"
     transform="matrix(0.05 0 0 0.05 358.596 209.911)"
     font-style="normal"
     font-weight="bold"
     font-size="200px"
     font-family="Helvetica"
     id="text118">
NO</text>
  <text
     x="0"
     y="0"
     stroke="none"
     fill="#000000"
     transform="matrix(0.05 0 0 0.05 373.596 212.211)"
     font-style="normal"
     font-weight="bold"
     font-size="150px"
     font-family="Helvetica"
     id="text119">
2</text>
  <text
     x="0"
     y="0"
     stroke="none"
     fill="#000000"
     transform="matrix(0.05 0 0 0.05 377.767 209.911)"
     font-style="normal"
     font-weight="bold"
     font-size="200px"
     font-family="Helvetica"
     id="text120">
, </text>
  <text
     x="0"
     y="0"
     stroke="none"
     fill="#000000"
     transform="matrix(0.05 0 0 0.05 383.323 209.911)"
     font-style="normal"
     font-weight="bold"
     font-size="200px"
     font-family="Helvetica"
     id="text121">
CN, </text>
  <text
     x="0"
     y="0"
     stroke="none"
     fill="#000000"
     transform="matrix(0.05 0 0 0.05 403.323 209.911)"
     font-style="normal"
     font-weight="bold"
     font-size="200px"
     font-family="Helvetica"
     id="text122">
SO</text>
  <text
     x="0"
     y="0"
     stroke="none"
     fill="#000000"
     transform="matrix(0.05 0 0 0.05 417.772 212.211)"
     font-style="normal"
     font-weight="bold"
     font-size="150px"
     font-family="Helvetica"
     id="text123">
3</text>
  <text
     x="0"
     y="0"
     stroke="none"
     fill="#000000"
     transform="matrix(0.05 0 0 0.05 421.943 209.911)"
     font-style="normal"
     font-weight="bold"
     font-size="200px"
     font-family="Helvetica"
     id="text124">
H</text>
  <path
     stroke="none"
     fill="#000000"
     transform="matrix(0.05 0 0 0.05 -10 -11)"
     d="M 6420.45,4915.9 L 6409.95,4896.36 L 6447.79,4875.87 L 6459.92,4894.53 L 6420.45,4915.9 L 6420.45,4915.9 Z "
     id="path124" />
  <path
     stroke="none"
     fill="#000000"
     transform="matrix(0.05 0 0 0.05 -10 -11)"
     d="M 6606.05,4790.16 L 6605.7,4815.64 L 6552.66,4844.34 L 6540.52,4825.65 L 6606.05,4790.16 L 6606.05,4790.16 Z "
     id="path125" />
  <text
     x="0"
     y="0"
     stroke="none"
     fill="#000000"
     transform="matrix(0.05 0 0 0.05 316.788 223.078)"
     font-style="normal"
     font-weight="bold"
     font-size="180px"
     font-family="Helvetica"
     id="text125">
O</text>
  <path
     stroke="none"
     fill="#000000"
     transform="matrix(0.05 0 0 0.05 -10 -11)"
     d="M 6589.12,4818.58 L 6566.95,4818.58 L 6566.95,4717.27 L 6589.12,4717.27 L 6589.12,4818.58 L 6589.12,4818.58 Z "
     id="path126" />
  <path
     stroke="none"
     fill="#000000"
     transform="matrix(0.05 0 0 0.05 -10 -11)"
     d="M 6644.56,4819.68 L 6622.39,4819.68 L 6622.39,4717.27 L 6644.56,4717.27 L 6644.56,4819.68 L 6644.56,4819.68 Z "
     id="path127" />
  <path
     stroke="none"
     fill="#000000"
     transform="matrix(0.05 0 0 0.05 -10 -11)"
     d="M 6605.7,4815.64 L 6606.05,4790.16 L 6773.16,4887.53 L 6762.07,4906.73 L 6605.7,4815.64 Z "
     id="path128" />
  <path
     stroke="#000000"
     stroke-width="22"
     fill="none"
     transform="matrix(0.05 0 0 0.05 -10 -11)"
     d="M 6435.14,4759.88 C 6424.81,4766.59 6421.44,4779.76 6427.62,4789.28 C 6433.8,4798.8 6447.21,4801.08 6457.54,4794.37 C 6467.87,4787.66 6481.28,4789.95 6487.46,4799.47 C 6493.65,4808.99 6490.28,4822.16 6479.94,4828.87 C 6469.61,4835.58 6466.24,4848.76 6472.43,4858.28 C 6478.61,4867.8 6492.01,4870.08 6502.35,4863.37 C 6512.68,4856.66 6526.09,4858.94 6532.27,4868.46 C 6538.45,4877.98 6535.08,4891.16 6524.75,4897.87 C 6514.42,4904.58 6511.05,4917.75 6517.23,4927.27 C 6523.41,4936.79 6536.82,4939.07 6547.15,4932.36 C 6557.48,4925.65 6570.89,4927.94 6577.07,4937.46 C 6583.26,4946.98 6579.89,4960.15 6569.55,4966.86 "
     id="path129" />
  <path
     stroke="none"
     fill="#000000"
     transform="matrix(0.05 0 0 0.05 -10 -11)"
     d="M 6919.04,4902.6 L 6908.54,4883.07 L 7105.49,4776.28 L 7105.71,4801.75 L 6919.04,4902.6 Z "
     id="path130" />
  <text
     x="0"
     y="0"
     stroke="none"
     fill="#000000"
     transform="matrix(0.05 0 0 0.05 341.717 222.413)"
     font-style="normal"
     font-weight="bold"
     font-size="180px"
     font-family="Helvetica"
     id="text130">
O</text>
  <path
     stroke="none"
     fill="#000000"
     transform="matrix(0.05 0 0 0.05 -10 -11)"
     d="M 7087.71,4805.29 L 7065.54,4805.29 L 7065.54,4703.97 L 7087.71,4703.97 L 7087.71,4805.29 Z "
     id="path131" />
  <path
     stroke="none"
     fill="#000000"
     transform="matrix(0.05 0 0 0.05 -10 -11)"
     d="M 7143.15,4806.39 L 7120.98,4806.39 L 7120.98,4703.97 L 7143.15,4703.97 L 7143.15,4806.39 Z "
     id="path132" />
  <text
     x="0"
     y="0"
     stroke="none"
     fill="#000000"
     transform="matrix(0.05 0 0 0.05 350.061 236.43)"
     font-style="normal"
     font-weight="bold"
     font-size="180px"
     font-family="Helvetica"
     id="text132">
H</text>
  <path
     stroke="none"
     fill="#000000"
     transform="matrix(0.05 0 0 0.05 -10 -11)"
     d="M 7098.8,4799.99 L 7109.89,4780.78 L 7178.49,4820.38 L 7167.4,4839.59 L 7098.8,4799.99 Z "
     id="path133" />
  <path
     stroke="#000000"
     stroke-width="22"
     fill="none"
     transform="matrix(0.05 0 0 0.05 -10 -11)"
     d="M 6933.73,4746.58 C 6923.4,4753.29 6920.03,4766.46 6926.21,4775.99 C 6932.39,4785.51 6945.8,4787.79 6956.13,4781.08 C 6966.46,4774.37 6979.87,4776.65 6986.05,4786.17 C 6992.24,4795.69 6988.87,4808.87 6978.53,4815.58 C 6968.2,4822.29 6964.83,4835.46 6971.02,4844.98 C 6977.2,4854.5 6990.6,4856.78 7000.94,4850.07 C 7011.27,4843.36 7024.68,4845.65 7030.86,4855.17 C 7037.04,4864.69 7033.67,4877.86 7023.34,4884.57 C 7013.01,4891.28 7009.64,4904.45 7015.82,4913.98 C 7022,4923.5 7035.41,4925.78 7045.74,4919.07 C 7056.07,4912.36 7069.48,4914.64 7075.66,4924.16 C 7081.85,4933.68 7078.48,4946.86 7068.15,4953.57 "
     id="path134" />
  <path
     stroke="none"
     fill="#000000"
     transform="matrix(0.05 0 0 0.05 -10 -11)"
     d="M 7430.92,4895.95 L 7420.42,4876.42 L 7617.19,4769.76 L 7617.22,4795.26 L 7430.92,4895.95 Z "
     id="path135" />
  <text
     x="0"
     y="0"
     stroke="none"
     fill="#000000"
     transform="matrix(0.05 0 0 0.05 367.311 222.08)"
     font-style="normal"
     font-weight="bold"
     font-size="180px"
     font-family="Helvetica"
     id="text135">
O</text>
  <path
     stroke="none"
     fill="#000000"
     transform="matrix(0.05 0 0 0.05 -10 -11)"
     d="M 7599.6,4798.64 L 7577.42,4798.64 L 7577.42,4697.32 L 7599.6,4697.32 L 7599.6,4798.64 Z "
     id="path136" />
  <path
     stroke="none"
     fill="#000000"
     transform="matrix(0.05 0 0 0.05 -10 -11)"
     d="M 7655.04,4799.74 L 7632.86,4799.74 L 7632.86,4697.32 L 7655.04,4697.32 L 7655.04,4799.74 Z "
     id="path137" />
  <text
     x="0"
     y="0"
     stroke="none"
     fill="#000000"
     transform="matrix(0.05 0 0 0.05 375.404 236.098)"
     font-style="normal"
     font-weight="bold"
     font-size="180px"
     font-family="Helvetica"
     id="text137">
OCH</text>
  <text
     x="0"
     y="0"
     stroke="none"
     fill="#000000"
     transform="matrix(0.05 0 0 0.05 395.404 238.168)"
     font-style="normal"
     font-weight="bold"
     font-size="135px"
     font-family="Helvetica"
     id="text138">
3</text>
  <path
     stroke="none"
     fill="#000000"
     transform="matrix(0.05 0 0 0.05 -10 -11)"
     d="M 7610.69,4793.34 L 7621.78,4774.13 L 7701.25,4820.02 L 7690.17,4839.22 L 7610.69,4793.34 Z "
     id="path138" />
  <path
     stroke="#000000"
     stroke-width="22"
     fill="none"
     transform="matrix(0.05 0 0 0.05 -10 -11)"
     d="M 7445.62,4739.93 C 7435.28,4746.64 7431.91,4759.82 7438.1,4769.34 C 7444.28,4778.86 7457.69,4781.14 7468.02,4774.43 C 7478.35,4767.72 7491.76,4770 7497.94,4779.52 C 7504.12,4789.04 7500.75,4802.22 7490.42,4808.93 C 7480.09,4815.64 7476.72,4828.81 7482.9,4838.33 C 7489.09,4847.85 7502.49,4850.13 7512.82,4843.43 C 7523.16,4836.72 7536.56,4839 7542.74,4848.52 C 7548.93,4858.04 7545.56,4871.21 7535.23,4877.92 C 7524.89,4884.63 7521.53,4897.81 7527.71,4907.33 C 7533.89,4916.85 7547.3,4919.13 7557.63,4912.42 C 7567.96,4905.71 7581.37,4907.99 7587.55,4917.51 C 7593.73,4927.03 7590.36,4940.21 7580.03,4946.92 "
     id="path139" />
  <path
     stroke="none"
     fill="#000000"
     transform="matrix(0.05 0 0 0.05 -10 -11)"
     d="M 4880.49,6130.98 L 4902.76,6143.84 L 4902.76,6324.13 L 4880.49,6336.99 L 4880.49,6130.98 Z "
     id="path140" />
  <path
     stroke="none"
     fill="#000000"
     transform="matrix(0.05 0 0 0.05 -10 -11)"
     d="M 4936.72,6169.84 L 4958.9,6169.84 L 4958.9,6298.12 L 4936.72,6298.12 L 4936.72,6169.84 Z "
     id="path141" />
  <path
     stroke="none"
     fill="#000000"
     transform="matrix(0.05 0 0 0.05 -10 -11)"
     d="M 4880.49,6336.99 L 4902.76,6324.13 L 5058.89,6414.27 L 5058.89,6439.99 L 4880.49,6336.99 Z "
     id="path142" />
  <path
     stroke="none"
     fill="#000000"
     transform="matrix(0.05 0 0 0.05 -10 -11)"
     d="M 5058.89,6439.99 L 5058.89,6414.27 L 5215.01,6324.13 L 5237.29,6336.99 L 5058.89,6439.99 Z "
     id="path143" />
  <path
     stroke="none"
     fill="#000000"
     transform="matrix(0.05 0 0 0.05 -10 -11)"
     d="M 5064.43,6371.86 L 5053.34,6352.65 L 5164.42,6288.52 L 5175.51,6307.72 L 5064.43,6371.86 Z "
     id="path144" />
  <path
     stroke="none"
     fill="#000000"
     transform="matrix(0.05 0 0 0.05 -10 -11)"
     d="M 5237.29,6336.99 L 5215.01,6324.13 L 5215.01,6143.84 L 5237.29,6130.98 L 5237.29,6336.99 Z "
     id="path145" />
  <path
     stroke="none"
     fill="#000000"
     transform="matrix(0.05 0 0 0.05 -10 -11)"
     d="M 5237.29,6130.98 L 5215.01,6143.84 L 5058.89,6053.69 L 5058.89,6041.69 L 5068.98,6035.46 L 5237.29,6130.98 Z "
     id="path146" />
  <path
     stroke="none"
     fill="#000000"
     transform="matrix(0.05 0 0 0.05 -10 -11)"
     d="M 5175.51,6160.24 L 5164.42,6179.45 L 5053.34,6115.31 L 5064.43,6096.1 L 5175.51,6160.24 Z "
     id="path147" />
  <path
     stroke="none"
     fill="#000000"
     transform="matrix(0.05 0 0 0.05 -10 -11)"
     d="M 5049.13,6035.21 L 5058.89,6041.69 L 5058.89,6053.69 L 4902.76,6143.84 L 4880.49,6130.98 L 5049.13,6035.21 Z "
     id="path148" />
  <text
     x="0"
     y="0"
     stroke="none"
     fill="#000000"
     transform="matrix(0.05 0 0 0.05 240.281 283.58)"
     font-style="normal"
     font-weight="bold"
     font-size="180px"
     font-family="Arial"
     id="text148">
X</text>
  <path
     stroke="none"
     fill="#000000"
     transform="matrix(0.05 0 0 0.05 -10 -11)"
     d="M 5068.98,6035.46 L 5058.89,6041.69 L 5049.13,6035.21 L 5051.61,5920.56 L 5073.78,5921.26 L 5068.98,6035.46 Z "
     id="path149" />
  <path
     stroke="none"
     fill="#000000"
     transform="matrix(0.05 0 0 0.05 -10 -11)"
     d="M 6399.45,6234.66 L 5377.57,6234.66 L 5377.57,6212.66 L 6399.45,6212.66 Z "
     id="path150" />
  <path
     stroke="none"
     fill="#000000"
     transform="matrix(0.05 0 0 0.05 -10 -11)"
     d="M 6592.49,6223.66 C 6592.49,6223.66 6370.73,6280.1 6370.73,6280.1 C 6370.73,6280.1 6398.45,6248.35 6398.45,6223.66 C 6398.45,6198.53 6370.73,6166.22 6370.73,6166.22 C 6370.73,6166.22 6592.49,6223.66 6592.49,6223.66 C 6592.49,6223.66 6592.49,6223.66 6592.49,6223.66 "
     id="path151" />
  <path
     stroke="#000000"
     stroke-width="1"
     fill="none"
     transform="matrix(0.05 0 0 0.05 -10 -11)"
     d="M 6592.49,6223.66 C 6592.49,6223.66 6370.73,6280.1 6370.73,6280.1 C 6370.73,6280.1 6398.45,6248.35 6398.45,6223.66 C 6398.45,6198.53 6370.73,6166.22 6370.73,6166.22 C 6370.73,6166.22 6592.49,6223.66 6592.49,6223.66 C 6592.49,6223.66 6592.49,6223.66 6592.49,6223.66 "
     id="path152" />
  <text
     x="0"
     y="0"
     stroke="none"
     fill="#000000"
     transform="matrix(0.05 0 0 0.05 277.373 295.09)"
     font-style="normal"
     font-weight="bold"
     font-size="200px"
     font-family="Helvetica"
     id="text152">
base</text>
  <text
     x="0"
     y="0"
     stroke="none"
     fill="#000000"
     transform="matrix(0.05 0 0 0.05 273.37 310.295)"
     font-style="normal"
     font-weight="normal"
     font-size="160px"
     font-family="Helvetica"
     id="text153">
benzyne</text>
  <text
     x="0"
     y="0"
     stroke="none"
     fill="#000000"
     transform="matrix(0.05 0 0 0.05 268.042 318.704)"
     font-style="normal"
     font-weight="normal"
     font-size="160px"
     font-family="Helvetica"
     id="text154">
mechanism</text>
  <path
     stroke="#000000"
     stroke-width="22"
     fill="none"
     transform="matrix(0.05 0 0 0.05 -10 -11)"
     d="M 7193.53,5827.88 L 7245.22,5827.88 "
     id="path164" />
  <path
     stroke="#000000"
     stroke-width="22"
     fill="none"
     transform="matrix(0.05 0 0 0.05 -10 -11)"
     d="M 7245.22,5827.88 L 7245.22,6536.55 "
     id="path165" />
  <path
     stroke="#000000"
     stroke-width="22"
     fill="none"
     transform="matrix(0.05 0 0 0.05 -10 -11)"
     d="M 7245.22,6536.55 L 7193.53,6536.55 "
     id="path166" />
  <path
     stroke="#000000"
     stroke-width="22"
     fill="none"
     transform="matrix(0.05 0 0 0.05 -10 -11)"
     d="M 6709.45,6536.55 L 6657.77,6536.55 "
     id="path167" />
  <path
     stroke="#000000"
     stroke-width="22"
     fill="none"
     transform="matrix(0.05 0 0 0.05 -10 -11)"
     d="M 6657.77,6536.55 L 6657.77,5827.88 "
     id="path168" />
  <path
     stroke="#000000"
     stroke-width="22"
     fill="none"
     transform="matrix(0.05 0 0 0.05 -10 -11)"
     d="M 6657.77,5827.88 L 6709.45,5827.88 "
     id="path169" />
  <path
     stroke="none"
     fill="#000000"
     transform="matrix(0.05 0 0 0.05 -10 -11)"
     d="M 8021.88,6216.01 L 7354.38,6216.01 L 7354.38,6194.01 L 8021.88,6194.01 Z "
     id="path170" />
  <path
     stroke="none"
     fill="#000000"
     transform="matrix(0.05 0 0 0.05 -10 -11)"
     d="M 8214.92,6205.01 C 8214.92,6205.01 7993.16,6261.45 7993.16,6261.45 C 7993.16,6261.45 8020.88,6229.7 8020.88,6205.01 C 8020.88,6179.88 7993.16,6147.57 7993.16,6147.57 C 7993.16,6147.57 8214.92,6205.01 8214.92,6205.01 C 8214.92,6205.01 8214.92,6205.01 8214.92,6205.01 "
     id="path171" />
  <path
     stroke="#000000"
     stroke-width="1"
     fill="none"
     transform="matrix(0.05 0 0 0.05 -10 -11)"
     d="M 8214.92,6205.01 C 8214.92,6205.01 7993.16,6261.45 7993.16,6261.45 C 7993.16,6261.45 8020.88,6229.7 8020.88,6205.01 C 8020.88,6179.88 7993.16,6147.57 7993.16,6147.57 C 7993.16,6147.57 8214.92,6205.01 8214.92,6205.01 C 8214.92,6205.01 8214.92,6205.01 8214.92,6205.01 "
     id="path172" />
  <text
     x="0"
     y="0"
     stroke="none"
     fill="#000000"
     transform="matrix(0.05 0 0 0.05 374.535 293.691)"
     font-style="normal"
     font-weight="bold"
     font-size="200px"
     font-family="Helvetica"
     id="text172">
Y</text>
  <text
     x="0"
     y="0"
     stroke="none"
     fill="#000000"
     transform="matrix(0.05 0 0 0.05 359.226 310.762)"
     font-style="normal"
     font-weight="normal"
     font-size="160px"
     font-family="Helvetica"
     id="text173">
then </text>
  <text
     x="0"
     y="0"
     stroke="none"
     fill="#000000"
     transform="matrix(0.05 0 0 0.05 377.019 310.762)"
     font-style="normal"
     font-weight="normal"
     font-size="160px"
     font-family="Helvetica"
     id="text174">
H</text>
  <text
     x="0"
     y="0"
     stroke="none"
     fill="#000000"
     transform="matrix(0.05 0 0 0.05 382.796 312.601)"
     font-style="normal"
     font-weight="normal"
     font-size="120px"
     font-family="Helvetica"
     id="text175">
3</text>
  <text
     x="0"
     y="0"
     stroke="none"
     fill="#000000"
     transform="matrix(0.05 0 0 0.05 386.133 310.762)"
     font-style="normal"
     font-weight="normal"
     font-size="160px"
     font-family="Helvetica"
     id="text176">
O</text>
  <text
     x="0"
     y="0"
     stroke="none"
     fill="#000000"
     transform="matrix(0.05 0 0 0.05 392.356 307.892)"
     font-style="normal"
     font-weight="normal"
     font-size="120px"
     font-family="Helvetica"
     id="text177">
+</text>
  <text
     x="0"
     y="0"
     stroke="none"
     fill="#000000"
     transform="matrix(0.05 0 0 0.05 68.7929 221.183)"
     font-style="normal"
     font-weight="bold"
     font-size="200px"
     font-family="Helvetica"
     id="text178">
depending </text>
  <text
     x="0"
     y="0"
     stroke="none"
     fill="#000000"
     transform="matrix(0.05 0 0 0.05 122.123 221.183)"
     font-style="normal"
     font-weight="bold"
     font-size="200px"
     font-family="Helvetica"
     id="text179">
on </text>
  <text
     x="0"
     y="0"
     stroke="none"
     fill="#000000"
     transform="matrix(0.05 0 0 0.05 137.118 221.183)"
     font-style="normal"
     font-weight="bold"
     font-size="200px"
     font-family="Helvetica"
     id="text180">
the </text>
  <text
     x="0"
     y="0"
     stroke="none"
     fill="#000000"
     transform="matrix(0.05 0 0 0.05 154.896 221.183)"
     font-style="normal"
     font-weight="bold"
     font-size="200px"
     font-family="Helvetica"
     id="text181">
mechanism:</text>
  <path
     stroke="none"
     fill="#ffffff"
     opacity="0"
     onclick="window.location.href = 'aromatic.svg'"
     d="m 534.97829,327.68532 c 0,0 0,-265.541361 0,-265.541361 0,0 -310.30856,0 -310.30856,0 0,0 0,265.541361 0,265.541361 0,0 310.30856,0 310.30856,0"
     id="path19-2-4-31-3-9-0-4"
     inkscape:label="l-supplement"
     style="opacity:0;stroke-width:0.200307" />
  <g
     id="goback"
     onclick="window.location.href = 'index.svg'"
     onmouseover="document.getElementById('goback-box').setAttribute('opacity','0.5');"
     onmouseout="document.getElementById('goback-box').setAttribute('opacity','1')"
     transform="translate(0,-18)">
    <path
       stroke="none"
       fill="#999999"
       transform="matrix(0.05,0,0,0.05,-10,-11)"
       d="m 395.9,1492.34 c 0,0 0,-189.97 0,-189.97 0,-73.45 59.613,-133.06 133.055,-133.06 0,0 1246.885,0 1246.885,0 73.45,0 133.06,59.61 133.06,133.06 0,0 0,189.97 0,189.97 0,73.45 -59.61,133.06 -133.06,133.06 0,0 -1246.885,0 -1246.885,0 -73.442,0 -133.055,-59.61 -133.055,-133.06"
       id="goback-box" />
    <text
       x="0"
       y="0"
       stroke="none"
       fill="#000000"
       transform="matrix(0.05,0,0,0.05,29.3796,61.765)"
       font-style="normal"
       font-weight="bold"
       font-size="200px"
       font-family="Helvetica"
       id="gobacktext">go home</text>
    <path
       stroke="#999999"
       stroke-width="1"
       transform="matrix(0.05,0,0,0.05,-10,-11)"
       d="m 395.9,1492.34 c 0,0 0,-189.97 0,-189.97 0,-73.45 59.613,-133.06 133.055,-133.06 0,0 1246.885,0 1246.885,0 73.45,0 133.06,59.61 133.06,133.06 0,0 0,189.97 0,189.97 0,73.45 -59.61,133.06 -133.06,133.06 0,0 -1246.885,0 -1246.885,0 -73.442,0 -133.055,-59.61 -133.055,-133.06"
       onclick="history.back()"
       style="opacity:0"
       id="goback-link" />
  </g>
  <g
     id="noreagents"
     onclick="window.location.href = 'selectivity-noreagents.svg'"
     transform="translate(-4.6856272,378.9067)">
    <text
       x="11.200497"
       y="54.141506"
       stroke="none"
       fill="#000000"
       font-style="normal"
       font-weight="bold"
       font-size="200px"
       font-family="Helvetica"
       id="gobacktext-7"
       style="font-style:normal;font-weight:bold;font-size:10px;font-family:Helvetica;fill:#000000;fill-opacity:0.443609;stroke:none;stroke-width:0.05"
       inkscape:label="noreagents-text"><tspan
         sodipodi:role="line"
         id="tspan2"
         x="11.200497"
         y="54.141506"
         style="font-style:normal;font-variant:normal;font-weight:bold;font-stretch:normal;font-size:8px;font-family:Helvetica;-inkscape-font-specification:'Helvetica, Bold';font-variant-ligatures:normal;font-variant-caps:normal;font-variant-numeric:normal;font-variant-east-asian:normal;fill:#000000;fill-opacity:0.5;stroke-width:0.05">reagents</tspan></text>
    <rect
       style="fill:#000000;fill-opacity:0.821053;fill-rule:evenodd;stroke:#a13033;stroke-width:0;stroke-linecap:round;stroke-miterlimit:2;stroke-dasharray:none;paint-order:markers fill stroke"
       id="rect3"
       width="31.666824"
       height="0.9773711"
       x="12.224979"
       y="51.518982"
       inkscape:label="noreagents-line" />
    <path
       stroke="none"
       fill="#999999"
       d="m 9.795,54.694678 c 0,0 0,-5.427567 0,-5.427567 0,-2.098514 1.463398,-3.801611 3.266274,-3.801611 0,0 30.608907,0 30.608907,0 1.803073,0 3.266397,1.703097 3.266397,3.801611 0,0 0,5.427567 0,5.427567 0,2.098514 -1.463324,3.801611 -3.266397,3.801611 0,0 -30.608907,0 -30.608907,0 -1.802876,0 -3.266274,-1.703097 -3.266274,-3.801611"
       id="goback-box-8"
       style="fill:#999999;fill-opacity:0.336842;stroke-width:0.0264832"
       inkscape:label="noreagents-box" />
  </g>
  <g
     id="nonames"
     onclick="window.location.href = 'selectivity.svg'"
     transform="matrix(0.85780308,0,0,1,-3.2442635,382.9067)">
    <text
       x="18.441887"
       y="69.010506"
       stroke="none"
       fill="#000000"
       font-style="normal"
       font-weight="bold"
       font-size="200px"
       font-family="Helvetica"
       id="gobacktext-7-8"
       style="font-style:normal;font-variant:normal;font-weight:bold;font-stretch:normal;font-size:10px;font-family:Helvetica;-inkscape-font-specification:'Helvetica, Bold';font-variant-ligatures:normal;font-variant-caps:normal;font-variant-numeric:normal;font-variant-east-asian:normal;fill:#0088d0;fill-opacity:0.675806;stroke:none;stroke-width:0.05"
       inkscape:label="noproducts-text"><tspan
         sodipodi:role="line"
         id="tspan1"
         x="18.441887"
         y="69.010506">show</tspan></text>
    <path
       stroke="none"
       fill="#999999"
       d="m 10.136392,68.163695 c 0,0 0,-5.427567 0,-5.427567 0,-2.098514 1.679048,-3.801611 3.747601,-3.801611 0,0 35.119514,0 35.119514,0 2.068778,0 3.747742,1.703097 3.747742,3.801611 0,0 0,5.427567 0,5.427567 0,2.098514 -1.678964,3.801611 -3.747742,3.801611 0,0 -35.119514,0 -35.119514,0 -2.068553,0 -3.747601,-1.703097 -3.747601,-3.801611"
       id="goback-box-8-6"
       style="fill:#999999;fill-opacity:0.336842;stroke-width:0.0283675"
       inkscape:label="noproducts-box" />
  </g>
  <text
     x="822.84332"
     y="415.79849"
     stroke="none"
     fill="#000000"
     transform="matrix(0.92407999,-0.00322566,0.00377741,1.0821442,0,0)"
     font-style="italic"
     font-weight="bold"
     font-size="8.25806px"
     font-family="'Helvetica Oblique'"
     id="text11"
     style="opacity:1;fill:#00009a;fill-opacity:0.651128;stroke-width:0.0412903">chemisfun</text>
  <g
     id="overlay-box"
     style="opacity:0"
     transform="matrix(0.31364504,0,0,0.8007311,650.50736,385.81436)">
    <rect
       style="fill:#609975;fill-opacity:0.2;stroke:#609970;stroke-width:0;stroke-linecap:round;stroke-opacity:0.657143;paint-order:fill markers stroke"
       id="rect285"
       width="164.84744"
       height="59.583412"
       x="329.69489"
       y="23.171328" />
  </g>
  <g
     id="overlay"
     onclick="window.location.href = 'index.html'"
     onmouseover="this.ownerDocument.getElementById('overlay-box').style.opacity='0.5'"
     onmouseout="this.ownerDocument.getElementById('overlay-box').style.opacity='0'"
     transform="matrix(0.76550767,-0.0030054,0.00267214,0.86098131,195.61318,22.784653)">
    <rect
       style="opacity:0.5;fill:#ffffff;fill-opacity:0;stroke-linecap:round;stroke-opacity:0.657143;paint-order:stroke fill markers"
       id="rect2"
       width="65.93074"
       height="55.035408"
       x="733.06049"
       y="445.87061" />
  </g>
  <g
     id="g1"
     transform="matrix(0.0625,0,0,0.0625,764.65732,406.62566)">
    <rect
       x="239.31"
       y="120.321"
       style="fill:#444242"
       width="33.389"
       height="139.98"
       id="rect1" />
    <rect
       x="256"
       y="120.321"
       style="fill:#3a3839"
       width="16.695"
       height="139.98"
       id="rect2-2" />
    <rect
       x="132.194"
       y="305.86301"
       transform="matrix(0.5,0.866,-0.866,0.5,399.932,58.9793)"
       style="fill:#444242"
       width="33.387001"
       height="139.967"
       id="rect4" />
    <rect
       x="293.125"
       y="359.13"
       transform="matrix(0.866,0.5,-0.5,0.866,236.5654,-131.205)"
       style="fill:#3a3839"
       width="139.967"
       height="33.387001"
       id="rect5" />
    <path
       style="background-color:#ffffff00;fill:#439de2;fill-opacity:1"
       d="m 456.843,485.07 c -9.538,0 -18.951,-2.501 -27.432,-7.398 v 0 c -12.733,-7.351 -21.842,-19.221 -25.646,-33.424 -3.805,-14.201 -1.853,-29.035 5.499,-41.769 7.351,-12.732 19.221,-21.841 33.424,-25.646 14.201,-3.806 29.034,-1.853 41.769,5.499 12.732,7.351 21.841,19.221 25.646,33.424 3.805,14.202 1.853,29.035 -5.499,41.769 -7.351,12.733 -19.221,21.842 -33.424,25.646 -4.742,1.27 -9.557,1.899 -14.337,1.899 z"
       id="path7-3" />
    <path
       style="background-color:#ffffff00;fill:#eda74a;fill-opacity:1"
       d="m 256.001,137.021 c -30.352,0 -55.044,-24.693 -55.044,-55.044 0,-30.351 24.693,-55.044 55.044,-55.044 30.351,0 55.044,24.693 55.044,55.044 0,30.351 -24.693,55.044 -55.044,55.044 z"
       id="path5-4" />
    <path
       style="background-color:#ffffff00;fill:#53acb1;fill-opacity:1"
       d="m 55.158,485.07 c -4.781,0 -9.594,-0.629 -14.336,-1.9 C 26.619,479.365 14.75,470.256 7.398,457.524 0.046,444.792 -1.906,429.957 1.899,415.755 c 3.805,-14.203 12.914,-26.072 25.646,-33.424 12.731,-7.352 27.567,-9.304 41.769,-5.499 14.203,3.805 26.072,12.914 33.424,25.646 7.352,12.732 9.304,27.567 5.499,41.769 -3.805,14.203 -12.914,26.072 -25.646,33.424 -8.481,4.897 -17.896,7.399 -27.433,7.399 z"
       id="path6-7" />
    <path
       style="fill:#f74d37"
       d="m 256.001,384.379 c -38.81,0 -70.384,-31.575 -70.384,-70.384 0,-38.809 31.575,-70.384 70.384,-70.384 38.809,0 70.384,31.575 70.384,70.384 0,38.809 -31.575,70.384 -70.384,70.384 z"
       id="path4-9" />
  </g>
</svg>
