<?xml version="1.0" encoding="UTF-8" standalone="no"?>
<svg
   width="100%"
   height="100%"
   viewBox="0 0 818 460"
   style="background-color: #ffffff00"
   version="1.1"
   id="svg60"
   sodipodi:docname="toacidchlorides-noreactants.svg"
   inkscape:version="1.4.2 (ebf0e940, 2025-05-08)"
   xmlns:inkscape="http://www.inkscape.org/namespaces/inkscape"
   xmlns:sodipodi="http://sodipodi.sourceforge.net/DTD/sodipodi-0.dtd"
   xmlns="http://www.w3.org/2000/svg"
   xmlns:svg="http://www.w3.org/2000/svg">
  <path
     stroke="#ffffff"
     stroke-width="1"
     fill="none"
     transform="matrix(0.05 0 0 0.05 -10 -11)"
     d="M 8651.5,3374.8 C 8651.5,3374.8 8651.5,2658.9 8651.5,2658.9 C 8651.5,2658.9 7374.03,2658.9 7374.03,2658.9 C 7374.03,2658.9 7374.03,3374.8 7374.03,3374.8 C 7374.03,3374.8 8651.5,3374.8 8651.5,3374.8 "
     id="path2" />
  <path
     stroke="none"
     fill="#ffffff"
     transform="matrix(0.05 0 0 0.05 -10 -11)"
     d="M 8483.05,5362.5 C 8483.05,5362.5 8483.05,4679.28 8483.05,4679.28 C 8483.05,4679.28 7531.33,4679.28 7531.33,4679.28 C 7531.33,4679.28 7531.33,5362.5 7531.33,5362.5 C 7531.33,5362.5 8483.05,5362.5 8483.05,5362.5 "
     id="path3" />
  <path
     stroke="#ffffff"
     stroke-width="1"
     fill="none"
     transform="matrix(0.05 0 0 0.05 -10 -11)"
     d="M 8483.05,5362.5 C 8483.05,5362.5 8483.05,4679.28 8483.05,4679.28 C 8483.05,4679.28 7531.33,4679.28 7531.33,4679.28 C 7531.33,4679.28 7531.33,5362.5 7531.33,5362.5 C 7531.33,5362.5 8483.05,5362.5 8483.05,5362.5 "
     id="path4" />
  <path
     stroke="#000000"
     stroke-width="22"
     fill="none"
     transform="matrix(0.05 0 0 0.05 -10 -11)"
     d="M 16494.7,9367.47 C 16494.7,9367.47 16494.7,284.602 16494.7,284.602 C 16494.7,284.602 268.683,284.602 268.683,284.602 C 268.683,284.602 268.683,9367.47 268.683,9367.47 C 268.683,9367.47 16494.7,9367.47 16494.7,9367.47 "
     id="path7" />
  <text
     x="0"
     y="0"
     stroke="none"
     fill="#000000"
     transform="matrix(0.05 0 0 0.05 11.735 21.13)"
     font-style="normal"
     font-weight="bold"
     font-size="320px"
     font-family="Helvetica"
     id="text7">
Preparation of Anhydrides and Acid Chlorides</text>
  <text
     x="0"
     y="0"
     stroke="none"
     fill="#999999"
     transform="matrix(0.05 0 0 0.05 11.9381 39.085)"
     font-style="normal"
     font-weight="normal"
     font-size="320px"
     font-family="Helvetica"
     id="text13">
click for more</text>
  <g
     id="goback"
     onclick="window.location.href = 'index.svg'"
     onmouseover="document.getElementById('goback-box').setAttribute('opacity','0.5');"
     onmouseout="document.getElementById('goback-box').setAttribute('opacity','1')">
    <path
       stroke="none"
       fill="#999999"
       transform="matrix(0.05 0 0 0.05 -10 -11)"
       d="M 395.9,1492.34 C 395.9,1492.34 395.9,1302.37 395.9,1302.37 C 395.9,1228.92 455.513,1169.31 528.955,1169.31 C 528.955,1169.31 1775.84,1169.31 1775.84,1169.31 C 1849.29,1169.31 1908.9,1228.92 1908.9,1302.37 C 1908.9,1302.37 1908.9,1492.34 1908.9,1492.34 C 1908.9,1565.79 1849.29,1625.4 1775.84,1625.4 C 1775.84,1625.4 528.955,1625.4 528.955,1625.4 C 455.513,1625.4 395.9,1565.79 395.9,1492.34 "
       id="goback-box" />
    <text
       x="0"
       y="0"
       stroke="none"
       fill="#000000"
       transform="matrix(0.05 0 0 0.05 29.3796 61.765)"
       font-style="normal"
       font-weight="bold"
       font-size="200px"
       font-family="Helvetica"
       id="gobacktext">
go home</text>
    <path
       stroke="#999999"
       stroke-width="1"
       transform="matrix(0.05 0 0 0.05 -10 -11)"
       d="M 395.9,1492.34 C 395.9,1492.34 395.9,1302.37 395.9,1302.37 C 395.9,1228.92 455.513,1169.31 528.955,1169.31 C 528.955,1169.31 1775.84,1169.31 1775.84,1169.31 C 1849.29,1169.31 1908.9,1228.92 1908.9,1302.37 C 1908.9,1302.37 1908.9,1492.34 1908.9,1492.34 C 1908.9,1565.79 1849.29,1625.4 1775.84,1625.4 C 1775.84,1625.4 528.955,1625.4 528.955,1625.4 C 455.513,1625.4 395.9,1565.79 395.9,1492.34 "
       onclick="window.location.href = 'index.svg'"
       style="opacity:0"
       id="goback-link" />
  </g>
  <g
     id="howdotheyreact"
     onclick="window.location.href = 'acidchlorides.svg'"
     onmouseover="document.getElementById('howdotheyreact-box').setAttribute('opacity','0.5');"
     onmouseout="document.getElementById('howdotheyreact-box').setAttribute('opacity','1')">
    <path
       stroke="none"
       fill="#999999"
       transform="matrix(0.05 0 0 0.05 -10 -11)"
       d="M 381.591,1996.7 C 381.591,1996.7 381.591,1806.72 381.591,1806.72 C 381.591,1733.28 441.204,1673.66 514.646,1673.66 C 514.646,1673.66 2149.06,1673.66 2149.06,1673.66 C 2222.51,1673.66 2282.12,1733.28 2282.12,1806.72 C 2282.12,1806.72 2282.12,1996.7 2282.12,1996.7 C 2282.12,2070.14 2222.51,2129.75 2149.06,2129.75 C 2149.06,2129.75 514.646,2129.75 514.646,2129.75 C 441.204,2129.75 381.591,2070.14 381.591,1996.7 "
       id="howdotheyreact-box" />
    <text
       x="0"
       y="0"
       stroke="none"
       fill="#000000"
       transform="matrix(0.05 0 0 0.05 12.2417 86.9826)"
       font-style="normal"
       font-weight="bold"
       font-size="200px"
       font-family="Helvetica"
       id="howdotheyreact-text">
how do they react?</text>
    <path
       stroke="#999999"
       stroke-width="1"
       transform="matrix(0.05 0 0 0.05 -10 -11)"
       d="M 381.591,1996.7 C 381.591,1996.7 381.591,1806.72 381.591,1806.72 C 381.591,1733.28 441.204,1673.66 514.646,1673.66 C 514.646,1673.66 2149.06,1673.66 2149.06,1673.66 C 2222.51,1673.66 2282.12,1733.28 2282.12,1806.72 C 2282.12,1806.72 2282.12,1996.7 2282.12,1996.7 C 2282.12,2070.14 2222.51,2129.75 2149.06,2129.75 C 2149.06,2129.75 514.646,2129.75 514.646,2129.75 C 441.204,2129.75 381.591,2070.14 381.591,1996.7 "
       style="opacity:0"
       id="howdotheyreact-link" />
  </g>
  <text
     x="0"
     y="0"
     stroke="none"
     fill="#000000"
     transform="matrix(0.05 0 0 0.05 298.833 214.25)"
     font-style="normal"
     font-weight="bold"
     font-size="200px"
     font-family="Helvetica"
     id="text22">
SOCl</text>
  <text
     x="0"
     y="0"
     stroke="none"
     fill="#000000"
     transform="matrix(0.05 0 0 0.05 323.281 216.55)"
     font-style="normal"
     font-weight="bold"
     font-size="150px"
     font-family="Helvetica"
     id="text23">
2</text>
  <text
     x="0"
     y="0"
     stroke="none"
     fill="#000000"
     transform="matrix(0.05 0 0 0.05 418.807 214.455)"
     font-style="normal"
     font-weight="bold"
     font-size="200px"
     font-family="Helvetica"
     id="text24">
P</text>
  <text
     x="0"
     y="0"
     stroke="none"
     fill="#000000"
     transform="matrix(0.05 0 0 0.05 425.477 216.754)"
     font-style="normal"
     font-weight="bold"
     font-size="150px"
     font-family="Helvetica"
     id="text25">
2</text>
  <text
     x="0"
     y="0"
     stroke="none"
     fill="#000000"
     transform="matrix(0.05 0 0 0.05 429.648 214.455)"
     font-style="normal"
     font-weight="bold"
     font-size="200px"
     font-family="Helvetica"
     id="text26">
O</text>
  <text
     x="0"
     y="0"
     stroke="none"
     fill="#000000"
     transform="matrix(0.05 0 0 0.05 437.427 216.754)"
     font-style="normal"
     font-weight="bold"
     font-size="150px"
     font-family="Helvetica"
     id="text27">
5</text>
  <path
     stroke="none"
     fill="#000000"
     transform="matrix(0.05 0 0 0.05 -10 -11)"
     d="M 6848.16,4744.98 L 6848.16,4015.09 L 6870.16,4015.09 L 6870.16,4744.98 Z "
     id="path27" />
  <path
     stroke="none"
     fill="#000000"
     transform="matrix(0.05 0 0 0.05 -10 -11)"
     d="M 6859.16,4938.02 C 6859.16,4938.02 6801.72,4716.26 6801.72,4716.26 C 6801.72,4716.26 6834.03,4743.98 6859.16,4743.98 C 6883.85,4743.98 6915.6,4716.26 6915.6,4716.26 C 6915.6,4716.26 6859.16,4938.02 6859.16,4938.02 C 6859.16,4938.02 6859.16,4938.02 6859.16,4938.02 "
     id="path28" />
  <path
     stroke="#000000"
     stroke-width="1"
     fill="none"
     transform="matrix(0.05 0 0 0.05 -10 -11)"
     d="M 6859.16,4938.02 C 6859.16,4938.02 6801.72,4716.26 6801.72,4716.26 C 6801.72,4716.26 6834.03,4743.98 6859.16,4743.98 C 6883.85,4743.98 6915.6,4716.26 6915.6,4716.26 C 6915.6,4716.26 6859.16,4938.02 6859.16,4938.02 C 6859.16,4938.02 6859.16,4938.02 6859.16,4938.02 "
     id="path29" />
  <path
     stroke="none"
     fill="#000000"
     transform="matrix(0.05 0 0 0.05 -10 -11)"
     d="M 6855.19,5540.69 L 6855.15,5515.02 L 7040.02,5622.57 L 7028.93,5641.77 L 6855.19,5540.69 Z "
     id="path31" />
  <text
     x="0"
     y="0"
     stroke="none"
     fill="#107f01"
     transform="matrix(0.05 0 0 0.05 342.468 276.153)"
     font-style="normal"
     font-weight="bold"
     font-size="180px"
     font-family="Helvetica"
     id="text31">
Cl</text>
  <path
     stroke="none"
     fill="#000000"
     transform="matrix(0.05 0 0 0.05 -10 -11)"
     d="M 6601.11,5687.89 L 6590.02,5668.69 L 6855.15,5515.02 L 6855.19,5540.69 L 6601.11,5687.89 Z "
     id="path32" />
  <text
     x="0"
     y="0"
     stroke="none"
     fill="#000000"
     transform="matrix(0.05 0 0 0.05 329.248 253.689)"
     font-style="normal"
     font-weight="bold"
     font-size="180px"
     font-family="Helvetica"
     id="text32">
O</text>
  <path
     stroke="none"
     fill="#000000"
     transform="matrix(0.05 0 0 0.05 -10 -11)"
     d="M 6838.33,5544.53 L 6816.15,5544.53 L 6816.15,5329.5 L 6838.33,5329.5 L 6838.33,5544.53 Z "
     id="path33" />
  <path
     stroke="none"
     fill="#000000"
     transform="matrix(0.05 0 0 0.05 -10 -11)"
     d="M 6893.77,5544.53 L 6871.59,5544.53 L 6871.59,5329.5 L 6893.77,5329.5 L 6893.77,5544.53 Z "
     id="path34" />
  <path
     stroke="none"
     fill="#000000"
     transform="matrix(0.05 0 0 0.05 -10 -11)"
     d="M 9123.1,4026.09 L 6859.16,4026.09 L 6859.16,4004.09 L 9123.1,4004.09 Z "
     id="path38" />
  <path
     stroke="none"
     fill="#000000"
     transform="matrix(0.05 0 0 0.05 -10 -11)"
     d="M 9112.1,4773.58 L 9112.1,4015.09 L 9134.1,4015.09 L 9134.1,4773.58 Z "
     id="path39" />
  <path
     stroke="none"
     fill="#000000"
     transform="matrix(0.05 0 0 0.05 -10 -11)"
     d="M 9123.1,4966.62 C 9123.1,4966.62 9065.66,4744.86 9065.66,4744.86 C 9065.66,4744.86 9097.97,4772.58 9123.1,4772.58 C 9147.8,4772.58 9179.54,4744.86 9179.54,4744.86 C 9179.54,4744.86 9123.1,4966.62 9123.1,4966.62 C 9123.1,4966.62 9123.1,4966.62 9123.1,4966.62 "
     id="path40" />
  <path
     stroke="#000000"
     stroke-width="1"
     fill="none"
     transform="matrix(0.05 0 0 0.05 -10 -11)"
     d="M 9123.1,4966.62 C 9123.1,4966.62 9065.66,4744.86 9065.66,4744.86 C 9065.66,4744.86 9097.97,4772.58 9123.1,4772.58 C 9147.8,4772.58 9179.54,4744.86 9179.54,4744.86 C 9179.54,4744.86 9123.1,4966.62 9123.1,4966.62 C 9123.1,4966.62 9123.1,4966.62 9123.1,4966.62 "
     id="path41" />
  <path
     stroke="none"
     fill="#000000"
     transform="matrix(0.05 0 0 0.05 -10 -11)"
     d="M 8921.51,5497.79 L 8921.46,5472.12 L 9103.06,5577.79 L 9091.97,5597 L 8921.51,5497.79 Z "
     id="path42" />
  <text
     x="0"
     y="0"
     stroke="none"
     fill="#107f01"
     transform="matrix(0.05 0 0 0.05 445.532 274.008)"
     font-style="normal"
     font-weight="bold"
     font-size="180px"
     font-family="Helvetica"
     id="text42">
O</text>
  <path
     stroke="none"
     fill="#000000"
     transform="matrix(0.05 0 0 0.05 -10 -11)"
     d="M 8667.41,5644.99 L 8656.32,5625.79 L 8921.46,5472.12 L 8921.51,5497.79 L 8667.41,5644.99 Z "
     id="path43" />
  <text
     x="0"
     y="0"
     stroke="none"
     fill="#000000"
     transform="matrix(0.05 0 0 0.05 432.563 251.544)"
     font-style="normal"
     font-weight="bold"
     font-size="180px"
     font-family="Helvetica"
     id="text43">
O</text>
  <path
     stroke="none"
     fill="#000000"
     transform="matrix(0.05 0 0 0.05 -10 -11)"
     d="M 8904.63,5501.63 L 8882.45,5501.63 L 8882.45,5286.6 L 8904.63,5286.6 L 8904.63,5501.63 Z "
     id="path44" />
  <path
     stroke="none"
     fill="#000000"
     transform="matrix(0.05 0 0 0.05 -10 -11)"
     d="M 8960.07,5501.63 L 8937.89,5501.63 L 8937.89,5286.6 L 8960.07,5286.6 L 8960.07,5501.63 Z "
     id="path45" />
  <text
     x="0"
     y="0"
     stroke="none"
     fill="#0000ff"
     transform="matrix(0.05 0 0 0.05 412.202 296.464)"
     font-style="normal"
     font-weight="bold"
     font-size="280px"
     font-family="Helvetica"
     id="text45">
anhydrides</text>
  <text
     x="0"
     y="0"
     stroke="none"
     fill="#0000ff"
     transform="matrix(0.05 0 0 0.05 315.404 295.748)"
     font-style="normal"
     font-weight="bold"
     font-size="280px"
     font-family="Helvetica"
     id="text46">
acid</text>
  <text
     x="0"
     y="0"
     stroke="none"
     fill="#0000ff"
     transform="matrix(0.05 0 0 0.05 298.29 309.798)"
     font-style="normal"
     font-weight="bold"
     font-size="280px"
     font-family="Helvetica"
     id="text47">
chlorides</text>
  <path
     stroke="none"
     fill="#107f01"
     transform="matrix(0.05 0 0 0.05 -10 -11)"
     d="M 9269.88,5596.67 L 9258.8,5577.47 L 9439.84,5472.11 L 9439.79,5497.78 L 9269.88,5596.67 Z "
     id="path47" />
  <path
     stroke="none"
     fill="#107f01"
     transform="matrix(0.05 0 0 0.05 -10 -11)"
     d="M 9439.79,5497.78 L 9439.84,5472.11 L 9704.98,5625.79 L 9693.89,5644.99 L 9439.79,5497.78 Z "
     id="path48" />
  <text
     x="0"
     y="0"
     stroke="none"
     fill="#107f01"
     transform="matrix(0.05 0 0 0.05 458.502 251.544)"
     font-style="normal"
     font-weight="bold"
     font-size="180px"
     font-family="Helvetica"
     id="text48">
O</text>
  <path
     stroke="none"
     fill="#107f01"
     transform="matrix(0.05 0 0 0.05 -10 -11)"
     d="M 9423.41,5501.63 L 9401.23,5501.63 L 9401.23,5286.6 L 9423.41,5286.6 L 9423.41,5501.63 Z "
     id="path49" />
  <path
     stroke="none"
     fill="#107f01"
     transform="matrix(0.05 0 0 0.05 -10 -11)"
     d="M 9478.85,5501.63 L 9456.67,5501.63 L 9456.67,5286.6 L 9478.85,5286.6 L 9478.85,5501.63 Z "
     id="path50" />
  <path
     stroke="none"
     fill="#000000"
     transform="matrix(0.05 0 0 0.05 -10 -11)"
     d="M 7982.4,4008.52 L 7982.4,3457.58 L 8004.4,3457.58 L 8004.4,4008.52 Z "
     id="path51" />
  <path
     stroke="none"
     fill="#999999"
     transform="matrix(0.05 0 0 0.05 -10 -11)"
     d="M 8243.96,5459.3 L 7536.1,5459.3 L 7536.1,5437.3 L 8243.96,5437.3 Z "
     id="path52" />
  <path
     stroke="none"
     fill="#999999"
     transform="matrix(0.05 0 0 0.05 -10 -11)"
     d="M 8437,5448.3 C 8437,5448.3 8215.24,5504.74 8215.24,5504.74 C 8215.24,5504.74 8242.96,5472.99 8242.96,5448.3 C 8242.96,5423.17 8215.24,5390.86 8215.24,5390.86 C 8215.24,5390.86 8437,5448.3 8437,5448.3 C 8437,5448.3 8437,5448.3 8437,5448.3 "
     id="path53" />
  <path
     stroke="#999999"
     stroke-width="1"
     fill="none"
     transform="matrix(0.05 0 0 0.05 -10 -11)"
     d="M 8437,5448.3 C 8437,5448.3 8215.24,5504.74 8215.24,5504.74 C 8215.24,5504.74 8242.96,5472.99 8242.96,5448.3 C 8242.96,5423.17 8215.24,5390.86 8215.24,5390.86 C 8215.24,5390.86 8437,5448.3 8437,5448.3 C 8437,5448.3 8437,5448.3 8437,5448.3 "
     id="path54" />
  <text
     x="0"
     y="0"
     stroke="none"
     fill="#999999"
     transform="matrix(0.05 0 0 0.05 376.177 254.703)"
     font-style="normal"
     font-weight="bold"
     font-size="180px"
     font-family="Helvetica"
     id="text54">
O</text>
  <path
     stroke="none"
     fill="#999999"
     transform="matrix(0.05 0 0 0.05 -10 -11)"
     d="M 7882.78,5210.57 L 7871.7,5191.37 L 8052.74,5086.01 L 8052.69,5111.68 L 7882.78,5210.57 Z "
     id="path55" />
  <path
     stroke="none"
     fill="#999999"
     transform="matrix(0.05 0 0 0.05 -10 -11)"
     d="M 8052.69,5111.68 L 8052.74,5086.01 L 8317.88,5239.69 L 8306.79,5258.89 L 8052.69,5111.68 Z "
     id="path56" />
  <text
     x="0"
     y="0"
     stroke="none"
     fill="#999999"
     transform="matrix(0.05 0 0 0.05 389.147 232.239)"
     font-style="normal"
     font-weight="bold"
     font-size="180px"
     font-family="Helvetica"
     id="text56">
O</text>
  <path
     stroke="none"
     fill="#999999"
     transform="matrix(0.05 0 0 0.05 -10 -11)"
     d="M 8036.31,5115.53 L 8014.13,5115.53 L 8014.13,4900.5 L 8036.31,4900.5 L 8036.31,5115.53 Z "
     id="path57" />
  <path
     stroke="none"
     fill="#999999"
     transform="matrix(0.05 0 0 0.05 -10 -11)"
     d="M 8091.75,5115.53 L 8069.57,5115.53 L 8069.57,4900.5 L 8091.75,4900.5 L 8091.75,5115.53 Z "
     id="path58" />
  <path
     stroke="#999999"
     stroke-width="18"
     fill="none"
     transform="matrix(0.05 0 0 0.05 -10 -11)"
     d="M 7639.85,5077.16 A 68.8704,68.8704 0 1 0 7777.59,5077.16A 68.8704,68.8704 0 1 0 7639.85,5077.16Z "
     id="path59" />
  <path
     stroke="none"
     fill="#999999"
     transform="matrix(0.05 0 0 0.05 -10 -11)"
     d="M 7667.63,5068.16 L 7749.8,5068.16 L 7749.8,5086.16 L 7667.63,5086.16 Z "
     id="path60" />
  <text
     x="382.491"
     y="275.01001"
     stroke="none"
     fill="#999999"
     font-style="italic"
     font-weight="normal"
     font-size="8px"
     font-family="'Helvetica Oblique'"
     id="text60"
     style="stroke-width:0.05">rare</text>
  <path
     stroke="none"
     fill="#ffffff"
     opacity="0"
     onclick="window.location.href = 'toacids.svg'"
     transform="matrix(0.05 0 0 0.05 -10 -11)"
     d="M 8651.5,3374.8 C 8651.5,3374.8 8651.5,2658.9 8651.5,2658.9 C 8651.5,2658.9 7374.03,2658.9 7374.03,2658.9 C 7374.03,2658.9 7374.03,3374.8 7374.03,3374.8 C 7374.03,3374.8 8651.5,3374.8 8651.5,3374.8 "
     id="path1"
     inkscape:label="l-toacids" />
  <path
     stroke="none"
     fill="#ffffff"
     opacity="0"
     onclick="window.location.href = 'acidchlorides.svg'"
     d="m 363.57542,314.9825 c 0,0 0,-72.28539 0,-72.28539 0,0 -77.69562,0 -77.69562,0 0,0 0,72.28539 0,72.28539 0,0 77.69562,0 77.69562,0"
     id="path1-2"
     style="stroke-width:0.078365"
     inkscape:label="l-acidchlorides" />
  <path
     stroke="none"
     fill="#ffffff"
     opacity="0"
     onclick="window.location.href = 'acidchlorides.svg'"
     d="m 489.20524,312.06424 c 0,0 0,-72.28539 0,-72.28539 0,0 -77.69562,0 -77.69562,0 0,0 0,72.28539 0,72.28539 0,0 77.69562,0 77.69562,0"
     id="path1-2-7"
     style="stroke-width:0.078365"
     inkscape:label="l-acidchlorides" />
  <path
     stroke="none"
     fill="#ffffff"
     opacity="0"
     onclick="window.location.href = 'supplement.svg'"
     d="m 328.4312,221.63154 c 0,0 0,-22.52577 0,-22.52577 0,0 -33.46485,0 -33.46485,0 0,0 0,22.52577 0,22.52577 0,0 33.46485,0 33.46485,0"
     id="path1-2-7-5"
     style="opacity:0;stroke-width:0.02871"
     inkscape:label="l-supplement" />
  <path
     stroke="none"
     fill="#ffffff"
     opacity="0"
     onclick="window.location.href = 'supplement.svg'"
     d="m 445.30139,223.2325 c 0,0 0,-22.52577 0,-22.52577 0,0 -33.46485,0 -33.46485,0 0,0 0,22.52577 0,22.52577 0,0 33.46485,0 33.46485,0"
     id="path1-2-7-5-4"
     style="opacity:0;stroke-width:0.02871"
     inkscape:label="l-supplement" />
  <path
     stroke="none"
     fill="#ffffff"
     opacity="0"
     onclick="window.location.href = 'toacids.svg'"
     d="m 409.76292,255.95847 c 0,0 0,-34.13635 0,-34.13635 0,0 -42.311,0 -42.311,0 0,0 0,34.13635 0,34.13635 0,0 42.311,0 42.311,0"
     id="path1-2-7-5-5"
     style="opacity:0;stroke-width:0.0397406"
     inkscape:label="l-supplement" />
  <g
     id="nostructures"
     onclick="window.location.href = 'toacidchlorides.svg'"
     transform="matrix(0.87844457,0,0,1,-3.2995176,381.05692)">
    <text
       x="18.000504"
       y="55.14151"
       stroke="none"
       fill="#000000"
       font-style="normal"
       font-weight="bold"
       font-size="200px"
       font-family="Helvetica"
       id="gobacktext-7"
       style="font-style:normal;font-variant:normal;font-weight:bold;font-stretch:normal;font-size:10px;font-family:Helvetica;-inkscape-font-specification:'Helvetica, Bold';font-variant-ligatures:normal;font-variant-caps:normal;font-variant-numeric:normal;font-variant-east-asian:normal;fill:#0088d0;fill-opacity:0.68;stroke:none;stroke-width:0.05"
       inkscape:label="noreagents-text"><tspan
         sodipodi:role="line"
         id="tspan1"
         x="18.000504"
         y="55.14151">show</tspan></text>
    <path
       stroke="none"
       fill="#999999"
       d="m 9.795,54.694678 c 0,0 0,-5.427567 0,-5.427567 0,-2.098514 1.679048,-3.801611 3.747601,-3.801611 0,0 35.119514,0 35.119514,0 2.068778,0 3.747742,1.703097 3.747742,3.801611 0,0 0,5.427567 0,5.427567 0,2.098514 -1.678964,3.801611 -3.747742,3.801611 0,0 -35.119514,0 -35.119514,0 -2.068553,0 -3.747601,-1.703097 -3.747601,-3.801611"
       id="goback-box-8"
       style="fill:#999999;fill-opacity:0.336842;stroke-width:0.0283675"
       inkscape:label="noreagents-box" />
  </g>
  <g
     id="noreagents"
     onclick="window.location.href = 'toacidchlorides-noreagents.svg'"
     transform="translate(-4.6856272,382.9067)">
    <text
       x="11.541888"
       y="67.610527"
       stroke="none"
       fill="#000000"
       font-style="normal"
       font-weight="bold"
       font-size="200px"
       font-family="Helvetica"
       id="gobacktext-7-8"
       style="font-style:normal;font-weight:bold;font-size:10px;font-family:Helvetica;fill:#000000;fill-opacity:0.443609;stroke:none;stroke-width:0.05"
       inkscape:label="noproducts-text"><tspan
         sodipodi:role="line"
         id="tspan2-5"
         x="11.541888"
         y="67.610527"
         style="font-style:normal;font-variant:normal;font-weight:bold;font-stretch:normal;font-size:8px;font-family:Helvetica;-inkscape-font-specification:'Helvetica, Bold';font-variant-ligatures:normal;font-variant-caps:normal;font-variant-numeric:normal;font-variant-east-asian:normal;fill:#000000;fill-opacity:0.5;stroke-width:0.05">reagents</tspan></text>
    <rect
       style="fill:#000000;fill-opacity:0.821053;fill-rule:evenodd;stroke:#a13033;stroke-width:0;stroke-linecap:round;stroke-miterlimit:2;stroke-dasharray:none;paint-order:markers fill stroke"
       id="rect3-9"
       width="31.666824"
       height="0.9773711"
       x="12.566371"
       y="64.987999"
       inkscape:label="noproducts-line" />
    <path
       stroke="none"
       fill="#999999"
       d="m 10.136392,68.163695 c 0,0 0,-5.427567 0,-5.427567 0,-2.098514 1.463398,-3.801611 3.266274,-3.801611 0,0 30.608907,0 30.608907,0 1.803073,0 3.266397,1.703097 3.266397,3.801611 0,0 0,5.427567 0,5.427567 0,2.098514 -1.463324,3.801611 -3.266397,3.801611 0,0 -30.608907,0 -30.608907,0 -1.802876,0 -3.266274,-1.703097 -3.266274,-3.801611"
       id="goback-box-8-6"
       style="fill:#999999;fill-opacity:0.336842;stroke-width:0.0264832"
       inkscape:label="noproducts-box" />
  </g>
  <text
     x="822.84332"
     y="415.79849"
     stroke="none"
     fill="#000000"
     transform="matrix(0.92407999,-0.00322566,0.00377741,1.0821442,0,0)"
     font-style="italic"
     font-weight="bold"
     font-size="8.25806px"
     font-family="'Helvetica Oblique'"
     id="text11"
     style="opacity:1;fill:#00009a;fill-opacity:0.651128;stroke-width:0.0412903">chemisfun</text>
  <g
     id="overlay-box"
     style="opacity:0"
     transform="matrix(0.31364504,0,0,0.8007311,650.50736,385.81436)">
    <rect
       style="fill:#609975;fill-opacity:0.2;stroke:#609970;stroke-width:0;stroke-linecap:round;stroke-opacity:0.657143;paint-order:fill markers stroke"
       id="rect285"
       width="164.84744"
       height="59.583412"
       x="329.69489"
       y="23.171328" />
  </g>
  <g
     id="overlay"
     onclick="window.location.href = 'index.html'"
     onmouseover="this.ownerDocument.getElementById('overlay-box').style.opacity='0.5'"
     onmouseout="this.ownerDocument.getElementById('overlay-box').style.opacity='0'"
     transform="matrix(0.76550767,-0.0030054,0.00267214,0.86098131,195.61318,22.784653)">
    <rect
       style="opacity:0.5;fill:#ffffff;fill-opacity:0;stroke-linecap:round;stroke-opacity:0.657143;paint-order:stroke fill markers"
       id="rect2"
       width="65.93074"
       height="55.035408"
       x="733.06049"
       y="445.87061" />
  </g>
  <g
     id="g1"
     transform="matrix(0.0625,0,0,0.0625,764.65732,406.62566)">
    <rect
       x="239.31"
       y="120.321"
       style="fill:#444242"
       width="33.389"
       height="139.98"
       id="rect1" />
    <rect
       x="256"
       y="120.321"
       style="fill:#3a3839"
       width="16.695"
       height="139.98"
       id="rect2-2" />
    <rect
       x="132.194"
       y="305.86301"
       transform="matrix(0.5,0.866,-0.866,0.5,399.932,58.9793)"
       style="fill:#444242"
       width="33.387001"
       height="139.967"
       id="rect4" />
    <rect
       x="293.125"
       y="359.13"
       transform="matrix(0.866,0.5,-0.5,0.866,236.5654,-131.205)"
       style="fill:#3a3839"
       width="139.967"
       height="33.387001"
       id="rect5" />
    <path
       style="background-color:#ffffff00;fill:#439de2;fill-opacity:1"
       d="m 456.843,485.07 c -9.538,0 -18.951,-2.501 -27.432,-7.398 v 0 c -12.733,-7.351 -21.842,-19.221 -25.646,-33.424 -3.805,-14.201 -1.853,-29.035 5.499,-41.769 7.351,-12.732 19.221,-21.841 33.424,-25.646 14.201,-3.806 29.034,-1.853 41.769,5.499 12.732,7.351 21.841,19.221 25.646,33.424 3.805,14.202 1.853,29.035 -5.499,41.769 -7.351,12.733 -19.221,21.842 -33.424,25.646 -4.742,1.27 -9.557,1.899 -14.337,1.899 z"
       id="path7-3" />
    <path
       style="background-color:#ffffff00;fill:#eda74a;fill-opacity:1"
       d="m 256.001,137.021 c -30.352,0 -55.044,-24.693 -55.044,-55.044 0,-30.351 24.693,-55.044 55.044,-55.044 30.351,0 55.044,24.693 55.044,55.044 0,30.351 -24.693,55.044 -55.044,55.044 z"
       id="path5-4" />
    <path
       style="background-color:#ffffff00;fill:#53acb1;fill-opacity:1"
       d="m 55.158,485.07 c -4.781,0 -9.594,-0.629 -14.336,-1.9 C 26.619,479.365 14.75,470.256 7.398,457.524 0.046,444.792 -1.906,429.957 1.899,415.755 c 3.805,-14.203 12.914,-26.072 25.646,-33.424 12.731,-7.352 27.567,-9.304 41.769,-5.499 14.203,3.805 26.072,12.914 33.424,25.646 7.352,12.732 9.304,27.567 5.499,41.769 -3.805,14.203 -12.914,26.072 -25.646,33.424 -8.481,4.897 -17.896,7.399 -27.433,7.399 z"
       id="path6-7" />
    <path
       style="fill:#f74d37"
       d="m 256.001,384.379 c -38.81,0 -70.384,-31.575 -70.384,-70.384 0,-38.809 31.575,-70.384 70.384,-70.384 38.809,0 70.384,31.575 70.384,70.384 0,38.809 -31.575,70.384 -70.384,70.384 z"
       id="path4-9" />
  </g>
</svg>
