<?xml version="1.0" encoding="UTF-8" standalone="no"?>
<svg
   width="100%"
   height="100%"
   viewBox="0 0 818 460"
   style="background-color: #ffffff00"
   version="1.1"
   id="svg86"
   sodipodi:docname="toacetals.svg"
   inkscape:version="1.4.2 (ebf0e940, 2025-05-08)"
   xmlns:inkscape="http://www.inkscape.org/namespaces/inkscape"
   xmlns:sodipodi="http://sodipodi.sourceforge.net/DTD/sodipodi-0.dtd"
   xmlns="http://www.w3.org/2000/svg"
   xmlns:svg="http://www.w3.org/2000/svg">
  <path
     stroke="#ffffff"
     stroke-width="1"
     fill="none"
     transform="matrix(0.05 0 0 0.05 -10 -11)"
     d="M 10882.3,6549.4 C 10882.3,6549.4 10882.3,5604.6 10882.3,5604.6 C 10882.3,5604.6 9808.8,5604.6 9808.8,5604.6 C 9808.8,5604.6 9808.8,6549.4 9808.8,6549.4 C 9808.8,6549.4 10882.3,6549.4 10882.3,6549.4 "
     id="path2" />
  <path
     stroke="#ffffff"
     stroke-width="1"
     fill="none"
     transform="matrix(0.05 0 0 0.05 -10 -11)"
     d="M 7378.8,3546.4 C 7378.8,3546.4 7378.8,2687.4 7378.8,2687.4 C 7378.8,2687.4 5161.3,2687.4 5161.3,2687.4 C 5161.3,2687.4 5161.3,3546.4 5161.3,3546.4 C 5161.3,3546.4 7378.8,3546.4 7378.8,3546.4 "
     id="path4" />
  <path
     stroke="#000000"
     stroke-width="22"
     fill="none"
     transform="matrix(0.05 0 0 0.05 -10 -11)"
     d="M 16494.7,9367.47 C 16494.7,9367.47 16494.7,284.602 16494.7,284.602 C 16494.7,284.602 268.683,284.602 268.683,284.602 C 268.683,284.602 268.683,9367.47 268.683,9367.47 C 268.683,9367.47 16494.7,9367.47 16494.7,9367.47 "
     id="path7" />
  <text
     x="0"
     y="0"
     stroke="none"
     fill="#000000"
     transform="matrix(0.05 0 0 0.05 11.735 21.13)"
     font-style="normal"
     font-weight="bold"
     font-size="320px"
     font-family="Helvetica"
     id="text7">
Preparation of Hemiacetals and Acetals</text>
  <text
     x="0"
     y="0"
     stroke="none"
     fill="#999999"
     transform="matrix(0.05 0 0 0.05 11.9381 39.085)"
     font-style="normal"
     font-weight="normal"
     font-size="320px"
     font-family="Helvetica"
     id="text12">
click for more</text>
  <g
     id="goback"
     onclick="window.location.href = 'index.svg'"
     onmouseover="document.getElementById('goback-box').setAttribute('opacity','0.5');"
     onmouseout="document.getElementById('goback-box').setAttribute('opacity','1')">
    <path
       stroke="none"
       fill="#999999"
       transform="matrix(0.05 0 0 0.05 -10 -11)"
       d="M 395.9,1492.34 C 395.9,1492.34 395.9,1302.37 395.9,1302.37 C 395.9,1228.92 455.513,1169.31 528.955,1169.31 C 528.955,1169.31 1775.84,1169.31 1775.84,1169.31 C 1849.29,1169.31 1908.9,1228.92 1908.9,1302.37 C 1908.9,1302.37 1908.9,1492.34 1908.9,1492.34 C 1908.9,1565.79 1849.29,1625.4 1775.84,1625.4 C 1775.84,1625.4 528.955,1625.4 528.955,1625.4 C 455.513,1625.4 395.9,1565.79 395.9,1492.34 "
       id="goback-box" />
    <text
       x="0"
       y="0"
       stroke="none"
       fill="#000000"
       transform="matrix(0.05 0 0 0.05 29.3796 61.765)"
       font-style="normal"
       font-weight="bold"
       font-size="200px"
       font-family="Helvetica"
       id="gobacktext">
go home</text>
    <path
       stroke="#999999"
       stroke-width="1"
       transform="matrix(0.05 0 0 0.05 -10 -11)"
       d="M 395.9,1492.34 C 395.9,1492.34 395.9,1302.37 395.9,1302.37 C 395.9,1228.92 455.513,1169.31 528.955,1169.31 C 528.955,1169.31 1775.84,1169.31 1775.84,1169.31 C 1849.29,1169.31 1908.9,1228.92 1908.9,1302.37 C 1908.9,1302.37 1908.9,1492.34 1908.9,1492.34 C 1908.9,1565.79 1849.29,1625.4 1775.84,1625.4 C 1775.84,1625.4 528.955,1625.4 528.955,1625.4 C 455.513,1625.4 395.9,1565.79 395.9,1492.34 "
       style="opacity:0"
       id="goback-link" />
  </g>
  <g
     id="howdotheyreact"
     onclick="window.location.href = 'acetals.svg'"
     onmouseover="document.getElementById('howdotheyreact-box').setAttribute('opacity','0.5');"
     onmouseout="document.getElementById('howdotheyreact-box').setAttribute('opacity','1')">
    <path
       stroke="none"
       fill="#999999"
       transform="matrix(0.05 0 0 0.05 -10 -11)"
       d="M 381.591,1996.7 C 381.591,1996.7 381.591,1806.72 381.591,1806.72 C 381.591,1733.28 441.204,1673.66 514.646,1673.66 C 514.646,1673.66 2149.06,1673.66 2149.06,1673.66 C 2222.51,1673.66 2282.12,1733.28 2282.12,1806.72 C 2282.12,1806.72 2282.12,1996.7 2282.12,1996.7 C 2282.12,2070.14 2222.51,2129.75 2149.06,2129.75 C 2149.06,2129.75 514.646,2129.75 514.646,2129.75 C 441.204,2129.75 381.591,2070.14 381.591,1996.7 "
       id="howdotheyreact-box" />
    <text
       x="0"
       y="0"
       stroke="none"
       fill="#000000"
       transform="matrix(0.05 0 0 0.05 12.2417 86.9826)"
       font-style="normal"
       font-weight="bold"
       font-size="200px"
       font-family="Helvetica"
       id="howdotheyreact-text">
how do they react?</text>
    <path
       stroke="#999999"
       stroke-width="1"
       transform="matrix(0.05 0 0 0.05 -10 -11)"
       d="M 381.591,1996.7 C 381.591,1996.7 381.591,1806.72 381.591,1806.72 C 381.591,1733.28 441.204,1673.66 514.646,1673.66 C 514.646,1673.66 2149.06,1673.66 2149.06,1673.66 C 2222.51,1673.66 2282.12,1733.28 2282.12,1806.72 C 2282.12,1806.72 2282.12,1996.7 2282.12,1996.7 C 2282.12,2070.14 2222.51,2129.75 2149.06,2129.75 C 2149.06,2129.75 514.646,2129.75 514.646,2129.75 C 441.204,2129.75 381.591,2070.14 381.591,1996.7 "
       style="opacity:0"
       id="howdotheyreact-link" />
  </g>
  <text
     x="0"
     y="0"
     stroke="none"
     fill="#0000ff"
     transform="matrix(0.05 0 0 0.05 320.084 331.936)"
     font-style="normal"
     font-weight="bold"
     font-size="280px"
     font-family="Helvetica"
     id="text21">
acetals</text>
  <path
     stroke="none"
     fill="#000000"
     transform="matrix(0.05 0 0 0.05 -10 -11)"
     d="M 10381.8,6203.07 L 10368.4,6200.22 L 10368.6,6187.54 L 10526,6076.87 L 10538.7,6095.06 L 10381.8,6203.07 Z "
     id="path21" />
  <text
     x="0"
     y="0"
     stroke="none"
     fill="#000000"
     transform="matrix(0.05 0 0 0.05 517.144 293.732)"
     font-style="normal"
     font-weight="bold"
     font-size="180px"
     font-family="Helvetica"
     id="text22">
O</text>
  <path
     stroke="none"
     fill="#000000"
     transform="matrix(0.05 0 0 0.05 -10 -11)"
     d="M 10368,6219.86 L 10368.4,6200.22 L 10381.8,6203.07 L 10521.9,6455.84 L 10502.5,6466.55 L 10368,6219.86 Z "
     id="path22" />
  <path
     stroke="none"
     fill="#000000"
     transform="matrix(0.05 0 0 0.05 -10 -11)"
     d="M 10223.8,6461.02 L 10204.8,6449.55 L 10354.8,6202.53 L 10368.4,6200.22 L 10368,6219.86 L 10223.8,6461.02 Z "
     id="path23" />
  <text
     x="0"
     y="0"
     stroke="none"
     fill="#000000"
     transform="matrix(0.05 0 0 0.05 493.04 293.254)"
     font-style="normal"
     font-weight="bold"
     font-size="180px"
     font-family="Helvetica"
     id="text23">
O</text>
  <path
     stroke="none"
     fill="#000000"
     transform="matrix(0.05 0 0 0.05 -10 -11)"
     d="M 10368.6,6187.54 L 10368.4,6200.22 L 10354.8,6202.53 L 10203.1,6088.99 L 10216.5,6071.31 L 10368.6,6187.54 Z "
     id="path24" />
  <path
     stroke="none"
     fill="#000000"
     transform="matrix(0.05 0 0 0.05 -10 -11)"
     d="M 10173.7,5930.46 L 10152.8,5923.19 L 10219.9,5726.86 L 10235.6,5749.46 L 10173.7,5930.46 Z "
     id="path25" />
  <path
     stroke="none"
     fill="#000000"
     transform="matrix(0.05 0 0 0.05 -10 -11)"
     d="M 10594.9,5932.27 L 10573.7,5938.7 L 10518.9,5755.08 L 10535.5,5733.12 L 10594.9,5932.27 Z "
     id="path26" />
  <path
     stroke="none"
     fill="#000000"
     transform="matrix(0.05 0 0 0.05 -10 -11)"
     d="M 10235.6,5749.46 L 10219.9,5726.86 L 10535.5,5733.12 L 10518.9,5755.08 L 10235.6,5749.46 Z "
     id="path27" />
  <path
     stroke="none"
     fill="#000000"
     transform="matrix(0.05 0 0 0.05 -10 -11)"
     d="M 9878.58,4348.41 L 9878.58,4322.76 L 10142.2,4475.53 L 10131.1,4494.74 L 9878.58,4348.41 Z "
     id="path28" />
  <path
     stroke="none"
     fill="#000000"
     transform="matrix(0.05 0 0 0.05 -10 -11)"
     d="M 9626.05,4494.74 L 9614.96,4475.53 L 9878.58,4322.76 L 9878.58,4348.41 L 9626.05,4494.74 Z "
     id="path29" />
  <text
     x="0"
     y="0"
     stroke="none"
     fill="#000000"
     transform="matrix(0.05 0 0 0.05 480.429 194.145)"
     font-style="normal"
     font-weight="bold"
     font-size="180px"
     font-family="Helvetica"
     id="text29">
O</text>
  <path
     stroke="none"
     fill="#000000"
     transform="matrix(0.05 0 0 0.05 -10 -11)"
     d="M 9861.95,4352.14 L 9839.77,4352.14 L 9839.77,4138.62 L 9861.95,4138.62 L 9861.95,4352.14 Z "
     id="path30" />
  <path
     stroke="none"
     fill="#000000"
     transform="matrix(0.05 0 0 0.05 -10 -11)"
     d="M 9917.39,4352.14 L 9895.21,4352.14 L 9895.21,4138.62 L 9917.39,4138.62 L 9917.39,4352.14 Z "
     id="path31" />
  <text
     x="0"
     y="0"
     stroke="none"
     fill="#000000"
     transform="matrix(0.05 0 0 0.05 527.014 203.617)"
     font-style="normal"
     font-weight="bold"
     font-size="180px"
     font-family="Helvetica"
     id="text31">
OH</text>
  <text
     x="0"
     y="0"
     stroke="none"
     fill="#000000"
     transform="matrix(0.05 0 0 0.05 497.586 196.167)"
     font-style="normal"
     font-weight="bold"
     font-size="180px"
     font-family="Helvetica"
     id="text32">
HO</text>
  <path
     stroke="none"
     fill="#000000"
     transform="matrix(0.05 0 0 0.05 -10 -11)"
     d="M 10418.8,4005.15 L 10400.8,3992.11 L 10522.1,3823.58 L 10530.6,3849.77 L 10418.8,4005.15 Z "
     id="path32" />
  <path
     stroke="none"
     fill="#000000"
     transform="matrix(0.05 0 0 0.05 -10 -11)"
     d="M 10821.4,4129.58 L 10799.2,4129.58 L 10800.1,3937.33 L 10822.3,3921.13 L 10821.4,4129.58 Z "
     id="path33" />
  <path
     stroke="none"
     fill="#000000"
     transform="matrix(0.05 0 0 0.05 -10 -11)"
     d="M 10530.6,3849.77 L 10522.1,3823.58 L 10822.3,3921.13 L 10800.1,3937.33 L 10530.6,3849.77 Z "
     id="path34" />
  <path
     stroke="none"
     fill="#000000"
     transform="matrix(0.05 0 0 0.05 -10 -11)"
     d="M 5642.89,4886.65 L 5628.93,4883.33 L 5628.81,4871.3 L 5796.89,4771.41 L 5808.16,4790.51 L 5642.89,4886.65 Z "
     id="path35" />
  <text
     x="0"
     y="0"
     stroke="none"
     fill="#000000"
     transform="matrix(0.05 0 0 0.05 280.824 228.811)"
     font-style="normal"
     font-weight="bold"
     font-size="180px"
     font-family="Helvetica"
     id="text35">
OH</text>
  <path
     stroke="none"
     fill="#000000"
     transform="matrix(0.05 0 0 0.05 -10 -11)"
     d="M 5629.11,4902.98 L 5628.93,4883.33 L 5642.89,4886.65 L 5790.36,5135.25 L 5771.26,5146.52 L 5629.11,4902.98 Z "
     id="path36" />
  <path
     stroke="none"
     fill="#000000"
     transform="matrix(0.05 0 0 0.05 -10 -11)"
     d="M 5491.48,5149.1 L 5472.17,5138.19 L 5615.02,4886.9 L 5628.93,4883.33 L 5629.11,4902.98 L 5491.48,5149.1 Z "
     id="path37" />
  <text
     x="0"
     y="0"
     stroke="none"
     fill="#000000"
     transform="matrix(0.05 0 0 0.05 254.93 229.05)"
     font-style="normal"
     font-weight="bold"
     font-size="180px"
     font-family="Helvetica"
     id="text37">
O</text>
  <path
     stroke="none"
     fill="#000000"
     transform="matrix(0.05 0 0 0.05 -10 -11)"
     d="M 5628.81,4871.3 L 5628.93,4883.33 L 5615.02,4886.9 L 5448.41,4794.06 L 5459.32,4774.76 L 5628.81,4871.3 Z "
     id="path38" />
  <path
     stroke="none"
     fill="#000000"
     transform="matrix(0.05 0 0 0.05 -10 -11)"
     d="M 5279.03,4776.19 L 5290.29,4795.29 L 5111.4,4901.63 L 5111.21,4875.96 L 5279.03,4776.19 Z "
     id="path39" />
  <path
     stroke="none"
     fill="#000000"
     transform="matrix(0.05 0 0 0.05 -10 -11)"
     d="M 5111.21,4875.96 L 5111.4,4901.63 L 4845.3,4750.67 L 4856.21,4731.36 L 5111.21,4875.96 Z "
     id="path40" />
  <text
     x="0"
     y="0"
     stroke="none"
     fill="#0000ff"
     transform="matrix(0.05 0 0 0.05 305.891 236.126)"
     font-style="normal"
     font-weight="bold"
     font-size="280px"
     font-family="Helvetica"
     id="text40">
hemiacetals</text>
  <text
     x="0"
     y="0"
     stroke="none"
     fill="#000000"
     transform="matrix(0.05 0 0 0.05 445.297 166.944)"
     font-style="normal"
     font-weight="normal"
     font-size="200px"
     font-family="Helvetica"
     id="text41">
a </text>
  <text
     x="0"
     y="0"
     stroke="none"
     fill="#000000"
     transform="matrix(0.05 0 0 0.05 453.637 166.944)"
     font-style="normal"
     font-weight="normal"
     font-size="200px"
     font-family="Helvetica"
     id="text42">
cyclic </text>
  <text
     x="0"
     y="0"
     stroke="none"
     fill="#000000"
     transform="matrix(0.05 0 0 0.05 480.858 166.944)"
     font-style="normal"
     font-weight="normal"
     font-size="200px"
     font-family="Helvetica"
     id="text43">
example</text>
  <path
     stroke="none"
     fill="#000000"
     transform="matrix(0.05 0 0 0.05 -10 -11)"
     d="M 5714.39,6702.75 L 5700.43,6699.43 L 5700.31,6687.4 L 5868.39,6587.51 L 5879.66,6606.61 L 5714.39,6702.75 Z "
     id="path43" />
  <text
     x="0"
     y="0"
     stroke="none"
     fill="#000000"
     transform="matrix(0.05 0 0 0.05 284.398 319.616)"
     font-style="normal"
     font-weight="bold"
     font-size="180px"
     font-family="Helvetica"
     id="text44">
O</text>
  <path
     stroke="none"
     fill="#000000"
     transform="matrix(0.05 0 0 0.05 -10 -11)"
     d="M 5700.61,6719.08 L 5700.43,6699.43 L 5714.39,6702.75 L 5861.86,6951.35 L 5842.76,6962.62 L 5700.61,6719.08 Z "
     id="path44" />
  <path
     stroke="none"
     fill="#000000"
     transform="matrix(0.05 0 0 0.05 -10 -11)"
     d="M 5562.98,6965.2 L 5543.67,6954.29 L 5686.52,6703 L 5700.43,6699.43 L 5700.61,6719.08 L 5562.98,6965.2 Z "
     id="path45" />
  <text
     x="0"
     y="0"
     stroke="none"
     fill="#000000"
     transform="matrix(0.05 0 0 0.05 258.505 319.855)"
     font-style="normal"
     font-weight="bold"
     font-size="180px"
     font-family="Helvetica"
     id="text45">
O</text>
  <path
     stroke="none"
     fill="#000000"
     transform="matrix(0.05 0 0 0.05 -10 -11)"
     d="M 5700.31,6687.4 L 5700.43,6699.43 L 5686.52,6703 L 5519.91,6610.16 L 5530.82,6590.86 L 5700.31,6687.4 Z "
     id="path46" />
  <path
     stroke="none"
     fill="#000000"
     transform="matrix(0.05 0 0 0.05 -10 -11)"
     d="M 5350.53,6592.29 L 5361.79,6611.39 L 5182.9,6717.73 L 5182.71,6692.06 L 5350.53,6592.29 Z "
     id="path47" />
  <path
     stroke="none"
     fill="#000000"
     transform="matrix(0.05 0 0 0.05 -10 -11)"
     d="M 5182.71,6692.06 L 5182.9,6717.73 L 4916.8,6566.77 L 4927.71,6547.46 L 5182.71,6692.06 Z "
     id="path48" />
  <path
     stroke="none"
     fill="#000000"
     transform="matrix(0.05 0 0 0.05 -10 -11)"
     d="M 6039.27,6602.6 L 6049.56,6582.95 L 6222.73,6674.33 L 6223.56,6699.83 L 6039.27,6602.6 Z "
     id="path49" />
  <path
     stroke="none"
     fill="#000000"
     transform="matrix(0.05 0 0 0.05 -10 -11)"
     d="M 6223.56,6699.83 L 6222.73,6674.33 L 6474.09,6522.2 L 6485.55,6541.19 L 6223.56,6699.83 Z "
     id="path50" />
  <path
     stroke="none"
     fill="#000000"
     transform="matrix(0.05 0 0 0.05 -10 -11)"
     d="M 10342.2,5376.85 L 10342.2,4704.7 L 10364.2,4704.7 L 10364.2,5376.85 Z "
     id="path51" />
  <path
     stroke="none"
     fill="#000000"
     transform="matrix(0.05 0 0 0.05 -10 -11)"
     d="M 10353.2,5569.89 C 10353.2,5569.89 10295.8,5348.13 10295.8,5348.13 C 10295.8,5348.13 10328.1,5375.85 10353.2,5375.85 C 10377.9,5375.85 10409.6,5348.13 10409.6,5348.13 C 10409.6,5348.13 10353.2,5569.89 10353.2,5569.89 C 10353.2,5569.89 10353.2,5569.89 10353.2,5569.89 "
     id="path52" />
  <path
     stroke="#000000"
     stroke-width="1"
     fill="none"
     transform="matrix(0.05 0 0 0.05 -10 -11)"
     d="M 10353.2,5569.89 C 10353.2,5569.89 10295.8,5348.13 10295.8,5348.13 C 10295.8,5348.13 10328.1,5375.85 10353.2,5375.85 C 10377.9,5375.85 10409.6,5348.13 10409.6,5348.13 C 10409.6,5348.13 10353.2,5569.89 10353.2,5569.89 C 10353.2,5569.89 10353.2,5569.89 10353.2,5569.89 "
     id="path53" />
  <text
     x="0"
     y="0"
     stroke="none"
     fill="#0000ff"
     transform="matrix(0.05 0 0 0.05 311.225 140.316)"
     font-style="normal"
     font-weight="normal"
     font-size="160px"
     font-family="Helvetica"
     id="text53">
ketones</text>
  <text
     x="0"
     y="0"
     stroke="none"
     fill="#0000ff"
     transform="matrix(0.05 0 0 0.05 299.214 148.724)"
     font-style="normal"
     font-weight="normal"
     font-size="160px"
     font-family="Helvetica"
     id="text54">
and </text>
  <text
     x="0"
     y="0"
     stroke="none"
     fill="#0000ff"
     transform="matrix(0.05 0 0 0.05 314.784 148.724)"
     font-style="normal"
     font-weight="normal"
     font-size="160px"
     font-family="Helvetica"
     id="text55">
aldehydes</text>
  <path
     stroke="none"
     fill="#000000"
     transform="matrix(0.05 0 0 0.05 -10 -11)"
     d="M 5642.45,3249.77 L 5620.27,3249.77 L 5620.27,3034.74 L 5642.45,3034.74 L 5642.45,3249.77 Z "
     id="path55" />
  <path
     stroke="none"
     fill="#000000"
     transform="matrix(0.05 0 0 0.05 -10 -11)"
     d="M 5697.89,3249.77 L 5675.71,3249.77 L 5675.71,3034.74 L 5697.89,3034.74 L 5697.89,3249.77 Z "
     id="path56" />
  <text
     x="0"
     y="0"
     stroke="none"
     fill="#000000"
     transform="matrix(0.05 0 0 0.05 269.454 138.951)"
     font-style="normal"
     font-weight="bold"
     font-size="180px"
     font-family="Helvetica"
     id="text56">
O</text>
  <path
     stroke="none"
     fill="#000000"
     transform="matrix(0.05 0 0 0.05 -10 -11)"
     d="M 5659.08,3246.05 L 5659.08,3220.39 L 5924.02,3373.93 L 5912.93,3393.13 L 5659.08,3246.05 Z "
     id="path57" />
  <path
     stroke="none"
     fill="#000000"
     transform="matrix(0.05 0 0 0.05 -10 -11)"
     d="M 5405.23,3393.13 L 5394.14,3373.93 L 5659.08,3220.39 L 5659.08,3246.05 L 5405.23,3393.13 Z "
     id="path58" />
  <path
     stroke="none"
     fill="#000000"
     transform="matrix(0.05 0 0 0.05 -10 -11)"
     d="M 5637.5,4261.45 L 5637.5,3589.3 L 5659.5,3589.3 L 5659.5,4261.45 Z "
     id="path59" />
  <path
     stroke="none"
     fill="#000000"
     transform="matrix(0.05 0 0 0.05 -10 -11)"
     d="M 5648.5,4454.49 C 5648.5,4454.49 5591.06,4232.73 5591.06,4232.73 C 5591.06,4232.73 5623.37,4260.45 5648.5,4260.45 C 5673.19,4260.45 5704.94,4232.73 5704.94,4232.73 C 5704.94,4232.73 5648.5,4454.49 5648.5,4454.49 C 5648.5,4454.49 5648.5,4454.49 5648.5,4454.49 "
     id="path60" />
  <path
     stroke="#000000"
     stroke-width="1"
     fill="none"
     transform="matrix(0.05 0 0 0.05 -10 -11)"
     d="M 5648.5,4454.49 C 5648.5,4454.49 5591.06,4232.73 5591.06,4232.73 C 5591.06,4232.73 5623.37,4260.45 5648.5,4260.45 C 5673.19,4260.45 5704.94,4232.73 5704.94,4232.73 C 5704.94,4232.73 5648.5,4454.49 5648.5,4454.49 C 5648.5,4454.49 5648.5,4454.49 5648.5,4454.49 "
     id="path61" />
  <path
     stroke="none"
     fill="#000000"
     transform="matrix(0.05 0 0 0.05 -10 -11)"
     d="M 6119.68,3700.79 L 6119.73,3726.46 L 5866.94,3872.91 L 5855.86,3853.71 L 6119.68,3700.79 Z "
     id="path62" />
  <path
     stroke="none"
     fill="#000000"
     transform="matrix(0.05 0 0 0.05 -10 -11)"
     d="M 6299.96,3805.71 L 6288.88,3824.92 L 6119.73,3726.46 L 6119.68,3700.79 L 6299.96,3805.71 Z "
     id="path63" />
  <text
     x="0"
     y="0"
     stroke="none"
     fill="#000000"
     transform="matrix(0.05 0 0 0.05 305.377 185.404)"
     font-style="normal"
     font-weight="bold"
     font-size="180px"
     font-family="Helvetica"
     id="text63">
OH</text>
  <text
     x="0"
     y="0"
     stroke="none"
     fill="#000000"
     transform="matrix(0.05 0 0 0.05 282.949 199.723)"
     font-style="normal"
     font-weight="bold"
     font-size="200px"
     font-family="Helvetica"
     id="text64">
cat. </text>
  <text
     x="0"
     y="0"
     stroke="none"
     fill="#000000"
     transform="matrix(0.05 0 0 0.05 302.958 199.723)"
     font-style="normal"
     font-weight="bold"
     font-size="200px"
     font-family="Helvetica"
     id="text65">
H</text>
  <text
     x="0"
     y="0"
     stroke="none"
     fill="#000000"
     transform="matrix(0.05 0 0 0.05 310.18 196.125)"
     font-style="normal"
     font-weight="bold"
     font-size="150px"
     font-family="Helvetica"
     id="text66">
+</text>
  <path
     stroke="none"
     fill="#000000"
     transform="matrix(0.05 0 0 0.05 -10 -11)"
     d="M 5637.5,6034.65 L 5637.5,5362.5 L 5659.5,5362.5 L 5659.5,6034.65 Z "
     id="path66" />
  <path
     stroke="none"
     fill="#000000"
     transform="matrix(0.05 0 0 0.05 -10 -11)"
     d="M 5648.5,6227.69 C 5648.5,6227.69 5591.06,6005.93 5591.06,6005.93 C 5591.06,6005.93 5623.37,6033.65 5648.5,6033.65 C 5673.19,6033.65 5704.94,6005.93 5704.94,6005.93 C 5704.94,6005.93 5648.5,6227.69 5648.5,6227.69 C 5648.5,6227.69 5648.5,6227.69 5648.5,6227.69 "
     id="path67" />
  <path
     stroke="#000000"
     stroke-width="1"
     fill="none"
     transform="matrix(0.05 0 0 0.05 -10 -11)"
     d="M 5648.5,6227.69 C 5648.5,6227.69 5591.06,6005.93 5591.06,6005.93 C 5591.06,6005.93 5623.37,6033.65 5648.5,6033.65 C 5673.19,6033.65 5704.94,6005.93 5704.94,6005.93 C 5704.94,6005.93 5648.5,6227.69 5648.5,6227.69 C 5648.5,6227.69 5648.5,6227.69 5648.5,6227.69 "
     id="path68" />
  <path
     stroke="none"
     fill="#000000"
     transform="matrix(0.05 0 0 0.05 -10 -11)"
     d="M 6119.68,5473.99 L 6119.73,5499.66 L 5866.94,5646.11 L 5855.86,5626.91 L 6119.68,5473.99 Z "
     id="path69" />
  <path
     stroke="none"
     fill="#000000"
     transform="matrix(0.05 0 0 0.05 -10 -11)"
     d="M 6299.96,5578.91 L 6288.88,5598.12 L 6119.73,5499.66 L 6119.68,5473.99 L 6299.96,5578.91 Z "
     id="path70" />
  <text
     x="0"
     y="0"
     stroke="none"
     fill="#000000"
     transform="matrix(0.05 0 0 0.05 305.377 274.064)"
     font-style="normal"
     font-weight="bold"
     font-size="180px"
     font-family="Helvetica"
     id="text70">
OH</text>
  <text
     x="0"
     y="0"
     stroke="none"
     fill="#000000"
     transform="matrix(0.05 0 0 0.05 282.949 288.383)"
     font-style="normal"
     font-weight="bold"
     font-size="200px"
     font-family="Helvetica"
     id="text71">
cat. </text>
  <text
     x="0"
     y="0"
     stroke="none"
     fill="#000000"
     transform="matrix(0.05 0 0 0.05 302.958 288.383)"
     font-style="normal"
     font-weight="bold"
     font-size="200px"
     font-family="Helvetica"
     id="text72">
H</text>
  <text
     x="0"
     y="0"
     stroke="none"
     fill="#000000"
     transform="matrix(0.05 0 0 0.05 310.18 284.785)"
     font-style="normal"
     font-weight="bold"
     font-size="150px"
     font-family="Helvetica"
     id="text73">
+</text>
  <path
     stroke="none"
     fill="#000000"
     transform="matrix(0.05 0 0 0.05 -10 -11)"
     d="M 4264.7,6592.3 L 4264.7,3289 L 4286.7,3289 L 4286.7,6592.3 Z "
     id="path73" />
  <path
     stroke="none"
     fill="#000000"
     d="M 225.13096,154.55288 H 203.785 V 152.9 h 21.34596 z"
     id="path74"
     style="stroke-width:0.05107" />
  <path
     stroke="none"
     fill="#000000"
     transform="matrix(0.05 0 0 0.05 -10 -11)"
     d="M 4569.05,6603.3 L 4275.7,6603.3 L 4275.7,6581.3 L 4569.05,6581.3 Z "
     id="path75" />
  <path
     stroke="none"
     fill="#000000"
     transform="matrix(0.05 0 0 0.05 -10 -11)"
     d="M 4762.09,6592.3 C 4762.09,6592.3 4540.33,6648.74 4540.33,6648.74 C 4540.33,6648.74 4568.05,6616.99 4568.05,6592.3 C 4568.05,6567.17 4540.33,6534.86 4540.33,6534.86 C 4540.33,6534.86 4762.09,6592.3 4762.09,6592.3 C 4762.09,6592.3 4762.09,6592.3 4762.09,6592.3 "
     id="path76" />
  <path
     stroke="#000000"
     stroke-width="1"
     fill="none"
     transform="matrix(0.05 0 0 0.05 -10 -11)"
     d="M 4762.09,6592.3 C 4762.09,6592.3 4540.33,6648.74 4540.33,6648.74 C 4540.33,6648.74 4568.05,6616.99 4568.05,6592.3 C 4568.05,6567.17 4540.33,6534.86 4540.33,6534.86 C 4540.33,6534.86 4762.09,6592.3 4762.09,6592.3 C 4762.09,6592.3 4762.09,6592.3 4762.09,6592.3 "
     id="path77" />
  <path
     stroke="none"
     fill="#000000"
     transform="matrix(0.05 0 0 0.05 -10 -11)"
     d="M 3745.88,5259.49 L 3745.93,5285.16 L 3493.14,5431.61 L 3482.06,5412.41 L 3745.88,5259.49 Z "
     id="path78" />
  <path
     stroke="none"
     fill="#000000"
     transform="matrix(0.05 0 0 0.05 -10 -11)"
     d="M 3926.16,5364.41 L 3915.08,5383.62 L 3745.93,5285.16 L 3745.88,5259.49 L 3926.16,5364.41 Z "
     id="path79" />
  <text
     x="0"
     y="0"
     stroke="none"
     fill="#000000"
     transform="matrix(0.05 0 0 0.05 186.687 263.339)"
     font-style="normal"
     font-weight="bold"
     font-size="180px"
     font-family="Helvetica"
     id="text79">
OH</text>
  <text
     x="0"
     y="0"
     stroke="none"
     fill="#000000"
     transform="matrix(0.05 0 0 0.05 164.259 277.658)"
     font-style="normal"
     font-weight="bold"
     font-size="200px"
     font-family="Helvetica"
     id="text80">
cat. </text>
  <text
     x="0"
     y="0"
     stroke="none"
     fill="#000000"
     transform="matrix(0.05 0 0 0.05 184.268 277.658)"
     font-style="normal"
     font-weight="bold"
     font-size="200px"
     font-family="Helvetica"
     id="text81">
H</text>
  <text
     x="0"
     y="0"
     stroke="none"
     fill="#000000"
     transform="matrix(0.05 0 0 0.05 191.49 274.06)"
     font-style="normal"
     font-weight="bold"
     font-size="150px"
     font-family="Helvetica"
     id="text82">
+</text>
  <text
     x="0"
     y="0"
     stroke="none"
     fill="#000000"
     transform="matrix(0.05 0 0 0.05 158.025 245.685)"
     font-style="normal"
     font-weight="bold"
     font-size="200px"
     font-family="Helvetica"
     id="text83">
excess</text>
  <path
     stroke="#000000"
     stroke-width="22"
     fill="none"
     transform="matrix(0.05 0 0 0.05 -10 -11)"
     stroke-dasharray="53"
     d="M 9008,6516.44 C 9008,6516.44 9008,3492.56 9008,3492.56 C 9008,3419.11 9067.61,3359.5 9141.06,3359.5 C 9141.06,3359.5 11163.9,3359.5 11163.9,3359.5 C 11237.4,3359.5 11297,3419.11 11297,3492.56 C 11297,3492.56 11297,6516.44 11297,6516.44 C 11297,6589.89 11237.4,6649.5 11163.9,6649.5 C 11163.9,6649.5 9141.06,6649.5 9141.06,6649.5 C 9067.61,6649.5 9008,6589.89 9008,6516.44 "
     id="path83" />
  <text
     x="0"
     y="0"
     stroke="none"
     fill="#000000"
     transform="matrix(0.05 0 0 0.05 512.464 246.198)"
     font-style="normal"
     font-weight="bold"
     font-size="200px"
     font-family="Helvetica"
     id="text84">
cat. </text>
  <text
     x="0"
     y="0"
     stroke="none"
     fill="#000000"
     transform="matrix(0.05 0 0 0.05 532.473 246.198)"
     font-style="normal"
     font-weight="bold"
     font-size="200px"
     font-family="Helvetica"
     id="text85">
H</text>
  <text
     x="0"
     y="0"
     stroke="none"
     fill="#000000"
     transform="matrix(0.05 0 0 0.05 539.695 242.6)"
     font-style="normal"
     font-weight="bold"
     font-size="150px"
     font-family="Helvetica"
     id="text86">
+</text>
  <path
     stroke="none"
     fill="#ffffff"
     opacity="0"
     onclick="window.location.href = 'acetals.svg'"
     transform="matrix(0.05 0 0 0.05 -10 -11)"
     d="M 10882.3,6549.4 C 10882.3,6549.4 10882.3,5604.6 10882.3,5604.6 C 10882.3,5604.6 9808.8,5604.6 9808.8,5604.6 C 9808.8,5604.6 9808.8,6549.4 9808.8,6549.4 C 9808.8,6549.4 10882.3,6549.4 10882.3,6549.4 "
     id="path1"
     inkscape:label="l-acetals" />
  <path
     stroke="none"
     fill="#ffffff"
     opacity="0"
     onclick="window.location.href = 'toketones.svg'"
     transform="matrix(0.05 0 0 0.05 -10 -11)"
     d="M 7378.8,3546.4 C 7378.8,3546.4 7378.8,2687.4 7378.8,2687.4 C 7378.8,2687.4 5161.3,2687.4 5161.3,2687.4 C 5161.3,2687.4 5161.3,3546.4 5161.3,3546.4 C 5161.3,3546.4 7378.8,3546.4 7378.8,3546.4 "
     id="path3"
     inkscape:label="l-toketones" />
  <path
     stroke="none"
     fill="#ffffff"
     opacity="0"
     onclick="window.location.href = 'acetals.svg'"
     d="m 392.54808,253.96923 c 0,0 0,-38.52692 0,-38.52692 0,0 -167.82212,0 -167.82212,0 0,0 0,38.52692 0,38.52692 0,0 167.82212,0 167.82212,0"
     id="path3-4"
     inkscape:label="l-acetals"
     style="stroke-width:0.058261" />
  <path
     stroke="none"
     fill="#ffffff"
     opacity="0"
     onclick="window.location.href = 'acetals.svg'"
     d="m 400.88943,346.28654 c 0,0 0,-38.52692 0,-38.52692 0,0 -167.82212,0 -167.82212,0 0,0 0,38.52692 0,38.52692 0,0 167.82212,0 167.82212,0"
     id="path3-4-3"
     inkscape:label="l-acetals"
     style="stroke-width:0.058261" />
  <path
     stroke="none"
     fill="#ffffff"
     opacity="0"
     onclick="window.location.href = 'supplement.svg'"
     d="m 197.48077,280.32981 c 0,0 0,-11.98846 0,-11.98846 0,0 -35.12981,0 -35.12981,0 0,0 0,11.98846 0,11.98846 0,0 35.12981,0 35.12981,0"
     id="path3-4-3-1"
     inkscape:label="l-supplement"
     style="opacity:0;stroke-width:0.0148693" />
  <path
     stroke="none"
     fill="#ffffff"
     opacity="0"
     onclick="window.location.href = 'supplement.svg'"
     d="m 319.07212,291.2 c 0,0 0,-11.98846 0,-11.98846 0,0 -39,0 -39,0 0,0 0,11.98846 0,11.98846 0,0 39,0 39,0"
     id="path3-4-3-1-2"
     inkscape:label="l-supplement"
     style="opacity:0;stroke-width:0.015667" />
  <path
     stroke="none"
     fill="#ffffff"
     opacity="0"
     onclick="window.location.href = 'supplement.svg'"
     d="m 316.17789,202.39711 c 0,0 0,-11.98846 0,-11.98846 0,0 -35.12981,0 -35.12981,0 0,0 0,11.98846 0,11.98846 0,0 35.12981,0 35.12981,0"
     id="path3-4-3-1-9"
     inkscape:label="l-supplement"
     style="opacity:0;stroke-width:0.0148693" />
  <path
     stroke="none"
     fill="#ffffff"
     opacity="0"
     onclick="window.location.href = 'supplement.svg'"
     d="m 546.3702,248.52692 c 0,0 0,-11.98846 0,-11.98846 0,0 -35.12981,0 -35.12981,0 0,0 0,11.98846 0,11.98846 0,0 35.12981,0 35.12981,0"
     id="path3-4-3-1-8"
     inkscape:label="l-supplement"
     style="opacity:0;stroke-width:0.0148693" />
  <path
     stroke="none"
     fill="#ffffff"
     opacity="0"
     onclick="window.location.href = 'toalcohols.svg'"
     d="m 201.21634,266.12788 c 0,0 0,-31.33942 0,-31.33942 0,0 -45.63462,0 -45.63462,0 0,0 0,31.33942 0,31.33942 0,0 45.63462,0 45.63462,0"
     id="path3-4-3-1-88"
     inkscape:label="l-supplement"
     style="opacity:0;stroke-width:0.0274008" />
  <path
     stroke="none"
     fill="#ffffff"
     opacity="0"
     onclick="window.location.href = 'toalcohols.svg'"
     d="m 320.6827,187.51249 c 0,0 0,-18.62307 0,-18.62307 0,0 -41.76443,0 -41.76443,0 0,0 0,18.62307 0,18.62307 0,0 41.76443,0 41.76443,0"
     id="path3-4-3-1-88-3"
     inkscape:label="l-supplement"
     style="opacity:0;stroke-width:0.0202069" />
  <path
     stroke="none"
     fill="#ffffff"
     opacity="0"
     onclick="window.location.href = 'toalcohols.svg'"
     d="m 321.61539,277.06057 c 0,0 0,-19.72884 0,-19.72884 0,0 -42.31731,0 -42.31731,0 0,0 0,19.72884 0,19.72884 0,0 42.31731,0 42.31731,0"
     id="path3-4-3-1-88-9"
     inkscape:label="l-supplement"
     style="opacity:0;stroke-width:0.0209354" />

  <g
     id="noreactants"
     onclick="window.location.href = 'toacetals-noreactants.svg'"
     transform="translate(-4.6856272,378.9067)">
    <text
       x="11.200497"
       y="54.141506"
       stroke="none"
       fill="#000000"
       font-style="normal"
       font-weight="bold"
       font-size="200px"
       font-family="Helvetica"
       id="gobacktext-7"
       style="font-style:normal;font-weight:bold;font-size:10px;font-family:Helvetica;fill:#000000;fill-opacity:0.443609;stroke:none;stroke-width:0.05"
       inkscape:label="noreagents-text"><tspan
         sodipodi:role="line"
         id="tspan2"
         x="11.200497"
         y="54.141506"
         style="font-style:normal;font-variant:normal;font-weight:bold;font-stretch:normal;font-size:8px;font-family:Helvetica;-inkscape-font-specification:'Helvetica, Bold';font-variant-ligatures:normal;font-variant-caps:normal;font-variant-numeric:normal;font-variant-east-asian:normal;fill:#000000;fill-opacity:0.5;stroke-width:0.05">reactants</tspan></text>
    <rect
       style="fill:#000000;fill-opacity:0.821053;fill-rule:evenodd;stroke:#a13033;stroke-width:0;stroke-linecap:round;stroke-miterlimit:2;stroke-dasharray:none;paint-order:markers fill stroke"
       id="rect3"
       width="31.666824"
       height="0.9773711"
       x="12.224979"
       y="51.518982"
       inkscape:label="noreagents-line" />
    <path
       stroke="none"
       fill="#999999"
       d="m 9.795,54.694678 c 0,0 0,-5.427567 0,-5.427567 0,-2.098514 1.463398,-3.801611 3.266274,-3.801611 0,0 30.608907,0 30.608907,0 1.803073,0 3.266397,1.703097 3.266397,3.801611 0,0 0,5.427567 0,5.427567 0,2.098514 -1.463324,3.801611 -3.266397,3.801611 0,0 -30.608907,0 -30.608907,0 -1.802876,0 -3.266274,-1.703097 -3.266274,-3.801611"
       id="goback-box-8"
       style="fill:#999999;fill-opacity:0.336842;stroke-width:0.0264832"
       inkscape:label="noreagents-box" />
  </g>
  <g
     id="noreagents"
     onclick="window.location.href = 'toacetals-noreagents.svg'"
     transform="translate(-4.6856272,382.9067)">
    <text
       x="11.541888"
       y="67.610527"
       stroke="none"
       fill="#000000"
       font-style="normal"
       font-weight="bold"
       font-size="200px"
       font-family="Helvetica"
       id="gobacktext-7-8"
       style="font-style:normal;font-weight:bold;font-size:10px;font-family:Helvetica;fill:#000000;fill-opacity:0.443609;stroke:none;stroke-width:0.05"
       inkscape:label="noproducts-text"><tspan
         sodipodi:role="line"
         id="tspan2-5"
         x="11.541888"
         y="67.610527"
         style="font-style:normal;font-variant:normal;font-weight:bold;font-stretch:normal;font-size:8px;font-family:Helvetica;-inkscape-font-specification:'Helvetica, Bold';font-variant-ligatures:normal;font-variant-caps:normal;font-variant-numeric:normal;font-variant-east-asian:normal;fill:#000000;fill-opacity:0.5;stroke-width:0.05">reagents</tspan></text>
    <rect
       style="fill:#000000;fill-opacity:0.821053;fill-rule:evenodd;stroke:#a13033;stroke-width:0;stroke-linecap:round;stroke-miterlimit:2;stroke-dasharray:none;paint-order:markers fill stroke"
       id="rect3-9"
       width="31.666824"
       height="0.9773711"
       x="12.566371"
       y="64.987999"
       inkscape:label="noproducts-line" />
    <path
       stroke="none"
       fill="#999999"
       d="m 10.136392,68.163695 c 0,0 0,-5.427567 0,-5.427567 0,-2.098514 1.463398,-3.801611 3.266274,-3.801611 0,0 30.608907,0 30.608907,0 1.803073,0 3.266397,1.703097 3.266397,3.801611 0,0 0,5.427567 0,5.427567 0,2.098514 -1.463324,3.801611 -3.266397,3.801611 0,0 -30.608907,0 -30.608907,0 -1.802876,0 -3.266274,-1.703097 -3.266274,-3.801611"
       id="goback-box-8-6"
       style="fill:#999999;fill-opacity:0.336842;stroke-width:0.0264832"
       inkscape:label="noproducts-box" />
  </g>

  <text x="822.84332" y="415.79849" stroke="none" fill="#000000" transform="matrix(0.92407999,-0.00322566,0.00377741,1.0821442,0,0)" font-style="italic" font-weight="bold" font-size="8.25806px" font-family="'Helvetica Oblique'" id="text11" style="opacity:1;fill:#00009a;fill-opacity:0.651128;stroke-width:0.0412903">chemisfun</text>
  <g id="overlay-box" style="opacity:0" transform="matrix(0.31364504,0,0,0.8007311,650.50736,385.81436)">
    <rect style="fill:#609975;fill-opacity:0.2;stroke:#609970;stroke-width:0;stroke-linecap:round;stroke-opacity:0.657143;paint-order:fill markers stroke" id="rect285" width="164.84744" height="59.583412" x="329.69489" y="23.171328" />
  </g>
  <g id="overlay" onclick="window.location.href = 'about.svg'" onmouseover="this.ownerDocument.getElementById('overlay-box').style.opacity='0.5'" onmouseout="this.ownerDocument.getElementById('overlay-box').style.opacity='0'" transform="matrix(0.76550767,-0.0030054,0.00267214,0.86098131,195.61318,22.784653)">
    <rect style="opacity:0.5;fill:#ffffff;fill-opacity:0;stroke-linecap:round;stroke-opacity:0.657143;paint-order:stroke fill markers" id="rect2" width="65.93074" height="55.035408" x="733.06049" y="445.87061" />
  </g>
  <g id="g1" transform="matrix(0.0625,0,0,0.0625,764.65732,406.62566)">
    <rect x="239.31" y="120.321" style="fill:#444242" width="33.389" height="139.98" id="rect1" />
    <rect x="256" y="120.321" style="fill:#3a3839" width="16.695" height="139.98" id="rect2-2" />
    <rect x="132.194" y="305.86301" transform="matrix(0.5,0.866,-0.866,0.5,399.932,58.9793)" style="fill:#444242" width="33.387001" height="139.967" id="rect3" />
    <rect x="293.125" y="359.13" transform="matrix(0.866,0.5,-0.5,0.866,236.5654,-131.205)" style="fill:#3a3839" width="139.967" height="33.387001" id="rect4" />
    <path style="background-color:#ffffff00;fill:#439de2;fill-opacity:1" d="m 456.843,485.07 c -9.538,0 -18.951,-2.501 -27.432,-7.398 v 0 c -12.733,-7.351 -21.842,-19.221 -25.646,-33.424 -3.805,-14.201 -1.853,-29.035 5.499,-41.769 7.351,-12.732 19.221,-21.841 33.424,-25.646 14.201,-3.806 29.034,-1.853 41.769,5.499 12.732,7.351 21.841,19.221 25.646,33.424 3.805,14.202 1.853,29.035 -5.499,41.769 -7.351,12.733 -19.221,21.842 -33.424,25.646 -4.742,1.27 -9.557,1.899 -14.337,1.899 z" id="path7-3" />
    <path style="background-color:#ffffff00;fill:#eda74a;fill-opacity:1" d="m 256.001,137.021 c -30.352,0 -55.044,-24.693 -55.044,-55.044 0,-30.351 24.693,-55.044 55.044,-55.044 30.351,0 55.044,24.693 55.044,55.044 0,30.351 -24.693,55.044 -55.044,55.044 z" id="path5-4" />
    <path style="background-color:#ffffff00;fill:#53acb1;fill-opacity:1" d="m 55.158,485.07 c -4.781,0 -9.594,-0.629 -14.336,-1.9 C 26.619,479.365 14.75,470.256 7.398,457.524 0.046,444.792 -1.906,429.957 1.899,415.755 c 3.805,-14.203 12.914,-26.072 25.646,-33.424 12.731,-7.352 27.567,-9.304 41.769,-5.499 14.203,3.805 26.072,12.914 33.424,25.646 7.352,12.732 9.304,27.567 5.499,41.769 -3.805,14.203 -12.914,26.072 -25.646,33.424 -8.481,4.897 -17.896,7.399 -27.433,7.399 z" id="path6-7" />
    <path style="fill:#f74d37" d="m 256.001,384.379 c -38.81,0 -70.384,-31.575 -70.384,-70.384 0,-38.809 31.575,-70.384 70.384,-70.384 38.809,0 70.384,31.575 70.384,70.384 0,38.809 -31.575,70.384 -70.384,70.384 z" id="path4-9" />
  </g>
</svg>
