<?xml version="1.0" encoding="UTF-8" standalone="no"?>
<svg
   width="100%"
   height="100%"
   viewBox="0 0 818 460"
   style="background-color: #ffffff00"
   version="1.1"
   id="svg373"
   sodipodi:docname="toalkenes-noreactants-o1.svg"
   inkscape:version="1.4.2 (ebf0e940, 2025-05-08)"
   xmlns:inkscape="http://www.inkscape.org/namespaces/inkscape"
   xmlns:sodipodi="http://sodipodi.sourceforge.net/DTD/sodipodi-0.dtd"
   xmlns="http://www.w3.org/2000/svg"
   xmlns:svg="http://www.w3.org/2000/svg">
  <path
     stroke="#ffffff"
     stroke-width="1"
     fill="none"
     transform="matrix(0.05 0 0 0.05 -10 -11)"
     d="M 6407.04,466.24 C 6407.04,466.24 6407.04,1277.4 6407.04,1277.4 C 6407.04,1277.4 5309.12,1277.4 5309.12,1277.4 C 5309.12,1277.4 5309.12,466.24 5309.12,466.24 C 5309.12,466.24 6407.04,466.24 6407.04,466.24 "
     id="path2" />
  <path
     stroke="#ffffff"
     stroke-width="1"
     fill="none"
     transform="matrix(0.05 0 0 0.05 -10 -11)"
     d="M 9054.08,451.2 C 9054.08,451.2 9054.08,1202.2 9054.08,1202.2 C 9054.08,1202.2 7910.04,1202.2 7910.04,1202.2 C 7910.04,1202.2 7910.04,451.2 7910.04,451.2 C 7910.04,451.2 9054.08,451.2 9054.08,451.2 "
     id="path4" />
  <path
     stroke="#ffffff"
     stroke-width="1"
     fill="none"
     transform="matrix(0.05 0 0 0.05 -10 -11)"
     d="M 5354.24,6662.72 C 5354.24,6662.72 5354.24,6330.84 5354.24,6330.84 C 5354.24,6330.84 4345.56,6330.84 4345.56,6330.84 C 4345.56,6330.84 4345.56,6662.72 4345.56,6662.72 C 4345.56,6662.72 5354.24,6662.72 5354.24,6662.72 "
     id="path12" />
  <path
     stroke="#000000"
     stroke-width="22"
     fill="none"
     transform="matrix(0.05 0 0 0.05 -10 -11)"
     d="M 16494.7,9367.47 C 16494.7,9367.47 16494.7,284.602 16494.7,284.602 C 16494.7,284.602 268.683,284.602 268.683,284.602 C 268.683,284.602 268.683,9367.47 268.683,9367.47 C 268.683,9367.47 16494.7,9367.47 16494.7,9367.47 "
     id="path29" />
  <text
     x="0"
     y="0"
     stroke="none"
     fill="#000000"
     transform="matrix(0.05 0 0 0.05 11.735 21.13)"
     font-style="normal"
     font-weight="bold"
     font-size="320px"
     font-family="Helvetica"
     id="text29">
Preparation of Alkenes</text>
  <text
     x="0"
     y="0"
     stroke="none"
     fill="#999999"
     transform="matrix(0.05 0 0 0.05 11.9381 39.085)"
     font-style="normal"
     font-weight="normal"
     font-size="320px"
     font-family="Helvetica"
     id="text32">
click for more</text>
  <g
     id="goback"
     onclick="window.location.href = 'index-o1.svg'"
     onmouseover="document.getElementById('goback-box').setAttribute('opacity','0.5');"
     onmouseout="document.getElementById('goback-box').setAttribute('opacity','1')">
    <path
       stroke="none"
       fill="#999999"
       transform="matrix(0.05 0 0 0.05 -10 -11)"
       d="M 395.9,1492.34 C 395.9,1492.34 395.9,1302.37 395.9,1302.37 C 395.9,1228.92 455.513,1169.31 528.955,1169.31 C 528.955,1169.31 1775.84,1169.31 1775.84,1169.31 C 1849.29,1169.31 1908.9,1228.92 1908.9,1302.37 C 1908.9,1302.37 1908.9,1492.34 1908.9,1492.34 C 1908.9,1565.79 1849.29,1625.4 1775.84,1625.4 C 1775.84,1625.4 528.955,1625.4 528.955,1625.4 C 455.513,1625.4 395.9,1565.79 395.9,1492.34 "
       id="goback-box" />
    <text
       x="0"
       y="0"
       stroke="none"
       fill="#000000"
       transform="matrix(0.05 0 0 0.05 29.3796 61.765)"
       font-style="normal"
       font-weight="bold"
       font-size="200px"
       font-family="Helvetica"
       id="gobacktext">
go home</text>
    <path
       stroke="#999999"
       stroke-width="1"
       transform="matrix(0.05 0 0 0.05 -10 -11)"
       d="M 395.9,1492.34 C 395.9,1492.34 395.9,1302.37 395.9,1302.37 C 395.9,1228.92 455.513,1169.31 528.955,1169.31 C 528.955,1169.31 1775.84,1169.31 1775.84,1169.31 C 1849.29,1169.31 1908.9,1228.92 1908.9,1302.37 C 1908.9,1302.37 1908.9,1492.34 1908.9,1492.34 C 1908.9,1565.79 1849.29,1625.4 1775.84,1625.4 C 1775.84,1625.4 528.955,1625.4 528.955,1625.4 C 455.513,1625.4 395.9,1565.79 395.9,1492.34 "
       onclick="window.location.href = 'index-o1.svg'"
       style="opacity:0"
       id="goback-link" />
  </g>
  <g
     id="howdotheyreact"
     onclick="window.location.href = 'alkenes-o1.svg'"
     onmouseover="document.getElementById('howdotheyreact-box').setAttribute('opacity','0.5');"
     onmouseout="document.getElementById('howdotheyreact-box').setAttribute('opacity','1')">
    <path
       stroke="none"
       fill="#999999"
       transform="matrix(0.05 0 0 0.05 -10 -11)"
       d="M 381.591,1996.7 C 381.591,1996.7 381.591,1806.72 381.591,1806.72 C 381.591,1733.28 441.204,1673.66 514.646,1673.66 C 514.646,1673.66 2149.06,1673.66 2149.06,1673.66 C 2222.51,1673.66 2282.12,1733.28 2282.12,1806.72 C 2282.12,1806.72 2282.12,1996.7 2282.12,1996.7 C 2282.12,2070.14 2222.51,2129.75 2149.06,2129.75 C 2149.06,2129.75 514.646,2129.75 514.646,2129.75 C 441.204,2129.75 381.591,2070.14 381.591,1996.7 "
       id="howdotheyreact-box" />
    <text
       x="0"
       y="0"
       stroke="none"
       fill="#000000"
       transform="matrix(0.05 0 0 0.05 12.2417 86.9826)"
       font-style="normal"
       font-weight="bold"
       font-size="200px"
       font-family="Helvetica"
       id="howdotheyreact-text">
how do they react?</text>
    <path
       stroke="#999999"
       stroke-width="1"
       transform="matrix(0.05 0 0 0.05 -10 -11)"
       d="M 381.591,1996.7 C 381.591,1996.7 381.591,1806.72 381.591,1806.72 C 381.591,1733.28 441.204,1673.66 514.646,1673.66 C 514.646,1673.66 2149.06,1673.66 2149.06,1673.66 C 2222.51,1673.66 2282.12,1733.28 2282.12,1806.72 C 2282.12,1806.72 2282.12,1996.7 2282.12,1996.7 C 2282.12,2070.14 2222.51,2129.75 2149.06,2129.75 C 2149.06,2129.75 514.646,2129.75 514.646,2129.75 C 441.204,2129.75 381.591,2070.14 381.591,1996.7 "
       style="opacity:0"
       id="howdotheyreact-link" />
  </g>
  <text
     x="0"
     y="0"
     stroke="none"
     fill="#000000"
     transform="matrix(0.05 0 0 0.05 223.336 76.1491)"
     font-style="normal"
     font-weight="bold"
     font-size="200px"
     font-family="Helvetica"
     id="text41">
H</text>
  <text
     x="0"
     y="0"
     stroke="none"
     fill="#000000"
     transform="matrix(0.05 0 0 0.05 230.558 78.4489)"
     font-style="normal"
     font-weight="bold"
     font-size="150px"
     font-family="Helvetica"
     id="text42">
2</text>
  <text
     x="0"
     y="0"
     stroke="none"
     fill="#000000"
     transform="matrix(0.05 0 0 0.05 234.729 76.1491)"
     font-style="normal"
     font-weight="bold"
     font-size="200px"
     font-family="Helvetica"
     id="text43">
SO</text>
  <text
     x="0"
     y="0"
     stroke="none"
     fill="#000000"
     transform="matrix(0.05 0 0 0.05 249.177 78.4489)"
     font-style="normal"
     font-weight="bold"
     font-size="150px"
     font-family="Helvetica"
     id="text44">
4</text>
  <text
     x="0"
     y="0"
     stroke="none"
     fill="#000000"
     transform="matrix(0.05 0 0 0.05 253.349 76.1491)"
     font-style="normal"
     font-weight="bold"
     font-size="200px"
     font-family="Helvetica"
     id="text45">
, </text>
  <text
     x="0"
     y="0"
     stroke="none"
     fill="#000000"
     transform="matrix(0.05 0 0 0.05 258.905 76.1491)"
     font-style="normal"
     font-weight="bold"
     font-size="200px"
     font-family="Helvetica"
     id="text46">
heat</text>
  <text
     x="0"
     y="0"
     stroke="none"
     fill="#000000"
     transform="matrix(0.05 0 0 0.05 229.8 92.8762)"
     font-style="normal"
     font-weight="bold"
     font-size="160px"
     font-family="Helvetica"
     id="text47">
or </text>
  <text
     x="0"
     y="0"
     stroke="none"
     fill="#000000"
     transform="matrix(0.05 0 0 0.05 240.023 92.8762)"
     font-style="normal"
     font-weight="bold"
     font-size="160px"
     font-family="Helvetica"
     id="text48">
POCl</text>
  <text
     x="0"
     y="0"
     stroke="none"
     fill="#000000"
     transform="matrix(0.05 0 0 0.05 259.582 94.716)"
     font-style="normal"
     font-weight="bold"
     font-size="120px"
     font-family="Helvetica"
     id="text49">
3</text>
  <text
     x="0"
     y="0"
     stroke="none"
     fill="#000000"
     transform="matrix(0.05 0 0 0.05 262.919 92.8762)"
     font-style="normal"
     font-weight="bold"
     font-size="160px"
     font-family="Helvetica"
     id="text50">
/Py</text>
  <path
     stroke="none"
     fill="#000000"
     transform="matrix(0.05 0 0 0.05 -10 -11)"
     d="M 3491.33,7567.6 L 3491.33,6991.73 L 3513.33,6991.73 L 3513.33,7567.6 Z "
     id="path62" />
  <path
     stroke="none"
     fill="#000000"
     transform="matrix(0.05 0 0 0.05 -10 -11)"
     d="M 3502.33,7760.64 C 3502.33,7760.64 3444.89,7538.88 3444.89,7538.88 C 3444.89,7538.88 3477.2,7566.6 3502.33,7566.6 C 3527.03,7566.6 3558.77,7538.88 3558.77,7538.88 C 3558.77,7538.88 3502.33,7760.64 3502.33,7760.64 C 3502.33,7760.64 3502.33,7760.64 3502.33,7760.64 "
     id="path63" />
  <path
     stroke="#000000"
     stroke-width="1"
     fill="none"
     transform="matrix(0.05 0 0 0.05 -10 -11)"
     d="M 3502.33,7760.64 C 3502.33,7760.64 3444.89,7538.88 3444.89,7538.88 C 3444.89,7538.88 3477.2,7566.6 3502.33,7566.6 C 3527.03,7566.6 3558.77,7538.88 3558.77,7538.88 C 3558.77,7538.88 3502.33,7760.64 3502.33,7760.64 C 3502.33,7760.64 3502.33,7760.64 3502.33,7760.64 "
     id="path64" />
  <path
     stroke="none"
     fill="#000000"
     transform="matrix(0.05 0 0 0.05 -10 -11)"
     d="M 6426.5,7002.73 L 3502.33,7002.73 L 3502.33,6980.73 L 6426.5,6980.73 Z "
     id="path65" />
  <path
     stroke="none"
     fill="#000000"
     transform="matrix(0.05 0 0 0.05 -10 -11)"
     d="M 4953.42,7568.34 L 4953.42,6991.73 L 4975.42,6991.73 L 4975.42,7568.34 Z "
     id="path66" />
  <path
     stroke="none"
     fill="#000000"
     transform="matrix(0.05 0 0 0.05 -10 -11)"
     d="M 4964.42,7761.38 C 4964.42,7761.38 4906.98,7539.62 4906.98,7539.62 C 4906.98,7539.62 4939.29,7567.34 4964.42,7567.34 C 4989.11,7567.34 5020.86,7539.62 5020.86,7539.62 C 5020.86,7539.62 4964.42,7761.38 4964.42,7761.38 C 4964.42,7761.38 4964.42,7761.38 4964.42,7761.38 "
     id="path67" />
  <path
     stroke="#000000"
     stroke-width="1"
     fill="none"
     transform="matrix(0.05 0 0 0.05 -10 -11)"
     d="M 4964.42,7761.38 C 4964.42,7761.38 4906.98,7539.62 4906.98,7539.62 C 4906.98,7539.62 4939.29,7567.34 4964.42,7567.34 C 4989.11,7567.34 5020.86,7539.62 5020.86,7539.62 C 5020.86,7539.62 4964.42,7761.38 4964.42,7761.38 C 4964.42,7761.38 4964.42,7761.38 4964.42,7761.38 "
     id="path68" />
  <path
     stroke="none"
     fill="#000000"
     transform="matrix(0.05 0 0 0.05 -10 -11)"
     d="M 3116.81,7899.09 L 3127.89,7879.88 L 3381.74,8026.96 L 3381.74,8039.24 L 3371.34,8045.54 L 3116.81,7899.09 Z "
     id="path69" />
  <path
     stroke="none"
     fill="#000000"
     transform="matrix(0.05 0 0 0.05 -10 -11)"
     d="M 3392.15,8045.54 L 3381.74,8039.24 L 3381.74,8026.96 L 3641.38,7875.94 L 3641.44,7901.61 L 3392.15,8045.54 Z "
     id="path70" />
  <path
     stroke="none"
     fill="#000000"
     transform="matrix(0.05 0 0 0.05 -10 -11)"
     d="M 3442.72,8080.85 L 3431.64,8061.65 L 3635.59,7943.9 L 3646.68,7963.1 L 3442.72,8080.85 Z "
     id="path71" />
  <text
     x="0"
     y="0"
     stroke="none"
     fill="#0000ff"
     transform="matrix(0.05 0 0 0.05 155.837 409.177)"
     font-style="normal"
     font-weight="bold"
     font-size="180px"
     font-family="Helvetica"
     id="text71">
Br</text>
  <path
     stroke="none"
     fill="#000000"
     transform="matrix(0.05 0 0 0.05 -10 -11)"
     d="M 3371.34,8045.54 L 3381.74,8039.24 L 3392.15,8045.54 L 3392.83,8243.75 L 3370.65,8243.75 L 3371.34,8045.54 Z "
     id="path72" />
  <path
     stroke="none"
     fill="#000000"
     transform="matrix(0.05 0 0 0.05 -10 -11)"
     d="M 6415.5,7567.6 L 6415.5,6991.73 L 6437.5,6991.73 L 6437.5,7567.6 Z "
     id="path73" />
  <path
     stroke="none"
     fill="#000000"
     transform="matrix(0.05 0 0 0.05 -10 -11)"
     d="M 6426.5,7760.64 C 6426.5,7760.64 6369.06,7538.88 6369.06,7538.88 C 6369.06,7538.88 6401.37,7566.6 6426.5,7566.6 C 6451.2,7566.6 6482.94,7538.88 6482.94,7538.88 C 6482.94,7538.88 6426.5,7760.64 6426.5,7760.64 C 6426.5,7760.64 6426.5,7760.64 6426.5,7760.64 "
     id="path74" />
  <path
     stroke="#000000"
     stroke-width="1"
     fill="none"
     transform="matrix(0.05 0 0 0.05 -10 -11)"
     d="M 6426.5,7760.64 C 6426.5,7760.64 6369.06,7538.88 6369.06,7538.88 C 6369.06,7538.88 6401.37,7566.6 6426.5,7566.6 C 6451.2,7566.6 6482.94,7538.88 6482.94,7538.88 C 6482.94,7538.88 6426.5,7760.64 6426.5,7760.64 C 6426.5,7760.64 6426.5,7760.64 6426.5,7760.64 "
     id="path75" />
  <text
     x="0"
     y="0"
     stroke="none"
     fill="#000000"
     transform="matrix(0.05 0 0 0.05 127.697 362.057)"
     font-style="normal"
     font-weight="bold"
     font-size="200px"
     font-family="Helvetica"
     id="text75">
HBr</text>
  <path
     stroke="none"
     fill="#000000"
     transform="matrix(0.05 0 0 0.05 -10 -11)"
     d="M 4631.94,7882.83 L 4643.03,7863.62 L 4896.88,8010.7 L 4896.88,8022.98 L 4886.48,8029.28 L 4631.94,7882.83 Z "
     id="path76" />
  <path
     stroke="none"
     fill="#000000"
     transform="matrix(0.05 0 0 0.05 -10 -11)"
     d="M 4907.28,8029.28 L 4896.88,8022.98 L 4896.88,8010.7 L 5156.51,7859.68 L 5156.57,7885.36 L 4907.28,8029.28 Z "
     id="path77" />
  <path
     stroke="none"
     fill="#000000"
     transform="matrix(0.05 0 0 0.05 -10 -11)"
     d="M 4957.86,8064.59 L 4946.78,8045.39 L 5150.73,7927.64 L 5161.82,7946.84 L 4957.86,8064.59 Z "
     id="path78" />
  <path
     stroke="none"
     fill="#000000"
     transform="matrix(0.05 0 0 0.05 -10 -11)"
     d="M 4904.83,6241.6 L 4904.83,5966.59 L 4926.83,5966.59 L 4926.83,6241.6 Z "
     id="path79" />
  <text
     x="0"
     y="0"
     stroke="none"
     fill="#000000"
     transform="matrix(0.05 0 0 0.05 154.033 423.738)"
     font-style="italic"
     font-weight="normal"
     font-size="200px"
     font-family="Helvetica Oblique"
     id="text79">
more sub</text>
  <text
     x="0"
     y="0"
     stroke="none"
     fill="#000000"
     transform="matrix(0.05 0 0 0.05 148.627 361.223)"
     font-style="normal"
     font-weight="bold"
     font-size="160px"
     font-family="Helvetica"
     id="text81">
(HI)</text>
  <text
     x="0"
     y="0"
     stroke="none"
     fill="#000000"
     transform="matrix(0.05 0 0 0.05 214.826 360.483)"
     font-style="normal"
     font-weight="bold"
     font-size="200px"
     font-family="Helvetica"
     id="text82">
HBr</text>
  <text
     x="0"
     y="0"
     stroke="none"
     fill="#000000"
     transform="matrix(0.05 0 0 0.05 204.581 371.649)"
     font-style="normal"
     font-weight="bold"
     font-size="200px"
     font-family="Helvetica"
     id="text83">
ROOR</text>
  <text
     x="0"
     y="0"
     stroke="none"
     fill="#0000ff"
     transform="matrix(0.05 0 0 0.05 257.533 393.388)"
     font-style="normal"
     font-weight="bold"
     font-size="180px"
     font-family="Helvetica"
     id="text84">
Br</text>
  <path
     stroke="none"
     fill="#000000"
     transform="matrix(0.05 0 0 0.05 -10 -11)"
     d="M 5156.57,7885.36 L 5156.51,7859.68 L 5328.09,7959.62 L 5317,7978.82 L 5156.57,7885.36 Z "
     id="path84" />
  <text
     x="0"
     y="0"
     stroke="none"
     fill="#0000ff"
     transform="matrix(0.05 0 0 0.05 181.776 394.201)"
     font-style="normal"
     font-weight="bold"
     font-size="180px"
     font-family="Helvetica"
     id="text85">
H</text>
  <path
     stroke="none"
     fill="#000000"
     transform="matrix(0.05 0 0 0.05 -10 -11)"
     d="M 3641.44,7901.61 L 3641.38,7875.94 L 3812.05,7975.36 L 3800.97,7994.57 L 3641.44,7901.61 Z "
     id="path85" />
  <text
     x="0"
     y="0"
     stroke="none"
     fill="#0000ff"
     transform="matrix(0.05 0 0 0.05 231.594 408.364)"
     font-style="normal"
     font-weight="bold"
     font-size="180px"
     font-family="Helvetica"
     id="text86">
H</text>
  <path
     stroke="none"
     fill="#000000"
     transform="matrix(0.05 0 0 0.05 -10 -11)"
     d="M 4886.48,8029.28 L 4896.88,8022.98 L 4907.28,8029.28 L 4907.97,8226.49 L 4885.79,8226.49 L 4886.48,8029.28 Z "
     id="path86" />
  <text
     x="0"
     y="0"
     stroke="none"
     fill="#000000"
     transform="matrix(0.05 0 0 0.05 232.744 422.234)"
     font-style="italic"
     font-weight="normal"
     font-size="200px"
     font-family="Helvetica Oblique"
     id="text87">
less sub</text>
  <text
     x="0"
     y="0"
     stroke="none"
     fill="#000000"
     transform="matrix(0.05 0 0 0.05 274.261 361.886)"
     font-style="normal"
     font-weight="bold"
     font-size="200px"
     font-family="Helvetica"
     id="text89">
Br</text>
  <text
     x="0"
     y="0"
     stroke="none"
     fill="#000000"
     transform="matrix(0.05 0 0 0.05 285.374 364.185)"
     font-style="normal"
     font-weight="bold"
     font-size="150px"
     font-family="Helvetica"
     id="text90">
2</text>
  <text
     x="0"
     y="0"
     stroke="none"
     fill="#000000"
     transform="matrix(0.05 0 0 0.05 292.215 361.736)"
     font-style="normal"
     font-weight="bold"
     font-size="160px"
     font-family="Helvetica"
     id="text91">
(Cl</text>
  <text
     x="0"
     y="0"
     stroke="none"
     fill="#000000"
     transform="matrix(0.05 0 0 0.05 302.879 363.576)"
     font-style="normal"
     font-weight="bold"
     font-size="120px"
     font-family="Helvetica"
     id="text92">
2</text>
  <text
     x="0"
     y="0"
     stroke="none"
     fill="#000000"
     transform="matrix(0.05 0 0 0.05 306.216 361.736)"
     font-style="normal"
     font-weight="bold"
     font-size="160px"
     font-family="Helvetica"
     id="text93">
)</text>
  <path
     stroke="none"
     fill="#000000"
     transform="matrix(0.05 0 0 0.05 -10 -11)"
     d="M 6013.49,8144.11 L 6024.58,8124.91 L 6278.43,8271.99 L 6278.43,8284.27 L 6268.03,8290.57 L 6013.49,8144.11 Z "
     id="path93" />
  <path
     stroke="none"
     fill="#000000"
     transform="matrix(0.05 0 0 0.05 -10 -11)"
     d="M 6288.83,8290.57 L 6278.43,8284.27 L 6278.43,8271.99 L 6527.67,8128.04 L 6549.28,8141.26 L 6288.83,8290.57 Z "
     id="path94" />
  <path
     stroke="none"
     fill="#000000"
     transform="matrix(0.05 0 0 0.05 -10 -11)"
     d="M 6283.97,8229.86 L 6272.88,8210.65 L 6478.31,8092.05 L 6489.4,8111.26 L 6283.97,8229.86 Z "
     id="path95" />
  <text
     x="0"
     y="0"
     stroke="none"
     fill="#0000ff"
     transform="matrix(0.05 0 0 0.05 314.339 384.005)"
     font-style="normal"
     font-weight="bold"
     font-size="180px"
     font-family="Helvetica"
     id="text95">
Br</text>
  <path
     stroke="none"
     fill="#000000"
     transform="matrix(0.05 0 0 0.05 -10 -11)"
     d="M 6549.28,8141.26 L 6527.67,8128.04 L 6536.3,7929.09 L 6558.45,7930.13 L 6549.28,8141.26 Z "
     id="path96" />
  <text
     x="0"
     y="0"
     stroke="none"
     fill="#0000ff"
     transform="matrix(0.05 0 0 0.05 300.672 421.428)"
     font-style="normal"
     font-weight="bold"
     font-size="180px"
     font-family="Helvetica"
     id="text96">
Br</text>
  <path
     stroke="none"
     fill="#000000"
     transform="matrix(0.05 0 0 0.05 -10 -11)"
     d="M 6268.03,8290.57 L 6278.43,8284.27 L 6288.83,8290.57 L 6289.52,8487.78 L 6267.34,8487.78 L 6268.03,8290.57 Z "
     id="path97" />
  <text
     x="0"
     y="0"
     stroke="none"
     fill="#000000"
     transform="matrix(0.05 0 0 0.05 168.52 269.859)"
     font-style="normal"
     font-weight="bold"
     font-size="200px"
     font-family="Helvetica"
     id="text101">
H</text>
  <text
     x="0"
     y="0"
     stroke="none"
     fill="#000000"
     transform="matrix(0.05 0 0 0.05 175.742 272.159)"
     font-style="normal"
     font-weight="bold"
     font-size="150px"
     font-family="Helvetica"
     id="text102">
2</text>
  <text
     x="0"
     y="0"
     stroke="none"
     fill="#000000"
     transform="matrix(0.05 0 0 0.05 167.756 282.21)"
     font-style="normal"
     font-weight="bold"
     font-size="200px"
     font-family="Helvetica"
     id="text103">
Lindlar’s </text>
  <text
     x="0"
     y="0"
     stroke="none"
     fill="#000000"
     transform="matrix(0.05 0 0 0.05 212.214 282.21)"
     font-style="normal"
     font-weight="bold"
     font-size="200px"
     font-family="Helvetica"
     id="text104">
cat.</text>
  <path
     stroke="none"
     fill="#000000"
     transform="matrix(0.05 0 0 0.05 -10 -11)"
     d="M 2945.26,4798.49 L 2956.34,4779.28 L 3209.74,4926.11 L 3209.74,4938.39 L 3199.34,4944.68 L 2945.26,4798.49 Z "
     id="path104" />
  <path
     stroke="none"
     fill="#000000"
     transform="matrix(0.05 0 0 0.05 -10 -11)"
     d="M 3220.14,4944.68 L 3209.74,4938.39 L 3209.74,4926.11 L 3468.93,4775.34 L 3468.99,4801.02 L 3220.14,4944.68 Z "
     id="path105" />
  <path
     stroke="none"
     fill="#000000"
     transform="matrix(0.05 0 0 0.05 -10 -11)"
     d="M 3270.73,4980 L 3259.64,4960.79 L 3463.14,4843.3 L 3474.23,4862.5 L 3270.73,4980 Z "
     id="path106" />
  <text
     x="0"
     y="0"
     stroke="none"
     fill="#0000ff"
     transform="matrix(0.05 0 0 0.05 147.237 254.134)"
     font-style="normal"
     font-weight="bold"
     font-size="180px"
     font-family="Helvetica"
     id="text106">
H</text>
  <path
     stroke="none"
     fill="#000000"
     transform="matrix(0.05 0 0 0.05 -10 -11)"
     d="M 3199.34,4944.68 L 3209.74,4938.39 L 3220.14,4944.68 L 3220.83,5141.89 L 3198.65,5141.89 L 3199.34,4944.68 Z "
     id="path107" />
  <text
     x="0"
     y="0"
     stroke="none"
     fill="#0000ff"
     transform="matrix(0.05 0 0 0.05 173.154 239.171)"
     font-style="normal"
     font-weight="bold"
     font-size="180px"
     font-family="Helvetica"
     id="text107">
H</text>
  <path
     stroke="none"
     fill="#000000"
     transform="matrix(0.05 0 0 0.05 -10 -11)"
     d="M 3468.99,4801.02 L 3468.93,4775.34 L 3639.61,4874.76 L 3628.52,4893.97 L 3468.99,4801.02 Z "
     id="path108" />
  <path
     stroke="none"
     fill="#000000"
     transform="matrix(0.05 0 0 0.05 -10 -11)"
     d="M 6047.03,4876.17 L 6058.12,4856.97 L 6323.32,5009.49 L 6301.11,5022.37 L 6047.03,4876.17 Z "
     id="path109" />
  <path
     stroke="none"
     fill="#000000"
     transform="matrix(0.05 0 0 0.05 -10 -11)"
     d="M 6289.34,5009.67 L 6278.25,4990.46 L 6564.91,4824.96 L 6576,4844.17 L 6289.34,5009.67 Z "
     id="path110" />
  <path
     stroke="none"
     fill="#000000"
     transform="matrix(0.05 0 0 0.05 -10 -11)"
     d="M 6317.06,5057.68 L 6305.97,5038.48 L 6578.77,4880.97 L 6589.86,4900.18 L 6317.06,5057.68 Z "
     id="path111" />
  <text
     x="0"
     y="0"
     stroke="none"
     fill="#0000ff"
     transform="matrix(0.05 0 0 0.05 302.326 258.018)"
     font-style="normal"
     font-weight="bold"
     font-size="180px"
     font-family="Helvetica"
     id="text111">
H</text>
  <path
     stroke="none"
     fill="#000000"
     transform="matrix(0.05 0 0 0.05 -10 -11)"
     d="M 6301.11,5022.37 L 6323.32,5009.49 L 6322.6,5219.58 L 6300.43,5219.58 L 6301.11,5022.37 Z "
     id="path112" />
  <text
     x="0"
     y="0"
     stroke="none"
     fill="#0000ff"
     transform="matrix(0.05 0 0 0.05 315.273 220.591)"
     font-style="normal"
     font-weight="bold"
     font-size="180px"
     font-family="Helvetica"
     id="text112">
H</text>
  <path
     stroke="none"
     fill="#000000"
     transform="matrix(0.05 0 0 0.05 -10 -11)"
     d="M 6581.54,4866.57 L 6559.37,4866.57 L 6559.37,4661.52 L 6581.54,4661.52 L 6581.54,4866.57 Z "
     id="path113" />
  <text
     x="0"
     y="0"
     stroke="none"
     fill="#000000"
     transform="matrix(0.05 0 0 0.05 282.975 271.251)"
     font-style="normal"
     font-weight="bold"
     font-size="160px"
     font-family="Helvetica"
     id="text113">
or </text>
  <text
     x="0"
     y="0"
     stroke="none"
     fill="#000000"
     transform="matrix(0.05 0 0 0.05 293.197 271.251)"
     font-style="normal"
     font-weight="bold"
     font-size="160px"
     font-family="Helvetica"
     id="text114">
Na</text>
  <text
     x="0"
     y="0"
     stroke="none"
     fill="#000000"
     transform="matrix(0.05 0 0 0.05 285.783 281.899)"
     font-style="normal"
     font-weight="bold"
     font-size="200px"
     font-family="Helvetica"
     id="text115">
NH</text>
  <text
     x="0"
     y="0"
     stroke="none"
     fill="#000000"
     transform="matrix(0.05 0 0 0.05 300.226 284.199)"
     font-style="normal"
     font-weight="bold"
     font-size="150px"
     font-family="Helvetica"
     id="text116">
3</text>
  <text
     x="0"
     y="0"
     stroke="none"
     fill="#000000"
     transform="matrix(0.05 0 0 0.05 124.52 349.303)"
     font-style="normal"
     font-weight="bold"
     font-size="200px"
     font-family="Helvetica"
     id="text117">
1 </text>
  <text
     x="0"
     y="0"
     stroke="none"
     fill="#000000"
     transform="matrix(0.05 0 0 0.05 132.86 349.303)"
     font-style="normal"
     font-weight="bold"
     font-size="200px"
     font-family="Helvetica"
     id="text118">
equiv.</text>
  <text
     x="0"
     y="0"
     stroke="none"
     fill="#000000"
     transform="matrix(0.05 0 0 0.05 197.692 350.038)"
     font-style="normal"
     font-weight="bold"
     font-size="200px"
     font-family="Helvetica"
     id="text119">
1 </text>
  <text
     x="0"
     y="0"
     stroke="none"
     fill="#000000"
     transform="matrix(0.05 0 0 0.05 206.032 350.038)"
     font-style="normal"
     font-weight="bold"
     font-size="200px"
     font-family="Helvetica"
     id="text120">
equiv.</text>
  <text
     x="0"
     y="0"
     stroke="none"
     fill="#000000"
     transform="matrix(0.05 0 0 0.05 269.146 351.575)"
     font-style="normal"
     font-weight="bold"
     font-size="200px"
     font-family="Helvetica"
     id="text121">
1 </text>
  <text
     x="0"
     y="0"
     stroke="none"
     fill="#000000"
     transform="matrix(0.05 0 0 0.05 277.486 351.575)"
     font-style="normal"
     font-weight="bold"
     font-size="200px"
     font-family="Helvetica"
     id="text122">
equiv.</text>
  <path
     stroke="none"
     fill="#000000"
     transform="matrix(0.05 0 0 0.05 -10 -11)"
     d="M 3460.64,5598.06 L 3460.64,5964.46 L 3438.64,5964.46 L 3438.64,5598.06 Z "
     id="path122" />
  <path
     stroke="none"
     fill="#000000"
     transform="matrix(0.05 0 0 0.05 -10 -11)"
     d="M 3449.64,5405.02 C 3449.64,5405.02 3506.08,5626.78 3506.08,5626.78 C 3506.08,5626.78 3474.34,5599.06 3449.64,5599.06 C 3424.51,5599.06 3392.2,5626.78 3392.2,5626.78 C 3392.2,5626.78 3449.64,5405.02 3449.64,5405.02 C 3449.64,5405.02 3449.64,5405.02 3449.64,5405.02 "
     id="path123" />
  <path
     stroke="#000000"
     stroke-width="1"
     fill="none"
     transform="matrix(0.05 0 0 0.05 -10 -11)"
     d="M 3449.64,5405.02 C 3449.64,5405.02 3506.08,5626.78 3506.08,5626.78 C 3506.08,5626.78 3474.34,5599.06 3449.64,5599.06 C 3424.51,5599.06 3392.2,5626.78 3392.2,5626.78 C 3392.2,5626.78 3449.64,5405.02 3449.64,5405.02 C 3449.64,5405.02 3449.64,5405.02 3449.64,5405.02 "
     id="path124" />
  <text
     x="0"
     y="0"
     stroke="none"
     fill="#000000"
     transform="matrix(0.05 0 0 0.05 163.185 252.779)"
     font-style="italic"
     font-weight="normal"
     font-size="160px"
     font-family="Helvetica Oblique"
     id="text124">
syn-hydrogenation</text>
  <text
     x="0"
     y="0"
     stroke="none"
     fill="#000000"
     transform="matrix(0.05 0 0 0.05 270.985 271.038)"
     font-style="normal"
     font-weight="bold"
     font-size="200px"
     font-family="Helvetica"
     id="text125">
Li</text>
  <text
     x="0"
     y="0"
     stroke="none"
     fill="#000000"
     transform="matrix(0.05 0 0 0.05 233.959 252.779)"
     font-style="italic"
     font-weight="normal"
     font-size="160px"
     font-family="Helvetica Oblique"
     id="text126">
anti-hydrogenation</text>
  <text
     x="0"
     y="0"
     stroke="none"
     fill="#000000"
     transform="matrix(0.05 0 0 0.05 292.938 202.547)"
     font-style="italic"
     font-weight="normal"
     font-size="160px"
     font-family="Helvetica Oblique"
     id="text127">
only on</text>
  <text
     x="0"
     y="0"
     stroke="none"
     fill="#000000"
     transform="matrix(0.05 0 0 0.05 292.938 210.897)"
     font-style="italic"
     font-weight="normal"
     font-size="160px"
     font-family="Helvetica Oblique"
     id="text129">
internal</text>
  <path
     stroke="none"
     fill="#000000"
     transform="matrix(0.05 0 0 0.05 -10 -11)"
     d="M 9061.12,2461.64 L 9061.12,1703.14 L 9083.12,1703.14 L 9083.12,2461.64 Z "
     id="path253" />
  <path
     stroke="none"
     fill="#000000"
     transform="matrix(0.05 0 0 0.05 -10 -11)"
     d="M 9072.12,2654.67 C 9072.12,2654.67 9014.68,2432.92 9014.68,2432.92 C 9014.68,2432.92 9046.99,2460.64 9072.12,2460.64 C 9096.81,2460.64 9128.56,2432.92 9128.56,2432.92 C 9128.56,2432.92 9072.12,2654.67 9072.12,2654.67 C 9072.12,2654.67 9072.12,2654.67 9072.12,2654.67 "
     id="path254" />
  <path
     stroke="#000000"
     stroke-width="1"
     fill="none"
     transform="matrix(0.05 0 0 0.05 -10 -11)"
     d="M 9072.12,2654.67 C 9072.12,2654.67 9014.68,2432.92 9014.68,2432.92 C 9014.68,2432.92 9046.99,2460.64 9072.12,2460.64 C 9096.81,2460.64 9128.56,2432.92 9128.56,2432.92 C 9128.56,2432.92 9072.12,2654.67 9072.12,2654.67 C 9072.12,2654.67 9072.12,2654.67 9072.12,2654.67 "
     id="path255" />
  <path
     stroke="none"
     fill="#000000"
     transform="matrix(0.05 0 0 0.05 -10 -11)"
     d="M 9072.12,1714.14 L 7585.86,1703.11 L 7585.86,1681.11 L 9072.12,1692.14 Z "
     id="path256" />
  <path
     stroke="none"
     fill="#000000"
     transform="matrix(0.05 0 0 0.05 -10 -11)"
     d="M 7574.86,2422.01 L 7574.86,1692.11 L 7596.86,1692.11 L 7596.86,2422.01 Z "
     id="path257" />
  <path
     stroke="none"
     fill="#000000"
     transform="matrix(0.05 0 0 0.05 -10 -11)"
     d="M 7585.86,2615.05 C 7585.86,2615.05 7528.42,2393.29 7528.42,2393.29 C 7528.42,2393.29 7560.73,2421.01 7585.86,2421.01 C 7610.55,2421.01 7642.3,2393.29 7642.3,2393.29 C 7642.3,2393.29 7585.86,2615.05 7585.86,2615.05 C 7585.86,2615.05 7585.86,2615.05 7585.86,2615.05 "
     id="path258" />
  <path
     stroke="#000000"
     stroke-width="1"
     fill="none"
     transform="matrix(0.05 0 0 0.05 -10 -11)"
     d="M 7585.86,2615.05 C 7585.86,2615.05 7528.42,2393.29 7528.42,2393.29 C 7528.42,2393.29 7560.73,2421.01 7585.86,2421.01 C 7610.55,2421.01 7642.3,2393.29 7642.3,2393.29 C 7642.3,2393.29 7585.86,2615.05 7585.86,2615.05 C 7585.86,2615.05 7585.86,2615.05 7585.86,2615.05 "
     id="path259" />
  <text
     x="0"
     y="0"
     stroke="none"
     fill="#000000"
     transform="matrix(0.05 0 0 0.05 356.915 171.075)"
     font-style="italic"
     font-weight="normal"
     font-size="160px"
     font-family="Helvetica Oblique"
     id="text259">
more sub</text>
  <text
     x="0"
     y="0"
     stroke="none"
     fill="#000000"
     transform="matrix(0.05 0 0 0.05 435.028 171.075)"
     font-style="italic"
     font-weight="normal"
     font-size="160px"
     font-family="Helvetica Oblique"
     id="text261">
less sub</text>
  <path
     stroke="none"
     fill="#000000"
     transform="matrix(0.05 0 0 0.05 -10 -11)"
     d="M 8357.75,1695.52 L 8357.75,1255.95 L 8379.75,1255.95 L 8379.75,1695.52 Z "
     id="path262" />
  <text
     x="0"
     y="0"
     stroke="none"
     fill="#999999"
     transform="matrix(0.05 0 0 0.05 434.265 157.006)"
     font-style="normal"
     font-weight="normal"
     font-size="160px"
     font-family="Helvetica"
     id="text263">
Hofmann</text>
  <text
     x="0"
     y="0"
     stroke="none"
     fill="#999999"
     transform="matrix(0.05 0 0 0.05 359.19 157.006)"
     font-style="normal"
     font-weight="normal"
     font-size="160px"
     font-family="Helvetica"
     id="text264">
Zaitsev</text>
  <text
     x="0"
     y="0"
     stroke="none"
     fill="#000000"
     transform="matrix(0.05 0 0 0.05 313.806 87.4942)"
     font-style="normal"
     font-weight="bold"
     font-size="150px"
     font-family="Helvetica"
     id="text265">
-</text>
  <text
     x="0"
     y="0"
     stroke="none"
     fill="#000000"
     transform="matrix(0.05 0 0 0.05 316.303 91.0928)"
     font-style="normal"
     font-weight="bold"
     font-size="200px"
     font-family="Helvetica"
     id="text266">
OH,</text>
  <text
     x="0"
     y="0"
     stroke="none"
     fill="#000000"
     transform="matrix(0.05 0 0 0.05 334.082 87.4942)"
     font-style="normal"
     font-weight="bold"
     font-size="150px"
     font-family="Helvetica"
     id="text267">
-</text>
  <text
     x="0"
     y="0"
     stroke="none"
     fill="#000000"
     transform="matrix(0.05 0 0 0.05 336.579 91.0928)"
     font-style="normal"
     font-weight="bold"
     font-size="200px"
     font-family="Helvetica"
     id="text268">
OCH</text>
  <text
     x="0"
     y="0"
     stroke="none"
     fill="#000000"
     transform="matrix(0.05 0 0 0.05 358.801 93.3926)"
     font-style="normal"
     font-weight="bold"
     font-size="150px"
     font-family="Helvetica"
     id="text269">
3</text>
  <path
     stroke="none"
     fill="#000000"
     transform="matrix(0.05 0 0 0.05 -10 -11)"
     d="M 7452.24,2809.01 L 7463.33,2789.81 L 7736.58,2947.57 L 7725.49,2966.78 L 7452.24,2809.01 Z "
     id="path269" />
  <path
     stroke="none"
     fill="#000000"
     transform="matrix(0.05 0 0 0.05 -10 -11)"
     d="M 7410.66,2849.02 L 7421.75,2829.82 L 7695,2987.58 L 7683.91,3006.79 L 7410.66,2849.02 Z "
     id="path270" />
  <path
     stroke="none"
     fill="#000000"
     transform="matrix(0.05 0 0 0.05 -10 -11)"
     d="M 7190.07,2982.78 L 7178.99,2963.58 L 7438.38,2813.82 L 7449.47,2833.02 L 7190.07,2982.78 Z "
     id="path271" />
  <text
     x="0"
     y="0"
     stroke="none"
     fill="#000000"
     transform="matrix(0.05 0 0 0.05 413.936 94.2771)"
     font-style="normal"
     font-weight="bold"
     font-size="150px"
     font-family="Helvetica"
     id="text271">
-</text>
  <text
     x="0"
     y="0"
     stroke="none"
     fill="#000000"
     transform="matrix(0.05 0 0 0.05 416.434 97.8758)"
     font-style="normal"
     font-weight="bold"
     font-size="200px"
     font-family="Helvetica"
     id="text272">
O</text>
  <text
     x="0"
     y="0"
     stroke="none"
     fill="#000000"
     transform="matrix(0.05 0 0 0.05 424.212 94.2771)"
     font-style="normal"
     font-weight="bold"
     font-size="150px"
     font-family="Helvetica"
     id="text273">
t</text>
  <text
     x="0"
     y="0"
     stroke="none"
     fill="#000000"
     transform="matrix(0.05 0 0 0.05 426.71 97.8758)"
     font-style="normal"
     font-weight="bold"
     font-size="200px"
     font-family="Helvetica"
     id="text274">
Bu</text>
  <text
     x="0"
     y="0"
     stroke="none"
     fill="#000000"
     transform="matrix(0.05 0 0 0.05 315.25 102.415)"
     font-style="normal"
     font-weight="bold"
     font-size="200px"
     font-family="Helvetica"
     id="text275">
DBU, </text>
  <text
     x="0"
     y="0"
     stroke="none"
     fill="#000000"
     transform="matrix(0.05 0 0 0.05 342.471 102.415)"
     font-style="normal"
     font-weight="bold"
     font-size="200px"
     font-family="Helvetica"
     id="text276">
NaH</text>
  <text
     x="0"
     y="0"
     stroke="none"
     fill="#000000"
     transform="matrix(0.05 0 0 0.05 340.775 113.79)"
     font-style="normal"
     font-weight="bold"
     font-size="200px"
     font-family="Helvetica"
     id="text278">
heat</text>
  <path
     stroke="none"
     fill="#000000"
     transform="matrix(0.05 0 0 0.05 -10 -11)"
     d="M 9370.99,2932.3 L 9370.99,2957.95 L 9106.06,2804.42 L 9117.15,2785.22 L 9370.99,2932.3 Z "
     id="path279" />
  <path
     stroke="none"
     fill="#000000"
     transform="matrix(0.05 0 0 0.05 -10 -11)"
     d="M 9133.78,2801.22 L 9144.87,2820.42 L 8871.61,2978.19 L 8860.53,2958.98 L 9133.78,2801.22 Z "
     id="path280" />
  <path
     stroke="none"
     fill="#000000"
     transform="matrix(0.05 0 0 0.05 -10 -11)"
     d="M 9092.2,2761.21 L 9103.29,2780.41 L 8843.89,2930.17 L 8832.81,2910.97 L 9092.2,2761.21 Z "
     id="path281" />
  <text
     x="0"
     y="0"
     stroke="none"
     fill="#000000"
     transform="matrix(0.05 0 0 0.05 303.031 79.5518)"
     font-style="italic"
     font-weight="normal"
     font-size="200px"
     font-family="Helvetica Oblique"
     id="text281">
base options:</text>
  <text
     x="0"
     y="0"
     stroke="none"
     fill="#000000"
     transform="matrix(0.05 0 0 0.05 496.938 265.905)"
     font-style="normal"
     font-weight="bold"
     font-size="160px"
     font-family="Helvetica"
     id="text288" />
  <path
     stroke="none"
     fill="#000000"
     transform="matrix(0.05 0 0 0.05 -10 -11)"
     d="M 9370.99,2957.95 L 9370.99,2932.3 L 9624.84,2785.22 L 9635.93,2804.42 L 9370.99,2957.95 Z "
     id="path308" />
  <path
     stroke="none"
     fill="#000000"
     transform="matrix(0.05 0 0 0.05 -10 -11)"
     d="M 7708.86,2982.78 L 7697.77,2963.58 L 7957.16,2813.82 L 7968.25,2833.02 L 7708.86,2982.78 Z "
     id="path309" />
  <path
     stroke="none"
     fill="#000000"
     transform="matrix(0.05 0 0 0.05 -10 -11)"
     d="M 5895.15,2381.06 L 5895.15,1307.82 L 5917.15,1307.82 L 5917.15,2381.06 Z "
     id="path330" />
  <path
     stroke="none"
     fill="#000000"
     transform="matrix(0.05 0 0 0.05 -10 -11)"
     d="M 5906.15,2574.1 C 5906.15,2574.1 5848.71,2352.34 5848.71,2352.34 C 5848.71,2352.34 5881.02,2380.06 5906.15,2380.06 C 5930.84,2380.06 5962.59,2352.34 5962.59,2352.34 C 5962.59,2352.34 5906.15,2574.1 5906.15,2574.1 C 5906.15,2574.1 5906.15,2574.1 5906.15,2574.1 "
     id="path331" />
  <path
     stroke="#000000"
     stroke-width="1"
     fill="none"
     transform="matrix(0.05 0 0 0.05 -10 -11)"
     d="M 5906.15,2574.1 C 5906.15,2574.1 5848.71,2352.34 5848.71,2352.34 C 5848.71,2352.34 5881.02,2380.06 5906.15,2380.06 C 5930.84,2380.06 5962.59,2352.34 5962.59,2352.34 C 5962.59,2352.34 5906.15,2574.1 5906.15,2574.1 C 5906.15,2574.1 5906.15,2574.1 5906.15,2574.1 "
     id="path332" />
  <text
     x="0"
     y="0"
     stroke="none"
     fill="#000000"
     transform="matrix(0.05 0 0 0.05 265.171 171.075)"
     font-style="italic"
     font-weight="normal"
     font-size="160px"
     font-family="Helvetica Oblique"
     id="text333">
more sub</text>
  <text
     x="0"
     y="0"
     stroke="none"
     fill="#999999"
     transform="matrix(0.05 0 0 0.05 267.446 157.006)"
     font-style="normal"
     font-weight="normal"
     font-size="160px"
     font-family="Helvetica"
     id="text335">
Zaitsev</text>
  <path
     stroke="none"
     fill="#000000"
     transform="matrix(0.05 0 0 0.05 -10 -11)"
     d="M 5752.72,2778.93 L 5763.81,2759.73 L 6037.06,2917.49 L 6025.97,2936.7 L 5752.72,2778.93 Z "
     id="path335" />
  <path
     stroke="none"
     fill="#000000"
     transform="matrix(0.05 0 0 0.05 -10 -11)"
     d="M 5711.14,2818.94 L 5722.23,2799.74 L 5995.48,2957.5 L 5984.39,2976.71 L 5711.14,2818.94 Z "
     id="path336" />
  <path
     stroke="none"
     fill="#000000"
     transform="matrix(0.05 0 0 0.05 -10 -11)"
     d="M 5490.55,2952.7 L 5479.47,2933.5 L 5738.86,2783.74 L 5749.95,2802.94 L 5490.55,2952.7 Z "
     id="path337" />
  <path
     stroke="none"
     fill="#000000"
     transform="matrix(0.05 0 0 0.05 -10 -11)"
     d="M 6009.34,2952.7 L 5998.25,2933.5 L 6257.64,2783.74 L 6268.73,2802.94 L 6009.34,2952.7 Z "
     id="path338" />
  <path
     stroke="#000000"
     stroke-width="22"
     fill="none"
     transform="matrix(0.05 0 0 0.05 -10 -11)"
     stroke-dasharray="53"
     d="M 4135,3732.22 C 4135,3732.22 4135,553.175 4135,553.175 C 4135,479.733 4194.61,420.12 4268.06,420.12 C 4268.06,420.12 14139.9,420.12 14139.9,420.12 C 14213.3,420.12 14273,479.733 14273,553.175 C 14273,553.175 14273,3732.22 14273,3732.22 C 14273,3805.67 14213.3,3865.28 14139.9,3865.28 C 14139.9,3865.28 4268.06,3865.28 4268.06,3865.28 C 4194.61,3865.28 4135,3805.67 4135,3732.22 "
     id="path339" />
  <path
     stroke="none"
     fill="#000000"
     transform="matrix(0.05 0 0 0.05 -10 -11)"
     d="M 4953.42,6991.73 L 4953.42,6768 L 4975.42,6768 L 4975.42,6991.73 Z "
     id="path356" />
  <path
     stroke="none"
     fill="#000000"
     transform="matrix(0.05 0 0 0.05 -10 -11)"
     d="M 6376.8,5975.46 L 3449.64,5975.46 L 3449.64,5953.46 L 6376.8,5953.46 Z "
     id="path357" />
  <path
     stroke="none"
     fill="#000000"
     transform="matrix(0.05 0 0 0.05 -10 -11)"
     d="M 6393.44,5598.06 L 6393.44,5964.46 L 6371.44,5964.46 L 6371.44,5598.06 Z "
     id="path358" />
  <path
     stroke="none"
     fill="#000000"
     transform="matrix(0.05 0 0 0.05 -10 -11)"
     d="M 6382.44,5405.02 C 6382.44,5405.02 6438.88,5626.78 6438.88,5626.78 C 6438.88,5626.78 6407.14,5599.06 6382.44,5599.06 C 6357.31,5599.06 6325,5626.78 6325,5626.78 C 6325,5626.78 6382.44,5405.02 6382.44,5405.02 C 6382.44,5405.02 6382.44,5405.02 6382.44,5405.02 "
     id="path359" />
  <path
     stroke="#000000"
     stroke-width="1"
     fill="none"
     transform="matrix(0.05 0 0 0.05 -10 -11)"
     d="M 6382.44,5405.02 C 6382.44,5405.02 6438.88,5626.78 6438.88,5626.78 C 6438.88,5626.78 6407.14,5599.06 6382.44,5599.06 C 6357.31,5599.06 6325,5626.78 6325,5626.78 C 6325,5626.78 6382.44,5405.02 6382.44,5405.02 C 6382.44,5405.02 6382.44,5405.02 6382.44,5405.02 "
     id="path360" />
  <path
     stroke="#000000"
     stroke-width="22"
     fill="none"
     transform="matrix(0.05 0 0 0.05 -10 -11)"
     stroke-dasharray="53"
     d="M 540.44,6619.9 C 540.44,6619.9 540.44,4192.86 540.44,4192.86 C 540.44,4119.41 600.053,4059.8 673.495,4059.8 C 673.495,4059.8 6634.94,4059.8 6634.94,4059.8 C 6708.39,4059.8 6768,4119.41 6768,4192.86 C 6768,4192.86 6768,6619.9 6768,6619.9 C 6768,6693.35 6708.39,6752.96 6634.94,6752.96 C 6634.94,6752.96 673.495,6752.96 673.495,6752.96 C 600.053,6752.96 540.44,6693.35 540.44,6619.9 "
     id="path364" />
  <path
     stroke="#000000"
     stroke-width="22"
     fill="none"
     transform="matrix(0.05 0 0 0.05 -10 -11)"
     stroke-dasharray="53"
     d="M 2526.72,9029.4 C 2526.72,9029.4 2526.72,6952.46 2526.72,6952.46 C 2526.72,6879.02 2586.33,6819.4 2659.78,6819.4 C 2659.78,6819.4 6634.94,6819.4 6634.94,6819.4 C 6708.39,6819.4 6768,6879.02 6768,6952.46 C 6768,6952.46 6768,9029.4 6768,9029.4 C 6768,9102.84 6708.39,9162.45 6634.94,9162.45 C 6634.94,9162.45 2659.78,9162.45 2659.78,9162.45 C 2586.33,9162.45 2526.72,9102.84 2526.72,9029.4 "
     id="path367" />
  <text
     x="0"
     y="0"
     stroke="none"
     fill="#000000"
     transform="matrix(0.05 0 0 0.05 120.787 440.291)"
     font-style="italic"
     font-weight="normal"
     font-size="200px"
     font-family="Helvetica Oblique"
     id="text368">
addition </text>
  <text
     x="0"
     y="0"
     stroke="none"
     fill="#000000"
     transform="matrix(0.05 0 0 0.05 158.594 440.291)"
     font-style="italic"
     font-weight="normal"
     font-size="200px"
     font-family="Helvetica Oblique"
     id="text369">
of </text>
  <text
     x="0"
     y="0"
     stroke="none"
     fill="#000000"
     transform="matrix(0.05 0 0 0.05 169.712 440.291)"
     font-style="italic"
     font-weight="normal"
     font-size="200px"
     font-family="Helvetica Oblique"
     id="text370">
HBr </text>
  <text
     x="0"
     y="0"
     stroke="none"
     fill="#000000"
     transform="matrix(0.05 0 0 0.05 189.712 440.291)"
     font-style="italic"
     font-weight="normal"
     font-size="200px"
     font-family="Helvetica Oblique"
     id="text371">
and </text>
  <text
     x="0"
     y="0"
     stroke="none"
     fill="#000000"
     transform="matrix(0.05 0 0 0.05 209.175 440.291)"
     font-style="italic"
     font-weight="normal"
     font-size="200px"
     font-family="Helvetica Oblique"
     id="text372">
Br</text>
  <text
     x="0"
     y="0"
     stroke="none"
     fill="#000000"
     transform="matrix(0.05 0 0 0.05 219.175 442.591)"
     font-style="italic"
     font-weight="normal"
     font-size="150px"
     font-family="Helvetica Oblique"
     id="text373">
2</text>
  <path
     stroke="none"
     fill="#ffffff"
     opacity="0"
     onclick="window.location.href = 'toalcohols-o1.svg'"
     transform="matrix(0.05 0 0 0.05 -10 -11)"
     d="M 6407.04,466.24 C 6407.04,466.24 6407.04,1277.4 6407.04,1277.4 C 6407.04,1277.4 5309.12,1277.4 5309.12,1277.4 C 5309.12,1277.4 5309.12,466.24 5309.12,466.24 C 5309.12,466.24 6407.04,466.24 6407.04,466.24 "
     id="path1"
     inkscape:label="l-toalcohols" />
  <path
     stroke="none"
     fill="#ffffff"
     opacity="0"
     onclick="window.location.href = 'tohalides-o1.svg'"
     transform="matrix(0.05 0 0 0.05 -10 -11)"
     d="M 9054.08,451.2 C 9054.08,451.2 9054.08,1202.2 9054.08,1202.2 C 9054.08,1202.2 7910.04,1202.2 7910.04,1202.2 C 7910.04,1202.2 7910.04,451.2 7910.04,451.2 C 7910.04,451.2 9054.08,451.2 9054.08,451.2 "
     id="path3"
     inkscape:label="l-tohalides" />
  <path
     stroke="none"
     fill="#ffffff"
     opacity="0"
     onclick="window.location.href = 'toalkynes-o1.svg'"
     transform="matrix(0.05 0 0 0.05 -10 -11)"
     d="M 5354.24,6662.72 C 5354.24,6662.72 5354.24,6330.84 5354.24,6330.84 C 5354.24,6330.84 4345.56,6330.84 4345.56,6330.84 C 4345.56,6330.84 4345.56,6662.72 4345.56,6662.72 C 4345.56,6662.72 5354.24,6662.72 5354.24,6662.72 "
     id="path11"
     inkscape:label="l-toalkynes" />
  <path
     stroke="none"
     fill="#ffffff"
     opacity="0"
     onclick="window.location.href = 'toalkenes-o1.svg'"
     d="m 695.51063,176.86938 c 0,0 0,-56.14187 0,-56.14187 0,0 -450.25396,0 -450.25396,0 0,0 0,56.14187 0,56.14187 0,0 450.25396,0 450.25396,0"
     id="path25-7-6"
     inkscape:label="l-toalkenes"
     style="opacity:0;stroke-width:0.200507" />
  <path
     stroke="none"
     fill="#ffffff"
     opacity="0"
     onclick="window.location.href = 'toalkenes-o1.svg'"
     d="m 325.32865,425.74274 c 0,0 0,-50.6686 0,-50.6686 0,0 -190.66419,0 -190.66419,0 0,0 0,50.6686 0,50.6686 0,0 190.66419,0 190.66419,0"
     id="path25-7-21"
     inkscape:label="l-toalkenes"
     style="opacity:0;stroke-width:0.123955" />
  <path
     stroke="none"
     fill="#ffffff"
     opacity="0"
     onclick="window.location.href = 'toalkenes-o1.svg'"
     d="m 325.48655,258.36769 c 0,0 0,-61.61515 0,-61.61515 0,0 -191.44609,0 -191.44609,0 0,0 0,61.61515 0,61.61515 0,0 191.44609,0 191.44609,0"
     id="path25-7-3"
     inkscape:label="l-toalkenes"
     style="opacity:0;stroke-width:0.13697" />
  <path
     stroke="none"
     fill="#ffffff"
     opacity="0"
     onclick="window.location.href = 'supplement-o1.svg'"
     d="m 231.40902,287.0841 c 0,0 0,-27.99358 0,-27.99358 0,0 -65.56069,0 -65.56069,0 0,0 0,27.99358 0,27.99358 0,0 65.56069,0 65.56069,0"
     id="path25-7-25-2-0"
     inkscape:label="l-supplement"
     style="opacity:0;stroke-width:0.0540266" />
  <path
     stroke="none"
     fill="#ffffff"
     opacity="0"
     onclick="window.location.href = 'supplement-o1.svg'"
     d="m 306.8202,285.3022 c 0,0 0,-25.64789 0,-25.64789 0,0 -38.1943,0 -38.1943,0 0,0 0,25.64789 0,25.64789 0,0 38.1943,0 38.1943,0"
     id="path25-7-25-2-0-2"
     inkscape:label="l-supplement"
     style="opacity:0;stroke-width:0.0394713" />
  <path
     stroke="none"
     fill="#ffffff"
     opacity="0"
     onclick="window.location.href = 'supplement-o1.svg'"
     d="m 162.74078,367.38067 c 0,0 0,-27.99358 0,-27.99358 0,0 -40.53999,0 -40.53999,0 0,0 0,27.99358 0,27.99358 0,0 40.53999,0 40.53999,0"
     id="path25-7-25-2-0-5"
     inkscape:label="l-supplement"
     style="opacity:0;stroke-width:0.0424842" />
  <path
     stroke="none"
     fill="#ffffff"
     opacity="0"
     onclick="window.location.href = 'supplement-o1.svg'"
     d="m 236.91071,375.15824 c 0,0 0,-34.24876 0,-34.24876 0,0 -42.10378,0 -42.10378,0 0,0 0,34.24876 0,34.24876 0,0 42.10378,0 42.10378,0"
     id="path25-7-25-2-0-8"
     inkscape:label="l-supplement"
     style="opacity:0;stroke-width:0.0478894" />
  <path
     stroke="none"
     fill="#ffffff"
     opacity="0"
     onclick="window.location.href = 'supplement-o1.svg'"
     d="m 311.18226,364.70133 c 0,0 0,-20.95651 0,-20.95651 0,0 -45.23137,0 -45.23137,0 0,0 0,20.95651 0,20.95651 0,0 45.23137,0 45.23137,0"
     id="path25-7-25-2-0-25"
     inkscape:label="l-supplement"
     style="opacity:0;stroke-width:0.0388272" />
  <path
     stroke="none"
     fill="#ffffff"
     opacity="0"
     onclick="window.location.href = 'supplement-o1.svg'"
     d="m 281.05711,95.465912 c 0,0 0,-31.903064 0,-31.903064 0,0 -60.86931,0 -60.86931,0 0,0 0,31.903064 0,31.903064 0,0 60.86931,0 60.86931,0"
     id="path25-7-25-2-0-67"
     inkscape:label="l-supplement"
     style="opacity:0;stroke-width:0.055574" />
  <path
     stroke="none"
     fill="#ffffff"
     opacity="0"
     onclick="window.location.href = 'supplement-o1.svg'"
     d="m 365.6926,117.81255 c 0,0 0,-49.104797 0,-49.104797 0,0 -63.99689,0 -63.99689,0 0,0 0,49.104797 0,49.104797 0,0 63.99689,0 63.99689,0"
     id="path25-7-25-2-0-85"
     inkscape:label="l-supplement"
     style="opacity:0;stroke-width:0.0706965" />
  <path
     stroke="none"
     fill="#ffffff"
     opacity="0"
     onclick="window.location.href = 'supplement-o1.svg'"
     d="m 441.21933,105.19098 c 0,0 0,-20.174609 0,-20.174609 0,0 -32.72102,0 -32.72102,0 0,0 0,20.174609 0,20.174609 0,0 32.72102,0 32.72102,0"
     id="path25-7-25-2-0-84"
     inkscape:label="l-supplement"
     style="opacity:0;stroke-width:0.0324021" />
  <g
     id="nostructures"
     onclick="window.location.href = 'toalkenes-o1.svg'"
     transform="matrix(0.87844457,0,0,1,-3.2995176,381.05692)">
    <text
       x="18.000504"
       y="55.14151"
       stroke="none"
       fill="#000000"
       font-style="normal"
       font-weight="bold"
       font-size="200px"
       font-family="Helvetica"
       id="gobacktext-7"
       style="font-style:normal;font-variant:normal;font-weight:bold;font-stretch:normal;font-size:10px;font-family:Helvetica;-inkscape-font-specification:'Helvetica, Bold';font-variant-ligatures:normal;font-variant-caps:normal;font-variant-numeric:normal;font-variant-east-asian:normal;fill:#0088d0;fill-opacity:0.68;stroke:none;stroke-width:0.05"
       inkscape:label="noreagents-text"><tspan
         sodipodi:role="line"
         id="tspan1"
         x="18.000504"
         y="55.14151">show</tspan></text>
    <path
       stroke="none"
       fill="#999999"
       d="m 9.795,54.694678 c 0,0 0,-5.427567 0,-5.427567 0,-2.098514 1.679048,-3.801611 3.747601,-3.801611 0,0 35.119514,0 35.119514,0 2.068778,0 3.747742,1.703097 3.747742,3.801611 0,0 0,5.427567 0,5.427567 0,2.098514 -1.678964,3.801611 -3.747742,3.801611 0,0 -35.119514,0 -35.119514,0 -2.068553,0 -3.747601,-1.703097 -3.747601,-3.801611"
       id="goback-box-8"
       style="fill:#999999;fill-opacity:0.336842;stroke-width:0.0283675"
       inkscape:label="noreagents-box" />
  </g>
  <g
     id="noreagents"
     onclick="window.location.href = 'toalkenes-noreagents-o1.svg'"
     transform="translate(-4.6856272,382.9067)">
    <text
       x="11.541888"
       y="67.610527"
       stroke="none"
       fill="#000000"
       font-style="normal"
       font-weight="bold"
       font-size="200px"
       font-family="Helvetica"
       id="gobacktext-7-8"
       style="font-style:normal;font-weight:bold;font-size:10px;font-family:Helvetica;fill:#000000;fill-opacity:0.443609;stroke:none;stroke-width:0.05"
       inkscape:label="noproducts-text"><tspan
         sodipodi:role="line"
         id="tspan2-5"
         x="11.541888"
         y="67.610527"
         style="font-style:normal;font-variant:normal;font-weight:bold;font-stretch:normal;font-size:8px;font-family:Helvetica;-inkscape-font-specification:'Helvetica, Bold';font-variant-ligatures:normal;font-variant-caps:normal;font-variant-numeric:normal;font-variant-east-asian:normal;fill:#000000;fill-opacity:0.5;stroke-width:0.05">reagents</tspan></text>
    <rect
       style="fill:#000000;fill-opacity:0.821053;fill-rule:evenodd;stroke:#a13033;stroke-width:0;stroke-linecap:round;stroke-miterlimit:2;stroke-dasharray:none;paint-order:markers fill stroke"
       id="rect3-9"
       width="31.666824"
       height="0.9773711"
       x="12.566371"
       y="64.987999"
       inkscape:label="noproducts-line" />
    <path
       stroke="none"
       fill="#999999"
       d="m 10.136392,68.163695 c 0,0 0,-5.427567 0,-5.427567 0,-2.098514 1.463398,-3.801611 3.266274,-3.801611 0,0 30.608907,0 30.608907,0 1.803073,0 3.266397,1.703097 3.266397,3.801611 0,0 0,5.427567 0,5.427567 0,2.098514 -1.463324,3.801611 -3.266397,3.801611 0,0 -30.608907,0 -30.608907,0 -1.802876,0 -3.266274,-1.703097 -3.266274,-3.801611"
       id="goback-box-8-6"
       style="fill:#999999;fill-opacity:0.336842;stroke-width:0.0264832"
       inkscape:label="noproducts-box" />
  </g>
  <text
     x="822.84332"
     y="415.79849"
     stroke="none"
     fill="#000000"
     transform="matrix(0.92407999,-0.00322566,0.00377741,1.0821442,0,0)"
     font-style="italic"
     font-weight="bold"
     font-size="8.25806px"
     font-family="'Helvetica Oblique'"
     id="text11"
     style="opacity:1;fill:#00009a;fill-opacity:0.651128;stroke-width:0.0412903">chemisfun</text>
  <g
     id="overlay-box"
     style="opacity:0"
     transform="matrix(0.31364504,0,0,0.8007311,650.50736,385.81436)">
    <rect
       style="fill:#609975;fill-opacity:0.2;stroke:#609970;stroke-width:0;stroke-linecap:round;stroke-opacity:0.657143;paint-order:fill markers stroke"
       id="rect285"
       width="164.84744"
       height="59.583412"
       x="329.69489"
       y="23.171328" />
  </g>
  <g
     id="overlay"
     onclick="window.location.href = 'about.svg'"
     onmouseover="this.ownerDocument.getElementById('overlay-box').style.opacity='0.5'"
     onmouseout="this.ownerDocument.getElementById('overlay-box').style.opacity='0'"
     transform="matrix(0.76550767,-0.0030054,0.00267214,0.86098131,195.61318,22.784653)">
    <rect
       style="opacity:0.5;fill:#ffffff;fill-opacity:0;stroke-linecap:round;stroke-opacity:0.657143;paint-order:stroke fill markers"
       id="rect2"
       width="65.93074"
       height="55.035408"
       x="733.06049"
       y="445.87061" />
  </g>
  <g
     id="g1"
     transform="matrix(0.0625,0,0,0.0625,764.65732,406.62566)">
    <rect
       x="239.31"
       y="120.321"
       style="fill:#444242"
       width="33.389"
       height="139.98"
       id="rect1" />
    <rect
       x="256"
       y="120.321"
       style="fill:#3a3839"
       width="16.695"
       height="139.98"
       id="rect2-2" />
    <rect
       x="132.194"
       y="305.86301"
       transform="matrix(0.5,0.866,-0.866,0.5,399.932,58.9793)"
       style="fill:#444242"
       width="33.387001"
       height="139.967"
       id="rect4" />
    <rect
       x="293.125"
       y="359.13"
       transform="matrix(0.866,0.5,-0.5,0.866,236.5654,-131.205)"
       style="fill:#3a3839"
       width="139.967"
       height="33.387001"
       id="rect5" />
    <path
       style="background-color:#ffffff00;fill:#439de2;fill-opacity:1"
       d="m 456.843,485.07 c -9.538,0 -18.951,-2.501 -27.432,-7.398 v 0 c -12.733,-7.351 -21.842,-19.221 -25.646,-33.424 -3.805,-14.201 -1.853,-29.035 5.499,-41.769 7.351,-12.732 19.221,-21.841 33.424,-25.646 14.201,-3.806 29.034,-1.853 41.769,5.499 12.732,7.351 21.841,19.221 25.646,33.424 3.805,14.202 1.853,29.035 -5.499,41.769 -7.351,12.733 -19.221,21.842 -33.424,25.646 -4.742,1.27 -9.557,1.899 -14.337,1.899 z"
       id="path7-3" />
    <path
       style="background-color:#ffffff00;fill:#eda74a;fill-opacity:1"
       d="m 256.001,137.021 c -30.352,0 -55.044,-24.693 -55.044,-55.044 0,-30.351 24.693,-55.044 55.044,-55.044 30.351,0 55.044,24.693 55.044,55.044 0,30.351 -24.693,55.044 -55.044,55.044 z"
       id="path5-4" />
    <path
       style="background-color:#ffffff00;fill:#53acb1;fill-opacity:1"
       d="m 55.158,485.07 c -4.781,0 -9.594,-0.629 -14.336,-1.9 C 26.619,479.365 14.75,470.256 7.398,457.524 0.046,444.792 -1.906,429.957 1.899,415.755 c 3.805,-14.203 12.914,-26.072 25.646,-33.424 12.731,-7.352 27.567,-9.304 41.769,-5.499 14.203,3.805 26.072,12.914 33.424,25.646 7.352,12.732 9.304,27.567 5.499,41.769 -3.805,14.203 -12.914,26.072 -25.646,33.424 -8.481,4.897 -17.896,7.399 -27.433,7.399 z"
       id="path6-7" />
    <path
       style="fill:#f74d37"
       d="m 256.001,384.379 c -38.81,0 -70.384,-31.575 -70.384,-70.384 0,-38.809 31.575,-70.384 70.384,-70.384 38.809,0 70.384,31.575 70.384,70.384 0,38.809 -31.575,70.384 -70.384,70.384 z"
       id="path4-9" />
  </g>
</svg>
