<?xml version="1.0" encoding="UTF-8" standalone="no"?>
<svg
   width="100%"
   height="100%"
   viewBox="0 0 818 460"
   style="background-color: #ffffff00"
   version="1.1"
   id="svg122"
   sodipodi:docname="toalkanes-noreactants-o1.svg"
   inkscape:version="1.4.2 (ebf0e940, 2025-05-08)"
   xmlns:inkscape="http://www.inkscape.org/namespaces/inkscape"
   xmlns:sodipodi="http://sodipodi.sourceforge.net/DTD/sodipodi-0.dtd"
   xmlns="http://www.w3.org/2000/svg"
   xmlns:svg="http://www.w3.org/2000/svg">
  <path
     stroke="#ffffff"
     stroke-width="1"
     fill="none"
     transform="matrix(0.05 0 0 0.05 -10 -11)"
     d="M 10095.8,8508.5 C 10095.8,8508.5 10095.8,7635.2 10095.8,7635.2 C 10095.8,7635.2 9079.5,7635.2 9079.5,7635.2 C 9079.5,7635.2 9079.5,8508.5 9079.5,8508.5 C 9079.5,8508.5 10095.8,8508.5 10095.8,8508.5 "
     id="path4" />
  <path
     stroke="none"
     fill="#ffffff"
     transform="matrix(0.05 0 0 0.05 -10 -11)"
     d="M 9466.6,7335.9 C 9466.6,7335.9 9466.6,6405.4 9466.6,6405.4 C 9466.6,6405.4 8536.1,6405.4 8536.1,6405.4 C 8536.1,6405.4 8536.1,7335.9 8536.1,7335.9 C 8536.1,7335.9 9466.6,7335.9 9466.6,7335.9 "
     id="path5" />
  <path
     stroke="#ffffff"
     stroke-width="1"
     fill="none"
     transform="matrix(0.05 0 0 0.05 -10 -11)"
     d="M 9466.6,7335.9 C 9466.6,7335.9 9466.6,6405.4 9466.6,6405.4 C 9466.6,6405.4 8536.1,6405.4 8536.1,6405.4 C 8536.1,6405.4 8536.1,7335.9 8536.1,7335.9 C 8536.1,7335.9 9466.6,7335.9 9466.6,7335.9 "
     id="path6" />
  <path
     stroke="#ffffff"
     stroke-width="1"
     fill="none"
     transform="matrix(0.05 0 0 0.05 -10 -11)"
     d="M 8437,3460.6 C 8437,3460.6 8437,2530.1 8437,2530.1 C 8437,2530.1 7463.6,2530.1 7463.6,2530.1 C 7463.6,2530.1 7463.6,3460.6 7463.6,3460.6 C 7463.6,3460.6 8437,3460.6 8437,3460.6 "
     id="path12" />
  <path
     stroke="#ffffff"
     stroke-width="1"
     fill="none"
     transform="matrix(0.05 0 0 0.05 -10 -11)"
     d="M 6234.8,3503.5 C 6234.8,3503.5 6234.8,2944.8 6234.8,2944.8 C 6234.8,2944.8 5418.7,2944.8 5418.7,2944.8 C 5418.7,2944.8 5418.7,3503.5 5418.7,3503.5 C 5418.7,3503.5 6234.8,3503.5 6234.8,3503.5 "
     id="path18" />
  <path
     stroke="#000000"
     stroke-width="22"
     fill="none"
     transform="matrix(0.05 0 0 0.05 -10 -11)"
     d="M 16494.7,9367.47 C 16494.7,9367.47 16494.7,284.602 16494.7,284.602 C 16494.7,284.602 268.683,284.602 268.683,284.602 C 268.683,284.602 268.683,9367.47 268.683,9367.47 C 268.683,9367.47 16494.7,9367.47 16494.7,9367.47 "
     id="path23" />
  <text
     x="0"
     y="0"
     stroke="none"
     fill="#000000"
     transform="matrix(0.05 0 0 0.05 11.735 21.13)"
     font-style="normal"
     font-weight="bold"
     font-size="320px"
     font-family="Helvetica"
     id="text23">
Preparation of Alkanes</text>
  <text
     x="0"
     y="0"
     stroke="none"
     fill="#999999"
     transform="matrix(0.05 0 0 0.05 11.9381 39.085)"
     font-style="normal"
     font-weight="normal"
     font-size="320px"
     font-family="Helvetica"
     id="text26">
click for more</text>
  <g
     id="goback"
     onclick="window.location.href = 'index-o1.svg'"
     onmouseover="document.getElementById('goback-box').setAttribute('opacity','0.5');"
     onmouseout="document.getElementById('goback-box').setAttribute('opacity','1')">
    <path
       stroke="none"
       fill="#999999"
       transform="matrix(0.05 0 0 0.05 -10 -11)"
       d="M 395.9,1492.34 C 395.9,1492.34 395.9,1302.37 395.9,1302.37 C 395.9,1228.92 455.513,1169.31 528.955,1169.31 C 528.955,1169.31 1775.84,1169.31 1775.84,1169.31 C 1849.29,1169.31 1908.9,1228.92 1908.9,1302.37 C 1908.9,1302.37 1908.9,1492.34 1908.9,1492.34 C 1908.9,1565.79 1849.29,1625.4 1775.84,1625.4 C 1775.84,1625.4 528.955,1625.4 528.955,1625.4 C 455.513,1625.4 395.9,1565.79 395.9,1492.34 "
       id="goback-box" />
    <text
       x="0"
       y="0"
       stroke="none"
       fill="#000000"
       transform="matrix(0.05 0 0 0.05 29.3796 61.765)"
       font-style="normal"
       font-weight="bold"
       font-size="200px"
       font-family="Helvetica"
       id="gobacktext">
go home</text>
    <path
       stroke="#999999"
       stroke-width="1"
       transform="matrix(0.05 0 0 0.05 -10 -11)"
       d="M 395.9,1492.34 C 395.9,1492.34 395.9,1302.37 395.9,1302.37 C 395.9,1228.92 455.513,1169.31 528.955,1169.31 C 528.955,1169.31 1775.84,1169.31 1775.84,1169.31 C 1849.29,1169.31 1908.9,1228.92 1908.9,1302.37 C 1908.9,1302.37 1908.9,1492.34 1908.9,1492.34 C 1908.9,1565.79 1849.29,1625.4 1775.84,1625.4 C 1775.84,1625.4 528.955,1625.4 528.955,1625.4 C 455.513,1625.4 395.9,1565.79 395.9,1492.34 "
       onclick="window.location.href = 'index-o1.svg'"
       style="opacity:0"
       id="goback-link" />
  </g>
  <g
     id="howdotheyreact"
     onclick="window.location.href = 'alkanes-o1.svg'"
     onmouseover="document.getElementById('howdotheyreact-box').setAttribute('opacity','0.5');"
     onmouseout="document.getElementById('howdotheyreact-box').setAttribute('opacity','1')">
    <path
       stroke="none"
       fill="#999999"
       transform="matrix(0.05 0 0 0.05 -10 -11)"
       d="M 381.591,1996.7 C 381.591,1996.7 381.591,1806.72 381.591,1806.72 C 381.591,1733.28 441.204,1673.66 514.646,1673.66 C 514.646,1673.66 2149.06,1673.66 2149.06,1673.66 C 2222.51,1673.66 2282.12,1733.28 2282.12,1806.72 C 2282.12,1806.72 2282.12,1996.7 2282.12,1996.7 C 2282.12,2070.14 2222.51,2129.75 2149.06,2129.75 C 2149.06,2129.75 514.646,2129.75 514.646,2129.75 C 441.204,2129.75 381.591,2070.14 381.591,1996.7 "
       id="howdotheyreact-box" />
    <text
       x="0"
       y="0"
       stroke="none"
       fill="#000000"
       transform="matrix(0.05 0 0 0.05 12.2417 86.9826)"
       font-style="normal"
       font-weight="bold"
       font-size="200px"
       font-family="Helvetica"
       id="howdotheyreact-text">
how do they react?</text>
    <path
       stroke="#999999"
       stroke-width="1"
       transform="matrix(0.05 0 0 0.05 -10 -11)"
       d="M 381.591,1996.7 C 381.591,1996.7 381.591,1806.72 381.591,1806.72 C 381.591,1733.28 441.204,1673.66 514.646,1673.66 C 514.646,1673.66 2149.06,1673.66 2149.06,1673.66 C 2222.51,1673.66 2282.12,1733.28 2282.12,1806.72 C 2282.12,1806.72 2282.12,1996.7 2282.12,1996.7 C 2282.12,2070.14 2222.51,2129.75 2149.06,2129.75 C 2149.06,2129.75 514.646,2129.75 514.646,2129.75 C 441.204,2129.75 381.591,2070.14 381.591,1996.7 "
       style="opacity:0"
       id="howdotheyreact-link" />
  </g>
  <path
     stroke="none"
     fill="#000000"
     transform="matrix(0.05 0 0 0.05 -10 -11)"
     d="M 8143.56,5234.63 L 8154.64,5215.43 L 8408.49,5362.51 L 8408.49,5388.17 L 8143.56,5234.63 Z "
     id="path30" />
  <path
     stroke="none"
     fill="#000000"
     transform="matrix(0.05 0 0 0.05 -10 -11)"
     d="M 8408.49,5388.17 L 8408.49,5362.51 L 8662.34,5215.43 L 8673.43,5234.63 L 8408.49,5388.17 Z "
     id="path31" />
  <text
     x="0"
     y="0"
     stroke="none"
     fill="#0000ff"
     transform="matrix(0.05 0 0 0.05 386.003 276.881)"
     font-style="normal"
     font-weight="bold"
     font-size="280px"
     font-family="Helvetica"
     id="text31">
alkanes</text>
  <text
     x="0"
     y="0"
     stroke="none"
     fill="#000000"
     transform="matrix(0.05 0 0 0.05 354.692 181.132)"
     font-style="normal"
     font-weight="bold"
     font-size="200px"
     font-family="Helvetica"
     id="text39">
LiAlH</text>
  <text
     x="0"
     y="0"
     stroke="none"
     fill="#000000"
     transform="matrix(0.05 0 0 0.05 380.8 183.432)"
     font-style="normal"
     font-weight="bold"
     font-size="150px"
     font-family="Helvetica"
     id="text40">
4</text>
  <path
     stroke="none"
     fill="#000000"
     transform="matrix(0.05 0 0 0.05 -10 -11)"
     d="M 5837.7,4132.7 L 5837.7,3573.26 L 5859.7,3573.26 L 5859.7,4132.7 Z "
     id="path43" />
  <text
     x="0"
     y="0"
     stroke="none"
     fill="#000000"
     transform="matrix(0.05 0 0 0.05 262.571 174.335)"
     font-style="normal"
     font-weight="bold"
     font-size="200px"
     font-family="Helvetica"
     id="text43">
H</text>
  <text
     x="0"
     y="0"
     stroke="none"
     fill="#000000"
     transform="matrix(0.05 0 0 0.05 269.793 176.635)"
     font-style="normal"
     font-weight="bold"
     font-size="150px"
     font-family="Helvetica"
     id="text44">
2</text>
  <text
     x="0"
     y="0"
     stroke="none"
     fill="#000000"
     transform="matrix(0.05 0 0 0.05 243.874 187.353)"
     font-style="normal"
     font-weight="bold"
     font-size="200px"
     font-family="Helvetica"
     id="text45">
cat. </text>
  <text
     x="0"
     y="0"
     stroke="none"
     fill="#000000"
     transform="matrix(0.05 0 0 0.05 263.884 187.353)"
     font-style="normal"
     font-weight="bold"
     font-size="200px"
     font-family="Helvetica"
     id="text46">
Pd</text>
  <path
     stroke="none"
     fill="#000000"
     transform="matrix(0.05 0 0 0.05 -10 -11)"
     d="M 6911.07,4133.95 L 6911.07,3574.51 L 6933.07,3574.51 L 6933.07,4133.95 Z "
     id="path46" />
  <text
     x="0"
     y="0"
     stroke="none"
     fill="#000000"
     transform="matrix(0.05 0 0 0.05 317.611 176.947)"
     font-style="normal"
     font-weight="bold"
     font-size="200px"
     font-family="Helvetica"
     id="text47">
H</text>
  <text
     x="0"
     y="0"
     stroke="none"
     fill="#000000"
     transform="matrix(0.05 0 0 0.05 324.832 179.247)"
     font-style="normal"
     font-weight="bold"
     font-size="150px"
     font-family="Helvetica"
     id="text48">
2</text>
  <text
     x="0"
     y="0"
     stroke="none"
     fill="#000000"
     transform="matrix(0.05 0 0 0.05 298.914 189.965)"
     font-style="normal"
     font-weight="bold"
     font-size="200px"
     font-family="Helvetica"
     id="text49">
cat. </text>
  <text
     x="0"
     y="0"
     stroke="none"
     fill="#000000"
     transform="matrix(0.05 0 0 0.05 318.924 189.965)"
     font-style="normal"
     font-weight="bold"
     font-size="200px"
     font-family="Helvetica"
     id="text50">
Pd</text>
  <path
     stroke="none"
     fill="#000000"
     transform="matrix(0.05 0 0 0.05 -10 -11)"
     d="M 9570,7554.39 L 9570,7114.83 L 9592,7114.83 L 9592,7554.39 Z "
     id="path67" />
  <path
     stroke="none"
     fill="#000000"
     transform="matrix(0.05 0 0 0.05 -10 -11)"
     d="M 9116.32,6613.47 L 9126.72,6607.18 L 9137.12,6613.47 L 9137.81,6810.68 L 9115.63,6810.68 L 9116.32,6613.47 Z "
     id="path69" />
  <text
     x="0"
     y="0"
     stroke="none"
     fill="#107f01"
     transform="matrix(0.05 0 0 0.05 443.086 337.574)"
     font-style="normal"
     font-weight="bold"
     font-size="180px"
     font-family="Helvetica"
     id="text70">
Br</text>
  <path
     stroke="none"
     fill="#000000"
     transform="matrix(0.05 0 0 0.05 -10 -11)"
     d="M 8861.78,6467.02 L 8872.87,6447.81 L 9126.72,6594.9 L 9126.72,6607.18 L 9116.32,6613.47 L 8861.78,6467.02 Z "
     id="path70" />
  <path
     stroke="none"
     fill="#000000"
     transform="matrix(0.05 0 0 0.05 -10 -11)"
     d="M 9137.12,6613.47 L 9126.72,6607.18 L 9126.72,6594.9 L 9380.57,6447.81 L 9391.66,6467.02 L 9137.12,6613.47 Z "
     id="path71" />
  <text
     x="0"
     y="0"
     stroke="none"
     fill="#000000"
     transform="matrix(0.05 0 0 0.05 424.073 350.708)"
     font-style="normal"
     font-weight="bold"
     font-size="160px"
     font-family="Helvetica"
     id="text74">
or </text>
  <text
     x="0"
     y="0"
     stroke="none"
     fill="#000000"
     transform="matrix(0.05 0 0 0.05 434.296 350.708)"
     font-style="normal"
     font-weight="bold"
     font-size="160px"
     font-family="Helvetica"
     id="text75">
Cl </text>
  <text
     x="0"
     y="0"
     stroke="none"
     fill="#000000"
     transform="matrix(0.05 0 0 0.05 444.519 350.708)"
     font-style="normal"
     font-weight="bold"
     font-size="160px"
     font-family="Helvetica"
     id="text76">
or </text>
  <text
     x="0"
     y="0"
     stroke="none"
     fill="#000000"
     transform="matrix(0.05 0 0 0.05 454.741 350.708)"
     font-style="normal"
     font-weight="bold"
     font-size="160px"
     font-family="Helvetica"
     id="text77">
I</text>
  <path
     stroke="none"
     fill="#000000"
     transform="matrix(0.05 0 0 0.05 -10 -11)"
     d="M 9592,6070.34 L 9592,7114.83 L 9570,7114.83 L 9570,6070.34 Z "
     id="path77" />
  <path
     stroke="none"
     fill="#000000"
     transform="matrix(0.05 0 0 0.05 -10 -11)"
     d="M 9581,5877.3 C 9581,5877.3 9637.44,6099.06 9637.44,6099.06 C 9637.44,6099.06 9605.69,6071.34 9581,6071.34 C 9555.87,6071.34 9523.56,6099.06 9523.56,6099.06 C 9523.56,6099.06 9581,5877.3 9581,5877.3 C 9581,5877.3 9581,5877.3 9581,5877.3 "
     id="path78" />
  <path
     stroke="#000000"
     stroke-width="1"
     fill="none"
     transform="matrix(0.05 0 0 0.05 -10 -11)"
     d="M 9581,5877.3 C 9581,5877.3 9637.44,6099.06 9637.44,6099.06 C 9637.44,6099.06 9605.69,6071.34 9581,6071.34 C 9555.87,6071.34 9523.56,6099.06 9523.56,6099.06 C 9523.56,6099.06 9581,5877.3 9581,5877.3 C 9581,5877.3 9581,5877.3 9581,5877.3 "
     id="path79" />
  <path
     stroke="none"
     fill="#ff0000"
     transform="matrix(0.05 0 0 0.05 -10 -11)"
     d="M 9559.62,5355.07 L 9570.02,5348.78 L 9580.42,5355.07 L 9581.11,5552.28 L 9558.93,5552.28 L 9559.62,5355.07 Z "
     id="path80" />
  <text
     x="0"
     y="0"
     stroke="none"
     fill="#0000ff"
     transform="matrix(0.05 0 0 0.05 465.251 274.654)"
     font-style="normal"
     font-weight="bold"
     font-size="180px"
     font-family="Helvetica"
     id="text80">
R</text>
  <path
     stroke="none"
     fill="#000000"
     transform="matrix(0.05 0 0 0.05 -10 -11)"
     d="M 9305.08,5208.62 L 9316.17,5189.41 L 9570.02,5336.5 L 9570.02,5348.78 L 9559.62,5355.07 L 9305.08,5208.62 Z "
     id="path81" />
  <path
     stroke="none"
     fill="#000000"
     transform="matrix(0.05 0 0 0.05 -10 -11)"
     d="M 9580.42,5355.07 L 9570.02,5348.78 L 9570.02,5336.5 L 9823.87,5189.41 L 9834.96,5208.62 L 9580.42,5355.07 Z "
     id="path82" />
  <text
     x="0"
     y="0"
     stroke="none"
     fill="#000000"
     transform="matrix(0.05 0 0 0.05 308.375 244.767)"
     font-style="normal"
     font-weight="bold"
     font-size="200px"
     font-family="Helvetica"
     id="text82">
H</text>
  <text
     x="0"
     y="0"
     stroke="none"
     fill="#000000"
     transform="matrix(0.05 0 0 0.05 315.597 247.067)"
     font-style="normal"
     font-weight="bold"
     font-size="150px"
     font-family="Helvetica"
     id="text83">
2</text>
  <text
     x="0"
     y="0"
     stroke="none"
     fill="#000000"
     transform="matrix(0.05 0 0 0.05 319.768 244.767)"
     font-style="normal"
     font-weight="bold"
     font-size="200px"
     font-family="Helvetica"
     id="text84">
O</text>
  <path
     stroke="none"
     fill="#000000"
     transform="matrix(0.05 0 0 0.05 -10 -11)"
     d="M 7400.26,5251.83 L 5628.4,5251.83 L 5628.4,5229.83 L 7400.26,5229.83 Z "
     id="path84" />
  <path
     stroke="none"
     fill="#000000"
     transform="matrix(0.05 0 0 0.05 -10 -11)"
     d="M 7593.3,5240.83 C 7593.3,5240.83 7371.54,5297.27 7371.54,5297.27 C 7371.54,5297.27 7399.26,5265.52 7399.26,5240.83 C 7399.26,5215.7 7371.54,5183.39 7371.54,5183.39 C 7371.54,5183.39 7593.3,5240.83 7593.3,5240.83 C 7593.3,5240.83 7593.3,5240.83 7593.3,5240.83 "
     id="path85" />
  <path
     stroke="#000000"
     stroke-width="1"
     fill="none"
     transform="matrix(0.05 0 0 0.05 -10 -11)"
     d="M 7593.3,5240.83 C 7593.3,5240.83 7371.54,5297.27 7371.54,5297.27 C 7371.54,5297.27 7399.26,5265.52 7399.26,5240.83 C 7399.26,5215.7 7371.54,5183.39 7371.54,5183.39 C 7371.54,5183.39 7593.3,5240.83 7593.3,5240.83 C 7593.3,5240.83 7593.3,5240.83 7593.3,5240.83 "
     id="path86" />
  <path
     stroke="none"
     fill="#000000"
     transform="matrix(0.05 0 0 0.05 -10 -11)"
     d="M 8368.8,4740.46 L 8368.8,4126.98 L 8390.8,4126.98 L 8390.8,4740.46 Z "
     id="path100" />
  <path
     stroke="none"
     fill="#000000"
     transform="matrix(0.05 0 0 0.05 -10 -11)"
     d="M 8379.8,4933.5 C 8379.8,4933.5 8322.36,4711.74 8322.36,4711.74 C 8322.36,4711.74 8354.67,4739.46 8379.8,4739.46 C 8404.49,4739.46 8436.24,4711.74 8436.24,4711.74 C 8436.24,4711.74 8379.8,4933.5 8379.8,4933.5 C 8379.8,4933.5 8379.8,4933.5 8379.8,4933.5 "
     id="path101" />
  <path
     stroke="#000000"
     stroke-width="1"
     fill="none"
     transform="matrix(0.05 0 0 0.05 -10 -11)"
     d="M 8379.8,4933.5 C 8379.8,4933.5 8322.36,4711.74 8322.36,4711.74 C 8322.36,4711.74 8354.67,4739.46 8379.8,4739.46 C 8404.49,4739.46 8436.24,4711.74 8436.24,4711.74 C 8436.24,4711.74 8379.8,4933.5 8379.8,4933.5 C 8379.8,4933.5 8379.8,4933.5 8379.8,4933.5 "
     id="path102" />
  <path
     stroke="none"
     fill="#000000"
     d="M 409.24871,196.185 H 282.435 v -1.1 h 126.81371 z"
     id="path103"
     style="stroke-width:0.0323002" />
  <path
     stroke="none"
     fill="#000000"
     transform="matrix(0.05 0 0 0.05 -10 -11)"
     d="M 7969.27,4119.65 L 7969.27,3560.21 L 7991.27,3560.21 L 7991.27,4119.65 Z "
     id="path104" />
  <path
     stroke="none"
     fill="#000000"
     transform="matrix(0.05 0 0 0.05 -10 -11)"
     d="M 7969.27,2267.81 L 7969.27,1901.41 L 7991.27,1901.41 L 7991.27,2267.81 Z "
     id="path105" />
  <path
     stroke="none"
     fill="#000000"
     transform="matrix(0.05 0 0 0.05 -10 -11)"
     d="M 7980.27,2460.85 C 7980.27,2460.85 7922.83,2239.09 7922.83,2239.09 C 7922.83,2239.09 7955.14,2266.81 7980.27,2266.81 C 8004.96,2266.81 8036.71,2239.09 8036.71,2239.09 C 8036.71,2239.09 7980.27,2460.85 7980.27,2460.85 C 7980.27,2460.85 7980.27,2460.85 7980.27,2460.85 "
     id="path106" />
  <path
     stroke="#000000"
     stroke-width="1"
     fill="none"
     transform="matrix(0.05 0 0 0.05 -10 -11)"
     d="M 7980.27,2460.85 C 7980.27,2460.85 7922.83,2239.09 7922.83,2239.09 C 7922.83,2239.09 7955.14,2266.81 7980.27,2266.81 C 8004.96,2266.81 8036.71,2239.09 8036.71,2239.09 C 8036.71,2239.09 7980.27,2460.85 7980.27,2460.85 C 7980.27,2460.85 7980.27,2460.85 7980.27,2460.85 "
     id="path107" />
  <text
     x="0"
     y="0"
     stroke="none"
     fill="#000000"
     transform="matrix(0.05 0 0 0.05 346.112 95.3322)"
     font-style="normal"
     font-weight="bold"
     font-size="200px"
     font-family="Helvetica"
     id="text110">
TsCl, </text>
  <text
     x="0"
     y="0"
     stroke="none"
     fill="#000000"
     transform="matrix(0.05 0 0 0.05 372.601 95.3322)"
     font-style="normal"
     font-weight="bold"
     font-size="200px"
     font-family="Helvetica"
     id="text111">
Py</text>
  <path
     stroke="none"
     fill="#000000"
     transform="matrix(0.05 0 0 0.05 -10 -11)"
     d="M 4497.36,5266.13 L 3737.42,5266.13 L 3737.42,5244.13 L 4497.36,5244.13 Z "
     id="path113" />
  <path
     stroke="none"
     fill="#000000"
     transform="matrix(0.05 0 0 0.05 -10 -11)"
     d="M 4690.4,5255.13 C 4690.4,5255.13 4468.64,5311.57 4468.64,5311.57 C 4468.64,5311.57 4496.36,5279.82 4496.36,5255.13 C 4496.36,5230 4468.64,5197.69 4468.64,5197.69 C 4468.64,5197.69 4690.4,5255.13 4690.4,5255.13 C 4690.4,5255.13 4690.4,5255.13 4690.4,5255.13 "
     id="path114" />
  <path
     stroke="#000000"
     stroke-width="1"
     fill="none"
     transform="matrix(0.05 0 0 0.05 -10 -11)"
     d="M 4690.4,5255.13 C 4690.4,5255.13 4468.64,5311.57 4468.64,5311.57 C 4468.64,5311.57 4496.36,5279.82 4496.36,5255.13 C 4496.36,5230 4468.64,5197.69 4468.64,5197.69 C 4468.64,5197.69 4690.4,5255.13 4690.4,5255.13 C 4690.4,5255.13 4690.4,5255.13 4690.4,5255.13 "
     id="path115" />
  <text
     x="0"
     y="0"
     stroke="none"
     fill="#000000"
     transform="matrix(0.05 0 0 0.05 190.561 246.197)"
     font-style="normal"
     font-weight="bold"
     font-size="200px"
     font-family="Helvetica"
     id="text118">
Mg</text>
  <clipPath
     id="1">
    <path
       clip-rule="evenodd"
       d="M 364.665,232.055 L 495.645,232.055 L 495.645,292.3 L 364.665,292.3 L 364.665,232.055 M 369.665,276.212 C 369.665,276.212 369.665,243.708 369.665,243.708 C 369.665,240.036 372.646,237.055 376.318,237.055 C 376.318,237.055 479.557,237.055 479.557,237.055 C 483.229,237.055 486.21,240.036 486.21,243.708 C 486.21,243.708 486.21,276.212 486.21,276.212 C 486.21,279.884 483.229,282.865 479.557,282.865 C 479.557,282.865 376.318,282.865 376.318,282.865 C 372.646,282.865 369.665,279.884 369.665,276.212 "
       id="path120" />
  </clipPath>
  <g
     clip-path="url(#1)"
     id="g121">
    <path
       stroke="none"
       fill="#000000"
       transform="matrix(0.05 0 0 0.05 -10 -11)"
       fill-opacity="0.247059"
       d="M 7682,5832.95 C 7682,5832.95 7682,5182.86 7682,5182.86 C 7682,5109.42 7741.62,5049.8 7815.06,5049.8 C 7815.06,5049.8 9879.85,5049.8 9879.85,5049.8 C 9953.29,5049.8 10012.9,5109.42 10012.9,5182.86 C 10012.9,5182.86 10012.9,5832.95 10012.9,5832.95 C 10012.9,5906.39 9953.29,5966 9879.85,5966 C 9879.85,5966 7815.06,5966 7815.06,5966 C 7741.62,5966 7682,5906.39 7682,5832.95 "
       id="path121" />
  </g>
  <path
     stroke="#000000"
     stroke-width="22"
     fill="none"
     transform="matrix(0.05 0 0 0.05 -10 -11)"
     d="M 7593.3,5744.24 C 7593.3,5744.24 7593.3,5094.16 7593.3,5094.16 C 7593.3,5020.71 7652.91,4961.1 7726.36,4961.1 C 7726.36,4961.1 9791.14,4961.1 9791.14,4961.1 C 9864.59,4961.1 9924.2,5020.71 9924.2,5094.16 C 9924.2,5094.16 9924.2,5744.24 9924.2,5744.24 C 9924.2,5817.69 9864.59,5877.3 9791.14,5877.3 C 9791.14,5877.3 7726.36,5877.3 7726.36,5877.3 C 7652.91,5877.3 7593.3,5817.69 7593.3,5744.24 "
     id="path122" />
  <path
     stroke="none"
     fill="#ffffff"
     opacity="0"
     onclick="window.location.href = 'toorganometallics-o1.svg'"
     transform="matrix(0.05 0 0 0.05 -10 -11)"
     d="M 10095.8,8508.5 C 10095.8,8508.5 10095.8,7635.2 10095.8,7635.2 C 10095.8,7635.2 9079.5,7635.2 9079.5,7635.2 C 9079.5,7635.2 9079.5,8508.5 9079.5,8508.5 C 9079.5,8508.5 10095.8,8508.5 10095.8,8508.5 "
     id="path3"
     inkscape:label="l-toorganometallics" />
  <path
     stroke="none"
     fill="#ffffff"
     opacity="0"
     onclick="window.location.href = 'tosylates-o1.svg'"
     transform="matrix(0.05 0 0 0.05 -10 -11)"
     d="M 8437,3460.6 C 8437,3460.6 8437,2530.1 8437,2530.1 C 8437,2530.1 7463.6,2530.1 7463.6,2530.1 C 7463.6,2530.1 7463.6,3460.6 7463.6,3460.6 C 7463.6,3460.6 8437,3460.6 8437,3460.6 "
     id="path11"
     inkscape:label="l-tosylates" />
  <path
     stroke="none"
     fill="#ffffff"
     opacity="0"
     onclick="window.location.href = 'toalkenes-o1.svg'"
     transform="matrix(0.05 0 0 0.05 -10 -11)"
     d="M 6234.8,3503.5 C 6234.8,3503.5 6234.8,2944.8 6234.8,2944.8 C 6234.8,2944.8 5418.7,2944.8 5418.7,2944.8 C 5418.7,2944.8 5418.7,3503.5 5418.7,3503.5 C 5418.7,3503.5 6234.8,3503.5 6234.8,3503.5 "
     id="path17"
     inkscape:label="l-toalkenes" />
  <path
     stroke="none"
     fill="#ffffff"
     opacity="0"
     onclick="window.location.href = 'organometallics-o1.svg'"
     transform="matrix(0.05 0 0 0.05 -10 -11)"
     d="M 5905.9,6320.6 C 5905.9,6320.6 5905.9,4832.4 5905.9,4832.4 C 5905.9,4832.4 4474.9,4832.4 4474.9,4832.4 C 4474.9,4832.4 4474.9,6320.6 4474.9,6320.6 C 4474.9,6320.6 5905.9,6320.6 5905.9,6320.6 "
     id="path19"
     inkscape:label="l-organometallics" />
  <path
     stroke="none"
     fill="#ffffff"
     opacity="0"
     onclick="window.location.href = 'alkanes-o1.svg'"
     d="m 484.28712,279.13846 c 0,0 0,-40.00654 0,-40.00654 0,0 -112.99054,0 -112.99054,0 0,0 0,40.00654 0,40.00654 0,0 112.99054,0 112.99054,0"
     id="path19-0"
     inkscape:label="l-alkanes"
     style="stroke-width:0.0460719;opacity:0" />
  <path
     stroke="none"
     fill="#ffffff"
     opacity="0"
     onclick="window.location.href = 'supplement-o1.svg'"
     d="m 210.73442,252.35223 c 0,0 0,-22.02291 0,-22.02291 0,0 -28.54568,0 -28.54568,0 0,0 0,22.02291 0,22.02291 0,0 28.54568,0 28.54568,0"
     id="path19-0-2"
     inkscape:label="l-supplement"
     style="opacity:0;stroke-width:0.0171813" />
  <path
     stroke="none"
     fill="#ffffff"
     opacity="0"
     onclick="window.location.href = 'supplement-o1.svg'"
     d="m 331.26642,249.71429 c 0,0 0,-22.02291 0,-22.02291 0,0 -28.54568,0 -28.54568,0 0,0 0,22.02291 0,22.02291 0,0 28.54568,0 28.54568,0"
     id="path19-0-2-3"
     inkscape:label="l-supplement"
     style="opacity:0;stroke-width:0.0171813" />
  <path
     stroke="none"
     fill="#ffffff"
     opacity="0"
     onclick="window.location.href = 'supplement-o1.svg'"
     d="m 278.94048,190.81685 c 0,0 0,-28.27809 0,-28.27809 0,0 -40.27413,0 -40.27413,0 0,0 0,28.27809 0,28.27809 0,0 40.27413,0 40.27413,0"
     id="path19-0-2-5"
     inkscape:label="l-supplement"
     style="opacity:0;stroke-width:0.0231253" />
  <path
     stroke="none"
     fill="#ffffff"
     opacity="0"
     onclick="window.location.href = 'supplement-o1.svg'"
     d="m 332.69397,191.89532 c 0,0 0,-25.93239 0,-25.93239 0,0 -39.49224,0 -39.49224,0 0,0 0,25.93239 0,25.93239 0,0 39.49224,0 39.49224,0"
     id="path19-0-2-2"
     inkscape:label="l-supplement"
     style="opacity:0;stroke-width:0.0219293" />
  <path
     stroke="none"
     fill="#ffffff"
     opacity="0"
     onclick="window.location.href = 'supplement-o1.svg'"
     d="m 384.64052,104.5453 c 0,0 0,-22.022908 0,-22.022908 0,0 -42.61982,0 -42.61982,0 0,0 0,22.022908 0,22.022908 0,0 42.61982,0 42.61982,0"
     id="path19-0-2-7"
     inkscape:label="l-supplement"
     style="opacity:0;stroke-width:0.0209938" />
  <path
     stroke="none"
     fill="#ffffff"
     opacity="0"
     onclick="window.location.href = 'supplement-o1.svg'"
     d="m 386.25343,190.40567 c 0,0 0,-22.02291 0,-22.02291 0,0 -35.58275,0 -35.58275,0 0,0 0,22.02291 0,22.02291 0,0 35.58275,0 35.58275,0"
     id="path19-0-2-9"
     inkscape:label="l-supplement"
     style="opacity:0;stroke-width:0.0191825" />
  <path
     stroke="none"
     fill="#ffffff"
     opacity="0"
     onclick="window.location.href = 'supplement-o1.svg'"
     d="m 450.85863,191.27808 c 0,0 0,-29.05998 0,-29.05998 0,0 -39.49224,0 -39.49224,0 0,0 0,29.05998 0,29.05998 0,0 39.49224,0 39.49224,0"
     id="path19-0-2-29"
     inkscape:label="l-supplement"
     style="opacity:0;stroke-width:0.0232141" />
  <path
     stroke="none"
     fill="#ffffff"
     opacity="0"
     onclick="window.location.href = 'tohalides-o1.svg'"
     d="m 465.27752,354.73933 c 0,0 0,-50.9531 0,-50.9531 0,0 -52.00259,0 -52.00259,0 0,0 0,50.9531 0,50.9531 0,0 52.00259,0 52.00259,0"
     id="path19-0-2-1"
     inkscape:label="l-supplement"
     style="opacity:0;stroke-width:0.0352733" />
  <g
     id="nostructures"
     onclick="window.location.href = 'toalkanes-o1.svg'"
     transform="matrix(0.87844457,0,0,1,-3.2995176,381.05692)">
    <text
       x="18.000504"
       y="55.14151"
       stroke="none"
       fill="#000000"
       font-style="normal"
       font-weight="bold"
       font-size="200px"
       font-family="Helvetica"
       id="gobacktext-7"
       style="font-style:normal;font-variant:normal;font-weight:bold;font-stretch:normal;font-size:10px;font-family:Helvetica;-inkscape-font-specification:'Helvetica, Bold';font-variant-ligatures:normal;font-variant-caps:normal;font-variant-numeric:normal;font-variant-east-asian:normal;fill:#0088d0;fill-opacity:0.68;stroke:none;stroke-width:0.05"
       inkscape:label="noreagents-text"><tspan
         sodipodi:role="line"
         id="tspan1"
         x="18.000504"
         y="55.14151">show</tspan></text>
    <path
       stroke="none"
       fill="#999999"
       d="m 9.795,54.694678 c 0,0 0,-5.427567 0,-5.427567 0,-2.098514 1.679048,-3.801611 3.747601,-3.801611 0,0 35.119514,0 35.119514,0 2.068778,0 3.747742,1.703097 3.747742,3.801611 0,0 0,5.427567 0,5.427567 0,2.098514 -1.678964,3.801611 -3.747742,3.801611 0,0 -35.119514,0 -35.119514,0 -2.068553,0 -3.747601,-1.703097 -3.747601,-3.801611"
       id="goback-box-8"
       style="fill:#999999;fill-opacity:0.336842;stroke-width:0.0283675"
       inkscape:label="noreagents-box" />
  </g>
  <g
     id="noreagents"
     onclick="window.location.href = 'toalkanes-noreagents-o1.svg'"
     transform="translate(-4.6856272,382.9067)">
    <text
       x="11.541888"
       y="67.610527"
       stroke="none"
       fill="#000000"
       font-style="normal"
       font-weight="bold"
       font-size="200px"
       font-family="Helvetica"
       id="gobacktext-7-8"
       style="font-style:normal;font-weight:bold;font-size:10px;font-family:Helvetica;fill:#000000;fill-opacity:0.443609;stroke:none;stroke-width:0.05"
       inkscape:label="noproducts-text"><tspan
         sodipodi:role="line"
         id="tspan2-5"
         x="11.541888"
         y="67.610527"
         style="font-style:normal;font-variant:normal;font-weight:bold;font-stretch:normal;font-size:8px;font-family:Helvetica;-inkscape-font-specification:'Helvetica, Bold';font-variant-ligatures:normal;font-variant-caps:normal;font-variant-numeric:normal;font-variant-east-asian:normal;fill:#000000;fill-opacity:0.5;stroke-width:0.05">reagents</tspan></text>
    <rect
       style="fill:#000000;fill-opacity:0.821053;fill-rule:evenodd;stroke:#a13033;stroke-width:0;stroke-linecap:round;stroke-miterlimit:2;stroke-dasharray:none;paint-order:markers fill stroke"
       id="rect3-9"
       width="31.666824"
       height="0.9773711"
       x="12.566371"
       y="64.987999"
       inkscape:label="noproducts-line" />
    <path
       stroke="none"
       fill="#999999"
       d="m 10.136392,68.163695 c 0,0 0,-5.427567 0,-5.427567 0,-2.098514 1.463398,-3.801611 3.266274,-3.801611 0,0 30.608907,0 30.608907,0 1.803073,0 3.266397,1.703097 3.266397,3.801611 0,0 0,5.427567 0,5.427567 0,2.098514 -1.463324,3.801611 -3.266397,3.801611 0,0 -30.608907,0 -30.608907,0 -1.802876,0 -3.266274,-1.703097 -3.266274,-3.801611"
       id="goback-box-8-6"
       style="fill:#999999;fill-opacity:0.336842;stroke-width:0.0264832"
       inkscape:label="noproducts-box" />
  </g>
  <text
     x="822.84332"
     y="415.79849"
     stroke="none"
     fill="#000000"
     transform="matrix(0.92407999,-0.00322566,0.00377741,1.0821442,0,0)"
     font-style="italic"
     font-weight="bold"
     font-size="8.25806px"
     font-family="'Helvetica Oblique'"
     id="text11"
     style="opacity:1;fill:#00009a;fill-opacity:0.651128;stroke-width:0.0412903">chemisfun</text>
  <g
     id="overlay-box"
     style="opacity:0"
     transform="matrix(0.31364504,0,0,0.8007311,650.50736,385.81436)">
    <rect
       style="fill:#609975;fill-opacity:0.2;stroke:#609970;stroke-width:0;stroke-linecap:round;stroke-opacity:0.657143;paint-order:fill markers stroke"
       id="rect285"
       width="164.84744"
       height="59.583412"
       x="329.69489"
       y="23.171328" />
  </g>
  <g
     id="overlay"
     onclick="window.location.href = 'about.svg'"
     onmouseover="this.ownerDocument.getElementById('overlay-box').style.opacity='0.5'"
     onmouseout="this.ownerDocument.getElementById('overlay-box').style.opacity='0'"
     transform="matrix(0.76550767,-0.0030054,0.00267214,0.86098131,195.61318,22.784653)">
    <rect
       style="opacity:0.5;fill:#ffffff;fill-opacity:0;stroke-linecap:round;stroke-opacity:0.657143;paint-order:stroke fill markers"
       id="rect2"
       width="65.93074"
       height="55.035408"
       x="733.06049"
       y="445.87061" />
  </g>
  <g
     id="g1"
     transform="matrix(0.0625,0,0,0.0625,764.65732,406.62566)">
    <rect
       x="239.31"
       y="120.321"
       style="fill:#444242"
       width="33.389"
       height="139.98"
       id="rect1" />
    <rect
       x="256"
       y="120.321"
       style="fill:#3a3839"
       width="16.695"
       height="139.98"
       id="rect2-2" />
    <rect
       x="132.194"
       y="305.86301"
       transform="matrix(0.5,0.866,-0.866,0.5,399.932,58.9793)"
       style="fill:#444242"
       width="33.387001"
       height="139.967"
       id="rect4" />
    <rect
       x="293.125"
       y="359.13"
       transform="matrix(0.866,0.5,-0.5,0.866,236.5654,-131.205)"
       style="fill:#3a3839"
       width="139.967"
       height="33.387001"
       id="rect5" />
    <path
       style="background-color:#ffffff00;fill:#439de2;fill-opacity:1"
       d="m 456.843,485.07 c -9.538,0 -18.951,-2.501 -27.432,-7.398 v 0 c -12.733,-7.351 -21.842,-19.221 -25.646,-33.424 -3.805,-14.201 -1.853,-29.035 5.499,-41.769 7.351,-12.732 19.221,-21.841 33.424,-25.646 14.201,-3.806 29.034,-1.853 41.769,5.499 12.732,7.351 21.841,19.221 25.646,33.424 3.805,14.202 1.853,29.035 -5.499,41.769 -7.351,12.733 -19.221,21.842 -33.424,25.646 -4.742,1.27 -9.557,1.899 -14.337,1.899 z"
       id="path7-3" />
    <path
       style="background-color:#ffffff00;fill:#eda74a;fill-opacity:1"
       d="m 256.001,137.021 c -30.352,0 -55.044,-24.693 -55.044,-55.044 0,-30.351 24.693,-55.044 55.044,-55.044 30.351,0 55.044,24.693 55.044,55.044 0,30.351 -24.693,55.044 -55.044,55.044 z"
       id="path5-4" />
    <path
       style="background-color:#ffffff00;fill:#53acb1;fill-opacity:1"
       d="m 55.158,485.07 c -4.781,0 -9.594,-0.629 -14.336,-1.9 C 26.619,479.365 14.75,470.256 7.398,457.524 0.046,444.792 -1.906,429.957 1.899,415.755 c 3.805,-14.203 12.914,-26.072 25.646,-33.424 12.731,-7.352 27.567,-9.304 41.769,-5.499 14.203,3.805 26.072,12.914 33.424,25.646 7.352,12.732 9.304,27.567 5.499,41.769 -3.805,14.203 -12.914,26.072 -25.646,33.424 -8.481,4.897 -17.896,7.399 -27.433,7.399 z"
       id="path6-7" />
    <path
       style="fill:#f74d37"
       d="m 256.001,384.379 c -38.81,0 -70.384,-31.575 -70.384,-70.384 0,-38.809 31.575,-70.384 70.384,-70.384 38.809,0 70.384,31.575 70.384,70.384 0,38.809 -31.575,70.384 -70.384,70.384 z"
       id="path4-9" />
  </g>
</svg>
