<?xml version="1.0" encoding="UTF-8" standalone="no"?>
<svg
   width="100%"
   height="100%"
   viewBox="0 0 818 460"
   style="background-color: #ffffff00"
   version="1.1"
   id="svg215"
   sodipodi:docname="toaldehydes-noreactants.svg"
   inkscape:version="1.4.2 (ebf0e940, 2025-05-08)"
   xmlns:inkscape="http://www.inkscape.org/namespaces/inkscape"
   xmlns:sodipodi="http://sodipodi.sourceforge.net/DTD/sodipodi-0.dtd"
   xmlns="http://www.w3.org/2000/svg"
   xmlns:svg="http://www.w3.org/2000/svg">
  <path
     stroke="#ffffff"
     stroke-width="1"
     fill="none"
     transform="matrix(0.05 0 0 0.05 -10 -11)"
     d="M 6878.3,3846.7 C 6878.3,3846.7 6878.3,2859 6878.3,2859 C 6878.3,2859 5004,2859 5004,2859 C 5004,2859 5004,3846.7 5004,3846.7 C 5004,3846.7 6878.3,3846.7 6878.3,3846.7 "
     id="path6" />
  <path
     stroke="#ffffff"
     stroke-width="1"
     fill="none"
     transform="matrix(0.05 0 0 0.05 -10 -11)"
     d="M 9051.9,4847.7 C 9051.9,4847.7 9051.9,3802.8 9051.9,3802.8 C 9051.9,3802.8 8049.9,3802.8 8049.9,3802.8 C 8049.9,3802.8 8049.9,4847.7 8049.9,4847.7 C 8049.9,4847.7 9051.9,4847.7 9051.9,4847.7 "
     id="path8" />
  <path
     stroke="#ffffff"
     stroke-width="1"
     fill="none"
     transform="matrix(0.05 0 0 0.05 -10 -11)"
     d="M 11468.6,4847.7 C 11468.6,4847.7 11468.6,4217.5 11468.6,4217.5 C 11468.6,4217.5 10738.3,4217.5 10738.3,4217.5 C 10738.3,4217.5 10738.3,4847.7 10738.3,4847.7 C 10738.3,4847.7 11468.6,4847.7 11468.6,4847.7 "
     id="path12" />
  <path
     stroke="#ffffff"
     stroke-width="1"
     fill="none"
     transform="matrix(0.05 0 0 0.05 -10 -11)"
     d="M 13013,4790.5 C 13013,4790.5 13013,3788.5 13013,3788.5 C 13013,3788.5 12196.9,3788.5 12196.9,3788.5 C 12196.9,3788.5 12196.9,4790.5 12196.9,4790.5 C 12196.9,4790.5 13013,4790.5 13013,4790.5 "
     id="path14" />
  <path
     stroke="#ffffff"
     stroke-width="1"
     fill="none"
     transform="matrix(0.05 0 0 0.05 -10 -11)"
     d="M 14900.6,4604.6 C 14900.6,4604.6 14900.6,3616.9 14900.6,3616.9 C 14900.6,3616.9 13998.7,3616.9 13998.7,3616.9 C 13998.7,3616.9 13998.7,4604.6 13998.7,4604.6 C 13998.7,4604.6 14900.6,4604.6 14900.6,4604.6 "
     id="path16" />
  <path
     stroke="#000000"
     stroke-width="22"
     fill="none"
     transform="matrix(0.05 0 0 0.05 -10 -11)"
     d="M 16494.7,9367.47 C 16494.7,9367.47 16494.7,284.602 16494.7,284.602 C 16494.7,284.602 268.683,284.602 268.683,284.602 C 268.683,284.602 268.683,9367.47 268.683,9367.47 C 268.683,9367.47 16494.7,9367.47 16494.7,9367.47 "
     id="path19" />
  <text
     x="0"
     y="0"
     stroke="none"
     fill="#000000"
     transform="matrix(0.05 0 0 0.05 11.735 21.13)"
     font-style="normal"
     font-weight="bold"
     font-size="320px"
     font-family="Helvetica"
     id="text19">
Preparation of Aldehydes</text>
  <text
     x="0"
     y="0"
     stroke="none"
     fill="#999999"
     transform="matrix(0.05 0 0 0.05 11.9381 39.085)"
     font-style="normal"
     font-weight="normal"
     font-size="320px"
     font-family="Helvetica"
     id="text22">
click for more</text>
  <g
     id="goback"
     onclick="window.location.href = 'index.svg'"
     onmouseover="document.getElementById('goback-box').setAttribute('opacity','0.5');"
     onmouseout="document.getElementById('goback-box').setAttribute('opacity','1')">
    <path
       stroke="none"
       fill="#999999"
       transform="matrix(0.05 0 0 0.05 -10 -11)"
       d="M 395.9,1492.34 C 395.9,1492.34 395.9,1302.37 395.9,1302.37 C 395.9,1228.92 455.513,1169.31 528.955,1169.31 C 528.955,1169.31 1775.84,1169.31 1775.84,1169.31 C 1849.29,1169.31 1908.9,1228.92 1908.9,1302.37 C 1908.9,1302.37 1908.9,1492.34 1908.9,1492.34 C 1908.9,1565.79 1849.29,1625.4 1775.84,1625.4 C 1775.84,1625.4 528.955,1625.4 528.955,1625.4 C 455.513,1625.4 395.9,1565.79 395.9,1492.34 "
       id="goback-box" />
    <text
       x="0"
       y="0"
       stroke="none"
       fill="#000000"
       transform="matrix(0.05 0 0 0.05 29.3796 61.765)"
       font-style="normal"
       font-weight="bold"
       font-size="200px"
       font-family="Helvetica"
       id="gobacktext">
go home</text>
    <path
       stroke="#999999"
       stroke-width="1"
       transform="matrix(0.05 0 0 0.05 -10 -11)"
       d="M 395.9,1492.34 C 395.9,1492.34 395.9,1302.37 395.9,1302.37 C 395.9,1228.92 455.513,1169.31 528.955,1169.31 C 528.955,1169.31 1775.84,1169.31 1775.84,1169.31 C 1849.29,1169.31 1908.9,1228.92 1908.9,1302.37 C 1908.9,1302.37 1908.9,1492.34 1908.9,1492.34 C 1908.9,1565.79 1849.29,1625.4 1775.84,1625.4 C 1775.84,1625.4 528.955,1625.4 528.955,1625.4 C 455.513,1625.4 395.9,1565.79 395.9,1492.34 "
       onclick="window.location.href = 'index.svg'"
       style="opacity:0"
       id="goback-link" />
  </g>
  <g
     id="howdotheyreact"
     onclick="window.location.href = 'ketones.svg'"
     onmouseover="document.getElementById('howdotheyreact-box').setAttribute('opacity','0.5');"
     onmouseout="document.getElementById('howdotheyreact-box').setAttribute('opacity','1')">
    <path
       stroke="none"
       fill="#999999"
       transform="matrix(0.05 0 0 0.05 -10 -11)"
       d="M 381.591,1996.7 C 381.591,1996.7 381.591,1806.72 381.591,1806.72 C 381.591,1733.28 441.204,1673.66 514.646,1673.66 C 514.646,1673.66 2149.06,1673.66 2149.06,1673.66 C 2222.51,1673.66 2282.12,1733.28 2282.12,1806.72 C 2282.12,1806.72 2282.12,1996.7 2282.12,1996.7 C 2282.12,2070.14 2222.51,2129.75 2149.06,2129.75 C 2149.06,2129.75 514.646,2129.75 514.646,2129.75 C 441.204,2129.75 381.591,2070.14 381.591,1996.7 "
       id="howdotheyreact-box" />
    <text
       x="0"
       y="0"
       stroke="none"
       fill="#000000"
       transform="matrix(0.05 0 0 0.05 12.2417 86.9826)"
       font-style="normal"
       font-weight="bold"
       font-size="200px"
       font-family="Helvetica"
       id="howdotheyreact-text">
how do they react?</text>
    <path
       stroke="#999999"
       stroke-width="1"
       transform="matrix(0.05 0 0 0.05 -10 -11)"
       d="M 381.591,1996.7 C 381.591,1996.7 381.591,1806.72 381.591,1806.72 C 381.591,1733.28 441.204,1673.66 514.646,1673.66 C 514.646,1673.66 2149.06,1673.66 2149.06,1673.66 C 2222.51,1673.66 2282.12,1733.28 2282.12,1806.72 C 2282.12,1806.72 2282.12,1996.7 2282.12,1996.7 C 2282.12,2070.14 2222.51,2129.75 2149.06,2129.75 C 2149.06,2129.75 514.646,2129.75 514.646,2129.75 C 441.204,2129.75 381.591,2070.14 381.591,1996.7 "
       style="opacity:0"
       id="howdotheyreact-link" />
  </g>
  <path
     stroke="none"
     fill="#000000"
     transform="matrix(0.05 0 0 0.05 -10 -11)"
     d="M 4064.5,4618.95 L 4064.5,3946.8 L 4086.5,3946.8 L 4086.5,4618.95 Z "
     id="path30" />
  <path
     stroke="none"
     fill="#000000"
     transform="matrix(0.05 0 0 0.05 -10 -11)"
     d="M 4075.5,4811.99 C 4075.5,4811.99 4018.06,4590.23 4018.06,4590.23 C 4018.06,4590.23 4050.37,4617.95 4075.5,4617.95 C 4100.19,4617.95 4131.94,4590.23 4131.94,4590.23 C 4131.94,4590.23 4075.5,4811.99 4075.5,4811.99 C 4075.5,4811.99 4075.5,4811.99 4075.5,4811.99 "
     id="path31" />
  <path
     stroke="#000000"
     stroke-width="1"
     fill="none"
     transform="matrix(0.05 0 0 0.05 -10 -11)"
     d="M 4075.5,4811.99 C 4075.5,4811.99 4018.06,4590.23 4018.06,4590.23 C 4018.06,4590.23 4050.37,4617.95 4075.5,4617.95 C 4100.19,4617.95 4131.94,4590.23 4131.94,4590.23 C 4131.94,4590.23 4075.5,4811.99 4075.5,4811.99 C 4075.5,4811.99 4075.5,4811.99 4075.5,4811.99 "
     id="path32" />
  <text
     x="0"
     y="0"
     stroke="none"
     fill="#000000"
     transform="matrix(0.05 0 0 0.05 164.143 201.153)"
     font-style="normal"
     font-weight="bold"
     font-size="200px"
     font-family="Helvetica"
     id="text38">
H</text>
  <text
     x="0"
     y="0"
     stroke="none"
     fill="#000000"
     transform="matrix(0.05 0 0 0.05 171.365 203.453)"
     font-style="normal"
     font-weight="bold"
     font-size="150px"
     font-family="Helvetica"
     id="text39">
3</text>
  <text
     x="0"
     y="0"
     stroke="none"
     fill="#000000"
     transform="matrix(0.05 0 0 0.05 175.536 201.153)"
     font-style="normal"
     font-weight="bold"
     font-size="200px"
     font-family="Helvetica"
     id="text40">
O</text>
  <text
     x="0"
     y="0"
     stroke="none"
     fill="#000000"
     transform="matrix(0.05 0 0 0.05 183.315 197.555)"
     font-style="normal"
     font-weight="bold"
     font-size="150px"
     font-family="Helvetica"
     id="text41">
+</text>
  <text
     x="0"
     y="0"
     stroke="none"
     fill="#000000"
     transform="matrix(0.05 0 0 0.05 153.203 215.211)"
     font-style="normal"
     font-weight="bold"
     font-size="160px"
     font-family="Helvetica"
     id="text42">
or </text>
  <text
     x="0"
     y="0"
     stroke="none"
     fill="#000000"
     transform="matrix(0.05 0 0 0.05 163.425 215.211)"
     font-style="normal"
     font-weight="bold"
     font-size="160px"
     font-family="Helvetica"
     id="text43">
NaOH</text>
  <path
     stroke="none"
     fill="#000000"
     transform="matrix(0.05 0 0 0.05 -10 -11)"
     d="M 3969.27,5448.41 L 3969.21,5422.73 L 4139.32,5521.83 L 4128.23,5541.03 L 3969.27,5448.41 Z "
     id="path43" />
  <text
     x="0"
     y="0"
     stroke="none"
     fill="#000000"
     transform="matrix(0.05 0 0 0.05 198.102 271.503)"
     font-style="normal"
     font-weight="bold"
     font-size="180px"
     font-family="Helvetica"
     id="text44">
H</text>
  <path
     stroke="none"
     fill="#000000"
     transform="matrix(0.05 0 0 0.05 -10 -11)"
     d="M 3716.43,5594.88 L 3705.34,5575.68 L 3969.21,5422.73 L 3969.27,5448.41 L 3716.43,5594.88 Z "
     id="path44" />
  <text
     x="0"
     y="0"
     stroke="none"
     fill="#000000"
     transform="matrix(0.05 0 0 0.05 184.948 249.153)"
     font-style="normal"
     font-weight="bold"
     font-size="180px"
     font-family="Helvetica"
     id="text45">
O</text>
  <path
     stroke="none"
     fill="#000000"
     transform="matrix(0.05 0 0 0.05 -10 -11)"
     d="M 3952.33,5452.28 L 3930.15,5452.28 L 3930.15,5238.77 L 3952.33,5238.77 L 3952.33,5452.28 Z "
     id="path45" />
  <path
     stroke="none"
     fill="#000000"
     transform="matrix(0.05 0 0 0.05 -10 -11)"
     d="M 4007.77,5452.28 L 3985.59,5452.28 L 3985.59,5238.77 L 4007.77,5238.77 L 4007.77,5452.28 Z "
     id="path46" />
  <path
     stroke="none"
     fill="#000000"
     transform="matrix(0.05 0 0 0.05 -10 -11)"
     d="M 5780.5,4604.65 L 5780.5,3932.5 L 5802.5,3932.5 L 5802.5,4604.65 Z "
     id="path47" />
  <path
     stroke="none"
     fill="#000000"
     transform="matrix(0.05 0 0 0.05 -10 -11)"
     d="M 5791.5,4797.69 C 5791.5,4797.69 5734.06,4575.93 5734.06,4575.93 C 5734.06,4575.93 5766.37,4603.65 5791.5,4603.65 C 5816.19,4603.65 5847.94,4575.93 5847.94,4575.93 C 5847.94,4575.93 5791.5,4797.69 5791.5,4797.69 C 5791.5,4797.69 5791.5,4797.69 5791.5,4797.69 "
     id="path48" />
  <path
     stroke="#000000"
     stroke-width="1"
     fill="none"
     transform="matrix(0.05 0 0 0.05 -10 -11)"
     d="M 5791.5,4797.69 C 5791.5,4797.69 5734.06,4575.93 5734.06,4575.93 C 5734.06,4575.93 5766.37,4603.65 5791.5,4603.65 C 5816.19,4603.65 5847.94,4575.93 5847.94,4575.93 C 5847.94,4575.93 5791.5,4797.69 5791.5,4797.69 C 5791.5,4797.69 5791.5,4797.69 5791.5,4797.69 "
     id="path49" />
  <text
     x="0"
     y="0"
     stroke="none"
     fill="#000000"
     transform="matrix(0.05 0 0 0.05 249.943 200.438)"
     font-style="normal"
     font-weight="bold"
     font-size="200px"
     font-family="Helvetica"
     id="text49">
H</text>
  <text
     x="0"
     y="0"
     stroke="none"
     fill="#000000"
     transform="matrix(0.05 0 0 0.05 257.165 202.738)"
     font-style="normal"
     font-weight="bold"
     font-size="150px"
     font-family="Helvetica"
     id="text50">
3</text>
  <text
     x="0"
     y="0"
     stroke="none"
     fill="#000000"
     transform="matrix(0.05 0 0 0.05 261.336 200.438)"
     font-style="normal"
     font-weight="bold"
     font-size="200px"
     font-family="Helvetica"
     id="text51">
O</text>
  <text
     x="0"
     y="0"
     stroke="none"
     fill="#000000"
     transform="matrix(0.05 0 0 0.05 269.115 196.84)"
     font-style="normal"
     font-weight="bold"
     font-size="150px"
     font-family="Helvetica"
     id="text52">
+</text>
  <text
     x="0"
     y="0"
     stroke="none"
     fill="#ff0000"
     transform="matrix(0.05 0 0 0.05 218.268 214.496)"
     font-style="normal"
     font-weight="bold"
     font-size="160px"
     font-family="Helvetica"
     id="text53">
but </text>
  <text
     x="0"
     y="0"
     stroke="none"
     fill="#ff0000"
     transform="matrix(0.05 0 0 0.05 232.928 214.496)"
     font-style="normal"
     font-weight="bold"
     font-size="160px"
     font-family="Helvetica"
     id="text54">
not</text>
  <text
     x="0"
     y="0"
     stroke="none"
     fill="#000000"
     transform="matrix(0.05 0 0 0.05 245.365 214.496)"
     font-style="normal"
     font-weight="bold"
     font-size="160px"
     font-family="Helvetica"
     id="text55" />
  <text
     x="0"
     y="0"
     stroke="none"
     fill="#000000"
     transform="matrix(0.05 0 0 0.05 247.588 214.496)"
     font-style="normal"
     font-weight="bold"
     font-size="160px"
     font-family="Helvetica"
     id="text56">
NaOH</text>
  <path
     stroke="none"
     fill="#000000"
     transform="matrix(0.05 0 0 0.05 -10 -11)"
     d="M 5842.57,5348.31 L 5842.51,5322.63 L 6012.62,5421.73 L 6001.53,5440.93 L 5842.57,5348.31 Z "
     id="path64" />
  <text
     x="0"
     y="0"
     stroke="none"
     fill="#000000"
     transform="matrix(0.05 0 0 0.05 291.767 266.498)"
     font-style="normal"
     font-weight="bold"
     font-size="180px"
     font-family="Helvetica"
     id="text64">
H</text>
  <path
     stroke="none"
     fill="#000000"
     transform="matrix(0.05 0 0 0.05 -10 -11)"
     d="M 5589.73,5494.78 L 5578.64,5475.58 L 5842.51,5322.63 L 5842.57,5348.31 L 5589.73,5494.78 Z "
     id="path65" />
  <text
     x="0"
     y="0"
     stroke="none"
     fill="#000000"
     transform="matrix(0.05 0 0 0.05 278.613 244.148)"
     font-style="normal"
     font-weight="bold"
     font-size="180px"
     font-family="Helvetica"
     id="text65">
O</text>
  <path
     stroke="none"
     fill="#000000"
     transform="matrix(0.05 0 0 0.05 -10 -11)"
     d="M 5825.63,5352.18 L 5803.45,5352.18 L 5803.45,5138.67 L 5825.63,5138.67 L 5825.63,5352.18 Z "
     id="path66" />
  <path
     stroke="none"
     fill="#000000"
     transform="matrix(0.05 0 0 0.05 -10 -11)"
     d="M 5881.07,5352.18 L 5858.89,5352.18 L 5858.89,5138.67 L 5881.07,5138.67 L 5881.07,5352.18 Z "
     id="path67" />
  <path
     stroke="none"
     fill="#000000"
     transform="matrix(0.05 0 0 0.05 -10 -11)"
     d="M 8526.1,5706.3 L 8526.1,5006.37 L 8548.1,5006.37 L 8548.1,5706.3 Z "
     id="path68" />
  <path
     stroke="none"
     fill="#000000"
     transform="matrix(0.05 0 0 0.05 -10 -11)"
     d="M 8537.1,5899.33 C 8537.1,5899.33 8479.66,5677.58 8479.66,5677.58 C 8479.66,5677.58 8511.97,5705.3 8537.1,5705.3 C 8561.79,5705.3 8593.54,5677.58 8593.54,5677.58 C 8593.54,5677.58 8537.1,5899.33 8537.1,5899.33 C 8537.1,5899.33 8537.1,5899.33 8537.1,5899.33 "
     id="path69" />
  <path
     stroke="#000000"
     stroke-width="1"
     fill="none"
     transform="matrix(0.05 0 0 0.05 -10 -11)"
     d="M 8537.1,5899.33 C 8537.1,5899.33 8479.66,5677.58 8479.66,5677.58 C 8479.66,5677.58 8511.97,5705.3 8537.1,5705.3 C 8561.79,5705.3 8593.54,5677.58 8593.54,5677.58 C 8593.54,5677.58 8537.1,5899.33 8537.1,5899.33 C 8537.1,5899.33 8537.1,5899.33 8537.1,5899.33 "
     id="path70" />
  <text
     x="0"
     y="0"
     stroke="none"
     fill="#000000"
     transform="matrix(0.05 0 0 0.05 353.214 262.016)"
     font-style="normal"
     font-weight="bold"
     font-size="200px"
     font-family="Helvetica"
     id="text70">
LiAl</text>
  <text
     x="0"
     y="0"
     stroke="none"
     fill="#0000ff"
     transform="matrix(0.05 0 0 0.05 372.101 262.016)"
     font-style="normal"
     font-weight="bold"
     font-size="200px"
     font-family="Helvetica"
     id="text71">
H</text>
  <text
     x="0"
     y="0"
     stroke="none"
     fill="#000000"
     transform="matrix(0.05 0 0 0.05 379.323 262.016)"
     font-style="normal"
     font-weight="bold"
     font-size="200px"
     font-family="Helvetica"
     id="text72">
(O</text>
  <text
     x="0"
     y="0"
     stroke="none"
     fill="#000000"
     transform="matrix(0.05 0 0 0.05 390.431 258.417)"
     font-style="normal"
     font-weight="bold"
     font-size="150px"
     font-family="Helvetica"
     id="text73">
t</text>
  <text
     x="0"
     y="0"
     stroke="none"
     fill="#000000"
     transform="matrix(0.05 0 0 0.05 392.929 262.016)"
     font-style="normal"
     font-weight="bold"
     font-size="200px"
     font-family="Helvetica"
     id="text74">
Bu)</text>
  <text
     x="0"
     y="0"
     stroke="none"
     fill="#000000"
     transform="matrix(0.05 0 0 0.05 409.589 264.316)"
     font-style="normal"
     font-weight="bold"
     font-size="150px"
     font-family="Helvetica"
     id="text75">
3</text>
  <path
     stroke="none"
     fill="#000000"
     transform="matrix(0.05 0 0 0.05 -10 -11)"
     d="M 8303.54,6581.64 L 8292.45,6562.44 L 8557.63,6408.74 L 8557.69,6434.41 L 8303.54,6581.64 Z "
     id="path75" />
  <text
     x="0"
     y="0"
     stroke="none"
     fill="#000000"
     transform="matrix(0.05 0 0 0.05 414.369 298.377)"
     font-style="normal"
     font-weight="bold"
     font-size="180px"
     font-family="Helvetica"
     id="text76">
O</text>
  <path
     stroke="none"
     fill="#000000"
     transform="matrix(0.05 0 0 0.05 -10 -11)"
     d="M 8540.76,6438.28 L 8518.58,6438.28 L 8518.58,6223.24 L 8540.76,6223.24 L 8540.76,6438.28 Z "
     id="path76" />
  <path
     stroke="none"
     fill="#000000"
     transform="matrix(0.05 0 0 0.05 -10 -11)"
     d="M 8596.2,6438.28 L 8574.02,6438.28 L 8574.02,6223.24 L 8596.2,6223.24 L 8596.2,6438.28 Z "
     id="path77" />
  <text
     x="0"
     y="0"
     stroke="none"
     fill="#0000ff"
     transform="matrix(0.05 0 0 0.05 427.589 320.841)"
     font-style="normal"
     font-weight="bold"
     font-size="180px"
     font-family="Helvetica"
     id="text77">
H</text>
  <path
     stroke="none"
     fill="#000000"
     transform="matrix(0.05 0 0 0.05 -10 -11)"
     d="M 8557.69,6434.41 L 8557.63,6408.74 L 8728.31,6508.16 L 8717.22,6527.36 L 8557.69,6434.41 Z "
     id="path78" />
  <text
     x="0"
     y="0"
     stroke="none"
     fill="#000000"
     transform="matrix(0.05 0 0 0.05 600.053 346.569)"
     font-style="italic"
     font-weight="normal"
     font-size="160px"
     font-family="Helvetica Oblique"
     id="text82">
oxidation</text>
  <text
     x="0"
     y="0"
     stroke="none"
     fill="#000000"
     transform="matrix(0.05 0 0 0.05 586.124 251.58)"
     font-style="normal"
     font-weight="bold"
     font-size="200px"
     font-family="Helvetica"
     id="text83">
PCC</text>
  <text
     x="0"
     y="0"
     stroke="none"
     fill="#000000"
     transform="matrix(0.05 0 0 0.05 586.124 261.63)"
     font-style="normal"
     font-weight="bold"
     font-size="200px"
     font-family="Helvetica"
     id="text84">
Swern</text>
  <text
     x="0"
     y="0"
     stroke="none"
     fill="#000000"
     transform="matrix(0.05 0 0 0.05 586.124 271.68)"
     font-style="normal"
     font-weight="bold"
     font-size="200px"
     font-family="Helvetica"
     id="text85">
DMP</text>
  <path
     stroke="none"
     fill="#000000"
     transform="matrix(0.05 0 0 0.05 -10 -11)"
     d="M 2091.74,4380.67 L 2091.74,3622.18 L 2113.74,3622.18 L 2113.74,4380.67 Z "
     id="path87" />
  <path
     stroke="none"
     fill="#000000"
     transform="matrix(0.05 0 0 0.05 -10 -11)"
     d="M 2102.74,4573.71 C 2102.74,4573.71 2045.3,4351.95 2045.3,4351.95 C 2045.3,4351.95 2077.61,4379.67 2102.74,4379.67 C 2127.43,4379.67 2159.18,4351.95 2159.18,4351.95 C 2159.18,4351.95 2102.74,4573.71 2102.74,4573.71 C 2102.74,4573.71 2102.74,4573.71 2102.74,4573.71 "
     id="path88" />
  <path
     stroke="#000000"
     stroke-width="1"
     fill="none"
     transform="matrix(0.05 0 0 0.05 -10 -11)"
     d="M 2102.74,4573.71 C 2102.74,4573.71 2045.3,4351.95 2045.3,4351.95 C 2045.3,4351.95 2077.61,4379.67 2102.74,4379.67 C 2127.43,4379.67 2159.18,4351.95 2159.18,4351.95 C 2159.18,4351.95 2102.74,4573.71 2102.74,4573.71 C 2102.74,4573.71 2102.74,4573.71 2102.74,4573.71 "
     id="path89" />
  <text
     x="0"
     y="0"
     stroke="none"
     fill="#999999"
     transform="matrix(0.05 0 0 0.05 64.4072 346.008)"
     font-style="normal"
     font-weight="normal"
     font-size="160px"
     font-family="Helvetica"
     id="text89">
antiMarkovnikov</text>
  <text
     x="0"
     y="0"
     stroke="none"
     fill="#000000"
     transform="matrix(0.05 0 0 0.05 23.3881 210.517)"
     font-style="normal"
     font-weight="bold"
     font-size="200px"
     font-family="Helvetica"
     id="text93">
2) </text>
  <text
     x="0"
     y="0"
     stroke="none"
     fill="#000000"
     transform="matrix(0.05 0 0 0.05 35.058 210.517)"
     font-style="normal"
     font-weight="bold"
     font-size="200px"
     font-family="Helvetica"
     id="text94">
H</text>
  <text
     x="0"
     y="0"
     stroke="none"
     fill="#000000"
     transform="matrix(0.05 0 0 0.05 42.2797 212.817)"
     font-style="normal"
     font-weight="bold"
     font-size="150px"
     font-family="Helvetica"
     id="text95">
2</text>
  <text
     x="0"
     y="0"
     stroke="none"
     fill="#000000"
     transform="matrix(0.05 0 0 0.05 46.4508 210.517)"
     font-style="normal"
     font-weight="bold"
     font-size="200px"
     font-family="Helvetica"
     id="text96">
O</text>
  <text
     x="0"
     y="0"
     stroke="none"
     fill="#000000"
     transform="matrix(0.05 0 0 0.05 54.2291 212.817)"
     font-style="normal"
     font-weight="bold"
     font-size="150px"
     font-family="Helvetica"
     id="text97">
2</text>
  <text
     x="0"
     y="0"
     stroke="none"
     fill="#000000"
     transform="matrix(0.05 0 0 0.05 58.4003 210.517)"
     font-style="normal"
     font-weight="bold"
     font-size="200px"
     font-family="Helvetica"
     id="text98">
, </text>
  <text
     x="0"
     y="0"
     stroke="none"
     fill="#000000"
     transform="matrix(0.05 0 0 0.05 63.9569 210.517)"
     font-style="normal"
     font-weight="bold"
     font-size="200px"
     font-family="Helvetica"
     id="text99">
NaOH</text>
  <path
     stroke="none"
     fill="#000000"
     transform="matrix(0.05 0 0 0.05 -10 -11)"
     d="M 2136.34,6006.1 L 2136.34,5814.8 L 2158.34,5814.8 L 2158.34,6006.1 Z "
     id="path109" />
  <path
     stroke="none"
     fill="#000000"
     transform="matrix(0.05 0 0 0.05 -10 -11)"
     d="M 2147.34,6199.14 C 2147.34,6199.14 2089.9,5977.38 2089.9,5977.38 C 2089.9,5977.38 2122.21,6005.1 2147.34,6005.1 C 2172.04,6005.1 2203.78,5977.38 2203.78,5977.38 C 2203.78,5977.38 2147.34,6199.14 2147.34,6199.14 C 2147.34,6199.14 2147.34,6199.14 2147.34,6199.14 "
     id="path110" />
  <path
     stroke="#000000"
     stroke-width="1"
     fill="none"
     transform="matrix(0.05 0 0 0.05 -10 -11)"
     d="M 2147.34,6199.14 C 2147.34,6199.14 2089.9,5977.38 2089.9,5977.38 C 2089.9,5977.38 2122.21,6005.1 2147.34,6005.1 C 2172.04,6005.1 2203.78,5977.38 2203.78,5977.38 C 2203.78,5977.38 2147.34,6199.14 2147.34,6199.14 C 2147.34,6199.14 2147.34,6199.14 2147.34,6199.14 "
     id="path111" />
  <text
     x="0"
     y="0"
     stroke="none"
     fill="#000000"
     transform="matrix(0.05 0 0 0.05 34.6614 291.077)"
     font-style="italic"
     font-weight="normal"
     font-size="160px"
     font-family="Helvetica Oblique"
     id="text111">
tautomerization</text>
  <path
     stroke="none"
     fill="#000000"
     transform="matrix(0.05 0 0 0.05 -10 -11)"
     d="M 1689.46,6598.63 L 1700.55,6579.42 L 1954.39,6726.51 L 1954.39,6752.16 L 1689.46,6598.63 Z "
     id="path112" />
  <path
     stroke="none"
     fill="#000000"
     transform="matrix(0.05 0 0 0.05 -10 -11)"
     d="M 1954.39,6752.16 L 1954.39,6726.51 L 2208.24,6579.42 L 2219.33,6598.63 L 1954.39,6752.16 Z "
     id="path113" />
  <text
     x="0"
     y="0"
     stroke="none"
     fill="#0000ff"
     transform="matrix(0.05 0 0 0.05 110.159 329.178)"
     font-style="normal"
     font-weight="bold"
     font-size="180px"
     font-family="Helvetica"
     id="text113">
O</text>
  <path
     stroke="none"
     fill="#000000"
     transform="matrix(0.05 0 0 0.05 -10 -11)"
     d="M 2222.1,6574.62 L 2233.19,6555.42 L 2409.45,6657.18 L 2398.36,6676.38 L 2222.1,6574.62 Z "
     id="path114" />
  <path
     stroke="none"
     fill="#000000"
     transform="matrix(0.05 0 0 0.05 -10 -11)"
     d="M 2180.52,6614.63 L 2191.61,6595.43 L 2381.73,6705.19 L 2370.64,6724.4 L 2180.52,6614.63 Z "
     id="path115" />
  <text
     x="0"
     y="0"
     stroke="none"
     fill="#000000"
     transform="matrix(0.05 0 0 0.05 42.5039 186.504)"
     font-style="normal"
     font-weight="bold"
     font-size="200px"
     font-family="Helvetica"
     id="text115">
1) </text>
  <text
     x="0"
     y="0"
     stroke="none"
     fill="#000000"
     transform="matrix(0.05 0 0 0.05 54.1738 186.504)"
     font-style="normal"
     font-weight="bold"
     font-size="200px"
     font-family="Helvetica"
     id="text116">
Sia</text>
  <text
     x="0"
     y="0"
     stroke="none"
     fill="#000000"
     transform="matrix(0.05 0 0 0.05 69.1836 188.804)"
     font-style="normal"
     font-weight="bold"
     font-size="150px"
     font-family="Helvetica"
     id="text117">
2</text>
  <text
     x="0"
     y="0"
     stroke="none"
     fill="#000000"
     transform="matrix(0.05 0 0 0.05 73.3547 186.504)"
     font-style="normal"
     font-weight="bold"
     font-size="200px"
     font-family="Helvetica"
     id="text118">
BH</text>
  <text
     x="0"
     y="0"
     stroke="none"
     fill="#000000"
     transform="matrix(0.05 0 0 0.05 53.2628 196.494)"
     font-style="normal"
     font-weight="bold"
     font-size="160px"
     font-family="Helvetica"
     id="text119">
or </text>
  <text
     x="0"
     y="0"
     stroke="none"
     fill="#000000"
     transform="matrix(0.05 0 0 0.05 63.4855 196.494)"
     font-style="normal"
     font-weight="bold"
     font-size="160px"
     font-family="Helvetica"
     id="text120">
9-BBN</text>
  <text
     x="0"
     y="0"
     stroke="none"
     fill="#000000"
     transform="matrix(0.05 0 0 0.05 716.276 234.184)"
     font-style="normal"
     font-weight="bold"
     font-size="208px"
     font-family="Arial"
     id="text122">
CO, </text>
  <text
     x="0"
     y="0"
     stroke="none"
     fill="#000000"
     transform="matrix(0.05 0 0 0.05 737.655 234.184)"
     font-style="normal"
     font-weight="bold"
     font-size="208px"
     font-family="Arial"
     id="text123">
HCl</text>
  <text
     x="0"
     y="0"
     stroke="none"
     fill="#000000"
     transform="matrix(0.05 0 0 0.05 716.276 246.143)"
     font-style="normal"
     font-weight="bold"
     font-size="160px"
     font-family="Arial"
     id="text124">
pressure</text>
  <text
     x="0"
     y="0"
     stroke="none"
     fill="#000000"
     transform="matrix(0.05 0 0 0.05 675.688 325.974)"
     font-style="italic"
     font-weight="normal"
     font-size="180px"
     font-family="Arial"
     id="text125">
Gatterman-Koch</text>
  <text
     x="0"
     y="0"
     stroke="none"
     fill="#000000"
     transform="matrix(0.05 0 0 0.05 686.695 336.323)"
     font-style="italic"
     font-weight="normal"
     font-size="180px"
     font-family="Arial"
     id="text126">
formylation</text>
  <path
     stroke="none"
     fill="#000000"
     transform="matrix(0.05 0 0 0.05 -10 -11)"
     d="M 14386.7,5490.25 L 14386.7,4641.31 L 14408.7,4641.31 L 14408.7,5490.25 Z "
     id="path126" />
  <path
     stroke="none"
     fill="#000000"
     transform="matrix(0.05 0 0 0.05 -10 -11)"
     d="M 14397.7,5683.29 C 14397.7,5683.29 14340.3,5461.53 14340.3,5461.53 C 14340.3,5461.53 14372.6,5489.25 14397.7,5489.25 C 14422.4,5489.25 14454.2,5461.53 14454.2,5461.53 C 14454.2,5461.53 14397.7,5683.29 14397.7,5683.29 C 14397.7,5683.29 14397.7,5683.29 14397.7,5683.29 "
     id="path127" />
  <path
     stroke="#000000"
     stroke-width="1"
     fill="none"
     transform="matrix(0.05 0 0 0.05 -10 -11)"
     d="M 14397.7,5683.29 C 14397.7,5683.29 14340.3,5461.53 14340.3,5461.53 C 14340.3,5461.53 14372.6,5489.25 14397.7,5489.25 C 14422.4,5489.25 14454.2,5461.53 14454.2,5461.53 C 14454.2,5461.53 14397.7,5683.29 14397.7,5683.29 C 14397.7,5683.29 14397.7,5683.29 14397.7,5683.29 "
     id="path128" />
  <text
     x="0"
     y="0"
     stroke="none"
     fill="#ff0000"
     transform="matrix(0.05 0 0 0.05 687.714 249.814)"
     font-style="normal"
     font-weight="bold"
     font-size="144px"
     font-family="Arial"
     id="text128">
C</text>
  <text
     x="0"
     y="0"
     stroke="none"
     fill="#ff0000"
     transform="matrix(0.05 0 0 0.05 696.68 255.46)"
     font-style="normal"
     font-weight="bold"
     font-size="144px"
     font-family="Helvetica"
     id="text129">
H</text>
  <path
     stroke="none"
     fill="#ff0000"
     transform="matrix(0.05 0 0 0.05 -10 -11)"
     d="M 14065.6,5212.5 L 14075.1,5197.48 L 14115.8,5223.06 L 14106.4,5238.08 L 14065.6,5212.5 Z "
     id="path129" />
  <text
     x="0"
     y="0"
     stroke="none"
     fill="#ff0000"
     transform="matrix(0.05 0 0 0.05 687.513 237.833)"
     font-style="normal"
     font-weight="bold"
     font-size="144px"
     font-family="Arial"
     id="text130">
O</text>
  <path
     stroke="none"
     fill="#ff0000"
     transform="matrix(0.05 0 0 0.05 -10 -11)"
     d="M 13993,5087.12 L 13975.2,5087.12 L 13975.2,5003.89 L 13993,5003.89 L 13993,5087.12 Z "
     id="path130" />
  <path
     stroke="none"
     fill="#ff0000"
     transform="matrix(0.05 0 0 0.05 -10 -11)"
     d="M 14037.3,5087.12 L 14019.6,5087.12 L 14019.6,5003.89 L 14037.3,5003.89 L 14037.3,5087.12 Z "
     id="path131" />
  <path
     stroke="#ff0000"
     stroke-width="14"
     fill="none"
     transform="matrix(0.05 0 0 0.05 -10 -11)"
     d="M 13852.2,5254.92 A 55.0962,55.0962 0 1 0 13962.4,5254.92A 55.0962,55.0962 0 1 0 13852.2,5254.92Z "
     id="path132" />
  <path
     stroke="none"
     fill="#ff0000"
     transform="matrix(0.05 0 0 0.05 -10 -11)"
     d="M 13874.4,5247.92 L 13940.1,5247.92 L 13940.1,5261.92 L 13874.4,5261.92 Z "
     id="path133" />
  <path
     stroke="none"
     fill="#ff0000"
     transform="matrix(0.05 0 0 0.05 -10 -11)"
     d="M 13914.3,5222.05 L 13914.3,5287.79 L 13900.3,5287.79 L 13900.3,5222.05 Z "
     id="path134" />
  <path
     stroke="none"
     fill="#000000"
     transform="matrix(0.05 0 0 0.05 -10 -11)"
     d="M 14224.1,6198.58 L 14246.3,6211.44 L 14246.3,6391.73 L 14224.1,6404.59 L 14224.1,6198.58 Z "
     id="path135" />
  <path
     stroke="none"
     fill="#000000"
     transform="matrix(0.05 0 0 0.05 -10 -11)"
     d="M 14280.3,6237.45 L 14302.5,6237.45 L 14302.5,6365.73 L 14280.3,6365.73 L 14280.3,6237.45 Z "
     id="path136" />
  <path
     stroke="none"
     fill="#000000"
     transform="matrix(0.05 0 0 0.05 -10 -11)"
     d="M 14224.1,6404.59 L 14246.3,6391.73 L 14402.5,6481.87 L 14402.5,6507.6 L 14224.1,6404.59 Z "
     id="path137" />
  <path
     stroke="none"
     fill="#000000"
     transform="matrix(0.05 0 0 0.05 -10 -11)"
     d="M 14402.5,6507.6 L 14402.5,6481.87 L 14558.6,6391.73 L 14580.9,6404.59 L 14402.5,6507.6 Z "
     id="path138" />
  <path
     stroke="none"
     fill="#000000"
     transform="matrix(0.05 0 0 0.05 -10 -11)"
     d="M 14408,6439.46 L 14396.9,6420.26 L 14508,6356.12 L 14519.1,6375.33 L 14408,6439.46 Z "
     id="path139" />
  <path
     stroke="none"
     fill="#000000"
     transform="matrix(0.05 0 0 0.05 -10 -11)"
     d="M 14580.9,6404.59 L 14558.6,6391.73 L 14558.6,6211.44 L 14580.9,6198.58 L 14580.9,6404.59 Z "
     id="path140" />
  <path
     stroke="none"
     fill="#000000"
     transform="matrix(0.05 0 0 0.05 -10 -11)"
     d="M 14580.9,6198.58 L 14558.6,6211.44 L 14402.5,6121.3 L 14402.5,6109.3 L 14413,6103.38 L 14580.9,6198.58 Z "
     id="path141" />
  <path
     stroke="none"
     fill="#000000"
     transform="matrix(0.05 0 0 0.05 -10 -11)"
     d="M 14519.1,6227.85 L 14508,6247.05 L 14396.9,6182.91 L 14408,6163.71 L 14519.1,6227.85 Z "
     id="path142" />
  <path
     stroke="none"
     fill="#000000"
     transform="matrix(0.05 0 0 0.05 -10 -11)"
     d="M 14392.1,6103.3 L 14402.5,6109.3 L 14402.5,6121.3 L 14246.3,6211.44 L 14224.1,6198.58 L 14392.1,6103.3 Z "
     id="path143" />
  <path
     stroke="none"
     fill="#ff0000"
     transform="matrix(0.05 0 0 0.05 -10 -11)"
     d="M 14413,6103.38 L 14402.5,6109.3 L 14392.1,6103.3 L 14392.8,5891.32 L 14415,5905.77 L 14413,6103.38 Z "
     id="path144" />
  <text
     x="0"
     y="0"
     stroke="none"
     fill="#0000ff"
     transform="matrix(0.05 0 0 0.05 718.681 281.953)"
     font-style="normal"
     font-weight="bold"
     font-size="180px"
     font-family="Helvetica"
     id="text144">
H</text>
  <path
     stroke="none"
     fill="#0000ff"
     transform="matrix(0.05 0 0 0.05 -10 -11)"
     d="M 14415,5905.77 L 14392.8,5891.32 L 14538.8,5826.94 L 14547.9,5847.17 L 14415,5905.77 Z "
     id="path145" />
  <text
     x="0"
     y="0"
     stroke="none"
     fill="#0000ff"
     transform="matrix(0.05 0 0 0.05 698.411 280.523)"
     font-style="normal"
     font-weight="bold"
     font-size="180px"
     font-family="Helvetica"
     id="text145">
O</text>
  <path
     stroke="none"
     fill="#0000ff"
     transform="matrix(0.05 0 0 0.05 -10 -11)"
     d="M 14411.2,5925.97 L 14397.3,5943.26 L 14291.4,5858.16 L 14305.3,5840.87 L 14411.2,5925.97 Z "
     id="path146" />
  <path
     stroke="none"
     fill="#0000ff"
     transform="matrix(0.05 0 0 0.05 -10 -11)"
     d="M 14440,5877.96 L 14426.1,5895.25 L 14326.1,5814.93 L 14340,5797.64 L 14440,5877.96 Z "
     id="path147" />
  <text
     x="0"
     y="0"
     stroke="none"
     fill="#000000"
     transform="matrix(0.05 0 0 0.05 716.074 258.476)"
     font-style="normal"
     font-weight="bold"
     font-size="199px"
     font-family="Arial"
     id="text147">
AlCl</text>
  <text
     x="0"
     y="0"
     stroke="none"
     fill="#000000"
     transform="matrix(0.05 0 0 0.05 735.974 260.585)"
     font-style="normal"
     font-weight="bold"
     font-size="149.25px"
     font-family="Arial"
     id="text148">
3</text>
  <text
     x="0"
     y="0"
     stroke="none"
     fill="#999999"
     transform="matrix(0.05 0 0 0.05 688.819 347.882)"
     font-style="normal"
     font-weight="normal"
     font-size="160px"
     font-family="Arial"
     id="text149">
needs </text>
  <text
     x="0"
     y="0"
     stroke="none"
     fill="#999999"
     transform="matrix(0.05 0 0 0.05 712.838 347.882)"
     font-style="normal"
     font-weight="normal"
     font-size="160px"
     font-family="Arial"
     id="text150">
EDG</text>
  <text
     x="0"
     y="0"
     stroke="none"
     fill="#000000"
     transform="matrix(0.05 0 0 0.05 435.914 247.159)"
     font-style="normal"
     font-weight="bold"
     font-size="200px"
     font-family="Helvetica"
     id="text151">
DIBAL</text>
  <text
     x="0"
     y="0"
     stroke="none"
     fill="#000000"
     transform="matrix(0.05 0 0 0.05 436.43 257.169)"
     font-style="normal"
     font-weight="bold"
     font-size="200px"
     font-family="Helvetica"
     id="text154">
-78 </text>
  <text
     x="0"
     y="0"
     stroke="none"
     fill="#000000"
     transform="matrix(0.05 0 0 0.05 453.661 253.57)"
     font-style="normal"
     font-weight="bold"
     font-size="150px"
     font-family="Helvetica"
     id="text155">
o</text>
  <text
     x="0"
     y="0"
     stroke="none"
     fill="#000000"
     transform="matrix(0.05 0 0 0.05 458.243 257.169)"
     font-style="normal"
     font-weight="bold"
     font-size="200px"
     font-family="Helvetica"
     id="text156">
C</text>
  <text
     x="0"
     y="0"
     stroke="none"
     fill="#000000"
     transform="matrix(0.05 0 0 0.05 433.57 268.609)"
     font-style="normal"
     font-weight="bold"
     font-size="200px"
     font-family="Helvetica"
     id="text157">
([Al]-</text>
  <text
     x="0"
     y="0"
     stroke="none"
     fill="#0000ff"
     transform="matrix(0.05 0 0 0.05 456.89 268.609)"
     font-style="normal"
     font-weight="bold"
     font-size="200px"
     font-family="Helvetica"
     id="text158">
H</text>
  <text
     x="0"
     y="0"
     stroke="none"
     fill="#000000"
     transform="matrix(0.05 0 0 0.05 464.112 268.609)"
     font-style="normal"
     font-weight="bold"
     font-size="200px"
     font-family="Helvetica"
     id="text159">
)</text>
  <text
     x="0"
     y="0"
     stroke="none"
     fill="#000000"
     transform="matrix(0.05 0 0 0.05 429.01 279.29)"
     font-style="normal"
     font-weight="bold"
     font-size="160px"
     font-family="Helvetica"
     id="text160">
then </text>
  <text
     x="0"
     y="0"
     stroke="none"
     fill="#000000"
     transform="matrix(0.05 0 0 0.05 448.119 279.29)"
     font-style="normal"
     font-weight="bold"
     font-size="160px"
     font-family="Helvetica"
     id="text161">
H</text>
  <text
     x="0"
     y="0"
     stroke="none"
     fill="#000000"
     transform="matrix(0.05 0 0 0.05 453.897 281.13)"
     font-style="normal"
     font-weight="bold"
     font-size="120px"
     font-family="Helvetica"
     id="text162">
3</text>
  <text
     x="0"
     y="0"
     stroke="none"
     fill="#000000"
     transform="matrix(0.05 0 0 0.05 457.234 279.29)"
     font-style="normal"
     font-weight="bold"
     font-size="160px"
     font-family="Helvetica"
     id="text163">
O</text>
  <text
     x="0"
     y="0"
     stroke="none"
     fill="#000000"
     transform="matrix(0.05 0 0 0.05 463.456 276.411)"
     font-style="normal"
     font-weight="bold"
     font-size="120px"
     font-family="Helvetica"
     id="text164">
+</text>
  <path
     stroke="none"
     fill="#000000"
     transform="matrix(0.05 0 0 0.05 -10 -11)"
     d="M 11104.2,5648.7 L 11104.2,4948.78 L 11126.2,4948.78 L 11126.2,5648.7 Z "
     id="path164" />
  <path
     stroke="none"
     fill="#000000"
     transform="matrix(0.05 0 0 0.05 -10 -11)"
     d="M 11115.2,5841.74 C 11115.2,5841.74 11057.8,5619.98 11057.8,5619.98 C 11057.8,5619.98 11090.1,5647.7 11115.2,5647.7 C 11139.9,5647.7 11171.6,5619.98 11171.6,5619.98 C 11171.6,5619.98 11115.2,5841.74 11115.2,5841.74 C 11115.2,5841.74 11115.2,5841.74 11115.2,5841.74 "
     id="path165" />
  <path
     stroke="#000000"
     stroke-width="1"
     fill="none"
     transform="matrix(0.05 0 0 0.05 -10 -11)"
     d="M 11115.2,5841.74 C 11115.2,5841.74 11057.8,5619.98 11057.8,5619.98 C 11057.8,5619.98 11090.1,5647.7 11115.2,5647.7 C 11139.9,5647.7 11171.6,5619.98 11171.6,5619.98 C 11171.6,5619.98 11115.2,5841.74 11115.2,5841.74 C 11115.2,5841.74 11115.2,5841.74 11115.2,5841.74 "
     id="path166" />
  <text
     x="0"
     y="0"
     stroke="none"
     fill="#000000"
     transform="matrix(0.05 0 0 0.05 509.635 247.929)"
     font-style="normal"
     font-weight="bold"
     font-size="200px"
     font-family="Helvetica"
     id="text171">
DIBAL</text>
  <path
     stroke="none"
     fill="#000000"
     transform="matrix(0.05 0 0 0.05 -10 -11)"
     d="M 11136,6393.28 L 11135.9,6367.61 L 11306.6,6467.03 L 11295.5,6486.23 L 11136,6393.28 Z "
     id="path171" />
  <text
     x="0"
     y="0"
     stroke="none"
     fill="#0000ff"
     transform="matrix(0.05 0 0 0.05 556.505 318.784)"
     font-style="normal"
     font-weight="bold"
     font-size="180px"
     font-family="Helvetica"
     id="text172">
H</text>
  <path
     stroke="none"
     fill="#000000"
     transform="matrix(0.05 0 0 0.05 -10 -11)"
     d="M 10881.9,6540.51 L 10870.8,6521.31 L 11135.9,6367.61 L 11136,6393.28 L 10881.9,6540.51 Z "
     id="path172" />
  <text
     x="0"
     y="0"
     stroke="none"
     fill="#0000ff"
     transform="matrix(0.05 0 0 0.05 543.285 296.32)"
     font-style="normal"
     font-weight="bold"
     font-size="180px"
     font-family="Helvetica"
     id="text173">
O</text>
  <path
     stroke="none"
     fill="#000000"
     transform="matrix(0.05 0 0 0.05 -10 -11)"
     d="M 11119.1,6397.16 L 11096.9,6397.16 L 11096.9,6182.12 L 11119.1,6182.12 L 11119.1,6397.16 Z "
     id="path173" />
  <path
     stroke="none"
     fill="#000000"
     transform="matrix(0.05 0 0 0.05 -10 -11)"
     d="M 11174.5,6397.16 L 11152.3,6397.16 L 11152.3,6182.12 L 11174.5,6182.12 L 11174.5,6397.16 Z "
     id="path174" />
  <text
     x="0"
     y="0"
     stroke="none"
     fill="#000000"
     transform="matrix(0.05 0 0 0.05 500.6 274.96)"
     font-style="normal"
     font-weight="bold"
     font-size="160px"
     font-family="Helvetica"
     id="text174">
then </text>
  <text
     x="0"
     y="0"
     stroke="none"
     fill="#000000"
     transform="matrix(0.05 0 0 0.05 519.71 274.96)"
     font-style="normal"
     font-weight="bold"
     font-size="160px"
     font-family="Helvetica"
     id="text175">
H</text>
  <text
     x="0"
     y="0"
     stroke="none"
     fill="#000000"
     transform="matrix(0.05 0 0 0.05 525.487 276.799)"
     font-style="normal"
     font-weight="bold"
     font-size="120px"
     font-family="Helvetica"
     id="text176">
3</text>
  <text
     x="0"
     y="0"
     stroke="none"
     fill="#000000"
     transform="matrix(0.05 0 0 0.05 528.824 274.96)"
     font-style="normal"
     font-weight="bold"
     font-size="160px"
     font-family="Helvetica"
     id="text177">
O</text>
  <text
     x="0"
     y="0"
     stroke="none"
     fill="#000000"
     transform="matrix(0.05 0 0 0.05 535.046 272.081)"
     font-style="normal"
     font-weight="bold"
     font-size="120px"
     font-family="Helvetica"
     id="text178">
+</text>
  <text
     x="0"
     y="0"
     stroke="none"
     fill="#000000"
     transform="matrix(0.05 0 0 0.05 507.51 261.346)"
     font-style="normal"
     font-weight="bold"
     font-size="200px"
     font-family="Helvetica"
     id="text179">
([Al]-</text>
  <text
     x="0"
     y="0"
     stroke="none"
     fill="#0000ff"
     transform="matrix(0.05 0 0 0.05 530.831 261.346)"
     font-style="normal"
     font-weight="bold"
     font-size="200px"
     font-family="Helvetica"
     id="text180">
H)</text>
  <path
     stroke="none"
     fill="#000000"
     transform="matrix(0.05 0 0 0.05 -10 -11)"
     d="M 9684.4,5692 L 9684.4,4992.07 L 9706.4,4992.07 L 9706.4,5692 Z "
     id="path180" />
  <path
     stroke="none"
     fill="#000000"
     transform="matrix(0.05 0 0 0.05 -10 -11)"
     d="M 9695.4,5885.03 C 9695.4,5885.03 9637.96,5663.28 9637.96,5663.28 C 9637.96,5663.28 9670.27,5691 9695.4,5691 C 9720.09,5691 9751.84,5663.28 9751.84,5663.28 C 9751.84,5663.28 9695.4,5885.03 9695.4,5885.03 C 9695.4,5885.03 9695.4,5885.03 9695.4,5885.03 "
     id="path181" />
  <path
     stroke="#000000"
     stroke-width="1"
     fill="none"
     transform="matrix(0.05 0 0 0.05 -10 -11)"
     d="M 9695.4,5885.03 C 9695.4,5885.03 9637.96,5663.28 9637.96,5663.28 C 9637.96,5663.28 9670.27,5691 9695.4,5691 C 9720.09,5691 9751.84,5663.28 9751.84,5663.28 C 9751.84,5663.28 9695.4,5885.03 9695.4,5885.03 C 9695.4,5885.03 9695.4,5885.03 9695.4,5885.03 "
     id="path182" />
  <path
     stroke="none"
     fill="#000000"
     transform="matrix(0.05 0 0 0.05 -10 -11)"
     d="M 9461.84,6581.64 L 9450.75,6562.44 L 9715.93,6408.74 L 9715.99,6434.41 L 9461.84,6581.64 Z "
     id="path183" />
  <text
     x="0"
     y="0"
     stroke="none"
     fill="#000000"
     transform="matrix(0.05 0 0 0.05 472.284 298.377)"
     font-style="normal"
     font-weight="bold"
     font-size="180px"
     font-family="Helvetica"
     id="text183">
O</text>
  <path
     stroke="none"
     fill="#000000"
     transform="matrix(0.05 0 0 0.05 -10 -11)"
     d="M 9699.06,6438.28 L 9676.88,6438.28 L 9676.88,6223.24 L 9699.06,6223.24 L 9699.06,6438.28 Z "
     id="path184" />
  <path
     stroke="none"
     fill="#000000"
     transform="matrix(0.05 0 0 0.05 -10 -11)"
     d="M 9754.5,6438.28 L 9732.32,6438.28 L 9732.32,6223.24 L 9754.5,6223.24 L 9754.5,6438.28 Z "
     id="path185" />
  <text
     x="0"
     y="0"
     stroke="none"
     fill="#0000ff"
     transform="matrix(0.05 0 0 0.05 485.504 320.841)"
     font-style="normal"
     font-weight="bold"
     font-size="180px"
     font-family="Helvetica"
     id="text185">
H</text>
  <path
     stroke="none"
     fill="#000000"
     transform="matrix(0.05 0 0 0.05 -10 -11)"
     d="M 9715.99,6434.41 L 9715.93,6408.74 L 9886.61,6508.16 L 9875.52,6527.36 L 9715.99,6434.41 Z "
     id="path186" />
  <path
     stroke="none"
     fill="#000000"
     transform="matrix(0.05 0 0 0.05 -10 -11)"
     d="M 12558.7,5706.29 L 12558.7,5006.37 L 12580.7,5006.37 L 12580.7,5706.29 Z "
     id="path187" />
  <path
     stroke="none"
     fill="#000000"
     transform="matrix(0.05 0 0 0.05 -10 -11)"
     d="M 12569.7,5899.33 C 12569.7,5899.33 12512.3,5677.58 12512.3,5677.58 C 12512.3,5677.58 12544.6,5705.29 12569.7,5705.29 C 12594.4,5705.29 12626.1,5677.58 12626.1,5677.58 C 12626.1,5677.58 12569.7,5899.33 12569.7,5899.33 C 12569.7,5899.33 12569.7,5899.33 12569.7,5899.33 "
     id="path188" />
  <path
     stroke="#000000"
     stroke-width="1"
     fill="none"
     transform="matrix(0.05 0 0 0.05 -10 -11)"
     d="M 12569.7,5899.33 C 12569.7,5899.33 12512.3,5677.58 12512.3,5677.58 C 12512.3,5677.58 12544.6,5705.29 12569.7,5705.29 C 12594.4,5705.29 12626.1,5677.58 12626.1,5677.58 C 12626.1,5677.58 12569.7,5899.33 12569.7,5899.33 C 12569.7,5899.33 12569.7,5899.33 12569.7,5899.33 "
     id="path189" />
  <path
     stroke="none"
     fill="#000000"
     transform="matrix(0.05 0 0 0.05 -10 -11)"
     d="M 12278.9,6567.34 L 12267.9,6548.14 L 12533,6394.44 L 12533.1,6420.11 L 12278.9,6567.34 Z "
     id="path190" />
  <text
     x="0"
     y="0"
     stroke="none"
     fill="#000000"
     transform="matrix(0.05 0 0 0.05 613.139 297.662)"
     font-style="normal"
     font-weight="bold"
     font-size="180px"
     font-family="Helvetica"
     id="text190">
O</text>
  <path
     stroke="none"
     fill="#000000"
     transform="matrix(0.05 0 0 0.05 -10 -11)"
     d="M 12516.2,6423.98 L 12494,6423.98 L 12494,6208.94 L 12516.2,6208.94 L 12516.2,6423.98 Z "
     id="path191" />
  <path
     stroke="none"
     fill="#000000"
     transform="matrix(0.05 0 0 0.05 -10 -11)"
     d="M 12571.6,6423.98 L 12549.4,6423.98 L 12549.4,6208.94 L 12571.6,6208.94 L 12571.6,6423.98 Z "
     id="path192" />
  <text
     x="0"
     y="0"
     stroke="none"
     fill="#0000ff"
     transform="matrix(0.05 0 0 0.05 626.359 320.126)"
     font-style="normal"
     font-weight="bold"
     font-size="180px"
     font-family="Helvetica"
     id="text192">
H</text>
  <path
     stroke="none"
     fill="#000000"
     transform="matrix(0.05 0 0 0.05 -10 -11)"
     d="M 12533.1,6420.11 L 12533,6394.44 L 12703.7,6493.86 L 12692.6,6513.06 L 12533.1,6420.11 Z "
     id="path193" />
  <path
     stroke="#000000"
     stroke-width="22"
     fill="none"
     stroke-dasharray="53"
     d="M 599.6,7217.14 C 599.6,7217.14 599.6,2648.85 599.6,2648.85 C 599.6,2575.41 659.213,2515.8 732.655,2515.8 C 732.655,2515.8 6873.94,2515.8 6873.94,2515.8 C 6947.39,2515.8 7007,2575.41 7007,2648.85 C 7007,2648.85 7007,7217.14 7007,7217.14 C 7007,7290.59 6947.39,7350.2 6873.94,7350.2 C 6873.94,7350.2 732.655,7350.2 732.655,7350.2 C 659.213,7350.2 599.6,7290.59 599.6,7217.14 "
     id="path204"
     transform="matrix(0.05 0 0 0.05 -10 -11)" />
  <path
     stroke="#000000"
     stroke-width="22"
     fill="none"
     transform="matrix(0.05 0 0 0.05 -10 -11)"
     stroke-dasharray="53"
     d="M 7134.7,7202.84 C 7134.7,7202.84 7134.7,2634.55 7134.7,2634.55 C 7134.7,2561.11 7194.31,2501.5 7267.76,2501.5 C 7267.76,2501.5 11521.4,2501.5 11521.4,2501.5 C 11594.9,2501.5 11654.5,2561.11 11654.5,2634.55 C 11654.5,2634.55 11654.5,7202.84 11654.5,7202.84 C 11654.5,7276.29 11594.9,7335.9 11521.4,7335.9 C 11521.4,7335.9 7267.76,7335.9 7267.76,7335.9 C 7194.31,7335.9 7134.7,7276.29 7134.7,7202.84 "
     id="path207" />
  <path
     stroke="#000000"
     stroke-width="22"
     fill="none"
     transform="matrix(0.05 0 0 0.05 -10 -11)"
     stroke-dasharray="53"
     d="M 11739.3,7188.54 C 11739.3,7188.54 11739.3,2620.25 11739.3,2620.25 C 11739.3,2546.81 11798.9,2487.2 11872.4,2487.2 C 11872.4,2487.2 13111.3,2487.2 13111.3,2487.2 C 13184.8,2487.2 13244.4,2546.81 13244.4,2620.25 C 13244.4,2620.25 13244.4,7188.54 13244.4,7188.54 C 13244.4,7261.99 13184.8,7321.6 13111.3,7321.6 C 13111.3,7321.6 11872.4,7321.6 11872.4,7321.6 C 11798.9,7321.6 11739.3,7261.99 11739.3,7188.54 "
     id="path208" />
  <path
     stroke="#000000"
     stroke-width="22"
     fill="none"
     transform="matrix(0.05 0 0 0.05 -10 -11)"
     stroke-dasharray="53"
     d="M 13383.8,7174.24 C 13383.8,7174.24 13383.8,2605.95 13383.8,2605.95 C 13383.8,2532.51 13443.4,2472.9 13516.9,2472.9 C 13516.9,2472.9 15649.9,2472.9 15649.9,2472.9 C 15723.3,2472.9 15782.9,2532.51 15782.9,2605.95 C 15782.9,2605.95 15782.9,7174.24 15782.9,7174.24 C 15782.9,7247.69 15723.3,7307.3 15649.9,7307.3 C 15649.9,7307.3 13516.9,7307.3 13516.9,7307.3 C 13443.4,7307.3 13383.8,7247.69 13383.8,7174.24 "
     id="path209" />
  <text
     x="394.69"
     y="394.995"
     stroke="none"
     fill="#0000ff"
     font-style="normal"
     font-weight="bold"
     font-size="16px"
     font-family="Helvetica"
     id="text213"
     style="stroke-width:0.05">aldehydes</text>
  <path
     stroke="#000000"
     stroke-width="0.684087"
     fill="none"
     d="M 682.035,363.79061 V 377.598"
     id="path213" />
  <path
     stroke="#000000"
     stroke-width="1.1"
     fill="none"
     d="M 682.035,377.598 H 187.3895"
     id="path214" />
  <path
     stroke="#000000"
     stroke-width="0.684087"
     fill="none"
     d="M 187.3895,377.598 V 363.79061"
     id="path215" />
  <path
     stroke="none"
     fill="#ffffff"
     opacity="0"
     onclick="window.location.href = 'toalkynes.svg'"
     transform="matrix(0.05 0 0 0.05 -10 -11)"
     d="M 2674.1,3575 C 2674.1,3575 2674.1,3102.1 2674.1,3102.1 C 2674.1,3102.1 1514.8,3102.1 1514.8,3102.1 C 1514.8,3102.1 1514.8,3575 1514.8,3575 C 1514.8,3575 2674.1,3575 2674.1,3575 "
     id="path1"
     inkscape:label="l-toalkynes" />
  <path
     stroke="none"
     fill="#ffffff"
     opacity="0"
     onclick="window.location.href = 'toacidchlorides.svg'"
     transform="matrix(0.05 0 0 0.05 -10 -11)"
     d="M 9051.9,4847.7 C 9051.9,4847.7 9051.9,3802.8 9051.9,3802.8 C 9051.9,3802.8 8049.9,3802.8 8049.9,3802.8 C 8049.9,3802.8 8049.9,4847.7 8049.9,4847.7 C 8049.9,4847.7 9051.9,4847.7 9051.9,4847.7 "
     id="path7"
     inkscape:label="l-toacidchlorides" />
  <path
     stroke="none"
     fill="#ffffff"
     opacity="0"
     onclick="window.location.href = 'tonitriles.svg'"
     transform="matrix(0.05 0 0 0.05 -10 -11)"
     d="M 11468.6,4847.7 C 11468.6,4847.7 11468.6,4217.5 11468.6,4217.5 C 11468.6,4217.5 10738.3,4217.5 10738.3,4217.5 C 10738.3,4217.5 10738.3,4847.7 10738.3,4847.7 C 10738.3,4847.7 11468.6,4847.7 11468.6,4847.7 "
     id="path11"
     inkscape:label="l-tonitriles" />
  <path
     stroke="none"
     fill="#ffffff"
     opacity="0"
     onclick="window.location.href = 'toalcohols.svg'"
     transform="matrix(0.05 0 0 0.05 -10 -11)"
     d="M 13013,4790.5 C 13013,4790.5 13013,3788.5 13013,3788.5 C 13013,3788.5 12196.9,3788.5 12196.9,3788.5 C 12196.9,3788.5 12196.9,4790.5 12196.9,4790.5 C 12196.9,4790.5 13013,4790.5 13013,4790.5 "
     id="path13"
     inkscape:label="l-toalcohols" />
  <path
     stroke="none"
     fill="#ffffff"
     opacity="0"
     onclick="window.location.href = 'aromatic.svg'"
     transform="matrix(0.05 0 0 0.05 -10 -11)"
     d="M 14900.6,4604.6 C 14900.6,4604.6 14900.6,3616.9 14900.6,3616.9 C 14900.6,3616.9 13998.7,3616.9 13998.7,3616.9 C 13998.7,3616.9 13998.7,4604.6 13998.7,4604.6 C 13998.7,4604.6 14900.6,4604.6 14900.6,4604.6 "
     id="path15"
     inkscape:label="l-aromatic" />
  <path
     stroke="none"
     fill="#ffffff"
     opacity="0"
     d="m 745.00449,350.45576 c 0,0 0,-78.31519 0,-78.31519 0,0 -76.37088,0 -76.37088,0 0,0 0,78.31519 0,78.31519 0,0 76.37088,0 76.37088,0"
     id="path15-3"
     inkscape:label="l-ketones"
     style="opacity:0;stroke-width:0.0819399"
     onclick="window.location.href = 'ketones.svg'" />
  <path
     stroke="none"
     fill="#ffffff"
     d="m 642.66651,350.60744 c 0,0 0,-63.45915 0,-63.45915 0,0 -49.00449,0 -49.00449,0 0,0 0,63.45915 0,63.45915 0,0 49.00449,0 49.00449,0"
     id="path15-3-8"
     inkscape:label="l-ketones"
     style="opacity:0;stroke-width:0.0590845"
     onclick="window.location.href = 'ketones.svg'" />
  <path
     stroke="none"
     fill="#ffffff"
     d="m 568.13979,329.94447 c 0,0 0,-41.56604 0,-41.56604 0,0 -174.88989,0 -174.88989,0 0,0 0,41.56604 0,41.56604 0,0 174.88989,0 174.88989,0"
     id="path15-3-8-7"
     inkscape:label="l-ketones"
     style="opacity:0;stroke-width:0.0903359"
     onclick="window.location.href = 'ketones.svg'" />
  <path
     stroke="none"
     fill="#ffffff"
     d="m 474.92602,403.26175 c 0,0 0,-21.23672 0,-21.23672 0,0 -82.62606,0 -82.62606,0 0,0 0,21.23672 0,21.23672 0,0 82.62606,0 82.62606,0"
     id="path15-3-8-7-7"
     inkscape:label="l-ketones"
     style="opacity:0;stroke-width:0.0443824"
     onclick="window.location.href = 'ketones.svg'" />
  <path
     stroke="none"
     fill="#ffffff"
     d="m 305.91397,277.45388 c 0,0 0,-45.47553 0,-45.47553 0,0 -139.70453,0 -139.70453,0 0,0 0,45.47553 0,45.47553 0,0 139.70453,0 139.70453,0"
     id="path15-3-8-7-2"
     inkscape:label="l-ketones"
     style="opacity:0;stroke-width:0.0844506"
     onclick="window.location.href = 'ketones.svg'" />
  <path
     stroke="none"
     fill="#ffffff"
     d="m 132.27942,351.60744 c 0,0 0,-42.34794 0,-42.34794 0,0 -74.025191,0 -74.025191,0 0,0 0,42.34794 0,42.34794 0,0 74.025191,0 74.025191,0"
     id="path15-3-8-7-2-3"
     inkscape:label="l-ketones"
     style="opacity:0;stroke-width:0.0593218"
     onclick="window.location.href = 'ketones.svg'" />
  <path
     stroke="none"
     fill="#ffffff"
     d="m 91.957891,217.08833 c 0,0 0,-45.66525 0,-45.66525 0,0 -71.813652,0 -71.813652,0 0,0 0,45.66525 0,45.66525 0,0 71.813652,0 71.813652,0"
     id="path15-3-8-7-2-3-1"
     inkscape:label="l-supplement"
     style="opacity:0;stroke-width:0.0606743"
     onclick="window.location.href = 'supplement.svg'" />
  <path
     stroke="none"
     fill="#ffffff"
     d="m 190.63096,219.18448 c 0,0 0,-27.97294 0,-27.97294 0,0 -46.38096,0 -46.38096,0 0,0 0,27.97294 0,27.97294 0,0 46.38096,0 46.38096,0"
     id="path15-3-8-7-2-3-1-2"
     inkscape:label="l-supplement"
     style="opacity:0;stroke-width:0.0381634"
     onclick="window.location.href = 'supplement.svg'" />
  <path
     stroke="none"
     fill="#ffffff"
     d="m 274.51557,221.17487 c 0,0 0,-33.50179 0,-33.50179 0,0 -60.75596,0 -60.75596,0 0,0 0,33.50179 0,33.50179 0,0 60.75596,0 60.75596,0"
     id="path15-3-8-7-2-3-1-3"
     inkscape:label="l-supplement"
     style="opacity:0;stroke-width:0.047801"
     onclick="window.location.href = 'supplement.svg'" />
  <path
     stroke="none"
     fill="#ffffff"
     d="m 414.30404,270.48256 c 0,0 0,-21.33833 0,-21.33833 0,0 -62.9675,0 -62.9675,0 0,0 0,21.33833 0,21.33833 0,0 62.9675,0 62.9675,0"
     id="path15-3-8-7-2-3-1-6"
     inkscape:label="l-supplement"
     style="opacity:0;stroke-width:0.0388371"
     onclick="window.location.href = 'supplement.svg'" />
  <path
     stroke="none"
     fill="#ffffff"
     d="m 470.6598,282.02102 c 0,0 0,-46.77102 0,-46.77102 0,0 -43.06365,0 -43.06365,0 0,0 0,46.77102 0,46.77102 0,0 43.06365,0 43.06365,0"
     id="path15-3-8-7-2-3-1-1"
     inkscape:label="l-supplement"
     style="opacity:0;stroke-width:0.0475502"
     onclick="window.location.href = 'supplement.svg'" />
  <path
     stroke="none"
     fill="#ffffff"
     d="m 542.30404,279.02102 c 0,0 0,-42.34794 0,-42.34794 0,0 -48.5925,0 -48.5925,0 0,0 0,42.34794 0,42.34794 0,0 48.5925,0 48.5925,0"
     id="path15-3-8-7-2-3-1-30"
     inkscape:label="l-supplement"
     style="opacity:0;stroke-width:0.0480628"
     onclick="window.location.href = 'supplement.svg'" />
  <path
     stroke="none"
     fill="#ffffff"
     d="m 617.35211,275.80949 c 0,0 0,-36.8191 0,-36.8191 0,0 -34.2175,0 -34.2175,0 0,0 0,36.8191 0,36.8191 0,0 34.2175,0 34.2175,0"
     id="path15-3-8-7-2-3-1-27"
     inkscape:label="l-supplement"
     style="opacity:0;stroke-width:0.037607"
     onclick="window.location.href = 'supplement.svg'" />
  <path
     stroke="none"
     fill="#ffffff"
     d="m 760.8425,263.66525 c 0,0 0,-43.45371 0,-43.45371 0,0 -46.38096,0 -46.38096,0 0,0 0,43.45371 0,43.45371 0,0 46.38096,0 46.38096,0"
     id="path15-3-8-7-2-3-1-63"
     inkscape:label="l-supplement"
     style="opacity:0;stroke-width:0.0475655"
     onclick="window.location.href = 'supplement.svg'" />
  <g
     id="nostructures"
     onclick="window.location.href = 'toaldehydes.svg'"
     transform="matrix(0.87844457,0,0,1,-3.2995176,381.05692)">
    <text
       x="18.000504"
       y="55.14151"
       stroke="none"
       fill="#000000"
       font-style="normal"
       font-weight="bold"
       font-size="200px"
       font-family="Helvetica"
       id="gobacktext-7"
       style="font-style:normal;font-variant:normal;font-weight:bold;font-stretch:normal;font-size:10px;font-family:Helvetica;-inkscape-font-specification:'Helvetica, Bold';font-variant-ligatures:normal;font-variant-caps:normal;font-variant-numeric:normal;font-variant-east-asian:normal;fill:#0088d0;fill-opacity:0.68;stroke:none;stroke-width:0.05"
       inkscape:label="noreagents-text"><tspan
         sodipodi:role="line"
         id="tspan1"
         x="18.000504"
         y="55.14151">show</tspan></text>
    <path
       stroke="none"
       fill="#999999"
       d="m 9.795,54.694678 c 0,0 0,-5.427567 0,-5.427567 0,-2.098514 1.679048,-3.801611 3.747601,-3.801611 0,0 35.119514,0 35.119514,0 2.068778,0 3.747742,1.703097 3.747742,3.801611 0,0 0,5.427567 0,5.427567 0,2.098514 -1.678964,3.801611 -3.747742,3.801611 0,0 -35.119514,0 -35.119514,0 -2.068553,0 -3.747601,-1.703097 -3.747601,-3.801611"
       id="goback-box-8"
       style="fill:#999999;fill-opacity:0.336842;stroke-width:0.0283675"
       inkscape:label="noreagents-box" />
  </g>
  <g
     id="noreagents"
     onclick="window.location.href = 'toaldehydes-noreagents.svg'"
     transform="translate(-4.6856272,382.9067)">
    <text
       x="11.541888"
       y="67.610527"
       stroke="none"
       fill="#000000"
       font-style="normal"
       font-weight="bold"
       font-size="200px"
       font-family="Helvetica"
       id="gobacktext-7-8"
       style="font-style:normal;font-weight:bold;font-size:10px;font-family:Helvetica;fill:#000000;fill-opacity:0.443609;stroke:none;stroke-width:0.05"
       inkscape:label="noproducts-text"><tspan
         sodipodi:role="line"
         id="tspan2-5"
         x="11.541888"
         y="67.610527"
         style="font-style:normal;font-variant:normal;font-weight:bold;font-stretch:normal;font-size:8px;font-family:Helvetica;-inkscape-font-specification:'Helvetica, Bold';font-variant-ligatures:normal;font-variant-caps:normal;font-variant-numeric:normal;font-variant-east-asian:normal;fill:#000000;fill-opacity:0.5;stroke-width:0.05">reagents</tspan></text>
    <rect
       style="fill:#000000;fill-opacity:0.821053;fill-rule:evenodd;stroke:#a13033;stroke-width:0;stroke-linecap:round;stroke-miterlimit:2;stroke-dasharray:none;paint-order:markers fill stroke"
       id="rect3-9"
       width="31.666824"
       height="0.9773711"
       x="12.566371"
       y="64.987999"
       inkscape:label="noproducts-line" />
    <path
       stroke="none"
       fill="#999999"
       d="m 10.136392,68.163695 c 0,0 0,-5.427567 0,-5.427567 0,-2.098514 1.463398,-3.801611 3.266274,-3.801611 0,0 30.608907,0 30.608907,0 1.803073,0 3.266397,1.703097 3.266397,3.801611 0,0 0,5.427567 0,5.427567 0,2.098514 -1.463324,3.801611 -3.266397,3.801611 0,0 -30.608907,0 -30.608907,0 -1.802876,0 -3.266274,-1.703097 -3.266274,-3.801611"
       id="goback-box-8-6"
       style="fill:#999999;fill-opacity:0.336842;stroke-width:0.0264832"
       inkscape:label="noproducts-box" />
  </g>
  <text
     x="822.84332"
     y="415.79849"
     stroke="none"
     fill="#000000"
     transform="matrix(0.92407999,-0.00322566,0.00377741,1.0821442,0,0)"
     font-style="italic"
     font-weight="bold"
     font-size="8.25806px"
     font-family="'Helvetica Oblique'"
     id="text11"
     style="opacity:1;fill:#00009a;fill-opacity:0.651128;stroke-width:0.0412903">chemisfun</text>
  <g
     id="overlay-box"
     style="opacity:0"
     transform="matrix(0.31364504,0,0,0.8007311,650.50736,385.81436)">
    <rect
       style="fill:#609975;fill-opacity:0.2;stroke:#609970;stroke-width:0;stroke-linecap:round;stroke-opacity:0.657143;paint-order:fill markers stroke"
       id="rect285"
       width="164.84744"
       height="59.583412"
       x="329.69489"
       y="23.171328" />
  </g>
  <g
     id="overlay"
     onclick="window.location.href = 'index.html'"
     onmouseover="this.ownerDocument.getElementById('overlay-box').style.opacity='0.5'"
     onmouseout="this.ownerDocument.getElementById('overlay-box').style.opacity='0'"
     transform="matrix(0.76550767,-0.0030054,0.00267214,0.86098131,195.61318,22.784653)">
    <rect
       style="opacity:0.5;fill:#ffffff;fill-opacity:0;stroke-linecap:round;stroke-opacity:0.657143;paint-order:stroke fill markers"
       id="rect2"
       width="65.93074"
       height="55.035408"
       x="733.06049"
       y="445.87061" />
  </g>
  <g
     id="g1"
     transform="matrix(0.0625,0,0,0.0625,764.65732,406.62566)">
    <rect
       x="239.31"
       y="120.321"
       style="fill:#444242"
       width="33.389"
       height="139.98"
       id="rect1" />
    <rect
       x="256"
       y="120.321"
       style="fill:#3a3839"
       width="16.695"
       height="139.98"
       id="rect2-2" />
    <rect
       x="132.194"
       y="305.86301"
       transform="matrix(0.5,0.866,-0.866,0.5,399.932,58.9793)"
       style="fill:#444242"
       width="33.387001"
       height="139.967"
       id="rect4" />
    <rect
       x="293.125"
       y="359.13"
       transform="matrix(0.866,0.5,-0.5,0.866,236.5654,-131.205)"
       style="fill:#3a3839"
       width="139.967"
       height="33.387001"
       id="rect5" />
    <path
       style="background-color:#ffffff00;fill:#439de2;fill-opacity:1"
       d="m 456.843,485.07 c -9.538,0 -18.951,-2.501 -27.432,-7.398 v 0 c -12.733,-7.351 -21.842,-19.221 -25.646,-33.424 -3.805,-14.201 -1.853,-29.035 5.499,-41.769 7.351,-12.732 19.221,-21.841 33.424,-25.646 14.201,-3.806 29.034,-1.853 41.769,5.499 12.732,7.351 21.841,19.221 25.646,33.424 3.805,14.202 1.853,29.035 -5.499,41.769 -7.351,12.733 -19.221,21.842 -33.424,25.646 -4.742,1.27 -9.557,1.899 -14.337,1.899 z"
       id="path7-3" />
    <path
       style="background-color:#ffffff00;fill:#eda74a;fill-opacity:1"
       d="m 256.001,137.021 c -30.352,0 -55.044,-24.693 -55.044,-55.044 0,-30.351 24.693,-55.044 55.044,-55.044 30.351,0 55.044,24.693 55.044,55.044 0,30.351 -24.693,55.044 -55.044,55.044 z"
       id="path5-4" />
    <path
       style="background-color:#ffffff00;fill:#53acb1;fill-opacity:1"
       d="m 55.158,485.07 c -4.781,0 -9.594,-0.629 -14.336,-1.9 C 26.619,479.365 14.75,470.256 7.398,457.524 0.046,444.792 -1.906,429.957 1.899,415.755 c 3.805,-14.203 12.914,-26.072 25.646,-33.424 12.731,-7.352 27.567,-9.304 41.769,-5.499 14.203,3.805 26.072,12.914 33.424,25.646 7.352,12.732 9.304,27.567 5.499,41.769 -3.805,14.203 -12.914,26.072 -25.646,33.424 -8.481,4.897 -17.896,7.399 -27.433,7.399 z"
       id="path6-7" />
    <path
       style="fill:#f74d37"
       d="m 256.001,384.379 c -38.81,0 -70.384,-31.575 -70.384,-70.384 0,-38.809 31.575,-70.384 70.384,-70.384 38.809,0 70.384,31.575 70.384,70.384 0,38.809 -31.575,70.384 -70.384,70.384 z"
       id="path4-9" />
  </g>
</svg>
