<?xml version="1.0" encoding="UTF-8" standalone="no"?>
<svg
   width="100%"
   height="100%"
   viewBox="0 0 818 460"
   style="background-color: #ffffff00"
   version="1.1"
   id="svg135"
   sodipodi:docname="toamides-noreactants.svg"
   inkscape:version="1.4.2 (ebf0e940, 2025-05-08)"
   xmlns:inkscape="http://www.inkscape.org/namespaces/inkscape"
   xmlns:sodipodi="http://sodipodi.sourceforge.net/DTD/sodipodi-0.dtd"
   xmlns="http://www.w3.org/2000/svg"
   xmlns:svg="http://www.w3.org/2000/svg">
  <path
     stroke="none"
     fill="#ffffff"
     transform="matrix(0.05 0 0 0.05 -10 -11)"
     d="M 8723,1887.6 C 8723,1887.6 8723,1171.6 8723,1171.6 C 8723,1171.6 7992.7,1171.6 7992.7,1171.6 C 7992.7,1171.6 7992.7,1887.6 7992.7,1887.6 C 7992.7,1887.6 8723,1887.6 8723,1887.6 "
     id="path5" />
  <path
     stroke="#ffffff"
     stroke-width="1"
     fill="none"
     transform="matrix(0.05 0 0 0.05 -10 -11)"
     d="M 8723,1887.6 C 8723,1887.6 8723,1171.6 8723,1171.6 C 8723,1171.6 7992.7,1171.6 7992.7,1171.6 C 7992.7,1171.6 7992.7,1887.6 7992.7,1887.6 C 7992.7,1887.6 8723,1887.6 8723,1887.6 "
     id="path6" />
  <path
     stroke="none"
     fill="#ffffff"
     transform="matrix(0.05 0 0 0.05 -10 -11)"
     d="M 8694.4,3403.4 C 8694.4,3403.4 8694.4,2758.9 8694.4,2758.9 C 8694.4,2758.9 8007,2758.9 8007,2758.9 C 8007,2758.9 8007,3403.4 8007,3403.4 C 8007,3403.4 8694.4,3403.4 8694.4,3403.4 "
     id="path7" />
  <path
     stroke="#ffffff"
     stroke-width="1"
     fill="none"
     transform="matrix(0.05 0 0 0.05 -10 -11)"
     d="M 8694.4,3403.4 C 8694.4,3403.4 8694.4,2758.9 8694.4,2758.9 C 8694.4,2758.9 8007,2758.9 8007,2758.9 C 8007,2758.9 8007,3403.4 8007,3403.4 C 8007,3403.4 8694.4,3403.4 8694.4,3403.4 "
     id="path8" />
  <path
     stroke="none"
     fill="#ffffff"
     transform="matrix(0.05 0 0 0.05 -10 -11)"
     d="M 8465.6,4947.8 C 8465.6,4947.8 8465.6,4303.3 8465.6,4303.3 C 8465.6,4303.3 7835.4,4303.3 7835.4,4303.3 C 7835.4,4303.3 7835.4,4947.8 7835.4,4947.8 C 7835.4,4947.8 8465.6,4947.8 8465.6,4947.8 "
     id="path9" />
  <path
     stroke="#ffffff"
     stroke-width="1"
     fill="none"
     transform="matrix(0.05 0 0 0.05 -10 -11)"
     d="M 8465.6,4947.8 C 8465.6,4947.8 8465.6,4303.3 8465.6,4303.3 C 8465.6,4303.3 7835.4,4303.3 7835.4,4303.3 C 7835.4,4303.3 7835.4,4947.8 7835.4,4947.8 C 7835.4,4947.8 8465.6,4947.8 8465.6,4947.8 "
     id="path10" />
  <path
     stroke="none"
     fill="#ffffff"
     transform="matrix(0.05 0 0 0.05 -10 -11)"
     d="M 8479.9,6377.8 C 8479.9,6377.8 8479.9,5747.6 8479.9,5747.6 C 8479.9,5747.6 7763.9,5747.6 7763.9,5747.6 C 7763.9,5747.6 7763.9,6377.8 7763.9,6377.8 C 7763.9,6377.8 8479.9,6377.8 8479.9,6377.8 "
     id="path11" />
  <path
     stroke="#ffffff"
     stroke-width="1"
     fill="none"
     transform="matrix(0.05 0 0 0.05 -10 -11)"
     d="M 8479.9,6377.8 C 8479.9,6377.8 8479.9,5747.6 8479.9,5747.6 C 8479.9,5747.6 7763.9,5747.6 7763.9,5747.6 C 7763.9,5747.6 7763.9,6377.8 7763.9,6377.8 C 7763.9,6377.8 8479.9,6377.8 8479.9,6377.8 "
     id="path12" />
  <path
     stroke="#000000"
     stroke-width="22"
     fill="none"
     transform="matrix(0.05 0 0 0.05 -10 -11)"
     d="M 16494.7,9367.47 C 16494.7,9367.47 16494.7,284.602 16494.7,284.602 C 16494.7,284.602 268.683,284.602 268.683,284.602 C 268.683,284.602 268.683,9367.47 268.683,9367.47 C 268.683,9367.47 16494.7,9367.47 16494.7,9367.47 "
     id="path19" />
  <text
     x="0"
     y="0"
     stroke="none"
     fill="#000000"
     transform="matrix(0.05 0 0 0.05 11.735 21.13)"
     font-style="normal"
     font-weight="bold"
     font-size="320px"
     font-family="Helvetica"
     id="text19">
Preparation of Amides</text>
  <text
     x="0"
     y="0"
     stroke="none"
     fill="#999999"
     transform="matrix(0.05 0 0 0.05 11.9381 39.085)"
     font-style="normal"
     font-weight="normal"
     font-size="320px"
     font-family="Helvetica"
     id="text22">
click for more</text>
  <g
     id="goback"
     onclick="window.location.href = 'index.svg'"
     onmouseover="document.getElementById('goback-box').setAttribute('opacity','0.5');"
     onmouseout="document.getElementById('goback-box').setAttribute('opacity','1')">
    <path
       stroke="none"
       fill="#999999"
       transform="matrix(0.05 0 0 0.05 -10 -11)"
       d="M 395.9,1492.34 C 395.9,1492.34 395.9,1302.37 395.9,1302.37 C 395.9,1228.92 455.513,1169.31 528.955,1169.31 C 528.955,1169.31 1775.84,1169.31 1775.84,1169.31 C 1849.29,1169.31 1908.9,1228.92 1908.9,1302.37 C 1908.9,1302.37 1908.9,1492.34 1908.9,1492.34 C 1908.9,1565.79 1849.29,1625.4 1775.84,1625.4 C 1775.84,1625.4 528.955,1625.4 528.955,1625.4 C 455.513,1625.4 395.9,1565.79 395.9,1492.34 "
       id="goback-box" />
    <text
       x="0"
       y="0"
       stroke="none"
       fill="#000000"
       transform="matrix(0.05 0 0 0.05 29.3796 61.765)"
       font-style="normal"
       font-weight="bold"
       font-size="200px"
       font-family="Helvetica"
       id="gobacktext">
go home</text>
    <path
       stroke="#999999"
       stroke-width="1"
       transform="matrix(0.05 0 0 0.05 -10 -11)"
       d="M 395.9,1492.34 C 395.9,1492.34 395.9,1302.37 395.9,1302.37 C 395.9,1228.92 455.513,1169.31 528.955,1169.31 C 528.955,1169.31 1775.84,1169.31 1775.84,1169.31 C 1849.29,1169.31 1908.9,1228.92 1908.9,1302.37 C 1908.9,1302.37 1908.9,1492.34 1908.9,1492.34 C 1908.9,1565.79 1849.29,1625.4 1775.84,1625.4 C 1775.84,1625.4 528.955,1625.4 528.955,1625.4 C 455.513,1625.4 395.9,1565.79 395.9,1492.34 "
       onclick="window.location.href = 'index.svg'"
       style="opacity:0"
       id="goback-link" />
  </g>
  <g
     id="howdotheyreact"
     onclick="window.location.href = 'amides.svg'"
     onmouseover="document.getElementById('howdotheyreact-box').setAttribute('opacity','0.5');"
     onmouseout="document.getElementById('howdotheyreact-box').setAttribute('opacity','1')">
    <path
       stroke="none"
       fill="#999999"
       transform="matrix(0.05 0 0 0.05 -10 -11)"
       d="M 381.591,1996.7 C 381.591,1996.7 381.591,1806.72 381.591,1806.72 C 381.591,1733.28 441.204,1673.66 514.646,1673.66 C 514.646,1673.66 2149.06,1673.66 2149.06,1673.66 C 2222.51,1673.66 2282.12,1733.28 2282.12,1806.72 C 2282.12,1806.72 2282.12,1996.7 2282.12,1996.7 C 2282.12,2070.14 2222.51,2129.75 2149.06,2129.75 C 2149.06,2129.75 514.646,2129.75 514.646,2129.75 C 441.204,2129.75 381.591,2070.14 381.591,1996.7 "
       id="howdotheyreact-box" />
    <text
       x="0"
       y="0"
       stroke="none"
       fill="#000000"
       transform="matrix(0.05 0 0 0.05 12.2417 86.9826)"
       font-style="normal"
       font-weight="bold"
       font-size="200px"
       font-family="Helvetica"
       id="howdotheyreact-text">
how do they react?</text>
    <path
       stroke="#999999"
       stroke-width="1"
       transform="matrix(0.05 0 0 0.05 -10 -11)"
       d="M 381.591,1996.7 C 381.591,1996.7 381.591,1806.72 381.591,1806.72 C 381.591,1733.28 441.204,1673.66 514.646,1673.66 C 514.646,1673.66 2149.06,1673.66 2149.06,1673.66 C 2222.51,1673.66 2282.12,1733.28 2282.12,1806.72 C 2282.12,1806.72 2282.12,1996.7 2282.12,1996.7 C 2282.12,2070.14 2222.51,2129.75 2149.06,2129.75 C 2149.06,2129.75 514.646,2129.75 514.646,2129.75 C 441.204,2129.75 381.591,2070.14 381.591,1996.7 "
       style="opacity:0"
       id="howdotheyreact-link" />
  </g>
  <text
     x="524.90601"
     y="233.26601"
     stroke="none"
     fill="#0000ff"
     font-style="normal"
     font-weight="bold"
     font-size="14px"
     font-family="Helvetica"
     id="text27"
     style="stroke-width:0.05">amides</text>
  <text
     x="0"
     y="0"
     stroke="none"
     fill="#0000ff"
     transform="matrix(0.05 0 0 0.05 549.356 195.289)"
     font-style="normal"
     font-weight="bold"
     font-size="180px"
     font-family="Helvetica"
     id="text28">
NH</text>
  <path
     stroke="none"
     fill="#000000"
     transform="matrix(0.05 0 0 0.05 -10 -11)"
     d="M 11164.7,3995.23 L 11153.2,4014.21 L 10995.8,3918.27 L 10996.3,3892.6 L 11164.7,3995.23 Z "
     id="path28" />
  <path
     stroke="none"
     fill="#000000"
     transform="matrix(0.05 0 0 0.05 -10 -11)"
     d="M 10996.3,3892.6 L 10995.8,3918.27 L 10738.8,4060.43 L 10728.1,4041.01 L 10996.3,3892.6 Z "
     id="path29" />
  <text
     x="0"
     y="0"
     stroke="none"
     fill="#000000"
     transform="matrix(0.05 0 0 0.05 536.584 172.572)"
     font-style="normal"
     font-weight="bold"
     font-size="180px"
     font-family="Helvetica"
     id="text29">
O</text>
  <path
     stroke="none"
     fill="#000000"
     transform="matrix(0.05 0 0 0.05 -10 -11)"
     d="M 10978.8,3921.8 L 10956.6,3921.36 L 10960.9,3706.36 L 10983.1,3706.8 L 10978.8,3921.8 Z "
     id="path30" />
  <path
     stroke="none"
     fill="#000000"
     transform="matrix(0.05 0 0 0.05 -10 -11)"
     d="M 11034.2,3922.9 L 11012.1,3922.46 L 11016.3,3707.46 L 11038.5,3707.9 L 11034.2,3922.9 Z "
     id="path31" />
  <path
     stroke="none"
     fill="#0000ff"
     transform="matrix(0.05 0 0 0.05 -10 -11)"
     d="M 11241,4155.47 L 11263.2,4155.47 L 11262.5,4354.24 L 11252.1,4360.53 L 11241.7,4354.24 L 11241,4155.47 Z "
     id="path32" />
  <path
     stroke="none"
     fill="#0000ff"
     transform="matrix(0.05 0 0 0.05 -10 -11)"
     d="M 11241.7,4354.24 L 11252.1,4360.53 L 11252.1,4372.81 L 10998.3,4519.89 L 10987.2,4500.69 L 11241.7,4354.24 Z "
     id="path33" />
  <path
     stroke="none"
     fill="#0000ff"
     transform="matrix(0.05 0 0 0.05 -10 -11)"
     d="M 11252.1,4372.81 L 11252.1,4360.53 L 11262.5,4354.24 L 11517,4500.69 L 11506,4519.89 L 11252.1,4372.81 Z "
     id="path34" />
  <text
     x="0"
     y="0"
     stroke="none"
     fill="#000000"
     transform="matrix(0.05 0 0 0.05 417.816 305.074)"
     font-style="normal"
     font-weight="bold"
     font-size="200px"
     font-family="Helvetica"
     id="text53">
DCC</text>
  <text
     x="0"
     y="0"
     stroke="none"
     fill="#000000"
     transform="matrix(0.05 0 0 0.05 387.318 98.1999)"
     font-style="normal"
     font-weight="bold"
     font-size="160px"
     font-family="Helvetica"
     id="text54">
Et</text>
  <text
     x="0"
     y="0"
     stroke="none"
     fill="#000000"
     transform="matrix(0.05 0 0 0.05 395.318 100.04)"
     font-style="normal"
     font-weight="bold"
     font-size="120px"
     font-family="Helvetica"
     id="text55">
3</text>
  <text
     x="0"
     y="0"
     stroke="none"
     fill="#000000"
     transform="matrix(0.05 0 0 0.05 398.655 98.1999)"
     font-style="normal"
     font-weight="bold"
     font-size="160px"
     font-family="Helvetica"
     id="text56">
N </text>
  <text
     x="0"
     y="0"
     stroke="none"
     fill="#000000"
     transform="matrix(0.05 0 0 0.05 406.655 98.1999)"
     font-style="normal"
     font-weight="bold"
     font-size="160px"
     font-family="Helvetica"
     id="text57">
or </text>
  <text
     x="0"
     y="0"
     stroke="none"
     fill="#000000"
     transform="matrix(0.05 0 0 0.05 416.878 98.1999)"
     font-style="normal"
     font-weight="bold"
     font-size="160px"
     font-family="Helvetica"
     id="text58">
Py</text>
  <text
     x="0"
     y="0"
     stroke="none"
     fill="#000000"
     transform="matrix(0.05 0 0 0.05 418.418 234.766)"
     font-style="normal"
     font-weight="bold"
     font-size="200px"
     font-family="Helvetica"
     id="text59">
heat</text>
  <path
     stroke="none"
     fill="#000000"
     transform="matrix(0.05 0 0 0.05 -10 -11)"
     d="M 9080.5,1970.1 L 7650.5,1970.1 L 7650.5,1948.1 L 9080.5,1948.1 Z "
     id="path59" />
  <path
     stroke="none"
     fill="#000000"
     transform="matrix(0.05 0 0 0.05 -10 -11)"
     d="M 9069.5,6450.42 L 9069.5,1959.1 L 9091.5,1959.1 L 9091.5,6450.42 Z "
     id="path60" />
  <path
     stroke="none"
     fill="#000000"
     transform="matrix(0.05 0 0 0.05 -10 -11)"
     d="M 9080.5,3471.6 L 7650.5,3471.6 L 7650.5,3449.6 L 9080.5,3449.6 Z "
     id="path61" />
  <path
     stroke="none"
     fill="#000000"
     transform="matrix(0.05 0 0 0.05 -10 -11)"
     d="M 9080.5,5016 L 7650.5,5016 L 7650.5,4994 L 9080.5,4994 Z "
     id="path66" />
  <path
     stroke="none"
     fill="#000000"
     transform="matrix(0.05 0 0 0.05 -10 -11)"
     d="M 9080.5,6461.41 L 7650.5,6461.41 L 7650.5,6439.41 L 9080.5,6439.41 Z "
     id="path67" />
  <text
     x="0"
     y="0"
     stroke="none"
     fill="#000000"
     transform="matrix(0.05 0 0 0.05 394.558 214.594)"
     font-style="normal"
     font-weight="bold"
     font-size="180px"
     font-family="Helvetica"
     id="text73">
NH</text>
  <text
     x="0"
     y="0"
     stroke="none"
     fill="#000000"
     transform="matrix(0.05 0 0 0.05 407.557 216.664)"
     font-style="normal"
     font-weight="bold"
     font-size="135px"
     font-family="Helvetica"
     id="text74">
2</text>
  <path
     stroke="none"
     fill="#000000"
     transform="matrix(0.05 0 0 0.05 -10 -11)"
     d="M 8145.07,4541.57 L 8167.25,4541.57 L 8166.57,4740.34 L 8156.16,4746.63 L 8145.75,4740.34 L 8145.07,4541.57 Z "
     id="path74" />
  <path
     stroke="none"
     fill="#000000"
     transform="matrix(0.05 0 0 0.05 -10 -11)"
     d="M 8145.75,4740.34 L 8156.16,4746.63 L 8156.16,4758.91 L 7902.31,4905.99 L 7891.22,4886.79 L 8145.75,4740.34 Z "
     id="path75" />
  <path
     stroke="none"
     fill="#000000"
     transform="matrix(0.05 0 0 0.05 -10 -11)"
     d="M 8156.16,4758.91 L 8156.16,4746.63 L 8166.57,4740.34 L 8421.1,4886.79 L 8410.01,4905.99 L 8156.16,4758.91 Z "
     id="path76" />
  <text
     x="0"
     y="0"
     stroke="none"
     fill="#000000"
     transform="matrix(0.05 0 0 0.05 394.558 286.094)"
     font-style="normal"
     font-weight="bold"
     font-size="180px"
     font-family="Helvetica"
     id="text76">
NH</text>
  <text
     x="0"
     y="0"
     stroke="none"
     fill="#000000"
     transform="matrix(0.05 0 0 0.05 407.557 288.164)"
     font-style="normal"
     font-weight="bold"
     font-size="135px"
     font-family="Helvetica"
     id="text77">
2</text>
  <path
     stroke="none"
     fill="#000000"
     transform="matrix(0.05 0 0 0.05 -10 -11)"
     d="M 8145.07,5971.57 L 8167.25,5971.57 L 8166.57,6170.34 L 8156.16,6176.63 L 8145.75,6170.34 L 8145.07,5971.57 Z "
     id="path77" />
  <path
     stroke="none"
     fill="#000000"
     transform="matrix(0.05 0 0 0.05 -10 -11)"
     d="M 8145.75,6170.34 L 8156.16,6176.63 L 8156.16,6188.91 L 7902.31,6335.99 L 7891.22,6316.79 L 8145.75,6170.34 Z "
     id="path78" />
  <path
     stroke="none"
     fill="#000000"
     transform="matrix(0.05 0 0 0.05 -10 -11)"
     d="M 8156.16,6188.91 L 8156.16,6176.63 L 8166.57,6170.34 L 8421.1,6316.79 L 8410.01,6335.99 L 8156.16,6188.91 Z "
     id="path79" />
  <text
     x="0"
     y="0"
     stroke="none"
     fill="#000000"
     transform="matrix(0.05 0 0 0.05 403.496 60.8692)"
     font-style="normal"
     font-weight="bold"
     font-size="180px"
     font-family="Helvetica"
     id="text79">
NH</text>
  <text
     x="0"
     y="0"
     stroke="none"
     fill="#000000"
     transform="matrix(0.05 0 0 0.05 416.495 62.9391)"
     font-style="normal"
     font-weight="bold"
     font-size="135px"
     font-family="Helvetica"
     id="text80">
2</text>
  <path
     stroke="none"
     fill="#000000"
     transform="matrix(0.05 0 0 0.05 -10 -11)"
     d="M 8323.82,1467.07 L 8346,1467.07 L 8345.32,1665.84 L 8334.91,1672.13 L 8324.5,1665.84 L 8323.82,1467.07 Z "
     id="path80" />
  <path
     stroke="none"
     fill="#000000"
     transform="matrix(0.05 0 0 0.05 -10 -11)"
     d="M 8324.5,1665.84 L 8334.91,1672.13 L 8334.91,1684.41 L 8081.06,1831.49 L 8069.97,1812.29 L 8324.5,1665.84 Z "
     id="path81" />
  <path
     stroke="none"
     fill="#000000"
     transform="matrix(0.05 0 0 0.05 -10 -11)"
     d="M 8334.91,1684.41 L 8334.91,1672.13 L 8345.32,1665.84 L 8599.85,1812.29 L 8588.76,1831.49 L 8334.91,1684.41 Z "
     id="path82" />
  <text
     x="0"
     y="0"
     stroke="none"
     fill="#000000"
     transform="matrix(0.05 0 0 0.05 386.603 173.99)"
     font-style="normal"
     font-weight="bold"
     font-size="160px"
     font-family="Helvetica"
     id="text82">
Et</text>
  <text
     x="0"
     y="0"
     stroke="none"
     fill="#000000"
     transform="matrix(0.05 0 0 0.05 394.603 175.83)"
     font-style="normal"
     font-weight="bold"
     font-size="120px"
     font-family="Helvetica"
     id="text83">
3</text>
  <text
     x="0"
     y="0"
     stroke="none"
     fill="#000000"
     transform="matrix(0.05 0 0 0.05 397.94 173.99)"
     font-style="normal"
     font-weight="bold"
     font-size="160px"
     font-family="Helvetica"
     id="text84">
N </text>
  <text
     x="0"
     y="0"
     stroke="none"
     fill="#000000"
     transform="matrix(0.05 0 0 0.05 405.94 173.99)"
     font-style="normal"
     font-weight="bold"
     font-size="160px"
     font-family="Helvetica"
     id="text85">
or </text>
  <text
     x="0"
     y="0"
     stroke="none"
     fill="#000000"
     transform="matrix(0.05 0 0 0.05 416.163 173.99)"
     font-style="normal"
     font-weight="bold"
     font-size="160px"
     font-family="Helvetica"
     id="text86">
Py</text>
  <text
     x="0"
     y="0"
     stroke="none"
     fill="#000000"
     transform="matrix(0.05 0 0 0.05 402.781 136.659)"
     font-style="normal"
     font-weight="bold"
     font-size="180px"
     font-family="Helvetica"
     id="text87">
NH</text>
  <text
     x="0"
     y="0"
     stroke="none"
     fill="#000000"
     transform="matrix(0.05 0 0 0.05 415.78 138.729)"
     font-style="normal"
     font-weight="bold"
     font-size="135px"
     font-family="Helvetica"
     id="text88">
2</text>
  <path
     stroke="none"
     fill="#000000"
     transform="matrix(0.05 0 0 0.05 -10 -11)"
     d="M 8309.52,2982.87 L 8331.7,2982.87 L 8331.02,3181.64 L 8320.61,3187.93 L 8310.2,3181.64 L 8309.52,2982.87 Z "
     id="path88" />
  <path
     stroke="none"
     fill="#000000"
     transform="matrix(0.05 0 0 0.05 -10 -11)"
     d="M 8310.2,3181.64 L 8320.61,3187.93 L 8320.61,3200.21 L 8066.76,3347.29 L 8055.67,3328.09 L 8310.2,3181.64 Z "
     id="path89" />
  <path
     stroke="none"
     fill="#000000"
     transform="matrix(0.05 0 0 0.05 -10 -11)"
     d="M 8320.61,3200.21 L 8320.61,3187.93 L 8331.02,3181.64 L 8585.55,3328.09 L 8574.46,3347.29 L 8320.61,3200.21 Z "
     id="path90" />
  <path
     stroke="none"
     fill="#000000"
     transform="matrix(0.05 0 0 0.05 -10 -11)"
     d="M 10474.8,4215.76 L 9080.5,4215.76 L 9080.5,4193.76 L 10474.8,4193.76 Z "
     id="path91" />
  <path
     stroke="none"
     fill="#000000"
     transform="matrix(0.05 0 0 0.05 -10 -11)"
     d="M 10667.8,4204.76 C 10667.8,4204.76 10446,4261.2 10446,4261.2 C 10446,4261.2 10473.8,4229.45 10473.8,4204.76 C 10473.8,4179.63 10446,4147.32 10446,4147.32 C 10446,4147.32 10667.8,4204.76 10667.8,4204.76 C 10667.8,4204.76 10667.8,4204.76 10667.8,4204.76 "
     id="path92" />
  <path
     stroke="#000000"
     stroke-width="1"
     fill="none"
     transform="matrix(0.05 0 0 0.05 -10 -11)"
     d="M 10667.8,4204.76 C 10667.8,4204.76 10446,4261.2 10446,4261.2 C 10446,4261.2 10473.8,4229.45 10473.8,4204.76 C 10473.8,4179.63 10446,4147.32 10446,4147.32 C 10446,4147.32 10667.8,4204.76 10667.8,4204.76 C 10667.8,4204.76 10667.8,4204.76 10667.8,4204.76 "
     id="path93" />
  <path
     stroke="none"
     fill="#999999"
     transform="matrix(0.05 0 0 0.05 -10 -11)"
     d="M 5884.46,7718.7 L 5419.7,7718.7 L 5419.7,7696.7 L 5884.46,7696.7 Z "
     id="path98" />
  <path
     stroke="none"
     fill="#999999"
     transform="matrix(0.05 0 0 0.05 -10 -11)"
     d="M 6077.5,7707.7 C 6077.5,7707.7 5855.74,7764.14 5855.74,7764.14 C 5855.74,7764.14 5883.46,7732.39 5883.46,7707.7 C 5883.46,7682.57 5855.74,7650.26 5855.74,7650.26 C 5855.74,7650.26 6077.5,7707.7 6077.5,7707.7 C 6077.5,7707.7 6077.5,7707.7 6077.5,7707.7 "
     id="path99" />
  <path
     stroke="#999999"
     stroke-width="1"
     fill="none"
     transform="matrix(0.05 0 0 0.05 -10 -11)"
     d="M 6077.5,7707.7 C 6077.5,7707.7 5855.74,7764.14 5855.74,7764.14 C 5855.74,7764.14 5883.46,7732.39 5883.46,7707.7 C 5883.46,7682.57 5855.74,7650.26 5855.74,7650.26 C 5855.74,7650.26 6077.5,7707.7 6077.5,7707.7 C 6077.5,7707.7 6077.5,7707.7 6077.5,7707.7 "
     id="path100" />
  <text
     x="0"
     y="0"
     stroke="none"
     fill="#999999"
     transform="matrix(0.05 0 0 0.05 272.293 346.154)"
     font-style="normal"
     font-weight="bold"
     font-size="180px"
     font-family="Helvetica"
     id="text100">
NH</text>
  <text
     x="0"
     y="0"
     stroke="none"
     fill="#999999"
     transform="matrix(0.05 0 0 0.05 285.292 348.224)"
     font-style="normal"
     font-weight="bold"
     font-size="135px"
     font-family="Helvetica"
     id="text101">
2</text>
  <path
     stroke="none"
     fill="#999999"
     transform="matrix(0.05 0 0 0.05 -10 -11)"
     d="M 5699.77,7172.77 L 5721.95,7172.77 L 5721.27,7371.54 L 5710.86,7377.83 L 5700.45,7371.54 L 5699.77,7172.77 Z "
     id="path101" />
  <path
     stroke="none"
     fill="#999999"
     transform="matrix(0.05 0 0 0.05 -10 -11)"
     d="M 5700.45,7371.54 L 5710.86,7377.83 L 5710.86,7390.11 L 5457.01,7537.19 L 5445.92,7517.99 L 5700.45,7371.54 Z "
     id="path102" />
  <path
     stroke="none"
     fill="#999999"
     transform="matrix(0.05 0 0 0.05 -10 -11)"
     d="M 5710.86,7390.11 L 5710.86,7377.83 L 5721.27,7371.54 L 5975.8,7517.99 L 5964.71,7537.19 L 5710.86,7390.11 Z "
     id="path103" />
  <path
     stroke="none"
     fill="#999999"
     transform="matrix(0.05 0 0 0.05 -10 -11)"
     d="M 9080.5,7576.81 L 7650.5,7576.81 L 7650.5,7554.81 L 9080.5,7554.81 Z "
     id="path111" />
  <path
     stroke="none"
     fill="#999999"
     transform="matrix(0.05 0 0 0.05 -10 -11)"
     d="M 9091.5,6450.42 L 9091.5,7565.82 L 9069.5,7565.82 L 9069.5,6450.42 Z "
     id="path112" />
  <text
     x="0"
     y="0"
     stroke="none"
     fill="#999999"
     transform="matrix(0.05 0 0 0.05 394.823 361.321)"
     font-style="normal"
     font-weight="bold"
     font-size="200px"
     font-family="Helvetica"
     id="text112">
heat</text>
  <path
     stroke="none"
     fill="#ffffff"
     opacity="0"
     onclick="window.location.href = 'amides.svg'"
     d="m 578.90673,237.79731 c 0,0 0,-75.37904 0,-75.37904 0,0 -57.87788,0 -57.87788,0 0,0 0,75.37904 0,75.37904 0,0 57.87788,0 57.87788,0"
     id="path15-7"
     inkscape:label="l-amides"
     style="opacity:0;stroke-width:0.0825893" />
  <path
     stroke="none"
     fill="#ffffff"
     opacity="0"
     onclick="window.location.href = 'supplement.svg'"
     d="m 430.44519,102.13866 c 0,0 0,-12.90308 0,-12.90308 0,0 -45.71442,0 -45.71442,0 0,0 0,12.90308 0,12.90308 0,0 45.71442,0 45.71442,0"
     id="path15-7-1"
     inkscape:label="l-supplement"
     style="opacity:0;stroke-width:0.0303679" />
  <path
     stroke="none"
     fill="#ffffff"
     opacity="0"
     onclick="window.location.href = 'supplement.svg'"
     d="m 429.42115,179.01366 c 0,0 0,-12.90308 0,-12.90308 0,0 -45.71442,0 -45.71442,0 0,0 0,12.90308 0,12.90308 0,0 45.71442,0 45.71442,0"
     id="path15-7-1-6"
     inkscape:label="l-supplement"
     style="opacity:0;stroke-width:0.0303679" />
  <path
     stroke="none"
     fill="#ffffff"
     opacity="0"
     onclick="window.location.href = 'supplement.svg'"
     d="m 443.39711,308.43193 c 0,0 0,-12.3502 0,-12.3502 0,0 -28.02211,0 -28.02211,0 0,0 0,12.3502 0,12.3502 0,0 28.02211,0 28.02211,0"
     id="path15-7-1-3"
     inkscape:label="l-supplement"
     style="opacity:0;stroke-width:0.023261" />
  <path
     stroke="none"
     fill="#ffffff"
     opacity="0"
     onclick="window.location.href = 'toamines.svg'"
     d="m 427.62789,84.465586 c 0,0 0,-33.912695 0,-33.912695 0,0 -36.86827,0 -36.86827,0 0,0 0,33.912695 0,33.912695 0,0 36.86827,0 36.86827,0"
     id="path15-7-1-4"
     inkscape:label="l-supplement"
     style="opacity:0;stroke-width:0.0442129" />
  <path
     stroke="none"
     fill="#ffffff"
     opacity="0"
     onclick="window.location.href = 'toamines.svg'"
     d="m 426.81058,159.99923 c 0,0 0,-33.91269 0,-33.91269 0,0 -36.86827,0 -36.86827,0 0,0 0,33.91269 0,33.91269 0,0 36.86827,0 36.86827,0"
     id="path15-7-1-4-3"
     inkscape:label="l-supplement"
     style="opacity:0;stroke-width:0.0442129" />
  <path
     stroke="none"
     fill="#ffffff"
     opacity="0"
     onclick="window.location.href = 'toamines.svg'"
     d="m 417.32981,237.86942 c 0,0 0,-33.91269 0,-33.91269 0,0 -36.86827,0 -36.86827,0 0,0 0,33.91269 0,33.91269 0,0 36.86827,0 36.86827,0"
     id="path15-7-1-4-0"
     inkscape:label="l-supplement"
     style="opacity:0;stroke-width:0.0442129" />
  <path
     stroke="none"
     fill="#ffffff"
     opacity="0"
     onclick="window.location.href = 'toamines.svg'"
     d="m 413.66154,309.05693 c 0,0 0,-33.9127 0,-33.9127 0,0 -36.86827,0 -36.86827,0 0,0 0,33.9127 0,33.9127 0,0 36.86827,0 36.86827,0"
     id="path15-7-1-4-7"
     inkscape:label="l-supplement"
     style="opacity:0;stroke-width:0.0442129" />
  <path
     stroke="none"
     fill="#ffffff"
     opacity="0"
     onclick="window.location.href = 'toamines.svg'"
     d="m 294.09424,370.73001 c 0,0 0,-33.9127 0,-33.9127 0,0 -36.86827,0 -36.86827,0 0,0 0,33.9127 0,33.9127 0,0 36.86827,0 36.86827,0"
     id="path15-7-1-4-75"
     inkscape:label="l-supplement"
     style="opacity:0;stroke-width:0.0442129" />
  <g
     id="nostructures"
     onclick="window.location.href = 'toamides.svg'"
     transform="matrix(0.87844457,0,0,1,-3.2995176,381.05692)">
    <text
       x="18.000504"
       y="55.14151"
       stroke="none"
       fill="#000000"
       font-style="normal"
       font-weight="bold"
       font-size="200px"
       font-family="Helvetica"
       id="gobacktext-7"
       style="font-style:normal;font-variant:normal;font-weight:bold;font-stretch:normal;font-size:10px;font-family:Helvetica;-inkscape-font-specification:'Helvetica, Bold';font-variant-ligatures:normal;font-variant-caps:normal;font-variant-numeric:normal;font-variant-east-asian:normal;fill:#0088d0;fill-opacity:0.68;stroke:none;stroke-width:0.05"
       inkscape:label="noreagents-text"><tspan
         sodipodi:role="line"
         id="tspan1"
         x="18.000504"
         y="55.14151">show</tspan></text>
    <path
       stroke="none"
       fill="#999999"
       d="m 9.795,54.694678 c 0,0 0,-5.427567 0,-5.427567 0,-2.098514 1.679048,-3.801611 3.747601,-3.801611 0,0 35.119514,0 35.119514,0 2.068778,0 3.747742,1.703097 3.747742,3.801611 0,0 0,5.427567 0,5.427567 0,2.098514 -1.678964,3.801611 -3.747742,3.801611 0,0 -35.119514,0 -35.119514,0 -2.068553,0 -3.747601,-1.703097 -3.747601,-3.801611"
       id="goback-box-8"
       style="fill:#999999;fill-opacity:0.336842;stroke-width:0.0283675"
       inkscape:label="noreagents-box" />
  </g>
  <g
     id="noreagents"
     onclick="window.location.href = 'toamides-noreagents.svg'"
     transform="translate(-4.6856272,382.9067)">
    <text
       x="11.541888"
       y="67.610527"
       stroke="none"
       fill="#000000"
       font-style="normal"
       font-weight="bold"
       font-size="200px"
       font-family="Helvetica"
       id="gobacktext-7-8"
       style="font-style:normal;font-weight:bold;font-size:10px;font-family:Helvetica;fill:#000000;fill-opacity:0.443609;stroke:none;stroke-width:0.05"
       inkscape:label="noproducts-text"><tspan
         sodipodi:role="line"
         id="tspan2-5"
         x="11.541888"
         y="67.610527"
         style="font-style:normal;font-variant:normal;font-weight:bold;font-stretch:normal;font-size:8px;font-family:Helvetica;-inkscape-font-specification:'Helvetica, Bold';font-variant-ligatures:normal;font-variant-caps:normal;font-variant-numeric:normal;font-variant-east-asian:normal;fill:#000000;fill-opacity:0.5;stroke-width:0.05">reagents</tspan></text>
    <rect
       style="fill:#000000;fill-opacity:0.821053;fill-rule:evenodd;stroke:#a13033;stroke-width:0;stroke-linecap:round;stroke-miterlimit:2;stroke-dasharray:none;paint-order:markers fill stroke"
       id="rect3-9"
       width="31.666824"
       height="0.9773711"
       x="12.566371"
       y="64.987999"
       inkscape:label="noproducts-line" />
    <path
       stroke="none"
       fill="#999999"
       d="m 10.136392,68.163695 c 0,0 0,-5.427567 0,-5.427567 0,-2.098514 1.463398,-3.801611 3.266274,-3.801611 0,0 30.608907,0 30.608907,0 1.803073,0 3.266397,1.703097 3.266397,3.801611 0,0 0,5.427567 0,5.427567 0,2.098514 -1.463324,3.801611 -3.266397,3.801611 0,0 -30.608907,0 -30.608907,0 -1.802876,0 -3.266274,-1.703097 -3.266274,-3.801611"
       id="goback-box-8-6"
       style="fill:#999999;fill-opacity:0.336842;stroke-width:0.0264832"
       inkscape:label="noproducts-box" />
  </g>
  <text
     x="822.84332"
     y="415.79849"
     stroke="none"
     fill="#000000"
     transform="matrix(0.92407999,-0.00322566,0.00377741,1.0821442,0,0)"
     font-style="italic"
     font-weight="bold"
     font-size="8.25806px"
     font-family="'Helvetica Oblique'"
     id="text11"
     style="opacity:1;fill:#00009a;fill-opacity:0.651128;stroke-width:0.0412903">chemisfun</text>
  <g
     id="overlay-box"
     style="opacity:0"
     transform="matrix(0.31364504,0,0,0.8007311,650.50736,385.81436)">
    <rect
       style="fill:#609975;fill-opacity:0.2;stroke:#609970;stroke-width:0;stroke-linecap:round;stroke-opacity:0.657143;paint-order:fill markers stroke"
       id="rect285"
       width="164.84744"
       height="59.583412"
       x="329.69489"
       y="23.171328" />
  </g>
  <g
     id="overlay"
     onclick="window.location.href = 'about.svg'"
     onmouseover="this.ownerDocument.getElementById('overlay-box').style.opacity='0.5'"
     onmouseout="this.ownerDocument.getElementById('overlay-box').style.opacity='0'"
     transform="matrix(0.76550767,-0.0030054,0.00267214,0.86098131,195.61318,22.784653)">
    <rect
       style="opacity:0.5;fill:#ffffff;fill-opacity:0;stroke-linecap:round;stroke-opacity:0.657143;paint-order:stroke fill markers"
       id="rect2"
       width="65.93074"
       height="55.035408"
       x="733.06049"
       y="445.87061" />
  </g>
  <g
     id="g1"
     transform="matrix(0.0625,0,0,0.0625,764.65732,406.62566)">
    <rect
       x="239.31"
       y="120.321"
       style="fill:#444242"
       width="33.389"
       height="139.98"
       id="rect1" />
    <rect
       x="256"
       y="120.321"
       style="fill:#3a3839"
       width="16.695"
       height="139.98"
       id="rect2-2" />
    <rect
       x="132.194"
       y="305.86301"
       transform="matrix(0.5,0.866,-0.866,0.5,399.932,58.9793)"
       style="fill:#444242"
       width="33.387001"
       height="139.967"
       id="rect4" />
    <rect
       x="293.125"
       y="359.13"
       transform="matrix(0.866,0.5,-0.5,0.866,236.5654,-131.205)"
       style="fill:#3a3839"
       width="139.967"
       height="33.387001"
       id="rect5" />
    <path
       style="background-color:#ffffff00;fill:#439de2;fill-opacity:1"
       d="m 456.843,485.07 c -9.538,0 -18.951,-2.501 -27.432,-7.398 v 0 c -12.733,-7.351 -21.842,-19.221 -25.646,-33.424 -3.805,-14.201 -1.853,-29.035 5.499,-41.769 7.351,-12.732 19.221,-21.841 33.424,-25.646 14.201,-3.806 29.034,-1.853 41.769,5.499 12.732,7.351 21.841,19.221 25.646,33.424 3.805,14.202 1.853,29.035 -5.499,41.769 -7.351,12.733 -19.221,21.842 -33.424,25.646 -4.742,1.27 -9.557,1.899 -14.337,1.899 z"
       id="path7-3" />
    <path
       style="background-color:#ffffff00;fill:#eda74a;fill-opacity:1"
       d="m 256.001,137.021 c -30.352,0 -55.044,-24.693 -55.044,-55.044 0,-30.351 24.693,-55.044 55.044,-55.044 30.351,0 55.044,24.693 55.044,55.044 0,30.351 -24.693,55.044 -55.044,55.044 z"
       id="path5-4" />
    <path
       style="background-color:#ffffff00;fill:#53acb1;fill-opacity:1"
       d="m 55.158,485.07 c -4.781,0 -9.594,-0.629 -14.336,-1.9 C 26.619,479.365 14.75,470.256 7.398,457.524 0.046,444.792 -1.906,429.957 1.899,415.755 c 3.805,-14.203 12.914,-26.072 25.646,-33.424 12.731,-7.352 27.567,-9.304 41.769,-5.499 14.203,3.805 26.072,12.914 33.424,25.646 7.352,12.732 9.304,27.567 5.499,41.769 -3.805,14.203 -12.914,26.072 -25.646,33.424 -8.481,4.897 -17.896,7.399 -27.433,7.399 z"
       id="path6-7" />
    <path
       style="fill:#f74d37"
       d="m 256.001,384.379 c -38.81,0 -70.384,-31.575 -70.384,-70.384 0,-38.809 31.575,-70.384 70.384,-70.384 38.809,0 70.384,31.575 70.384,70.384 0,38.809 -31.575,70.384 -70.384,70.384 z"
       id="path4-9" />
  </g>
</svg>
