<?xml version="1.0" encoding="UTF-8" standalone="no"?>
<svg
   width="100%"
   height="100%"
   viewBox="0 0 818 460"
   style="background-color: #ffffff00"
   version="1.1"
   id="svg42"
   sodipodi:docname="toazides-noreactants-o1.svg"
   inkscape:version="1.4.2 (ebf0e940, 2025-05-08)"
   xmlns:inkscape="http://www.inkscape.org/namespaces/inkscape"
   xmlns:sodipodi="http://sodipodi.sourceforge.net/DTD/sodipodi-0.dtd"
   xmlns="http://www.w3.org/2000/svg"
   xmlns:svg="http://www.w3.org/2000/svg">
  <path
     stroke="#ffffff"
     stroke-width="1"
     fill="none"
     transform="matrix(0.05 0 0 0.05 -10 -11)"
     d="M 8576.8,3961.8 C 8576.8,3961.8 8576.8,3165.6 8576.8,3165.6 C 8576.8,3165.6 7652.8,3165.6 7652.8,3165.6 C 7652.8,3165.6 7652.8,3961.8 7652.8,3961.8 C 7652.8,3961.8 8576.8,3961.8 8576.8,3961.8 "
     id="path2" />
  <path
     stroke="#000000"
     stroke-width="22"
     fill="none"
     transform="matrix(0.05 0 0 0.05 -10 -11)"
     d="M 16494.7,9367.47 C 16494.7,9367.47 16494.7,284.602 16494.7,284.602 C 16494.7,284.602 268.683,284.602 268.683,284.602 C 268.683,284.602 268.683,9367.47 268.683,9367.47 C 268.683,9367.47 16494.7,9367.47 16494.7,9367.47 "
     id="path5" />
  <text
     x="0"
     y="0"
     stroke="none"
     fill="#000000"
     transform="matrix(0.05 0 0 0.05 11.735 21.13)"
     font-style="normal"
     font-weight="bold"
     font-size="320px"
     font-family="Helvetica"
     id="text5">
Preparation of Azides</text>
  <text
     x="0"
     y="0"
     stroke="none"
     fill="#999999"
     transform="matrix(0.05 0 0 0.05 11.9381 39.085)"
     font-style="normal"
     font-weight="normal"
     font-size="320px"
     font-family="Helvetica"
     id="text8">
click for more</text>
  <g
     id="goback"
     onclick="window.location.href = 'index-o1.svg'"
     onmouseover="document.getElementById('goback-box').setAttribute('opacity','0.5');"
     onmouseout="document.getElementById('goback-box').setAttribute('opacity','1')">
    <path
       stroke="none"
       fill="#999999"
       transform="matrix(0.05 0 0 0.05 -10 -11)"
       d="M 395.9,1492.34 C 395.9,1492.34 395.9,1302.37 395.9,1302.37 C 395.9,1228.92 455.513,1169.31 528.955,1169.31 C 528.955,1169.31 1775.84,1169.31 1775.84,1169.31 C 1849.29,1169.31 1908.9,1228.92 1908.9,1302.37 C 1908.9,1302.37 1908.9,1492.34 1908.9,1492.34 C 1908.9,1565.79 1849.29,1625.4 1775.84,1625.4 C 1775.84,1625.4 528.955,1625.4 528.955,1625.4 C 455.513,1625.4 395.9,1565.79 395.9,1492.34 "
       id="goback-box" />
    <text
       x="0"
       y="0"
       stroke="none"
       fill="#000000"
       transform="matrix(0.05 0 0 0.05 29.3796 61.765)"
       font-style="normal"
       font-weight="bold"
       font-size="200px"
       font-family="Helvetica"
       id="gobacktext">
go home</text>
    <path
       stroke="#999999"
       stroke-width="1"
       transform="matrix(0.05 0 0 0.05 -10 -11)"
       d="M 395.9,1492.34 C 395.9,1492.34 395.9,1302.37 395.9,1302.37 C 395.9,1228.92 455.513,1169.31 528.955,1169.31 C 528.955,1169.31 1775.84,1169.31 1775.84,1169.31 C 1849.29,1169.31 1908.9,1228.92 1908.9,1302.37 C 1908.9,1302.37 1908.9,1492.34 1908.9,1492.34 C 1908.9,1565.79 1849.29,1625.4 1775.84,1625.4 C 1775.84,1625.4 528.955,1625.4 528.955,1625.4 C 455.513,1625.4 395.9,1565.79 395.9,1492.34 "
       onclick="window.location.href = 'index-o1.svg'"
       style="opacity:0"
       id="goback-link" />
  </g>
  <g
     id="howdotheyreact"
     onclick="window.location.href = 'azides-o1.svg'"
     onmouseover="document.getElementById('howdotheyreact-box').setAttribute('opacity','0.5');"
     onmouseout="document.getElementById('howdotheyreact-box').setAttribute('opacity','1')">
    <path
       stroke="none"
       fill="#999999"
       transform="matrix(0.05 0 0 0.05 -10 -11)"
       d="M 381.591,1996.7 C 381.591,1996.7 381.591,1806.72 381.591,1806.72 C 381.591,1733.28 441.204,1673.66 514.646,1673.66 C 514.646,1673.66 2149.06,1673.66 2149.06,1673.66 C 2222.51,1673.66 2282.12,1733.28 2282.12,1806.72 C 2282.12,1806.72 2282.12,1996.7 2282.12,1996.7 C 2282.12,2070.14 2222.51,2129.75 2149.06,2129.75 C 2149.06,2129.75 514.646,2129.75 514.646,2129.75 C 441.204,2129.75 381.591,2070.14 381.591,1996.7 "
       id="howdotheyreact-box" />
    <text
       x="0"
       y="0"
       stroke="none"
       fill="#000000"
       transform="matrix(0.05 0 0 0.05 12.2417 86.9826)"
       font-style="normal"
       font-weight="bold"
       font-size="200px"
       font-family="Helvetica"
       id="howdotheyreact-text">
how do they react?</text>
    <path
       stroke="#999999"
       stroke-width="1"
       transform="matrix(0.05 0 0 0.05 -10 -11)"
       d="M 381.591,1996.7 C 381.591,1996.7 381.591,1806.72 381.591,1806.72 C 381.591,1733.28 441.204,1673.66 514.646,1673.66 C 514.646,1673.66 2149.06,1673.66 2149.06,1673.66 C 2222.51,1673.66 2282.12,1733.28 2282.12,1806.72 C 2282.12,1806.72 2282.12,1996.7 2282.12,1996.7 C 2282.12,2070.14 2222.51,2129.75 2149.06,2129.75 C 2149.06,2129.75 514.646,2129.75 514.646,2129.75 C 441.204,2129.75 381.591,2070.14 381.591,1996.7 "
       style="opacity:0"
       id="howdotheyreact-link" />
  </g>
  <path
     stroke="none"
     fill="#000000"
     transform="matrix(0.05 0 0 0.05 -10 -11)"
     d="M 8068.92,4649.16 L 8068.92,4075.4 L 8090.92,4075.4 L 8090.92,4649.16 Z "
     id="path12" />
  <path
     stroke="none"
     fill="#000000"
     transform="matrix(0.05 0 0 0.05 -10 -11)"
     d="M 8079.92,4842.2 C 8079.92,4842.2 8022.48,4620.44 8022.48,4620.44 C 8022.48,4620.44 8054.79,4648.16 8079.92,4648.16 C 8104.61,4648.16 8136.36,4620.44 8136.36,4620.44 C 8136.36,4620.44 8079.92,4842.2 8079.92,4842.2 C 8079.92,4842.2 8079.92,4842.2 8079.92,4842.2 "
     id="path13" />
  <path
     stroke="#000000"
     stroke-width="1"
     fill="none"
     transform="matrix(0.05 0 0 0.05 -10 -11)"
     d="M 8079.92,4842.2 C 8079.92,4842.2 8022.48,4620.44 8022.48,4620.44 C 8022.48,4620.44 8054.79,4648.16 8079.92,4648.16 C 8104.61,4648.16 8136.36,4620.44 8136.36,4620.44 C 8136.36,4620.44 8079.92,4842.2 8079.92,4842.2 C 8079.92,4842.2 8079.92,4842.2 8079.92,4842.2 "
     id="path14" />
  <text
     x="324.20801"
     y="259.01099"
     stroke="none"
     fill="#0000ff"
     font-style="normal"
     font-weight="bold"
     font-size="14px"
     font-family="Helvetica"
     id="text14"
     style="stroke-width:0.05">azides</text>
  <path
     stroke="none"
     fill="#000000"
     transform="matrix(0.05 0 0 0.05 -10 -11)"
     d="M 7811.91,5053.2 L 7823,5033.99 L 8076.85,5181.08 L 8076.85,5193.35 L 8066.45,5199.65 L 7811.91,5053.2 Z "
     id="path15" />
  <path
     stroke="none"
     fill="#000000"
     transform="matrix(0.05 0 0 0.05 -10 -11)"
     d="M 8087.25,5199.65 L 8076.85,5193.35 L 8076.85,5181.08 L 8330.7,5033.99 L 8341.79,5053.2 L 8087.25,5199.65 Z "
     id="path16" />
  <text
     x="0"
     y="0"
     stroke="none"
     fill="#0000ff"
     transform="matrix(0.05 0 0 0.05 390.593 266.882)"
     font-style="normal"
     font-weight="bold"
     font-size="180px"
     font-family="Helvetica"
     id="text16">
N</text>
  <path
     stroke="none"
     fill="#000000"
     transform="matrix(0.05 0 0 0.05 -10 -11)"
     d="M 8066.45,5199.65 L 8076.85,5193.35 L 8087.25,5199.65 L 8087.94,5396.86 L 8065.76,5396.86 L 8066.45,5199.65 Z "
     id="path17" />
  <text
     x="0"
     y="0"
     stroke="none"
     fill="#0000ff"
     transform="matrix(0.05 0 0 0.05 403.54 274.357)"
     font-style="normal"
     font-weight="bold"
     font-size="180px"
     font-family="Helvetica"
     id="text17">
N</text>
  <path
     stroke="none"
     fill="#0000ff"
     transform="matrix(0.05 0 0 0.05 -10 -11)"
     d="M 8164.51,5556.29 L 8175.6,5537.08 L 8246.81,5578.19 L 8235.72,5597.4 L 8164.51,5556.29 Z "
     id="path18" />
  <text
     x="0"
     y="0"
     stroke="none"
     fill="#0000ff"
     transform="matrix(0.05 0 0 0.05 416.487 281.832)"
     font-style="normal"
     font-weight="bold"
     font-size="180px"
     font-family="Helvetica"
     id="text18">
N</text>
  <path
     stroke="none"
     fill="#0000ff"
     transform="matrix(0.05 0 0 0.05 -10 -11)"
     d="M 8451.17,5657.78 L 8462.26,5638.57 L 8533.47,5679.68 L 8522.38,5698.89 L 8451.17,5657.78 Z "
     id="path19" />
  <path
     stroke="none"
     fill="#0000ff"
     transform="matrix(0.05 0 0 0.05 -10 -11)"
     d="M 8423.45,5705.79 L 8434.54,5686.58 L 8505.75,5727.69 L 8494.66,5746.9 L 8423.45,5705.79 Z "
     id="path20" />
  <path
     stroke="none"
     fill="#0000ff"
     transform="matrix(0.05 0 0 0.05 -10 -11)"
     d="M 8395.73,5753.8 L 8406.82,5734.6 L 8478.03,5775.71 L 8466.94,5794.91 L 8395.73,5753.8 Z "
     id="path21" />
  <path
     stroke="#0000ff"
     stroke-width="18"
     fill="none"
     transform="matrix(0.05 0 0 0.05 -10 -11)"
     d="M 8398.23,5511.95 A 68.8704,68.8704 0 1 0 8535.97,5511.95A 68.8704,68.8704 0 1 0 8398.23,5511.95Z "
     id="path22" />
  <path
     stroke="none"
     fill="#0000ff"
     transform="matrix(0.05 0 0 0.05 -10 -11)"
     d="M 8426.01,5502.95 L 8508.19,5502.95 L 8508.19,5520.95 L 8426.01,5520.95 Z "
     id="path23" />
  <path
     stroke="none"
     fill="#0000ff"
     transform="matrix(0.05 0 0 0.05 -10 -11)"
     d="M 8476.1,5470.86 L 8476.1,5553.03 L 8458.1,5553.03 L 8458.1,5470.86 Z "
     id="path24" />
  <path
     stroke="#0000ff"
     stroke-width="18"
     fill="none"
     transform="matrix(0.05 0 0 0.05 -10 -11)"
     d="M 8139.29,5362.45 A 68.8704,68.8704 0 1 0 8277.03,5362.45A 68.8704,68.8704 0 1 0 8139.29,5362.45Z "
     id="path25" />
  <path
     stroke="none"
     fill="#0000ff"
     transform="matrix(0.05 0 0 0.05 -10 -11)"
     d="M 8167.07,5353.45 L 8249.24,5353.45 L 8249.24,5371.45 L 8167.07,5371.45 Z "
     id="path26" />
  <path
     stroke="none"
     fill="#000000"
     transform="matrix(0.05 0 0 0.05 -10 -11)"
     d="M 9004.71,5138.4 L 9015.8,5119.19 L 9269.65,5266.28 L 9269.65,5278.55 L 9259.25,5284.85 L 9004.71,5138.4 Z "
     id="path27" />
  <text
     x="0"
     y="0"
     stroke="none"
     fill="#0000ff"
     transform="matrix(0.05 0 0 0.05 450.233 271.142)"
     font-style="normal"
     font-weight="bold"
     font-size="180px"
     font-family="Helvetica"
     id="text27">
N</text>
  <text
     x="0"
     y="0"
     stroke="none"
     fill="#0000ff"
     transform="matrix(0.05 0 0 0.05 456.732 273.212)"
     font-style="normal"
     font-weight="bold"
     font-size="135px"
     font-family="Helvetica"
     id="text28">
3</text>
  <path
     stroke="none"
     fill="#000000"
     transform="matrix(0.05 0 0 0.05 -10 -11)"
     d="M 9259.25,5284.85 L 9269.65,5278.55 L 9280.05,5284.85 L 9280.74,5482.06 L 9258.56,5482.06 L 9259.25,5284.85 Z "
     id="path28" />
  <path
     stroke="none"
     fill="#000000"
     transform="matrix(0.05 0 0 0.05 -10 -11)"
     d="M 9280.05,5284.85 L 9269.65,5278.55 L 9269.65,5266.28 L 9523.5,5119.19 L 9534.59,5138.4 L 9280.05,5284.85 Z "
     id="path29" />
  <path
     stroke="#000000"
     stroke-width="22"
     fill="none"
     transform="matrix(0.05 0 0 0.05 -10 -11)"
     d="M 9635.38,5747.69 A 724.2,724.2 0 0 0 9648.02,5023.6"
     id="path30" />
  <path
     stroke="#000000"
     stroke-width="22"
     fill="none"
     transform="matrix(0.05 0 0 0.05 -10 -11)"
     d="M 8903.4,5012.6 A 724.2,724.2 0 0 0 8903.4,5736.8"
     id="path31" />
  <text
     x="0"
     y="0"
     stroke="none"
     fill="#000000"
     transform="matrix(0.05 0 0 0.05 399.625 208.54)"
     font-style="normal"
     font-weight="bold"
     font-size="200px"
     font-family="Helvetica"
     id="text34">
NaN</text>
  <text
     x="0"
     y="0"
     stroke="none"
     fill="#000000"
     transform="matrix(0.05 0 0 0.05 419.63 210.84)"
     font-style="normal"
     font-weight="bold"
     font-size="150px"
     font-family="Helvetica"
     id="text35">
3</text>
  <path
     stroke="none"
     fill="#ffffff"
     opacity="0"
     onclick="window.location.href = 'tohalides-o1.svg'"
     transform="matrix(0.05 0 0 0.05 -10 -11)"
     d="M 8576.8,3961.8 C 8576.8,3961.8 8576.8,3165.6 8576.8,3165.6 C 8576.8,3165.6 7652.8,3165.6 7652.8,3165.6 C 7652.8,3165.6 7652.8,3961.8 7652.8,3961.8 C 7652.8,3961.8 8576.8,3961.8 8576.8,3961.8 "
     id="path1"
     inkscape:label="l-tohalides" />
  <path
     stroke="none"
     fill="#ffffff"
     opacity="0"
     onclick="window.location.href = 'azides-o1.svg'"
     d="m 481.9294,289.12727 c 0,0 0,-56.22983 0,-56.22983 0,0 -162.70264,0 -162.70264,0 0,0 0,56.22983 0,56.22983 0,0 162.70264,0 162.70264,0"
     id="path1-4"
     inkscape:label="azides"
     style="opacity:0;stroke-width:0.111515" />
  <path
     stroke="none"
     fill="#ffffff"
     opacity="0"
     onclick="window.location.href = 'supplement-o1.svg'"
     d="m 428.62079,216.22983 c 0,0 0,-21.04447 0,-21.04447 0,0 -32.12586,0 -32.12586,0 0,0 0,21.04447 0,21.04447 0,0 32.12586,0 32.12586,0"
     id="path1-4-6"
     inkscape:label="l-supplement"
     style="opacity:0;stroke-width:0.0303144" />
  <g
     id="nostructures"
     onclick="window.location.href = 'toazides-o1.svg'"
     transform="matrix(0.87844457,0,0,1,-3.2995176,381.05692)">
    <text
       x="18.000504"
       y="55.14151"
       stroke="none"
       fill="#000000"
       font-style="normal"
       font-weight="bold"
       font-size="200px"
       font-family="Helvetica"
       id="gobacktext-7"
       style="font-style:normal;font-variant:normal;font-weight:bold;font-stretch:normal;font-size:10px;font-family:Helvetica;-inkscape-font-specification:'Helvetica, Bold';font-variant-ligatures:normal;font-variant-caps:normal;font-variant-numeric:normal;font-variant-east-asian:normal;fill:#0088d0;fill-opacity:0.68;stroke:none;stroke-width:0.05"
       inkscape:label="noreagents-text"><tspan
         sodipodi:role="line"
         id="tspan1"
         x="18.000504"
         y="55.14151">show</tspan></text>
    <path
       stroke="none"
       fill="#999999"
       d="m 9.795,54.694678 c 0,0 0,-5.427567 0,-5.427567 0,-2.098514 1.679048,-3.801611 3.747601,-3.801611 0,0 35.119514,0 35.119514,0 2.068778,0 3.747742,1.703097 3.747742,3.801611 0,0 0,5.427567 0,5.427567 0,2.098514 -1.678964,3.801611 -3.747742,3.801611 0,0 -35.119514,0 -35.119514,0 -2.068553,0 -3.747601,-1.703097 -3.747601,-3.801611"
       id="goback-box-8"
       style="fill:#999999;fill-opacity:0.336842;stroke-width:0.0283675"
       inkscape:label="noreagents-box" />
  </g>
  <g
     id="noreagents"
     onclick="window.location.href = 'toazides-noreagents-o1.svg'"
     transform="translate(-4.6856272,382.9067)">
    <text
       x="11.541888"
       y="67.610527"
       stroke="none"
       fill="#000000"
       font-style="normal"
       font-weight="bold"
       font-size="200px"
       font-family="Helvetica"
       id="gobacktext-7-8"
       style="font-style:normal;font-weight:bold;font-size:10px;font-family:Helvetica;fill:#000000;fill-opacity:0.443609;stroke:none;stroke-width:0.05"
       inkscape:label="noproducts-text"><tspan
         sodipodi:role="line"
         id="tspan2-5"
         x="11.541888"
         y="67.610527"
         style="font-style:normal;font-variant:normal;font-weight:bold;font-stretch:normal;font-size:8px;font-family:Helvetica;-inkscape-font-specification:'Helvetica, Bold';font-variant-ligatures:normal;font-variant-caps:normal;font-variant-numeric:normal;font-variant-east-asian:normal;fill:#000000;fill-opacity:0.5;stroke-width:0.05">reagents</tspan></text>
    <rect
       style="fill:#000000;fill-opacity:0.821053;fill-rule:evenodd;stroke:#a13033;stroke-width:0;stroke-linecap:round;stroke-miterlimit:2;stroke-dasharray:none;paint-order:markers fill stroke"
       id="rect3-9"
       width="31.666824"
       height="0.9773711"
       x="12.566371"
       y="64.987999"
       inkscape:label="noproducts-line" />
    <path
       stroke="none"
       fill="#999999"
       d="m 10.136392,68.163695 c 0,0 0,-5.427567 0,-5.427567 0,-2.098514 1.463398,-3.801611 3.266274,-3.801611 0,0 30.608907,0 30.608907,0 1.803073,0 3.266397,1.703097 3.266397,3.801611 0,0 0,5.427567 0,5.427567 0,2.098514 -1.463324,3.801611 -3.266397,3.801611 0,0 -30.608907,0 -30.608907,0 -1.802876,0 -3.266274,-1.703097 -3.266274,-3.801611"
       id="goback-box-8-6"
       style="fill:#999999;fill-opacity:0.336842;stroke-width:0.0264832"
       inkscape:label="noproducts-box" />
  </g>
  <text
     x="822.84332"
     y="415.79849"
     stroke="none"
     fill="#000000"
     transform="matrix(0.92407999,-0.00322566,0.00377741,1.0821442,0,0)"
     font-style="italic"
     font-weight="bold"
     font-size="8.25806px"
     font-family="'Helvetica Oblique'"
     id="text11"
     style="opacity:1;fill:#00009a;fill-opacity:0.651128;stroke-width:0.0412903">chemisfun</text>
  <g
     id="overlay-box"
     style="opacity:0"
     transform="matrix(0.31364504,0,0,0.8007311,650.50736,385.81436)">
    <rect
       style="fill:#609975;fill-opacity:0.2;stroke:#609970;stroke-width:0;stroke-linecap:round;stroke-opacity:0.657143;paint-order:fill markers stroke"
       id="rect285"
       width="164.84744"
       height="59.583412"
       x="329.69489"
       y="23.171328" />
  </g>
  <g
     id="overlay"
     onclick="window.location.href = 'index.html'"
     onmouseover="this.ownerDocument.getElementById('overlay-box').style.opacity='0.5'"
     onmouseout="this.ownerDocument.getElementById('overlay-box').style.opacity='0'"
     transform="matrix(0.76550767,-0.0030054,0.00267214,0.86098131,195.61318,22.784653)">
    <rect
       style="opacity:0.5;fill:#ffffff;fill-opacity:0;stroke-linecap:round;stroke-opacity:0.657143;paint-order:stroke fill markers"
       id="rect2"
       width="65.93074"
       height="55.035408"
       x="733.06049"
       y="445.87061" />
  </g>
  <g
     id="g1"
     transform="matrix(0.0625,0,0,0.0625,764.65732,406.62566)">
    <rect
       x="239.31"
       y="120.321"
       style="fill:#444242"
       width="33.389"
       height="139.98"
       id="rect1" />
    <rect
       x="256"
       y="120.321"
       style="fill:#3a3839"
       width="16.695"
       height="139.98"
       id="rect2-2" />
    <rect
       x="132.194"
       y="305.86301"
       transform="matrix(0.5,0.866,-0.866,0.5,399.932,58.9793)"
       style="fill:#444242"
       width="33.387001"
       height="139.967"
       id="rect4" />
    <rect
       x="293.125"
       y="359.13"
       transform="matrix(0.866,0.5,-0.5,0.866,236.5654,-131.205)"
       style="fill:#3a3839"
       width="139.967"
       height="33.387001"
       id="rect5" />
    <path
       style="background-color:#ffffff00;fill:#439de2;fill-opacity:1"
       d="m 456.843,485.07 c -9.538,0 -18.951,-2.501 -27.432,-7.398 v 0 c -12.733,-7.351 -21.842,-19.221 -25.646,-33.424 -3.805,-14.201 -1.853,-29.035 5.499,-41.769 7.351,-12.732 19.221,-21.841 33.424,-25.646 14.201,-3.806 29.034,-1.853 41.769,5.499 12.732,7.351 21.841,19.221 25.646,33.424 3.805,14.202 1.853,29.035 -5.499,41.769 -7.351,12.733 -19.221,21.842 -33.424,25.646 -4.742,1.27 -9.557,1.899 -14.337,1.899 z"
       id="path7-3" />
    <path
       style="background-color:#ffffff00;fill:#eda74a;fill-opacity:1"
       d="m 256.001,137.021 c -30.352,0 -55.044,-24.693 -55.044,-55.044 0,-30.351 24.693,-55.044 55.044,-55.044 30.351,0 55.044,24.693 55.044,55.044 0,30.351 -24.693,55.044 -55.044,55.044 z"
       id="path5-4" />
    <path
       style="background-color:#ffffff00;fill:#53acb1;fill-opacity:1"
       d="m 55.158,485.07 c -4.781,0 -9.594,-0.629 -14.336,-1.9 C 26.619,479.365 14.75,470.256 7.398,457.524 0.046,444.792 -1.906,429.957 1.899,415.755 c 3.805,-14.203 12.914,-26.072 25.646,-33.424 12.731,-7.352 27.567,-9.304 41.769,-5.499 14.203,3.805 26.072,12.914 33.424,25.646 7.352,12.732 9.304,27.567 5.499,41.769 -3.805,14.203 -12.914,26.072 -25.646,33.424 -8.481,4.897 -17.896,7.399 -27.433,7.399 z"
       id="path6-7" />
    <path
       style="fill:#f74d37"
       d="m 256.001,384.379 c -38.81,0 -70.384,-31.575 -70.384,-70.384 0,-38.809 31.575,-70.384 70.384,-70.384 38.809,0 70.384,31.575 70.384,70.384 0,38.809 -31.575,70.384 -70.384,70.384 z"
       id="path4-9" />
  </g>
</svg>
