<?xml version="1.0" encoding="UTF-8" standalone="no"?>
<svg
   width="100%"
   height="100%"
   viewBox="0 0 818 460"
   style="background-color: #ffffff00"
   version="1.1"
   id="svg53"
   sodipodi:docname="todienes-noreactants.svg"
   inkscape:version="1.4.2 (ebf0e940, 2025-05-08)"
   xmlns:inkscape="http://www.inkscape.org/namespaces/inkscape"
   xmlns:sodipodi="http://sodipodi.sourceforge.net/DTD/sodipodi-0.dtd"
   xmlns="http://www.w3.org/2000/svg"
   xmlns:svg="http://www.w3.org/2000/svg">
  <path
     stroke="#ffffff"
     stroke-width="1"
     fill="none"
     transform="matrix(0.05 0 0 0.05 -10 -11)"
     d="M 5294.08,4181.12 C 5294.08,4181.12 5294.08,3518.36 5294.08,3518.36 C 5294.08,3518.36 4285.4,3518.36 4285.4,3518.36 C 4285.4,3518.36 4285.4,4181.12 4285.4,4181.12 C 4285.4,4181.12 5294.08,4181.12 5294.08,4181.12 "
     id="path2" />
  <path
     stroke="#ffffff"
     stroke-width="1"
     fill="none"
     transform="matrix(0.05 0 0 0.05 -10 -11)"
     d="M 8256.96,5113.6 C 8256.96,5113.6 8256.96,3292.76 8256.96,3292.76 C 8256.96,3292.76 6872.28,3292.76 6872.28,3292.76 C 6872.28,3292.76 6872.28,5113.6 6872.28,5113.6 C 6872.28,5113.6 8256.96,5113.6 8256.96,5113.6 "
     id="path4" />
  <path
     stroke="#000000"
     stroke-width="22"
     fill="none"
     transform="matrix(0.05 0 0 0.05 -10 -11)"
     d="M 16494.7,9367.47 C 16494.7,9367.47 16494.7,284.602 16494.7,284.602 C 16494.7,284.602 268.683,284.602 268.683,284.602 C 268.683,284.602 268.683,9367.47 268.683,9367.47 C 268.683,9367.47 16494.7,9367.47 16494.7,9367.47 "
     id="path7" />
  <text
     x="0"
     y="0"
     stroke="none"
     fill="#000000"
     transform="matrix(0.05 0 0 0.05 11.735 21.13)"
     font-style="normal"
     font-weight="bold"
     font-size="320px"
     font-family="Helvetica"
     id="text7">
Preparation of Conjugated Dienes</text>
  <text
     x="0"
     y="0"
     stroke="none"
     fill="#999999"
     transform="matrix(0.05 0 0 0.05 11.9381 39.085)"
     font-style="normal"
     font-weight="normal"
     font-size="320px"
     font-family="Helvetica"
     id="text11">
click for more</text>
  <g
     id="goback"
     onclick="window.location.href = 'index.svg'"
     onmouseover="document.getElementById('goback-box').setAttribute('opacity','0.5');"
     onmouseout="document.getElementById('goback-box').setAttribute('opacity','1')">
    <path
       stroke="none"
       fill="#999999"
       transform="matrix(0.05 0 0 0.05 -10 -11)"
       d="M 395.9,1492.34 C 395.9,1492.34 395.9,1302.37 395.9,1302.37 C 395.9,1228.92 455.513,1169.31 528.955,1169.31 C 528.955,1169.31 1775.84,1169.31 1775.84,1169.31 C 1849.29,1169.31 1908.9,1228.92 1908.9,1302.37 C 1908.9,1302.37 1908.9,1492.34 1908.9,1492.34 C 1908.9,1565.79 1849.29,1625.4 1775.84,1625.4 C 1775.84,1625.4 528.955,1625.4 528.955,1625.4 C 455.513,1625.4 395.9,1565.79 395.9,1492.34 "
       id="goback-box" />
    <text
       x="0"
       y="0"
       stroke="none"
       fill="#000000"
       transform="matrix(0.05 0 0 0.05 29.3796 61.765)"
       font-style="normal"
       font-weight="bold"
       font-size="200px"
       font-family="Helvetica"
       id="gobacktext">
go home</text>
    <path
       stroke="#999999"
       stroke-width="1"
       transform="matrix(0.05 0 0 0.05 -10 -11)"
       d="M 395.9,1492.34 C 395.9,1492.34 395.9,1302.37 395.9,1302.37 C 395.9,1228.92 455.513,1169.31 528.955,1169.31 C 528.955,1169.31 1775.84,1169.31 1775.84,1169.31 C 1849.29,1169.31 1908.9,1228.92 1908.9,1302.37 C 1908.9,1302.37 1908.9,1492.34 1908.9,1492.34 C 1908.9,1565.79 1849.29,1625.4 1775.84,1625.4 C 1775.84,1625.4 528.955,1625.4 528.955,1625.4 C 455.513,1625.4 395.9,1565.79 395.9,1492.34 "
       onclick="window.location.href = 'index.svg'"
       style="opacity:0"
       id="goback-link" />
  </g>
  <g
     id="howdotheyreact"
     onclick="window.location.href = 'dienes.svg'"
     onmouseover="document.getElementById('howdotheyreact-box').setAttribute('opacity','0.5');"
     onmouseout="document.getElementById('howdotheyreact-box').setAttribute('opacity','1')">
    <path
       stroke="none"
       fill="#999999"
       transform="matrix(0.05 0 0 0.05 -10 -11)"
       d="M 381.591,1996.7 C 381.591,1996.7 381.591,1806.72 381.591,1806.72 C 381.591,1733.28 441.204,1673.66 514.646,1673.66 C 514.646,1673.66 2149.06,1673.66 2149.06,1673.66 C 2222.51,1673.66 2282.12,1733.28 2282.12,1806.72 C 2282.12,1806.72 2282.12,1996.7 2282.12,1996.7 C 2282.12,2070.14 2222.51,2129.75 2149.06,2129.75 C 2149.06,2129.75 514.646,2129.75 514.646,2129.75 C 441.204,2129.75 381.591,2070.14 381.591,1996.7 "
       id="howdotheyreact-box" />
    <text
       x="0"
       y="0"
       stroke="none"
       fill="#000000"
       transform="matrix(0.05 0 0 0.05 12.2417 86.9826)"
       font-style="normal"
       font-weight="bold"
       font-size="200px"
       font-family="Helvetica"
       id="howdotheyreact-text">
how do they react?</text>
    <path
       stroke="#999999"
       stroke-width="1"
       transform="matrix(0.05 0 0 0.05 -10 -11)"
       d="M 381.591,1996.7 C 381.591,1996.7 381.591,1806.72 381.591,1806.72 C 381.591,1733.28 441.204,1673.66 514.646,1673.66 C 514.646,1673.66 2149.06,1673.66 2149.06,1673.66 C 2222.51,1673.66 2282.12,1733.28 2282.12,1806.72 C 2282.12,1806.72 2282.12,1996.7 2282.12,1996.7 C 2282.12,2070.14 2222.51,2129.75 2149.06,2129.75 C 2149.06,2129.75 514.646,2129.75 514.646,2129.75 C 441.204,2129.75 381.591,2070.14 381.591,1996.7 "
       style="opacity:0"
       id="howdotheyreact-link" />
  </g>
  <text
     x="0"
     y="0"
     stroke="none"
     fill="#000000"
     transform="matrix(0.05 0 0 0.05 273.273 174.43)"
     font-style="normal"
     font-weight="bold"
     font-size="200px"
     font-family="Helvetica"
     id="text24">
NBS</text>
  <text
     x="298.215"
     y="174.19701"
     stroke="none"
     fill="#000000"
     font-style="normal"
     font-weight="bold"
     font-size="8px"
     font-family="Helvetica"
     id="text25"
     style="stroke-width:0.05">light</text>
  <text
     x="0"
     y="0"
     stroke="none"
     fill="#000000"
     transform="matrix(0.05 0 0 0.05 282.885 191.622)"
     font-style="italic"
     font-weight="normal"
     font-size="160px"
     font-family="Helvetica Oblique"
     id="text27">
allylic</text>
  <text
     x="0"
     y="0"
     stroke="none"
     fill="#000000"
     transform="matrix(0.05 0 0 0.05 271.764 200.03)"
     font-style="italic"
     font-weight="normal"
     font-size="160px"
     font-family="Helvetica Oblique"
     id="text28">
bromination</text>
  <text
     x="0"
     y="0"
     stroke="none"
     fill="#999999"
     transform="matrix(0.05 0 0 0.05 279.975 211.011)"
     font-style="normal"
     font-weight="normal"
     font-size="160px"
     font-family="Helvetica"
     id="text29">
radical</text>
  <path
     stroke="none"
     fill="#000000"
     transform="matrix(0.05 0 0 0.05 -10 -11)"
     d="M 6685.04,3877.17 L 5433.88,3877.17 L 5433.88,3855.17 L 6685.04,3855.17 Z "
     id="path29" />
  <path
     stroke="none"
     fill="#000000"
     transform="matrix(0.05 0 0 0.05 -10 -11)"
     d="M 6878.08,3866.17 C 6878.08,3866.17 6656.32,3922.61 6656.32,3922.61 C 6656.32,3922.61 6684.04,3890.86 6684.04,3866.17 C 6684.04,3841.04 6656.32,3808.73 6656.32,3808.73 C 6656.32,3808.73 6878.08,3866.17 6878.08,3866.17 C 6878.08,3866.17 6878.08,3866.17 6878.08,3866.17 "
     id="path30" />
  <path
     stroke="#000000"
     stroke-width="1"
     fill="none"
     transform="matrix(0.05 0 0 0.05 -10 -11)"
     d="M 6878.08,3866.17 C 6878.08,3866.17 6656.32,3922.61 6656.32,3922.61 C 6656.32,3922.61 6684.04,3890.86 6684.04,3866.17 C 6684.04,3841.04 6656.32,3808.73 6656.32,3808.73 C 6656.32,3808.73 6878.08,3866.17 6878.08,3866.17 C 6878.08,3866.17 6878.08,3866.17 6878.08,3866.17 "
     id="path31" />
  <path
     stroke="none"
     fill="#000000"
     transform="matrix(0.05 0 0 0.05 -10 -11)"
     d="M 9542.64,3862.13 L 8291.48,3862.13 L 8291.48,3840.13 L 9542.64,3840.13 Z "
     id="path34" />
  <path
     stroke="none"
     fill="#000000"
     transform="matrix(0.05 0 0 0.05 -10 -11)"
     d="M 9735.68,3851.13 C 9735.68,3851.13 9513.92,3907.57 9513.92,3907.57 C 9513.92,3907.57 9541.64,3875.82 9541.64,3851.13 C 9541.64,3826 9513.92,3793.69 9513.92,3793.69 C 9513.92,3793.69 9735.68,3851.13 9735.68,3851.13 C 9735.68,3851.13 9735.68,3851.13 9735.68,3851.13 "
     id="path35" />
  <path
     stroke="#000000"
     stroke-width="1"
     fill="none"
     transform="matrix(0.05 0 0 0.05 -10 -11)"
     d="M 9735.68,3851.13 C 9735.68,3851.13 9513.92,3907.57 9513.92,3907.57 C 9513.92,3907.57 9541.64,3875.82 9541.64,3851.13 C 9541.64,3826 9513.92,3793.69 9513.92,3793.69 C 9513.92,3793.69 9735.68,3851.13 9735.68,3851.13 C 9735.68,3851.13 9735.68,3851.13 9735.68,3851.13 "
     id="path36" />
  <text
     x="0"
     y="0"
     stroke="none"
     fill="#000000"
     transform="matrix(0.05 0 0 0.05 422.169 174.43)"
     font-style="normal"
     font-weight="bold"
     font-size="200px"
     font-family="Helvetica"
     id="text36">
KO</text>
  <text
     x="0"
     y="0"
     stroke="none"
     fill="#000000"
     transform="matrix(0.05 0 0 0.05 437.169 170.831)"
     font-style="normal"
     font-weight="bold"
     font-size="150px"
     font-family="Helvetica"
     id="text37">
t</text>
  <text
     x="0"
     y="0"
     stroke="none"
     fill="#000000"
     transform="matrix(0.05 0 0 0.05 439.666 174.43)"
     font-style="normal"
     font-weight="bold"
     font-size="200px"
     font-family="Helvetica"
     id="text38">
Bu</text>
  <text
     x="0"
     y="0"
     stroke="none"
     fill="#000000"
     transform="matrix(0.05 0 0 0.05 412.726 193.878)"
     font-style="italic"
     font-weight="normal"
     font-size="160px"
     font-family="Helvetica Oblique"
     id="text39">
or other base</text>
  <path
     stroke="none"
     fill="#000000"
     transform="matrix(0.05 0 0 0.05 -10 -11)"
     d="M 10278.3,3801.88 L 10278.3,3776.22 L 10537.7,3927.08 L 10537.7,3952.73 L 10278.3,3801.88 Z "
     id="path41" />
  <path
     stroke="none"
     fill="#000000"
     transform="matrix(0.05 0 0 0.05 -10 -11)"
     d="M 10537.7,3952.73 L 10537.7,3927.08 L 10791.5,3780 L 10802.6,3799.2 L 10537.7,3952.73 Z "
     id="path42" />
  <path
     stroke="none"
     fill="#000000"
     transform="matrix(0.05 0 0 0.05 -10 -11)"
     d="M 10543.2,3884.94 L 10532.1,3865.74 L 10763.8,3731.98 L 10774.9,3751.19 L 10543.2,3884.94 Z "
     id="path43" />
  <path
     stroke="none"
     fill="#000000"
     transform="matrix(0.05 0 0 0.05 -10 -11)"
     d="M 10278.3,3776.22 L 10278.3,3801.88 L 10024.4,3948.96 L 10013.4,3929.76 L 10278.3,3776.22 Z "
     id="path44" />
  <path
     stroke="none"
     fill="#000000"
     transform="matrix(0.05 0 0 0.05 -10 -11)"
     d="M 10272.7,3844.01 L 10283.8,3863.22 L 10052.2,3996.97 L 10041.1,3977.77 L 10272.7,3844.01 Z "
     id="path45" />
  <text
     x="477.26401"
     y="211.592"
     stroke="none"
     fill="#0000ff"
     font-style="normal"
     font-weight="bold"
     font-size="16px"
     font-family="Helvetica"
     id="text52"
     style="stroke-width:0.05">conjugated</text>
  <text
     x="494.58801"
     y="228.517"
     stroke="none"
     fill="#0000ff"
     font-style="normal"
     font-weight="bold"
     font-size="16px"
     font-family="Helvetica"
     id="text53"
     style="stroke-width:0.05">dienes</text>
  <path
     stroke="none"
     fill="#ffffff"
     opacity="0"
     onclick="window.location.href = 'toalkenes.svg'"
     transform="matrix(0.05 0 0 0.05 -10 -11)"
     d="M 5294.08,4181.12 C 5294.08,4181.12 5294.08,3518.36 5294.08,3518.36 C 5294.08,3518.36 4285.4,3518.36 4285.4,3518.36 C 4285.4,3518.36 4285.4,4181.12 4285.4,4181.12 C 4285.4,4181.12 5294.08,4181.12 5294.08,4181.12 "
     id="path1"
     inkscape:label="l-toalkenes" />
  <path
     stroke="none"
     fill="#ffffff"
     opacity="0"
     onclick="window.location.href = 'tohalides.svg'"
     transform="matrix(0.05 0 0 0.05 -10 -11)"
     d="M 8256.96,5113.6 C 8256.96,5113.6 8256.96,3292.76 8256.96,3292.76 C 8256.96,3292.76 6872.28,3292.76 6872.28,3292.76 C 6872.28,3292.76 6872.28,5113.6 6872.28,5113.6 C 6872.28,5113.6 8256.96,5113.6 8256.96,5113.6 "
     id="path3"
     inkscape:label="l-tohalides" />
  <path
     stroke="none"
     fill="#ffffff"
     opacity="0"
     onclick="window.location.href = 'dienes.svg'"
     d="m 565.7376,237.43344 c 0,0 0,-76.18596 0,-76.18596 0,0 -90.34522,0 -90.34522,0 0,0 0,76.18596 0,76.18596 0,0 90.34522,0 90.34522,0"
     id="path3-7"
     inkscape:label="l-dienes"
     style="opacity:0;stroke-width:0.0522492" />
  <path
     stroke="none"
     fill="#ffffff"
     opacity="0"
     onclick="window.location.href = 'supplement.svg'"
     d="m 320.16852,178.1903 c 0,0 0,-15.198 0,-15.198 0,0 -56.72365,0 -56.72365,0 0,0 0,15.198 0,15.198 0,0 56.72365,0 56.72365,0"
     id="path3-7-8"
     inkscape:label="l-supplement"
     style="opacity:0;stroke-width:0.0184912" />
  <path
     stroke="none"
     fill="#ffffff"
     opacity="0"
     onclick="window.location.href = 'supplement.svg'"
     d="m 469.00819,199.03767 c 0,0 0,-38.65491 0,-38.65491 0,0 -61.41503,0 -61.41503,0 0,0 0,38.65491 0,38.65491 0,0 61.41503,0 61.41503,0"
     id="path3-7-8-4"
     inkscape:label="l-supplement"
     style="opacity:0;stroke-width:0.0306852" />
  <g
     id="nostructures"
     onclick="window.location.href = 'todienes.svg'"
     transform="matrix(0.87844457,0,0,1,-3.2995176,381.05692)">
    <text
       x="18.000504"
       y="55.14151"
       stroke="none"
       fill="#000000"
       font-style="normal"
       font-weight="bold"
       font-size="200px"
       font-family="Helvetica"
       id="gobacktext-7"
       style="font-style:normal;font-variant:normal;font-weight:bold;font-stretch:normal;font-size:10px;font-family:Helvetica;-inkscape-font-specification:'Helvetica, Bold';font-variant-ligatures:normal;font-variant-caps:normal;font-variant-numeric:normal;font-variant-east-asian:normal;fill:#0088d0;fill-opacity:0.68;stroke:none;stroke-width:0.05"
       inkscape:label="noreagents-text"><tspan
         sodipodi:role="line"
         id="tspan1"
         x="18.000504"
         y="55.14151">show</tspan></text>
    <path
       stroke="none"
       fill="#999999"
       d="m 9.795,54.694678 c 0,0 0,-5.427567 0,-5.427567 0,-2.098514 1.679048,-3.801611 3.747601,-3.801611 0,0 35.119514,0 35.119514,0 2.068778,0 3.747742,1.703097 3.747742,3.801611 0,0 0,5.427567 0,5.427567 0,2.098514 -1.678964,3.801611 -3.747742,3.801611 0,0 -35.119514,0 -35.119514,0 -2.068553,0 -3.747601,-1.703097 -3.747601,-3.801611"
       id="goback-box-8"
       style="fill:#999999;fill-opacity:0.336842;stroke-width:0.0283675"
       inkscape:label="noreagents-box" />
  </g>
  <g
     id="noreagents"
     onclick="window.location.href = 'todienes-noreagents.svg'"
     transform="translate(-4.6856272,382.9067)">
    <text
       x="11.541888"
       y="67.610527"
       stroke="none"
       fill="#000000"
       font-style="normal"
       font-weight="bold"
       font-size="200px"
       font-family="Helvetica"
       id="gobacktext-7-8"
       style="font-style:normal;font-weight:bold;font-size:10px;font-family:Helvetica;fill:#000000;fill-opacity:0.443609;stroke:none;stroke-width:0.05"
       inkscape:label="noproducts-text"><tspan
         sodipodi:role="line"
         id="tspan2-5"
         x="11.541888"
         y="67.610527"
         style="font-style:normal;font-variant:normal;font-weight:bold;font-stretch:normal;font-size:8px;font-family:Helvetica;-inkscape-font-specification:'Helvetica, Bold';font-variant-ligatures:normal;font-variant-caps:normal;font-variant-numeric:normal;font-variant-east-asian:normal;fill:#000000;fill-opacity:0.5;stroke-width:0.05">reagents</tspan></text>
    <rect
       style="fill:#000000;fill-opacity:0.821053;fill-rule:evenodd;stroke:#a13033;stroke-width:0;stroke-linecap:round;stroke-miterlimit:2;stroke-dasharray:none;paint-order:markers fill stroke"
       id="rect3-9"
       width="31.666824"
       height="0.9773711"
       x="12.566371"
       y="64.987999"
       inkscape:label="noproducts-line" />
    <path
       stroke="none"
       fill="#999999"
       d="m 10.136392,68.163695 c 0,0 0,-5.427567 0,-5.427567 0,-2.098514 1.463398,-3.801611 3.266274,-3.801611 0,0 30.608907,0 30.608907,0 1.803073,0 3.266397,1.703097 3.266397,3.801611 0,0 0,5.427567 0,5.427567 0,2.098514 -1.463324,3.801611 -3.266397,3.801611 0,0 -30.608907,0 -30.608907,0 -1.802876,0 -3.266274,-1.703097 -3.266274,-3.801611"
       id="goback-box-8-6"
       style="fill:#999999;fill-opacity:0.336842;stroke-width:0.0264832"
       inkscape:label="noproducts-box" />
  </g>
  <text
     x="822.84332"
     y="415.79849"
     stroke="none"
     fill="#000000"
     transform="matrix(0.92407999,-0.00322566,0.00377741,1.0821442,0,0)"
     font-style="italic"
     font-weight="bold"
     font-size="8.25806px"
     font-family="'Helvetica Oblique'"
     id="text1"
     style="opacity:1;fill:#00009a;fill-opacity:0.651128;stroke-width:0.0412903">chemisfun</text>
  <g
     id="overlay-box"
     style="opacity:0"
     transform="matrix(0.31364504,0,0,0.8007311,650.50736,385.81436)">
    <rect
       style="fill:#609975;fill-opacity:0.2;stroke:#609970;stroke-width:0;stroke-linecap:round;stroke-opacity:0.657143;paint-order:fill markers stroke"
       id="rect285"
       width="164.84744"
       height="59.583412"
       x="329.69489"
       y="23.171328" />
  </g>
  <g
     id="overlay"
     onclick="window.location.href = 'index.html'"
     onmouseover="this.ownerDocument.getElementById('overlay-box').style.opacity='0.5'"
     onmouseout="this.ownerDocument.getElementById('overlay-box').style.opacity='0'"
     transform="matrix(0.76550767,-0.0030054,0.00267214,0.86098131,195.61318,22.784653)">
    <rect
       style="opacity:0.5;fill:#ffffff;fill-opacity:0;stroke-linecap:round;stroke-opacity:0.657143;paint-order:stroke fill markers"
       id="rect2"
       width="65.93074"
       height="55.035408"
       x="733.06049"
       y="445.87061" />
  </g>
  <g
     id="g1"
     transform="matrix(0.0625,0,0,0.0625,764.65732,406.62566)">
    <rect
       x="239.31"
       y="120.321"
       style="fill:#444242"
       width="33.389"
       height="139.98"
       id="rect1" />
    <rect
       x="256"
       y="120.321"
       style="fill:#3a3839"
       width="16.695"
       height="139.98"
       id="rect2-2" />
    <rect
       x="132.194"
       y="305.86301"
       transform="matrix(0.5,0.866,-0.866,0.5,399.932,58.9793)"
       style="fill:#444242"
       width="33.387001"
       height="139.967"
       id="rect4" />
    <rect
       x="293.125"
       y="359.13"
       transform="matrix(0.866,0.5,-0.5,0.866,236.5654,-131.205)"
       style="fill:#3a3839"
       width="139.967"
       height="33.387001"
       id="rect5" />
    <path
       style="background-color:#ffffff00;fill:#439de2;fill-opacity:1"
       d="m 456.843,485.07 c -9.538,0 -18.951,-2.501 -27.432,-7.398 v 0 c -12.733,-7.351 -21.842,-19.221 -25.646,-33.424 -3.805,-14.201 -1.853,-29.035 5.499,-41.769 7.351,-12.732 19.221,-21.841 33.424,-25.646 14.201,-3.806 29.034,-1.853 41.769,5.499 12.732,7.351 21.841,19.221 25.646,33.424 3.805,14.202 1.853,29.035 -5.499,41.769 -7.351,12.733 -19.221,21.842 -33.424,25.646 -4.742,1.27 -9.557,1.899 -14.337,1.899 z"
       id="path7-3" />
    <path
       style="background-color:#ffffff00;fill:#eda74a;fill-opacity:1"
       d="m 256.001,137.021 c -30.352,0 -55.044,-24.693 -55.044,-55.044 0,-30.351 24.693,-55.044 55.044,-55.044 30.351,0 55.044,24.693 55.044,55.044 0,30.351 -24.693,55.044 -55.044,55.044 z"
       id="path5-4" />
    <path
       style="background-color:#ffffff00;fill:#53acb1;fill-opacity:1"
       d="m 55.158,485.07 c -4.781,0 -9.594,-0.629 -14.336,-1.9 C 26.619,479.365 14.75,470.256 7.398,457.524 0.046,444.792 -1.906,429.957 1.899,415.755 c 3.805,-14.203 12.914,-26.072 25.646,-33.424 12.731,-7.352 27.567,-9.304 41.769,-5.499 14.203,3.805 26.072,12.914 33.424,25.646 7.352,12.732 9.304,27.567 5.499,41.769 -3.805,14.203 -12.914,26.072 -25.646,33.424 -8.481,4.897 -17.896,7.399 -27.433,7.399 z"
       id="path6-7" />
    <path
       style="fill:#f74d37"
       d="m 256.001,384.379 c -38.81,0 -70.384,-31.575 -70.384,-70.384 0,-38.809 31.575,-70.384 70.384,-70.384 38.809,0 70.384,31.575 70.384,70.384 0,38.809 -31.575,70.384 -70.384,70.384 z"
       id="path4-9" />
  </g>
</svg>
