<?xml version="1.0" encoding="UTF-8" standalone="no"?>
<svg
   width="100%"
   height="100%"
   viewBox="0 0 818 460"
   style="background-color: #ffffff00"
   version="1.1"
   id="svg150"
   sodipodi:docname="toesters-noreactants-o1.svg"
   inkscape:version="1.4.2 (ebf0e940, 2025-05-08)"
   xmlns:inkscape="http://www.inkscape.org/namespaces/inkscape"
   xmlns:sodipodi="http://sodipodi.sourceforge.net/DTD/sodipodi-0.dtd"
   xmlns="http://www.w3.org/2000/svg"
   xmlns:svg="http://www.w3.org/2000/svg">
  <path
     stroke="#ffffff"
     stroke-width="1"
     fill="none"
     transform="matrix(0.05 0 0 0.05 -10 -6)"
     d="M 6474.84,5231.78 C 6474.84,5231.78 6474.84,4178.96 6474.84,4178.96 C 6474.84,4178.96 5450.34,4178.96 5450.34,4178.96 C 5450.34,4178.96 5450.34,5231.78 5450.34,5231.78 C 5450.34,5231.78 6474.84,5231.78 6474.84,5231.78 "
     id="path4" />
  <path
     stroke="none"
     fill="#ffffff"
     transform="matrix(0.05 0 0 0.05 -10 -6)"
     d="M 5955.76,6119.68 C 5955.76,6119.68 5955.76,5558.62 5955.76,5558.62 C 5955.76,5558.62 5189.8,5558.62 5189.8,5558.62 C 5189.8,5558.62 5189.8,6119.68 5189.8,6119.68 C 5189.8,6119.68 5955.76,6119.68 5955.76,6119.68 "
     id="path9" />
  <path
     stroke="#ffffff"
     stroke-width="1"
     fill="none"
     transform="matrix(0.05 0 0 0.05 -10 -6)"
     d="M 5955.76,6119.68 C 5955.76,6119.68 5955.76,5558.62 5955.76,5558.62 C 5955.76,5558.62 5189.8,5558.62 5189.8,5558.62 C 5189.8,5558.62 5189.8,6119.68 5189.8,6119.68 C 5189.8,6119.68 5955.76,6119.68 5955.76,6119.68 "
     id="path10" />
  <path
     stroke="none"
     fill="#ffffff"
     transform="matrix(0.05 0 0 0.05 -10 -6)"
     d="M 8236.98,5928.44 C 8236.98,5928.44 8236.98,5503.98 8236.98,5503.98 C 8236.98,5503.98 7348.08,5503.98 7348.08,5503.98 C 7348.08,5503.98 7348.08,5928.44 7348.08,5928.44 C 7348.08,5928.44 8236.98,5928.44 8236.98,5928.44 "
     id="path11" />
  <path
     stroke="#ffffff"
     stroke-width="1"
     fill="none"
     transform="matrix(0.05 0 0 0.05 -10 -6)"
     d="M 8236.98,5928.44 C 8236.98,5928.44 8236.98,5503.98 8236.98,5503.98 C 8236.98,5503.98 7348.08,5503.98 7348.08,5503.98 C 7348.08,5503.98 7348.08,5928.44 7348.08,5928.44 C 7348.08,5928.44 8236.98,5928.44 8236.98,5928.44 "
     id="path12" />
  <path
     stroke="none"
     fill="#ffffff"
     transform="matrix(0.05 0 0 0.05 -10 -6)"
     d="M 11146.6,4480.48 C 11146.6,4480.48 11146.6,3987.72 11146.6,3987.72 C 11146.6,3987.72 10230.3,3987.72 10230.3,3987.72 C 10230.3,3987.72 10230.3,4480.48 10230.3,4480.48 C 10230.3,4480.48 11146.6,4480.48 11146.6,4480.48 "
     id="path15" />
  <path
     stroke="#ffffff"
     stroke-width="1"
     fill="none"
     transform="matrix(0.05 0 0 0.05 -10 -6)"
     d="M 11146.6,4480.48 C 11146.6,4480.48 11146.6,3987.72 11146.6,3987.72 C 11146.6,3987.72 10230.3,3987.72 10230.3,3987.72 C 10230.3,3987.72 10230.3,4480.48 10230.3,4480.48 C 10230.3,4480.48 11146.6,4480.48 11146.6,4480.48 "
     id="path16" />
  <path
     stroke="#000000"
     stroke-width="22"
     fill="none"
     transform="matrix(0.05 0 0 0.05 -10 -6)"
     d="M 16494.7,9267.37 C 16494.7,9267.37 16494.7,184.502 16494.7,184.502 C 16494.7,184.502 268.683,184.502 268.683,184.502 C 268.683,184.502 268.683,9267.37 268.683,9267.37 C 268.683,9267.37 16494.7,9267.37 16494.7,9267.37 "
     id="path21" />
  <text
     x="0"
     y="0"
     stroke="none"
     fill="#000000"
     transform="matrix(0.05 0 0 0.05 11.735 21.13)"
     font-style="normal"
     font-weight="bold"
     font-size="320px"
     font-family="Helvetica"
     id="text11">
Preparation of Esters</text>
  <text
     x="0"
     y="0"
     stroke="none"
     fill="#999999"
     transform="matrix(0.05 0 0 0.05 11.9381 39.085)"
     font-style="normal"
     font-weight="normal"
     font-size="320px"
     font-family="Helvetica"
     id="text14">
click for more</text>
  <g
     id="goback"
     onclick="window.location.href = 'index-o1.svg'"
     onmouseover="document.getElementById('goback-box').setAttribute('opacity','0.5');"
     onmouseout="document.getElementById('goback-box').setAttribute('opacity','1')">
    <path
       stroke="none"
       fill="#999999"
       transform="matrix(0.05 0 0 0.05 -10 -11)"
       d="M 395.9,1492.34 C 395.9,1492.34 395.9,1302.37 395.9,1302.37 C 395.9,1228.92 455.513,1169.31 528.955,1169.31 C 528.955,1169.31 1775.84,1169.31 1775.84,1169.31 C 1849.29,1169.31 1908.9,1228.92 1908.9,1302.37 C 1908.9,1302.37 1908.9,1492.34 1908.9,1492.34 C 1908.9,1565.79 1849.29,1625.4 1775.84,1625.4 C 1775.84,1625.4 528.955,1625.4 528.955,1625.4 C 455.513,1625.4 395.9,1565.79 395.9,1492.34 "
       id="goback-box" />
    <text
       x="0"
       y="0"
       stroke="none"
       fill="#000000"
       transform="matrix(0.05 0 0 0.05 29.3796 61.765)"
       font-style="normal"
       font-weight="bold"
       font-size="200px"
       font-family="Helvetica"
       id="gobacktext">
go home</text>
    <path
       stroke="#999999"
       stroke-width="1"
       transform="matrix(0.05 0 0 0.05 -10 -11)"
       d="M 395.9,1492.34 C 395.9,1492.34 395.9,1302.37 395.9,1302.37 C 395.9,1228.92 455.513,1169.31 528.955,1169.31 C 528.955,1169.31 1775.84,1169.31 1775.84,1169.31 C 1849.29,1169.31 1908.9,1228.92 1908.9,1302.37 C 1908.9,1302.37 1908.9,1492.34 1908.9,1492.34 C 1908.9,1565.79 1849.29,1625.4 1775.84,1625.4 C 1775.84,1625.4 528.955,1625.4 528.955,1625.4 C 455.513,1625.4 395.9,1565.79 395.9,1492.34 "
       onclick="window.location.href = 'index-o1.svg'"
       style="opacity:0"
       id="goback-link" />
  </g>
  <g
     id="howdotheyreact"
     onclick="window.location.href = 'esters-o1.svg'"
     onmouseover="document.getElementById('howdotheyreact-box').setAttribute('opacity','0.5');"
     onmouseout="document.getElementById('howdotheyreact-box').setAttribute('opacity','1')">
    <path
       stroke="none"
       fill="#999999"
       transform="matrix(0.05 0 0 0.05 -10 -11)"
       d="M 381.591,1996.7 C 381.591,1996.7 381.591,1806.72 381.591,1806.72 C 381.591,1733.28 441.204,1673.66 514.646,1673.66 C 514.646,1673.66 2149.06,1673.66 2149.06,1673.66 C 2222.51,1673.66 2282.12,1733.28 2282.12,1806.72 C 2282.12,1806.72 2282.12,1996.7 2282.12,1996.7 C 2282.12,2070.14 2222.51,2129.75 2149.06,2129.75 C 2149.06,2129.75 514.646,2129.75 514.646,2129.75 C 441.204,2129.75 381.591,2070.14 381.591,1996.7 "
       id="howdotheyreact-box" />
    <text
       x="0"
       y="0"
       stroke="none"
       fill="#000000"
       transform="matrix(0.05 0 0 0.05 12.2417 86.9826)"
       font-style="normal"
       font-weight="bold"
       font-size="200px"
       font-family="Helvetica"
       id="howdotheyreact-text">
how do they react?</text>
    <path
       stroke="#999999"
       stroke-width="1"
       transform="matrix(0.05 0 0 0.05 -10 -11)"
       d="M 381.591,1996.7 C 381.591,1996.7 381.591,1806.72 381.591,1806.72 C 381.591,1733.28 441.204,1673.66 514.646,1673.66 C 514.646,1673.66 2149.06,1673.66 2149.06,1673.66 C 2222.51,1673.66 2282.12,1733.28 2282.12,1806.72 C 2282.12,1806.72 2282.12,1996.7 2282.12,1996.7 C 2282.12,2070.14 2222.51,2129.75 2149.06,2129.75 C 2149.06,2129.75 514.646,2129.75 514.646,2129.75 C 441.204,2129.75 381.591,2070.14 381.591,1996.7 "
       style="opacity:0"
       id="howdotheyreact-link" />
  </g>
  <path
     stroke="none"
     fill="#000000"
     transform="matrix(0.05 0 0 0.05 -10 -6)"
     d="M 6045.44,3870.76 L 6045.44,2975.43 L 6067.44,2975.43 L 6067.44,3870.76 Z "
     id="path35" />
  <path
     stroke="none"
     fill="#000000"
     transform="matrix(0.05 0 0 0.05 -10 -6)"
     d="M 6056.44,4063.8 C 6056.44,4063.8 5999,3842.04 5999,3842.04 C 5999,3842.04 6031.31,3869.76 6056.44,3869.76 C 6081.13,3869.76 6112.88,3842.04 6112.88,3842.04 C 6112.88,3842.04 6056.44,4063.8 6056.44,4063.8 C 6056.44,4063.8 6056.44,4063.8 6056.44,4063.8 "
     id="path36" />
  <path
     stroke="#000000"
     stroke-width="1"
     fill="none"
     transform="matrix(0.05 0 0 0.05 -10 -6)"
     d="M 6056.44,4063.8 C 6056.44,4063.8 5999,3842.04 5999,3842.04 C 5999,3842.04 6031.31,3869.76 6056.44,3869.76 C 6081.13,3869.76 6112.88,3842.04 6112.88,3842.04 C 6112.88,3842.04 6056.44,4063.8 6056.44,4063.8 C 6056.44,4063.8 6056.44,4063.8 6056.44,4063.8 "
     id="path37" />
  <text
     x="0"
     y="0"
     stroke="none"
     fill="#0000ff"
     transform="matrix(0.05 0 0 0.05 373.796 423.337)"
     font-style="normal"
     font-weight="bold"
     font-size="280px"
     font-family="Helvetica"
     id="text37">
esters</text>
  <path
     stroke="none"
     fill="#000000"
     transform="matrix(0.05 0 0 0.05 -10 -6)"
     d="M 10053,6415.77 L 10053,2975.43 L 10075,2975.43 L 10075,6415.77 Z "
     id="path38" />
  <text
     x="0"
     y="0"
     stroke="none"
     fill="#000000"
     transform="matrix(0.05 0 0 0.05 502.533 216.302)"
     font-style="normal"
     font-weight="bold"
     font-size="180px"
     font-family="Helvetica"
     id="text42">
HO</text>
  <path
     stroke="none"
     fill="#000000"
     transform="matrix(0.05 0 0 0.05 -10 -6)"
     d="M 10539.6,4342.69 L 10528.6,4323.49 L 10709.4,4218.25 L 10709.3,4243.92 L 10539.6,4342.69 Z "
     id="path43" />
  <path
     stroke="none"
     fill="#000000"
     transform="matrix(0.05 0 0 0.05 -10 -6)"
     d="M 10709.3,4243.92 L 10709.4,4218.25 L 10974.1,4371.66 L 10963,4390.87 L 10709.3,4243.92 Z "
     id="path44" />
  <text
     x="0"
     y="0"
     stroke="none"
     fill="#000000"
     transform="matrix(0.05 0 0 0.05 508.082 226.872)"
     font-style="normal"
     font-weight="bold"
     font-size="200px"
     font-family="Helvetica"
     id="text46">
cat. </text>
  <text
     x="0"
     y="0"
     stroke="none"
     fill="#000000"
     transform="matrix(0.05 0 0 0.05 528.092 226.872)"
     font-style="normal"
     font-weight="bold"
     font-size="200px"
     font-family="Helvetica"
     id="text47">
H</text>
  <text
     x="0"
     y="0"
     stroke="none"
     fill="#000000"
     transform="matrix(0.05 0 0 0.05 535.313 223.273)"
     font-style="normal"
     font-weight="bold"
     font-size="150px"
     font-family="Helvetica"
     id="text48">
+</text>
  <text
     x="0"
     y="0"
     stroke="none"
     fill="#000000"
     transform="matrix(0.05 0 0 0.05 251.958 162.474)"
     font-style="normal"
     font-weight="bold"
     font-size="200px"
     font-family="Helvetica"
     id="text61">
Na</text>
  <text
     x="0"
     y="0"
     stroke="none"
     fill="#000000"
     transform="matrix(0.05 0 0 0.05 264.742 164.774)"
     font-style="normal"
     font-weight="bold"
     font-size="150px"
     font-family="Helvetica"
     id="text62">
2</text>
  <text
     x="0"
     y="0"
     stroke="none"
     fill="#000000"
     transform="matrix(0.05 0 0 0.05 268.913 162.474)"
     font-style="normal"
     font-weight="bold"
     font-size="200px"
     font-family="Helvetica"
     id="text63">
CO</text>
  <text
     x="0"
     y="0"
     stroke="none"
     fill="#000000"
     transform="matrix(0.05 0 0 0.05 283.913 164.774)"
     font-style="normal"
     font-weight="bold"
     font-size="150px"
     font-family="Helvetica"
     id="text64">
3</text>
  <text
     x="0"
     y="0"
     stroke="none"
     fill="#000000"
     transform="matrix(0.05 0 0 0.05 261.24 173.87)"
     font-style="normal"
     font-weight="bold"
     font-size="160px"
     font-family="Helvetica"
     id="text65">
or </text>
  <text
     x="0"
     y="0"
     stroke="none"
     fill="#000000"
     transform="matrix(0.05 0 0 0.05 271.463 173.87)"
     font-style="normal"
     font-weight="bold"
     font-size="160px"
     font-family="Helvetica"
     id="text66">
NaH</text>
  <text
     x="0"
     y="0"
     stroke="none"
     fill="#000000"
     transform="matrix(0.05 0 0 0.05 255.017 181.92)"
     font-style="normal"
     font-weight="bold"
     font-size="160px"
     font-family="Helvetica"
     id="text67">
or </text>
  <text
     x="0"
     y="0"
     stroke="none"
     fill="#000000"
     transform="matrix(0.05 0 0 0.05 265.24 181.92)"
     font-style="normal"
     font-weight="bold"
     font-size="160px"
     font-family="Helvetica"
     id="text68">
NaOH</text>
  <text
     x="0"
     y="0"
     stroke="none"
     fill="#107f01"
     transform="matrix(0.05 0 0 0.05 255.308 290.921)"
     font-style="normal"
     font-weight="bold"
     font-size="180px"
     font-family="Helvetica"
     id="text69">
I</text>
  <path
     stroke="none"
     fill="#000000"
     transform="matrix(0.05 0 0 0.05 -10 -6)"
     d="M 5396.8,5848.55 L 5385.72,5829.34 L 5589.97,5710.68 L 5589.94,5736.34 L 5396.8,5848.55 Z "
     id="path70" />
  <path
     stroke="none"
     fill="#000000"
     transform="matrix(0.05 0 0 0.05 -10 -6)"
     d="M 5589.94,5736.34 L 5589.97,5710.68 L 5854.58,5864.04 L 5843.49,5883.25 L 5589.94,5736.34 Z "
     id="path71" />
  <text
     x="0"
     y="0"
     stroke="none"
     fill="#000000"
     transform="matrix(0.05 0 0 0.05 297.129 287.537)"
     font-style="normal"
     font-weight="normal"
     font-size="200px"
     font-family="Helvetica"
     id="text71">
S</text>
  <text
     x="0"
     y="0"
     stroke="none"
     fill="#000000"
     transform="matrix(0.05 0 0 0.05 303.799 289.836)"
     font-style="normal"
     font-weight="normal"
     font-size="150px"
     font-family="Helvetica"
     id="text72">
N</text>
  <text
     x="0"
     y="0"
     stroke="none"
     fill="#000000"
     transform="matrix(0.05 0 0 0.05 309.215 287.537)"
     font-style="normal"
     font-weight="normal"
     font-size="200px"
     font-family="Helvetica"
     id="text73">
2</text>
  <path
     stroke="none"
     fill="#000000"
     transform="matrix(0.05 0 0 0.05 -10 -6)"
     d="M 6018.12,6415.77 L 6018.12,5327.4 L 6040.12,5327.4 L 6040.12,6415.77 Z "
     id="path73" />
  <path
     stroke="none"
     fill="#000000"
     transform="matrix(0.05 0 0 0.05 -10 -6)"
     d="M 7652.41,8175.92 L 7641.32,8156.72 L 7906.46,8003.05 L 7906.51,8028.72 L 7652.41,8175.92 Z "
     id="path74" />
  <text
     x="0"
     y="0"
     stroke="none"
     fill="#000000"
     transform="matrix(0.05 0 0 0.05 381.813 383.091)"
     font-style="normal"
     font-weight="bold"
     font-size="180px"
     font-family="Helvetica"
     id="text74">
O</text>
  <path
     stroke="none"
     fill="#000000"
     transform="matrix(0.05 0 0 0.05 -10 -6)"
     d="M 7889.63,8032.56 L 7867.45,8032.56 L 7867.45,7817.53 L 7889.62,7817.53 L 7889.63,8032.56 Z "
     id="path75" />
  <path
     stroke="none"
     fill="#000000"
     transform="matrix(0.05 0 0 0.05 -10 -6)"
     d="M 7945.06,8032.56 L 7922.89,8032.56 L 7922.89,7817.53 L 7945.06,7817.53 L 7945.06,8032.56 Z "
     id="path76" />
  <text
     x="0"
     y="0"
     stroke="none"
     fill="#0000ff"
     transform="matrix(0.05 0 0 0.05 394.782 405.555)"
     font-style="normal"
     font-weight="bold"
     font-size="180px"
     font-family="Helvetica"
     id="text76">
O</text>
  <path
     stroke="none"
     fill="#000000"
     transform="matrix(0.05 0 0 0.05 -10 -6)"
     d="M 7906.51,8028.72 L 7906.46,8003.05 L 8088.06,8108.72 L 8076.97,8127.93 L 7906.51,8028.72 Z "
     id="path77" />
  <path
     stroke="none"
     fill="#0000ff"
     transform="matrix(0.05 0 0 0.05 -10 -6)"
     d="M 8254.88,8127.6 L 8243.79,8108.4 L 8424.83,8003.05 L 8424.79,8028.72 L 8254.88,8127.6 Z "
     id="path78" />
  <path
     stroke="none"
     fill="#0000ff"
     transform="matrix(0.05 0 0 0.05 -10 -6)"
     d="M 8424.79,8028.72 L 8424.83,8003.05 L 8689.98,8156.72 L 8678.89,8175.92 L 8424.79,8028.72 Z "
     id="path79" />
  <path
     stroke="none"
     fill="#000000"
     transform="matrix(0.05 0 0 0.05 -10 -6)"
     d="M 7233.86,3870.76 L 7233.86,2975.43 L 7255.86,2975.43 L 7255.86,3870.76 Z "
     id="path80" />
  <path
     stroke="none"
     fill="#000000"
     transform="matrix(0.05 0 0 0.05 -10 -6)"
     d="M 7244.86,4063.8 C 7244.86,4063.8 7187.42,3842.04 7187.42,3842.04 C 7187.42,3842.04 7219.73,3869.76 7244.86,3869.76 C 7269.55,3869.76 7301.3,3842.04 7301.3,3842.04 C 7301.3,3842.04 7244.86,4063.8 7244.86,4063.8 C 7244.86,4063.8 7244.86,4063.8 7244.86,4063.8 "
     id="path81" />
  <path
     stroke="#000000"
     stroke-width="1"
     fill="none"
     transform="matrix(0.05 0 0 0.05 -10 -6)"
     d="M 7244.86,4063.8 C 7244.86,4063.8 7187.42,3842.04 7187.42,3842.04 C 7187.42,3842.04 7219.73,3869.76 7244.86,3869.76 C 7269.55,3869.76 7301.3,3842.04 7301.3,3842.04 C 7301.3,3842.04 7244.86,4063.8 7244.86,4063.8 C 7244.86,4063.8 7244.86,4063.8 7244.86,4063.8 "
     id="path82" />
  <path
     stroke="none"
     fill="#000000"
     transform="matrix(0.05 0 0 0.05 -10 -6)"
     d="M 7220.2,6402.11 L 7220.2,5313.74 L 7242.2,5313.74 L 7242.2,6402.11 Z "
     id="path87" />
  <text
     x="0"
     y="0"
     stroke="none"
     fill="#000000"
     transform="matrix(0.05 0 0 0.05 358.231 288.079)"
     font-style="normal"
     font-weight="bold"
     font-size="180px"
     font-family="Helvetica"
     id="text87">
HO</text>
  <path
     stroke="none"
     fill="#000000"
     transform="matrix(0.05 0 0 0.05 -10 -6)"
     d="M 7653.59,5778.23 L 7642.51,5759.02 L 7823.8,5653.53 L 7823.75,5679.2 L 7653.59,5778.23 Z "
     id="path88" />
  <path
     stroke="none"
     fill="#000000"
     transform="matrix(0.05 0 0 0.05 -10 -6)"
     d="M 7823.75,5679.2 L 7823.8,5653.53 L 8088.94,5807.2 L 8077.85,5826.4 L 7823.75,5679.2 Z "
     id="path89" />
  <text
     x="0"
     y="0"
     stroke="none"
     fill="#000000"
     transform="matrix(0.05 0 0 0.05 362.635 301.028)"
     font-style="normal"
     font-weight="bold"
     font-size="200px"
     font-family="Helvetica"
     id="text89">
Et</text>
  <text
     x="0"
     y="0"
     stroke="none"
     fill="#000000"
     transform="matrix(0.05 0 0 0.05 372.635 303.328)"
     font-style="normal"
     font-weight="bold"
     font-size="150px"
     font-family="Helvetica"
     id="text90">
3</text>
  <text
     x="0"
     y="0"
     stroke="none"
     fill="#000000"
     transform="matrix(0.05 0 0 0.05 376.806 301.028)"
     font-style="normal"
     font-weight="bold"
     font-size="200px"
     font-family="Helvetica"
     id="text91">
N</text>
  <path
     stroke="none"
     fill="#000000"
     transform="matrix(0.05 0 0 0.05 -10 -6)"
     d="M 10064,6426.77 L 6029.12,6426.77 L 6029.12,6404.77 L 10064,6404.77 Z "
     id="path106" />
  <text
     x="0"
     y="0"
     stroke="none"
     fill="#000000"
     transform="matrix(0.05 0 0 0.05 317.119 167.938)"
     font-style="normal"
     font-weight="bold"
     font-size="200px"
     font-family="Helvetica"
     id="text107">
SOCl</text>
  <text
     x="0"
     y="0"
     stroke="none"
     fill="#000000"
     transform="matrix(0.05 0 0 0.05 341.568 170.238)"
     font-style="normal"
     font-weight="bold"
     font-size="150px"
     font-family="Helvetica"
     id="text108">
2</text>
  <path
     stroke="none"
     fill="#000000"
     transform="matrix(0.05 0 0 0.05 -10 -6)"
     d="M 8039.8,7315.53 L 8039.8,6420.2 L 8061.8,6420.2 L 8061.8,7315.53 Z "
     id="path112" />
  <path
     stroke="none"
     fill="#000000"
     transform="matrix(0.05 0 0 0.05 -10 -6)"
     d="M 8050.8,7508.57 C 8050.8,7508.57 7993.36,7286.81 7993.36,7286.81 C 7993.36,7286.81 8025.67,7314.53 8050.8,7314.53 C 8075.49,7314.53 8107.24,7286.81 8107.24,7286.81 C 8107.24,7286.81 8050.8,7508.57 8050.8,7508.57 C 8050.8,7508.57 8050.8,7508.57 8050.8,7508.57 "
     id="path113" />
  <path
     stroke="#000000"
     stroke-width="1"
     fill="none"
     transform="matrix(0.05 0 0 0.05 -10 -6)"
     d="M 8050.8,7508.57 C 8050.8,7508.57 7993.36,7286.81 7993.36,7286.81 C 7993.36,7286.81 8025.67,7314.53 8050.8,7314.53 C 8075.49,7314.53 8107.24,7286.81 8107.24,7286.81 C 8107.24,7286.81 8050.8,7508.57 8050.8,7508.57 C 8050.8,7508.57 8050.8,7508.57 8050.8,7508.57 "
     id="path114" />
  <path
     stroke="none"
     fill="#000000"
     transform="matrix(0.05 0 0 0.05 -10 -6)"
     d="M 10051,2986.43 L 6056.44,2986.43 L 6056.44,2964.43 L 10051,2964.43 Z "
     id="path115" />
  <path
     stroke="none"
     fill="#000000"
     transform="matrix(0.05 0 0 0.05 -10 -6)"
     d="M 8067.12,2973.45 L 8067.12,1885.08 L 8089.12,1885.08 L 8089.12,2973.45 Z "
     id="path116" />
  <text
     x="0"
     y="0"
     stroke="none"
     fill="#000000"
     transform="matrix(0.05 0 0 0.05 386.14 301.35)"
     font-style="normal"
     font-weight="bold"
     font-size="160px"
     font-family="Helvetica"
     id="text116">
or </text>
  <text
     x="0"
     y="0"
     stroke="none"
     fill="#000000"
     transform="matrix(0.05 0 0 0.05 396.363 301.35)"
     font-style="normal"
     font-weight="bold"
     font-size="160px"
     font-family="Helvetica"
     id="text117">
Py</text>
  <text
     x="0"
     y="0"
     stroke="none"
     fill="#000000"
     transform="matrix(0.05 0 0 0.05 481.229 385.991)"
     font-style="normal"
     font-weight="bold"
     font-size="160px"
     font-family="Helvetica"
     id="text127" />
  <text
     x="0"
     y="0"
     stroke="none"
     fill="#000000"
     transform="matrix(0.05 0 0 0.05 483.451 385.991)"
     font-style="normal"
     font-weight="bold"
     font-size="160px"
     font-family="Helvetica"
     id="text128" />
  <text
     x="0"
     y="0"
     stroke="none"
     fill="#000000"
     transform="matrix(0.05 0 0 0.05 485.674 385.991)"
     font-style="normal"
     font-weight="bold"
     font-size="160px"
     font-family="Helvetica"
     id="text129" />
  <text
     x="0"
     y="0"
     stroke="none"
     fill="#000000"
     transform="matrix(0.05 0 0 0.05 487.897 385.991)"
     font-style="normal"
     font-weight="bold"
     font-size="160px"
     font-family="Helvetica"
     id="text130" />
  <text
     x="0"
     y="0"
     stroke="none"
     fill="#000000"
     transform="matrix(0.05 0 0 0.05 490.119 385.991)"
     font-style="normal"
     font-weight="bold"
     font-size="160px"
     font-family="Helvetica"
     id="text131" />
  <text
     x="0"
     y="0"
     stroke="none"
     fill="#000000"
     transform="matrix(0.05 0 0 0.05 492.342 385.991)"
     font-style="normal"
     font-weight="bold"
     font-size="160px"
     font-family="Helvetica"
     id="text132" />
  <text
     x="0"
     y="0"
     stroke="none"
     fill="#000000"
     transform="matrix(0.05 0 0 0.05 494.565 385.991)"
     font-style="normal"
     font-weight="bold"
     font-size="160px"
     font-family="Helvetica"
     id="text133" />
  <text
     x="0"
     y="0"
     stroke="none"
     fill="#000000"
     transform="matrix(0.05 0 0 0.05 496.787 385.991)"
     font-style="normal"
     font-weight="bold"
     font-size="160px"
     font-family="Helvetica"
     id="text134" />
  <text
     x="0"
     y="0"
     stroke="none"
     fill="#000000"
     transform="matrix(0.05 0 0 0.05 499.01 385.991)"
     font-style="normal"
     font-weight="bold"
     font-size="160px"
     font-family="Helvetica"
     id="text135" />
  <text
     x="0"
     y="0"
     stroke="none"
     fill="#000000"
     transform="matrix(0.05 0 0 0.05 501.233 385.991)"
     font-style="normal"
     font-weight="bold"
     font-size="160px"
     font-family="Helvetica"
     id="text136" />
  <text
     x="0"
     y="0"
     stroke="none"
     fill="#000000"
     transform="matrix(0.05 0 0 0.05 503.455 385.991)"
     font-style="normal"
     font-weight="bold"
     font-size="160px"
     font-family="Helvetica"
     id="text137" />
  <text
     x="0"
     y="0"
     stroke="none"
     fill="#000000"
     transform="matrix(0.05 0 0 0.05 505.678 385.991)"
     font-style="normal"
     font-weight="bold"
     font-size="160px"
     font-family="Helvetica"
     id="text138" />
  <path
     stroke="none"
     fill="#ffffff"
     opacity="0"
     onclick="window.location.href = 'toacids-o1.svg'"
     transform="matrix(0.05 0 0 0.05 -10 -6)"
     d="M 6474.84,5231.78 C 6474.84,5231.78 6474.84,4178.96 6474.84,4178.96 C 6474.84,4178.96 5450.34,4178.96 5450.34,4178.96 C 5450.34,4178.96 5450.34,5231.78 5450.34,5231.78 C 5450.34,5231.78 6474.84,5231.78 6474.84,5231.78 "
     id="path3"
     inkscape:label="l-toacids" />
  <path
     stroke="none"
     fill="#ffffff"
     opacity="0"
     onclick="window.location.href = 'esters-o1.svg'"
     d="m 428.62164,431.35037 c 0,0 0,-58.21318 0,-58.21318 0,0 -70.7338,0 -70.7338,0 0,0 0,58.21318 0,58.21318 0,0 70.7338,0 70.7338,0"
     id="path17-5-8"
     inkscape:label="l-esters"
     style="opacity:0;stroke-width:0.0652777" />
  <path
     stroke="none"
     fill="#ffffff"
     opacity="0"
     onclick="window.location.href = 'halides-o1.svg'"
     d="m 288.44494,299.43466 c 0,0 0,-30.06489 0,-30.06489 0,0 -40.23982,0 -40.23982,0 0,0 0,30.06489 0,30.06489 0,0 40.23982,0 40.23982,0"
     id="path17-5-8-9"
     inkscape:label="l-halides"
     style="opacity:0;stroke-width:0.0353833" />
  <path
     stroke="none"
     fill="#ffffff"
     opacity="0"
     onclick="window.location.href = 'alcohols-o1.svg'"
     d="m 400.50365,292.97004 c 0,0 0,-19.90023 0,-19.90023 0,0 -44.9312,0 -44.9312,0 0,0 0,19.90023 0,19.90023 0,0 44.9312,0 44.9312,0"
     id="path17-5-8-9-5"
     inkscape:label="l-alcohols"
     style="opacity:0;stroke-width:0.0304189" />
  <path
     stroke="none"
     fill="#ffffff"
     opacity="0"
     onclick="window.location.href = 'alcohols-o1.svg'"
     d="m 543.70105,218.05623 c 0,0 0,-19.90023 0,-19.90023 0,0 -44.9312,0 -44.9312,0 0,0 0,19.90023 0,19.90023 0,0 44.9312,0 44.9312,0"
     id="path17-5-8-9-5-0-2"
     inkscape:label="l-alcohols"
     style="opacity:0;stroke-width:0.0304189" />
  <path
     stroke="none"
     fill="#ffffff"
     opacity="0"
     onclick="window.location.href = 'supplement-o1.svg'"
     d="m 289.34576,186.67441 c 0,0 0,-37.10196 0,-37.10196 0,0 -43.36741,0 -43.36741,0 0,0 0,37.10196 0,37.10196 0,0 43.36741,0 43.36741,0"
     id="path17-5-8-9-5-0-9-1-2"
     inkscape:label="l-supplement"
     style="opacity:0;stroke-width:0.0408057" />
  <path
     stroke="none"
     fill="#ffffff"
     opacity="0"
     onclick="window.location.href = 'supplement-o1.svg'"
     d="m 350.56914,175.40625 c 0,0 0,-20.68213 0,-20.68213 0,0 -38.67603,0 -38.67603,0 0,0 0,20.68213 0,20.68213 0,0 38.67603,0 38.67603,0"
     id="path17-5-8-9-5-0-9-1-0"
     inkscape:label="l-supplement"
     style="opacity:0;stroke-width:0.0287713" />
  <path
     stroke="none"
     fill="#ffffff"
     opacity="0"
     onclick="window.location.href = 'supplement-o1.svg'"
     d="m 544.86572,229.94164 c 0,0 0,-11.29937 0,-11.29937 0,0 -38.67603,0 -38.67603,0 0,0 0,11.29937 0,11.29937 0,0 38.67603,0 38.67603,0"
     id="path17-5-8-9-5-0-9-1-6"
     inkscape:label="l-supplement"
     style="opacity:0;stroke-width:0.0212662" />
  <path
     stroke="none"
     fill="#ffffff"
     opacity="0"
     onclick="window.location.href = 'supplement-o1.svg'"
     d="m 411.58457,305.81404 c 0,0 0,-14.42695 0,-14.42695 0,0 -50.40448,0 -50.40448,0 0,0 0,14.42695 0,14.42695 0,0 50.40448,0 50.40448,0"
     id="path17-5-8-9-5-0-9-1-07"
     inkscape:label="l-supplement"
     style="opacity:0;stroke-width:0.0274323" />
  <path
     stroke="none"
     fill="#ffffff"
     opacity="0"
     onclick="window.location.href = 'toalcohols-o1.svg'"
     d="m 546.61826,218.86654 c 0,0 0,-20.68213 0,-20.68213 0,0 -45.7131,0 -45.7131,0 0,0 0,20.68213 0,20.68213 0,0 45.7131,0 45.7131,0"
     id="path17-5-8-9-5-0-9-1-06"
     inkscape:label="l-supplement"
     style="opacity:0;stroke-width:0.0312794" />
  <path
     stroke="none"
     fill="#ffffff"
     opacity="0"
     onclick="window.location.href = 'toalcohols-o1.svg'"
     d="m 400.0458,290.75627 c 0,0 0,-20.68213 0,-20.68213 0,0 -45.7131,0 -45.7131,0 0,0 0,20.68213 0,20.68213 0,0 45.7131,0 45.7131,0"
     id="path17-5-8-9-5-0-9-1-06-09"
     inkscape:label="l-supplement"
     style="opacity:0;stroke-width:0.0312794" />
  <path
     stroke="none"
     fill="#ffffff"
     opacity="0"
     onclick="window.location.href = 'tohalides-o1.svg'"
     d="m 287.99236,295.283 c 0,0 0,-20.68213 0,-20.68213 0,0 -36.33034,0 -36.33034,0 0,0 0,20.68213 0,20.68213 0,0 36.33034,0 36.33034,0"
     id="path17-5-8-9-5-0-9-1-06-2"
     inkscape:label="l-supplement"
     style="opacity:0;stroke-width:0.0278851" />
  <g
     id="nostructures"
     onclick="window.location.href = 'toesters.svg'"
     transform="matrix(0.87844457,0,0,1,-3.2995176,381.05692)">
    <text
       x="18.000504"
       y="55.14151"
       stroke="none"
       fill="#000000"
       font-style="normal"
       font-weight="bold"
       font-size="200px"
       font-family="Helvetica"
       id="gobacktext-7"
       style="font-style:normal;font-variant:normal;font-weight:bold;font-stretch:normal;font-size:10px;font-family:Helvetica;-inkscape-font-specification:'Helvetica, Bold';font-variant-ligatures:normal;font-variant-caps:normal;font-variant-numeric:normal;font-variant-east-asian:normal;fill:#0088d0;fill-opacity:0.68;stroke:none;stroke-width:0.05"
       inkscape:label="noreagents-text"><tspan
         sodipodi:role="line"
         id="tspan1"
         x="18.000504"
         y="55.14151">show</tspan></text>
    <path
       stroke="none"
       fill="#999999"
       d="m 9.795,54.694678 c 0,0 0,-5.427567 0,-5.427567 0,-2.098514 1.679048,-3.801611 3.747601,-3.801611 0,0 35.119514,0 35.119514,0 2.068778,0 3.747742,1.703097 3.747742,3.801611 0,0 0,5.427567 0,5.427567 0,2.098514 -1.678964,3.801611 -3.747742,3.801611 0,0 -35.119514,0 -35.119514,0 -2.068553,0 -3.747601,-1.703097 -3.747601,-3.801611"
       id="goback-box-8"
       style="fill:#999999;fill-opacity:0.336842;stroke-width:0.0283675"
       inkscape:label="noreagents-box" />
  </g>
  <g
     id="noreagents"
     onclick="window.location.href = 'toesters-noreagents-o1.svg'"
     transform="translate(-4.6856272,382.9067)">
    <text
       x="11.541888"
       y="67.610527"
       stroke="none"
       fill="#000000"
       font-style="normal"
       font-weight="bold"
       font-size="200px"
       font-family="Helvetica"
       id="gobacktext-7-8"
       style="font-style:normal;font-weight:bold;font-size:10px;font-family:Helvetica;fill:#000000;fill-opacity:0.443609;stroke:none;stroke-width:0.05"
       inkscape:label="noproducts-text"><tspan
         sodipodi:role="line"
         id="tspan2-5"
         x="11.541888"
         y="67.610527"
         style="font-style:normal;font-variant:normal;font-weight:bold;font-stretch:normal;font-size:8px;font-family:Helvetica;-inkscape-font-specification:'Helvetica, Bold';font-variant-ligatures:normal;font-variant-caps:normal;font-variant-numeric:normal;font-variant-east-asian:normal;fill:#000000;fill-opacity:0.5;stroke-width:0.05">reagents</tspan></text>
    <rect
       style="fill:#000000;fill-opacity:0.821053;fill-rule:evenodd;stroke:#a13033;stroke-width:0;stroke-linecap:round;stroke-miterlimit:2;stroke-dasharray:none;paint-order:markers fill stroke"
       id="rect3-9"
       width="31.666824"
       height="0.9773711"
       x="12.566371"
       y="64.987999"
       inkscape:label="noproducts-line" />
    <path
       stroke="none"
       fill="#999999"
       d="m 10.136392,68.163695 c 0,0 0,-5.427567 0,-5.427567 0,-2.098514 1.463398,-3.801611 3.266274,-3.801611 0,0 30.608907,0 30.608907,0 1.803073,0 3.266397,1.703097 3.266397,3.801611 0,0 0,5.427567 0,5.427567 0,2.098514 -1.463324,3.801611 -3.266397,3.801611 0,0 -30.608907,0 -30.608907,0 -1.802876,0 -3.266274,-1.703097 -3.266274,-3.801611"
       id="goback-box-8-6"
       style="fill:#999999;fill-opacity:0.336842;stroke-width:0.0264832"
       inkscape:label="noproducts-box" />
  </g>
  <text
     x="822.84332"
     y="415.79849"
     stroke="none"
     fill="#000000"
     transform="matrix(0.92407999,-0.00322566,0.00377741,1.0821442,0,0)"
     font-style="italic"
     font-weight="bold"
     font-size="8.25806px"
     font-family="'Helvetica Oblique'"
     id="text1"
     style="opacity:1;fill:#00009a;fill-opacity:0.651128;stroke-width:0.0412903">chemisfun</text>
  <g
     id="overlay-box"
     style="opacity:0"
     transform="matrix(0.31364504,0,0,0.8007311,650.50736,385.81436)">
    <rect
       style="fill:#609975;fill-opacity:0.2;stroke:#609970;stroke-width:0;stroke-linecap:round;stroke-opacity:0.657143;paint-order:fill markers stroke"
       id="rect285"
       width="164.84744"
       height="59.583412"
       x="329.69489"
       y="23.171328" />
  </g>
  <g
     id="overlay"
     onclick="window.location.href = 'index.html'"
     onmouseover="this.ownerDocument.getElementById('overlay-box').style.opacity='0.5'"
     onmouseout="this.ownerDocument.getElementById('overlay-box').style.opacity='0'"
     transform="matrix(0.76550767,-0.0030054,0.00267214,0.86098131,195.61318,22.784653)">
    <rect
       style="opacity:0.5;fill:#ffffff;fill-opacity:0;stroke-linecap:round;stroke-opacity:0.657143;paint-order:stroke fill markers"
       id="rect2"
       width="65.93074"
       height="55.035408"
       x="733.06049"
       y="445.87061" />
  </g>
  <g
     id="g1"
     transform="matrix(0.0625,0,0,0.0625,764.65732,406.62566)">
    <rect
       x="239.31"
       y="120.321"
       style="fill:#444242"
       width="33.389"
       height="139.98"
       id="rect1" />
    <rect
       x="256"
       y="120.321"
       style="fill:#3a3839"
       width="16.695"
       height="139.98"
       id="rect2-2" />
    <rect
       x="132.194"
       y="305.86301"
       transform="matrix(0.5,0.866,-0.866,0.5,399.932,58.9793)"
       style="fill:#444242"
       width="33.387001"
       height="139.967"
       id="rect4" />
    <rect
       x="293.125"
       y="359.13"
       transform="matrix(0.866,0.5,-0.5,0.866,236.5654,-131.205)"
       style="fill:#3a3839"
       width="139.967"
       height="33.387001"
       id="rect5" />
    <path
       style="background-color:#ffffff00;fill:#439de2;fill-opacity:1"
       d="m 456.843,485.07 c -9.538,0 -18.951,-2.501 -27.432,-7.398 v 0 c -12.733,-7.351 -21.842,-19.221 -25.646,-33.424 -3.805,-14.201 -1.853,-29.035 5.499,-41.769 7.351,-12.732 19.221,-21.841 33.424,-25.646 14.201,-3.806 29.034,-1.853 41.769,5.499 12.732,7.351 21.841,19.221 25.646,33.424 3.805,14.202 1.853,29.035 -5.499,41.769 -7.351,12.733 -19.221,21.842 -33.424,25.646 -4.742,1.27 -9.557,1.899 -14.337,1.899 z"
       id="path7-3" />
    <path
       style="background-color:#ffffff00;fill:#eda74a;fill-opacity:1"
       d="m 256.001,137.021 c -30.352,0 -55.044,-24.693 -55.044,-55.044 0,-30.351 24.693,-55.044 55.044,-55.044 30.351,0 55.044,24.693 55.044,55.044 0,30.351 -24.693,55.044 -55.044,55.044 z"
       id="path5-4" />
    <path
       style="background-color:#ffffff00;fill:#53acb1;fill-opacity:1"
       d="m 55.158,485.07 c -4.781,0 -9.594,-0.629 -14.336,-1.9 C 26.619,479.365 14.75,470.256 7.398,457.524 0.046,444.792 -1.906,429.957 1.899,415.755 c 3.805,-14.203 12.914,-26.072 25.646,-33.424 12.731,-7.352 27.567,-9.304 41.769,-5.499 14.203,3.805 26.072,12.914 33.424,25.646 7.352,12.732 9.304,27.567 5.499,41.769 -3.805,14.203 -12.914,26.072 -25.646,33.424 -8.481,4.897 -17.896,7.399 -27.433,7.399 z"
       id="path6-7" />
    <path
       style="fill:#f74d37"
       d="m 256.001,384.379 c -38.81,0 -70.384,-31.575 -70.384,-70.384 0,-38.809 31.575,-70.384 70.384,-70.384 38.809,0 70.384,31.575 70.384,70.384 0,38.809 -31.575,70.384 -70.384,70.384 z"
       id="path4-9" />
  </g>
</svg>
