<?xml version="1.0" encoding="UTF-8" standalone="no"?>
<svg
   width="100%"
   height="100%"
   viewBox="0 0 818 460"
   style="background-color: #ffffff00"
   version="1.1"
   id="svg315"
   sodipodi:docname="toketones-noreactants.svg"
   inkscape:version="1.4.2 (ebf0e940, 2025-05-08)"
   xmlns:inkscape="http://www.inkscape.org/namespaces/inkscape"
   xmlns:sodipodi="http://sodipodi.sourceforge.net/DTD/sodipodi-0.dtd"
   xmlns="http://www.w3.org/2000/svg"
   xmlns:svg="http://www.w3.org/2000/svg">
  <path
     stroke="#ffffff"
     stroke-width="1"
     fill="none"
     transform="matrix(0.05 0 0 0.05 -10 -11)"
     d="M 2345.2,3746.6 C 2345.2,3746.6 2345.2,3345.2 2345.2,3345.2 C 2345.2,3345.2 1057.2,3345.2 1057.2,3345.2 C 1057.2,3345.2 1057.2,3746.6 1057.2,3746.6 C 1057.2,3746.6 2345.2,3746.6 2345.2,3746.6 "
     id="path2" />
  <path
     stroke="#ffffff"
     stroke-width="1"
     fill="none"
     transform="matrix(0.05 0 0 0.05 -10 -11)"
     d="M 4919.2,5391.1 C 4919.2,5391.1 4919.2,3173.6 4919.2,3173.6 C 4919.2,3173.6 3173.6,3173.6 3173.6,3173.6 C 3173.6,3173.6 3173.6,5391.1 3173.6,5391.1 C 3173.6,5391.1 4919.2,5391.1 4919.2,5391.1 "
     id="path4" />
  <path
     stroke="#ffffff"
     stroke-width="1"
     fill="none"
     transform="matrix(0.05 0 0 0.05 -10 -11)"
     d="M 6849.7,5391.1 C 6849.7,5391.1 6849.7,3130.7 6849.7,3130.7 C 6849.7,3130.7 5175.6,3130.7 5175.6,3130.7 C 5175.6,3130.7 5175.6,5391.1 5175.6,5391.1 C 5175.6,5391.1 6849.7,5391.1 6849.7,5391.1 "
     id="path6" />
  <path
     stroke="#ffffff"
     stroke-width="1"
     fill="none"
     transform="matrix(0.05 0 0 0.05 -10 -11)"
     d="M 8165.3,2731.3 C 8165.3,2731.3 8165.3,1800.8 8165.3,1800.8 C 8165.3,1800.8 7377.8,1800.8 7377.8,1800.8 C 7377.8,1800.8 7377.8,2731.3 7377.8,2731.3 C 7377.8,2731.3 8165.3,2731.3 8165.3,2731.3 "
     id="path8" />
  <path
     stroke="#ffffff"
     stroke-width="1"
     fill="none"
     transform="matrix(0.05 0 0 0.05 -10 -11)"
     d="M 8465.6,5548.4 C 8465.6,5548.4 8465.6,4818.1 8465.6,4818.1 C 8465.6,4818.1 7606.6,4818.1 7606.6,4818.1 C 7606.6,4818.1 7606.6,5548.4 7606.6,5548.4 C 7606.6,5548.4 8465.6,5548.4 8465.6,5548.4 "
     id="path14" />
  <path
     stroke="#ffffff"
     stroke-width="1"
     fill="none"
     transform="matrix(0.05 0 0 0.05 -10 -11)"
     d="M 11297,5562.7 C 11297,5562.7 11297,4803.8 11297,4803.8 C 11297,4803.8 10194.9,4803.8 10194.9,4803.8 C 10194.9,4803.8 10194.9,5562.7 10194.9,5562.7 C 10194.9,5562.7 11297,5562.7 11297,5562.7 "
     id="path18" />
  <path
     stroke="none"
     fill="#ffffff"
     transform="matrix(0.05 0 0 0.05 -10 -11)"
     d="M 12383.8,5505.5 C 12383.8,5505.5 12383.8,6105.1 12383.8,6105.1 C 12383.8,6105.1 13885.3,6105.1 13885.3,6105.1 C 13885.3,6105.1 13885.3,5505.5 13885.3,5505.5 C 13885.3,5505.5 12383.8,5505.5 12383.8,5505.5 "
     id="path21" />
  <path
     stroke="#ffffff"
     stroke-width="1"
     fill="none"
     transform="matrix(0.05 0 0 0.05 -10 -11)"
     d="M 12383.8,5505.5 C 12383.8,5505.5 12383.8,6105.1 12383.8,6105.1 C 12383.8,6105.1 13885.3,6105.1 13885.3,6105.1 C 13885.3,6105.1 13885.3,5505.5 13885.3,5505.5 C 13885.3,5505.5 12383.8,5505.5 12383.8,5505.5 "
     id="path22" />
  <path
     stroke="#000000"
     stroke-width="22"
     fill="none"
     d="M 16494.7,9367.47 C 16494.7,9367.47 16494.7,284.602 16494.7,284.602 C 16494.7,284.602 268.683,284.602 268.683,284.602 C 268.683,284.602 268.683,9367.47 268.683,9367.47 C 268.683,9367.47 16494.7,9367.47 16494.7,9367.47 "
     id="path25"
     transform="matrix(0.05 0 0 0.05 -10 -11)" />
  <text
     x="0"
     y="0"
     stroke="none"
     fill="#000000"
     transform="matrix(0.05 0 0 0.05 11.735 21.13)"
     font-style="normal"
     font-weight="bold"
     font-size="320px"
     font-family="Helvetica"
     id="text25">
Preparation of Ketones</text>
  <text
     x="0"
     y="0"
     stroke="none"
     fill="#999999"
     transform="matrix(0.05 0 0 0.05 11.9381 39.085)"
     font-style="normal"
     font-weight="normal"
     font-size="320px"
     font-family="Helvetica"
     id="text28">
click for more</text>
  <g
     id="goback"
     onclick="window.location.href = 'index.svg'"
     onmouseover="document.getElementById('goback-box').setAttribute('opacity','0.5');"
     onmouseout="document.getElementById('goback-box').setAttribute('opacity','1')">
    <path
       stroke="none"
       fill="#999999"
       transform="matrix(0.05 0 0 0.05 -10 -11)"
       d="M 395.9,1492.34 C 395.9,1492.34 395.9,1302.37 395.9,1302.37 C 395.9,1228.92 455.513,1169.31 528.955,1169.31 C 528.955,1169.31 1775.84,1169.31 1775.84,1169.31 C 1849.29,1169.31 1908.9,1228.92 1908.9,1302.37 C 1908.9,1302.37 1908.9,1492.34 1908.9,1492.34 C 1908.9,1565.79 1849.29,1625.4 1775.84,1625.4 C 1775.84,1625.4 528.955,1625.4 528.955,1625.4 C 455.513,1625.4 395.9,1565.79 395.9,1492.34 "
       id="goback-box" />
    <text
       x="0"
       y="0"
       stroke="none"
       fill="#000000"
       transform="matrix(0.05 0 0 0.05 29.3796 61.765)"
       font-style="normal"
       font-weight="bold"
       font-size="200px"
       font-family="Helvetica"
       id="gobacktext">
go home</text>
    <path
       stroke="#999999"
       stroke-width="1"
       transform="matrix(0.05 0 0 0.05 -10 -11)"
       d="M 395.9,1492.34 C 395.9,1492.34 395.9,1302.37 395.9,1302.37 C 395.9,1228.92 455.513,1169.31 528.955,1169.31 C 528.955,1169.31 1775.84,1169.31 1775.84,1169.31 C 1849.29,1169.31 1908.9,1228.92 1908.9,1302.37 C 1908.9,1302.37 1908.9,1492.34 1908.9,1492.34 C 1908.9,1565.79 1849.29,1625.4 1775.84,1625.4 C 1775.84,1625.4 528.955,1625.4 528.955,1625.4 C 455.513,1625.4 395.9,1565.79 395.9,1492.34 "
       onclick="window.location.href = 'index.svg'"
       style="opacity:0"
       id="goback-link" />
  </g>
  <g
     id="howdotheyreact"
     onclick="window.location.href = 'ketones.svg'"
     onmouseover="document.getElementById('howdotheyreact-box').setAttribute('opacity','0.5');"
     onmouseout="document.getElementById('howdotheyreact-box').setAttribute('opacity','1')">
    <path
       stroke="none"
       fill="#999999"
       transform="matrix(0.05 0 0 0.05 -10 -11)"
       d="M 381.591,1996.7 C 381.591,1996.7 381.591,1806.72 381.591,1806.72 C 381.591,1733.28 441.204,1673.66 514.646,1673.66 C 514.646,1673.66 2149.06,1673.66 2149.06,1673.66 C 2222.51,1673.66 2282.12,1733.28 2282.12,1806.72 C 2282.12,1806.72 2282.12,1996.7 2282.12,1996.7 C 2282.12,2070.14 2222.51,2129.75 2149.06,2129.75 C 2149.06,2129.75 514.646,2129.75 514.646,2129.75 C 441.204,2129.75 381.591,2070.14 381.591,1996.7 "
       id="howdotheyreact-box" />
    <text
       x="0"
       y="0"
       stroke="none"
       fill="#000000"
       transform="matrix(0.05 0 0 0.05 12.2417 86.9826)"
       font-style="normal"
       font-weight="bold"
       font-size="200px"
       font-family="Helvetica"
       id="howdotheyreact-text">
how do they react?</text>
    <path
       stroke="#999999"
       stroke-width="1"
       transform="matrix(0.05 0 0 0.05 -10 -11)"
       d="M 381.591,1996.7 C 381.591,1996.7 381.591,1806.72 381.591,1806.72 C 381.591,1733.28 441.204,1673.66 514.646,1673.66 C 514.646,1673.66 2149.06,1673.66 2149.06,1673.66 C 2222.51,1673.66 2282.12,1733.28 2282.12,1806.72 C 2282.12,1806.72 2282.12,1996.7 2282.12,1996.7 C 2282.12,2070.14 2222.51,2129.75 2149.06,2129.75 C 2149.06,2129.75 514.646,2129.75 514.646,2129.75 C 441.204,2129.75 381.591,2070.14 381.591,1996.7 "
       style="opacity:0"
       id="howdotheyreact-link" />
  </g>
  <path
     stroke="none"
     fill="#000000"
     transform="matrix(0.05 0 0 0.05 -10 -11)"
     d="M 4064.5,6370.69 L 4064.5,5505.5 L 4086.5,5505.5 L 4086.5,6370.69 Z "
     id="path36" />
  <text
     x="0"
     y="0"
     stroke="none"
     fill="#000000"
     transform="matrix(0.05 0 0 0.05 164.143 286.238)"
     font-style="normal"
     font-weight="bold"
     font-size="200px"
     font-family="Helvetica"
     id="text42">
H</text>
  <text
     x="0"
     y="0"
     stroke="none"
     fill="#000000"
     transform="matrix(0.05 0 0 0.05 171.365 288.538)"
     font-style="normal"
     font-weight="bold"
     font-size="150px"
     font-family="Helvetica"
     id="text43">
3</text>
  <text
     x="0"
     y="0"
     stroke="none"
     fill="#000000"
     transform="matrix(0.05 0 0 0.05 175.536 286.238)"
     font-style="normal"
     font-weight="bold"
     font-size="200px"
     font-family="Helvetica"
     id="text44">
O</text>
  <text
     x="0"
     y="0"
     stroke="none"
     fill="#000000"
     transform="matrix(0.05 0 0 0.05 183.315 282.64)"
     font-style="normal"
     font-weight="bold"
     font-size="150px"
     font-family="Helvetica"
     id="text45">
+</text>
  <path
     stroke="none"
     fill="#000000"
     transform="matrix(0.05 0 0 0.05 -10 -11)"
     d="M 1934.44,4580.87 L 1934.44,3822.38 L 1956.44,3822.38 L 1956.44,4580.87 Z "
     id="path54" />
  <path
     stroke="none"
     fill="#000000"
     transform="matrix(0.05 0 0 0.05 -10 -11)"
     d="M 1945.44,4773.91 C 1945.44,4773.91 1888,4552.15 1888,4552.15 C 1888,4552.15 1920.31,4579.87 1945.44,4579.87 C 1970.13,4579.87 2001.88,4552.15 2001.88,4552.15 C 2001.88,4552.15 1945.44,4773.91 1945.44,4773.91 C 1945.44,4773.91 1945.44,4773.91 1945.44,4773.91 "
     id="path55" />
  <path
     stroke="#000000"
     stroke-width="1"
     fill="none"
     transform="matrix(0.05 0 0 0.05 -10 -11)"
     d="M 1945.44,4773.91 C 1945.44,4773.91 1888,4552.15 1888,4552.15 C 1888,4552.15 1920.31,4579.87 1945.44,4579.87 C 1970.13,4579.87 2001.88,4552.15 2001.88,4552.15 C 2001.88,4552.15 1945.44,4773.91 1945.44,4773.91 C 1945.44,4773.91 1945.44,4773.91 1945.44,4773.91 "
     id="path56" />
  <text
     x="0"
     y="0"
     stroke="none"
     fill="#999999"
     transform="matrix(0.05 0 0 0.05 61.5472 361.023)"
     font-style="normal"
     font-weight="normal"
     font-size="160px"
     font-family="Helvetica"
     id="text56">
Markovnikov</text>
  <path
     stroke="none"
     fill="#000000"
     transform="matrix(0.05 0 0 0.05 -10 -11)"
     d="M 1712.66,5278.1 L 1690.46,5265.22 L 1689.75,5072.49 L 1711.93,5072.49 L 1712.66,5278.1 Z "
     id="path61" />
  <text
     x="0"
     y="0"
     stroke="none"
     fill="#0000ff"
     transform="matrix(0.05 0 0 0.05 71.5418 240.839)"
     font-style="normal"
     font-weight="bold"
     font-size="180px"
     font-family="Helvetica"
     id="text61">
OH</text>
  <path
     stroke="#000000"
     stroke-width="22"
     fill="none"
     transform="matrix(0.05 0 0 0.05 -10 -11)"
     d="M 1370.08,5545.89 L 1322.56,5545.89 "
     id="path62" />
  <path
     stroke="#000000"
     stroke-width="22"
     fill="none"
     transform="matrix(0.05 0 0 0.05 -10 -11)"
     d="M 1322.56,5545.89 L 1322.56,4894.99 "
     id="path63" />
  <path
     stroke="#000000"
     stroke-width="22"
     fill="none"
     transform="matrix(0.05 0 0 0.05 -10 -11)"
     d="M 1322.56,4894.99 L 1370.08,4894.99 "
     id="path64" />
  <path
     stroke="#000000"
     stroke-width="22"
     fill="none"
     transform="matrix(0.05 0 0 0.05 -10 -11)"
     d="M 2472.7,4894.99 L 2520.22,4894.99 "
     id="path65" />
  <path
     stroke="#000000"
     stroke-width="22"
     fill="none"
     transform="matrix(0.05 0 0 0.05 -10 -11)"
     d="M 2520.22,4894.99 L 2520.22,5545.89 "
     id="path66" />
  <path
     stroke="#000000"
     stroke-width="22"
     fill="none"
     transform="matrix(0.05 0 0 0.05 -10 -11)"
     d="M 2520.22,5545.89 L 2472.7,5545.89 "
     id="path67" />
  <path
     stroke="none"
     fill="#000000"
     transform="matrix(0.05 0 0 0.05 -10 -11)"
     d="M 1965.78,5430.89 L 1954.69,5411.68 L 2120.74,5315.82 L 2131.83,5335.02 L 1965.78,5430.89 Z "
     id="path68" />
  <text
     x="0"
     y="0"
     stroke="none"
     fill="#0000ff"
     transform="matrix(0.05 0 0 0.05 97.7315 255.815)"
     font-style="normal"
     font-weight="bold"
     font-size="180px"
     font-family="Helvetica"
     id="text68">
H</text>
  <path
     stroke="none"
     fill="#000000"
     transform="matrix(0.05 0 0 0.05 -10 -11)"
     d="M 1695.3,5249.12 L 1706.38,5229.92 L 1993.5,5395.68 L 1982.41,5414.88 L 1695.3,5249.12 Z "
     id="path69" />
  <path
     stroke="none"
     fill="#000000"
     transform="matrix(0.05 0 0 0.05 -10 -11)"
     d="M 1667.58,5297.13 L 1678.66,5277.93 L 1951.92,5435.69 L 1940.83,5454.89 L 1667.58,5297.13 Z "
     id="path70" />
  <text
     x="0"
     y="0"
     stroke="none"
     fill="#000000"
     transform="matrix(0.05 0 0 0.05 69.6408 280.849)"
     font-style="italic"
     font-weight="normal"
     font-size="200px"
     font-family="Helvetica Oblique"
     id="text70">
more sub</text>
  <path
     stroke="none"
     fill="#000000"
     transform="matrix(0.05 0 0 0.05 -10 -11)"
     d="M 1446.99,5430.89 L 1435.9,5411.68 L 1690.46,5265.22 L 1712.66,5278.1 L 1446.99,5430.89 Z "
     id="path71" />
  <path
     stroke="none"
     fill="#000000"
     transform="matrix(0.05 0 0 0.05 -10 -11)"
     d="M 1907.54,6206.3 L 1907.54,6015 L 1929.54,6015 L 1929.54,6206.3 Z "
     id="path72" />
  <path
     stroke="none"
     fill="#000000"
     transform="matrix(0.05 0 0 0.05 -10 -11)"
     d="M 1918.54,6399.34 C 1918.54,6399.34 1861.1,6177.58 1861.1,6177.58 C 1861.1,6177.58 1893.41,6205.3 1918.54,6205.3 C 1943.24,6205.3 1974.98,6177.58 1974.98,6177.58 C 1974.98,6177.58 1918.54,6399.34 1918.54,6399.34 C 1918.54,6399.34 1918.54,6399.34 1918.54,6399.34 "
     id="path73" />
  <path
     stroke="#000000"
     stroke-width="1"
     fill="none"
     transform="matrix(0.05 0 0 0.05 -10 -11)"
     d="M 1918.54,6399.34 C 1918.54,6399.34 1861.1,6177.58 1861.1,6177.58 C 1861.1,6177.58 1893.41,6205.3 1918.54,6205.3 C 1943.24,6205.3 1974.98,6177.58 1974.98,6177.58 C 1974.98,6177.58 1918.54,6399.34 1918.54,6399.34 C 1918.54,6399.34 1918.54,6399.34 1918.54,6399.34 "
     id="path74" />
  <text
     x="0"
     y="0"
     stroke="none"
     fill="#000000"
     transform="matrix(0.05 0 0 0.05 26.7964 301.087)"
     font-style="italic"
     font-weight="normal"
     font-size="160px"
     font-family="Helvetica Oblique"
     id="text74">
tautomerization</text>
  <path
     stroke="none"
     fill="#000000"
     transform="matrix(0.05 0 0 0.05 -10 -11)"
     d="M 12341.8,6276.75 L 12341.8,5591.3 L 12363.8,5591.3 L 12363.8,6276.75 Z "
     id="path75" />
  <path
     stroke="none"
     fill="#000000"
     transform="matrix(0.05 0 0 0.05 -10 -11)"
     d="M 12352.8,6469.79 C 12352.8,6469.79 12295.4,6248.03 12295.4,6248.03 C 12295.4,6248.03 12327.7,6275.75 12352.8,6275.75 C 12377.5,6275.75 12409.3,6248.03 12409.3,6248.03 C 12409.3,6248.03 12352.8,6469.79 12352.8,6469.79 C 12352.8,6469.79 12352.8,6469.79 12352.8,6469.79 "
     id="path76" />
  <path
     stroke="#000000"
     stroke-width="1"
     fill="none"
     transform="matrix(0.05 0 0 0.05 -10 -11)"
     d="M 12352.8,6469.79 C 12352.8,6469.79 12295.4,6248.03 12295.4,6248.03 C 12295.4,6248.03 12327.7,6275.75 12352.8,6275.75 C 12377.5,6275.75 12409.3,6248.03 12409.3,6248.03 C 12409.3,6248.03 12352.8,6469.79 12352.8,6469.79 C 12352.8,6469.79 12352.8,6469.79 12352.8,6469.79 "
     id="path77" />
  <text
     x="0"
     y="0"
     stroke="none"
     fill="#ff0000"
     transform="matrix(0.05 0 0 0.05 591.189 290.569)"
     font-style="normal"
     font-weight="bold"
     font-size="144px"
     font-family="Arial"
     id="text77">
C</text>
  <path
     stroke="none"
     fill="#ff0000"
     transform="matrix(0.05 0 0 0.05 -10 -11)"
     d="M 12135.1,6027.6 L 12144.6,6012.58 L 12259.8,6084.97 L 12250.4,6099.99 L 12135.1,6027.6 Z "
     id="path78" />
  <text
     x="0"
     y="0"
     stroke="none"
     fill="#ff0000"
     transform="matrix(0.05 0 0 0.05 590.988 278.588)"
     font-style="normal"
     font-weight="bold"
     font-size="144px"
     font-family="Arial"
     id="text78">
O</text>
  <path
     stroke="none"
     fill="#ff0000"
     transform="matrix(0.05 0 0 0.05 -10 -11)"
     d="M 12062.5,5902.22 L 12044.7,5902.22 L 12044.7,5818.99 L 12062.5,5818.99 L 12062.5,5902.22 Z "
     id="path79" />
  <path
     stroke="none"
     fill="#ff0000"
     transform="matrix(0.05 0 0 0.05 -10 -11)"
     d="M 12106.8,5902.22 L 12089.1,5902.22 L 12089.1,5818.99 L 12106.8,5818.99 L 12106.8,5902.22 Z "
     id="path80" />
  <path
     stroke="#ff0000"
     stroke-width="14"
     fill="none"
     transform="matrix(0.05 0 0 0.05 -10 -11)"
     d="M 11921.7,6070.02 A 55.0962,55.0962 0 1 0 12031.9,6070.02A 55.0962,55.0962 0 1 0 11921.7,6070.02Z "
     id="path81" />
  <path
     stroke="none"
     fill="#ff0000"
     transform="matrix(0.05 0 0 0.05 -10 -11)"
     d="M 11943.9,6063.02 L 12009.6,6063.02 L 12009.6,6077.02 L 11943.9,6077.02 Z "
     id="path82" />
  <path
     stroke="none"
     fill="#ff0000"
     transform="matrix(0.05 0 0 0.05 -10 -11)"
     d="M 11983.8,6037.15 L 11983.8,6102.89 L 11969.8,6102.89 L 11969.8,6037.15 Z "
     id="path83" />
  <path
     stroke="none"
     fill="#000000"
     transform="matrix(0.05 0 0 0.05 -10 -11)"
     d="M 12179.2,6985.08 L 12201.4,6997.94 L 12201.4,7178.23 L 12179.2,7191.09 L 12179.2,6985.08 Z "
     id="path84" />
  <path
     stroke="none"
     fill="#000000"
     transform="matrix(0.05 0 0 0.05 -10 -11)"
     d="M 12235.4,7023.95 L 12257.6,7023.95 L 12257.6,7152.23 L 12235.4,7152.23 L 12235.4,7023.95 Z "
     id="path85" />
  <path
     stroke="none"
     fill="#000000"
     transform="matrix(0.05 0 0 0.05 -10 -11)"
     d="M 12179.2,7191.09 L 12201.4,7178.23 L 12357.6,7268.37 L 12357.6,7294.1 L 12179.2,7191.09 Z "
     id="path86" />
  <path
     stroke="none"
     fill="#000000"
     transform="matrix(0.05 0 0 0.05 -10 -11)"
     d="M 12357.6,7294.1 L 12357.6,7268.37 L 12513.7,7178.23 L 12536,7191.09 L 12357.6,7294.1 Z "
     id="path87" />
  <path
     stroke="none"
     fill="#000000"
     transform="matrix(0.05 0 0 0.05 -10 -11)"
     d="M 12363.1,7225.96 L 12352,7206.76 L 12463.1,7142.62 L 12474.2,7161.83 L 12363.1,7225.96 Z "
     id="path88" />
  <path
     stroke="none"
     fill="#000000"
     transform="matrix(0.05 0 0 0.05 -10 -11)"
     d="M 12536,7191.09 L 12513.7,7178.23 L 12513.7,6997.94 L 12536,6985.08 L 12536,7191.09 Z "
     id="path89" />
  <path
     stroke="none"
     fill="#000000"
     transform="matrix(0.05 0 0 0.05 -10 -11)"
     d="M 12536,6985.08 L 12513.7,6997.94 L 12357.6,6907.8 L 12357.6,6895.79 L 12368.1,6889.88 L 12536,6985.08 Z "
     id="path90" />
  <path
     stroke="none"
     fill="#000000"
     transform="matrix(0.05 0 0 0.05 -10 -11)"
     d="M 12474.2,7014.35 L 12463.1,7033.55 L 12352,6969.41 L 12363.1,6950.21 L 12474.2,7014.35 Z "
     id="path91" />
  <path
     stroke="none"
     fill="#000000"
     transform="matrix(0.05 0 0 0.05 -10 -11)"
     d="M 12347.2,6889.8 L 12357.6,6895.79 L 12357.6,6907.8 L 12201.4,6997.94 L 12179.2,6985.08 L 12347.2,6889.8 Z "
     id="path92" />
  <path
     stroke="none"
     fill="#ff0000"
     transform="matrix(0.05 0 0 0.05 -10 -11)"
     d="M 12368.1,6889.88 L 12357.6,6895.79 L 12347.2,6889.8 L 12347.9,6678.27 L 12370,6692.76 L 12368.1,6889.88 Z "
     id="path93" />
  <path
     stroke="none"
     fill="#0000ff"
     transform="matrix(0.05 0 0 0.05 -10 -11)"
     d="M 12370,6692.76 L 12347.9,6678.27 L 12589.2,6570.67 L 12598.3,6590.9 L 12370,6692.76 Z "
     id="path94" />
  <text
     x="0"
     y="0"
     stroke="none"
     fill="#0000ff"
     transform="matrix(0.05 0 0 0.05 596.166 319.848)"
     font-style="normal"
     font-weight="bold"
     font-size="180px"
     font-family="Helvetica"
     id="text94">
O</text>
  <path
     stroke="none"
     fill="#0000ff"
     transform="matrix(0.05 0 0 0.05 -10 -11)"
     d="M 12366.3,6712.47 L 12352.4,6729.76 L 12246.5,6644.66 L 12260.4,6627.37 L 12366.3,6712.47 Z "
     id="path95" />
  <path
     stroke="none"
     fill="#0000ff"
     transform="matrix(0.05 0 0 0.05 -10 -11)"
     d="M 12395.1,6664.46 L 12381.2,6681.75 L 12281.2,6601.43 L 12295.1,6584.14 L 12395.1,6664.46 Z "
     id="path96" />
  <path
     stroke="none"
     fill="#000000"
     transform="matrix(0.05 0 0 0.05 -10 -11)"
     d="M 9416.81,6320.8 L 9416.81,5620.88 L 9438.81,5620.88 L 9438.81,6320.8 Z "
     id="path97" />
  <path
     stroke="none"
     fill="#000000"
     transform="matrix(0.05 0 0 0.05 -10 -11)"
     d="M 9427.81,6513.84 C 9427.81,6513.84 9370.37,6292.08 9370.37,6292.08 C 9370.37,6292.08 9402.68,6319.8 9427.81,6319.8 C 9452.5,6319.8 9484.25,6292.08 9484.25,6292.08 C 9484.25,6292.08 9427.81,6513.84 9427.81,6513.84 C 9427.81,6513.84 9427.81,6513.84 9427.81,6513.84 "
     id="path98" />
  <path
     stroke="#000000"
     stroke-width="1"
     fill="none"
     transform="matrix(0.05 0 0 0.05 -10 -11)"
     d="M 9427.81,6513.84 C 9427.81,6513.84 9370.37,6292.08 9370.37,6292.08 C 9370.37,6292.08 9402.68,6319.8 9427.81,6319.8 C 9452.5,6319.8 9484.25,6292.08 9484.25,6292.08 C 9484.25,6292.08 9427.81,6513.84 9427.81,6513.84 C 9427.81,6513.84 9427.81,6513.84 9427.81,6513.84 "
     id="path99" />
  <path
     stroke="none"
     fill="#ff0000"
     transform="matrix(0.05 0 0 0.05 -10 -11)"
     d="M 9448.6,7065.38 L 9448.54,7039.71 L 9619.81,7139.47 L 9608.73,7158.68 L 9448.6,7065.38 Z "
     id="path104" />
  <text
     x="0"
     y="0"
     stroke="none"
     fill="#0000ff"
     transform="matrix(0.05 0 0 0.05 472.135 352.389)"
     font-style="normal"
     font-weight="bold"
     font-size="180px"
     font-family="Helvetica"
     id="text104">
R</text>
  <path
     stroke="none"
     fill="#000000"
     transform="matrix(0.05 0 0 0.05 -10 -11)"
     d="M 9194.45,7212.61 L 9183.36,7193.41 L 9448.54,7039.71 L 9448.6,7065.38 L 9194.45,7212.61 Z "
     id="path105" />
  <text
     x="0"
     y="0"
     stroke="none"
     fill="#0000ff"
     transform="matrix(0.05 0 0 0.05 458.915 329.925)"
     font-style="normal"
     font-weight="bold"
     font-size="180px"
     font-family="Helvetica"
     id="text105">
O</text>
  <path
     stroke="none"
     fill="#000000"
     transform="matrix(0.05 0 0 0.05 -10 -11)"
     d="M 9431.67,7069.26 L 9409.49,7069.26 L 9409.49,6854.22 L 9431.67,6854.22 L 9431.67,7069.26 Z "
     id="path106" />
  <path
     stroke="none"
     fill="#000000"
     transform="matrix(0.05 0 0 0.05 -10 -11)"
     d="M 9487.11,7069.26 L 9464.93,7069.26 L 9464.93,6854.22 L 9487.11,6854.22 L 9487.11,7069.26 Z "
     id="path107" />
  <text
     x="0"
     y="0"
     stroke="none"
     fill="#000000"
     transform="matrix(0.05 0 0 0.05 416.23 300.7)"
     font-style="normal"
     font-weight="bold"
     font-size="160px"
     font-family="Helvetica"
     id="text107">
then </text>
  <text
     x="0"
     y="0"
     stroke="none"
     fill="#000000"
     transform="matrix(0.05 0 0 0.05 435.339 300.7)"
     font-style="normal"
     font-weight="bold"
     font-size="160px"
     font-family="Helvetica"
     id="text108">
H</text>
  <text
     x="0"
     y="0"
     stroke="none"
     fill="#000000"
     transform="matrix(0.05 0 0 0.05 441.117 302.539)"
     font-style="normal"
     font-weight="bold"
     font-size="120px"
     font-family="Helvetica"
     id="text109">
3</text>
  <text
     x="0"
     y="0"
     stroke="none"
     fill="#000000"
     transform="matrix(0.05 0 0 0.05 444.454 300.7)"
     font-style="normal"
     font-weight="bold"
     font-size="160px"
     font-family="Helvetica"
     id="text110">
O</text>
  <text
     x="0"
     y="0"
     stroke="none"
     fill="#000000"
     transform="matrix(0.05 0 0 0.05 450.676 297.821)"
     font-style="normal"
     font-weight="bold"
     font-size="120px"
     font-family="Helvetica"
     id="text111">
+</text>
  <path
     stroke="none"
     fill="#000000"
     transform="matrix(0.05 0 0 0.05 -10 -11)"
     d="M 14617.9,2874.89 L 14617.9,2087.8 L 14639.9,2087.8 L 14639.9,2874.89 Z "
     id="path111" />
  <path
     stroke="none"
     fill="#000000"
     transform="matrix(0.05 0 0 0.05 -10 -11)"
     d="M 14628.9,3067.93 C 14628.9,3067.93 14571.5,2846.17 14571.5,2846.17 C 14571.5,2846.17 14603.8,2873.89 14628.9,2873.89 C 14653.6,2873.89 14685.3,2846.17 14685.3,2846.17 C 14685.3,2846.17 14628.9,3067.93 14628.9,3067.93 C 14628.9,3067.93 14628.9,3067.93 14628.9,3067.93 "
     id="path112" />
  <path
     stroke="#000000"
     stroke-width="1"
     fill="none"
     transform="matrix(0.05 0 0 0.05 -10 -11)"
     d="M 14628.9,3067.93 C 14628.9,3067.93 14571.5,2846.17 14571.5,2846.17 C 14571.5,2846.17 14603.8,2873.89 14628.9,2873.89 C 14653.6,2873.89 14685.3,2846.17 14685.3,2846.17 C 14685.3,2846.17 14628.9,3067.93 14628.9,3067.93 C 14628.9,3067.93 14628.9,3067.93 14628.9,3067.93 "
     id="path113" />
  <path
     stroke="none"
     fill="#000000"
     transform="matrix(0.05 0 0 0.05 -10 -11)"
     d="M 14495.4,3735.94 L 14484.4,3716.74 L 14749.3,3563.2 L 14749.3,3588.86 L 14495.4,3735.94 Z "
     id="path114" />
  <text
     x="0"
     y="0"
     stroke="none"
     fill="#0000ff"
     transform="matrix(0.05 0 0 0.05 723.964 156.092)"
     font-style="normal"
     font-weight="bold"
     font-size="180px"
     font-family="Helvetica"
     id="text114">
O</text>
  <path
     stroke="none"
     fill="#000000"
     transform="matrix(0.05 0 0 0.05 -10 -11)"
     d="M 14732.7,3592.58 L 14710.5,3592.58 L 14710.5,3377.54 L 14732.7,3377.54 L 14732.7,3592.58 Z "
     id="path115" />
  <path
     stroke="none"
     fill="#000000"
     transform="matrix(0.05 0 0 0.05 -10 -11)"
     d="M 14788.1,3592.58 L 14765.9,3592.58 L 14765.9,3377.54 L 14788.1,3377.54 L 14788.1,3592.58 Z "
     id="path116" />
  <path
     stroke="none"
     fill="#000000"
     transform="matrix(0.05 0 0 0.05 -10 -11)"
     d="M 14749.3,3588.86 L 14749.3,3563.2 L 15014.2,3716.73 L 15003.1,3735.94 L 14749.3,3588.86 Z "
     id="path117" />
  <path
     stroke="#000000"
     stroke-width="22"
     fill="none"
     transform="matrix(0.05 0 0 0.05 -10 -11)"
     stroke-dasharray="53"
     d="M 599.6,7889.24 C 599.6,7889.24 599.6,2521.16 599.6,2521.16 C 599.6,2447.71 659.213,2388.1 732.655,2388.1 C 732.655,2388.1 2712.64,2388.1 2712.64,2388.1 C 2786.09,2388.1 2845.7,2447.71 2845.7,2521.16 C 2845.7,2521.16 2845.7,7889.24 2845.7,7889.24 C 2845.7,7962.69 2786.09,8022.3 2712.64,8022.3 C 2712.64,8022.3 732.655,8022.3 732.655,8022.3 C 659.213,8022.3 599.6,7962.69 599.6,7889.24 "
     id="path128" />
  <path
     stroke="#000000"
     stroke-width="22"
     fill="none"
     transform="matrix(0.05 0 0 0.05 -10 -11)"
     stroke-dasharray="53"
     d="M 7134.7,7874.94 C 7134.7,7874.94 7134.7,4465.95 7134.7,4465.95 C 7134.7,4392.51 7194.31,4332.9 7267.76,4332.9 C 7267.76,4332.9 13866.6,4332.9 13866.6,4332.9 C 13940.1,4332.9 13999.7,4392.51 13999.7,4465.95 C 13999.7,4465.95 13999.7,7874.94 13999.7,7874.94 C 13999.7,7948.39 13940.1,8008 13866.6,8008 C 13866.6,8008 7267.76,8008 7267.76,8008 C 7194.31,8008 7134.7,7948.39 7134.7,7874.94 "
     id="path133" />
  <path
     stroke="#000000"
     stroke-width="22"
     fill="none"
     transform="matrix(0.05 0 0 0.05 -10 -11)"
     stroke-dasharray="53"
     d="M 14113.1,4071.14 C 14113.1,4071.14 14113.1,661.154 14113.1,661.154 C 14113.1,587.712 14172.7,528.099 14246.2,528.099 C 14246.2,528.099 15485.1,528.099 15485.1,528.099 C 15558.6,528.099 15618.2,587.712 15618.2,661.154 C 15618.2,661.154 15618.2,4071.14 15618.2,4071.14 C 15618.2,4144.59 15558.6,4204.2 15485.1,4204.2 C 15485.1,4204.2 14246.2,4204.2 14246.2,4204.2 C 14172.7,4204.2 14113.1,4144.59 14113.1,4071.14 "
     id="path136" />
  <text
     x="0"
     y="0"
     stroke="none"
     fill="#0000ff"
     transform="matrix(0.05 0 0 0.05 333.2 435.875)"
     font-style="normal"
     font-weight="bold"
     font-size="320px"
     font-family="Helvetica"
     id="text138">
ketones</text>
  <path
     stroke="#000000"
     stroke-width="0.695806"
     fill="none"
     d="m 674.885,395.6291 v 17.2104"
     id="path138" />
  <path
     stroke="#000000"
     stroke-width="22"
     fill="none"
     transform="matrix(0.05 0 0 0.05 -10 -11)"
     d="M 13697.7,8476.79 L 1776.74,8476.79 "
     id="path139" />
  <path
     stroke="#000000"
     stroke-width="0.695806"
     fill="none"
     d="M 78.837,412.8395 V 395.6291"
     id="path140" />
  <path
     stroke="none"
     fill="#ff0000"
     transform="matrix(0.05 0 0 0.05 -10 -11)"
     d="M 10752.1,7093.98 L 10752,7068.31 L 10923.3,7168.07 L 10912.2,7187.28 L 10752.1,7093.98 Z "
     id="path145" />
  <text
     x="0"
     y="0"
     stroke="none"
     fill="#0000ff"
     transform="matrix(0.05 0 0 0.05 537.309 353.819)"
     font-style="normal"
     font-weight="bold"
     font-size="180px"
     font-family="Helvetica"
     id="text145">
R</text>
  <path
     stroke="none"
     fill="#000000"
     transform="matrix(0.05 0 0 0.05 -10 -11)"
     d="M 10497.9,7241.21 L 10486.8,7222.01 L 10752,7068.31 L 10752.1,7093.98 L 10497.9,7241.21 Z "
     id="path146" />
  <text
     x="0"
     y="0"
     stroke="none"
     fill="#000000"
     transform="matrix(0.05 0 0 0.05 524.089 331.355)"
     font-style="normal"
     font-weight="bold"
     font-size="180px"
     font-family="Helvetica"
     id="text146">
O</text>
  <path
     stroke="none"
     fill="#000000"
     transform="matrix(0.05 0 0 0.05 -10 -11)"
     d="M 10735.1,7097.86 L 10713,7097.86 L 10713,6882.82 L 10735.1,6882.82 L 10735.1,7097.86 Z "
     id="path147" />
  <path
     stroke="none"
     fill="#000000"
     transform="matrix(0.05 0 0 0.05 -10 -11)"
     d="M 10790.6,7097.86 L 10768.4,7097.86 L 10768.4,6882.82 L 10790.6,6882.82 L 10790.6,7097.86 Z "
     id="path148" />
  <path
     stroke="none"
     fill="#000000"
     transform="matrix(0.05 0 0 0.05 -10 -11)"
     d="M 10632.8,6370.66 L 10632.8,5606.41 L 10654.8,5606.41 L 10654.8,6370.66 Z "
     id="path149" />
  <path
     stroke="none"
     fill="#000000"
     transform="matrix(0.05 0 0 0.05 -10 -11)"
     d="M 10643.8,6563.7 C 10643.8,6563.7 10586.4,6341.94 10586.4,6341.94 C 10586.4,6341.94 10618.7,6369.66 10643.8,6369.66 C 10668.5,6369.66 10700.3,6341.94 10700.3,6341.94 C 10700.3,6341.94 10643.8,6563.7 10643.8,6563.7 C 10643.8,6563.7 10643.8,6563.7 10643.8,6563.7 "
     id="path150" />
  <path
     stroke="#000000"
     stroke-width="1"
     fill="none"
     transform="matrix(0.05 0 0 0.05 -10 -11)"
     d="M 10643.8,6563.7 C 10643.8,6563.7 10586.4,6341.94 10586.4,6341.94 C 10586.4,6341.94 10618.7,6369.66 10643.8,6369.66 C 10668.5,6369.66 10700.3,6341.94 10700.3,6341.94 C 10700.3,6341.94 10643.8,6563.7 10643.8,6563.7 C 10643.8,6563.7 10643.8,6563.7 10643.8,6563.7 "
     id="path151" />
  <text
     x="0"
     y="0"
     stroke="none"
     fill="#000000"
     transform="matrix(0.05 0 0 0.05 528.078 291.551)"
     font-style="normal"
     font-weight="bold"
     font-size="200px"
     font-family="Helvetica"
     id="text151">
1) </text>
  <text
     x="0"
     y="0"
     stroke="none"
     fill="#0000ff"
     transform="matrix(0.05 0 0 0.05 539.748 291.551)"
     font-style="normal"
     font-weight="bold"
     font-size="200px"
     font-family="Helvetica"
     id="text152">
R</text>
  <text
     x="0"
     y="0"
     stroke="none"
     fill="#000000"
     transform="matrix(0.05 0 0 0.05 546.969 291.551)"
     font-style="normal"
     font-weight="bold"
     font-size="200px"
     font-family="Helvetica"
     id="text153">
Li</text>
  <text
     x="0"
     y="0"
     stroke="none"
     fill="#000000"
     transform="matrix(0.05 0 0 0.05 528.395 304.315)"
     font-style="normal"
     font-weight="bold"
     font-size="200px"
     font-family="Helvetica"
     id="text154">
2) </text>
  <text
     x="0"
     y="0"
     stroke="none"
     fill="#000000"
     transform="matrix(0.05 0 0 0.05 540.065 304.315)"
     font-style="normal"
     font-weight="bold"
     font-size="200px"
     font-family="Helvetica"
     id="text155">
H</text>
  <text
     x="0"
     y="0"
     stroke="none"
     fill="#000000"
     transform="matrix(0.05 0 0 0.05 547.287 306.615)"
     font-style="normal"
     font-weight="bold"
     font-size="150px"
     font-family="Helvetica"
     id="text156">
3</text>
  <text
     x="0"
     y="0"
     stroke="none"
     fill="#000000"
     transform="matrix(0.05 0 0 0.05 551.458 304.315)"
     font-style="normal"
     font-weight="bold"
     font-size="200px"
     font-family="Helvetica"
     id="text157">
O</text>
  <text
     x="0"
     y="0"
     stroke="none"
     fill="#000000"
     transform="matrix(0.05 0 0 0.05 559.236 300.716)"
     font-style="normal"
     font-weight="bold"
     font-size="150px"
     font-family="Helvetica"
     id="text158">
+</text>
  <text
     x="0"
     y="0"
     stroke="none"
     fill="#000000"
     transform="matrix(0.05 0 0 0.05 724.834 104.29)"
     font-style="normal"
     font-weight="bold"
     font-size="200px"
     font-family="Helvetica"
     id="text159">
CrO</text>
  <text
     x="0"
     y="0"
     stroke="none"
     fill="#000000"
     transform="matrix(0.05 0 0 0.05 743.725 106.59)"
     font-style="normal"
     font-weight="bold"
     font-size="150px"
     font-family="Helvetica"
     id="text160">
3</text>
  <text
     x="0"
     y="0"
     stroke="none"
     fill="#000000"
     transform="matrix(0.05 0 0 0.05 724.834 115.323)"
     font-style="normal"
     font-weight="bold"
     font-size="200px"
     font-family="Helvetica"
     id="text161">
PCC</text>
  <text
     x="0"
     y="0"
     stroke="none"
     fill="#000000"
     transform="matrix(0.05 0 0 0.05 724.834 126.357)"
     font-style="normal"
     font-weight="bold"
     font-size="200px"
     font-family="Helvetica"
     id="text162">
Swern</text>
  <text
     x="0"
     y="0"
     stroke="none"
     fill="#000000"
     transform="matrix(0.05 0 0 0.05 724.834 137.39)"
     font-style="normal"
     font-weight="bold"
     font-size="200px"
     font-family="Helvetica"
     id="text163">
DMP</text>
  <text
     x="0"
     y="0"
     stroke="none"
     fill="#000000"
     transform="matrix(0.05 0 0 0.05 467.01 85.0146)"
     font-style="normal"
     font-weight="bold"
     font-size="200px"
     font-family="Helvetica"
     id="text168">
KMnO</text>
  <text
     x="0"
     y="0"
     stroke="none"
     fill="#000000"
     transform="matrix(0.05 0 0 0.05 496.449 87.3144)"
     font-style="normal"
     font-weight="bold"
     font-size="150px"
     font-family="Helvetica"
     id="text169">
4</text>
  <text
     x="0"
     y="0"
     stroke="none"
     fill="#000000"
     transform="matrix(0.05 0 0 0.05 500.62 85.0146)"
     font-style="normal"
     font-weight="bold"
     font-size="200px"
     font-family="Helvetica"
     id="text170" />
  <text
     x="0"
     y="0"
     stroke="none"
     fill="#000000"
     transform="matrix(0.05 0 0 0.05 461.173 95.8979)"
     font-style="normal"
     font-weight="bold"
     font-size="200px"
     font-family="Helvetica"
     id="text171">
cold, </text>
  <text
     x="0"
     y="0"
     stroke="none"
     fill="#000000"
     transform="matrix(0.05 0 0 0.05 487.286 95.8979)"
     font-style="normal"
     font-weight="bold"
     font-size="200px"
     font-family="Helvetica"
     id="text172">
H</text>
  <text
     x="0"
     y="0"
     stroke="none"
     fill="#000000"
     transform="matrix(0.05 0 0 0.05 494.508 98.1977)"
     font-style="normal"
     font-weight="bold"
     font-size="150px"
     font-family="Helvetica"
     id="text173">
2</text>
  <text
     x="0"
     y="0"
     stroke="none"
     fill="#000000"
     transform="matrix(0.05 0 0 0.05 498.679 95.8979)"
     font-style="normal"
     font-weight="bold"
     font-size="200px"
     font-family="Helvetica"
     id="text174">
O</text>
  <text
     x="0"
     y="0"
     stroke="none"
     fill="#000000"
     transform="matrix(0.05 0 0 0.05 462.556 141.857)"
     font-style="normal"
     font-weight="bold"
     font-size="200px"
     font-family="Helvetica"
     id="text177">
KMnO</text>
  <text
     x="0"
     y="0"
     stroke="none"
     fill="#000000"
     transform="matrix(0.05 0 0 0.05 491.995 144.157)"
     font-style="normal"
     font-weight="bold"
     font-size="150px"
     font-family="Helvetica"
     id="text178">
4</text>
  <text
     x="0"
     y="0"
     stroke="none"
     fill="#000000"
     transform="matrix(0.05 0 0 0.05 496.166 141.857)"
     font-style="normal"
     font-weight="bold"
     font-size="200px"
     font-family="Helvetica"
     id="text179" />
  <text
     x="0"
     y="0"
     stroke="none"
     fill="#000000"
     transform="matrix(0.05 0 0 0.05 457.034 152.891)"
     font-style="normal"
     font-weight="bold"
     font-size="200px"
     font-family="Helvetica"
     id="text180">
hot, </text>
  <text
     x="0"
     y="0"
     stroke="none"
     fill="#000000"
     transform="matrix(0.05 0 0 0.05 478.137 152.891)"
     font-style="normal"
     font-weight="bold"
     font-size="200px"
     font-family="Helvetica"
     id="text181">
H</text>
  <text
     x="0"
     y="0"
     stroke="none"
     fill="#000000"
     transform="matrix(0.05 0 0 0.05 485.359 155.191)"
     font-style="normal"
     font-weight="bold"
     font-size="150px"
     font-family="Helvetica"
     id="text182">
3</text>
  <text
     x="0"
     y="0"
     stroke="none"
     fill="#000000"
     transform="matrix(0.05 0 0 0.05 489.53 152.891)"
     font-style="normal"
     font-weight="bold"
     font-size="200px"
     font-family="Helvetica"
     id="text183">
O</text>
  <text
     x="0"
     y="0"
     stroke="none"
     fill="#000000"
     transform="matrix(0.05 0 0 0.05 497.308 149.292)"
     font-style="normal"
     font-weight="bold"
     font-size="150px"
     font-family="Helvetica"
     id="text184">
+</text>
  <text
     x="0"
     y="0"
     stroke="none"
     fill="#000000"
     transform="matrix(0.05 0 0 0.05 473.643 36.1674)"
     font-style="normal"
     font-weight="bold"
     font-size="200px"
     font-family="Helvetica"
     id="text185">
1) </text>
  <text
     x="0"
     y="0"
     stroke="none"
     fill="#000000"
     transform="matrix(0.05 0 0 0.05 485.313 36.1674)"
     font-style="normal"
     font-weight="bold"
     font-size="200px"
     font-family="Helvetica"
     id="text186">
O</text>
  <text
     x="0"
     y="0"
     stroke="none"
     fill="#000000"
     transform="matrix(0.05 0 0 0.05 493.092 38.4672)"
     font-style="normal"
     font-weight="bold"
     font-size="150px"
     font-family="Helvetica"
     id="text187">
3</text>
  <text
     x="0"
     y="0"
     stroke="none"
     fill="#000000"
     transform="matrix(0.05 0 0 0.05 463.371 47.2007)"
     font-style="normal"
     font-weight="bold"
     font-size="200px"
     font-family="Helvetica"
     id="text188">
2) </text>
  <text
     x="0"
     y="0"
     stroke="none"
     fill="#000000"
     transform="matrix(0.05 0 0 0.05 475.041 47.2007)"
     font-style="normal"
     font-weight="bold"
     font-size="200px"
     font-family="Helvetica"
     id="text189">
DMS</text>
  <path
     stroke="none"
     fill="#000000"
     transform="matrix(0.05 0 0 0.05 -10 -11)"
     d="M 10686.6,1272.44 L 10697.7,1253.24 L 10963.1,1405.88 L 10940.9,1418.76 L 10686.6,1272.44 Z "
     id="path189" />
  <text
     x="0"
     y="0"
     stroke="none"
     fill="#0000ff"
     transform="matrix(0.05 0 0 0.05 541.204 57.498)"
     font-style="normal"
     font-weight="bold"
     font-size="180px"
     font-family="Helvetica"
     id="text190">
O</text>
  <path
     stroke="none"
     fill="#000000"
     transform="matrix(0.05 0 0 0.05 -10 -11)"
     d="M 10932.1,1406.4 L 10918.8,1388.69 L 10992.1,1333.48 L 11005.4,1351.19 L 10932.1,1406.4 Z "
     id="path190" />
  <path
     stroke="none"
     fill="#000000"
     transform="matrix(0.05 0 0 0.05 -10 -11)"
     d="M 10958.5,1455.97 L 10945.1,1438.26 L 11025.4,1377.75 L 11038.8,1395.46 L 10958.5,1455.97 Z "
     id="path191" />
  <text
     x="0"
     y="0"
     stroke="none"
     fill="#0000ff"
     transform="matrix(0.05 0 0 0.05 549.047 50.5016)"
     font-style="normal"
     font-weight="bold"
     font-size="180px"
     font-family="Helvetica"
     id="text191">
O</text>
  <path
     stroke="none"
     fill="#000000"
     transform="matrix(0.05 0 0 0.05 -10 -11)"
     d="M 11318.7,1093.35 L 11305.4,1075.64 L 11391.3,1010.9 L 11404.7,1028.61 L 11318.7,1093.35 Z "
     id="path192" />
  <path
     stroke="none"
     fill="#000000"
     transform="matrix(0.05 0 0 0.05 -10 -11)"
     d="M 11352.1,1137.63 L 11338.8,1119.92 L 11420.5,1058.34 L 11433.8,1076.05 L 11352.1,1137.63 Z "
     id="path193" />
  <text
     x="0"
     y="0"
     stroke="none"
     fill="#999999"
     transform="matrix(0.05 0 0 0.05 557.727 34.0657)"
     font-style="normal"
     font-weight="bold"
     font-size="180px"
     font-family="Helvetica"
     id="text193">
H</text>
  <path
     stroke="none"
     fill="#999999"
     transform="matrix(0.05 0 0 0.05 -10 -11)"
     d="M 11404,1050.55 L 11379.3,1067.16 L 11397.5,928.623 L 11419.6,931.214 L 11404,1050.55 Z "
     id="path194" />
  <text
     x="0"
     y="0"
     stroke="none"
     fill="#999999"
     transform="matrix(0.05 0 0 0.05 568.141 48.3855)"
     font-style="normal"
     font-weight="bold"
     font-size="180px"
     font-family="Helvetica"
     id="text194">
H</text>
  <path
     stroke="none"
     fill="#999999"
     transform="matrix(0.05 0 0 0.05 -10 -11)"
     d="M 11379.3,1067.16 L 11404,1050.55 L 11538.3,1086.56 L 11532.4,1107.93 L 11379.3,1067.16 Z "
     id="path195" />
  <path
     stroke="none"
     fill="#000000"
     transform="matrix(0.05 0 0 0.05 -10 -11)"
     d="M 10940.9,1418.76 L 10963.1,1405.88 L 10964.9,1715.92 L 10942.7,1716.08 L 10940.9,1418.76 Z "
     id="path196" />
  <text
     x="0"
     y="0"
     stroke="none"
     fill="#000000"
     transform="matrix(0.05 0 0 0.05 562.521 63.3714)"
     font-style="italic"
     font-weight="normal"
     font-size="160px"
     font-family="Helvetica Oblique"
     id="text196">
ozonolysis</text>
  <text
     x="0"
     y="0"
     stroke="none"
     fill="#0000ff"
     transform="matrix(0.05 0 0 0.05 549.952 164.246)"
     font-style="normal"
     font-weight="bold"
     font-size="180px"
     font-family="Helvetica"
     id="text197">
O</text>
  <path
     stroke="none"
     fill="#000000"
     transform="matrix(0.05 0 0 0.05 -10 -11)"
     d="M 11336.8,3368.24 L 11323.5,3350.53 L 11409.4,3285.79 L 11422.8,3303.5 L 11336.8,3368.24 Z "
     id="path197" />
  <path
     stroke="none"
     fill="#000000"
     transform="matrix(0.05 0 0 0.05 -10 -11)"
     d="M 11370.2,3412.52 L 11356.9,3394.81 L 11438.6,3333.22 L 11451.9,3350.93 L 11370.2,3412.52 Z "
     id="path198" />
  <text
     x="0"
     y="0"
     stroke="none"
     fill="#0000ff"
     transform="matrix(0.05 0 0 0.05 558.381 147.81)"
     font-style="normal"
     font-weight="bold"
     font-size="180px"
     font-family="Helvetica"
     id="text198">
O</text>
  <text
     x="0"
     y="0"
     stroke="none"
     fill="#999999"
     transform="matrix(0.05 0 0 0.05 565.382 147.81)"
     font-style="normal"
     font-weight="bold"
     font-size="180px"
     font-family="Helvetica"
     id="text199">
H</text>
  <path
     stroke="none"
     fill="#999999"
     transform="matrix(0.05 0 0 0.05 -10 -11)"
     d="M 11422.1,3325.39 L 11397.4,3342.01 L 11414.9,3209.45 L 11437,3212.04 L 11422.1,3325.39 Z "
     id="path199" />
  <text
     x="0"
     y="0"
     stroke="none"
     fill="#0000ff"
     transform="matrix(0.05 0 0 0.05 568.796 162.13)"
     font-style="normal"
     font-weight="bold"
     font-size="180px"
     font-family="Helvetica"
     id="text200">
O</text>
  <text
     x="0"
     y="0"
     stroke="none"
     fill="#999999"
     transform="matrix(0.05 0 0 0.05 575.796 162.13)"
     font-style="normal"
     font-weight="bold"
     font-size="180px"
     font-family="Helvetica"
     id="text201">
H</text>
  <path
     stroke="none"
     fill="#999999"
     transform="matrix(0.05 0 0 0.05 -10 -11)"
     d="M 11397.4,3342.01 L 11422.1,3325.39 L 11558.5,3362.02 L 11552.5,3383.39 L 11397.4,3342.01 Z "
     id="path201" />
  <text
     x="0"
     y="0"
     stroke="none"
     fill="#0000ff"
     transform="matrix(0.05 0 0 0.05 640.009 101.68)"
     font-style="normal"
     font-weight="bold"
     font-size="180px"
     font-family="Helvetica"
     id="text203">
O</text>
  <path
     stroke="none"
     fill="#000000"
     transform="matrix(0.05 0 0 0.05 -10 -11)"
     d="M 13138,2116.92 L 13124.6,2099.21 L 13210.5,2034.47 L 13223.9,2052.18 L 13138,2116.92 Z "
     id="path203" />
  <path
     stroke="none"
     fill="#000000"
     transform="matrix(0.05 0 0 0.05 -10 -11)"
     d="M 13171.3,2161.19 L 13158,2143.48 L 13239.7,2081.9 L 13253.1,2099.61 L 13171.3,2161.19 Z "
     id="path204" />
  <text
     x="0"
     y="0"
     stroke="none"
     fill="#999999"
     transform="matrix(0.05 0 0 0.05 648.689 85.2439)"
     font-style="normal"
     font-weight="bold"
     font-size="180px"
     font-family="Helvetica"
     id="text204">
H</text>
  <path
     stroke="none"
     fill="#999999"
     transform="matrix(0.05 0 0 0.05 -10 -11)"
     d="M 13223.3,2074.12 L 13198.6,2090.73 L 13216.8,1952.19 L 13238.8,1954.78 L 13223.3,2074.12 Z "
     id="path205" />
  <text
     x="0"
     y="0"
     stroke="none"
     fill="#999999"
     transform="matrix(0.05 0 0 0.05 659.103 99.5637)"
     font-style="normal"
     font-weight="bold"
     font-size="180px"
     font-family="Helvetica"
     id="text205">
H</text>
  <path
     stroke="none"
     fill="#999999"
     transform="matrix(0.05 0 0 0.05 -10 -11)"
     d="M 13198.6,2090.73 L 13223.3,2074.12 L 13357.5,2110.13 L 13351.6,2131.49 L 13198.6,2090.73 Z "
     id="path206" />
  <text
     x="0"
     y="0"
     stroke="none"
     fill="#000000"
     transform="matrix(0.05 0 0 0.05 578.765 94.7217)"
     font-style="normal"
     font-weight="bold"
     font-size="200px"
     font-family="Helvetica"
     id="text206">
HIO</text>
  <text
     x="0"
     y="0"
     stroke="none"
     fill="#000000"
     transform="matrix(0.05 0 0 0.05 596.543 97.0215)"
     font-style="normal"
     font-weight="bold"
     font-size="150px"
     font-family="Helvetica"
     id="text207">
4</text>
  <path
     stroke="none"
     fill="#000000"
     transform="matrix(0.05 0 0 0.05 -10 -11)"
     d="M 9123.11,2232.95 L 8222.5,2232.95 L 8222.5,2210.95 L 9123.11,2210.95 Z "
     id="path207" />
  <path
     stroke="none"
     fill="#000000"
     transform="matrix(0.05 0 0 0.05 -10 -11)"
     d="M 9118.52,3452.61 L 9118.52,1382.16 L 9140.52,1382.16 L 9140.52,3452.61 Z "
     id="path208" />
  <path
     stroke="none"
     fill="#000000"
     transform="matrix(0.05 0 0 0.05 -10 -11)"
     d="M 10378.2,1393.16 L 9129.52,1393.16 L 9129.52,1371.16 L 10378.2,1371.16 Z "
     id="path209" />
  <path
     stroke="none"
     fill="#000000"
     transform="matrix(0.05 0 0 0.05 -10 -11)"
     d="M 10571.2,1382.16 C 10571.2,1382.16 10349.5,1438.6 10349.5,1438.6 C 10349.5,1438.6 10377.2,1406.85 10377.2,1382.16 C 10377.2,1357.03 10349.5,1324.72 10349.5,1324.72 C 10349.5,1324.72 10571.2,1382.16 10571.2,1382.16 C 10571.2,1382.16 10571.2,1382.16 10571.2,1382.16 "
     id="path210" />
  <path
     stroke="#000000"
     stroke-width="1"
     fill="none"
     transform="matrix(0.05 0 0 0.05 -10 -11)"
     d="M 10571.2,1382.16 C 10571.2,1382.16 10349.5,1438.6 10349.5,1438.6 C 10349.5,1438.6 10377.2,1406.85 10377.2,1382.16 C 10377.2,1357.03 10349.5,1324.72 10349.5,1324.72 C 10349.5,1324.72 10571.2,1382.16 10571.2,1382.16 C 10571.2,1382.16 10571.2,1382.16 10571.2,1382.16 "
     id="path211" />
  <path
     stroke="none"
     fill="#000000"
     transform="matrix(0.05 0 0 0.05 -10 -11)"
     d="M 10378.2,2234.69 L 9129.52,2234.69 L 9129.52,2212.69 L 10378.2,2212.69 Z "
     id="path212" />
  <path
     stroke="none"
     fill="#000000"
     transform="matrix(0.05 0 0 0.05 -10 -11)"
     d="M 10571.2,2223.69 C 10571.2,2223.69 10349.5,2280.13 10349.5,2280.13 C 10349.5,2280.13 10377.2,2248.38 10377.2,2223.69 C 10377.2,2198.56 10349.5,2166.25 10349.5,2166.25 C 10349.5,2166.25 10571.2,2223.69 10571.2,2223.69 C 10571.2,2223.69 10571.2,2223.69 10571.2,2223.69 "
     id="path213" />
  <path
     stroke="#000000"
     stroke-width="1"
     fill="none"
     transform="matrix(0.05 0 0 0.05 -10 -11)"
     d="M 10571.2,2223.69 C 10571.2,2223.69 10349.5,2280.13 10349.5,2280.13 C 10349.5,2280.13 10377.2,2248.38 10377.2,2223.69 C 10377.2,2198.56 10349.5,2166.25 10349.5,2166.25 C 10349.5,2166.25 10571.2,2223.69 10571.2,2223.69 C 10571.2,2223.69 10571.2,2223.69 10571.2,2223.69 "
     id="path214" />
  <text
     x="0"
     y="0"
     stroke="none"
     fill="#000000"
     transform="matrix(0.05 0 0 0.05 461.185 111.98)"
     font-style="normal"
     font-weight="bold"
     font-size="160px"
     font-family="Helvetica"
     id="text214">
cat. </text>
  <text
     x="0"
     y="0"
     stroke="none"
     fill="#000000"
     transform="matrix(0.05 0 0 0.05 477.193 111.98)"
     font-style="normal"
     font-weight="bold"
     font-size="160px"
     font-family="Helvetica"
     id="text215">
OsO</text>
  <text
     x="0"
     y="0"
     stroke="none"
     fill="#000000"
     transform="matrix(0.05 0 0 0.05 494.087 113.82)"
     font-style="normal"
     font-weight="bold"
     font-size="120px"
     font-family="Helvetica"
     id="text216">
4</text>
  <text
     x="0"
     y="0"
     stroke="none"
     fill="#000000"
     transform="matrix(0.05 0 0 0.05 497.424 111.98)"
     font-style="normal"
     font-weight="bold"
     font-size="160px"
     font-family="Helvetica"
     id="text217">
, </text>
  <text
     x="0"
     y="0"
     stroke="none"
     fill="#000000"
     transform="matrix(0.05 0 0 0.05 501.87 111.98)"
     font-style="normal"
     font-weight="bold"
     font-size="160px"
     font-family="Helvetica"
     id="text218">
H</text>
  <text
     x="0"
     y="0"
     stroke="none"
     fill="#000000"
     transform="matrix(0.05 0 0 0.05 507.647 113.82)"
     font-style="normal"
     font-weight="bold"
     font-size="120px"
     font-family="Helvetica"
     id="text219">
2</text>
  <text
     x="0"
     y="0"
     stroke="none"
     fill="#000000"
     transform="matrix(0.05 0 0 0.05 510.984 111.98)"
     font-style="normal"
     font-weight="bold"
     font-size="160px"
     font-family="Helvetica"
     id="text220">
O</text>
  <text
     x="0"
     y="0"
     stroke="none"
     fill="#000000"
     transform="matrix(0.05 0 0 0.05 517.206 113.82)"
     font-style="normal"
     font-weight="bold"
     font-size="120px"
     font-family="Helvetica"
     id="text221">
2</text>
  <text
     x="0"
     y="0"
     stroke="none"
     fill="#000000"
     transform="matrix(0.05 0 0 0.05 450.46 111.98)"
     font-style="normal"
     font-weight="bold"
     font-size="160px"
     font-family="Helvetica"
     id="text222">
or</text>
  <path
     stroke="none"
     fill="#000000"
     transform="matrix(0.05 0 0 0.05 -10 -11)"
     d="M 12199.6,2248.99 L 11703.5,2248.99 L 11703.5,2226.99 L 12199.6,2226.99 Z "
     id="path222" />
  <path
     stroke="none"
     fill="#000000"
     transform="matrix(0.05 0 0 0.05 -10 -11)"
     d="M 12392.7,2237.99 C 12392.7,2237.99 12170.9,2294.43 12170.9,2294.43 C 12170.9,2294.43 12198.6,2262.68 12198.6,2237.99 C 12198.6,2212.86 12170.9,2180.55 12170.9,2180.55 C 12170.9,2180.55 12392.7,2237.99 12392.7,2237.99 C 12392.7,2237.99 12392.7,2237.99 12392.7,2237.99 "
     id="path223" />
  <path
     stroke="#000000"
     stroke-width="1"
     fill="none"
     transform="matrix(0.05 0 0 0.05 -10 -11)"
     d="M 12392.7,2237.99 C 12392.7,2237.99 12170.9,2294.43 12170.9,2294.43 C 12170.9,2294.43 12198.6,2262.68 12198.6,2237.99 C 12198.6,2212.86 12170.9,2180.55 12170.9,2180.55 C 12170.9,2180.55 12392.7,2237.99 12392.7,2237.99 C 12392.7,2237.99 12392.7,2237.99 12392.7,2237.99 "
     id="path224" />
  <path
     stroke="none"
     fill="#000000"
     transform="matrix(0.05 0 0 0.05 -10 -11)"
     d="M 10378.2,3463.61 L 9129.52,3463.61 L 9129.52,3441.61 L 10378.2,3441.61 Z "
     id="path225" />
  <path
     stroke="none"
     fill="#000000"
     transform="matrix(0.05 0 0 0.05 -10 -11)"
     d="M 10571.2,3452.61 C 10571.2,3452.61 10349.5,3509.05 10349.5,3509.05 C 10349.5,3509.05 10377.2,3477.3 10377.2,3452.61 C 10377.2,3427.48 10349.5,3395.17 10349.5,3395.17 C 10349.5,3395.17 10571.2,3452.61 10571.2,3452.61 C 10571.2,3452.61 10571.2,3452.61 10571.2,3452.61 "
     id="path226" />
  <path
     stroke="#000000"
     stroke-width="1"
     fill="none"
     transform="matrix(0.05 0 0 0.05 -10 -11)"
     d="M 10571.2,3452.61 C 10571.2,3452.61 10349.5,3509.05 10349.5,3509.05 C 10349.5,3509.05 10377.2,3477.3 10377.2,3452.61 C 10377.2,3427.48 10349.5,3395.17 10349.5,3395.17 C 10349.5,3395.17 10571.2,3452.61 10571.2,3452.61 C 10571.2,3452.61 10571.2,3452.61 10571.2,3452.61 "
     id="path227" />
  <text
     x="0"
     y="0"
     stroke="none"
     fill="#000000"
     transform="matrix(0.05 0 0 0.05 513.122 134.112)"
     font-style="italic"
     font-weight="normal"
     font-size="160px"
     font-family="Helvetica Oblique"
     id="text227">
syn-dihydroxylation</text>
  <text
     x="0"
     y="0"
     stroke="none"
     fill="#000000"
     transform="matrix(0.05 0 0 0.05 56.8749 190.509)"
     font-style="normal"
     font-weight="bold"
     font-size="200px"
     font-family="Helvetica"
     id="text228">
H</text>
  <text
     x="0"
     y="0"
     stroke="none"
     fill="#000000"
     transform="matrix(0.05 0 0 0.05 64.0966 192.809)"
     font-style="normal"
     font-weight="bold"
     font-size="150px"
     font-family="Helvetica"
     id="text229">
3</text>
  <text
     x="0"
     y="0"
     stroke="none"
     fill="#000000"
     transform="matrix(0.05 0 0 0.05 68.2678 190.509)"
     font-style="normal"
     font-weight="bold"
     font-size="200px"
     font-family="Helvetica"
     id="text230">
O</text>
  <text
     x="0"
     y="0"
     stroke="none"
     fill="#000000"
     transform="matrix(0.05 0 0 0.05 76.0461 186.91)"
     font-style="normal"
     font-weight="bold"
     font-size="150px"
     font-family="Helvetica"
     id="text231">
+</text>
  <text
     x="65.426636"
     y="201.314"
     stroke="none"
     fill="#000000"
     font-style="normal"
     font-weight="bold"
     font-size="8px"
     font-family="Helvetica"
     id="text232"
     style="stroke-width:0.05">or</text>
  <text
     x="0"
     y="0"
     stroke="none"
     fill="#000000"
     transform="matrix(0.05,0,0,0.05,42.6243,209.998)"
     font-style="normal"
     font-weight="bold"
     font-size="160px"
     font-family="Helvetica"
     id="text233">HgSO</text>
  <text
     x="64.56089"
     y="211.83701"
     stroke="none"
     fill="#000000"
     font-style="normal"
     font-weight="bold"
     font-size="6px"
     font-family="Helvetica"
     id="text234"
     style="stroke-width:0.05">4</text>
  <text
     x="78.89949"
     y="221.68562"
     stroke="none"
     fill="#000000"
     font-style="normal"
     font-weight="bold"
     font-size="6px"
     font-family="Helvetica"
     id="text234-5"
     style="stroke-width:0.05">4</text>
  <text
     x="0"
     y="0"
     stroke="none"
     fill="#000000"
     transform="matrix(0.05 0 0 0.05 54.1751 218.681)"
     font-style="normal"
     font-weight="bold"
     font-size="160px"
     font-family="Helvetica"
     id="text235" />
  <text
     x="0"
     y="0"
     stroke="none"
     fill="#000000"
     transform="matrix(0.05 0 0 0.05 56.3977 218.681)"
     font-style="normal"
     font-weight="bold"
     font-size="160px"
     font-family="Helvetica"
     id="text236" />
  <text
     x="0"
     y="0"
     stroke="none"
     fill="#000000"
     transform="matrix(0.05 0 0 0.05 58.6204 218.681)"
     font-style="normal"
     font-weight="bold"
     font-size="160px"
     font-family="Helvetica"
     id="text237" />
  <text
     x="0"
     y="0"
     stroke="none"
     fill="#000000"
     transform="matrix(0.05 0 0 0.05 60.843 218.681)"
     font-style="normal"
     font-weight="bold"
     font-size="160px"
     font-family="Helvetica"
     id="text238" />
  <text
     x="70.253197"
     y="210.11128"
     stroke="none"
     fill="#000000"
     font-style="normal"
     font-weight="bold"
     font-size="8px"
     font-family="Helvetica"
     id="text239"
     style="stroke-width:0.05">H</text>
  <text
     x="76.030502"
     y="211.95129"
     stroke="none"
     fill="#000000"
     font-style="normal"
     font-weight="bold"
     font-size="6px"
     font-family="Helvetica"
     id="text240"
     style="stroke-width:0.05">2</text>
  <text
     x="79.367401"
     y="210.11128"
     stroke="none"
     fill="#000000"
     font-style="normal"
     font-weight="bold"
     font-size="8px"
     font-family="Helvetica"
     id="text241"
     style="stroke-width:0.05">O</text>
  <text
     x="58.706131"
     y="219.35667"
     stroke="none"
     fill="#000000"
     font-style="normal"
     font-weight="bold"
     font-size="8px"
     font-family="Helvetica"
     id="text239-4"
     style="stroke-width:0.05">H</text>
  <text
     x="64.483437"
     y="221.19669"
     stroke="none"
     fill="#000000"
     font-style="normal"
     font-weight="bold"
     font-size="6px"
     font-family="Helvetica"
     id="text240-4"
     style="stroke-width:0.05">2</text>
  <text
     x="67.820335"
     y="219.35667"
     stroke="none"
     fill="#000000"
     font-style="normal"
     font-weight="bold"
     font-size="8px"
     font-family="Helvetica"
     id="text241-8"
     style="stroke-width:0.05">SO</text>
  <path
     stroke="none"
     fill="#000000"
     transform="matrix(0.05 0 0 0.05 -10 -11)"
     d="M 1855.8,6998.1 L 1833.62,6998.1 L 1833.62,6783.06 L 1855.8,6783.06 L 1855.8,6998.1 Z "
     id="path241" />
  <path
     stroke="none"
     fill="#000000"
     transform="matrix(0.05 0 0 0.05 -10 -11)"
     d="M 1911.24,6998.1 L 1889.06,6998.1 L 1889.06,6783.06 L 1911.24,6783.06 L 1911.24,6998.1 Z "
     id="path242" />
  <text
     x="0"
     y="0"
     stroke="none"
     fill="#0000ff"
     transform="matrix(0.05 0 0 0.05 80.1213 326.368)"
     font-style="normal"
     font-weight="bold"
     font-size="180px"
     font-family="Helvetica"
     id="text242">
O</text>
  <path
     stroke="none"
     fill="#000000"
     transform="matrix(0.05 0 0 0.05 -10 -11)"
     d="M 1872.43,6994.38 L 1872.43,6968.72 L 2137.37,7122.25 L 2126.28,7141.46 L 1872.43,6994.38 Z "
     id="path243" />
  <path
     stroke="none"
     fill="#000000"
     transform="matrix(0.05 0 0 0.05 -10 -11)"
     d="M 1618.58,7141.46 L 1607.5,7122.25 L 1872.43,6968.72 L 1872.43,6994.38 L 1618.58,7141.46 Z "
     id="path244" />
  <text
     x="0"
     y="0"
     stroke="none"
     fill="#000000"
     transform="matrix(0.05 0 0 0.05 583.413 367.645)"
     font-style="italic"
     font-weight="normal"
     font-size="160px"
     font-family="Arial"
     id="text244">
Fridel-Crafts</text>
  <text
     x="0"
     y="0"
     stroke="none"
     fill="#000000"
     transform="matrix(0.05 0 0 0.05 588.517 376.844)"
     font-style="italic"
     font-weight="normal"
     font-size="160px"
     font-family="Arial"
     id="text245" />
  <text
     x="0"
     y="0"
     stroke="none"
     fill="#000000"
     transform="matrix(0.05 0 0 0.05 590.739 376.844)"
     font-style="italic"
     font-weight="normal"
     font-size="160px"
     font-family="Arial"
     id="text246">
acylation</text>
  <path
     stroke="none"
     fill="#000000"
     transform="matrix(0.05 0 0 0.05 -10 -11)"
     d="M 12758.2,5847.01 L 12758.3,5821.26 L 12944.9,5929.93 L 12933.8,5949.13 L 12758.2,5847.01 Z "
     id="path246" />
  <text
     x="0"
     y="0"
     stroke="none"
     fill="#000000"
     transform="matrix(0.05 0 0 0.05 624.429 273.535)"
     font-style="normal"
     font-weight="bold"
     font-size="180px"
     font-family="Arial"
     id="text247">
O</text>
  <path
     stroke="none"
     fill="#000000"
     transform="matrix(0.05 0 0 0.05 -10 -11)"
     d="M 12742,5851.13 L 12719.8,5851.13 L 12719.8,5725 L 12742,5725 L 12742,5851.13 Z "
     id="path247" />
  <path
     stroke="none"
     fill="#000000"
     transform="matrix(0.05 0 0 0.05 -10 -11)"
     d="M 12797.4,5851.13 L 12775.2,5851.13 L 12775.2,5725 L 12797.4,5725 L 12797.4,5851.13 Z "
     id="path248" />
  <text
     x="0"
     y="0"
     stroke="none"
     fill="#0d7d00"
     transform="matrix(0.05 0 0 0.05 611.142 289.198)"
     font-style="normal"
     font-weight="bold"
     font-size="180px"
     font-family="Arial"
     id="text248">
Cl</text>
  <path
     stroke="none"
     fill="#000000"
     transform="matrix(0.05 0 0 0.05 -10 -11)"
     d="M 12758.3,5821.26 L 12758.2,5847.01 L 12641.4,5915.62 L 12630.3,5896.42 L 12758.3,5821.26 Z "
     id="path249" />
  <path
     stroke="none"
     fill="#000000"
     transform="matrix(0.05 0 0 0.05 -10 -11)"
     d="M 13687.8,5875.14 L 13688,5849.4 L 13874.8,5958 L 13863.8,5977.21 L 13687.8,5875.14 Z "
     id="path250" />
  <text
     x="0"
     y="0"
     stroke="none"
     fill="#000000"
     transform="matrix(0.05 0 0 0.05 670.927 274.95)"
     font-style="normal"
     font-weight="bold"
     font-size="180px"
     font-family="Arial"
     id="text250">
O</text>
  <path
     stroke="none"
     fill="#000000"
     transform="matrix(0.05 0 0 0.05 -10 -11)"
     d="M 13671.9,5879.38 L 13649.7,5879.38 L 13649.7,5753.29 L 13671.9,5753.29 L 13671.9,5879.38 Z "
     id="path251" />
  <path
     stroke="none"
     fill="#000000"
     transform="matrix(0.05 0 0 0.05 -10 -11)"
     d="M 13727.4,5879.38 L 13705.2,5879.38 L 13705.2,5753.29 L 13727.4,5753.29 L 13727.4,5879.38 Z "
     id="path252" />
  <text
     x="0"
     y="0"
     stroke="none"
     fill="#0d7d00"
     transform="matrix(0.05 0 0 0.05 661.89 290.602)"
     font-style="normal"
     font-weight="bold"
     font-size="180px"
     font-family="Arial"
     id="text252">
O</text>
  <path
     stroke="none"
     fill="#000000"
     transform="matrix(0.05 0 0 0.05 -10 -11)"
     d="M 13688,5849.4 L 13687.8,5875.14 L 13596.6,5929.21 L 13585.5,5910 L 13688,5849.4 Z "
     id="path253" />
  <path
     stroke="none"
     fill="#0d7d00"
     transform="matrix(0.05 0 0 0.05 -10 -11)"
     d="M 13429.5,5909.66 L 13418.4,5928.87 L 13327.8,5875.14 L 13327.6,5849.4 L 13429.5,5909.66 Z "
     id="path254" />
  <path
     stroke="none"
     fill="#0d7d00"
     transform="matrix(0.05 0 0 0.05 -10 -11)"
     d="M 13327.6,5849.4 L 13327.8,5875.14 L 13151.8,5977.21 L 13140.8,5958 L 13327.6,5849.4 Z "
     id="path255" />
  <text
     x="0"
     y="0"
     stroke="none"
     fill="#0d7d00"
     transform="matrix(0.05 0 0 0.05 652.852 274.95)"
     font-style="normal"
     font-weight="bold"
     font-size="180px"
     font-family="Arial"
     id="text255">
O</text>
  <path
     stroke="none"
     fill="#0d7d00"
     transform="matrix(0.05 0 0 0.05 -10 -11)"
     d="M 13310.4,5879.38 L 13288.2,5879.38 L 13288.2,5752.29 L 13310.4,5752.29 L 13310.4,5879.38 Z "
     id="path256" />
  <path
     stroke="none"
     fill="#0d7d00"
     transform="matrix(0.05 0 0 0.05 -10 -11)"
     d="M 13365.9,5879.38 L 13343.7,5879.38 L 13343.7,5752.29 L 13365.9,5752.29 L 13365.9,5879.38 Z "
     id="path257" />
  <text
     x="0"
     y="0"
     stroke="none"
     fill="#000000"
     transform="matrix(0.05 0 0 0.05 636.634 278.863)"
     font-style="normal"
     font-weight="bold"
     font-size="138px"
     font-family="Arial"
     id="text257">
or</text>
  <text
     x="0"
     y="0"
     stroke="none"
     fill="#000000"
     transform="matrix(0.05 0 0 0.05 615.259 302.772)"
     font-style="normal"
     font-weight="bold"
     font-size="199px"
     font-family="Arial"
     id="text258">
AlCl</text>
  <text
     x="0"
     y="0"
     stroke="none"
     fill="#000000"
     transform="matrix(0.05 0 0 0.05 635.159 304.881)"
     font-style="normal"
     font-weight="bold"
     font-size="149.25px"
     font-family="Arial"
     id="text259">
3</text>
  <text
     x="0"
     y="0"
     stroke="none"
     fill="#000000"
     transform="matrix(0.05 0 0 0.05 425.265 289.399)"
     font-style="normal"
     font-weight="bold"
     font-size="200px"
     font-family="Helvetica"
     id="text271">
RMgX</text>
  <text
     x="0"
     y="0"
     stroke="none"
     fill="#0000ff"
     transform="matrix(0.05 0 0 0.05 350.318 293.929)"
     font-style="normal"
     font-weight="bold"
     font-size="200px"
     font-family="Helvetica"
     id="text272">
R</text>
  <text
     x="0"
     y="0"
     stroke="none"
     fill="#000000"
     transform="matrix(0.05 0 0 0.05 357.54 296.229)"
     font-style="normal"
     font-weight="bold"
     font-size="150px"
     font-family="Helvetica"
     id="text273">
2</text>
  <text
     x="0"
     y="0"
     stroke="none"
     fill="#000000"
     transform="matrix(0.05 0 0 0.05 361.711 293.929)"
     font-style="normal"
     font-weight="bold"
     font-size="200px"
     font-family="Helvetica"
     id="text274">
CuLi</text>
  <path
     stroke="none"
     fill="#ff0000"
     transform="matrix(0.05 0 0 0.05 -10 -11)"
     d="M 8009.85,7065.38 L 8009.79,7039.71 L 8181.06,7139.47 L 8169.97,7158.68 L 8009.85,7065.38 Z "
     id="path278" />
  <text
     x="0"
     y="0"
     stroke="none"
     fill="#0000ff"
     transform="matrix(0.05 0 0 0.05 400.197 352.389)"
     font-style="normal"
     font-weight="bold"
     font-size="180px"
     font-family="Helvetica"
     id="text278">
R</text>
  <path
     stroke="none"
     fill="#000000"
     transform="matrix(0.05 0 0 0.05 -10 -11)"
     d="M 7755.7,7212.61 L 7744.61,7193.41 L 8009.79,7039.71 L 8009.85,7065.38 L 7755.7,7212.61 Z "
     id="path279" />
  <text
     x="0"
     y="0"
     stroke="none"
     fill="#000000"
     transform="matrix(0.05 0 0 0.05 386.977 329.925)"
     font-style="normal"
     font-weight="bold"
     font-size="180px"
     font-family="Helvetica"
     id="text279">
O</text>
  <path
     stroke="none"
     fill="#000000"
     transform="matrix(0.05 0 0 0.05 -10 -11)"
     d="M 7992.92,7069.26 L 7970.74,7069.26 L 7970.74,6854.22 L 7992.92,6854.22 L 7992.92,7069.26 Z "
     id="path280" />
  <path
     stroke="none"
     fill="#000000"
     transform="matrix(0.05 0 0 0.05 -10 -11)"
     d="M 8048.36,7069.26 L 8026.18,7069.26 L 8026.18,6854.22 L 8048.36,6854.22 L 8048.36,7069.26 Z "
     id="path281" />
  <path
     stroke="none"
     fill="#000000"
     transform="matrix(0.05 0 0 0.05 -10 -11)"
     d="M 8001.11,6349.4 L 8001.11,5649.48 L 8023.11,5649.48 L 8023.11,6349.4 Z "
     id="path282" />
  <path
     stroke="none"
     fill="#000000"
     transform="matrix(0.05 0 0 0.05 -10 -11)"
     d="M 8012.11,6542.44 C 8012.11,6542.44 7954.67,6320.68 7954.67,6320.68 C 7954.67,6320.68 7986.98,6348.4 8012.11,6348.4 C 8036.8,6348.4 8068.55,6320.68 8068.55,6320.68 C 8068.55,6320.68 8012.11,6542.44 8012.11,6542.44 C 8012.11,6542.44 8012.11,6542.44 8012.11,6542.44 "
     id="path283" />
  <path
     stroke="#000000"
     stroke-width="1"
     fill="none"
     transform="matrix(0.05 0 0 0.05 -10 -11)"
     d="M 8012.11,6542.44 C 8012.11,6542.44 7954.67,6320.68 7954.67,6320.68 C 7954.67,6320.68 7986.98,6348.4 8012.11,6348.4 C 8036.8,6348.4 8068.55,6320.68 8068.55,6320.68 C 8068.55,6320.68 8012.11,6542.44 8012.11,6542.44 C 8012.11,6542.44 8012.11,6542.44 8012.11,6542.44 "
     id="path284" />
  <text
     x="0"
     y="0"
     stroke="none"
     fill="#000000"
     transform="matrix(0.05 0 0 0.05 539.12 279.29)"
     font-style="normal"
     font-weight="bold"
     font-size="160px"
     font-family="Helvetica"
     id="text284">
excess</text>
  <path
     stroke="none"
     fill="#000000"
     transform="matrix(0.05 0 0 0.05 -10 -11)"
     d="M 12474.1,2330.64 L 12485.2,2311.44 L 12750.6,2464.08 L 12728.4,2476.96 L 12474.1,2330.64 Z "
     id="path287" />
  <text
     x="0"
     y="0"
     stroke="none"
     fill="#0000ff"
     transform="matrix(0.05 0 0 0.05 630.579 110.408)"
     font-style="normal"
     font-weight="bold"
     font-size="180px"
     font-family="Helvetica"
     id="text287">
O</text>
  <path
     stroke="none"
     fill="#000000"
     transform="matrix(0.05 0 0 0.05 -10 -11)"
     d="M 12719.6,2464.6 L 12706.3,2446.89 L 12779.6,2391.68 L 12792.9,2409.39 L 12719.6,2464.6 Z "
     id="path288" />
  <path
     stroke="none"
     fill="#000000"
     transform="matrix(0.05 0 0 0.05 -10 -11)"
     d="M 12746,2514.17 L 12732.6,2496.46 L 12812.9,2435.95 L 12826.3,2453.66 L 12746,2514.17 Z "
     id="path289" />
  <path
     stroke="none"
     fill="#000000"
     transform="matrix(0.05 0 0 0.05 -10 -11)"
     d="M 12728.4,2476.96 L 12750.6,2464.08 L 12752.4,2774.12 L 12730.2,2774.28 L 12728.4,2476.96 Z "
     id="path290" />
  <path
     stroke="none"
     fill="#000000"
     transform="matrix(0.05 0 0 0.05 -10 -11)"
     d="M 10715.2,3531.84 L 10726.3,3512.64 L 10991.7,3665.28 L 10969.5,3678.16 L 10715.2,3531.84 Z "
     id="path291" />
  <text
     x="0"
     y="0"
     stroke="none"
     fill="#0000ff"
     transform="matrix(0.05 0 0 0.05 542.634 170.468)"
     font-style="normal"
     font-weight="bold"
     font-size="180px"
     font-family="Helvetica"
     id="text291">
O</text>
  <path
     stroke="none"
     fill="#000000"
     transform="matrix(0.05 0 0 0.05 -10 -11)"
     d="M 10960.7,3665.8 L 10947.4,3648.09 L 11020.7,3592.88 L 11034,3610.59 L 10960.7,3665.8 Z "
     id="path292" />
  <path
     stroke="none"
     fill="#000000"
     transform="matrix(0.05 0 0 0.05 -10 -11)"
     d="M 10987.1,3715.37 L 10973.7,3697.66 L 11054,3637.15 L 11067.4,3654.86 L 10987.1,3715.37 Z "
     id="path293" />
  <path
     stroke="none"
     fill="#000000"
     transform="matrix(0.05 0 0 0.05 -10 -11)"
     d="M 10969.5,3678.16 L 10991.7,3665.28 L 10993.5,3975.32 L 10971.3,3975.48 L 10969.5,3678.16 Z "
     id="path294" />
  <path
     stroke="#000000"
     stroke-width="22"
     fill="none"
     transform="matrix(0.05 0 0 0.05 -10 -11)"
     stroke-dasharray="53"
     d="M 7134.7,4085.44 C 7134.7,4085.44 7134.7,676.455 7134.7,676.455 C 7134.7,603.012 7194.31,543.399 7267.76,543.399 C 7267.76,543.399 13866.6,543.399 13866.6,543.399 C 13940.1,543.399 13999.7,603.012 13999.7,676.455 C 13999.7,676.455 13999.7,4085.44 13999.7,4085.44 C 13999.7,4158.89 13940.1,4218.5 13866.6,4218.5 C 13866.6,4218.5 7267.76,4218.5 7267.76,4218.5 C 7194.31,4218.5 7134.7,4158.89 7134.7,4085.44 "
     id="path295" />
  <path
     stroke="none"
     fill="#000000"
     transform="matrix(0.05 0 0 0.05 -10 -11)"
     d="M 5723.3,6370.69 L 5723.3,5505.5 L 5745.3,5505.5 L 5745.3,6370.69 Z "
     id="path298" />
  <text
     x="0"
     y="0"
     stroke="none"
     fill="#000000"
     transform="matrix(0.05 0 0 0.05 247.798 286.238)"
     font-style="normal"
     font-weight="bold"
     font-size="200px"
     font-family="Helvetica"
     id="text299">
H</text>
  <text
     x="0"
     y="0"
     stroke="none"
     fill="#000000"
     transform="matrix(0.05 0 0 0.05 255.02 288.538)"
     font-style="normal"
     font-weight="bold"
     font-size="150px"
     font-family="Helvetica"
     id="text300">
3</text>
  <text
     x="0"
     y="0"
     stroke="none"
     fill="#000000"
     transform="matrix(0.05 0 0 0.05 259.191 286.238)"
     font-style="normal"
     font-weight="bold"
     font-size="200px"
     font-family="Helvetica"
     id="text301">
O</text>
  <text
     x="0"
     y="0"
     stroke="none"
     fill="#000000"
     transform="matrix(0.05 0 0 0.05 266.97 282.64)"
     font-style="normal"
     font-weight="bold"
     font-size="150px"
     font-family="Helvetica"
     id="text302">
+</text>
  <path
     stroke="none"
     fill="#000000"
     transform="matrix(0.05 0 0 0.05 -10 -11)"
     d="M 4927.06,7450.55 L 4927.06,7424.9 L 5190.68,7577.68 L 5179.59,7596.88 L 4927.06,7450.55 Z "
     id="path302" />
  <path
     stroke="none"
     fill="#000000"
     transform="matrix(0.05 0 0 0.05 -10 -11)"
     d="M 4674.53,7596.88 L 4663.44,7577.68 L 4927.06,7424.9 L 4927.06,7450.55 L 4674.53,7596.88 Z "
     id="path303" />
  <text
     x="0"
     y="0"
     stroke="none"
     fill="#0000ff"
     transform="matrix(0.05 0 0 0.05 232.853 349.253)"
     font-style="normal"
     font-weight="bold"
     font-size="180px"
     font-family="Helvetica"
     id="text303">
O</text>
  <path
     stroke="none"
     fill="#000000"
     transform="matrix(0.05 0 0 0.05 -10 -11)"
     d="M 4910.43,7454.28 L 4888.25,7454.28 L 4888.25,7240.77 L 4910.43,7240.77 L 4910.43,7454.28 Z "
     id="path304" />
  <path
     stroke="none"
     fill="#000000"
     transform="matrix(0.05 0 0 0.05 -10 -11)"
     d="M 4965.87,7454.28 L 4943.69,7454.28 L 4943.69,7240.77 L 4965.87,7240.77 L 4965.87,7454.28 Z "
     id="path305" />
  <path
     stroke="#000000"
     stroke-width="22"
     fill="none"
     transform="matrix(0.05 0 0 0.05 -10 -11)"
     stroke-dasharray="53"
     d="M 2973.4,7874.94 C 2973.4,7874.94 2973.4,2506.86 2973.4,2506.86 C 2973.4,2433.41 3033.01,2373.8 3106.46,2373.8 C 3106.46,2373.8 6860.86,2373.8 6860.86,2373.8 C 6934.31,2373.8 6993.92,2433.41 6993.92,2506.86 C 6993.92,2506.86 6993.92,7874.94 6993.92,7874.94 C 6993.92,7948.39 6934.31,8008 6860.86,8008 C 6860.86,8008 3106.46,8008 3106.46,8008 C 3033.01,8008 2973.4,7948.39 2973.4,7874.94 "
     id="path306" />
  <path
     stroke="none"
     fill="#000000"
     transform="matrix(0.05 0 0 0.05 -10 -11)"
     d="M 4893.9,6756.46 L 4893.9,6370.69 L 4915.9,6370.69 L 4915.9,6756.46 Z "
     id="path307" />
  <path
     stroke="none"
     fill="#000000"
     transform="matrix(0.05 0 0 0.05 -10 -11)"
     d="M 4904.9,6949.5 C 4904.9,6949.5 4847.46,6727.74 4847.46,6727.74 C 4847.46,6727.74 4879.77,6755.46 4904.9,6755.46 C 4929.59,6755.46 4961.34,6727.74 4961.34,6727.74 C 4961.34,6727.74 4904.9,6949.5 4904.9,6949.5 C 4904.9,6949.5 4904.9,6949.5 4904.9,6949.5 "
     id="path308" />
  <path
     stroke="#000000"
     stroke-width="1"
     fill="none"
     transform="matrix(0.05 0 0 0.05 -10 -11)"
     d="M 4904.9,6949.5 C 4904.9,6949.5 4847.46,6727.74 4847.46,6727.74 C 4847.46,6727.74 4879.77,6755.46 4904.9,6755.46 C 4929.59,6755.46 4961.34,6727.74 4961.34,6727.74 C 4961.34,6727.74 4904.9,6949.5 4904.9,6949.5 C 4904.9,6949.5 4904.9,6949.5 4904.9,6949.5 "
     id="path309" />
  <path
     stroke="none"
     fill="#000000"
     transform="matrix(0.05 0 0 0.05 -10 -11)"
     d="M 5734.3,6381.69 L 4075.5,6381.69 L 4075.5,6359.69 L 5734.3,6359.69 Z "
     id="path310" />
  <path
     stroke="none"
     fill="#ffffff"
     opacity="0"
     onclick="window.location.href = 'toalkynes.svg'"
     transform="matrix(0.05 0 0 0.05 -10 -11)"
     d="M 2345.2,3746.6 C 2345.2,3746.6 2345.2,3345.2 2345.2,3345.2 C 2345.2,3345.2 1057.2,3345.2 1057.2,3345.2 C 1057.2,3345.2 1057.2,3746.6 1057.2,3746.6 C 1057.2,3746.6 2345.2,3746.6 2345.2,3746.6 "
     id="path1"
     inkscape:label="l-toalkynes" />
  <path
     stroke="none"
     fill="#ffffff"
     opacity="0"
     onclick="window.location.href = 'toacetals.svg'"
     transform="matrix(0.05 0 0 0.05 -10 -11)"
     d="M 4919.2,5391.1 C 4919.2,5391.1 4919.2,3173.6 4919.2,3173.6 C 4919.2,3173.6 3173.6,3173.6 3173.6,3173.6 C 3173.6,3173.6 3173.6,5391.1 3173.6,5391.1 C 3173.6,5391.1 4919.2,5391.1 4919.2,5391.1 "
     id="path3"
     inkscape:label="l-toacetals" />
  <path
     stroke="none"
     fill="#ffffff"
     opacity="0"
     onclick="window.location.href = 'toenamines-imines.svg'"
     transform="matrix(0.05 0 0 0.05 -10 -11)"
     d="M 6849.7,5391.1 C 6849.7,5391.1 6849.7,3130.7 6849.7,3130.7 C 6849.7,3130.7 5175.6,3130.7 5175.6,3130.7 C 5175.6,3130.7 5175.6,5391.1 5175.6,5391.1 C 5175.6,5391.1 6849.7,5391.1 6849.7,5391.1 "
     id="path5"
     inkscape:label="l-toenamines" />
  <path
     stroke="none"
     fill="#ffffff"
     opacity="0"
     onclick="window.location.href = 'toalkenes.svg'"
     transform="matrix(0.05 0 0 0.05 -10 -11)"
     d="M 8165.3,2731.3 C 8165.3,2731.3 8165.3,1800.8 8165.3,1800.8 C 8165.3,1800.8 7377.8,1800.8 7377.8,1800.8 C 7377.8,1800.8 7377.8,2731.3 7377.8,2731.3 C 7377.8,2731.3 8165.3,2731.3 8165.3,2731.3 "
     id="path7"
     inkscape:label="l-toalkenes" />
  <path
     stroke="none"
     fill="#ffffff"
     opacity="0"
     onclick="window.location.href = 'todiols-diketones.svg'"
     transform="matrix(0.05 0 0 0.05 -10 -11)"
     d="M 11640.2,2659.8 C 11640.2,2659.8 11640.2,1772.2 11640.2,1772.2 C 11640.2,1772.2 10595.3,1772.2 10595.3,1772.2 C 10595.3,1772.2 10595.3,2659.8 10595.3,2659.8 C 10595.3,2659.8 11640.2,2659.8 11640.2,2659.8 "
     id="path9"
     inkscape:label="l-todiols-diketones" />
  <path
     stroke="none"
     fill="#ffffff"
     opacity="0"
     onclick="window.location.href = 'toacidchlorides.svg'"
     transform="matrix(0.05 0 0 0.05 -10 -11)"
     d="M 8465.6,5548.4 C 8465.6,5548.4 8465.6,4818.1 8465.6,4818.1 C 8465.6,4818.1 7606.6,4818.1 7606.6,4818.1 C 7606.6,4818.1 7606.6,5548.4 7606.6,5548.4 C 7606.6,5548.4 8465.6,5548.4 8465.6,5548.4 "
     id="path13"
     inkscape:label="l-toacidchlorides" />
  <path
     stroke="none"
     fill="#ffffff"
     opacity="0"
     onclick="window.location.href = 'toacids.svg'"
     transform="matrix(0.05 0 0 0.05 -10 -11)"
     d="M 11297,5562.7 C 11297,5562.7 11297,4803.8 11297,4803.8 C 11297,4803.8 10194.9,4803.8 10194.9,4803.8 C 10194.9,4803.8 10194.9,5562.7 10194.9,5562.7 C 10194.9,5562.7 11297,5562.7 11297,5562.7 "
     id="path17"
     inkscape:label="l-toacids" />
  <path
     stroke="none"
     fill="#ffffff"
     opacity="0"
     onclick="window.location.href = 'ketones.svg'"
     d="m 552.11816,358.48867 c 0,0 0,-40.805 0,-40.805 0,0 -190.62418,0 -190.62418,0 0,0 0,40.805 0,40.805 0,0 190.62418,0 190.62418,0"
     id="path19-7"
     inkscape:label="l-ketones"
     style="opacity:0;stroke-width:0.0745056" />
  <path
     stroke="none"
     fill="#ffffff"
     opacity="0"
     onclick="window.location.href = 'ketones.svg'"
     d="m 635.77247,382.78863 c 0,0 0,-70.51708 0,-70.51708 0,0 -63.17499,0 -63.17499,0 0,0 0,70.51708 0,70.51708 0,0 63.17499,0 63.17499,0"
     id="path19-7-6"
     inkscape:label="l-ketones"
     style="opacity:0;stroke-width:0.0563849" />
  <path
     stroke="none"
     fill="#ffffff"
     opacity="0"
     onclick="window.location.href = 'ketones.svg'"
     d="m 403.0378,447.39383 c 0,0 0,-29.85844 0,-29.85844 0,0 -78.03103,0 -78.03103,0 0,0 0,29.85844 0,29.85844 0,0 78.03103,0 78.03103,0"
     id="path19-7-6-9"
     inkscape:label="l-ketones"
     style="opacity:0;stroke-width:0.0407765" />
  <path
     stroke="none"
     fill="#ffffff"
     opacity="0"
     onclick="window.location.href = 'ketones.svg'"
     d="m 258.46629,375.82138 c 0,0 0,-36.11362 0,-36.11362 0,0 -44.40946,0 -44.40946,0 0,0 0,36.11362 0,36.11362 0,0 44.40946,0 44.40946,0"
     id="path19-7-6-6"
     inkscape:label="l-ketones"
     style="opacity:0;stroke-width:0.0338311" />
  <path
     stroke="none"
     fill="#ffffff"
     opacity="0"
     onclick="window.location.href = 'ketones.svg'"
     d="m 109.30163,369.51276 c 0,0 0,-56.44294 0,-56.44294 0,0 -51.446535,0 -51.446535,0 0,0 0,56.44294 0,56.44294 0,0 51.446535,0 51.446535,0"
     id="path19-7-6-0"
     inkscape:label="l-ketones"
     style="opacity:0;stroke-width:0.0455225" />
  <path
     stroke="none"
     fill="#ffffff"
     opacity="0"
     onclick="window.location.href = 'ketones.svg'"
     d="m 548.58373,76.194529 c 0,0 0,-31.422237 0,-31.422237 0,0 -28.77153,0 -28.77153,0 0,0 0,31.422237 0,31.422237 0,0 28.77153,0 28.77153,0"
     id="path19-7-6-1"
     inkscape:label="l-ketones"
     style="opacity:0;stroke-width:0.0254005" />
  <path
     stroke="none"
     fill="#ffffff"
     opacity="0"
     onclick="window.location.href = 'ketones.svg'"
     d="m 637.15862,128.51708 c 0,0 0,-30.640338 0,-30.640338 0,0 -27.20773,0 -27.20773,0 0,0 0,30.640338 0,30.640338 0,0 27.20773,0 27.20773,0"
     id="path19-7-6-11"
     inkscape:label="l-ketones"
     style="opacity:0;stroke-width:0.0243914" />
  <path
     stroke="none"
     fill="#ffffff"
     opacity="0"
     onclick="window.location.href = 'ketones.svg'"
     d="m 549.12493,191.59123 c 0,0 0,-30.64034 0,-30.64034 0,0 -27.20773,0 -27.20773,0 0,0 0,30.64034 0,30.64034 0,0 27.20773,0 27.20773,0"
     id="path19-7-6-11-0"
     inkscape:label="l-ketones"
     style="opacity:0;stroke-width:0.0243914" />
  <path
     stroke="none"
     fill="#ffffff"
     opacity="0"
     onclick="window.location.href = 'aldehydes.svg'"
     d="m 576.04307,55.018771 c 0,0 0,-30.640338 0,-30.640338 0,0 -27.20773,0 -27.20773,0 0,0 0,30.640338 0,30.640338 0,0 27.20773,0 27.20773,0"
     id="path19-7-6-11-1"
     inkscape:label="l-ketones"
     style="opacity:0;stroke-width:0.0243914" />
  <path
     stroke="none"
     fill="#ffffff"
     opacity="0"
     onclick="window.location.href = 'aldehydes.svg'"
     d="m 667.52501,107.2619 c 0,0 0,-30.640333 0,-30.640333 0,0 -27.20773,0 -27.20773,0 0,0 0,30.640333 0,30.640333 0,0 27.20773,0 27.20773,0"
     id="path19-7-6-11-1-5"
     inkscape:label="l-ketones"
     style="opacity:0;stroke-width:0.0243914" />
  <path
     stroke="none"
     fill="#ffffff"
     opacity="0"
     onclick="window.location.href = 'ketones.svg'"
     d="m 745.90344,183.71449 c 0,0 0,-36.11362 0,-36.11362 0,0 -40.49998,0 -40.49998,0 0,0 0,36.11362 0,36.11362 0,0 40.49998,0 40.49998,0"
     id="path19-7-6-11-1-6"
     inkscape:label="l-ketones"
     style="opacity:0;stroke-width:0.0323077" />
  <path
     stroke="none"
     fill="#ffffff"
     opacity="0"
     onclick="window.location.href = 'supplement.svg'"
     d="m 82.305014,222.31103 c 0,0 0,-42.3688 0,-42.3688 0,0 -45.191361,0 -45.191361,0 0,0 0,42.3688 0,42.3688 0,0 45.191361,0 45.191361,0"
     id="path19-7-6-11-1-6-2"
     inkscape:label="l-supplement"
     style="opacity:0;stroke-width:0.0369653" />
  <path
     stroke="none"
     fill="#ffffff"
     opacity="0"
     onclick="window.location.href = 'supplement.svg'"
     d="m 191.68967,294.75589 c 0,0 0,-22.03948 0,-22.03948 0,0 -33.46291,0 -33.46291,0 0,0 0,22.03948 0,22.03948 0,0 33.46291,0 33.46291,0"
     id="path19-7-6-11-1-6-2-2"
     inkscape:label="l-supplement"
     style="opacity:0;stroke-width:0.0229417" />
  <path
     stroke="none"
     fill="#ffffff"
     opacity="0"
     onclick="window.location.href = 'supplement.svg'"
     d="m 273.81293,296.87482 c 0,0 0,-22.03948 0,-22.03948 0,0 -31.11722,0 -31.11722,0 0,0 0,22.03948 0,22.03948 0,0 31.11722,0 31.11722,0"
     id="path19-7-6-11-1-6-2-3"
     inkscape:label="l-supplement"
     style="opacity:0;stroke-width:0.022123" />
  <path
     stroke="none"
     fill="#ffffff"
     opacity="0"
     onclick="window.location.href = 'supplement.svg'"
     d="m 502.84228,50.050576 c 0,0 0,-25.167068 0,-25.167068 0,0 -42.06377,0 -42.06377,0 0,0 0,25.167068 0,25.167068 0,0 42.06377,0 42.06377,0"
     id="path19-7-6-11-1-6-2-1"
     inkscape:label="l-supplement"
     style="opacity:0;stroke-width:0.0274861" />
  <path
     stroke="none"
     fill="#ffffff"
     opacity="0"
     onclick="window.location.href = 'supplement.svg'"
     d="m 519.2448,117.86278 c 0,0 0,-45.496389 0,-45.496389 0,0 -71.77585,0 -71.77585,0 0,0 0,45.496389 0,45.496389 0,0 71.77585,0 71.77585,0"
     id="path19-7-6-11-1-6-2-4"
     inkscape:label="l-supplement"
     style="opacity:0;stroke-width:0.0482749" />
  <path
     stroke="none"
     fill="#ffffff"
     opacity="0"
     onclick="window.location.href = 'supplement.svg'"
     d="m 507.2241,156.87916 c 0,0 0,-25.94897 0,-25.94897 0,0 -52.22843,0 -52.22843,0 0,0 0,25.94897 0,25.94897 0,0 52.22843,0 52.22843,0"
     id="path19-7-6-11-1-6-2-45"
     inkscape:label="l-supplement"
     style="opacity:0;stroke-width:0.0310998" />
  <path
     stroke="none"
     fill="#ffffff"
     opacity="0"
     onclick="window.location.href = 'supplement.svg'"
     d="m 605.44653,98.742905 c 0,0 0,-15.784306 0,-15.784306 0,0 -29.55342,0 -29.55342,0 0,0 0,15.784306 0,15.784306 0,0 29.55342,0 29.55342,0"
     id="path19-7-6-11-1-6-2-6"
     inkscape:label="l-supplement"
     style="opacity:0;stroke-width:0.0182457" />
  <path
     stroke="none"
     fill="#ffffff"
     opacity="0"
     onclick="window.location.href = 'supplement.svg'"
     d="m 760.27416,140.82571 c 0,0 0,-47.842081 0,-47.842081 0,0 -37.37239,0 -37.37239,0 0,0 0,47.842081 0,47.842081 0,0 37.37239,0 37.37239,0"
     id="path19-7-6-11-1-6-2-9"
     inkscape:label="l-supplement"
     style="opacity:0;stroke-width:0.035721" />
  <path
     stroke="none"
     fill="#ffffff"
     opacity="0"
     onclick="window.location.href = 'supplement.svg'"
     d="m 458.08691,305.41886 c 0,0 0,-12.65672 0,-12.65672 0,0 -45.19136,0 -45.19136,0 0,0 0,12.65672 0,12.65672 0,0 45.19136,0 45.19136,0"
     id="path19-7-6-11-1-6-2-28"
     inkscape:label="l-supplement"
     style="opacity:0;stroke-width:0.0202037" />
  <path
     stroke="none"
     fill="#ffffff"
     opacity="0"
     onclick="window.location.href = 'supplement.svg'"
     d="m 571.23276,309.03948 c 0,0 0,-14.22051 0,-14.22051 0,0 -45.19136,0 -45.19136,0 0,0 0,14.22051 0,14.22051 0,0 45.19136,0 45.19136,0"
     id="path19-7-6-11-1-6-2-90"
     inkscape:label="l-supplement"
     style="opacity:0;stroke-width:0.0214155" />
  <path
     stroke="none"
     fill="#ffffff"
     opacity="0"
     onclick="window.location.href = 'supplement.svg'"
     d="m 640.60686,307.83774 c 0,0 0,-13.43861 0,-13.43861 0,0 -26.42583,0 -26.42583,0 0,0 0,13.43861 0,13.43861 0,0 26.42583,0 26.42583,0"
     id="path19-7-6-11-1-6-2-33"
     inkscape:label="l-supplement"
     style="opacity:0;stroke-width:0.0159197" />
  <path
     stroke="none"
     fill="#ffffff"
     opacity="0"
     onclick="window.location.href = 'toacidchlorides.svg'"
     d="m 687.39309,292.58257 c 0,0 0,-27.51276 0,-27.51276 0,0 -78.03103,0 -78.03103,0 0,0 0,27.51276 0,27.51276 0,0 78.03103,0 78.03103,0"
     id="path19-7-6-11-1-6-2-67"
     inkscape:label="l-supplement"
     style="opacity:0;stroke-width:0.0391421" />
  <path
     stroke="none"
     fill="#ffffff"
     opacity="0"
     onclick="window.location.href = 'toorganometallics.svg'"
     d="m 557.70942,294.13 c 0,0 0,-11.09293 0,-11.09293 0,0 -29.55342,0 -29.55342,0 0,0 0,11.09293 0,11.09293 0,0 29.55342,0 29.55342,0"
     id="path19-7-6-11-1-6-2-67-0"
     inkscape:label="l-supplement"
     style="opacity:0;stroke-width:0.0152957" />
  <path
     stroke="none"
     fill="#ffffff"
     opacity="0"
     onclick="window.location.href = 'toorganometallics.svg'"
     d="m 457.30596,292.01879 c 0,0 0,-15.00241 0,-15.00241 0,0 -36.59049,0 -36.59049,0 0,0 0,15.00241 0,15.00241 0,0 36.59049,0 36.59049,0"
     id="path19-7-6-11-1-6-2-67-0-3"
     inkscape:label="l-supplement"
     style="opacity:0;stroke-width:0.0197928" />
  <path
     stroke="none"
     fill="#ffffff"
     opacity="0"
     onclick="window.location.href = 'toorganometallics.svg'"
     d="m 386.18703,298.00241 c 0,0 0,-15.00241 0,-15.00241 0,0 -38.15429,0 -38.15429,0 0,0 0,15.00241 0,15.00241 0,0 38.15429,0 38.15429,0"
     id="path19-7-6-11-1-6-2-67-0-8"
     inkscape:label="l-supplement"
     style="opacity:0;stroke-width:0.0202113" />
  <g
     id="nostructures"
     onclick="window.location.href = 'toketones.svg'"
     transform="matrix(0.87844457,0,0,1,-3.2995176,381.05692)">
    <text
       x="18.000504"
       y="55.14151"
       stroke="none"
       fill="#000000"
       font-style="normal"
       font-weight="bold"
       font-size="200px"
       font-family="Helvetica"
       id="gobacktext-7"
       style="font-style:normal;font-variant:normal;font-weight:bold;font-stretch:normal;font-size:10px;font-family:Helvetica;-inkscape-font-specification:'Helvetica, Bold';font-variant-ligatures:normal;font-variant-caps:normal;font-variant-numeric:normal;font-variant-east-asian:normal;fill:#0088d0;fill-opacity:0.68;stroke:none;stroke-width:0.05"
       inkscape:label="noreagents-text"><tspan
         sodipodi:role="line"
         id="tspan1"
         x="18.000504"
         y="55.14151">show</tspan></text>
    <path
       stroke="none"
       fill="#999999"
       d="m 9.795,54.694678 c 0,0 0,-5.427567 0,-5.427567 0,-2.098514 1.679048,-3.801611 3.747601,-3.801611 0,0 35.119514,0 35.119514,0 2.068778,0 3.747742,1.703097 3.747742,3.801611 0,0 0,5.427567 0,5.427567 0,2.098514 -1.678964,3.801611 -3.747742,3.801611 0,0 -35.119514,0 -35.119514,0 -2.068553,0 -3.747601,-1.703097 -3.747601,-3.801611"
       id="goback-box-8"
       style="fill:#999999;fill-opacity:0.336842;stroke-width:0.0283675"
       inkscape:label="noreagents-box" />
  </g>
  <g
     id="noreagents"
     onclick="window.location.href = 'toketones-noreagents.svg'"
     transform="translate(-4.6856272,382.9067)">
    <text
       x="11.541888"
       y="67.610527"
       stroke="none"
       fill="#000000"
       font-style="normal"
       font-weight="bold"
       font-size="200px"
       font-family="Helvetica"
       id="gobacktext-7-8"
       style="font-style:normal;font-weight:bold;font-size:10px;font-family:Helvetica;fill:#000000;fill-opacity:0.443609;stroke:none;stroke-width:0.05"
       inkscape:label="noproducts-text"><tspan
         sodipodi:role="line"
         id="tspan2-5"
         x="11.541888"
         y="67.610527"
         style="font-style:normal;font-variant:normal;font-weight:bold;font-stretch:normal;font-size:8px;font-family:Helvetica;-inkscape-font-specification:'Helvetica, Bold';font-variant-ligatures:normal;font-variant-caps:normal;font-variant-numeric:normal;font-variant-east-asian:normal;fill:#000000;fill-opacity:0.5;stroke-width:0.05">reagents</tspan></text>
    <rect
       style="fill:#000000;fill-opacity:0.821053;fill-rule:evenodd;stroke:#a13033;stroke-width:0;stroke-linecap:round;stroke-miterlimit:2;stroke-dasharray:none;paint-order:markers fill stroke"
       id="rect3-9"
       width="31.666824"
       height="0.9773711"
       x="12.566371"
       y="64.987999"
       inkscape:label="noproducts-line" />
    <path
       stroke="none"
       fill="#999999"
       d="m 10.136392,68.163695 c 0,0 0,-5.427567 0,-5.427567 0,-2.098514 1.463398,-3.801611 3.266274,-3.801611 0,0 30.608907,0 30.608907,0 1.803073,0 3.266397,1.703097 3.266397,3.801611 0,0 0,5.427567 0,5.427567 0,2.098514 -1.463324,3.801611 -3.266397,3.801611 0,0 -30.608907,0 -30.608907,0 -1.802876,0 -3.266274,-1.703097 -3.266274,-3.801611"
       id="goback-box-8-6"
       style="fill:#999999;fill-opacity:0.336842;stroke-width:0.0264832"
       inkscape:label="noproducts-box" />
  </g>
  <text
     x="822.84332"
     y="415.79849"
     stroke="none"
     fill="#000000"
     transform="matrix(0.92407999,-0.00322566,0.00377741,1.0821442,0,0)"
     font-style="italic"
     font-weight="bold"
     font-size="8.25806px"
     font-family="'Helvetica Oblique'"
     id="text11"
     style="opacity:1;fill:#00009a;fill-opacity:0.651128;stroke-width:0.0412903">chemisfun</text>
  <g
     id="overlay-box"
     style="opacity:0"
     transform="matrix(0.31364504,0,0,0.8007311,650.50736,385.81436)">
    <rect
       style="fill:#609975;fill-opacity:0.2;stroke:#609970;stroke-width:0;stroke-linecap:round;stroke-opacity:0.657143;paint-order:fill markers stroke"
       id="rect285"
       width="164.84744"
       height="59.583412"
       x="329.69489"
       y="23.171328" />
  </g>
  <g
     id="overlay"
     onclick="window.location.href = 'index.html'"
     onmouseover="this.ownerDocument.getElementById('overlay-box').style.opacity='0.5'"
     onmouseout="this.ownerDocument.getElementById('overlay-box').style.opacity='0'"
     transform="matrix(0.76550767,-0.0030054,0.00267214,0.86098131,195.61318,22.784653)">
    <rect
       style="opacity:0.5;fill:#ffffff;fill-opacity:0;stroke-linecap:round;stroke-opacity:0.657143;paint-order:stroke fill markers"
       id="rect2"
       width="65.93074"
       height="55.035408"
       x="733.06049"
       y="445.87061" />
  </g>
  <g
     id="g1"
     transform="matrix(0.0625,0,0,0.0625,764.65732,406.62566)">
    <rect
       x="239.31"
       y="120.321"
       style="fill:#444242"
       width="33.389"
       height="139.98"
       id="rect1" />
    <rect
       x="256"
       y="120.321"
       style="fill:#3a3839"
       width="16.695"
       height="139.98"
       id="rect2-2" />
    <rect
       x="132.194"
       y="305.86301"
       transform="matrix(0.5,0.866,-0.866,0.5,399.932,58.9793)"
       style="fill:#444242"
       width="33.387001"
       height="139.967"
       id="rect4" />
    <rect
       x="293.125"
       y="359.13"
       transform="matrix(0.866,0.5,-0.5,0.866,236.5654,-131.205)"
       style="fill:#3a3839"
       width="139.967"
       height="33.387001"
       id="rect5" />
    <path
       style="background-color:#ffffff00;fill:#439de2;fill-opacity:1"
       d="m 456.843,485.07 c -9.538,0 -18.951,-2.501 -27.432,-7.398 v 0 c -12.733,-7.351 -21.842,-19.221 -25.646,-33.424 -3.805,-14.201 -1.853,-29.035 5.499,-41.769 7.351,-12.732 19.221,-21.841 33.424,-25.646 14.201,-3.806 29.034,-1.853 41.769,5.499 12.732,7.351 21.841,19.221 25.646,33.424 3.805,14.202 1.853,29.035 -5.499,41.769 -7.351,12.733 -19.221,21.842 -33.424,25.646 -4.742,1.27 -9.557,1.899 -14.337,1.899 z"
       id="path7-3" />
    <path
       style="background-color:#ffffff00;fill:#eda74a;fill-opacity:1"
       d="m 256.001,137.021 c -30.352,0 -55.044,-24.693 -55.044,-55.044 0,-30.351 24.693,-55.044 55.044,-55.044 30.351,0 55.044,24.693 55.044,55.044 0,30.351 -24.693,55.044 -55.044,55.044 z"
       id="path5-4" />
    <path
       style="background-color:#ffffff00;fill:#53acb1;fill-opacity:1"
       d="m 55.158,485.07 c -4.781,0 -9.594,-0.629 -14.336,-1.9 C 26.619,479.365 14.75,470.256 7.398,457.524 0.046,444.792 -1.906,429.957 1.899,415.755 c 3.805,-14.203 12.914,-26.072 25.646,-33.424 12.731,-7.352 27.567,-9.304 41.769,-5.499 14.203,3.805 26.072,12.914 33.424,25.646 7.352,12.732 9.304,27.567 5.499,41.769 -3.805,14.203 -12.914,26.072 -25.646,33.424 -8.481,4.897 -17.896,7.399 -27.433,7.399 z"
       id="path6-7" />
    <path
       style="fill:#f74d37"
       d="m 256.001,384.379 c -38.81,0 -70.384,-31.575 -70.384,-70.384 0,-38.809 31.575,-70.384 70.384,-70.384 38.809,0 70.384,31.575 70.384,70.384 0,38.809 -31.575,70.384 -70.384,70.384 z"
       id="path4-9" />
  </g>
</svg>
