<?xml version="1.0" encoding="UTF-8" standalone="no"?>
<svg
   width="100%"
   height="100%"
   viewBox="0 0 818 460"
   style="background-color: #ffffff00"
   version="1.1"
   id="svg252"
   sodipodi:docname="tomalonic-noreactants.svg"
   inkscape:version="1.4.2 (ebf0e940, 2025-05-08)"
   xmlns:inkscape="http://www.inkscape.org/namespaces/inkscape"
   xmlns:sodipodi="http://sodipodi.sourceforge.net/DTD/sodipodi-0.dtd"
   xmlns="http://www.w3.org/2000/svg"
   xmlns:svg="http://www.w3.org/2000/svg">
  <path
     stroke="none"
     fill="#ffffff"
     transform="matrix(0.05 0 0 0.05 -10 -11)"
     d="M 4761.9,6220.5 C 4761.9,6220.5 4761.9,5533.1 4761.9,5533.1 C 4761.9,5533.1 3574,5533.1 3574,5533.1 C 3574,5533.1 3574,6220.5 3574,6220.5 C 3574,6220.5 4761.9,6220.5 4761.9,6220.5 "
     id="path5" />
  <path
     stroke="#ffffff"
     stroke-width="1"
     fill="none"
     transform="matrix(0.05 0 0 0.05 -10 -11)"
     d="M 4761.9,6220.5 C 4761.9,6220.5 4761.9,5533.1 4761.9,5533.1 C 4761.9,5533.1 3574,5533.1 3574,5533.1 C 3574,5533.1 3574,6220.5 3574,6220.5 C 3574,6220.5 4761.9,6220.5 4761.9,6220.5 "
     id="path6" />
  <path
     stroke="#ffffff"
     stroke-width="1"
     fill="none"
     transform="matrix(0.05 0 0 0.05 -10 -11)"
     d="M 7907.9,3346.2 C 7907.9,3346.2 7907.9,2558.7 7907.9,2558.7 C 7907.9,2558.7 7077.5,2558.7 7077.5,2558.7 C 7077.5,2558.7 7077.5,3346.2 7077.5,3346.2 C 7077.5,3346.2 7907.9,3346.2 7907.9,3346.2 "
     id="path8" />
  <path
     stroke="#ffffff"
     stroke-width="1"
     fill="none"
     transform="matrix(0.05 0 0 0.05 -10 -11)"
     d="M 7893.6,5476.9 C 7893.6,5476.9 7893.6,4789.5 7893.6,4789.5 C 7893.6,4789.5 6834.4,4789.5 6834.4,4789.5 C 6834.4,4789.5 6834.4,5476.9 6834.4,5476.9 C 6834.4,5476.9 7893.6,5476.9 7893.6,5476.9 "
     id="path10" />
  <path
     stroke="none"
     fill="#ffffff"
     transform="matrix(0.05 0 0 0.05 -10 -11)"
     d="M 7207.2,6292 C 7207.2,6292 7207.2,5618.9 7207.2,5618.9 C 7207.2,5618.9 6362.5,5618.9 6362.5,5618.9 C 6362.5,5618.9 6362.5,6292 6362.5,6292 C 6362.5,6292 7207.2,6292 7207.2,6292 "
     id="path11" />
  <path
     stroke="#ffffff"
     stroke-width="1"
     fill="none"
     transform="matrix(0.05 0 0 0.05 -10 -11)"
     d="M 7207.2,6292 C 7207.2,6292 7207.2,5618.9 7207.2,5618.9 C 7207.2,5618.9 6362.5,5618.9 6362.5,5618.9 C 6362.5,5618.9 6362.5,6292 6362.5,6292 C 6362.5,6292 7207.2,6292 7207.2,6292 "
     id="path12" />
  <path
     stroke="none"
     fill="#ffffff"
     transform="matrix(0.05 0 0 0.05 -10 -11)"
     d="M 10153,6292 C 10153,6292 10153,5533.1 10153,5533.1 C 10153,5533.1 9123.4,5533.1 9123.4,5533.1 C 9123.4,5533.1 9123.4,6292 9123.4,6292 C 9123.4,6292 10153,6292 10153,6292 "
     id="path17" />
  <path
     stroke="#ffffff"
     stroke-width="1"
     fill="none"
     transform="matrix(0.05 0 0 0.05 -10 -11)"
     d="M 10153,6292 C 10153,6292 10153,5533.1 10153,5533.1 C 10153,5533.1 9123.4,5533.1 9123.4,5533.1 C 9123.4,5533.1 9123.4,6292 9123.4,6292 C 9123.4,6292 10153,6292 10153,6292 "
     id="path18" />
  <path
     stroke="#ffffff"
     stroke-width="1"
     fill="none"
     transform="matrix(0.05 0 0 0.05 -10 -11)"
     d="M 12483.9,5305.3 C 12483.9,5305.3 12483.9,4417.7 12483.9,4417.7 C 12483.9,4417.7 11324.6,4417.7 11324.6,4417.7 C 11324.6,4417.7 11324.6,5305.3 11324.6,5305.3 C 11324.6,5305.3 12483.9,5305.3 12483.9,5305.3 "
     id="path26" />
  <path
     stroke="#ffffff"
     stroke-width="1"
     fill="none"
     transform="matrix(0.05 0 0 0.05 -10 -11)"
     d="M 13585,5362.5 C 13585,5362.5 13585,4374.8 13585,4374.8 C 13585,4374.8 12683.1,4374.8 12683.1,4374.8 C 12683.1,4374.8 12683.1,5362.5 12683.1,5362.5 C 12683.1,5362.5 13585,5362.5 13585,5362.5 "
     id="path28" />
  <path
     stroke="none"
     fill="#ffffff"
     transform="matrix(0.05 0 0 0.05 -10 -11)"
     d="M 15715.7,6334.9 C 15715.7,6334.9 15715.7,5590.3 15715.7,5590.3 C 15715.7,5590.3 14985.4,5590.3 14985.4,5590.3 C 14985.4,5590.3 14985.4,6334.9 14985.4,6334.9 C 14985.4,6334.9 15715.7,6334.9 15715.7,6334.9 "
     id="path31" />
  <path
     stroke="#ffffff"
     stroke-width="1"
     fill="none"
     transform="matrix(0.05 0 0 0.05 -10 -11)"
     d="M 15715.7,6334.9 C 15715.7,6334.9 15715.7,5590.3 15715.7,5590.3 C 15715.7,5590.3 14985.4,5590.3 14985.4,5590.3 C 14985.4,5590.3 14985.4,6334.9 14985.4,6334.9 C 14985.4,6334.9 15715.7,6334.9 15715.7,6334.9 "
     id="path32" />
  <path
     stroke="none"
     fill="#ffffff"
     transform="matrix(0.05 0 0 0.05 -10 -11)"
     d="M 14056.9,3918.2 C 14056.9,3918.2 14056.9,3431 14056.9,3431 C 14056.9,3431 13083.5,3431 13083.5,3431 C 13083.5,3431 13083.5,3918.2 13083.5,3918.2 C 13083.5,3918.2 14056.9,3918.2 14056.9,3918.2 "
     id="path33" />
  <path
     stroke="#ffffff"
     stroke-width="1"
     fill="none"
     transform="matrix(0.05 0 0 0.05 -10 -11)"
     d="M 14056.9,3918.2 C 14056.9,3918.2 14056.9,3431 14056.9,3431 C 14056.9,3431 13083.5,3431 13083.5,3431 C 13083.5,3431 13083.5,3918.2 13083.5,3918.2 C 13083.5,3918.2 14056.9,3918.2 14056.9,3918.2 "
     id="path34" />
  <path
     stroke="#000000"
     stroke-width="22"
     fill="none"
     transform="matrix(0.05 0 0 0.05 -10 -11)"
     d="M 16494.7,9367.47 C 16494.7,9367.47 16494.7,284.602 16494.7,284.602 C 16494.7,284.602 268.683,284.602 268.683,284.602 C 268.683,284.602 268.683,9367.47 268.683,9367.47 C 268.683,9367.47 16494.7,9367.47 16494.7,9367.47 "
     id="path37" />
  <text
     x="0"
     y="0"
     stroke="none"
     fill="#000000"
     transform="matrix(0.05 0 0 0.05 11.735 21.13)"
     font-style="normal"
     font-weight="bold"
     font-size="320px"
     font-family="Helvetica"
     id="text37">
Preparation of Malonic and Acetoacetic Ester, and Enones</text>
  <text
     x="0"
     y="0"
     stroke="none"
     fill="#999999"
     transform="matrix(0.05 0 0 0.05 11.9381 39.085)"
     font-style="normal"
     font-weight="normal"
     font-size="320px"
     font-family="Helvetica"
     id="text45">
click for more</text>
  <g
     id="goback"
     onclick="window.location.href = 'index.svg'"
     onmouseover="document.getElementById('goback-box').setAttribute('opacity','0.5');"
     onmouseout="document.getElementById('goback-box').setAttribute('opacity','1')">
    <path
       stroke="none"
       fill="#999999"
       transform="matrix(0.05 0 0 0.05 -10 -11)"
       d="M 395.9,1492.34 C 395.9,1492.34 395.9,1302.37 395.9,1302.37 C 395.9,1228.92 455.513,1169.31 528.955,1169.31 C 528.955,1169.31 1775.84,1169.31 1775.84,1169.31 C 1849.29,1169.31 1908.9,1228.92 1908.9,1302.37 C 1908.9,1302.37 1908.9,1492.34 1908.9,1492.34 C 1908.9,1565.79 1849.29,1625.4 1775.84,1625.4 C 1775.84,1625.4 528.955,1625.4 528.955,1625.4 C 455.513,1625.4 395.9,1565.79 395.9,1492.34 "
       id="goback-box" />
    <text
       x="0"
       y="0"
       stroke="none"
       fill="#000000"
       transform="matrix(0.05 0 0 0.05 29.3796 61.765)"
       font-style="normal"
       font-weight="bold"
       font-size="200px"
       font-family="Helvetica"
       id="gobacktext">
go home</text>
    <path
       stroke="#999999"
       stroke-width="1"
       transform="matrix(0.05 0 0 0.05 -10 -11)"
       d="M 395.9,1492.34 C 395.9,1492.34 395.9,1302.37 395.9,1302.37 C 395.9,1228.92 455.513,1169.31 528.955,1169.31 C 528.955,1169.31 1775.84,1169.31 1775.84,1169.31 C 1849.29,1169.31 1908.9,1228.92 1908.9,1302.37 C 1908.9,1302.37 1908.9,1492.34 1908.9,1492.34 C 1908.9,1565.79 1849.29,1625.4 1775.84,1625.4 C 1775.84,1625.4 528.955,1625.4 528.955,1625.4 C 455.513,1625.4 395.9,1565.79 395.9,1492.34 "
       onclick="window.location.href = 'index.svg'"
       style="opacity:0"
       id="goback-link" />
  </g>
  <g
     id="howdotheyreact"
     onclick="window.location.href = 'malonic.svg'"
     onmouseover="document.getElementById('howdotheyreact-box').setAttribute('opacity','0.5');"
     onmouseout="document.getElementById('howdotheyreact-box').setAttribute('opacity','1')">
    <path
       stroke="none"
       fill="#999999"
       transform="matrix(0.05 0 0 0.05 -10 -11)"
       d="M 381.591,1996.7 C 381.591,1996.7 381.591,1806.72 381.591,1806.72 C 381.591,1733.28 441.204,1673.66 514.646,1673.66 C 514.646,1673.66 2149.06,1673.66 2149.06,1673.66 C 2222.51,1673.66 2282.12,1733.28 2282.12,1806.72 C 2282.12,1806.72 2282.12,1996.7 2282.12,1996.7 C 2282.12,2070.14 2222.51,2129.75 2149.06,2129.75 C 2149.06,2129.75 514.646,2129.75 514.646,2129.75 C 441.204,2129.75 381.591,2070.14 381.591,1996.7 "
       id="howdotheyreact-box" />
    <text
       x="0"
       y="0"
       stroke="none"
       fill="#000000"
       transform="matrix(0.05 0 0 0.05 12.2417 86.9826)"
       font-style="normal"
       font-weight="bold"
       font-size="200px"
       font-family="Helvetica"
       id="howdotheyreact-text">
how do they react?</text>
    <path
       stroke="#999999"
       stroke-width="1"
       transform="matrix(0.05 0 0 0.05 -10 -11)"
       d="M 381.591,1996.7 C 381.591,1996.7 381.591,1806.72 381.591,1806.72 C 381.591,1733.28 441.204,1673.66 514.646,1673.66 C 514.646,1673.66 2149.06,1673.66 2149.06,1673.66 C 2222.51,1673.66 2282.12,1733.28 2282.12,1806.72 C 2282.12,1806.72 2282.12,1996.7 2282.12,1996.7 C 2282.12,2070.14 2222.51,2129.75 2149.06,2129.75 C 2149.06,2129.75 514.646,2129.75 514.646,2129.75 C 441.204,2129.75 381.591,2070.14 381.591,1996.7 "
       style="opacity:0"
       id="howdotheyreact-link" />
  </g>
  <text
     x="0"
     y="0"
     stroke="none"
     fill="#0000ff"
     transform="matrix(0.05 0 0 0.05 174.999 391.996)"
     font-style="normal"
     font-weight="bold"
     font-size="280px"
     font-family="Helvetica"
     id="text54">
malonic </text>
  <text
     x="0"
     y="0"
     stroke="none"
     fill="#0000ff"
     transform="matrix(0.05 0 0 0.05 231.792 391.996)"
     font-style="normal"
     font-weight="bold"
     font-size="280px"
     font-family="Helvetica"
     id="text55">
ester</text>
  <path
     stroke="none"
     fill="#000000"
     transform="matrix(0.05 0 0 0.05 -10 -11)"
     d="M 4842.69,7334.4 L 4842.69,7308.75 L 5102.28,7157.75 L 5102.33,7183.42 L 4842.69,7334.4 Z "
     id="path55" />
  <path
     stroke="none"
     fill="#0000ff"
     transform="matrix(0.05 0 0 0.05 -10 -11)"
     d="M 4566.67,7187.27 L 4544.49,7187.27 L 4544.49,6971.23 L 4566.67,6971.23 L 4566.67,7187.27 Z "
     id="path56" />
  <path
     stroke="none"
     fill="#0000ff"
     transform="matrix(0.05 0 0 0.05 -10 -11)"
     d="M 4622.1,7187.27 L 4599.93,7187.27 L 4599.93,6971.23 L 4622.1,6971.23 L 4622.1,7187.27 Z "
     id="path57" />
  <text
     x="0"
     y="0"
     stroke="none"
     fill="#0000ff"
     transform="matrix(0.05 0 0 0.05 215.665 335.826)"
     font-style="normal"
     font-weight="bold"
     font-size="180px"
     font-family="Helvetica"
     id="text57">
O</text>
  <path
     stroke="none"
     fill="#ff0000"
     transform="matrix(0.05 0 0 0.05 -10 -11)"
     d="M 4583.04,7183.42 L 4583.09,7157.75 L 4842.69,7308.75 L 4842.69,7334.4 L 4583.04,7183.42 Z "
     id="path58" />
  <path
     stroke="none"
     fill="#0000ff"
     transform="matrix(0.05 0 0 0.05 -10 -11)"
     d="M 4412.86,7282.47 L 4401.77,7263.27 L 4583.09,7157.75 L 4583.04,7183.42 L 4412.86,7282.47 Z "
     id="path59" />
  <text
     x="0"
     y="0"
     stroke="none"
     fill="#0000ff"
     transform="matrix(0.05 0 0 0.05 193.695 358.29)"
     font-style="normal"
     font-weight="bold"
     font-size="180px"
     font-family="Helvetica"
     id="text59">
EtO</text>
  <text
     x="0"
     y="0"
     stroke="none"
     fill="#000000"
     transform="matrix(0.05 0 0 0.05 254.573 358.29)"
     font-style="normal"
     font-weight="bold"
     font-size="180px"
     font-family="Helvetica"
     id="text60">
OEt</text>
  <path
     stroke="none"
     fill="#000000"
     transform="matrix(0.05 0 0 0.05 -10 -11)"
     d="M 5102.33,7183.42 L 5102.28,7157.75 L 5283.88,7263.43 L 5272.8,7282.63 L 5102.33,7183.42 Z "
     id="path60" />
  <text
     x="0"
     y="0"
     stroke="none"
     fill="#000000"
     transform="matrix(0.05 0 0 0.05 241.604 335.826)"
     font-style="normal"
     font-weight="bold"
     font-size="180px"
     font-family="Helvetica"
     id="text61">
O</text>
  <path
     stroke="none"
     fill="#000000"
     transform="matrix(0.05 0 0 0.05 -10 -11)"
     d="M 5085.45,7187.27 L 5063.27,7187.27 L 5063.27,6971.23 L 5085.45,6971.23 L 5085.45,7187.27 Z "
     id="path61" />
  <path
     stroke="none"
     fill="#000000"
     transform="matrix(0.05 0 0 0.05 -10 -11)"
     d="M 5140.89,7187.27 L 5118.71,7187.27 L 5118.71,6971.23 L 5140.89,6971.23 L 5140.89,7187.27 Z "
     id="path62" />
  <text
     x="0"
     y="0"
     stroke="none"
     fill="#0000ff"
     transform="matrix(0.05 0 0 0.05 375.761 406.296)"
     font-style="normal"
     font-weight="bold"
     font-size="280px"
     font-family="Helvetica"
     id="text62">
acetoacetic</text>
  <text
     x="0"
     y="0"
     stroke="none"
     fill="#0000ff"
     transform="matrix(0.05 0 0 0.05 397.161 420.346)"
     font-style="normal"
     font-weight="bold"
     font-size="280px"
     font-family="Helvetica"
     id="text63">
ester</text>
  <path
     stroke="none"
     fill="#ff0000"
     transform="matrix(0.05 0 0 0.05 -10 -11)"
     d="M 9075.49,7291.5 L 9075.49,7265.85 L 9335.08,7114.85 L 9335.13,7140.52 L 9075.49,7291.5 Z "
     id="path63" />
  <path
     stroke="none"
     fill="#000000"
     transform="matrix(0.05 0 0 0.05 -10 -11)"
     d="M 8799.47,7144.37 L 8777.29,7144.37 L 8777.29,6928.33 L 8799.47,6928.33 L 8799.47,7144.37 Z "
     id="path64" />
  <path
     stroke="none"
     fill="#000000"
     transform="matrix(0.05 0 0 0.05 -10 -11)"
     d="M 8854.9,7144.37 L 8832.73,7144.37 L 8832.73,6928.33 L 8854.9,6928.33 L 8854.9,7144.37 Z "
     id="path65" />
  <text
     x="0"
     y="0"
     stroke="none"
     fill="#000000"
     transform="matrix(0.05 0 0 0.05 427.305 333.681)"
     font-style="normal"
     font-weight="bold"
     font-size="180px"
     font-family="Helvetica"
     id="text65">
O</text>
  <path
     stroke="none"
     fill="#000000"
     transform="matrix(0.05 0 0 0.05 -10 -11)"
     d="M 8816.1,7140.65 L 8816.1,7114.99 L 9075.49,7265.85 L 9075.49,7291.5 L 8816.1,7140.65 Z "
     id="path66" />
  <path
     stroke="none"
     fill="#000000"
     transform="matrix(0.05 0 0 0.05 -10 -11)"
     d="M 8562.25,7287.73 L 8551.16,7268.52 L 8816.1,7114.99 L 8816.1,7140.65 L 8562.25,7287.73 Z "
     id="path67" />
  <text
     x="0"
     y="0"
     stroke="none"
     fill="#0000ff"
     transform="matrix(0.05 0 0 0.05 466.213 356.145)"
     font-style="normal"
     font-weight="bold"
     font-size="180px"
     font-family="Helvetica"
     id="text67">
OEt</text>
  <path
     stroke="none"
     fill="#0000ff"
     transform="matrix(0.05 0 0 0.05 -10 -11)"
     d="M 9335.13,7140.52 L 9335.08,7114.85 L 9516.68,7220.53 L 9505.6,7239.73 L 9335.13,7140.52 Z "
     id="path68" />
  <text
     x="0"
     y="0"
     stroke="none"
     fill="#0000ff"
     transform="matrix(0.05 0 0 0.05 453.244 333.681)"
     font-style="normal"
     font-weight="bold"
     font-size="180px"
     font-family="Helvetica"
     id="text68">
O</text>
  <path
     stroke="none"
     fill="#0000ff"
     transform="matrix(0.05 0 0 0.05 -10 -11)"
     d="M 9318.25,7144.37 L 9296.07,7144.37 L 9296.07,6928.33 L 9318.25,6928.33 L 9318.25,7144.37 Z "
     id="path69" />
  <path
     stroke="none"
     fill="#0000ff"
     transform="matrix(0.05 0 0 0.05 -10 -11)"
     d="M 9373.69,7144.37 L 9351.51,7144.37 L 9351.51,6928.33 L 9373.69,6928.33 L 9373.69,7144.37 Z "
     id="path70" />
  <text
     x="0"
     y="0"
     stroke="none"
     fill="#0000ff"
     transform="matrix(0.05 0 0 0.05 643.928 403.436)"
     font-style="normal"
     font-weight="bold"
     font-size="280px"
     font-family="Helvetica"
     id="text75">
enones</text>
  <path
     stroke="none"
     fill="#000000"
     transform="matrix(0.05 0 0 0.05 -10 -11)"
     d="M 12638.7,7200.98 L 12660.9,7188.15 L 12660.4,7494.36 L 12638.2,7494.36 L 12638.7,7200.98 Z "
     id="path81" />
  <path
     stroke="none"
     fill="#000000"
     transform="matrix(0.05 0 0 0.05 -10 -11)"
     d="M 12582.8,7226.85 L 12604.9,7226.85 L 12604.9,7494.36 L 12582.8,7494.36 L 12582.8,7226.85 Z "
     id="path82" />
  <path
     stroke="none"
     fill="#000000"
     transform="matrix(0.05 0 0 0.05 -10 -11)"
     d="M 12660.9,7188.15 L 12638.7,7200.98 L 12389.9,7057.36 L 12389.9,7031.7 L 12660.9,7188.15 Z "
     id="path83" />
  <path
     stroke="none"
     fill="#000000"
     transform="matrix(0.05 0 0 0.05 -10 -11)"
     d="M 12389.9,7031.7 L 12389.9,7057.36 L 12136.1,7204.44 L 12125,7185.24 L 12389.9,7031.7 Z "
     id="path84" />
  <text
     x="0"
     y="0"
     stroke="none"
     fill="#000000"
     transform="matrix(0.05 0 0 0.05 605.995 329.517)"
     font-style="normal"
     font-weight="bold"
     font-size="180px"
     font-family="Helvetica"
     id="text84">
O</text>
  <path
     stroke="none"
     fill="#000000"
     transform="matrix(0.05 0 0 0.05 -10 -11)"
     d="M 12373.3,7061.08 L 12351.1,7061.08 L 12351.1,6845.05 L 12373.3,6845.05 L 12373.3,7061.08 Z "
     id="path85" />
  <path
     stroke="none"
     fill="#000000"
     transform="matrix(0.05 0 0 0.05 -10 -11)"
     d="M 12428.7,7061.08 L 12406.5,7061.08 L 12406.5,6845.05 L 12428.7,6845.05 L 12428.7,7061.08 Z "
     id="path86" />
  <text
     x="0"
     y="0"
     stroke="none"
     fill="#000000"
     transform="matrix(0.05 0 0 0.05 523.582 177.061)"
     font-style="normal"
     font-weight="bold"
     font-size="200px"
     font-family="Helvetica"
     id="text87">
Br</text>
  <text
     x="0"
     y="0"
     stroke="none"
     fill="#000000"
     transform="matrix(0.05 0 0 0.05 534.695 179.361)"
     font-style="normal"
     font-weight="bold"
     font-size="150px"
     font-family="Helvetica"
     id="text88">
2</text>
  <text
     x="0"
     y="0"
     stroke="none"
     fill="#000000"
     transform="matrix(0.05 0 0 0.05 538.866 177.061)"
     font-style="normal"
     font-weight="bold"
     font-size="200px"
     font-family="Helvetica"
     id="text89">
, </text>
  <text
     x="0"
     y="0"
     stroke="none"
     fill="#000000"
     transform="matrix(0.05 0 0 0.05 544.423 177.061)"
     font-style="normal"
     font-weight="bold"
     font-size="200px"
     font-family="Helvetica"
     id="text90">
cat. </text>
  <text
     x="0"
     y="0"
     stroke="none"
     fill="#000000"
     transform="matrix(0.05 0 0 0.05 564.433 177.061)"
     font-style="normal"
     font-weight="bold"
     font-size="200px"
     font-family="Helvetica"
     id="text91">
H</text>
  <text
     x="0"
     y="0"
     stroke="none"
     fill="#000000"
     transform="matrix(0.05 0 0 0.05 571.655 173.463)"
     font-style="normal"
     font-weight="bold"
     font-size="150px"
     font-family="Helvetica"
     id="text92">
+</text>
  <path
     stroke="none"
     fill="#000000"
     transform="matrix(0.05 0 0 0.05 -10 -11)"
     d="M 11810.8,4087.09 L 11810.8,3527.67 L 11832.8,3527.67 L 11832.8,4087.09 Z "
     id="path92" />
  <path
     stroke="none"
     fill="#000000"
     transform="matrix(0.05 0 0 0.05 -10 -11)"
     d="M 11821.8,4280.13 C 11821.8,4280.13 11764.4,4058.37 11764.4,4058.37 C 11764.4,4058.37 11796.7,4086.09 11821.8,4086.09 C 11846.5,4086.09 11878.3,4058.37 11878.3,4058.37 C 11878.3,4058.37 11821.8,4280.13 11821.8,4280.13 C 11821.8,4280.13 11821.8,4280.13 11821.8,4280.13 "
     id="path93" />
  <path
     stroke="#000000"
     stroke-width="1"
     fill="none"
     transform="matrix(0.05 0 0 0.05 -10 -11)"
     d="M 11821.8,4280.13 C 11821.8,4280.13 11764.4,4058.37 11764.4,4058.37 C 11764.4,4058.37 11796.7,4086.09 11821.8,4086.09 C 11846.5,4086.09 11878.3,4058.37 11878.3,4058.37 C 11878.3,4058.37 11821.8,4280.13 11821.8,4280.13 C 11821.8,4280.13 11821.8,4280.13 11821.8,4280.13 "
     id="path94" />
  <text
     x="0"
     y="0"
     stroke="none"
     fill="#000000"
     transform="matrix(0.05 0 0 0.05 586.638 184.95)"
     font-style="italic"
     font-weight="normal"
     font-size="160px"
     font-family="Helvetica Oblique"
     id="text94">
more sub</text>
  <text
     x="0"
     y="0"
     stroke="none"
     fill="#000000"
     transform="matrix(0.05 0 0 0.05 526.614 189.734)"
     font-style="normal"
     font-weight="bold"
     font-size="160px"
     font-family="Helvetica"
     id="text96">
or </text>
  <text
     x="0"
     y="0"
     stroke="none"
     fill="#000000"
     transform="matrix(0.05 0 0 0.05 536.837 189.734)"
     font-style="normal"
     font-weight="bold"
     font-size="160px"
     font-family="Helvetica"
     id="text97">
NaH; </text>
  <text
     x="0"
     y="0"
     stroke="none"
     fill="#000000"
     transform="matrix(0.05 0 0 0.05 557.727 189.734)"
     font-style="normal"
     font-weight="bold"
     font-size="160px"
     font-family="Helvetica"
     id="text98">
Br</text>
  <text
     x="0"
     y="0"
     stroke="none"
     fill="#000000"
     transform="matrix(0.05 0 0 0.05 566.618 191.574)"
     font-style="normal"
     font-weight="bold"
     font-size="120px"
     font-family="Helvetica"
     id="text99">
2</text>
  <path
     stroke="none"
     fill="#000000"
     transform="matrix(0.05 0 0 0.05 -10 -11)"
     d="M 11796.5,6024.73 L 11796.5,5272.27 L 11818.5,5272.27 L 11818.5,6024.73 Z "
     id="path99" />
  <text
     x="0"
     y="0"
     stroke="none"
     fill="#000000"
     transform="matrix(0.05 0 0 0.05 584.493 275.04)"
     font-style="normal"
     font-weight="normal"
     font-size="160px"
     font-family="Helvetica"
     id="text100">
E</text>
  <text
     x="0"
     y="0"
     stroke="none"
     fill="#000000"
     transform="matrix(0.05 0 0 0.05 589.829 275.04)"
     font-style="normal"
     font-weight="normal"
     font-size="160px"
     font-family="Helvetica"
     id="text101">
2</text>
  <text
     x="0"
     y="0"
     stroke="none"
     fill="#000000"
     transform="matrix(0.05 0 0 0.05 542.259 276.446)"
     font-style="normal"
     font-weight="bold"
     font-size="200px"
     font-family="Helvetica"
     id="text102">
KO</text>
  <text
     x="0"
     y="0"
     stroke="none"
     fill="#000000"
     transform="matrix(0.05 0 0 0.05 557.259 272.848)"
     font-style="normal"
     font-weight="bold"
     font-size="150px"
     font-family="Helvetica"
     id="text103">
t</text>
  <text
     x="0"
     y="0"
     stroke="none"
     fill="#000000"
     transform="matrix(0.05 0 0 0.05 559.757 276.446)"
     font-style="normal"
     font-weight="bold"
     font-size="200px"
     font-family="Helvetica"
     id="text104">
Bu</text>
  <path
     stroke="none"
     fill="#000000"
     transform="matrix(0.05 0 0 0.05 -10 -11)"
     d="M 13329.4,3590.3 L 13316.5,3568.09 L 13529.2,3568.8 L 13529.2,3590.98 L 13329.4,3590.3 Z "
     id="path104" />
  <text
     x="0"
     y="0"
     stroke="none"
     fill="#000000"
     transform="matrix(0.05 0 0 0.05 667.358 171.233)"
     font-style="normal"
     font-weight="bold"
     font-size="180px"
     font-family="Helvetica"
     id="text105">
MgBr</text>
  <path
     stroke="none"
     fill="#000000"
     transform="matrix(0.05 0 0 0.05 -10 -11)"
     d="M 13026.3,4087.09 L 13026.3,3527.67 L 13048.3,3527.67 L 13048.3,4087.09 Z "
     id="path108" />
  <path
     stroke="none"
     fill="#000000"
     transform="matrix(0.05 0 0 0.05 -10 -11)"
     d="M 13037.3,4280.13 C 13037.3,4280.13 12979.9,4058.37 12979.9,4058.37 C 12979.9,4058.37 13012.2,4086.09 13037.3,4086.09 C 13062,4086.09 13093.8,4058.37 13093.8,4058.37 C 13093.8,4058.37 13037.3,4280.13 13037.3,4280.13 C 13037.3,4280.13 13037.3,4280.13 13037.3,4280.13 "
     id="path109" />
  <path
     stroke="#000000"
     stroke-width="1"
     fill="none"
     transform="matrix(0.05 0 0 0.05 -10 -11)"
     d="M 13037.3,4280.13 C 13037.3,4280.13 12979.9,4058.37 12979.9,4058.37 C 12979.9,4058.37 13012.2,4086.09 13037.3,4086.09 C 13062,4086.09 13093.8,4058.37 13093.8,4058.37 C 13093.8,4058.37 13037.3,4280.13 13037.3,4280.13 C 13037.3,4280.13 13037.3,4280.13 13037.3,4280.13 "
     id="path110" />
  <path
     stroke="none"
     fill="#000000"
     transform="matrix(0.05 0 0 0.05 -10 -11)"
     d="M 13316.5,3568.09 L 13329.4,3590.3 L 13183.2,3844.37 L 13164,3833.28 L 13316.5,3568.09 Z "
     id="path111" />
  <path
     stroke="none"
     fill="#000000"
     transform="matrix(0.05 0 0 0.05 -10 -11)"
     d="M 13345.5,3629.78 L 13364.7,3640.87 L 13231.2,3872.09 L 13212,3861 L 13345.5,3629.78 Z "
     id="path112" />
  <text
     x="0"
     y="0"
     stroke="none"
     fill="#000000"
     transform="matrix(0.05 0 0 0.05 654.95 194.205)"
     font-style="normal"
     font-weight="bold"
     font-size="160px"
     font-family="Helvetica"
     id="text112">
then </text>
  <text
     x="0"
     y="0"
     stroke="none"
     fill="#000000"
     transform="matrix(0.05 0 0 0.05 674.059 194.205)"
     font-style="normal"
     font-weight="bold"
     font-size="160px"
     font-family="Helvetica"
     id="text113">
H</text>
  <text
     x="0"
     y="0"
     stroke="none"
     fill="#000000"
     transform="matrix(0.05 0 0 0.05 679.837 196.045)"
     font-style="normal"
     font-weight="bold"
     font-size="120px"
     font-family="Helvetica"
     id="text114">
3</text>
  <text
     x="0"
     y="0"
     stroke="none"
     fill="#000000"
     transform="matrix(0.05 0 0 0.05 683.174 194.205)"
     font-style="normal"
     font-weight="bold"
     font-size="160px"
     font-family="Helvetica"
     id="text115">
O</text>
  <text
     x="0"
     y="0"
     stroke="none"
     fill="#000000"
     transform="matrix(0.05 0 0 0.05 689.396 191.326)"
     font-style="normal"
     font-weight="bold"
     font-size="120px"
     font-family="Helvetica"
     id="text116">
+</text>
  <path
     stroke="none"
     fill="#000000"
     transform="matrix(0.05 0 0 0.05 -10 -11)"
     d="M 13030.6,6024.73 L 13030.6,5272.27 L 13052.6,5272.27 L 13052.6,6024.73 Z "
     id="path121" />
  <text
     x="0"
     y="0"
     stroke="none"
     fill="#000000"
     transform="matrix(0.05 0 0 0.05 649.362 272.871)"
     font-style="normal"
     font-weight="bold"
     font-size="200px"
     font-family="Helvetica"
     id="text121">
PCC</text>
  <text
     x="0"
     y="0"
     stroke="none"
     fill="#000000"
     transform="matrix(0.05 0 0 0.05 649.558 283.62)"
     font-style="normal"
     font-weight="bold"
     font-size="160px"
     font-family="Helvetica"
     id="text122">
or </text>
  <text
     x="0"
     y="0"
     stroke="none"
     fill="#000000"
     transform="matrix(0.05 0 0 0.05 659.78 283.62)"
     font-style="normal"
     font-weight="bold"
     font-size="160px"
     font-family="Helvetica"
     id="text123">
other </text>
  <text
     x="0"
     y="0"
     stroke="none"
     fill="#000000"
     transform="matrix(0.05 0 0 0.05 682.003 283.62)"
     font-style="normal"
     font-weight="bold"
     font-size="160px"
     font-family="Helvetica"
     id="text124">
[O]</text>
  <path
     stroke="none"
     fill="#000000"
     transform="matrix(0.05 0 0 0.05 -10 -11)"
     d="M 13041.6,6035.73 L 11807.5,6035.73 L 11807.5,6013.73 L 13041.6,6013.73 Z "
     id="path124" />
  <path
     stroke="none"
     fill="#000000"
     transform="matrix(0.05 0 0 0.05 -10 -11)"
     d="M 12415.7,6356.33 L 12415.7,6030.17 L 12437.7,6030.17 L 12437.7,6356.33 Z "
     id="path125" />
  <path
     stroke="none"
     fill="#000000"
     transform="matrix(0.05 0 0 0.05 -10 -11)"
     d="M 12426.7,6549.37 C 12426.7,6549.37 12369.3,6327.61 12369.3,6327.61 C 12369.3,6327.61 12401.6,6355.33 12426.7,6355.33 C 12451.4,6355.33 12483.1,6327.61 12483.1,6327.61 C 12483.1,6327.61 12426.7,6549.37 12426.7,6549.37 C 12426.7,6549.37 12426.7,6549.37 12426.7,6549.37 "
     id="path126" />
  <path
     stroke="#000000"
     stroke-width="1"
     fill="none"
     transform="matrix(0.05 0 0 0.05 -10 -11)"
     d="M 12426.7,6549.37 C 12426.7,6549.37 12369.3,6327.61 12369.3,6327.61 C 12369.3,6327.61 12401.6,6355.33 12426.7,6355.33 C 12451.4,6355.33 12483.1,6327.61 12483.1,6327.61 C 12483.1,6327.61 12426.7,6549.37 12426.7,6549.37 C 12426.7,6549.37 12426.7,6549.37 12426.7,6549.37 "
     id="path127" />
  <path
     stroke="none"
     fill="#ff0000"
     transform="matrix(0.05 0 0 0.05 -10 -11)"
     d="M 14939.6,7223.44 L 14961.8,7223.44 L 14961.8,7538.96 L 14939.6,7538.96 L 14939.6,7223.44 Z "
     id="path139" />
  <path
     stroke="none"
     fill="#ff0000"
     transform="matrix(0.05 0 0 0.05 -10 -11)"
     d="M 14884.2,7207.43 L 14906.4,7207.43 L 14906.4,7522.96 L 14884.2,7522.96 L 14884.2,7207.43 Z "
     id="path140" />
  <path
     stroke="none"
     fill="#000000"
     transform="matrix(0.05 0 0 0.05 -10 -11)"
     d="M 14928.5,7213.84 L 14917.5,7233.04 L 14663.6,7085.96 L 14663.6,7060.3 L 14928.5,7213.84 Z "
     id="path141" />
  <path
     stroke="none"
     fill="#000000"
     transform="matrix(0.05 0 0 0.05 -10 -11)"
     d="M 14663.6,7060.3 L 14663.6,7085.96 L 14409.8,7233.04 L 14398.7,7213.84 L 14663.6,7060.3 Z "
     id="path142" />
  <text
     x="0"
     y="0"
     stroke="none"
     fill="#000000"
     transform="matrix(0.05 0 0 0.05 719.68 330.947)"
     font-style="normal"
     font-weight="bold"
     font-size="180px"
     font-family="Helvetica"
     id="text142">
O</text>
  <path
     stroke="none"
     fill="#000000"
     transform="matrix(0.05 0 0 0.05 -10 -11)"
     d="M 14647,7089.68 L 14624.8,7089.68 L 14624.8,6873.65 L 14647,6873.65 L 14647,7089.68 Z "
     id="path143" />
  <path
     stroke="none"
     fill="#000000"
     transform="matrix(0.05 0 0 0.05 -10 -11)"
     d="M 14702.4,7089.68 L 14680.2,7089.68 L 14680.2,6873.65 L 14702.4,6873.65 L 14702.4,7089.68 Z "
     id="path144" />
  <path
     stroke="none"
     fill="#000000"
     transform="matrix(0.05 0 0 0.05 -10 -11)"
     d="M 14917.5,7532.56 L 14928.5,7513.36 L 15187.9,7663.12 L 15176.8,7682.32 L 14917.5,7532.56 Z "
     id="path145" />
  <path
     stroke="none"
     fill="#000000"
     transform="matrix(0.05 0 0 0.05 -10 -11)"
     d="M 14861,6384.93 L 14861,5505.5 L 14883,5505.5 L 14883,6384.93 Z "
     id="path146" />
  <path
     stroke="none"
     fill="#000000"
     transform="matrix(0.05 0 0 0.05 -10 -11)"
     d="M 14872,6577.97 C 14872,6577.97 14814.6,6356.21 14814.6,6356.21 C 14814.6,6356.21 14846.9,6383.93 14872,6383.93 C 14896.7,6383.93 14928.4,6356.21 14928.4,6356.21 C 14928.4,6356.21 14872,6577.97 14872,6577.97 C 14872,6577.97 14872,6577.97 14872,6577.97 "
     id="path147" />
  <path
     stroke="#000000"
     stroke-width="1"
     fill="none"
     transform="matrix(0.05 0 0 0.05 -10 -11)"
     d="M 14872,6577.97 C 14872,6577.97 14814.6,6356.21 14814.6,6356.21 C 14814.6,6356.21 14846.9,6383.93 14872,6383.93 C 14896.7,6383.93 14928.4,6356.21 14928.4,6356.21 C 14928.4,6356.21 14872,6577.97 14872,6577.97 C 14872,6577.97 14872,6577.97 14872,6577.97 "
     id="path148" />
  <path
     stroke="none"
     fill="#000000"
     transform="matrix(0.05 0 0 0.05 -10 -11)"
     d="M 15324.9,6030.54 L 15324.8,6056.21 L 15164.9,6149.38 L 15153.8,6130.17 L 15324.9,6030.54 Z "
     id="path149" />
  <text
     x="0"
     y="0"
     stroke="none"
     fill="#000000"
     transform="matrix(0.05 0 0 0.05 740.037 301.931)"
     font-style="normal"
     font-weight="bold"
     font-size="180px"
     font-family="Helvetica"
     id="text149">
H</text>
  <path
     stroke="none"
     fill="#000000"
     transform="matrix(0.05 0 0 0.05 -10 -11)"
     d="M 15308.5,6060.08 L 15286.3,6060.08 L 15286.3,5844.05 L 15308.5,5844.05 L 15308.5,6060.08 Z "
     id="path150" />
  <path
     stroke="none"
     fill="#000000"
     transform="matrix(0.05 0 0 0.05 -10 -11)"
     d="M 15363.9,6060.08 L 15341.8,6060.08 L 15341.8,5844.05 L 15363.9,5844.05 L 15363.9,6060.08 Z "
     id="path151" />
  <text
     x="0"
     y="0"
     stroke="none"
     fill="#000000"
     transform="matrix(0.05 0 0 0.05 752.756 279.467)"
     font-style="normal"
     font-weight="bold"
     font-size="180px"
     font-family="Helvetica"
     id="text151">
O</text>
  <path
     stroke="none"
     fill="#000000"
     transform="matrix(0.05 0 0 0.05 -10 -11)"
     d="M 15324.8,6056.21 L 15324.9,6030.54 L 15590.1,6184.24 L 15579,6203.44 L 15324.8,6056.21 Z "
     id="path152" />
  <path
     stroke="none"
     fill="#000000"
     transform="matrix(0.05 0 0 0.05 -10 -11)"
     d="M 14875.3,4411.53 L 14875.3,3532.1 L 14897.3,3532.1 L 14897.3,4411.53 Z "
     id="path153" />
  <path
     stroke="none"
     fill="#000000"
     transform="matrix(0.05 0 0 0.05 -10 -11)"
     d="M 14886.3,4604.57 C 14886.3,4604.57 14828.9,4382.81 14828.9,4382.81 C 14828.9,4382.81 14861.2,4410.53 14886.3,4410.53 C 14911,4410.53 14942.7,4382.81 14942.7,4382.81 C 14942.7,4382.81 14886.3,4604.57 14886.3,4604.57 C 14886.3,4604.57 14886.3,4604.57 14886.3,4604.57 "
     id="path154" />
  <path
     stroke="#000000"
     stroke-width="1"
     fill="none"
     transform="matrix(0.05 0 0 0.05 -10 -11)"
     d="M 14886.3,4604.57 C 14886.3,4604.57 14828.9,4382.81 14828.9,4382.81 C 14828.9,4382.81 14861.2,4410.53 14886.3,4410.53 C 14911,4410.53 14942.7,4382.81 14942.7,4382.81 C 14942.7,4382.81 14886.3,4604.57 14886.3,4604.57 C 14886.3,4604.57 14886.3,4604.57 14886.3,4604.57 "
     id="path155" />
  <text
     x="0"
     y="0"
     stroke="none"
     fill="#000000"
     transform="matrix(0.05 0 0 0.05 738.969 192.594)"
     font-style="normal"
     font-weight="bold"
     font-size="200px"
     font-family="Helvetica"
     id="text155">
LDA</text>
  <path
     stroke="#000000"
     stroke-width="22"
     fill="none"
     transform="matrix(0.05 0 0 0.05 -10 -11)"
     d="M 14529.5,7777.94 L 14529.5,7922.89 "
     id="path156" />
  <path
     stroke="#000000"
     stroke-width="22"
     fill="none"
     transform="matrix(0.05 0 0 0.05 -10 -11)"
     d="M 14529.5,7922.89 L 12527.5,7922.89 "
     id="path157" />
  <path
     stroke="#000000"
     stroke-width="22"
     fill="none"
     transform="matrix(0.05 0 0 0.05 -10 -11)"
     d="M 12527.5,7922.89 L 12527.5,7777.94 "
     id="path158" />
  <text
     x="0"
     y="0"
     stroke="none"
     fill="#000000"
     transform="matrix(0.05 0 0 0.05 764.027 179.23)"
     font-style="italic"
     font-weight="normal"
     font-size="160px"
     font-family="Helvetica Oblique"
     id="text158">
other bases</text>
  <text
     x="0"
     y="0"
     stroke="none"
     fill="#000000"
     transform="matrix(0.05 0 0 0.05 764.027 187.697)"
     font-style="italic"
     font-weight="normal"
     font-size="160px"
     font-family="Helvetica Oblique"
     id="text160">
work for</text>
  <text
     x="0"
     y="0"
     stroke="none"
     fill="#000000"
     transform="matrix(0.05 0 0 0.05 764.027 196.164)"
     font-style="italic"
     font-weight="normal"
     font-size="160px"
     font-family="Helvetica Oblique"
     id="text162">
symmetric</text>
  <text
     x="0"
     y="0"
     stroke="none"
     fill="#000000"
     transform="matrix(0.05 0 0 0.05 764.027 204.63)"
     font-style="italic"
     font-weight="normal"
     font-size="160px"
     font-family="Helvetica Oblique"
     id="text163">
products</text>
  <path
     stroke="none"
     fill="#000000"
     transform="matrix(0.05 0 0 0.05 -10 -11)"
     d="M 9040.9,6342.03 L 9040.9,5462.6 L 9062.9,5462.6 L 9062.9,6342.03 Z "
     id="path173" />
  <path
     stroke="none"
     fill="#000000"
     transform="matrix(0.05 0 0 0.05 -10 -11)"
     d="M 9051.9,6535.07 C 9051.9,6535.07 8994.46,6313.31 8994.46,6313.31 C 8994.46,6313.31 9026.77,6341.03 9051.9,6341.03 C 9076.59,6341.03 9108.34,6313.31 9108.34,6313.31 C 9108.34,6313.31 9051.9,6535.07 9051.9,6535.07 C 9051.9,6535.07 9051.9,6535.07 9051.9,6535.07 "
     id="path174" />
  <path
     stroke="#000000"
     stroke-width="1"
     fill="none"
     transform="matrix(0.05 0 0 0.05 -10 -11)"
     d="M 9051.9,6535.07 C 9051.9,6535.07 8994.46,6313.31 8994.46,6313.31 C 8994.46,6313.31 9026.77,6341.03 9051.9,6341.03 C 9076.59,6341.03 9108.34,6313.31 9108.34,6313.31 C 9108.34,6313.31 9051.9,6535.07 9051.9,6535.07 C 9051.9,6535.07 9051.9,6535.07 9051.9,6535.07 "
     id="path175" />
  <path
     stroke="none"
     fill="#000000"
     transform="matrix(0.05 0 0 0.05 -10 -11)"
     d="M 9055.2,4368.63 L 9055.2,3489.2 L 9077.2,3489.2 L 9077.2,4368.63 Z "
     id="path176" />
  <path
     stroke="none"
     fill="#000000"
     transform="matrix(0.05 0 0 0.05 -10 -11)"
     d="M 9066.2,4561.67 C 9066.2,4561.67 9008.76,4339.91 9008.76,4339.91 C 9008.76,4339.91 9041.07,4367.63 9066.2,4367.63 C 9090.89,4367.63 9122.64,4339.91 9122.64,4339.91 C 9122.64,4339.91 9066.2,4561.67 9066.2,4561.67 C 9066.2,4561.67 9066.2,4561.67 9066.2,4561.67 "
     id="path177" />
  <path
     stroke="#000000"
     stroke-width="1"
     fill="none"
     transform="matrix(0.05 0 0 0.05 -10 -11)"
     d="M 9066.2,4561.67 C 9066.2,4561.67 9008.76,4339.91 9008.76,4339.91 C 9008.76,4339.91 9041.07,4367.63 9066.2,4367.63 C 9090.89,4367.63 9122.64,4339.91 9122.64,4339.91 C 9122.64,4339.91 9066.2,4561.67 9066.2,4561.67 C 9066.2,4561.67 9066.2,4561.67 9066.2,4561.67 "
     id="path178" />
  <text
     x="0"
     y="0"
     stroke="none"
     fill="#000000"
     transform="matrix(0.05 0 0 0.05 447.964 190.449)"
     font-style="normal"
     font-weight="bold"
     font-size="200px"
     font-family="Helvetica"
     id="text178">
LDA</text>
  <path
     stroke="none"
     fill="#000000"
     transform="matrix(0.05 0 0 0.05 -10 -11)"
     d="M 9479.79,6123.74 L 9468.7,6104.54 L 9649.48,5999.3 L 9649.48,6025.01 L 9479.79,6123.74 Z "
     id="path179" />
  <text
     x="0"
     y="0"
     stroke="none"
     fill="#107f01"
     transform="matrix(0.05 0 0 0.05 447.004 300.375)"
     font-style="normal"
     font-weight="bold"
     font-size="180px"
     font-family="Helvetica"
     id="text179">
EtO</text>
  <text
     x="0"
     y="0"
     stroke="none"
     fill="#000000"
     transform="matrix(0.05 0 0 0.05 481.943 300.375)"
     font-style="normal"
     font-weight="bold"
     font-size="180px"
     font-family="Helvetica"
     id="text180">
OEt</text>
  <path
     stroke="none"
     fill="#000000"
     transform="matrix(0.05 0 0 0.05 -10 -11)"
     d="M 9649.48,6025.01 L 9649.48,5999.3 L 9831.28,6105.13 L 9820.2,6124.33 L 9649.48,6025.01 Z "
     id="path180" />
  <text
     x="0"
     y="0"
     stroke="none"
     fill="#000000"
     transform="matrix(0.05 0 0 0.05 468.974 277.911)"
     font-style="normal"
     font-weight="bold"
     font-size="180px"
     font-family="Helvetica"
     id="text181">
O</text>
  <path
     stroke="none"
     fill="#000000"
     transform="matrix(0.05 0 0 0.05 -10 -11)"
     d="M 9632.85,6028.97 L 9610.67,6028.97 L 9610.67,5812.93 L 9632.85,5812.93 L 9632.85,6028.97 Z "
     id="path181" />
  <path
     stroke="none"
     fill="#000000"
     transform="matrix(0.05 0 0 0.05 -10 -11)"
     d="M 9688.29,6028.97 L 9666.11,6028.97 L 9666.11,5812.93 L 9688.29,5812.93 L 9688.29,6028.97 Z "
     id="path182" />
  <text
     x="0"
     y="0"
     stroke="none"
     fill="#000000"
     transform="matrix(0.05 0 0 0.05 362.677 190.885)"
     font-style="normal"
     font-weight="bold"
     font-size="200px"
     font-family="Helvetica"
     id="text186">
base</text>
  <path
     stroke="none"
     fill="#000000"
     transform="matrix(0.05 0 0 0.05 -10 -11)"
     d="M 7317.63,6392.97 L 7317.63,5591.3 L 7339.63,5591.3 L 7339.63,6392.97 Z "
     id="path193" />
  <path
     stroke="none"
     fill="#000000"
     transform="matrix(0.05 0 0 0.05 -10 -11)"
     d="M 7328.63,6586 C 7328.63,6586 7271.19,6364.25 7271.19,6364.25 C 7271.19,6364.25 7303.5,6391.97 7328.63,6391.97 C 7353.32,6391.97 7385.07,6364.25 7385.07,6364.25 C 7385.07,6364.25 7328.63,6586 7328.63,6586 C 7328.63,6586 7328.63,6586 7328.63,6586 "
     id="path194" />
  <path
     stroke="#000000"
     stroke-width="1"
     fill="none"
     transform="matrix(0.05 0 0 0.05 -10 -11)"
     d="M 7328.63,6586 C 7328.63,6586 7271.19,6364.25 7271.19,6364.25 C 7271.19,6364.25 7303.5,6391.97 7328.63,6391.97 C 7353.32,6391.97 7385.07,6364.25 7385.07,6364.25 C 7385.07,6364.25 7328.63,6586 7328.63,6586 C 7328.63,6586 7328.63,6586 7328.63,6586 "
     id="path195" />
  <path
     stroke="none"
     fill="#000000"
     transform="matrix(0.05 0 0 0.05 -10 -11)"
     d="M 6506.03,6166.88 L 6494.94,6147.68 L 6760.08,5994.01 L 6760.13,6019.68 L 6506.03,6166.88 Z "
     id="path196" />
  <text
     x="0"
     y="0"
     stroke="none"
     fill="#000000"
     transform="matrix(0.05 0 0 0.05 324.494 277.639)"
     font-style="normal"
     font-weight="bold"
     font-size="180px"
     font-family="Helvetica"
     id="text197">
O</text>
  <path
     stroke="none"
     fill="#000000"
     transform="matrix(0.05 0 0 0.05 -10 -11)"
     d="M 6743.25,6023.52 L 6721.07,6023.52 L 6721.07,5808.49 L 6743.25,5808.49 L 6743.25,6023.52 Z "
     id="path197" />
  <path
     stroke="none"
     fill="#000000"
     transform="matrix(0.05 0 0 0.05 -10 -11)"
     d="M 6798.69,6023.52 L 6776.51,6023.52 L 6776.51,5808.49 L 6798.69,5808.49 L 6798.69,6023.52 Z "
     id="path198" />
  <text
     x="0"
     y="0"
     stroke="none"
     fill="#107f01"
     transform="matrix(0.05 0 0 0.05 337.463 300.103)"
     font-style="normal"
     font-weight="bold"
     font-size="180px"
     font-family="Helvetica"
     id="text198">
OR</text>
  <path
     stroke="none"
     fill="#000000"
     transform="matrix(0.05 0 0 0.05 -10 -11)"
     d="M 6760.13,6019.68 L 6760.08,5994.01 L 6941.68,6099.68 L 6930.59,6118.89 L 6760.13,6019.68 Z "
     id="path199" />
  <path
     stroke="none"
     fill="#000000"
     transform="matrix(0.05 0 0 0.05 -10 -11)"
     d="M 7548.7,7286.05 L 7548.7,7260.4 L 7808.29,7109.41 L 7808.34,7135.08 L 7548.7,7286.05 Z "
     id="path200" />
  <text
     x="0"
     y="0"
     stroke="none"
     fill="#000000"
     transform="matrix(0.05 0 0 0.05 376.904 333.409)"
     font-style="normal"
     font-weight="bold"
     font-size="180px"
     font-family="Helvetica"
     id="text200">
O</text>
  <path
     stroke="none"
     fill="#000000"
     transform="matrix(0.05 0 0 0.05 -10 -11)"
     d="M 7791.45,7138.92 L 7769.28,7138.92 L 7769.28,6923.89 L 7791.45,6923.89 L 7791.45,7138.92 Z "
     id="path201" />
  <path
     stroke="none"
     fill="#000000"
     transform="matrix(0.05 0 0 0.05 -10 -11)"
     d="M 7846.89,7138.92 L 7824.72,7138.92 L 7824.72,6923.89 L 7846.89,6923.89 L 7846.89,7138.92 Z "
     id="path202" />
  <text
     x="0"
     y="0"
     stroke="none"
     fill="#000000"
     transform="matrix(0.05 0 0 0.05 389.874 355.873)"
     font-style="normal"
     font-weight="bold"
     font-size="180px"
     font-family="Helvetica"
     id="text202">
OR</text>
  <path
     stroke="none"
     fill="#000000"
     transform="matrix(0.05 0 0 0.05 -10 -11)"
     d="M 7808.34,7135.08 L 7808.29,7109.41 L 7989.89,7215.08 L 7978.8,7234.29 L 7808.34,7135.08 Z "
     id="path203" />
  <path
     stroke="none"
     fill="#ff0000"
     transform="matrix(0.05 0 0 0.05 -10 -11)"
     d="M 7548.7,7260.4 L 7548.7,7286.05 L 7289.3,7135.2 L 7289.3,7109.54 L 7548.7,7260.4 Z "
     id="path204" />
  <path
     stroke="none"
     fill="#0000ff"
     transform="matrix(0.05 0 0 0.05 -10 -11)"
     d="M 7289.3,7109.54 L 7289.3,7135.2 L 7035.46,7282.28 L 7024.37,7263.08 L 7289.3,7109.54 Z "
     id="path205" />
  <text
     x="0"
     y="0"
     stroke="none"
     fill="#0000ff"
     transform="matrix(0.05 0 0 0.05 350.965 333.409)"
     font-style="normal"
     font-weight="bold"
     font-size="180px"
     font-family="Helvetica"
     id="text205">
O</text>
  <path
     stroke="none"
     fill="#0000ff"
     transform="matrix(0.05 0 0 0.05 -10 -11)"
     d="M 7272.67,7138.92 L 7250.5,7138.92 L 7250.49,6922.89 L 7272.67,6922.89 L 7272.67,7138.92 Z "
     id="path206" />
  <path
     stroke="none"
     fill="#0000ff"
     transform="matrix(0.05 0 0 0.05 -10 -11)"
     d="M 7328.11,7138.92 L 7305.93,7138.92 L 7305.93,6922.89 L 7328.11,6922.89 L 7328.11,7138.92 Z "
     id="path207" />
  <text
     x="0"
     y="0"
     stroke="none"
     fill="#000000"
     transform="matrix(0.05 0 0 0.05 311.29 313.099)"
     font-style="normal"
     font-weight="bold"
     font-size="160px"
     font-family="Helvetica"
     id="text207">
then </text>
  <text
     x="0"
     y="0"
     stroke="none"
     fill="#000000"
     transform="matrix(0.05 0 0 0.05 330.399 313.099)"
     font-style="normal"
     font-weight="bold"
     font-size="160px"
     font-family="Helvetica"
     id="text208">
H</text>
  <text
     x="0"
     y="0"
     stroke="none"
     fill="#000000"
     transform="matrix(0.05 0 0 0.05 336.176 314.939)"
     font-style="normal"
     font-weight="bold"
     font-size="120px"
     font-family="Helvetica"
     id="text209">
3</text>
  <text
     x="0"
     y="0"
     stroke="none"
     fill="#000000"
     transform="matrix(0.05 0 0 0.05 339.513 313.099)"
     font-style="normal"
     font-weight="bold"
     font-size="160px"
     font-family="Helvetica"
     id="text210">
O</text>
  <text
     x="0"
     y="0"
     stroke="none"
     fill="#000000"
     transform="matrix(0.05 0 0 0.05 345.736 310.221)"
     font-style="normal"
     font-weight="bold"
     font-size="120px"
     font-family="Helvetica"
     id="text211">
+</text>
  <text
     x="0"
     y="0"
     stroke="none"
     fill="#000000"
     transform="matrix(0.05 0 0 0.05 362.515 201.355)"
     font-style="normal"
     font-weight="normal"
     font-size="140px"
     font-family="Helvetica"
     id="text212">
(NaOR)</text>
  <path
     stroke="none"
     fill="#000000"
     transform="matrix(0.05 0 0 0.05 -10 -11)"
     d="M 7353.5,4382.93 L 7353.5,3503.5 L 7375.5,3503.5 L 7375.5,4382.93 Z "
     id="path216" />
  <path
     stroke="none"
     fill="#000000"
     transform="matrix(0.05 0 0 0.05 -10 -11)"
     d="M 7364.5,4575.96 C 7364.5,4575.96 7307.06,4354.21 7307.06,4354.21 C 7307.06,4354.21 7339.37,4381.93 7364.5,4381.93 C 7389.19,4381.93 7420.94,4354.21 7420.94,4354.21 C 7420.94,4354.21 7364.5,4575.96 7364.5,4575.96 C 7364.5,4575.96 7364.5,4575.96 7364.5,4575.96 "
     id="path217" />
  <path
     stroke="#000000"
     stroke-width="1"
     fill="none"
     transform="matrix(0.05 0 0 0.05 -10 -11)"
     d="M 7364.5,4575.96 C 7364.5,4575.96 7307.06,4354.21 7307.06,4354.21 C 7307.06,4354.21 7339.37,4381.93 7364.5,4381.93 C 7389.19,4381.93 7420.94,4354.21 7420.94,4354.21 C 7420.94,4354.21 7364.5,4575.96 7364.5,4575.96 C 7364.5,4575.96 7364.5,4575.96 7364.5,4575.96 "
     id="path218" />
  <path
     stroke="#000000"
     stroke-width="22"
     fill="none"
     transform="matrix(0.05 0 0 0.05 -10 -11)"
     d="M 9602.57,7821.49 L 9602.57,7993.73 "
     id="path219" />
  <path
     stroke="#000000"
     stroke-width="22"
     fill="none"
     transform="matrix(0.05 0 0 0.05 -10 -11)"
     d="M 9602.57,7993.73 L 7222.19,7993.73 "
     id="path220" />
  <path
     stroke="#000000"
     stroke-width="22"
     fill="none"
     transform="matrix(0.05 0 0 0.05 -10 -11)"
     d="M 7222.19,7993.73 L 7222.19,7821.49 "
     id="path221" />
  <path
     stroke="none"
     fill="#000000"
     transform="matrix(0.05 0 0 0.05 -10 -11)"
     d="M 4822.4,4397.23 L 4822.4,3517.8 L 4844.4,3517.8 L 4844.4,4397.23 Z "
     id="path232" />
  <path
     stroke="none"
     fill="#000000"
     transform="matrix(0.05 0 0 0.05 -10 -11)"
     d="M 4833.4,4590.26 C 4833.4,4590.26 4775.96,4368.51 4775.96,4368.51 C 4775.96,4368.51 4808.27,4396.23 4833.4,4396.23 C 4858.09,4396.23 4889.84,4368.51 4889.84,4368.51 C 4889.84,4368.51 4833.4,4590.26 4833.4,4590.26 C 4833.4,4590.26 4833.4,4590.26 4833.4,4590.26 "
     id="path233" />
  <path
     stroke="#000000"
     stroke-width="1"
     fill="none"
     transform="matrix(0.05 0 0 0.05 -10 -11)"
     d="M 4833.4,4590.26 C 4833.4,4590.26 4775.96,4368.51 4775.96,4368.51 C 4775.96,4368.51 4808.27,4396.23 4833.4,4396.23 C 4858.09,4396.23 4889.84,4368.51 4889.84,4368.51 C 4889.84,4368.51 4833.4,4590.26 4833.4,4590.26 C 4833.4,4590.26 4833.4,4590.26 4833.4,4590.26 "
     id="path234" />
  <text
     x="0"
     y="0"
     stroke="none"
     fill="#000000"
     transform="matrix(0.05 0 0 0.05 237.039 192.594)"
     font-style="normal"
     font-weight="bold"
     font-size="200px"
     font-family="Helvetica"
     id="text234">
LDA</text>
  <path
     stroke="none"
     fill="#000000"
     transform="matrix(0.05 0 0 0.05 -10 -11)"
     d="M 4822.4,6342.03 L 4822.4,5462.6 L 4844.4,5462.6 L 4844.4,6342.03 Z "
     id="path235" />
  <path
     stroke="none"
     fill="#000000"
     transform="matrix(0.05 0 0 0.05 -10 -11)"
     d="M 4833.4,6535.07 C 4833.4,6535.07 4775.96,6313.31 4775.96,6313.31 C 4775.96,6313.31 4808.27,6341.03 4833.4,6341.03 C 4858.09,6341.03 4889.84,6313.31 4889.84,6313.31 C 4889.84,6313.31 4833.4,6535.07 4833.4,6535.07 C 4833.4,6535.07 4833.4,6535.07 4833.4,6535.07 "
     id="path236" />
  <path
     stroke="#000000"
     stroke-width="1"
     fill="none"
     transform="matrix(0.05 0 0 0.05 -10 -11)"
     d="M 4833.4,6535.07 C 4833.4,6535.07 4775.96,6313.31 4775.96,6313.31 C 4775.96,6313.31 4808.27,6341.03 4833.4,6341.03 C 4858.09,6341.03 4889.84,6313.31 4889.84,6313.31 C 4889.84,6313.31 4833.4,6535.07 4833.4,6535.07 C 4833.4,6535.07 4833.4,6535.07 4833.4,6535.07 "
     id="path237" />
  <path
     stroke="none"
     fill="#000000"
     transform="matrix(0.05 0 0 0.05 -10 -11)"
     d="M 4184.55,5971.77 L 4162.37,5971.77 L 4162.37,5755.73 L 4184.55,5755.73 L 4184.55,5971.77 Z "
     id="path238" />
  <path
     stroke="none"
     fill="#000000"
     transform="matrix(0.05 0 0 0.05 -10 -11)"
     d="M 4239.99,5971.77 L 4217.81,5971.77 L 4217.81,5755.73 L 4239.99,5755.73 L 4239.99,5971.77 Z "
     id="path239" />
  <text
     x="0"
     y="0"
     stroke="none"
     fill="#000000"
     transform="matrix(0.05 0 0 0.05 196.559 275.051)"
     font-style="normal"
     font-weight="bold"
     font-size="180px"
     font-family="Helvetica"
     id="text239">
O</text>
  <path
     stroke="none"
     fill="#000000"
     transform="matrix(0.05 0 0 0.05 -10 -11)"
     d="M 4201.18,5942.1 L 4201.18,5967.81 L 4030.74,6066.97 L 4019.65,6047.77 L 4201.18,5942.1 Z "
     id="path240" />
  <text
     x="0"
     y="0"
     stroke="none"
     fill="#000000"
     transform="matrix(0.05 0 0 0.05 174.589 297.515)"
     font-style="normal"
     font-weight="bold"
     font-size="180px"
     font-family="Helvetica"
     id="text240">
EtO</text>
  <text
     x="0"
     y="0"
     stroke="none"
     fill="#107f01"
     transform="matrix(0.05 0 0 0.05 209.528 297.515)"
     font-style="normal"
     font-weight="bold"
     font-size="180px"
     font-family="Helvetica"
     id="text241">
OEt</text>
  <path
     stroke="none"
     fill="#000000"
     transform="matrix(0.05 0 0 0.05 -10 -11)"
     d="M 4382.98,6047.93 L 4371.9,6067.13 L 4201.18,5967.81 L 4201.18,5942.1 L 4382.98,6047.93 Z "
     id="path241" />
  <text
     x="0"
     y="0"
     stroke="none"
     fill="#000000"
     transform="matrix(0.05 0 0 0.05 452.145 313.814)"
     font-style="normal"
     font-weight="bold"
     font-size="160px"
     font-family="Helvetica"
     id="text242">
then </text>
  <text
     x="0"
     y="0"
     stroke="none"
     fill="#000000"
     transform="matrix(0.05 0 0 0.05 471.254 313.814)"
     font-style="normal"
     font-weight="bold"
     font-size="160px"
     font-family="Helvetica"
     id="text243">
H</text>
  <text
     x="0"
     y="0"
     stroke="none"
     fill="#000000"
     transform="matrix(0.05 0 0 0.05 477.031 315.654)"
     font-style="normal"
     font-weight="bold"
     font-size="120px"
     font-family="Helvetica"
     id="text244">
3</text>
  <text
     x="0"
     y="0"
     stroke="none"
     fill="#000000"
     transform="matrix(0.05 0 0 0.05 480.368 313.814)"
     font-style="normal"
     font-weight="bold"
     font-size="160px"
     font-family="Helvetica"
     id="text245">
O</text>
  <text
     x="0"
     y="0"
     stroke="none"
     fill="#000000"
     transform="matrix(0.05 0 0 0.05 486.591 310.936)"
     font-style="normal"
     font-weight="bold"
     font-size="120px"
     font-family="Helvetica"
     id="text246">
+</text>
  <text
     x="0"
     y="0"
     stroke="none"
     fill="#000000"
     transform="matrix(0.05 0 0 0.05 186.165 311.669)"
     font-style="normal"
     font-weight="bold"
     font-size="160px"
     font-family="Helvetica"
     id="text247">
then </text>
  <text
     x="0"
     y="0"
     stroke="none"
     fill="#000000"
     transform="matrix(0.05 0 0 0.05 205.274 311.669)"
     font-style="normal"
     font-weight="bold"
     font-size="160px"
     font-family="Helvetica"
     id="text248">
H</text>
  <text
     x="0"
     y="0"
     stroke="none"
     fill="#000000"
     transform="matrix(0.05 0 0 0.05 211.051 313.509)"
     font-style="normal"
     font-weight="bold"
     font-size="120px"
     font-family="Helvetica"
     id="text249">
3</text>
  <text
     x="0"
     y="0"
     stroke="none"
     fill="#000000"
     transform="matrix(0.05 0 0 0.05 214.388 311.669)"
     font-style="normal"
     font-weight="bold"
     font-size="160px"
     font-family="Helvetica"
     id="text250">
O</text>
  <text
     x="0"
     y="0"
     stroke="none"
     fill="#000000"
     transform="matrix(0.05 0 0 0.05 220.611 308.791)"
     font-style="normal"
     font-weight="bold"
     font-size="120px"
     font-family="Helvetica"
     id="text251">
+</text>
  <path
     stroke="#000000"
     stroke-width="22"
     fill="none"
     transform="matrix(0.05 0 0 0.05 -10 -11)"
     stroke-dasharray="53"
     d="M 3202.2,8118.04 C 3202.2,8118.04 3202.2,2434.36 3202.2,2434.36 C 3202.2,2360.91 3261.81,2301.3 3335.26,2301.3 C 3335.26,2301.3 5815.74,2301.3 5815.74,2301.3 C 5889.19,2301.3 5948.8,2360.91 5948.8,2434.36 C 5948.8,2434.36 5948.8,8118.04 5948.8,8118.04 C 5948.8,8191.49 5889.19,8251.1 5815.74,8251.1 C 5815.74,8251.1 3335.26,8251.1 3335.26,8251.1 C 3261.81,8251.1 3202.2,8191.49 3202.2,8118.04 "
     id="path251" />
  <text
     x="156.992"
     y="117.025"
     stroke="none"
     fill="#000000"
     font-style="italic"
     font-weight="normal"
     font-size="10px"
     font-family="'Helvetica Oblique'"
     id="text252"
     style="stroke-width:0.05">rare</text>
  <path
     stroke="none"
     fill="#ffffff"
     opacity="0"
     onclick="window.location.href = 'toesters.svg'"
     transform="matrix(0.05 0 0 0.05 -10 -11)"
     d="M 7907.9,3346.2 C 7907.9,3346.2 7907.9,2558.7 7907.9,2558.7 C 7907.9,2558.7 7077.5,2558.7 7077.5,2558.7 C 7077.5,2558.7 7077.5,3346.2 7077.5,3346.2 C 7077.5,3346.2 7907.9,3346.2 7907.9,3346.2 "
     id="path7"
     inkscape:label="l-toesters" />
  <path
     stroke="none"
     fill="#ffffff"
     opacity="0"
     onclick="window.location.href = 'toesters.svg'"
     transform="matrix(0.05 0 0 0.05 -10 -11)"
     d="M 7893.6,5476.9 C 7893.6,5476.9 7893.6,4789.5 7893.6,4789.5 C 7893.6,4789.5 6834.4,4789.5 6834.4,4789.5 C 6834.4,4789.5 6834.4,5476.9 6834.4,5476.9 C 6834.4,5476.9 7893.6,5476.9 7893.6,5476.9 "
     id="path9"
     inkscape:label="l-toesters" />
  <path
     stroke="none"
     fill="#ffffff"
     opacity="0"
     onclick="window.location.href = 'tohalides.svg'"
     transform="matrix(0.05 0 0 0.05 -10 -11)"
     d="M 12483.9,5305.3 C 12483.9,5305.3 12483.9,4417.7 12483.9,4417.7 C 12483.9,4417.7 11324.6,4417.7 11324.6,4417.7 C 11324.6,4417.7 11324.6,5305.3 11324.6,5305.3 C 11324.6,5305.3 12483.9,5305.3 12483.9,5305.3 "
     id="path25"
     inkscape:label="l-tohalides" />
  <path
     stroke="none"
     fill="#ffffff"
     opacity="0"
     onclick="window.location.href = 'toalcohols.svg'"
     transform="matrix(0.05 0 0 0.05 -10 -11)"
     d="M 13585,5362.5 C 13585,5362.5 13585,4374.8 13585,4374.8 C 13585,4374.8 12683.1,4374.8 12683.1,4374.8 C 12683.1,4374.8 12683.1,5362.5 12683.1,5362.5 C 12683.1,5362.5 13585,5362.5 13585,5362.5 "
     id="path27"
     inkscape:label="l-toalcohols" />
  <path
     stroke="none"
     fill="#ffffff"
     opacity="0"
     onclick="window.location.href = 'malonic.svg'"
     d="m 275.12821,396.46766 c 0,0 0,-72.03484 0,-72.03484 0,0 -114.75072,0 -114.75072,0 0,0 0,72.03484 0,72.03484 0,0 114.75072,0 114.75072,0"
     id="path29-6"
     inkscape:label="l-malonic"
     style="opacity:0;stroke-width:0.118895" />
  <path
     stroke="none"
     fill="#ffffff"
     opacity="0"
     onclick="window.location.href = 'malonic.svg'"
     d="m 488.60337,424.63571 c 0,0 0,-102.52882 0,-102.52882 0,0 -159.31884,0 -159.31884,0 0,0 0,102.52882 0,102.52882 0,0 159.31884,0 159.31884,0"
     id="path29-6-4"
     inkscape:label="l-malonic"
     style="opacity:0;stroke-width:0.167136" />
  <path
     stroke="none"
     fill="#ffffff"
     opacity="0"
     onclick="window.location.href = 'malonic.svg'"
     d="m 756.48012,407.03051 c 0,0 0,-88.45467 0,-88.45467 0,0 -166.35592,0 -166.35592,0 0,0 0,88.45467 0,88.45467 0,0 166.35592,0 166.35592,0"
     id="path29-6-43"
     inkscape:label="l-malonic"
     style="opacity:0;stroke-width:0.158633" />
  <path
     stroke="none"
     fill="#ffffff"
     opacity="0"
     onclick="window.location.href = 'ccbondformation.svg'"
     d="m 568.18598,450.84177 c 0,0 0,-27.46672 0,-27.46672 0,0 -66.27311,0 -66.27311,0 0,0 0,27.46672 0,27.46672 0,0 66.27311,0 66.27311,0"
     id="path29-6-9"
     inkscape:label="l-ccbond"
     style="opacity:0;stroke-width:0.0557939" />
  <path
     stroke="none"
     fill="#ffffff"
     opacity="0"
     onclick="window.location.href = 'supplement.svg'"
     d="m 262.34631,199.30206 c 0,0 0,-18.86585 0,-18.86585 0,0 -27.17827,0 -27.17827,0 0,0 0,18.86585 0,18.86585 0,0 27.17827,0 27.17827,0"
     id="path29-6-9-6"
     inkscape:label="l-supplement"
     style="opacity:0;stroke-width:0.0296117" />
  <path
     stroke="none"
     fill="#ffffff"
     opacity="0"
     onclick="window.location.href = 'supplement.svg'"
     d="m 225.82825,316.16675 c 0,0 0,-13.39257 0,-13.39257 0,0 -43.5981,0 -43.5981,0 0,0 0,13.39257 0,13.39257 0,0 43.5981,0 43.5981,0"
     id="path29-6-9-6-3"
     inkscape:label="l-supplement"
     style="opacity:0;stroke-width:0.0315994" />
  <path
     stroke="none"
     fill="#ffffff"
     opacity="0"
     onclick="window.location.href = 'supplement.svg'"
     d="m 389.21535,204.30977 c 0,0 0,-24.33913 0,-24.33913 0,0 -27.96017,0 -27.96017,0 0,0 0,24.33913 0,24.33913 0,0 27.96017,0 27.96017,0"
     id="path29-6-9-6-8"
     inkscape:label="l-supplement"
     style="opacity:0;stroke-width:0.0341143" />
  <path
     stroke="none"
     fill="#ffffff"
     opacity="0"
     onclick="window.location.href = 'supplement.svg'"
     d="m 472.41707,197.71756 c 0,0 0,-18.86585 0,-18.86585 0,0 -27.17827,0 -27.17827,0 0,0 0,18.86585 0,18.86585 0,0 27.17827,0 27.17827,0"
     id="path29-6-9-6-88"
     inkscape:label="l-supplement"
     style="opacity:0;stroke-width:0.0296117" />
  <path
     stroke="none"
     fill="#ffffff"
     opacity="0"
     onclick="window.location.href = 'supplement.svg'"
     d="m 577.67658,194.97274 c 0,0 0,-29.81241 0,-29.81241 0,0 -58.45415,0 -58.45415,0 0,0 0,29.81241 0,29.81241 0,0 58.45415,0 58.45415,0"
     id="path29-6-9-6-0"
     inkscape:label="l-supplement"
     style="opacity:0;stroke-width:0.0545909" />
  <path
     stroke="none"
     fill="#ffffff"
     opacity="0"
     onclick="window.location.href = 'supplement.svg'"
     d="m 696.51625,197.82878 c 0,0 0,-11.82878 0,-11.82878 0,0 -45.1619,0 -45.1619,0 0,0 0,11.82878 0,11.82878 0,0 45.1619,0 45.1619,0"
     id="path29-6-9-6-5"
     inkscape:label="l-supplement"
     style="opacity:0;stroke-width:0.0302253" />
  <path
     stroke="none"
     fill="#ffffff"
     opacity="0"
     onclick="window.location.href = 'supplement.svg'"
     d="m 811.224,211.30206 c 0,0 0,-44.66845 0,-44.66845 0,0 -73.31019,0 -73.31019,0 0,0 0,44.66845 0,44.66845 0,0 73.31019,0 73.31019,0"
     id="path29-6-9-6-4"
     inkscape:label="l-supplement"
     style="opacity:0;stroke-width:0.0748336" />
  <path
     stroke="none"
     fill="#ffffff"
     opacity="0"
     onclick="window.location.href = 'supplement.svg'"
     d="m 696.22306,288.08829 c 0,0 0,-25.12103 0,-25.12103 0,0 -47.50759,0 -47.50759,0 0,0 0,25.12103 0,25.12103 0,0 47.50759,0 47.50759,0"
     id="path29-6-9-6-2"
     inkscape:label="l-supplement"
     style="opacity:0;stroke-width:0.0451767" />
  <path
     stroke="none"
     fill="#ffffff"
     opacity="0"
     onclick="window.location.href = 'supplement.svg'"
     d="m 574.60149,286.89859 c 0,0 0,-23.55723 0,-23.55723 0,0 -36.56103,0 -36.56103,0 0,0 0,23.55723 0,23.55723 0,0 36.56103,0 36.56103,0"
     id="path29-6-9-6-09"
     inkscape:label="l-supplement"
     style="opacity:0;stroke-width:0.0383783" />
  <path
     stroke="none"
     fill="#ffffff"
     opacity="0"
     onclick="window.location.href = 'supplement.svg'"
     d="m 494.65493,318.49946 c 0,0 0,-11.82878 0,-11.82878 0,0 -44.38,0 -44.38,0 0,0 0,11.82878 0,11.82878 0,0 44.38,0 44.38,0"
     id="path29-6-9-6-52"
     inkscape:label="l-supplement"
     style="opacity:0;stroke-width:0.0299625" />
  <path
     stroke="none"
     fill="#ffffff"
     opacity="0"
     onclick="window.location.href = 'supplement.svg'"
     d="m 351.25147,318.22791 c 0,0 0,-12.61067 0,-12.61067 0,0 -42.81621,0 -42.81621,0 0,0 0,12.61067 0,12.61067 0,0 42.81621,0 42.81621,0"
     id="path29-6-9-6-53"
     inkscape:label="l-supplement"
     style="opacity:0;stroke-width:0.030387" />
  <path
     stroke="none"
     fill="#ffffff"
     opacity="0"
     onclick="window.location.href = 'toesters.svg'"
     d="m 353.98425,303.1374 c 0,0 0,-34.50379 0,-34.50379 0,0 -45.1619,0 -45.1619,0 0,0 0,34.50379 0,34.50379 0,0 45.1619,0 45.1619,0"
     id="path29-6-9-6-6"
     inkscape:label="l-supplement"
     style="opacity:0;stroke-width:0.0516219" />
  <path
     stroke="none"
     fill="#ffffff"
     opacity="0"
     onclick="window.location.href = 'toesters.svg'"
     d="m 500.95679,302.97707 c 0,0 0,-34.50379 0,-34.50379 0,0 -56.10846,0 -56.10846,0 0,0 0,34.50379 0,34.50379 0,0 56.10846,0 56.10846,0"
     id="path29-6-9-6-6-5"
     inkscape:label="l-supplement"
     style="opacity:0;stroke-width:0.057539" />
  <path
     stroke="none"
     fill="#ffffff"
     opacity="0"
     onclick="window.location.href = 'toesters.svg'"
     d="m 228.27556,303.08923 c 0,0 0,-36.84948 0,-36.84948 0,0 -58.45415,0 -58.45415,0 0,0 0,36.84948 0,36.84948 0,0 58.45415,0 58.45415,0"
     id="path29-6-9-6-6-3"
     inkscape:label="l-supplement"
     style="opacity:0;stroke-width:0.0606929" />
  <path
     stroke="none"
     fill="#ffffff"
     opacity="0"
     onclick="window.location.href = 'toorganometallics.svg'"
     d="m 694.65344,185.8365 c 0,0 0,-25.12103 0,-25.12103 0,0 -49.07138,0 -49.07138,0 0,0 0,25.12103 0,25.12103 0,0 49.07138,0 49.07138,0"
     id="path29-6-9-6-6-53"
     inkscape:label="l-supplement"
     style="opacity:0;stroke-width:0.0459142" />
  <path
     stroke="none"
     fill="#ffffff"
     opacity="0"
     onclick="window.location.href = 'toaldehydes.svg'"
     d="m 780.93175,305.38486 c 0,0 0,-34.50379 0,-34.50379 0,0 -45.1619,0 -45.1619,0 0,0 0,34.50379 0,34.50379 0,0 45.1619,0 45.1619,0"
     id="path29-6-9-6-6-8"
     inkscape:label="l-supplement"
     style="opacity:0;stroke-width:0.0516219" />
  <g
     id="nostructures"
     onclick="window.location.href = 'tomalonic.svg'"
     transform="matrix(0.87844457,0,0,1,-3.2995176,381.05692)">
    <text
       x="18.000504"
       y="55.14151"
       stroke="none"
       fill="#000000"
       font-style="normal"
       font-weight="bold"
       font-size="200px"
       font-family="Helvetica"
       id="gobacktext-7"
       style="font-style:normal;font-variant:normal;font-weight:bold;font-stretch:normal;font-size:10px;font-family:Helvetica;-inkscape-font-specification:'Helvetica, Bold';font-variant-ligatures:normal;font-variant-caps:normal;font-variant-numeric:normal;font-variant-east-asian:normal;fill:#0088d0;fill-opacity:0.68;stroke:none;stroke-width:0.05"
       inkscape:label="noreagents-text"><tspan
         sodipodi:role="line"
         id="tspan1"
         x="18.000504"
         y="55.14151">show</tspan></text>
    <path
       stroke="none"
       fill="#999999"
       d="m 9.795,54.694678 c 0,0 0,-5.427567 0,-5.427567 0,-2.098514 1.679048,-3.801611 3.747601,-3.801611 0,0 35.119514,0 35.119514,0 2.068778,0 3.747742,1.703097 3.747742,3.801611 0,0 0,5.427567 0,5.427567 0,2.098514 -1.678964,3.801611 -3.747742,3.801611 0,0 -35.119514,0 -35.119514,0 -2.068553,0 -3.747601,-1.703097 -3.747601,-3.801611"
       id="goback-box-8"
       style="fill:#999999;fill-opacity:0.336842;stroke-width:0.0283675"
       inkscape:label="noreagents-box" />
  </g>
  <g
     id="noreagents"
     onclick="window.location.href = 'tomalonic-noreagents.svg'"
     transform="translate(-4.6856272,382.9067)">
    <text
       x="11.541888"
       y="67.610527"
       stroke="none"
       fill="#000000"
       font-style="normal"
       font-weight="bold"
       font-size="200px"
       font-family="Helvetica"
       id="gobacktext-7-8"
       style="font-style:normal;font-weight:bold;font-size:10px;font-family:Helvetica;fill:#000000;fill-opacity:0.443609;stroke:none;stroke-width:0.05"
       inkscape:label="noproducts-text"><tspan
         sodipodi:role="line"
         id="tspan2-5"
         x="11.541888"
         y="67.610527"
         style="font-style:normal;font-variant:normal;font-weight:bold;font-stretch:normal;font-size:8px;font-family:Helvetica;-inkscape-font-specification:'Helvetica, Bold';font-variant-ligatures:normal;font-variant-caps:normal;font-variant-numeric:normal;font-variant-east-asian:normal;fill:#000000;fill-opacity:0.5;stroke-width:0.05">reagents</tspan></text>
    <rect
       style="fill:#000000;fill-opacity:0.821053;fill-rule:evenodd;stroke:#a13033;stroke-width:0;stroke-linecap:round;stroke-miterlimit:2;stroke-dasharray:none;paint-order:markers fill stroke"
       id="rect3-9"
       width="31.666824"
       height="0.9773711"
       x="12.566371"
       y="64.987999"
       inkscape:label="noproducts-line" />
    <path
       stroke="none"
       fill="#999999"
       d="m 10.136392,68.163695 c 0,0 0,-5.427567 0,-5.427567 0,-2.098514 1.463398,-3.801611 3.266274,-3.801611 0,0 30.608907,0 30.608907,0 1.803073,0 3.266397,1.703097 3.266397,3.801611 0,0 0,5.427567 0,5.427567 0,2.098514 -1.463324,3.801611 -3.266397,3.801611 0,0 -30.608907,0 -30.608907,0 -1.802876,0 -3.266274,-1.703097 -3.266274,-3.801611"
       id="goback-box-8-6"
       style="fill:#999999;fill-opacity:0.336842;stroke-width:0.0264832"
       inkscape:label="noproducts-box" />
  </g>
  <text
     x="822.84332"
     y="415.79849"
     stroke="none"
     fill="#000000"
     transform="matrix(0.92407999,-0.00322566,0.00377741,1.0821442,0,0)"
     font-style="italic"
     font-weight="bold"
     font-size="8.25806px"
     font-family="'Helvetica Oblique'"
     id="text11"
     style="opacity:1;fill:#00009a;fill-opacity:0.651128;stroke-width:0.0412903">chemisfun</text>
  <g
     id="overlay-box"
     style="opacity:0"
     transform="matrix(0.31364504,0,0,0.8007311,650.50736,385.81436)">
    <rect
       style="fill:#609975;fill-opacity:0.2;stroke:#609970;stroke-width:0;stroke-linecap:round;stroke-opacity:0.657143;paint-order:fill markers stroke"
       id="rect285"
       width="164.84744"
       height="59.583412"
       x="329.69489"
       y="23.171328" />
  </g>
  <g
     id="overlay"
     onclick="window.location.href = 'about.svg'"
     onmouseover="this.ownerDocument.getElementById('overlay-box').style.opacity='0.5'"
     onmouseout="this.ownerDocument.getElementById('overlay-box').style.opacity='0'"
     transform="matrix(0.76550767,-0.0030054,0.00267214,0.86098131,195.61318,22.784653)">
    <rect
       style="opacity:0.5;fill:#ffffff;fill-opacity:0;stroke-linecap:round;stroke-opacity:0.657143;paint-order:stroke fill markers"
       id="rect2"
       width="65.93074"
       height="55.035408"
       x="733.06049"
       y="445.87061" />
  </g>
  <g
     id="g1"
     transform="matrix(0.0625,0,0,0.0625,764.65732,406.62566)">
    <rect
       x="239.31"
       y="120.321"
       style="fill:#444242"
       width="33.389"
       height="139.98"
       id="rect1" />
    <rect
       x="256"
       y="120.321"
       style="fill:#3a3839"
       width="16.695"
       height="139.98"
       id="rect2-2" />
    <rect
       x="132.194"
       y="305.86301"
       transform="matrix(0.5,0.866,-0.866,0.5,399.932,58.9793)"
       style="fill:#444242"
       width="33.387001"
       height="139.967"
       id="rect4" />
    <rect
       x="293.125"
       y="359.13"
       transform="matrix(0.866,0.5,-0.5,0.866,236.5654,-131.205)"
       style="fill:#3a3839"
       width="139.967"
       height="33.387001"
       id="rect5" />
    <path
       style="background-color:#ffffff00;fill:#439de2;fill-opacity:1"
       d="m 456.843,485.07 c -9.538,0 -18.951,-2.501 -27.432,-7.398 v 0 c -12.733,-7.351 -21.842,-19.221 -25.646,-33.424 -3.805,-14.201 -1.853,-29.035 5.499,-41.769 7.351,-12.732 19.221,-21.841 33.424,-25.646 14.201,-3.806 29.034,-1.853 41.769,5.499 12.732,7.351 21.841,19.221 25.646,33.424 3.805,14.202 1.853,29.035 -5.499,41.769 -7.351,12.733 -19.221,21.842 -33.424,25.646 -4.742,1.27 -9.557,1.899 -14.337,1.899 z"
       id="path7-3" />
    <path
       style="background-color:#ffffff00;fill:#eda74a;fill-opacity:1"
       d="m 256.001,137.021 c -30.352,0 -55.044,-24.693 -55.044,-55.044 0,-30.351 24.693,-55.044 55.044,-55.044 30.351,0 55.044,24.693 55.044,55.044 0,30.351 -24.693,55.044 -55.044,55.044 z"
       id="path5-4" />
    <path
       style="background-color:#ffffff00;fill:#53acb1;fill-opacity:1"
       d="m 55.158,485.07 c -4.781,0 -9.594,-0.629 -14.336,-1.9 C 26.619,479.365 14.75,470.256 7.398,457.524 0.046,444.792 -1.906,429.957 1.899,415.755 c 3.805,-14.203 12.914,-26.072 25.646,-33.424 12.731,-7.352 27.567,-9.304 41.769,-5.499 14.203,3.805 26.072,12.914 33.424,25.646 7.352,12.732 9.304,27.567 5.499,41.769 -3.805,14.203 -12.914,26.072 -25.646,33.424 -8.481,4.897 -17.896,7.399 -27.433,7.399 z"
       id="path6-7" />
    <path
       style="fill:#f74d37"
       d="m 256.001,384.379 c -38.81,0 -70.384,-31.575 -70.384,-70.384 0,-38.809 31.575,-70.384 70.384,-70.384 38.809,0 70.384,31.575 70.384,70.384 0,38.809 -31.575,70.384 -70.384,70.384 z"
       id="path4-9" />
  </g>
</svg>
