<?xml version="1.0" encoding="UTF-8" standalone="no"?>
<svg
   width="100%"
   height="100%"
   viewBox="0 0 818 460"
   style="background-color: #ffffff00"
   version="1.1"
   id="svg92"
   sodipodi:docname="tonitriles-o1.svg"
   inkscape:version="1.4.2 (ebf0e940, 2025-05-08)"
   xmlns:inkscape="http://www.inkscape.org/namespaces/inkscape"
   xmlns:sodipodi="http://sodipodi.sourceforge.net/DTD/sodipodi-0.dtd"
   xmlns="http://www.w3.org/2000/svg"
   xmlns:svg="http://www.w3.org/2000/svg">
  <path
     stroke="#ffffff"
     stroke-width="0.05"
     fill="none"
     d="m 407.95308,184.34846 c 0,0 0,-41.39 0,-41.39 0,0 -41.39,0 -41.39,0 0,0 0,41.39 0,41.39 0,0 41.39,0 41.39,0"
     id="path2" />
  <path
     stroke="#000000"
     stroke-width="22"
     fill="none"
     transform="matrix(0.05 0 0 0.05 -10 -11)"
     d="M 16494.7,9367.47 C 16494.7,9367.47 16494.7,284.602 16494.7,284.602 C 16494.7,284.602 268.683,284.602 268.683,284.602 C 268.683,284.602 268.683,9367.47 268.683,9367.47 C 268.683,9367.47 16494.7,9367.47 16494.7,9367.47 "
     id="path9" />
  <text
     x="0"
     y="0"
     stroke="none"
     fill="#000000"
     transform="matrix(0.05 0 0 0.05 11.735 21.13)"
     font-style="normal"
     font-weight="bold"
     font-size="320px"
     font-family="Helvetica"
     id="text9">
Preparation of Nitriles</text>
  <text
     x="0"
     y="0"
     stroke="none"
     fill="#999999"
     transform="matrix(0.05 0 0 0.05 11.9381 39.085)"
     font-style="normal"
     font-weight="normal"
     font-size="320px"
     font-family="Helvetica"
     id="text12">
click for more</text>
  <g
     id="goback"
     onclick="window.location.href = 'index-o1.svg'"
     onmouseover="document.getElementById('goback-box').setAttribute('opacity','0.5');"
     onmouseout="document.getElementById('goback-box').setAttribute('opacity','1')">
    <path
       stroke="none"
       fill="#999999"
       transform="matrix(0.05 0 0 0.05 -10 -11)"
       d="M 395.9,1492.34 C 395.9,1492.34 395.9,1302.37 395.9,1302.37 C 395.9,1228.92 455.513,1169.31 528.955,1169.31 C 528.955,1169.31 1775.84,1169.31 1775.84,1169.31 C 1849.29,1169.31 1908.9,1228.92 1908.9,1302.37 C 1908.9,1302.37 1908.9,1492.34 1908.9,1492.34 C 1908.9,1565.79 1849.29,1625.4 1775.84,1625.4 C 1775.84,1625.4 528.955,1625.4 528.955,1625.4 C 455.513,1625.4 395.9,1565.79 395.9,1492.34 "
       id="goback-box" />
    <text
       x="0"
       y="0"
       stroke="none"
       fill="#000000"
       transform="matrix(0.05 0 0 0.05 29.3796 61.765)"
       font-style="normal"
       font-weight="bold"
       font-size="200px"
       font-family="Helvetica"
       id="gobacktext">
go home</text>
    <path
       stroke="#999999"
       stroke-width="1"
       transform="matrix(0.05 0 0 0.05 -10 -11)"
       d="M 395.9,1492.34 C 395.9,1492.34 395.9,1302.37 395.9,1302.37 C 395.9,1228.92 455.513,1169.31 528.955,1169.31 C 528.955,1169.31 1775.84,1169.31 1775.84,1169.31 C 1849.29,1169.31 1908.9,1228.92 1908.9,1302.37 C 1908.9,1302.37 1908.9,1492.34 1908.9,1492.34 C 1908.9,1565.79 1849.29,1625.4 1775.84,1625.4 C 1775.84,1625.4 528.955,1625.4 528.955,1625.4 C 455.513,1625.4 395.9,1565.79 395.9,1492.34 "
       onclick="window.location.href = 'index-o1.svg'"
       style="opacity:0"
       id="goback-link" />
  </g>
  <g
     id="howdotheyreact"
     onclick="window.location.href = 'nitriles-o1.svg'"
     onmouseover="document.getElementById('howdotheyreact-box').setAttribute('opacity','0.5');"
     onmouseout="document.getElementById('howdotheyreact-box').setAttribute('opacity','1')">
    <path
       stroke="none"
       fill="#999999"
       transform="matrix(0.05 0 0 0.05 -10 -11)"
       d="M 381.591,1996.7 C 381.591,1996.7 381.591,1806.72 381.591,1806.72 C 381.591,1733.28 441.204,1673.66 514.646,1673.66 C 514.646,1673.66 2149.06,1673.66 2149.06,1673.66 C 2222.51,1673.66 2282.12,1733.28 2282.12,1806.72 C 2282.12,1806.72 2282.12,1996.7 2282.12,1996.7 C 2282.12,2070.14 2222.51,2129.75 2149.06,2129.75 C 2149.06,2129.75 514.646,2129.75 514.646,2129.75 C 441.204,2129.75 381.591,2070.14 381.591,1996.7 "
       id="howdotheyreact-box" />
    <text
       x="0"
       y="0"
       stroke="none"
       fill="#000000"
       transform="matrix(0.05 0 0 0.05 12.2417 86.9826)"
       font-style="normal"
       font-weight="bold"
       font-size="200px"
       font-family="Helvetica"
       id="howdotheyreact-text">
how do they react?</text>
    <path
       stroke="#999999"
       stroke-width="1"
       transform="matrix(0.05 0 0 0.05 -10 -11)"
       d="M 381.591,1996.7 C 381.591,1996.7 381.591,1806.72 381.591,1806.72 C 381.591,1733.28 441.204,1673.66 514.646,1673.66 C 514.646,1673.66 2149.06,1673.66 2149.06,1673.66 C 2222.51,1673.66 2282.12,1733.28 2282.12,1806.72 C 2282.12,1806.72 2282.12,1996.7 2282.12,1996.7 C 2282.12,2070.14 2222.51,2129.75 2149.06,2129.75 C 2149.06,2129.75 514.646,2129.75 514.646,2129.75 C 441.204,2129.75 381.591,2070.14 381.591,1996.7 "
       style="opacity:0"
       id="howdotheyreact-link" />
  </g>
  <text
     x="368.81107"
     y="213.32446"
     stroke="none"
     fill="#000000"
     font-style="normal"
     font-weight="bold"
     font-size="10px"
     font-family="Helvetica"
     id="text21"
     style="stroke-width:0.05">CN</text>
  <text
     x="383.25507"
     y="209.72546"
     stroke="none"
     fill="#000000"
     font-style="normal"
     font-weight="bold"
     font-size="7.5px"
     font-family="Helvetica"
     id="text22"
     style="stroke-width:0.05">-</text>
  <path
     stroke="none"
     fill="#000000"
     d="m 375.46008,243.54146 0.554,-0.96 12.6925,7.354 v 0.614 l -0.52,0.3145 z"
     id="path22"
     style="stroke-width:0.05" />
  <path
     stroke="none"
     fill="#000000"
     d="m 389.22658,250.86396 -0.52,-0.3145 v -0.614 l 12.6925,-7.354 0.5545,0.96 z"
     id="path23"
     style="stroke-width:0.05" />
  <text
     x="385.45709"
     y="268.76447"
     stroke="none"
     fill="#0000ff"
     font-style="normal"
     font-weight="bold"
     font-size="9px"
     font-family="Helvetica"
     id="text23"
     style="stroke-width:0.05">C</text>
  <path
     stroke="none"
     fill="#ff0000"
     d="m 388.18658,250.86396 0.52,-0.3145 0.52,0.3145 0.0345,9.849 h -1.109 z"
     id="path24"
     style="stroke-width:0.05" />
  <text
     x="385.45709"
     y="283.74045"
     stroke="none"
     fill="#0000ff"
     font-style="normal"
     font-weight="bold"
     font-size="9px"
     font-family="Helvetica"
     id="text24"
     style="stroke-width:0.05">N</text>
  <path
     stroke="none"
     fill="#0000ff"
     d="m 390.92408,270.53696 h 1.109 v 5.1635 h -1.109 z"
     id="path25"
     style="stroke-width:0.05" />
  <path
     stroke="none"
     fill="#0000ff"
     d="m 388.15208,270.53696 h 1.109 v 5.1635 h -1.109 z"
     id="path26"
     style="stroke-width:0.05" />
  <path
     stroke="none"
     fill="#0000ff"
     d="m 385.38008,270.53696 h 1.109 v 5.1635 h -1.109 z"
     id="path27"
     style="stroke-width:0.05" />
  <path
     stroke="none"
     fill="#000000"
     d="m 375.23708,152.08246 0.554,-0.96 12.6925,7.354 v 0.614 l -0.52,0.315 z"
     id="path28"
     style="stroke-width:0.05" />
  <path
     stroke="none"
     fill="#000000"
     d="m 389.00358,159.40546 -0.52,-0.315 v -0.614 l 12.6925,-7.354 0.5545,0.96 z"
     id="path29"
     style="stroke-width:0.05" />
  <text
     x="385.23407"
     y="177.30547"
     stroke="none"
     fill="#107f01"
     font-style="normal"
     font-weight="bold"
     font-size="9px"
     font-family="Helvetica"
     id="text29"
     style="stroke-width:0.05">Br</text>
  <path
     stroke="none"
     fill="#000000"
     d="m 387.96358,159.40546 0.52,-0.315 0.52,0.315 0.0345,9.86 h -1.109 z"
     id="path30"
     style="stroke-width:0.05" />
  <text
     x="391.66006"
     y="213.04646"
     stroke="none"
     fill="#000000"
     font-style="normal"
     font-weight="normal"
     font-size="8px"
     font-family="Helvetica"
     id="text30"
     style="stroke-width:0.05">1,2</text>
  <text
     x="402.78107"
     y="210.17746"
     stroke="none"
     fill="#000000"
     font-style="normal"
     font-weight="normal"
     font-size="6px"
     font-family="Helvetica"
     id="text31"
     style="stroke-width:0.05">o</text>
  <text
     x="0"
     y="0"
     stroke="none"
     fill="#0000ff"
     transform="matrix(0.05 0 0 0.05 419.981 221.561)"
     font-style="normal"
     font-weight="normal"
     font-size="160px"
     font-family="Helvetica"
     id="text34" />
  <text
     x="364.63757"
     y="309.53915"
     stroke="none"
     fill="#0000ff"
     font-style="normal"
     font-weight="bold"
     font-size="14px"
     font-family="Helvetica"
     id="text48"
     style="stroke-width:0.05">nitriles</text>
  <path
     stroke="none"
     fill="#000000"
     d="m 388.36508,224.73896 v -27.573 h 1.1 v 27.573 z"
     id="path56"
     style="stroke-width:0.05" />
  <path
     stroke="none"
     fill="#000000"
     d="m 388.91508,234.39096 c 0,0 -2.872,-11.088 -2.872,-11.088 0,0 1.6155,1.386 2.872,1.386 1.2345,0 2.822,-1.386 2.822,-1.386 0,0 -2.822,11.088 -2.822,11.088 0,0 0,0 0,0"
     id="path57"
     style="stroke-width:0.05" />
  <path
     stroke="#000000"
     stroke-width="0.05"
     fill="none"
     d="m 388.91508,234.39096 c 0,0 -2.872,-11.088 -2.872,-11.088 0,0 1.6155,1.386 2.872,1.386 1.2345,0 2.822,-1.386 2.822,-1.386 0,0 -2.822,11.088 -2.822,11.088 0,0 0,0 0,0"
     id="path58" />
  <clipPath
     id="1">
    <path
       clip-rule="evenodd"
       d="M 325.74,265.121 L 545.865,265.121 L 545.865,362.545 L 325.74,362.545 L 325.74,265.121 M 536.43,353.11 C 536.43,353.11 536.43,270.121 536.43,270.121 C 536.43,270.121 330.74,270.121 330.74,270.121 C 330.74,270.121 330.74,353.11 330.74,353.11 C 330.74,353.11 536.43,353.11 536.43,353.11 "
       id="path90" />
  </clipPath>
  <path
     stroke="none"
     fill="#ffffff"
     opacity="0"
     onclick="window.location.href = 'tohalides-o1.svg'"
     d="m 407.95308,184.34846 c 0,0 0,-41.39 0,-41.39 0,0 -41.39,0 -41.39,0 0,0 0,41.39 0,41.39 0,0 41.39,0 41.39,0"
     id="path1"
     inkscape:label="l-tohalides"
     style="stroke-width:0.05" />
  <path
     stroke="none"
     fill="#ffffff"
     opacity="0"
     onclick="window.location.href = 'nitriles-o1.svg'"
     d="m 412.92154,318.57153 c 0,0 0,-77.31192 0,-77.31192 0,0 -47.53212,0 -47.53212,0 0,0 0,77.31192 0,77.31192 0,0 47.53212,0 47.53212,0"
     id="path5-3"
     inkscape:label="l-nitriles"
     style="opacity:0;stroke-width:0.0386692" />
  <path
     stroke="none"
     fill="#333333"
     d="m 339.78885,209.38376 a 10.0175,10.0175 0 1 0 20.035,0 10.0175,10.0175 0 1 0 -20.035,0 z"
     id="path212"
     style="stroke-width:0.05" />
  <text
     x="347.65884"
     y="213.67625"
     stroke="none"
     fill="#ffffff"
     font-style="italic"
     font-weight="bold"
     font-size="12px"
     font-family="'Times New Roman'"
     id="text213"
     style="stroke-width:0.05">i</text>
  <text
     x="302.60385"
     y="207.27626"
     stroke="none"
     fill="#000000"
     font-style="italic"
     font-weight="normal"
     font-size="8px"
     font-family="'Helvetica Oblique'"
     id="text214"
     style="stroke-width:0.05">C-C bond</text>
  <text
     x="303.0488"
     y="215.32625"
     stroke="none"
     fill="#000000"
     font-style="italic"
     font-weight="normal"
     font-size="8px"
     font-family="'Helvetica Oblique'"
     id="text216"
     style="stroke-width:0.05">formation</text>
  <path
     stroke="none"
     fill="#ffffff"
     opacity="0"
     onclick="window.location.href = 'ccbondformation-o1.svg'"
     d="m 363.85483,221.28403 c 0,0 0,-27.46672 0,-27.46672 0,0 -66.27311,0 -66.27311,0 0,0 0,27.46672 0,27.46672 0,0 66.27311,0 66.27311,0"
     id="path29-6-9"
     inkscape:label="l-ccbond"
     style="opacity:0;stroke-width:0.0557939" />
  <path
     stroke="none"
     fill="#ffffff"
     opacity="0"
     onclick="window.location.href = 'supplement-o1.svg'"
     d="m 388.37408,216.51479 c 0,0 0,-14.19749 0,-14.19749 0,0 -20.38369,0 -20.38369,0 0,0 0,14.19749 0,14.19749 0,0 20.38369,0 20.38369,0"
     id="path29-6-9-6"
     inkscape:label="l-supplement"
     style="opacity:0;stroke-width:0.0222465" />
  <g
     id="noreactants"
     onclick="window.location.href = 'tonitriles-noreactants-o1.svg'"
     transform="translate(-4.6856272,378.9067)">
    <text
       x="11.200497"
       y="54.141506"
       stroke="none"
       fill="#000000"
       font-style="normal"
       font-weight="bold"
       font-size="200px"
       font-family="Helvetica"
       id="gobacktext-7"
       style="font-style:normal;font-weight:bold;font-size:10px;font-family:Helvetica;fill:#000000;fill-opacity:0.443609;stroke:none;stroke-width:0.05"
       inkscape:label="noreagents-text"><tspan
         sodipodi:role="line"
         id="tspan2"
         x="11.200497"
         y="54.141506"
         style="font-style:normal;font-variant:normal;font-weight:bold;font-stretch:normal;font-size:8px;font-family:Helvetica;-inkscape-font-specification:'Helvetica, Bold';font-variant-ligatures:normal;font-variant-caps:normal;font-variant-numeric:normal;font-variant-east-asian:normal;fill:#000000;fill-opacity:0.5;stroke-width:0.05">reactants</tspan></text>
    <rect
       style="fill:#000000;fill-opacity:0.821053;fill-rule:evenodd;stroke:#a13033;stroke-width:0;stroke-linecap:round;stroke-miterlimit:2;stroke-dasharray:none;paint-order:markers fill stroke"
       id="rect3"
       width="31.666824"
       height="0.9773711"
       x="12.224979"
       y="51.518982"
       inkscape:label="noreagents-line" />
    <path
       stroke="none"
       fill="#999999"
       d="m 9.795,54.694678 c 0,0 0,-5.427567 0,-5.427567 0,-2.098514 1.463398,-3.801611 3.266274,-3.801611 0,0 30.608907,0 30.608907,0 1.803073,0 3.266397,1.703097 3.266397,3.801611 0,0 0,5.427567 0,5.427567 0,2.098514 -1.463324,3.801611 -3.266397,3.801611 0,0 -30.608907,0 -30.608907,0 -1.802876,0 -3.266274,-1.703097 -3.266274,-3.801611"
       id="goback-box-8"
       style="fill:#999999;fill-opacity:0.336842;stroke-width:0.0264832"
       inkscape:label="noreagents-box" />
  </g>
  <g
     id="noreagents"
     onclick="window.location.href = 'tonitriles-noreagents-o1.svg'"
     transform="translate(-4.6856272,382.9067)">
    <text
       x="11.541888"
       y="67.610527"
       stroke="none"
       fill="#000000"
       font-style="normal"
       font-weight="bold"
       font-size="200px"
       font-family="Helvetica"
       id="gobacktext-7-8"
       style="font-style:normal;font-weight:bold;font-size:10px;font-family:Helvetica;fill:#000000;fill-opacity:0.443609;stroke:none;stroke-width:0.05"
       inkscape:label="noproducts-text"><tspan
         sodipodi:role="line"
         id="tspan2-5"
         x="11.541888"
         y="67.610527"
         style="font-style:normal;font-variant:normal;font-weight:bold;font-stretch:normal;font-size:8px;font-family:Helvetica;-inkscape-font-specification:'Helvetica, Bold';font-variant-ligatures:normal;font-variant-caps:normal;font-variant-numeric:normal;font-variant-east-asian:normal;fill:#000000;fill-opacity:0.5;stroke-width:0.05">reagents</tspan></text>
    <rect
       style="fill:#000000;fill-opacity:0.821053;fill-rule:evenodd;stroke:#a13033;stroke-width:0;stroke-linecap:round;stroke-miterlimit:2;stroke-dasharray:none;paint-order:markers fill stroke"
       id="rect3-9"
       width="31.666824"
       height="0.9773711"
       x="12.566371"
       y="64.987999"
       inkscape:label="noproducts-line" />
    <path
       stroke="none"
       fill="#999999"
       d="m 10.136392,68.163695 c 0,0 0,-5.427567 0,-5.427567 0,-2.098514 1.463398,-3.801611 3.266274,-3.801611 0,0 30.608907,0 30.608907,0 1.803073,0 3.266397,1.703097 3.266397,3.801611 0,0 0,5.427567 0,5.427567 0,2.098514 -1.463324,3.801611 -3.266397,3.801611 0,0 -30.608907,0 -30.608907,0 -1.802876,0 -3.266274,-1.703097 -3.266274,-3.801611"
       id="goback-box-8-6"
       style="fill:#999999;fill-opacity:0.336842;stroke-width:0.0264832"
       inkscape:label="noproducts-box" />
  </g>
  <text
     x="822.84332"
     y="415.79849"
     stroke="none"
     fill="#000000"
     transform="matrix(0.92407999,-0.00322566,0.00377741,1.0821442,0,0)"
     font-style="italic"
     font-weight="bold"
     font-size="8.25806px"
     font-family="'Helvetica Oblique'"
     id="text11"
     style="opacity:1;fill:#00009a;fill-opacity:0.651128;stroke-width:0.0412903">chemisfun</text>
  <g
     id="overlay-box"
     style="opacity:0"
     transform="matrix(0.31364504,0,0,0.8007311,650.50736,385.81436)">
    <rect
       style="fill:#609975;fill-opacity:0.2;stroke:#609970;stroke-width:0;stroke-linecap:round;stroke-opacity:0.657143;paint-order:fill markers stroke"
       id="rect285"
       width="164.84744"
       height="59.583412"
       x="329.69489"
       y="23.171328" />
  </g>
  <g
     id="overlay"
     onclick="window.location.href = 'about.svg'"
     onmouseover="this.ownerDocument.getElementById('overlay-box').style.opacity='0.5'"
     onmouseout="this.ownerDocument.getElementById('overlay-box').style.opacity='0'"
     transform="matrix(0.76550767,-0.0030054,0.00267214,0.86098131,195.61318,22.784653)">
    <rect
       style="opacity:0.5;fill:#ffffff;fill-opacity:0;stroke-linecap:round;stroke-opacity:0.657143;paint-order:stroke fill markers"
       id="rect2"
       width="65.93074"
       height="55.035408"
       x="733.06049"
       y="445.87061" />
  </g>
  <g
     id="g1"
     transform="matrix(0.0625,0,0,0.0625,764.65732,406.62566)">
    <rect
       x="239.31"
       y="120.321"
       style="fill:#444242"
       width="33.389"
       height="139.98"
       id="rect1" />
    <rect
       x="256"
       y="120.321"
       style="fill:#3a3839"
       width="16.695"
       height="139.98"
       id="rect2-2" />
    <rect
       x="132.194"
       y="305.86301"
       transform="matrix(0.5,0.866,-0.866,0.5,399.932,58.9793)"
       style="fill:#444242"
       width="33.387001"
       height="139.967"
       id="rect4" />
    <rect
       x="293.125"
       y="359.13"
       transform="matrix(0.866,0.5,-0.5,0.866,236.5654,-131.205)"
       style="fill:#3a3839"
       width="139.967"
       height="33.387001"
       id="rect5" />
    <path
       style="background-color:#ffffff00;fill:#439de2;fill-opacity:1"
       d="m 456.843,485.07 c -9.538,0 -18.951,-2.501 -27.432,-7.398 v 0 c -12.733,-7.351 -21.842,-19.221 -25.646,-33.424 -3.805,-14.201 -1.853,-29.035 5.499,-41.769 7.351,-12.732 19.221,-21.841 33.424,-25.646 14.201,-3.806 29.034,-1.853 41.769,5.499 12.732,7.351 21.841,19.221 25.646,33.424 3.805,14.202 1.853,29.035 -5.499,41.769 -7.351,12.733 -19.221,21.842 -33.424,25.646 -4.742,1.27 -9.557,1.899 -14.337,1.899 z"
       id="path7-3" />
    <path
       style="background-color:#ffffff00;fill:#eda74a;fill-opacity:1"
       d="m 256.001,137.021 c -30.352,0 -55.044,-24.693 -55.044,-55.044 0,-30.351 24.693,-55.044 55.044,-55.044 30.351,0 55.044,24.693 55.044,55.044 0,30.351 -24.693,55.044 -55.044,55.044 z"
       id="path5-4" />
    <path
       style="background-color:#ffffff00;fill:#53acb1;fill-opacity:1"
       d="m 55.158,485.07 c -4.781,0 -9.594,-0.629 -14.336,-1.9 C 26.619,479.365 14.75,470.256 7.398,457.524 0.046,444.792 -1.906,429.957 1.899,415.755 c 3.805,-14.203 12.914,-26.072 25.646,-33.424 12.731,-7.352 27.567,-9.304 41.769,-5.499 14.203,3.805 26.072,12.914 33.424,25.646 7.352,12.732 9.304,27.567 5.499,41.769 -3.805,14.203 -12.914,26.072 -25.646,33.424 -8.481,4.897 -17.896,7.399 -27.433,7.399 z"
       id="path6-7" />
    <path
       style="fill:#f74d37"
       d="m 256.001,384.379 c -38.81,0 -70.384,-31.575 -70.384,-70.384 0,-38.809 31.575,-70.384 70.384,-70.384 38.809,0 70.384,31.575 70.384,70.384 0,38.809 -31.575,70.384 -70.384,70.384 z"
       id="path4-9" />
  </g>
</svg>
