<?xml version="1.0" encoding="UTF-8" standalone="no"?>
<svg
   width="100%"
   height="100%"
   viewBox="0 0 818 460"
   style="background-color: #ffffff00"
   version="1.1"
   id="svg55"
   sodipodi:docname="tonitro.svg"
   inkscape:version="1.4.2 (ebf0e940, 2025-05-08)"
   xmlns:inkscape="http://www.inkscape.org/namespaces/inkscape"
   xmlns:sodipodi="http://sodipodi.sourceforge.net/DTD/sodipodi-0.dtd"
   xmlns="http://www.w3.org/2000/svg"
   xmlns:svg="http://www.w3.org/2000/svg">
  <path
     stroke="none"
     fill="#ffffff"
     transform="matrix(0.05 0 0 0.05 -10 -11)"
     d="M 6835.4,5848.7 C 6835.4,5848.7 6835.4,4646.5 6835.4,4646.5 C 6835.4,4646.5 5933.5,4646.5 5933.5,4646.5 C 5933.5,4646.5 5933.5,5848.7 5933.5,5848.7 C 5933.5,5848.7 6835.4,5848.7 6835.4,5848.7 "
     id="path1" />
  <path
     stroke="#000000"
     stroke-width="22"
     fill="none"
     transform="matrix(0.05 0 0 0.05 -10 -11)"
     d="M 16494.7,9367.47 C 16494.7,9367.47 16494.7,284.602 16494.7,284.602 C 16494.7,284.602 268.683,284.602 268.683,284.602 C 268.683,284.602 268.683,9367.47 268.683,9367.47 C 268.683,9367.47 16494.7,9367.47 16494.7,9367.47 "
     id="path5" />
  <text
     x="0"
     y="0"
     stroke="none"
     fill="#000000"
     transform="matrix(0.05 0 0 0.05 11.735 21.13)"
     font-style="normal"
     font-weight="bold"
     font-size="320px"
     font-family="Helvetica"
     id="text5">
Preparation of Nitrobenzene</text>
  <text
     x="0"
     y="0"
     stroke="none"
     fill="#999999"
     transform="matrix(0.05 0 0 0.05 11.9381 39.085)"
     font-style="normal"
     font-weight="normal"
     font-size="320px"
     font-family="Helvetica"
     id="text8">
click for more</text>
  <g
     id="goback"
     onclick="window.location.href = 'index.svg'"
     onmouseover="document.getElementById('goback-box').setAttribute('opacity','0.5');"
     onmouseout="document.getElementById('goback-box').setAttribute('opacity','1')">
    <path
       stroke="none"
       fill="#999999"
       transform="matrix(0.05 0 0 0.05 -10 -11)"
       d="M 395.9,1492.34 C 395.9,1492.34 395.9,1302.37 395.9,1302.37 C 395.9,1228.92 455.513,1169.31 528.955,1169.31 C 528.955,1169.31 1775.84,1169.31 1775.84,1169.31 C 1849.29,1169.31 1908.9,1228.92 1908.9,1302.37 C 1908.9,1302.37 1908.9,1492.34 1908.9,1492.34 C 1908.9,1565.79 1849.29,1625.4 1775.84,1625.4 C 1775.84,1625.4 528.955,1625.4 528.955,1625.4 C 455.513,1625.4 395.9,1565.79 395.9,1492.34 "
       id="goback-box" />
    <text
       x="0"
       y="0"
       stroke="none"
       fill="#000000"
       transform="matrix(0.05 0 0 0.05 29.3796 61.765)"
       font-style="normal"
       font-weight="bold"
       font-size="200px"
       font-family="Helvetica"
       id="gobacktext">
go home</text>
    <path
       stroke="#999999"
       stroke-width="1"
       transform="matrix(0.05 0 0 0.05 -10 -11)"
       d="M 395.9,1492.34 C 395.9,1492.34 395.9,1302.37 395.9,1302.37 C 395.9,1228.92 455.513,1169.31 528.955,1169.31 C 528.955,1169.31 1775.84,1169.31 1775.84,1169.31 C 1849.29,1169.31 1908.9,1228.92 1908.9,1302.37 C 1908.9,1302.37 1908.9,1492.34 1908.9,1492.34 C 1908.9,1565.79 1849.29,1625.4 1775.84,1625.4 C 1775.84,1625.4 528.955,1625.4 528.955,1625.4 C 455.513,1625.4 395.9,1565.79 395.9,1492.34 "
       onclick="window.location.href = 'index.svg'"
       style="opacity:0"
       id="goback-link" />
  </g>
  <g
     id="howdotheyreact"
     onclick="window.location.href = 'nitro.svg'"
     onmouseover="document.getElementById('howdotheyreact-box').setAttribute('opacity','0.5');"
     onmouseout="document.getElementById('howdotheyreact-box').setAttribute('opacity','1')">
    <path
       stroke="none"
       fill="#999999"
       transform="matrix(0.05 0 0 0.05 -10 -11)"
       d="M 381.591,1996.7 C 381.591,1996.7 381.591,1806.72 381.591,1806.72 C 381.591,1733.28 441.204,1673.66 514.646,1673.66 C 514.646,1673.66 2149.06,1673.66 2149.06,1673.66 C 2222.51,1673.66 2282.12,1733.28 2282.12,1806.72 C 2282.12,1806.72 2282.12,1996.7 2282.12,1996.7 C 2282.12,2070.14 2222.51,2129.75 2149.06,2129.75 C 2149.06,2129.75 514.646,2129.75 514.646,2129.75 C 441.204,2129.75 381.591,2070.14 381.591,1996.7 "
       id="howdotheyreact-box" />
    <text
       x="0"
       y="0"
       stroke="none"
       fill="#000000"
       transform="matrix(0.05 0 0 0.05 12.2417 86.9826)"
       font-style="normal"
       font-weight="bold"
       font-size="200px"
       font-family="Helvetica"
       id="howdotheyreact-text">
how do they react?</text>
    <path
       stroke="#999999"
       stroke-width="1"
       transform="matrix(0.05 0 0 0.05 -10 -11)"
       d="M 381.591,1996.7 C 381.591,1996.7 381.591,1806.72 381.591,1806.72 C 381.591,1733.28 441.204,1673.66 514.646,1673.66 C 514.646,1673.66 2149.06,1673.66 2149.06,1673.66 C 2222.51,1673.66 2282.12,1733.28 2282.12,1806.72 C 2282.12,1806.72 2282.12,1996.7 2282.12,1996.7 C 2282.12,2070.14 2222.51,2129.75 2149.06,2129.75 C 2149.06,2129.75 514.646,2129.75 514.646,2129.75 C 441.204,2129.75 381.591,2070.14 381.591,1996.7 "
       style="opacity:0"
       id="howdotheyreact-link" />
  </g>
  <text
     x="422.84299"
     y="295.47101"
     stroke="none"
     fill="#0000ff"
     font-style="normal"
     font-weight="bold"
     font-size="14px"
     font-family="Helvetica"
     id="text17"
     style="stroke-width:0.05">nitrobenzene</text>
  <path
     stroke="none"
     fill="#000000"
     transform="matrix(0.05 0 0 0.05 -10 -11)"
     d="M 6146.85,5287.31 L 6169.06,5300.14 L 6169.06,5587.38 L 6146.85,5600.21 L 6146.85,5287.31 Z "
     id="path17" />
  <path
     stroke="none"
     fill="#000000"
     transform="matrix(0.05 0 0 0.05 -10 -11)"
     d="M 6202.78,5326.01 L 6224.96,5326.01 L 6224.96,5561.51 L 6202.78,5561.51 L 6202.78,5326.01 Z "
     id="path18" />
  <path
     stroke="none"
     fill="#000000"
     transform="matrix(0.05 0 0 0.05 -10 -11)"
     d="M 6146.85,5600.21 L 6169.06,5587.38 L 6417.81,5731 L 6417.81,5756.66 L 6146.85,5600.21 Z "
     id="path19" />
  <path
     stroke="none"
     fill="#000000"
     transform="matrix(0.05 0 0 0.05 -10 -11)"
     d="M 6417.81,5756.66 L 6417.81,5731 L 6666.55,5587.38 L 6688.77,5600.21 L 6417.81,5756.66 Z "
     id="path20" />
  <path
     stroke="none"
     fill="#000000"
     transform="matrix(0.05 0 0 0.05 -10 -11)"
     d="M 6423.35,5688.87 L 6412.26,5669.66 L 6616.2,5551.91 L 6627.29,5571.12 L 6423.35,5688.87 Z "
     id="path21" />
  <path
     stroke="none"
     fill="#000000"
     transform="matrix(0.05 0 0 0.05 -10 -11)"
     d="M 6688.77,5600.21 L 6666.55,5587.38 L 6666.55,5300.14 L 6688.77,5287.31 L 6688.77,5600.21 Z "
     id="path22" />
  <path
     stroke="none"
     fill="#000000"
     transform="matrix(0.05 0 0 0.05 -10 -11)"
     d="M 6688.77,5287.31 L 6666.55,5300.14 L 6417.81,5156.52 L 6417.81,5144.24 L 6428.22,5137.95 L 6688.77,5287.31 Z "
     id="path23" />
  <path
     stroke="none"
     fill="#000000"
     transform="matrix(0.05 0 0 0.05 -10 -11)"
     d="M 6627.29,5316.4 L 6616.2,5335.61 L 6412.26,5217.86 L 6423.35,5198.65 L 6627.29,5316.4 Z "
     id="path24" />
  <path
     stroke="none"
     fill="#000000"
     transform="matrix(0.05 0 0 0.05 -10 -11)"
     d="M 6407.4,5137.95 L 6417.81,5144.24 L 6417.81,5156.52 L 6169.06,5300.14 L 6146.85,5287.31 L 6407.4,5137.95 Z "
     id="path25" />
  <text
     x="0"
     y="0"
     stroke="none"
     fill="#000000"
     transform="matrix(0.05 0 0 0.05 307.641 234.457)"
     font-style="normal"
     font-weight="bold"
     font-size="180px"
     font-family="Arial"
     id="text25">
H</text>
  <path
     stroke="none"
     fill="#000000"
     transform="matrix(0.05 0 0 0.05 -10 -11)"
     d="M 6428.22,5137.95 L 6417.81,5144.24 L 6407.4,5137.95 L 6406.72,4938.54 L 6428.89,4938.54 L 6428.22,5137.95 Z "
     id="path26" />
  <path
     stroke="none"
     fill="#000000"
     transform="matrix(0.05 0 0 0.05 -10 -11)"
     d="M 8411.11,5409.31 L 6944.72,5409.31 L 6944.72,5387.31 L 8411.11,5387.31 Z "
     id="path27" />
  <path
     stroke="none"
     fill="#000000"
     transform="matrix(0.05 0 0 0.05 -10 -11)"
     d="M 8604.15,5398.31 C 8604.15,5398.31 8382.39,5454.75 8382.39,5454.75 C 8382.39,5454.75 8410.11,5423.01 8410.11,5398.31 C 8410.11,5373.18 8382.39,5340.87 8382.39,5340.87 C 8382.39,5340.87 8604.15,5398.31 8604.15,5398.31 C 8604.15,5398.31 8604.15,5398.31 8604.15,5398.31 "
     id="path28" />
  <path
     stroke="#000000"
     stroke-width="1"
     fill="none"
     transform="matrix(0.05 0 0 0.05 -10 -11)"
     d="M 8604.15,5398.31 C 8604.15,5398.31 8382.39,5454.75 8382.39,5454.75 C 8382.39,5454.75 8410.11,5423.01 8410.11,5398.31 C 8410.11,5373.18 8382.39,5340.87 8382.39,5340.87 C 8382.39,5340.87 8604.15,5398.31 8604.15,5398.31 C 8604.15,5398.31 8604.15,5398.31 8604.15,5398.31 "
     id="path29" />
  <text
     x="0"
     y="0"
     stroke="none"
     fill="#ff0000"
     transform="matrix(0.05 0 0 0.05 375.349 280.11)"
     font-style="normal"
     font-weight="bold"
     font-size="144px"
     font-family="Arial"
     id="text29">
O</text>
  <text
     x="0"
     y="0"
     stroke="none"
     fill="#ff0000"
     transform="matrix(0.05 0 0 0.05 385.908 274.128)"
     font-style="normal"
     font-weight="bold"
     font-size="144px"
     font-family="Arial"
     id="text30">
N</text>
  <path
     stroke="none"
     fill="#ff0000"
     transform="matrix(0.05 0 0 0.05 -10 -11)"
     d="M 7822.57,5720.88 L 7813.7,5705.52 L 7880.41,5666.99 L 7889.29,5682.36 L 7822.57,5720.88 Z "
     id="path30" />
  <path
     stroke="none"
     fill="#ff0000"
     transform="matrix(0.05 0 0 0.05 -10 -11)"
     d="M 7844.75,5759.29 L 7835.88,5743.93 L 7902.59,5705.4 L 7911.47,5720.76 L 7844.75,5759.29 Z "
     id="path31" />
  <text
     x="0"
     y="0"
     stroke="none"
     fill="#ff0000"
     transform="matrix(0.05 0 0 0.05 396.066 268.154)"
     font-style="normal"
     font-weight="bold"
     font-size="144px"
     font-family="Arial"
     id="text31">
O</text>
  <path
     stroke="none"
     fill="#ff0000"
     transform="matrix(0.05 0 0 0.05 -10 -11)"
     d="M 8037.3,5596.94 L 8028.44,5581.57 L 8093.93,5543.8 L 8102.79,5559.17 L 8037.3,5596.94 Z "
     id="path32" />
  <path
     stroke="none"
     fill="#ff0000"
     transform="matrix(0.05 0 0 0.05 -10 -11)"
     d="M 8059.46,5635.35 L 8050.6,5619.99 L 8116.08,5582.22 L 8124.95,5597.59 L 8059.46,5635.35 Z "
     id="path33" />
  <path
     stroke="#ff0000"
     stroke-width="14"
     fill="none"
     transform="matrix(0.05 0 0 0.05 -10 -11)"
     d="M 7844,5537.2 A 55.0962,55.0962 0 1 0 7954.2,5537.2A 55.0962,55.0962 0 1 0 7844,5537.2Z "
     id="path34" />
  <path
     stroke="none"
     fill="#ff0000"
     transform="matrix(0.05 0 0 0.05 -10 -11)"
     d="M 7866.23,5530.2 L 7931.97,5530.2 L 7931.97,5544.2 L 7866.23,5544.2 Z "
     id="path35" />
  <path
     stroke="none"
     fill="#ff0000"
     transform="matrix(0.05 0 0 0.05 -10 -11)"
     d="M 7906.1,5504.33 L 7906.1,5570.07 L 7892.1,5570.07 L 7892.1,5504.33 Z "
     id="path36" />
  <text
     x="0"
     y="0"
     stroke="none"
     fill="#000000"
     transform="matrix(0.05 0 0 0.05 345.926 250.177)"
     font-style="normal"
     font-weight="bold"
     font-size="200px"
     font-family="Arial"
     id="text36">
HNO</text>
  <text
     x="0"
     y="0"
     stroke="none"
     fill="#000000"
     transform="matrix(0.05 0 0 0.05 368.148 252.296)"
     font-style="normal"
     font-weight="bold"
     font-size="150px"
     font-family="Arial"
     id="text37">
3</text>
  <text
     x="0"
     y="0"
     stroke="none"
     fill="#000000"
     transform="matrix(0.05 0 0 0.05 372.319 250.177)"
     font-style="normal"
     font-weight="bold"
     font-size="200px"
     font-family="Arial"
     id="text38">
, </text>
  <text
     x="0"
     y="0"
     stroke="none"
     fill="#000000"
     transform="matrix(0.05 0 0 0.05 377.876 250.177)"
     font-style="normal"
     font-weight="bold"
     font-size="200px"
     font-family="Arial"
     id="text39">
H</text>
  <text
     x="0"
     y="0"
     stroke="none"
     fill="#000000"
     transform="matrix(0.05 0 0 0.05 385.097 252.296)"
     font-style="normal"
     font-weight="bold"
     font-size="150px"
     font-family="Arial"
     id="text40">
2</text>
  <text
     x="0"
     y="0"
     stroke="none"
     fill="#000000"
     transform="matrix(0.05 0 0 0.05 389.268 250.177)"
     font-style="normal"
     font-weight="bold"
     font-size="200px"
     font-family="Arial"
     id="text41">
SO</text>
  <text
     x="0"
     y="0"
     stroke="none"
     fill="#000000"
     transform="matrix(0.05 0 0 0.05 403.717 252.296)"
     font-style="normal"
     font-weight="bold"
     font-size="150px"
     font-family="Arial"
     id="text42">
4</text>
  <text
     x="0"
     y="0"
     stroke="none"
     fill="#000000"
     transform="matrix(0.05 0 0 0.05 358.075 290.457)"
     font-style="italic"
     font-weight="normal"
     font-size="160px"
     font-family="Arial"
     id="text43">
nitration</text>
  <text
     x="0"
     y="0"
     stroke="none"
     fill="#000000"
     transform="matrix(0.05 0 0 0.05 350.595 269.828)"
     font-style="normal"
     font-weight="normal"
     font-size="160px"
     font-family="Arial"
     id="text44">
S</text>
  <text
     x="0"
     y="0"
     stroke="none"
     fill="#000000"
     transform="matrix(0.05 0 0 0.05 355.931 271.523)"
     font-style="normal"
     font-weight="normal"
     font-size="120px"
     font-family="Arial"
     id="text45">
E</text>
  <text
     x="0"
     y="0"
     stroke="none"
     fill="#000000"
     transform="matrix(0.05 0 0 0.05 359.933 269.828)"
     font-style="normal"
     font-weight="normal"
     font-size="160px"
     font-family="Arial"
     id="text46">
Ar</text>
  <path
     stroke="none"
     fill="#000000"
     transform="matrix(0.05 0 0 0.05 -10 -11)"
     d="M 8849.55,5244.41 L 8871.76,5257.24 L 8871.76,5544.48 L 8849.55,5557.31 L 8849.55,5244.41 Z "
     id="path46" />
  <path
     stroke="none"
     fill="#000000"
     transform="matrix(0.05 0 0 0.05 -10 -11)"
     d="M 8905.48,5283.11 L 8927.66,5283.11 L 8927.66,5518.61 L 8905.48,5518.61 L 8905.48,5283.11 Z "
     id="path47" />
  <path
     stroke="none"
     fill="#000000"
     transform="matrix(0.05 0 0 0.05 -10 -11)"
     d="M 8849.55,5557.31 L 8871.76,5544.48 L 9120.51,5688.1 L 9120.51,5713.76 L 8849.55,5557.31 Z "
     id="path48" />
  <path
     stroke="none"
     fill="#000000"
     transform="matrix(0.05 0 0 0.05 -10 -11)"
     d="M 9120.51,5713.76 L 9120.51,5688.1 L 9369.25,5544.48 L 9391.46,5557.31 L 9120.51,5713.76 Z "
     id="path49" />
  <path
     stroke="none"
     fill="#000000"
     transform="matrix(0.05 0 0 0.05 -10 -11)"
     d="M 9126.05,5645.96 L 9114.96,5626.76 L 9318.9,5509.01 L 9329.99,5528.21 L 9126.05,5645.96 Z "
     id="path50" />
  <path
     stroke="none"
     fill="#000000"
     transform="matrix(0.05 0 0 0.05 -10 -11)"
     d="M 9391.46,5557.31 L 9369.25,5544.48 L 9369.25,5257.24 L 9391.46,5244.41 L 9391.46,5557.31 Z "
     id="path51" />
  <path
     stroke="none"
     fill="#000000"
     transform="matrix(0.05 0 0 0.05 -10 -11)"
     d="M 9391.46,5244.41 L 9369.25,5257.24 L 9120.51,5113.62 L 9120.51,5101.34 L 9130.91,5095.05 L 9391.46,5244.41 Z "
     id="path52" />
  <path
     stroke="none"
     fill="#000000"
     transform="matrix(0.05 0 0 0.05 -10 -11)"
     d="M 9329.99,5273.5 L 9318.9,5292.71 L 9114.96,5174.96 L 9126.05,5155.75 L 9329.99,5273.5 Z "
     id="path53" />
  <path
     stroke="none"
     fill="#000000"
     transform="matrix(0.05 0 0 0.05 -10 -11)"
     d="M 9110.1,5095.05 L 9120.51,5101.34 L 9120.51,5113.62 L 8871.76,5257.24 L 8849.55,5244.41 L 9110.1,5095.05 Z "
     id="path54" />
  <text
     x="0"
     y="0"
     stroke="none"
     fill="#0000ff"
     transform="matrix(0.05 0 0 0.05 442.776 232.312)"
     font-style="normal"
     font-weight="bold"
     font-size="180px"
     font-family="Arial"
     id="text54">
NO</text>
  <text
     x="0"
     y="0"
     stroke="none"
     fill="#0000ff"
     transform="matrix(0.05 0 0 0.05 456.276 234.219)"
     font-style="normal"
     font-weight="bold"
     font-size="135px"
     font-family="Arial"
     id="text55">
2</text>
  <path
     stroke="none"
     fill="#000000"
     transform="matrix(0.05 0 0 0.05 -10 -11)"
     d="M 9130.91,5095.05 L 9120.51,5101.34 L 9110.1,5095.05 L 9109.42,4896.54 L 9131.59,4896.54 L 9130.91,5095.05 Z "
     id="path55" />
  <path
     stroke="#ffffff"
     opacity="0"
     onclick="window.location.href = 'aromatic.svg'"
     transform="matrix(0.05 0 0 0.05 -10 -11)"
     d="M 6835.4,5848.7 C 6835.4,5848.7 6835.4,4646.5 6835.4,4646.5 C 6835.4,4646.5 5933.5,4646.5 5933.5,4646.5 C 5933.5,4646.5 5933.5,5848.7 5933.5,5848.7 C 5933.5,5848.7 6835.4,5848.7 6835.4,5848.7 "
     id="path2"
     inkscape:label="l-aromatic" />
  <path
     stroke="#ffffff"
     opacity="0"
     onclick="window.location.href = 'nitro.svg'"
     d="m 514.31787,302.72768 c 0,0 0,-81.18752 0,-81.18752 0,0 -93.53891,0 -93.53891,0 0,0 0,81.18752 0,81.18752 0,0 93.53891,0 93.53891,0"
     id="path2-4"
     inkscape:label="l-nitro"
     style="opacity:0" />
  <path
     stroke="#ffffff"
     opacity="0"
     onclick="window.location.href = 'supplement.svg'"
     d="m 420.26282,294.60714 c 0,0 0,-68.04651 0,-68.04651 0,0 -80.3979,0 -80.3979,0 0,0 0,68.04651 0,68.04651 0,0 80.3979,0 80.3979,0"
     id="path2-4-8"
     inkscape:label="l-supplement"
     style="opacity:0;stroke-width:0.848759" />

  <g
     id="noreactants"
     onclick="window.location.href = 'tonitro-noreactants.svg'"
     transform="translate(-4.6856272,378.9067)">
    <text
       x="11.200497"
       y="54.141506"
       stroke="none"
       fill="#000000"
       font-style="normal"
       font-weight="bold"
       font-size="200px"
       font-family="Helvetica"
       id="gobacktext-7"
       style="font-style:normal;font-weight:bold;font-size:10px;font-family:Helvetica;fill:#000000;fill-opacity:0.443609;stroke:none;stroke-width:0.05"
       inkscape:label="noreagents-text"><tspan
         sodipodi:role="line"
         id="tspan2"
         x="11.200497"
         y="54.141506"
         style="font-style:normal;font-variant:normal;font-weight:bold;font-stretch:normal;font-size:8px;font-family:Helvetica;-inkscape-font-specification:'Helvetica, Bold';font-variant-ligatures:normal;font-variant-caps:normal;font-variant-numeric:normal;font-variant-east-asian:normal;fill:#000000;fill-opacity:0.5;stroke-width:0.05">reactants</tspan></text>
    <rect
       style="fill:#000000;fill-opacity:0.821053;fill-rule:evenodd;stroke:#a13033;stroke-width:0;stroke-linecap:round;stroke-miterlimit:2;stroke-dasharray:none;paint-order:markers fill stroke"
       id="rect3"
       width="31.666824"
       height="0.9773711"
       x="12.224979"
       y="51.518982"
       inkscape:label="noreagents-line" />
    <path
       stroke="none"
       fill="#999999"
       d="m 9.795,54.694678 c 0,0 0,-5.427567 0,-5.427567 0,-2.098514 1.463398,-3.801611 3.266274,-3.801611 0,0 30.608907,0 30.608907,0 1.803073,0 3.266397,1.703097 3.266397,3.801611 0,0 0,5.427567 0,5.427567 0,2.098514 -1.463324,3.801611 -3.266397,3.801611 0,0 -30.608907,0 -30.608907,0 -1.802876,0 -3.266274,-1.703097 -3.266274,-3.801611"
       id="goback-box-8"
       style="fill:#999999;fill-opacity:0.336842;stroke-width:0.0264832"
       inkscape:label="noreagents-box" />
  </g>
  <g
     id="noreagents"
     onclick="window.location.href = 'tonitro-noreagents.svg'"
     transform="translate(-4.6856272,382.9067)">
    <text
       x="11.541888"
       y="67.610527"
       stroke="none"
       fill="#000000"
       font-style="normal"
       font-weight="bold"
       font-size="200px"
       font-family="Helvetica"
       id="gobacktext-7-8"
       style="font-style:normal;font-weight:bold;font-size:10px;font-family:Helvetica;fill:#000000;fill-opacity:0.443609;stroke:none;stroke-width:0.05"
       inkscape:label="noproducts-text"><tspan
         sodipodi:role="line"
         id="tspan2-5"
         x="11.541888"
         y="67.610527"
         style="font-style:normal;font-variant:normal;font-weight:bold;font-stretch:normal;font-size:8px;font-family:Helvetica;-inkscape-font-specification:'Helvetica, Bold';font-variant-ligatures:normal;font-variant-caps:normal;font-variant-numeric:normal;font-variant-east-asian:normal;fill:#000000;fill-opacity:0.5;stroke-width:0.05">reagents</tspan></text>
    <rect
       style="fill:#000000;fill-opacity:0.821053;fill-rule:evenodd;stroke:#a13033;stroke-width:0;stroke-linecap:round;stroke-miterlimit:2;stroke-dasharray:none;paint-order:markers fill stroke"
       id="rect3-9"
       width="31.666824"
       height="0.9773711"
       x="12.566371"
       y="64.987999"
       inkscape:label="noproducts-line" />
    <path
       stroke="none"
       fill="#999999"
       d="m 10.136392,68.163695 c 0,0 0,-5.427567 0,-5.427567 0,-2.098514 1.463398,-3.801611 3.266274,-3.801611 0,0 30.608907,0 30.608907,0 1.803073,0 3.266397,1.703097 3.266397,3.801611 0,0 0,5.427567 0,5.427567 0,2.098514 -1.463324,3.801611 -3.266397,3.801611 0,0 -30.608907,0 -30.608907,0 -1.802876,0 -3.266274,-1.703097 -3.266274,-3.801611"
       id="goback-box-8-6"
       style="fill:#999999;fill-opacity:0.336842;stroke-width:0.0264832"
       inkscape:label="noproducts-box" />
  </g>

  <text x="822.84332" y="415.79849" stroke="none" fill="#000000" transform="matrix(0.92407999,-0.00322566,0.00377741,1.0821442,0,0)" font-style="italic" font-weight="bold" font-size="8.25806px" font-family="'Helvetica Oblique'" id="text11" style="opacity:1;fill:#00009a;fill-opacity:0.651128;stroke-width:0.0412903">chemisfun</text>
  <g id="overlay-box" style="opacity:0" transform="matrix(0.31364504,0,0,0.8007311,650.50736,385.81436)">
    <rect style="fill:#609975;fill-opacity:0.2;stroke:#609970;stroke-width:0;stroke-linecap:round;stroke-opacity:0.657143;paint-order:fill markers stroke" id="rect285" width="164.84744" height="59.583412" x="329.69489" y="23.171328" />
  </g>
  <g id="overlay" onclick="window.location.href = 'about.svg'" onmouseover="this.ownerDocument.getElementById('overlay-box').style.opacity='0.5'" onmouseout="this.ownerDocument.getElementById('overlay-box').style.opacity='0'" transform="matrix(0.76550767,-0.0030054,0.00267214,0.86098131,195.61318,22.784653)">
    <rect style="opacity:0.5;fill:#ffffff;fill-opacity:0;stroke-linecap:round;stroke-opacity:0.657143;paint-order:stroke fill markers" id="rect2" width="65.93074" height="55.035408" x="733.06049" y="445.87061" />
  </g>
  <g id="g1" transform="matrix(0.0625,0,0,0.0625,764.65732,406.62566)">
    <rect x="239.31" y="120.321" style="fill:#444242" width="33.389" height="139.98" id="rect1" />
    <rect x="256" y="120.321" style="fill:#3a3839" width="16.695" height="139.98" id="rect2-2" />
    <rect x="132.194" y="305.86301" transform="matrix(0.5,0.866,-0.866,0.5,399.932,58.9793)" style="fill:#444242" width="33.387001" height="139.967" id="rect3" />
    <rect x="293.125" y="359.13" transform="matrix(0.866,0.5,-0.5,0.866,236.5654,-131.205)" style="fill:#3a3839" width="139.967" height="33.387001" id="rect4" />
    <path style="background-color:#ffffff00;fill:#439de2;fill-opacity:1" d="m 456.843,485.07 c -9.538,0 -18.951,-2.501 -27.432,-7.398 v 0 c -12.733,-7.351 -21.842,-19.221 -25.646,-33.424 -3.805,-14.201 -1.853,-29.035 5.499,-41.769 7.351,-12.732 19.221,-21.841 33.424,-25.646 14.201,-3.806 29.034,-1.853 41.769,5.499 12.732,7.351 21.841,19.221 25.646,33.424 3.805,14.202 1.853,29.035 -5.499,41.769 -7.351,12.733 -19.221,21.842 -33.424,25.646 -4.742,1.27 -9.557,1.899 -14.337,1.899 z" id="path7-3" />
    <path style="background-color:#ffffff00;fill:#eda74a;fill-opacity:1" d="m 256.001,137.021 c -30.352,0 -55.044,-24.693 -55.044,-55.044 0,-30.351 24.693,-55.044 55.044,-55.044 30.351,0 55.044,24.693 55.044,55.044 0,30.351 -24.693,55.044 -55.044,55.044 z" id="path5-4" />
    <path style="background-color:#ffffff00;fill:#53acb1;fill-opacity:1" d="m 55.158,485.07 c -4.781,0 -9.594,-0.629 -14.336,-1.9 C 26.619,479.365 14.75,470.256 7.398,457.524 0.046,444.792 -1.906,429.957 1.899,415.755 c 3.805,-14.203 12.914,-26.072 25.646,-33.424 12.731,-7.352 27.567,-9.304 41.769,-5.499 14.203,3.805 26.072,12.914 33.424,25.646 7.352,12.732 9.304,27.567 5.499,41.769 -3.805,14.203 -12.914,26.072 -25.646,33.424 -8.481,4.897 -17.896,7.399 -27.433,7.399 z" id="path6-7" />
    <path style="fill:#f74d37" d="m 256.001,384.379 c -38.81,0 -70.384,-31.575 -70.384,-70.384 0,-38.809 31.575,-70.384 70.384,-70.384 38.809,0 70.384,31.575 70.384,70.384 0,38.809 -31.575,70.384 -70.384,70.384 z" id="path4-9" />
  </g>
</svg>
