<?xml version="1.0" encoding="UTF-8" standalone="no"?>
<svg
   width="100%"
   height="100%"
   viewBox="0 0 818 460"
   style="background-color: #ffffff00"
   version="1.1"
   id="svg84"
   sodipodi:docname="toorganometallics.svg"
   inkscape:version="1.4.2 (ebf0e940, 2025-05-08)"
   xmlns:inkscape="http://www.inkscape.org/namespaces/inkscape"
   xmlns:sodipodi="http://sodipodi.sourceforge.net/DTD/sodipodi-0.dtd"
   xmlns="http://www.w3.org/2000/svg"
   xmlns:svg="http://www.w3.org/2000/svg">
  <path
     stroke="#ffffff"
     stroke-width="1"
     fill="none"
     transform="matrix(0.05 0 0 0.05 -10 -11)"
     d="M 6290.6,4132.2 C 6290.6,4132.2 6290.6,3222.4 6290.6,3222.4 C 6290.6,3222.4 5480.2,3222.4 5480.2,3222.4 C 5480.2,3222.4 5480.2,4132.2 5480.2,4132.2 C 5480.2,4132.2 6290.6,4132.2 6290.6,4132.2 "
     id="path2" />
  <path
     stroke="#ffffff"
     stroke-width="1"
     fill="none"
     transform="matrix(0.05 0 0 0.05 -10 -11)"
     d="M 6517.8,7142.6 C 6517.8,7142.6 6517.8,6630.4 6517.8,6630.4 C 6517.8,6630.4 5324,6630.4 5324,6630.4 C 5324,6630.4 5324,7142.6 5324,7142.6 C 5324,7142.6 6517.8,7142.6 6517.8,7142.6 "
     id="path4" />
  <path
     stroke="#000000"
     stroke-width="22"
     fill="none"
     transform="matrix(0.05 0 0 0.05 -10 -11)"
     d="M 16494.7,9367.47 C 16494.7,9367.47 16494.7,284.602 16494.7,284.602 C 16494.7,284.602 268.683,284.602 268.683,284.602 C 268.683,284.602 268.683,9367.47 268.683,9367.47 C 268.683,9367.47 16494.7,9367.47 16494.7,9367.47 "
     id="path7" />
  <text
     x="0"
     y="0"
     stroke="none"
     fill="#000000"
     transform="matrix(0.05 0 0 0.05 11.735 21.13)"
     font-style="normal"
     font-weight="bold"
     font-size="320px"
     font-family="Helvetica"
     id="text7">
Preparation of Organometallic Reagents</text>
  <text
     x="0"
     y="0"
     stroke="none"
     fill="#999999"
     transform="matrix(0.05 0 0 0.05 11.9381 39.085)"
     font-style="normal"
     font-weight="normal"
     font-size="320px"
     font-family="Helvetica"
     id="text11">
click for more</text>
  <g
     id="goback"
     onclick="window.location.href = 'index-o1.svg'"
     onmouseover="document.getElementById('goback-box').setAttribute('opacity','0.5');"
     onmouseout="document.getElementById('goback-box').setAttribute('opacity','1')">
    <path
       stroke="none"
       fill="#999999"
       transform="matrix(0.05 0 0 0.05 -10 -11)"
       d="M 395.9,1492.34 C 395.9,1492.34 395.9,1302.37 395.9,1302.37 C 395.9,1228.92 455.513,1169.31 528.955,1169.31 C 528.955,1169.31 1775.84,1169.31 1775.84,1169.31 C 1849.29,1169.31 1908.9,1228.92 1908.9,1302.37 C 1908.9,1302.37 1908.9,1492.34 1908.9,1492.34 C 1908.9,1565.79 1849.29,1625.4 1775.84,1625.4 C 1775.84,1625.4 528.955,1625.4 528.955,1625.4 C 455.513,1625.4 395.9,1565.79 395.9,1492.34 "
       id="goback-box" />
    <text
       x="0"
       y="0"
       stroke="none"
       fill="#000000"
       transform="matrix(0.05 0 0 0.05 29.3796 61.765)"
       font-style="normal"
       font-weight="bold"
       font-size="200px"
       font-family="Helvetica"
       id="gobacktext">
go home</text>
    <path
       stroke="#999999"
       stroke-width="1"
       transform="matrix(0.05 0 0 0.05 -10 -11)"
       d="M 395.9,1492.34 C 395.9,1492.34 395.9,1302.37 395.9,1302.37 C 395.9,1228.92 455.513,1169.31 528.955,1169.31 C 528.955,1169.31 1775.84,1169.31 1775.84,1169.31 C 1849.29,1169.31 1908.9,1228.92 1908.9,1302.37 C 1908.9,1302.37 1908.9,1492.34 1908.9,1492.34 C 1908.9,1565.79 1849.29,1625.4 1775.84,1625.4 C 1775.84,1625.4 528.955,1625.4 528.955,1625.4 C 455.513,1625.4 395.9,1565.79 395.9,1492.34 "
       onclick="window.location.href = 'index-o1.svg'"
       style="opacity:0"
       id="goback-link" />
  </g>
  <g
     id="howdotheyreact"
     onclick="window.location.href = 'organometallics-o1.svg'"
     onmouseover="document.getElementById('howdotheyreact-box').setAttribute('opacity','0.5');"
     onmouseout="document.getElementById('howdotheyreact-box').setAttribute('opacity','1')">
    <path
       stroke="none"
       fill="#999999"
       transform="matrix(0.05 0 0 0.05 -10 -11)"
       d="M 381.591,1996.7 C 381.591,1996.7 381.591,1806.72 381.591,1806.72 C 381.591,1733.28 441.204,1673.66 514.646,1673.66 C 514.646,1673.66 2149.06,1673.66 2149.06,1673.66 C 2222.51,1673.66 2282.12,1733.28 2282.12,1806.72 C 2282.12,1806.72 2282.12,1996.7 2282.12,1996.7 C 2282.12,2070.14 2222.51,2129.75 2149.06,2129.75 C 2149.06,2129.75 514.646,2129.75 514.646,2129.75 C 441.204,2129.75 381.591,2070.14 381.591,1996.7 "
       id="howdotheyreact-box" />
    <text
       x="0"
       y="0"
       stroke="none"
       fill="#000000"
       transform="matrix(0.05 0 0 0.05 12.2417 86.9826)"
       font-style="normal"
       font-weight="bold"
       font-size="200px"
       font-family="Helvetica"
       id="howdotheyreact-text">
how do they react?</text>
    <path
       stroke="#999999"
       stroke-width="1"
       transform="matrix(0.05 0 0 0.05 -10 -11)"
       d="M 381.591,1996.7 C 381.591,1996.7 381.591,1806.72 381.591,1806.72 C 381.591,1733.28 441.204,1673.66 514.646,1673.66 C 514.646,1673.66 2149.06,1673.66 2149.06,1673.66 C 2222.51,1673.66 2282.12,1733.28 2282.12,1806.72 C 2282.12,1806.72 2282.12,1996.7 2282.12,1996.7 C 2282.12,2070.14 2222.51,2129.75 2149.06,2129.75 C 2149.06,2129.75 514.646,2129.75 514.646,2129.75 C 441.204,2129.75 381.591,2070.14 381.591,1996.7 "
       style="opacity:0"
       id="howdotheyreact-link" />
  </g>
  <path
     stroke="none"
     fill="#000000"
     transform="matrix(0.05 0 0 0.05 -10 -11)"
     d="M 7608.01,3688.85 L 6333.2,3688.85 L 6333.2,3666.85 L 7608.01,3666.85 Z "
     id="path19" />
  <path
     stroke="none"
     fill="#000000"
     transform="matrix(0.05 0 0 0.05 -10 -11)"
     d="M 7603.42,5288.3 L 7603.42,2478.39 L 7625.42,2478.39 L 7625.42,5288.3 Z "
     id="path20" />
  <path
     stroke="none"
     fill="#000000"
     transform="matrix(0.05 0 0 0.05 -10 -11)"
     d="M 8863.09,2489.39 L 7614.42,2489.39 L 7614.42,2467.39 L 8863.09,2467.39 Z "
     id="path21" />
  <path
     stroke="none"
     fill="#000000"
     transform="matrix(0.05 0 0 0.05 -10 -11)"
     d="M 9056.12,2478.39 C 9056.12,2478.39 8834.37,2534.83 8834.37,2534.83 C 8834.37,2534.83 8862.09,2503.08 8862.09,2478.39 C 8862.09,2453.26 8834.37,2420.95 8834.37,2420.95 C 8834.37,2420.95 9056.12,2478.39 9056.12,2478.39 C 9056.12,2478.39 9056.12,2478.39 9056.12,2478.39 "
     id="path22" />
  <path
     stroke="#000000"
     stroke-width="1"
     fill="none"
     transform="matrix(0.05 0 0 0.05 -10 -11)"
     d="M 9056.12,2478.39 C 9056.12,2478.39 8834.37,2534.83 8834.37,2534.83 C 8834.37,2534.83 8862.09,2503.08 8862.09,2478.39 C 8862.09,2453.26 8834.37,2420.95 8834.37,2420.95 C 8834.37,2420.95 9056.12,2478.39 9056.12,2478.39 C 9056.12,2478.39 9056.12,2478.39 9056.12,2478.39 "
     id="path23" />
  <path
     stroke="none"
     fill="#000000"
     transform="matrix(0.05 0 0 0.05 -10 -11)"
     d="M 8863.09,3690.59 L 7614.42,3690.59 L 7614.42,3668.59 L 8863.09,3668.59 Z "
     id="path24" />
  <path
     stroke="none"
     fill="#000000"
     transform="matrix(0.05 0 0 0.05 -10 -11)"
     d="M 9056.12,3679.59 C 9056.12,3679.59 8834.37,3736.03 8834.37,3736.03 C 8834.37,3736.03 8862.09,3704.28 8862.09,3679.59 C 8862.09,3654.46 8834.37,3622.15 8834.37,3622.15 C 8834.37,3622.15 9056.12,3679.59 9056.12,3679.59 C 9056.12,3679.59 9056.12,3679.59 9056.12,3679.59 "
     id="path25" />
  <path
     stroke="#000000"
     stroke-width="1"
     fill="none"
     transform="matrix(0.05 0 0 0.05 -10 -11)"
     d="M 9056.12,3679.59 C 9056.12,3679.59 8834.37,3736.03 8834.37,3736.03 C 8834.37,3736.03 8862.09,3704.28 8862.09,3679.59 C 8862.09,3654.46 8834.37,3622.15 8834.37,3622.15 C 8834.37,3622.15 9056.12,3679.59 9056.12,3679.59 C 9056.12,3679.59 9056.12,3679.59 9056.12,3679.59 "
     id="path26" />
  <path
     stroke="none"
     fill="#000000"
     transform="matrix(0.05 0 0 0.05 -10 -11)"
     d="M 8863.09,5299.3 L 7614.42,5299.3 L 7614.42,5277.3 L 8863.09,5277.3 Z "
     id="path27" />
  <path
     stroke="none"
     fill="#000000"
     transform="matrix(0.05 0 0 0.05 -10 -11)"
     d="M 9056.12,5288.3 C 9056.12,5288.3 8834.37,5344.74 8834.37,5344.74 C 8834.37,5344.74 8862.09,5312.99 8862.09,5288.3 C 8862.09,5263.17 8834.37,5230.86 8834.37,5230.86 C 8834.37,5230.86 9056.12,5288.3 9056.12,5288.3 C 9056.12,5288.3 9056.12,5288.3 9056.12,5288.3 "
     id="path28" />
  <path
     stroke="#000000"
     stroke-width="1"
     fill="none"
     transform="matrix(0.05 0 0 0.05 -10 -11)"
     d="M 9056.12,5288.3 C 9056.12,5288.3 8834.37,5344.74 8834.37,5344.74 C 8834.37,5344.74 8862.09,5312.99 8862.09,5288.3 C 8862.09,5263.17 8834.37,5230.86 8834.37,5230.86 C 8834.37,5230.86 9056.12,5288.3 9056.12,5288.3 C 9056.12,5288.3 9056.12,5288.3 9056.12,5288.3 "
     id="path29" />
  <path
     stroke="none"
     fill="#000000"
     transform="matrix(0.05 0 0 0.05 -10 -11)"
     d="M 9169.18,2223.23 L 9180.27,2204.03 L 9434.12,2351.11 L 9434.12,2363.39 L 9423.72,2369.69 L 9169.18,2223.23 Z "
     id="path30" />
  <path
     stroke="none"
     fill="#000000"
     transform="matrix(0.05 0 0 0.05 -10 -11)"
     d="M 9444.52,2369.69 L 9434.12,2363.39 L 9434.12,2351.11 L 9687.97,2204.03 L 9699.05,2223.23 L 9444.52,2369.69 Z "
     id="path31" />
  <text
     x="0"
     y="0"
     stroke="none"
     fill="#000000"
     transform="matrix(0.05 0 0 0.05 457.957 125.384)"
     font-style="normal"
     font-weight="bold"
     font-size="180px"
     font-family="Helvetica"
     id="text31">
MgBr</text>
  <path
     stroke="none"
     fill="#000000"
     transform="matrix(0.05 0 0 0.05 -10 -11)"
     d="M 9423.72,2369.69 L 9434.12,2363.39 L 9444.52,2369.69 L 9445.21,2566.9 L 9423.03,2566.9 L 9423.72,2369.69 Z "
     id="path32" />
  <path
     stroke="none"
     fill="#000000"
     transform="matrix(0.05 0 0 0.05 -10 -11)"
     d="M 9163.09,3581.73 L 9174.18,3562.53 L 9428.03,3709.61 L 9428.03,3721.89 L 9417.62,3728.19 L 9163.09,3581.73 Z "
     id="path33" />
  <path
     stroke="none"
     fill="#000000"
     transform="matrix(0.05 0 0 0.05 -10 -11)"
     d="M 9438.43,3728.19 L 9428.03,3721.89 L 9428.03,3709.61 L 9681.87,3562.53 L 9692.96,3581.73 L 9438.43,3728.19 Z "
     id="path34" />
  <text
     x="0"
     y="0"
     stroke="none"
     fill="#000000"
     transform="matrix(0.05 0 0 0.05 458.653 193.309)"
     font-style="normal"
     font-weight="bold"
     font-size="180px"
     font-family="Helvetica"
     id="text34">
Li</text>
  <path
     stroke="none"
     fill="#000000"
     transform="matrix(0.05 0 0 0.05 -10 -11)"
     d="M 9417.62,3728.19 L 9428.03,3721.89 L 9438.43,3728.19 L 9439.11,3926 L 9416.94,3926 L 9417.62,3728.19 Z "
     id="path35" />
  <path
     stroke="none"
     fill="#000000"
     transform="matrix(0.05 0 0 0.05 -10 -11)"
     d="M 9391.33,4918.79 L 9402.42,4899.59 L 9656.27,5046.67 L 9656.27,5058.95 L 9645.87,5065.25 L 9391.33,4918.79 Z "
     id="path36" />
  <path
     stroke="none"
     fill="#000000"
     transform="matrix(0.05 0 0 0.05 -10 -11)"
     d="M 9666.67,5065.25 L 9656.27,5058.95 L 9656.27,5046.67 L 9910.12,4899.59 L 9921.2,4918.79 L 9666.67,5065.25 Z "
     id="path37" />
  <text
     x="0"
     y="0"
     stroke="none"
     fill="#000000"
     transform="matrix(0.05 0 0 0.05 469.564 260.162)"
     font-style="normal"
     font-weight="bold"
     font-size="180px"
     font-family="Helvetica"
     id="text37">
Cu</text>
  <path
     stroke="none"
     fill="#000000"
     transform="matrix(0.05 0 0 0.05 -10 -11)"
     d="M 9645.87,5065.25 L 9656.27,5058.95 L 9666.67,5065.25 L 9667.36,5261.23 L 9645.18,5261.23 L 9645.87,5065.25 Z "
     id="path38" />
  <text
     x="0"
     y="0"
     stroke="none"
     fill="#000000"
     transform="matrix(0.05 0 0 0.05 401.049 167.787)"
     font-style="normal"
     font-weight="bold"
     font-size="200px"
     font-family="Helvetica"
     id="text38">
Li</text>
  <path
     stroke="none"
     fill="#000000"
     transform="matrix(0.05 0 0 0.05 -10 -11)"
     d="M 9566.21,5371.12 L 9571.95,5392.54 L 9375.72,5444.43 L 9366.95,5435.99 L 9370.33,5424.3 L 9566.21,5371.12 Z "
     id="path39" />
  <path
     stroke="none"
     fill="#000000"
     transform="matrix(0.05 0 0 0.05 -10 -11)"
     d="M 9355.09,5439.17 L 9366.95,5435.99 L 9375.72,5444.43 L 9300.14,5728.18 L 9278.72,5722.44 L 9355.09,5439.17 Z "
     id="path40" />
  <path
     stroke="none"
     fill="#000000"
     transform="matrix(0.05 0 0 0.05 -10 -11)"
     d="M 9370.33,5424.3 L 9366.95,5435.99 L 9355.09,5439.17 L 9147.32,5232.04 L 9163,5216.36 L 9370.33,5424.3 Z "
     id="path41" />
  <text
     x="0"
     y="0"
     stroke="none"
     fill="#000000"
     transform="matrix(0.05 0 0 0.05 478.276 270.802)"
     font-style="normal"
     font-weight="bold"
     font-size="200px"
     font-family="Helvetica"
     id="text41">
Li</text>
  <path
     stroke="#000000"
     stroke-width="18"
     fill="none"
     transform="matrix(0.05 0 0 0.05 -10 -11)"
     d="M 9802.36,5196.29 A 68.8704,68.8704 0 1 0 9940.1,5196.29A 68.8704,68.8704 0 1 0 9802.36,5196.29Z "
     id="path42" />
  <path
     stroke="none"
     fill="#000000"
     transform="matrix(0.05 0 0 0.05 -10 -11)"
     d="M 9830.14,5187.29 L 9912.32,5187.29 L 9912.32,5205.29 L 9830.14,5205.29 Z "
     id="path43" />
  <path
     stroke="#000000"
     stroke-width="18"
     fill="none"
     transform="matrix(0.05 0 0 0.05 -10 -11)"
     d="M 9923.3,5426.48 A 68.8704,68.8704 0 1 0 10061,5426.48A 68.8704,68.8704 0 1 0 9923.3,5426.48Z "
     id="path44" />
  <path
     stroke="none"
     fill="#000000"
     transform="matrix(0.05 0 0 0.05 -10 -11)"
     d="M 9951.08,5417.48 L 10033.3,5417.48 L 10033.3,5435.48 L 9951.08,5435.48 Z "
     id="path45" />
  <path
     stroke="none"
     fill="#000000"
     transform="matrix(0.05 0 0 0.05 -10 -11)"
     d="M 10001.2,5385.39 L 10001.2,5467.57 L 9983.17,5467.57 L 9983.17,5385.39 Z "
     id="path46" />
  <text
     x="0"
     y="0"
     stroke="none"
     fill="#000000"
     transform="matrix(0.05 0 0 0.05 391.718 237.705)"
     font-style="normal"
     font-weight="bold"
     font-size="200px"
     font-family="Helvetica"
     id="text46">
1) </text>
  <text
     x="0"
     y="0"
     stroke="none"
     fill="#000000"
     transform="matrix(0.05 0 0 0.05 403.388 237.705)"
     font-style="normal"
     font-weight="bold"
     font-size="200px"
     font-family="Helvetica"
     id="text47">
Li</text>
  <text
     x="0"
     y="0"
     stroke="none"
     fill="#000000"
     transform="matrix(0.05 0 0 0.05 391.718 248.222)"
     font-style="normal"
     font-weight="bold"
     font-size="200px"
     font-family="Helvetica"
     id="text48">
2) </text>
  <text
     x="0"
     y="0"
     stroke="none"
     fill="#000000"
     transform="matrix(0.05 0 0 0.05 403.388 248.222)"
     font-style="normal"
     font-weight="bold"
     font-size="200px"
     font-family="Helvetica"
     id="text49">
CuI</text>
  <text
     x="0"
     y="0"
     stroke="none"
     fill="#0000ff"
     transform="matrix(0.05 0 0 0.05 461.802 141.001)"
     font-style="normal"
     font-weight="bold"
     font-size="240px"
     font-family="Helvetica"
     id="text50">
Grignard</text>
  <path
     stroke="none"
     fill="#000000"
     transform="matrix(0.05 0 0 0.05 -10 -11)"
     d="M 10505.3,5187.64 L 10520.8,5171.84 L 10730.9,5379.37 L 10726.4,5390 L 10713.3,5391.82 L 10505.3,5187.64 Z "
     id="path50" />
  <path
     stroke="none"
     fill="#000000"
     transform="matrix(0.05 0 0 0.05 -10 -11)"
     d="M 10713.3,5391.82 L 10726.4,5390 L 10732.7,5400.39 L 10588.1,5655.94 L 10568.8,5644.99 L 10713.3,5391.82 Z "
     id="path51" />
  <text
     x="0"
     y="0"
     stroke="none"
     fill="#000000"
     transform="matrix(0.05 0 0 0.05 538.044 261.631)"
     font-style="normal"
     font-weight="bold"
     font-size="180px"
     font-family="Helvetica"
     id="text51">
CuLi</text>
  <path
     stroke="none"
     fill="#000000"
     transform="matrix(0.05 0 0 0.05 -10 -11)"
     d="M 10732.7,5400.39 L 10726.4,5390 L 10730.9,5379.37 L 10937.6,5377.4 L 10937.8,5399.57 L 10732.7,5400.39 Z "
     id="path52" />
  <path
     stroke="#000000"
     stroke-width="22"
     fill="none"
     transform="matrix(0.05 0 0 0.05 -10 -11)"
     d="M 10768.8,5737.56 A 616.674,616.674 0 0 0 10779.5,5120.98"
     id="path53" />
  <text
     x="0"
     y="0"
     stroke="none"
     fill="#000000"
     transform="matrix(0.05 0 0 0.05 532 277.815)"
     font-style="normal"
     font-weight="bold"
     font-size="135px"
     font-family="Helvetica"
     id="text53">
2</text>
  <path
     stroke="#000000"
     stroke-width="22"
     fill="none"
     transform="matrix(0.05 0 0 0.05 -10 -11)"
     d="M 10453.6,5111.61 A 616.674,616.674 0 0 0 10453.6,5728.29"
     id="path54" />
  <text
     x="0"
     y="0"
     stroke="none"
     fill="#0000ff"
     transform="matrix(0.05 0 0 0.05 461.802 290.947)"
     font-style="normal"
     font-weight="bold"
     font-size="240px"
     font-family="Helvetica"
     id="text54">
Gilman</text>
  <path
     stroke="none"
     fill="#000000"
     transform="matrix(0.05 0 0 0.05 -10 -11)"
     d="M 5615.68,3437.72 L 5626.76,3418.52 L 5880.61,3565.6 L 5880.61,3577.88 L 5870.21,3584.17 L 5615.68,3437.72 Z "
     id="path55" />
  <path
     stroke="none"
     fill="#000000"
     transform="matrix(0.05 0 0 0.05 -10 -11)"
     d="M 5891.01,3584.17 L 5880.61,3577.88 L 5880.61,3565.6 L 6134.46,3418.52 L 6145.55,3437.72 L 5891.01,3584.17 Z "
     id="path56" />
  <text
     x="0"
     y="0"
     stroke="none"
     fill="#107f01"
     transform="matrix(0.05 0 0 0.05 280.781 186.109)"
     font-style="normal"
     font-weight="bold"
     font-size="180px"
     font-family="Helvetica"
     id="text56">
Br</text>
  <path
     stroke="none"
     fill="#000000"
     transform="matrix(0.05 0 0 0.05 -10 -11)"
     d="M 5870.21,3584.17 L 5880.61,3577.88 L 5891.01,3584.17 L 5891.7,3781.38 L 5869.52,3781.38 L 5870.21,3584.17 Z "
     id="path57" />
  <text
     x="331.09"
     y="168.33"
     stroke="none"
     fill="#000000"
     font-style="normal"
     font-weight="bold"
     font-size="10px"
     font-family="Helvetica"
     id="text57"
     style="stroke-width:0.05">metal</text>
  <text
     x="0"
     y="0"
     stroke="none"
     fill="#000000"
     transform="matrix(0.05 0 0 0.05 397.457 108.022)"
     font-style="normal"
     font-weight="bold"
     font-size="200px"
     font-family="Helvetica"
     id="text58">
Mg</text>
  <text
     x="0"
     y="0"
     stroke="none"
     fill="#0000ff"
     transform="matrix(0.05 0 0 0.05 461.997 208.722)"
     font-style="normal"
     font-weight="bold"
     font-size="240px"
     font-family="Helvetica"
     id="text59">
organolithium</text>
  <path
     stroke="none"
     fill="#000000"
     transform="matrix(0.05 0 0 0.05 -10 -11)"
     d="M 5445.74,6926.16 L 5445.74,6903.98 L 5743.74,6903.98 L 5743.74,6926.16 L 5445.74,6926.16 Z "
     id="path59" />
  <path
     stroke="none"
     fill="#000000"
     transform="matrix(0.05 0 0 0.05 -10 -11)"
     d="M 5743.74,6870.72 L 5743.74,6848.54 L 6041.74,6848.54 L 6041.74,6870.72 L 5743.74,6870.72 Z "
     id="path60" />
  <path
     stroke="none"
     fill="#000000"
     transform="matrix(0.05 0 0 0.05 -10 -11)"
     d="M 5743.74,6926.16 L 5743.74,6903.98 L 6041.74,6903.98 L 6041.74,6926.16 L 5743.74,6926.16 Z "
     id="path61" />
  <path
     stroke="none"
     fill="#000000"
     transform="matrix(0.05 0 0 0.05 -10 -11)"
     d="M 5743.74,6981.6 L 5743.74,6959.42 L 6041.74,6959.42 L 6041.74,6981.6 L 5743.74,6981.6 Z "
     id="path62" />
  <path
     stroke="none"
     fill="#000000"
     transform="matrix(0.05 0 0 0.05 -10 -11)"
     d="M 9038.03,6921.1 L 6617.2,6921.1 L 6617.2,6899.1 L 9038.03,6899.1 Z "
     id="path63" />
  <path
     stroke="none"
     fill="#000000"
     transform="matrix(0.05 0 0 0.05 -10 -11)"
     d="M 9231.07,6910.1 C 9231.07,6910.1 9009.31,6966.54 9009.31,6966.54 C 9009.31,6966.54 9037.03,6934.8 9037.03,6910.1 C 9037.03,6884.97 9009.31,6852.66 9009.31,6852.66 C 9009.31,6852.66 9231.07,6910.1 9231.07,6910.1 C 9231.07,6910.1 9231.07,6910.1 9231.07,6910.1 "
     id="path64" />
  <path
     stroke="#000000"
     stroke-width="1"
     fill="none"
     transform="matrix(0.05 0 0 0.05 -10 -11)"
     d="M 9231.07,6910.1 C 9231.07,6910.1 9009.31,6966.54 9009.31,6966.54 C 9009.31,6966.54 9037.03,6934.8 9037.03,6910.1 C 9037.03,6884.97 9009.31,6852.66 9009.31,6852.66 C 9009.31,6852.66 9231.07,6910.1 9231.07,6910.1 C 9231.07,6910.1 9231.07,6910.1 9231.07,6910.1 "
     id="path65" />
  <text
     x="0"
     y="0"
     stroke="none"
     fill="#000000"
     transform="matrix(0.05 0 0 0.05 331.39 321.192)"
     font-style="normal"
     font-weight="bold"
     font-size="200px"
     font-family="Helvetica"
     id="text65">
NaNH</text>
  <text
     x="0"
     y="0"
     stroke="none"
     fill="#000000"
     transform="matrix(0.05 0 0 0.05 358.616 323.492)"
     font-style="normal"
     font-weight="bold"
     font-size="150px"
     font-family="Helvetica"
     id="text66">
2</text>
  <text
     x="0"
     y="0"
     stroke="none"
     fill="#000000"
     transform="matrix(0.05 0 0 0.05 376.54 311.024)"
     font-style="normal"
     font-weight="bold"
     font-size="160px"
     font-family="Helvetica"
     id="text67">
or </text>
  <text
     x="0"
     y="0"
     stroke="none"
     fill="#000000"
     transform="matrix(0.05 0 0 0.05 386.762 311.024)"
     font-style="normal"
     font-weight="bold"
     font-size="160px"
     font-family="Helvetica"
     id="text68">
NaH</text>
  <text
     x="0"
     y="0"
     stroke="none"
     fill="#000000"
     transform="matrix(0.05 0 0 0.05 376.54 319.433)"
     font-style="normal"
     font-weight="bold"
     font-size="160px"
     font-family="Helvetica"
     id="text69">
or </text>
  <text
     x="0"
     y="0"
     stroke="none"
     fill="#000000"
     transform="matrix(0.05 0 0 0.05 386.762 319.433)"
     font-style="normal"
     font-weight="bold"
     font-size="160px"
     font-family="Helvetica"
     id="text70">
BuLi</text>
  <text
     x="0"
     y="0"
     stroke="none"
     fill="#000000"
     transform="matrix(0.05 0 0 0.05 376.54 327.841)"
     font-style="normal"
     font-weight="bold"
     font-size="160px"
     font-family="Helvetica"
     id="text71">
or </text>
  <text
     x="0"
     y="0"
     stroke="none"
     fill="#000000"
     transform="matrix(0.05 0 0 0.05 386.762 327.841)"
     font-style="normal"
     font-weight="bold"
     font-size="160px"
     font-family="Helvetica"
     id="text72">
RMgBr</text>
  <path
     stroke="none"
     fill="#000000"
     transform="matrix(0.05 0 0 0.05 -10 -11)"
     d="M 9370.01,6927.32 L 9370.01,6905.14 L 9668.01,6905.14 L 9668.01,6927.32 L 9370.01,6927.32 Z "
     id="path72" />
  <path
     stroke="none"
     fill="#000000"
     transform="matrix(0.05 0 0 0.05 -10 -11)"
     d="M 9668.01,6871.88 L 9668.01,6849.7 L 9966.01,6849.7 L 9966.01,6871.88 L 9668.01,6871.88 Z "
     id="path73" />
  <path
     stroke="none"
     fill="#000000"
     transform="matrix(0.05 0 0 0.05 -10 -11)"
     d="M 9668.01,6927.32 L 9668.01,6905.14 L 9966.01,6905.14 L 9966.01,6927.32 L 9668.01,6927.32 Z "
     id="path74" />
  <path
     stroke="none"
     fill="#000000"
     transform="matrix(0.05 0 0 0.05 -10 -11)"
     d="M 9668.01,6982.76 L 9668.01,6960.58 L 9966.01,6960.58 L 9966.01,6982.76 L 9668.01,6982.76 Z "
     id="path75" />
  <path
     stroke="#000000"
     stroke-width="18"
     fill="none"
     transform="matrix(0.05 0 0 0.05 -10 -11)"
     d="M 10016.8,6915.73 A 68.8704,68.8704 0 1 0 10154.6,6915.73A 68.8704,68.8704 0 1 0 10016.8,6915.73Z "
     id="path76" />
  <path
     stroke="none"
     fill="#000000"
     transform="matrix(0.05 0 0 0.05 -10 -11)"
     d="M 10044.6,6906.73 L 10126.8,6906.73 L 10126.8,6924.73 L 10044.6,6924.73 Z "
     id="path77" />
  <text
     x="0"
     y="0"
     stroke="none"
     fill="#000000"
     transform="matrix(0.05 0 0 0.05 532.785 338.477)"
     font-style="italic"
     font-weight="normal"
     font-size="160px"
     font-family="Helvetica Oblique"
     id="text77">
only</text>
  <text
     x="0"
     y="0"
     stroke="none"
     fill="#000000"
     transform="matrix(0.05 0 0 0.05 520.336 346.827)"
     font-style="italic"
     font-weight="normal"
     font-size="160px"
     font-family="Helvetica Oblique"
     id="text78">
on terminal</text>
  <text
     x="0"
     y="0"
     stroke="none"
     fill="#0000ff"
     transform="matrix(0.05 0 0 0.05 452.703 358.103)"
     font-style="normal"
     font-weight="bold"
     font-size="240px"
     font-family="Helvetica"
     id="text80">
acetylides</text>
  <text
     x="0"
     y="0"
     stroke="none"
     fill="#000000"
     transform="matrix(0.05 0 0 0.05 303.813 337.992)"
     font-style="normal"
     font-weight="bold"
     font-size="180px"
     font-family="Helvetica"
     id="text81">
H</text>
  <path
     stroke="none"
     fill="#000000"
     transform="matrix(0.05 0 0 0.05 -10 -11)"
     d="M 6041.74,6926.16 L 6041.74,6903.98 L 6259.56,6903.98 L 6259.56,6926.16 L 6041.74,6926.16 Z "
     id="path81" />
  <text
     x="0"
     y="0"
     stroke="none"
     fill="#000000"
     transform="matrix(0.05 0 0 0.05 501.15 331.152)"
     font-style="normal"
     font-weight="bold"
     font-size="200px"
     font-family="Helvetica"
     id="text82">
Na</text>
  <path
     stroke="#000000"
     stroke-width="18"
     fill="none"
     transform="matrix(0.05 0 0 0.05 -10 -11)"
     d="M 10391.9,6633.48 A 68.8704,68.8704 0 1 0 10529.6,6633.48A 68.8704,68.8704 0 1 0 10391.9,6633.48Z "
     id="path82" />
  <path
     stroke="none"
     fill="#000000"
     transform="matrix(0.05 0 0 0.05 -10 -11)"
     d="M 10419.7,6624.48 L 10501.9,6624.48 L 10501.9,6642.48 L 10419.7,6642.48 Z "
     id="path83" />
  <path
     stroke="none"
     fill="#000000"
     transform="matrix(0.05 0 0 0.05 -10 -11)"
     d="M 10469.8,6592.39 L 10469.8,6674.57 L 10451.8,6674.57 L 10451.8,6592.39 Z "
     id="path84" />
  <path
     stroke="none"
     fill="#ffffff"
     opacity="0"
     onclick="window.location.href = 'tohalides-o1.svg'"
     transform="matrix(0.05 0 0 0.05 -10 -11)"
     d="M 6290.6,4132.2 C 6290.6,4132.2 6290.6,3222.4 6290.6,3222.4 C 6290.6,3222.4 5480.2,3222.4 5480.2,3222.4 C 5480.2,3222.4 5480.2,4132.2 5480.2,4132.2 C 5480.2,4132.2 6290.6,4132.2 6290.6,4132.2 "
     id="path1"
     inkscape:label="l-tohalides" />
  <path
     stroke="none"
     fill="#ffffff"
     opacity="0"
     onclick="window.location.href = 'toalkynes-o1.svg'"
     transform="matrix(0.05 0 0 0.05 -10 -11)"
     d="M 6517.8,7142.6 C 6517.8,7142.6 6517.8,6630.4 6517.8,6630.4 C 6517.8,6630.4 5324,6630.4 5324,6630.4 C 5324,6630.4 5324,7142.6 5324,7142.6 C 5324,7142.6 6517.8,7142.6 6517.8,7142.6 "
     id="path3"
     inkscape:label="l-toalkynes" />
  <path
     stroke="none"
     fill="#ffffff"
     opacity="0"
     onclick="window.location.href = 'organometallics-o1.svg'"
     d="m 561.94612,296.23157 c 0,0 0,-204.664393 0,-204.664393 0,0 -119.11416,0 -119.11416,0 0,0 0,204.664393 0,204.664393 0,0 119.11416,0 119.11416,0"
     id="path3-3"
     inkscape:label="l-organometallics"
     style="opacity:0;stroke-width:0.199672" />
  <path
     stroke="none"
     fill="#ffffff"
     opacity="0"
     onclick="window.location.href = 'alkynes-o1.svg'"
     d="m 570.57878,368.56184 c 0,0 0,-56.88588 0,-56.88588 0,0 -121.45985,0 -121.45985,0 0,0 0,56.88588 0,56.88588 0,0 121.45985,0 121.45985,0"
     id="path3-3-6"
     inkscape:label="l-alkynes"
     style="opacity:0;stroke-width:0.1063" />
  <path
     stroke="none"
     fill="#ffffff"
     opacity="0"
     onclick="window.location.href = 'supplement-o1.svg'"
     d="m 423.82624,256.21087 c 0,0 0,-165.569549 0,-165.569549 0,0 -41.70637,0 -41.70637,0 0,0 0,165.569549 0,165.569549 0,0 41.70637,0 41.70637,0"
     id="path3-3-6-3"
     inkscape:label="l-supplement"
     style="opacity:0;stroke-width:0.106269" />
  <path
     stroke="none"
     fill="#ffffff"
     opacity="0"
     onclick="window.location.href = 'supplement-o1.svg'"
     d="m 415.12188,330.73853 c 0,0 0,-33.42897 0,-33.42897 0,0 -90.96588,0 -90.96588,0 0,0 0,33.42897 0,33.42897 0,0 90.96588,0 90.96588,0"
     id="path3-3-6-3-8"
     inkscape:label="l-supplement"
     style="opacity:0;stroke-width:0.0705207" />

  <g
     id="noreactants"
     onclick="window.location.href = 'toorganometallics-noreactants-o1.svg'"
     transform="translate(-4.6856272,378.9067)">
    <text
       x="11.200497"
       y="54.141506"
       stroke="none"
       fill="#000000"
       font-style="normal"
       font-weight="bold"
       font-size="200px"
       font-family="Helvetica"
       id="gobacktext-7"
       style="font-style:normal;font-weight:bold;font-size:10px;font-family:Helvetica;fill:#000000;fill-opacity:0.443609;stroke:none;stroke-width:0.05"
       inkscape:label="noreagents-text"><tspan
         sodipodi:role="line"
         id="tspan2"
         x="11.200497"
         y="54.141506"
         style="font-style:normal;font-variant:normal;font-weight:bold;font-stretch:normal;font-size:8px;font-family:Helvetica;-inkscape-font-specification:'Helvetica, Bold';font-variant-ligatures:normal;font-variant-caps:normal;font-variant-numeric:normal;font-variant-east-asian:normal;fill:#000000;fill-opacity:0.5;stroke-width:0.05">reactants</tspan></text>
    <rect
       style="fill:#000000;fill-opacity:0.821053;fill-rule:evenodd;stroke:#a13033;stroke-width:0;stroke-linecap:round;stroke-miterlimit:2;stroke-dasharray:none;paint-order:markers fill stroke"
       id="rect3"
       width="31.666824"
       height="0.9773711"
       x="12.224979"
       y="51.518982"
       inkscape:label="noreagents-line" />
    <path
       stroke="none"
       fill="#999999"
       d="m 9.795,54.694678 c 0,0 0,-5.427567 0,-5.427567 0,-2.098514 1.463398,-3.801611 3.266274,-3.801611 0,0 30.608907,0 30.608907,0 1.803073,0 3.266397,1.703097 3.266397,3.801611 0,0 0,5.427567 0,5.427567 0,2.098514 -1.463324,3.801611 -3.266397,3.801611 0,0 -30.608907,0 -30.608907,0 -1.802876,0 -3.266274,-1.703097 -3.266274,-3.801611"
       id="goback-box-8"
       style="fill:#999999;fill-opacity:0.336842;stroke-width:0.0264832"
       inkscape:label="noreagents-box" />
  </g>
  <g
     id="noreagents"
     onclick="window.location.href = 'toorganometallics-noreagents-o1.svg'"
     transform="translate(-4.6856272,382.9067)">
    <text
       x="11.541888"
       y="67.610527"
       stroke="none"
       fill="#000000"
       font-style="normal"
       font-weight="bold"
       font-size="200px"
       font-family="Helvetica"
       id="gobacktext-7-8"
       style="font-style:normal;font-weight:bold;font-size:10px;font-family:Helvetica;fill:#000000;fill-opacity:0.443609;stroke:none;stroke-width:0.05"
       inkscape:label="noproducts-text"><tspan
         sodipodi:role="line"
         id="tspan2-5"
         x="11.541888"
         y="67.610527"
         style="font-style:normal;font-variant:normal;font-weight:bold;font-stretch:normal;font-size:8px;font-family:Helvetica;-inkscape-font-specification:'Helvetica, Bold';font-variant-ligatures:normal;font-variant-caps:normal;font-variant-numeric:normal;font-variant-east-asian:normal;fill:#000000;fill-opacity:0.5;stroke-width:0.05">reagents</tspan></text>
    <rect
       style="fill:#000000;fill-opacity:0.821053;fill-rule:evenodd;stroke:#a13033;stroke-width:0;stroke-linecap:round;stroke-miterlimit:2;stroke-dasharray:none;paint-order:markers fill stroke"
       id="rect3-9"
       width="31.666824"
       height="0.9773711"
       x="12.566371"
       y="64.987999"
       inkscape:label="noproducts-line" />
    <path
       stroke="none"
       fill="#999999"
       d="m 10.136392,68.163695 c 0,0 0,-5.427567 0,-5.427567 0,-2.098514 1.463398,-3.801611 3.266274,-3.801611 0,0 30.608907,0 30.608907,0 1.803073,0 3.266397,1.703097 3.266397,3.801611 0,0 0,5.427567 0,5.427567 0,2.098514 -1.463324,3.801611 -3.266397,3.801611 0,0 -30.608907,0 -30.608907,0 -1.802876,0 -3.266274,-1.703097 -3.266274,-3.801611"
       id="goback-box-8-6"
       style="fill:#999999;fill-opacity:0.336842;stroke-width:0.0264832"
       inkscape:label="noproducts-box" />
  </g>

  <text x="822.84332" y="415.79849" stroke="none" fill="#000000" transform="matrix(0.92407999,-0.00322566,0.00377741,1.0821442,0,0)" font-style="italic" font-weight="bold" font-size="8.25806px" font-family="'Helvetica Oblique'" id="text11" style="opacity:1;fill:#00009a;fill-opacity:0.651128;stroke-width:0.0412903">chemisfun</text>
  <g id="overlay-box" style="opacity:0" transform="matrix(0.31364504,0,0,0.8007311,650.50736,385.81436)">
    <rect style="fill:#609975;fill-opacity:0.2;stroke:#609970;stroke-width:0;stroke-linecap:round;stroke-opacity:0.657143;paint-order:fill markers stroke" id="rect285" width="164.84744" height="59.583412" x="329.69489" y="23.171328" />
  </g>
  <g id="overlay" onclick="window.location.href = 'index.html'" onmouseover="this.ownerDocument.getElementById('overlay-box').style.opacity='0.5'" onmouseout="this.ownerDocument.getElementById('overlay-box').style.opacity='0'" transform="matrix(0.76550767,-0.0030054,0.00267214,0.86098131,195.61318,22.784653)">
    <rect style="opacity:0.5;fill:#ffffff;fill-opacity:0;stroke-linecap:round;stroke-opacity:0.657143;paint-order:stroke fill markers" id="rect2" width="65.93074" height="55.035408" x="733.06049" y="445.87061" />
  </g>
  <g id="g1" transform="matrix(0.0625,0,0,0.0625,764.65732,406.62566)">
    <rect x="239.31" y="120.321" style="fill:#444242" width="33.389" height="139.98" id="rect1" />
    <rect x="256" y="120.321" style="fill:#3a3839" width="16.695" height="139.98" id="rect2-2" />
    <rect x="132.194" y="305.86301" transform="matrix(0.5,0.866,-0.866,0.5,399.932,58.9793)" style="fill:#444242" width="33.387001" height="139.967" id="rect3" />
    <rect x="293.125" y="359.13" transform="matrix(0.866,0.5,-0.5,0.866,236.5654,-131.205)" style="fill:#3a3839" width="139.967" height="33.387001" id="rect4" />
    <path style="background-color:#ffffff00;fill:#439de2;fill-opacity:1" d="m 456.843,485.07 c -9.538,0 -18.951,-2.501 -27.432,-7.398 v 0 c -12.733,-7.351 -21.842,-19.221 -25.646,-33.424 -3.805,-14.201 -1.853,-29.035 5.499,-41.769 7.351,-12.732 19.221,-21.841 33.424,-25.646 14.201,-3.806 29.034,-1.853 41.769,5.499 12.732,7.351 21.841,19.221 25.646,33.424 3.805,14.202 1.853,29.035 -5.499,41.769 -7.351,12.733 -19.221,21.842 -33.424,25.646 -4.742,1.27 -9.557,1.899 -14.337,1.899 z" id="path7-3" />
    <path style="background-color:#ffffff00;fill:#eda74a;fill-opacity:1" d="m 256.001,137.021 c -30.352,0 -55.044,-24.693 -55.044,-55.044 0,-30.351 24.693,-55.044 55.044,-55.044 30.351,0 55.044,24.693 55.044,55.044 0,30.351 -24.693,55.044 -55.044,55.044 z" id="path5-4" />
    <path style="background-color:#ffffff00;fill:#53acb1;fill-opacity:1" d="m 55.158,485.07 c -4.781,0 -9.594,-0.629 -14.336,-1.9 C 26.619,479.365 14.75,470.256 7.398,457.524 0.046,444.792 -1.906,429.957 1.899,415.755 c 3.805,-14.203 12.914,-26.072 25.646,-33.424 12.731,-7.352 27.567,-9.304 41.769,-5.499 14.203,3.805 26.072,12.914 33.424,25.646 7.352,12.732 9.304,27.567 5.499,41.769 -3.805,14.203 -12.914,26.072 -25.646,33.424 -8.481,4.897 -17.896,7.399 -27.433,7.399 z" id="path6-7" />
    <path style="fill:#f74d37" d="m 256.001,384.379 c -38.81,0 -70.384,-31.575 -70.384,-70.384 0,-38.809 31.575,-70.384 70.384,-70.384 38.809,0 70.384,31.575 70.384,70.384 0,38.809 -31.575,70.384 -70.384,70.384 z" id="path4-9" />
  </g>
</svg>
