<?xml version="1.0" encoding="UTF-8" standalone="no"?>
<svg
   width="100%"
   height="100%"
   viewBox="0 0 818 460"
   style="background-color: #ffffff00"
   version="1.1"
   id="svg141"
   sodipodi:docname="tophenols-noreactants.svg"
   inkscape:version="1.4.2 (ebf0e940, 2025-05-08)"
   xmlns:inkscape="http://www.inkscape.org/namespaces/inkscape"
   xmlns:sodipodi="http://sodipodi.sourceforge.net/DTD/sodipodi-0.dtd"
   xmlns="http://www.w3.org/2000/svg"
   xmlns:svg="http://www.w3.org/2000/svg">
  <path
     stroke="#ffffff"
     stroke-width="1"
     fill="none"
     transform="matrix(0.05 0 0 0.05 -10 -11)"
     d="M 7535.04,2962.88 C 7535.04,2962.88 7535.04,2209.88 7535.04,2209.88 C 7535.04,2209.88 6646.68,2209.88 6646.68,2209.88 C 6646.68,2209.88 6646.68,2962.88 6646.68,2962.88 C 6646.68,2962.88 7535.04,2962.88 7535.04,2962.88 "
     id="path2" />
  <path
     stroke="#ffffff"
     stroke-width="1"
     fill="none"
     transform="matrix(0.05 0 0 0.05 -10 -11)"
     d="M 7685.44,5068.48 C 7685.44,5068.48 7685.44,3954.52 7685.44,3954.52 C 7685.44,3954.52 6646.68,3954.52 6646.68,3954.52 C 6646.68,3954.52 6646.68,5068.48 6646.68,5068.48 C 6646.68,5068.48 7685.44,5068.48 7685.44,5068.48 "
     id="path4" />
  <path
     stroke="#ffffff"
     stroke-width="1"
     fill="none"
     transform="matrix(0.05 0 0 0.05 -10 -11)"
     d="M 10693.4,2962.88 C 10693.4,2962.88 10693.4,1984.28 10693.4,1984.28 C 10693.4,1984.28 9880.28,1984.28 9880.28,1984.28 C 9880.28,1984.28 9880.28,2962.88 9880.28,2962.88 C 9880.28,2962.88 10693.4,2962.88 10693.4,2962.88 "
     id="path8" />
  <path
     stroke="#ffffff"
     stroke-width="1"
     fill="none"
     transform="matrix(0.05 0 0 0.05 -10 -11)"
     d="M 11625.9,4692.48 C 11625.9,4692.48 11625.9,3879.32 11625.9,3879.32 C 11625.9,3879.32 9775,3879.32 9775,3879.32 C 9775,3879.32 9775,4692.48 9775,4692.48 C 9775,4692.48 11625.9,4692.48 11625.9,4692.48 "
     id="path10" />
  <path
     stroke="#000000"
     stroke-width="22"
     fill="none"
     transform="matrix(0.05 0 0 0.05 -10 -11)"
     d="M 16494.7,9367.47 C 16494.7,9367.47 16494.7,284.602 16494.7,284.602 C 16494.7,284.602 268.683,284.602 268.683,284.602 C 268.683,284.602 268.683,9367.47 268.683,9367.47 C 268.683,9367.47 16494.7,9367.47 16494.7,9367.47 "
     id="path13" />
  <text
     x="0"
     y="0"
     stroke="none"
     fill="#000000"
     transform="matrix(0.05 0 0 0.05 11.735 21.13)"
     font-style="normal"
     font-weight="bold"
     font-size="320px"
     font-family="Helvetica"
     id="text13">
Preparation of Phenols</text>
  <text
     x="0"
     y="0"
     stroke="none"
     fill="#999999"
     transform="matrix(0.05 0 0 0.05 11.9381 39.085)"
     font-style="normal"
     font-weight="normal"
     font-size="320px"
     font-family="Helvetica"
     id="text16">
click for more</text>
  <g
     id="goback"
     onclick="window.location.href = 'index.svg'"
     onmouseover="document.getElementById('goback-box').setAttribute('opacity','0.5');"
     onmouseout="document.getElementById('goback-box').setAttribute('opacity','1')">
    <path
       stroke="none"
       fill="#999999"
       transform="matrix(0.05 0 0 0.05 -10 -11)"
       d="M 395.9,1492.34 C 395.9,1492.34 395.9,1302.37 395.9,1302.37 C 395.9,1228.92 455.513,1169.31 528.955,1169.31 C 528.955,1169.31 1775.84,1169.31 1775.84,1169.31 C 1849.29,1169.31 1908.9,1228.92 1908.9,1302.37 C 1908.9,1302.37 1908.9,1492.34 1908.9,1492.34 C 1908.9,1565.79 1849.29,1625.4 1775.84,1625.4 C 1775.84,1625.4 528.955,1625.4 528.955,1625.4 C 455.513,1625.4 395.9,1565.79 395.9,1492.34 "
       id="goback-box" />
    <text
       x="0"
       y="0"
       stroke="none"
       fill="#000000"
       transform="matrix(0.05 0 0 0.05 29.3796 61.765)"
       font-style="normal"
       font-weight="bold"
       font-size="200px"
       font-family="Helvetica"
       id="gobacktext">
go home</text>
    <path
       stroke="#999999"
       stroke-width="1"
       transform="matrix(0.05 0 0 0.05 -10 -11)"
       d="M 395.9,1492.34 C 395.9,1492.34 395.9,1302.37 395.9,1302.37 C 395.9,1228.92 455.513,1169.31 528.955,1169.31 C 528.955,1169.31 1775.84,1169.31 1775.84,1169.31 C 1849.29,1169.31 1908.9,1228.92 1908.9,1302.37 C 1908.9,1302.37 1908.9,1492.34 1908.9,1492.34 C 1908.9,1565.79 1849.29,1625.4 1775.84,1625.4 C 1775.84,1625.4 528.955,1625.4 528.955,1625.4 C 455.513,1625.4 395.9,1565.79 395.9,1492.34 "
       onclick="window.location.href = 'index.svg'"
       style="opacity:0"
       id="goback-link" />
  </g>
  <g
     id="howdotheyreact"
     onclick="window.location.href = 'phenols.svg'"
     onmouseover="document.getElementById('howdotheyreact-box').setAttribute('opacity','0.5');"
     onmouseout="document.getElementById('howdotheyreact-box').setAttribute('opacity','1')">
    <path
       stroke="none"
       fill="#999999"
       transform="matrix(0.05 0 0 0.05 -10 -11)"
       d="M 381.591,1996.7 C 381.591,1996.7 381.591,1806.72 381.591,1806.72 C 381.591,1733.28 441.204,1673.66 514.646,1673.66 C 514.646,1673.66 2149.06,1673.66 2149.06,1673.66 C 2222.51,1673.66 2282.12,1733.28 2282.12,1806.72 C 2282.12,1806.72 2282.12,1996.7 2282.12,1996.7 C 2282.12,2070.14 2222.51,2129.75 2149.06,2129.75 C 2149.06,2129.75 514.646,2129.75 514.646,2129.75 C 441.204,2129.75 381.591,2070.14 381.591,1996.7 "
       id="howdotheyreact-box" />
    <text
       x="0"
       y="0"
       stroke="none"
       fill="#000000"
       transform="matrix(0.05 0 0 0.05 12.2417 86.9826)"
       font-style="normal"
       font-weight="bold"
       font-size="200px"
       font-family="Helvetica"
       id="howdotheyreact-text">
how do they react?</text>
    <path
       stroke="#999999"
       stroke-width="1"
       transform="matrix(0.05 0 0 0.05 -10 -11)"
       d="M 381.591,1996.7 C 381.591,1996.7 381.591,1806.72 381.591,1806.72 C 381.591,1733.28 441.204,1673.66 514.646,1673.66 C 514.646,1673.66 2149.06,1673.66 2149.06,1673.66 C 2222.51,1673.66 2282.12,1733.28 2282.12,1806.72 C 2282.12,1806.72 2282.12,1996.7 2282.12,1996.7 C 2282.12,2070.14 2222.51,2129.75 2149.06,2129.75 C 2149.06,2129.75 514.646,2129.75 514.646,2129.75 C 441.204,2129.75 381.591,2070.14 381.591,1996.7 "
       style="opacity:0"
       id="howdotheyreact-link" />
  </g>
  <text
     x="395.87299"
     y="374.98599"
     stroke="none"
     fill="#0000ff"
     font-style="normal"
     font-weight="bold"
     font-size="14px"
     font-family="Helvetica"
     id="text25"
     style="stroke-width:0.05">phenols</text>
  <text
     x="0"
     y="0"
     stroke="none"
     fill="#000000"
     transform="matrix(0.05 0 0 0.05 324.289 153.354)"
     font-style="normal"
     font-weight="bold"
     font-size="200px"
     font-family="Arial"
     id="text26">
SO</text>
  <text
     x="0"
     y="0"
     stroke="none"
     fill="#000000"
     transform="matrix(0.05 0 0 0.05 338.738 155.473)"
     font-style="normal"
     font-weight="bold"
     font-size="150px"
     font-family="Arial"
     id="text27">
3</text>
  <text
     x="0"
     y="0"
     stroke="none"
     fill="#000000"
     transform="matrix(0.05 0 0 0.05 312.897 164.853)"
     font-style="normal"
     font-weight="bold"
     font-size="200px"
     font-family="Arial"
     id="text28">
H</text>
  <text
     x="0"
     y="0"
     stroke="none"
     fill="#000000"
     transform="matrix(0.05 0 0 0.05 320.118 166.972)"
     font-style="normal"
     font-weight="bold"
     font-size="150px"
     font-family="Arial"
     id="text29">
2</text>
  <text
     x="0"
     y="0"
     stroke="none"
     fill="#000000"
     transform="matrix(0.05 0 0 0.05 324.289 164.853)"
     font-style="normal"
     font-weight="bold"
     font-size="200px"
     font-family="Arial"
     id="text30">
SO</text>
  <text
     x="0"
     y="0"
     stroke="none"
     fill="#000000"
     transform="matrix(0.05 0 0 0.05 338.738 166.972)"
     font-style="normal"
     font-weight="bold"
     font-size="150px"
     font-family="Arial"
     id="text31">
4</text>
  <text
     x="0"
     y="0"
     stroke="none"
     fill="#000000"
     transform="matrix(0.05 0 0 0.05 309.738 256.694)"
     font-style="normal"
     font-weight="bold"
     font-size="200px"
     font-family="Arial"
     id="text32">
NaOH</text>
  <text
     x="0"
     y="0"
     stroke="none"
     fill="#000000"
     transform="matrix(0.05 0 0 0.05 290.751 268.658)"
     font-style="normal"
     font-weight="bold"
     font-size="200px"
     font-family="Arial"
     id="text33">
then </text>
  <text
     x="0"
     y="0"
     stroke="none"
     fill="#000000"
     transform="matrix(0.05 0 0 0.05 314.637 268.658)"
     font-style="normal"
     font-weight="bold"
     font-size="200px"
     font-family="Arial"
     id="text34">
H</text>
  <text
     x="0"
     y="0"
     stroke="none"
     fill="#000000"
     transform="matrix(0.05 0 0 0.05 321.859 270.778)"
     font-style="normal"
     font-weight="bold"
     font-size="150px"
     font-family="Arial"
     id="text35">
3</text>
  <text
     x="0"
     y="0"
     stroke="none"
     fill="#000000"
     transform="matrix(0.05 0 0 0.05 326.03 268.658)"
     font-style="normal"
     font-weight="bold"
     font-size="200px"
     font-family="Arial"
     id="text36">
O</text>
  <text
     x="0"
     y="0"
     stroke="none"
     fill="#000000"
     transform="matrix(0.05 0 0 0.05 333.808 265.079)"
     font-style="normal"
     font-weight="bold"
     font-size="150px"
     font-family="Arial"
     id="text37">
+</text>
  <text
     x="0"
     y="0"
     stroke="none"
     fill="#000000"
     transform="matrix(0.05 0 0 0.05 430.245 226.942)"
     font-style="normal"
     font-weight="bold"
     font-size="200px"
     font-family="Arial"
     id="text41">
H</text>
  <text
     x="0"
     y="0"
     stroke="none"
     fill="#000000"
     transform="matrix(0.05 0 0 0.05 437.467 229.061)"
     font-style="normal"
     font-weight="bold"
     font-size="150px"
     font-family="Arial"
     id="text42">
2</text>
  <text
     x="0"
     y="0"
     stroke="none"
     fill="#000000"
     transform="matrix(0.05 0 0 0.05 441.638 226.942)"
     font-style="normal"
     font-weight="bold"
     font-size="200px"
     font-family="Arial"
     id="text43">
O</text>
  <path
     stroke="none"
     fill="#000000"
     transform="matrix(0.05 0 0 0.05 -10 -11)"
     d="M 7113.68,3696.36 L 7113.68,3023.04 L 7135.68,3023.04 L 7135.68,3696.36 Z "
     id="path43" />
  <path
     stroke="none"
     fill="#000000"
     transform="matrix(0.05 0 0 0.05 -10 -11)"
     d="M 7124.68,3889.4 C 7124.68,3889.4 7067.24,3667.64 7067.24,3667.64 C 7067.24,3667.64 7099.55,3695.36 7124.68,3695.36 C 7149.38,3695.36 7181.12,3667.64 7181.12,3667.64 C 7181.12,3667.64 7124.68,3889.4 7124.68,3889.4 C 7124.68,3889.4 7124.68,3889.4 7124.68,3889.4 "
     id="path44" />
  <path
     stroke="#000000"
     stroke-width="1"
     fill="none"
     transform="matrix(0.05 0 0 0.05 -10 -11)"
     d="M 7124.68,3889.4 C 7124.68,3889.4 7067.24,3667.64 7067.24,3667.64 C 7067.24,3667.64 7099.55,3695.36 7124.68,3695.36 C 7149.38,3695.36 7181.12,3667.64 7181.12,3667.64 C 7181.12,3667.64 7124.68,3889.4 7124.68,3889.4 C 7124.68,3889.4 7124.68,3889.4 7124.68,3889.4 "
     id="path45" />
  <path
     stroke="none"
     fill="#000000"
     transform="matrix(0.05 0 0 0.05 -10 -11)"
     d="M 8718.96,6153.84 L 8718.96,3173.44 L 8740.96,3173.44 L 8740.96,6153.84 Z "
     id="path78" />
  <path
     stroke="none"
     fill="#000000"
     transform="matrix(0.05 0 0 0.05 -10 -11)"
     d="M 8729.96,6346.88 C 8729.96,6346.88 8672.52,6125.12 8672.52,6125.12 C 8672.52,6125.12 8704.83,6152.84 8729.96,6152.84 C 8754.66,6152.84 8786.4,6125.12 8786.4,6125.12 C 8786.4,6125.12 8729.96,6346.88 8729.96,6346.88 C 8729.96,6346.88 8729.96,6346.88 8729.96,6346.88 "
     id="path79" />
  <path
     stroke="#000000"
     stroke-width="1"
     fill="none"
     transform="matrix(0.05 0 0 0.05 -10 -11)"
     d="M 8729.96,6346.88 C 8729.96,6346.88 8672.52,6125.12 8672.52,6125.12 C 8672.52,6125.12 8704.83,6152.84 8729.96,6152.84 C 8754.66,6152.84 8786.4,6125.12 8786.4,6125.12 C 8786.4,6125.12 8729.96,6346.88 8729.96,6346.88 C 8729.96,6346.88 8729.96,6346.88 8729.96,6346.88 "
     id="path80" />
  <path
     stroke="none"
     fill="#000000"
     transform="matrix(0.05 0 0 0.05 -10 -11)"
     d="M 10246.6,3687.28 L 10246.6,3013.34 L 10268.6,3013.34 L 10268.6,3687.28 Z "
     id="path87" />
  <path
     stroke="none"
     fill="#000000"
     transform="matrix(0.05 0 0 0.05 -10 -11)"
     d="M 10257.6,3880.32 C 10257.6,3880.32 10200.2,3658.56 10200.2,3658.56 C 10200.2,3658.56 10232.5,3686.28 10257.6,3686.28 C 10282.3,3686.28 10314,3658.56 10314,3658.56 C 10314,3658.56 10257.6,3880.32 10257.6,3880.32 C 10257.6,3880.32 10257.6,3880.32 10257.6,3880.32 "
     id="path88" />
  <path
     stroke="#000000"
     stroke-width="1"
     fill="none"
     transform="matrix(0.05 0 0 0.05 -10 -11)"
     d="M 10257.6,3880.32 C 10257.6,3880.32 10200.2,3658.56 10200.2,3658.56 C 10200.2,3658.56 10232.5,3686.28 10257.6,3686.28 C 10282.3,3686.28 10314,3658.56 10314,3658.56 C 10314,3658.56 10257.6,3880.32 10257.6,3880.32 C 10257.6,3880.32 10257.6,3880.32 10257.6,3880.32 "
     id="path89" />
  <text
     x="0"
     y="0"
     stroke="none"
     fill="#000000"
     transform="matrix(0.05 0 0 0.05 507.995 156.795)"
     font-style="normal"
     font-weight="bold"
     font-size="200px"
     font-family="Helvetica"
     id="text89">
NaOH</text>
  <path
     stroke="#000000"
     stroke-width="22"
     fill="none"
     transform="matrix(0.05 0 0 0.05 -10 -11)"
     d="M 9890.81,4612.76 L 9841.76,4612.76 "
     id="path94" />
  <path
     stroke="#000000"
     stroke-width="22"
     fill="none"
     transform="matrix(0.05 0 0 0.05 -10 -11)"
     d="M 9841.76,4612.76 L 9841.76,3940.66 "
     id="path95" />
  <path
     stroke="#000000"
     stroke-width="22"
     fill="none"
     transform="matrix(0.05 0 0 0.05 -10 -11)"
     d="M 9841.76,3940.66 L 9890.81,3940.66 "
     id="path96" />
  <path
     stroke="#000000"
     stroke-width="22"
     fill="none"
     transform="matrix(0.05 0 0 0.05 -10 -11)"
     d="M 10564.9,3940.66 L 10614,3940.66 "
     id="path97" />
  <path
     stroke="#000000"
     stroke-width="22"
     fill="none"
     transform="matrix(0.05 0 0 0.05 -10 -11)"
     d="M 10614,3940.66 L 10614,4612.76 "
     id="path98" />
  <path
     stroke="#000000"
     stroke-width="22"
     fill="none"
     transform="matrix(0.05 0 0 0.05 -10 -11)"
     d="M 10614,4612.76 L 10564.9,4612.76 "
     id="path99" />
  <path
     stroke="none"
     fill="#000000"
     transform="matrix(0.05 0 0 0.05 -10 -11)"
     d="M 10275.6,5817.98 L 10275.6,4722.56 L 10297.6,4722.56 L 10297.6,5817.98 Z "
     id="path110" />
  <text
     x="0"
     y="0"
     stroke="none"
     fill="#000000"
     transform="matrix(0.05 0 0 0.05 510.282 250.929)"
     font-style="normal"
     font-weight="bold"
     font-size="200px"
     font-family="Helvetica"
     id="text111">
H</text>
  <text
     x="0"
     y="0"
     stroke="none"
     fill="#000000"
     transform="matrix(0.05 0 0 0.05 517.504 253.229)"
     font-style="normal"
     font-weight="bold"
     font-size="150px"
     font-family="Helvetica"
     id="text112">
2</text>
  <text
     x="0"
     y="0"
     stroke="none"
     fill="#000000"
     transform="matrix(0.05 0 0 0.05 521.675 250.929)"
     font-style="normal"
     font-weight="bold"
     font-size="200px"
     font-family="Helvetica"
     id="text113">
O, </text>
  <text
     x="0"
     y="0"
     stroke="none"
     fill="#000000"
     transform="matrix(0.05 0 0 0.05 535.01 250.929)"
     font-style="normal"
     font-weight="bold"
     font-size="200px"
     font-family="Helvetica"
     id="text114">
then </text>
  <text
     x="0"
     y="0"
     stroke="none"
     fill="#000000"
     transform="matrix(0.05 0 0 0.05 558.897 250.929)"
     font-style="normal"
     font-weight="bold"
     font-size="200px"
     font-family="Helvetica"
     id="text115">
H</text>
  <text
     x="0"
     y="0"
     stroke="none"
     fill="#000000"
     transform="matrix(0.05 0 0 0.05 566.118 253.229)"
     font-style="normal"
     font-weight="bold"
     font-size="150px"
     font-family="Helvetica"
     id="text116">
3</text>
  <text
     x="0"
     y="0"
     stroke="none"
     fill="#000000"
     transform="matrix(0.05 0 0 0.05 570.29 250.929)"
     font-style="normal"
     font-weight="bold"
     font-size="200px"
     font-family="Helvetica"
     id="text117">
O</text>
  <text
     x="0"
     y="0"
     stroke="none"
     fill="#000000"
     transform="matrix(0.05 0 0 0.05 578.068 247.33)"
     font-style="normal"
     font-weight="bold"
     font-size="150px"
     font-family="Helvetica"
     id="text118">
+</text>
  <path
     stroke="none"
     fill="#000000"
     transform="matrix(0.05 0 0 0.05 -10 -11)"
     d="M 8867.23,7155.59 L 8844.96,7142.74 L 8844.96,6951.11 L 8867.23,6938.25 L 8867.23,7155.59 Z "
     id="path118" />
  <path
     stroke="none"
     fill="#000000"
     transform="matrix(0.05 0 0 0.05 -10 -11)"
     d="M 8811.04,7116.75 L 8788.87,7116.75 L 8788.87,6977.09 L 8811.04,6977.09 L 8811.04,7116.75 Z "
     id="path119" />
  <path
     stroke="none"
     fill="#000000"
     transform="matrix(0.05 0 0 0.05 -10 -11)"
     d="M 8679.01,7264.26 L 8679.01,7238.55 L 8844.96,7142.74 L 8867.23,7155.59 L 8679.01,7264.26 Z "
     id="path120" />
  <path
     stroke="none"
     fill="#000000"
     transform="matrix(0.05 0 0 0.05 -10 -11)"
     d="M 8490.79,7155.59 L 8513.06,7142.74 L 8679.01,7238.55 L 8679.01,7264.26 L 8490.79,7155.59 Z "
     id="path121" />
  <path
     stroke="none"
     fill="#000000"
     transform="matrix(0.05 0 0 0.05 -10 -11)"
     d="M 8552.52,7126.35 L 8563.61,7107.15 L 8684.55,7176.98 L 8673.47,7196.18 L 8552.52,7126.35 Z "
     id="path122" />
  <path
     stroke="none"
     fill="#000000"
     transform="matrix(0.05 0 0 0.05 -10 -11)"
     d="M 8490.79,6938.25 L 8513.06,6951.11 L 8513.06,7142.74 L 8490.79,7155.59 L 8490.79,6938.25 Z "
     id="path123" />
  <path
     stroke="none"
     fill="#000000"
     transform="matrix(0.05 0 0 0.05 -10 -11)"
     d="M 8867.23,6938.25 L 8844.96,6951.11 L 8679.01,6855.29 L 8679.01,6843.25 L 8689.08,6836.96 L 8867.23,6938.25 Z "
     id="path124" />
  <path
     stroke="none"
     fill="#000000"
     transform="matrix(0.05 0 0 0.05 -10 -11)"
     d="M 8669.04,6836.89 L 8679.01,6843.25 L 8679.01,6855.29 L 8513.06,6951.11 L 8490.79,6938.25 L 8669.04,6836.89 Z "
     id="path125" />
  <path
     stroke="none"
     fill="#000000"
     transform="matrix(0.05 0 0 0.05 -10 -11)"
     d="M 8673.47,6897.66 L 8684.55,6916.87 L 8563.61,6986.7 L 8552.52,6967.49 L 8673.47,6897.66 Z "
     id="path126" />
  <text
     x="0"
     y="0"
     stroke="none"
     fill="#0000ff"
     transform="matrix(0.05 0 0 0.05 420.551 322.807)"
     font-style="normal"
     font-weight="bold"
     font-size="180px"
     font-family="Helvetica"
     id="text126">
OH</text>
  <path
     stroke="none"
     fill="#000000"
     transform="matrix(0.05 0 0 0.05 -10 -11)"
     d="M 8689.08,6836.96 L 8679.01,6843.25 L 8669.04,6836.89 L 8669.06,6711.75 L 8691.24,6711.94 L 8689.08,6836.96 Z "
     id="path127" />
  <path
     stroke="none"
     fill="#000000"
     transform="matrix(0.05 0 0 0.05 -10 -11)"
     d="M 7072.03,5817.98 L 7072.03,5166.74 L 7094.03,5166.74 L 7094.03,5817.98 Z "
     id="path128" />
  <path
     stroke="none"
     fill="#000000"
     transform="matrix(0.05 0 0 0.05 -10 -11)"
     d="M 10286.6,5828.98 L 7083.03,5828.98 L 7083.03,5806.98 L 10286.6,5806.98 Z "
     id="path138" />
  <clipPath
     id="1">
    <path
       clip-rule="evenodd"
       d="M 355.686,303.55 L 494.251,303.55 L 494.251,396.995 L 355.686,396.995 L 355.686,303.55 M 360.686,380.907 C 360.686,380.907 360.686,315.203 360.686,315.203 C 360.686,311.531 363.667,308.55 367.339,308.55 C 367.339,308.55 478.163,308.55 478.163,308.55 C 481.835,308.55 484.816,311.531 484.816,315.203 C 484.816,315.203 484.816,380.907 484.816,380.907 C 484.816,384.579 481.835,387.56 478.163,387.56 C 478.163,387.56 367.339,387.56 367.339,387.56 C 363.667,387.56 360.686,384.579 360.686,380.907 "
       id="path139" />
  </clipPath>
  <g
     clip-path="url(#1)"
     id="g140">
    <path
       stroke="none"
       fill="#000000"
       transform="matrix(0.05 0 0 0.05 -10 -11)"
       fill-opacity="0.247059"
       d="M 7502.42,7926.85 C 7502.42,7926.85 7502.42,6612.76 7502.42,6612.76 C 7502.42,6539.32 7562.04,6479.7 7635.48,6479.7 C 7635.48,6479.7 9851.97,6479.7 9851.97,6479.7 C 9925.41,6479.7 9985.02,6539.32 9985.02,6612.76 C 9985.02,6612.76 9985.02,7926.85 9985.02,7926.85 C 9985.02,8000.29 9925.41,8059.9 9851.97,8059.9 C 9851.97,8059.9 7635.48,8059.9 7635.48,8059.9 C 7562.04,8059.9 7502.42,8000.29 7502.42,7926.85 "
       id="path140" />
  </g>
  <path
     stroke="#000000"
     stroke-width="22"
     fill="none"
     transform="matrix(0.05 0 0 0.05 -10 -11)"
     d="M 7413.72,7838.14 C 7413.72,7838.14 7413.72,6524.06 7413.72,6524.06 C 7413.72,6450.61 7473.33,6391 7546.78,6391 C 7546.78,6391 9763.26,6391 9763.26,6391 C 9836.71,6391 9896.32,6450.61 9896.32,6524.06 C 9896.32,6524.06 9896.32,7838.14 9896.32,7838.14 C 9896.32,7911.59 9836.71,7971.2 9763.26,7971.2 C 9763.26,7971.2 7546.78,7971.2 7546.78,7971.2 C 7473.33,7971.2 7413.72,7911.59 7413.72,7838.14 "
     id="path141" />
  <path
     stroke="none"
     fill="#ffffff"
     opacity="0"
     onclick="window.location.href = 'aromatic.svg'"
     transform="matrix(0.05 0 0 0.05 -10 -11)"
     d="M 7535.04,2962.88 C 7535.04,2962.88 7535.04,2209.88 7535.04,2209.88 C 7535.04,2209.88 6646.68,2209.88 6646.68,2209.88 C 6646.68,2209.88 6646.68,2962.88 6646.68,2962.88 C 6646.68,2962.88 7535.04,2962.88 7535.04,2962.88 "
     id="path1"
     inkscape:label="l-aromatic" />
  <path
     stroke="none"
     fill="#ffffff"
     opacity="0"
     onclick="window.location.href = 'aromatic.svg'"
     transform="matrix(0.05 0 0 0.05 -10 -11)"
     d="M 7685.44,5068.48 C 7685.44,5068.48 7685.44,3954.52 7685.44,3954.52 C 7685.44,3954.52 6646.68,3954.52 6646.68,3954.52 C 6646.68,3954.52 6646.68,5068.48 6646.68,5068.48 C 6646.68,5068.48 7685.44,5068.48 7685.44,5068.48 "
     id="path3"
     inkscape:label="l-aromatic" />
  <path
     stroke="none"
     fill="#ffffff"
     opacity="0"
     onclick="window.location.href = 'aromatic.svg'"
     transform="matrix(0.05 0 0 0.05 -10 -11)"
     d="M 10693.4,2962.88 C 10693.4,2962.88 10693.4,1984.28 10693.4,1984.28 C 10693.4,1984.28 9880.28,1984.28 9880.28,1984.28 C 9880.28,1984.28 9880.28,2962.88 9880.28,2962.88 C 9880.28,2962.88 10693.4,2962.88 10693.4,2962.88 "
     id="path7"
     inkscape:label="l-aromatic" />
  <path
     stroke="none"
     fill="#ffffff"
     opacity="0"
     onclick="window.location.href = 'non-alkyl-halides.svg'"
     transform="matrix(0.05 0 0 0.05 -10 -11)"
     d="M 11625.9,4692.48 C 11625.9,4692.48 11625.9,3879.32 11625.9,3879.32 C 11625.9,3879.32 9775,3879.32 9775,3879.32 C 9775,3879.32 9775,4692.48 9775,4692.48 C 9775,4692.48 11625.9,4692.48 11625.9,4692.48 "
     id="path9"
     inkscape:label="l-non-alkyl-halides" />
  <path
     stroke="none"
     fill="#ffffff"
     opacity="0"
     onclick="window.location.href = 'phenols.svg'"
     d="m 482.31812,384.18343 c 0,0 0,-73.18491 0,-73.18491 0,0 -118.70795,0 -118.70795,0 0,0 0,73.18491 0,73.18491 0,0 118.70795,0 118.70795,0"
     id="path9-8"
     inkscape:label="l-phenols"
     style="opacity:0;stroke-width:0.0759751" />
  <path
     stroke="none"
     fill="#ffffff"
     opacity="0"
     onclick="window.location.href = 'supplement.svg'"
     d="m 344.57444,172.31485 c 0,0 0,-31.46561 0,-31.46561 0,0 -35.26935,0 -35.26935,0 0,0 0,31.46561 0,31.46561 0,0 35.26935,0 35.26935,0"
     id="path9-8-3"
     inkscape:label="l-supplement"
     style="opacity:0;stroke-width:0.0271542" />
  <path
     stroke="none"
     fill="#ffffff"
     opacity="0"
     onclick="window.location.href = 'supplement.svg'"
     d="m 341.76325,272.95446 c 0,0 0,-27.22297 0,-27.22297 0,0 -55.06834,0 -55.06834,0 0,0 0,27.22297 0,27.22297 0,0 55.06834,0 55.06834,0"
     id="path9-8-3-6"
     inkscape:label="l-supplement"
     style="opacity:0;stroke-width:0.0315601" />
  <path
     stroke="none"
     fill="#ffffff"
     opacity="0"
     onclick="window.location.href = 'supplement.svg'"
     d="m 452.92978,233.01839 c 0,0 0,-18.03058 0,-18.03058 0,0 -24.66275,0 -24.66275,0 0,0 0,18.03058 0,18.03058 0,0 24.66275,0 24.66275,0"
     id="path9-8-3-5"
     inkscape:label="l-supplement"
     style="opacity:0;stroke-width:0.0171888" />
  <path
     stroke="none"
     fill="#ffffff"
     opacity="0"
     onclick="window.location.href = 'supplement.svg'"
     d="m 555.30236,169.95595 c 0,0 0,-22.98033 0,-22.98033 0,0 -49.41149,0 -49.41149,0 0,0 0,22.98033 0,22.98033 0,0 49.41149,0 49.41149,0"
     id="path9-8-3-1"
     inkscape:label="l-supplement"
     style="opacity:0;stroke-width:0.0274671" />
  <path
     stroke="none"
     fill="#ffffff"
     opacity="0"
     onclick="window.location.href = 'supplement.svg'"
     d="m 586.53281,264.8834 c 0,0 0,-23.68744 0,-23.68744 0,0 -77.69576,0 -77.69576,0 0,0 0,23.68744 0,23.68744 0,0 77.69576,0 77.69576,0"
     id="path9-8-3-4"
     inkscape:label="l-supplement"
     style="opacity:0;stroke-width:0.0349686" />
  <g
     id="nostructures"
     onclick="window.location.href = 'tophenols.svg'"
     transform="matrix(0.87844457,0,0,1,-3.2995176,381.05692)">
    <text
       x="18.000504"
       y="55.14151"
       stroke="none"
       fill="#000000"
       font-style="normal"
       font-weight="bold"
       font-size="200px"
       font-family="Helvetica"
       id="gobacktext-7"
       style="font-style:normal;font-variant:normal;font-weight:bold;font-stretch:normal;font-size:10px;font-family:Helvetica;-inkscape-font-specification:'Helvetica, Bold';font-variant-ligatures:normal;font-variant-caps:normal;font-variant-numeric:normal;font-variant-east-asian:normal;fill:#0088d0;fill-opacity:0.68;stroke:none;stroke-width:0.05"
       inkscape:label="noreagents-text"><tspan
         sodipodi:role="line"
         id="tspan1"
         x="18.000504"
         y="55.14151">show</tspan></text>
    <path
       stroke="none"
       fill="#999999"
       d="m 9.795,54.694678 c 0,0 0,-5.427567 0,-5.427567 0,-2.098514 1.679048,-3.801611 3.747601,-3.801611 0,0 35.119514,0 35.119514,0 2.068778,0 3.747742,1.703097 3.747742,3.801611 0,0 0,5.427567 0,5.427567 0,2.098514 -1.678964,3.801611 -3.747742,3.801611 0,0 -35.119514,0 -35.119514,0 -2.068553,0 -3.747601,-1.703097 -3.747601,-3.801611"
       id="goback-box-8"
       style="fill:#999999;fill-opacity:0.336842;stroke-width:0.0283675"
       inkscape:label="noreagents-box" />
  </g>
  <g
     id="noreagents"
     onclick="window.location.href = 'tophenols-noreagents.svg'"
     transform="translate(-4.6856272,382.9067)">
    <text
       x="11.541888"
       y="67.610527"
       stroke="none"
       fill="#000000"
       font-style="normal"
       font-weight="bold"
       font-size="200px"
       font-family="Helvetica"
       id="gobacktext-7-8"
       style="font-style:normal;font-weight:bold;font-size:10px;font-family:Helvetica;fill:#000000;fill-opacity:0.443609;stroke:none;stroke-width:0.05"
       inkscape:label="noproducts-text"><tspan
         sodipodi:role="line"
         id="tspan2-5"
         x="11.541888"
         y="67.610527"
         style="font-style:normal;font-variant:normal;font-weight:bold;font-stretch:normal;font-size:8px;font-family:Helvetica;-inkscape-font-specification:'Helvetica, Bold';font-variant-ligatures:normal;font-variant-caps:normal;font-variant-numeric:normal;font-variant-east-asian:normal;fill:#000000;fill-opacity:0.5;stroke-width:0.05">reagents</tspan></text>
    <rect
       style="fill:#000000;fill-opacity:0.821053;fill-rule:evenodd;stroke:#a13033;stroke-width:0;stroke-linecap:round;stroke-miterlimit:2;stroke-dasharray:none;paint-order:markers fill stroke"
       id="rect3-9"
       width="31.666824"
       height="0.9773711"
       x="12.566371"
       y="64.987999"
       inkscape:label="noproducts-line" />
    <path
       stroke="none"
       fill="#999999"
       d="m 10.136392,68.163695 c 0,0 0,-5.427567 0,-5.427567 0,-2.098514 1.463398,-3.801611 3.266274,-3.801611 0,0 30.608907,0 30.608907,0 1.803073,0 3.266397,1.703097 3.266397,3.801611 0,0 0,5.427567 0,5.427567 0,2.098514 -1.463324,3.801611 -3.266397,3.801611 0,0 -30.608907,0 -30.608907,0 -1.802876,0 -3.266274,-1.703097 -3.266274,-3.801611"
       id="goback-box-8-6"
       style="fill:#999999;fill-opacity:0.336842;stroke-width:0.0264832"
       inkscape:label="noproducts-box" />
  </g>
  <text
     x="822.84332"
     y="415.79849"
     stroke="none"
     fill="#000000"
     transform="matrix(0.92407999,-0.00322566,0.00377741,1.0821442,0,0)"
     font-style="italic"
     font-weight="bold"
     font-size="8.25806px"
     font-family="'Helvetica Oblique'"
     id="text11"
     style="opacity:1;fill:#00009a;fill-opacity:0.651128;stroke-width:0.0412903">chemisfun</text>
  <g
     id="overlay-box"
     style="opacity:0"
     transform="matrix(0.31364504,0,0,0.8007311,650.50736,385.81436)">
    <rect
       style="fill:#609975;fill-opacity:0.2;stroke:#609970;stroke-width:0;stroke-linecap:round;stroke-opacity:0.657143;paint-order:fill markers stroke"
       id="rect285"
       width="164.84744"
       height="59.583412"
       x="329.69489"
       y="23.171328" />
  </g>
  <g
     id="overlay"
     onclick="window.location.href = 'index.html'"
     onmouseover="this.ownerDocument.getElementById('overlay-box').style.opacity='0.5'"
     onmouseout="this.ownerDocument.getElementById('overlay-box').style.opacity='0'"
     transform="matrix(0.76550767,-0.0030054,0.00267214,0.86098131,195.61318,22.784653)">
    <rect
       style="opacity:0.5;fill:#ffffff;fill-opacity:0;stroke-linecap:round;stroke-opacity:0.657143;paint-order:stroke fill markers"
       id="rect2"
       width="65.93074"
       height="55.035408"
       x="733.06049"
       y="445.87061" />
  </g>
  <g
     id="g1"
     transform="matrix(0.0625,0,0,0.0625,764.65732,406.62566)">
    <rect
       x="239.31"
       y="120.321"
       style="fill:#444242"
       width="33.389"
       height="139.98"
       id="rect1" />
    <rect
       x="256"
       y="120.321"
       style="fill:#3a3839"
       width="16.695"
       height="139.98"
       id="rect2-2" />
    <rect
       x="132.194"
       y="305.86301"
       transform="matrix(0.5,0.866,-0.866,0.5,399.932,58.9793)"
       style="fill:#444242"
       width="33.387001"
       height="139.967"
       id="rect4" />
    <rect
       x="293.125"
       y="359.13"
       transform="matrix(0.866,0.5,-0.5,0.866,236.5654,-131.205)"
       style="fill:#3a3839"
       width="139.967"
       height="33.387001"
       id="rect5" />
    <path
       style="background-color:#ffffff00;fill:#439de2;fill-opacity:1"
       d="m 456.843,485.07 c -9.538,0 -18.951,-2.501 -27.432,-7.398 v 0 c -12.733,-7.351 -21.842,-19.221 -25.646,-33.424 -3.805,-14.201 -1.853,-29.035 5.499,-41.769 7.351,-12.732 19.221,-21.841 33.424,-25.646 14.201,-3.806 29.034,-1.853 41.769,5.499 12.732,7.351 21.841,19.221 25.646,33.424 3.805,14.202 1.853,29.035 -5.499,41.769 -7.351,12.733 -19.221,21.842 -33.424,25.646 -4.742,1.27 -9.557,1.899 -14.337,1.899 z"
       id="path7-3" />
    <path
       style="background-color:#ffffff00;fill:#eda74a;fill-opacity:1"
       d="m 256.001,137.021 c -30.352,0 -55.044,-24.693 -55.044,-55.044 0,-30.351 24.693,-55.044 55.044,-55.044 30.351,0 55.044,24.693 55.044,55.044 0,30.351 -24.693,55.044 -55.044,55.044 z"
       id="path5-4" />
    <path
       style="background-color:#ffffff00;fill:#53acb1;fill-opacity:1"
       d="m 55.158,485.07 c -4.781,0 -9.594,-0.629 -14.336,-1.9 C 26.619,479.365 14.75,470.256 7.398,457.524 0.046,444.792 -1.906,429.957 1.899,415.755 c 3.805,-14.203 12.914,-26.072 25.646,-33.424 12.731,-7.352 27.567,-9.304 41.769,-5.499 14.203,3.805 26.072,12.914 33.424,25.646 7.352,12.732 9.304,27.567 5.499,41.769 -3.805,14.203 -12.914,26.072 -25.646,33.424 -8.481,4.897 -17.896,7.399 -27.433,7.399 z"
       id="path6-7" />
    <path
       style="fill:#f74d37"
       d="m 256.001,384.379 c -38.81,0 -70.384,-31.575 -70.384,-70.384 0,-38.809 31.575,-70.384 70.384,-70.384 38.809,0 70.384,31.575 70.384,70.384 0,38.809 -31.575,70.384 -70.384,70.384 z"
       id="path4-9" />
  </g>
</svg>
