<?xml version="1.0" encoding="UTF-8" standalone="no"?>
<svg
   width="100%"
   height="100%"
   viewBox="0 0 818 460"
   style="background-color: #ffffff00"
   version="1.1"
   id="svg44"
   sodipodi:docname="tosilylethers-noreactants.svg"
   inkscape:version="1.4.2 (ebf0e940, 2025-05-08)"
   xmlns:inkscape="http://www.inkscape.org/namespaces/inkscape"
   xmlns:sodipodi="http://sodipodi.sourceforge.net/DTD/sodipodi-0.dtd"
   xmlns="http://www.w3.org/2000/svg"
   xmlns:svg="http://www.w3.org/2000/svg">
  <path
     stroke="#ffffff"
     stroke-width="1"
     fill="none"
     transform="matrix(0.05 0 0 0.05 -10 -11)"
     d="M 7135.7,4962.1 C 7135.7,4962.1 7135.7,4074.5 7135.7,4074.5 C 7135.7,4074.5 6434,4074.5 6434,4074.5 C 6434,4074.5 6434,4962.1 6434,4962.1 C 6434,4962.1 7135.7,4962.1 7135.7,4962.1 "
     id="path2" />
  <path
     stroke="#000000"
     stroke-width="22"
     fill="none"
     transform="matrix(0.05 0 0 0.05 -10 -11)"
     d="M 16494.7,9367.47 C 16494.7,9367.47 16494.7,284.602 16494.7,284.602 C 16494.7,284.602 268.683,284.602 268.683,284.602 C 268.683,284.602 268.683,9367.47 268.683,9367.47 C 268.683,9367.47 16494.7,9367.47 16494.7,9367.47 "
     id="path5" />
  <text
     x="0"
     y="0"
     stroke="none"
     fill="#000000"
     transform="matrix(0.05 0 0 0.05 11.735 21.13)"
     font-style="normal"
     font-weight="bold"
     font-size="320px"
     font-family="Helvetica"
     id="text5">
Preparation of Silyl Ethers</text>
  <text
     x="0"
     y="0"
     stroke="none"
     fill="#999999"
     transform="matrix(0.05 0 0 0.05 11.9381 39.085)"
     font-style="normal"
     font-weight="normal"
     font-size="320px"
     font-family="Helvetica"
     id="text9">
click for more</text>
  <g
     id="goback"
     onclick="window.location.href = 'index.svg'"
     onmouseover="document.getElementById('goback-box').setAttribute('opacity','0.5');"
     onmouseout="document.getElementById('goback-box').setAttribute('opacity','1')">
    <path
       stroke="none"
       fill="#999999"
       transform="matrix(0.05 0 0 0.05 -10 -11)"
       d="M 395.9,1492.34 C 395.9,1492.34 395.9,1302.37 395.9,1302.37 C 395.9,1228.92 455.513,1169.31 528.955,1169.31 C 528.955,1169.31 1775.84,1169.31 1775.84,1169.31 C 1849.29,1169.31 1908.9,1228.92 1908.9,1302.37 C 1908.9,1302.37 1908.9,1492.34 1908.9,1492.34 C 1908.9,1565.79 1849.29,1625.4 1775.84,1625.4 C 1775.84,1625.4 528.955,1625.4 528.955,1625.4 C 455.513,1625.4 395.9,1565.79 395.9,1492.34 "
       id="goback-box" />
    <text
       x="0"
       y="0"
       stroke="none"
       fill="#000000"
       transform="matrix(0.05 0 0 0.05 29.3796 61.765)"
       font-style="normal"
       font-weight="bold"
       font-size="200px"
       font-family="Helvetica"
       id="gobacktext">
go home</text>
    <path
       stroke="#999999"
       stroke-width="1"
       transform="matrix(0.05 0 0 0.05 -10 -11)"
       d="M 395.9,1492.34 C 395.9,1492.34 395.9,1302.37 395.9,1302.37 C 395.9,1228.92 455.513,1169.31 528.955,1169.31 C 528.955,1169.31 1775.84,1169.31 1775.84,1169.31 C 1849.29,1169.31 1908.9,1228.92 1908.9,1302.37 C 1908.9,1302.37 1908.9,1492.34 1908.9,1492.34 C 1908.9,1565.79 1849.29,1625.4 1775.84,1625.4 C 1775.84,1625.4 528.955,1625.4 528.955,1625.4 C 455.513,1625.4 395.9,1565.79 395.9,1492.34 "
       onclick="window.location.href = 'index.svg'"
       style="opacity:0"
       id="goback-link" />
  </g>
  <path
     stroke="none"
     fill="#000000"
     transform="matrix(0.05 0 0 0.05 -10 -11)"
     d="M 7851.22,4608.33 L 7179.7,4608.33 L 7179.7,4586.33 L 7851.22,4586.33 Z "
     id="path17" />
  <path
     stroke="none"
     fill="#000000"
     transform="matrix(0.05 0 0 0.05 -10 -11)"
     d="M 8044.26,4597.33 C 8044.26,4597.33 7822.5,4653.77 7822.5,4653.77 C 7822.5,4653.77 7850.22,4622.02 7850.22,4597.33 C 7850.22,4572.2 7822.5,4539.89 7822.5,4539.89 C 7822.5,4539.89 8044.26,4597.33 8044.26,4597.33 C 8044.26,4597.33 8044.26,4597.33 8044.26,4597.33 "
     id="path18" />
  <path
     stroke="#000000"
     stroke-width="1"
     fill="none"
     transform="matrix(0.05 0 0 0.05 -10 -11)"
     d="M 8044.26,4597.33 C 8044.26,4597.33 7822.5,4653.77 7822.5,4653.77 C 7822.5,4653.77 7850.22,4622.02 7850.22,4597.33 C 7850.22,4572.2 7822.5,4539.89 7822.5,4539.89 C 7822.5,4539.89 8044.26,4597.33 8044.26,4597.33 C 8044.26,4597.33 8044.26,4597.33 8044.26,4597.33 "
     id="path19" />
  <text
     x="0"
     y="0"
     stroke="none"
     fill="#000000"
     transform="matrix(0.05 0 0 0.05 361.136 230.327)"
     font-style="normal"
     font-weight="bold"
     font-size="200px"
     font-family="Helvetica"
     id="text19">
Et</text>
  <text
     x="0"
     y="0"
     stroke="none"
     fill="#000000"
     transform="matrix(0.05 0 0 0.05 371.136 232.627)"
     font-style="normal"
     font-weight="bold"
     font-size="150px"
     font-family="Helvetica"
     id="text20">
3</text>
  <text
     x="0"
     y="0"
     stroke="none"
     fill="#000000"
     transform="matrix(0.05 0 0 0.05 375.307 230.327)"
     font-style="normal"
     font-weight="bold"
     font-size="200px"
     font-family="Helvetica"
     id="text21">
N</text>
  <text
     x="0"
     y="0"
     stroke="none"
     fill="#000000"
     transform="matrix(0.05 0 0 0.05 351.786 211.157)"
     font-style="normal"
     font-weight="bold"
     font-size="200px"
     font-family="Helvetica"
     id="text22">
Me</text>
  <text
     x="0"
     y="0"
     stroke="none"
     fill="#000000"
     transform="matrix(0.05 0 0 0.05 365.677 213.457)"
     font-style="normal"
     font-weight="bold"
     font-size="150px"
     font-family="Helvetica"
     id="text23">
3</text>
  <text
     x="0"
     y="0"
     stroke="none"
     fill="#000000"
     transform="matrix(0.05 0 0 0.05 369.848 211.157)"
     font-style="normal"
     font-weight="bold"
     font-size="200px"
     font-family="Helvetica"
     id="text24">
SiCl</text>
  <text
     x="0"
     y="0"
     stroke="none"
     fill="#000000"
     transform="matrix(0.05 0 0 0.05 357.275 198.65)"
     font-style="normal"
     font-weight="normal"
     font-size="160px"
     font-family="Helvetica"
     id="text25">
(TMSCl)</text>
  <path
     stroke="none"
     fill="#000000"
     transform="matrix(0.05 0 0 0.05 -10 -11)"
     d="M 8746.54,4460.66 L 8736.15,4466.97 L 8725.76,4460.66 L 8725.06,4267.93 L 8747.24,4267.93 L 8746.54,4460.66 Z "
     id="path25" />
  <text
     x="0"
     y="0"
     stroke="none"
     fill="#0000ff"
     transform="matrix(0.05 0 0 0.05 423.307 200.611)"
     font-style="normal"
     font-weight="bold"
     font-size="180px"
     font-family="Helvetica"
     id="text26">
OTMS</text>
  <path
     stroke="none"
     fill="#000000"
     transform="matrix(0.05 0 0 0.05 -10 -11)"
     d="M 8736.15,4479.24 L 8736.15,4466.97 L 8746.54,4460.66 L 9001.09,4607.12 L 8990,4626.33 L 8736.15,4479.24 Z "
     id="path26" />
  <path
     stroke="none"
     fill="#000000"
     transform="matrix(0.05 0 0 0.05 -10 -11)"
     d="M 8482.3,4626.33 L 8471.21,4607.12 L 8725.76,4460.66 L 8736.15,4466.97 L 8736.15,4479.24 L 8482.3,4626.33 Z "
     id="path27" />
  <text
     x="0"
     y="0"
     stroke="none"
     fill="#000000"
     transform="matrix(0.05 0 0 0.05 462.666 209.16)"
     font-style="italic"
     font-weight="normal"
     font-size="160px"
     font-family="Helvetica Oblique"
     id="text27">
protection</text>
  <text
     x="0"
     y="0"
     stroke="none"
     fill="#000000"
     transform="matrix(0.05 0 0 0.05 458.002 217.569)"
     font-style="italic"
     font-weight="normal"
     font-size="160px"
     font-family="Helvetica Oblique"
     id="text28">
as silyl ether</text>
  <text
     x="0"
     y="0"
     stroke="none"
     fill="#0000ff"
     transform="matrix(0.05 0 0 0.05 401.151 235.44)"
     font-style="normal"
     font-weight="bold"
     font-size="280px"
     font-family="Helvetica"
     id="text31">
silyl </text>
  <text
     x="0"
     y="0"
     stroke="none"
     fill="#0000ff"
     transform="matrix(0.05 0 0 0.05 432.282 235.44)"
     font-style="normal"
     font-weight="bold"
     font-size="280px"
     font-family="Helvetica"
     id="text32">
ethers</text>
  <path
     stroke="none"
     fill="#000000"
     transform="matrix(0.05 0 0 0.05 -10 -11)"
     d="M 8697.7,5891.6 L 8697.7,5162.3 L 8719.7,5162.3 L 8719.7,5891.6 Z "
     id="path35" />
  <path
     stroke="none"
     fill="#000000"
     transform="matrix(0.05 0 0 0.05 -10 -11)"
     d="M 6821.1,5880.6 L 8708.7,5880.6 L 8708.7,5902.6 L 6821.1,5902.6 Z "
     id="path36" />
  <path
     stroke="none"
     fill="#000000"
     transform="matrix(0.05 0 0 0.05 -10 -11)"
     d="M 6832.1,5226.64 L 6832.1,5891.6 L 6810.1,5891.6 L 6810.1,5226.64 Z "
     id="path37" />
  <path
     stroke="none"
     fill="#000000"
     transform="matrix(0.05 0 0 0.05 -10 -11)"
     d="M 6821.1,5033.6 C 6821.1,5033.6 6877.54,5255.36 6877.54,5255.36 C 6877.54,5255.36 6845.79,5227.64 6821.1,5227.64 C 6795.97,5227.64 6763.66,5255.36 6763.66,5255.36 C 6763.66,5255.36 6821.1,5033.6 6821.1,5033.6 C 6821.1,5033.6 6821.1,5033.6 6821.1,5033.6 "
     id="path38" />
  <path
     stroke="#000000"
     stroke-width="1"
     fill="none"
     transform="matrix(0.05 0 0 0.05 -10 -11)"
     d="M 6821.1,5033.6 C 6821.1,5033.6 6877.54,5255.36 6877.54,5255.36 C 6877.54,5255.36 6845.79,5227.64 6821.1,5227.64 C 6795.97,5227.64 6763.66,5255.36 6763.66,5255.36 C 6763.66,5255.36 6821.1,5033.6 6821.1,5033.6 C 6821.1,5033.6 6821.1,5033.6 6821.1,5033.6 "
     id="path39" />
  <text
     x="355.97101"
     y="294.245"
     stroke="none"
     fill="#000000"
     font-style="italic"
     font-weight="normal"
     font-size="8px"
     font-family="'Helvetica Oblique'"
     id="text39"
     style="stroke-width:0.05">deprotection</text>
  <text
     x="0"
     y="0"
     stroke="none"
     fill="#000000"
     transform="matrix(0.05 0 0 0.05 375.385 279.29)"
     font-style="normal"
     font-weight="bold"
     font-size="200px"
     font-family="Helvetica"
     id="text40">
F</text>
  <path
     stroke="#000000"
     stroke-width="18"
     fill="none"
     transform="matrix(0.05 0 0 0.05 -10 -11)"
     d="M 7840.54,5598.48 A 68.8704,68.8704 0 1 0 7978.28,5598.48A 68.8704,68.8704 0 1 0 7840.54,5598.48Z "
     id="path40" />
  <path
     stroke="none"
     fill="#000000"
     transform="matrix(0.05 0 0 0.05 -10 -11)"
     d="M 7868.32,5589.48 L 7950.49,5589.48 L 7950.49,5607.48 L 7868.32,5607.48 Z "
     id="path41" />
  <clipPath
     id="1">
    <path
       clip-rule="evenodd"
       d="M 392.5,182.72 L 517.81,182.72 L 517.81,252.26 L 392.5,252.26 L 392.5,182.72 M 508.375,242.825 C 508.375,242.825 508.375,187.72 508.375,187.72 C 508.375,187.72 397.5,187.72 397.5,187.72 C 397.5,187.72 397.5,242.825 397.5,242.825 C 397.5,242.825 508.375,242.825 508.375,242.825 "
       id="path42" />
  </clipPath>
  <g
     clip-path="url(#1)"
     id="g43">
    <path
       stroke="none"
       fill="#000000"
       transform="matrix(0.05 0 0 0.05 -10 -11)"
       fill-opacity="0.247059"
       d="M 10456.2,5165.2 C 10456.2,5165.2 10456.2,4063.1 10456.2,4063.1 C 10456.2,4063.1 8238.7,4063.1 8238.7,4063.1 C 8238.7,4063.1 8238.7,5165.2 8238.7,5165.2 C 8238.7,5165.2 10456.2,5165.2 10456.2,5165.2 "
       id="path43" />
  </g>
  <path
     stroke="#000000"
     stroke-width="22"
     fill="none"
     transform="matrix(0.05 0 0 0.05 -10 -11)"
     d="M 10367.5,5076.5 C 10367.5,5076.5 10367.5,3974.4 10367.5,3974.4 C 10367.5,3974.4 8150,3974.4 8150,3974.4 C 8150,3974.4 8150,5076.5 8150,5076.5 C 8150,5076.5 10367.5,5076.5 10367.5,5076.5 "
     id="path44" />
  <path
     stroke="none"
     fill="#ffffff"
     opacity="0"
     onclick="window.location.href = 'toalcohols.svg'"
     transform="matrix(0.05 0 0 0.05 -10 -11)"
     d="M 7135.7,4962.1 C 7135.7,4962.1 7135.7,4074.5 7135.7,4074.5 C 7135.7,4074.5 6434,4074.5 6434,4074.5 C 6434,4074.5 6434,4962.1 6434,4962.1 C 6434,4962.1 7135.7,4962.1 7135.7,4962.1 "
     id="path1"
     inkscape:label="l-toalcohols" />
  <path
     stroke="none"
     fill="#ffffff"
     opacity="0"
     onclick="window.location.href = 'alcohols.svg'"
     d="m 511.28212,245.9425 c 0,0 0,-60.41365 0,-60.41365 0,0 -117.46481,0 -117.46481,0 0,0 0,60.41365 0,60.41365 0,0 117.46481,0 117.46481,0"
     id="path1-9"
     inkscape:label="l-silylethers"
     style="opacity:0;stroke-width:0.106742" />
  <path
     stroke="none"
     fill="#ffffff"
     opacity="0"
     onclick="window.location.href = 'supplement.svg'"
     d="m 390.66674,235.17807 c 0,0 0,-45.48576 0,-45.48576 0,0 -40.61385,0 -40.61385,0 0,0 0,45.48576 0,45.48576 0,0 40.61385,0 40.61385,0"
     id="path1-9-7"
     inkscape:label="l-supplement"
     style="opacity:0;stroke-width:0.0544614" />
  <path
     stroke="none"
     fill="#ffffff"
     opacity="0"
     onclick="window.location.href = 'supplement.svg'"
     d="m 392.81578,282.34153 c 0,0 0,-19.50018 0,-19.50018 0,0 -22.36866,0 -22.36866,0 0,0 0,19.50018 0,19.50018 0,0 22.36866,0 22.36866,0"
     id="path1-9-7-1"
     inkscape:label="l-supplement"
     style="opacity:0;stroke-width:0.0264639" />
  <g
     id="nostructures"
     onclick="window.location.href = 'tosilylethers.svg'"
     transform="matrix(0.87844457,0,0,1,-3.2995176,381.05692)">
    <text
       x="18.000504"
       y="55.14151"
       stroke="none"
       fill="#000000"
       font-style="normal"
       font-weight="bold"
       font-size="200px"
       font-family="Helvetica"
       id="gobacktext-7"
       style="font-style:normal;font-variant:normal;font-weight:bold;font-stretch:normal;font-size:10px;font-family:Helvetica;-inkscape-font-specification:'Helvetica, Bold';font-variant-ligatures:normal;font-variant-caps:normal;font-variant-numeric:normal;font-variant-east-asian:normal;fill:#0088d0;fill-opacity:0.68;stroke:none;stroke-width:0.05"
       inkscape:label="noreagents-text"><tspan
         sodipodi:role="line"
         id="tspan1"
         x="18.000504"
         y="55.14151">show</tspan></text>
    <path
       stroke="none"
       fill="#999999"
       d="m 9.795,54.694678 c 0,0 0,-5.427567 0,-5.427567 0,-2.098514 1.679048,-3.801611 3.747601,-3.801611 0,0 35.119514,0 35.119514,0 2.068778,0 3.747742,1.703097 3.747742,3.801611 0,0 0,5.427567 0,5.427567 0,2.098514 -1.678964,3.801611 -3.747742,3.801611 0,0 -35.119514,0 -35.119514,0 -2.068553,0 -3.747601,-1.703097 -3.747601,-3.801611"
       id="goback-box-8"
       style="fill:#999999;fill-opacity:0.336842;stroke-width:0.0283675"
       inkscape:label="noreagents-box" />
  </g>
  <g
     id="noreagents"
     onclick="window.location.href = 'tosilylethers-noreagents.svg'"
     transform="translate(-4.6856272,382.9067)">
    <text
       x="11.541888"
       y="67.610527"
       stroke="none"
       fill="#000000"
       font-style="normal"
       font-weight="bold"
       font-size="200px"
       font-family="Helvetica"
       id="gobacktext-7-8"
       style="font-style:normal;font-weight:bold;font-size:10px;font-family:Helvetica;fill:#000000;fill-opacity:0.443609;stroke:none;stroke-width:0.05"
       inkscape:label="noproducts-text"><tspan
         sodipodi:role="line"
         id="tspan2-5"
         x="11.541888"
         y="67.610527"
         style="font-style:normal;font-variant:normal;font-weight:bold;font-stretch:normal;font-size:8px;font-family:Helvetica;-inkscape-font-specification:'Helvetica, Bold';font-variant-ligatures:normal;font-variant-caps:normal;font-variant-numeric:normal;font-variant-east-asian:normal;fill:#000000;fill-opacity:0.5;stroke-width:0.05">reagents</tspan></text>
    <rect
       style="fill:#000000;fill-opacity:0.821053;fill-rule:evenodd;stroke:#a13033;stroke-width:0;stroke-linecap:round;stroke-miterlimit:2;stroke-dasharray:none;paint-order:markers fill stroke"
       id="rect3-9"
       width="31.666824"
       height="0.9773711"
       x="12.566371"
       y="64.987999"
       inkscape:label="noproducts-line" />
    <path
       stroke="none"
       fill="#999999"
       d="m 10.136392,68.163695 c 0,0 0,-5.427567 0,-5.427567 0,-2.098514 1.463398,-3.801611 3.266274,-3.801611 0,0 30.608907,0 30.608907,0 1.803073,0 3.266397,1.703097 3.266397,3.801611 0,0 0,5.427567 0,5.427567 0,2.098514 -1.463324,3.801611 -3.266397,3.801611 0,0 -30.608907,0 -30.608907,0 -1.802876,0 -3.266274,-1.703097 -3.266274,-3.801611"
       id="goback-box-8-6"
       style="fill:#999999;fill-opacity:0.336842;stroke-width:0.0264832"
       inkscape:label="noproducts-box" />
  </g>
  <text
     x="822.84332"
     y="415.79849"
     stroke="none"
     fill="#000000"
     transform="matrix(0.92407999,-0.00322566,0.00377741,1.0821442,0,0)"
     font-style="italic"
     font-weight="bold"
     font-size="8.25806px"
     font-family="'Helvetica Oblique'"
     id="text11"
     style="opacity:1;fill:#00009a;fill-opacity:0.651128;stroke-width:0.0412903">chemisfun</text>
  <g
     id="overlay-box"
     style="opacity:0"
     transform="matrix(0.31364504,0,0,0.8007311,650.50736,385.81436)">
    <rect
       style="fill:#609975;fill-opacity:0.2;stroke:#609970;stroke-width:0;stroke-linecap:round;stroke-opacity:0.657143;paint-order:fill markers stroke"
       id="rect285"
       width="164.84744"
       height="59.583412"
       x="329.69489"
       y="23.171328" />
  </g>
  <g
     id="overlay"
     onclick="window.location.href = 'index.html'"
     onmouseover="this.ownerDocument.getElementById('overlay-box').style.opacity='0.5'"
     onmouseout="this.ownerDocument.getElementById('overlay-box').style.opacity='0'"
     transform="matrix(0.76550767,-0.0030054,0.00267214,0.86098131,195.61318,22.784653)">
    <rect
       style="opacity:0.5;fill:#ffffff;fill-opacity:0;stroke-linecap:round;stroke-opacity:0.657143;paint-order:stroke fill markers"
       id="rect2"
       width="65.93074"
       height="55.035408"
       x="733.06049"
       y="445.87061" />
  </g>
  <g
     id="g1"
     transform="matrix(0.0625,0,0,0.0625,764.65732,406.62566)">
    <rect
       x="239.31"
       y="120.321"
       style="fill:#444242"
       width="33.389"
       height="139.98"
       id="rect1" />
    <rect
       x="256"
       y="120.321"
       style="fill:#3a3839"
       width="16.695"
       height="139.98"
       id="rect2-2" />
    <rect
       x="132.194"
       y="305.86301"
       transform="matrix(0.5,0.866,-0.866,0.5,399.932,58.9793)"
       style="fill:#444242"
       width="33.387001"
       height="139.967"
       id="rect4" />
    <rect
       x="293.125"
       y="359.13"
       transform="matrix(0.866,0.5,-0.5,0.866,236.5654,-131.205)"
       style="fill:#3a3839"
       width="139.967"
       height="33.387001"
       id="rect5" />
    <path
       style="background-color:#ffffff00;fill:#439de2;fill-opacity:1"
       d="m 456.843,485.07 c -9.538,0 -18.951,-2.501 -27.432,-7.398 v 0 c -12.733,-7.351 -21.842,-19.221 -25.646,-33.424 -3.805,-14.201 -1.853,-29.035 5.499,-41.769 7.351,-12.732 19.221,-21.841 33.424,-25.646 14.201,-3.806 29.034,-1.853 41.769,5.499 12.732,7.351 21.841,19.221 25.646,33.424 3.805,14.202 1.853,29.035 -5.499,41.769 -7.351,12.733 -19.221,21.842 -33.424,25.646 -4.742,1.27 -9.557,1.899 -14.337,1.899 z"
       id="path7-3" />
    <path
       style="background-color:#ffffff00;fill:#eda74a;fill-opacity:1"
       d="m 256.001,137.021 c -30.352,0 -55.044,-24.693 -55.044,-55.044 0,-30.351 24.693,-55.044 55.044,-55.044 30.351,0 55.044,24.693 55.044,55.044 0,30.351 -24.693,55.044 -55.044,55.044 z"
       id="path5-4" />
    <path
       style="background-color:#ffffff00;fill:#53acb1;fill-opacity:1"
       d="m 55.158,485.07 c -4.781,0 -9.594,-0.629 -14.336,-1.9 C 26.619,479.365 14.75,470.256 7.398,457.524 0.046,444.792 -1.906,429.957 1.899,415.755 c 3.805,-14.203 12.914,-26.072 25.646,-33.424 12.731,-7.352 27.567,-9.304 41.769,-5.499 14.203,3.805 26.072,12.914 33.424,25.646 7.352,12.732 9.304,27.567 5.499,41.769 -3.805,14.203 -12.914,26.072 -25.646,33.424 -8.481,4.897 -17.896,7.399 -27.433,7.399 z"
       id="path6-7" />
    <path
       style="fill:#f74d37"
       d="m 256.001,384.379 c -38.81,0 -70.384,-31.575 -70.384,-70.384 0,-38.809 31.575,-70.384 70.384,-70.384 38.809,0 70.384,31.575 70.384,70.384 0,38.809 -31.575,70.384 -70.384,70.384 z"
       id="path4-9" />
  </g>
</svg>
