<?xml version="1.0" encoding="UTF-8" standalone="no"?>
<svg
   width="100%"
   height="100%"
   viewBox="0 0 818 460"
   style="background-color: #ffffff00"
   version="1.1"
   id="svg69"
   sodipodi:docname="tothiols.svg"
   inkscape:version="1.4.2 (ebf0e940, 2025-05-08)"
   xmlns:inkscape="http://www.inkscape.org/namespaces/inkscape"
   xmlns:sodipodi="http://sodipodi.sourceforge.net/DTD/sodipodi-0.dtd"
   xmlns="http://www.w3.org/2000/svg"
   xmlns:svg="http://www.w3.org/2000/svg">
  <path
     stroke="#ffffff"
     stroke-width="1"
     fill="none"
     transform="matrix(0.05 0 0 0.05 -10 -11)"
     d="M 8832.4,2073.2 C 8832.4,2073.2 8832.4,1248.6 8832.4,1248.6 C 8832.4,1248.6 7780.6,1248.6 7780.6,1248.6 C 7780.6,1248.6 7780.6,2073.2 7780.6,2073.2 C 7780.6,2073.2 8832.4,2073.2 8832.4,2073.2 "
     id="path2" />
  <path
     stroke="#ffffff"
     stroke-width="1"
     fill="none"
     transform="matrix(0.05 0 0 0.05 -10 -11)"
     d="M 9258.4,5807.8 C 9258.4,5807.8 9258.4,4954.8 9258.4,4954.8 C 9258.4,4954.8 7723.8,4954.8 7723.8,4954.8 C 7723.8,4954.8 7723.8,5807.8 7723.8,5807.8 C 7723.8,5807.8 9258.4,5807.8 9258.4,5807.8 "
     id="path4" />
  <path
     stroke="none"
     fill="#ffffff"
     transform="matrix(0.05 0 0 0.05 -10 -11)"
     d="M 8335.4,5921.4 C 8335.4,5921.4 8335.4,6389 8335.4,6389 C 8335.4,6389 9300,6389 9300,6389 C 9300,6389 9300,5921.4 9300,5921.4 C 9300,5921.4 8335.4,5921.4 8335.4,5921.4 "
     id="path5" />
  <path
     stroke="#ffffff"
     stroke-width="1"
     fill="none"
     transform="matrix(0.05 0 0 0.05 -10 -11)"
     d="M 8335.4,5921.4 C 8335.4,5921.4 8335.4,6389 8335.4,6389 C 8335.4,6389 9300,6389 9300,6389 C 9300,6389 9300,5921.4 9300,5921.4 C 9300,5921.4 8335.4,5921.4 8335.4,5921.4 "
     id="path6" />
  <path
     stroke="none"
     fill="#ffffff"
     transform="matrix(0.05 0 0 0.05 -10 -11)"
     d="M 6730.8,7029 C 6730.8,7029 6730.8,6460 6730.8,6460 C 6730.8,6460 7482.4,6460 7482.4,6460 C 7482.4,6460 7482.4,7029 7482.4,7029 C 7482.4,7029 6730.8,7029 6730.8,7029 "
     id="path7" />
  <path
     stroke="#ffffff"
     stroke-width="1"
     fill="none"
     transform="matrix(0.05 0 0 0.05 -10 -11)"
     d="M 6730.8,7029 C 6730.8,7029 6730.8,6460 6730.8,6460 C 6730.8,6460 7482.4,6460 7482.4,6460 C 7482.4,6460 7482.4,7029 7482.4,7029 C 7482.4,7029 6730.8,7029 6730.8,7029 "
     id="path8" />
  <path
     stroke="#000000"
     stroke-width="22"
     fill="none"
     transform="matrix(0.05 0 0 0.05 -10 -11)"
     d="M 16494.7,9367.47 C 16494.7,9367.47 16494.7,284.602 16494.7,284.602 C 16494.7,284.602 268.683,284.602 268.683,284.602 C 268.683,284.602 268.683,9367.47 268.683,9367.47 C 268.683,9367.47 16494.7,9367.47 16494.7,9367.47 "
     id="path11" />
  <text
     x="0"
     y="0"
     stroke="none"
     fill="#000000"
     transform="matrix(0.05 0 0 0.05 11.735 21.13)"
     font-style="normal"
     font-weight="bold"
     font-size="320px"
     font-family="Helvetica"
     id="text11">
Preparation of Thiols and Sulfides</text>
  <text
     x="0"
     y="0"
     stroke="none"
     fill="#999999"
     transform="matrix(0.05 0 0 0.05 11.9381 39.085)"
     font-style="normal"
     font-weight="normal"
     font-size="320px"
     font-family="Helvetica"
     id="text16">
click for more</text>
  <g
     id="goback"
     onclick="window.location.href = 'index.svg'"
     onmouseover="document.getElementById('goback-box').setAttribute('opacity','0.5');"
     onmouseout="document.getElementById('goback-box').setAttribute('opacity','1')">
    <path
       stroke="none"
       fill="#999999"
       transform="matrix(0.05 0 0 0.05 -10 -11)"
       d="M 395.9,1492.34 C 395.9,1492.34 395.9,1302.37 395.9,1302.37 C 395.9,1228.92 455.513,1169.31 528.955,1169.31 C 528.955,1169.31 1775.84,1169.31 1775.84,1169.31 C 1849.29,1169.31 1908.9,1228.92 1908.9,1302.37 C 1908.9,1302.37 1908.9,1492.34 1908.9,1492.34 C 1908.9,1565.79 1849.29,1625.4 1775.84,1625.4 C 1775.84,1625.4 528.955,1625.4 528.955,1625.4 C 455.513,1625.4 395.9,1565.79 395.9,1492.34 "
       id="goback-box" />
    <text
       x="0"
       y="0"
       stroke="none"
       fill="#000000"
       transform="matrix(0.05 0 0 0.05 29.3796 61.765)"
       font-style="normal"
       font-weight="bold"
       font-size="200px"
       font-family="Helvetica"
       id="gobacktext">
go home</text>
    <path
       stroke="#999999"
       stroke-width="1"
       transform="matrix(0.05 0 0 0.05 -10 -11)"
       d="M 395.9,1492.34 C 395.9,1492.34 395.9,1302.37 395.9,1302.37 C 395.9,1228.92 455.513,1169.31 528.955,1169.31 C 528.955,1169.31 1775.84,1169.31 1775.84,1169.31 C 1849.29,1169.31 1908.9,1228.92 1908.9,1302.37 C 1908.9,1302.37 1908.9,1492.34 1908.9,1492.34 C 1908.9,1565.79 1849.29,1625.4 1775.84,1625.4 C 1775.84,1625.4 528.955,1625.4 528.955,1625.4 C 455.513,1625.4 395.9,1565.79 395.9,1492.34 "
       onclick="window.location.href = 'index.svg'"
       style="opacity:0"
       id="goback-link" />
  </g>
  <g
     id="howdotheyreact"
     onclick="window.location.href = 'thiols-sulfonicacids.svg'"
     onmouseover="document.getElementById('howdotheyreact-box').setAttribute('opacity','0.5');"
     onmouseout="document.getElementById('howdotheyreact-box').setAttribute('opacity','1')">
    <path
       stroke="none"
       fill="#999999"
       transform="matrix(0.05 0 0 0.05 -10 -11)"
       d="M 381.591,1996.7 C 381.591,1996.7 381.591,1806.72 381.591,1806.72 C 381.591,1733.28 441.204,1673.66 514.646,1673.66 C 514.646,1673.66 2149.06,1673.66 2149.06,1673.66 C 2222.51,1673.66 2282.12,1733.28 2282.12,1806.72 C 2282.12,1806.72 2282.12,1996.7 2282.12,1996.7 C 2282.12,2070.14 2222.51,2129.75 2149.06,2129.75 C 2149.06,2129.75 514.646,2129.75 514.646,2129.75 C 441.204,2129.75 381.591,2070.14 381.591,1996.7 "
       id="howdotheyreact-box" />
    <text
       x="0"
       y="0"
       stroke="none"
       fill="#000000"
       transform="matrix(0.05 0 0 0.05 12.2417 86.9826)"
       font-style="normal"
       font-weight="bold"
       font-size="200px"
       font-family="Helvetica"
       id="howdotheyreact-text">
how do they react?</text>
    <path
       stroke="#999999"
       stroke-width="1"
       transform="matrix(0.05 0 0 0.05 -10 -11)"
       d="M 381.591,1996.7 C 381.591,1996.7 381.591,1806.72 381.591,1806.72 C 381.591,1733.28 441.204,1673.66 514.646,1673.66 C 514.646,1673.66 2149.06,1673.66 2149.06,1673.66 C 2222.51,1673.66 2282.12,1733.28 2282.12,1806.72 C 2282.12,1806.72 2282.12,1996.7 2282.12,1996.7 C 2282.12,2070.14 2222.51,2129.75 2149.06,2129.75 C 2149.06,2129.75 514.646,2129.75 514.646,2129.75 C 441.204,2129.75 381.591,2070.14 381.591,1996.7 "
       style="opacity:0"
       id="howdotheyreact-link" />
  </g>
  <text
     x="0"
     y="0"
     stroke="none"
     fill="#0000ff"
     transform="matrix(0.05 0 0 0.05 386.688 185.171)"
     font-style="normal"
     font-weight="bold"
     font-size="280px"
     font-family="Helvetica"
     id="text21">
thiols</text>
  <path
     stroke="none"
     fill="#000000"
     transform="matrix(0.05 0 0 0.05 -10 -11)"
     d="M 8020.55,3005.09 L 8031.63,2985.89 L 8285.48,3132.97 L 8285.48,3145.25 L 8275.09,3151.55 L 8020.55,3005.09 Z "
     id="path21" />
  <path
     stroke="none"
     fill="#000000"
     transform="matrix(0.05 0 0 0.05 -10 -11)"
     d="M 8295.88,3151.55 L 8285.48,3145.25 L 8285.48,3132.97 L 8539.33,2985.89 L 8550.42,3005.09 L 8295.88,3151.55 Z "
     id="path22" />
  <text
     x="0"
     y="0"
     stroke="none"
     fill="#0000ff"
     transform="matrix(0.05 0 0 0.05 401.273 164.477)"
     font-style="normal"
     font-weight="bold"
     font-size="180px"
     font-family="Helvetica"
     id="text22">
SH</text>
  <path
     stroke="none"
     fill="#000000"
     transform="matrix(0.05 0 0 0.05 -10 -11)"
     d="M 8275.09,3151.55 L 8285.48,3145.25 L 8295.88,3151.55 L 8296.57,3346.87 L 8274.39,3346.87 L 8275.09,3151.55 Z "
     id="path23" />
  <path
     stroke="none"
     fill="#000000"
     transform="matrix(0.05 0 0 0.05 -10 -11)"
     d="M 8267.6,4776.96 L 8267.6,4160.6 L 8289.6,4160.6 L 8289.6,4776.96 Z "
     id="path24" />
  <path
     stroke="none"
     fill="#000000"
     transform="matrix(0.05 0 0 0.05 -10 -11)"
     d="M 8278.6,4970 C 8278.6,4970 8221.16,4748.24 8221.16,4748.24 C 8221.16,4748.24 8253.47,4775.96 8278.6,4775.96 C 8303.29,4775.96 8335.04,4748.24 8335.04,4748.24 C 8335.04,4748.24 8278.6,4970 8278.6,4970 C 8278.6,4970 8278.6,4970 8278.6,4970 "
     id="path25" />
  <path
     stroke="#000000"
     stroke-width="1"
     fill="none"
     transform="matrix(0.05 0 0 0.05 -10 -11)"
     d="M 8278.6,4970 C 8278.6,4970 8221.16,4748.24 8221.16,4748.24 C 8221.16,4748.24 8253.47,4775.96 8278.6,4775.96 C 8303.29,4775.96 8335.04,4748.24 8335.04,4748.24 C 8335.04,4748.24 8278.6,4970 8278.6,4970 C 8278.6,4970 8278.6,4970 8278.6,4970 "
     id="path26" />
  <text
     x="0"
     y="0"
     stroke="none"
     fill="#000000"
     transform="matrix(0.05 0 0 0.05 408.9 216.91)"
     font-style="normal"
     font-weight="bold"
     font-size="200px"
     font-family="Helvetica"
     id="text26">
NaH</text>
  <path
     stroke="none"
     fill="#000000"
     transform="matrix(0.05 0 0 0.05 -10 -11)"
     d="M 8006.35,5106.69 L 8017.43,5087.49 L 8271.28,5234.57 L 8271.28,5246.85 L 8260.88,5253.15 L 8006.35,5106.69 Z "
     id="path27" />
  <path
     stroke="none"
     fill="#000000"
     transform="matrix(0.05 0 0 0.05 -10 -11)"
     d="M 8281.68,5253.15 L 8271.28,5246.85 L 8271.28,5234.57 L 8525.13,5087.49 L 8536.22,5106.69 L 8281.68,5253.15 Z "
     id="path28" />
  <text
     x="0"
     y="0"
     stroke="none"
     fill="#0000ff"
     transform="matrix(0.05 0 0 0.05 400.563 269.557)"
     font-style="normal"
     font-weight="bold"
     font-size="180px"
     font-family="Helvetica"
     id="text28">
S</text>
  <path
     stroke="none"
     fill="#000000"
     transform="matrix(0.05 0 0 0.05 -10 -11)"
     d="M 8260.88,5253.15 L 8271.28,5246.85 L 8281.68,5253.15 L 8282.37,5449.47 L 8260.19,5449.47 L 8260.88,5253.15 Z "
     id="path29" />
  <path
     stroke="#0000ff"
     stroke-width="18"
     fill="none"
     transform="matrix(0.05 0 0 0.05 -10 -11)"
     d="M 8344.98,5619.11 A 68.8704,68.8704 0 1 0 8482.72,5619.11A 68.8704,68.8704 0 1 0 8344.98,5619.11Z "
     id="path30" />
  <path
     stroke="none"
     fill="#0000ff"
     transform="matrix(0.05 0 0 0.05 -10 -11)"
     d="M 8372.77,5610.11 L 8454.94,5610.11 L 8454.94,5628.11 L 8372.77,5628.11 Z "
     id="path31" />
  <text
     x="0"
     y="0"
     stroke="none"
     fill="#0000ff"
     transform="matrix(0.05 0 0 0.05 420.902 259.51)"
     font-style="normal"
     font-weight="normal"
     font-size="160px"
     font-family="Helvetica"
     id="text31">
thiolates</text>
  <text
     x="0"
     y="0"
     stroke="none"
     fill="#000000"
     transform="matrix(0.05 0 0 0.05 346.725 215.49)"
     font-style="italic"
     font-weight="normal"
     font-size="160px"
     font-family="Helvetica Oblique"
     id="text32">
deprotonation</text>
  <path
     stroke="none"
     fill="#000000"
     transform="matrix(0.05 0 0 0.05 -10 -11)"
     d="M 8253.4,6438.36 L 8253.4,5822 L 8275.4,5822 L 8275.4,6438.36 Z "
     id="path32" />
  <path
     stroke="none"
     fill="#000000"
     transform="matrix(0.05 0 0 0.05 -10 -11)"
     d="M 8264.4,6631.4 C 8264.4,6631.4 8206.96,6409.64 8206.96,6409.64 C 8206.96,6409.64 8239.27,6437.36 8264.4,6437.36 C 8289.09,6437.36 8320.84,6409.64 8320.84,6409.64 C 8320.84,6409.64 8264.4,6631.4 8264.4,6631.4 C 8264.4,6631.4 8264.4,6631.4 8264.4,6631.4 "
     id="path33" />
  <path
     stroke="#000000"
     stroke-width="1"
     fill="none"
     transform="matrix(0.05 0 0 0.05 -10 -11)"
     d="M 8264.4,6631.4 C 8264.4,6631.4 8206.96,6409.64 8206.96,6409.64 C 8206.96,6409.64 8239.27,6437.36 8264.4,6437.36 C 8289.09,6437.36 8320.84,6409.64 8320.84,6409.64 C 8320.84,6409.64 8264.4,6631.4 8264.4,6631.4 C 8264.4,6631.4 8264.4,6631.4 8264.4,6631.4 "
     id="path34" />
  <path
     stroke="none"
     fill="#000000"
     transform="matrix(0.05 0 0 0.05 -10 -11)"
     d="M 8468.74,6172.4 L 8457.66,6153.2 L 8722.84,5999.5 L 8722.9,6025.17 L 8468.74,6172.4 Z "
     id="path35" />
  <text
     x="0"
     y="0"
     stroke="none"
     fill="#107f01"
     transform="matrix(0.05 0 0 0.05 435.849 300.379)"
     font-style="normal"
     font-weight="bold"
     font-size="180px"
     font-family="Helvetica"
     id="text35">
Br</text>
  <path
     stroke="none"
     fill="#000000"
     transform="matrix(0.05 0 0 0.05 -10 -11)"
     d="M 8722.9,6025.17 L 8722.84,5999.5 L 8893.66,6099 L 8882.57,6118.21 L 8722.9,6025.17 Z "
     id="path36" />
  <path
     stroke="none"
     fill="#000000"
     transform="matrix(0.05 0 0 0.05 -10 -11)"
     d="M 7992.15,6810.69 L 8003.23,6791.49 L 8257.08,6938.57 L 8257.08,6950.85 L 8246.68,6957.15 L 7992.15,6810.69 Z "
     id="path37" />
  <path
     stroke="none"
     fill="#000000"
     transform="matrix(0.05 0 0 0.05 -10 -11)"
     d="M 8267.48,6957.15 L 8257.08,6950.85 L 8257.08,6938.57 L 8510.93,6791.49 L 8522.02,6810.69 L 8267.48,6957.15 Z "
     id="path38" />
  <text
     x="0"
     y="0"
     stroke="none"
     fill="#0000ff"
     transform="matrix(0.05 0 0 0.05 399.853 354.757)"
     font-style="normal"
     font-weight="bold"
     font-size="180px"
     font-family="Helvetica"
     id="text38">
S</text>
  <path
     stroke="none"
     fill="#000000"
     transform="matrix(0.05 0 0 0.05 -10 -11)"
     d="M 8246.68,6957.15 L 8257.08,6950.85 L 8267.48,6957.15 L 8268.17,7153.47 L 8245.99,7153.47 L 8246.68,6957.15 Z "
     id="path39" />
  <path
     stroke="none"
     fill="#0000ff"
     transform="matrix(0.05 0 0 0.05 -10 -11)"
     d="M 8168.32,7288.82 L 8179.41,7308.02 L 7997.89,7413.65 L 7997.94,7387.98 L 8168.32,7288.82 Z "
     id="path40" />
  <path
     stroke="none"
     fill="#0000ff"
     transform="matrix(0.05 0 0 0.05 -10 -11)"
     d="M 7997.94,7387.98 L 7997.89,7413.65 L 7732.75,7259.97 L 7743.84,7240.77 L 7997.94,7387.98 Z "
     id="path41" />
  <text
     x="396.569"
     y="375.95001"
     stroke="none"
     fill="#0000ff"
     font-style="normal"
     font-weight="bold"
     font-size="14px"
     font-family="Helvetica"
     id="text41"
     style="stroke-width:0.05">sulfides</text>
  <path
     stroke="none"
     fill="#000000"
     transform="matrix(0.05 0 0 0.05 -10 -11)"
     d="M 8261.94,2545.85 L 8261.94,2179.45 L 8283.94,2179.45 L 8283.94,2545.85 Z "
     id="path46" />
  <path
     stroke="none"
     fill="#000000"
     transform="matrix(0.05 0 0 0.05 -10 -11)"
     d="M 8272.94,2738.89 C 8272.94,2738.89 8215.5,2517.13 8215.5,2517.13 C 8215.5,2517.13 8247.81,2544.85 8272.94,2544.85 C 8297.63,2544.85 8329.38,2517.13 8329.38,2517.13 C 8329.38,2517.13 8272.94,2738.89 8272.94,2738.89 C 8272.94,2738.89 8272.94,2738.89 8272.94,2738.89 "
     id="path47" />
  <path
     stroke="#000000"
     stroke-width="1"
     fill="none"
     transform="matrix(0.05 0 0 0.05 -10 -11)"
     d="M 8272.94,2738.89 C 8272.94,2738.89 8215.5,2517.13 8215.5,2517.13 C 8215.5,2517.13 8247.81,2544.85 8272.94,2544.85 C 8297.63,2544.85 8329.38,2517.13 8329.38,2517.13 C 8329.38,2517.13 8272.94,2738.89 8272.94,2738.89 C 8272.94,2738.89 8272.94,2738.89 8272.94,2738.89 "
     id="path48" />
  <text
     x="0"
     y="0"
     stroke="none"
     fill="#000000"
     transform="matrix(0.05 0 0 0.05 415.267 112.481)"
     font-style="normal"
     font-weight="bold"
     font-size="200px"
     font-family="Helvetica"
     id="text48">
SH</text>
  <text
     x="0"
     y="0"
     stroke="none"
     fill="#000000"
     transform="matrix(0.05 0 0 0.05 379.849 112.701)"
     font-style="normal"
     font-weight="normal"
     font-size="200px"
     font-family="Helvetica"
     id="text49">
1,2</text>
  <text
     x="0"
     y="0"
     stroke="none"
     fill="#000000"
     transform="matrix(0.05 0 0 0.05 393.75 109.115)"
     font-style="normal"
     font-weight="normal"
     font-size="150px"
     font-family="Helvetica"
     id="text50">
o</text>
  <path
     stroke="none"
     fill="#000000"
     transform="matrix(0.05 0 0 0.05 -10 -11)"
     d="M 7992.15,1428.89 L 8003.23,1409.69 L 8257.08,1556.77 L 8257.08,1569.05 L 8246.68,1575.35 L 7992.15,1428.89 Z "
     id="path50" />
  <path
     stroke="none"
     fill="#000000"
     transform="matrix(0.05 0 0 0.05 -10 -11)"
     d="M 8267.48,1575.35 L 8257.08,1569.05 L 8257.08,1556.77 L 8510.93,1409.69 L 8522.02,1428.89 L 8267.48,1575.35 Z "
     id="path51" />
  <text
     x="0"
     y="0"
     stroke="none"
     fill="#107f01"
     transform="matrix(0.05 0 0 0.05 399.604 85.6674)"
     font-style="normal"
     font-weight="bold"
     font-size="180px"
     font-family="Helvetica"
     id="text51">
Br</text>
  <path
     stroke="none"
     fill="#000000"
     transform="matrix(0.05 0 0 0.05 -10 -11)"
     d="M 8246.68,1575.35 L 8257.08,1569.05 L 8267.48,1575.35 L 8268.17,1772.56 L 8245.99,1772.56 L 8246.68,1575.35 Z "
     id="path52" />
  <path
     stroke="#000000"
     stroke-width="18"
     fill="none"
     transform="matrix(0.05 0 0 0.05 -10 -11)"
     d="M 8418.6,2230.2 A 68.8704,68.8704 0 1 0 8556.35,2230.2A 68.8704,68.8704 0 1 0 8418.6,2230.2Z "
     id="path53" />
  <path
     stroke="none"
     fill="#000000"
     transform="matrix(0.05 0 0 0.05 -10 -11)"
     d="M 8446.39,2221.2 L 8528.56,2221.2 L 8528.56,2239.2 L 8446.39,2239.2 Z "
     id="path54" />
  <path
     stroke="none"
     fill="#000000"
     transform="matrix(0.05 0 0 0.05 -10 -11)"
     d="M 6634.6,7118.38 L 6634.6,1689.8 L 6656.6,1689.8 L 6656.6,7118.38 Z "
     id="path55" />
  <path
     stroke="none"
     fill="#000000"
     transform="matrix(0.05 0 0 0.05 -10 -11)"
     d="M 7148.36,7129.38 L 6645.6,7129.38 L 6645.6,7107.38 L 7148.36,7107.38 Z "
     id="path56" />
  <path
     stroke="none"
     fill="#000000"
     transform="matrix(0.05 0 0 0.05 -10 -11)"
     d="M 7341.4,7118.38 C 7341.4,7118.38 7119.64,7174.82 7119.64,7174.82 C 7119.64,7174.82 7147.36,7143.07 7147.36,7118.38 C 7147.36,7093.25 7119.64,7060.94 7119.64,7060.94 C 7119.64,7060.94 7341.4,7118.38 7341.4,7118.38 C 7341.4,7118.38 7341.4,7118.38 7341.4,7118.38 "
     id="path57" />
  <path
     stroke="#000000"
     stroke-width="1"
     fill="none"
     transform="matrix(0.05 0 0 0.05 -10 -11)"
     d="M 7341.4,7118.38 C 7341.4,7118.38 7119.64,7174.82 7119.64,7174.82 C 7119.64,7174.82 7147.36,7143.07 7147.36,7118.38 C 7147.36,7093.25 7119.64,7060.94 7119.64,7060.94 C 7119.64,7060.94 7341.4,7118.38 7341.4,7118.38 C 7341.4,7118.38 7341.4,7118.38 7341.4,7118.38 "
     id="path58" />
  <path
     stroke="none"
     fill="#000000"
     transform="matrix(0.05 0 0 0.05 -10 -11)"
     d="M 7341.4,1704.98 L 6645.6,1704.98 L 6645.6,1682.98 L 7341.4,1682.98 Z "
     id="path59" />
  <path
     stroke="none"
     fill="#000000"
     transform="matrix(0.05 0 0 0.05 -10 -11)"
     d="M 7033,6955.32 L 7033.04,6929.65 L 7203.42,6830.49 L 7214.51,6849.7 L 7033,6955.32 Z "
     id="path60" />
  <text
     x="0"
     y="0"
     stroke="none"
     fill="#000000"
     transform="matrix(0.05 0 0 0.05 351.608 331.841)"
     font-style="normal"
     font-weight="bold"
     font-size="180px"
     font-family="Helvetica"
     id="text60">
S</text>
  <path
     stroke="none"
     fill="#000000"
     transform="matrix(0.05 0 0 0.05 -10 -11)"
     d="M 6767.86,6801.65 L 6778.94,6782.44 L 7033.04,6929.65 L 7033,6955.32 L 6767.86,6801.65 Z "
     id="path61" />
  <path
     stroke="#000000"
     stroke-width="18"
     fill="none"
     transform="matrix(0.05 0 0 0.05 -10 -11)"
     d="M 7223.88,6605.7 A 68.8704,68.8704 0 1 0 7361.62,6605.7A 68.8704,68.8704 0 1 0 7223.88,6605.7Z "
     id="path62" />
  <path
     stroke="none"
     fill="#000000"
     transform="matrix(0.05 0 0 0.05 -10 -11)"
     d="M 7251.67,6596.7 L 7333.84,6596.7 L 7333.84,6614.7 L 7251.67,6614.7 Z "
     id="path63" />
  <text
     x="0"
     y="0"
     stroke="none"
     fill="#000000"
     transform="matrix(0.05 0 0 0.05 301.039 332.091)"
     font-style="normal"
     font-weight="normal"
     font-size="200px"
     font-family="Helvetica"
     id="text63">
1,2</text>
  <text
     x="0"
     y="0"
     stroke="none"
     fill="#000000"
     transform="matrix(0.05 0 0 0.05 314.94 328.505)"
     font-style="normal"
     font-weight="normal"
     font-size="150px"
     font-family="Helvetica"
     id="text64">
o</text>
  <clipPath
     id="1">
    <path
       clip-rule="evenodd"
       d="M 366.22,128.08 L 455.965,128.08 L 455.965,203.625 L 366.22,203.625 L 366.22,128.08 M 446.53,194.19 C 446.53,194.19 446.53,133.08 446.53,133.08 C 446.53,133.08 371.22,133.08 371.22,133.08 C 371.22,133.08 371.22,194.19 371.22,194.19 C 371.22,194.19 446.53,194.19 446.53,194.19 "
       id="path64" />
  </clipPath>
  <g
     clip-path="url(#1)"
     id="g65">
    <path
       stroke="none"
       fill="#000000"
       transform="matrix(0.05 0 0 0.05 -10 -11)"
       fill-opacity="0.247059"
       d="M 9219.3,4192.5 C 9219.3,4192.5 9219.3,2970.3 9219.3,2970.3 C 9219.3,2970.3 7713.1,2970.3 7713.1,2970.3 C 7713.1,2970.3 7713.1,4192.5 7713.1,4192.5 C 7713.1,4192.5 9219.3,4192.5 9219.3,4192.5 "
       id="path65" />
  </g>
  <path
     stroke="#000000"
     stroke-width="22"
     fill="none"
     transform="matrix(0.05 0 0 0.05 -10 -11)"
     d="M 9130.6,4103.8 C 9130.6,4103.8 9130.6,2881.6 9130.6,2881.6 C 9130.6,2881.6 7624.4,2881.6 7624.4,2881.6 C 7624.4,2881.6 7624.4,4103.8 7624.4,4103.8 C 7624.4,4103.8 9130.6,4103.8 9130.6,4103.8 "
     id="path66" />
  <clipPath
     id="2">
    <path
       clip-rule="evenodd"
       d="M 364.09,316.23 L 466.487,316.23 L 466.487,391.775 L 364.09,391.775 L 364.09,316.23 M 457.052,382.34 C 457.052,382.34 457.052,321.23 457.052,321.23 C 457.052,321.23 369.09,321.23 369.09,321.23 C 369.09,321.23 369.09,382.34 369.09,382.34 C 369.09,382.34 457.052,382.34 457.052,382.34 "
       id="path67" />
  </clipPath>
  <g
     clip-path="url(#2)"
     id="g68">
    <path
       stroke="none"
       fill="#000000"
       transform="matrix(0.05 0 0 0.05 -10 -11)"
       fill-opacity="0.247059"
       d="M 9429.75,7955.5 C 9429.75,7955.5 9429.75,6733.3 9429.75,6733.3 C 9429.75,6733.3 7670.5,6733.3 7670.5,6733.3 C 7670.5,6733.3 7670.5,7955.5 7670.5,7955.5 C 7670.5,7955.5 9429.75,7955.5 9429.75,7955.5 "
       id="path68" />
  </g>
  <path
     stroke="#000000"
     stroke-width="22"
     fill="none"
     transform="matrix(0.05 0 0 0.05 -10 -11)"
     d="M 9341.04,7866.8 C 9341.04,7866.8 9341.04,6644.6 9341.04,6644.6 C 9341.04,6644.6 7581.8,6644.6 7581.8,6644.6 C 7581.8,6644.6 7581.8,7866.8 7581.8,7866.8 C 7581.8,7866.8 9341.04,7866.8 9341.04,7866.8 "
     id="path69" />
  <path
     stroke="none"
     fill="#ffffff"
     opacity="0"
     onclick="window.location.href = 'tohalides.svg'"
     transform="matrix(0.05 0 0 0.05 -10 -11)"
     d="M 8832.4,2073.2 C 8832.4,2073.2 8832.4,1248.6 8832.4,1248.6 C 8832.4,1248.6 7780.6,1248.6 7780.6,1248.6 C 7780.6,1248.6 7780.6,2073.2 7780.6,2073.2 C 7780.6,2073.2 8832.4,2073.2 8832.4,2073.2 "
     id="path1"
     inkscape:label="l-tohalides" />
  <path
     stroke="none"
     fill="#ffffff"
     opacity="0"
     onclick="window.location.href = 'tothiols.svg'"
     transform="matrix(0.05 0 0 0.05 -10 -11)"
     d="M 9258.4,5807.8 C 9258.4,5807.8 9258.4,4954.8 9258.4,4954.8 C 9258.4,4954.8 7723.8,4954.8 7723.8,4954.8 C 7723.8,4954.8 7723.8,5807.8 7723.8,5807.8 C 7723.8,5807.8 9258.4,5807.8 9258.4,5807.8 "
     id="path3"
     inkscape:label="l-tothiols" />
  <path
     stroke="none"
     fill="#ffffff"
     opacity="0"
     onclick="window.location.href = 'thiols-sulfonicacids.svg'"
     d="m 447.75503,195.806 c 0,0 0,-62.97932 0,-62.97932 0,0 -79.07569,0 -79.07569,0 0,0 0,62.97932 0,62.97932 0,0 79.07569,0 79.07569,0"
     id="path3-1"
     inkscape:label="l-thiols"
     style="opacity:0;stroke-width:0.0616806" />
  <path
     stroke="none"
     fill="#ffffff"
     opacity="0"
     onclick="window.location.href = 'thiols-sulfonicacids.svg'"
     d="m 457.52827,381.12423 c 0,0 0,-59.06984 0,-59.06984 0,0 -90.02225,0 -90.02225,0 0,0 0,59.06984 0,59.06984 0,0 90.02225,0 90.02225,0"
     id="path3-1-2"
     inkscape:label="l-thiols"
     style="opacity:0;stroke-width:0.0637362" />
  <path
     stroke="none"
     fill="#ffffff"
     opacity="0"
     onclick="window.location.href = 'supplement.svg'"
     d="m 435.28176,117.43529 c 0,0 0,-21.538794 0,-21.538794 0,0 -28.2524,0 -28.2524,0 0,0 0,21.538794 0,21.538794 0,0 28.2524,0 28.2524,0"
     id="path3-1-2-9"
     inkscape:label="l-supplement"
     style="opacity:0;stroke-width:0.0215609" />
  <path
     stroke="none"
     fill="#ffffff"
     opacity="0"
     onclick="window.location.href = 'supplement.svg'"
     d="m 434.59376,222.89314 c 0,0 0,-21.53879 0,-21.53879 0,0 -28.2524,0 -28.2524,0 0,0 0,21.53879 0,21.53879 0,0 28.2524,0 28.2524,0"
     id="path3-1-2-9-3"
     inkscape:label="l-supplement"
     style="opacity:0;stroke-width:0.0215609" />
  <path
     stroke="none"
     fill="#ffffff"
     opacity="0"
     onclick="window.location.href = 'tohalides.svg'"
     d="m 454.32222,306.09054 c 0,0 0,-25.44827 0,-25.44827 0,0 -46.23603,0 -46.23603,0 0,0 0,25.44827 0,25.44827 0,0 46.23603,0 46.23603,0"
     id="path3-1-2-9-9"
     inkscape:label="l-supplement"
     style="opacity:0;stroke-width:0.0299811" />
  <path
     stroke="none"
     fill="#ffffff"
     opacity="0"
     onclick="window.location.href = 'thiols-sulfonicacids.svg'"
     d="m 360.98857,340.68707 c 0,0 0,-30.13965 0,-30.13965 0,0 -34.50758,0 -34.50758,0 0,0 0,30.13965 0,30.13965 0,0 34.50758,0 34.50758,0"
     id="path3-1-2-9-9-8"
     inkscape:label="l-supplement"
     style="opacity:0;stroke-width:0.0281874" />

  <g
     id="noreactants"
     onclick="window.location.href = 'tothiols-noreactants.svg'"
     transform="translate(-4.6856272,378.9067)">
    <text
       x="11.200497"
       y="54.141506"
       stroke="none"
       fill="#000000"
       font-style="normal"
       font-weight="bold"
       font-size="200px"
       font-family="Helvetica"
       id="gobacktext-7"
       style="font-style:normal;font-weight:bold;font-size:10px;font-family:Helvetica;fill:#000000;fill-opacity:0.443609;stroke:none;stroke-width:0.05"
       inkscape:label="noreagents-text"><tspan
         sodipodi:role="line"
         id="tspan2"
         x="11.200497"
         y="54.141506"
         style="font-style:normal;font-variant:normal;font-weight:bold;font-stretch:normal;font-size:8px;font-family:Helvetica;-inkscape-font-specification:'Helvetica, Bold';font-variant-ligatures:normal;font-variant-caps:normal;font-variant-numeric:normal;font-variant-east-asian:normal;fill:#000000;fill-opacity:0.5;stroke-width:0.05">reactants</tspan></text>
    <rect
       style="fill:#000000;fill-opacity:0.821053;fill-rule:evenodd;stroke:#a13033;stroke-width:0;stroke-linecap:round;stroke-miterlimit:2;stroke-dasharray:none;paint-order:markers fill stroke"
       id="rect3"
       width="31.666824"
       height="0.9773711"
       x="12.224979"
       y="51.518982"
       inkscape:label="noreagents-line" />
    <path
       stroke="none"
       fill="#999999"
       d="m 9.795,54.694678 c 0,0 0,-5.427567 0,-5.427567 0,-2.098514 1.463398,-3.801611 3.266274,-3.801611 0,0 30.608907,0 30.608907,0 1.803073,0 3.266397,1.703097 3.266397,3.801611 0,0 0,5.427567 0,5.427567 0,2.098514 -1.463324,3.801611 -3.266397,3.801611 0,0 -30.608907,0 -30.608907,0 -1.802876,0 -3.266274,-1.703097 -3.266274,-3.801611"
       id="goback-box-8"
       style="fill:#999999;fill-opacity:0.336842;stroke-width:0.0264832"
       inkscape:label="noreagents-box" />
  </g>
  <g
     id="noreagents"
     onclick="window.location.href = 'tothiols-noreagents.svg'"
     transform="translate(-4.6856272,382.9067)">
    <text
       x="11.541888"
       y="67.610527"
       stroke="none"
       fill="#000000"
       font-style="normal"
       font-weight="bold"
       font-size="200px"
       font-family="Helvetica"
       id="gobacktext-7-8"
       style="font-style:normal;font-weight:bold;font-size:10px;font-family:Helvetica;fill:#000000;fill-opacity:0.443609;stroke:none;stroke-width:0.05"
       inkscape:label="noproducts-text"><tspan
         sodipodi:role="line"
         id="tspan2-5"
         x="11.541888"
         y="67.610527"
         style="font-style:normal;font-variant:normal;font-weight:bold;font-stretch:normal;font-size:8px;font-family:Helvetica;-inkscape-font-specification:'Helvetica, Bold';font-variant-ligatures:normal;font-variant-caps:normal;font-variant-numeric:normal;font-variant-east-asian:normal;fill:#000000;fill-opacity:0.5;stroke-width:0.05">reagents</tspan></text>
    <rect
       style="fill:#000000;fill-opacity:0.821053;fill-rule:evenodd;stroke:#a13033;stroke-width:0;stroke-linecap:round;stroke-miterlimit:2;stroke-dasharray:none;paint-order:markers fill stroke"
       id="rect3-9"
       width="31.666824"
       height="0.9773711"
       x="12.566371"
       y="64.987999"
       inkscape:label="noproducts-line" />
    <path
       stroke="none"
       fill="#999999"
       d="m 10.136392,68.163695 c 0,0 0,-5.427567 0,-5.427567 0,-2.098514 1.463398,-3.801611 3.266274,-3.801611 0,0 30.608907,0 30.608907,0 1.803073,0 3.266397,1.703097 3.266397,3.801611 0,0 0,5.427567 0,5.427567 0,2.098514 -1.463324,3.801611 -3.266397,3.801611 0,0 -30.608907,0 -30.608907,0 -1.802876,0 -3.266274,-1.703097 -3.266274,-3.801611"
       id="goback-box-8-6"
       style="fill:#999999;fill-opacity:0.336842;stroke-width:0.0264832"
       inkscape:label="noproducts-box" />
  </g>

  <text x="822.84332" y="415.79849" stroke="none" fill="#000000" transform="matrix(0.92407999,-0.00322566,0.00377741,1.0821442,0,0)" font-style="italic" font-weight="bold" font-size="8.25806px" font-family="'Helvetica Oblique'" id="text11" style="opacity:1;fill:#00009a;fill-opacity:0.651128;stroke-width:0.0412903">chemisfun</text>
  <g id="overlay-box" style="opacity:0" transform="matrix(0.31364504,0,0,0.8007311,650.50736,385.81436)">
    <rect style="fill:#609975;fill-opacity:0.2;stroke:#609970;stroke-width:0;stroke-linecap:round;stroke-opacity:0.657143;paint-order:fill markers stroke" id="rect285" width="164.84744" height="59.583412" x="329.69489" y="23.171328" />
  </g>
  <g id="overlay" onclick="window.location.href = 'about.svg'" onmouseover="this.ownerDocument.getElementById('overlay-box').style.opacity='0.5'" onmouseout="this.ownerDocument.getElementById('overlay-box').style.opacity='0'" transform="matrix(0.76550767,-0.0030054,0.00267214,0.86098131,195.61318,22.784653)">
    <rect style="opacity:0.5;fill:#ffffff;fill-opacity:0;stroke-linecap:round;stroke-opacity:0.657143;paint-order:stroke fill markers" id="rect2" width="65.93074" height="55.035408" x="733.06049" y="445.87061" />
  </g>
  <g id="g1" transform="matrix(0.0625,0,0,0.0625,764.65732,406.62566)">
    <rect x="239.31" y="120.321" style="fill:#444242" width="33.389" height="139.98" id="rect1" />
    <rect x="256" y="120.321" style="fill:#3a3839" width="16.695" height="139.98" id="rect2-2" />
    <rect x="132.194" y="305.86301" transform="matrix(0.5,0.866,-0.866,0.5,399.932,58.9793)" style="fill:#444242" width="33.387001" height="139.967" id="rect3" />
    <rect x="293.125" y="359.13" transform="matrix(0.866,0.5,-0.5,0.866,236.5654,-131.205)" style="fill:#3a3839" width="139.967" height="33.387001" id="rect4" />
    <path style="background-color:#ffffff00;fill:#439de2;fill-opacity:1" d="m 456.843,485.07 c -9.538,0 -18.951,-2.501 -27.432,-7.398 v 0 c -12.733,-7.351 -21.842,-19.221 -25.646,-33.424 -3.805,-14.201 -1.853,-29.035 5.499,-41.769 7.351,-12.732 19.221,-21.841 33.424,-25.646 14.201,-3.806 29.034,-1.853 41.769,5.499 12.732,7.351 21.841,19.221 25.646,33.424 3.805,14.202 1.853,29.035 -5.499,41.769 -7.351,12.733 -19.221,21.842 -33.424,25.646 -4.742,1.27 -9.557,1.899 -14.337,1.899 z" id="path7-3" />
    <path style="background-color:#ffffff00;fill:#eda74a;fill-opacity:1" d="m 256.001,137.021 c -30.352,0 -55.044,-24.693 -55.044,-55.044 0,-30.351 24.693,-55.044 55.044,-55.044 30.351,0 55.044,24.693 55.044,55.044 0,30.351 -24.693,55.044 -55.044,55.044 z" id="path5-4" />
    <path style="background-color:#ffffff00;fill:#53acb1;fill-opacity:1" d="m 55.158,485.07 c -4.781,0 -9.594,-0.629 -14.336,-1.9 C 26.619,479.365 14.75,470.256 7.398,457.524 0.046,444.792 -1.906,429.957 1.899,415.755 c 3.805,-14.203 12.914,-26.072 25.646,-33.424 12.731,-7.352 27.567,-9.304 41.769,-5.499 14.203,3.805 26.072,12.914 33.424,25.646 7.352,12.732 9.304,27.567 5.499,41.769 -3.805,14.203 -12.914,26.072 -25.646,33.424 -8.481,4.897 -17.896,7.399 -27.433,7.399 z" id="path6-7" />
    <path style="fill:#f74d37" d="m 256.001,384.379 c -38.81,0 -70.384,-31.575 -70.384,-70.384 0,-38.809 31.575,-70.384 70.384,-70.384 38.809,0 70.384,31.575 70.384,70.384 0,38.809 -31.575,70.384 -70.384,70.384 z" id="path4-9" />
  </g>
</svg>
