<?xml version="1.0" encoding="UTF-8" standalone="no"?>
<svg
   width="100%"
   height="100%"
   viewBox="0 0 818 460"
   style="background-color: #ffffff00"
   version="1.1"
   id="svg157"
   sodipodi:docname="ylides-noproducts.svg"
   inkscape:version="1.4.2 (ebf0e940, 2025-05-08)"
   xmlns:inkscape="http://www.inkscape.org/namespaces/inkscape"
   xmlns:sodipodi="http://sodipodi.sourceforge.net/DTD/sodipodi-0.dtd"
   xmlns="http://www.w3.org/2000/svg"
   xmlns:svg="http://www.w3.org/2000/svg">
  <path
     stroke="#000000"
     stroke-width="22"
     fill="none"
     transform="matrix(0.05 0 0 0.05 -10 -11)"
     d="M 16494.7,9367.47 C 16494.7,9367.47 16494.7,284.602 16494.7,284.602 C 16494.7,284.602 268.683,284.602 268.683,284.602 C 268.683,284.602 268.683,9367.47 268.683,9367.47 C 268.683,9367.47 16494.7,9367.47 16494.7,9367.47 "
     id="path15" />
  <text
     x="0"
     y="0"
     stroke="none"
     fill="#000000"
     transform="matrix(0.05 0 0 0.05 11.735 21.13)"
     font-style="normal"
     font-weight="bold"
     font-size="320px"
     font-family="Helvetica"
     id="text15">
Ylides - Reactions</text>
  <text
     x="0"
     y="0"
     stroke="none"
     fill="#999999"
     transform="matrix(0.05 0 0 0.05 11.9381 39.085)"
     font-style="normal"
     font-weight="normal"
     font-size="320px"
     font-family="Helvetica"
     id="text18">
click for more</text>
  <g
     id="goback"
     onclick="window.location.href = 'index.svg'"
     onmouseover="document.getElementById('goback-box').setAttribute('opacity','0.5');"
     onmouseout="document.getElementById('goback-box').setAttribute('opacity','1')">
    <path
       stroke="none"
       fill="#999999"
       transform="matrix(0.05 0 0 0.05 -10 -11)"
       d="M 395.9,1492.34 C 395.9,1492.34 395.9,1302.37 395.9,1302.37 C 395.9,1228.92 455.513,1169.31 528.955,1169.31 C 528.955,1169.31 1775.84,1169.31 1775.84,1169.31 C 1849.29,1169.31 1908.9,1228.92 1908.9,1302.37 C 1908.9,1302.37 1908.9,1492.34 1908.9,1492.34 C 1908.9,1565.79 1849.29,1625.4 1775.84,1625.4 C 1775.84,1625.4 528.955,1625.4 528.955,1625.4 C 455.513,1625.4 395.9,1565.79 395.9,1492.34 "
       id="goback-box" />
    <text
       x="0"
       y="0"
       stroke="none"
       fill="#000000"
       transform="matrix(0.05 0 0 0.05 29.3796 61.765)"
       font-style="normal"
       font-weight="bold"
       font-size="200px"
       font-family="Helvetica"
       id="gobacktext">
go home</text>
    <path
       stroke="#999999"
       stroke-width="1"
       transform="matrix(0.05 0 0 0.05 -10 -11)"
       d="M 395.9,1492.34 C 395.9,1492.34 395.9,1302.37 395.9,1302.37 C 395.9,1228.92 455.513,1169.31 528.955,1169.31 C 528.955,1169.31 1775.84,1169.31 1775.84,1169.31 C 1849.29,1169.31 1908.9,1228.92 1908.9,1302.37 C 1908.9,1302.37 1908.9,1492.34 1908.9,1492.34 C 1908.9,1565.79 1849.29,1625.4 1775.84,1625.4 C 1775.84,1625.4 528.955,1625.4 528.955,1625.4 C 455.513,1625.4 395.9,1565.79 395.9,1492.34 "
       onclick="history.back()"
       style="opacity:0"
       id="goback-link" />
  </g>
  <g
     id="howtomake"
     onclick="window.location.href = 'toylides.svg'"
     onmouseover="document.getElementById('howtomake-box').setAttribute('opacity','0.5');"
     onmouseout="document.getElementById('howtomake-box').setAttribute('opacity','1')">
    <path
       stroke="none"
       fill="#999999"
       transform="matrix(0.05 0 0 0.05 -10 -11)"
       d="M 381.591,2007.46 C 381.591,2007.46 381.591,1817.48 381.591,1817.48 C 381.591,1744.04 441.204,1684.42 514.647,1684.42 C 514.647,1684.42 1761.54,1684.42 1761.54,1684.42 C 1834.98,1684.42 1894.59,1744.04 1894.59,1817.48 C 1894.59,1817.48 1894.59,2007.46 1894.59,2007.46 C 1894.59,2080.9 1834.98,2140.51 1761.54,2140.51 C 1761.54,2140.51 514.647,2140.51 514.647,2140.51 C 441.204,2140.51 381.591,2080.9 381.591,2007.46 "
       id="howtomake-box" />
    <text
       x="0"
       y="0"
       stroke="none"
       fill="#000000"
       transform="matrix(0.05 0 0 0.05 17.275 87.5206)"
       font-style="normal"
       font-weight="bold"
       font-size="200px"
       font-family="Helvetica"
       id="howtomaketext">
how to make</text>
    <path
       stroke="#999999"
       stroke-width="1"
       transform="matrix(0.05 0 0 0.05 -10 -11)"
       d="M 381.591,2007.46 C 381.591,2007.46 381.591,1817.48 381.591,1817.48 C 381.591,1744.04 441.204,1684.42 514.647,1684.42 C 514.647,1684.42 1761.54,1684.42 1761.54,1684.42 C 1834.98,1684.42 1894.59,1744.04 1894.59,1817.48 C 1894.59,1817.48 1894.59,2007.46 1894.59,2007.46 C 1894.59,2080.9 1834.98,2140.51 1761.54,2140.51 C 1761.54,2140.51 514.647,2140.51 514.647,2140.51 C 441.204,2140.51 381.591,2080.9 381.591,2007.46 "
       style="opacity:0"
       id="howtomake-link" />
  </g>
  <path
     stroke="none"
     fill="#000000"
     transform="matrix(0.05 0 0 0.05 -10 -11)"
     d="M 5444.72,4373.56 L 5444.72,3799.8 L 5466.72,3799.8 L 5466.72,4373.56 Z "
     id="path22" />
  <path
     stroke="none"
     fill="#000000"
     transform="matrix(0.05 0 0 0.05 -10 -11)"
     d="M 5455.72,4566.6 C 5455.72,4566.6 5398.28,4344.84 5398.28,4344.84 C 5398.28,4344.84 5430.59,4372.56 5455.72,4372.56 C 5480.41,4372.56 5512.16,4344.84 5512.16,4344.84 C 5512.16,4344.84 5455.72,4566.6 5455.72,4566.6 C 5455.72,4566.6 5455.72,4566.6 5455.72,4566.6 "
     id="path23" />
  <path
     stroke="#000000"
     stroke-width="1"
     fill="none"
     transform="matrix(0.05 0 0 0.05 -10 -11)"
     d="M 5455.72,4566.6 C 5455.72,4566.6 5398.28,4344.84 5398.28,4344.84 C 5398.28,4344.84 5430.59,4372.56 5455.72,4372.56 C 5480.41,4372.56 5512.16,4344.84 5512.16,4344.84 C 5512.16,4344.84 5455.72,4566.6 5455.72,4566.6 C 5455.72,4566.6 5455.72,4566.6 5455.72,4566.6 "
     id="path24" />
  <text
     x="0"
     y="0"
     stroke="none"
     fill="#0000ff"
     transform="matrix(0.05 0 0 0.05 296.664 140.151)"
     font-style="normal"
     font-weight="bold"
     font-size="280px"
     font-family="Helvetica"
     id="text24">
ylides</text>
  <path
     stroke="none"
     fill="#000000"
     transform="matrix(0.05 0 0 0.05 -10 -11)"
     d="M 7149.93,2729.5 L 7161.02,2710.29 L 7414.86,2857.37 L 7414.86,2883.03 L 7149.93,2729.5 Z "
     id="path30" />
  <path
     stroke="none"
     fill="#000000"
     transform="matrix(0.05 0 0 0.05 -10 -11)"
     d="M 7414.86,2883.03 L 7414.86,2857.37 L 7668.71,2710.29 L 7679.8,2729.5 L 7414.86,2883.03 Z "
     id="path31" />
  <text
     x="0"
     y="0"
     stroke="none"
     fill="#000000"
     transform="matrix(0.05 0 0 0.05 357.742 150.697)"
     font-style="normal"
     font-weight="bold"
     font-size="180px"
     font-family="Helvetica"
     id="text31">
PPh</text>
  <text
     x="0"
     y="0"
     stroke="none"
     fill="#000000"
     transform="matrix(0.05 0 0 0.05 375.245 152.767)"
     font-style="normal"
     font-weight="bold"
     font-size="135px"
     font-family="Helvetica"
     id="text32">
3</text>
  <path
     stroke="none"
     fill="#000000"
     transform="matrix(0.05 0 0 0.05 -10 -11)"
     d="M 7431.49,2853.65 L 7453.67,2853.65 L 7453.67,3073.16 L 7431.49,3073.16 L 7431.49,2853.65 Z "
     id="path32" />
  <path
     stroke="none"
     fill="#000000"
     transform="matrix(0.05 0 0 0.05 -10 -11)"
     d="M 7376.06,2853.65 L 7398.23,2853.65 L 7398.23,3073.16 L 7376.06,3073.16 L 7376.06,2853.65 Z "
     id="path33" />
  <g
     id="g8">
    <g
       id="g7">
      <path
         stroke="none"
         fill="#ffffff"
         transform="matrix(0.05 0 0 0.05 -10 -11)"
         d="M 5326.2,4529.96 C 5326.2,4529.96 5326.2,3754.24 5326.2,3754.24 C 5326.2,3754.24 4625.8,3754.24 4625.8,3754.24 C 4625.8,3754.24 4625.8,4529.96 4625.8,4529.96 C 4625.8,4529.96 5326.2,4529.96 5326.2,4529.96 "
         id="path3" />
      <path
         stroke="#ffffff"
         stroke-width="1"
         fill="none"
         transform="matrix(0.05 0 0 0.05 -10 -11)"
         d="M 5326.2,4529.96 C 5326.2,4529.96 5326.2,3754.24 5326.2,3754.24 C 5326.2,3754.24 4625.8,3754.24 4625.8,3754.24 C 4625.8,3754.24 4625.8,4529.96 4625.8,4529.96 C 4625.8,4529.96 5326.2,4529.96 5326.2,4529.96 "
         id="path4" />
    </g>
    <text
       x="0"
       y="0"
       stroke="none"
       fill="#000000"
       transform="matrix(0.05 0 0 0.05 239.337 192.369)"
       font-style="normal"
       font-weight="bold"
       font-size="180px"
       font-family="Helvetica"
       id="text33">
O</text>
    <path
       stroke="none"
       fill="#000000"
       transform="matrix(0.05 0 0 0.05 -10 -11)"
       d="M 5073.38,4103.09 L 5095.56,4103.09 L 5095.56,4317.61 L 5073.38,4317.61 L 5073.38,4103.09 Z "
       id="path34" />
    <path
       stroke="none"
       fill="#000000"
       transform="matrix(0.05 0 0 0.05 -10 -11)"
       d="M 5017.94,4103.09 L 5040.12,4103.09 L 5040.12,4317.61 L 5017.94,4317.61 L 5017.94,4103.09 Z "
       id="path35" />
    <path
       stroke="none"
       fill="#000000"
       transform="matrix(0.05 0 0 0.05 -10 -11)"
       d="M 5056.75,4288.23 L 5056.75,4313.88 L 4803.35,4460.7 L 4792.27,4441.5 L 5056.75,4288.23 Z "
       id="path36" />
    <path
       stroke="none"
       fill="#000000"
       transform="matrix(0.05 0 0 0.05 -10 -11)"
       d="M 5056.75,4313.88 L 5056.75,4288.23 L 5321.24,4441.5 L 5310.15,4460.7 L 5056.75,4313.88 Z "
       id="path37" />
  </g>
  <path
     stroke="none"
     fill="#000000"
     transform="matrix(0.05 0 0 0.05 -10 -11)"
     d="M 9516.92,3810.8 L 5455.72,3810.8 L 5455.72,3788.8 L 9516.92,3788.8 Z "
     id="path38" />
  <path
     stroke="none"
     fill="#000000"
     transform="matrix(0.05 0 0 0.05 -10 -11)"
     d="M 7404.32,4387.76 L 7404.32,3437.5 L 7426.32,3437.5 L 7426.32,4387.76 Z "
     id="path39" />
  <path
     stroke="none"
     fill="#000000"
     transform="matrix(0.05 0 0 0.05 -10 -11)"
     d="M 7415.32,4580.8 C 7415.32,4580.8 7357.88,4359.04 7357.88,4359.04 C 7357.88,4359.04 7390.19,4386.76 7415.32,4386.76 C 7440.01,4386.76 7471.76,4359.04 7471.76,4359.04 C 7471.76,4359.04 7415.32,4580.8 7415.32,4580.8 C 7415.32,4580.8 7415.32,4580.8 7415.32,4580.8 "
     id="path40" />
  <path
     stroke="#000000"
     stroke-width="1"
     fill="none"
     transform="matrix(0.05 0 0 0.05 -10 -11)"
     d="M 7415.32,4580.8 C 7415.32,4580.8 7357.88,4359.04 7357.88,4359.04 C 7357.88,4359.04 7390.19,4386.76 7415.32,4386.76 C 7440.01,4386.76 7471.76,4359.04 7471.76,4359.04 C 7471.76,4359.04 7415.32,4580.8 7415.32,4580.8 C 7415.32,4580.8 7415.32,4580.8 7415.32,4580.8 "
     id="path41" />
  <g
     id="g10">
    <g
       id="g9">
      <path
         stroke="none"
         fill="#ffffff"
         transform="matrix(0.05 0 0 0.05 -10 -11)"
         d="M 7316.8,3841.32 C 7316.8,3841.32 7316.8,4518.2 7316.8,4518.2 C 7316.8,4518.2 6584.12,4518.2 6584.12,4518.2 C 6584.12,4518.2 6584.12,3841.32 6584.12,3841.32 C 6584.12,3841.32 7316.8,3841.32 7316.8,3841.32 "
         id="path7" />
      <path
         stroke="#ffffff"
         stroke-width="1"
         fill="none"
         transform="matrix(0.05 0 0 0.05 -10 -11)"
         d="M 7316.8,3841.32 C 7316.8,3841.32 7316.8,4518.2 7316.8,4518.2 C 7316.8,4518.2 6584.12,4518.2 6584.12,4518.2 C 6584.12,4518.2 6584.12,3841.32 6584.12,3841.32 C 6584.12,3841.32 7316.8,3841.32 7316.8,3841.32 "
         id="path8"
         inkscape:label="path8" />
    </g>
    <text
       x="0"
       y="0"
       stroke="none"
       fill="#000000"
       transform="matrix(0.05 0 0 0.05 334.477 190.949)"
       font-style="normal"
       font-weight="bold"
       font-size="180px"
       font-family="Helvetica"
       id="text41">
O</text>
    <path
       stroke="none"
       fill="#000000"
       transform="matrix(0.05 0 0 0.05 -10 -11)"
       d="M 6976.18,4074.69 L 6998.36,4074.69 L 6998.36,4289.21 L 6976.18,4289.21 L 6976.18,4074.69 Z "
       id="path42" />
    <path
       stroke="none"
       fill="#000000"
       transform="matrix(0.05 0 0 0.05 -10 -11)"
       d="M 6920.74,4074.69 L 6942.92,4074.69 L 6942.92,4289.21 L 6920.74,4289.21 L 6920.74,4074.69 Z "
       id="path43" />
    <path
       stroke="none"
       fill="#000000"
       transform="matrix(0.05 0 0 0.05 -10 -11)"
       d="M 6959.8,4259.66 L 6959.86,4285.33 L 6706.15,4432.3 L 6695.07,4413.1 L 6959.8,4259.66 Z "
       id="path44" />
    <text
       x="0"
       y="0"
       stroke="none"
       fill="#000000"
       transform="matrix(0.05 0 0 0.05 347.675 213.374)"
       font-style="normal"
       font-weight="bold"
       font-size="180px"
       font-family="Helvetica"
       id="text44">
H</text>
    <path
       stroke="none"
       fill="#000000"
       transform="matrix(0.05 0 0 0.05 -10 -11)"
       d="M 6959.86,4285.33 L 6959.8,4259.66 L 7130.02,4358.82 L 7118.93,4378.02 L 6959.86,4285.33 Z "
       id="path45" />
  </g>
  <path
     stroke="none"
     fill="#000000"
     transform="matrix(0.05 0 0 0.05 -10 -11)"
     d="M 9505.92,4373.56 L 9505.92,3799.8 L 9527.92,3799.8 L 9527.92,4373.56 Z "
     id="path46" />
  <path
     stroke="none"
     fill="#000000"
     transform="matrix(0.05 0 0 0.05 -10 -11)"
     d="M 9516.92,4566.6 C 9516.92,4566.6 9459.48,4344.84 9459.48,4344.84 C 9459.48,4344.84 9491.79,4372.56 9516.92,4372.56 C 9541.61,4372.56 9573.36,4344.84 9573.36,4344.84 C 9573.36,4344.84 9516.92,4566.6 9516.92,4566.6 C 9516.92,4566.6 9516.92,4566.6 9516.92,4566.6 "
     id="path47" />
  <path
     stroke="#000000"
     stroke-width="1"
     fill="none"
     transform="matrix(0.05 0 0 0.05 -10 -11)"
     d="M 9516.92,4566.6 C 9516.92,4566.6 9459.48,4344.84 9459.48,4344.84 C 9459.48,4344.84 9491.79,4372.56 9516.92,4372.56 C 9541.61,4372.56 9573.36,4344.84 9573.36,4344.84 C 9573.36,4344.84 9516.92,4566.6 9516.92,4566.6 C 9516.92,4566.6 9516.92,4566.6 9516.92,4566.6 "
     id="path48" />
  <g
     id="g12">
    <g
       id="g11">
      <path
         stroke="none"
         fill="#ffffff"
         transform="matrix(0.05 0 0 0.05 -10 -11)"
         d="M 9436.52,3852.08 C 9436.52,3852.08 9436.52,4528.96 9436.52,4528.96 C 9436.52,4528.96 8488.64,4528.96 8488.64,4528.96 C 8488.64,4528.96 8488.64,3852.08 8488.64,3852.08 C 8488.64,3852.08 9436.52,3852.08 9436.52,3852.08 "
         id="path11" />
      <path
         stroke="#ffffff"
         stroke-width="1"
         fill="none"
         transform="matrix(0.05 0 0 0.05 -10 -11)"
         d="M 9436.52,3852.08 C 9436.52,3852.08 9436.52,4528.96 9436.52,4528.96 C 9436.52,4528.96 8488.64,4528.96 8488.64,4528.96 C 8488.64,4528.96 8488.64,3852.08 8488.64,3852.08 C 8488.64,3852.08 9436.52,3852.08 9436.52,3852.08 "
         id="path12" />
    </g>
    <text
       x="0"
       y="0"
       stroke="none"
       fill="#000000"
       transform="matrix(0.05 0 0 0.05 431.037 190.239)"
       font-style="normal"
       font-weight="bold"
       font-size="180px"
       font-family="Helvetica"
       id="text48">
O</text>
    <path
       stroke="none"
       fill="#000000"
       transform="matrix(0.05 0 0 0.05 -10 -11)"
       d="M 8907.38,4060.49 L 8929.56,4060.49 L 8929.56,4275.01 L 8907.38,4275.01 L 8907.38,4060.49 Z "
       id="path49" />
    <path
       stroke="none"
       fill="#000000"
       transform="matrix(0.05 0 0 0.05 -10 -11)"
       d="M 8851.94,4060.49 L 8874.12,4060.49 L 8874.12,4275.01 L 8851.94,4275.01 L 8851.94,4060.49 Z "
       id="path50" />
    <path
       stroke="none"
       fill="#000000"
       transform="matrix(0.05 0 0 0.05 -10 -11)"
       d="M 8890.96,4245.49 L 8891,4271.16 L 8637.35,4418.1 L 8626.27,4398.9 L 8890.96,4245.49 Z "
       id="path51" />
    <text
       x="0"
       y="0"
       stroke="none"
       fill="#000000"
       transform="matrix(0.05 0 0 0.05 443.984 212.664)"
       font-style="normal"
       font-weight="bold"
       font-size="180px"
       font-family="Helvetica"
       id="text51">
OEt</text>
    <path
       stroke="none"
       fill="#000000"
       transform="matrix(0.05 0 0 0.05 -10 -11)"
       d="M 8891,4271.16 L 8890.96,4245.49 L 9072.1,4350.9 L 9061.02,4370.11 L 8891,4271.16 Z "
       id="path52" />
  </g>
  <path
     stroke="none"
     fill="#000000"
     transform="matrix(0.05 0 0 0.05 -10 -11)"
     d="M 8443.48,3001.4 L 8162.16,3001.4 L 8162.16,2979.4 L 8443.48,2979.4 Z "
     id="path70" />
  <path
     stroke="none"
     fill="#000000"
     transform="matrix(0.05 0 0 0.05 -10 -11)"
     d="M 8636.52,2990.4 C 8636.52,2990.4 8414.76,3046.84 8414.76,3046.84 C 8414.76,3046.84 8442.48,3015.09 8442.48,2990.4 C 8442.48,2965.27 8414.76,2932.96 8414.76,2932.96 C 8414.76,2932.96 8636.52,2990.4 8636.52,2990.4 C 8636.52,2990.4 8636.52,2990.4 8636.52,2990.4 "
     id="path71" />
  <path
     stroke="#000000"
     stroke-width="1"
     fill="none"
     transform="matrix(0.05 0 0 0.05 -10 -11)"
     d="M 8636.52,2990.4 C 8636.52,2990.4 8414.76,3046.84 8414.76,3046.84 C 8414.76,3046.84 8442.48,3015.09 8442.48,2990.4 C 8442.48,2965.27 8414.76,2932.96 8414.76,2932.96 C 8414.76,2932.96 8636.52,2990.4 8636.52,2990.4 C 8636.52,2990.4 8636.52,2990.4 8636.52,2990.4 "
     id="path72" />
  <path
     stroke="none"
     fill="#000000"
     transform="matrix(0.05 0 0 0.05 -10 -11)"
     d="M 7969.12,2990.4 C 7969.12,2990.4 8190.88,3047.84 8190.88,3047.84 C 8190.88,3047.84 8163.16,3015.53 8163.16,2990.4 C 8163.16,2965.71 8190.88,2933.96 8190.88,2933.96 C 8190.88,2933.96 7969.12,2990.4 7969.12,2990.4 C 7969.12,2990.4 7969.12,2990.4 7969.12,2990.4 "
     id="path73" />
  <path
     stroke="#000000"
     stroke-width="1"
     fill="none"
     transform="matrix(0.05 0 0 0.05 -10 -11)"
     d="M 7969.12,2990.4 C 7969.12,2990.4 8190.88,3047.84 8190.88,3047.84 C 8190.88,3047.84 8163.16,3015.53 8163.16,2990.4 C 8163.16,2965.71 8190.88,2933.96 8190.88,2933.96 C 8190.88,2933.96 7969.12,2990.4 7969.12,2990.4 C 7969.12,2990.4 7969.12,2990.4 7969.12,2990.4 "
     id="path74" />
  <path
     stroke="none"
     fill="#000000"
     transform="matrix(0.05 0 0 0.05 -10 -11)"
     d="M 8669.33,2701.09 L 8680.41,2681.89 L 8934.26,2828.97 L 8934.26,2841.25 L 8923.86,2847.55 L 8669.33,2701.09 Z "
     id="path75" />
  <path
     stroke="none"
     fill="#000000"
     transform="matrix(0.05 0 0 0.05 -10 -11)"
     d="M 8944.66,2847.55 L 8934.26,2841.25 L 8934.26,2828.97 L 9188.11,2681.89 L 9199.2,2701.09 L 8944.66,2847.55 Z "
     id="path76" />
  <text
     x="0"
     y="0"
     stroke="none"
     fill="#000000"
     transform="matrix(0.05 0 0 0.05 433.712 149.277)"
     font-style="normal"
     font-weight="bold"
     font-size="180px"
     font-family="Helvetica"
     id="text76">
PPh</text>
  <text
     x="0"
     y="0"
     stroke="none"
     fill="#000000"
     transform="matrix(0.05 0 0 0.05 451.215 151.347)"
     font-style="normal"
     font-weight="bold"
     font-size="135px"
     font-family="Helvetica"
     id="text77">
3</text>
  <path
     stroke="none"
     fill="#000000"
     transform="matrix(0.05 0 0 0.05 -10 -11)"
     d="M 8923.86,2847.55 L 8934.26,2841.25 L 8944.66,2847.55 L 8945.35,3044.76 L 8923.17,3044.76 L 8923.86,2847.55 Z "
     id="path77" />
  <path
     stroke="#000000"
     stroke-width="18"
     fill="none"
     transform="matrix(0.05 0 0 0.05 -10 -11)"
     d="M 8864.89,2688.3 A 68.8704,68.8704 0 1 0 9002.63,2688.3A 68.8704,68.8704 0 1 0 8864.89,2688.3Z "
     id="path78" />
  <path
     stroke="none"
     fill="#000000"
     transform="matrix(0.05 0 0 0.05 -10 -11)"
     d="M 8892.67,2679.3 L 8974.85,2679.3 L 8974.85,2697.3 L 8892.67,2697.3 Z "
     id="path79" />
  <path
     stroke="#000000"
     stroke-width="18"
     fill="none"
     transform="matrix(0.05 0 0 0.05 -10 -11)"
     d="M 8869.26,3325.22 A 68.8704,68.8704 0 1 0 9007,3325.22A 68.8704,68.8704 0 1 0 8869.26,3325.22Z "
     id="path80" />
  <path
     stroke="none"
     fill="#000000"
     transform="matrix(0.05 0 0 0.05 -10 -11)"
     d="M 8897.04,3316.22 L 8979.22,3316.22 L 8979.22,3334.22 L 8897.04,3334.22 Z "
     id="path81" />
  <path
     stroke="none"
     fill="#000000"
     transform="matrix(0.05 0 0 0.05 -10 -11)"
     d="M 8947.13,3284.14 L 8947.13,3366.31 L 8929.13,3366.31 L 8929.13,3284.14 Z "
     id="path82" />
  <path
     stroke="#000000"
     stroke-width="22"
     fill="none"
     transform="matrix(0.05 0 0 0.05 -10 -11)"
     d="M 9294.86,3545.37 A 1022.4,1022.4 0 0 0 9312.71,2523.13"
     id="path83" />
  <path
     stroke="#000000"
     stroke-width="22"
     fill="none"
     transform="matrix(0.05 0 0 0.05 -10 -11)"
     d="M 8011.72,2507.6 A 1022.4,1022.4 0 0 0 8011.72,3530"
     id="path84" />
  <path
     stroke="none"
     fill="#ffffff"
     opacity="0"
     onclick="window.location.href = 'toylides.svg'"
     d="m 464.20907,170.52912 c 0,0 0,-62.78091 0,-62.78091 0,0 -171.65826,0 -171.65826,0 0,0 0,62.78091 0,62.78091 0,0 171.65826,0 171.65826,0"
     id="path5-9"
     inkscape:label="l-to-ylides"
     style="stroke-width:0.135762" />
  <path
     stroke="none"
     fill="#ffffff"
     opacity="0"
     onclick="window.location.href = 'toketones.svg'"
     d="m 259.53406,219.9292 c 0,0 0,-39.324 0,-39.324 0,0 -34.04441,0 -34.04441,0 0,0 0,39.324 0,39.324 0,0 34.04441,0 34.04441,0"
     id="path5-9-3"
     inkscape:label="l-to-ketones"
     style="opacity:0;stroke-width:0.0478502" />
  <path
     stroke="none"
     fill="#ffffff"
     opacity="0"
     onclick="window.location.href = 'toaldehydes.svg'"
     d="m 355.65393,220.5421 c 0,0 0,-39.324 0,-39.324 0,0 -34.04441,0 -34.04441,0 0,0 0,39.324 0,39.324 0,0 34.04441,0 34.04441,0"
     id="path5-9-3-4"
     inkscape:label="l-to-aldehydes"
     style="opacity:0;stroke-width:0.0478502" />
  <path
     stroke="none"
     fill="#ffffff"
     opacity="0"
     onclick="window.location.href = 'toesters.svg'"
     d="m 490.27117,252.65332 c 0,0 0,-70.59988 0,-70.59988 0,0 -71.57546,0 -71.57546,0 0,0 0,70.59988 0,70.59988 0,0 71.57546,0 71.57546,0"
     id="path5-9-3-4-5"
     inkscape:label="l-to-esters"
     style="opacity:0;stroke-width:0.0929642" />
  <g
     id="noreagents"
     onclick="window.location.href = 'ylides-noreagents.svg'"
     transform="translate(-4.6856272,378.9067)">
    <text
       x="11.200497"
       y="54.141506"
       stroke="none"
       fill="#000000"
       font-style="normal"
       font-weight="bold"
       font-size="200px"
       font-family="Helvetica"
       id="gobacktext-7"
       style="font-style:normal;font-weight:bold;font-size:10px;font-family:Helvetica;fill:#000000;fill-opacity:0.443609;stroke:none;stroke-width:0.05"
       inkscape:label="noreagents-text"><tspan
         sodipodi:role="line"
         id="tspan2"
         x="11.200497"
         y="54.141506"
         style="font-style:normal;font-variant:normal;font-weight:bold;font-stretch:normal;font-size:8px;font-family:Helvetica;-inkscape-font-specification:'Helvetica, Bold';font-variant-ligatures:normal;font-variant-caps:normal;font-variant-numeric:normal;font-variant-east-asian:normal;fill:#000000;fill-opacity:0.5;stroke-width:0.05">reagents</tspan></text>
    <rect
       style="fill:#000000;fill-opacity:0.821053;fill-rule:evenodd;stroke:#a13033;stroke-width:0;stroke-linecap:round;stroke-miterlimit:2;stroke-dasharray:none;paint-order:markers fill stroke"
       id="rect3"
       width="31.666824"
       height="0.9773711"
       x="12.224979"
       y="51.518982"
       inkscape:label="noreagents-line" />
    <path
       stroke="none"
       fill="#999999"
       d="m 9.795,54.694678 c 0,0 0,-5.427567 0,-5.427567 0,-2.098514 1.463398,-3.801611 3.266274,-3.801611 0,0 30.608907,0 30.608907,0 1.803073,0 3.266397,1.703097 3.266397,3.801611 0,0 0,5.427567 0,5.427567 0,2.098514 -1.463324,3.801611 -3.266397,3.801611 0,0 -30.608907,0 -30.608907,0 -1.802876,0 -3.266274,-1.703097 -3.266274,-3.801611"
       id="goback-box-8"
       style="fill:#999999;fill-opacity:0.336842;stroke-width:0.0264832"
       inkscape:label="noreagents-box" />
  </g>
  <g
     id="nonames"
     onclick="window.location.href = 'ylides.svg'"
     transform="matrix(0.85780308,0,0,1,-3.2442635,382.9067)">
    <text
       x="18.441887"
       y="69.010506"
       stroke="none"
       fill="#000000"
       font-style="normal"
       font-weight="bold"
       font-size="200px"
       font-family="Helvetica"
       id="gobacktext-7-8"
       style="font-style:normal;font-variant:normal;font-weight:bold;font-stretch:normal;font-size:10px;font-family:Helvetica;-inkscape-font-specification:'Helvetica, Bold';font-variant-ligatures:normal;font-variant-caps:normal;font-variant-numeric:normal;font-variant-east-asian:normal;fill:#0088d0;fill-opacity:0.675806;stroke:none;stroke-width:0.05"
       inkscape:label="noproducts-text"><tspan
         sodipodi:role="line"
         id="tspan1"
         x="18.441887"
         y="69.010506">show</tspan></text>
    <path
       stroke="none"
       fill="#999999"
       d="m 10.136392,68.163695 c 0,0 0,-5.427567 0,-5.427567 0,-2.098514 1.679048,-3.801611 3.747601,-3.801611 0,0 35.119514,0 35.119514,0 2.068778,0 3.747742,1.703097 3.747742,3.801611 0,0 0,5.427567 0,5.427567 0,2.098514 -1.678964,3.801611 -3.747742,3.801611 0,0 -35.119514,0 -35.119514,0 -2.068553,0 -3.747601,-1.703097 -3.747601,-3.801611"
       id="goback-box-8-6"
       style="fill:#999999;fill-opacity:0.336842;stroke-width:0.0283675"
       inkscape:label="noproducts-box" />
  </g>
  <text
     x="822.84332"
     y="415.79849"
     stroke="none"
     fill="#000000"
     transform="matrix(0.92407999,-0.00322566,0.00377741,1.0821442,0,0)"
     font-style="italic"
     font-weight="bold"
     font-size="8.25806px"
     font-family="'Helvetica Oblique'"
     id="text11"
     style="opacity:1;fill:#00009a;fill-opacity:0.651128;stroke-width:0.0412903">chemisfun</text>
  <g
     id="overlay-box"
     style="opacity:0"
     transform="matrix(0.31364504,0,0,0.8007311,650.50736,385.81436)">
    <rect
       style="fill:#609975;fill-opacity:0.2;stroke:#609970;stroke-width:0;stroke-linecap:round;stroke-opacity:0.657143;paint-order:fill markers stroke"
       id="rect285"
       width="164.84744"
       height="59.583412"
       x="329.69489"
       y="23.171328" />
  </g>
  <g
     id="overlay"
     onclick="window.location.href = 'about.svg'"
     onmouseover="this.ownerDocument.getElementById('overlay-box').style.opacity='0.5'"
     onmouseout="this.ownerDocument.getElementById('overlay-box').style.opacity='0'"
     transform="matrix(0.76550767,-0.0030054,0.00267214,0.86098131,195.61318,22.784653)">
    <rect
       style="opacity:0.5;fill:#ffffff;fill-opacity:0;stroke-linecap:round;stroke-opacity:0.657143;paint-order:stroke fill markers"
       id="rect2"
       width="65.93074"
       height="55.035408"
       x="733.06049"
       y="445.87061" />
  </g>
  <g
     id="g1"
     transform="matrix(0.0625,0,0,0.0625,764.65732,406.62566)">
    <rect
       x="239.31"
       y="120.321"
       style="fill:#444242"
       width="33.389"
       height="139.98"
       id="rect1" />
    <rect
       x="256"
       y="120.321"
       style="fill:#3a3839"
       width="16.695"
       height="139.98"
       id="rect2-2" />
    <rect
       x="132.194"
       y="305.86301"
       transform="matrix(0.5,0.866,-0.866,0.5,399.932,58.9793)"
       style="fill:#444242"
       width="33.387001"
       height="139.967"
       id="rect4" />
    <rect
       x="293.125"
       y="359.13"
       transform="matrix(0.866,0.5,-0.5,0.866,236.5654,-131.205)"
       style="fill:#3a3839"
       width="139.967"
       height="33.387001"
       id="rect5" />
    <path
       style="background-color:#ffffff00;fill:#439de2;fill-opacity:1"
       d="m 456.843,485.07 c -9.538,0 -18.951,-2.501 -27.432,-7.398 v 0 c -12.733,-7.351 -21.842,-19.221 -25.646,-33.424 -3.805,-14.201 -1.853,-29.035 5.499,-41.769 7.351,-12.732 19.221,-21.841 33.424,-25.646 14.201,-3.806 29.034,-1.853 41.769,5.499 12.732,7.351 21.841,19.221 25.646,33.424 3.805,14.202 1.853,29.035 -5.499,41.769 -7.351,12.733 -19.221,21.842 -33.424,25.646 -4.742,1.27 -9.557,1.899 -14.337,1.899 z"
       id="path7-3" />
    <path
       style="background-color:#ffffff00;fill:#eda74a;fill-opacity:1"
       d="m 256.001,137.021 c -30.352,0 -55.044,-24.693 -55.044,-55.044 0,-30.351 24.693,-55.044 55.044,-55.044 30.351,0 55.044,24.693 55.044,55.044 0,30.351 -24.693,55.044 -55.044,55.044 z"
       id="path5-4" />
    <path
       style="background-color:#ffffff00;fill:#53acb1;fill-opacity:1"
       d="m 55.158,485.07 c -4.781,0 -9.594,-0.629 -14.336,-1.9 C 26.619,479.365 14.75,470.256 7.398,457.524 0.046,444.792 -1.906,429.957 1.899,415.755 c 3.805,-14.203 12.914,-26.072 25.646,-33.424 12.731,-7.352 27.567,-9.304 41.769,-5.499 14.203,3.805 26.072,12.914 33.424,25.646 7.352,12.732 9.304,27.567 5.499,41.769 -3.805,14.203 -12.914,26.072 -25.646,33.424 -8.481,4.897 -17.896,7.399 -27.433,7.399 z"
       id="path6-7" />
    <path
       style="fill:#f74d37"
       d="m 256.001,384.379 c -38.81,0 -70.384,-31.575 -70.384,-70.384 0,-38.809 31.575,-70.384 70.384,-70.384 38.809,0 70.384,31.575 70.384,70.384 0,38.809 -31.575,70.384 -70.384,70.384 z"
       id="path4-9" />
  </g>
</svg>
