<?xml version="1.0" standalone="no" ?><!DOCTYPE svg PUBLIC "-//W3C//DTD SVG 1.1//EN" "http://www.w3.org/Graphics/SVG/1.1/DTD/svg11.dtd"><svg width="48px" height="30px" viewBox="0 0 48 30" style="background-color: #ffffff00" xmlns="http://www.w3.org/2000/svg" xmlns:xlink="http://www.w3.org/1999/xlink" version="1.1" ><text x="0" y="0" stroke="none" fill="#000000" transform="matrix(0.05 0 0 0.05 37.2094 18.1909)" font-style="normal" font-weight="bold" font-size="180px" font-family="Helvetica" >Cl</text><path stroke="none" fill="#000000" transform="matrix(0.05 0 0 0.05 -151 -148)" d="M 3538.79,3269.53 L 3533.18,3259.04 L 3538.79,3248.55 L 3741.03,3247.95 L 3741.03,3270.13 L 3538.79,3269.53 Z " /><path stroke="none" fill="#ff0000" transform="matrix(0.05 0 0 0.05 -151 -148)" d="M 3538.79,3248.55 L 3533.18,3259.04 L 3520.18,3259.04 L 3355.18,3031.93 L 3363.68,3005.79 L 3538.79,3248.55 Z " /><path stroke="none" fill="#ff0000" transform="matrix(0.05 0 0 0.05 -151 -148)" d="M 3363.68,3005.79 L 3355.18,3031.93 L 3088.2,3118.68 L 3065.96,3102.52 L 3363.68,3005.79 Z " /><path stroke="none" fill="#ff0000" transform="matrix(0.05 0 0 0.05 -151 -148)" d="M 3065.96,3415.56 L 3088.2,3399.4 L 3355.18,3486.15 L 3363.68,3512.3 L 3065.96,3415.56 Z " /><path stroke="none" fill="#ff0000" transform="matrix(0.05 0 0 0.05 -151 -148)" d="M 3363.68,3512.3 L 3355.18,3486.15 L 3520.18,3259.04 L 3533.18,3259.04 L 3538.79,3269.53 L 3363.68,3512.3 Z " /><path stroke="none" fill="#ff0000" transform="matrix(0.05 0 0 0.05 -151 -148)" d="M 3065.96,3102.52 L 3088.2,3118.68 L 3088.2,3399.4 L 3065.96,3415.56 L 3065.96,3102.52 Z " /></svg>