<?xml version="1.0" standalone="no" ?><!DOCTYPE svg PUBLIC "-//W3C//DTD SVG 1.1//EN" "http://www.w3.org/Graphics/SVG/1.1/DTD/svg11.dtd"><svg width="63px" height="36px" viewBox="0 0 63 36" style="background-color: #ffffff00" xmlns="http://www.w3.org/2000/svg" xmlns:xlink="http://www.w3.org/1999/xlink" version="1.1" ><path stroke="none" fill="#ff0000" transform="matrix(0.05 0 0 0.05 -143 -149)" d="M 3457.92,3196.19 L 3447.29,3190.06 L 3447.29,3177.78 L 3705.56,3027.55 L 3705.6,3053.22 L 3457.92,3196.19 Z " /><text x="0" y="0" stroke="none" fill="#000000" transform="matrix(0.05 0 0 0.05 51.9222 13.7416)" font-style="normal" font-weight="bold" font-size="180px" font-family="Helvetica" >Cl</text><path stroke="none" fill="#000000" transform="matrix(0.05 0 0 0.05 -143 -149)" d="M 3705.6,3053.22 L 3705.56,3027.55 L 3889.11,3134.34 L 3878.02,3153.54 L 3705.6,3053.22 Z " /><path stroke="none" fill="#ff0000" transform="matrix(0.05 0 0 0.05 -143 -149)" d="M 3447.29,3177.78 L 3447.29,3190.06 L 3436.66,3196.19 L 3189.21,3053.33 L 3189.21,3027.68 L 3447.29,3177.78 Z " /><path stroke="none" fill="#ff0000" transform="matrix(0.05 0 0 0.05 -143 -149)" d="M 3397.39,3212.46 L 3386.3,3231.67 L 3183.67,3114.68 L 3194.76,3095.47 L 3397.39,3212.46 Z " /><path stroke="none" fill="#ff0000" transform="matrix(0.05 0 0 0.05 -143 -149)" d="M 3189.21,3027.68 L 3189.21,3053.33 L 2941.77,3196.19 L 2919.55,3183.37 L 3189.21,3027.68 Z " /><path stroke="none" fill="#ff0000" transform="matrix(0.05 0 0 0.05 -143 -149)" d="M 2919.55,3183.37 L 2941.77,3196.19 L 2941.77,3481.92 L 2919.55,3494.75 L 2919.55,3183.37 Z " /><path stroke="none" fill="#ff0000" transform="matrix(0.05 0 0 0.05 -143 -149)" d="M 2975.49,3222.06 L 2997.66,3222.06 L 2997.66,3456.05 L 2975.49,3456.05 L 2975.49,3222.06 Z " /><path stroke="none" fill="#ff0000" transform="matrix(0.05 0 0 0.05 -143 -149)" d="M 2919.55,3494.75 L 2941.77,3481.92 L 3189.21,3624.78 L 3189.21,3650.43 L 2919.55,3494.75 Z " /><path stroke="none" fill="#ff0000" transform="matrix(0.05 0 0 0.05 -143 -149)" d="M 3189.21,3650.43 L 3189.21,3624.78 L 3436.66,3481.92 L 3458.87,3494.75 L 3189.21,3650.43 Z " /><path stroke="none" fill="#ff0000" transform="matrix(0.05 0 0 0.05 -143 -149)" d="M 3194.76,3582.64 L 3183.67,3563.44 L 3386.3,3446.45 L 3397.39,3465.65 L 3194.76,3582.64 Z " /><path stroke="none" fill="#ff0000" transform="matrix(0.05 0 0 0.05 -143 -149)" d="M 3458.87,3494.75 L 3436.66,3481.92 L 3436.66,3196.19 L 3447.29,3190.06 L 3457.92,3196.19 L 3458.87,3494.75 Z " /></svg>