<?xml version="1.0" standalone="no" ?><!DOCTYPE svg PUBLIC "-//W3C//DTD SVG 1.1//EN" "http://www.w3.org/Graphics/SVG/1.1/DTD/svg11.dtd"><svg width="63px" height="38px" viewBox="0 0 63 38" style="background-color: #ffffff00" xmlns="http://www.w3.org/2000/svg" xmlns:xlink="http://www.w3.org/1999/xlink" version="1.1" ><path stroke="none" fill="#ff0000" transform="matrix(0.05 0 0 0.05 -140 -142)" d="M 3475.23,3236.07 L 3469.09,3225.44 L 3475.23,3214.81 L 3775.02,3213.84 L 3762.23,3236.1 L 3475.23,3236.07 Z " /><text x="0" y="0" stroke="none" fill="#000000" transform="matrix(0.05 0 0 0.05 52.6296 35.458)" font-style="normal" font-weight="bold" font-size="180px" font-family="Helvetica" >Cl</text><path stroke="none" fill="#000000" transform="matrix(0.05 0 0 0.05 -140 -142)" d="M 3762.23,3236.1 L 3775.02,3213.84 L 3878.86,3395.13 L 3859.65,3406.22 L 3762.23,3236.1 Z " /><path stroke="none" fill="#ff0000" transform="matrix(0.05 0 0 0.05 -140 -142)" d="M 3475.23,3214.81 L 3469.09,3225.44 L 3456.81,3225.44 L 3313.45,2977.13 L 3326.28,2954.92 L 3475.23,3214.81 Z " /><path stroke="none" fill="#ff0000" transform="matrix(0.05 0 0 0.05 -140 -142)" d="M 3414.67,3219.9 L 3395.47,3230.99 L 3277.98,3027.48 L 3297.18,3016.4 L 3414.67,3219.9 Z " /><path stroke="none" fill="#ff0000" transform="matrix(0.05 0 0 0.05 -140 -142)" d="M 3326.28,2954.92 L 3313.45,2977.13 L 3026.73,2977.13 L 3013.9,2954.92 L 3326.28,2954.92 Z " /><path stroke="none" fill="#ff0000" transform="matrix(0.05 0 0 0.05 -140 -142)" d="M 3013.9,2954.92 L 3026.73,2977.13 L 2883.36,3225.44 L 2857.71,3225.44 L 3013.9,2954.92 Z " /><path stroke="none" fill="#ff0000" transform="matrix(0.05 0 0 0.05 -140 -142)" d="M 3042.99,3016.4 L 3062.2,3027.48 L 2944.71,3230.99 L 2925.5,3219.9 L 3042.99,3016.4 Z " /><path stroke="none" fill="#ff0000" transform="matrix(0.05 0 0 0.05 -140 -142)" d="M 2857.71,3225.44 L 2883.36,3225.44 L 3026.73,3473.75 L 3013.9,3495.97 L 2857.71,3225.44 Z " /><path stroke="none" fill="#ff0000" transform="matrix(0.05 0 0 0.05 -140 -142)" d="M 3013.9,3495.97 L 3026.73,3473.75 L 3313.45,3473.75 L 3326.28,3495.97 L 3013.9,3495.97 Z " /><path stroke="none" fill="#ff0000" transform="matrix(0.05 0 0 0.05 -140 -142)" d="M 3052.6,3440.03 L 3052.6,3417.86 L 3287.58,3417.86 L 3287.58,3440.03 L 3052.6,3440.03 Z " /><path stroke="none" fill="#ff0000" transform="matrix(0.05 0 0 0.05 -140 -142)" d="M 3326.28,3495.97 L 3313.45,3473.75 L 3456.81,3225.44 L 3469.09,3225.44 L 3475.23,3236.07 L 3326.28,3495.97 Z " /><text x="0" y="0" stroke="none" fill="#ff0000" transform="matrix(0.05 0 0 0.05 52.3791 9.5638)" font-style="normal" font-weight="bold" font-size="180px" font-family="Helvetica" >O</text><path stroke="none" fill="#ff0000" transform="matrix(0.05 0 0 0.05 -140 -142)" d="M 3745.68,3230.99 L 3726.48,3219.9 L 3833.26,3034.95 L 3852.46,3046.04 L 3745.68,3230.99 Z " /><path stroke="none" fill="#ff0000" transform="matrix(0.05 0 0 0.05 -140 -142)" d="M 3793.69,3258.71 L 3774.49,3247.62 L 3881.27,3062.67 L 3900.47,3073.76 L 3793.69,3258.71 Z " /></svg>