<?xml version="1.0" standalone="no" ?><!DOCTYPE svg PUBLIC "-//W3C//DTD SVG 1.1//EN" "http://www.w3.org/Graphics/SVG/1.1/DTD/svg11.dtd"><svg width="40px" height="35px" viewBox="0 0 40 35" style="background-color: #ffffff00" xmlns="http://www.w3.org/2000/svg" xmlns:xlink="http://www.w3.org/1999/xlink" version="1.1" ><path stroke="none" fill="#ff0000" transform="matrix(0.05 0 0 0.05 -137 -116)" d="M 3081.16,2680.09 L 3094.35,2669.97 L 3102.5,2680.21 L 3027.53,2962.24 L 3006.09,2956.49 L 3081.16,2680.09 Z " /><path stroke="none" fill="#000000" transform="matrix(0.05 0 0 0.05 -137 -116)" d="M 3305.24,2658.87 L 3305.24,2681.07 L 3102.5,2680.21 L 3094.35,2669.97 L 3102.5,2659.73 L 3305.24,2658.87 Z " /><text x="0" y="0" stroke="none" fill="#000000" transform="matrix(0.05 0 0 0.05 29.4179 20.7374)" font-style="normal" font-weight="bold" font-size="180px" font-family="Helvetica" >Cl</text><path stroke="none" fill="#ff0000" transform="matrix(0.05 0 0 0.05 -137 -116)" d="M 3102.5,2659.73 L 3094.35,2669.97 L 3081.16,2659.85 L 3006.09,2383.45 L 3027.53,2377.71 L 3102.5,2659.73 Z " /><path stroke="none" fill="#ff0000" transform="matrix(0.05 0 0 0.05 -137 -116)" d="M 3081.16,2659.85 L 3094.35,2669.97 L 3081.16,2680.09 L 2795.35,2681.07 L 2795.35,2658.87 L 3081.16,2659.85 Z " /></svg>