<?xml version="1.0" standalone="no" ?><!DOCTYPE svg PUBLIC "-//W3C//DTD SVG 1.1//EN" "http://www.w3.org/Graphics/SVG/1.1/DTD/svg11.dtd"><svg width="45px" height="34px" viewBox="0 0 45 34" style="background-color: #ffffff00" xmlns="http://www.w3.org/2000/svg" xmlns:xlink="http://www.w3.org/1999/xlink" version="1.1" ><path stroke="none" fill="#ff0000" transform="matrix(0.05 0 0 0.05 -171 -135)" d="M 3482.06,3273 L 3470.98,3253.8 L 3736.12,3100.13 L 3736.16,3125.8 L 3482.06,3273 Z " /><text x="0" y="0" stroke="none" fill="#ff0000" transform="matrix(0.05 0 0 0.05 25.2649 31.4088)" font-style="normal" font-weight="bold" font-size="180px" font-family="Helvetica" >O</text><path stroke="none" fill="#ff0000" transform="matrix(0.05 0 0 0.05 -171 -135)" d="M 3736.16,3125.8 L 3736.12,3100.13 L 3917.72,3205.8 L 3906.63,3225.01 L 3736.16,3125.8 Z " /><text x="0" y="0" stroke="none" fill="#ff0000" transform="matrix(0.05 0 0 0.05 12.2954 8.94477)" font-style="normal" font-weight="bold" font-size="180px" font-family="Helvetica" >O</text><path stroke="none" fill="#ff0000" transform="matrix(0.05 0 0 0.05 -171 -135)" d="M 3719.28,3129.64 L 3697.1,3129.64 L 3697.1,2914.61 L 3719.28,2914.61 L 3719.28,3129.64 Z " /><path stroke="none" fill="#ff0000" transform="matrix(0.05 0 0 0.05 -171 -135)" d="M 3774.72,3129.64 L 3752.54,3129.64 L 3752.54,2914.61 L 3774.72,2914.61 L 3774.72,3129.64 Z " /><path stroke="none" fill="#000000" transform="matrix(0.05 0 0 0.05 -171 -135)" d="M 4084.54,3224.68 L 4073.45,3205.48 L 4249.15,3104.04 L 4260.24,3123.24 L 4084.54,3224.68 Z " /></svg>