<?xml version="1.0" standalone="no" ?><!DOCTYPE svg PUBLIC "-//W3C//DTD SVG 1.1//EN" "http://www.w3.org/Graphics/SVG/1.1/DTD/svg11.dtd"><svg width="55px" height="32px" viewBox="0 0 55 32" style="background-color: #ffffff00" xmlns="http://www.w3.org/2000/svg" xmlns:xlink="http://www.w3.org/1999/xlink" version="1.1" ><text x="0" y="0" stroke="none" fill="#000000" transform="matrix(0.05 0 0 0.05 44.0094 19.1909)" font-style="normal" font-weight="bold" font-size="180px" font-family="Helvetica" >Cl</text><path stroke="none" fill="#000000" transform="matrix(0.05 0 0 0.05 -144 -147)" d="M 3534.46,3269.46 L 3528.18,3259.04 L 3534.46,3248.62 L 3737.04,3247.95 L 3737.04,3270.13 L 3534.46,3269.46 Z " /><path stroke="none" fill="#ff0000" transform="matrix(0.05 0 0 0.05 -144 -147)" d="M 3534.46,3248.62 L 3528.18,3259.04 L 3515.91,3259.04 L 3373.55,3012.46 L 3386.37,2990.24 L 3534.46,3248.62 Z " /><path stroke="none" fill="#ff0000" transform="matrix(0.05 0 0 0.05 -144 -147)" d="M 3386.37,2990.24 L 3373.55,3012.46 L 3088.82,3012.46 L 3075.99,2990.24 L 3386.37,2990.24 Z " /><path stroke="none" fill="#ff0000" transform="matrix(0.05 0 0 0.05 -144 -147)" d="M 3075.99,2990.24 L 3088.82,3012.46 L 2946.46,3259.04 L 2920.8,3259.04 L 3075.99,2990.24 Z " /><path stroke="none" fill="#ff0000" transform="matrix(0.05 0 0 0.05 -144 -147)" d="M 2920.8,3259.04 L 2946.46,3259.04 L 3088.82,3505.62 L 3075.99,3527.84 L 2920.8,3259.04 Z " /><path stroke="none" fill="#ff0000" transform="matrix(0.05 0 0 0.05 -144 -147)" d="M 3075.99,3527.84 L 3088.82,3505.62 L 3373.55,3505.62 L 3386.37,3527.84 L 3075.99,3527.84 Z " /><path stroke="none" fill="#ff0000" transform="matrix(0.05 0 0 0.05 -144 -147)" d="M 3386.37,3527.84 L 3373.55,3505.62 L 3515.91,3259.04 L 3528.18,3259.04 L 3534.46,3269.46 L 3386.37,3527.84 Z " /></svg>