<?xml version="1.0" standalone="no" ?><!DOCTYPE svg PUBLIC "-//W3C//DTD SVG 1.1//EN" "http://www.w3.org/Graphics/SVG/1.1/DTD/svg11.dtd"><svg width="56px" height="32px" viewBox="0 0 56 32" style="background-color: #ffffff00" xmlns="http://www.w3.org/2000/svg" xmlns:xlink="http://www.w3.org/1999/xlink" version="1.1" ><text x="0" y="0" stroke="none" fill="#000000" transform="matrix(0.05 0 0 0.05 45.0767 19.488)" font-style="normal" font-weight="bold" font-size="180px" font-family="Helvetica" >Cl</text><path stroke="none" fill="#000000" transform="matrix(0.05 0 0 0.05 -136 -126)" d="M 3393.81,2855.42 L 3387.53,2844.98 L 3393.81,2834.55 L 3598.42,2833.88 L 3598.42,2856.08 L 3393.81,2855.42 Z " /><path stroke="none" fill="#ff0000" transform="matrix(0.05 0 0 0.05 -136 -126)" d="M 3393.81,2834.55 L 3387.53,2844.98 L 3375.24,2844.98 L 3231.88,2596.69 L 3244.73,2574.45 L 3393.81,2834.55 Z " /><path stroke="none" fill="#ff0000" transform="matrix(0.05 0 0 0.05 -136 -126)" d="M 3333.06,2839.43 L 3313.83,2850.53 L 3196.37,2647.09 L 3215.6,2635.99 L 3333.06,2839.43 Z " /><path stroke="none" fill="#ff0000" transform="matrix(0.05 0 0 0.05 -136 -126)" d="M 3244.73,2574.45 L 3231.88,2596.69 L 2945.18,2596.69 L 2932.33,2574.45 L 3244.73,2574.45 Z " /><path stroke="none" fill="#ff0000" transform="matrix(0.05 0 0 0.05 -136 -126)" d="M 2932.33,2574.45 L 2945.18,2596.69 L 2801.82,2844.98 L 2776.14,2844.98 L 2932.33,2574.45 Z " /><path stroke="none" fill="#ff0000" transform="matrix(0.05 0 0 0.05 -136 -126)" d="M 2961.46,2635.99 L 2980.69,2647.09 L 2863.23,2850.53 L 2844,2839.43 L 2961.46,2635.99 Z " /><path stroke="none" fill="#ff0000" transform="matrix(0.05 0 0 0.05 -136 -126)" d="M 2776.14,2844.98 L 2801.82,2844.98 L 2945.18,3093.28 L 2932.33,3115.52 L 2776.14,2844.98 Z " /><path stroke="none" fill="#ff0000" transform="matrix(0.05 0 0 0.05 -136 -126)" d="M 2932.33,3115.52 L 2945.18,3093.28 L 3231.88,3093.28 L 3244.73,3115.52 L 2932.33,3115.52 Z " /><path stroke="none" fill="#ff0000" transform="matrix(0.05 0 0 0.05 -136 -126)" d="M 2971.07,3059.53 L 2971.07,3037.33 L 3205.99,3037.33 L 3205.99,3059.53 L 2971.07,3059.53 Z " /><path stroke="none" fill="#ff0000" transform="matrix(0.05 0 0 0.05 -136 -126)" d="M 3244.73,3115.52 L 3231.88,3093.28 L 3375.24,2844.98 L 3387.53,2844.98 L 3393.81,2855.42 L 3244.73,3115.52 Z " /></svg>