<?xml version="1.0" standalone="no" ?><!DOCTYPE svg PUBLIC "-//W3C//DTD SVG 1.1//EN" "http://www.w3.org/Graphics/SVG/1.1/DTD/svg11.dtd"><svg width="62px" height="16px" viewBox="0 0 62 16" style="background-color: #ffffff00" xmlns="http://www.w3.org/2000/svg" xmlns:xlink="http://www.w3.org/1999/xlink" version="1.1" ><path stroke="none" fill="#ff0000" transform="matrix(0.05 0 0 0.05 -144 -149)" d="M 3447.29,3203.43 L 3447.29,3177.78 L 3705.56,3027.55 L 3705.6,3053.22 L 3447.29,3203.43 Z " /><text x="0" y="0" stroke="none" fill="#000000" transform="matrix(0.05 0 0 0.05 50.9222 13.7416)" font-style="normal" font-weight="bold" font-size="180px" font-family="Helvetica" >Cl</text><path stroke="none" fill="#000000" transform="matrix(0.05 0 0 0.05 -144 -149)" d="M 3705.6,3053.22 L 3705.56,3027.55 L 3889.11,3134.34 L 3878.02,3153.54 L 3705.6,3053.22 Z " /><path stroke="none" fill="#ff0000" transform="matrix(0.05 0 0 0.05 -144 -149)" d="M 3447.29,3177.78 L 3447.29,3203.43 L 3189.21,3053.33 L 3189.21,3027.68 L 3447.29,3177.78 Z " /><path stroke="none" fill="#ff0000" transform="matrix(0.05 0 0 0.05 -144 -149)" d="M 3189.21,3027.68 L 3189.21,3053.33 L 2936.68,3199.66 L 2925.59,3180.45 L 3189.21,3027.68 Z " /></svg>