<?xml version="1.0" standalone="no" ?><!DOCTYPE svg PUBLIC "-//W3C//DTD SVG 1.1//EN" "http://www.w3.org/Graphics/SVG/1.1/DTD/svg11.dtd"><svg width="36px" height="27px" viewBox="0 0 36 27" style="background-color: #ffffff00" xmlns="http://www.w3.org/2000/svg" xmlns:xlink="http://www.w3.org/1999/xlink" version="1.1" ><text x="0" y="0" stroke="none" fill="#000000" transform="matrix(0.05 0 0 0.05 25.4141 24.4961)" font-style="normal" font-weight="bold" font-size="180px" font-family="Helvetica" >Cl</text><text x="0" y="0" stroke="none" fill="#ff0000" transform="matrix(0.05 0 0 0.05 2.18745 17.0061)" font-style="normal" font-weight="bold" font-size="180px" font-family="Helvetica" >H</text><text x="0" y="0" stroke="none" fill="#ff0000" transform="matrix(0.05 0 0 0.05 8.68697 19.0759)" font-style="normal" font-weight="bold" font-size="135px" font-family="Helvetica" >2</text><text x="0" y="0" stroke="none" fill="#ff0000" transform="matrix(0.05 0 0 0.05 12.441 17.0061)" font-style="normal" font-weight="bold" font-size="180px" font-family="Helvetica" >C</text><path stroke="none" fill="#000000" transform="matrix(0.05 0 0 0.05 -151 -126)" d="M 3518.98,2889.44 L 3507.88,2908.66 L 3410.77,2852.6 L 3421.87,2833.37 L 3518.98,2889.44 Z " /><text x="0" y="0" stroke="none" fill="#000000" transform="matrix(0.05 0 0 0.05 25.4141 9.51612)" font-style="normal" font-weight="bold" font-size="180px" font-family="Helvetica" >Cl</text><path stroke="none" fill="#000000" transform="matrix(0.05 0 0 0.05 -151 -126)" d="M 3422.31,2757.07 L 3411.21,2737.85 L 3506.27,2682.96 L 3517.37,2702.19 L 3422.31,2757.07 Z " /></svg>