<?xml version="1.0" standalone="no" ?><!DOCTYPE svg PUBLIC "-//W3C//DTD SVG 1.1//EN" "http://www.w3.org/Graphics/SVG/1.1/DTD/svg11.dtd"><svg width="49px" height="19px" viewBox="0 0 49 19" style="background-color: #ffffff00" xmlns="http://www.w3.org/2000/svg" xmlns:xlink="http://www.w3.org/1999/xlink" version="1.1" ><path stroke="none" fill="#ff0000" transform="matrix(0.05 0 0 0.05 -158 -150)" d="M 3476.52,3276.77 L 3476.52,3251.12 L 3736.1,3100.13 L 3736.15,3125.8 L 3476.52,3276.77 Z " /><text x="0" y="0" stroke="none" fill="#000000" transform="matrix(0.05 0 0 0.05 38.5154 16.4088)" font-style="normal" font-weight="bold" font-size="180px" font-family="Helvetica" >Cl</text><path stroke="none" fill="#000000" transform="matrix(0.05 0 0 0.05 -158 -150)" d="M 3736.15,3125.8 L 3736.1,3100.13 L 3920.97,3207.68 L 3909.88,3226.89 L 3736.15,3125.8 Z " /><path stroke="none" fill="#ff0000" transform="matrix(0.05 0 0 0.05 -158 -150)" d="M 3476.52,3251.12 L 3476.52,3276.77 L 3211.58,3123.24 L 3222.67,3104.04 L 3476.52,3251.12 Z " /><path stroke="none" fill="#ff0000" transform="matrix(0.05 0 0 0.05 -158 -150)" d="M 3482.06,3189.78 L 3470.98,3208.99 L 3239.3,3075.23 L 3250.39,3056.03 L 3482.06,3189.78 Z " /></svg>