<?xml version="1.0" standalone="no" ?><!DOCTYPE svg PUBLIC "-//W3C//DTD SVG 1.1//EN" "http://www.w3.org/Graphics/SVG/1.1/DTD/svg11.dtd"><svg width="36px" height="31px" viewBox="0 0 36 31" style="background-color: #ffffff00" xmlns="http://www.w3.org/2000/svg" xmlns:xlink="http://www.w3.org/1999/xlink" version="1.1" ><path stroke="none" fill="#ff0000" transform="matrix(0.05 0 0 0.05 -155 -137)" d="M 3298.04,3050.98 L 3310.32,3050.98 L 3316.61,3061.38 L 3171.92,3312.87 L 3152.71,3301.78 L 3298.04,3050.98 Z " /><path stroke="none" fill="#ff0000" transform="matrix(0.05 0 0 0.05 -155 -137)" d="M 3513.95,3039.89 L 3513.95,3062.07 L 3316.61,3061.38 L 3310.32,3050.98 L 3316.61,3040.58 L 3513.95,3039.89 Z " /><text x="0" y="0" stroke="none" fill="#ff0000" transform="matrix(0.05 0 0 0.05 21.8155 18.7878)" font-style="normal" font-weight="bold" font-size="180px" font-family="Helvetica" >O</text><path stroke="none" fill="#ff0000" transform="matrix(0.05 0 0 0.05 -155 -137)" d="M 3316.61,3040.58 L 3310.32,3050.98 L 3298.04,3050.98 L 3152.71,2800.18 L 3171.92,2789.09 L 3316.61,3040.58 Z " /><path stroke="none" fill="#000000" transform="matrix(0.05 0 0 0.05 -155 -137)" d="M 3665.5,2970.65 L 3646.29,2959.56 L 3746.47,2786.04 L 3765.68,2797.13 L 3665.5,2970.65 Z " /></svg>