<?xml version="1.0" encoding="UTF-8" standalone="no"?>
<!-- Created with Inkscape (http://www.inkscape.org/) -->

<svg
   width="300"
   height="300"
   viewBox="0 0 150 150"
   version="1.1"
   id="svg1"
   xml:space="preserve"
   xmlns="http://www.w3.org/2000/svg"
   xmlns:svg="http://www.w3.org/2000/svg"><defs
     id="defs1" /><g
     id="layer1"><g
       id="g1"
       transform="matrix(0.26458333,0,0,0.26458333,8.6698494,5.1383917)"><g
         id="g2"
         transform="matrix(3.7795276,0,0,3.7795276,100.36874,62.592564)"><text
           x="-27.983288"
           y="1.8357941"
           stroke="none"
           fill="#000000"
           font-style="normal"
           font-weight="bold"
           font-size="10px"
           font-family="Helvetica"
           id="text4"
           style="stroke-width:0.05">What’s</text><text
           x="7.2071123"
           y="1.8357941"
           stroke="none"
           fill="#000000"
           font-style="normal"
           font-weight="bold"
           font-size="10px"
           font-family="Helvetica"
           id="text5"
           style="stroke-width:0.05">the</text><text
           x="24.985413"
           y="1.8357941"
           stroke="none"
           fill="#000000"
           font-style="normal"
           font-weight="bold"
           font-size="10px"
           font-family="Helvetica"
           id="text6"
           style="stroke-width:0.05">name</text><text
           x="0"
           y="0"
           stroke="none"
           fill="#000000"
           transform="matrix(0.05,0,0,0.05,10.658,31.1563)"
           font-style="normal"
           font-weight="bold"
           font-size="200px"
           font-family="Helvetica"
           id="text7" /><text
           x="0"
           y="0"
           stroke="none"
           fill="#000000"
           transform="matrix(0.05,0,0,0.05,13.4363,31.1563)"
           font-style="normal"
           font-weight="bold"
           font-size="200px"
           font-family="Helvetica"
           id="text8" /><text
           x="0"
           y="0"
           stroke="none"
           fill="#000000"
           transform="matrix(0.05,0,0,0.05,16.2146,31.1563)"
           font-style="normal"
           font-weight="bold"
           font-size="200px"
           font-family="Helvetica"
           id="text9" /><text
           x="-19.648289"
           y="12.344094"
           stroke="none"
           fill="#000000"
           font-style="normal"
           font-weight="bold"
           font-size="10px"
           font-family="Helvetica"
           id="text10"
           style="stroke-width:0.05">of</text><text
           x="-7.431488"
           y="12.344094"
           stroke="none"
           fill="#000000"
           font-style="normal"
           font-weight="bold"
           font-size="10px"
           font-family="Helvetica"
           id="text11"
           style="stroke-width:0.05">the</text><text
           x="10.346812"
           y="12.344094"
           stroke="none"
           fill="#0000ff"
           font-style="normal"
           font-weight="bold"
           font-size="10px"
           font-family="Helvetica"
           id="text12"
           style="stroke-width:0.05;fill:#ff0000;fill-opacity:1">red</text><text
           x="0"
           y="0"
           stroke="none"
           fill="#000000"
           transform="matrix(0.05,0,0,0.05,69.5447,31.1563)"
           font-style="normal"
           font-weight="bold"
           font-size="200px"
           font-family="Helvetica"
           id="text13" /><text
           x="29.681713"
           y="12.344094"
           stroke="none"
           fill="#000000"
           font-style="normal"
           font-weight="bold"
           font-size="10px"
           font-family="Helvetica"
           id="text14"
           style="stroke-width:0.05">portion</text><text
           x="-8.4226131"
           y="23.021292"
           stroke="none"
           fill="#000000"
           font-style="normal"
           font-weight="bold"
           font-size="10px"
           font-family="Helvetica"
           id="text15"
           style="stroke-width:0.05">of</text><text
           x="3.7943823"
           y="23.021292"
           stroke="none"
           fill="#000000"
           font-style="normal"
           font-weight="bold"
           font-size="10px"
           font-family="Helvetica"
           id="text16"
           style="stroke-width:0.05">the</text><text
           x="21.572382"
           y="23.021292"
           stroke="none"
           fill="#000000"
           font-style="normal"
           font-weight="bold"
           font-size="10px"
           font-family="Helvetica"
           id="text17"
           style="stroke-width:0.05">molecule?</text><g
           id="g4"
           transform="translate(-9.6956372,46.885368)"><path
             stroke="none"
             fill="#000000"
             transform="matrix(0.05,0,0,0.05,-43,-76)"
             d="m 1700.14,1931.33 0.05,25.68 -248.56,143.48 -10.64,-6.14 v -12.28 z"
             id="path1-6" /><path
             stroke="none"
             fill="#000000"
             transform="matrix(0.05,0,0,0.05,-43,-76)"
             d="m 1881.29,2036.75 -11.09,19.21 -170.01,-98.95 -0.05,-25.68 z"
             id="path2-5" /><path
             stroke="none"
             fill="#ff0000"
             transform="matrix(0.05,0,0,0.05,-43,-76)"
             d="m 2217.8,1931.19 v 25.71 l -169.69,98.73 -11.09,-19.2 z"
             id="path3-1" /><text
             x="0"
             y="0"
             stroke="none"
             fill="#ff0000"
             transform="matrix(0.05,0,0,0.05,51.4436,31.9563)"
             font-style="normal"
             font-weight="bold"
             font-size="180px"
             font-family="Helvetica"
             id="text3-4">O</text><path
             stroke="none"
             fill="#ff0000"
             transform="matrix(0.05,0,0,0.05,-43,-76)"
             d="m 2201.19,1960.85 h -22.18 v -214.51 h 22.18 z"
             id="path4-5" /><path
             stroke="none"
             fill="#ff0000"
             transform="matrix(0.05,0,0,0.05,-43,-76)"
             d="m 2256.63,1960.85 h -22.18 v -214.51 h 22.18 z"
             id="path5-5" /><text
             x="0"
             y="0"
             stroke="none"
             fill="#ff0000"
             transform="matrix(0.05,0,0,0.05,64.3906,9.53127)"
             font-style="normal"
             font-weight="bold"
             font-size="180px"
             font-family="Helvetica"
             id="text5-9">O</text><path
             stroke="none"
             fill="#ff0000"
             transform="matrix(0.05,0,0,0.05,-43,-76)"
             d="m 2402.43,2038.63 -11.09,19.21 -173.54,-100.94 v -25.71 z"
             id="path6-9" /><text
             x="0"
             y="0"
             stroke="none"
             fill="#ff0000"
             transform="matrix(0.05,0,0,0.05,77.5882,31.9563)"
             font-style="normal"
             font-weight="bold"
             font-size="180px"
             font-family="Helvetica"
             id="text6-9">CH</text><text
             x="0"
             y="0"
             stroke="none"
             fill="#ff0000"
             transform="matrix(0.05,0,0,0.05,90.5872,34.0261)"
             font-style="normal"
             font-weight="bold"
             font-size="135px"
             font-family="Helvetica"
             id="text7-9">3</text><path
             stroke="none"
             fill="#000000"
             transform="matrix(0.05,0,0,0.05,-43,-76)"
             d="m 1440.99,2082.07 v 12.28 l -10.63,6.14 -248.76,-143.62 v -25.65 z"
             id="path7-2" /><path
             stroke="none"
             fill="#000000"
             transform="matrix(0.05,0,0,0.05,-43,-76)"
             d="m 1391.1,2116.76 -11.09,19.2 -203.95,-117.75 11.09,-19.21 z"
             id="path8" /><path
             stroke="none"
             fill="#000000"
             transform="matrix(0.05,0,0,0.05,-43,-76)"
             d="m 1181.6,1931.22 v 25.65 l -248.757,143.62 -22.217,-12.83 z"
             id="path9" /><path
             stroke="none"
             fill="#000000"
             transform="matrix(0.05,0,0,0.05,-43,-76)"
             d="m 910.626,2087.66 22.217,12.83 v 287.24 l -22.217,12.83 z"
             id="path10" /><path
             stroke="none"
             fill="#000000"
             transform="matrix(0.05,0,0,0.05,-43,-76)"
             d="m 966.561,2126.36 h 22.176 v 235.5 h -22.176 z"
             id="path11" /><path
             stroke="none"
             fill="#000000"
             transform="matrix(0.05,0,0,0.05,-43,-76)"
             d="m 910.626,2400.56 22.217,-12.83 248.757,143.62 V 2557 Z"
             id="path12" /><path
             stroke="none"
             fill="#000000"
             transform="matrix(0.05,0,0,0.05,-43,-76)"
             d="m 1181.6,2557 v -25.65 l 248.76,-143.62 22.22,12.83 z"
             id="path13" /><path
             stroke="none"
             fill="#000000"
             transform="matrix(0.05,0,0,0.05,-43,-76)"
             d="m 1187.15,2489.22 -11.09,-19.21 203.95,-117.75 11.09,19.2 z"
             id="path14" /><path
             stroke="none"
             fill="#000000"
             transform="matrix(0.05,0,0,0.05,-43,-76)"
             d="m 1452.58,2400.56 -22.22,-12.83 v -287.24 l 10.63,-6.14 10.64,6.14 z"
             id="path15" /></g></g></g></g></svg>
