<?xml version="1.0" encoding="UTF-8" standalone="no"?>
<!-- Created with Inkscape (http://www.inkscape.org/) -->

<svg
   width="300"
   height="300"
   viewBox="0 0 150 150"
   version="1.1"
   id="svg1"
   xml:space="preserve"
   inkscape:version="1.4.2 (ebf0e940, 2025-05-08)"
   sodipodi:docname="1-c.svg"
   xmlns:inkscape="http://www.inkscape.org/namespaces/inkscape"
   xmlns:sodipodi="http://sodipodi.sourceforge.net/DTD/sodipodi-0.dtd"
   xmlns="http://www.w3.org/2000/svg"
   xmlns:svg="http://www.w3.org/2000/svg"><sodipodi:namedview
     id="namedview1"
     pagecolor="#ffffff"
     bordercolor="#000000"
     borderopacity="0.25"
     inkscape:showpageshadow="2"
     inkscape:pageopacity="0.0"
     inkscape:pagecheckerboard="0"
     inkscape:deskcolor="#d1d1d1"
     inkscape:document-units="mm"
     inkscape:zoom="1.9668082"
     inkscape:cx="182.52924"
     inkscape:cy="145.41327"
     inkscape:window-width="1528"
     inkscape:window-height="839"
     inkscape:window-x="0"
     inkscape:window-y="38"
     inkscape:window-maximized="0"
     inkscape:current-layer="g2" /><defs
     id="defs1" /><g
     inkscape:label="Layer 1"
     inkscape:groupmode="layer"
     id="layer1"><g
       id="g1"
       transform="matrix(0.26458333,0,0,0.26458333,8.6698494,5.1383917)"><g
         id="g2"
         transform="matrix(3.7795276,0,0,3.7795276,100.36874,62.592564)"><text
           x="-27.983288"
           y="1.8357941"
           stroke="none"
           fill="#000000"
           font-style="normal"
           font-weight="bold"
           font-size="10px"
           font-family="Helvetica"
           id="text4"
           style="stroke-width:0.05">What’s</text><text
           x="7.2071123"
           y="1.8357941"
           stroke="none"
           fill="#000000"
           font-style="normal"
           font-weight="bold"
           font-size="10px"
           font-family="Helvetica"
           id="text5"
           style="stroke-width:0.05">the</text><text
           x="24.985413"
           y="1.8357941"
           stroke="none"
           fill="#000000"
           font-style="normal"
           font-weight="bold"
           font-size="10px"
           font-family="Helvetica"
           id="text6"
           style="stroke-width:0.05">name</text><text
           x="0"
           y="0"
           stroke="none"
           fill="#000000"
           transform="matrix(0.05,0,0,0.05,10.658,31.1563)"
           font-style="normal"
           font-weight="bold"
           font-size="200px"
           font-family="Helvetica"
           id="text7" /><text
           x="0"
           y="0"
           stroke="none"
           fill="#000000"
           transform="matrix(0.05,0,0,0.05,13.4363,31.1563)"
           font-style="normal"
           font-weight="bold"
           font-size="200px"
           font-family="Helvetica"
           id="text8" /><text
           x="0"
           y="0"
           stroke="none"
           fill="#000000"
           transform="matrix(0.05,0,0,0.05,16.2146,31.1563)"
           font-style="normal"
           font-weight="bold"
           font-size="200px"
           font-family="Helvetica"
           id="text9" /><text
           x="-19.648289"
           y="12.344094"
           stroke="none"
           fill="#000000"
           font-style="normal"
           font-weight="bold"
           font-size="10px"
           font-family="Helvetica"
           id="text10"
           style="stroke-width:0.05">of</text><text
           x="-7.431488"
           y="12.344094"
           stroke="none"
           fill="#000000"
           font-style="normal"
           font-weight="bold"
           font-size="10px"
           font-family="Helvetica"
           id="text11"
           style="stroke-width:0.05">the</text><text
           x="10.346812"
           y="12.344094"
           stroke="none"
           fill="#0000ff"
           font-style="normal"
           font-weight="bold"
           font-size="10px"
           font-family="Helvetica"
           id="text12"
           style="stroke-width:0.05;fill:#ff0000;fill-opacity:1">red</text><text
           x="0"
           y="0"
           stroke="none"
           fill="#000000"
           transform="matrix(0.05,0,0,0.05,69.5447,31.1563)"
           font-style="normal"
           font-weight="bold"
           font-size="200px"
           font-family="Helvetica"
           id="text13" /><text
           x="29.681713"
           y="12.344094"
           stroke="none"
           fill="#000000"
           font-style="normal"
           font-weight="bold"
           font-size="10px"
           font-family="Helvetica"
           id="text14"
           style="stroke-width:0.05">portion</text><text
           x="-8.4226131"
           y="23.021292"
           stroke="none"
           fill="#000000"
           font-style="normal"
           font-weight="bold"
           font-size="10px"
           font-family="Helvetica"
           id="text15"
           style="stroke-width:0.05">of</text><text
           x="3.7943823"
           y="23.021292"
           stroke="none"
           fill="#000000"
           font-style="normal"
           font-weight="bold"
           font-size="10px"
           font-family="Helvetica"
           id="text16"
           style="stroke-width:0.05">the</text><text
           x="21.572382"
           y="23.021292"
           stroke="none"
           fill="#000000"
           font-style="normal"
           font-weight="bold"
           font-size="10px"
           font-family="Helvetica"
           id="text17"
           style="stroke-width:0.05">molecule?</text><g
           id="g4"
           transform="translate(1.4384229,55.353695)"><path
             stroke="none"
             fill="#000000"
             transform="matrix(0.05,0,0,0.05,-59,-76)"
             d="m 1234.19,1788.27 22.21,12.83 v 287.24 l -22.21,12.83 z"
             id="path1" /><path
             stroke="none"
             fill="#000000"
             transform="matrix(0.05,0,0,0.05,-59,-76)"
             d="m 1234.19,2101.17 22.21,-12.83 248.76,143.62 v 25.65 z"
             id="path2" /><path
             stroke="none"
             fill="#000000"
             transform="matrix(0.05,0,0,0.05,-59,-76)"
             d="m 1505.16,2257.61 v -25.65 l 248.76,-143.62 22.21,12.83 z"
             id="path3" /><path
             stroke="none"
             fill="#000000"
             transform="matrix(0.05,0,0,0.05,-59,-76)"
             d="m 1776.13,2101.17 -22.21,-12.83 V 1801.1 l 10.63,-6.14 10.73,4.86 z"
             id="path4" /><path
             stroke="none"
             fill="#000000"
             transform="matrix(0.05,0,0,0.05,-59,-76)"
             d="m 1765.7,1783.24 -1.15,11.72 -10.63,6.14 -248.76,-143.62 v -25.65 z"
             id="path5" /><path
             stroke="none"
             fill="#000000"
             transform="matrix(0.05,0,0,0.05,-59,-76)"
             d="m 1505.16,1631.83 v 25.65 l -248.76,143.62 -22.21,-12.83 z"
             id="path6" /><path
             stroke="none"
             fill="#000000"
             transform="matrix(0.05,0,0,0.05,-59,-76)"
             d="m 1499.62,1699.61 11.08,19.21 -203.95,117.75 -11.09,-19.2 z"
             id="path7" /><text
             x="0"
             y="0"
             stroke="none"
             fill="#ff0000"
             transform="matrix(0.05,0,0,0.05,38.6969,9.49877)"
             font-style="normal"
             font-weight="bold"
             font-size="180px"
             font-family="Helvetica"
             id="text7-6">O</text><path
             stroke="none"
             fill="#000000"
             transform="matrix(0.05,0,0,0.05,-59,-76)"
             d="m 1775.28,1799.82 -10.73,-4.86 1.15,-11.72 157.18,-118.35 33.48,57.99 z"
             id="path8" /><path
             stroke="none"
             fill="#ff0000"
             transform="matrix(0.05,0,0,0.05,-59,-76)"
             d="m 2103.29,1703.81 11.08,-19.2 168.71,98.2 0.05,25.67 z"
             id="path9" /><text
             x="0"
             y="0"
             stroke="none"
             fill="#ff0000"
             transform="matrix(0.05,0,0,0.05,51.6665,31.9628)"
             font-style="normal"
             font-weight="bold"
             font-size="180px"
             font-family="Helvetica"
             id="text9-2">O</text><path
             stroke="none"
             fill="#ff0000"
             transform="matrix(0.05,0,0,0.05,-59,-76)"
             d="m 2299.97,1778.96 h 22.17 v 217.53 h -22.17 z"
             id="path10" /><path
             stroke="none"
             fill="#ff0000"
             transform="matrix(0.05,0,0,0.05,-59,-76)"
             d="m 2244.53,1778.96 h 22.17 v 217.53 h -22.17 z"
             id="path11" /><path
             stroke="none"
             fill="#ff0000"
             transform="matrix(0.05,0,0,0.05,-59,-76)"
             d="m 2283.13,1808.48 -0.05,-25.67 254.1,-147.21 11.09,19.2 z"
             id="path12" /></g></g></g></g></svg>
