<?xml version="1.0" encoding="UTF-8" standalone="no"?>
<!-- Created with Inkscape (http://www.inkscape.org/) -->

<svg
   width="300"
   height="300"
   viewBox="0 0 150 150"
   version="1.1"
   id="svg1"
   xml:space="preserve"
   xmlns="http://www.w3.org/2000/svg"
   xmlns:svg="http://www.w3.org/2000/svg"><defs
     id="defs1" /><g
     id="layer1"><g
       id="g1"
       transform="matrix(0.26458333,0,0,0.26458333,8.6698494,5.1383917)"><g
         id="g2"
         transform="matrix(3.7795276,0,0,3.7795276,100.36874,62.592564)"><text
           x="-27.983288"
           y="1.8357941"
           stroke="none"
           fill="#000000"
           font-style="normal"
           font-weight="bold"
           font-size="10px"
           font-family="Helvetica"
           id="text4"
           style="stroke-width:0.05">What’s</text><text
           x="7.2071123"
           y="1.8357941"
           stroke="none"
           fill="#000000"
           font-style="normal"
           font-weight="bold"
           font-size="10px"
           font-family="Helvetica"
           id="text5"
           style="stroke-width:0.05">the</text><text
           x="24.985413"
           y="1.8357941"
           stroke="none"
           fill="#000000"
           font-style="normal"
           font-weight="bold"
           font-size="10px"
           font-family="Helvetica"
           id="text6"
           style="stroke-width:0.05">name</text><text
           x="0"
           y="0"
           stroke="none"
           fill="#000000"
           transform="matrix(0.05,0,0,0.05,10.658,31.1563)"
           font-style="normal"
           font-weight="bold"
           font-size="200px"
           font-family="Helvetica"
           id="text7" /><text
           x="0"
           y="0"
           stroke="none"
           fill="#000000"
           transform="matrix(0.05,0,0,0.05,13.4363,31.1563)"
           font-style="normal"
           font-weight="bold"
           font-size="200px"
           font-family="Helvetica"
           id="text8" /><text
           x="0"
           y="0"
           stroke="none"
           fill="#000000"
           transform="matrix(0.05,0,0,0.05,16.2146,31.1563)"
           font-style="normal"
           font-weight="bold"
           font-size="200px"
           font-family="Helvetica"
           id="text9" /><text
           x="-19.648289"
           y="12.344094"
           stroke="none"
           fill="#000000"
           font-style="normal"
           font-weight="bold"
           font-size="10px"
           font-family="Helvetica"
           id="text10"
           style="stroke-width:0.05">of</text><text
           x="-7.431488"
           y="12.344094"
           stroke="none"
           fill="#000000"
           font-style="normal"
           font-weight="bold"
           font-size="10px"
           font-family="Helvetica"
           id="text11"
           style="stroke-width:0.05">the</text><text
           x="10.346812"
           y="12.344094"
           stroke="none"
           fill="#0000ff"
           font-style="normal"
           font-weight="bold"
           font-size="10px"
           font-family="Helvetica"
           id="text12"
           style="stroke-width:0.05;fill:#ff0000;fill-opacity:1">red</text><text
           x="0"
           y="0"
           stroke="none"
           fill="#000000"
           transform="matrix(0.05,0,0,0.05,69.5447,31.1563)"
           font-style="normal"
           font-weight="bold"
           font-size="200px"
           font-family="Helvetica"
           id="text13" /><text
           x="29.681713"
           y="12.344094"
           stroke="none"
           fill="#000000"
           font-style="normal"
           font-weight="bold"
           font-size="10px"
           font-family="Helvetica"
           id="text14"
           style="stroke-width:0.05">portion</text><text
           x="-8.4226131"
           y="23.021292"
           stroke="none"
           fill="#000000"
           font-style="normal"
           font-weight="bold"
           font-size="10px"
           font-family="Helvetica"
           id="text15"
           style="stroke-width:0.05">of</text><text
           x="3.7943823"
           y="23.021292"
           stroke="none"
           fill="#000000"
           font-style="normal"
           font-weight="bold"
           font-size="10px"
           font-family="Helvetica"
           id="text16"
           style="stroke-width:0.05">the</text><text
           x="21.572382"
           y="23.021292"
           stroke="none"
           fill="#000000"
           font-style="normal"
           font-weight="bold"
           font-size="10px"
           font-family="Helvetica"
           id="text17"
           style="stroke-width:0.05">molecule?</text><g
           id="g5"
           transform="translate(5.0326758,42.386752)"><path
             stroke="none"
             fill="#000000"
             transform="matrix(0.05,0,0,0.05,-91,-42)"
             d="m 2394.06,1049.33 22.22,-12.82 -0.95,300.07 -10.63,6.13 -10.64,-6.13 z"
             id="path1" /><path
             stroke="none"
             fill="#000000"
             transform="matrix(0.05,0,0,0.05,-91,-42)"
             d="M 2145.3,905.713 V 880.06 l 270.98,156.45 -22.22,12.82 z"
             id="path2" /><path
             stroke="none"
             fill="#000000"
             transform="matrix(0.05,0,0,0.05,-91,-42)"
             d="m 2139.76,967.054 11.09,-19.205 203.95,117.751 -11.09,19.21 z"
             id="path3" /><path
             stroke="none"
             fill="#000000"
             transform="matrix(0.05,0,0,0.05,-91,-42)"
             d="m 1896.54,1049.33 -22.21,-12.82 270.97,-156.45 v 25.653 z"
             id="path4" /><path
             stroke="none"
             fill="#000000"
             transform="matrix(0.05,0,0,0.05,-91,-42)"
             d="m 1896.54,1336.58 -22.21,12.82 v -312.89 l 22.21,12.82 z"
             id="path5" /><path
             stroke="none"
             fill="#000000"
             transform="matrix(0.05,0,0,0.05,-91,-42)"
             d="m 1952.44,1310.71 h -22.18 V 1075.2 h 22.18 z"
             id="path6" /><path
             stroke="none"
             fill="#000000"
             transform="matrix(0.05,0,0,0.05,-91,-42)"
             d="m 2145.3,1480.2 v 25.65 l -270.97,-156.45 22.21,-12.82 z"
             id="path7" /><path
             stroke="none"
             fill="#000000"
             transform="matrix(0.05,0,0,0.05,-91,-42)"
             d="m 2394.06,1336.58 10.64,6.13 v 12.28 l -259.4,150.86 v -25.65 z"
             id="path8" /><path
             stroke="none"
             fill="#000000"
             transform="matrix(0.05,0,0,0.05,-91,-42)"
             d="m 2343.71,1301.1 11.09,19.21 -203.95,117.75 -11.09,-19.2 z"
             id="path9" /><text
             x="0"
             y="0"
             stroke="none"
             fill="#ff0000"
             transform="matrix(0.05,0,0,0.05,51.6737,28.3745)"
             font-style="normal"
             font-weight="bold"
             font-size="180px"
             font-family="Helvetica"
             id="text9-0">OCH</text><text
             x="0"
             y="0"
             stroke="none"
             fill="#ff0000"
             transform="matrix(0.05,0,0,0.05,71.6732,30.4443)"
             font-style="normal"
             font-weight="bold"
             font-size="135px"
             font-family="Helvetica"
             id="text10-1">3</text><path
             stroke="none"
             fill="#000000"
             transform="matrix(0.05,0,0,0.05,-91,-42)"
             d="m 2833.61,1381.8 11.09,19.2 -180.4,104.99 0.04,-25.67 z"
             id="path10" /><path
             stroke="none"
             fill="#000000"
             transform="matrix(0.05,0,0,0.05,-91,-42)"
             d="m 2664.34,1480.32 -0.04,25.67 -259.6,-151 v -12.28 l 10.63,-6.13 z"
             id="path11" /></g></g></g></g></svg>
