<?xml version="1.0" encoding="UTF-8" standalone="no"?>
<!-- Created with Inkscape (http://www.inkscape.org/) -->

<svg
   width="300"
   height="300"
   viewBox="0 0 150 150"
   version="1.1"
   id="svg1"
   xml:space="preserve"
   xmlns="http://www.w3.org/2000/svg"
   xmlns:svg="http://www.w3.org/2000/svg"><defs
     id="defs1" /><g
     id="layer1"><g
       id="g1"
       transform="matrix(0.26458333,0,0,0.26458333,8.6698494,5.1383917)"><g
         id="g2"
         transform="matrix(3.7795276,0,0,3.7795276,100.36874,62.592564)"><text
           x="-27.983288"
           y="1.8357941"
           stroke="none"
           fill="#000000"
           font-style="normal"
           font-weight="bold"
           font-size="10px"
           font-family="Helvetica"
           id="text4"
           style="stroke-width:0.05">What’s</text><text
           x="7.2071123"
           y="1.8357941"
           stroke="none"
           fill="#000000"
           font-style="normal"
           font-weight="bold"
           font-size="10px"
           font-family="Helvetica"
           id="text5"
           style="stroke-width:0.05">the</text><text
           x="24.985413"
           y="1.8357941"
           stroke="none"
           fill="#000000"
           font-style="normal"
           font-weight="bold"
           font-size="10px"
           font-family="Helvetica"
           id="text6"
           style="stroke-width:0.05">name</text><text
           x="0"
           y="0"
           stroke="none"
           fill="#000000"
           transform="matrix(0.05,0,0,0.05,10.658,31.1563)"
           font-style="normal"
           font-weight="bold"
           font-size="200px"
           font-family="Helvetica"
           id="text7" /><text
           x="0"
           y="0"
           stroke="none"
           fill="#000000"
           transform="matrix(0.05,0,0,0.05,13.4363,31.1563)"
           font-style="normal"
           font-weight="bold"
           font-size="200px"
           font-family="Helvetica"
           id="text8" /><text
           x="0"
           y="0"
           stroke="none"
           fill="#000000"
           transform="matrix(0.05,0,0,0.05,16.2146,31.1563)"
           font-style="normal"
           font-weight="bold"
           font-size="200px"
           font-family="Helvetica"
           id="text9" /><text
           x="-19.648289"
           y="12.344094"
           stroke="none"
           fill="#000000"
           font-style="normal"
           font-weight="bold"
           font-size="10px"
           font-family="Helvetica"
           id="text10"
           style="stroke-width:0.05">of</text><text
           x="-7.431488"
           y="12.344094"
           stroke="none"
           fill="#000000"
           font-style="normal"
           font-weight="bold"
           font-size="10px"
           font-family="Helvetica"
           id="text11"
           style="stroke-width:0.05">the</text><text
           x="10.346812"
           y="12.344094"
           stroke="none"
           fill="#0000ff"
           font-style="normal"
           font-weight="bold"
           font-size="10px"
           font-family="Helvetica"
           id="text12"
           style="stroke-width:0.05;fill:#ff0000;fill-opacity:1">red</text><text
           x="0"
           y="0"
           stroke="none"
           fill="#000000"
           transform="matrix(0.05,0,0,0.05,69.5447,31.1563)"
           font-style="normal"
           font-weight="bold"
           font-size="200px"
           font-family="Helvetica"
           id="text13" /><text
           x="29.681713"
           y="12.344094"
           stroke="none"
           fill="#000000"
           font-style="normal"
           font-weight="bold"
           font-size="10px"
           font-family="Helvetica"
           id="text14"
           style="stroke-width:0.05">portion</text><text
           x="-8.4226131"
           y="23.021292"
           stroke="none"
           fill="#000000"
           font-style="normal"
           font-weight="bold"
           font-size="10px"
           font-family="Helvetica"
           id="text15"
           style="stroke-width:0.05">of</text><text
           x="3.7943823"
           y="23.021292"
           stroke="none"
           fill="#000000"
           font-style="normal"
           font-weight="bold"
           font-size="10px"
           font-family="Helvetica"
           id="text16"
           style="stroke-width:0.05">the</text><text
           x="21.572382"
           y="23.021292"
           stroke="none"
           fill="#000000"
           font-style="normal"
           font-weight="bold"
           font-size="10px"
           font-family="Helvetica"
           id="text17"
           style="stroke-width:0.05">molecule?</text><g
           id="g5"
           transform="translate(-3.2793649,42.286238)"><path
             stroke="none"
             fill="#ff0000"
             transform="matrix(0.05,0,0,0.05,-104,-77)"
             d="m 2126.63,2028.03 22.21,12.83 v 287.24 l -22.21,12.83 z"
             id="path1" /><path
             stroke="none"
             fill="#ff0000"
             transform="matrix(0.05,0,0,0.05,-104,-77)"
             d="m 2182.56,2066.73 h 22.18 v 235.5 h -22.18 z"
             id="path2" /><path
             stroke="none"
             fill="#ff0000"
             transform="matrix(0.05,0,0,0.05,-104,-77)"
             d="m 2126.63,2340.93 22.21,-12.83 248.76,143.62 v 25.65 z"
             id="path3" /><path
             stroke="none"
             fill="#ff0000"
             transform="matrix(0.05,0,0,0.05,-104,-77)"
             d="m 2397.6,2497.37 v -25.65 l 248.76,-143.62 22.21,12.83 z"
             id="path4" /><path
             stroke="none"
             fill="#ff0000"
             transform="matrix(0.05,0,0,0.05,-104,-77)"
             d="m 2403.14,2429.59 -11.08,-19.21 203.95,-117.75 11.09,19.2 z"
             id="path5" /><path
             stroke="none"
             fill="#ff0000"
             transform="matrix(0.05,0,0,0.05,-104,-77)"
             d="m 2668.57,2340.93 -22.21,-12.83 v -287.24 l 10.63,-6.14 10.64,6.14 z"
             id="path6" /><path
             stroke="none"
             fill="#ff0000"
             transform="matrix(0.05,0,0,0.05,-104,-77)"
             d="m 2656.99,2022.44 v 12.28 l -10.63,6.14 -248.76,-143.62 v -25.65 z"
             id="path7" /><path
             stroke="none"
             fill="#ff0000"
             transform="matrix(0.05,0,0,0.05,-104,-77)"
             d="m 2607.1,2057.13 -11.09,19.2 -203.95,-117.75 11.08,-19.21 z"
             id="path8" /><path
             stroke="none"
             fill="#ff0000"
             transform="matrix(0.05,0,0,0.05,-104,-77)"
             d="m 2397.6,1871.59 v 25.65 l -248.76,143.62 -22.21,-12.83 z"
             id="path9" /><path
             stroke="none"
             fill="#000000"
             transform="matrix(0.05,0,0,0.05,-104,-77)"
             d="m 2667.63,2040.86 -10.64,-6.14 v -12.28 l 248.76,-143.62 10.63,6.14 v 12.28 z"
             id="path10" /><path
             stroke="none"
             fill="#000000"
             transform="matrix(0.05,0,0,0.05,-104,-77)"
             d="m 2927.02,1878.82 -10.64,6.14 -10.63,-6.14 -0.45,-293.38 h 22.17 z"
             id="path11" /><path
             stroke="none"
             fill="#000000"
             transform="matrix(0.05,0,0,0.05,-104,-77)"
             d="m 2916.38,1897.24 v -12.28 l 10.64,-6.14 249,143.74 -0.24,12.16 -10.64,6.14 z"
             id="path12" /><path
             stroke="none"
             fill="#000000"
             transform="matrix(0.05,0,0,0.05,-104,-77)"
             d="m 3165.14,2040.86 10.64,-6.14 10.65,5.87 0.43,293.65 h -22.17 z"
             id="path13" /><text
             x="0"
             y="0"
             stroke="none"
             fill="#000000"
             transform="matrix(0.05,0,0,0.05,64.5086,20.4868)"
             font-style="normal"
             font-weight="bold"
             font-size="180px"
             font-family="Helvetica"
             id="text13-5">CN</text><path
             stroke="none"
             fill="#000000"
             transform="matrix(0.05,0,0,0.05,-104,-77)"
             d="m 3186.43,2040.59 -10.65,-5.87 0.24,-12.16 172.12,-100.16 11.08,19.21 z"
             id="path14" /></g></g></g></g></svg>
