<?xml version="1.0" encoding="UTF-8" standalone="no"?>
<!-- Created with Inkscape (http://www.inkscape.org/) -->

<svg
   width="300"
   height="300"
   viewBox="0 0 150 150"
   version="1.1"
   id="svg1"
   xml:space="preserve"
   xmlns="http://www.w3.org/2000/svg"
   xmlns:svg="http://www.w3.org/2000/svg"><defs
     id="defs1" /><g
     id="layer1"><g
       id="g1"
       transform="matrix(0.26458333,0,0,0.26458333,8.6698494,5.1383917)"><g
         id="g2"
         transform="matrix(3.7795276,0,0,3.7795276,100.36874,62.592564)"><text
           x="-27.983288"
           y="1.8357941"
           stroke="none"
           fill="#000000"
           font-style="normal"
           font-weight="bold"
           font-size="10px"
           font-family="Helvetica"
           id="text4"
           style="stroke-width:0.05">What’s</text><text
           x="7.2071123"
           y="1.8357941"
           stroke="none"
           fill="#000000"
           font-style="normal"
           font-weight="bold"
           font-size="10px"
           font-family="Helvetica"
           id="text5"
           style="stroke-width:0.05">the</text><text
           x="24.985413"
           y="1.8357941"
           stroke="none"
           fill="#000000"
           font-style="normal"
           font-weight="bold"
           font-size="10px"
           font-family="Helvetica"
           id="text6"
           style="stroke-width:0.05">name</text><text
           x="0"
           y="0"
           stroke="none"
           fill="#000000"
           transform="matrix(0.05,0,0,0.05,10.658,31.1563)"
           font-style="normal"
           font-weight="bold"
           font-size="200px"
           font-family="Helvetica"
           id="text7" /><text
           x="0"
           y="0"
           stroke="none"
           fill="#000000"
           transform="matrix(0.05,0,0,0.05,13.4363,31.1563)"
           font-style="normal"
           font-weight="bold"
           font-size="200px"
           font-family="Helvetica"
           id="text8" /><text
           x="0"
           y="0"
           stroke="none"
           fill="#000000"
           transform="matrix(0.05,0,0,0.05,16.2146,31.1563)"
           font-style="normal"
           font-weight="bold"
           font-size="200px"
           font-family="Helvetica"
           id="text9" /><text
           x="-19.648289"
           y="12.344094"
           stroke="none"
           fill="#000000"
           font-style="normal"
           font-weight="bold"
           font-size="10px"
           font-family="Helvetica"
           id="text10"
           style="stroke-width:0.05">of</text><text
           x="-7.431488"
           y="12.344094"
           stroke="none"
           fill="#000000"
           font-style="normal"
           font-weight="bold"
           font-size="10px"
           font-family="Helvetica"
           id="text11"
           style="stroke-width:0.05">the</text><text
           x="10.346812"
           y="12.344094"
           stroke="none"
           fill="#0000ff"
           font-style="normal"
           font-weight="bold"
           font-size="10px"
           font-family="Helvetica"
           id="text12"
           style="stroke-width:0.05;fill:#ff0000;fill-opacity:1">red</text><text
           x="0"
           y="0"
           stroke="none"
           fill="#000000"
           transform="matrix(0.05,0,0,0.05,69.5447,31.1563)"
           font-style="normal"
           font-weight="bold"
           font-size="200px"
           font-family="Helvetica"
           id="text13" /><text
           x="29.681713"
           y="12.344094"
           stroke="none"
           fill="#000000"
           font-style="normal"
           font-weight="bold"
           font-size="10px"
           font-family="Helvetica"
           id="text14"
           style="stroke-width:0.05">portion</text><text
           x="-8.4226131"
           y="23.021292"
           stroke="none"
           fill="#000000"
           font-style="normal"
           font-weight="bold"
           font-size="10px"
           font-family="Helvetica"
           id="text15"
           style="stroke-width:0.05">of</text><text
           x="3.7943823"
           y="23.021292"
           stroke="none"
           fill="#000000"
           font-style="normal"
           font-weight="bold"
           font-size="10px"
           font-family="Helvetica"
           id="text16"
           style="stroke-width:0.05">the</text><text
           x="21.572382"
           y="23.021292"
           stroke="none"
           fill="#000000"
           font-style="normal"
           font-weight="bold"
           font-size="10px"
           font-family="Helvetica"
           id="text17"
           style="stroke-width:0.05">molecule?</text><g
           id="g5"
           transform="translate(12.671053,42.008568)"><path
             stroke="none"
             fill="#000000"
             transform="matrix(0.05,0,0,0.05,-118,-69)"
             d="m 2923.74,1891.22 10.63,-6.14 10.64,6.14 v 286.72 l -22.22,12.83 z"
             id="path1" /><path
             stroke="none"
             fill="#000000"
             transform="matrix(0.05,0,0,0.05,-118,-69)"
             d="m 2978.73,1917.09 h 22.17 v 234.98 h -22.17 z"
             id="path2" /><path
             stroke="none"
             fill="#ff0000"
             transform="matrix(0.05,0,0,0.05,-118,-69)"
             d="m 2686.07,1729.44 -10.64,6.14 -9.82,-17.02 -1.27,-281.98 h 22.18 z"
             id="path3" /><path
             stroke="none"
             fill="#000000"
             transform="matrix(0.05,0,0,0.05,-118,-69)"
             d="m 2934.37,1872.8 v 12.28 l -10.63,6.14 -248.31,-143.36 v -12.28 l 10.64,-6.14 z"
             id="path4" /><path
             stroke="none"
             fill="#ff0000"
             transform="matrix(0.05,0,0,0.05,-118,-69)"
             d="m 2655.78,1735.58 h 19.65 v 12.28 l -253.85,147.08 -11.08,-19.2 z"
             id="path5" /><path
             stroke="none"
             fill="#ff0000"
             transform="matrix(0.05,0,0,0.05,-118,-69)"
             d="m 2665.61,1718.56 9.82,17.02 h -19.65 l -245.28,-140.16 11.08,-19.2 z"
             id="path6" /><path
             stroke="none"
             fill="#000000"
             transform="matrix(0.05,0,0,0.05,-118,-69)"
             d="m 2922.79,2190.77 22.22,-12.83 248.31,143.36 v 25.66 z"
             id="path7" /><path
             stroke="none"
             fill="#000000"
             transform="matrix(0.05,0,0,0.05,-118,-69)"
             d="m 3193.32,2346.96 v -25.66 l 248.3,-143.36 22.22,12.83 z"
             id="path8" /><path
             stroke="none"
             fill="#000000"
             transform="matrix(0.05,0,0,0.05,-118,-69)"
             d="m 3198.86,2279.17 -11.09,-19.21 203.5,-117.49 11.09,19.21 z"
             id="path9" /><path
             stroke="none"
             fill="#000000"
             transform="matrix(0.05,0,0,0.05,-118,-69)"
             d="m 3463.84,2190.77 -22.22,-12.83 v -286.72 l 22.22,-12.83 z"
             id="path10" /><path
             stroke="none"
             fill="#000000"
             transform="matrix(0.05,0,0,0.05,-118,-69)"
             d="m 3463.84,1878.39 -22.22,12.83 -248.3,-143.36 v -25.65 z"
             id="path11" /><path
             stroke="none"
             fill="#000000"
             transform="matrix(0.05,0,0,0.05,-118,-69)"
             d="m 3402.36,1907.49 -11.09,19.2 -203.5,-117.49 11.09,-19.2 z"
             id="path12" /><path
             stroke="none"
             fill="#000000"
             transform="matrix(0.05,0,0,0.05,-118,-69)"
             d="m 3193.32,1722.21 v 25.65 l -248.31,143.36 -10.64,-6.14 v -12.28 z"
             id="path13" /></g></g></g></g></svg>
