<?xml version="1.0" encoding="UTF-8" standalone="no"?>
<!-- Created with Inkscape (http://www.inkscape.org/) -->

<svg
   width="300"
   height="300"
   viewBox="0 0 150 150"
   version="1.1"
   id="svg1"
   xml:space="preserve"
   xmlns="http://www.w3.org/2000/svg"
   xmlns:svg="http://www.w3.org/2000/svg"><defs
     id="defs1" /><g
     id="layer1"><g
       id="g1"
       transform="matrix(0.26458333,0,0,0.26458333,8.6698494,5.1383917)"><g
         id="g2"
         transform="matrix(3.7795276,0,0,3.7795276,100.36874,62.592564)"><text
           x="-27.983288"
           y="1.8357941"
           stroke="none"
           fill="#000000"
           font-style="normal"
           font-weight="bold"
           font-size="10px"
           font-family="Helvetica"
           id="text4"
           style="stroke-width:0.05">What’s</text><text
           x="7.2071123"
           y="1.8357941"
           stroke="none"
           fill="#000000"
           font-style="normal"
           font-weight="bold"
           font-size="10px"
           font-family="Helvetica"
           id="text5"
           style="stroke-width:0.05">the</text><text
           x="24.985413"
           y="1.8357941"
           stroke="none"
           fill="#000000"
           font-style="normal"
           font-weight="bold"
           font-size="10px"
           font-family="Helvetica"
           id="text6"
           style="stroke-width:0.05">name</text><text
           x="0"
           y="0"
           stroke="none"
           fill="#000000"
           transform="matrix(0.05,0,0,0.05,10.658,31.1563)"
           font-style="normal"
           font-weight="bold"
           font-size="200px"
           font-family="Helvetica"
           id="text7" /><text
           x="0"
           y="0"
           stroke="none"
           fill="#000000"
           transform="matrix(0.05,0,0,0.05,13.4363,31.1563)"
           font-style="normal"
           font-weight="bold"
           font-size="200px"
           font-family="Helvetica"
           id="text8" /><text
           x="0"
           y="0"
           stroke="none"
           fill="#000000"
           transform="matrix(0.05,0,0,0.05,16.2146,31.1563)"
           font-style="normal"
           font-weight="bold"
           font-size="200px"
           font-family="Helvetica"
           id="text9" /><text
           x="-19.648289"
           y="12.344094"
           stroke="none"
           fill="#000000"
           font-style="normal"
           font-weight="bold"
           font-size="10px"
           font-family="Helvetica"
           id="text10"
           style="stroke-width:0.05">of</text><text
           x="-7.431488"
           y="12.344094"
           stroke="none"
           fill="#000000"
           font-style="normal"
           font-weight="bold"
           font-size="10px"
           font-family="Helvetica"
           id="text11"
           style="stroke-width:0.05">the</text><text
           x="10.346812"
           y="12.344094"
           stroke="none"
           fill="#0000ff"
           font-style="normal"
           font-weight="bold"
           font-size="10px"
           font-family="Helvetica"
           id="text12"
           style="stroke-width:0.05;fill:#ff0000;fill-opacity:1">red</text><text
           x="0"
           y="0"
           stroke="none"
           fill="#000000"
           transform="matrix(0.05,0,0,0.05,69.5447,31.1563)"
           font-style="normal"
           font-weight="bold"
           font-size="200px"
           font-family="Helvetica"
           id="text13" /><text
           x="29.681713"
           y="12.344094"
           stroke="none"
           fill="#000000"
           font-style="normal"
           font-weight="bold"
           font-size="10px"
           font-family="Helvetica"
           id="text14"
           style="stroke-width:0.05">portion</text><text
           x="-8.4226131"
           y="23.021292"
           stroke="none"
           fill="#000000"
           font-style="normal"
           font-weight="bold"
           font-size="10px"
           font-family="Helvetica"
           id="text15"
           style="stroke-width:0.05">of</text><text
           x="3.7943823"
           y="23.021292"
           stroke="none"
           fill="#000000"
           font-style="normal"
           font-weight="bold"
           font-size="10px"
           font-family="Helvetica"
           id="text16"
           style="stroke-width:0.05">the</text><text
           x="21.572382"
           y="23.021292"
           stroke="none"
           fill="#000000"
           font-style="normal"
           font-weight="bold"
           font-size="10px"
           font-family="Helvetica"
           id="text17"
           style="stroke-width:0.05">molecule?</text><g
           id="g4"
           transform="translate(1.4263702,46.354736)"><path
             stroke="none"
             fill="#000000"
             transform="matrix(0.05,0,0,0.05,-36,-56)"
             d="m 767.835,1266.97 22.24,16.15 v 284.24 l -22.24,16.15 z"
             id="path1" /><path
             stroke="none"
             fill="#000000"
             transform="matrix(0.05,0,0,0.05,-36,-56)"
             d="m 767.835,1583.51 22.24,-16.15 270.315,87.83 8.5,26.14 z"
             id="path2" /><path
             stroke="none"
             fill="#000000"
             transform="matrix(0.05,0,0,0.05,-36,-56)"
             d="m 1068.89,1681.33 -8.5,-26.14 167.07,-229.95 h 13.01 l 5.61,10.49 z"
             id="path3" /><path
             stroke="none"
             fill="#000000"
             transform="matrix(0.05,0,0,0.05,-36,-56)"
             d="m 1246.08,1414.75 -5.61,10.49 h -13.01 l -167.07,-229.95 8.5,-26.14 z"
             id="path4" /><path
             stroke="none"
             fill="#000000"
             transform="matrix(0.05,0,0,0.05,-36,-56)"
             d="m 1068.89,1169.15 -8.5,26.14 -270.315,87.83 -22.24,-16.15 z"
             id="path5" /><text
             x="0"
             y="0"
             stroke="none"
             fill="#000000"
             transform="matrix(0.05,0,0,0.05,37.4991,18.5008)"
             font-style="normal"
             font-weight="bold"
             font-size="180px"
             font-family="Helvetica"
             id="text5-0">O</text><path
             stroke="none"
             fill="#000000"
             transform="matrix(0.05,0,0,0.05,-36,-56)"
             d="m 1246.08,1435.73 -5.61,-10.49 5.61,-10.49 201.54,-0.6 v 22.18 z"
             id="path6" /><path
             stroke="none"
             fill="#000000"
             transform="matrix(0.05,0,0,0.05,-36,-56)"
             d="m 1581.29,1518.96 19.21,-11.09 102.77,176.54 -25.67,-0.05 z"
             id="path7" /><path
             stroke="none"
             fill="#ff0000"
             transform="matrix(0.05,0,0,0.05,-36,-56)"
             d="m 1677.6,1684.36 25.67,0.05 -153.68,265.16 -19.21,-11.09 z"
             id="path8" /><text
             x="0"
             y="0"
             stroke="none"
             fill="#ff0000"
             transform="matrix(0.05,0,0,0.05,59.9631,31.4704)"
             font-style="normal"
             font-weight="bold"
             font-size="180px"
             font-family="Helvetica"
             id="text8-2">O</text><path
             stroke="none"
             fill="#ff0000"
             transform="matrix(0.05,0,0,0.05,-36,-56)"
             d="m 1673.74,1668 v -22.18 H 1896.9 V 1668 Z"
             id="path9" /><path
             stroke="none"
             fill="#ff0000"
             transform="matrix(0.05,0,0,0.05,-36,-56)"
             d="m 1673.74,1723.44 v -22.18 h 223.16 v 22.18 z"
             id="path10" /></g></g></g></g></svg>
