<?xml version="1.0" encoding="UTF-8" standalone="no"?>
<!-- Created with Inkscape (http://www.inkscape.org/) -->

<svg
   width="300"
   height="300"
   viewBox="0 0 150 150"
   version="1.1"
   id="svg1"
   xml:space="preserve"
   inkscape:version="1.4.2 (ebf0e940, 2025-05-08)"
   sodipodi:docname="4-b.svg"
   xmlns:inkscape="http://www.inkscape.org/namespaces/inkscape"
   xmlns:sodipodi="http://sodipodi.sourceforge.net/DTD/sodipodi-0.dtd"
   xmlns="http://www.w3.org/2000/svg"
   xmlns:svg="http://www.w3.org/2000/svg"><sodipodi:namedview
     id="namedview1"
     pagecolor="#ffffff"
     bordercolor="#000000"
     borderopacity="0.25"
     inkscape:showpageshadow="2"
     inkscape:pageopacity="0.0"
     inkscape:pagecheckerboard="0"
     inkscape:deskcolor="#d1d1d1"
     inkscape:document-units="mm"
     inkscape:zoom="1.9668082"
     inkscape:cx="182.52924"
     inkscape:cy="145.41327"
     inkscape:window-width="1528"
     inkscape:window-height="839"
     inkscape:window-x="0"
     inkscape:window-y="38"
     inkscape:window-maximized="0"
     inkscape:current-layer="g2" /><defs
     id="defs1" /><g
     inkscape:label="Layer 1"
     inkscape:groupmode="layer"
     id="layer1"><g
       id="g1"
       transform="matrix(0.26458333,0,0,0.26458333,8.6698494,5.1383917)"><g
         id="g2"
         transform="matrix(3.7795276,0,0,3.7795276,100.36874,62.592564)"><text
           x="-27.983288"
           y="1.8357941"
           stroke="none"
           fill="#000000"
           font-style="normal"
           font-weight="bold"
           font-size="10px"
           font-family="Helvetica"
           id="text4"
           style="stroke-width:0.05">What’s</text><text
           x="7.2071123"
           y="1.8357941"
           stroke="none"
           fill="#000000"
           font-style="normal"
           font-weight="bold"
           font-size="10px"
           font-family="Helvetica"
           id="text5"
           style="stroke-width:0.05">the</text><text
           x="24.985413"
           y="1.8357941"
           stroke="none"
           fill="#000000"
           font-style="normal"
           font-weight="bold"
           font-size="10px"
           font-family="Helvetica"
           id="text6"
           style="stroke-width:0.05">name</text><text
           x="0"
           y="0"
           stroke="none"
           fill="#000000"
           transform="matrix(0.05,0,0,0.05,10.658,31.1563)"
           font-style="normal"
           font-weight="bold"
           font-size="200px"
           font-family="Helvetica"
           id="text7" /><text
           x="0"
           y="0"
           stroke="none"
           fill="#000000"
           transform="matrix(0.05,0,0,0.05,13.4363,31.1563)"
           font-style="normal"
           font-weight="bold"
           font-size="200px"
           font-family="Helvetica"
           id="text8" /><text
           x="0"
           y="0"
           stroke="none"
           fill="#000000"
           transform="matrix(0.05,0,0,0.05,16.2146,31.1563)"
           font-style="normal"
           font-weight="bold"
           font-size="200px"
           font-family="Helvetica"
           id="text9" /><text
           x="-19.648289"
           y="12.344094"
           stroke="none"
           fill="#000000"
           font-style="normal"
           font-weight="bold"
           font-size="10px"
           font-family="Helvetica"
           id="text10"
           style="stroke-width:0.05">of</text><text
           x="-7.431488"
           y="12.344094"
           stroke="none"
           fill="#000000"
           font-style="normal"
           font-weight="bold"
           font-size="10px"
           font-family="Helvetica"
           id="text11"
           style="stroke-width:0.05">the</text><text
           x="10.346812"
           y="12.344094"
           stroke="none"
           fill="#0000ff"
           font-style="normal"
           font-weight="bold"
           font-size="10px"
           font-family="Helvetica"
           id="text12"
           style="stroke-width:0.05;fill:#ff0000;fill-opacity:1">red</text><text
           x="0"
           y="0"
           stroke="none"
           fill="#000000"
           transform="matrix(0.05,0,0,0.05,69.5447,31.1563)"
           font-style="normal"
           font-weight="bold"
           font-size="200px"
           font-family="Helvetica"
           id="text13" /><text
           x="29.681713"
           y="12.344094"
           stroke="none"
           fill="#000000"
           font-style="normal"
           font-weight="bold"
           font-size="10px"
           font-family="Helvetica"
           id="text14"
           style="stroke-width:0.05">portion</text><text
           x="-8.4226131"
           y="23.021292"
           stroke="none"
           fill="#000000"
           font-style="normal"
           font-weight="bold"
           font-size="10px"
           font-family="Helvetica"
           id="text15"
           style="stroke-width:0.05">of</text><text
           x="3.7943823"
           y="23.021292"
           stroke="none"
           fill="#000000"
           font-style="normal"
           font-weight="bold"
           font-size="10px"
           font-family="Helvetica"
           id="text16"
           style="stroke-width:0.05">the</text><text
           x="21.572382"
           y="23.021292"
           stroke="none"
           fill="#000000"
           font-style="normal"
           font-weight="bold"
           font-size="10px"
           font-family="Helvetica"
           id="text17"
           style="stroke-width:0.05">molecule?</text><g
           id="g4"
           transform="translate(-2.6657609,40.989622)"><path
             stroke="none"
             fill="#ff0000"
             transform="matrix(0.05,0,0,0.05,-37,-40)"
             d="m 1574.34,1240.27 h -22.18 v -214.52 h 22.18 z"
             id="path1" /><path
             stroke="none"
             fill="#ff0000"
             transform="matrix(0.05,0,0,0.05,-37,-40)"
             d="m 1629.78,1240.27 h -22.18 v -214.52 h 22.18 z"
             id="path2" /><text
             x="0"
             y="0"
             stroke="none"
             fill="#ff0000"
             transform="matrix(0.05,0,0,0.05,39.0483,9.50197)"
             font-style="normal"
             font-weight="bold"
             font-size="180px"
             font-family="Helvetica"
             id="text2">O</text><path
             stroke="none"
             fill="#ff0000"
             transform="matrix(0.05,0,0,0.05,-37,-40)"
             d="m 816.206,1372.56 -22.023,-13.59 276.937,-144.02 -0.37,25.23 z"
             id="path3" /><path
             stroke="none"
             fill="#ff0000"
             transform="matrix(0.05,0,0,0.05,-37,-40)"
             d="m 812.039,1659.01 -22.395,12.29 4.539,-312.33 22.023,13.59 z"
             id="path4" /><path
             stroke="none"
             fill="#ff0000"
             transform="matrix(0.05,0,0,0.05,-37,-40)"
             d="m 868.294,1634.4 -22.173,-0.32 3.424,-234.27 22.174,0.33 z"
             id="path5" /><path
             stroke="none"
             fill="#ff0000"
             transform="matrix(0.05,0,0,0.05,-37,-40)"
             d="m 1062.37,1813.37 -0.38,25.87 -272.346,-167.94 22.395,-12.29 z"
             id="path6" /><path
             stroke="none"
             fill="#ff0000"
             transform="matrix(0.05,0,0,0.05,-37,-40)"
             d="m 1317.11,1666.39 22.03,12.94 -277.15,159.91 0.38,-25.87 z"
             id="path7" /><path
             stroke="none"
             fill="#ff0000"
             transform="matrix(0.05,0,0,0.05,-37,-40)"
             d="m 1267.15,1630.71 11.08,19.21 -209.55,120.88 -11.09,-19.21 z"
             id="path8" /><path
             stroke="none"
             fill="#ff0000"
             transform="matrix(0.05,0,0,0.05,-37,-40)"
             d="m 1321.32,1379.95 10.71,-6.19 10.55,6.2 -3.44,299.37 -22.03,-12.94 z"
             id="path9" /><path
             stroke="none"
             fill="#ff0000"
             transform="matrix(0.05,0,0,0.05,-37,-40)"
             d="m 1331.94,1361.53 0.09,12.23 -10.71,6.19 -250.57,-139.77 0.37,-25.23 z"
             id="path10" /><path
             stroke="none"
             fill="#ff0000"
             transform="matrix(0.05,0,0,0.05,-37,-40)"
             d="m 1281.51,1396.37 -10.8,19.36 -206.1,-115.01 10.8,-19.36 z"
             id="path11" /><path
             stroke="none"
             fill="#ff0000"
             transform="matrix(0.05,0,0,0.05,-37,-40)"
             d="m 1590.97,1210.89 v 25.65 l -248.39,143.42 -10.55,-6.2 -0.09,-12.23 z"
             id="path12" /><path
             stroke="none"
             fill="#000000"
             transform="matrix(0.05,0,0,0.05,-37,-40)"
             d="m 1590.97,1236.54 v -25.65 l 258.94,150.6 v 12.27 l -10.63,6.14 z"
             id="path13" /><path
             stroke="none"
             fill="#000000"
             transform="matrix(0.05,0,0,0.05,-37,-40)"
             d="m 1839.28,1379.9 10.63,-6.14 10.64,6.14 v 287.24 l -22.22,12.83 z"
             id="path14" /><path
             stroke="none"
             fill="#000000"
             transform="matrix(0.05,0,0,0.05,-37,-40)"
             d="m 1838.33,1679.97 22.22,-12.83 248.75,143.63 v 25.65 z"
             id="path15" /><path
             stroke="none"
             fill="#000000"
             transform="matrix(0.05,0,0,0.05,-37,-40)"
             d="m 2109.3,1836.42 v -25.65 l 248.76,-143.63 22.22,12.83 z"
             id="path16" /><path
             stroke="none"
             fill="#000000"
             transform="matrix(0.05,0,0,0.05,-37,-40)"
             d="m 2380.28,1679.97 -22.22,-12.83 V 1379.9 l 22.22,-12.82 z"
             id="path17" /><path
             stroke="none"
             fill="#000000"
             transform="matrix(0.05,0,0,0.05,-37,-40)"
             d="m 2380.28,1367.08 -22.22,12.82 -248.76,-143.62 v -25.65 z"
             id="path18" /><path
             stroke="none"
             fill="#000000"
             transform="matrix(0.05,0,0,0.05,-37,-40)"
             d="m 2109.3,1210.63 v 25.65 l -248.75,143.62 -10.64,-6.14 v -12.27 z"
             id="path19" /></g></g></g></g></svg>
