<?xml version="1.0" encoding="UTF-8" standalone="no"?>
<!-- Created with Inkscape (http://www.inkscape.org/) -->

<svg
   width="300"
   height="300"
   viewBox="0 0 150 150"
   version="1.1"
   id="svg1"
   xml:space="preserve"
   inkscape:version="1.4.2 (ebf0e940, 2025-05-08)"
   sodipodi:docname="5-b.svg"
   xmlns:inkscape="http://www.inkscape.org/namespaces/inkscape"
   xmlns:sodipodi="http://sodipodi.sourceforge.net/DTD/sodipodi-0.dtd"
   xmlns="http://www.w3.org/2000/svg"
   xmlns:svg="http://www.w3.org/2000/svg"><sodipodi:namedview
     id="namedview1"
     pagecolor="#ffffff"
     bordercolor="#000000"
     borderopacity="0.25"
     inkscape:showpageshadow="2"
     inkscape:pageopacity="0.0"
     inkscape:pagecheckerboard="0"
     inkscape:deskcolor="#d1d1d1"
     inkscape:document-units="mm"
     inkscape:zoom="1.9668082"
     inkscape:cx="182.52924"
     inkscape:cy="145.41327"
     inkscape:window-width="1528"
     inkscape:window-height="839"
     inkscape:window-x="0"
     inkscape:window-y="38"
     inkscape:window-maximized="0"
     inkscape:current-layer="g2" /><defs
     id="defs1" /><g
     inkscape:label="Layer 1"
     inkscape:groupmode="layer"
     id="layer1"><g
       id="g1"
       transform="matrix(0.26458333,0,0,0.26458333,8.6698494,5.1383917)"><g
         id="g2"
         transform="matrix(3.7795276,0,0,3.7795276,100.36874,62.592564)"><text
           x="-27.983288"
           y="1.8357941"
           stroke="none"
           fill="#000000"
           font-style="normal"
           font-weight="bold"
           font-size="10px"
           font-family="Helvetica"
           id="text4"
           style="stroke-width:0.05">What’s</text><text
           x="7.2071123"
           y="1.8357941"
           stroke="none"
           fill="#000000"
           font-style="normal"
           font-weight="bold"
           font-size="10px"
           font-family="Helvetica"
           id="text5"
           style="stroke-width:0.05">the</text><text
           x="24.985413"
           y="1.8357941"
           stroke="none"
           fill="#000000"
           font-style="normal"
           font-weight="bold"
           font-size="10px"
           font-family="Helvetica"
           id="text6"
           style="stroke-width:0.05">name</text><text
           x="0"
           y="0"
           stroke="none"
           fill="#000000"
           transform="matrix(0.05,0,0,0.05,10.658,31.1563)"
           font-style="normal"
           font-weight="bold"
           font-size="200px"
           font-family="Helvetica"
           id="text7" /><text
           x="0"
           y="0"
           stroke="none"
           fill="#000000"
           transform="matrix(0.05,0,0,0.05,13.4363,31.1563)"
           font-style="normal"
           font-weight="bold"
           font-size="200px"
           font-family="Helvetica"
           id="text8" /><text
           x="0"
           y="0"
           stroke="none"
           fill="#000000"
           transform="matrix(0.05,0,0,0.05,16.2146,31.1563)"
           font-style="normal"
           font-weight="bold"
           font-size="200px"
           font-family="Helvetica"
           id="text9" /><text
           x="-19.648289"
           y="12.344094"
           stroke="none"
           fill="#000000"
           font-style="normal"
           font-weight="bold"
           font-size="10px"
           font-family="Helvetica"
           id="text10"
           style="stroke-width:0.05">of</text><text
           x="-7.431488"
           y="12.344094"
           stroke="none"
           fill="#000000"
           font-style="normal"
           font-weight="bold"
           font-size="10px"
           font-family="Helvetica"
           id="text11"
           style="stroke-width:0.05">the</text><text
           x="10.346812"
           y="12.344094"
           stroke="none"
           fill="#0000ff"
           font-style="normal"
           font-weight="bold"
           font-size="10px"
           font-family="Helvetica"
           id="text12"
           style="stroke-width:0.05;fill:#ff0000;fill-opacity:1">red</text><text
           x="0"
           y="0"
           stroke="none"
           fill="#000000"
           transform="matrix(0.05,0,0,0.05,69.5447,31.1563)"
           font-style="normal"
           font-weight="bold"
           font-size="200px"
           font-family="Helvetica"
           id="text13" /><text
           x="29.681713"
           y="12.344094"
           stroke="none"
           fill="#000000"
           font-style="normal"
           font-weight="bold"
           font-size="10px"
           font-family="Helvetica"
           id="text14"
           style="stroke-width:0.05">portion</text><text
           x="-8.4226131"
           y="23.021292"
           stroke="none"
           fill="#000000"
           font-style="normal"
           font-weight="bold"
           font-size="10px"
           font-family="Helvetica"
           id="text15"
           style="stroke-width:0.05">of</text><text
           x="3.7943823"
           y="23.021292"
           stroke="none"
           fill="#000000"
           font-style="normal"
           font-weight="bold"
           font-size="10px"
           font-family="Helvetica"
           id="text16"
           style="stroke-width:0.05">the</text><text
           x="21.572382"
           y="23.021292"
           stroke="none"
           fill="#000000"
           font-style="normal"
           font-weight="bold"
           font-size="10px"
           font-family="Helvetica"
           id="text17"
           style="stroke-width:0.05">molecule?</text><g
           id="g4"
           transform="translate(-2.2854299,45.754882)"><path
             stroke="none"
             fill="#ff0000"
             transform="matrix(0.05,0,0,0.05,-51,-61)"
             d="m 2404.47,2040.81 12.82,22.22 h -311.37 l 12.82,-22.22 z"
             id="path1" /><path
             stroke="none"
             fill="#ff0000"
             transform="matrix(0.05,0,0,0.05,-51,-61)"
             d="m 2547.33,1793.37 h 25.65 l -155.69,269.66 -12.82,-22.22 z"
             id="path2" /><path
             stroke="none"
             fill="#ff0000"
             transform="matrix(0.05,0,0,0.05,-51,-61)"
             d="m 2485.99,1787.82 19.2,11.09 -116.99,202.63 -19.21,-11.08 z"
             id="path3" /><path
             stroke="none"
             fill="#ff0000"
             transform="matrix(0.05,0,0,0.05,-51,-61)"
             d="m 2404.47,1545.92 12.82,-22.22 155.69,269.67 h -25.65 z"
             id="path4" /><path
             stroke="none"
             fill="#ff0000"
             transform="matrix(0.05,0,0,0.05,-51,-61)"
             d="m 2118.74,1545.92 -12.82,-22.22 h 311.37 l -12.82,22.22 z"
             id="path5" /><path
             stroke="none"
             fill="#ff0000"
             transform="matrix(0.05,0,0,0.05,-51,-61)"
             d="m 2144.61,1601.82 v -22.18 h 233.99 v 22.18 z"
             id="path6" /><path
             stroke="none"
             fill="#ff0000"
             transform="matrix(0.05,0,0,0.05,-51,-61)"
             d="m 1975.88,1793.37 h -12.27 l -6.14,-10.64 148.45,-259.03 12.82,22.22 z"
             id="path7" /><path
             stroke="none"
             fill="#ff0000"
             transform="matrix(0.05,0,0,0.05,-51,-61)"
             d="m 1957.47,1804 6.14,-10.63 h 12.27 l 142.86,247.44 -12.82,22.22 z"
             id="path8" /><path
             stroke="none"
             fill="#ff0000"
             transform="matrix(0.05,0,0,0.05,-51,-61)"
             d="m 2018.02,1798.91 19.2,-11.09 117,202.64 -19.21,11.08 z"
             id="path9" /><path
             stroke="none"
             fill="#ff0000"
             transform="matrix(0.05,0,0,0.05,-51,-61)"
             d="m 1658.65,1804.97 12.78,-22.26 286.04,0.02 6.14,10.64 -6.14,10.63 z"
             id="path10" /><path
             stroke="none"
             fill="#000000"
             transform="matrix(0.05,0,0,0.05,-51,-61)"
             d="m 1671.43,1782.71 -12.78,22.26 -100.74,-175.96 19.21,-11.09 z"
             id="path11" /><text
             x="0"
             y="0"
             stroke="none"
             fill="#000000"
             transform="matrix(0.05,0,0,0.05,21.33,19.0032)"
             font-style="normal"
             font-weight="bold"
             font-size="180px"
             font-family="Helvetica"
             id="text11-4">O</text><path
             stroke="none"
             fill="#000000"
             transform="matrix(0.05,0,0,0.05,-51,-61)"
             d="m 1424.24,1524.2 v 22.18 l -212.22,0.71 12.87,-22.21 z"
             id="path12" /><path
             stroke="none"
             fill="#000000"
             transform="matrix(0.05,0,0,0.05,-51,-61)"
             d="m 1224.89,1524.88 -12.87,22.21 -152.02,-264.33 19.21,-11.09 z"
             id="path13" /></g></g></g></g></svg>
