<?xml version="1.0" encoding="UTF-8" standalone="no"?>
<!-- Created with Inkscape (http://www.inkscape.org/) -->

<svg
   width="300"
   height="300"
   viewBox="0 0 150 150"
   version="1.1"
   id="svg1"
   xml:space="preserve"
   xmlns="http://www.w3.org/2000/svg"
   xmlns:svg="http://www.w3.org/2000/svg"><defs
     id="defs1" /><g
     id="layer1"><g
       id="g1"
       transform="matrix(0.26458333,0,0,0.26458333,8.6698494,5.1383917)"><g
         id="g2"
         transform="matrix(3.7795276,0,0,3.7795276,100.36874,62.592564)"><text
           x="-27.983288"
           y="1.8357941"
           stroke="none"
           fill="#000000"
           font-style="normal"
           font-weight="bold"
           font-size="10px"
           font-family="Helvetica"
           id="text4"
           style="stroke-width:0.05">What’s</text><text
           x="7.2071123"
           y="1.8357941"
           stroke="none"
           fill="#000000"
           font-style="normal"
           font-weight="bold"
           font-size="10px"
           font-family="Helvetica"
           id="text5"
           style="stroke-width:0.05">the</text><text
           x="24.985413"
           y="1.8357941"
           stroke="none"
           fill="#000000"
           font-style="normal"
           font-weight="bold"
           font-size="10px"
           font-family="Helvetica"
           id="text6"
           style="stroke-width:0.05">name</text><text
           x="0"
           y="0"
           stroke="none"
           fill="#000000"
           transform="matrix(0.05,0,0,0.05,10.658,31.1563)"
           font-style="normal"
           font-weight="bold"
           font-size="200px"
           font-family="Helvetica"
           id="text7" /><text
           x="0"
           y="0"
           stroke="none"
           fill="#000000"
           transform="matrix(0.05,0,0,0.05,13.4363,31.1563)"
           font-style="normal"
           font-weight="bold"
           font-size="200px"
           font-family="Helvetica"
           id="text8" /><text
           x="0"
           y="0"
           stroke="none"
           fill="#000000"
           transform="matrix(0.05,0,0,0.05,16.2146,31.1563)"
           font-style="normal"
           font-weight="bold"
           font-size="200px"
           font-family="Helvetica"
           id="text9" /><text
           x="-19.648289"
           y="12.344094"
           stroke="none"
           fill="#000000"
           font-style="normal"
           font-weight="bold"
           font-size="10px"
           font-family="Helvetica"
           id="text10"
           style="stroke-width:0.05">of</text><text
           x="-7.431488"
           y="12.344094"
           stroke="none"
           fill="#000000"
           font-style="normal"
           font-weight="bold"
           font-size="10px"
           font-family="Helvetica"
           id="text11"
           style="stroke-width:0.05">the</text><text
           x="10.346812"
           y="12.344094"
           stroke="none"
           fill="#0000ff"
           font-style="normal"
           font-weight="bold"
           font-size="10px"
           font-family="Helvetica"
           id="text12"
           style="stroke-width:0.05;fill:#ff0000;fill-opacity:1">red</text><text
           x="0"
           y="0"
           stroke="none"
           fill="#000000"
           transform="matrix(0.05,0,0,0.05,69.5447,31.1563)"
           font-style="normal"
           font-weight="bold"
           font-size="200px"
           font-family="Helvetica"
           id="text13" /><text
           x="29.681713"
           y="12.344094"
           stroke="none"
           fill="#000000"
           font-style="normal"
           font-weight="bold"
           font-size="10px"
           font-family="Helvetica"
           id="text14"
           style="stroke-width:0.05">portion</text><text
           x="-8.4226131"
           y="23.021292"
           stroke="none"
           fill="#000000"
           font-style="normal"
           font-weight="bold"
           font-size="10px"
           font-family="Helvetica"
           id="text15"
           style="stroke-width:0.05">of</text><text
           x="3.7943823"
           y="23.021292"
           stroke="none"
           fill="#000000"
           font-style="normal"
           font-weight="bold"
           font-size="10px"
           font-family="Helvetica"
           id="text16"
           style="stroke-width:0.05">the</text><text
           x="21.572382"
           y="23.021292"
           stroke="none"
           fill="#000000"
           font-style="normal"
           font-weight="bold"
           font-size="10px"
           font-family="Helvetica"
           id="text17"
           style="stroke-width:0.05">molecule?</text><g
           id="g4"
           transform="translate(16.345696,35.016882)"><path
             stroke="none"
             fill="#ff0000"
             transform="matrix(0.05,0,0,0.05,-53,-18)"
             d="m 1887.67,571.245 22.21,-12.827 v 311.378 l -22.21,-12.827 z"
             id="path1" /><path
             stroke="none"
             fill="#ff0000"
             transform="matrix(0.05,0,0,0.05,-53,-18)"
             d="m 1640.22,428.383 v -25.654 l 269.66,155.689 -22.21,12.827 z"
             id="path2" /><path
             stroke="none"
             fill="#ff0000"
             transform="matrix(0.05,0,0,0.05,-53,-18)"
             d="m 1634.68,489.726 11.09,-19.205 202.63,116.992 -11.08,19.205 z"
             id="path3" /><path
             stroke="none"
             fill="#ff0000"
             transform="matrix(0.05,0,0,0.05,-53,-18)"
             d="m 1392.78,571.245 -22.22,-12.827 269.66,-155.689 v 25.654 z"
             id="path4" /><path
             stroke="none"
             fill="#ff0000"
             transform="matrix(0.05,0,0,0.05,-53,-18)"
             d="m 1392.78,856.969 -22.22,12.827 V 558.418 l 22.22,12.827 z"
             id="path5" /><path
             stroke="none"
             fill="#ff0000"
             transform="matrix(0.05,0,0,0.05,-53,-18)"
             d="M 1448.68,831.099 H 1426.5 V 597.115 h 22.18 z"
             id="path6" /><path
             stroke="none"
             fill="#ff0000"
             transform="matrix(0.05,0,0,0.05,-53,-18)"
             d="m 1640.22,999.831 v 12.279 l -10.63,6.14 -259.03,-148.454 22.22,-12.827 z"
             id="path7" /><path
             stroke="none"
             fill="#ff0000"
             transform="matrix(0.05,0,0,0.05,-53,-18)"
             d="m 1650.85,1018.25 -10.63,-6.14 v -12.279 l 247.45,-142.862 22.21,12.827 z"
             id="path8" /><path
             stroke="none"
             fill="#ff0000"
             transform="matrix(0.05,0,0,0.05,-53,-18)"
             d="m 1645.77,957.693 -11.09,-19.204 202.64,-116.992 11.08,19.205 z"
             id="path9" /><path
             stroke="none"
             fill="#ff0000"
             transform="matrix(0.05,0,0,0.05,-53,-18)"
             d="m 1651.83,1317.05 -22.26,-12.79 0.02,-286.01 10.63,-6.14 10.63,6.14 z"
             id="path10" /><path
             stroke="none"
             fill="#000000"
             transform="matrix(0.05,0,0,0.05,-53,-18)"
             d="m 1629.57,1304.26 22.26,12.79 -180.45,103.34 -11.09,-19.2 z"
             id="path11" /><text
             x="0"
             y="0"
             stroke="none"
             fill="#000000"
             transform="matrix(0.05,0,0,0.05,12.6071,58.1941)"
             font-style="normal"
             font-weight="bold"
             font-size="180px"
             font-family="Helvetica"
             id="text11-8">O</text><path
             stroke="none"
             fill="#000000"
             transform="matrix(0.05,0,0,0.05,-53,-18)"
             d="m 1371.06,1559.59 h 22.18 l -0.71,191.21 -10.38,6.31 -10.38,-6.31 z"
             id="path12" /><path
             stroke="none"
             fill="#000000"
             transform="matrix(0.05,0,0,0.05,-53,-18)"
             d="m 1371.77,1750.8 10.38,6.31 v 12.27 l -252.53,146.33 -11.09,-19.21 z"
             id="path13" /><path
             stroke="none"
             fill="#000000"
             transform="matrix(0.05,0,0,0.05,-53,-18)"
             d="m 1645.77,1896.5 -11.09,19.21 -252.53,-146.33 v -12.27 l 10.38,-6.31 z"
             id="path14" /></g></g></g></g></svg>
