<?xml version="1.0" encoding="UTF-8" standalone="no"?>
<!-- Created with Inkscape (http://www.inkscape.org/) -->

<svg
   width="300"
   height="300"
   viewBox="0 0 150 150"
   version="1.1"
   id="svg1"
   xml:space="preserve"
   xmlns="http://www.w3.org/2000/svg"
   xmlns:svg="http://www.w3.org/2000/svg"><defs
     id="defs1" /><g
     id="layer1"><g
       id="g1"
       transform="matrix(0.26458333,0,0,0.26458333,8.6698494,5.1383917)"><g
         id="g2"
         transform="matrix(3.7795276,0,0,3.7795276,100.36874,62.592564)"><text
           x="-27.983288"
           y="1.8357941"
           stroke="none"
           fill="#000000"
           font-style="normal"
           font-weight="bold"
           font-size="10px"
           font-family="Helvetica"
           id="text4"
           style="stroke-width:0.05">What’s</text><text
           x="7.2071123"
           y="1.8357941"
           stroke="none"
           fill="#000000"
           font-style="normal"
           font-weight="bold"
           font-size="10px"
           font-family="Helvetica"
           id="text5"
           style="stroke-width:0.05">the</text><text
           x="24.985413"
           y="1.8357941"
           stroke="none"
           fill="#000000"
           font-style="normal"
           font-weight="bold"
           font-size="10px"
           font-family="Helvetica"
           id="text6"
           style="stroke-width:0.05">name</text><text
           x="0"
           y="0"
           stroke="none"
           fill="#000000"
           transform="matrix(0.05,0,0,0.05,10.658,31.1563)"
           font-style="normal"
           font-weight="bold"
           font-size="200px"
           font-family="Helvetica"
           id="text7" /><text
           x="0"
           y="0"
           stroke="none"
           fill="#000000"
           transform="matrix(0.05,0,0,0.05,13.4363,31.1563)"
           font-style="normal"
           font-weight="bold"
           font-size="200px"
           font-family="Helvetica"
           id="text8" /><text
           x="0"
           y="0"
           stroke="none"
           fill="#000000"
           transform="matrix(0.05,0,0,0.05,16.2146,31.1563)"
           font-style="normal"
           font-weight="bold"
           font-size="200px"
           font-family="Helvetica"
           id="text9" /><text
           x="-19.648289"
           y="12.344094"
           stroke="none"
           fill="#000000"
           font-style="normal"
           font-weight="bold"
           font-size="10px"
           font-family="Helvetica"
           id="text10"
           style="stroke-width:0.05">of</text><text
           x="-7.431488"
           y="12.344094"
           stroke="none"
           fill="#000000"
           font-style="normal"
           font-weight="bold"
           font-size="10px"
           font-family="Helvetica"
           id="text11"
           style="stroke-width:0.05">the</text><text
           x="10.346812"
           y="12.344094"
           stroke="none"
           fill="#0000ff"
           font-style="normal"
           font-weight="bold"
           font-size="10px"
           font-family="Helvetica"
           id="text12"
           style="stroke-width:0.05;fill:#ff0000;fill-opacity:1">red</text><text
           x="0"
           y="0"
           stroke="none"
           fill="#000000"
           transform="matrix(0.05,0,0,0.05,69.5447,31.1563)"
           font-style="normal"
           font-weight="bold"
           font-size="200px"
           font-family="Helvetica"
           id="text13" /><text
           x="29.681713"
           y="12.344094"
           stroke="none"
           fill="#000000"
           font-style="normal"
           font-weight="bold"
           font-size="10px"
           font-family="Helvetica"
           id="text14"
           style="stroke-width:0.05">portion</text><text
           x="-8.4226131"
           y="23.021292"
           stroke="none"
           fill="#000000"
           font-style="normal"
           font-weight="bold"
           font-size="10px"
           font-family="Helvetica"
           id="text15"
           style="stroke-width:0.05">of</text><text
           x="3.7943823"
           y="23.021292"
           stroke="none"
           fill="#000000"
           font-style="normal"
           font-weight="bold"
           font-size="10px"
           font-family="Helvetica"
           id="text16"
           style="stroke-width:0.05">the</text><text
           x="21.572382"
           y="23.021292"
           stroke="none"
           fill="#000000"
           font-style="normal"
           font-weight="bold"
           font-size="10px"
           font-family="Helvetica"
           id="text17"
           style="stroke-width:0.05">molecule?</text><g
           id="g4"
           transform="translate(14.129643,43.817944)"><path
             stroke="none"
             fill="#000000"
             transform="matrix(0.05,0,0,0.05,-75,-14)"
             d="m 2012.17,543.793 -22.26,12.792 -169.2,-96.883 11.09,-19.205 z"
             id="path1" /><text
             x="0"
             y="0"
             stroke="none"
             fill="#000000"
             transform="matrix(0.05,0,0,0.05,2.08128,9.30049)"
             font-style="normal"
             font-weight="bold"
             font-size="180px"
             font-family="Helvetica"
             id="text1">HO</text><path
             stroke="none"
             fill="#000000"
             transform="matrix(0.05,0,0,0.05,-75,-14)"
             d="m 1978.39,544.333 -11.09,-19.205 188.47,-108.815 11.09,19.205 z"
             id="path2" /><path
             stroke="none"
             fill="#000000"
             transform="matrix(0.05,0,0,0.05,-75,-14)"
             d="m 2006.11,592.345 -11.09,-19.205 188.47,-108.815 11.09,19.205 z"
             id="path3" /><text
             x="0"
             y="0"
             stroke="none"
             fill="#000000"
             transform="matrix(0.05,0,0,0.05,34.475,9.30049)"
             font-style="normal"
             font-weight="bold"
             font-size="180px"
             font-family="Helvetica"
             id="text3">O</text><path
             stroke="none"
             fill="#000000"
             transform="matrix(0.05,0,0,0.05,-75,-14)"
             d="m 2011.19,843.596 -10.63,6.138 -10.63,-6.138 -0.02,-287.011 22.26,-12.792 z"
             id="path4" /><path
             stroke="none"
             fill="#ff0000"
             transform="matrix(0.05,0,0,0.05,-75,-14)"
             d="m 2248.87,1005.37 22.22,-12.824 v 312.374 l -22.22,-12.82 z"
             id="path5" /><path
             stroke="none"
             fill="#ff0000"
             transform="matrix(0.05,0,0,0.05,-75,-14)"
             d="m 2000.56,862.012 v -12.278 l 10.63,-6.138 259.9,148.95 -22.22,12.824 z"
             id="path6" /><path
             stroke="none"
             fill="#ff0000"
             transform="matrix(0.05,0,0,0.05,-75,-14)"
             d="m 1752.25,1005.37 -22.21,-12.824 259.89,-148.95 10.63,6.138 v 12.278 z"
             id="path7" /><path
             stroke="none"
             fill="#ff0000"
             transform="matrix(0.05,0,0,0.05,-75,-14)"
             d="m 1752.25,1292.1 -22.21,12.82 V 992.546 l 22.21,12.824 z"
             id="path8" /><path
             stroke="none"
             fill="#ff0000"
             transform="matrix(0.05,0,0,0.05,-75,-14)"
             d="m 2000.56,1435.46 v 25.65 l -270.52,-156.19 22.21,-12.82 z"
             id="path9" /><path
             stroke="none"
             fill="#ff0000"
             transform="matrix(0.05,0,0,0.05,-75,-14)"
             d="m 2248.87,1292.1 22.22,12.82 -270.53,156.19 v -25.65 z"
             id="path10" /></g></g></g></g></svg>
