<?xml version="1.0" standalone="no" ?><!DOCTYPE svg PUBLIC "-//W3C//DTD SVG 1.1//EN" "http://www.w3.org/Graphics/SVG/1.1/DTD/svg11.dtd"><svg width="46px" height="60px" viewBox="0 0 46 60" style="background-color: #ffffff00" xmlns="http://www.w3.org/2000/svg" xmlns:xlink="http://www.w3.org/1999/xlink" version="1.1" ><path stroke="none" fill="#000000" transform="matrix(0.05 0 0 0.05 -23 -36)" d="M 804.744,1834.44 L 793.656,1815.24 L 1047.96,1668.94 L 1058.59,1675.08 L 1058.59,1687.36 L 804.744,1834.44 Z " /><path stroke="none" fill="#000000" transform="matrix(0.05 0 0 0.05 -23 -36)" d="M 1058.59,1687.36 L 1058.59,1675.08 L 1069.23,1668.94 L 1323.53,1815.24 L 1312.44,1834.44 L 1058.59,1687.36 Z " /><path stroke="none" fill="#000000" transform="matrix(0.05 0 0 0.05 -23 -36)" d="M 1069.23,1668.94 L 1058.59,1675.08 L 1047.96,1668.94 L 1047.96,1381.7 L 1058.59,1375.56 L 1069.23,1381.7 L 1069.23,1668.94 Z " /><path stroke="none" fill="#000000" transform="matrix(0.05 0 0 0.05 -23 -36)" d="M 1069.23,1381.7 L 1058.59,1375.56 L 1058.59,1363.28 L 1307.35,1219.66 L 1329.57,1232.49 L 1069.23,1381.7 Z " /><path stroke="none" fill="#000000" transform="matrix(0.05 0 0 0.05 -23 -36)" d="M 1329.57,1232.49 L 1307.35,1219.66 L 1307.35,932.419 L 1329.57,919.592 L 1329.57,1232.49 Z " /><path stroke="none" fill="#000000" transform="matrix(0.05 0 0 0.05 -23 -36)" d="M 1329.57,919.592 L 1307.35,932.419 L 1058.59,788.798 L 1058.59,763.145 L 1329.57,919.592 Z " /><path stroke="none" fill="#000000" transform="matrix(0.05 0 0 0.05 -23 -36)" d="M 1058.59,763.145 L 1058.59,788.798 L 809.833,932.419 L 787.617,919.592 L 1058.59,763.145 Z " /><path stroke="none" fill="#000000" transform="matrix(0.05 0 0 0.05 -23 -36)" d="M 787.617,919.592 L 809.833,932.419 L 809.833,1219.66 L 787.617,1232.49 L 787.617,919.592 Z " /><path stroke="none" fill="#000000" transform="matrix(0.05 0 0 0.05 -23 -36)" d="M 787.617,1232.49 L 809.833,1219.66 L 1058.59,1363.28 L 1058.59,1375.56 L 1047.96,1381.7 L 787.617,1232.49 Z " /><path stroke="none" fill="#000000" transform="matrix(0.05 0 0 0.05 -23 -36)" d="M 614.83,1835.84 L 519.48,1835.84 L 519.48,1813.84 L 614.83,1813.84 Z " /><path stroke="none" fill="#000000" transform="matrix(0.05 0 0 0.05 -23 -36)" d="M 745.92,1824.84 C 745.92,1824.84 594.96,1863.58 594.96,1863.58 C 594.96,1863.58 613.83,1841.79 613.83,1824.84 C 613.83,1807.45 594.96,1785.1 594.96,1785.1 C 594.96,1785.1 745.92,1824.84 745.92,1824.84 C 745.92,1824.84 745.92,1824.84 745.92,1824.84 " /><path stroke="#000000" stroke-width="1" fill="none" transform="matrix(0.05 0 0 0.05 -23 -36)" d="M 745.92,1824.84 C 745.92,1824.84 594.96,1863.58 594.96,1863.58 C 594.96,1863.58 613.83,1841.79 613.83,1824.84 C 613.83,1807.45 594.96,1785.1 594.96,1785.1 C 594.96,1785.1 745.92,1824.84 745.92,1824.84 C 745.92,1824.84 745.92,1824.84 745.92,1824.84 " /></svg>