<?xml version="1.0" standalone="no" ?><!DOCTYPE svg PUBLIC "-//W3C//DTD SVG 1.1//EN" "http://www.w3.org/Graphics/SVG/1.1/DTD/svg11.dtd"><svg width="37px" height="46px" viewBox="0 0 37 46" style="background-color: #ffffff00" xmlns="http://www.w3.org/2000/svg" xmlns:xlink="http://www.w3.org/1999/xlink" version="1.1" ><path stroke="none" fill="#000000" transform="matrix(0.05 0 0 0.05 -90 -43)" d="M 1940.49,1001.25 L 1962.73,1017.4 L 1962.73,1301.12 L 1940.49,1317.28 L 1940.49,1001.25 Z " /><path stroke="none" fill="#000000" transform="matrix(0.05 0 0 0.05 -90 -43)" d="M 1940.49,1317.28 L 1962.73,1301.12 L 2232.55,1388.79 L 2236.57,1401.16 L 2231.81,1411.15 L 1940.49,1317.28 Z " /><path stroke="none" fill="#000000" transform="matrix(0.05 0 0 0.05 -90 -43)" d="M 2250.1,1400.32 L 2236.57,1401.16 L 2232.55,1388.79 L 2399.32,1159.26 L 2426.81,1159.26 L 2250.1,1400.32 Z " /><path stroke="none" fill="#000000" transform="matrix(0.05 0 0 0.05 -90 -43)" d="M 2426.81,1159.26 L 2399.32,1159.26 L 2232.55,929.733 L 2241.05,903.587 L 2426.81,1159.26 Z " /><path stroke="none" fill="#000000" transform="matrix(0.05 0 0 0.05 -90 -43)" d="M 2241.05,903.587 L 2232.55,929.733 L 1962.73,1017.4 L 1940.49,1001.25 L 2241.05,903.587 Z " /><path stroke="none" fill="#000000" transform="matrix(0.05 0 0 0.05 -90 -43)" d="M 2231.81,1411.15 L 2236.57,1401.16 L 2250.1,1400.32 L 2481.18,1576.35 L 2436.37,1626.11 L 2231.81,1411.15 Z " /><path stroke="none" fill="#000000" transform="matrix(0.05 0 0 0.05 -90 -43)" d="M 2214.61,1451.14 L 2236.3,1455.75 L 2233.67,1477.86 L 2208.02,1472.41 L 2214.61,1451.14 Z " /><path stroke="none" fill="#000000" transform="matrix(0.05 0 0 0.05 -90 -43)" d="M 2198.02,1504.7 L 2229.68,1511.43 L 2227.04,1533.54 L 2191.43,1525.97 L 2198.02,1504.7 Z " /><path stroke="none" fill="#000000" transform="matrix(0.05 0 0 0.05 -90 -43)" d="M 2181.43,1558.27 L 2223.05,1567.11 L 2220.41,1589.22 L 2174.84,1579.54 L 2181.43,1558.27 Z " /><path stroke="none" fill="#000000" transform="matrix(0.05 0 0 0.05 -90 -43)" d="M 2164.84,1611.83 L 2216.42,1622.79 L 2213.78,1644.9 L 2158.25,1633.1 L 2164.84,1611.83 Z " /><path stroke="none" fill="#000000" transform="matrix(0.05 0 0 0.05 -90 -43)" d="M 2148.25,1665.39 L 2209.79,1678.47 L 2207.16,1700.58 L 2141.66,1686.66 L 2148.25,1665.39 Z " /><path stroke="none" fill="#000000" transform="matrix(0.05 0 0 0.05 -90 -43)" d="M 1946.83,1702.64 L 1851.48,1702.64 L 1851.48,1680.64 L 1946.83,1680.64 Z " /><path stroke="none" fill="#000000" transform="matrix(0.05 0 0 0.05 -90 -43)" d="M 2077.92,1691.64 C 2077.92,1691.64 1926.96,1730.38 1926.96,1730.38 C 1926.96,1730.38 1945.83,1708.59 1945.83,1691.64 C 1945.83,1674.25 1926.96,1651.9 1926.96,1651.9 C 1926.96,1651.9 2077.92,1691.64 2077.92,1691.64 C 2077.92,1691.64 2077.92,1691.64 2077.92,1691.64 " /><path stroke="#000000" stroke-width="1" fill="none" transform="matrix(0.05 0 0 0.05 -90 -43)" d="M 2077.92,1691.64 C 2077.92,1691.64 1926.96,1730.38 1926.96,1730.38 C 1926.96,1730.38 1945.83,1708.59 1945.83,1691.64 C 1945.83,1674.25 1926.96,1651.9 1926.96,1651.9 C 1926.96,1651.9 2077.92,1691.64 2077.92,1691.64 C 2077.92,1691.64 2077.92,1691.64 2077.92,1691.64 " /></svg>