<?xml version="1.0" standalone="no" ?><!DOCTYPE svg PUBLIC "-//W3C//DTD SVG 1.1//EN" "http://www.w3.org/Graphics/SVG/1.1/DTD/svg11.dtd"><svg width="63px" height="53px" viewBox="0 0 63 53" style="background-color: #ffffff00" xmlns="http://www.w3.org/2000/svg" xmlns:xlink="http://www.w3.org/1999/xlink" version="1.1" ><path stroke="none" fill="#000000" transform="matrix(0.05 0 0 0.05 -137 -41)" d="M 3386.59,1062.92 L 3408.77,1062.92 L 3408.77,1394.44 L 3386.59,1394.44 L 3386.59,1062.92 Z " /><path stroke="none" fill="#000000" transform="matrix(0.05 0 0 0.05 -137 -41)" d="M 3331.15,1062.92 L 3353.33,1062.92 L 3353.33,1394.44 L 3331.15,1394.44 L 3331.15,1062.92 Z " /><path stroke="none" fill="#000000" transform="matrix(0.05 0 0 0.05 -137 -41)" d="M 3369.96,1066.64 L 3369.96,1092.29 L 3105.02,938.762 L 3116.11,919.557 L 3369.96,1066.64 Z " /><path stroke="none" fill="#000000" transform="matrix(0.05 0 0 0.05 -137 -41)" d="M 3369.96,1092.29 L 3369.96,1066.64 L 3623.81,919.557 L 3634.9,938.762 L 3369.96,1092.29 Z " /><path stroke="none" fill="#000000" transform="matrix(0.05 0 0 0.05 -137 -41)" d="M 3369.96,1390.72 L 3369.96,1365.06 L 3640.93,1521.51 L 3618.72,1534.34 L 3369.96,1390.72 Z " /><path stroke="none" fill="#000000" transform="matrix(0.05 0 0 0.05 -137 -41)" d="M 3369.96,1365.06 L 3369.96,1390.72 L 3110.57,1541.57 L 3110.57,1515.92 L 3369.96,1365.06 Z " /><text x="0" y="0" stroke="none" fill="#000000" transform="matrix(0.05 0 0 0.05 53.9369 31.1608)" font-style="normal" font-weight="bold" font-size="180px" font-family="Helvetica" >O</text><path stroke="none" fill="#000000" transform="matrix(0.05 0 0 0.05 -137 -41)" d="M 3607.18,1521.8 L 3596.09,1502.59 L 3785.01,1393.52 L 3796.1,1412.72 L 3607.18,1521.8 Z " /><path stroke="none" fill="#000000" transform="matrix(0.05 0 0 0.05 -137 -41)" d="M 3634.9,1569.81 L 3623.81,1550.61 L 3812.73,1441.53 L 3823.82,1460.74 L 3634.9,1569.81 Z " /><path stroke="none" fill="#000000" transform="matrix(0.05 0 0 0.05 -137 -41)" d="M 3618.72,1534.34 L 3640.93,1521.51 L 3640.44,1827.72 L 3618.26,1827.72 L 3618.72,1534.34 Z " /><path stroke="none" fill="#000000" transform="matrix(0.05 0 0 0.05 -137 -41)" d="M 3110.57,1515.92 L 3110.57,1541.57 L 2845.63,1388.04 L 2856.72,1368.84 L 3110.57,1515.92 Z " /><path stroke="none" fill="#000000" transform="matrix(0.05 0 0 0.05 -137 -41)" d="M 2879.23,930.08 L 2783.88,930.08 L 2783.88,908.08 L 2879.23,908.08 Z " /><path stroke="none" fill="#000000" transform="matrix(0.05 0 0 0.05 -137 -41)" d="M 3010.32,919.08 C 3010.32,919.08 2859.36,957.82 2859.36,957.82 C 2859.36,957.82 2878.23,936.028 2878.23,919.08 C 2878.23,901.693 2859.36,879.34 2859.36,879.34 C 2859.36,879.34 3010.32,919.08 3010.32,919.08 C 3010.32,919.08 3010.32,919.08 3010.32,919.08 " /><path stroke="#000000" stroke-width="1" fill="none" transform="matrix(0.05 0 0 0.05 -137 -41)" d="M 3010.32,919.08 C 3010.32,919.08 2859.36,957.82 2859.36,957.82 C 2859.36,957.82 2878.23,936.028 2878.23,919.08 C 2878.23,901.693 2859.36,879.34 2859.36,879.34 C 2859.36,879.34 3010.32,919.08 3010.32,919.08 C 3010.32,919.08 3010.32,919.08 3010.32,919.08 " /></svg>