<?xml version="1.0" standalone="no" ?><!DOCTYPE svg PUBLIC "-//W3C//DTD SVG 1.1//EN" "http://www.w3.org/Graphics/SVG/1.1/DTD/svg11.dtd"><svg width="74px" height="61px" viewBox="0 0 74 61" style="background-color: #ffffff00" xmlns="http://www.w3.org/2000/svg" xmlns:xlink="http://www.w3.org/1999/xlink" version="1.1" ><path stroke="none" fill="#000000" transform="matrix(0.05 0 0 0.05 -207 -38)" d="M 4457.62,1468.59 L 4479.84,1481.42 L 4479.84,1768.66 L 4457.62,1781.49 L 4457.62,1468.59 Z " /><path stroke="none" fill="#000000" transform="matrix(0.05 0 0 0.05 -207 -38)" d="M 4513.56,1507.29 L 4535.74,1507.29 L 4535.74,1742.79 L 4513.56,1742.79 L 4513.56,1507.29 Z " /><path stroke="none" fill="#000000" transform="matrix(0.05 0 0 0.05 -207 -38)" d="M 4457.62,1781.49 L 4479.84,1768.66 L 4728.6,1912.28 L 4728.6,1937.93 L 4457.62,1781.49 Z " /><path stroke="none" fill="#000000" transform="matrix(0.05 0 0 0.05 -207 -38)" d="M 4728.6,1937.93 L 4728.6,1912.28 L 4977.36,1768.66 L 4999.57,1781.49 L 4728.6,1937.93 Z " /><path stroke="none" fill="#000000" transform="matrix(0.05 0 0 0.05 -207 -38)" d="M 4734.14,1870.15 L 4723.06,1850.94 L 4927.01,1733.19 L 4938.1,1752.39 L 4734.14,1870.15 Z " /><path stroke="none" fill="#000000" transform="matrix(0.05 0 0 0.05 -207 -38)" d="M 4999.57,1781.49 L 4977.36,1768.66 L 4977.36,1481.42 L 4987.99,1475.28 L 4998.65,1481.15 L 4999.57,1781.49 Z " /><path stroke="none" fill="#000000" transform="matrix(0.05 0 0 0.05 -207 -38)" d="M 4988.24,1463.12 L 4987.99,1475.28 L 4977.36,1481.42 L 4728.6,1337.8 L 4728.6,1325.52 L 4738.98,1319.21 L 4988.24,1463.12 Z " /><path stroke="none" fill="#000000" transform="matrix(0.05 0 0 0.05 -207 -38)" d="M 4938.1,1497.69 L 4927.01,1516.89 L 4723.06,1399.14 L 4734.14,1379.93 L 4938.1,1497.69 Z " /><path stroke="none" fill="#000000" transform="matrix(0.05 0 0 0.05 -207 -38)" d="M 4718.21,1319.21 L 4728.6,1325.52 L 4728.6,1337.8 L 4479.84,1481.42 L 4457.62,1468.59 L 4718.21,1319.21 Z " /><text x="0" y="0" stroke="none" fill="#000000" transform="matrix(0.05 0 0 0.05 25.9297 16.5388)" font-style="normal" font-weight="bold" font-size="180px" font-family="Helvetica" >O</text><path stroke="none" fill="#000000" transform="matrix(0.05 0 0 0.05 -207 -38)" d="M 4738.98,1319.21 L 4728.6,1325.52 L 4718.21,1319.21 L 4717.51,1126.49 L 4739.69,1126.49 L 4738.98,1319.21 Z " /><path stroke="none" fill="#000000" transform="matrix(0.05 0 0 0.05 -207 -38)" d="M 4651.01,968.401 L 4639.92,987.606 L 4463.66,885.842 L 4474.75,866.637 L 4651.01,968.401 Z " /><text x="0" y="0" stroke="none" fill="#000000" transform="matrix(0.05 0 0 0.05 52.1194 31.5148)" font-style="normal" font-weight="bold" font-size="180px" font-family="Helvetica" >C</text><path stroke="none" fill="#000000" transform="matrix(0.05 0 0 0.05 -207 -38)" d="M 4998.65,1481.15 L 4987.99,1475.28 L 4988.24,1463.12 L 5160.35,1362.96 L 5171.44,1382.17 L 4998.65,1481.15 Z " /><text x="0" y="0" stroke="none" fill="#000000" transform="matrix(0.05 0 0 0.05 65.089 24.0268)" font-style="normal" font-weight="bold" font-size="180px" font-family="Helvetica" >N</text><path stroke="none" fill="#000000" transform="matrix(0.05 0 0 0.05 -207 -38)" d="M 5308.22,1239.18 L 5297.13,1219.98 L 5378.79,1172.83 L 5389.88,1192.04 L 5308.22,1239.18 Z " /><path stroke="none" fill="#000000" transform="matrix(0.05 0 0 0.05 -207 -38)" d="M 5335.94,1287.2 L 5324.85,1267.99 L 5406.51,1220.85 L 5417.6,1240.05 L 5335.94,1287.2 Z " /><path stroke="none" fill="#000000" transform="matrix(0.05 0 0 0.05 -207 -38)" d="M 5363.66,1335.21 L 5352.57,1316 L 5434.23,1268.86 L 5445.32,1288.06 L 5363.66,1335.21 Z " /><path stroke="none" fill="#000000" transform="matrix(0.05 0 0 0.05 -207 -38)" d="M 4277.83,863.48 L 4182.48,863.48 L 4182.48,841.48 L 4277.83,841.48 Z " /><path stroke="none" fill="#000000" transform="matrix(0.05 0 0 0.05 -207 -38)" d="M 4408.92,852.48 C 4408.92,852.48 4257.96,891.22 4257.96,891.22 C 4257.96,891.22 4276.83,869.428 4276.83,852.48 C 4276.83,835.093 4257.96,812.74 4257.96,812.74 C 4257.96,812.74 4408.92,852.48 4408.92,852.48 C 4408.92,852.48 4408.92,852.48 4408.92,852.48 " /><path stroke="#000000" stroke-width="1" fill="none" transform="matrix(0.05 0 0 0.05 -207 -38)" d="M 4408.92,852.48 C 4408.92,852.48 4257.96,891.22 4257.96,891.22 C 4257.96,891.22 4276.83,869.428 4276.83,852.48 C 4276.83,835.093 4257.96,812.74 4257.96,812.74 C 4257.96,812.74 4408.92,852.48 4408.92,852.48 C 4408.92,852.48 4408.92,852.48 4408.92,852.48 " /></svg>