<?xml version="1.0" standalone="no" ?><!DOCTYPE svg PUBLIC "-//W3C//DTD SVG 1.1//EN" "http://www.w3.org/Graphics/SVG/1.1/DTD/svg11.dtd"><svg width="80px" height="33px" viewBox="0 0 80 33" style="background-color: #ffffff00" xmlns="http://www.w3.org/2000/svg" xmlns:xlink="http://www.w3.org/1999/xlink" version="1.1" ><text x="0" y="0" stroke="none" fill="#000000" transform="matrix(0.05 0 0 0.05 55.0925 9.04269)" font-style="normal" font-weight="bold" font-size="180px" font-family="Helvetica" >O</text><path stroke="none" fill="#000000" transform="matrix(0.05 0 0 0.05 -283 -49)" d="M 6248.82,1099.37 L 6252.6,1085.27 L 6272.45,1100.96 L 6407.18,1332.02 L 6396.4,1357.84 L 6248.82,1099.37 Z " /><path stroke="none" fill="#000000" transform="matrix(0.05 0 0 0.05 -283 -49)" d="M 6396.4,1357.84 L 6407.18,1332.02 L 6691.47,1256.69 L 6691.21,1279.69 L 6396.4,1357.84 Z " /><path stroke="none" fill="#000000" transform="matrix(0.05 0 0 0.05 -283 -49)" d="M 6691.21,1279.69 L 6691.47,1256.69 L 6960.25,1335.48 L 7009.71,1373.77 L 6691.21,1279.69 Z " /><path stroke="none" fill="#000000" transform="matrix(0.05 0 0 0.05 -283 -49)" d="M 7009.71,1373.77 L 6960.25,1335.48 L 6873.16,1189.8 L 6892.37,1178.71 L 7009.71,1373.77 Z " /><path stroke="none" fill="#000000" transform="matrix(0.05 0 0 0.05 -283 -49)" d="M 6737.58,1109.3 L 6743.2,1130.76 L 6542.55,1183.64 L 6543.08,1160.61 L 6737.58,1109.3 Z " /><path stroke="none" fill="#000000" transform="matrix(0.05 0 0 0.05 -283 -49)" d="M 6543.08,1160.61 L 6542.55,1183.64 L 6272.45,1100.96 L 6252.6,1085.27 L 6251.15,1072.88 L 6543.08,1160.61 Z " /><path stroke="none" fill="#000000" transform="matrix(0.05 0 0 0.05 -283 -49)" d="M 6251.15,1072.88 L 6252.6,1085.27 L 6248.82,1099.37 L 5998.75,1244.63 L 5987.67,1225.42 L 6251.15,1072.88 Z " /><path stroke="none" fill="#000000" transform="matrix(0.05 0 0 0.05 -283 -49)" d="M 6917.42,1265.7 L 6933.1,1250.02 L 7218.05,1534.97 L 7202.37,1550.65 L 6917.42,1265.7 Z " /><path stroke="none" fill="#000000" transform="matrix(0.05 0 0 0.05 -283 -49)" d="M 6916.07,1342.76 L 6931.75,1327.08 L 7178.84,1574.17 L 7163.16,1589.85 L 6916.07,1342.76 Z " /><path stroke="none" fill="#000000" transform="matrix(0.05 0 0 0.05 -283 -49)" d="M 5809.63,1249.76 L 5714.28,1249.76 L 5714.28,1227.76 L 5809.63,1227.76 Z " /><path stroke="none" fill="#000000" transform="matrix(0.05 0 0 0.05 -283 -49)" d="M 5940.72,1238.76 C 5940.72,1238.76 5789.76,1277.5 5789.76,1277.5 C 5789.76,1277.5 5808.63,1255.71 5808.63,1238.76 C 5808.63,1221.37 5789.76,1199.02 5789.76,1199.02 C 5789.76,1199.02 5940.72,1238.76 5940.72,1238.76 C 5940.72,1238.76 5940.72,1238.76 5940.72,1238.76 " /><path stroke="#000000" stroke-width="1" fill="none" transform="matrix(0.05 0 0 0.05 -283 -49)" d="M 5940.72,1238.76 C 5940.72,1238.76 5789.76,1277.5 5789.76,1277.5 C 5789.76,1277.5 5808.63,1255.71 5808.63,1238.76 C 5808.63,1221.37 5789.76,1199.02 5789.76,1199.02 C 5789.76,1199.02 5940.72,1238.76 5940.72,1238.76 C 5940.72,1238.76 5940.72,1238.76 5940.72,1238.76 " /></svg>