<?xml version="1.0" standalone="no" ?><!DOCTYPE svg PUBLIC "-//W3C//DTD SVG 1.1//EN" "http://www.w3.org/Graphics/SVG/1.1/DTD/svg11.dtd"><svg width="34px" height="37px" viewBox="0 0 34 37" style="background-color: #ffffff00" xmlns="http://www.w3.org/2000/svg" xmlns:xlink="http://www.w3.org/1999/xlink" version="1.1" ><path stroke="none" fill="#000000" transform="matrix(0.05 0 0 0.05 -380 -46)" d="M 7935,1296.85 L 7945.5,1288.8 L 7955.32,1305.82 L 7955.32,1571.3 L 7932.78,1610.35 L 7935,1296.85 Z " /><path stroke="none" fill="#000000" transform="matrix(0.05 0 0 0.05 -380 -46)" d="M 7932.78,1610.35 L 7955.32,1571.3 L 8185.23,1438.56 L 8230.33,1438.56 L 7932.78,1610.35 Z " /><path stroke="none" fill="#000000" transform="matrix(0.05 0 0 0.05 -380 -46)" d="M 8230.33,1438.56 L 8185.23,1438.56 L 7955.32,1305.82 L 7945.5,1288.8 L 7957.71,1283.74 L 8230.33,1438.56 Z " /><path stroke="none" fill="#000000" transform="matrix(0.05 0 0 0.05 -380 -46)" d="M 7938.2,1276.16 L 7945.5,1288.8 L 7935,1296.85 L 7653.31,1221.99 L 7659.05,1200.57 L 7938.2,1276.16 Z " /><path stroke="none" fill="#000000" transform="matrix(0.05 0 0 0.05 -380 -46)" d="M 7957.71,1283.74 L 7945.5,1288.8 L 7938.2,1276.16 L 8012.31,996.616 L 8033.73,1002.36 L 7957.71,1283.74 Z " /><path stroke="none" fill="#000000" transform="matrix(0.05 0 0 0.05 -380 -46)" d="M 7820.95,1023.32 L 7725.6,1023.32 L 7725.6,1001.32 L 7820.95,1001.32 Z " /><path stroke="none" fill="#000000" transform="matrix(0.05 0 0 0.05 -380 -46)" d="M 7952.04,1012.32 C 7952.04,1012.32 7801.08,1051.06 7801.08,1051.06 C 7801.08,1051.06 7819.95,1029.27 7819.95,1012.32 C 7819.95,994.933 7801.08,972.579 7801.08,972.579 C 7801.08,972.579 7952.04,1012.32 7952.04,1012.32 C 7952.04,1012.32 7952.04,1012.32 7952.04,1012.32 " /><path stroke="#000000" stroke-width="1" fill="none" transform="matrix(0.05 0 0 0.05 -380 -46)" d="M 7952.04,1012.32 C 7952.04,1012.32 7801.08,1051.06 7801.08,1051.06 C 7801.08,1051.06 7819.95,1029.27 7819.95,1012.32 C 7819.95,994.933 7801.08,972.579 7801.08,972.579 C 7801.08,972.579 7952.04,1012.32 7952.04,1012.32 C 7952.04,1012.32 7952.04,1012.32 7952.04,1012.32 " /></svg>