<?xml version="1.0" standalone="no" ?><!DOCTYPE svg PUBLIC "-//W3C//DTD SVG 1.1//EN" "http://www.w3.org/Graphics/SVG/1.1/DTD/svg11.dtd"><svg width="70px" height="43px" viewBox="0 0 70 43" style="background-color: #ffffff00" xmlns="http://www.w3.org/2000/svg" xmlns:xlink="http://www.w3.org/1999/xlink" version="1.1" ><path stroke="none" fill="#000000" transform="matrix(0.05 0 0 0.05 -437 -40)" d="M 8796.74,1301.64 L 8785.66,1282.44 L 9050.59,1128.9 L 9050.59,1154.56 L 8796.74,1301.64 Z " /><path stroke="none" fill="#000000" transform="matrix(0.05 0 0 0.05 -437 -40)" d="M 9050.59,1154.56 L 9050.59,1128.9 L 9309.98,1279.76 L 9309.98,1292.04 L 9299.35,1298.18 L 9050.59,1154.56 Z " /><path stroke="none" fill="#000000" transform="matrix(0.05 0 0 0.05 -437 -40)" d="M 9320.62,1298.18 L 9309.98,1292.04 L 9309.98,1279.76 L 9558.74,1136.14 L 9569.38,1142.28 L 9569.38,1154.56 L 9320.62,1298.18 Z " /><path stroke="none" fill="#000000" transform="matrix(0.05 0 0 0.05 -437 -40)" d="M 9569.38,1154.56 L 9569.38,1142.28 L 9580.01,1136.14 L 9828.77,1279.76 L 9828.77,1292.04 L 9818.13,1298.18 L 9569.38,1154.56 Z " /><path stroke="none" fill="#000000" transform="matrix(0.05 0 0 0.05 -437 -40)" d="M 9839.4,1298.18 L 9828.77,1292.04 L 9828.77,1279.76 L 10082.6,1132.68 L 10093.7,1151.88 L 9839.4,1298.18 Z " /><path stroke="none" fill="#000000" transform="matrix(0.05 0 0 0.05 -437 -40)" d="M 9299.35,1298.18 L 9309.98,1292.04 L 9320.62,1298.18 L 9321.07,1591.56 L 9298.9,1591.56 L 9299.35,1298.18 Z " /><path stroke="none" fill="#000000" transform="matrix(0.05 0 0 0.05 -437 -40)" d="M 9580.01,1136.14 L 9569.38,1142.28 L 9558.74,1136.14 L 9558.29,842.76 L 9580.46,842.76 L 9580.01,1136.14 Z " /><path stroke="none" fill="#000000" transform="matrix(0.05 0 0 0.05 -437 -40)" d="M 9818.13,1298.18 L 9828.77,1292.04 L 9839.4,1298.18 L 9839.86,1591.56 L 9817.68,1591.56 L 9818.13,1298.18 Z " /><path stroke="none" fill="#000000" transform="matrix(0.05 0 0 0.05 -437 -40)" d="M 9112.99,1582.76 L 9017.64,1582.76 L 9017.64,1560.76 L 9112.99,1560.76 Z " /><path stroke="none" fill="#000000" transform="matrix(0.05 0 0 0.05 -437 -40)" d="M 9244.08,1571.76 C 9244.08,1571.76 9093.12,1610.5 9093.12,1610.5 C 9093.12,1610.5 9111.99,1588.71 9111.99,1571.76 C 9111.99,1554.37 9093.12,1532.02 9093.12,1532.02 C 9093.12,1532.02 9244.08,1571.76 9244.08,1571.76 C 9244.08,1571.76 9244.08,1571.76 9244.08,1571.76 " /><path stroke="#000000" stroke-width="1" fill="none" transform="matrix(0.05 0 0 0.05 -437 -40)" d="M 9244.08,1571.76 C 9244.08,1571.76 9093.12,1610.5 9093.12,1610.5 C 9093.12,1610.5 9111.99,1588.71 9111.99,1571.76 C 9111.99,1554.37 9093.12,1532.02 9093.12,1532.02 C 9093.12,1532.02 9244.08,1571.76 9244.08,1571.76 C 9244.08,1571.76 9244.08,1571.76 9244.08,1571.76 " /></svg>