<?xml version="1.0" standalone="no" ?><!DOCTYPE svg PUBLIC "-//W3C//DTD SVG 1.1//EN" "http://www.w3.org/Graphics/SVG/1.1/DTD/svg11.dtd"><svg width="28px" height="32px" viewBox="0 0 28 32" style="background-color: #ffffff00" xmlns="http://www.w3.org/2000/svg" xmlns:xlink="http://www.w3.org/1999/xlink" version="1.1" ><text x="0" y="0" stroke="none" fill="#000000" transform="matrix(0.05 0 0 0.05 14.5262 18.5068)" font-style="normal" font-weight="bold" font-size="180px" font-family="Helvetica" >N</text><path stroke="none" fill="#000000" transform="matrix(0.05 0 0 0.05 -530 -50)" d="M 10656,1316.45 L 10656,1294.27 L 10872.6,1294.27 L 10872.6,1316.45 L 10656,1316.45 Z " /><path stroke="none" fill="#000000" transform="matrix(0.05 0 0 0.05 -530 -50)" d="M 11002.2,1408.33 L 11021.4,1397.24 L 11114.9,1559.21 L 11095.7,1570.3 L 11002.2,1408.33 Z " /><path stroke="none" fill="#000000" transform="matrix(0.05 0 0 0.05 -530 -50)" d="M 11022,1212.31 L 11002.8,1201.23 L 11095.7,1040.42 L 11114.9,1051.51 L 11022,1212.31 Z " /><path stroke="none" fill="#000000" transform="matrix(0.05 0 0 0.05 -530 -50)" d="M 10871.2,1556.12 L 10775.9,1556.12 L 10775.9,1534.12 L 10871.2,1534.12 Z " /><path stroke="none" fill="#000000" transform="matrix(0.05 0 0 0.05 -530 -50)" d="M 11002.3,1545.12 C 11002.3,1545.12 10851.4,1583.86 10851.4,1583.86 C 10851.4,1583.86 10870.2,1562.07 10870.2,1545.12 C 10870.2,1527.73 10851.4,1505.38 10851.4,1505.38 C 10851.4,1505.38 11002.3,1545.12 11002.3,1545.12 C 11002.3,1545.12 11002.3,1545.12 11002.3,1545.12 " /><path stroke="#000000" stroke-width="1" fill="none" transform="matrix(0.05 0 0 0.05 -530 -50)" d="M 11002.3,1545.12 C 11002.3,1545.12 10851.4,1583.86 10851.4,1583.86 C 10851.4,1583.86 10870.2,1562.07 10870.2,1545.12 C 10870.2,1527.73 10851.4,1505.38 10851.4,1505.38 C 10851.4,1505.38 11002.3,1545.12 11002.3,1545.12 C 11002.3,1545.12 11002.3,1545.12 11002.3,1545.12 " /></svg>