<?xml version="1.0" standalone="no" ?><!DOCTYPE svg PUBLIC "-//W3C//DTD SVG 1.1//EN" "http://www.w3.org/Graphics/SVG/1.1/DTD/svg11.dtd"><svg width="60px" height="20px" viewBox="0 0 60 20" style="background-color: #ffffff00" xmlns="http://www.w3.org/2000/svg" xmlns:xlink="http://www.w3.org/1999/xlink" version="1.1" ><path stroke="none" fill="#000000" transform="matrix(0.05 0 0 0.05 -588 -55)" d="M 12558.3,1385.78 A 55.9398,55.9398 0 1 0 12670.2,1385.78A 55.9398,55.9398 0 1 0 12558.3,1385.78Z " /><path stroke="none" fill="#000000" transform="matrix(0.05 0 0 0.05 -588 -55)" d="M 12322,1377.44 L 12306.4,1393.12 L 12094.6,1181.33 L 12110.2,1165.65 L 12322,1377.44 Z " /><path stroke="none" fill="#000000" transform="matrix(0.05 0 0 0.05 -588 -55)" d="M 12613.7,1401.91 L 12613.7,1424.09 L 12314.2,1424.09 L 12314.2,1401.91 L 12613.7,1401.91 Z " /><path stroke="none" fill="#000000" transform="matrix(0.05 0 0 0.05 -588 -55)" d="M 12613.7,1346.47 L 12613.7,1368.65 L 12286.5,1368.65 L 12286.5,1346.47 L 12613.7,1346.47 Z " /><path stroke="none" fill="#000000" transform="matrix(0.05 0 0 0.05 -588 -55)" d="M 12913.2,1401.91 L 12913.2,1424.09 L 12613.7,1424.09 L 12613.7,1401.91 L 12913.2,1401.91 Z " /><path stroke="none" fill="#000000" transform="matrix(0.05 0 0 0.05 -588 -55)" d="M 12913.2,1346.47 L 12913.2,1368.65 L 12613.7,1368.65 L 12613.7,1346.47 L 12913.2,1346.47 Z " /><path stroke="none" fill="#000000" transform="matrix(0.05 0 0 0.05 -588 -55)" d="M 11910.2,1209.8 L 11814.8,1209.8 L 11814.8,1187.8 L 11910.2,1187.8 Z " /><path stroke="none" fill="#000000" transform="matrix(0.05 0 0 0.05 -588 -55)" d="M 12041.3,1198.8 C 12041.3,1198.8 11890.3,1237.54 11890.3,1237.54 C 11890.3,1237.54 11909.2,1215.75 11909.2,1198.8 C 11909.2,1181.41 11890.3,1159.06 11890.3,1159.06 C 11890.3,1159.06 12041.3,1198.8 12041.3,1198.8 C 12041.3,1198.8 12041.3,1198.8 12041.3,1198.8 " /><path stroke="#000000" stroke-width="1" fill="none" transform="matrix(0.05 0 0 0.05 -588 -55)" d="M 12041.3,1198.8 C 12041.3,1198.8 11890.3,1237.54 11890.3,1237.54 C 11890.3,1237.54 11909.2,1215.75 11909.2,1198.8 C 11909.2,1181.41 11890.3,1159.06 11890.3,1159.06 C 11890.3,1159.06 12041.3,1198.8 12041.3,1198.8 C 12041.3,1198.8 12041.3,1198.8 12041.3,1198.8 " /></svg>