<?xml version="1.0" standalone="no" ?><!DOCTYPE svg PUBLIC "-//W3C//DTD SVG 1.1//EN" "http://www.w3.org/Graphics/SVG/1.1/DTD/svg11.dtd"><svg width="84px" height="39px" viewBox="0 0 84 39" style="background-color: #ffffff00" xmlns="http://www.w3.org/2000/svg" xmlns:xlink="http://www.w3.org/1999/xlink" version="1.1" ><path stroke="none" fill="#000000" transform="matrix(0.05 0 0 0.05 -665 -46)" d="M 13890.4,1425.48 L 13890.5,1451.15 L 13637.7,1597.6 L 13626.6,1578.39 L 13890.4,1425.48 Z " /><path stroke="none" fill="#000000" transform="matrix(0.05 0 0 0.05 -665 -46)" d="M 14070.7,1530.4 L 14059.6,1549.6 L 13890.5,1451.15 L 13890.4,1425.48 L 14070.7,1530.4 Z " /><path stroke="none" fill="#000000" transform="matrix(0.05 0 0 0.05 -665 -46)" d="M 14395.7,1433.14 L 14406.4,1439 L 14406.1,1451.15 L 14237.5,1549.28 L 14226.4,1530.08 L 14395.7,1433.14 Z " /><text x="0" y="0" stroke="none" fill="#000000" transform="matrix(0.05 0 0 0.05 38.9141 36.6386)" font-style="normal" font-weight="bold" font-size="180px" font-family="Helvetica" >O</text><path stroke="none" fill="#000000" transform="matrix(0.05 0 0 0.05 -665 -46)" d="M 14911.9,1147.13 L 14934.1,1134.31 L 14934.1,1445.69 L 14911.9,1432.86 L 14911.9,1147.13 Z " /><path stroke="none" fill="#000000" transform="matrix(0.05 0 0 0.05 -665 -46)" d="M 14664.4,1004.27 L 14664.4,978.619 L 14934.1,1134.31 L 14911.9,1147.13 L 14664.4,1004.27 Z " /><path stroke="none" fill="#000000" transform="matrix(0.05 0 0 0.05 -665 -46)" d="M 14658.9,1065.62 L 14670,1046.41 L 14872.6,1163.4 L 14861.5,1182.61 L 14658.9,1065.62 Z " /><path stroke="none" fill="#000000" transform="matrix(0.05 0 0 0.05 -665 -46)" d="M 14417,1147.13 L 14394.8,1134.31 L 14664.4,978.619 L 14664.4,1004.27 L 14417,1147.13 Z " /><path stroke="none" fill="#000000" transform="matrix(0.05 0 0 0.05 -665 -46)" d="M 14417,1432.86 L 14406.4,1439 L 14395.7,1433.14 L 14394.8,1134.31 L 14417,1147.13 L 14417,1432.86 Z " /><path stroke="none" fill="#000000" transform="matrix(0.05 0 0 0.05 -665 -46)" d="M 14472.9,1406.99 L 14450.7,1406.99 L 14450.7,1173.01 L 14472.9,1173.01 L 14472.9,1406.99 Z " /><path stroke="none" fill="#000000" transform="matrix(0.05 0 0 0.05 -665 -46)" d="M 14664.4,1575.72 L 14664.4,1601.37 L 14406.1,1451.15 L 14406.4,1439 L 14417,1432.86 L 14664.4,1575.72 Z " /><path stroke="none" fill="#000000" transform="matrix(0.05 0 0 0.05 -665 -46)" d="M 14911.9,1432.86 L 14934.1,1445.69 L 14664.4,1601.37 L 14664.4,1575.72 L 14911.9,1432.86 Z " /><path stroke="none" fill="#000000" transform="matrix(0.05 0 0 0.05 -665 -46)" d="M 14861.5,1397.39 L 14872.6,1416.59 L 14670,1533.58 L 14658.9,1514.38 L 14861.5,1397.39 Z " /><path stroke="none" fill="#000000" transform="matrix(0.05 0 0 0.05 -665 -46)" d="M 13442,1596.08 L 13346.6,1596.08 L 13346.6,1574.08 L 13442,1574.08 Z " /><path stroke="none" fill="#000000" transform="matrix(0.05 0 0 0.05 -665 -46)" d="M 13573.1,1585.08 C 13573.1,1585.08 13422.1,1623.82 13422.1,1623.82 C 13422.1,1623.82 13441,1602.03 13441,1585.08 C 13441,1567.69 13422.1,1545.34 13422.1,1545.34 C 13422.1,1545.34 13573.1,1585.08 13573.1,1585.08 C 13573.1,1585.08 13573.1,1585.08 13573.1,1585.08 " /><path stroke="#000000" stroke-width="1" fill="none" transform="matrix(0.05 0 0 0.05 -665 -46)" d="M 13573.1,1585.08 C 13573.1,1585.08 13422.1,1623.82 13422.1,1623.82 C 13422.1,1623.82 13441,1602.03 13441,1585.08 C 13441,1567.69 13422.1,1545.34 13422.1,1545.34 C 13422.1,1545.34 13573.1,1585.08 13573.1,1585.08 C 13573.1,1585.08 13573.1,1585.08 13573.1,1585.08 " /></svg>