<?xml version="1.0" standalone="no" ?><!DOCTYPE svg PUBLIC "-//W3C//DTD SVG 1.1//EN" "http://www.w3.org/Graphics/SVG/1.1/DTD/svg11.dtd"><svg width="45px" height="58px" viewBox="0 0 45 58" style="background-color: #ffffff00" xmlns="http://www.w3.org/2000/svg" xmlns:xlink="http://www.w3.org/1999/xlink" version="1.1" ><path stroke="none" fill="#000000" transform="matrix(0.05 0 0 0.05 -27 -128)" d="M 871.344,3672.6 L 860.256,3653.4 L 1114.56,3507.1 L 1125.19,3513.24 L 1125.19,3525.52 L 871.344,3672.6 Z " /><path stroke="none" fill="#000000" transform="matrix(0.05 0 0 0.05 -27 -128)" d="M 1125.19,3525.52 L 1125.19,3513.24 L 1135.82,3507.1 L 1390.13,3653.4 L 1379.04,3672.6 L 1125.19,3525.52 Z " /><path stroke="none" fill="#000000" transform="matrix(0.05 0 0 0.05 -27 -128)" d="M 1135.82,3507.1 L 1125.19,3513.24 L 1114.56,3507.1 L 1114.56,3219.86 L 1125.19,3213.72 L 1135.82,3219.86 L 1135.82,3507.1 Z " /><path stroke="none" fill="#000000" transform="matrix(0.05 0 0 0.05 -27 -128)" d="M 1135.82,3219.86 L 1125.19,3213.72 L 1125.19,3201.44 L 1373.95,3057.82 L 1396.17,3070.65 L 1135.82,3219.86 Z " /><path stroke="none" fill="#000000" transform="matrix(0.05 0 0 0.05 -27 -128)" d="M 1396.17,3070.65 L 1373.95,3057.82 L 1373.95,2770.58 L 1396.17,2757.75 L 1396.17,3070.65 Z " /><path stroke="none" fill="#000000" transform="matrix(0.05 0 0 0.05 -27 -128)" d="M 1396.17,2757.75 L 1373.95,2770.58 L 1125.19,2626.96 L 1125.19,2601.3 L 1396.17,2757.75 Z " /><path stroke="none" fill="#000000" transform="matrix(0.05 0 0 0.05 -27 -128)" d="M 1125.19,2601.3 L 1125.19,2626.96 L 876.433,2770.58 L 854.216,2757.75 L 1125.19,2601.3 Z " /><path stroke="none" fill="#000000" transform="matrix(0.05 0 0 0.05 -27 -128)" d="M 854.216,2757.75 L 876.433,2770.58 L 876.433,3057.82 L 854.216,3070.65 L 854.216,2757.75 Z " /><path stroke="none" fill="#000000" transform="matrix(0.05 0 0 0.05 -27 -128)" d="M 854.216,3070.65 L 876.433,3057.82 L 1125.19,3201.44 L 1125.19,3213.72 L 1114.56,3219.86 L 854.216,3070.65 Z " /><path stroke="none" fill="#000000" transform="matrix(0.05 0 0 0.05 -27 -128)" d="M 681.43,2768.24 L 586.08,2768.24 L 586.08,2746.24 L 681.43,2746.24 Z " /><path stroke="none" fill="#000000" transform="matrix(0.05 0 0 0.05 -27 -128)" d="M 812.52,2757.24 C 812.52,2757.24 661.56,2795.98 661.56,2795.98 C 661.56,2795.98 680.43,2774.19 680.43,2757.24 C 680.43,2739.85 661.56,2717.5 661.56,2717.5 C 661.56,2717.5 812.52,2757.24 812.52,2757.24 C 812.52,2757.24 812.52,2757.24 812.52,2757.24 " /><path stroke="#000000" stroke-width="1" fill="none" transform="matrix(0.05 0 0 0.05 -27 -128)" d="M 812.52,2757.24 C 812.52,2757.24 661.56,2795.98 661.56,2795.98 C 661.56,2795.98 680.43,2774.19 680.43,2757.24 C 680.43,2739.85 661.56,2717.5 661.56,2717.5 C 661.56,2717.5 812.52,2757.24 812.52,2757.24 C 812.52,2757.24 812.52,2757.24 812.52,2757.24 " /></svg>