<?xml version="1.0" standalone="no" ?><!DOCTYPE svg PUBLIC "-//W3C//DTD SVG 1.1//EN" "http://www.w3.org/Graphics/SVG/1.1/DTD/svg11.dtd"><svg width="47px" height="44px" viewBox="0 0 47 44" style="background-color: #ffffff00" xmlns="http://www.w3.org/2000/svg" xmlns:xlink="http://www.w3.org/1999/xlink" version="1.1" ><path stroke="none" fill="#000000" transform="matrix(0.05 0 0 0.05 -83 -135)" d="M 2007.09,2839.41 L 2029.33,2855.56 L 2029.33,3139.28 L 2007.09,3155.43 L 2007.09,2839.41 Z " /><path stroke="none" fill="#000000" transform="matrix(0.05 0 0 0.05 -83 -135)" d="M 2007.09,3155.43 L 2029.33,3139.28 L 2299.15,3226.95 L 2303.17,3239.32 L 2298.41,3249.31 L 2007.09,3155.43 Z " /><path stroke="none" fill="#000000" transform="matrix(0.05 0 0 0.05 -83 -135)" d="M 2316.7,3238.48 L 2303.17,3239.32 L 2299.15,3226.95 L 2465.92,2997.42 L 2493.41,2997.42 L 2316.7,3238.48 Z " /><path stroke="none" fill="#000000" transform="matrix(0.05 0 0 0.05 -83 -135)" d="M 2493.41,2997.42 L 2465.92,2997.42 L 2299.15,2767.89 L 2307.65,2741.75 L 2493.41,2997.42 Z " /><path stroke="none" fill="#000000" transform="matrix(0.05 0 0 0.05 -83 -135)" d="M 2307.65,2741.75 L 2299.15,2767.89 L 2029.33,2855.56 L 2007.09,2839.41 L 2307.65,2741.75 Z " /><path stroke="none" fill="#000000" transform="matrix(0.05 0 0 0.05 -83 -135)" d="M 2298.41,3249.31 L 2303.17,3239.32 L 2316.7,3238.48 L 2547.78,3414.51 L 2502.97,3464.27 L 2298.41,3249.31 Z " /><path stroke="none" fill="#000000" transform="matrix(0.05 0 0 0.05 -83 -135)" d="M 2281.21,3289.3 L 2302.9,3293.91 L 2300.27,3316.02 L 2274.62,3310.57 L 2281.21,3289.3 Z " /><path stroke="none" fill="#000000" transform="matrix(0.05 0 0 0.05 -83 -135)" d="M 2264.62,3342.86 L 2296.27,3349.59 L 2293.64,3371.7 L 2258.03,3364.13 L 2264.62,3342.86 Z " /><path stroke="none" fill="#000000" transform="matrix(0.05 0 0 0.05 -83 -135)" d="M 2248.03,3396.43 L 2289.65,3405.27 L 2287.01,3427.38 L 2241.44,3417.7 L 2248.03,3396.43 Z " /><path stroke="none" fill="#000000" transform="matrix(0.05 0 0 0.05 -83 -135)" d="M 2231.44,3449.99 L 2283.02,3460.95 L 2280.38,3483.06 L 2224.85,3471.26 L 2231.44,3449.99 Z " /><path stroke="none" fill="#000000" transform="matrix(0.05 0 0 0.05 -83 -135)" d="M 2214.85,3503.55 L 2276.39,3516.63 L 2273.76,3538.74 L 2208.26,3524.82 L 2214.85,3503.55 Z " /><path stroke="none" fill="#000000" transform="matrix(0.05 0 0 0.05 -83 -135)" d="M 1813.63,3154.52 L 1718.28,3154.52 L 1718.28,3132.52 L 1813.63,3132.52 Z " /><path stroke="none" fill="#000000" transform="matrix(0.05 0 0 0.05 -83 -135)" d="M 1944.72,3143.52 C 1944.72,3143.52 1793.76,3182.26 1793.76,3182.26 C 1793.76,3182.26 1812.63,3160.47 1812.63,3143.52 C 1812.63,3126.13 1793.76,3103.78 1793.76,3103.78 C 1793.76,3103.78 1944.72,3143.52 1944.72,3143.52 C 1944.72,3143.52 1944.72,3143.52 1944.72,3143.52 " /><path stroke="#000000" stroke-width="1" fill="none" transform="matrix(0.05 0 0 0.05 -83 -135)" d="M 1944.72,3143.52 C 1944.72,3143.52 1793.76,3182.26 1793.76,3182.26 C 1793.76,3182.26 1812.63,3160.47 1812.63,3143.52 C 1812.63,3126.13 1793.76,3103.78 1793.76,3103.78 C 1793.76,3103.78 1944.72,3143.52 1944.72,3143.52 C 1944.72,3143.52 1944.72,3143.52 1944.72,3143.52 " /></svg>