<?xml version="1.0" standalone="no" ?><!DOCTYPE svg PUBLIC "-//W3C//DTD SVG 1.1//EN" "http://www.w3.org/Graphics/SVG/1.1/DTD/svg11.dtd"><svg width="60px" height="51px" viewBox="0 0 60 51" style="background-color: #ffffff00" xmlns="http://www.w3.org/2000/svg" xmlns:xlink="http://www.w3.org/1999/xlink" version="1.1" ><path stroke="none" fill="#000000" transform="matrix(0.05 0 0 0.05 -143 -135)" d="M 3453.19,2901.08 L 3475.37,2901.08 L 3475.37,3232.6 L 3453.19,3232.6 L 3453.19,2901.08 Z " /><path stroke="none" fill="#000000" transform="matrix(0.05 0 0 0.05 -143 -135)" d="M 3397.75,2901.08 L 3419.93,2901.08 L 3419.93,3232.6 L 3397.75,3232.6 L 3397.75,2901.08 Z " /><path stroke="none" fill="#000000" transform="matrix(0.05 0 0 0.05 -143 -135)" d="M 3436.56,2904.8 L 3436.56,2930.45 L 3171.62,2776.92 L 3182.71,2757.72 L 3436.56,2904.8 Z " /><path stroke="none" fill="#000000" transform="matrix(0.05 0 0 0.05 -143 -135)" d="M 3436.56,2930.45 L 3436.56,2904.8 L 3690.41,2757.72 L 3701.5,2776.92 L 3436.56,2930.45 Z " /><path stroke="none" fill="#000000" transform="matrix(0.05 0 0 0.05 -143 -135)" d="M 3436.56,3228.88 L 3436.56,3203.22 L 3707.53,3359.67 L 3685.32,3372.5 L 3436.56,3228.88 Z " /><path stroke="none" fill="#000000" transform="matrix(0.05 0 0 0.05 -143 -135)" d="M 3436.56,3203.22 L 3436.56,3228.88 L 3177.17,3379.73 L 3177.17,3354.08 L 3436.56,3203.22 Z " /><text x="0" y="0" stroke="none" fill="#000000" transform="matrix(0.05 0 0 0.05 51.2669 29.0688)" font-style="normal" font-weight="bold" font-size="180px" font-family="Helvetica" >O</text><path stroke="none" fill="#000000" transform="matrix(0.05 0 0 0.05 -143 -135)" d="M 3673.78,3359.96 L 3662.69,3340.75 L 3851.61,3231.68 L 3862.7,3250.88 L 3673.78,3359.96 Z " /><path stroke="none" fill="#000000" transform="matrix(0.05 0 0 0.05 -143 -135)" d="M 3701.5,3407.97 L 3690.41,3388.77 L 3879.33,3279.69 L 3890.42,3298.9 L 3701.5,3407.97 Z " /><path stroke="none" fill="#000000" transform="matrix(0.05 0 0 0.05 -143 -135)" d="M 3685.32,3372.5 L 3707.53,3359.67 L 3707.04,3665.88 L 3684.86,3665.88 L 3685.32,3372.5 Z " /><path stroke="none" fill="#000000" transform="matrix(0.05 0 0 0.05 -143 -135)" d="M 3177.17,3354.08 L 3177.17,3379.73 L 2912.23,3226.2 L 2923.32,3207 L 3177.17,3354.08 Z " /><path stroke="none" fill="#000000" transform="matrix(0.05 0 0 0.05 -143 -135)" d="M 3027.51,3508.05 L 2953.09,3567.65 L 2939.09,3550.65 L 3013.51,3491.05 Z " /><path stroke="none" fill="#000000" transform="matrix(0.05 0 0 0.05 -143 -135)" d="M 3122.83,3417.6 C 3122.83,3417.6 3029.6,3542.43 3029.6,3542.43 C 3029.6,3542.43 3030.49,3513.5 3019.73,3500.17 C 3008.97,3486.85 2980.41,3481.51 2980.41,3481.51 C 2980.41,3481.51 3122.83,3417.6 3122.83,3417.6 C 3122.83,3417.6 3122.83,3417.6 3122.83,3417.6 " /><path stroke="#000000" stroke-width="1" fill="none" transform="matrix(0.05 0 0 0.05 -143 -135)" d="M 3122.83,3417.6 C 3122.83,3417.6 3029.6,3542.43 3029.6,3542.43 C 3029.6,3542.43 3030.49,3513.5 3019.73,3500.17 C 3008.97,3486.85 2980.41,3481.51 2980.41,3481.51 C 2980.41,3481.51 3122.83,3417.6 3122.83,3417.6 C 3122.83,3417.6 3122.83,3417.6 3122.83,3417.6 " /></svg>