<?xml version="1.0" standalone="no" ?><!DOCTYPE svg PUBLIC "-//W3C//DTD SVG 1.1//EN" "http://www.w3.org/Graphics/SVG/1.1/DTD/svg11.dtd"><svg width="66px" height="47px" viewBox="0 0 66 47" style="background-color: #ffffff00" xmlns="http://www.w3.org/2000/svg" xmlns:xlink="http://www.w3.org/1999/xlink" version="1.1" ><text x="0" y="0" stroke="none" fill="#000000" transform="matrix(0.05 0 0 0.05 40.8345 9.28468)" font-style="normal" font-weight="bold" font-size="180px" font-family="Helvetica" >O</text><path stroke="none" fill="#000000" transform="matrix(0.05 0 0 0.05 -222 -140)" d="M 4743.66,2924.21 L 4747.44,2910.1 L 4767.29,2925.8 L 4902.02,3156.86 L 4891.24,3182.68 L 4743.66,2924.21 Z " /><path stroke="none" fill="#000000" transform="matrix(0.05 0 0 0.05 -222 -140)" d="M 4891.24,3182.68 L 4902.02,3156.86 L 5186.31,3081.53 L 5186.05,3104.53 L 4891.24,3182.68 Z " /><path stroke="none" fill="#000000" transform="matrix(0.05 0 0 0.05 -222 -140)" d="M 5186.05,3104.53 L 5186.31,3081.53 L 5455.09,3160.32 L 5504.55,3198.61 L 5186.05,3104.53 Z " /><path stroke="none" fill="#000000" transform="matrix(0.05 0 0 0.05 -222 -140)" d="M 5504.55,3198.61 L 5455.09,3160.32 L 5368,3014.64 L 5387.2,3003.55 L 5504.55,3198.61 Z " /><path stroke="none" fill="#000000" transform="matrix(0.05 0 0 0.05 -222 -140)" d="M 5232.42,2934.14 L 5238.04,2955.6 L 5037.39,3008.48 L 5037.92,2985.45 L 5232.42,2934.14 Z " /><path stroke="none" fill="#000000" transform="matrix(0.05 0 0 0.05 -222 -140)" d="M 5037.92,2985.45 L 5037.39,3008.48 L 4767.29,2925.8 L 4747.44,2910.1 L 4745.99,2897.72 L 5037.92,2985.45 Z " /><path stroke="none" fill="#000000" transform="matrix(0.05 0 0 0.05 -222 -140)" d="M 4745.99,2897.72 L 4747.44,2910.1 L 4743.66,2924.21 L 4493.59,3069.47 L 4482.51,3050.26 L 4745.99,2897.72 Z " /><path stroke="none" fill="#000000" transform="matrix(0.05 0 0 0.05 -222 -140)" d="M 5412.26,3090.54 L 5427.94,3074.86 L 5712.89,3359.81 L 5697.21,3375.49 L 5412.26,3090.54 Z " /><path stroke="none" fill="#000000" transform="matrix(0.05 0 0 0.05 -222 -140)" d="M 5410.91,3167.6 L 5426.59,3151.92 L 5673.68,3399.01 L 5658,3414.69 L 5410.91,3167.6 Z " /><path stroke="none" fill="#000000" transform="matrix(0.05 0 0 0.05 -222 -140)" d="M 5670.56,3598.96 L 5676.18,3694.14 L 5654.18,3695.14 L 5648.56,3599.96 Z " /><path stroke="none" fill="#000000" transform="matrix(0.05 0 0 0.05 -222 -140)" d="M 5651.82,3468.59 C 5651.82,3468.59 5699.4,3616.06 5699.4,3616.06 C 5699.4,3616.06 5676.53,3599.04 5659.61,3600.45 C 5642.69,3601.87 5622.05,3622.52 5622.05,3622.52 C 5622.05,3622.52 5651.82,3468.59 5651.82,3468.59 C 5651.82,3468.59 5651.82,3468.59 5651.82,3468.59 " /><path stroke="#000000" stroke-width="1" fill="none" transform="matrix(0.05 0 0 0.05 -222 -140)" d="M 5651.82,3468.59 C 5651.82,3468.59 5699.4,3616.06 5699.4,3616.06 C 5699.4,3616.06 5676.53,3599.04 5659.61,3600.45 C 5642.69,3601.87 5622.05,3622.52 5622.05,3622.52 C 5622.05,3622.52 5651.82,3468.59 5651.82,3468.59 C 5651.82,3468.59 5651.82,3468.59 5651.82,3468.59 " /></svg>