<?xml version="1.0" standalone="no" ?><!DOCTYPE svg PUBLIC "-//W3C//DTD SVG 1.1//EN" "http://www.w3.org/Graphics/SVG/1.1/DTD/svg11.dtd"><svg width="34px" height="37px" viewBox="0 0 34 37" style="background-color: #ffffff00" xmlns="http://www.w3.org/2000/svg" xmlns:xlink="http://www.w3.org/1999/xlink" version="1.1" ><path stroke="none" fill="#000000" transform="matrix(0.05 0 0 0.05 -305 -139)" d="M 6429.84,3121.69 L 6440.34,3113.64 L 6450.16,3130.66 L 6450.16,3396.14 L 6427.62,3435.19 L 6429.84,3121.69 Z " /><path stroke="none" fill="#000000" transform="matrix(0.05 0 0 0.05 -305 -139)" d="M 6427.62,3435.19 L 6450.16,3396.14 L 6680.07,3263.4 L 6725.17,3263.4 L 6427.62,3435.19 Z " /><path stroke="none" fill="#000000" transform="matrix(0.05 0 0 0.05 -305 -139)" d="M 6725.17,3263.4 L 6680.07,3263.4 L 6450.16,3130.66 L 6440.34,3113.64 L 6452.55,3108.58 L 6725.17,3263.4 Z " /><path stroke="none" fill="#000000" transform="matrix(0.05 0 0 0.05 -305 -139)" d="M 6433.04,3101 L 6440.34,3113.64 L 6429.84,3121.69 L 6148.15,3046.83 L 6153.89,3025.41 L 6433.04,3101 Z " /><path stroke="none" fill="#000000" transform="matrix(0.05 0 0 0.05 -305 -139)" d="M 6452.55,3108.58 L 6440.34,3113.64 L 6433.04,3101 L 6507.15,2821.46 L 6528.57,2827.2 L 6452.55,3108.58 Z " /><path stroke="none" fill="#000000" transform="matrix(0.05 0 0 0.05 -305 -139)" d="M 6235.87,3434.24 L 6140.52,3434.24 L 6140.52,3412.24 L 6235.87,3412.24 Z " /><path stroke="none" fill="#000000" transform="matrix(0.05 0 0 0.05 -305 -139)" d="M 6366.96,3423.24 C 6366.96,3423.24 6216,3461.98 6216,3461.98 C 6216,3461.98 6234.87,3440.19 6234.87,3423.24 C 6234.87,3405.85 6216,3383.5 6216,3383.5 C 6216,3383.5 6366.96,3423.24 6366.96,3423.24 C 6366.96,3423.24 6366.96,3423.24 6366.96,3423.24 " /><path stroke="#000000" stroke-width="1" fill="none" transform="matrix(0.05 0 0 0.05 -305 -139)" d="M 6366.96,3423.24 C 6366.96,3423.24 6216,3461.98 6216,3461.98 C 6216,3461.98 6234.87,3440.19 6234.87,3423.24 C 6234.87,3405.85 6216,3383.5 6216,3383.5 C 6216,3383.5 6366.96,3423.24 6366.96,3423.24 C 6366.96,3423.24 6366.96,3423.24 6366.96,3423.24 " /></svg>