<?xml version="1.0" standalone="no" ?><!DOCTYPE svg PUBLIC "-//W3C//DTD SVG 1.1//EN" "http://www.w3.org/Graphics/SVG/1.1/DTD/svg11.dtd"><svg width="70px" height="42px" viewBox="0 0 70 42" style="background-color: #ffffff00" xmlns="http://www.w3.org/2000/svg" xmlns:xlink="http://www.w3.org/1999/xlink" version="1.1" ><path stroke="none" fill="#000000" transform="matrix(0.05 0 0 0.05 -350 -131)" d="M 7051.82,3126.48 L 7040.74,3107.28 L 7305.67,2953.74 L 7305.67,2979.4 L 7051.82,3126.48 Z " /><path stroke="none" fill="#000000" transform="matrix(0.05 0 0 0.05 -350 -131)" d="M 7305.67,2979.4 L 7305.67,2953.74 L 7565.06,3104.6 L 7565.06,3116.88 L 7554.43,3123.02 L 7305.67,2979.4 Z " /><path stroke="none" fill="#000000" transform="matrix(0.05 0 0 0.05 -350 -131)" d="M 7575.7,3123.02 L 7565.06,3116.88 L 7565.06,3104.6 L 7813.82,2960.98 L 7824.46,2967.12 L 7824.46,2979.4 L 7575.7,3123.02 Z " /><path stroke="none" fill="#000000" transform="matrix(0.05 0 0 0.05 -350 -131)" d="M 7824.46,2979.4 L 7824.46,2967.12 L 7835.09,2960.98 L 8083.85,3104.6 L 8083.85,3116.88 L 8073.21,3123.02 L 7824.46,2979.4 Z " /><path stroke="none" fill="#000000" transform="matrix(0.05 0 0 0.05 -350 -131)" d="M 8094.48,3123.02 L 8083.85,3116.88 L 8083.85,3104.6 L 8337.7,2957.52 L 8348.78,2976.72 L 8094.48,3123.02 Z " /><path stroke="none" fill="#000000" transform="matrix(0.05 0 0 0.05 -350 -131)" d="M 7554.43,3123.02 L 7565.06,3116.88 L 7575.7,3123.02 L 7576.15,3416.4 L 7553.98,3416.4 L 7554.43,3123.02 Z " /><path stroke="none" fill="#000000" transform="matrix(0.05 0 0 0.05 -350 -131)" d="M 7835.09,2960.98 L 7824.46,2967.12 L 7813.82,2960.98 L 7813.37,2667.6 L 7835.54,2667.6 L 7835.09,2960.98 Z " /><path stroke="none" fill="#000000" transform="matrix(0.05 0 0 0.05 -350 -131)" d="M 8073.21,3123.02 L 8083.85,3116.88 L 8094.48,3123.02 L 8094.94,3416.4 L 8072.76,3416.4 L 8073.21,3123.02 Z " /><path stroke="none" fill="#000000" transform="matrix(0.05 0 0 0.05 -350 -131)" d="M 7161.04,2829.56 L 7095.65,2760.16 L 7111.65,2745.16 L 7177.04,2814.56 Z " /><path stroke="none" fill="#000000" transform="matrix(0.05 0 0 0.05 -350 -131)" d="M 7258.93,2917.47 C 7258.93,2917.47 7126.94,2834.48 7126.94,2834.48 C 7126.94,2834.48 7155.9,2833.09 7168.35,2821.33 C 7180.81,2809.57 7183.88,2780.72 7183.88,2780.72 C 7183.88,2780.72 7258.93,2917.47 7258.93,2917.47 C 7258.93,2917.47 7258.93,2917.47 7258.93,2917.47 " /><path stroke="#000000" stroke-width="1" fill="none" transform="matrix(0.05 0 0 0.05 -350 -131)" d="M 7258.93,2917.47 C 7258.93,2917.47 7126.94,2834.48 7126.94,2834.48 C 7126.94,2834.48 7155.9,2833.09 7168.35,2821.33 C 7180.81,2809.57 7183.88,2780.72 7183.88,2780.72 C 7183.88,2780.72 7258.93,2917.47 7258.93,2917.47 C 7258.93,2917.47 7258.93,2917.47 7258.93,2917.47 " /></svg>