<?xml version="1.0" standalone="no" ?><!DOCTYPE svg PUBLIC "-//W3C//DTD SVG 1.1//EN" "http://www.w3.org/Graphics/SVG/1.1/DTD/svg11.dtd"><svg width="60px" height="38px" viewBox="0 0 60 38" style="background-color: #ffffff00" xmlns="http://www.w3.org/2000/svg" xmlns:xlink="http://www.w3.org/1999/xlink" version="1.1" ><path stroke="none" fill="#000000" transform="matrix(0.05 0 0 0.05 -447 -140)" d="M 9270.11,3064.39 L 9281.2,3045.18 L 9534.59,3192.01 L 9534.59,3217.66 L 9270.11,3064.39 Z " /><path stroke="none" fill="#000000" transform="matrix(0.05 0 0 0.05 -447 -140)" d="M 9534.59,3217.66 L 9534.59,3192.01 L 9787.99,3045.18 L 9799.08,3064.39 L 9534.59,3217.66 Z " /><path stroke="none" fill="#000000" transform="matrix(0.05 0 0 0.05 -447 -140)" d="M 9771.36,3016.38 L 9760.27,2997.17 L 10019.2,2847.67 L 10030.3,2866.88 L 9771.36,3016.38 Z " /><path stroke="none" fill="#000000" transform="matrix(0.05 0 0 0.05 -447 -140)" d="M 9799.08,3064.39 L 9787.99,3045.18 L 10046.9,2895.68 L 10058,2914.89 L 9799.08,3064.39 Z " /><path stroke="none" fill="#000000" transform="matrix(0.05 0 0 0.05 -447 -140)" d="M 9826.8,3112.4 L 9815.71,3093.2 L 10074.7,2943.7 L 10085.7,2962.9 L 9826.8,3112.4 Z " /><path stroke="none" fill="#000000" transform="matrix(0.05 0 0 0.05 -447 -140)" d="M 9253.48,3093.2 L 9242.39,3112.4 L 8983.45,2962.9 L 8994.53,2943.7 L 9253.48,3093.2 Z " /><path stroke="none" fill="#000000" transform="matrix(0.05 0 0 0.05 -447 -140)" d="M 9281.2,3045.18 L 9270.11,3064.39 L 9011.17,2914.89 L 9022.25,2895.68 L 9281.2,3045.18 Z " /><path stroke="none" fill="#000000" transform="matrix(0.05 0 0 0.05 -447 -140)" d="M 9308.92,2997.17 L 9297.83,3016.38 L 9038.89,2866.88 L 9049.97,2847.67 L 9308.92,2997.17 Z " /><path stroke="none" fill="#000000" transform="matrix(0.05 0 0 0.05 -447 -140)" d="M 9546.68,3412.48 L 9552.3,3507.66 L 9530.3,3508.66 L 9524.68,3413.48 Z " /><path stroke="none" fill="#000000" transform="matrix(0.05 0 0 0.05 -447 -140)" d="M 9527.94,3282.11 C 9527.94,3282.11 9575.52,3429.58 9575.52,3429.58 C 9575.52,3429.58 9552.66,3412.56 9535.74,3413.97 C 9518.82,3415.39 9498.17,3436.04 9498.17,3436.04 C 9498.17,3436.04 9527.94,3282.11 9527.94,3282.11 C 9527.94,3282.11 9527.94,3282.11 9527.94,3282.11 " /><path stroke="#000000" stroke-width="1" fill="none" transform="matrix(0.05 0 0 0.05 -447 -140)" d="M 9527.94,3282.11 C 9527.94,3282.11 9575.52,3429.58 9575.52,3429.58 C 9575.52,3429.58 9552.66,3412.56 9535.74,3413.97 C 9518.82,3415.39 9498.17,3436.04 9498.17,3436.04 C 9498.17,3436.04 9527.94,3282.11 9527.94,3282.11 C 9527.94,3282.11 9527.94,3282.11 9527.94,3282.11 " /></svg>