<?xml version="1.0" standalone="no" ?><!DOCTYPE svg PUBLIC "-//W3C//DTD SVG 1.1//EN" "http://www.w3.org/Graphics/SVG/1.1/DTD/svg11.dtd"><svg width="43px" height="46px" viewBox="0 0 43 46" style="background-color: #ffffff00" xmlns="http://www.w3.org/2000/svg" xmlns:xlink="http://www.w3.org/1999/xlink" version="1.1" ><path stroke="none" fill="#000000" transform="matrix(0.05 0 0 0.05 -527 -132)" d="M 10821.4,3206.4 L 10810.3,3187.2 L 11075.2,3033.66 L 11075.2,3059.32 L 10821.4,3206.4 Z " /><text x="0" y="0" stroke="none" fill="#000000" transform="matrix(0.05 0 0 0.05 23.2613 8.61475)" font-style="normal" font-weight="bold" font-size="180px" font-family="Helvetica" >O</text><path stroke="none" fill="#000000" transform="matrix(0.05 0 0 0.05 -527 -132)" d="M 11058.6,3063.04 L 11036.4,3063.04 L 11036.4,2848.01 L 11058.6,2848.01 L 11058.6,3063.04 Z " /><path stroke="none" fill="#000000" transform="matrix(0.05 0 0 0.05 -527 -132)" d="M 11114,3063.04 L 11091.9,3063.04 L 11091.9,2848.01 L 11114,2848.01 L 11114,3063.04 Z " /><path stroke="none" fill="#000000" transform="matrix(0.05 0 0 0.05 -527 -132)" d="M 11075.2,3059.32 L 11075.2,3033.66 L 11346.2,3190.11 L 11324,3202.94 L 11075.2,3059.32 Z " /><path stroke="none" fill="#000000" transform="matrix(0.05 0 0 0.05 -527 -132)" d="M 11324,3202.94 L 11346.2,3190.11 L 11345.7,3496.32 L 11323.5,3496.32 L 11324,3202.94 Z " /><path stroke="#000000" stroke-width="18" fill="none" transform="matrix(0.05 0 0 0.05 -527 -132)" d="M 10612.9,3157.34 A 68.8704,68.8704 0 1 0 10750.6,3157.34A 68.8704,68.8704 0 1 0 10612.9,3157.34Z " /><path stroke="none" fill="#000000" transform="matrix(0.05 0 0 0.05 -527 -132)" d="M 10640.7,3148.34 L 10722.8,3148.34 L 10722.8,3166.34 L 10640.7,3166.34 Z " /><path stroke="none" fill="#000000" transform="matrix(0.05 0 0 0.05 -527 -132)" d="M 10838.7,3412.48 L 10844.3,3507.66 L 10822.3,3508.66 L 10816.7,3413.48 Z " /><path stroke="none" fill="#000000" transform="matrix(0.05 0 0 0.05 -527 -132)" d="M 10820,3282.11 C 10820,3282.11 10867.6,3429.58 10867.6,3429.58 C 10867.6,3429.58 10844.7,3412.56 10827.8,3413.97 C 10810.9,3415.39 10790.2,3436.04 10790.2,3436.04 C 10790.2,3436.04 10820,3282.11 10820,3282.11 C 10820,3282.11 10820,3282.11 10820,3282.11 " /><path stroke="#000000" stroke-width="1" fill="none" transform="matrix(0.05 0 0 0.05 -527 -132)" d="M 10820,3282.11 C 10820,3282.11 10867.6,3429.58 10867.6,3429.58 C 10867.6,3429.58 10844.7,3412.56 10827.8,3413.97 C 10810.9,3415.39 10790.2,3436.04 10790.2,3436.04 C 10790.2,3436.04 10820,3282.11 10820,3282.11 C 10820,3282.11 10820,3282.11 10820,3282.11 " /></svg>