<?xml version="1.0" standalone="no" ?><!DOCTYPE svg PUBLIC "-//W3C//DTD SVG 1.1//EN" "http://www.w3.org/Graphics/SVG/1.1/DTD/svg11.dtd"><svg width="47px" height="31px" viewBox="0 0 47 31" style="background-color: #ffffff00" xmlns="http://www.w3.org/2000/svg" xmlns:xlink="http://www.w3.org/1999/xlink" version="1.1" ><path stroke="none" fill="#000000" transform="matrix(0.05 0 0 0.05 -602 -144)" d="M 12128.2,2984.73 L 12134,2963.31 L 12422.8,3040.7 L 12417.1,3062.12 L 12128.2,2984.73 Z " /><path stroke="none" fill="#000000" transform="matrix(0.05 0 0 0.05 -602 -144)" d="M 12113.9,3038.28 L 12119.6,3016.86 L 12408.4,3094.25 L 12402.7,3115.67 L 12113.9,3038.28 Z " /><path stroke="none" fill="#000000" transform="matrix(0.05 0 0 0.05 -602 -144)" d="M 12417.1,3062.12 L 12422.8,3040.7 L 12727.1,3122.23 L 12721.3,3143.65 L 12417.1,3062.12 Z " /><path stroke="none" fill="#000000" transform="matrix(0.05 0 0 0.05 -602 -144)" d="M 12402.7,3115.67 L 12408.4,3094.25 L 12712.7,3175.78 L 12707,3197.2 L 12402.7,3115.67 Z " /><path stroke="none" fill="#000000" transform="matrix(0.05 0 0 0.05 -602 -144)" d="M 12713.4,3158.75 L 12688.6,3152.11 L 12905.2,2936.31 L 12920.8,2951.99 L 12713.4,3158.75 Z " /><path stroke="none" fill="#000000" transform="matrix(0.05 0 0 0.05 -602 -144)" d="M 12357.3,3078.69 A 55.9398,55.9398 0 1 0 12469.2,3078.69A 55.9398,55.9398 0 1 0 12357.3,3078.69Z " /><path stroke="none" fill="#000000" transform="matrix(0.05 0 0 0.05 -602 -144)" d="M 12688.6,3152.11 L 12713.4,3158.75 L 12789.7,3441.52 L 12768.2,3447.25 L 12688.6,3152.11 Z " /><path stroke="none" fill="#000000" transform="matrix(0.05 0 0 0.05 -602 -144)" d="M 12144.1,3252.63 L 12149.7,3347.82 L 12127.7,3348.82 L 12122.1,3253.63 Z " /><path stroke="none" fill="#000000" transform="matrix(0.05 0 0 0.05 -602 -144)" d="M 12125.3,3122.27 C 12125.3,3122.27 12172.9,3269.74 12172.9,3269.74 C 12172.9,3269.74 12150.1,3252.72 12133.1,3254.13 C 12116.2,3255.54 12095.6,3276.2 12095.6,3276.2 C 12095.6,3276.2 12125.3,3122.27 12125.3,3122.27 C 12125.3,3122.27 12125.3,3122.27 12125.3,3122.27 " /><path stroke="#000000" stroke-width="1" fill="none" transform="matrix(0.05 0 0 0.05 -602 -144)" d="M 12125.3,3122.27 C 12125.3,3122.27 12172.9,3269.74 12172.9,3269.74 C 12172.9,3269.74 12150.1,3252.72 12133.1,3254.13 C 12116.2,3255.54 12095.6,3276.2 12095.6,3276.2 C 12095.6,3276.2 12125.3,3122.27 12125.3,3122.27 C 12125.3,3122.27 12125.3,3122.27 12125.3,3122.27 " /></svg>