<?xml version="1.0" standalone="no" ?><!DOCTYPE svg PUBLIC "-//W3C//DTD SVG 1.1//EN" "http://www.w3.org/Graphics/SVG/1.1/DTD/svg11.dtd"><svg width="71px" height="39px" viewBox="0 0 71 39" style="background-color: #ffffff00" xmlns="http://www.w3.org/2000/svg" xmlns:xlink="http://www.w3.org/1999/xlink" version="1.1" ><path stroke="none" fill="#000000" transform="matrix(0.05 0 0 0.05 -682 -138)" d="M 13693.2,3270.53 L 13715.4,3257.7 L 13962.9,3400.56 L 13962.9,3426.21 L 13693.2,3270.53 Z " /><path stroke="none" fill="#000000" transform="matrix(0.05 0 0 0.05 -682 -138)" d="M 13754.7,3241.43 L 13765.8,3222.23 L 13968.4,3339.22 L 13957.3,3358.42 L 13754.7,3241.43 Z " /><path stroke="none" fill="#000000" transform="matrix(0.05 0 0 0.05 -682 -138)" d="M 13962.9,3426.21 L 13962.9,3400.56 L 14210.3,3257.7 L 14220.9,3263.84 L 14221.2,3275.99 L 13962.9,3426.21 Z " /><path stroke="none" fill="#000000" transform="matrix(0.05 0 0 0.05 -682 -138)" d="M 14231.6,3257.98 L 14220.9,3263.84 L 14210.3,3257.7 L 14210.3,2971.98 L 14232.5,2959.15 L 14231.6,3257.98 Z " /><path stroke="none" fill="#000000" transform="matrix(0.05 0 0 0.05 -682 -138)" d="M 14176.6,3231.83 L 14154.4,3231.83 L 14154.4,2997.85 L 14176.6,2997.85 L 14176.6,3231.83 Z " /><path stroke="none" fill="#000000" transform="matrix(0.05 0 0 0.05 -682 -138)" d="M 14232.5,2959.15 L 14210.3,2971.98 L 13962.9,2829.11 L 13962.9,2803.46 L 14232.5,2959.15 Z " /><path stroke="none" fill="#000000" transform="matrix(0.05 0 0 0.05 -682 -138)" d="M 13962.9,2803.46 L 13962.9,2829.11 L 13715.4,2971.98 L 13693.2,2959.15 L 13962.9,2803.46 Z " /><path stroke="none" fill="#000000" transform="matrix(0.05 0 0 0.05 -682 -138)" d="M 13957.3,2871.25 L 13968.4,2890.46 L 13765.8,3007.45 L 13754.7,2988.24 L 13957.3,2871.25 Z " /><path stroke="none" fill="#000000" transform="matrix(0.05 0 0 0.05 -682 -138)" d="M 13693.2,2959.15 L 13715.4,2971.98 L 13715.4,3257.7 L 13693.2,3270.53 L 13693.2,2959.15 Z " /><text x="0" y="0" stroke="none" fill="#000000" transform="matrix(0.05 0 0 0.05 38.45 35.8806)" font-style="normal" font-weight="bold" font-size="180px" font-family="Helvetica" >O</text><path stroke="none" fill="#000000" transform="matrix(0.05 0 0 0.05 -682 -138)" d="M 14221.2,3275.99 L 14220.9,3263.84 L 14231.6,3257.98 L 14402.2,3355.67 L 14391.1,3374.88 L 14221.2,3275.99 Z " /><path stroke="none" fill="#000000" transform="matrix(0.05 0 0 0.05 -682 -138)" d="M 14569,3373.69 L 14557.9,3354.48 L 14736.9,3250.32 L 14736.8,3275.99 L 14569,3373.69 Z " /><path stroke="none" fill="#000000" transform="matrix(0.05 0 0 0.05 -682 -138)" d="M 14736.8,3275.99 L 14736.9,3250.32 L 15000.7,3403.23 L 14989.6,3422.44 L 14736.8,3275.99 Z " /><path stroke="none" fill="#000000" transform="matrix(0.05 0 0 0.05 -682 -138)" d="M 14732.8,3057.12 L 14738.4,2961.93 L 14760.4,2962.93 L 14754.8,3058.12 Z " /><path stroke="none" fill="#000000" transform="matrix(0.05 0 0 0.05 -682 -138)" d="M 14736.1,3188.48 C 14736.1,3188.48 14706.3,3034.55 14706.3,3034.55 C 14706.3,3034.55 14726.9,3055.21 14743.9,3056.62 C 14760.8,3058.03 14783.6,3041.01 14783.6,3041.01 C 14783.6,3041.01 14736.1,3188.48 14736.1,3188.48 C 14736.1,3188.48 14736.1,3188.48 14736.1,3188.48 " /><path stroke="#000000" stroke-width="1" fill="none" transform="matrix(0.05 0 0 0.05 -682 -138)" d="M 14736.1,3188.48 C 14736.1,3188.48 14706.3,3034.55 14706.3,3034.55 C 14706.3,3034.55 14726.9,3055.21 14743.9,3056.62 C 14760.8,3058.03 14783.6,3041.01 14783.6,3041.01 C 14783.6,3041.01 14736.1,3188.48 14736.1,3188.48 C 14736.1,3188.48 14736.1,3188.48 14736.1,3188.48 " /></svg>