<?xml version="1.0" standalone="no" ?><!DOCTYPE svg PUBLIC "-//W3C//DTD SVG 1.1//EN" "http://www.w3.org/Graphics/SVG/1.1/DTD/svg11.dtd"><svg width="32px" height="59px" viewBox="0 0 32 59" style="background-color: #ffffff00" xmlns="http://www.w3.org/2000/svg" xmlns:xlink="http://www.w3.org/1999/xlink" version="1.1" ><path stroke="none" fill="#000000" transform="matrix(0.05 0 0 0.05 -39 -208)" d="M 844.704,5284.32 L 833.616,5265.12 L 1087.92,5118.82 L 1098.55,5124.96 L 1098.55,5137.24 L 844.704,5284.32 Z " /><path stroke="none" fill="#000000" transform="matrix(0.05 0 0 0.05 -39 -208)" d="M 1098.55,5137.24 L 1098.55,5124.96 L 1109.18,5118.82 L 1363.49,5265.12 L 1352.4,5284.32 L 1098.55,5137.24 Z " /><path stroke="none" fill="#000000" transform="matrix(0.05 0 0 0.05 -39 -208)" d="M 1109.18,5118.82 L 1098.55,5124.96 L 1087.92,5118.82 L 1087.92,4831.58 L 1098.55,4825.44 L 1109.18,4831.58 L 1109.18,5118.82 Z " /><path stroke="none" fill="#000000" transform="matrix(0.05 0 0 0.05 -39 -208)" d="M 1109.18,4831.58 L 1098.55,4825.44 L 1098.55,4813.16 L 1347.31,4669.54 L 1369.53,4682.37 L 1109.18,4831.58 Z " /><path stroke="none" fill="#000000" transform="matrix(0.05 0 0 0.05 -39 -208)" d="M 1369.53,4682.37 L 1347.31,4669.54 L 1347.31,4382.3 L 1369.53,4369.47 L 1369.53,4682.37 Z " /><path stroke="none" fill="#000000" transform="matrix(0.05 0 0 0.05 -39 -208)" d="M 1369.53,4369.47 L 1347.31,4382.3 L 1098.55,4238.68 L 1098.55,4213.02 L 1369.53,4369.47 Z " /><path stroke="none" fill="#000000" transform="matrix(0.05 0 0 0.05 -39 -208)" d="M 1098.55,4213.02 L 1098.55,4238.68 L 849.793,4382.3 L 827.576,4369.47 L 1098.55,4213.02 Z " /><path stroke="none" fill="#000000" transform="matrix(0.05 0 0 0.05 -39 -208)" d="M 827.576,4369.47 L 849.793,4382.3 L 849.793,4669.54 L 827.576,4682.37 L 827.576,4369.47 Z " /><path stroke="none" fill="#000000" transform="matrix(0.05 0 0 0.05 -39 -208)" d="M 827.576,4682.37 L 849.793,4669.54 L 1098.55,4813.16 L 1098.55,4825.44 L 1087.92,4831.58 L 827.576,4682.37 Z " /><path stroke="none" fill="#000000" transform="matrix(0.05 0 0 0.05 -39 -208)" d="M 918.998,4919.22 L 836.114,4966.36 L 825.114,4947.36 L 907.998,4900.22 Z " /><path stroke="none" fill="#000000" transform="matrix(0.05 0 0 0.05 -39 -208)" d="M 1027.45,4844.92 C 1027.45,4844.92 915.882,4953.35 915.882,4953.35 C 915.882,4953.35 921.229,4925.01 912.629,4910.22 C 904.029,4895.43 876.569,4885.74 876.569,4885.74 C 876.569,4885.74 1027.45,4844.92 1027.45,4844.92 C 1027.45,4844.92 1027.45,4844.92 1027.45,4844.92 " /><path stroke="#000000" stroke-width="1" fill="none" transform="matrix(0.05 0 0 0.05 -39 -208)" d="M 1027.45,4844.92 C 1027.45,4844.92 915.882,4953.35 915.882,4953.35 C 915.882,4953.35 921.229,4925.01 912.629,4910.22 C 904.029,4895.43 876.569,4885.74 876.569,4885.74 C 876.569,4885.74 1027.45,4844.92 1027.45,4844.92 C 1027.45,4844.92 1027.45,4844.92 1027.45,4844.92 " /></svg>