<?xml version="1.0" standalone="no" ?><!DOCTYPE svg PUBLIC "-//W3C//DTD SVG 1.1//EN" "http://www.w3.org/Graphics/SVG/1.1/DTD/svg11.dtd"><svg width="46px" height="45px" viewBox="0 0 46 45" style="background-color: #ffffff00" xmlns="http://www.w3.org/2000/svg" xmlns:xlink="http://www.w3.org/1999/xlink" version="1.1" ><path stroke="none" fill="#000000" transform="matrix(0.05 0 0 0.05 -83 -215)" d="M 1980.45,4451.13 L 2002.69,4467.28 L 2002.69,4751 L 1980.45,4767.15 L 1980.45,4451.13 Z " /><path stroke="none" fill="#000000" transform="matrix(0.05 0 0 0.05 -83 -215)" d="M 1980.45,4767.15 L 2002.69,4751 L 2272.51,4838.67 L 2276.53,4851.04 L 2271.77,4861.03 L 1980.45,4767.15 Z " /><path stroke="none" fill="#000000" transform="matrix(0.05 0 0 0.05 -83 -215)" d="M 2290.06,4850.2 L 2276.53,4851.04 L 2272.51,4838.67 L 2439.28,4609.14 L 2466.77,4609.14 L 2290.06,4850.2 Z " /><path stroke="none" fill="#000000" transform="matrix(0.05 0 0 0.05 -83 -215)" d="M 2466.77,4609.14 L 2439.28,4609.14 L 2272.51,4379.61 L 2281.01,4353.47 L 2466.77,4609.14 Z " /><path stroke="none" fill="#000000" transform="matrix(0.05 0 0 0.05 -83 -215)" d="M 2281.01,4353.47 L 2272.51,4379.61 L 2002.69,4467.28 L 1980.45,4451.13 L 2281.01,4353.47 Z " /><path stroke="none" fill="#000000" transform="matrix(0.05 0 0 0.05 -83 -215)" d="M 2271.77,4861.03 L 2276.53,4851.04 L 2290.06,4850.2 L 2521.14,5026.23 L 2476.33,5075.99 L 2271.77,4861.03 Z " /><path stroke="none" fill="#000000" transform="matrix(0.05 0 0 0.05 -83 -215)" d="M 2254.57,4901.02 L 2276.26,4905.63 L 2273.63,4927.74 L 2247.98,4922.29 L 2254.57,4901.02 Z " /><path stroke="none" fill="#000000" transform="matrix(0.05 0 0 0.05 -83 -215)" d="M 2237.98,4954.58 L 2269.63,4961.31 L 2267,4983.42 L 2231.39,4975.85 L 2237.98,4954.58 Z " /><path stroke="none" fill="#000000" transform="matrix(0.05 0 0 0.05 -83 -215)" d="M 2221.39,5008.15 L 2263.01,5016.99 L 2260.37,5039.1 L 2214.8,5029.42 L 2221.39,5008.15 Z " /><path stroke="none" fill="#000000" transform="matrix(0.05 0 0 0.05 -83 -215)" d="M 2204.8,5061.71 L 2256.38,5072.67 L 2253.74,5094.78 L 2198.21,5082.98 L 2204.8,5061.71 Z " /><path stroke="none" fill="#000000" transform="matrix(0.05 0 0 0.05 -83 -215)" d="M 2188.21,5115.27 L 2249.75,5128.35 L 2247.12,5150.46 L 2181.62,5136.54 L 2188.21,5115.27 Z " /><path stroke="#000000" stroke-width="18" fill="none" transform="matrix(0.05 0 0 0.05 -83 -215)" d="M 1830.26,4846.42 A 68.8704,68.8704 0 1 0 1968,4846.42A 68.8704,68.8704 0 1 0 1830.26,4846.42Z " /><path stroke="none" fill="#000000" transform="matrix(0.05 0 0 0.05 -83 -215)" d="M 1858.04,4837.42 L 1940.22,4837.42 L 1940.22,4855.42 L 1858.04,4855.42 Z " /><path stroke="none" fill="#000000" transform="matrix(0.05 0 0 0.05 -83 -215)" d="M 1908.13,4805.33 L 1908.13,4887.51 L 1890.13,4887.51 L 1890.13,4805.33 Z " /><path stroke="none" fill="#000000" transform="matrix(0.05 0 0 0.05 -83 -215)" d="M 1808.44,4691.91 L 1720.13,4655.95 L 1728.13,4634.95 L 1816.44,4670.91 Z " /><path stroke="none" fill="#000000" transform="matrix(0.05 0 0 0.05 -83 -215)" d="M 1933.85,4730.84 C 1933.85,4730.84 1778.8,4709.87 1778.8,4709.87 C 1778.8,4709.87 1804.85,4696.76 1811.51,4681.03 C 1818.18,4665.3 1809.27,4637.96 1809.27,4637.96 C 1809.27,4637.96 1933.85,4730.84 1933.85,4730.84 C 1933.85,4730.84 1933.85,4730.84 1933.85,4730.84 " /><path stroke="#000000" stroke-width="1" fill="none" transform="matrix(0.05 0 0 0.05 -83 -215)" d="M 1933.85,4730.84 C 1933.85,4730.84 1778.8,4709.87 1778.8,4709.87 C 1778.8,4709.87 1804.85,4696.76 1811.51,4681.03 C 1818.18,4665.3 1809.27,4637.96 1809.27,4637.96 C 1809.27,4637.96 1933.85,4730.84 1933.85,4730.84 C 1933.85,4730.84 1933.85,4730.84 1933.85,4730.84 " /></svg>