<?xml version="1.0" standalone="no" ?><!DOCTYPE svg PUBLIC "-//W3C//DTD SVG 1.1//EN" "http://www.w3.org/Graphics/SVG/1.1/DTD/svg11.dtd"><svg width="45px" height="50px" viewBox="0 0 45 50" style="background-color: #ffffff00" xmlns="http://www.w3.org/2000/svg" xmlns:xlink="http://www.w3.org/1999/xlink" version="1.1" ><path stroke="none" fill="#000000" transform="matrix(0.05 0 0 0.05 -142 -216)" d="M 3426.55,4512.8 L 3448.73,4512.8 L 3448.73,4844.32 L 3426.55,4844.32 L 3426.55,4512.8 Z " /><path stroke="none" fill="#000000" transform="matrix(0.05 0 0 0.05 -142 -216)" d="M 3371.11,4512.8 L 3393.29,4512.8 L 3393.29,4844.32 L 3371.11,4844.32 L 3371.11,4512.8 Z " /><path stroke="none" fill="#000000" transform="matrix(0.05 0 0 0.05 -142 -216)" d="M 3409.92,4516.52 L 3409.92,4542.17 L 3144.98,4388.64 L 3156.07,4369.44 L 3409.92,4516.52 Z " /><path stroke="none" fill="#000000" transform="matrix(0.05 0 0 0.05 -142 -216)" d="M 3409.92,4542.17 L 3409.92,4516.52 L 3663.77,4369.44 L 3674.86,4388.64 L 3409.92,4542.17 Z " /><path stroke="none" fill="#000000" transform="matrix(0.05 0 0 0.05 -142 -216)" d="M 3409.92,4840.6 L 3409.92,4814.94 L 3680.89,4971.39 L 3658.68,4984.22 L 3409.92,4840.6 Z " /><path stroke="none" fill="#000000" transform="matrix(0.05 0 0 0.05 -142 -216)" d="M 3409.92,4814.94 L 3409.92,4840.6 L 3150.53,4991.45 L 3150.53,4965.8 L 3409.92,4814.94 Z " /><path stroke="none" fill="#000000" transform="matrix(0.05 0 0 0.05 -142 -216)" d="M 3658.68,4984.22 L 3680.89,4971.39 L 3680.4,5277.6 L 3658.22,5277.6 L 3658.68,4984.22 Z " /><path stroke="none" fill="#000000" transform="matrix(0.05 0 0 0.05 -142 -216)" d="M 3150.53,4965.8 L 3150.53,4991.45 L 2885.59,4837.92 L 2896.68,4818.72 L 3150.53,4965.8 Z " /><path stroke="#000000" stroke-width="18" fill="none" transform="matrix(0.05 0 0 0.05 -142 -216)" d="M 3134.44,5097.76 A 68.8704,68.8704 0 1 0 3272.18,5097.76A 68.8704,68.8704 0 1 0 3134.44,5097.76Z " /><path stroke="none" fill="#000000" transform="matrix(0.05 0 0 0.05 -142 -216)" d="M 3162.22,5088.76 L 3244.4,5088.76 L 3244.4,5106.76 L 3162.22,5106.76 Z " /><path stroke="none" fill="#000000" transform="matrix(0.05 0 0 0.05 -142 -216)" d="M 3212.31,5056.67 L 3212.31,5138.84 L 3194.31,5138.84 L 3194.31,5056.67 Z " /><path stroke="none" fill="#000000" transform="matrix(0.05 0 0 0.05 -142 -216)" d="M 3016.55,5105.48 L 2947.86,5171.62 L 2932.86,5155.62 L 3001.55,5089.48 Z " /><path stroke="none" fill="#000000" transform="matrix(0.05 0 0 0.05 -142 -216)" d="M 3103.48,5006.55 C 3103.48,5006.55 3021.91,5139.45 3021.91,5139.45 C 3021.91,5139.45 3020.22,5110.5 3008.33,5098.17 C 2996.44,5085.84 2967.56,5083.08 2967.56,5083.08 C 2967.56,5083.08 3103.48,5006.55 3103.48,5006.55 C 3103.48,5006.55 3103.48,5006.55 3103.48,5006.55 " /><path stroke="#000000" stroke-width="1" fill="none" transform="matrix(0.05 0 0 0.05 -142 -216)" d="M 3103.48,5006.55 C 3103.48,5006.55 3021.91,5139.45 3021.91,5139.45 C 3021.91,5139.45 3020.22,5110.5 3008.33,5098.17 C 2996.44,5085.84 2967.56,5083.08 2967.56,5083.08 C 2967.56,5083.08 3103.48,5006.55 3103.48,5006.55 C 3103.48,5006.55 3103.48,5006.55 3103.48,5006.55 " /></svg>