<?xml version="1.0" standalone="no" ?><!DOCTYPE svg PUBLIC "-//W3C//DTD SVG 1.1//EN" "http://www.w3.org/Graphics/SVG/1.1/DTD/svg11.dtd"><svg width="42px" height="46px" viewBox="0 0 42 46" style="background-color: #ffffff00" xmlns="http://www.w3.org/2000/svg" xmlns:xlink="http://www.w3.org/1999/xlink" version="1.1" ><path stroke="none" fill="#000000" transform="matrix(0.05 0 0 0.05 -226 -213)" d="M 4587.62,4844.76 L 4576.54,4825.56 L 4841.47,4672.02 L 4841.47,4697.68 L 4587.62,4844.76 Z " /><text x="0" y="0" stroke="none" fill="#000000" transform="matrix(0.05 0 0 0.05 12.5733 9.53276)" font-style="normal" font-weight="bold" font-size="180px" font-family="Helvetica" >O</text><path stroke="none" fill="#000000" transform="matrix(0.05 0 0 0.05 -226 -213)" d="M 4824.84,4701.4 L 4802.66,4701.4 L 4802.66,4486.37 L 4824.84,4486.37 L 4824.84,4701.4 Z " /><path stroke="none" fill="#000000" transform="matrix(0.05 0 0 0.05 -226 -213)" d="M 4880.28,4701.4 L 4858.1,4701.4 L 4858.1,4486.37 L 4880.28,4486.37 L 4880.28,4701.4 Z " /><path stroke="none" fill="#000000" transform="matrix(0.05 0 0 0.05 -226 -213)" d="M 4841.47,4697.68 L 4841.47,4672.02 L 5112.45,4828.47 L 5090.23,4841.3 L 4841.47,4697.68 Z " /><path stroke="none" fill="#000000" transform="matrix(0.05 0 0 0.05 -226 -213)" d="M 5090.23,4841.3 L 5112.45,4828.47 L 5111.95,5134.68 L 5089.78,5134.68 L 5090.23,4841.3 Z " /><path stroke="#000000" stroke-width="18" fill="none" transform="matrix(0.05 0 0 0.05 -226 -213)" d="M 5151.67,4835.66 A 68.8704,68.8704 0 1 0 5289.41,4835.66A 68.8704,68.8704 0 1 0 5151.67,4835.66Z " /><path stroke="none" fill="#000000" transform="matrix(0.05 0 0 0.05 -226 -213)" d="M 5179.45,4826.66 L 5261.63,4826.66 L 5261.63,4844.66 L 5179.45,4844.66 Z " /><path stroke="none" fill="#000000" transform="matrix(0.05 0 0 0.05 -226 -213)" d="M 5102.44,4615.56 L 5108.06,4520.37 L 5130.06,4521.37 L 5124.44,4616.56 Z " /><path stroke="none" fill="#000000" transform="matrix(0.05 0 0 0.05 -226 -213)" d="M 5105.7,4746.92 C 5105.7,4746.92 5075.93,4592.99 5075.93,4592.99 C 5075.93,4592.99 5096.57,4613.65 5113.49,4615.06 C 5130.41,4616.47 5153.28,4599.45 5153.28,4599.45 C 5153.28,4599.45 5105.7,4746.92 5105.7,4746.92 C 5105.7,4746.92 5105.7,4746.92 5105.7,4746.92 " /><path stroke="#000000" stroke-width="1" fill="none" transform="matrix(0.05 0 0 0.05 -226 -213)" d="M 5105.7,4746.92 C 5105.7,4746.92 5075.93,4592.99 5075.93,4592.99 C 5075.93,4592.99 5096.57,4613.65 5113.49,4615.06 C 5130.41,4616.47 5153.28,4599.45 5153.28,4599.45 C 5153.28,4599.45 5105.7,4746.92 5105.7,4746.92 C 5105.7,4746.92 5105.7,4746.92 5105.7,4746.92 " /></svg>