<?xml version="1.0" standalone="no" ?><!DOCTYPE svg PUBLIC "-//W3C//DTD SVG 1.1//EN" "http://www.w3.org/Graphics/SVG/1.1/DTD/svg11.dtd"><svg width="40px" height="31px" viewBox="0 0 40 31" style="background-color: #ffffff00" xmlns="http://www.w3.org/2000/svg" xmlns:xlink="http://www.w3.org/1999/xlink" version="1.1" ><path stroke="none" fill="#000000" transform="matrix(0.05 0 0 0.05 -286 -210)" d="M 5775.2,4711.43 L 5764.11,4692.23 L 6028.78,4538.82 L 6028.83,4564.49 L 5775.2,4711.43 Z " /><text x="0" y="0" stroke="none" fill="#000000" transform="matrix(0.05 0 0 0.05 25.127 28.3303)" font-style="normal" font-weight="bold" font-size="180px" font-family="Helvetica" >CN</text><path stroke="none" fill="#000000" transform="matrix(0.05 0 0 0.05 -286 -210)" d="M 6028.83,4564.49 L 6028.78,4538.82 L 6213.64,4646.36 L 6202.55,4665.57 L 6028.83,4564.49 Z " /><path stroke="#000000" stroke-width="18" fill="none" transform="matrix(0.05 0 0 0.05 -286 -210)" d="M 5852.66,4432.65 A 68.8704,68.8704 0 1 0 5990.4,4432.65A 68.8704,68.8704 0 1 0 5852.66,4432.65Z " /><path stroke="none" fill="#000000" transform="matrix(0.05 0 0 0.05 -286 -210)" d="M 5880.44,4423.65 L 5962.62,4423.65 L 5962.62,4441.65 L 5880.44,4441.65 Z " /><path stroke="none" fill="#000000" transform="matrix(0.05 0 0 0.05 -286 -210)" d="M 6106.29,4346.4 L 6134.81,4255.42 L 6155.81,4262.42 L 6127.29,4353.4 Z " /><path stroke="none" fill="#000000" transform="matrix(0.05 0 0 0.05 -286 -210)" d="M 6077.58,4474.99 C 6077.58,4474.99 6085.72,4318.66 6085.72,4318.66 C 6085.72,4318.66 6100.9,4343.57 6117.09,4348.95 C 6133.28,4354.33 6159.75,4343.23 6159.75,4343.23 C 6159.75,4343.23 6077.58,4474.99 6077.58,4474.99 C 6077.58,4474.99 6077.58,4474.99 6077.58,4474.99 " /><path stroke="#000000" stroke-width="1" fill="none" transform="matrix(0.05 0 0 0.05 -286 -210)" d="M 6077.58,4474.99 C 6077.58,4474.99 6085.72,4318.66 6085.72,4318.66 C 6085.72,4318.66 6100.9,4343.57 6117.09,4348.95 C 6133.28,4354.33 6159.75,4343.23 6159.75,4343.23 C 6159.75,4343.23 6077.58,4474.99 6077.58,4474.99 C 6077.58,4474.99 6077.58,4474.99 6077.58,4474.99 " /></svg>