<?xml version="1.0" standalone="no" ?><!DOCTYPE svg PUBLIC "-//W3C//DTD SVG 1.1//EN" "http://www.w3.org/Graphics/SVG/1.1/DTD/svg11.dtd"><svg width="71px" height="43px" viewBox="0 0 71 43" style="background-color: #ffffff00" xmlns="http://www.w3.org/2000/svg" xmlns:xlink="http://www.w3.org/1999/xlink" version="1.1" ><path stroke="none" fill="#000000" transform="matrix(0.05 0 0 0.05 -348 -211)" d="M 7025.18,4738.2 L 7014.1,4719 L 7279.03,4565.46 L 7279.03,4591.12 L 7025.18,4738.2 Z " /><path stroke="none" fill="#000000" transform="matrix(0.05 0 0 0.05 -348 -211)" d="M 7279.03,4591.12 L 7279.03,4565.46 L 7538.42,4716.32 L 7538.42,4728.6 L 7527.79,4734.74 L 7279.03,4591.12 Z " /><path stroke="none" fill="#000000" transform="matrix(0.05 0 0 0.05 -348 -211)" d="M 7549.06,4734.74 L 7538.42,4728.6 L 7538.42,4716.32 L 7787.18,4572.7 L 7797.82,4578.84 L 7797.82,4591.12 L 7549.06,4734.74 Z " /><path stroke="none" fill="#000000" transform="matrix(0.05 0 0 0.05 -348 -211)" d="M 7797.82,4591.12 L 7797.82,4578.84 L 7808.45,4572.7 L 8057.21,4716.32 L 8057.21,4728.6 L 8046.57,4734.74 L 7797.82,4591.12 Z " /><path stroke="none" fill="#000000" transform="matrix(0.05 0 0 0.05 -348 -211)" d="M 8067.84,4734.74 L 8057.21,4728.6 L 8057.21,4716.32 L 8311.06,4569.24 L 8322.14,4588.44 L 8067.84,4734.74 Z " /><path stroke="none" fill="#000000" transform="matrix(0.05 0 0 0.05 -348 -211)" d="M 7527.79,4734.74 L 7538.42,4728.6 L 7549.06,4734.74 L 7549.51,5028.12 L 7527.34,5028.12 L 7527.79,4734.74 Z " /><path stroke="none" fill="#000000" transform="matrix(0.05 0 0 0.05 -348 -211)" d="M 7808.45,4572.7 L 7797.82,4578.84 L 7787.18,4572.7 L 7786.73,4279.32 L 7808.9,4279.32 L 7808.45,4572.7 Z " /><path stroke="none" fill="#000000" transform="matrix(0.05 0 0 0.05 -348 -211)" d="M 8046.57,4734.74 L 8057.21,4728.6 L 8067.84,4734.74 L 8068.3,5028.12 L 8046.12,5028.12 L 8046.57,4734.74 Z " /><path stroke="none" fill="#000000" transform="matrix(0.05 0 0 0.05 -348 -211)" d="M 7584.81,4519.56 L 7613.33,4428.58 L 7634.33,4435.58 L 7605.81,4526.56 Z " /><path stroke="none" fill="#000000" transform="matrix(0.05 0 0 0.05 -348 -211)" d="M 7556.1,4648.15 C 7556.1,4648.15 7564.24,4491.82 7564.24,4491.82 C 7564.24,4491.82 7579.42,4516.73 7595.61,4522.11 C 7611.8,4527.49 7638.27,4516.39 7638.27,4516.39 C 7638.27,4516.39 7556.1,4648.15 7556.1,4648.15 C 7556.1,4648.15 7556.1,4648.15 7556.1,4648.15 " /><path stroke="#000000" stroke-width="1" fill="none" transform="matrix(0.05 0 0 0.05 -348 -211)" d="M 7556.1,4648.15 C 7556.1,4648.15 7564.24,4491.82 7564.24,4491.82 C 7564.24,4491.82 7579.42,4516.73 7595.61,4522.11 C 7611.8,4527.49 7638.27,4516.39 7638.27,4516.39 C 7638.27,4516.39 7556.1,4648.15 7556.1,4648.15 C 7556.1,4648.15 7556.1,4648.15 7556.1,4648.15 " /></svg>