<?xml version="1.0" standalone="no" ?><!DOCTYPE svg PUBLIC "-//W3C//DTD SVG 1.1//EN" "http://www.w3.org/Graphics/SVG/1.1/DTD/svg11.dtd"><svg width="60px" height="42px" viewBox="0 0 60 42" style="background-color: #ffffff00" xmlns="http://www.w3.org/2000/svg" xmlns:xlink="http://www.w3.org/1999/xlink" version="1.1" ><path stroke="none" fill="#000000" transform="matrix(0.05 0 0 0.05 -445 -220)" d="M 9243.47,4676.11 L 9254.56,4656.9 L 9507.95,4803.73 L 9507.95,4816.01 L 9497.55,4822.3 L 9243.47,4676.11 Z " /><path stroke="none" fill="#000000" transform="matrix(0.05 0 0 0.05 -445 -220)" d="M 9518.35,4822.3 L 9507.95,4816.01 L 9507.95,4803.73 L 9761.35,4656.9 L 9772.44,4676.11 L 9518.35,4822.3 Z " /><path stroke="none" fill="#000000" transform="matrix(0.05 0 0 0.05 -445 -220)" d="M 9744.72,4628.1 L 9733.63,4608.89 L 9992.57,4459.39 L 10003.7,4478.6 L 9744.72,4628.1 Z " /><path stroke="none" fill="#000000" transform="matrix(0.05 0 0 0.05 -445 -220)" d="M 9772.44,4676.11 L 9761.35,4656.9 L 10020.3,4507.4 L 10031.4,4526.61 L 9772.44,4676.11 Z " /><path stroke="none" fill="#000000" transform="matrix(0.05 0 0 0.05 -445 -220)" d="M 9800.16,4724.12 L 9789.07,4704.92 L 10048,4555.42 L 10059.1,4574.62 L 9800.16,4724.12 Z " /><path stroke="none" fill="#000000" transform="matrix(0.05 0 0 0.05 -445 -220)" d="M 9226.84,4704.92 L 9215.75,4724.12 L 8956.81,4574.62 L 8967.89,4555.42 L 9226.84,4704.92 Z " /><path stroke="none" fill="#000000" transform="matrix(0.05 0 0 0.05 -445 -220)" d="M 9254.56,4656.9 L 9243.47,4676.11 L 8984.53,4526.61 L 8995.61,4507.4 L 9254.56,4656.9 Z " /><path stroke="none" fill="#000000" transform="matrix(0.05 0 0 0.05 -445 -220)" d="M 9282.28,4608.89 L 9271.19,4628.1 L 9012.25,4478.6 L 9023.33,4459.39 L 9282.28,4608.89 Z " /><text x="0" y="0" stroke="none" fill="#000000" transform="matrix(0.05 0 0 0.05 27.1479 39.0151)" font-style="normal" font-weight="bold" font-size="180px" font-family="Helvetica" >Cl</text><path stroke="none" fill="#000000" transform="matrix(0.05 0 0 0.05 -445 -220)" d="M 9497.55,4822.3 L 9507.95,4816.01 L 9518.35,4822.3 L 9519.04,5019.28 L 9496.87,5019.28 L 9497.55,4822.3 Z " /><path stroke="none" fill="#000000" transform="matrix(0.05 0 0 0.05 -445 -220)" d="M 9497.44,4615.9 L 9499.22,4520.57 L 9521.22,4520.57 L 9519.44,4615.9 Z " /><path stroke="none" fill="#000000" transform="matrix(0.05 0 0 0.05 -445 -220)" d="M 9505.99,4746.97 C 9505.99,4746.97 9470.08,4594.33 9470.08,4594.33 C 9470.08,4594.33 9491.51,4614.16 9508.46,4614.9 C 9525.4,4615.65 9547.55,4597.74 9547.55,4597.74 C 9547.55,4597.74 9505.99,4746.97 9505.99,4746.97 C 9505.99,4746.97 9505.99,4746.97 9505.99,4746.97 " /><path stroke="#000000" stroke-width="1" fill="none" transform="matrix(0.05 0 0 0.05 -445 -220)" d="M 9505.99,4746.97 C 9505.99,4746.97 9470.08,4594.33 9470.08,4594.33 C 9470.08,4594.33 9491.51,4614.16 9508.46,4614.9 C 9525.4,4615.65 9547.55,4597.74 9547.55,4597.74 C 9547.55,4597.74 9505.99,4746.97 9505.99,4746.97 C 9505.99,4746.97 9505.99,4746.97 9505.99,4746.97 " /></svg>