<?xml version="1.0" standalone="no" ?><!DOCTYPE svg PUBLIC "-//W3C//DTD SVG 1.1//EN" "http://www.w3.org/Graphics/SVG/1.1/DTD/svg11.dtd"><svg width="52px" height="46px" viewBox="0 0 52 46" style="background-color: #ffffff00" xmlns="http://www.w3.org/2000/svg" xmlns:xlink="http://www.w3.org/1999/xlink" version="1.1" ><text x="0" y="0" stroke="none" fill="#000000" transform="matrix(0.05 0 0 0.05 22.8418 23.8447)" font-style="normal" font-weight="bold" font-size="180px" font-family="Helvetica" >N</text><path stroke="none" fill="#000000" transform="matrix(0.05 0 0 0.05 -531 -211)" d="M 10888,4791.48 L 10876.9,4772.28 L 11042,4676.96 L 11053.1,4696.16 L 10888,4791.48 Z " /><text x="0" y="0" stroke="none" fill="#000000" transform="matrix(0.05 0 0 0.05 22.5913 8.86874)" font-style="normal" font-weight="bold" font-size="180px" font-family="Helvetica" >O</text><path stroke="none" fill="#000000" transform="matrix(0.05 0 0 0.05 -531 -211)" d="M 11125.2,4536.1 L 11103,4536.1 L 11103,4433.09 L 11125.2,4433.09 L 11125.2,4536.1 Z " /><path stroke="none" fill="#000000" transform="matrix(0.05 0 0 0.05 -531 -211)" d="M 11180.6,4536.1 L 11158.5,4536.1 L 11158.5,4433.09 L 11180.6,4433.09 L 11180.6,4536.1 Z " /><text x="0" y="0" stroke="none" fill="#000000" transform="matrix(0.05 0 0 0.05 35.5609 31.3327)" font-style="normal" font-weight="bold" font-size="180px" font-family="Helvetica" >O</text><path stroke="none" fill="#000000" transform="matrix(0.05 0 0 0.05 -531 -211)" d="M 11229.5,4695.53 L 11240.6,4676.33 L 11323.6,4724.28 L 11312.5,4743.49 L 11229.5,4695.53 Z " /><path stroke="#000000" stroke-width="18" fill="none" transform="matrix(0.05 0 0 0.05 -531 -211)" d="M 10679.5,4742.42 A 68.8704,68.8704 0 1 0 10817.2,4742.42A 68.8704,68.8704 0 1 0 10679.5,4742.42Z " /><path stroke="none" fill="#000000" transform="matrix(0.05 0 0 0.05 -531 -211)" d="M 10707.3,4733.42 L 10789.4,4733.42 L 10789.4,4751.42 L 10707.3,4751.42 Z " /><path stroke="#000000" stroke-width="18" fill="none" transform="matrix(0.05 0 0 0.05 -531 -211)" d="M 11453.2,4662.05 A 68.8704,68.8704 0 1 0 11590.9,4662.05A 68.8704,68.8704 0 1 0 11453.2,4662.05Z " /><path stroke="none" fill="#000000" transform="matrix(0.05 0 0 0.05 -531 -211)" d="M 11481,4653.05 L 11563.2,4653.05 L 11563.2,4671.05 L 11481,4671.05 Z " /><path stroke="#000000" stroke-width="18" fill="none" transform="matrix(0.05 0 0 0.05 -531 -211)" d="M 11073.8,4816.57 A 68.8704,68.8704 0 1 0 11211.6,4816.57A 68.8704,68.8704 0 1 0 11073.8,4816.57Z " /><path stroke="none" fill="#000000" transform="matrix(0.05 0 0 0.05 -531 -211)" d="M 11101.6,4807.57 L 11183.8,4807.57 L 11183.8,4825.57 L 11101.6,4825.57 Z " /><path stroke="none" fill="#000000" transform="matrix(0.05 0 0 0.05 -531 -211)" d="M 11151.7,4775.48 L 11151.7,4857.66 L 11133.7,4857.66 L 11133.7,4775.48 Z " /><path stroke="none" fill="#000000" transform="matrix(0.05 0 0 0.05 -531 -211)" d="M 10905.3,4984.24 L 10910.9,5079.42 L 10888.9,5080.42 L 10883.3,4985.24 Z " /><path stroke="none" fill="#000000" transform="matrix(0.05 0 0 0.05 -531 -211)" d="M 10886.6,4853.87 C 10886.6,4853.87 10934.2,5001.34 10934.2,5001.34 C 10934.2,5001.34 10911.3,4984.32 10894.4,4985.73 C 10877.5,4987.15 10856.8,5007.8 10856.8,5007.8 C 10856.8,5007.8 10886.6,4853.87 10886.6,4853.87 C 10886.6,4853.87 10886.6,4853.87 10886.6,4853.87 " /><path stroke="#000000" stroke-width="1" fill="none" transform="matrix(0.05 0 0 0.05 -531 -211)" d="M 10886.6,4853.87 C 10886.6,4853.87 10934.2,5001.34 10934.2,5001.34 C 10934.2,5001.34 10911.3,4984.32 10894.4,4985.73 C 10877.5,4987.15 10856.8,5007.8 10856.8,5007.8 C 10856.8,5007.8 10886.6,4853.87 10886.6,4853.87 C 10886.6,4853.87 10886.6,4853.87 10886.6,4853.87 " /></svg>