<?xml version="1.0" encoding="UTF-8" standalone="no"?>
<!-- Created with Inkscape (http://www.inkscape.org/) -->

<svg
   width="12.553664mm"
   height="9.3807554mm"
   viewBox="0 0 12.553664 9.3807554"
   version="1.1"
   id="svg1"
   inkscape:version="1.4.2 (ebf0e940, 2025-05-08)"
   sodipodi:docname="3-h.svg"
   xmlns:inkscape="http://www.inkscape.org/namespaces/inkscape"
   xmlns:sodipodi="http://sodipodi.sourceforge.net/DTD/sodipodi-0.dtd"
   xmlns="http://www.w3.org/2000/svg"
   xmlns:svg="http://www.w3.org/2000/svg">
  <sodipodi:namedview
     id="namedview1"
     pagecolor="#ffffff"
     bordercolor="#000000"
     borderopacity="0.25"
     inkscape:showpageshadow="2"
     inkscape:pageopacity="0.0"
     inkscape:pagecheckerboard="0"
     inkscape:deskcolor="#d1d1d1"
     inkscape:document-units="mm"
     inkscape:zoom="5.6568543"
     inkscape:cx="-57.805979"
     inkscape:cy="13.523417"
     inkscape:window-width="1920"
     inkscape:window-height="956"
     inkscape:window-x="1728"
     inkscape:window-y="62"
     inkscape:window-maximized="0"
     inkscape:current-layer="layer1" />
  <defs
     id="defs1" />
  <g
     inkscape:label="Layer 1"
     inkscape:groupmode="layer"
     id="layer1"
     transform="translate(-64.30052,-202.40625)">
    <text
       x="69.934097"
       y="208.13481"
       stroke="none"
       fill="#000000"
       font-style="normal"
       font-weight="bold"
       font-size="2.38125px"
       font-family="Helvetica"
       id="text1"
       style="stroke-width:0.0132292">N</text>
    <path
       stroke="none"
       fill="#000000"
       d="m 67.435989,209.38612 -0.146844,-0.254 2.184136,-1.261 0.146844,0.254 z"
       id="path1"
       style="stroke-width:0.0132292" />
    <path
       stroke="none"
       fill="#000000"
       d="m 65.504116,207.76384 0.188461,-0.22485 1.931973,1.62113 -0.188461,0.22485 z"
       id="path1-8"
       style="stroke-width:0.0132292" />
    <text
       x="69.867813"
       y="204.17242"
       stroke="none"
       fill="#000000"
       font-style="normal"
       font-weight="bold"
       font-size="2.38125px"
       font-family="Helvetica"
       id="text2"
       style="stroke-width:0.0132292">O</text>
    <path
       stroke="none"
       fill="#000000"
       d="m 70.573948,206.00766 h -0.293687 v -1.36274 h 0.293687 z"
       id="path2"
       style="stroke-width:0.0132292" />
    <path
       stroke="none"
       fill="#000000"
       d="m 71.306844,206.00766 h -0.292365 v -1.36274 h 0.292365 z"
       id="path3"
       style="stroke-width:0.0132292" />
    <text
       x="73.299355"
       y="210.11601"
       stroke="none"
       fill="#000000"
       font-style="normal"
       font-weight="bold"
       font-size="2.38125px"
       font-family="Helvetica"
       id="text3"
       style="stroke-width:0.0132292">O</text>
    <path
       stroke="none"
       fill="#000000"
       d="m 71.953751,208.11678 0.146843,-0.254 1.098021,0.63434 -0.146843,0.25414 z"
       id="path4"
       style="stroke-width:0.0132292" />
    <path
       stroke="#000000"
       stroke-width="0.238125"
       fill="none"
       d="m 66.782107,210.73468 a 0.91109823,0.91109823 0 1 0 1.821657,0 0.91109823,0.91109823 0 1 0 -1.821657,0 z"
       id="path5" />
    <path
       stroke="none"
       fill="#000000"
       d="m 67.149878,210.61562 h 1.086115 v 0.23812 h -1.086115 z"
       id="path6"
       style="stroke-width:0.0132292" />
    <path
       stroke="#000000"
       stroke-width="0.238125"
       fill="none"
       d="m 74.913116,207.67387 a 0.91109823,0.91109823 0 1 0 1.821657,0 0.91109823,0.91109823 0 1 0 -1.821657,0 z"
       id="path7" />
    <path
       stroke="none"
       fill="#000000"
       d="m 75.280887,207.55481 h 1.087438 v 0.23812 h -1.087438 z"
       id="path8"
       style="stroke-width:0.0132292" />
    <path
       stroke="#000000"
       stroke-width="0.238125"
       fill="none"
       d="m 69.893969,209.71804 a 0.91148981,0.91148981 0 1 0 1.822979,0 0.91148981,0.91148981 0 1 0 -1.822979,0 z"
       id="path9" />
    <path
       stroke="none"
       fill="#000000"
       d="m 70.26174,209.59898 h 1.087437 v 0.23813 H 70.26174 Z"
       id="path10"
       style="stroke-width:0.0132292" />
    <path
       stroke="none"
       fill="#000000"
       d="m 70.924521,209.17446 v 1.08717 h -0.238125 v -1.08717 z"
       id="path11"
       style="stroke-width:0.0132292" />
    <path
       stroke="none"
       fill="#000000"
       d="m 65.553242,210.4526 -1.124053,0.57222 -0.128669,-0.26139 1.124053,-0.57222 z"
       id="path12"
       style="stroke-width:0.0132292" />
    <path
       stroke="none"
       fill="#000000"
       d="m 67.034448,209.5351 c 0,0 -1.535347,1.35842 -1.535347,1.35842 0,0 0.08497,-0.36777 -0.02167,-0.56516 -0.106779,-0.19732 -0.466758,-0.33883 -0.466758,-0.33883 0,0 2.023788,-0.45445 2.023788,-0.45445 0,0 0,0 0,0"
       id="path13"
       style="stroke-width:0.0132292" />
    <path
       stroke="#000000"
       stroke-width="0.0132292"
       fill="none"
       d="m 67.034448,209.5351 c 0,0 -1.535347,1.35842 -1.535347,1.35842 0,0 0.08497,-0.36777 -0.02167,-0.56516 -0.106779,-0.19732 -0.466758,-0.33883 -0.466758,-0.33883 0,0 2.023788,-0.45445 2.023788,-0.45445 0,0 0,0 0,0"
       id="path14" />
  </g>
</svg>
