<?xml version="1.0" standalone="no" ?><!DOCTYPE svg PUBLIC "-//W3C//DTD SVG 1.1//EN" "http://www.w3.org/Graphics/SVG/1.1/DTD/svg11.dtd"><svg width="45px" height="33px" viewBox="0 0 45 33" style="background-color: #ffffff00" xmlns="http://www.w3.org/2000/svg" xmlns:xlink="http://www.w3.org/1999/xlink" version="1.1" ><path stroke="none" fill="#000000" transform="matrix(0.05 0 0 0.05 -606 -218)" d="M 12161.2,4618.73 L 12161.2,4596.55 L 12460.7,4596.55 L 12460.7,4618.73 L 12161.2,4618.73 Z " /><path stroke="none" fill="#000000" transform="matrix(0.05 0 0 0.05 -606 -218)" d="M 12161.2,4674.17 L 12161.2,4651.99 L 12460.7,4651.99 L 12460.7,4674.17 L 12161.2,4674.17 Z " /><path stroke="none" fill="#000000" transform="matrix(0.05 0 0 0.05 -606 -218)" d="M 12460.7,4618.73 L 12460.7,4596.55 L 12787.9,4596.55 L 12787.9,4618.73 L 12460.7,4618.73 Z " /><path stroke="none" fill="#000000" transform="matrix(0.05 0 0 0.05 -606 -218)" d="M 12460.7,4674.17 L 12460.7,4651.99 L 12760.2,4651.99 L 12760.2,4674.17 L 12460.7,4674.17 Z " /><path stroke="none" fill="#000000" transform="matrix(0.05 0 0 0.05 -606 -218)" d="M 12768,4643.2 L 12752.4,4627.52 L 12964.2,4415.73 L 12979.8,4431.41 L 12768,4643.2 Z " /><path stroke="none" fill="#000000" transform="matrix(0.05 0 0 0.05 -606 -218)" d="M 12405.2,4635.86 A 55.9398,55.9398 0 1 0 12517.1,4635.86A 55.9398,55.9398 0 1 0 12405.2,4635.86Z " /><path stroke="none" fill="#000000" transform="matrix(0.05 0 0 0.05 -606 -218)" d="M 12783.4,4864.36 L 12789.1,4959.54 L 12767.1,4960.54 L 12761.4,4865.36 Z " /><path stroke="none" fill="#000000" transform="matrix(0.05 0 0 0.05 -606 -218)" d="M 12764.7,4733.99 C 12764.7,4733.99 12812.3,4881.46 12812.3,4881.46 C 12812.3,4881.46 12789.4,4864.44 12772.5,4865.85 C 12755.6,4867.27 12734.9,4887.92 12734.9,4887.92 C 12734.9,4887.92 12764.7,4733.99 12764.7,4733.99 C 12764.7,4733.99 12764.7,4733.99 12764.7,4733.99 " /><path stroke="#000000" stroke-width="1" fill="none" transform="matrix(0.05 0 0 0.05 -606 -218)" d="M 12764.7,4733.99 C 12764.7,4733.99 12812.3,4881.46 12812.3,4881.46 C 12812.3,4881.46 12789.4,4864.44 12772.5,4865.85 C 12755.6,4867.27 12734.9,4887.92 12734.9,4887.92 C 12734.9,4887.92 12764.7,4733.99 12764.7,4733.99 C 12764.7,4733.99 12764.7,4733.99 12764.7,4733.99 " /></svg>