<?xml version="1.0" standalone="no" ?><!DOCTYPE svg PUBLIC "-//W3C//DTD SVG 1.1//EN" "http://www.w3.org/Graphics/SVG/1.1/DTD/svg11.dtd"><svg width="64px" height="39px" viewBox="0 0 64 39" style="background-color: #ffffff00" xmlns="http://www.w3.org/2000/svg" xmlns:xlink="http://www.w3.org/1999/xlink" version="1.1" ><path stroke="none" fill="#000000" transform="matrix(0.05 0 0 0.05 -669 -210)" d="M 13998,4935.74 L 13998,4910.09 L 14246.3,4766.73 L 14268.5,4779.56 L 13998,4935.74 Z " /><path stroke="none" fill="#000000" transform="matrix(0.05 0 0 0.05 -669 -210)" d="M 14003.5,4867.95 L 13992.4,4848.75 L 14196,4731.26 L 14207,4750.46 L 14003.5,4867.95 Z " /><path stroke="none" fill="#000000" transform="matrix(0.05 0 0 0.05 -669 -210)" d="M 14268.5,4779.56 L 14246.3,4766.73 L 14246.3,4480.01 L 14256.9,4473.87 L 14267.6,4479.74 L 14268.5,4779.56 Z " /><path stroke="none" fill="#000000" transform="matrix(0.05 0 0 0.05 -669 -210)" d="M 14257.2,4461.71 L 14256.9,4473.87 L 14246.3,4480.01 L 13998,4336.64 L 13998,4310.99 L 14257.2,4461.71 Z " /><path stroke="none" fill="#000000" transform="matrix(0.05 0 0 0.05 -669 -210)" d="M 14207,4496.27 L 14196,4515.48 L 13992.4,4397.99 L 14003.5,4378.78 L 14207,4496.27 Z " /><path stroke="none" fill="#000000" transform="matrix(0.05 0 0 0.05 -669 -210)" d="M 13998,4310.99 L 13998,4336.64 L 13749.7,4480.01 L 13727.5,4467.18 L 13998,4310.99 Z " /><path stroke="none" fill="#000000" transform="matrix(0.05 0 0 0.05 -669 -210)" d="M 13727.5,4467.18 L 13749.7,4480.01 L 13749.7,4766.73 L 13727.5,4779.56 L 13727.5,4467.18 Z " /><path stroke="none" fill="#000000" transform="matrix(0.05 0 0 0.05 -669 -210)" d="M 13783.4,4505.88 L 13805.6,4505.88 L 13805.6,4740.86 L 13783.4,4740.86 L 13783.4,4505.88 Z " /><path stroke="none" fill="#000000" transform="matrix(0.05 0 0 0.05 -669 -210)" d="M 13727.5,4779.56 L 13749.7,4766.73 L 13998,4910.09 L 13998,4935.74 L 13727.5,4779.56 Z " /><text x="0" y="0" stroke="none" fill="#000000" transform="matrix(0.05 0 0 0.05 53.5665 9.44414)" font-style="normal" font-weight="bold" font-size="180px" font-family="Helvetica" >Cl</text><path stroke="none" fill="#000000" transform="matrix(0.05 0 0 0.05 -669 -210)" d="M 14267.6,4479.74 L 14256.9,4473.87 L 14257.2,4461.71 L 14429.7,4361.3 L 14440.8,4380.51 L 14267.6,4479.74 Z " /><path stroke="none" fill="#000000" transform="matrix(0.05 0 0 0.05 -669 -210)" d="M 13535.2,4779.56 L 13439.9,4779.56 L 13439.9,4757.56 L 13535.2,4757.56 Z " /><path stroke="none" fill="#000000" transform="matrix(0.05 0 0 0.05 -669 -210)" d="M 13666.3,4768.56 C 13666.3,4768.56 13515.4,4807.3 13515.4,4807.3 C 13515.4,4807.3 13534.2,4785.51 13534.2,4768.56 C 13534.2,4751.17 13515.4,4728.82 13515.4,4728.82 C 13515.4,4728.82 13666.3,4768.56 13666.3,4768.56 C 13666.3,4768.56 13666.3,4768.56 13666.3,4768.56 " /><path stroke="#000000" stroke-width="1" fill="none" transform="matrix(0.05 0 0 0.05 -669 -210)" d="M 13666.3,4768.56 C 13666.3,4768.56 13515.4,4807.3 13515.4,4807.3 C 13515.4,4807.3 13534.2,4785.51 13534.2,4768.56 C 13534.2,4751.17 13515.4,4728.82 13515.4,4728.82 C 13515.4,4728.82 13666.3,4768.56 13666.3,4768.56 C 13666.3,4768.56 13666.3,4768.56 13666.3,4768.56 " /></svg>