<?xml version="1.0" standalone="no" ?><!DOCTYPE svg PUBLIC "-//W3C//DTD SVG 1.1//EN" "http://www.w3.org/Graphics/SVG/1.1/DTD/svg11.dtd"><svg width="28px" height="34px" viewBox="0 0 28 34" style="background-color: #ffffff00" xmlns="http://www.w3.org/2000/svg" xmlns:xlink="http://www.w3.org/1999/xlink" version="1.1" ><text x="0" y="0" stroke="none" fill="#000000" transform="matrix(0.05 0 0 0.05 14.0202 19.2628)" font-style="normal" font-weight="bold" font-size="180px" font-family="Helvetica" >N</text><path stroke="none" fill="#000000" transform="matrix(0.05 0 0 0.05 -37 -293)" d="M 785.88,6191.57 L 785.88,6169.39 L 1002.44,6169.39 L 1002.44,6191.57 L 785.88,6191.57 Z " /><path stroke="none" fill="#000000" transform="matrix(0.05 0 0 0.05 -37 -293)" d="M 1132.05,6283.45 L 1151.25,6272.36 L 1244.76,6434.33 L 1225.56,6445.42 L 1132.05,6283.45 Z " /><path stroke="none" fill="#000000" transform="matrix(0.05 0 0 0.05 -37 -293)" d="M 1151.92,6087.43 L 1132.72,6076.35 L 1225.56,5915.54 L 1244.76,5926.63 L 1151.92,6087.43 Z " /><path stroke="none" fill="#000000" transform="matrix(0.05 0 0 0.05 -37 -293)" d="M 1075.16,6396.16 L 1080.78,6491.34 L 1058.78,6492.34 L 1053.16,6397.16 Z " /><path stroke="none" fill="#000000" transform="matrix(0.05 0 0 0.05 -37 -293)" d="M 1056.42,6265.79 C 1056.42,6265.79 1104,6413.26 1104,6413.26 C 1104,6413.26 1081.14,6396.24 1064.22,6397.65 C 1047.3,6399.07 1026.65,6419.72 1026.65,6419.72 C 1026.65,6419.72 1056.42,6265.79 1056.42,6265.79 C 1056.42,6265.79 1056.42,6265.79 1056.42,6265.79 " /><path stroke="#000000" stroke-width="1" fill="none" transform="matrix(0.05 0 0 0.05 -37 -293)" d="M 1056.42,6265.79 C 1056.42,6265.79 1104,6413.26 1104,6413.26 C 1104,6413.26 1081.14,6396.24 1064.22,6397.65 C 1047.3,6399.07 1026.65,6419.72 1026.65,6419.72 C 1026.65,6419.72 1056.42,6265.79 1056.42,6265.79 C 1056.42,6265.79 1056.42,6265.79 1056.42,6265.79 " /></svg>