<?xml version="1.0" standalone="no" ?><!DOCTYPE svg PUBLIC "-//W3C//DTD SVG 1.1//EN" "http://www.w3.org/Graphics/SVG/1.1/DTD/svg11.dtd"><svg width="36px" height="44px" viewBox="0 0 36 44" style="background-color: #ffffff00" xmlns="http://www.w3.org/2000/svg" xmlns:xlink="http://www.w3.org/1999/xlink" version="1.1" ><path stroke="none" fill="#000000" transform="matrix(0.05 0 0 0.05 -93 -288)" d="M 1917.49,5819.19 L 1936.7,5808.11 L 2082.73,6061.96 L 2076.59,6072.59 L 2064.31,6072.59 L 1917.49,5819.19 Z " /><path stroke="none" fill="#000000" transform="matrix(0.05 0 0 0.05 -93 -288)" d="M 2082.73,6083.23 L 2076.59,6072.59 L 2082.73,6061.96 L 2382.28,6061.01 L 2369.45,6083.23 L 2082.73,6083.23 Z " /><path stroke="none" fill="#000000" transform="matrix(0.05 0 0 0.05 -93 -288)" d="M 2064.31,6072.59 L 2076.59,6072.59 L 2082.73,6083.23 L 1936.7,6337.08 L 1917.49,6325.99 L 2064.31,6072.59 Z " /><path stroke="none" fill="#000000" transform="matrix(0.05 0 0 0.05 -93 -288)" d="M 2369.45,6083.23 L 2382.28,6061.01 L 2538.47,6331.53 L 2512.81,6331.53 L 2369.45,6083.23 Z " /><path stroke="none" fill="#000000" transform="matrix(0.05 0 0 0.05 -93 -288)" d="M 2512.81,6331.53 L 2538.47,6331.53 L 2385.19,6596.02 L 2365.99,6584.93 L 2512.81,6331.53 Z " /><path stroke="#000000" stroke-width="18" fill="none" transform="matrix(0.05 0 0 0.05 -93 -288)" d="M 2068.84,5950.24 A 68.8704,68.8704 0 1 0 2206.58,5950.24A 68.8704,68.8704 0 1 0 2068.84,5950.24Z " /><path stroke="none" fill="#000000" transform="matrix(0.05 0 0 0.05 -93 -288)" d="M 2096.62,5941.24 L 2178.8,5941.24 L 2178.8,5959.24 L 2096.62,5959.24 Z " /><path stroke="none" fill="#000000" transform="matrix(0.05 0 0 0.05 -93 -288)" d="M 2146.71,5909.15 L 2146.71,5991.32 L 2128.71,5991.32 L 2128.71,5909.15 Z " /><path stroke="none" fill="#000000" transform="matrix(0.05 0 0 0.05 -93 -288)" d="M 2100.8,6276.28 L 2106.42,6371.46 L 2084.42,6372.46 L 2078.8,6277.28 Z " /><path stroke="none" fill="#000000" transform="matrix(0.05 0 0 0.05 -93 -288)" d="M 2082.06,6145.91 C 2082.06,6145.91 2129.64,6293.38 2129.64,6293.38 C 2129.64,6293.38 2106.77,6276.36 2089.85,6277.77 C 2072.93,6279.19 2052.29,6299.84 2052.29,6299.84 C 2052.29,6299.84 2082.06,6145.91 2082.06,6145.91 C 2082.06,6145.91 2082.06,6145.91 2082.06,6145.91 " /><path stroke="#000000" stroke-width="1" fill="none" transform="matrix(0.05 0 0 0.05 -93 -288)" d="M 2082.06,6145.91 C 2082.06,6145.91 2129.64,6293.38 2129.64,6293.38 C 2129.64,6293.38 2106.77,6276.36 2089.85,6277.77 C 2072.93,6279.19 2052.29,6299.84 2052.29,6299.84 C 2052.29,6299.84 2082.06,6145.91 2082.06,6145.91 C 2082.06,6145.91 2082.06,6145.91 2082.06,6145.91 " /></svg>