<?xml version="1.0" standalone="no" ?><!DOCTYPE svg PUBLIC "-//W3C//DTD SVG 1.1//EN" "http://www.w3.org/Graphics/SVG/1.1/DTD/svg11.dtd"><svg width="45px" height="50px" viewBox="0 0 45 50" style="background-color: #ffffff00" xmlns="http://www.w3.org/2000/svg" xmlns:xlink="http://www.w3.org/1999/xlink" version="1.1" ><path stroke="none" fill="#000000" transform="matrix(0.05 0 0 0.05 -150 -291)" d="M 3586.39,6004.64 L 3608.57,6004.64 L 3608.57,6336.16 L 3586.39,6336.16 L 3586.39,6004.64 Z " /><path stroke="none" fill="#000000" transform="matrix(0.05 0 0 0.05 -150 -291)" d="M 3530.95,6004.64 L 3553.13,6004.64 L 3553.13,6336.16 L 3530.95,6336.16 L 3530.95,6004.64 Z " /><path stroke="none" fill="#000000" transform="matrix(0.05 0 0 0.05 -150 -291)" d="M 3569.76,6008.36 L 3569.76,6034.01 L 3304.82,5880.48 L 3315.91,5861.28 L 3569.76,6008.36 Z " /><path stroke="none" fill="#000000" transform="matrix(0.05 0 0 0.05 -150 -291)" d="M 3569.76,6034.01 L 3569.76,6008.36 L 3823.61,5861.28 L 3834.7,5880.48 L 3569.76,6034.01 Z " /><path stroke="none" fill="#000000" transform="matrix(0.05 0 0 0.05 -150 -291)" d="M 3569.76,6332.44 L 3569.76,6306.78 L 3840.73,6463.23 L 3818.52,6476.06 L 3569.76,6332.44 Z " /><path stroke="none" fill="#000000" transform="matrix(0.05 0 0 0.05 -150 -291)" d="M 3569.76,6306.78 L 3569.76,6332.44 L 3310.37,6483.29 L 3310.37,6457.64 L 3569.76,6306.78 Z " /><path stroke="none" fill="#000000" transform="matrix(0.05 0 0 0.05 -150 -291)" d="M 3818.52,6476.06 L 3840.73,6463.23 L 3840.24,6769.44 L 3818.06,6769.44 L 3818.52,6476.06 Z " /><path stroke="none" fill="#000000" transform="matrix(0.05 0 0 0.05 -150 -291)" d="M 3310.37,6457.64 L 3310.37,6483.29 L 3045.43,6329.76 L 3056.52,6310.56 L 3310.37,6457.64 Z " /><path stroke="#000000" stroke-width="18" fill="none" transform="matrix(0.05 0 0 0.05 -150 -291)" d="M 3241,6589.6 A 68.8704,68.8704 0 1 0 3378.74,6589.6A 68.8704,68.8704 0 1 0 3241,6589.6Z " /><path stroke="none" fill="#000000" transform="matrix(0.05 0 0 0.05 -150 -291)" d="M 3268.78,6580.6 L 3350.96,6580.6 L 3350.96,6598.6 L 3268.78,6598.6 Z " /><path stroke="none" fill="#000000" transform="matrix(0.05 0 0 0.05 -150 -291)" d="M 3318.87,6548.51 L 3318.87,6630.68 L 3300.87,6630.68 L 3300.87,6548.51 Z " /><path stroke="none" fill="#000000" transform="matrix(0.05 0 0 0.05 -150 -291)" d="M 3579.32,6555.99 L 3584.94,6651.18 L 3562.94,6652.18 L 3557.32,6556.99 Z " /><path stroke="none" fill="#000000" transform="matrix(0.05 0 0 0.05 -150 -291)" d="M 3560.58,6425.63 C 3560.58,6425.63 3608.16,6573.1 3608.16,6573.1 C 3608.16,6573.1 3585.29,6556.08 3568.37,6557.49 C 3551.45,6558.9 3530.81,6579.56 3530.81,6579.56 C 3530.81,6579.56 3560.58,6425.63 3560.58,6425.63 C 3560.58,6425.63 3560.58,6425.63 3560.58,6425.63 " /><path stroke="#000000" stroke-width="1" fill="none" transform="matrix(0.05 0 0 0.05 -150 -291)" d="M 3560.58,6425.63 C 3560.58,6425.63 3608.16,6573.1 3608.16,6573.1 C 3608.16,6573.1 3585.29,6556.08 3568.37,6557.49 C 3551.45,6558.9 3530.81,6579.56 3530.81,6579.56 C 3530.81,6579.56 3560.58,6425.63 3560.58,6425.63 C 3560.58,6425.63 3560.58,6425.63 3560.58,6425.63 " /></svg>