<?xml version="1.0" standalone="no" ?><!DOCTYPE svg PUBLIC "-//W3C//DTD SVG 1.1//EN" "http://www.w3.org/Graphics/SVG/1.1/DTD/svg11.dtd"><svg width="35px" height="45px" viewBox="0 0 35 45" style="background-color: #ffffff00" xmlns="http://www.w3.org/2000/svg" xmlns:xlink="http://www.w3.org/1999/xlink" version="1.1" ><path stroke="none" fill="#000000" transform="matrix(0.05 0 0 0.05 -220 -289)" d="M 4521.02,6349.92 L 4509.94,6330.72 L 4774.87,6177.18 L 4774.87,6202.84 L 4521.02,6349.92 Z " /><text x="0" y="0" stroke="none" fill="#000000" transform="matrix(0.05 0 0 0.05 15.2433 8.79076)" font-style="normal" font-weight="bold" font-size="180px" font-family="Helvetica" >O</text><path stroke="none" fill="#000000" transform="matrix(0.05 0 0 0.05 -220 -289)" d="M 4758.24,6206.56 L 4736.06,6206.56 L 4736.06,5991.53 L 4758.24,5991.53 L 4758.24,6206.56 Z " /><path stroke="none" fill="#000000" transform="matrix(0.05 0 0 0.05 -220 -289)" d="M 4813.68,6206.56 L 4791.5,6206.56 L 4791.5,5991.53 L 4813.68,5991.53 L 4813.68,6206.56 Z " /><path stroke="none" fill="#000000" transform="matrix(0.05 0 0 0.05 -220 -289)" d="M 4774.87,6202.84 L 4774.87,6177.18 L 5045.85,6333.63 L 5023.63,6346.46 L 4774.87,6202.84 Z " /><path stroke="none" fill="#000000" transform="matrix(0.05 0 0 0.05 -220 -289)" d="M 5023.63,6346.46 L 5045.85,6333.63 L 5045.35,6639.84 L 5023.18,6639.84 L 5023.63,6346.46 Z " /><path stroke="none" fill="#000000" transform="matrix(0.05 0 0 0.05 -220 -289)" d="M 4539.04,6130.47 L 4450.73,6094.51 L 4458.73,6073.51 L 4547.04,6109.47 Z " /><path stroke="none" fill="#000000" transform="matrix(0.05 0 0 0.05 -220 -289)" d="M 4664.45,6169.4 C 4664.45,6169.4 4509.4,6148.43 4509.4,6148.43 C 4509.4,6148.43 4535.45,6135.32 4542.11,6119.59 C 4548.78,6103.86 4539.87,6076.52 4539.87,6076.52 C 4539.87,6076.52 4664.45,6169.4 4664.45,6169.4 C 4664.45,6169.4 4664.45,6169.4 4664.45,6169.4 " /><path stroke="#000000" stroke-width="1" fill="none" transform="matrix(0.05 0 0 0.05 -220 -289)" d="M 4664.45,6169.4 C 4664.45,6169.4 4509.4,6148.43 4509.4,6148.43 C 4509.4,6148.43 4535.45,6135.32 4542.11,6119.59 C 4548.78,6103.86 4539.87,6076.52 4539.87,6076.52 C 4539.87,6076.52 4664.45,6169.4 4664.45,6169.4 C 4664.45,6169.4 4664.45,6169.4 4664.45,6169.4 " /></svg>