<?xml version="1.0" standalone="no" ?><!DOCTYPE svg PUBLIC "-//W3C//DTD SVG 1.1//EN" "http://www.w3.org/Graphics/SVG/1.1/DTD/svg11.dtd"><svg width="41px" height="26px" viewBox="0 0 41 26" style="background-color: #ffffff00" xmlns="http://www.w3.org/2000/svg" xmlns:xlink="http://www.w3.org/1999/xlink" version="1.1" ><path stroke="none" fill="#000000" transform="matrix(0.05 0 0 0.05 -282 -292)" d="M 5708.6,6256.55 L 5697.51,6237.35 L 5962.19,6083.94 L 5962.23,6109.61 L 5708.6,6256.55 Z " /><text x="0" y="0" stroke="none" fill="#000000" transform="matrix(0.05 0 0 0.05 25.797 23.5863)" font-style="normal" font-weight="bold" font-size="180px" font-family="Helvetica" >CN</text><path stroke="none" fill="#000000" transform="matrix(0.05 0 0 0.05 -282 -292)" d="M 5962.23,6109.61 L 5962.19,6083.94 L 6146.29,6191.05 L 6135.2,6210.25 L 5962.23,6109.61 Z " /><path stroke="#000000" stroke-width="18" fill="none" transform="matrix(0.05 0 0 0.05 -282 -292)" d="M 5892.62,5977.77 A 68.8704,68.8704 0 1 0 6030.36,5977.77A 68.8704,68.8704 0 1 0 5892.62,5977.77Z " /><path stroke="none" fill="#000000" transform="matrix(0.05 0 0 0.05 -282 -292)" d="M 5920.4,5968.77 L 6002.58,5968.77 L 6002.58,5986.77 L 5920.4,5986.77 Z " /><path stroke="none" fill="#000000" transform="matrix(0.05 0 0 0.05 -282 -292)" d="M 6221.32,6000.84 L 6226.94,5905.65 L 6248.94,5906.65 L 6243.32,6001.84 Z " /><path stroke="none" fill="#000000" transform="matrix(0.05 0 0 0.05 -282 -292)" d="M 6224.58,6132.2 C 6224.58,6132.2 6194.81,5978.27 6194.81,5978.27 C 6194.81,5978.27 6215.45,5998.93 6232.37,6000.34 C 6249.29,6001.75 6272.16,5984.73 6272.16,5984.73 C 6272.16,5984.73 6224.58,6132.2 6224.58,6132.2 C 6224.58,6132.2 6224.58,6132.2 6224.58,6132.2 " /><path stroke="#000000" stroke-width="1" fill="none" transform="matrix(0.05 0 0 0.05 -282 -292)" d="M 6224.58,6132.2 C 6224.58,6132.2 6194.81,5978.27 6194.81,5978.27 C 6194.81,5978.27 6215.45,5998.93 6232.37,6000.34 C 6249.29,6001.75 6272.16,5984.73 6272.16,5984.73 C 6272.16,5984.73 6224.58,6132.2 6224.58,6132.2 C 6224.58,6132.2 6224.58,6132.2 6224.58,6132.2 " /></svg>