<?xml version="1.0" standalone="no" ?><!DOCTYPE svg PUBLIC "-//W3C//DTD SVG 1.1//EN" "http://www.w3.org/Graphics/SVG/1.1/DTD/svg11.dtd"><svg width="70px" height="42px" viewBox="0 0 70 42" style="background-color: #ffffff00" xmlns="http://www.w3.org/2000/svg" xmlns:xlink="http://www.w3.org/1999/xlink" version="1.1" ><path stroke="none" fill="#000000" transform="matrix(0.05 0 0 0.05 -350 -289)" d="M 7051.82,6283.32 L 7040.74,6264.12 L 7300.13,6114.36 L 7311.22,6133.56 L 7051.82,6283.32 Z " /><path stroke="none" fill="#000000" transform="matrix(0.05 0 0 0.05 -350 -289)" d="M 7313.99,6109.56 L 7325.08,6090.35 L 7598.33,6248.11 L 7587.24,6267.32 L 7313.99,6109.56 Z " /><path stroke="none" fill="#000000" transform="matrix(0.05 0 0 0.05 -350 -289)" d="M 7272.41,6149.57 L 7283.5,6130.36 L 7570.61,6296.13 L 7559.52,6315.33 L 7272.41,6149.57 Z " /><path stroke="none" fill="#000000" transform="matrix(0.05 0 0 0.05 -350 -289)" d="M 7575.7,6279.86 L 7553.48,6267.03 L 7813.82,6117.82 L 7824.46,6123.96 L 7824.46,6136.24 L 7575.7,6279.86 Z " /><path stroke="none" fill="#000000" transform="matrix(0.05 0 0 0.05 -350 -289)" d="M 7824.46,6136.24 L 7824.46,6123.96 L 7835.09,6117.82 L 8083.85,6261.44 L 8083.85,6273.72 L 8073.21,6279.86 L 7824.46,6136.24 Z " /><path stroke="none" fill="#000000" transform="matrix(0.05 0 0 0.05 -350 -289)" d="M 8094.48,6279.86 L 8083.85,6273.72 L 8083.85,6261.44 L 8337.69,6114.36 L 8348.78,6133.56 L 8094.48,6279.86 Z " /><path stroke="none" fill="#000000" transform="matrix(0.05 0 0 0.05 -350 -289)" d="M 7553.48,6267.03 L 7575.7,6279.86 L 7576.15,6573.24 L 7553.98,6573.24 L 7553.48,6267.03 Z " /><path stroke="none" fill="#000000" transform="matrix(0.05 0 0 0.05 -350 -289)" d="M 7835.09,6117.82 L 7824.46,6123.96 L 7813.82,6117.82 L 7813.37,5824.44 L 7835.54,5824.44 L 7835.09,6117.82 Z " /><path stroke="none" fill="#000000" transform="matrix(0.05 0 0 0.05 -350 -289)" d="M 8073.21,6279.86 L 8083.85,6273.72 L 8094.48,6279.86 L 8094.93,6573.24 L 8072.76,6573.24 L 8073.21,6279.86 Z " /><path stroke="none" fill="#000000" transform="matrix(0.05 0 0 0.05 -350 -289)" d="M 7567.24,6040.11 L 7575.55,5945.12 L 7597.55,5947.12 L 7589.24,6042.11 Z " /><path stroke="none" fill="#000000" transform="matrix(0.05 0 0 0.05 -350 -289)" d="M 7566.82,6171.7 C 7566.82,6171.7 7541.37,6017.03 7541.37,6017.03 C 7541.37,6017.03 7561.44,6038.24 7578.33,6040.11 C 7595.21,6041.99 7618.57,6025.6 7618.57,6025.6 C 7618.57,6025.6 7566.82,6171.7 7566.82,6171.7 C 7566.82,6171.7 7566.82,6171.7 7566.82,6171.7 " /><path stroke="#000000" stroke-width="1" fill="none" transform="matrix(0.05 0 0 0.05 -350 -289)" d="M 7566.82,6171.7 C 7566.82,6171.7 7541.37,6017.03 7541.37,6017.03 C 7541.37,6017.03 7561.44,6038.24 7578.33,6040.11 C 7595.21,6041.99 7618.57,6025.6 7618.57,6025.6 C 7618.57,6025.6 7566.82,6171.7 7566.82,6171.7 C 7566.82,6171.7 7566.82,6171.7 7566.82,6171.7 " /></svg>