<?xml version="1.0" standalone="no" ?><!DOCTYPE svg PUBLIC "-//W3C//DTD SVG 1.1//EN" "http://www.w3.org/Graphics/SVG/1.1/DTD/svg11.dtd"><svg width="58px" height="44px" viewBox="0 0 58 44" style="background-color: #ffffff00" xmlns="http://www.w3.org/2000/svg" xmlns:xlink="http://www.w3.org/1999/xlink" version="1.1" ><path stroke="none" fill="#000000" transform="matrix(0.05 0 0 0.05 -432 -290)" d="M 8693.38,6157.23 L 8715.6,6170.06 L 8715.6,6457.3 L 8693.38,6470.13 L 8693.38,6157.23 Z " /><path stroke="none" fill="#000000" transform="matrix(0.05 0 0 0.05 -432 -290)" d="M 8749.32,6195.93 L 8771.5,6195.93 L 8771.5,6431.43 L 8749.32,6431.43 L 8749.32,6195.93 Z " /><path stroke="none" fill="#000000" transform="matrix(0.05 0 0 0.05 -432 -290)" d="M 8693.38,6470.13 L 8715.6,6457.3 L 8964.36,6600.92 L 8964.36,6626.57 L 8693.38,6470.13 Z " /><path stroke="none" fill="#000000" transform="matrix(0.05 0 0 0.05 -432 -290)" d="M 8964.36,6626.57 L 8964.36,6600.92 L 9213.12,6457.3 L 9223.75,6463.44 L 9223.75,6475.72 L 8964.36,6626.57 Z " /><path stroke="none" fill="#000000" transform="matrix(0.05 0 0 0.05 -432 -290)" d="M 8969.9,6558.79 L 8958.82,6539.58 L 9162.77,6421.83 L 9173.86,6441.03 L 8969.9,6558.79 Z " /><path stroke="none" fill="#000000" transform="matrix(0.05 0 0 0.05 -432 -290)" d="M 9234.39,6457.3 L 9223.75,6463.44 L 9213.12,6457.3 L 9213.12,6170.06 L 9223.75,6163.92 L 9234.39,6170.06 L 9234.39,6457.3 Z " /><path stroke="none" fill="#000000" transform="matrix(0.05 0 0 0.05 -432 -290)" d="M 9223.75,6151.64 L 9223.75,6163.92 L 9213.12,6170.06 L 8964.36,6026.44 L 8964.36,6000.78 L 9223.75,6151.64 Z " /><path stroke="none" fill="#000000" transform="matrix(0.05 0 0 0.05 -432 -290)" d="M 9173.86,6186.33 L 9162.77,6205.53 L 8958.82,6087.78 L 8969.9,6068.57 L 9173.86,6186.33 Z " /><path stroke="none" fill="#000000" transform="matrix(0.05 0 0 0.05 -432 -290)" d="M 8964.36,6000.78 L 8964.36,6026.44 L 8715.6,6170.06 L 8693.38,6157.23 L 8964.36,6000.78 Z " /><path stroke="none" fill="#000000" transform="matrix(0.05 0 0 0.05 -432 -290)" d="M 9223.75,6475.72 L 9223.75,6463.44 L 9234.39,6457.3 L 9483.14,6600.92 L 9483.14,6626.57 L 9223.75,6475.72 Z " /><path stroke="none" fill="#000000" transform="matrix(0.05 0 0 0.05 -432 -290)" d="M 9483.14,6626.57 L 9483.14,6600.92 L 9731.9,6457.3 L 9754.12,6470.13 L 9483.14,6626.57 Z " /><path stroke="none" fill="#000000" transform="matrix(0.05 0 0 0.05 -432 -290)" d="M 9488.69,6558.79 L 9477.6,6539.58 L 9681.55,6421.83 L 9692.64,6441.03 L 9488.69,6558.79 Z " /><path stroke="none" fill="#000000" transform="matrix(0.05 0 0 0.05 -432 -290)" d="M 9754.12,6470.13 L 9731.9,6457.3 L 9731.9,6170.06 L 9754.12,6157.23 L 9754.12,6470.13 Z " /><path stroke="none" fill="#000000" transform="matrix(0.05 0 0 0.05 -432 -290)" d="M 9754.12,6157.23 L 9731.9,6170.06 L 9483.14,6026.44 L 9483.14,6000.78 L 9754.12,6157.23 Z " /><path stroke="none" fill="#000000" transform="matrix(0.05 0 0 0.05 -432 -290)" d="M 9692.64,6186.33 L 9681.55,6205.53 L 9477.6,6087.78 L 9488.69,6068.57 L 9692.64,6186.33 Z " /><path stroke="none" fill="#000000" transform="matrix(0.05 0 0 0.05 -432 -290)" d="M 9483.14,6000.78 L 9483.14,6026.44 L 9234.39,6170.06 L 9223.75,6163.92 L 9223.75,6151.64 L 9483.14,6000.78 Z " /><path stroke="none" fill="#000000" transform="matrix(0.05 0 0 0.05 -432 -290)" d="M 9232.24,5946.87 L 9240.55,5851.88 L 9262.55,5853.88 L 9254.24,5948.87 Z " /><path stroke="none" fill="#000000" transform="matrix(0.05 0 0 0.05 -432 -290)" d="M 9231.82,6078.46 C 9231.82,6078.46 9206.37,5923.79 9206.37,5923.79 C 9206.37,5923.79 9226.44,5945 9243.33,5946.87 C 9260.21,5948.75 9283.57,5932.36 9283.57,5932.36 C 9283.57,5932.36 9231.82,6078.46 9231.82,6078.46 C 9231.82,6078.46 9231.82,6078.46 9231.82,6078.46 " /><path stroke="#000000" stroke-width="1" fill="none" transform="matrix(0.05 0 0 0.05 -432 -290)" d="M 9231.82,6078.46 C 9231.82,6078.46 9206.37,5923.79 9206.37,5923.79 C 9206.37,5923.79 9226.44,5945 9243.33,5946.87 C 9260.21,5948.75 9283.57,5932.36 9283.57,5932.36 C 9283.57,5932.36 9231.82,6078.46 9231.82,6078.46 C 9231.82,6078.46 9231.82,6078.46 9231.82,6078.46 " /></svg>