<?xml version="1.0" standalone="no" ?><!DOCTYPE svg PUBLIC "-//W3C//DTD SVG 1.1//EN" "http://www.w3.org/Graphics/SVG/1.1/DTD/svg11.dtd"><svg width="99px" height="28px" viewBox="0 0 99 28" style="background-color: #ffffff00" xmlns="http://www.w3.org/2000/svg" xmlns:xlink="http://www.w3.org/1999/xlink" version="1.1" ><path stroke="none" fill="#000000" transform="matrix(0.05 0 0 0.05 -506 -295)" d="M 10722.6,6256.01 L 10722.6,6233.83 L 11022.1,6233.83 L 11022.1,6256.01 L 10722.6,6256.01 Z " /><path stroke="none" fill="#000000" transform="matrix(0.05 0 0 0.05 -506 -295)" d="M 10722.6,6311.45 L 10722.6,6289.27 L 11022.1,6289.27 L 11022.1,6311.45 L 10722.6,6311.45 Z " /><path stroke="none" fill="#000000" transform="matrix(0.05 0 0 0.05 -506 -295)" d="M 10722.6,6366.89 L 10722.6,6344.71 L 11022.1,6344.71 L 11022.1,6366.89 L 10722.6,6366.89 Z " /><path stroke="none" fill="#000000" transform="matrix(0.05 0 0 0.05 -506 -295)" d="M 11022.1,6311.45 L 11022.1,6289.27 L 11321.6,6289.27 L 11321.6,6311.45 L 11022.1,6311.45 Z " /><path stroke="none" fill="#000000" transform="matrix(0.05 0 0 0.05 -506 -295)" d="M 11321.6,6256.01 L 11321.6,6233.83 L 11621.2,6233.83 L 11621.2,6256.01 L 11321.6,6256.01 Z " /><path stroke="none" fill="#000000" transform="matrix(0.05 0 0 0.05 -506 -295)" d="M 11321.6,6311.45 L 11321.6,6289.27 L 11621.2,6289.27 L 11621.2,6311.45 L 11321.6,6311.45 Z " /><path stroke="none" fill="#000000" transform="matrix(0.05 0 0 0.05 -506 -295)" d="M 11321.6,6366.89 L 11321.6,6344.71 L 11621.2,6344.71 L 11621.2,6366.89 L 11321.6,6366.89 Z " /><text x="0" y="0" stroke="none" fill="#000000" transform="matrix(0.05 0 0 0.05 86.7842 23.2568)" font-style="normal" font-weight="bold" font-size="180px" font-family="Helvetica" >Br</text><path stroke="none" fill="#000000" transform="matrix(0.05 0 0 0.05 -506 -295)" d="M 11621.2,6311.45 L 11621.2,6289.27 L 11838.6,6289.27 L 11838.6,6311.45 L 11621.2,6311.45 Z " /><text x="0" y="0" stroke="none" fill="#000000" transform="matrix(0.05 0 0 0.05 1.6507 23.2568)" font-style="normal" font-weight="bold" font-size="180px" font-family="Helvetica" >H</text><text x="0" y="0" stroke="none" fill="#000000" transform="matrix(0.05 0 0 0.05 8.15021 25.3266)" font-style="normal" font-weight="bold" font-size="135px" font-family="Helvetica" >3</text><text x="0" y="0" stroke="none" fill="#000000" transform="matrix(0.05 0 0 0.05 11.9042 23.2568)" font-style="normal" font-weight="bold" font-size="180px" font-family="Helvetica" >C</text><path stroke="none" fill="#000000" transform="matrix(0.05 0 0 0.05 -506 -295)" d="M 10722.6,6289.27 L 10722.6,6311.45 L 10511.8,6311.45 L 10511.8,6289.27 L 10722.6,6289.27 Z " /><path stroke="none" fill="#000000" transform="matrix(0.05 0 0 0.05 -506 -295)" d="M 11030.4,6053.43 L 11038.7,5958.44 L 11060.7,5960.44 L 11052.4,6055.43 Z " /><path stroke="none" fill="#000000" transform="matrix(0.05 0 0 0.05 -506 -295)" d="M 11030,6185.02 C 11030,6185.02 11004.6,6030.35 11004.6,6030.35 C 11004.6,6030.35 11024.6,6051.56 11041.5,6053.43 C 11058.4,6055.31 11081.8,6038.92 11081.8,6038.92 C 11081.8,6038.92 11030,6185.02 11030,6185.02 C 11030,6185.02 11030,6185.02 11030,6185.02 " /><path stroke="#000000" stroke-width="1" fill="none" transform="matrix(0.05 0 0 0.05 -506 -295)" d="M 11030,6185.02 C 11030,6185.02 11004.6,6030.35 11004.6,6030.35 C 11004.6,6030.35 11024.6,6051.56 11041.5,6053.43 C 11058.4,6055.31 11081.8,6038.92 11081.8,6038.92 C 11081.8,6038.92 11030,6185.02 11030,6185.02 C 11030,6185.02 11030,6185.02 11030,6185.02 " /></svg>