<?xml version="1.0" standalone="no" ?><!DOCTYPE svg PUBLIC "-//W3C//DTD SVG 1.1//EN" "http://www.w3.org/Graphics/SVG/1.1/DTD/svg11.dtd"><svg width="42px" height="35px" viewBox="0 0 42 35" style="background-color: #ffffff00" xmlns="http://www.w3.org/2000/svg" xmlns:xlink="http://www.w3.org/1999/xlink" version="1.1" ><path stroke="none" fill="#000000" transform="matrix(0.05 0 0 0.05 -627 -298)" d="M 12984,6274.22 A 55.9398,55.9398 0 1 0 13095.9,6274.22A 55.9398,55.9398 0 1 0 12984,6274.22Z " /><path stroke="none" fill="#000000" transform="matrix(0.05 0 0 0.05 -627 -298)" d="M 12753.8,6273.72 L 12728.2,6273.72 L 12581.3,6020.32 L 12600.5,6009.23 L 12753.8,6273.72 Z " /><path stroke="none" fill="#000000" transform="matrix(0.05 0 0 0.05 -627 -298)" d="M 13039.4,6290.35 L 13039.4,6312.53 L 12724.4,6312.53 L 12724.4,6290.35 L 13039.4,6290.35 Z " /><path stroke="none" fill="#000000" transform="matrix(0.05 0 0 0.05 -627 -298)" d="M 13039.4,6234.91 L 13039.4,6257.09 L 12724.4,6257.09 L 12724.4,6234.91 L 13039.4,6234.91 Z " /><path stroke="none" fill="#000000" transform="matrix(0.05 0 0 0.05 -627 -298)" d="M 13338.4,6290.35 L 13338.4,6312.53 L 13039.4,6312.53 L 13039.4,6290.35 L 13338.4,6290.35 Z " /><path stroke="none" fill="#000000" transform="matrix(0.05 0 0 0.05 -627 -298)" d="M 13338.4,6234.91 L 13338.4,6257.09 L 13039.4,6257.09 L 13039.4,6234.91 L 13338.4,6234.91 Z " /><path stroke="none" fill="#000000" transform="matrix(0.05 0 0 0.05 -627 -298)" d="M 12728.2,6273.72 L 12753.8,6273.72 L 12600.5,6538.21 L 12581.3,6527.12 L 12728.2,6273.72 Z " /><path stroke="none" fill="#000000" transform="matrix(0.05 0 0 0.05 -627 -298)" d="M 13063.2,6516.04 L 13068.8,6611.22 L 13046.8,6612.22 L 13041.2,6517.04 Z " /><path stroke="none" fill="#000000" transform="matrix(0.05 0 0 0.05 -627 -298)" d="M 13044.4,6385.67 C 13044.4,6385.67 13092,6533.14 13092,6533.14 C 13092,6533.14 13069.1,6516.12 13052.2,6517.53 C 13035.3,6518.95 13014.7,6539.6 13014.7,6539.6 C 13014.7,6539.6 13044.4,6385.67 13044.4,6385.67 C 13044.4,6385.67 13044.4,6385.67 13044.4,6385.67 " /><path stroke="#000000" stroke-width="1" fill="none" transform="matrix(0.05 0 0 0.05 -627 -298)" d="M 13044.4,6385.67 C 13044.4,6385.67 13092,6533.14 13092,6533.14 C 13092,6533.14 13069.1,6516.12 13052.2,6517.53 C 13035.3,6518.95 13014.7,6539.6 13014.7,6539.6 C 13014.7,6539.6 13044.4,6385.67 13044.4,6385.67 C 13044.4,6385.67 13044.4,6385.67 13044.4,6385.67 " /></svg>