<?xml version="1.0" standalone="no" ?><!DOCTYPE svg PUBLIC "-//W3C//DTD SVG 1.1//EN" "http://www.w3.org/Graphics/SVG/1.1/DTD/svg11.dtd"><svg width="70px" height="44px" viewBox="0 0 70 44" style="background-color: #ffffff00" xmlns="http://www.w3.org/2000/svg" xmlns:xlink="http://www.w3.org/1999/xlink" version="1.1" ><path stroke="none" fill="#000000" transform="matrix(0.05 0 0 0.05 -695 -292)" d="M 13946.3,6360.77 L 13968.5,6347.94 L 14215.9,6490.8 L 14215.9,6516.46 L 13946.3,6360.77 Z " /><path stroke="none" fill="#000000" transform="matrix(0.05 0 0 0.05 -695 -292)" d="M 14007.8,6331.67 L 14018.8,6312.47 L 14221.5,6429.46 L 14210.4,6448.66 L 14007.8,6331.67 Z " /><path stroke="none" fill="#000000" transform="matrix(0.05 0 0 0.05 -695 -292)" d="M 14215.9,6516.46 L 14215.9,6490.8 L 14463.4,6347.94 L 14474,6354.08 L 14474.3,6366.23 L 14215.9,6516.46 Z " /><path stroke="none" fill="#000000" transform="matrix(0.05 0 0 0.05 -695 -292)" d="M 14484.7,6348.22 L 14474,6354.08 L 14463.4,6347.94 L 14463.4,6062.22 L 14485.6,6049.39 L 14484.7,6348.22 Z " /><path stroke="none" fill="#000000" transform="matrix(0.05 0 0 0.05 -695 -292)" d="M 14429.7,6322.07 L 14407.5,6322.07 L 14407.5,6088.09 L 14429.7,6088.09 L 14429.7,6322.07 Z " /><path stroke="none" fill="#000000" transform="matrix(0.05 0 0 0.05 -695 -292)" d="M 14485.6,6049.39 L 14463.4,6062.22 L 14215.9,5919.35 L 14215.9,5893.7 L 14485.6,6049.39 Z " /><path stroke="none" fill="#000000" transform="matrix(0.05 0 0 0.05 -695 -292)" d="M 14215.9,5893.7 L 14215.9,5919.35 L 13968.5,6062.22 L 13946.3,6049.39 L 14215.9,5893.7 Z " /><path stroke="none" fill="#000000" transform="matrix(0.05 0 0 0.05 -695 -292)" d="M 14210.4,5961.49 L 14221.5,5980.7 L 14018.8,6097.69 L 14007.8,6078.48 L 14210.4,5961.49 Z " /><path stroke="none" fill="#000000" transform="matrix(0.05 0 0 0.05 -695 -292)" d="M 13946.3,6049.39 L 13968.5,6062.22 L 13968.5,6347.94 L 13946.3,6360.77 L 13946.3,6049.39 Z " /><text x="0" y="0" stroke="none" fill="#000000" transform="matrix(0.05 0 0 0.05 38.104 36.3926)" font-style="normal" font-weight="bold" font-size="180px" font-family="Helvetica" >O</text><path stroke="none" fill="#000000" transform="matrix(0.05 0 0 0.05 -695 -292)" d="M 14474.3,6366.23 L 14474,6354.08 L 14484.7,6348.22 L 14655.2,6445.91 L 14644.2,6465.12 L 14474.3,6366.23 Z " /><path stroke="none" fill="#000000" transform="matrix(0.05 0 0 0.05 -695 -292)" d="M 14822.1,6463.93 L 14811,6444.72 L 14989.9,6340.56 L 14989.9,6366.23 L 14822.1,6463.93 Z " /><path stroke="none" fill="#000000" transform="matrix(0.05 0 0 0.05 -695 -292)" d="M 14989.9,6366.23 L 14989.9,6340.56 L 15253.8,6493.47 L 15242.7,6512.68 L 14989.9,6366.23 Z " /><path stroke="none" fill="#000000" transform="matrix(0.05 0 0 0.05 -695 -292)" d="M 14475.1,6582.63 L 14480.7,6677.82 L 14458.7,6678.82 L 14453.1,6583.63 Z " /><path stroke="none" fill="#000000" transform="matrix(0.05 0 0 0.05 -695 -292)" d="M 14456.3,6452.27 C 14456.3,6452.27 14503.9,6599.74 14503.9,6599.74 C 14503.9,6599.74 14481.1,6582.72 14464.1,6584.13 C 14447.2,6585.54 14426.6,6606.2 14426.6,6606.2 C 14426.6,6606.2 14456.3,6452.27 14456.3,6452.27 C 14456.3,6452.27 14456.3,6452.27 14456.3,6452.27 " /><path stroke="#000000" stroke-width="1" fill="none" transform="matrix(0.05 0 0 0.05 -695 -292)" d="M 14456.3,6452.27 C 14456.3,6452.27 14503.9,6599.74 14503.9,6599.74 C 14503.9,6599.74 14481.1,6582.72 14464.1,6584.13 C 14447.2,6585.54 14426.6,6606.2 14426.6,6606.2 C 14426.6,6606.2 14456.3,6452.27 14456.3,6452.27 C 14456.3,6452.27 14456.3,6452.27 14456.3,6452.27 " /></svg>