<?xml version="1.0" standalone="no" ?><!DOCTYPE svg PUBLIC "-//W3C//DTD SVG 1.1//EN" "http://www.w3.org/Graphics/SVG/1.1/DTD/svg11.dtd"><svg width="92px" height="59px" viewBox="0 0 92 59" style="background-color: #ffffff00" xmlns="http://www.w3.org/2000/svg" xmlns:xlink="http://www.w3.org/1999/xlink" version="1.1" ><path stroke="none" fill="#000000" transform="matrix(0.05 0 0 0.05 -158 -81)" d="M 3712.55,2187.07 L 3723.22,2181.2 L 3733.86,2187.35 L 3733.86,2474.65 L 3723.22,2480.8 L 3712.55,2474.93 L 3712.55,2187.07 Z " /><path stroke="none" fill="#000000" transform="matrix(0.05 0 0 0.05 -158 -81)" d="M 3722.97,2492.97 L 3723.22,2480.8 L 3733.86,2474.65 L 3982.68,2618.31 L 3982.68,2643.99 L 3722.97,2492.97 Z " /><path stroke="none" fill="#000000" transform="matrix(0.05 0 0 0.05 -158 -81)" d="M 3773.17,2458.37 L 3784.27,2439.14 L 3988.23,2556.9 L 3977.13,2576.13 L 3773.17,2458.37 Z " /><path stroke="none" fill="#000000" transform="matrix(0.05 0 0 0.05 -158 -81)" d="M 3982.68,2643.99 L 3982.68,2618.31 L 4231.5,2474.65 L 4253.74,2487.49 L 3982.68,2643.99 Z " /><path stroke="none" fill="#000000" transform="matrix(0.05 0 0 0.05 -158 -81)" d="M 4253.74,2487.49 L 4231.5,2474.65 L 4231.5,2187.35 L 4242.14,2181.2 L 4252.79,2187.35 L 4253.74,2487.49 Z " /><path stroke="none" fill="#000000" transform="matrix(0.05 0 0 0.05 -158 -81)" d="M 4197.74,2448.76 L 4175.54,2448.76 L 4175.54,2213.24 L 4197.74,2213.24 L 4197.74,2448.76 Z " /><path stroke="none" fill="#000000" transform="matrix(0.05 0 0 0.05 -158 -81)" d="M 4242.14,2168.91 L 4242.14,2181.2 L 4231.5,2187.35 L 3982.68,2043.69 L 3982.68,2018.01 L 4242.14,2168.91 Z " /><path stroke="none" fill="#000000" transform="matrix(0.05 0 0 0.05 -158 -81)" d="M 3982.68,2018.01 L 3982.68,2043.69 L 3733.86,2187.35 L 3723.22,2181.2 L 3722.97,2169.03 L 3982.68,2018.01 Z " /><path stroke="none" fill="#000000" transform="matrix(0.05 0 0 0.05 -158 -81)" d="M 3977.13,2085.87 L 3988.23,2105.1 L 3784.27,2222.86 L 3773.17,2203.63 L 3977.13,2085.87 Z " /><path stroke="none" fill="#000000" transform="matrix(0.05 0 0 0.05 -158 -81)" d="M 4252.79,2187.35 L 4242.14,2181.2 L 4242.14,2168.91 L 4501.8,2017.87 L 4501.85,2043.57 L 4252.79,2187.35 Z " /><text x="0" y="0" stroke="none" fill="#ff0000" transform="matrix(0.05 0 0 0.05 76.5529 31.2988)" font-style="normal" font-weight="bold" font-size="180px" font-family="Helvetica" >OH</text><path stroke="none" fill="#ff0000" transform="matrix(0.05 0 0 0.05 -158 -81)" d="M 4501.85,2043.57 L 4501.8,2017.87 L 4684.27,2124.04 L 4673.17,2143.27 L 4501.85,2043.57 Z " /><text x="0" y="0" stroke="none" fill="#ff0000" transform="matrix(0.05 0 0 0.05 63.5799 8.82878)" font-style="normal" font-weight="bold" font-size="180px" font-family="Helvetica" >O</text><path stroke="none" fill="#ff0000" transform="matrix(0.05 0 0 0.05 -158 -81)" d="M 4484.95,2047.42 L 4462.75,2047.42 L 4462.75,1832.25 L 4484.95,1832.25 L 4484.95,2047.42 Z " /><path stroke="none" fill="#ff0000" transform="matrix(0.05 0 0 0.05 -158 -81)" d="M 4540.45,2047.42 L 4518.25,2047.42 L 4518.25,1832.25 L 4540.45,1832.25 L 4540.45,2047.42 Z " /><text x="0" y="0" stroke="none" fill="#000000" transform="matrix(0.05 0 0 0.05 1.68459 53.7688)" font-style="normal" font-weight="bold" font-size="180px" font-family="Helvetica" >H</text><text x="0" y="0" stroke="none" fill="#000000" transform="matrix(0.05 0 0 0.05 8.1841 55.8386)" font-style="normal" font-weight="bold" font-size="135px" font-family="Helvetica" >3</text><text x="0" y="0" stroke="none" fill="#000000" transform="matrix(0.05 0 0 0.05 11.9381 53.7688)" font-style="normal" font-weight="bold" font-size="180px" font-family="Helvetica" >C</text><path stroke="none" fill="#000000" transform="matrix(0.05 0 0 0.05 -158 -81)" d="M 3712.55,2474.93 L 3723.22,2480.8 L 3722.97,2492.97 L 3551.82,2592.57 L 3540.72,2573.35 L 3712.55,2474.93 Z " /><text x="0" y="0" stroke="none" fill="#000000" transform="matrix(0.05 0 0 0.05 1.68459 23.8088)" font-style="normal" font-weight="bold" font-size="180px" font-family="Helvetica" >H</text><text x="0" y="0" stroke="none" fill="#000000" transform="matrix(0.05 0 0 0.05 8.1841 25.8786)" font-style="normal" font-weight="bold" font-size="135px" font-family="Helvetica" >3</text><text x="0" y="0" stroke="none" fill="#000000" transform="matrix(0.05 0 0 0.05 11.9381 23.8088)" font-style="normal" font-weight="bold" font-size="180px" font-family="Helvetica" >C</text><path stroke="none" fill="#000000" transform="matrix(0.05 0 0 0.05 -158 -81)" d="M 3722.97,2169.03 L 3723.22,2181.2 L 3712.55,2187.07 L 3540.71,2088.65 L 3551.81,2069.42 L 3722.97,2169.03 Z " /></svg>