<?xml version="1.0" standalone="no" ?><!DOCTYPE svg PUBLIC "-//W3C//DTD SVG 1.1//EN" "http://www.w3.org/Graphics/SVG/1.1/DTD/svg11.dtd"><svg width="79px" height="34px" viewBox="0 0 79 34" style="background-color: #ffffff00" xmlns="http://www.w3.org/2000/svg" xmlns:xlink="http://www.w3.org/1999/xlink" version="1.1" ><text x="0" y="0" stroke="none" fill="#ff0000" transform="matrix(0.05 0 0 0.05 1.78024 31.1248)" font-style="normal" font-weight="bold" font-size="180px" font-family="Helvetica" >HO</text><path stroke="none" fill="#ff0000" transform="matrix(0.05 0 0 0.05 -208 -86)" d="M 4484.56,2239.18 L 4473.46,2219.95 L 4654.86,2114.39 L 4654.81,2140.09 L 4484.56,2239.18 Z " /><path stroke="none" fill="#000000" transform="matrix(0.05 0 0 0.05 -208 -86)" d="M 4654.81,2140.09 L 4654.86,2114.39 L 4914.52,2265.43 L 4914.52,2291.11 L 4654.81,2140.09 Z " /><path stroke="none" fill="#000000" transform="matrix(0.05 0 0 0.05 -208 -86)" d="M 4914.52,2291.11 L 4914.52,2265.43 L 5163.34,2121.77 L 5173.98,2127.92 L 5173.98,2140.21 L 4914.52,2291.11 Z " /><path stroke="none" fill="#000000" transform="matrix(0.05 0 0 0.05 -208 -86)" d="M 5173.98,2140.21 L 5173.98,2127.92 L 5184.63,2121.77 L 5433.44,2265.43 L 5433.44,2291.11 L 5173.98,2140.21 Z " /><path stroke="none" fill="#000000" transform="matrix(0.05 0 0 0.05 -208 -86)" d="M 5433.44,2291.11 L 5433.44,2265.43 L 5687.36,2118.31 L 5698.46,2137.53 L 5433.44,2291.11 Z " /><text x="0" y="0" stroke="none" fill="#ff0000" transform="matrix(0.05 0 0 0.05 21.2528 8.65477)" font-style="normal" font-weight="bold" font-size="180px" font-family="Helvetica" >O</text><path stroke="none" fill="#ff0000" transform="matrix(0.05 0 0 0.05 -208 -86)" d="M 4638.41,2143.94 L 4616.21,2143.94 L 4616.21,1928.77 L 4638.41,1928.77 L 4638.41,2143.94 Z " /><path stroke="none" fill="#ff0000" transform="matrix(0.05 0 0 0.05 -208 -86)" d="M 4693.91,2143.94 L 4671.71,2143.94 L 4671.71,1928.77 L 4693.91,1928.77 L 4693.91,2143.94 Z " /><path stroke="none" fill="#000000" transform="matrix(0.05 0 0 0.05 -208 -86)" d="M 5184.63,2121.77 L 5173.98,2127.92 L 5163.34,2121.77 L 5162.88,1828.32 L 5185.08,1828.32 L 5184.63,2121.77 Z " /></svg>