<?xml version="1.0" standalone="no" ?><!DOCTYPE svg PUBLIC "-//W3C//DTD SVG 1.1//EN" "http://www.w3.org/Graphics/SVG/1.1/DTD/svg11.dtd"><svg width="61px" height="40px" viewBox="0 0 61 40" style="background-color: #ffffff00" xmlns="http://www.w3.org/2000/svg" xmlns:xlink="http://www.w3.org/1999/xlink" version="1.1" ><path stroke="none" fill="#000000" transform="matrix(0.05 0 0 0.05 -308 -84)" d="M 6673.98,1853.03 L 6696.25,1836.85 L 6695.23,2139.19 L 6684.52,2144.37 L 6673.98,2136.72 L 6673.98,1853.03 Z " /><path stroke="none" fill="#000000" transform="matrix(0.05 0 0 0.05 -308 -84)" d="M 6404.17,1765.36 L 6395.67,1739.19 L 6696.25,1836.85 L 6673.98,1853.03 L 6404.17,1765.36 Z " /><path stroke="none" fill="#000000" transform="matrix(0.05 0 0 0.05 -308 -84)" d="M 6237.42,1994.87 L 6209.9,1994.87 L 6395.67,1739.19 L 6404.17,1765.36 L 6237.42,1994.87 Z " /><text x="0" y="0" stroke="none" fill="#ff0000" transform="matrix(0.05 0 0 0.05 35.0708 35.2449)" font-style="normal" font-weight="bold" font-size="180px" font-family="Helvetica" >CO</text><text x="0" y="0" stroke="none" fill="#ff0000" transform="matrix(0.05 0 0 0.05 48.5708 37.3147)" font-style="normal" font-weight="bold" font-size="135px" font-family="Helvetica" >2</text><text x="0" y="0" stroke="none" fill="#ff0000" transform="matrix(0.05 0 0 0.05 52.3249 35.2449)" font-style="normal" font-weight="bold" font-size="180px" font-family="Helvetica" >H</text><path stroke="none" fill="#000000" transform="matrix(0.05 0 0 0.05 -308 -84)" d="M 6858.01,2256.7 L 6844.96,2274.66 L 6682.89,2156.17 L 6684.52,2144.37 L 6695.23,2139.19 L 6858.01,2256.7 Z " /><path stroke="none" fill="#000000" transform="matrix(0.05 0 0 0.05 -308 -84)" d="M 6673.98,2136.72 L 6684.52,2144.37 L 6682.89,2156.17 L 6395.67,2250.56 L 6404.17,2224.39 L 6673.98,2136.72 Z " /><path stroke="none" fill="#000000" transform="matrix(0.05 0 0 0.05 -308 -84)" d="M 6404.17,2224.39 L 6395.67,2250.56 L 6209.9,1994.87 L 6237.42,1994.87 L 6404.17,2224.39 Z " /></svg>