<?xml version="1.0" standalone="no" ?><!DOCTYPE svg PUBLIC "-//W3C//DTD SVG 1.1//EN" "http://www.w3.org/Graphics/SVG/1.1/DTD/svg11.dtd"><svg width="38px" height="31px" viewBox="0 0 38 31" style="background-color: #ffffff00" xmlns="http://www.w3.org/2000/svg" xmlns:xlink="http://www.w3.org/1999/xlink" version="1.1" ><text x="0" y="0" stroke="none" fill="#ff0000" transform="matrix(0.05 0 0 0.05 23.041 18.4988)" font-style="normal" font-weight="bold" font-size="180px" font-family="Helvetica" >NH</text><path stroke="none" fill="#000000" transform="matrix(0.05 0 0 0.05 -105 -724)" d="M 2153.05,14626.9 L 2175.31,14643.1 L 2175.31,14927.3 L 2153.05,14943.5 L 2153.05,14626.9 Z " /><path stroke="none" fill="#000000" transform="matrix(0.05 0 0 0.05 -105 -724)" d="M 2153.05,14943.5 L 2175.31,14927.3 L 2446.07,15015.3 L 2454.55,15041.5 L 2153.05,14943.5 Z " /><path stroke="none" fill="#ff0000" transform="matrix(0.05 0 0 0.05 -105 -724)" d="M 2454.55,15041.5 L 2446.07,15015.3 L 2549.98,14870.7 L 2567.94,14883.7 L 2454.55,15041.5 Z " /><path stroke="none" fill="#ff0000" transform="matrix(0.05 0 0 0.05 -105 -724)" d="M 2567.55,14686.1 L 2549.59,14699.2 L 2446.08,14555.1 L 2454.56,14528.9 L 2567.55,14686.1 Z " /><path stroke="none" fill="#000000" transform="matrix(0.05 0 0 0.05 -105 -724)" d="M 2454.56,14528.9 L 2446.08,14555.1 L 2175.31,14643.1 L 2153.05,14626.9 L 2454.56,14528.9 Z " /></svg>