<?xml version="1.0" standalone="no" ?><!DOCTYPE svg PUBLIC "-//W3C//DTD SVG 1.1//EN" "http://www.w3.org/Graphics/SVG/1.1/DTD/svg11.dtd"><svg width="32px" height="51px" viewBox="0 0 32 51" style="background-color: #ffffff00" xmlns="http://www.w3.org/2000/svg" xmlns:xlink="http://www.w3.org/1999/xlink" version="1.1" ><text x="0" y="0" stroke="none" fill="#ff0000" transform="matrix(0.05 0 0 0.05 12.8542 28.5008)" font-style="normal" font-weight="bold" font-size="180px" font-family="Helvetica" >N</text><path stroke="none" fill="#ff0000" transform="matrix(0.05 0 0 0.05 -213 -712)" d="M 4682.22,14700.2 L 4671.12,14681 L 4830.87,14589.6 L 4853.16,14602.4 L 4682.22,14700.2 Z " /><path stroke="none" fill="#ff0000" transform="matrix(0.05 0 0 0.05 -213 -712)" d="M 4570.98,14839.7 L 4593.18,14839.7 L 4592.5,15038.5 L 4582.08,15044.8 L 4571.66,15038.5 L 4570.98,14839.7 Z " /><path stroke="none" fill="#ff0000" transform="matrix(0.05 0 0 0.05 -213 -712)" d="M 4493.88,14681.5 L 4482.78,14700.7 L 4311,14602.4 L 4333.29,14589.6 L 4493.88,14681.5 Z " /><path stroke="none" fill="#000000" transform="matrix(0.05 0 0 0.05 -213 -712)" d="M 4333.29,14589.6 L 4311,14602.4 L 4311.52,14295.8 L 4333.72,14295.8 L 4333.29,14589.6 Z " /><path stroke="none" fill="#000000" transform="matrix(0.05 0 0 0.05 -213 -712)" d="M 4853.16,14602.4 L 4830.87,14589.6 L 4830.44,14295.8 L 4852.64,14295.8 L 4853.16,14602.4 Z " /><path stroke="none" fill="#000000" transform="matrix(0.05 0 0 0.05 -213 -712)" d="M 4571.66,15038.5 L 4582.08,15044.8 L 4582.08,15057.1 L 4328.17,15204.3 L 4317.07,15185 L 4571.66,15038.5 Z " /><path stroke="none" fill="#000000" transform="matrix(0.05 0 0 0.05 -213 -712)" d="M 4582.08,15057.1 L 4582.08,15044.8 L 4592.5,15038.5 L 4847.09,15185 L 4835.99,15204.3 L 4582.08,15057.1 Z " /></svg>