<?xml version="1.0" standalone="no" ?><!DOCTYPE svg PUBLIC "-//W3C//DTD SVG 1.1//EN" "http://www.w3.org/Graphics/SVG/1.1/DTD/svg11.dtd"><svg width="57px" height="16px" viewBox="0 0 57 16" style="background-color: #ffffff00" xmlns="http://www.w3.org/2000/svg" xmlns:xlink="http://www.w3.org/1999/xlink" version="1.1" ><path stroke="none" fill="#000000" transform="matrix(0.05 0 0 0.05 -289 -725)" d="M 6878.67,14748.9 L 6867.57,14768.2 L 6613.66,14621.1 L 6613.66,14595.4 L 6878.67,14748.9 Z " /><path stroke="none" fill="#000000" transform="matrix(0.05 0 0 0.05 -289 -725)" d="M 6613.66,14595.4 L 6613.66,14621.1 L 6353.95,14772.1 L 6353.89,14746.4 L 6613.66,14595.4 Z " /><text x="0" y="0" stroke="none" fill="#ff0000" transform="matrix(0.05 0 0 0.05 2.23352 8.67676)" font-style="normal" font-weight="bold" font-size="180px" font-family="Helvetica" >H</text><text x="0" y="0" stroke="none" fill="#ff0000" transform="matrix(0.05 0 0 0.05 8.73303 10.7466)" font-style="normal" font-weight="bold" font-size="135px" font-family="Helvetica" >2</text><text x="0" y="0" stroke="none" fill="#ff0000" transform="matrix(0.05 0 0 0.05 12.4871 8.67676)" font-style="normal" font-weight="bold" font-size="180px" font-family="Helvetica" >N</text><path stroke="none" fill="#ff0000" transform="matrix(0.05 0 0 0.05 -289 -725)" d="M 6353.89,14746.4 L 6353.95,14772.1 L 6182.94,14672.5 L 6194.04,14653.3 L 6353.89,14746.4 Z " /></svg>