<?xml version="1.0" standalone="no" ?><!DOCTYPE svg PUBLIC "-//W3C//DTD SVG 1.1//EN" "http://www.w3.org/Graphics/SVG/1.1/DTD/svg11.dtd"><svg width="50px" height="39px" viewBox="0 0 50 39" style="background-color: #ffffff00" xmlns="http://www.w3.org/2000/svg" xmlns:xlink="http://www.w3.org/1999/xlink" version="1.1" ><path stroke="none" fill="#ff0000" transform="matrix(0.05 0 0 0.05 -105 -782)" d="M 2153.18,15907.4 L 2175.42,15920.3 L 2175.42,16207.6 L 2153.18,16220.4 L 2153.18,15907.4 Z " /><path stroke="none" fill="#ff0000" transform="matrix(0.05 0 0 0.05 -105 -782)" d="M 2209.18,15946.2 L 2231.38,15946.2 L 2231.38,16181.7 L 2209.18,16181.7 L 2209.18,15946.2 Z " /><path stroke="none" fill="#ff0000" transform="matrix(0.05 0 0 0.05 -105 -782)" d="M 2153.18,16220.4 L 2175.42,16207.6 L 2424.24,16351.2 L 2424.24,16376.9 L 2153.18,16220.4 Z " /><path stroke="none" fill="#ff0000" transform="matrix(0.05 0 0 0.05 -105 -782)" d="M 2424.24,16376.9 L 2424.24,16351.2 L 2673.06,16207.6 L 2695.3,16220.4 L 2424.24,16376.9 Z " /><path stroke="none" fill="#ff0000" transform="matrix(0.05 0 0 0.05 -105 -782)" d="M 2429.79,16309 L 2418.69,16289.8 L 2622.65,16172.1 L 2633.75,16191.3 L 2429.79,16309 Z " /><path stroke="none" fill="#ff0000" transform="matrix(0.05 0 0 0.05 -105 -782)" d="M 2695.3,16220.4 L 2673.06,16207.6 L 2673.06,15920.3 L 2683.7,15914.1 L 2694.37,15920 L 2695.3,16220.4 Z " /><path stroke="none" fill="#ff0000" transform="matrix(0.05 0 0 0.05 -105 -782)" d="M 2683.94,15901.9 L 2683.7,15914.1 L 2673.06,15920.3 L 2424.24,15776.6 L 2424.24,15750.9 L 2683.94,15901.9 Z " /><path stroke="none" fill="#ff0000" transform="matrix(0.05 0 0 0.05 -105 -782)" d="M 2633.75,15936.5 L 2622.65,15955.8 L 2418.69,15838 L 2429.79,15818.8 L 2633.75,15936.5 Z " /><path stroke="none" fill="#ff0000" transform="matrix(0.05 0 0 0.05 -105 -782)" d="M 2424.24,15750.9 L 2424.24,15776.6 L 2175.42,15920.3 L 2153.18,15907.4 L 2424.24,15750.9 Z " /><text x="0" y="0" stroke="none" fill="#000000" transform="matrix(0.05 0 0 0.05 38.9084 9.45477)" font-style="normal" font-weight="bold" font-size="180px" font-family="Helvetica" >Cl</text><path stroke="none" fill="#000000" transform="matrix(0.05 0 0 0.05 -105 -782)" d="M 2694.37,15920 L 2683.7,15914.1 L 2683.94,15901.9 L 2856.59,15801.5 L 2867.69,15820.7 L 2694.37,15920 Z " /></svg>