<?xml version="1.0" standalone="no" ?><!DOCTYPE svg PUBLIC "-//W3C//DTD SVG 1.1//EN" "http://www.w3.org/Graphics/SVG/1.1/DTD/svg11.dtd"><svg width="58px" height="36px" viewBox="0 0 58 36" style="background-color: #ffffff00" xmlns="http://www.w3.org/2000/svg" xmlns:xlink="http://www.w3.org/1999/xlink" version="1.1" ><path stroke="none" fill="#ff0000" transform="matrix(0.05 0 0 0.05 -207 -786)" d="M 4191.14,15920.7 L 4213.38,15933.6 L 4213.38,16220.9 L 4191.14,16233.7 L 4191.14,15920.7 Z " /><path stroke="none" fill="#ff0000" transform="matrix(0.05 0 0 0.05 -207 -786)" d="M 4247.14,15959.5 L 4269.34,15959.5 L 4269.34,16195 L 4247.14,16195 L 4247.14,15959.5 Z " /><path stroke="none" fill="#ff0000" transform="matrix(0.05 0 0 0.05 -207 -786)" d="M 4191.14,16233.7 L 4213.38,16220.9 L 4462.2,16364.5 L 4462.2,16390.2 L 4191.14,16233.7 Z " /><path stroke="none" fill="#ff0000" transform="matrix(0.05 0 0 0.05 -207 -786)" d="M 4462.2,16390.2 L 4462.2,16364.5 L 4711.02,16220.9 L 4721.66,16227 L 4721.66,16239.3 L 4462.2,16390.2 Z " /><path stroke="none" fill="#ff0000" transform="matrix(0.05 0 0 0.05 -207 -786)" d="M 4467.75,16322.4 L 4456.65,16303.1 L 4660.61,16185.4 L 4671.71,16204.6 L 4467.75,16322.4 Z " /><path stroke="none" fill="#ff0000" transform="matrix(0.05 0 0 0.05 -207 -786)" d="M 4732.31,16220.9 L 4721.66,16227 L 4711.02,16220.9 L 4711.02,15933.6 L 4721.66,15927.4 L 4732.31,15933.6 L 4732.31,16220.9 Z " /><path stroke="none" fill="#ff0000" transform="matrix(0.05 0 0 0.05 -207 -786)" d="M 4721.66,15915.1 L 4721.66,15927.4 L 4711.02,15933.6 L 4462.2,15789.9 L 4462.2,15764.3 L 4721.66,15915.1 Z " /><path stroke="none" fill="#ff0000" transform="matrix(0.05 0 0 0.05 -207 -786)" d="M 4671.71,15949.9 L 4660.61,15969.1 L 4456.65,15851.3 L 4467.75,15832.1 L 4671.71,15949.9 Z " /><path stroke="none" fill="#ff0000" transform="matrix(0.05 0 0 0.05 -207 -786)" d="M 4462.2,15764.3 L 4462.2,15789.9 L 4213.38,15933.6 L 4191.14,15920.7 L 4462.2,15764.3 Z " /><path stroke="none" fill="#ff0000" transform="matrix(0.05 0 0 0.05 -207 -786)" d="M 4721.66,16239.3 L 4721.66,16227 L 4732.31,16220.9 L 4981.12,16364.5 L 4981.12,16390.2 L 4721.66,16239.3 Z " /><path stroke="none" fill="#ff0000" transform="matrix(0.05 0 0 0.05 -207 -786)" d="M 4981.12,16390.2 L 4981.12,16364.5 L 5229.94,16220.9 L 5252.18,16233.7 L 4981.12,16390.2 Z " /><path stroke="none" fill="#ff0000" transform="matrix(0.05 0 0 0.05 -207 -786)" d="M 4986.67,16322.4 L 4975.57,16303.1 L 5179.53,16185.4 L 5190.63,16204.6 L 4986.67,16322.4 Z " /><path stroke="none" fill="#ff0000" transform="matrix(0.05 0 0 0.05 -207 -786)" d="M 5252.18,16233.7 L 5229.94,16220.9 L 5229.94,15933.6 L 5252.18,15920.7 L 5252.18,16233.7 Z " /><path stroke="none" fill="#ff0000" transform="matrix(0.05 0 0 0.05 -207 -786)" d="M 5252.18,15920.7 L 5229.94,15933.6 L 4981.12,15789.9 L 4981.12,15764.3 L 5252.18,15920.7 Z " /><path stroke="none" fill="#ff0000" transform="matrix(0.05 0 0 0.05 -207 -786)" d="M 5190.63,15949.9 L 5179.53,15969.1 L 4975.57,15851.3 L 4986.67,15832.1 L 5190.63,15949.9 Z " /><path stroke="none" fill="#ff0000" transform="matrix(0.05 0 0 0.05 -207 -786)" d="M 4981.12,15764.3 L 4981.12,15789.9 L 4732.31,15933.6 L 4721.66,15927.4 L 4721.66,15915.1 L 4981.12,15764.3 Z " /></svg>