<?xml version="1.0" standalone="no" ?><!DOCTYPE svg PUBLIC "-//W3C//DTD SVG 1.1//EN" "http://www.w3.org/Graphics/SVG/1.1/DTD/svg11.dtd"><svg width="52px" height="39px" viewBox="0 0 52 39" style="background-color: #ffffff00" xmlns="http://www.w3.org/2000/svg" xmlns:xlink="http://www.w3.org/1999/xlink" version="1.1" ><path stroke="none" fill="#000000" transform="matrix(0.05 0 0 0.05 -298 -782)" d="M 6406.24,16141.2 L 6416.9,16147.1 L 6416.73,16159.3 L 6227.87,16269.1 L 6216.77,16249.8 L 6406.24,16141.2 Z " /><text x="0" y="0" stroke="none" fill="#000000" transform="matrix(0.05 0 0 0.05 1.6214 36.0848)" font-style="normal" font-weight="bold" font-size="180px" font-family="Helvetica" >Br</text><path stroke="none" fill="#000000" transform="matrix(0.05 0 0 0.05 -298 -782)" d="M 6416.9,15835.2 L 6416.9,15847.5 L 6406.26,15853.7 L 6151.89,15707.3 L 6162.99,15688.1 L 6416.9,15835.2 Z " /><path stroke="none" fill="#ff0000" transform="matrix(0.05 0 0 0.05 -298 -782)" d="M 6676.37,15710 L 6676.37,15684.3 L 6947.42,15840.8 L 6925.18,15853.7 L 6676.37,15710 Z " /><path stroke="none" fill="#ff0000" transform="matrix(0.05 0 0 0.05 -298 -782)" d="M 6427.55,15853.7 L 6416.9,15847.5 L 6416.9,15835.2 L 6676.37,15684.3 L 6676.37,15710 L 6427.55,15853.7 Z " /><path stroke="none" fill="#ff0000" transform="matrix(0.05 0 0 0.05 -298 -782)" d="M 6477.95,15889.2 L 6466.85,15869.9 L 6670.82,15752.2 L 6681.91,15771.4 L 6477.95,15889.2 Z " /><path stroke="none" fill="#ff0000" transform="matrix(0.05 0 0 0.05 -298 -782)" d="M 6427.55,16141 L 6416.9,16147.1 L 6406.24,16141.2 L 6406.26,15853.7 L 6416.9,15847.5 L 6427.55,15853.7 L 6427.55,16141 Z " /><path stroke="none" fill="#ff0000" transform="matrix(0.05 0 0 0.05 -298 -782)" d="M 6676.37,16284.6 L 6676.37,16310.3 L 6416.73,16159.3 L 6416.9,16147.1 L 6427.55,16141 L 6676.37,16284.6 Z " /><path stroke="none" fill="#ff0000" transform="matrix(0.05 0 0 0.05 -298 -782)" d="M 6681.91,16223.2 L 6670.82,16242.4 L 6466.85,16124.7 L 6477.95,16105.5 L 6681.91,16223.2 Z " /><path stroke="none" fill="#ff0000" transform="matrix(0.05 0 0 0.05 -298 -782)" d="M 6925.18,16141 L 6947.42,16153.8 L 6676.37,16310.3 L 6676.37,16284.6 L 6925.18,16141 Z " /><path stroke="none" fill="#ff0000" transform="matrix(0.05 0 0 0.05 -298 -782)" d="M 6925.18,15853.7 L 6947.42,15840.8 L 6947.42,16153.8 L 6925.18,16141 L 6925.18,15853.7 Z " /><path stroke="none" fill="#ff0000" transform="matrix(0.05 0 0 0.05 -298 -782)" d="M 6869.23,15879.6 L 6891.43,15879.6 L 6891.43,16115.1 L 6869.23,16115.1 L 6869.23,15879.6 Z " /></svg>