<?xml version="1.0" standalone="no" ?><!DOCTYPE svg PUBLIC "-//W3C//DTD SVG 1.1//EN" "http://www.w3.org/Graphics/SVG/1.1/DTD/svg11.dtd"><svg width="54px" height="42px" viewBox="0 0 54 42" style="background-color: #ffffff00" xmlns="http://www.w3.org/2000/svg" xmlns:xlink="http://www.w3.org/1999/xlink" version="1.1" ><path stroke="none" fill="#000000" transform="matrix(0.05 0 0 0.05 -101 -842)" d="M 2073.26,17106.2 L 2095.5,17119.1 L 2095.5,17406.4 L 2073.26,17419.2 L 2073.26,17106.2 Z " /><path stroke="none" fill="#000000" transform="matrix(0.05 0 0 0.05 -101 -842)" d="M 2073.26,17419.2 L 2095.5,17406.4 L 2344.32,17550 L 2344.32,17575.7 L 2073.26,17419.2 Z " /><path stroke="none" fill="#000000" transform="matrix(0.05 0 0 0.05 -101 -842)" d="M 2344.32,17575.7 L 2344.32,17550 L 2593.14,17406.4 L 2603.78,17412.5 L 2604.92,17424.3 L 2344.32,17575.7 Z " /><path stroke="none" fill="#ff0000" transform="matrix(0.05 0 0 0.05 -101 -842)" d="M 2614.52,17407.6 L 2603.78,17412.5 L 2593.14,17406.4 L 2593.14,17119.1 L 2603.78,17112.9 L 2614.52,17117.8 L 2614.52,17407.6 Z " /><path stroke="none" fill="#000000" transform="matrix(0.05 0 0 0.05 -101 -842)" d="M 2604.93,17101.2 L 2603.78,17112.9 L 2593.14,17119.1 L 2344.32,16975.4 L 2344.32,16949.7 L 2604.93,17101.2 Z " /><path stroke="none" fill="#000000" transform="matrix(0.05 0 0 0.05 -101 -842)" d="M 2344.32,16949.7 L 2344.32,16975.4 L 2095.5,17119.1 L 2073.26,17106.2 L 2344.32,16949.7 Z " /><text x="0" y="0" stroke="none" fill="#ff0000" transform="matrix(0.05 0 0 0.05 38.6619 9.39476)" font-style="normal" font-weight="bold" font-size="180px" font-family="Helvetica" >OH</text><path stroke="none" fill="#ff0000" transform="matrix(0.05 0 0 0.05 -101 -842)" d="M 2614.52,17117.8 L 2603.78,17112.9 L 2604.93,17101.2 L 2762.22,16982.8 L 2795.67,17040.8 L 2614.52,17117.8 Z " /><text x="0" y="0" stroke="none" fill="#ff0000" transform="matrix(0.05 0 0 0.05 38.6619 39.3548)" font-style="normal" font-weight="bold" font-size="180px" font-family="Helvetica" >OH</text><path stroke="none" fill="#ff0000" transform="matrix(0.05 0 0 0.05 -101 -842)" d="M 2604.92,17424.3 L 2603.78,17412.5 L 2614.52,17407.6 L 2796.87,17485.4 L 2763.42,17543.3 L 2604.92,17424.3 Z " /></svg>