<?xml version="1.0" standalone="no" ?><!DOCTYPE svg PUBLIC "-//W3C//DTD SVG 1.1//EN" "http://www.w3.org/Graphics/SVG/1.1/DTD/svg11.dtd"><svg width="57px" height="49px" viewBox="0 0 57 49" style="background-color: #ffffff00" xmlns="http://www.w3.org/2000/svg" xmlns:xlink="http://www.w3.org/1999/xlink" version="1.1" ><path stroke="none" fill="#000000" transform="matrix(0.05 0 0 0.05 -206 -839)" d="M 4174.71,17352.3 L 4163.61,17333 L 4428.62,17179.5 L 4428.62,17205.1 L 4174.71,17352.3 Z " /><path stroke="none" fill="#000000" transform="matrix(0.05 0 0 0.05 -206 -839)" d="M 4428.62,17205.1 L 4428.62,17179.5 L 4688.08,17330.3 L 4688.08,17342.6 L 4678.5,17349.5 L 4428.62,17205.1 Z " /><path stroke="none" fill="#ff0000" transform="matrix(0.05 0 0 0.05 -206 -839)" d="M 4697.66,17349.5 L 4688.08,17342.6 L 4688.08,17330.3 L 4947.54,17179.5 L 4947.54,17205.1 L 4697.66,17349.5 Z " /><path stroke="none" fill="#000000" transform="matrix(0.05 0 0 0.05 -206 -839)" d="M 4947.54,17205.1 L 4947.54,17179.5 L 5212.55,17333 L 5201.45,17352.3 L 4947.54,17205.1 Z " /><text x="0" y="0" stroke="none" fill="#ff0000" transform="matrix(0.05 0 0 0.05 24.9039 46.3508)" font-style="normal" font-weight="bold" font-size="180px" font-family="Helvetica" >OH</text><path stroke="none" fill="#ff0000" transform="matrix(0.05 0 0 0.05 -206 -839)" d="M 4678.5,17349.5 L 4688.08,17342.6 L 4697.66,17349.5 L 4721.53,17544.3 L 4654.63,17544.3 L 4678.5,17349.5 Z " /><text x="0" y="0" stroke="none" fill="#ff0000" transform="matrix(0.05 0 0 0.05 37.8769 8.90077)" font-style="normal" font-weight="bold" font-size="180px" font-family="Helvetica" >OH</text><path stroke="none" fill="#ff0000" transform="matrix(0.05 0 0 0.05 -206 -839)" d="M 4958.64,17139.6 L 4936.44,17139.6 L 4933.04,17117.4 L 4962.04,17117.4 L 4958.64,17139.6 Z " /><path stroke="none" fill="#ff0000" transform="matrix(0.05 0 0 0.05 -206 -839)" d="M 4968.12,17077.7 L 4926.97,17077.7 L 4923.57,17055.5 L 4971.52,17055.5 L 4968.12,17077.7 Z " /><path stroke="none" fill="#ff0000" transform="matrix(0.05 0 0 0.05 -206 -839)" d="M 4977.59,17015.9 L 4917.49,17015.9 L 4914.09,16993.7 L 4980.99,16993.7 L 4977.59,17015.9 Z " /></svg>