<?xml version="1.0" standalone="no" ?><!DOCTYPE svg PUBLIC "-//W3C//DTD SVG 1.1//EN" "http://www.w3.org/Graphics/SVG/1.1/DTD/svg11.dtd"><svg width="54px" height="47px" viewBox="0 0 54 47" style="background-color: #ffffff00" xmlns="http://www.w3.org/2000/svg" xmlns:xlink="http://www.w3.org/1999/xlink" version="1.1" ><path stroke="none" fill="#000000" transform="matrix(0.05 0 0 0.05 -297 -841)" d="M 6402.13,16957.9 L 6424.39,16974.1 L 6424.39,17258.3 L 6402.13,17274.5 L 6402.13,16957.9 Z " /><path stroke="none" fill="#ff0000" transform="matrix(0.05 0 0 0.05 -297 -841)" d="M 6402.13,17274.5 L 6424.39,17258.3 L 6694.77,17346.2 L 6703.28,17372.4 L 6402.13,17274.5 Z " /><path stroke="none" fill="#000000" transform="matrix(0.05 0 0 0.05 -297 -841)" d="M 6703.28,17372.4 L 6694.77,17346.2 L 6861.88,17116.2 L 6889.4,17116.2 L 6703.28,17372.4 Z " /><path stroke="none" fill="#000000" transform="matrix(0.05 0 0 0.05 -297 -841)" d="M 6889.4,17116.2 L 6861.88,17116.2 L 6694.77,16886.2 L 6703.28,16860 L 6889.4,17116.2 Z " /><path stroke="none" fill="#000000" transform="matrix(0.05 0 0 0.05 -297 -841)" d="M 6703.28,16860 L 6694.77,16886.2 L 6424.39,16974.1 L 6402.13,16957.9 L 6703.28,16860 Z " /><text x="0" y="0" stroke="none" fill="#ff0000" transform="matrix(0.05 0 0 0.05 1.57407 34.3438)" font-style="normal" font-weight="bold" font-size="180px" font-family="Helvetica" >HO</text><path stroke="none" fill="#ff0000" transform="matrix(0.05 0 0 0.05 -297 -841)" d="M 6364.17,17288.4 L 6377.22,17306.3 L 6361.22,17322.1 L 6344.26,17298.7 L 6364.17,17288.4 Z " /><path stroke="none" fill="#ff0000" transform="matrix(0.05 0 0 0.05 -297 -841)" d="M 6307.2,17318 L 6331.43,17351.4 L 6315.42,17367.1 L 6287.28,17328.4 L 6307.2,17318 Z " /><path stroke="none" fill="#ff0000" transform="matrix(0.05 0 0 0.05 -297 -841)" d="M 6250.23,17347.6 L 6285.64,17396.4 L 6269.63,17412.1 L 6230.31,17358 L 6250.23,17347.6 Z " /><text x="0" y="0" stroke="none" fill="#ff0000" transform="matrix(0.05 0 0 0.05 39.0685 44.4147)" font-style="normal" font-weight="bold" font-size="180px" font-family="Helvetica" >OH</text><path stroke="none" fill="#ff0000" transform="matrix(0.05 0 0 0.05 -297 -841)" d="M 6704.76,17412.9 L 6725.87,17406 L 6735.93,17426.1 L 6708.42,17435 L 6704.76,17412.9 Z " /><path stroke="none" fill="#ff0000" transform="matrix(0.05 0 0 0.05 -297 -841)" d="M 6715.09,17475.4 L 6754.26,17462.7 L 6764.32,17482.7 L 6718.75,17497.5 L 6715.09,17475.4 Z " /><path stroke="none" fill="#ff0000" transform="matrix(0.05 0 0 0.05 -297 -841)" d="M 6725.43,17537.9 L 6782.65,17519.3 L 6792.71,17539.4 L 6729.09,17560.1 L 6725.43,17537.9 Z " /></svg>