<?xml version="1.0" standalone="no" ?><!DOCTYPE svg PUBLIC "-//W3C//DTD SVG 1.1//EN" "http://www.w3.org/Graphics/SVG/1.1/DTD/svg11.dtd"><svg width="44px" height="43px" viewBox="0 0 44 43" style="background-color: #ffffff00" xmlns="http://www.w3.org/2000/svg" xmlns:xlink="http://www.w3.org/1999/xlink" version="1.1" ><path stroke="none" fill="#ff0000" transform="matrix(0.05 0 0 0.05 -83 -906)" d="M 2050.34,18483.3 L 2063.42,18469.3 L 2072.13,18479 L 2013.14,18756.5 L 2001.25,18761.7 L 1994.98,18743.7 L 2050.34,18483.3 Z " /><path stroke="none" fill="#000000" transform="matrix(0.05 0 0 0.05 -83 -906)" d="M 1995.7,18771.4 L 2001.25,18761.7 L 2013.14,18756.5 L 2258.83,18898.3 L 2261.71,18925.7 L 1995.7,18771.4 Z " /><path stroke="none" fill="#000000" transform="matrix(0.05 0 0 0.05 -83 -906)" d="M 2261.71,18925.7 L 2258.83,18898.3 L 2469.66,18708.5 L 2496.58,18714.2 L 2261.71,18925.7 Z " /><path stroke="none" fill="#000000" transform="matrix(0.05 0 0 0.05 -83 -906)" d="M 2496.58,18714.2 L 2469.66,18708.5 L 2354.27,18449.3 L 2368.03,18425.5 L 2496.58,18714.2 Z " /><path stroke="none" fill="#000000" transform="matrix(0.05 0 0 0.05 -83 -906)" d="M 2368.03,18425.5 L 2354.27,18449.3 L 2072.13,18479 L 2063.42,18469.3 L 2071.64,18458 L 2368.03,18425.5 Z " /><path stroke="none" fill="#000000" transform="matrix(0.05 0 0 0.05 -83 -906)" d="M 2071.64,18458 L 2063.42,18469.3 L 2051.34,18462.6 L 1990.39,18179.1 L 2012.11,18174.5 L 2071.64,18458 Z " /><text x="0" y="0" stroke="none" fill="#ff0000" transform="matrix(0.05 0 0 0.05 2.45224 25.3228)" font-style="normal" font-weight="bold" font-size="180px" font-family="Helvetica" >O</text><path stroke="none" fill="#ff0000" transform="matrix(0.05 0 0 0.05 -83 -906)" d="M 1994.98,18743.7 L 2001.25,18761.7 L 1993.82,18770 L 1846.43,18637.3 L 1861.28,18620.8 L 1994.98,18743.7 Z " /><path stroke="none" fill="#ff0000" transform="matrix(0.05 0 0 0.05 -83 -906)" d="M 1873.54,18542.7 L 1866.68,18521.5 L 2051.34,18462.6 L 2063.42,18469.3 L 2050.34,18483.3 L 1873.54,18542.7 Z " /></svg>