<?xml version="1.0" standalone="no" ?><!DOCTYPE svg PUBLIC "-//W3C//DTD SVG 1.1//EN" "http://www.w3.org/Graphics/SVG/1.1/DTD/svg11.dtd"><svg width="60px" height="52px" viewBox="0 0 60 52" style="background-color: #ffffff00" xmlns="http://www.w3.org/2000/svg" xmlns:xlink="http://www.w3.org/1999/xlink" version="1.1" ><path stroke="none" fill="#000000" transform="matrix(0.05 0 0 0.05 -188 -915)" d="M 3800.99,18821.8 L 3823.23,18834.6 L 3823.23,19120.3 L 3800.99,19133.2 L 3800.99,18821.8 Z " /><path stroke="none" fill="#000000" transform="matrix(0.05 0 0 0.05 -188 -915)" d="M 3856.99,18860.5 L 3879.19,18860.5 L 3879.19,19094.4 L 3856.99,19094.4 L 3856.99,18860.5 Z " /><path stroke="none" fill="#000000" transform="matrix(0.05 0 0 0.05 -188 -915)" d="M 3800.99,19133.2 L 3823.23,19120.3 L 4070.66,19263.2 L 4070.66,19288.9 L 3800.99,19133.2 Z " /><path stroke="none" fill="#000000" transform="matrix(0.05 0 0 0.05 -188 -915)" d="M 4070.66,19288.9 L 4070.66,19263.2 L 4318.1,19120.3 L 4340.34,19133.2 L 4070.66,19288.9 Z " /><path stroke="none" fill="#000000" transform="matrix(0.05 0 0 0.05 -188 -915)" d="M 4076.21,19221 L 4065.11,19201.8 L 4267.69,19084.8 L 4278.79,19104 L 4076.21,19221 Z " /><path stroke="none" fill="#000000" transform="matrix(0.05 0 0 0.05 -188 -915)" d="M 4340.34,19133.2 L 4318.1,19120.3 L 4318.1,18834.6 L 4328.74,18828.5 L 4339.38,18834.6 L 4340.34,19133.2 Z " /><path stroke="none" fill="#000000" transform="matrix(0.05 0 0 0.05 -188 -915)" d="M 4328.74,18816.2 L 4328.74,18828.5 L 4318.1,18834.6 L 4070.66,18691.8 L 4070.66,18666.1 L 4328.74,18816.2 Z " /><path stroke="none" fill="#000000" transform="matrix(0.05 0 0 0.05 -188 -915)" d="M 4278.79,18850.9 L 4267.69,18870.1 L 4065.11,18753.2 L 4076.21,18733.9 L 4278.79,18850.9 Z " /><path stroke="none" fill="#000000" transform="matrix(0.05 0 0 0.05 -188 -915)" d="M 4070.66,18666.1 L 4070.66,18691.8 L 3823.23,18834.6 L 3800.99,18821.8 L 4070.66,18666.1 Z " /><path stroke="none" fill="#000000" transform="matrix(0.05 0 0 0.05 -188 -915)" d="M 4339.38,18834.6 L 4328.74,18828.5 L 4328.74,18816.2 L 4579.13,18671.3 L 4586.81,18679.5 L 4589.73,18690.4 L 4339.38,18834.6 Z " /><path stroke="none" fill="#ff0000" transform="matrix(0.05 0 0 0.05 -188 -915)" d="M 4589.73,18690.4 L 4586.81,18679.5 L 4603.16,18669.6 L 4868.48,18669.6 L 4908,18692.3 L 4589.73,18690.4 Z " /><text x="0" y="0" stroke="none" fill="#ff0000" transform="matrix(0.05 0 0 0.05 45.2905 9.30864)" font-style="normal" font-weight="bold" font-size="180px" font-family="Helvetica" >O</text><path stroke="none" fill="#ff0000" transform="matrix(0.05 0 0 0.05 -188 -915)" d="M 4603.16,18669.6 L 4586.81,18679.5 L 4579.13,18671.3 L 4675.5,18503.7 L 4694.73,18514.8 L 4603.16,18669.6 Z " /><path stroke="none" fill="#ff0000" transform="matrix(0.05 0 0 0.05 -188 -915)" d="M 4777.09,18515.1 L 4796.31,18504 L 4908,18692.3 L 4868.48,18669.6 L 4777.09,18515.1 Z " /></svg>