<?xml version="1.0" standalone="no" ?><!DOCTYPE svg PUBLIC "-//W3C//DTD SVG 1.1//EN" "http://www.w3.org/Graphics/SVG/1.1/DTD/svg11.dtd"><svg width="34px" height="50px" viewBox="0 0 34 50" style="background-color: #ffffff00" xmlns="http://www.w3.org/2000/svg" xmlns:xlink="http://www.w3.org/1999/xlink" version="1.1" ><path stroke="none" fill="#000000" transform="matrix(0.05 0 0 0.05 -304 -912)" d="M 6374.14,18884 L 6384.78,18890.2 L 6374.95,18907.2 L 6131.39,19049.3 L 6120.29,19030.1 L 6374.14,18884 Z " /><path stroke="none" fill="#000000" transform="matrix(0.05 0 0 0.05 -304 -912)" d="M 6374.95,18907.2 L 6384.78,18890.2 L 6395.45,18896 L 6395.88,19189.2 L 6373.68,19189.2 L 6374.95,18907.2 Z " /><path stroke="none" fill="#000000" transform="matrix(0.05 0 0 0.05 -304 -912)" d="M 6374.95,18574.2 L 6384.78,18591.2 L 6374.14,18597.3 L 6120.29,18451.3 L 6131.39,18432.1 L 6374.95,18574.2 Z " /><path stroke="none" fill="#000000" transform="matrix(0.05 0 0 0.05 -304 -912)" d="M 6395.45,18585.3 L 6384.78,18591.2 L 6374.95,18574.2 L 6373.68,18292.2 L 6395.88,18292.2 L 6395.45,18585.3 Z " /><path stroke="none" fill="#ff0000" transform="matrix(0.05 0 0 0.05 -304 -912)" d="M 6553.88,18779.7 L 6564.98,18799 L 6395.45,18896 L 6384.78,18890.2 L 6394.66,18873.8 L 6553.88,18779.7 Z " /><path stroke="none" fill="#ff0000" transform="matrix(0.05 0 0 0.05 -304 -912)" d="M 6374.14,18597.3 L 6384.78,18591.2 L 6394.66,18607.6 L 6394.66,18873.8 L 6384.78,18890.2 L 6374.14,18884 L 6374.14,18597.3 Z " /><path stroke="none" fill="#ff0000" transform="matrix(0.05 0 0 0.05 -304 -912)" d="M 6566.18,18683.1 L 6555.08,18702.3 L 6394.66,18607.6 L 6384.78,18591.2 L 6395.45,18585.3 L 6566.18,18683.1 Z " /><text x="0" y="0" stroke="none" fill="#ff0000" transform="matrix(0.05 0 0 0.05 24.6859 28.2731)" font-style="normal" font-weight="bold" font-size="180px" font-family="Helvetica" >O</text></svg>