<?xml version="1.0" standalone="no" ?><!DOCTYPE svg PUBLIC "-//W3C//DTD SVG 1.1//EN" "http://www.w3.org/Graphics/SVG/1.1/DTD/svg11.dtd"><svg width="35px" height="54px" viewBox="0 0 35 54" style="background-color: #ffffff00" xmlns="http://www.w3.org/2000/svg" xmlns:xlink="http://www.w3.org/1999/xlink" version="1.1" ><path stroke="none" fill="#ff0000" transform="matrix(0.05 0 0 0.05 -88 -980)" d="M 2094.57,20241.8 L 2116.77,20241.8 L 2116.77,20459.5 L 2094.57,20459.5 L 2094.57,20241.8 Z " /><path stroke="none" fill="#ff0000" transform="matrix(0.05 0 0 0.05 -88 -980)" d="M 2039.07,20241.8 L 2061.27,20241.8 L 2061.27,20459.5 L 2039.07,20459.5 L 2039.07,20241.8 Z " /><text x="0" y="0" stroke="none" fill="#ff0000" transform="matrix(0.05 0 0 0.05 12.3957 51.1105)" font-style="normal" font-weight="bold" font-size="180px" font-family="Helvetica" >O</text><path stroke="none" fill="#000000" transform="matrix(0.05 0 0 0.05 -88 -980)" d="M 2078.18,20245.7 L 2078.13,20271.4 L 1806.86,20114.7 L 1829.1,20101.9 L 2078.18,20245.7 Z " /><path stroke="none" fill="#ff0000" transform="matrix(0.05 0 0 0.05 -88 -980)" d="M 2247.54,20147.1 L 2258.64,20166.3 L 2078.13,20271.4 L 2078.18,20245.7 L 2247.54,20147.1 Z " /><path stroke="none" fill="#ff0000" transform="matrix(0.05 0 0 0.05 -88 -980)" d="M 2326.98,19814.7 L 2349.21,19801.9 L 2348.48,20010.1 L 2326.28,20010.1 L 2326.98,19814.7 Z " /><path stroke="none" fill="#000000" transform="matrix(0.05 0 0 0.05 -88 -980)" d="M 2077.92,19670.9 L 2077.92,19645.2 L 2349.21,19801.9 L 2326.98,19814.7 L 2077.92,19670.9 Z " /><path stroke="none" fill="#000000" transform="matrix(0.05 0 0 0.05 -88 -980)" d="M 1829.1,19814.6 L 1806.86,19801.7 L 2077.92,19645.2 L 2077.92,19670.9 L 1829.1,19814.6 Z " /><path stroke="none" fill="#000000" transform="matrix(0.05 0 0 0.05 -88 -980)" d="M 1829.1,20101.9 L 1806.86,20114.7 L 1806.86,19801.7 L 1829.1,19814.6 L 1829.1,20101.9 Z " /><text x="0" y="0" stroke="none" fill="#ff0000" transform="matrix(0.05 0 0 0.05 25.3688 28.6405)" font-style="normal" font-weight="bold" font-size="180px" font-family="Helvetica" >O</text></svg>