<?xml version="1.0" standalone="no" ?><!DOCTYPE svg PUBLIC "-//W3C//DTD SVG 1.1//EN" "http://www.w3.org/Graphics/SVG/1.1/DTD/svg11.dtd"><svg width="58px" height="34px" viewBox="0 0 58 34" style="background-color: #ffffff00" xmlns="http://www.w3.org/2000/svg" xmlns:xlink="http://www.w3.org/1999/xlink" version="1.1" ><path stroke="none" fill="#ff0000" transform="matrix(0.05 0 0 0.05 -178 -983)" d="M 4058.03,20162.2 L 4046.93,20181.4 L 3876.37,20082.1 L 3876.12,20070 L 3886.78,20064.1 L 4058.03,20162.2 Z " /><path stroke="none" fill="#ff0000" transform="matrix(0.05 0 0 0.05 -178 -983)" d="M 4394.84,20056.4 L 4394.79,20082.1 L 4224.79,20181.1 L 4213.69,20161.8 L 4394.84,20056.4 Z " /><text x="0" y="0" stroke="none" fill="#ff0000" transform="matrix(0.05 0 0 0.05 25.2788 31.2267)" font-style="normal" font-weight="bold" font-size="180px" font-family="Helvetica" >O</text><path stroke="none" fill="#ff0000" transform="matrix(0.05 0 0 0.05 -178 -983)" d="M 4378.39,20086 L 4356.19,20086 L 4356.19,19870.8 L 4378.39,19870.8 L 4378.39,20086 Z " /><path stroke="none" fill="#ff0000" transform="matrix(0.05 0 0 0.05 -178 -983)" d="M 4433.89,20086 L 4411.69,20086 L 4411.69,19870.8 L 4433.89,19870.8 L 4433.89,20086 Z " /><text x="0" y="0" stroke="none" fill="#ff0000" transform="matrix(0.05 0 0 0.05 38.2518 8.75676)" font-style="normal" font-weight="bold" font-size="180px" font-family="Helvetica" >O</text><path stroke="none" fill="#000000" transform="matrix(0.05 0 0 0.05 -178 -983)" d="M 4660.05,20210.1 L 4648.95,20229.4 L 4394.79,20082.1 L 4394.84,20056.4 L 4660.05,20210.1 Z " /><path stroke="none" fill="#000000" transform="matrix(0.05 0 0 0.05 -178 -983)" d="M 3865.48,20063.8 L 3876.12,20070 L 3876.37,20082.1 L 3622.21,20229.4 L 3611.11,20210.1 L 3865.48,20063.8 Z " /><path stroke="none" fill="#000000" transform="matrix(0.05 0 0 0.05 -178 -983)" d="M 3886.78,20064.1 L 3876.12,20070 L 3865.48,20063.8 L 3865.02,19770.4 L 3887.22,19770.4 L 3886.78,20064.1 Z " /></svg>