<?xml version="1.0" standalone="no" ?><!DOCTYPE svg PUBLIC "-//W3C//DTD SVG 1.1//EN" "http://www.w3.org/Graphics/SVG/1.1/DTD/svg11.dtd"><svg width="84px" height="54px" viewBox="0 0 84 54" style="background-color: #ffffff00" xmlns="http://www.w3.org/2000/svg" xmlns:xlink="http://www.w3.org/1999/xlink" version="1.1" ><path stroke="none" fill="#000000" transform="matrix(0.05 0 0 0.05 -281 -986)" d="M 5946.77,20148.9 L 5946.77,20123.2 L 6206.23,20274.1 L 6206.23,20286.4 L 6195.58,20292.5 L 5946.77,20148.9 Z " /><path stroke="none" fill="#000000" transform="matrix(0.05 0 0 0.05 -281 -986)" d="M 5697.95,20292.5 L 5675.71,20279.7 L 5946.77,20123.2 L 5946.77,20148.9 L 5697.95,20292.5 Z " /><path stroke="none" fill="#000000" transform="matrix(0.05 0 0 0.05 -281 -986)" d="M 5748.35,20328 L 5737.25,20308.8 L 5941.22,20191 L 5952.32,20210.3 L 5748.35,20328 Z " /><path stroke="none" fill="#000000" transform="matrix(0.05 0 0 0.05 -281 -986)" d="M 5697.95,20579.8 L 5675.71,20592.7 L 5675.71,20279.7 L 5697.95,20292.5 L 5697.95,20579.8 Z " /><path stroke="none" fill="#000000" transform="matrix(0.05 0 0 0.05 -281 -986)" d="M 5946.77,20723.5 L 5946.77,20749.1 L 5675.71,20592.7 L 5697.95,20579.8 L 5946.77,20723.5 Z " /><path stroke="none" fill="#000000" transform="matrix(0.05 0 0 0.05 -281 -986)" d="M 5952.32,20662.1 L 5941.22,20681.3 L 5737.25,20563.5 L 5748.35,20544.3 L 5952.32,20662.1 Z " /><path stroke="none" fill="#000000" transform="matrix(0.05 0 0 0.05 -281 -986)" d="M 6195.58,20579.8 L 6217.82,20592.7 L 5946.77,20749.1 L 5946.77,20723.5 L 6195.58,20579.8 Z " /><path stroke="none" fill="#000000" transform="matrix(0.05 0 0 0.05 -281 -986)" d="M 6195.58,20292.5 L 6206.23,20286.4 L 6216.87,20292.5 L 6217.82,20592.7 L 6195.58,20579.8 L 6195.58,20292.5 Z " /><path stroke="none" fill="#000000" transform="matrix(0.05 0 0 0.05 -281 -986)" d="M 6139.63,20318.4 L 6161.83,20318.4 L 6161.83,20553.9 L 6139.63,20553.9 L 6139.63,20318.4 Z " /><path stroke="none" fill="#000000" transform="matrix(0.05 0 0 0.05 -281 -986)" d="M 6984.36,20148.7 L 6984.4,20123 L 7255.67,20279.7 L 7233.43,20292.5 L 6984.36,20148.7 Z " /><path stroke="none" fill="#000000" transform="matrix(0.05 0 0 0.05 -281 -986)" d="M 6216.87,20292.5 L 6206.23,20286.4 L 6206.23,20274.1 L 6465.89,20123 L 6465.94,20148.7 L 6216.87,20292.5 Z " /><text x="0" y="0" stroke="none" fill="#ff0000" transform="matrix(0.05 0 0 0.05 38.7842 9.08675)" font-style="normal" font-weight="bold" font-size="180px" font-family="Helvetica" >O</text><path stroke="none" fill="#ff0000" transform="matrix(0.05 0 0 0.05 -281 -986)" d="M 6449.04,20152.6 L 6426.84,20152.6 L 6426.84,19937.4 L 6449.04,19937.4 L 6449.04,20152.6 Z " /><path stroke="none" fill="#ff0000" transform="matrix(0.05 0 0 0.05 -281 -986)" d="M 6504.54,20152.6 L 6482.34,20152.6 L 6482.34,19937.4 L 6504.54,19937.4 L 6504.54,20152.6 Z " /><text x="0" y="0" stroke="none" fill="#ff0000" transform="matrix(0.05 0 0 0.05 51.7572 31.5567)" font-style="normal" font-weight="bold" font-size="180px" font-family="Helvetica" >O</text><path stroke="none" fill="#ff0000" transform="matrix(0.05 0 0 0.05 -281 -986)" d="M 6465.94,20148.7 L 6465.89,20123 L 6647.6,20228.8 L 6636.5,20248 L 6465.94,20148.7 Z " /><path stroke="none" fill="#ff0000" transform="matrix(0.05 0 0 0.05 -281 -986)" d="M 6814.35,20247.7 L 6803.26,20228.4 L 6984.4,20123 L 6984.36,20148.7 L 6814.35,20247.7 Z " /><path stroke="none" fill="#000000" transform="matrix(0.05 0 0 0.05 -281 -986)" d="M 7233.43,20292.5 L 7255.67,20279.7 L 7255.17,20586 L 7232.97,20586 L 7233.43,20292.5 Z " /><path stroke="none" fill="#000000" transform="matrix(0.05 0 0 0.05 -281 -986)" d="M 7177.47,20318.4 L 7199.67,20318.4 L 7199.67,20586 L 7177.47,20586 L 7177.47,20318.4 Z " /></svg>