<?xml version="1.0" standalone="no" ?><!DOCTYPE svg PUBLIC "-//W3C//DTD SVG 1.1//EN" "http://www.w3.org/Graphics/SVG/1.1/DTD/svg11.dtd"><svg width="35px" height="36px" viewBox="0 0 35 36" style="background-color: #ffffff00" xmlns="http://www.w3.org/2000/svg" xmlns:xlink="http://www.w3.org/1999/xlink" version="1.1" ><path stroke="none" fill="#000000" transform="matrix(0.05 0 0 0.05 -83 -1068)" d="M 1984.94,22003.9 L 1984.89,22029.6 L 1713.62,21873 L 1735.86,21860.1 L 1984.94,22003.9 Z " /><path stroke="none" fill="#ff0000" transform="matrix(0.05 0 0 0.05 -83 -1068)" d="M 2154.3,21905.3 L 2165.4,21924.6 L 1984.89,22029.6 L 1984.94,22003.9 L 2154.3,21905.3 Z " /><path stroke="none" fill="#ff0000" transform="matrix(0.05 0 0 0.05 -83 -1068)" d="M 2233.74,21573 L 2255.97,21560.1 L 2255.24,21768.3 L 2233.04,21768.3 L 2233.74,21573 Z " /><path stroke="none" fill="#000000" transform="matrix(0.05 0 0 0.05 -83 -1068)" d="M 1984.68,21429.2 L 1984.68,21403.5 L 2255.97,21560.1 L 2233.74,21573 L 1984.68,21429.2 Z " /><path stroke="none" fill="#000000" transform="matrix(0.05 0 0 0.05 -83 -1068)" d="M 1735.86,21572.8 L 1713.62,21560 L 1984.68,21403.5 L 1984.68,21429.2 L 1735.86,21572.8 Z " /><path stroke="none" fill="#000000" transform="matrix(0.05 0 0 0.05 -83 -1068)" d="M 1735.86,21860.1 L 1713.62,21873 L 1713.62,21560 L 1735.86,21572.8 L 1735.86,21860.1 Z " /><text x="0" y="0" stroke="none" fill="#ff0000" transform="matrix(0.05 0 0 0.05 25.7068 28.5525)" font-style="normal" font-weight="bold" font-size="180px" font-family="Helvetica" >O</text></svg>