<?xml version="1.0" standalone="no" ?><!DOCTYPE svg PUBLIC "-//W3C//DTD SVG 1.1//EN" "http://www.w3.org/Graphics/SVG/1.1/DTD/svg11.dtd"><svg width="58px" height="31px" viewBox="0 0 58 31" style="background-color: #ffffff00" xmlns="http://www.w3.org/2000/svg" xmlns:xlink="http://www.w3.org/1999/xlink" version="1.1" ><path stroke="none" fill="#ff0000" transform="matrix(0.05 0 0 0.05 -173 -1074)" d="M 3964.79,21920.4 L 3953.69,21939.6 L 3783.13,21840.4 L 3782.88,21828.2 L 3793.54,21822.3 L 3964.79,21920.4 Z " /><path stroke="none" fill="#ff0000" transform="matrix(0.05 0 0 0.05 -173 -1074)" d="M 4301.6,21814.7 L 4301.55,21840.4 L 4131.55,21939.3 L 4120.45,21920.1 L 4301.6,21814.7 Z " /><text x="0" y="0" stroke="none" fill="#ff0000" transform="matrix(0.05 0 0 0.05 25.6168 28.1387)" font-style="normal" font-weight="bold" font-size="180px" font-family="Helvetica" >O</text><path stroke="none" fill="#000000" transform="matrix(0.05 0 0 0.05 -173 -1074)" d="M 4566.81,21968.4 L 4555.71,21987.6 L 4301.55,21840.4 L 4301.6,21814.7 L 4566.81,21968.4 Z " /><path stroke="none" fill="#000000" transform="matrix(0.05 0 0 0.05 -173 -1074)" d="M 3772.24,21822.1 L 3782.88,21828.2 L 3783.13,21840.4 L 3528.97,21987.6 L 3517.87,21968.4 L 3772.24,21822.1 Z " /><path stroke="none" fill="#000000" transform="matrix(0.05 0 0 0.05 -173 -1074)" d="M 3793.54,21822.3 L 3782.88,21828.2 L 3772.24,21822.1 L 3771.78,21528.6 L 3793.98,21528.6 L 3793.54,21822.3 Z " /></svg>