<?xml version="1.0" standalone="no" ?><!DOCTYPE svg PUBLIC "-//W3C//DTD SVG 1.1//EN" "http://www.w3.org/Graphics/SVG/1.1/DTD/svg11.dtd"><svg width="84px" height="36px" viewBox="0 0 84 36" style="background-color: #ffffff00" xmlns="http://www.w3.org/2000/svg" xmlns:xlink="http://www.w3.org/1999/xlink" version="1.1" ><path stroke="none" fill="#000000" transform="matrix(0.05 0 0 0.05 -280 -1079)" d="M 5920.13,21654 L 5920.13,21628.3 L 6179.59,21779.2 L 6179.59,21791.5 L 6168.94,21797.7 L 5920.13,21654 Z " /><path stroke="none" fill="#000000" transform="matrix(0.05 0 0 0.05 -280 -1079)" d="M 5671.31,21797.7 L 5649.07,21784.8 L 5920.13,21628.3 L 5920.13,21654 L 5671.31,21797.7 Z " /><path stroke="none" fill="#000000" transform="matrix(0.05 0 0 0.05 -280 -1079)" d="M 5721.71,21833.2 L 5710.61,21813.9 L 5914.58,21696.2 L 5925.68,21715.4 L 5721.71,21833.2 Z " /><path stroke="none" fill="#000000" transform="matrix(0.05 0 0 0.05 -280 -1079)" d="M 5671.31,22085 L 5649.07,22097.8 L 5649.07,21784.8 L 5671.31,21797.7 L 5671.31,22085 Z " /><path stroke="none" fill="#000000" transform="matrix(0.05 0 0 0.05 -280 -1079)" d="M 5920.13,22228.6 L 5920.13,22254.3 L 5649.07,22097.8 L 5671.31,22085 L 5920.13,22228.6 Z " /><path stroke="none" fill="#000000" transform="matrix(0.05 0 0 0.05 -280 -1079)" d="M 5925.68,22167.2 L 5914.58,22186.4 L 5710.61,22068.7 L 5721.71,22049.5 L 5925.68,22167.2 Z " /><path stroke="none" fill="#000000" transform="matrix(0.05 0 0 0.05 -280 -1079)" d="M 6168.94,22085 L 6191.18,22097.8 L 5920.13,22254.3 L 5920.13,22228.6 L 6168.94,22085 Z " /><path stroke="none" fill="#000000" transform="matrix(0.05 0 0 0.05 -280 -1079)" d="M 6168.94,21797.7 L 6179.59,21791.5 L 6190.23,21797.7 L 6191.18,22097.8 L 6168.94,22085 L 6168.94,21797.7 Z " /><path stroke="none" fill="#000000" transform="matrix(0.05 0 0 0.05 -280 -1079)" d="M 6112.99,21823.6 L 6135.19,21823.6 L 6135.19,22059.1 L 6112.99,22059.1 L 6112.99,21823.6 Z " /><path stroke="none" fill="#000000" transform="matrix(0.05 0 0 0.05 -280 -1079)" d="M 6957.72,21653.9 L 6957.76,21628.2 L 7229.03,21784.8 L 7206.79,21797.7 L 6957.72,21653.9 Z " /><path stroke="none" fill="#000000" transform="matrix(0.05 0 0 0.05 -280 -1079)" d="M 6190.23,21797.7 L 6179.59,21791.5 L 6179.59,21779.2 L 6439.25,21628.2 L 6439.3,21653.9 L 6190.23,21797.7 Z " /><text x="0" y="0" stroke="none" fill="#ff0000" transform="matrix(0.05 0 0 0.05 51.4252 13.8147)" font-style="normal" font-weight="bold" font-size="180px" font-family="Helvetica" >O</text><path stroke="none" fill="#ff0000" transform="matrix(0.05 0 0 0.05 -280 -1079)" d="M 6439.3,21653.9 L 6439.25,21628.2 L 6620.96,21733.9 L 6609.86,21753.2 L 6439.3,21653.9 Z " /><path stroke="none" fill="#ff0000" transform="matrix(0.05 0 0 0.05 -280 -1079)" d="M 6787.71,21752.8 L 6776.62,21733.6 L 6957.76,21628.2 L 6957.72,21653.9 L 6787.71,21752.8 Z " /><path stroke="none" fill="#000000" transform="matrix(0.05 0 0 0.05 -280 -1079)" d="M 7206.79,21797.7 L 7229.03,21784.8 L 7228.53,22091.1 L 7206.33,22091.1 L 7206.79,21797.7 Z " /></svg>