<?xml version="1.0" standalone="no" ?><!DOCTYPE svg PUBLIC "-//W3C//DTD SVG 1.1//EN" "http://www.w3.org/Graphics/SVG/1.1/DTD/svg11.dtd"><svg width="44px" height="30px" viewBox="0 0 44 30" style="background-color: #ffffff00" xmlns="http://www.w3.org/2000/svg" xmlns:xlink="http://www.w3.org/1999/xlink" version="1.1" ><path stroke="none" fill="#000000" transform="matrix(0.05 0 0 0.05 -90 -1144)" d="M 1846.69,23018.5 L 1868.95,23034.7 L 1868.95,23318.9 L 1846.69,23335.1 L 1846.69,23018.5 Z " /><path stroke="none" fill="#000000" transform="matrix(0.05 0 0 0.05 -90 -1144)" d="M 1846.69,23335.1 L 1868.95,23318.9 L 2139.33,23406.8 L 2147.84,23433 L 1846.69,23335.1 Z " /><path stroke="none" fill="#ff0000" transform="matrix(0.05 0 0 0.05 -90 -1144)" d="M 2147.84,23433 L 2139.33,23406.8 L 2306.44,23176.8 L 2319.45,23176.8 L 2324.97,23187.4 L 2147.84,23433 Z " /><path stroke="none" fill="#ff0000" transform="matrix(0.05 0 0 0.05 -90 -1144)" d="M 2324.97,23166.2 L 2319.45,23176.8 L 2306.44,23176.8 L 2139.33,22946.8 L 2147.84,22920.6 L 2324.97,23166.2 Z " /><path stroke="none" fill="#000000" transform="matrix(0.05 0 0 0.05 -90 -1144)" d="M 2147.84,22920.6 L 2139.33,22946.8 L 1868.95,23034.7 L 1846.69,23018.5 L 2147.84,22920.6 Z " /><text x="0" y="0" stroke="none" fill="#ff0000" transform="matrix(0.05 0 0 0.05 39.7025 18.0788)" font-style="normal" font-weight="bold" font-size="180px" font-family="Helvetica" >I</text><path stroke="none" fill="#ff0000" transform="matrix(0.05 0 0 0.05 -90 -1144)" d="M 2324.97,23187.4 L 2319.45,23176.8 L 2324.97,23166.2 L 2575.45,23165.7 L 2575.45,23187.9 L 2324.97,23187.4 Z " /></svg>