<?xml version="1.0" standalone="no" ?><!DOCTYPE svg PUBLIC "-//W3C//DTD SVG 1.1//EN" "http://www.w3.org/Graphics/SVG/1.1/DTD/svg11.dtd"><svg width="63px" height="28px" viewBox="0 0 63 28" style="background-color: #ffffff00" xmlns="http://www.w3.org/2000/svg" xmlns:xlink="http://www.w3.org/1999/xlink" version="1.1" ><path stroke="none" fill="#000000" transform="matrix(0.05 0 0 0.05 -178 -1154)" d="M 3617.49,23159.8 L 3628.59,23140.5 L 3882.5,23287.7 L 3882.5,23313.3 L 3617.49,23159.8 Z " /><path stroke="none" fill="#000000" transform="matrix(0.05 0 0 0.05 -178 -1154)" d="M 3882.5,23313.3 L 3882.5,23287.7 L 4141.96,23136.8 L 4141.96,23162.5 L 3882.5,23313.3 Z " /><path stroke="none" fill="#ff0000" transform="matrix(0.05 0 0 0.05 -178 -1154)" d="M 4141.96,23162.5 L 4141.96,23136.8 L 4401.42,23287.7 L 4401.42,23300 L 4390.78,23306.1 L 4141.96,23162.5 Z " /><path stroke="none" fill="#ff0000" transform="matrix(0.05 0 0 0.05 -178 -1154)" d="M 4420.61,23300.3 L 4401.42,23300 L 4401.42,23287.7 L 4655.33,23140.5 L 4666.43,23159.8 L 4420.61,23300.3 Z " /><path stroke="none" fill="#ff0000" transform="matrix(0.05 0 0 0.05 -178 -1154)" d="M 4390.78,23306.1 L 4401.42,23300 L 4411.3,23316.4 L 4412.52,23599.6 L 4390.32,23599.6 L 4390.78,23306.1 Z " /><text x="0" y="0" stroke="none" fill="#ff0000" transform="matrix(0.05 0 0 0.05 51.7945 21.7268)" font-style="normal" font-weight="bold" font-size="180px" font-family="Helvetica" >Cl</text><path stroke="none" fill="#ff0000" transform="matrix(0.05 0 0 0.05 -178 -1154)" d="M 4411.3,23316.4 L 4401.42,23300 L 4420.61,23300.3 L 4587.03,23394.3 L 4575.93,23413.5 L 4411.3,23316.4 Z " /></svg>