<?xml version="1.0" standalone="no" ?><!DOCTYPE svg PUBLIC "-//W3C//DTD SVG 1.1//EN" "http://www.w3.org/Graphics/SVG/1.1/DTD/svg11.dtd"><svg width="44px" height="46px" viewBox="0 0 44 46" style="background-color: #ffffff00" xmlns="http://www.w3.org/2000/svg" xmlns:xlink="http://www.w3.org/1999/xlink" version="1.1" ><path stroke="none" fill="#000000" transform="matrix(0.05 0 0 0.05 -297 -1138)" d="M 5988.45,23186.4 L 5999.55,23167.2 L 6253.46,23314.3 L 6253.46,23326.6 L 6242.82,23332.7 L 5988.45,23186.4 Z " /><path stroke="none" fill="#ff0000" transform="matrix(0.05 0 0 0.05 -297 -1138)" d="M 6264.11,23332.7 L 6253.46,23326.6 L 6253.46,23314.3 L 6503.31,23170 L 6512.92,23176.8 L 6512.92,23189.1 L 6264.11,23332.7 Z " /><path stroke="none" fill="#ff0000" transform="matrix(0.05 0 0 0.05 -297 -1138)" d="M 6512.92,23189.1 L 6512.92,23176.8 L 6522.54,23170 L 6777.93,23317 L 6766.83,23336.2 L 6512.92,23189.1 Z " /><path stroke="none" fill="#000000" transform="matrix(0.05 0 0 0.05 -297 -1138)" d="M 6242.82,23332.7 L 6253.46,23326.6 L 6264.11,23332.7 L 6264.56,23626.2 L 6242.36,23626.2 L 6242.82,23332.7 Z " /><text x="0" y="0" stroke="none" fill="#ff0000" transform="matrix(0.05 0 0 0.05 25.3963 9.09877)" font-style="normal" font-weight="bold" font-size="180px" font-family="Helvetica" >Br</text><path stroke="none" fill="#ff0000" transform="matrix(0.05 0 0 0.05 -297 -1138)" d="M 6522.54,23170 L 6512.92,23176.8 L 6503.31,23170 L 6479.47,22971.6 L 6546.37,22971.6 L 6522.54,23170 Z " /></svg>