<?xml version="1.0" standalone="no" ?><!DOCTYPE svg PUBLIC "-//W3C//DTD SVG 1.1//EN" "http://www.w3.org/Graphics/SVG/1.1/DTD/svg11.dtd"><svg width="32px" height="54px" viewBox="0 0 32 54" style="background-color: #ffffff00" xmlns="http://www.w3.org/2000/svg" xmlns:xlink="http://www.w3.org/1999/xlink" version="1.1" ><path stroke="none" fill="#000000" transform="matrix(0.05 0 0 0.05 -85 -1206)" d="M 1753.72,24685.3 L 1775.96,24698.1 L 1775.96,24985.5 L 1753.72,24998.3 L 1753.72,24685.3 Z " /><path stroke="none" fill="#000000" transform="matrix(0.05 0 0 0.05 -85 -1206)" d="M 1753.72,24998.3 L 1775.96,24985.5 L 2024.78,25129.1 L 2024.78,25154.8 L 1753.72,24998.3 Z " /><path stroke="none" fill="#000000" transform="matrix(0.05 0 0 0.05 -85 -1206)" d="M 2024.78,25154.8 L 2024.78,25129.1 L 2273.59,24985.5 L 2295.83,24998.3 L 2024.78,25154.8 Z " /><path stroke="none" fill="#000000" transform="matrix(0.05 0 0 0.05 -85 -1206)" d="M 2295.83,24998.3 L 2273.59,24985.5 L 2273.59,24698.1 L 2295.83,24685.3 L 2295.83,24998.3 Z " /><path stroke="none" fill="#ff0000" transform="matrix(0.05 0 0 0.05 -85 -1206)" d="M 2295.83,24685.3 L 2273.59,24698.1 L 2024.78,24554.5 L 2024.78,24528.8 L 2295.83,24685.3 Z " /><path stroke="none" fill="#ff0000" transform="matrix(0.05 0 0 0.05 -85 -1206)" d="M 2024.78,24528.8 L 2024.78,24554.5 L 1775.96,24698.1 L 1753.72,24685.3 L 2024.78,24528.8 Z " /><text x="0" y="0" stroke="none" fill="#ff0000" transform="matrix(0.05 0 0 0.05 12.7386 9.36876)" font-style="normal" font-weight="bold" font-size="180px" font-family="Helvetica" >O</text><path stroke="none" fill="#ff0000" transform="matrix(0.05 0 0 0.05 -85 -1206)" d="M 2008.13,24558.2 L 1985.93,24558.2 L 1985.93,24343 L 2008.13,24343 L 2008.13,24558.2 Z " /><path stroke="none" fill="#ff0000" transform="matrix(0.05 0 0 0.05 -85 -1206)" d="M 2063.63,24558.2 L 2041.43,24558.2 L 2041.43,24343 L 2063.63,24343 L 2063.63,24558.2 Z " /></svg>