<?xml version="1.0" standalone="no" ?><!DOCTYPE svg PUBLIC "-//W3C//DTD SVG 1.1//EN" "http://www.w3.org/Graphics/SVG/1.1/DTD/svg11.dtd"><svg width="58px" height="32px" viewBox="0 0 58 32" style="background-color: #ffffff00" xmlns="http://www.w3.org/2000/svg" xmlns:xlink="http://www.w3.org/1999/xlink" version="1.1" ><path stroke="none" fill="#000000" transform="matrix(0.05 0 0 0.05 -175 -1209)" d="M 4352.41,24592.6 L 4341.76,24598.8 L 4331.12,24592.6 L 4330.66,24299.2 L 4352.86,24299.2 L 4352.41,24592.6 Z " /><path stroke="none" fill="#000000" transform="matrix(0.05 0 0 0.05 -175 -1209)" d="M 4341.76,24611.1 L 4341.76,24598.8 L 4352.41,24592.6 L 4606.77,24738.9 L 4595.67,24758.2 L 4341.76,24611.1 Z " /><path stroke="none" fill="#ff0000" transform="matrix(0.05 0 0 0.05 -175 -1209)" d="M 3568.93,24758.2 L 3557.83,24738.9 L 3822.84,24585.4 L 3822.84,24611.1 L 3568.93,24758.2 Z " /><text x="0" y="0" stroke="none" fill="#ff0000" transform="matrix(0.05 0 0 0.05 12.6418 9.19675)" font-style="normal" font-weight="bold" font-size="180px" font-family="Helvetica" >O</text><path stroke="none" fill="#ff0000" transform="matrix(0.05 0 0 0.05 -175 -1209)" d="M 3806.19,24614.8 L 3783.99,24614.8 L 3783.99,24399.6 L 3806.19,24399.6 L 3806.19,24614.8 Z " /><path stroke="none" fill="#ff0000" transform="matrix(0.05 0 0 0.05 -175 -1209)" d="M 3861.69,24614.8 L 3839.49,24614.8 L 3839.49,24399.6 L 3861.69,24399.6 L 3861.69,24614.8 Z " /><path stroke="none" fill="#ff0000" transform="matrix(0.05 0 0 0.05 -175 -1209)" d="M 3822.84,24611.1 L 3822.84,24585.4 L 4082.3,24736.3 L 4082.3,24761.9 L 3822.84,24611.1 Z " /><path stroke="none" fill="#000000" transform="matrix(0.05 0 0 0.05 -175 -1209)" d="M 4082.3,24761.9 L 4082.3,24736.3 L 4331.12,24592.6 L 4341.76,24598.8 L 4341.76,24611.1 L 4082.3,24761.9 Z " /></svg>