<?xml version="1.0" standalone="no" ?><!DOCTYPE svg PUBLIC "-//W3C//DTD SVG 1.1//EN" "http://www.w3.org/Graphics/SVG/1.1/DTD/svg11.dtd"><svg width="84px" height="54px" viewBox="0 0 84 54" style="background-color: #ffffff00" xmlns="http://www.w3.org/2000/svg" xmlns:xlink="http://www.w3.org/1999/xlink" version="1.1" ><path stroke="none" fill="#000000" transform="matrix(0.05 0 0 0.05 -271 -1206)" d="M 7042.55,24646.8 L 7020.31,24634 L 7019.85,24340.5 L 7042.05,24340.5 L 7042.55,24646.8 Z " /><path stroke="none" fill="#000000" transform="matrix(0.05 0 0 0.05 -271 -1206)" d="M 6986.55,24608.1 L 6964.35,24608.1 L 6964.35,24340.5 L 6986.55,24340.5 L 6986.55,24608.1 Z " /><path stroke="none" fill="#000000" transform="matrix(0.05 0 0 0.05 -271 -1206)" d="M 6512.03,24652.4 L 6512.03,24626.7 L 6771.49,24777.6 L 6771.49,24803.3 L 6512.03,24652.4 Z " /><path stroke="none" fill="#ff0000" transform="matrix(0.05 0 0 0.05 -271 -1206)" d="M 6252.57,24803.3 L 6252.57,24777.6 L 6512.03,24626.7 L 6512.03,24652.4 L 6252.57,24803.3 Z " /><path stroke="none" fill="#ff0000" transform="matrix(0.05 0 0 0.05 -271 -1206)" d="M 6269.22,24773.9 L 6291.42,24773.9 L 6291.42,24991.6 L 6269.22,24991.6 L 6269.22,24773.9 Z " /><path stroke="none" fill="#ff0000" transform="matrix(0.05 0 0 0.05 -271 -1206)" d="M 6213.72,24773.9 L 6235.92,24773.9 L 6235.92,24991.6 L 6213.72,24991.6 L 6213.72,24773.9 Z " /><text x="0" y="0" stroke="none" fill="#ff0000" transform="matrix(0.05 0 0 0.05 38.1282 51.7145)" font-style="normal" font-weight="bold" font-size="180px" font-family="Helvetica" >O</text><path stroke="none" fill="#ff0000" transform="matrix(0.05 0 0 0.05 -271 -1206)" d="M 5993.11,24652.4 L 5993.11,24640.1 L 6003.75,24634 L 6252.57,24777.6 L 6252.57,24803.3 L 5993.11,24652.4 Z " /><path stroke="none" fill="#000000" transform="matrix(0.05 0 0 0.05 -271 -1206)" d="M 6771.49,24803.3 L 6771.49,24777.6 L 7020.31,24634 L 7042.55,24646.8 L 6771.49,24803.3 Z " /><path stroke="none" fill="#000000" transform="matrix(0.05 0 0 0.05 -271 -1206)" d="M 6003.75,24634 L 5993.11,24640.1 L 5982.46,24634 L 5982.46,24346.7 L 6004.7,24333.8 L 6003.75,24634 Z " /><path stroke="none" fill="#000000" transform="matrix(0.05 0 0 0.05 -271 -1206)" d="M 5948.71,24608.1 L 5926.51,24608.1 L 5926.51,24372.6 L 5948.71,24372.6 L 5948.71,24608.1 Z " /><path stroke="none" fill="#000000" transform="matrix(0.05 0 0 0.05 -271 -1206)" d="M 6004.7,24333.8 L 5982.46,24346.7 L 5733.65,24203 L 5733.65,24177.3 L 6004.7,24333.8 Z " /><path stroke="none" fill="#000000" transform="matrix(0.05 0 0 0.05 -271 -1206)" d="M 5733.65,24177.3 L 5733.65,24203 L 5484.83,24346.7 L 5462.59,24333.8 L 5733.65,24177.3 Z " /><path stroke="none" fill="#000000" transform="matrix(0.05 0 0 0.05 -271 -1206)" d="M 5728.1,24245.2 L 5739.2,24264.4 L 5535.23,24382.2 L 5524.13,24362.9 L 5728.1,24245.2 Z " /><path stroke="none" fill="#000000" transform="matrix(0.05 0 0 0.05 -271 -1206)" d="M 5462.59,24333.8 L 5484.83,24346.7 L 5484.83,24634 L 5462.59,24646.8 L 5462.59,24333.8 Z " /><path stroke="none" fill="#000000" transform="matrix(0.05 0 0 0.05 -271 -1206)" d="M 5462.59,24646.8 L 5484.83,24634 L 5733.65,24777.6 L 5733.65,24803.3 L 5462.59,24646.8 Z " /><path stroke="none" fill="#000000" transform="matrix(0.05 0 0 0.05 -271 -1206)" d="M 5524.13,24617.7 L 5535.23,24598.5 L 5739.2,24716.2 L 5728.1,24735.4 L 5524.13,24617.7 Z " /><path stroke="none" fill="#000000" transform="matrix(0.05 0 0 0.05 -271 -1206)" d="M 5733.65,24803.3 L 5733.65,24777.6 L 5982.46,24634 L 5993.11,24640.1 L 5993.11,24652.4 L 5733.65,24803.3 Z " /></svg>