<?xml version="1.0" standalone="no" ?><!DOCTYPE svg PUBLIC "-//W3C//DTD SVG 1.1//EN" "http://www.w3.org/Graphics/SVG/1.1/DTD/svg11.dtd"><svg width="53px" height="30px" viewBox="0 0 53 30" style="background-color: #ffffff00" xmlns="http://www.w3.org/2000/svg" xmlns:xlink="http://www.w3.org/1999/xlink" version="1.1" ><path stroke="none" fill="#000000" transform="matrix(0.05 0 0 0.05 -89 -1297)" d="M 1833.37,26082.1 L 1855.63,26098.3 L 1855.63,26382.5 L 1833.37,26398.7 L 1833.37,26082.1 Z " /><path stroke="none" fill="#000000" transform="matrix(0.05 0 0 0.05 -89 -1297)" d="M 1833.37,26398.7 L 1855.63,26382.5 L 2126.01,26470.4 L 2134.52,26496.6 L 1833.37,26398.7 Z " /><path stroke="none" fill="#000000" transform="matrix(0.05 0 0 0.05 -89 -1297)" d="M 2134.52,26496.6 L 2126.01,26470.4 L 2293.12,26240.4 L 2306.13,26240.4 L 2311.74,26250.9 L 2134.52,26496.6 Z " /><path stroke="none" fill="#000000" transform="matrix(0.05 0 0 0.05 -89 -1297)" d="M 2311.74,26229.9 L 2306.13,26240.4 L 2293.12,26240.4 L 2126.01,26010.4 L 2134.52,25984.2 L 2311.74,26229.9 Z " /><path stroke="none" fill="#000000" transform="matrix(0.05 0 0 0.05 -89 -1297)" d="M 2134.52,25984.2 L 2126.01,26010.4 L 1855.63,26098.3 L 1833.37,26082.1 L 2134.52,25984.2 Z " /><text x="0" y="0" stroke="none" fill="#ff0000" transform="matrix(0.05 0 0 0.05 38.037 18.2588)" font-style="normal" font-weight="bold" font-size="180px" font-family="Helvetica" >CN</text><path stroke="none" fill="#ff0000" transform="matrix(0.05 0 0 0.05 -89 -1297)" d="M 2311.74,26250.9 L 2306.13,26240.4 L 2311.74,26229.9 L 2517.63,26229.3 L 2517.63,26251.5 L 2311.74,26250.9 Z " /></svg>