<?xml version="1.0" standalone="no" ?><!DOCTYPE svg PUBLIC "-//W3C//DTD SVG 1.1//EN" "http://www.w3.org/Graphics/SVG/1.1/DTD/svg11.dtd"><svg width="72px" height="39px" viewBox="0 0 72 39" style="background-color: #ffffff00" xmlns="http://www.w3.org/2000/svg" xmlns:xlink="http://www.w3.org/1999/xlink" version="1.1" ><path stroke="none" fill="#ff0000" transform="matrix(0.05 0 0 0.05 -178 -1297)" d="M 3814.63,26206.4 L 3803.53,26225.6 L 3716.64,26175.4 L 3727.74,26156.2 L 3814.63,26206.4 Z " /><path stroke="none" fill="#ff0000" transform="matrix(0.05 0 0 0.05 -178 -1297)" d="M 3842.37,26158.3 L 3831.27,26177.5 L 3744.39,26127.4 L 3755.49,26108.1 L 3842.37,26158.3 Z " /><path stroke="none" fill="#ff0000" transform="matrix(0.05 0 0 0.05 -178 -1297)" d="M 3870.12,26110.2 L 3859.02,26129.5 L 3772.14,26079.3 L 3783.24,26060.1 L 3870.12,26110.2 Z " /><text x="0" y="0" stroke="none" fill="#ff0000" transform="matrix(0.05 0 0 0.05 1.58887 9.43675)" font-style="normal" font-weight="bold" font-size="180px" font-family="Helvetica" >N</text><path stroke="none" fill="#000000" transform="matrix(0.05 0 0 0.05 -178 -1297)" d="M 4165.03,26369.4 L 4175.69,26363.6 L 4186.34,26369.7 L 4186.79,26663.2 L 4164.59,26663.2 L 4165.03,26369.4 Z " /><path stroke="none" fill="#ff0000" transform="matrix(0.05 0 0 0.05 -178 -1297)" d="M 4175.44,26351.4 L 4175.69,26363.6 L 4165.03,26369.4 L 3994.09,26271.5 L 4005.19,26252.3 L 4175.44,26351.4 Z " /><text x="0" y="0" stroke="none" fill="#ff0000" transform="matrix(0.05 0 0 0.05 14.5619 16.9268)" font-style="normal" font-weight="bold" font-size="180px" font-family="Helvetica" >C</text><path stroke="none" fill="#000000" transform="matrix(0.05 0 0 0.05 -178 -1297)" d="M 4435.16,26200.4 L 4435.16,26226.1 L 4186.34,26369.7 L 4175.69,26363.6 L 4175.44,26351.4 L 4435.16,26200.4 Z " /><path stroke="none" fill="#000000" transform="matrix(0.05 0 0 0.05 -178 -1297)" d="M 4694.62,26351.3 L 4694.62,26376.9 L 4435.16,26226.1 L 4435.16,26200.4 L 4694.62,26351.3 Z " /><path stroke="none" fill="#000000" transform="matrix(0.05 0 0 0.05 -178 -1297)" d="M 4948.53,26204.1 L 4959.63,26223.4 L 4694.62,26376.9 L 4694.62,26351.3 L 4948.53,26204.1 Z " /></svg>