<?xml version="1.0" standalone="no" ?><!DOCTYPE svg PUBLIC "-//W3C//DTD SVG 1.1//EN" "http://www.w3.org/Graphics/SVG/1.1/DTD/svg11.dtd"><svg width="45px" height="61px" viewBox="0 0 45 61" style="background-color: #ffffff00" xmlns="http://www.w3.org/2000/svg" xmlns:xlink="http://www.w3.org/1999/xlink" version="1.1" ><path stroke="none" fill="#000000" transform="matrix(0.05 0 0 0.05 -296 -1276)" d="M 5975.13,26250 L 5986.23,26230.8 L 6240.14,26377.9 L 6240.14,26390.2 L 6229.5,26396.3 L 5975.13,26250 Z " /><path stroke="none" fill="#000000" transform="matrix(0.05 0 0 0.05 -296 -1276)" d="M 6250.79,26396.3 L 6240.14,26390.2 L 6240.14,26377.9 L 6490.04,26233.5 L 6499.6,26240.4 L 6499.6,26252.7 L 6250.79,26396.3 Z " /><path stroke="none" fill="#000000" transform="matrix(0.05 0 0 0.05 -296 -1276)" d="M 6499.6,26252.7 L 6499.6,26240.4 L 6509.16,26233.5 L 6764.61,26380.6 L 6753.51,26399.8 L 6499.6,26252.7 Z " /><path stroke="none" fill="#000000" transform="matrix(0.05 0 0 0.05 -296 -1276)" d="M 6229.5,26396.3 L 6240.14,26390.2 L 6250.79,26396.3 L 6251.24,26689.8 L 6229.04,26689.8 L 6229.5,26396.3 Z " /><text x="0" y="0" stroke="none" fill="#ff0000" transform="matrix(0.05 0 0 0.05 25.7303 24.2788)" font-style="normal" font-weight="bold" font-size="180px" font-family="Helvetica" >C</text><path stroke="none" fill="#ff0000" transform="matrix(0.05 0 0 0.05 -296 -1276)" d="M 6509.16,26233.5 L 6499.6,26240.4 L 6490.04,26233.5 L 6466.15,26041 L 6533.05,26041 L 6509.16,26233.5 Z " /><text x="0" y="0" stroke="none" fill="#ff0000" transform="matrix(0.05 0 0 0.05 25.7303 9.29877)" font-style="normal" font-weight="bold" font-size="180px" font-family="Helvetica" >N</text><path stroke="none" fill="#ff0000" transform="matrix(0.05 0 0 0.05 -296 -1276)" d="M 6455.2,25844.6 L 6433,25844.6 L 6433,25735.6 L 6455.2,25735.6 L 6455.2,25844.6 Z " /><path stroke="none" fill="#ff0000" transform="matrix(0.05 0 0 0.05 -296 -1276)" d="M 6510.7,25844.6 L 6488.5,25844.6 L 6488.5,25735.6 L 6510.7,25735.6 L 6510.7,25844.6 Z " /><path stroke="none" fill="#ff0000" transform="matrix(0.05 0 0 0.05 -296 -1276)" d="M 6566.2,25844.6 L 6544,25844.6 L 6544,25735.6 L 6566.2,25735.6 L 6566.2,25844.6 Z " /></svg>