<?xml version="1.0" standalone="no" ?><!DOCTYPE svg PUBLIC "-//W3C//DTD SVG 1.1//EN" "http://www.w3.org/Graphics/SVG/1.1/DTD/svg11.dtd"><svg width="33px" height="48px" viewBox="0 0 33 48" style="background-color: #ffffff00" xmlns="http://www.w3.org/2000/svg" xmlns:xlink="http://www.w3.org/1999/xlink" version="1.1" ><path stroke="none" fill="#000000" transform="matrix(0.05 0 0 0.05 -106 -1375)" d="M 2161.23,28304.4 L 2183.49,28288.2 L 2453.3,28375.8 L 2461.81,28402 L 2161.23,28304.4 Z " /><path stroke="none" fill="#000000" transform="matrix(0.05 0 0 0.05 -106 -1375)" d="M 2461.81,28402 L 2453.3,28375.8 L 2620.05,28146.3 L 2647.58,28146.3 L 2461.81,28402 Z " /><path stroke="none" fill="#000000" transform="matrix(0.05 0 0 0.05 -106 -1375)" d="M 2647.58,28146.3 L 2620.05,28146.3 L 2453.3,27916.8 L 2457.33,27904.4 L 2469.02,27902.3 L 2647.58,28146.3 Z " /><path stroke="none" fill="#000000" transform="matrix(0.05 0 0 0.05 -106 -1375)" d="M 2449.12,27895.8 L 2457.33,27904.4 L 2453.3,27916.8 L 2183.49,28004.5 L 2161.23,27988.3 L 2449.12,27895.8 Z " /><path stroke="none" fill="#000000" transform="matrix(0.05 0 0 0.05 -106 -1375)" d="M 2161.23,27988.3 L 2183.49,28004.5 L 2183.49,28288.2 L 2161.23,28304.4 L 2161.23,27988.3 Z " /><text x="0" y="0" stroke="none" fill="#ff0000" transform="matrix(0.05 0 0 0.05 18.4846 9.24234)" font-style="normal" font-weight="bold" font-size="180px" font-family="Helvetica" >SH</text><path stroke="none" fill="#ff0000" transform="matrix(0.05 0 0 0.05 -106 -1375)" d="M 2469.02,27902.3 L 2457.33,27904.4 L 2449.12,27895.8 L 2507.79,27713.2 L 2528.91,27720.1 L 2469.02,27902.3 Z " /></svg>