<?xml version="1.0" standalone="no" ?><!DOCTYPE svg PUBLIC "-//W3C//DTD SVG 1.1//EN" "http://www.w3.org/Graphics/SVG/1.1/DTD/svg11.dtd"><svg width="41px" height="31px" viewBox="0 0 41 31" style="background-color: #ffffff00" xmlns="http://www.w3.org/2000/svg" xmlns:xlink="http://www.w3.org/1999/xlink" version="1.1" ><path stroke="none" fill="#000000" transform="matrix(0.05 0 0 0.05 -194 -1388)" d="M 4214.52,28104.1 L 4203.86,28110 L 4193.21,28103.9 L 4192.76,27810.4 L 4214.96,27810.4 L 4214.52,28104.1 Z " /><path stroke="none" fill="#ff0000" transform="matrix(0.05 0 0 0.05 -194 -1388)" d="M 4204.1,28122.2 L 4203.86,28110 L 4214.52,28104.1 L 4387.59,28203.3 L 4376.49,28222.5 L 4204.1,28122.2 Z " /><text x="0" y="0" stroke="none" fill="#ff0000" transform="matrix(0.05 0 0 0.05 26.1644 28.23)" font-style="normal" font-weight="bold" font-size="180px" font-family="Helvetica" >SH</text><path stroke="none" fill="#000000" transform="matrix(0.05 0 0 0.05 -194 -1388)" d="M 3949.95,28269.4 L 3938.85,28250.2 L 4193.21,28103.9 L 4203.86,28110 L 4204.1,28122.2 L 3949.95,28269.4 Z " /></svg>