<?xml version="1.0" standalone="no" ?><!DOCTYPE svg PUBLIC "-//W3C//DTD SVG 1.1//EN" "http://www.w3.org/Graphics/SVG/1.1/DTD/svg11.dtd"><svg width="59px" height="42px" viewBox="0 0 59 42" style="background-color: #ffffff00" xmlns="http://www.w3.org/2000/svg" xmlns:xlink="http://www.w3.org/1999/xlink" version="1.1" ><path stroke="none" fill="#000000" transform="matrix(0.05 0 0 0.05 -290 -1382)" d="M 5841.93,27994.9 L 5853.03,27975.7 L 6106.94,28122.8 L 6106.94,28135.1 L 6096.3,28141.3 L 5841.93,27994.9 Z " /><path stroke="none" fill="#000000" transform="matrix(0.05 0 0 0.05 -290 -1382)" d="M 6117.59,28141.3 L 6106.94,28135.1 L 6106.94,28122.8 L 6355.76,27979.2 L 6366.4,27985.3 L 6367.52,27997.1 L 6117.59,28141.3 Z " /><text x="0" y="0" stroke="none" fill="#ff0000" transform="matrix(0.05 0 0 0.05 38.2917 27.9947)" font-style="normal" font-weight="bold" font-size="180px" font-family="Helvetica" >S</text><path stroke="none" fill="#ff0000" transform="matrix(0.05 0 0 0.05 -290 -1382)" d="M 6367.52,27997.1 L 6366.4,27985.3 L 6377.14,27980.4 L 6560.99,28059 L 6527.54,28117 L 6367.52,27997.1 Z " /><path stroke="none" fill="#000000" transform="matrix(0.05 0 0 0.05 -290 -1382)" d="M 6096.3,28141.3 L 6106.94,28135.1 L 6117.59,28141.3 L 6118.04,28434.7 L 6095.84,28434.7 L 6096.3,28141.3 Z " /><path stroke="none" fill="#000000" transform="matrix(0.05 0 0 0.05 -290 -1382)" d="M 6377.14,27980.4 L 6366.4,27985.3 L 6355.76,27979.2 L 6355.3,27685.7 L 6377.5,27685.7 L 6377.14,27980.4 Z " /><text x="0" y="0" stroke="none" fill="#ff0000" transform="matrix(0.05 0 0 0.05 51.0164 20.5047)" font-style="normal" font-weight="bold" font-size="180px" font-family="Helvetica" >H</text><path stroke="none" fill="#ff0000" transform="matrix(0.05 0 0 0.05 -290 -1382)" d="M 6710.04,28099.3 L 6698.94,28080.1 L 6787.22,28029.1 L 6798.32,28048.4 L 6710.04,28099.3 Z " /></svg>