<?xml version="1.0" standalone="no" ?><!DOCTYPE svg PUBLIC "-//W3C//DTD SVG 1.1//EN" "http://www.w3.org/Graphics/SVG/1.1/DTD/svg11.dtd"><svg width="71px" height="45px" viewBox="0 0 71 45" style="background-color: #ffffff00" xmlns="http://www.w3.org/2000/svg" xmlns:xlink="http://www.w3.org/1999/xlink" version="1.1" ><path stroke="none" fill="#000000" transform="matrix(0.05 0 0 0.05 -105 -164)" d="M 2168.48,3842.31 L 2146.24,3829.47 L 2417.5,3672.83 L 2417.55,3698.53 L 2168.48,3842.31 Z " /><text x="0" y="0" stroke="none" fill="#ff0000" transform="matrix(0.05 0 0 0.05 12.3648 8.57677)" font-style="normal" font-weight="bold" font-size="180px" font-family="Helvetica" >O</text><path stroke="none" fill="#ff0000" transform="matrix(0.05 0 0 0.05 -105 -164)" d="M 2400.65,3702.38 L 2378.45,3702.38 L 2378.45,3487.21 L 2400.65,3487.21 L 2400.65,3702.38 Z " /><path stroke="none" fill="#ff0000" transform="matrix(0.05 0 0 0.05 -105 -164)" d="M 2456.15,3702.38 L 2433.95,3702.38 L 2433.95,3487.21 L 2456.15,3487.21 L 2456.15,3702.38 Z " /><text x="0" y="0" stroke="none" fill="#ff0000" transform="matrix(0.05 0 0 0.05 25.3379 31.0468)" font-style="normal" font-weight="bold" font-size="180px" font-family="Helvetica" >O</text><path stroke="none" fill="#ff0000" transform="matrix(0.05 0 0 0.05 -105 -164)" d="M 2417.55,3698.53 L 2417.5,3672.83 L 2599.21,3778.57 L 2588.11,3797.8 L 2417.55,3698.53 Z " /><path stroke="none" fill="#ff0000" transform="matrix(0.05 0 0 0.05 -105 -164)" d="M 2765.97,3797.47 L 2754.87,3778.25 L 2936.02,3672.83 L 2935.97,3698.53 L 2765.97,3797.47 Z " /><text x="0" y="0" stroke="none" fill="#ff0000" transform="matrix(0.05 0 0 0.05 38.3109 8.57677)" font-style="normal" font-weight="bold" font-size="180px" font-family="Helvetica" >O</text><path stroke="none" fill="#ff0000" transform="matrix(0.05 0 0 0.05 -105 -164)" d="M 2919.57,3702.38 L 2897.37,3702.38 L 2897.37,3487.21 L 2919.57,3487.21 L 2919.57,3702.38 Z " /><path stroke="none" fill="#ff0000" transform="matrix(0.05 0 0 0.05 -105 -164)" d="M 2975.07,3702.38 L 2952.87,3702.38 L 2952.87,3487.21 L 2975.07,3487.21 L 2975.07,3702.38 Z " /><path stroke="none" fill="#000000" transform="matrix(0.05 0 0 0.05 -105 -164)" d="M 2935.97,3698.53 L 2936.02,3672.83 L 3195.68,3823.87 L 3195.68,3849.55 L 2935.97,3698.53 Z " /><path stroke="none" fill="#000000" transform="matrix(0.05 0 0 0.05 -105 -164)" d="M 2146.24,3829.47 L 2168.48,3842.31 L 2168.94,4135.76 L 2146.74,4135.76 L 2146.24,3829.47 Z " /><path stroke="none" fill="#000000" transform="matrix(0.05 0 0 0.05 -105 -164)" d="M 3195.68,3849.55 L 3195.68,3823.87 L 3449.6,3676.75 L 3460.7,3695.97 L 3195.68,3849.55 Z " /></svg>