<?xml version="1.0" standalone="no" ?><!DOCTYPE svg PUBLIC "-//W3C//DTD SVG 1.1//EN" "http://www.w3.org/Graphics/SVG/1.1/DTD/svg11.dtd"><svg width="58px" height="64px" viewBox="0 0 58 64" style="background-color: #ffffff00" xmlns="http://www.w3.org/2000/svg" xmlns:xlink="http://www.w3.org/1999/xlink" version="1.1" ><path stroke="none" fill="#000000" transform="matrix(0.05 0 0 0.05 -198 -154)" d="M 4017.98,3559.78 L 4040.22,3572.63 L 4040.22,3859.93 L 4017.98,3872.77 L 4017.98,3559.78 Z " /><path stroke="none" fill="#000000" transform="matrix(0.05 0 0 0.05 -198 -154)" d="M 4073.98,3598.52 L 4096.18,3598.52 L 4096.18,3834.04 L 4073.98,3834.04 L 4073.98,3598.52 Z " /><path stroke="none" fill="#000000" transform="matrix(0.05 0 0 0.05 -198 -154)" d="M 4017.98,3872.77 L 4040.22,3859.93 L 4289.04,4003.59 L 4289.04,4029.27 L 4017.98,3872.77 Z " /><path stroke="none" fill="#000000" transform="matrix(0.05 0 0 0.05 -198 -154)" d="M 4289.04,4029.27 L 4289.04,4003.59 L 4537.86,3859.93 L 4548.5,3866.08 L 4549.73,3877.78 L 4289.04,4029.27 Z " /><path stroke="none" fill="#000000" transform="matrix(0.05 0 0 0.05 -198 -154)" d="M 4294.59,3961.41 L 4283.49,3942.18 L 4487.45,3824.42 L 4498.55,3843.65 L 4294.59,3961.41 Z " /><path stroke="none" fill="#000000" transform="matrix(0.05 0 0 0.05 -198 -154)" d="M 4559.03,3858.43 L 4548.5,3866.08 L 4537.86,3859.93 L 4537.86,3572.63 L 4548.5,3566.48 L 4559.03,3574.13 L 4559.03,3858.43 Z " /><path stroke="none" fill="#000000" transform="matrix(0.05 0 0 0.05 -198 -154)" d="M 4549.73,3554.78 L 4548.5,3566.48 L 4537.86,3572.63 L 4289.04,3428.97 L 4289.04,3403.29 L 4549.73,3554.78 Z " /><path stroke="none" fill="#000000" transform="matrix(0.05 0 0 0.05 -198 -154)" d="M 4498.55,3588.91 L 4487.45,3608.14 L 4283.49,3490.38 L 4294.59,3471.15 L 4498.55,3588.91 Z " /><path stroke="none" fill="#000000" transform="matrix(0.05 0 0 0.05 -198 -154)" d="M 4289.04,3403.29 L 4289.04,3428.97 L 4040.22,3572.63 L 4017.98,3559.78 L 4289.04,3403.29 Z " /><text x="0" y="0" stroke="none" fill="#ff0000" transform="matrix(0.05 0 0 0.05 48.9767 35.0528)" font-style="normal" font-weight="bold" font-size="180px" font-family="Helvetica" >O</text><path stroke="none" fill="#000000" transform="matrix(0.05 0 0 0.05 -198 -154)" d="M 4549.73,3877.78 L 4548.5,3866.08 L 4559.03,3858.43 L 4829.73,3946.36 L 4838.21,3972.57 L 4549.73,3877.78 Z " /><path stroke="none" fill="#ff0000" transform="matrix(0.05 0 0 0.05 -198 -154)" d="M 4838.21,3972.57 L 4829.73,3946.36 L 4941.55,3790.98 L 4959.51,3804.03 L 4838.21,3972.57 Z " /><path stroke="none" fill="#ff0000" transform="matrix(0.05 0 0 0.05 -198 -154)" d="M 4960.95,3630.52 L 4942.99,3643.57 L 4829.72,3486.21 L 4838.2,3459.99 L 4960.95,3630.52 Z " /><path stroke="none" fill="#000000" transform="matrix(0.05 0 0 0.05 -198 -154)" d="M 4838.2,3459.99 L 4829.72,3486.21 L 4559.03,3574.13 L 4548.5,3566.48 L 4549.73,3554.78 L 4838.2,3459.99 Z " /><text x="0" y="0" stroke="none" fill="#ff0000" transform="matrix(0.05 0 0 0.05 44.8007 8.68687)" font-style="normal" font-weight="bold" font-size="180px" font-family="Helvetica" >O</text><path stroke="none" fill="#ff0000" transform="matrix(0.05 0 0 0.05 -198 -154)" d="M 4811.37,3487.93 L 4790.26,3481.07 L 4857.77,3273.3 L 4878.88,3280.16 L 4811.37,3487.93 Z " /><path stroke="none" fill="#ff0000" transform="matrix(0.05 0 0 0.05 -198 -154)" d="M 4864.16,3505.08 L 4843.04,3498.22 L 4910.55,3290.45 L 4931.66,3297.31 L 4864.16,3505.08 Z " /><text x="0" y="0" stroke="none" fill="#ff0000" transform="matrix(0.05 0 0 0.05 44.8007 61.4187)" font-style="normal" font-weight="bold" font-size="180px" font-family="Helvetica" >O</text><path stroke="none" fill="#ff0000" transform="matrix(0.05 0 0 0.05 -198 -154)" d="M 4843.04,3934.34 L 4864.16,3927.48 L 4932.59,4138.09 L 4911.47,4144.95 L 4843.04,3934.34 Z " /><path stroke="none" fill="#ff0000" transform="matrix(0.05 0 0 0.05 -198 -154)" d="M 4790.26,3951.49 L 4811.37,3944.63 L 4879.8,4155.24 L 4858.69,4162.1 L 4790.26,3951.49 Z " /></svg>