<?xml version="1.0" standalone="no" ?><!DOCTYPE svg PUBLIC "-//W3C//DTD SVG 1.1//EN" "http://www.w3.org/Graphics/SVG/1.1/DTD/svg11.dtd"><svg width="62px" height="34px" viewBox="0 0 62 34" style="background-color: #ffffff00" xmlns="http://www.w3.org/2000/svg" xmlns:xlink="http://www.w3.org/1999/xlink" version="1.1" ><path stroke="none" fill="#000000" transform="matrix(0.05 0 0 0.05 -290 -173)" d="M 6203.43,3591 L 6182.97,3572.59 L 6491.14,3507.09 L 6479.95,3532.23 L 6203.43,3591 Z " /><path stroke="none" fill="#000000" transform="matrix(0.05 0 0 0.05 -290 -173)" d="M 6247.04,3639.05 L 6242.43,3617.34 L 6455.03,3572.15 L 6459.65,3593.86 L 6247.04,3639.05 Z " /><path stroke="none" fill="#000000" transform="matrix(0.05 0 0 0.05 -290 -173)" d="M 6182.97,3572.59 L 6203.43,3591 L 6173.87,3872.46 L 6149.99,3886.21 L 6182.97,3572.59 Z " /><path stroke="none" fill="#000000" transform="matrix(0.05 0 0 0.05 -290 -173)" d="M 6479.95,3532.23 L 6491.14,3507.09 L 6648.84,3780.19 L 6621.44,3777.34 L 6479.95,3532.23 Z " /><text x="0" y="0" stroke="none" fill="#ff0000" transform="matrix(0.05 0 0 0.05 28.2418 30.2323)" font-style="normal" font-weight="bold" font-size="180px" font-family="Helvetica" >O</text><path stroke="none" fill="#ff0000" transform="matrix(0.05 0 0 0.05 -290 -173)" d="M 6149.99,3886.21 L 6173.87,3872.46 L 6352.38,3951.01 L 6343.35,3971.29 L 6149.99,3886.21 Z " /><text x="0" y="0" stroke="none" fill="#ff0000" transform="matrix(0.05 0 0 0.05 1.7262 31.6219)" font-style="normal" font-weight="bold" font-size="180px" font-family="Helvetica" >O</text><path stroke="none" fill="#ff0000" transform="matrix(0.05 0 0 0.05 -290 -173)" d="M 6188.39,3883 L 6199.49,3902.23 L 6007.61,4013.01 L 5996.51,3993.78 L 6188.39,3883 Z " /><path stroke="none" fill="#ff0000" transform="matrix(0.05 0 0 0.05 -290 -173)" d="M 6160.64,3834.94 L 6171.74,3854.16 L 5979.86,3964.94 L 5968.76,3945.72 L 6160.64,3834.94 Z " /><path stroke="none" fill="#ff0000" transform="matrix(0.05 0 0 0.05 -290 -173)" d="M 6508.92,3934.18 L 6492.43,3919.33 L 6621.44,3777.34 L 6648.84,3780.19 L 6508.92,3934.18 Z " /><text x="0" y="0" stroke="none" fill="#ff0000" transform="matrix(0.05 0 0 0.05 53.0302 20.7169)" font-style="normal" font-weight="bold" font-size="180px" font-family="Helvetica" >O</text><path stroke="none" fill="#ff0000" transform="matrix(0.05 0 0 0.05 -290 -173)" d="M 6615.93,3759.75 L 6618.25,3737.67 L 6843.19,3761.31 L 6840.87,3783.39 L 6615.93,3759.75 Z " /><path stroke="none" fill="#ff0000" transform="matrix(0.05 0 0 0.05 -290 -173)" d="M 6610.13,3814.94 L 6612.45,3792.86 L 6837.39,3816.51 L 6835.06,3838.58 L 6610.13,3814.94 Z " /></svg>