<?xml version="1.0" standalone="no" ?><!DOCTYPE svg PUBLIC "-//W3C//DTD SVG 1.1//EN" "http://www.w3.org/Graphics/SVG/1.1/DTD/svg11.dtd"><svg width="44px" height="54px" viewBox="0 0 44 54" style="background-color: #ffffff00" xmlns="http://www.w3.org/2000/svg" xmlns:xlink="http://www.w3.org/1999/xlink" version="1.1" ><text x="0" y="0" stroke="none" fill="#ff0000" transform="matrix(0.05 0 0 0.05 2.17249 31.2507)" font-style="normal" font-weight="bold" font-size="180px" font-family="Helvetica" >HN</text><text x="0" y="0" stroke="none" fill="#ff0000" transform="matrix(0.05 0 0 0.05 34.3676 31.2507)" font-style="normal" font-weight="bold" font-size="180px" font-family="Helvetica" >O</text><path stroke="none" fill="#000000" transform="matrix(0.05 0 0 0.05 -87 -1461)" d="M 1967.34,29874.7 L 1989.53,29874.7 L 1988.85,30073.5 L 1966.62,30086.4 L 1967.34,29874.7 Z " /><path stroke="none" fill="#000000" transform="matrix(0.05 0 0 0.05 -87 -1461)" d="M 1966.62,30086.4 L 1988.85,30073.5 L 2237.9,30217.3 L 2237.9,30243 L 1966.62,30086.4 Z " /><path stroke="none" fill="#000000" transform="matrix(0.05 0 0 0.05 -87 -1461)" d="M 2237.9,30243 L 2237.9,30217.3 L 2486.96,30073.5 L 2509.19,30086.4 L 2237.9,30243 Z " /><path stroke="none" fill="#000000" transform="matrix(0.05 0 0 0.05 -87 -1461)" d="M 2509.19,30086.4 L 2486.96,30073.5 L 2486.26,29880.7 L 2508.46,29880.7 L 2509.19,30086.4 Z " /><path stroke="none" fill="#ff0000" transform="matrix(0.05 0 0 0.05 -87 -1461)" d="M 2419.81,29722.7 L 2408.71,29741.9 L 2237.84,29642.5 L 2237.85,29616.7 L 2419.81,29722.7 Z " /><path stroke="none" fill="#ff0000" transform="matrix(0.05 0 0 0.05 -87 -1461)" d="M 2237.85,29616.7 L 2237.84,29642.5 L 2078.78,29735.1 L 2067.68,29715.9 L 2237.85,29616.7 Z " /><text x="0" y="0" stroke="none" fill="#ff0000" transform="matrix(0.05 0 0 0.05 21.3946 8.78075)" font-style="normal" font-weight="bold" font-size="180px" font-family="Helvetica" >O</text><path stroke="none" fill="#ff0000" transform="matrix(0.05 0 0 0.05 -87 -1461)" d="M 2221.25,29646.5 L 2199.05,29646.5 L 2199.05,29431.3 L 2221.25,29431.3 L 2221.25,29646.5 Z " /><path stroke="none" fill="#ff0000" transform="matrix(0.05 0 0 0.05 -87 -1461)" d="M 2276.75,29646.5 L 2254.55,29646.5 L 2254.55,29431.3 L 2276.75,29431.3 L 2276.75,29646.5 Z " /></svg>