<?xml version="1.0" standalone="no" ?><!DOCTYPE svg PUBLIC "-//W3C//DTD SVG 1.1//EN" "http://www.w3.org/Graphics/SVG/1.1/DTD/svg11.dtd"><svg width="85px" height="53px" viewBox="0 0 85 53" style="background-color: #ffffff00" xmlns="http://www.w3.org/2000/svg" xmlns:xlink="http://www.w3.org/1999/xlink" version="1.1" ><path stroke="none" fill="#000000" transform="matrix(0.05 0 0 0.05 -171 -1458)" d="M 3748.97,29579.4 L 3748.97,29553.7 L 4008.43,29704.6 L 4008.43,29716.9 L 3997.78,29723.1 L 3748.97,29579.4 Z " /><path stroke="none" fill="#000000" transform="matrix(0.05 0 0 0.05 -171 -1458)" d="M 3500.15,29723.1 L 3477.91,29710.2 L 3748.97,29553.7 L 3748.97,29579.4 L 3500.15,29723.1 Z " /><path stroke="none" fill="#000000" transform="matrix(0.05 0 0 0.05 -171 -1458)" d="M 3550.55,29758.6 L 3539.45,29739.3 L 3743.42,29621.6 L 3754.52,29640.8 L 3550.55,29758.6 Z " /><path stroke="none" fill="#000000" transform="matrix(0.05 0 0 0.05 -171 -1458)" d="M 3500.15,30010.4 L 3477.91,30023.2 L 3477.91,29710.2 L 3500.15,29723.1 L 3500.15,30010.4 Z " /><path stroke="none" fill="#000000" transform="matrix(0.05 0 0 0.05 -171 -1458)" d="M 3748.97,30154 L 3748.97,30179.7 L 3477.91,30023.2 L 3500.15,30010.4 L 3748.97,30154 Z " /><path stroke="none" fill="#000000" transform="matrix(0.05 0 0 0.05 -171 -1458)" d="M 3754.52,30092.6 L 3743.42,30111.8 L 3539.45,29994.1 L 3550.55,29974.9 L 3754.52,30092.6 Z " /><path stroke="none" fill="#000000" transform="matrix(0.05 0 0 0.05 -171 -1458)" d="M 3997.78,30010.4 L 4020.02,30023.2 L 3748.97,30179.7 L 3748.97,30154 L 3997.78,30010.4 Z " /><path stroke="none" fill="#000000" transform="matrix(0.05 0 0 0.05 -171 -1458)" d="M 3997.78,29723.1 L 4008.43,29716.9 L 4019.07,29723.1 L 4020.02,30023.2 L 3997.78,30010.4 L 3997.78,29723.1 Z " /><path stroke="none" fill="#000000" transform="matrix(0.05 0 0 0.05 -171 -1458)" d="M 3941.83,29749 L 3964.03,29749 L 3964.03,29984.5 L 3941.83,29984.5 L 3941.83,29749 Z " /><path stroke="none" fill="#000000" transform="matrix(0.05 0 0 0.05 -171 -1458)" d="M 4019.07,29723.1 L 4008.43,29716.9 L 4008.43,29704.6 L 4267.89,29553.7 L 4267.89,29579.4 L 4019.07,29723.1 Z " /><text x="0" y="0" stroke="none" fill="#000000" transform="matrix(0.05 0 0 0.05 38.8942 8.61473)" font-style="normal" font-weight="bold" font-size="180px" font-family="Helvetica" >O</text><path stroke="none" fill="#000000" transform="matrix(0.05 0 0 0.05 -171 -1458)" d="M 4251.24,29583.1 L 4229.04,29583.1 L 4229.04,29368 L 4251.24,29368 L 4251.24,29583.1 Z " /><path stroke="none" fill="#000000" transform="matrix(0.05 0 0 0.05 -171 -1458)" d="M 4306.74,29583.1 L 4284.54,29583.1 L 4284.54,29368 L 4306.74,29368 L 4306.74,29583.1 Z " /><path stroke="none" fill="#000000" transform="matrix(0.05 0 0 0.05 -171 -1458)" d="M 4267.89,29579.4 L 4267.89,29553.7 L 4527.66,29704.8 L 4527.6,29730.5 L 4267.89,29579.4 Z " /><text x="0" y="0" stroke="none" fill="#ff0000" transform="matrix(0.05 0 0 0.05 65.0908 23.5947)" font-style="normal" font-weight="bold" font-size="180px" font-family="Helvetica" >NO</text><text x="0" y="0" stroke="none" fill="#ff0000" transform="matrix(0.05 0 0 0.05 78.5908 25.6646)" font-style="normal" font-weight="bold" font-size="135px" font-family="Helvetica" >2</text><path stroke="none" fill="#000000" transform="matrix(0.05 0 0 0.05 -171 -1458)" d="M 4527.6,29730.5 L 4527.66,29704.8 L 4686.13,29612.4 L 4697.23,29631.7 L 4527.6,29730.5 Z " /></svg>