<?xml version="1.0" standalone="no" ?><!DOCTYPE svg PUBLIC "-//W3C//DTD SVG 1.1//EN" "http://www.w3.org/Graphics/SVG/1.1/DTD/svg11.dtd"><svg width="53px" height="17px" viewBox="0 0 53 17" style="background-color: #ffffff00" xmlns="http://www.w3.org/2000/svg" xmlns:xlink="http://www.w3.org/1999/xlink" version="1.1" ><path stroke="none" fill="#000000" transform="matrix(0.05 0 0 0.05 -289 -1479)" d="M 6798.75,29827.2 L 6787.65,29846.4 L 6533.74,29699.3 L 6533.74,29673.6 L 6798.75,29827.2 Z " /><path stroke="none" fill="#000000" transform="matrix(0.05 0 0 0.05 -289 -1479)" d="M 6533.74,29673.6 L 6533.74,29699.3 L 6279.83,29846.4 L 6268.73,29827.2 L 6533.74,29673.6 Z " /><text x="0" y="0" stroke="none" fill="#ff0000" transform="matrix(0.05 0 0 0.05 1.99155 8.58875)" font-style="normal" font-weight="bold" font-size="180px" font-family="Helvetica" >HN</text><path stroke="none" fill="#ff0000" transform="matrix(0.05 0 0 0.05 -289 -1479)" d="M 6265.95,29851.2 L 6254.85,29870.4 L 6088.77,29774.6 L 6099.87,29755.3 L 6265.95,29851.2 Z " /><path stroke="none" fill="#ff0000" transform="matrix(0.05 0 0 0.05 -289 -1479)" d="M 6307.58,29811.2 L 6296.48,29830.4 L 6116.52,29726.5 L 6127.62,29707.3 L 6307.58,29811.2 Z " /></svg>