<?xml version="1.0" standalone="no" ?><!DOCTYPE svg PUBLIC "-//W3C//DTD SVG 1.1//EN" "http://www.w3.org/Graphics/SVG/1.1/DTD/svg11.dtd"><svg width="60px" height="38px" viewBox="0 0 60 38" style="background-color: #ffffff00" xmlns="http://www.w3.org/2000/svg" xmlns:xlink="http://www.w3.org/1999/xlink" version="1.1" ><path stroke="none" fill="#000000" transform="matrix(0.05 0 0 0.05 -372 -1471)" d="M 7481.05,29638.5 L 7503.31,29654.7 L 7503.31,29939 L 7481.05,29955.2 L 7481.05,29638.5 Z " /><path stroke="none" fill="#000000" transform="matrix(0.05 0 0 0.05 -372 -1471)" d="M 7481.05,29955.2 L 7503.31,29939 L 7773.69,30026.8 L 7782.2,30053 L 7481.05,29955.2 Z " /><path stroke="none" fill="#000000" transform="matrix(0.05 0 0 0.05 -372 -1471)" d="M 7782.2,30053 L 7773.69,30026.8 L 7940.8,29796.8 L 7953.81,29796.8 L 7959.26,29807.5 L 7782.2,30053 Z " /><path stroke="none" fill="#000000" transform="matrix(0.05 0 0 0.05 -372 -1471)" d="M 7959.26,29786.1 L 7953.81,29796.8 L 7940.8,29796.8 L 7773.69,29566.8 L 7782.2,29540.7 L 7959.26,29786.1 Z " /><path stroke="none" fill="#000000" transform="matrix(0.05 0 0 0.05 -372 -1471)" d="M 7782.2,29540.7 L 7773.69,29566.8 L 7503.31,29654.7 L 7481.05,29638.5 L 7782.2,29540.7 Z " /><path stroke="none" fill="#000000" transform="matrix(0.05 0 0 0.05 -372 -1471)" d="M 7959.26,29807.5 L 7953.81,29796.8 L 7959.26,29786.1 L 8260.37,29785.2 L 8247.56,29807.5 L 7959.26,29807.5 Z " /><text x="0" y="0" stroke="none" fill="#ff0000" transform="matrix(0.05 0 0 0.05 45.1593 35.0538)" font-style="normal" font-weight="bold" font-size="180px" font-family="Helvetica" >SH</text><path stroke="none" fill="#ff0000" transform="matrix(0.05 0 0 0.05 -372 -1471)" d="M 8247.56,29807.5 L 8260.37,29785.2 L 8363.57,29965.4 L 8344.34,29976.5 L 8247.56,29807.5 Z " /><text x="0" y="0" stroke="none" fill="#ff0000" transform="matrix(0.05 0 0 0.05 44.6605 9.1077)" font-style="normal" font-weight="bold" font-size="180px" font-family="Helvetica" >O</text><path stroke="none" fill="#ff0000" transform="matrix(0.05 0 0 0.05 -372 -1471)" d="M 8230.98,29802.4 L 8211.76,29791.3 L 8318.87,29605.8 L 8338.09,29616.9 L 8230.98,29802.4 Z " /><path stroke="none" fill="#ff0000" transform="matrix(0.05 0 0 0.05 -372 -1471)" d="M 8279.05,29830.1 L 8259.82,29819 L 8366.93,29633.5 L 8386.16,29644.6 L 8279.05,29830.1 Z " /></svg>