<?xml version="1.0" standalone="no" ?><!DOCTYPE svg PUBLIC "-//W3C//DTD SVG 1.1//EN" "http://www.w3.org/Graphics/SVG/1.1/DTD/svg11.dtd"><svg width="80px" height="40px" viewBox="0 0 80 40" style="background-color: #ffffff00" xmlns="http://www.w3.org/2000/svg" xmlns:xlink="http://www.w3.org/1999/xlink" version="1.1" ><path stroke="none" fill="#000000" transform="matrix(0.05 0 0 0.05 -454 -1465)" d="M 9335.12,29557.6 L 9357.14,29554.7 L 9394.01,29845.9 L 9384.23,29853.3 L 9372.89,29848.6 L 9335.12,29557.6 Z " /><path stroke="none" fill="#000000" transform="matrix(0.05 0 0 0.05 -454 -1465)" d="M 9385.79,29865.5 L 9384.23,29853.3 L 9394.01,29845.9 L 9659.34,29956.8 L 9662.56,29982.3 L 9385.79,29865.5 Z " /><path stroke="none" fill="#000000" transform="matrix(0.05 0 0 0.05 -454 -1465)" d="M 9372.89,29848.6 L 9384.23,29853.3 L 9385.79,29865.5 L 9152.66,30043.7 L 9139.2,30026.1 L 9372.89,29848.6 Z " /><text x="0" y="0" stroke="none" fill="#ff0000" transform="matrix(0.05 0 0 0.05 37.6973 27.6044)" font-style="normal" font-weight="bold" font-size="180px" font-family="Helvetica" >C</text><path stroke="none" fill="#000000" transform="matrix(0.05 0 0 0.05 -454 -1465)" d="M 9662.56,29982.3 L 9659.34,29956.8 L 9816.01,29836.5 L 9829.46,29854.2 L 9662.56,29982.3 Z " /><text x="0" y="0" stroke="none" fill="#ff0000" transform="matrix(0.05 0 0 0.05 49.6124 18.5253)" font-style="normal" font-weight="bold" font-size="180px" font-family="Helvetica" >N</text><path stroke="none" fill="#ff0000" transform="matrix(0.05 0 0 0.05 -454 -1465)" d="M 9948.99,29693.4 L 9935.53,29675.7 L 10008.1,29620.4 L 10021.5,29638.1 L 9948.99,29693.4 Z " /><path stroke="none" fill="#ff0000" transform="matrix(0.05 0 0 0.05 -454 -1465)" d="M 9982.62,29737.5 L 9969.17,29719.8 L 10041.7,29664.6 L 10055.1,29682.2 L 9982.62,29737.5 Z " /><path stroke="none" fill="#ff0000" transform="matrix(0.05 0 0 0.05 -454 -1465)" d="M 10016.3,29781.6 L 10002.8,29764 L 10075.3,29708.7 L 10088.8,29726.4 L 10016.3,29781.6 Z " /><text x="0" y="0" stroke="none" fill="#ff0000" transform="matrix(0.05 0 0 0.05 61.2771 9.44627)" font-style="normal" font-weight="bold" font-size="180px" font-family="Helvetica" >O</text><path stroke="none" fill="#ff0000" transform="matrix(0.05 0 0 0.05 -454 -1465)" d="M 10232.9,29546.8 L 10219.5,29529.1 L 10290.5,29475 L 10303.9,29492.7 L 10232.9,29546.8 Z " /><path stroke="#ff0000" stroke-width="18" fill="none" transform="matrix(0.05 0 0 0.05 -454 -1465)" d="M 10251.7,29631.1 A 68.8799,68.8799 0 1 0 10389.5,29631.1A 68.8799,68.8799 0 1 0 10251.7,29631.1Z " /><path stroke="none" fill="#ff0000" transform="matrix(0.05 0 0 0.05 -454 -1465)" d="M 10279.5,29622.1 L 10361.7,29622.1 L 10361.7,29640.1 L 10279.5,29640.1 Z " /><path stroke="none" fill="#ff0000" transform="matrix(0.05 0 0 0.05 -454 -1465)" d="M 10329.6,29590 L 10329.6,29672.2 L 10311.6,29672.2 L 10311.6,29590 Z " /><path stroke="#ff0000" stroke-width="18" fill="none" transform="matrix(0.05 0 0 0.05 -454 -1465)" d="M 10485.8,29439.6 A 68.8799,68.8799 0 1 0 10623.6,29439.6A 68.8799,68.8799 0 1 0 10485.8,29439.6Z " /><path stroke="none" fill="#ff0000" transform="matrix(0.05 0 0 0.05 -454 -1465)" d="M 10513.6,29430.6 L 10595.8,29430.6 L 10595.8,29448.6 L 10513.6,29448.6 Z " /></svg>