<?xml version="1.0" standalone="no" ?><!DOCTYPE svg PUBLIC "-//W3C//DTD SVG 1.1//EN" "http://www.w3.org/Graphics/SVG/1.1/DTD/svg11.dtd"><svg width="58px" height="35px" viewBox="0 0 58 35" style="background-color: #ffffff00" xmlns="http://www.w3.org/2000/svg" xmlns:xlink="http://www.w3.org/1999/xlink" version="1.1" ><text x="0" y="0" stroke="none" fill="#ff0000" transform="matrix(0.05 0 0 0.05 38.4875 27.1097)" font-style="normal" font-weight="bold" font-size="180px" font-family="Helvetica" >O</text><path stroke="none" fill="#ff0000" transform="matrix(0.05 0 0 0.05 -553 -1474)" d="M 11989,29918.7 L 11977.9,29899.5 L 12152.3,29798.8 L 12163.4,29818 L 11989,29918.7 Z " /><path stroke="none" fill="#ff0000" transform="matrix(0.05 0 0 0.05 -553 -1474)" d="M 11822.2,29899.8 L 11811.1,29919.1 L 11645.3,29822.1 L 11641.7,29808.4 L 11655.6,29805 L 11822.2,29899.8 Z " /><path stroke="none" fill="#000000" transform="matrix(0.05 0 0 0.05 -553 -1474)" d="M 11637.9,29794.3 L 11641.7,29808.4 L 11627.9,29812.4 L 11383.6,29671.7 L 11383.6,29646 L 11637.9,29794.3 Z " /><path stroke="none" fill="#000000" transform="matrix(0.05 0 0 0.05 -553 -1474)" d="M 11655.6,29805 L 11641.7,29808.4 L 11637.9,29794.3 L 11784,29538.7 L 11796.8,29561 L 11655.6,29805 Z " /><path stroke="none" fill="#000000" transform="matrix(0.05 0 0 0.05 -553 -1474)" d="M 11796.8,29561 L 11784,29538.7 L 12088.7,29539.2 L 12088.7,29561.4 L 11796.8,29561 Z " /><path stroke="none" fill="#000000" transform="matrix(0.05 0 0 0.05 -553 -1474)" d="M 11383.6,29646 L 11383.6,29671.7 L 11131.1,29818 L 11120,29798.8 L 11383.6,29646 Z " /><text x="0" y="0" stroke="none" fill="#ff0000" transform="matrix(0.05 0 0 0.05 18.1337 32.5635)" font-style="normal" font-weight="bold" font-size="180px" font-family="Helvetica" >O</text><path stroke="none" fill="#ff0000" transform="matrix(0.05 0 0 0.05 -553 -1474)" d="M 11627.9,29812.4 L 11641.7,29808.4 L 11645.3,29822.1 L 11551.9,29986.2 L 11532.6,29975.1 L 11627.9,29812.4 Z " /><path stroke="none" fill="#ff0000" transform="matrix(0.05 0 0 0.05 -553 -1474)" d="M 11400.4,30055.4 L 11400.4,30077.6 L 11194.7,30077.6 L 11194.7,30055.4 L 11400.4,30055.4 Z " /></svg>