<?xml version="1.0" standalone="no" ?><!DOCTYPE svg PUBLIC "-//W3C//DTD SVG 1.1//EN" "http://www.w3.org/Graphics/SVG/1.1/DTD/svg11.dtd"><svg width="56px" height="38px" viewBox="0 0 56 38" style="background-color: #ffffff00" xmlns="http://www.w3.org/2000/svg" xmlns:xlink="http://www.w3.org/1999/xlink" version="1.1" ><path stroke="none" fill="#000000" transform="matrix(0.05 0 0 0.05 -95 -239)" d="M 1953.25,4996.52 L 1975.51,5012.69 L 1975.51,5296.99 L 1953.25,5313.16 L 1953.25,4996.52 Z " /><path stroke="none" fill="#000000" transform="matrix(0.05 0 0 0.05 -95 -239)" d="M 1953.25,5313.16 L 1975.51,5296.99 L 2245.89,5384.84 L 2254.4,5411.01 L 1953.25,5313.16 Z " /><path stroke="none" fill="#000000" transform="matrix(0.05 0 0 0.05 -95 -239)" d="M 2254.4,5411.01 L 2245.89,5384.84 L 2413,5154.84 L 2426.01,5154.84 L 2431.46,5165.54 L 2254.4,5411.01 Z " /><path stroke="none" fill="#000000" transform="matrix(0.05 0 0 0.05 -95 -239)" d="M 2431.46,5144.14 L 2426.01,5154.84 L 2413,5154.84 L 2245.89,4924.84 L 2254.4,4898.67 L 2431.46,5144.14 Z " /><path stroke="none" fill="#000000" transform="matrix(0.05 0 0 0.05 -95 -239)" d="M 2254.4,4898.67 L 2245.89,4924.84 L 1975.51,5012.69 L 1953.25,4996.52 L 2254.4,4898.67 Z " /><path stroke="none" fill="#000000" transform="matrix(0.05 0 0 0.05 -95 -239)" d="M 2431.46,5165.54 L 2426.01,5154.84 L 2431.46,5144.14 L 2732.56,5143.23 L 2719.75,5165.51 L 2431.46,5165.54 Z " /><text x="0" y="0" stroke="none" fill="#ff0000" transform="matrix(0.05 0 0 0.05 45.521 34.9538)" font-style="normal" font-weight="bold" font-size="180px" font-family="Helvetica" >Cl</text><path stroke="none" fill="#ff0000" transform="matrix(0.05 0 0 0.05 -95 -239)" d="M 2719.75,5165.51 L 2732.56,5143.23 L 2836.72,5325.07 L 2817.49,5336.17 L 2719.75,5165.51 Z " /><text x="0" y="0" stroke="none" fill="#ff0000" transform="matrix(0.05 0 0 0.05 45.2705 9.00771)" font-style="normal" font-weight="bold" font-size="180px" font-family="Helvetica" >O</text><path stroke="none" fill="#ff0000" transform="matrix(0.05 0 0 0.05 -95 -239)" d="M 2703.18,5160.39 L 2683.96,5149.29 L 2791.07,4963.77 L 2810.29,4974.87 L 2703.18,5160.39 Z " /><path stroke="none" fill="#ff0000" transform="matrix(0.05 0 0 0.05 -95 -239)" d="M 2751.25,5188.14 L 2732.02,5177.04 L 2839.13,4991.52 L 2858.36,5002.62 L 2751.25,5188.14 Z " /></svg>