<?xml version="1.0" standalone="no" ?><!DOCTYPE svg PUBLIC "-//W3C//DTD SVG 1.1//EN" "http://www.w3.org/Graphics/SVG/1.1/DTD/svg11.dtd"><svg width="62px" height="34px" viewBox="0 0 62 34" style="background-color: #ffffff00" xmlns="http://www.w3.org/2000/svg" xmlns:xlink="http://www.w3.org/1999/xlink" version="1.1" ><text x="0" y="0" stroke="none" fill="#ff0000" transform="matrix(0.05 0 0 0.05 51.1587 9.11942)" font-style="normal" font-weight="bold" font-size="180px" font-family="Helvetica" >Cl</text><path stroke="none" fill="#ff0000" transform="matrix(0.05 0 0 0.05 -190 -250)" d="M 4801.17,5155.03 L 4812.27,5174.25 L 4628.91,5280.94 L 4628.95,5255.24 L 4801.17,5155.03 Z " /><path stroke="none" fill="#000000" transform="matrix(0.05 0 0 0.05 -190 -250)" d="M 4628.95,5255.24 L 4628.91,5280.94 L 4369.25,5129.9 L 4369.25,5104.22 L 4628.95,5255.24 Z " /><path stroke="none" fill="#000000" transform="matrix(0.05 0 0 0.05 -190 -250)" d="M 4369.25,5104.22 L 4369.25,5129.9 L 4120.43,5273.56 L 4109.79,5267.41 L 4109.79,5255.12 L 4369.25,5104.22 Z " /><path stroke="none" fill="#000000" transform="matrix(0.05 0 0 0.05 -190 -250)" d="M 4363.7,5172.09 L 4374.8,5191.31 L 4170.84,5309.07 L 4159.74,5289.84 L 4363.7,5172.09 Z " /><path stroke="none" fill="#000000" transform="matrix(0.05 0 0 0.05 -190 -250)" d="M 4109.79,5255.12 L 4109.79,5267.41 L 4099.14,5273.56 L 3844.77,5127.23 L 3855.87,5108 L 4109.79,5255.12 Z " /><text x="0" y="0" stroke="none" fill="#ff0000" transform="matrix(0.05 0 0 0.05 37.9352 31.5894)" font-style="normal" font-weight="bold" font-size="180px" font-family="Helvetica" >O</text><path stroke="none" fill="#ff0000" transform="matrix(0.05 0 0 0.05 -190 -250)" d="M 4645.36,5251.39 L 4667.56,5251.39 L 4667.56,5469.06 L 4645.36,5469.06 L 4645.36,5251.39 Z " /><path stroke="none" fill="#ff0000" transform="matrix(0.05 0 0 0.05 -190 -250)" d="M 4589.86,5251.39 L 4612.06,5251.39 L 4612.06,5469.06 L 4589.86,5469.06 L 4589.86,5251.39 Z " /><path stroke="none" fill="#000000" transform="matrix(0.05 0 0 0.05 -190 -250)" d="M 4099.14,5273.56 L 4109.79,5267.41 L 4120.43,5273.56 L 4120.89,5567.01 L 4098.69,5567.01 L 4099.14,5273.56 Z " /></svg>