<?xml version="1.0" standalone="no" ?><!DOCTYPE svg PUBLIC "-//W3C//DTD SVG 1.1//EN" "http://www.w3.org/Graphics/SVG/1.1/DTD/svg11.dtd"><svg width="62px" height="52px" viewBox="0 0 62 52" style="background-color: #ffffff00" xmlns="http://www.w3.org/2000/svg" xmlns:xlink="http://www.w3.org/1999/xlink" version="1.1" ><path stroke="none" fill="#ff0000" transform="matrix(0.05 0 0 0.05 -291 -245)" d="M 6283.43,5504.47 L 6305.63,5504.47 L 6305.63,5722.14 L 6283.43,5722.14 L 6283.43,5504.47 Z " /><path stroke="none" fill="#ff0000" transform="matrix(0.05 0 0 0.05 -291 -245)" d="M 6227.93,5504.47 L 6250.13,5504.47 L 6250.13,5722.14 L 6227.93,5722.14 L 6227.93,5504.47 Z " /><text x="0" y="0" stroke="none" fill="#ff0000" transform="matrix(0.05 0 0 0.05 18.8388 49.2434)" font-style="normal" font-weight="bold" font-size="180px" font-family="Helvetica" >O</text><path stroke="none" fill="#000000" transform="matrix(0.05 0 0 0.05 -291 -245)" d="M 6266.65,5533.97 L 6266.63,5508.28 L 6516.17,5364.15 L 6526.24,5370.69 L 6526.87,5382.68 L 6266.65,5533.97 Z " /><path stroke="none" fill="#ff0000" transform="matrix(0.05 0 0 0.05 -291 -245)" d="M 6060.37,5414.14 L 6071.47,5394.91 L 6266.63,5508.28 L 6266.65,5533.97 L 6060.37,5414.14 Z " /><text x="0" y="0" stroke="none" fill="#ff0000" transform="matrix(0.05 0 0 0.05 1.61623 26.7734)" font-style="normal" font-weight="bold" font-size="180px" font-family="Helvetica" >Cl</text><text x="0" y="0" stroke="none" fill="#000000" transform="matrix(0.05 0 0 0.05 48.0303 8.76096)" font-style="normal" font-weight="bold" font-size="180px" font-family="Helvetica" >O</text><path stroke="none" fill="#000000" transform="matrix(0.05 0 0 0.05 -291 -245)" d="M 6526.87,5382.68 L 6526.24,5370.69 L 6537.52,5364.18 L 6797.23,5479.82 L 6802.95,5506.73 L 6526.87,5382.68 Z " /><path stroke="none" fill="#000000" transform="matrix(0.05 0 0 0.05 -291 -245)" d="M 6802.95,5506.73 L 6797.23,5479.82 L 6987.67,5268.28 L 7015.07,5271.2 L 6802.95,5506.73 Z " /><path stroke="none" fill="#000000" transform="matrix(0.05 0 0 0.05 -291 -245)" d="M 6793.93,5432.88 L 6777.43,5418.02 L 6923.94,5255.31 L 6940.44,5270.16 L 6793.93,5432.88 Z " /><path stroke="none" fill="#000000" transform="matrix(0.05 0 0 0.05 -291 -245)" d="M 7015.07,5271.2 L 6987.67,5268.28 L 6891.89,5104.13 L 6911.11,5093.03 L 7015.07,5271.2 Z " /><path stroke="none" fill="#000000" transform="matrix(0.05 0 0 0.05 -291 -245)" d="M 6756.3,5019.14 L 6760.92,5040.86 L 6567.29,5081.16 L 6546.79,5062.74 L 6756.3,5019.14 Z " /><path stroke="none" fill="#000000" transform="matrix(0.05 0 0 0.05 -291 -245)" d="M 6546.79,5062.74 L 6567.29,5081.16 L 6537.52,5364.18 L 6526.24,5370.69 L 6516.17,5364.15 L 6546.79,5062.74 Z " /><path stroke="none" fill="#000000" transform="matrix(0.05 0 0 0.05 -291 -245)" d="M 6597.5,5117.48 L 6619.58,5119.8 L 6596.69,5337.55 L 6574.61,5335.23 L 6597.5,5117.48 Z " /></svg>