<?xml version="1.0" standalone="no" ?><!DOCTYPE svg PUBLIC "-//W3C//DTD SVG 1.1//EN" "http://www.w3.org/Graphics/SVG/1.1/DTD/svg11.dtd"><svg width="53px" height="31px" viewBox="0 0 53 31" style="background-color: #ffffff00" xmlns="http://www.w3.org/2000/svg" xmlns:xlink="http://www.w3.org/1999/xlink" version="1.1" ><path stroke="none" fill="#000000" transform="matrix(0.05 0 0 0.05 -96 -319)" d="M 1966.57,6528.32 L 1988.83,6544.49 L 1988.83,6828.79 L 1966.57,6844.96 L 1966.57,6528.32 Z " /><path stroke="none" fill="#000000" transform="matrix(0.05 0 0 0.05 -96 -319)" d="M 1966.57,6844.96 L 1988.83,6828.79 L 2259.21,6916.64 L 2267.72,6942.81 L 1966.57,6844.96 Z " /><path stroke="none" fill="#000000" transform="matrix(0.05 0 0 0.05 -96 -319)" d="M 2267.72,6942.81 L 2259.21,6916.64 L 2426.32,6686.64 L 2439.33,6686.64 L 2444.95,6697.14 L 2267.72,6942.81 Z " /><path stroke="none" fill="#000000" transform="matrix(0.05 0 0 0.05 -96 -319)" d="M 2444.95,6676.14 L 2439.33,6686.64 L 2426.32,6686.64 L 2259.21,6456.64 L 2267.72,6430.47 L 2444.95,6676.14 Z " /><path stroke="none" fill="#000000" transform="matrix(0.05 0 0 0.05 -96 -319)" d="M 2267.72,6430.47 L 2259.21,6456.64 L 1988.83,6544.49 L 1966.57,6528.32 L 2267.72,6430.47 Z " /><text x="0" y="0" stroke="none" fill="#ff0000" transform="matrix(0.05 0 0 0.05 37.4465 18.5708)" font-style="normal" font-weight="bold" font-size="180px" font-family="Helvetica" >OH</text><path stroke="none" fill="#ff0000" transform="matrix(0.05 0 0 0.05 -96 -319)" d="M 2444.95,6697.14 L 2439.33,6686.64 L 2444.95,6676.14 L 2646.61,6675.54 L 2646.61,6697.74 L 2444.95,6697.14 Z " /></svg>