<?xml version="1.0" standalone="no" ?><!DOCTYPE svg PUBLIC "-//W3C//DTD SVG 1.1//EN" "http://www.w3.org/Graphics/SVG/1.1/DTD/svg11.dtd"><svg width="80px" height="30px" viewBox="0 0 80 30" style="background-color: #ffffff00" xmlns="http://www.w3.org/2000/svg" xmlns:xlink="http://www.w3.org/1999/xlink" version="1.1" ><text x="0" y="0" stroke="none" fill="#ff0000" transform="matrix(0.05 0 0 0.05 64.2004 8.7465)" font-style="normal" font-weight="bold" font-size="180px" font-family="Helvetica" >OH</text><path stroke="none" fill="#ff0000" transform="matrix(0.05 0 0 0.05 -72 -92)" d="M 2704.92,1988.78 L 2716.02,2008 L 2534.76,2113.48 L 2534.81,2087.79 L 2704.92,1988.78 Z " /><path stroke="none" fill="#000000" transform="matrix(0.05 0 0 0.05 -72 -92)" d="M 2534.81,2087.79 L 2534.76,2113.48 L 2275.09,1962.45 L 2275.09,1936.76 L 2534.81,2087.79 Z " /><path stroke="none" fill="#000000" transform="matrix(0.05 0 0 0.05 -72 -92)" d="M 2275.09,1936.76 L 2275.09,1962.45 L 2026.27,2106.1 L 2015.63,2099.95 L 2015.63,2087.66 L 2275.09,1936.76 Z " /><path stroke="none" fill="#000000" transform="matrix(0.05 0 0 0.05 -72 -92)" d="M 2015.63,2087.66 L 2015.63,2099.95 L 2004.98,2106.1 L 1756.17,1962.45 L 1756.17,1936.76 L 2015.63,2087.66 Z " /><path stroke="none" fill="#000000" transform="matrix(0.05 0 0 0.05 -72 -92)" d="M 1756.17,1936.76 L 1756.17,1962.45 L 1502.26,2109.57 L 1491.16,2090.34 L 1756.17,1936.76 Z " /><path stroke="none" fill="#000000" transform="matrix(0.05 0 0 0.05 -72 -92)" d="M 2004.98,2106.1 L 2015.63,2099.95 L 2026.27,2106.1 L 2026.73,2399.55 L 2004.53,2399.55 L 2004.98,2106.1 Z " /></svg>