<?xml version="1.0" standalone="no" ?><!DOCTYPE svg PUBLIC "-//W3C//DTD SVG 1.1//EN" "http://www.w3.org/Graphics/SVG/1.1/DTD/svg11.dtd"><svg width="66px" height="28px" viewBox="0 0 66 28" style="background-color: #ffffff00" xmlns="http://www.w3.org/2000/svg" xmlns:xlink="http://www.w3.org/1999/xlink" version="1.1" ><text x="0" y="0" stroke="none" fill="#ff0000" transform="matrix(0.05 0 0 0.05 1.58023 13.7827)" font-style="normal" font-weight="bold" font-size="180px" font-family="Helvetica" >HO</text><path stroke="none" fill="#ff0000" transform="matrix(0.05 0 0 0.05 -75 -112)" d="M 1820.56,2412.34 L 1809.46,2393.11 L 1990.86,2287.55 L 1990.81,2313.25 L 1820.56,2412.34 Z " /><path stroke="none" fill="#000000" transform="matrix(0.05 0 0 0.05 -75 -112)" d="M 1990.81,2313.25 L 1990.86,2287.55 L 2250.52,2438.59 L 2250.52,2450.88 L 2239.88,2457.03 L 1990.81,2313.25 Z " /><path stroke="none" fill="#000000" transform="matrix(0.05 0 0 0.05 -75 -112)" d="M 2261.17,2457.03 L 2250.52,2450.88 L 2250.52,2438.59 L 2509.98,2287.69 L 2509.98,2313.37 L 2261.17,2457.03 Z " /><path stroke="none" fill="#000000" transform="matrix(0.05 0 0 0.05 -75 -112)" d="M 2311.57,2492.53 L 2300.47,2473.31 L 2504.43,2355.55 L 2515.53,2374.78 L 2311.57,2492.53 Z " /><path stroke="none" fill="#000000" transform="matrix(0.05 0 0 0.05 -75 -112)" d="M 2509.98,2313.37 L 2509.98,2287.69 L 2774.99,2441.27 L 2763.89,2460.49 L 2509.98,2313.37 Z " /><path stroke="none" fill="#000000" transform="matrix(0.05 0 0 0.05 -75 -112)" d="M 2239.88,2457.03 L 2250.52,2450.88 L 2261.17,2457.03 L 2261.62,2750.48 L 2239.42,2750.48 L 2239.88,2457.03 Z " /></svg>