<?xml version="1.0" standalone="no" ?><!DOCTYPE svg PUBLIC "-//W3C//DTD SVG 1.1//EN" "http://www.w3.org/Graphics/SVG/1.1/DTD/svg11.dtd"><svg width="80px" height="57px" viewBox="0 0 80 57" style="background-color: #ffffff00" xmlns="http://www.w3.org/2000/svg" xmlns:xlink="http://www.w3.org/1999/xlink" version="1.1" ><path stroke="none" fill="#000000" transform="matrix(0.05 0 0 0.05 -101 -366)" d="M 2460.48,7901.49 L 2471.14,7895.48 L 2481.78,7901.63 L 2481.78,8188.93 L 2471.14,8195.08 L 2460.47,8189.26 L 2460.48,7901.49 Z " /><path stroke="none" fill="#000000" transform="matrix(0.05 0 0 0.05 -101 -366)" d="M 2470.85,8207.23 L 2471.14,8195.08 L 2481.78,8188.93 L 2730.6,8332.59 L 2730.6,8358.27 L 2470.85,8207.23 Z " /><path stroke="none" fill="#000000" transform="matrix(0.05 0 0 0.05 -101 -366)" d="M 2521.09,8172.65 L 2532.19,8153.42 L 2736.15,8271.18 L 2725.05,8290.41 L 2521.09,8172.65 Z " /><path stroke="none" fill="#000000" transform="matrix(0.05 0 0 0.05 -101 -366)" d="M 2730.6,8358.27 L 2730.6,8332.59 L 2979.42,8188.93 L 3001.66,8201.77 L 2730.6,8358.27 Z " /><path stroke="none" fill="#000000" transform="matrix(0.05 0 0 0.05 -101 -366)" d="M 3001.66,8201.77 L 2979.42,8188.93 L 2979.42,7901.63 L 2990.06,7895.48 L 3000.71,7901.63 L 3001.66,8201.77 Z " /><path stroke="none" fill="#000000" transform="matrix(0.05 0 0 0.05 -101 -366)" d="M 2945.66,8163.04 L 2923.46,8163.04 L 2923.46,7927.52 L 2945.66,7927.52 L 2945.66,8163.04 Z " /><path stroke="none" fill="#000000" transform="matrix(0.05 0 0 0.05 -101 -366)" d="M 2990.06,7883.19 L 2990.06,7895.48 L 2979.42,7901.63 L 2730.6,7757.97 L 2730.6,7732.29 L 2990.06,7883.19 Z " /><path stroke="none" fill="#000000" transform="matrix(0.05 0 0 0.05 -101 -366)" d="M 2730.6,7732.29 L 2730.6,7757.97 L 2481.78,7901.63 L 2471.14,7895.48 L 2471.02,7883.25 L 2730.6,7732.29 Z " /><path stroke="none" fill="#000000" transform="matrix(0.05 0 0 0.05 -101 -366)" d="M 2725.05,7800.15 L 2736.15,7819.38 L 2532.19,7937.14 L 2521.09,7917.91 L 2725.05,7800.15 Z " /><path stroke="none" fill="#000000" transform="matrix(0.05 0 0 0.05 -101 -366)" d="M 3000.71,7901.63 L 2990.06,7895.48 L 2990.06,7883.19 L 3249.77,7732.12 L 3249.83,7757.82 L 3000.71,7901.63 Z " /><text x="0" y="0" stroke="none" fill="#ff0000" transform="matrix(0.05 0 0 0.05 71.1994 32.0128)" font-style="normal" font-weight="bold" font-size="180px" font-family="Helvetica" >H</text><path stroke="none" fill="#ff0000" transform="matrix(0.05 0 0 0.05 -101 -366)" d="M 3249.83,7757.82 L 3249.77,7732.12 L 3420.55,7831.61 L 3409.45,7850.83 L 3249.83,7757.82 Z " /><text x="0" y="0" stroke="none" fill="#ff0000" transform="matrix(0.05 0 0 0.05 57.9759 9.54277)" font-style="normal" font-weight="bold" font-size="180px" font-family="Helvetica" >O</text><path stroke="none" fill="#ff0000" transform="matrix(0.05 0 0 0.05 -101 -366)" d="M 3232.87,7761.7 L 3210.67,7761.7 L 3210.67,7546.53 L 3232.87,7546.53 L 3232.87,7761.7 Z " /><path stroke="none" fill="#ff0000" transform="matrix(0.05 0 0 0.05 -101 -366)" d="M 3288.37,7761.7 L 3266.17,7761.7 L 3266.17,7546.53 L 3288.37,7546.53 L 3288.37,7761.7 Z " /><text x="0" y="0" stroke="none" fill="#000000" transform="matrix(0.05 0 0 0.05 6.8351 54.4828)" font-style="normal" font-weight="bold" font-size="180px" font-family="Helvetica" >F</text><path stroke="none" fill="#000000" transform="matrix(0.05 0 0 0.05 -101 -366)" d="M 2460.47,8189.26 L 2471.14,8195.08 L 2470.85,8207.23 L 2308.69,8301.68 L 2297.59,8282.46 L 2460.47,8189.26 Z " /><text x="0" y="0" stroke="none" fill="#000000" transform="matrix(0.05 0 0 0.05 1.33315 24.5228)" font-style="normal" font-weight="bold" font-size="180px" font-family="Helvetica" >Br</text><path stroke="none" fill="#000000" transform="matrix(0.05 0 0 0.05 -101 -366)" d="M 2471.02,7883.25 L 2471.14,7895.48 L 2460.48,7901.49 L 2254.02,7782.94 L 2265.12,7763.72 L 2471.02,7883.25 Z " /></svg>