<?xml version="1.0" standalone="no" ?><!DOCTYPE svg PUBLIC "-//W3C//DTD SVG 1.1//EN" "http://www.w3.org/Graphics/SVG/1.1/DTD/svg11.dtd"><svg width="73px" height="34px" viewBox="0 0 73 34" style="background-color: #ffffff00" xmlns="http://www.w3.org/2000/svg" xmlns:xlink="http://www.w3.org/1999/xlink" version="1.1" ><text x="0" y="0" stroke="none" fill="#ff0000" transform="matrix(0.05 0 0 0.05 64.1989 9.1638)" font-style="normal" font-weight="bold" font-size="180px" font-family="Helvetica" >H</text><path stroke="none" fill="#ff0000" transform="matrix(0.05 0 0 0.05 -81 -54)" d="M 2870.11,1242.76 L 2881.21,1261.99 L 2709.75,1361.86 L 2709.81,1336.16 L 2870.11,1242.76 Z " /><path stroke="none" fill="#000000" transform="matrix(0.05 0 0 0.05 -81 -54)" d="M 2709.81,1336.16 L 2709.75,1361.86 L 2450.05,1210.79 L 2450.05,1185.11 L 2709.81,1336.16 Z " /><path stroke="none" fill="#000000" transform="matrix(0.05 0 0 0.05 -81 -54)" d="M 2450.05,1185.11 L 2450.05,1210.79 L 2201.23,1354.45 L 2190.59,1348.3 L 2190.59,1336.01 L 2450.05,1185.11 Z " /><path stroke="none" fill="#000000" transform="matrix(0.05 0 0 0.05 -81 -54)" d="M 2190.59,1336.01 L 2190.59,1348.3 L 2179.94,1354.45 L 1931.13,1210.79 L 1931.13,1185.11 L 2190.59,1336.01 Z " /><path stroke="none" fill="#000000" transform="matrix(0.05 0 0 0.05 -81 -54)" d="M 1931.13,1185.11 L 1931.13,1210.79 L 1677.22,1357.91 L 1666.12,1338.69 L 1931.13,1185.11 Z " /><text x="0" y="0" stroke="none" fill="#ff0000" transform="matrix(0.05 0 0 0.05 50.9753 31.6338)" font-style="normal" font-weight="bold" font-size="180px" font-family="Helvetica" >O</text><path stroke="none" fill="#ff0000" transform="matrix(0.05 0 0 0.05 -81 -54)" d="M 2726.16,1332.28 L 2748.36,1332.28 L 2748.36,1549.95 L 2726.16,1549.95 L 2726.16,1332.28 Z " /><path stroke="none" fill="#ff0000" transform="matrix(0.05 0 0 0.05 -81 -54)" d="M 2670.66,1332.28 L 2692.86,1332.28 L 2692.86,1549.95 L 2670.66,1549.95 L 2670.66,1332.28 Z " /><path stroke="none" fill="#000000" transform="matrix(0.05 0 0 0.05 -81 -54)" d="M 2179.94,1354.45 L 2190.59,1348.3 L 2201.23,1354.45 L 2201.69,1647.9 L 2179.49,1647.9 L 2179.94,1354.45 Z " /></svg>