<?xml version="1.0" standalone="no" ?><!DOCTYPE svg PUBLIC "-//W3C//DTD SVG 1.1//EN" "http://www.w3.org/Graphics/SVG/1.1/DTD/svg11.dtd"><svg width="57px" height="38px" viewBox="0 0 57 38" style="background-color: #ffffff00" xmlns="http://www.w3.org/2000/svg" xmlns:xlink="http://www.w3.org/1999/xlink" version="1.1" ><path stroke="none" fill="#000000" transform="matrix(0.05 0 0 0.05 -75 -110)" d="M 2011.98,2372.51 L 2034.25,2356.33 L 2033.23,2658.67 L 2022.52,2663.85 L 2011.98,2656.2 L 2011.98,2372.51 Z " /><path stroke="none" fill="#000000" transform="matrix(0.05 0 0 0.05 -75 -110)" d="M 1742.17,2284.84 L 1733.67,2258.67 L 2034.25,2356.33 L 2011.98,2372.51 L 1742.17,2284.84 Z " /><path stroke="none" fill="#000000" transform="matrix(0.05 0 0 0.05 -75 -110)" d="M 1575.42,2514.35 L 1547.9,2514.35 L 1733.67,2258.67 L 1742.17,2284.84 L 1575.42,2514.35 Z " /><text x="0" y="0" stroke="none" fill="#ff0000" transform="matrix(0.05 0 0 0.05 34.9708 35.2189)" font-style="normal" font-weight="bold" font-size="180px" font-family="Helvetica" >CHO</text><path stroke="none" fill="#000000" transform="matrix(0.05 0 0 0.05 -75 -110)" d="M 2196.01,2776.18 L 2182.96,2794.14 L 2020.89,2675.65 L 2022.52,2663.85 L 2033.23,2658.67 L 2196.01,2776.18 Z " /><path stroke="none" fill="#000000" transform="matrix(0.05 0 0 0.05 -75 -110)" d="M 2011.98,2656.2 L 2022.52,2663.85 L 2020.89,2675.65 L 1733.67,2770.04 L 1742.17,2743.87 L 2011.98,2656.2 Z " /><path stroke="none" fill="#000000" transform="matrix(0.05 0 0 0.05 -75 -110)" d="M 1742.17,2743.87 L 1733.67,2770.04 L 1547.9,2514.35 L 1575.42,2514.35 L 1742.17,2743.87 Z " /></svg>