<?xml version="1.0" standalone="no" ?><!DOCTYPE svg PUBLIC "-//W3C//DTD SVG 1.1//EN" "http://www.w3.org/Graphics/SVG/1.1/DTD/svg11.dtd"><svg width="45px" height="36px" viewBox="0 0 45 36" style="background-color: #ffffff00" xmlns="http://www.w3.org/2000/svg" xmlns:xlink="http://www.w3.org/1999/xlink" version="1.1" ><path stroke="none" fill="#ff0000" transform="matrix(0.05 0 0 0.05 -100 -446)" d="M 2059.94,9127.54 L 2082.18,9140.39 L 2082.18,9427.69 L 2059.94,9440.53 L 2059.94,9127.54 Z " /><path stroke="none" fill="#ff0000" transform="matrix(0.05 0 0 0.05 -100 -446)" d="M 2059.94,9440.53 L 2082.18,9427.69 L 2331,9571.35 L 2331,9597.03 L 2059.94,9440.53 Z " /><path stroke="none" fill="#ff0000" transform="matrix(0.05 0 0 0.05 -100 -446)" d="M 2331,9597.03 L 2331,9571.35 L 2579.82,9427.69 L 2590.46,9433.84 L 2590.46,9446.13 L 2331,9597.03 Z " /><path stroke="none" fill="#ff0000" transform="matrix(0.05 0 0 0.05 -100 -446)" d="M 2601.11,9427.69 L 2590.46,9433.84 L 2579.82,9427.69 L 2579.36,9134.24 L 2601.56,9134.24 L 2601.11,9427.69 Z " /><path stroke="none" fill="#ff0000" transform="matrix(0.05 0 0 0.05 -100 -446)" d="M 2325.45,8974.83 L 2336.55,8994.05 L 2082.18,9140.39 L 2059.94,9127.54 L 2325.45,8974.83 Z " /><path stroke="none" fill="#ff0000" transform="matrix(0.05 0 0 0.05 -100 -446)" d="M 2590.46,9446.13 L 2590.46,9433.84 L 2601.11,9427.69 L 2855.47,9574.03 L 2844.37,9593.25 L 2590.46,9446.13 Z " /></svg>