<?xml version="1.0" standalone="no" ?><!DOCTYPE svg PUBLIC "-//W3C//DTD SVG 1.1//EN" "http://www.w3.org/Graphics/SVG/1.1/DTD/svg11.dtd"><svg width="57px" height="28px" viewBox="0 0 57 28" style="background-color: #ffffff00" xmlns="http://www.w3.org/2000/svg" xmlns:xlink="http://www.w3.org/1999/xlink" version="1.1" ><path stroke="none" fill="#ff0000" transform="matrix(0.05 0 0 0.05 -64 -51)" d="M 1580.92,1075.64 L 1603.12,1075.64 L 1602.66,1369.09 L 1592.02,1375.24 L 1581.37,1369.09 L 1580.92,1075.64 Z " /><path stroke="none" fill="#ff0000" transform="matrix(0.05 0 0 0.05 -64 -51)" d="M 1592.02,1387.53 L 1592.02,1375.24 L 1602.66,1369.09 L 1851.48,1512.75 L 1851.48,1538.43 L 1592.02,1387.53 Z " /><path stroke="none" fill="#ff0000" transform="matrix(0.05 0 0 0.05 -64 -51)" d="M 1851.48,1538.43 L 1851.48,1512.75 L 2100.3,1369.09 L 2110.94,1375.24 L 2110.94,1387.53 L 1851.48,1538.43 Z " /><path stroke="none" fill="#ff0000" transform="matrix(0.05 0 0 0.05 -64 -51)" d="M 2121.59,1369.09 L 2110.94,1375.24 L 2100.3,1369.09 L 2099.84,1075.64 L 2122.04,1075.64 L 2121.59,1369.09 Z " /><path stroke="none" fill="#ff0000" transform="matrix(0.05 0 0 0.05 -64 -51)" d="M 2110.94,1387.53 L 2110.94,1375.24 L 2121.59,1369.09 L 2375.95,1515.43 L 2364.85,1534.65 L 2110.94,1387.53 Z " /><path stroke="none" fill="#ff0000" transform="matrix(0.05 0 0 0.05 -64 -51)" d="M 1581.37,1369.09 L 1592.02,1375.24 L 1592.02,1387.53 L 1338.11,1534.65 L 1327.01,1515.43 L 1581.37,1369.09 Z " /></svg>