<?xml version="1.0" standalone="no" ?><!DOCTYPE svg PUBLIC "-//W3C//DTD SVG 1.1//EN" "http://www.w3.org/Graphics/SVG/1.1/DTD/svg11.dtd"><svg width="46px" height="37px" viewBox="0 0 46 37" style="background-color: #ffffff00" xmlns="http://www.w3.org/2000/svg" xmlns:xlink="http://www.w3.org/1999/xlink" version="1.1" ><path stroke="none" fill="#ff0000" transform="matrix(0.05 0 0 0.05 -101 -510)" d="M 2374.35,10719 L 2385.45,10738.2 L 2112.11,10896 L 2101.01,10876.8 L 2374.35,10719 Z " /><path stroke="none" fill="#ff0000" transform="matrix(0.05 0 0 0.05 -101 -510)" d="M 2346.6,10670.9 L 2357.7,10690.1 L 2084.36,10847.9 L 2073.26,10828.7 L 2346.6,10670.9 Z " /><path stroke="none" fill="#000000" transform="matrix(0.05 0 0 0.05 -101 -510)" d="M 2606.06,10272.8 L 2617.16,10253.5 L 2882.67,10406.3 L 2860.43,10419.1 L 2606.06,10272.8 Z " /><path stroke="none" fill="#000000" transform="matrix(0.05 0 0 0.05 -101 -510)" d="M 2362.79,10706.4 L 2340.55,10719.3 L 2341.05,10413 L 2363.25,10413 L 2362.79,10706.4 Z " /><path stroke="none" fill="#000000" transform="matrix(0.05 0 0 0.05 -101 -510)" d="M 2611.61,10850.1 L 2611.61,10875.7 L 2340.55,10719.3 L 2362.79,10706.4 L 2611.61,10850.1 Z " /><path stroke="none" fill="#000000" transform="matrix(0.05 0 0 0.05 -101 -510)" d="M 2860.43,10706.4 L 2882.67,10719.3 L 2611.61,10875.7 L 2611.61,10850.1 L 2860.43,10706.4 Z " /><path stroke="none" fill="#000000" transform="matrix(0.05 0 0 0.05 -101 -510)" d="M 2860.43,10419.1 L 2882.67,10406.3 L 2882.67,10719.3 L 2860.43,10706.4 L 2860.43,10419.1 Z " /></svg>