<?xml version="1.0" standalone="no" ?><!DOCTYPE svg PUBLIC "-//W3C//DTD SVG 1.1//EN" "http://www.w3.org/Graphics/SVG/1.1/DTD/svg11.dtd"><svg width="55px" height="35px" viewBox="0 0 55 35" style="background-color: #ffffff00" xmlns="http://www.w3.org/2000/svg" xmlns:xlink="http://www.w3.org/1999/xlink" version="1.1" ><path stroke="none" fill="#ff0000" transform="matrix(0.05 0 0 0.05 -212 -511)" d="M 4750.36,10276.2 L 4758.87,10302.4 L 4592.7,10531.1 L 4579.69,10531.1 L 4574.24,10520.4 L 4750.36,10276.2 Z " /><path stroke="none" fill="#ff0000" transform="matrix(0.05 0 0 0.05 -212 -511)" d="M 4767.07,10348.7 L 4785.03,10361.8 L 4657.27,10537.6 L 4639.31,10524.6 L 4767.07,10348.7 Z " /><path stroke="none" fill="#000000" transform="matrix(0.05 0 0 0.05 -212 -511)" d="M 4574.24,10541.8 L 4579.69,10531.1 L 4592.7,10531.1 L 4758.87,10759.8 L 4750.36,10786 L 4574.24,10541.8 Z " /><path stroke="none" fill="#000000" transform="matrix(0.05 0 0 0.05 -212 -511)" d="M 4750.36,10786 L 4758.87,10759.8 L 5027.73,10672.4 L 5038.26,10680.1 L 5036.38,10692 L 4750.36,10786 Z " /><path stroke="none" fill="#000000" transform="matrix(0.05 0 0 0.05 -212 -511)" d="M 5048.96,10674.7 L 5038.26,10680.1 L 5027.73,10672.4 L 5027.73,10389.8 L 5050,10373.6 L 5048.96,10674.7 Z " /><path stroke="none" fill="#000000" transform="matrix(0.05 0 0 0.05 -212 -511)" d="M 5036.38,10692 L 5038.26,10680.1 L 5048.96,10674.7 L 5285.87,10846.3 L 5272.82,10864.2 L 5036.38,10692 Z " /><path stroke="none" fill="#000000" transform="matrix(0.05 0 0 0.05 -212 -511)" d="M 4574.24,10520.4 L 4579.69,10531.1 L 4574.24,10541.8 L 4281.69,10542.2 L 4281.69,10520 L 4574.24,10520.4 Z " /><path stroke="none" fill="#000000" transform="matrix(0.05 0 0 0.05 -212 -511)" d="M 4758.87,10302.4 L 4750.36,10276.2 L 5050,10373.6 L 5027.73,10389.8 L 4758.87,10302.4 Z " /></svg>