<?xml version="1.0" standalone="no" ?><!DOCTYPE svg PUBLIC "-//W3C//DTD SVG 1.1//EN" "http://www.w3.org/Graphics/SVG/1.1/DTD/svg11.dtd"><svg width="29px" height="32px" viewBox="0 0 29 32" style="background-color: #ffffff00" xmlns="http://www.w3.org/2000/svg" xmlns:xlink="http://www.w3.org/1999/xlink" version="1.1" ><path stroke="none" fill="#000000" transform="matrix(0.05 0 0 0.05 -310 -512)" d="M 6690.35,10290.8 L 6709.57,10301.9 L 6556.85,10567.4 L 6544.01,10545.2 L 6690.35,10290.8 Z " /><path stroke="none" fill="#ff0000" transform="matrix(0.05 0 0 0.05 -310 -512)" d="M 6556.57,10533.6 L 6575.79,10522.5 L 6733.6,10795.9 L 6714.38,10807 L 6556.57,10533.6 Z " /><path stroke="none" fill="#ff0000" transform="matrix(0.05 0 0 0.05 -310 -512)" d="M 6508.5,10561.4 L 6527.73,10550.3 L 6685.54,10823.6 L 6666.31,10834.7 L 6508.5,10561.4 Z " /><path stroke="none" fill="#000000" transform="matrix(0.05 0 0 0.05 -310 -512)" d="M 6544.01,10545.2 L 6556.85,10567.4 L 6250.56,10566.9 L 6250.56,10544.7 L 6544.01,10545.2 Z " /></svg>