<?xml version="1.0" standalone="no" ?><!DOCTYPE svg PUBLIC "-//W3C//DTD SVG 1.1//EN" "http://www.w3.org/Graphics/SVG/1.1/DTD/svg11.dtd"><svg width="59px" height="46px" viewBox="0 0 59 46" style="background-color: #ffffff00" xmlns="http://www.w3.org/2000/svg" xmlns:xlink="http://www.w3.org/1999/xlink" version="1.1" ><path stroke="none" fill="#000000" transform="matrix(0.05 0 0 0.05 -93 -571)" d="M 1913.42,11818.2 L 1935.66,11831 L 1935.66,12118.3 L 1913.42,12131.2 L 1913.42,11818.2 Z " /><path stroke="none" fill="#000000" transform="matrix(0.05 0 0 0.05 -93 -571)" d="M 1969.42,11856.9 L 1991.62,11856.9 L 1991.62,12092.4 L 1969.42,12092.4 L 1969.42,11856.9 Z " /><path stroke="none" fill="#000000" transform="matrix(0.05 0 0 0.05 -93 -571)" d="M 1913.42,12131.2 L 1935.66,12118.3 L 2184.48,12262 L 2184.48,12287.7 L 1913.42,12131.2 Z " /><path stroke="none" fill="#000000" transform="matrix(0.05 0 0 0.05 -93 -571)" d="M 2184.48,12287.7 L 2184.48,12262 L 2433.3,12118.3 L 2455.54,12131.2 L 2184.48,12287.7 Z " /><path stroke="none" fill="#000000" transform="matrix(0.05 0 0 0.05 -93 -571)" d="M 2190.03,12219.8 L 2178.93,12200.6 L 2382.89,12082.8 L 2393.99,12102 L 2190.03,12219.8 Z " /><path stroke="none" fill="#000000" transform="matrix(0.05 0 0 0.05 -93 -571)" d="M 2455.54,12131.2 L 2433.3,12118.3 L 2433.3,11831 L 2443.94,11824.9 L 2454.59,11831 L 2455.54,12131.2 Z " /><path stroke="none" fill="#000000" transform="matrix(0.05 0 0 0.05 -93 -571)" d="M 2443.94,11812.6 L 2443.94,11824.9 L 2433.3,11831 L 2184.48,11687.4 L 2184.48,11661.7 L 2443.94,11812.6 Z " /><path stroke="none" fill="#000000" transform="matrix(0.05 0 0 0.05 -93 -571)" d="M 2393.99,11847.3 L 2382.89,11866.5 L 2178.93,11748.8 L 2190.03,11729.6 L 2393.99,11847.3 Z " /><path stroke="none" fill="#000000" transform="matrix(0.05 0 0 0.05 -93 -571)" d="M 2184.48,11661.7 L 2184.48,11687.4 L 1935.66,11831 L 1913.42,11818.2 L 2184.48,11661.7 Z " /><path stroke="none" fill="#000000" transform="matrix(0.05 0 0 0.05 -93 -571)" d="M 2454.59,11831 L 2443.94,11824.9 L 2443.94,11812.6 L 2697.85,11665.5 L 2708.95,11684.7 L 2454.59,11831 Z " /><path stroke="none" fill="#ff0000" transform="matrix(0.05 0 0 0.05 -93 -571)" d="M 2681.2,11636.6 L 2670.1,11617.4 L 2929.56,11467.6 L 2940.66,11486.8 L 2681.2,11636.6 Z " /><path stroke="none" fill="#ff0000" transform="matrix(0.05 0 0 0.05 -93 -571)" d="M 2708.95,11684.7 L 2697.85,11665.5 L 2957.31,11515.7 L 2968.41,11534.9 L 2708.95,11684.7 Z " /><path stroke="none" fill="#ff0000" transform="matrix(0.05 0 0 0.05 -93 -571)" d="M 2736.7,11732.8 L 2725.6,11713.5 L 2985.06,11563.7 L 2996.16,11583 L 2736.7,11732.8 Z " /></svg>