<?xml version="1.0" standalone="no" ?><!DOCTYPE svg PUBLIC "-//W3C//DTD SVG 1.1//EN" "http://www.w3.org/Graphics/SVG/1.1/DTD/svg11.dtd"><svg width="53px" height="12px" viewBox="0 0 53 12" style="background-color: #ffffff00" xmlns="http://www.w3.org/2000/svg" xmlns:xlink="http://www.w3.org/1999/xlink" version="1.1" ><path stroke="none" fill="#000000" transform="matrix(0.05 0 0 0.05 -208 -585)" d="M 5166.01,11802.6 L 5166.01,11824.8 L 4867.01,11824.8 L 4867.01,11802.6 L 5166.01,11802.6 Z " /><path stroke="none" fill="#ff0000" transform="matrix(0.05 0 0 0.05 -208 -585)" d="M 4867.01,11858.1 L 4867.01,11880.3 L 4568.01,11880.3 L 4568.01,11858.1 L 4867.01,11858.1 Z " /><path stroke="none" fill="#ff0000" transform="matrix(0.05 0 0 0.05 -208 -585)" d="M 4867.01,11802.6 L 4867.01,11824.8 L 4568.01,11824.8 L 4568.01,11802.6 L 4867.01,11802.6 Z " /><path stroke="none" fill="#ff0000" transform="matrix(0.05 0 0 0.05 -208 -585)" d="M 4867.01,11747.1 L 4867.01,11769.3 L 4568.01,11769.3 L 4568.01,11747.1 L 4867.01,11747.1 Z " /><text x="0" y="0" stroke="none" fill="#000000" transform="matrix(0.05 0 0 0.05 2.17068 8.92264)" font-style="normal" font-weight="bold" font-size="180px" font-family="Helvetica" >H</text><path stroke="none" fill="#000000" transform="matrix(0.05 0 0 0.05 -208 -585)" d="M 4568.01,11802.6 L 4568.01,11824.8 L 4352.15,11824.8 L 4352.15,11802.6 L 4568.01,11802.6 Z " /></svg>