<?xml version="1.0" standalone="no" ?><!DOCTYPE svg PUBLIC "-//W3C//DTD SVG 1.1//EN" "http://www.w3.org/Graphics/SVG/1.1/DTD/svg11.dtd"><svg width="70px" height="57px" viewBox="0 0 70 57" style="background-color: #ffffff00" xmlns="http://www.w3.org/2000/svg" xmlns:xlink="http://www.w3.org/1999/xlink" version="1.1" ><path stroke="none" fill="#ff0000" transform="matrix(0.05 0 0 0.05 -285 -565)" d="M 6289.61,11754.9 L 6300.71,11735.7 L 6559.65,11885.2 L 6548.55,11904.4 L 6289.61,11754.9 Z " /><path stroke="none" fill="#ff0000" transform="matrix(0.05 0 0 0.05 -285 -565)" d="M 6261.86,11803 L 6272.96,11783.8 L 6531.9,11933.3 L 6520.8,11952.5 L 6261.86,11803 Z " /><path stroke="none" fill="#ff0000" transform="matrix(0.05 0 0 0.05 -285 -565)" d="M 6234.11,11851 L 6245.21,11831.8 L 6504.15,11981.3 L 6493.05,12000.5 L 6234.11,11851 Z " /><path stroke="none" fill="#000000" transform="matrix(0.05 0 0 0.05 -285 -565)" d="M 6272.96,11783.8 L 6261.86,11803 L 6008.47,11656.2 L 6008.47,11643.9 L 6019.11,11637.7 L 6272.96,11783.8 Z " /><path stroke="none" fill="#000000" transform="matrix(0.05 0 0 0.05 -285 -565)" d="M 6520.8,11952.5 L 6531.9,11933.3 L 6785.29,12080.1 L 6785.29,12092.4 L 6774.65,12098.5 L 6520.8,11952.5 Z " /><path stroke="none" fill="#000000" transform="matrix(0.05 0 0 0.05 -285 -565)" d="M 5997.82,11637.7 L 6008.47,11643.9 L 6008.47,11656.2 L 5755.08,11803 L 5743.98,11783.8 L 5997.82,11637.7 Z " /><path stroke="none" fill="#000000" transform="matrix(0.05 0 0 0.05 -285 -565)" d="M 6019.11,11637.7 L 6008.47,11643.9 L 5997.82,11637.7 L 5997.37,11344.9 L 6019.57,11344.9 L 6019.11,11637.7 Z " /><path stroke="none" fill="#000000" transform="matrix(0.05 0 0 0.05 -285 -565)" d="M 6795.94,12098.5 L 6785.29,12092.4 L 6785.29,12080.1 L 7038.68,11933.3 L 7049.78,11952.5 L 6795.94,12098.5 Z " /><path stroke="none" fill="#000000" transform="matrix(0.05 0 0 0.05 -285 -565)" d="M 6774.65,12098.5 L 6785.29,12092.4 L 6795.94,12098.5 L 6796.39,12391.4 L 6774.19,12391.4 L 6774.65,12098.5 Z " /></svg>