<?xml version="1.0" standalone="no" ?><!DOCTYPE svg PUBLIC "-//W3C//DTD SVG 1.1//EN" "http://www.w3.org/Graphics/SVG/1.1/DTD/svg11.dtd"><svg width="41px" height="54px" viewBox="0 0 41 54" style="background-color: #ffffff00" xmlns="http://www.w3.org/2000/svg" xmlns:xlink="http://www.w3.org/1999/xlink" version="1.1" ><text x="0" y="0" stroke="none" fill="#ff0000" transform="matrix(0.05 0 0 0.05 26.2633 31.7448)" font-style="normal" font-weight="bold" font-size="180px" font-family="Helvetica" >NH</text><path stroke="none" fill="#000000" transform="matrix(0.05 0 0 0.05 -110 -634)" d="M 2259.74,13243.4 L 2281.98,13256.3 L 2281.98,13543.6 L 2259.74,13556.4 L 2259.74,13243.4 Z " /><path stroke="none" fill="#000000" transform="matrix(0.05 0 0 0.05 -110 -634)" d="M 2259.74,13556.4 L 2281.98,13543.6 L 2530.8,13687.2 L 2530.8,13712.9 L 2259.74,13556.4 Z " /><path stroke="none" fill="#000000" transform="matrix(0.05 0 0 0.05 -110 -634)" d="M 2530.8,13712.9 L 2530.8,13687.2 L 2779.84,13543.4 L 2802.07,13556.3 L 2530.8,13712.9 Z " /><path stroke="none" fill="#ff0000" transform="matrix(0.05 0 0 0.05 -110 -634)" d="M 2802.07,13556.3 L 2779.84,13543.4 L 2779.16,13344.5 L 2801.36,13344.5 L 2802.07,13556.3 Z " /><path stroke="none" fill="#ff0000" transform="matrix(0.05 0 0 0.05 -110 -634)" d="M 2702.07,13186.4 L 2690.97,13205.6 L 2531.1,13112.5 L 2531.04,13086.8 L 2702.07,13186.4 Z " /><path stroke="none" fill="#000000" transform="matrix(0.05 0 0 0.05 -110 -634)" d="M 2531.04,13086.8 L 2531.1,13112.5 L 2281.98,13256.3 L 2259.74,13243.4 L 2531.04,13086.8 Z " /><text x="0" y="0" stroke="none" fill="#ff0000" transform="matrix(0.05 0 0 0.05 13.0397 9.27477)" font-style="normal" font-weight="bold" font-size="180px" font-family="Helvetica" >O</text><path stroke="none" fill="#ff0000" transform="matrix(0.05 0 0 0.05 -110 -634)" d="M 2514.15,13116.3 L 2491.95,13116.3 L 2491.95,12901.2 L 2514.15,12901.2 L 2514.15,13116.3 Z " /><path stroke="none" fill="#ff0000" transform="matrix(0.05 0 0 0.05 -110 -634)" d="M 2569.65,13116.3 L 2547.45,13116.3 L 2547.45,12901.2 L 2569.65,12901.2 L 2569.65,13116.3 Z " /></svg>