<?xml version="1.0" standalone="no" ?><!DOCTYPE svg PUBLIC "-//W3C//DTD SVG 1.1//EN" "http://www.w3.org/Graphics/SVG/1.1/DTD/svg11.dtd"><svg width="70px" height="54px" viewBox="0 0 70 54" style="background-color: #ffffff00" xmlns="http://www.w3.org/2000/svg" xmlns:xlink="http://www.w3.org/1999/xlink" version="1.1" ><path stroke="none" fill="#000000" transform="matrix(0.05 0 0 0.05 -202 -642)" d="M 4084.58,13043.6 L 4106.82,13056.5 L 4106.82,13343.8 L 4084.58,13356.6 L 4084.58,13043.6 Z " /><path stroke="none" fill="#000000" transform="matrix(0.05 0 0 0.05 -202 -642)" d="M 4140.58,13082.4 L 4162.78,13082.4 L 4162.78,13317.9 L 4140.58,13317.9 L 4140.58,13082.4 Z " /><path stroke="none" fill="#000000" transform="matrix(0.05 0 0 0.05 -202 -642)" d="M 4084.58,13356.6 L 4106.82,13343.8 L 4355.64,13487.4 L 4355.64,13513.1 L 4084.58,13356.6 Z " /><path stroke="none" fill="#000000" transform="matrix(0.05 0 0 0.05 -202 -642)" d="M 4355.64,13513.1 L 4355.64,13487.4 L 4604.46,13343.8 L 4615.1,13349.9 L 4615.1,13362.2 L 4355.64,13513.1 Z " /><path stroke="none" fill="#000000" transform="matrix(0.05 0 0 0.05 -202 -642)" d="M 4361.19,13445.2 L 4350.09,13426 L 4554.05,13308.3 L 4565.15,13327.5 L 4361.19,13445.2 Z " /><path stroke="none" fill="#000000" transform="matrix(0.05 0 0 0.05 -202 -642)" d="M 4625.75,13343.8 L 4615.1,13349.9 L 4604.46,13343.8 L 4604.46,13056.5 L 4626.7,13043.6 L 4625.75,13343.8 Z " /><path stroke="none" fill="#000000" transform="matrix(0.05 0 0 0.05 -202 -642)" d="M 4626.7,13043.6 L 4604.46,13056.5 L 4355.64,12912.8 L 4355.64,12887.1 L 4626.7,13043.6 Z " /><path stroke="none" fill="#000000" transform="matrix(0.05 0 0 0.05 -202 -642)" d="M 4565.15,13072.7 L 4554.05,13092 L 4350.09,12974.2 L 4361.19,12955 L 4565.15,13072.7 Z " /><path stroke="none" fill="#000000" transform="matrix(0.05 0 0 0.05 -202 -642)" d="M 4355.64,12887.1 L 4355.64,12912.8 L 4106.82,13056.5 L 4084.58,13043.6 L 4355.64,12887.1 Z " /><path stroke="none" fill="#000000" transform="matrix(0.05 0 0 0.05 -202 -642)" d="M 4615.1,13362.2 L 4615.1,13349.9 L 4625.75,13343.8 L 4874.87,13487.6 L 4874.81,13513.3 L 4615.1,13362.2 Z " /><text x="0" y="0" stroke="none" fill="#ff0000" transform="matrix(0.05 0 0 0.05 38.2279 51.2048)" font-style="normal" font-weight="bold" font-size="180px" font-family="Helvetica" >O</text><path stroke="none" fill="#ff0000" transform="matrix(0.05 0 0 0.05 -202 -642)" d="M 4891.21,13483.7 L 4913.41,13483.7 L 4913.41,13701.4 L 4891.21,13701.4 L 4891.21,13483.7 Z " /><path stroke="none" fill="#ff0000" transform="matrix(0.05 0 0 0.05 -202 -642)" d="M 4835.71,13483.7 L 4857.91,13483.7 L 4857.91,13701.4 L 4835.71,13701.4 L 4835.71,13483.7 Z " /><text x="0" y="0" stroke="none" fill="#ff0000" transform="matrix(0.05 0 0 0.05 51.4514 28.7348)" font-style="normal" font-weight="bold" font-size="180px" font-family="Helvetica" >NH</text><text x="0" y="0" stroke="none" fill="#ff0000" transform="matrix(0.05 0 0 0.05 64.4504 30.8046)" font-style="normal" font-weight="bold" font-size="135px" font-family="Helvetica" >2</text><path stroke="none" fill="#ff0000" transform="matrix(0.05 0 0 0.05 -202 -642)" d="M 4874.81,13513.3 L 4874.87,13487.6 L 5034.97,13394.3 L 5046.07,13413.5 L 4874.81,13513.3 Z " /></svg>