<?xml version="1.0" standalone="no" ?><!DOCTYPE svg PUBLIC "-//W3C//DTD SVG 1.1//EN" "http://www.w3.org/Graphics/SVG/1.1/DTD/svg11.dtd"><svg width="44px" height="46px" viewBox="0 0 44 46" style="background-color: #ffffff00" xmlns="http://www.w3.org/2000/svg" xmlns:xlink="http://www.w3.org/1999/xlink" version="1.1" ><path stroke="none" fill="#000000" transform="matrix(0.05 0 0 0.05 -308 -649)" d="M 6212.67,13556.1 L 6201.57,13536.8 L 6466.83,13383.1 L 6466.89,13408.8 L 6212.67,13556.1 Z " /><text x="0" y="0" stroke="none" fill="#ff0000" transform="matrix(0.05 0 0 0.05 11.8288 9.09077)" font-style="normal" font-weight="bold" font-size="180px" font-family="Helvetica" >O</text><path stroke="none" fill="#ff0000" transform="matrix(0.05 0 0 0.05 -308 -649)" d="M 6449.93,13412.7 L 6427.73,13412.7 L 6427.73,13197.5 L 6449.93,13197.5 L 6449.93,13412.7 Z " /><path stroke="none" fill="#ff0000" transform="matrix(0.05 0 0 0.05 -308 -649)" d="M 6505.43,13412.7 L 6483.23,13412.7 L 6483.23,13197.5 L 6505.43,13197.5 L 6505.43,13412.7 Z " /><text x="0" y="0" stroke="none" fill="#ff0000" transform="matrix(0.05 0 0 0.05 25.0524 31.5608)" font-style="normal" font-weight="bold" font-size="180px" font-family="Helvetica" >N</text><path stroke="none" fill="#ff0000" transform="matrix(0.05 0 0 0.05 -308 -649)" d="M 6466.89,13408.8 L 6466.83,13383.1 L 6637.85,13482.7 L 6626.75,13501.9 L 6466.89,13408.8 Z " /><path stroke="none" fill="#ff0000" transform="matrix(0.05 0 0 0.05 -308 -649)" d="M 6714.94,13640.9 L 6737.14,13640.9 L 6737.14,13846 L 6714.94,13846 L 6714.94,13640.9 Z " /><path stroke="none" fill="#ff0000" transform="matrix(0.05 0 0 0.05 -308 -649)" d="M 6826.18,13501.4 L 6815.08,13482.2 L 6979.95,13387 L 6991.05,13406.3 L 6826.18,13501.4 Z " /></svg>