<?xml version="1.0" standalone="no" ?><!DOCTYPE svg PUBLIC "-//W3C//DTD SVG 1.1//EN" "http://www.w3.org/Graphics/SVG/1.1/DTD/svg11.dtd"><svg width="55px" height="49px" viewBox="0 0 55 49" style="background-color: #ffffff00" xmlns="http://www.w3.org/2000/svg" xmlns:xlink="http://www.w3.org/1999/xlink" version="1.1" ><path stroke="none" fill="#000000" transform="matrix(0.05 0 0 0.05 -445 -21)" d="M 9130.25,694.831 L 9141.34,675.626 L 9394.74,822.451 L 9394.74,848.104 L 9130.25,694.831 Z " /><path stroke="none" fill="#000000" transform="matrix(0.05 0 0 0.05 -445 -21)" d="M 9394.74,848.104 L 9394.74,822.451 L 9648.13,675.626 L 9659.22,694.831 L 9394.74,848.104 Z " /><path stroke="none" fill="#000000" transform="matrix(0.05 0 0 0.05 -445 -21)" d="M 9631.5,646.818 L 9620.41,627.614 L 9879.36,478.114 L 9890.44,497.319 L 9631.5,646.818 Z " /><path stroke="none" fill="#000000" transform="matrix(0.05 0 0 0.05 -445 -21)" d="M 9659.22,694.831 L 9648.13,675.626 L 9907.08,526.126 L 9918.16,545.331 L 9659.22,694.831 Z " /><path stroke="none" fill="#000000" transform="matrix(0.05 0 0 0.05 -445 -21)" d="M 9686.94,742.843 L 9675.85,723.638 L 9934.8,574.138 L 9945.88,593.343 L 9686.94,742.843 Z " /><text x="0" y="0" stroke="none" fill="#000000" transform="matrix(0.05 0 0 0.05 21.4871 38.9512)" font-style="normal" font-weight="bold" font-size="180px" font-family="Helvetica" >N</text><path stroke="none" fill="#000000" transform="matrix(0.05 0 0 0.05 -445 -21)" d="M 9411.37,818.724 L 9433.54,818.724 L 9433.54,1038.23 L 9411.37,1038.23 L 9411.37,818.724 Z " /><path stroke="none" fill="#000000" transform="matrix(0.05 0 0 0.05 -445 -21)" d="M 9355.93,818.724 L 9378.1,818.724 L 9378.1,1038.23 L 9355.93,1038.23 L 9355.93,818.724 Z " /><text x="0" y="0" stroke="none" fill="#000000" transform="matrix(0.05 0 0 0.05 1.76747 46.4392)" font-style="normal" font-weight="bold" font-size="180px" font-family="Helvetica" >HO</text><path stroke="none" fill="#000000" transform="matrix(0.05 0 0 0.05 -445 -21)" d="M 9294.9,1179.09 L 9305.99,1198.29 L 9225.08,1245 L 9213.99,1225.8 L 9294.9,1179.09 Z " /><path stroke="none" fill="#000000" transform="matrix(0.05 0 0 0.05 -445 -21)" d="M 9786.73,901.514 L 9837.42,982.272 L 9818.42,994.272 L 9767.73,913.514 Z " /><path stroke="none" fill="#000000" transform="matrix(0.05 0 0 0.05 -445 -21)" d="M 9707.53,796.485 C 9707.53,796.485 9820.75,903.279 9820.75,903.279 C 9820.75,903.279 9792.18,899.145 9777.76,908.361 C 9763.34,917.577 9754.83,945.408 9754.83,945.408 C 9754.83,945.408 9707.53,796.485 9707.53,796.485 C 9707.53,796.485 9707.53,796.485 9707.53,796.485 " /><path stroke="#000000" stroke-width="1" fill="none" transform="matrix(0.05 0 0 0.05 -445 -21)" d="M 9707.53,796.485 C 9707.53,796.485 9820.75,903.279 9820.75,903.279 C 9820.75,903.279 9792.18,899.145 9777.76,908.361 C 9763.34,917.577 9754.83,945.408 9754.83,945.408 C 9754.83,945.408 9707.53,796.485 9707.53,796.485 C 9707.53,796.485 9707.53,796.485 9707.53,796.485 " /></svg>