<?xml version="1.0" standalone="no" ?><!DOCTYPE svg PUBLIC "-//W3C//DTD SVG 1.1//EN" "http://www.w3.org/Graphics/SVG/1.1/DTD/svg11.dtd"><svg width="48px" height="42px" viewBox="0 0 48 42" style="background-color: #ffffff00" xmlns="http://www.w3.org/2000/svg" xmlns:xlink="http://www.w3.org/1999/xlink" version="1.1" ><text x="0" y="0" stroke="none" fill="#000000" transform="matrix(0.05 0 0 0.05 16.9229 24.2546)" font-style="normal" font-weight="bold" font-size="180px" font-family="Helvetica" >As</text><text x="0" y="0" stroke="none" fill="#000000" transform="matrix(0.05 0 0 0.05 19.9266 9.27863)" font-style="normal" font-weight="bold" font-size="180px" font-family="Helvetica" >F</text><path stroke="none" fill="#000000" transform="matrix(0.05 0 0 0.05 -170 -216)" d="M 3864.6,4644.3 L 3842.42,4644.3 L 3842.42,4535.35 L 3864.6,4535.35 L 3864.6,4644.3 Z " /><text x="0" y="0" stroke="none" fill="#000000" transform="matrix(0.05 0 0 0.05 2.03479 17.2257)" font-style="normal" font-weight="bold" font-size="180px" font-family="Helvetica" >F</text><path stroke="none" fill="#000000" transform="matrix(0.05 0 0 0.05 -170 -216)" d="M 3750.09,4687.78 L 3741.98,4708.42 L 3720.42,4702.66 L 3730.38,4677.31 L 3750.09,4687.78 Z " /><path stroke="none" fill="#000000" transform="matrix(0.05 0 0 0.05 -170 -216)" d="M 3698.54,4660.41 L 3685.59,4693.37 L 3664.02,4687.62 L 3678.83,4649.95 L 3698.54,4660.41 Z " /><path stroke="none" fill="#000000" transform="matrix(0.05 0 0 0.05 -170 -216)" d="M 3646.99,4633.05 L 3629.2,4678.33 L 3607.63,4672.58 L 3627.27,4622.58 L 3646.99,4633.05 Z " /><path stroke="none" fill="#000000" transform="matrix(0.05 0 0 0.05 -170 -216)" d="M 3595.44,4605.68 L 3572.81,4663.29 L 3551.24,4657.54 L 3575.72,4595.22 L 3595.44,4605.68 Z " /><text x="0" y="0" stroke="none" fill="#000000" transform="matrix(0.05 0 0 0.05 1.3958 31.9225)" font-style="normal" font-weight="bold" font-size="180px" font-family="Helvetica" >F</text><path stroke="none" fill="#000000" transform="matrix(0.05 0 0 0.05 -170 -216)" d="M 3703.45,4790.41 L 3711.93,4810.9 L 3588.95,4886.02 L 3563.35,4824.15 L 3703.45,4790.41 Z " /><text x="0" y="0" stroke="none" fill="#000000" transform="matrix(0.05 0 0 0.05 19.9266 39.2306)" font-style="normal" font-weight="bold" font-size="180px" font-family="Helvetica" >F</text><path stroke="none" fill="#000000" transform="matrix(0.05 0 0 0.05 -170 -216)" d="M 3842.42,4838.78 L 3864.6,4838.78 L 3864.6,4944.91 L 3842.42,4944.91 L 3842.42,4838.78 Z " /><text x="0" y="0" stroke="none" fill="#000000" transform="matrix(0.05 0 0 0.05 39.7354 24.2546)" font-style="normal" font-weight="bold" font-size="180px" font-family="Helvetica" >F</text><path stroke="none" fill="#000000" transform="matrix(0.05 0 0 0.05 -170 -216)" d="M 3991.27,4751.41 L 3991.27,4729.23 L 4177.18,4729.23 L 4177.18,4751.41 L 3991.27,4751.41 Z " /><path stroke="none" fill="#000000" transform="matrix(0.05 0 0 0.05 -170 -216)" d="M 4015.47,4951.24 L 4066.16,5032 L 4047.16,5044 L 3996.47,4963.24 Z " /><path stroke="none" fill="#000000" transform="matrix(0.05 0 0 0.05 -170 -216)" d="M 3936.28,4846.22 C 3936.28,4846.22 4049.5,4953.01 4049.5,4953.01 C 4049.5,4953.01 4020.92,4948.88 4006.5,4958.09 C 3992.08,4967.31 3983.57,4995.14 3983.57,4995.14 C 3983.57,4995.14 3936.28,4846.22 3936.28,4846.22 C 3936.28,4846.22 3936.28,4846.22 3936.28,4846.22 " /><path stroke="#000000" stroke-width="1" fill="none" transform="matrix(0.05 0 0 0.05 -170 -216)" d="M 3936.28,4846.22 C 3936.28,4846.22 4049.5,4953.01 4049.5,4953.01 C 4049.5,4953.01 4020.92,4948.88 4006.5,4958.09 C 3992.08,4967.31 3983.57,4995.14 3983.57,4995.14 C 3983.57,4995.14 3936.28,4846.22 3936.28,4846.22 C 3936.28,4846.22 3936.28,4846.22 3936.28,4846.22 " /></svg>